<?xml version="1.0" encoding="UTF-8" standalone="no"?>
<!DOCTYPE svg PUBLIC "-//W3C//DTD SVG 1.1//EN"
 "http://www.w3.org/Graphics/SVG/1.1/DTD/svg11.dtd">
<!-- Generated by graphviz version 2.43.0 (0)
 -->
<!-- Title: appender.h Pages: 1 -->
<svg width="2188pt" height="308pt"
 viewBox="0.00 0.00 2188.00 308.00" xmlns="http://www.w3.org/2000/svg" xmlns:xlink="http://www.w3.org/1999/xlink">
<g id="graph0" class="graph" transform="scale(1 1) rotate(0) translate(4 304)">
<title>appender.h</title>
<polygon fill="white" stroke="transparent" points="-4,4 -4,-304 2184,-304 2184,4 -4,4"/>
<!-- Node1 -->
<g id="node1" class="node">
<title>Node1</title>
<g id="a_node1"><a xlink:title=" ">
<polygon fill="#bfbfbf" stroke="black" points="936,-280.5 936,-299.5 1007,-299.5 1007,-280.5 936,-280.5"/>
<text text-anchor="middle" x="971.5" y="-287.5" font-family="Helvetica,sans-Serif" font-size="10.00">appender.h</text>
</a>
</g>
</g>
<!-- Node2 -->
<g id="node2" class="node">
<title>Node2</title>
<g id="a_node2"><a xlink:href="appenderattachable_8h.html" target="_top" xlink:title=" ">
<polygon fill="white" stroke="black" points="292,-224.5 292,-243.5 415,-243.5 415,-224.5 292,-224.5"/>
<text text-anchor="middle" x="353.5" y="-231.5" font-family="Helvetica,sans-Serif" font-size="10.00">appenderattachable.h</text>
</a>
</g>
</g>
<!-- Node1&#45;&gt;Node2 -->
<g id="edge1" class="edge">
<title>Node1&#45;&gt;Node2</title>
<path fill="none" stroke="midnightblue" d="M925.53,-284.98C815.97,-275.41 539.37,-251.24 415.34,-240.4"/>
<polygon fill="midnightblue" stroke="midnightblue" points="925.34,-288.48 935.6,-285.86 925.95,-281.51 925.34,-288.48"/>
</g>
<!-- Node4 -->
<g id="node4" class="node">
<title>Node4</title>
<g id="a_node4"><a xlink:href="asyncappender_8h.html" target="_top" xlink:title=" ">
<polygon fill="white" stroke="black" points="0,-112.5 0,-131.5 99,-131.5 99,-112.5 0,-112.5"/>
<text text-anchor="middle" x="49.5" y="-119.5" font-family="Helvetica,sans-Serif" font-size="10.00">asyncappender.h</text>
</a>
</g>
</g>
<!-- Node1&#45;&gt;Node4 -->
<g id="edge19" class="edge">
<title>Node1&#45;&gt;Node4</title>
<path fill="none" stroke="midnightblue" d="M925.59,-289.12C814.54,-288.72 522.88,-283.65 283.5,-244 189.05,-228.35 147.05,-251.6 75.5,-188 58.6,-172.98 52.53,-145.47 50.48,-131.55"/>
<polygon fill="midnightblue" stroke="midnightblue" points="925.76,-292.62 935.77,-289.14 925.78,-285.62 925.76,-292.62"/>
</g>
<!-- Node5 -->
<g id="node5" class="node">
<title>Node5</title>
<g id="a_node5"><a xlink:href="log4cplus_8h.html" target="_top" xlink:title=" ">
<polygon fill="white" stroke="black" points="579.5,-0.5 579.5,-19.5 651.5,-19.5 651.5,-0.5 579.5,-0.5"/>
<text text-anchor="middle" x="615.5" y="-7.5" font-family="Helvetica,sans-Serif" font-size="10.00">log4cplus.h</text>
</a>
</g>
</g>
<!-- Node1&#45;&gt;Node5 -->
<g id="edge31" class="edge">
<title>Node1&#45;&gt;Node5</title>
<path fill="none" stroke="midnightblue" d="M978.6,-271.02C997.4,-222.08 1045.09,-87.98 1016.5,-56 992.37,-29.01 745.66,-16.26 651.63,-12.36"/>
<polygon fill="midnightblue" stroke="midnightblue" points="975.34,-269.76 974.98,-280.35 981.86,-272.3 975.34,-269.76"/>
</g>
<!-- Node9 -->
<g id="node9" class="node">
<title>Node9</title>
<g id="a_node9"><a xlink:href="configurator_8h.html" target="_top" xlink:title=" ">
<polygon fill="white" stroke="black" points="426,-112.5 426,-131.5 509,-131.5 509,-112.5 426,-112.5"/>
<text text-anchor="middle" x="467.5" y="-119.5" font-family="Helvetica,sans-Serif" font-size="10.00">configurator.h</text>
</a>
</g>
</g>
<!-- Node1&#45;&gt;Node9 -->
<g id="edge22" class="edge">
<title>Node1&#45;&gt;Node9</title>
<path fill="none" stroke="midnightblue" d="M925.78,-287.63C836.15,-284.31 640.91,-273.81 581.5,-244 528.1,-217.21 486.52,-154.63 472.56,-131.66"/>
<polygon fill="midnightblue" stroke="midnightblue" points="925.8,-291.13 935.91,-287.99 926.04,-284.14 925.8,-291.13"/>
</g>
<!-- Node11 -->
<g id="node11" class="node">
<title>Node11</title>
<g id="a_node11"><a xlink:href="hierarchylocker_8h.html" target="_top" xlink:title=" ">
<polygon fill="white" stroke="black" points="527.5,-112.5 527.5,-131.5 627.5,-131.5 627.5,-112.5 527.5,-112.5"/>
<text text-anchor="middle" x="577.5" y="-119.5" font-family="Helvetica,sans-Serif" font-size="10.00">hierarchylocker.h</text>
</a>
</g>
</g>
<!-- Node1&#45;&gt;Node11 -->
<g id="edge30" class="edge">
<title>Node1&#45;&gt;Node11</title>
<path fill="none" stroke="midnightblue" d="M925.84,-288.02C861.97,-285.47 743.04,-276.34 647.5,-244 599.62,-227.79 573.97,-231.67 548.5,-188 537.29,-168.79 556.18,-144.46 568.39,-131.7"/>
<polygon fill="midnightblue" stroke="midnightblue" points="925.86,-291.53 935.99,-288.39 926.12,-284.53 925.86,-291.53"/>
</g>
<!-- Node14 -->
<g id="node14" class="node">
<title>Node14</title>
<g id="a_node14"><a xlink:href="callbackappender_8h.html" target="_top" xlink:title=" ">
<polygon fill="white" stroke="black" points="1018.5,-224.5 1018.5,-243.5 1128.5,-243.5 1128.5,-224.5 1018.5,-224.5"/>
<text text-anchor="middle" x="1073.5" y="-231.5" font-family="Helvetica,sans-Serif" font-size="10.00">callbackappender.h</text>
</a>
</g>
</g>
<!-- Node1&#45;&gt;Node14 -->
<g id="edge20" class="edge">
<title>Node1&#45;&gt;Node14</title>
<path fill="none" stroke="midnightblue" d="M996.83,-275.59C1015.69,-265.61 1040.88,-252.27 1057.15,-243.65"/>
<polygon fill="midnightblue" stroke="midnightblue" points="995.09,-272.55 987.89,-280.32 998.36,-278.74 995.09,-272.55"/>
</g>
<!-- Node15 -->
<g id="node15" class="node">
<title>Node15</title>
<g id="a_node15"><a xlink:href="clfsappender_8h.html" target="_top" xlink:title=" ">
<polygon fill="white" stroke="black" points="1146.5,-224.5 1146.5,-243.5 1234.5,-243.5 1234.5,-224.5 1146.5,-224.5"/>
<text text-anchor="middle" x="1190.5" y="-231.5" font-family="Helvetica,sans-Serif" font-size="10.00">clfsappender.h</text>
</a>
</g>
</g>
<!-- Node1&#45;&gt;Node15 -->
<g id="edge21" class="edge">
<title>Node1&#45;&gt;Node15</title>
<path fill="none" stroke="midnightblue" d="M1016.01,-278.02C1057.38,-267.82 1118.14,-252.84 1155.96,-243.52"/>
<polygon fill="midnightblue" stroke="midnightblue" points="1015.07,-274.65 1006.2,-280.44 1016.75,-281.45 1015.07,-274.65"/>
</g>
<!-- Node16 -->
<g id="node16" class="node">
<title>Node16</title>
<g id="a_node16"><a xlink:href="consoleappender_8h.html" target="_top" xlink:title=" ">
<polygon fill="white" stroke="black" points="557.5,-168.5 557.5,-187.5 665.5,-187.5 665.5,-168.5 557.5,-168.5"/>
<text text-anchor="middle" x="611.5" y="-175.5" font-family="Helvetica,sans-Serif" font-size="10.00">consoleappender.h</text>
</a>
</g>
</g>
<!-- Node1&#45;&gt;Node16 -->
<g id="edge23" class="edge">
<title>Node1&#45;&gt;Node16</title>
<path fill="none" stroke="midnightblue" d="M925.74,-285.32C854.78,-279.05 721.93,-264.91 679.5,-244 652.25,-230.57 628.7,-202.34 617.86,-187.91"/>
<polygon fill="midnightblue" stroke="midnightblue" points="925.48,-288.81 935.74,-286.19 926.08,-281.83 925.48,-288.81"/>
</g>
<!-- Node17 -->
<g id="node17" class="node">
<title>Node17</title>
<g id="a_node17"><a xlink:href="deviceappender_8hxx.html" target="_top" xlink:title=" ">
<polygon fill="white" stroke="black" points="1252,-224.5 1252,-243.5 1367,-243.5 1367,-224.5 1252,-224.5"/>
<text text-anchor="middle" x="1309.5" y="-231.5" font-family="Helvetica,sans-Serif" font-size="10.00">deviceappender.hxx</text>
</a>
</g>
</g>
<!-- Node1&#45;&gt;Node17 -->
<g id="edge25" class="edge">
<title>Node1&#45;&gt;Node17</title>
<path fill="none" stroke="midnightblue" d="M1016.93,-281.74C1079.05,-271.82 1190.27,-254.05 1256.23,-243.51"/>
<polygon fill="midnightblue" stroke="midnightblue" points="1016.36,-278.29 1007.03,-283.32 1017.46,-285.2 1016.36,-278.29"/>
</g>
<!-- Node18 -->
<g id="node18" class="node">
<title>Node18</title>
<g id="a_node18"><a xlink:href="factory_8h.html" target="_top" xlink:title=" ">
<polygon fill="white" stroke="black" points="644,-56.5 644,-75.5 703,-75.5 703,-56.5 644,-56.5"/>
<text text-anchor="middle" x="673.5" y="-63.5" font-family="Helvetica,sans-Serif" font-size="10.00">factory.h</text>
</a>
</g>
</g>
<!-- Node1&#45;&gt;Node18 -->
<g id="edge26" class="edge">
<title>Node1&#45;&gt;Node18</title>
<path fill="none" stroke="midnightblue" d="M925.24,-285.43C865.39,-278.1 762.86,-255.8 712.5,-188 685.78,-152.03 676.91,-97.02 674.39,-75.79"/>
<polygon fill="midnightblue" stroke="midnightblue" points="925.21,-288.95 935.54,-286.59 925.99,-281.99 925.21,-288.95"/>
</g>
<!-- Node19 -->
<g id="node19" class="node">
<title>Node19</title>
<g id="a_node19"><a xlink:href="fileappender_8h.html" target="_top" xlink:title=" ">
<polygon fill="white" stroke="black" points="721.5,-168.5 721.5,-187.5 807.5,-187.5 807.5,-168.5 721.5,-168.5"/>
<text text-anchor="middle" x="764.5" y="-175.5" font-family="Helvetica,sans-Serif" font-size="10.00">fileappender.h</text>
</a>
</g>
</g>
<!-- Node1&#45;&gt;Node19 -->
<g id="edge28" class="edge">
<title>Node1&#45;&gt;Node19</title>
<path fill="none" stroke="midnightblue" d="M925.63,-282.11C894.4,-275.84 853.15,-264.34 821.5,-244 798.01,-228.91 778.57,-201.43 769.69,-187.54"/>
<polygon fill="midnightblue" stroke="midnightblue" points="925.34,-285.61 935.81,-284.04 926.64,-278.74 925.34,-285.61"/>
</g>
<!-- Node20 -->
<g id="node20" class="node">
<title>Node20</title>
<g id="a_node20"><a xlink:href="log4judpappender_8h.html" target="_top" xlink:title=" ">
<polygon fill="white" stroke="black" points="1385,-224.5 1385,-243.5 1498,-243.5 1498,-224.5 1385,-224.5"/>
<text text-anchor="middle" x="1441.5" y="-231.5" font-family="Helvetica,sans-Serif" font-size="10.00">log4judpappender.h</text>
</a>
</g>
</g>
<!-- Node1&#45;&gt;Node20 -->
<g id="edge32" class="edge">
<title>Node1&#45;&gt;Node20</title>
<path fill="none" stroke="midnightblue" d="M1017.07,-284.34C1092.09,-276.58 1246.26,-260.25 1376.5,-244 1379.21,-243.66 1381.99,-243.31 1384.79,-242.94"/>
<polygon fill="midnightblue" stroke="midnightblue" points="1016.61,-280.87 1007.02,-285.38 1017.33,-287.83 1016.61,-280.87"/>
</g>
<!-- Node21 -->
<g id="node21" class="node">
<title>Node21</title>
<g id="a_node21"><a xlink:href="msttsappender_8h.html" target="_top" xlink:title=" ">
<polygon fill="white" stroke="black" points="1516.5,-224.5 1516.5,-243.5 1614.5,-243.5 1614.5,-224.5 1516.5,-224.5"/>
<text text-anchor="middle" x="1565.5" y="-231.5" font-family="Helvetica,sans-Serif" font-size="10.00">msttsappender.h</text>
</a>
</g>
</g>
<!-- Node1&#45;&gt;Node21 -->
<g id="edge33" class="edge">
<title>Node1&#45;&gt;Node21</title>
<path fill="none" stroke="midnightblue" d="M1017.17,-286.25C1109.83,-280.43 1326.48,-265.62 1507.5,-244 1510.43,-243.65 1513.45,-243.26 1516.49,-242.85"/>
<polygon fill="midnightblue" stroke="midnightblue" points="1016.79,-282.77 1007.02,-286.88 1017.22,-289.75 1016.79,-282.77"/>
</g>
<!-- Node22 -->
<g id="node22" class="node">
<title>Node22</title>
<g id="a_node22"><a xlink:href="nteventlogappender_8h.html" target="_top" xlink:title=" ">
<polygon fill="white" stroke="black" points="1633,-224.5 1633,-243.5 1756,-243.5 1756,-224.5 1633,-224.5"/>
<text text-anchor="middle" x="1694.5" y="-231.5" font-family="Helvetica,sans-Serif" font-size="10.00">nteventlogappender.h</text>
</a>
</g>
</g>
<!-- Node1&#45;&gt;Node22 -->
<g id="edge34" class="edge">
<title>Node1&#45;&gt;Node22</title>
<path fill="none" stroke="midnightblue" d="M1017.34,-286.74C1123.88,-281.29 1396.46,-266.21 1623.5,-244 1626.59,-243.7 1629.76,-243.37 1632.95,-243.02"/>
<polygon fill="midnightblue" stroke="midnightblue" points="1017.06,-283.25 1007.25,-287.25 1017.42,-290.24 1017.06,-283.25"/>
</g>
<!-- Node23 -->
<g id="node23" class="node">
<title>Node23</title>
<g id="a_node23"><a xlink:href="nullappender_8h.html" target="_top" xlink:title=" ">
<polygon fill="white" stroke="black" points="760,-56.5 760,-75.5 849,-75.5 849,-56.5 760,-56.5"/>
<text text-anchor="middle" x="804.5" y="-63.5" font-family="Helvetica,sans-Serif" font-size="10.00">nullappender.h</text>
</a>
</g>
</g>
<!-- Node1&#45;&gt;Node23 -->
<g id="edge35" class="edge">
<title>Node1&#45;&gt;Node23</title>
<path fill="none" stroke="midnightblue" d="M949.37,-274.69C923.56,-257.03 881.05,-224.78 854.5,-188 827.49,-150.59 811.88,-96.42 806.57,-75.6"/>
<polygon fill="midnightblue" stroke="midnightblue" points="947.5,-277.65 957.75,-280.32 951.4,-271.84 947.5,-277.65"/>
</g>
<!-- Node24 -->
<g id="node24" class="node">
<title>Node24</title>
<g id="a_node24"><a xlink:href="qt4debugappender_8h.html" target="_top" xlink:title=" ">
<polygon fill="white" stroke="black" points="1774.5,-224.5 1774.5,-243.5 1890.5,-243.5 1890.5,-224.5 1774.5,-224.5"/>
<text text-anchor="middle" x="1832.5" y="-231.5" font-family="Helvetica,sans-Serif" font-size="10.00">qt4debugappender.h</text>
</a>
</g>
</g>
<!-- Node1&#45;&gt;Node24 -->
<g id="edge37" class="edge">
<title>Node1&#45;&gt;Node24</title>
<path fill="none" stroke="midnightblue" d="M1017.28,-287.64C1139.17,-283.74 1481.7,-271.06 1765.5,-244 1768.42,-243.72 1771.41,-243.41 1774.43,-243.08"/>
<polygon fill="midnightblue" stroke="midnightblue" points="1017.07,-284.14 1007.19,-287.96 1017.29,-291.14 1017.07,-284.14"/>
</g>
<!-- Node25 -->
<g id="node25" class="node">
<title>Node25</title>
<g id="a_node25"><a xlink:href="qt5debugappender_8h.html" target="_top" xlink:title=" ">
<polygon fill="white" stroke="black" points="1908.5,-224.5 1908.5,-243.5 2024.5,-243.5 2024.5,-224.5 1908.5,-224.5"/>
<text text-anchor="middle" x="1966.5" y="-231.5" font-family="Helvetica,sans-Serif" font-size="10.00">qt5debugappender.h</text>
</a>
</g>
</g>
<!-- Node1&#45;&gt;Node25 -->
<g id="edge38" class="edge">
<title>Node1&#45;&gt;Node25</title>
<path fill="none" stroke="midnightblue" d="M1017.42,-288.16C1152.75,-285.37 1561.73,-274.82 1899.5,-244 1902.42,-243.73 1905.41,-243.43 1908.43,-243.11"/>
<polygon fill="midnightblue" stroke="midnightblue" points="1017.33,-284.66 1007.41,-288.36 1017.47,-291.66 1017.33,-284.66"/>
</g>
<!-- Node26 -->
<g id="node26" class="node">
<title>Node26</title>
<g id="a_node26"><a xlink:href="socketappender_8h.html" target="_top" xlink:title=" ">
<polygon fill="white" stroke="black" points="863.5,-168.5 863.5,-187.5 965.5,-187.5 965.5,-168.5 863.5,-168.5"/>
<text text-anchor="middle" x="914.5" y="-175.5" font-family="Helvetica,sans-Serif" font-size="10.00">socketappender.h</text>
</a>
</g>
</g>
<!-- Node1&#45;&gt;Node26 -->
<g id="edge39" class="edge">
<title>Node1&#45;&gt;Node26</title>
<path fill="none" stroke="midnightblue" d="M957.47,-272.23C951.1,-264.07 943.82,-253.9 938.5,-244 928.25,-224.93 920.55,-200.54 916.88,-187.74"/>
<polygon fill="midnightblue" stroke="midnightblue" points="954.88,-274.6 963.88,-280.19 960.33,-270.21 954.88,-274.6"/>
</g>
<!-- Node27 -->
<g id="node27" class="node">
<title>Node27</title>
<g id="a_node27"><a xlink:href="syslogappender_8h.html" target="_top" xlink:title=" ">
<polygon fill="white" stroke="black" points="905.5,-56.5 905.5,-75.5 1007.5,-75.5 1007.5,-56.5 905.5,-56.5"/>
<text text-anchor="middle" x="956.5" y="-63.5" font-family="Helvetica,sans-Serif" font-size="10.00">syslogappender.h</text>
</a>
</g>
</g>
<!-- Node1&#45;&gt;Node27 -->
<g id="edge41" class="edge">
<title>Node1&#45;&gt;Node27</title>
<path fill="none" stroke="midnightblue" d="M973.26,-270.4C975.21,-246.61 977.7,-204.16 974.5,-168 971.44,-133.4 962.6,-92.91 958.56,-75.58"/>
<polygon fill="midnightblue" stroke="midnightblue" points="969.76,-270.2 972.37,-280.47 976.74,-270.82 969.76,-270.2"/>
</g>
<!-- Node28 -->
<g id="node28" class="node">
<title>Node28</title>
<g id="a_node28"><a xlink:href="win32consoleappender_8h.html" target="_top" xlink:title=" ">
<polygon fill="white" stroke="black" points="2043,-224.5 2043,-243.5 2180,-243.5 2180,-224.5 2043,-224.5"/>
<text text-anchor="middle" x="2111.5" y="-231.5" font-family="Helvetica,sans-Serif" font-size="10.00">win32consoleappender.h</text>
</a>
</g>
</g>
<!-- Node1&#45;&gt;Node28 -->
<g id="edge43" class="edge">
<title>Node1&#45;&gt;Node28</title>
<path fill="none" stroke="midnightblue" d="M1017.37,-288.24C1164.97,-285.56 1640.95,-274.92 2033.5,-244 2036.49,-243.76 2039.54,-243.5 2042.62,-243.22"/>
<polygon fill="midnightblue" stroke="midnightblue" points="1017.25,-284.75 1007.31,-288.42 1017.37,-291.75 1017.25,-284.75"/>
</g>
<!-- Node3 -->
<g id="node3" class="node">
<title>Node3</title>
<g id="a_node3"><a xlink:href="appenderattachableimpl_8h.html" target="_top" xlink:title=" ">
<polygon fill="white" stroke="black" points="84,-168.5 84,-187.5 229,-187.5 229,-168.5 84,-168.5"/>
<text text-anchor="middle" x="156.5" y="-175.5" font-family="Helvetica,sans-Serif" font-size="10.00">appenderattachableimpl.h</text>
</a>
</g>
</g>
<!-- Node2&#45;&gt;Node3 -->
<g id="edge2" class="edge">
<title>Node2&#45;&gt;Node3</title>
<path fill="none" stroke="midnightblue" d="M312.27,-221.7C275.09,-211.51 221.23,-196.74 187.57,-187.52"/>
<polygon fill="midnightblue" stroke="midnightblue" points="311.72,-225.18 322.28,-224.44 313.57,-218.42 311.72,-225.18"/>
</g>
<!-- Node8 -->
<g id="node8" class="node">
<title>Node8</title>
<g id="a_node8"><a xlink:href="logger_8h.html" target="_top" xlink:title="This header defines the Logger class and the logging macros.">
<polygon fill="white" stroke="black" points="325.5,-168.5 325.5,-187.5 381.5,-187.5 381.5,-168.5 325.5,-168.5"/>
<text text-anchor="middle" x="353.5" y="-175.5" font-family="Helvetica,sans-Serif" font-size="10.00">logger.h</text>
</a>
</g>
</g>
<!-- Node2&#45;&gt;Node8 -->
<g id="edge7" class="edge">
<title>Node2&#45;&gt;Node8</title>
<path fill="none" stroke="midnightblue" d="M353.5,-213.8C353.5,-204.91 353.5,-194.78 353.5,-187.75"/>
<polygon fill="midnightblue" stroke="midnightblue" points="350,-214.08 353.5,-224.08 357,-214.08 350,-214.08"/>
</g>
<!-- Node3&#45;&gt;Node4 -->
<g id="edge3" class="edge">
<title>Node3&#45;&gt;Node4</title>
<path fill="none" stroke="midnightblue" d="M130.2,-163.73C110.39,-153.73 83.79,-140.31 66.65,-131.65"/>
<polygon fill="midnightblue" stroke="midnightblue" points="128.8,-166.94 139.31,-168.32 131.96,-160.69 128.8,-166.94"/>
</g>
<!-- Node6 -->
<g id="node6" class="node">
<title>Node6</title>
<g id="a_node6"><a xlink:href="loggerimpl_8h.html" target="_top" xlink:title=" ">
<polygon fill="white" stroke="black" points="117.5,-112.5 117.5,-131.5 195.5,-131.5 195.5,-112.5 117.5,-112.5"/>
<text text-anchor="middle" x="156.5" y="-119.5" font-family="Helvetica,sans-Serif" font-size="10.00">loggerimpl.h</text>
</a>
</g>
</g>
<!-- Node3&#45;&gt;Node6 -->
<g id="edge5" class="edge">
<title>Node3&#45;&gt;Node6</title>
<path fill="none" stroke="midnightblue" d="M156.5,-157.8C156.5,-148.91 156.5,-138.78 156.5,-131.75"/>
<polygon fill="midnightblue" stroke="midnightblue" points="153,-158.08 156.5,-168.08 160,-158.08 153,-158.08"/>
</g>
<!-- Node4&#45;&gt;Node5 -->
<g id="edge4" class="edge">
<title>Node4&#45;&gt;Node5</title>
<path fill="none" stroke="midnightblue" d="M53.58,-102.64C57.98,-87.45 66.62,-66.69 82.5,-56 123.57,-28.35 466.07,-15.54 579.31,-12.03"/>
<polygon fill="midnightblue" stroke="midnightblue" points="50.14,-101.94 51.07,-112.49 56.93,-103.66 50.14,-101.94"/>
</g>
<!-- Node7 -->
<g id="node7" class="node">
<title>Node7</title>
<g id="a_node7"><a xlink:href="rootlogger_8h.html" target="_top" xlink:title=" ">
<polygon fill="white" stroke="black" points="91,-56.5 91,-75.5 166,-75.5 166,-56.5 91,-56.5"/>
<text text-anchor="middle" x="128.5" y="-63.5" font-family="Helvetica,sans-Serif" font-size="10.00">rootlogger.h</text>
</a>
</g>
</g>
<!-- Node6&#45;&gt;Node7 -->
<g id="edge6" class="edge">
<title>Node6&#45;&gt;Node7</title>
<path fill="none" stroke="midnightblue" d="M147.16,-102.98C142.41,-93.82 136.84,-83.09 133.04,-75.75"/>
<polygon fill="midnightblue" stroke="midnightblue" points="144.17,-104.82 151.88,-112.08 150.38,-101.59 144.17,-104.82"/>
</g>
<!-- Node8&#45;&gt;Node5 -->
<g id="edge13" class="edge">
<title>Node8&#45;&gt;Node5</title>
<path fill="none" stroke="midnightblue" d="M318.05,-164.2C303.72,-157.06 288.66,-146.61 280.5,-132 259.3,-94.02 325.18,-59.41 331.5,-56 373.74,-33.22 512.7,-19.28 579.29,-13.74"/>
<polygon fill="midnightblue" stroke="midnightblue" points="316.74,-167.44 327.29,-168.41 319.65,-161.08 316.74,-167.44"/>
</g>
<!-- Node8&#45;&gt;Node9 -->
<g id="edge8" class="edge">
<title>Node8&#45;&gt;Node9</title>
<path fill="none" stroke="midnightblue" d="M380.74,-164.1C402.04,-154.01 431.04,-140.27 449.52,-131.52"/>
<polygon fill="midnightblue" stroke="midnightblue" points="379.1,-161 371.56,-168.44 382.1,-167.33 379.1,-161"/>
</g>
<!-- Node10 -->
<g id="node10" class="node">
<title>Node10</title>
<g id="a_node10"><a xlink:href="hierarchy_8h.html" target="_top" xlink:title=" ">
<polygon fill="white" stroke="black" points="184.5,-56.5 184.5,-75.5 254.5,-75.5 254.5,-56.5 184.5,-56.5"/>
<text text-anchor="middle" x="219.5" y="-63.5" font-family="Helvetica,sans-Serif" font-size="10.00">hierarchy.h</text>
</a>
</g>
</g>
<!-- Node8&#45;&gt;Node10 -->
<g id="edge10" class="edge">
<title>Node8&#45;&gt;Node10</title>
<path fill="none" stroke="midnightblue" d="M315.62,-168.49C293.37,-161.81 266.06,-150.46 247.5,-132 231.47,-116.06 224.02,-89.45 221.09,-75.75"/>
<polygon fill="midnightblue" stroke="midnightblue" points="314.86,-171.92 325.43,-171.24 316.75,-165.18 314.86,-171.92"/>
</g>
<!-- Node8&#45;&gt;Node11 -->
<g id="edge12" class="edge">
<title>Node8&#45;&gt;Node11</title>
<path fill="none" stroke="midnightblue" d="M391.75,-167.78C433.85,-157.63 501,-141.44 541.99,-131.56"/>
<polygon fill="midnightblue" stroke="midnightblue" points="390.77,-164.41 381.87,-170.16 392.41,-171.22 390.77,-164.41"/>
</g>
<!-- Node12 -->
<g id="node12" class="node">
<title>Node12</title>
<g id="a_node12"><a xlink:href="loggingmacros_8h.html" target="_top" xlink:title="This header defines the logging macros.">
<polygon fill="white" stroke="black" points="357.5,-56.5 357.5,-75.5 455.5,-75.5 455.5,-56.5 357.5,-56.5"/>
<text text-anchor="middle" x="406.5" y="-63.5" font-family="Helvetica,sans-Serif" font-size="10.00">loggingmacros.h</text>
</a>
</g>
</g>
<!-- Node8&#45;&gt;Node12 -->
<g id="edge14" class="edge">
<title>Node8&#45;&gt;Node12</title>
<path fill="none" stroke="midnightblue" d="M363.77,-159.48C368.46,-151.24 373.97,-141.22 378.5,-132 388.26,-112.15 398.14,-88.08 403.14,-75.54"/>
<polygon fill="midnightblue" stroke="midnightblue" points="360.72,-157.77 358.75,-168.18 366.78,-161.27 360.72,-157.77"/>
</g>
<!-- Node13 -->
<g id="node13" class="node">
<title>Node13</title>
<g id="a_node13"><a xlink:href="tracelogger_8h.html" target="_top" xlink:title=" ">
<polygon fill="white" stroke="black" points="289.5,-112.5 289.5,-131.5 369.5,-131.5 369.5,-112.5 289.5,-112.5"/>
<text text-anchor="middle" x="329.5" y="-119.5" font-family="Helvetica,sans-Serif" font-size="10.00">tracelogger.h</text>
</a>
</g>
</g>
<!-- Node8&#45;&gt;Node13 -->
<g id="edge16" class="edge">
<title>Node8&#45;&gt;Node13</title>
<path fill="none" stroke="midnightblue" d="M345.36,-158.69C341.32,-149.59 336.62,-139.01 333.39,-131.75"/>
<polygon fill="midnightblue" stroke="midnightblue" points="342.28,-160.37 349.54,-168.08 348.67,-157.52 342.28,-160.37"/>
</g>
<!-- Node9&#45;&gt;Node5 -->
<g id="edge9" class="edge">
<title>Node9&#45;&gt;Node5</title>
<path fill="none" stroke="midnightblue" d="M487.52,-106.12C518.94,-82.77 578.81,-38.27 603.94,-19.59"/>
<polygon fill="midnightblue" stroke="midnightblue" points="485.05,-103.59 479.11,-112.37 489.23,-109.21 485.05,-103.59"/>
</g>
<!-- Node10&#45;&gt;Node5 -->
<g id="edge11" class="edge">
<title>Node10&#45;&gt;Node5</title>
<path fill="none" stroke="midnightblue" d="M264.63,-56.62C265.93,-56.41 267.23,-56.2 268.5,-56 381.63,-38.29 516.3,-22.26 579.44,-15.04"/>
<polygon fill="midnightblue" stroke="midnightblue" points="263.8,-53.21 254.53,-58.34 264.97,-60.11 263.8,-53.21"/>
</g>
<!-- Node12&#45;&gt;Node5 -->
<g id="edge15" class="edge">
<title>Node12&#45;&gt;Node5</title>
<path fill="none" stroke="midnightblue" d="M449.48,-53.89C488.95,-43.7 546.6,-28.8 582.54,-19.52"/>
<polygon fill="midnightblue" stroke="midnightblue" points="448.42,-50.55 439.62,-56.44 450.17,-57.33 448.42,-50.55"/>
</g>
<!-- Node13&#45;&gt;Node5 -->
<g id="edge17" class="edge">
<title>Node13&#45;&gt;Node5</title>
<path fill="none" stroke="midnightblue" d="M329.84,-102.29C331.16,-87.54 335.48,-67.58 348.5,-56 382.1,-26.13 514.51,-15.78 579.35,-12.45"/>
<polygon fill="midnightblue" stroke="midnightblue" points="326.34,-102.17 329.32,-112.34 333.33,-102.53 326.34,-102.17"/>
</g>
<!-- Node13&#45;&gt;Node12 -->
<g id="edge18" class="edge">
<title>Node13&#45;&gt;Node12</title>
<path fill="none" stroke="midnightblue" d="M350.4,-106.34C364.41,-96.52 382.38,-83.91 394.16,-75.65"/>
<polygon fill="midnightblue" stroke="midnightblue" points="348.05,-103.72 341.87,-112.32 352.07,-109.45 348.05,-103.72"/>
</g>
<!-- Node16&#45;&gt;Node5 -->
<g id="edge24" class="edge">
<title>Node16&#45;&gt;Node5</title>
<path fill="none" stroke="midnightblue" d="M623.74,-159.83C628.75,-151.79 633.95,-141.82 636.5,-132 642.09,-110.43 624.56,-43.43 617.93,-19.56"/>
<polygon fill="midnightblue" stroke="midnightblue" points="620.75,-158.01 618.13,-168.27 626.58,-161.89 620.75,-158.01"/>
</g>
<!-- Node18&#45;&gt;Node5 -->
<g id="edge27" class="edge">
<title>Node18&#45;&gt;Node5</title>
<path fill="none" stroke="midnightblue" d="M656.59,-49.25C646.3,-39.67 633.53,-27.79 624.99,-19.83"/>
<polygon fill="midnightblue" stroke="midnightblue" points="654.48,-52.07 664.18,-56.32 659.25,-46.95 654.48,-52.07"/>
</g>
<!-- Node19&#45;&gt;Node5 -->
<g id="edge29" class="edge">
<title>Node19&#45;&gt;Node5</title>
<path fill="none" stroke="midnightblue" d="M760.83,-158.14C754.88,-132.13 740.82,-85.14 712.5,-56 695.03,-38.03 669.01,-26.5 648.32,-19.61"/>
<polygon fill="midnightblue" stroke="midnightblue" points="757.46,-159.13 762.96,-168.19 764.31,-157.68 757.46,-159.13"/>
</g>
<!-- Node23&#45;&gt;Node5 -->
<g id="edge36" class="edge">
<title>Node23&#45;&gt;Node5</title>
<path fill="none" stroke="midnightblue" d="M764.49,-53.57C728.83,-43.38 677.46,-28.7 645.31,-19.52"/>
<polygon fill="midnightblue" stroke="midnightblue" points="763.98,-57.06 774.55,-56.44 765.9,-50.33 763.98,-57.06"/>
</g>
<!-- Node26&#45;&gt;Node5 -->
<g id="edge40" class="edge">
<title>Node26&#45;&gt;Node5</title>
<path fill="none" stroke="midnightblue" d="M911.35,-158.21C905.77,-131.13 891.46,-81.59 858.5,-56 826.73,-31.33 711.14,-18.66 651.56,-13.64"/>
<polygon fill="midnightblue" stroke="midnightblue" points="907.96,-159.12 913.24,-168.3 914.84,-157.83 907.96,-159.12"/>
</g>
<!-- Node27&#45;&gt;Node5 -->
<g id="edge42" class="edge">
<title>Node27&#45;&gt;Node5</title>
<path fill="none" stroke="midnightblue" d="M895.31,-55.31C824.37,-44.08 709.77,-25.93 651.7,-16.73"/>
<polygon fill="midnightblue" stroke="midnightblue" points="895.02,-58.81 905.45,-56.92 896.12,-51.89 895.02,-58.81"/>
</g>
</g>
</svg>
