<?xml version="1.0" encoding="UTF-8" standalone="no"?>
<!DOCTYPE svg PUBLIC "-//W3C//DTD SVG 1.1//EN"
 "http://www.w3.org/Graphics/SVG/1.1/DTD/svg11.dtd">
<!-- Generated by graphviz version 2.43.0 (0)
 -->
<!-- Title: appender.h Pages: 1 -->
<svg width="1362pt" height="386pt"
 viewBox="0.00 0.00 1361.55 386.00" xmlns="http://www.w3.org/2000/svg" xmlns:xlink="http://www.w3.org/1999/xlink">
<g id="graph0" class="graph" transform="scale(1 1) rotate(0) translate(4 382)">
<title>appender.h</title>
<polygon fill="white" stroke="transparent" points="-4,4 -4,-382 1357.55,-382 1357.55,4 -4,4"/>
<!-- Node1 -->
<g id="node1" class="node">
<title>Node1</title>
<g id="a_node1"><a xlink:title=" ">
<polygon fill="#bfbfbf" stroke="black" points="837.55,-358.5 837.55,-377.5 908.55,-377.5 908.55,-358.5 837.55,-358.5"/>
<text text-anchor="middle" x="873.05" y="-365.5" font-family="Helvetica,sans-Serif" font-size="10.00">appender.h</text>
</a>
</g>
</g>
<!-- Node2 -->
<g id="node2" class="node">
<title>Node2</title>
<g id="a_node2"><a xlink:href="config_8hxx.html" target="_top" xlink:title=" ">
<polygon fill="white" stroke="black" points="544.05,-73 544.05,-92 660.05,-92 660.05,-73 544.05,-73"/>
<text text-anchor="middle" x="602.05" y="-80" font-family="Helvetica,sans-Serif" font-size="10.00">log4cplus/config.hxx</text>
</a>
</g>
</g>
<!-- Node1&#45;&gt;Node2 -->
<g id="edge1" class="edge">
<title>Node1&#45;&gt;Node2</title>
<path fill="none" stroke="midnightblue" d="M908.85,-363.85C1000.43,-354.79 1236.05,-324.91 1236.05,-257 1236.05,-257 1236.05,-257 1236.05,-199 1236.05,-168.9 1240.37,-153.02 1217.05,-134 1175.43,-100.06 821.7,-88.3 670.33,-84.81"/>
<polygon fill="midnightblue" stroke="midnightblue" points="670.29,-81.3 660.22,-84.58 670.14,-88.3 670.29,-81.3"/>
</g>
<!-- Node5 -->
<g id="node5" class="node">
<title>Node5</title>
<g id="a_node5"><a xlink:href="layout_8h.html" target="_top" xlink:title=" ">
<polygon fill="white" stroke="black" points="344.05,-302.5 344.05,-321.5 450.05,-321.5 450.05,-302.5 344.05,-302.5"/>
<text text-anchor="middle" x="397.05" y="-309.5" font-family="Helvetica,sans-Serif" font-size="10.00">log4cplus/layout.h</text>
</a>
</g>
</g>
<!-- Node1&#45;&gt;Node5 -->
<g id="edge4" class="edge">
<title>Node1&#45;&gt;Node5</title>
<path fill="none" stroke="midnightblue" d="M837.36,-363.19C766.92,-355.63 605.01,-338.07 469.05,-322 466.18,-321.66 463.24,-321.31 460.27,-320.95"/>
<polygon fill="midnightblue" stroke="midnightblue" points="460.47,-317.45 450.12,-319.72 459.63,-324.4 460.47,-317.45"/>
</g>
<!-- Node6 -->
<g id="node6" class="node">
<title>Node6</title>
<g id="a_node6"><a xlink:href="loglevel_8h.html" target="_top" xlink:title="This header defines the LogLevel type.">
<polygon fill="white" stroke="black" points="512.05,-246.5 512.05,-265.5 626.05,-265.5 626.05,-246.5 512.05,-246.5"/>
<text text-anchor="middle" x="569.05" y="-253.5" font-family="Helvetica,sans-Serif" font-size="10.00">log4cplus/loglevel.h</text>
</a>
</g>
</g>
<!-- Node1&#45;&gt;Node6 -->
<g id="edge42" class="edge">
<title>Node1&#45;&gt;Node6</title>
<path fill="none" stroke="midnightblue" d="M837.53,-362.2C797.67,-356.05 731.56,-343.51 678.05,-322 644.96,-308.7 610.13,-286.23 589,-271.5"/>
<polygon fill="midnightblue" stroke="midnightblue" points="591.01,-268.64 580.82,-265.72 586.96,-274.35 591.01,-268.64"/>
</g>
<!-- Node8 -->
<g id="node8" class="node">
<title>Node8</title>
<g id="a_node8"><a xlink:title=" ">
<polygon fill="white" stroke="#bfbfbf" points="647.05,-190.5 647.05,-209.5 705.05,-209.5 705.05,-190.5 647.05,-190.5"/>
<text text-anchor="middle" x="676.05" y="-197.5" font-family="Helvetica,sans-Serif" font-size="10.00">memory</text>
</a>
</g>
</g>
<!-- Node1&#45;&gt;Node8 -->
<g id="edge54" class="edge">
<title>Node1&#45;&gt;Node8</title>
<path fill="none" stroke="midnightblue" d="M837.5,-366.73C800.95,-364.5 744.77,-355.36 711.05,-322 683.29,-294.53 677.23,-246.51 676.1,-219.97"/>
<polygon fill="midnightblue" stroke="midnightblue" points="679.59,-219.66 675.87,-209.74 672.6,-219.82 679.59,-219.66"/>
</g>
<!-- Node10 -->
<g id="node10" class="node">
<title>Node10</title>
<g id="a_node10"><a xlink:href="tstring_8h.html" target="_top" xlink:title=" ">
<polygon fill="white" stroke="black" points="379.55,-190.5 379.55,-209.5 486.55,-209.5 486.55,-190.5 379.55,-190.5"/>
<text text-anchor="middle" x="433.05" y="-197.5" font-family="Helvetica,sans-Serif" font-size="10.00">log4cplus/tstring.h</text>
</a>
</g>
</g>
<!-- Node1&#45;&gt;Node10 -->
<g id="edge43" class="edge">
<title>Node1&#45;&gt;Node10</title>
<path fill="none" stroke="midnightblue" d="M837.5,-364.51C767.95,-358.16 611.27,-336.53 503.05,-266 481.68,-252.07 460.72,-231.42 447.39,-217.14"/>
<polygon fill="midnightblue" stroke="midnightblue" points="449.81,-214.6 440.48,-209.58 444.64,-219.32 449.81,-214.6"/>
</g>
<!-- Node17 -->
<g id="node17" class="node">
<title>Node17</title>
<g id="a_node17"><a xlink:href="pointer_8h.html" target="_top" xlink:title=" ">
<polygon fill="white" stroke="black" points="799.05,-190.5 799.05,-209.5 947.05,-209.5 947.05,-190.5 799.05,-190.5"/>
<text text-anchor="middle" x="873.05" y="-197.5" font-family="Helvetica,sans-Serif" font-size="10.00">log4cplus/helpers/pointer.h</text>
</a>
</g>
</g>
<!-- Node1&#45;&gt;Node17 -->
<g id="edge44" class="edge">
<title>Node1&#45;&gt;Node17</title>
<path fill="none" stroke="midnightblue" d="M873.05,-358.08C873.05,-331.95 873.05,-255.21 873.05,-219.58"/>
<polygon fill="midnightblue" stroke="midnightblue" points="876.55,-219.57 873.05,-209.57 869.55,-219.57 876.55,-219.57"/>
</g>
<!-- Node19 -->
<g id="node19" class="node">
<title>Node19</title>
<g id="a_node19"><a xlink:title=" ">
<polygon fill="white" stroke="#bfbfbf" points="1168.05,-73 1168.05,-92 1216.05,-92 1216.05,-73 1168.05,-73"/>
<text text-anchor="middle" x="1192.05" y="-80" font-family="Helvetica,sans-Serif" font-size="10.00">mutex</text>
</a>
</g>
</g>
<!-- Node1&#45;&gt;Node19 -->
<g id="edge55" class="edge">
<title>Node1&#45;&gt;Node19</title>
<path fill="none" stroke="midnightblue" d="M908.64,-364.87C1006.78,-358.02 1274.05,-332.44 1274.05,-257 1274.05,-257 1274.05,-257 1274.05,-199 1274.05,-156.32 1236.37,-118.43 1212.09,-98.45"/>
<polygon fill="midnightblue" stroke="midnightblue" points="1214.16,-95.62 1204.15,-92.15 1209.81,-101.1 1214.16,-95.62"/>
</g>
<!-- Node20 -->
<g id="node20" class="node">
<title>Node20</title>
<g id="a_node20"><a xlink:title=" ">
<polygon fill="white" stroke="#bfbfbf" points="1246.55,-73 1246.55,-92 1353.55,-92 1353.55,-73 1246.55,-73"/>
<text text-anchor="middle" x="1300.05" y="-80" font-family="Helvetica,sans-Serif" font-size="10.00">condition_variable</text>
</a>
</g>
</g>
<!-- Node1&#45;&gt;Node20 -->
<g id="edge57" class="edge">
<title>Node1&#45;&gt;Node20</title>
<path fill="none" stroke="midnightblue" d="M908.6,-365.7C1013.11,-360.92 1312.05,-339.99 1312.05,-257 1312.05,-257 1312.05,-257 1312.05,-199 1312.05,-164.68 1306.74,-124.93 1303.19,-102.15"/>
<polygon fill="midnightblue" stroke="midnightblue" points="1306.62,-101.47 1301.57,-92.16 1299.71,-102.59 1306.62,-101.47"/>
</g>
<!-- Node24 -->
<g id="node24" class="node">
<title>Node24</title>
<g id="a_node24"><a xlink:title=" ">
<polygon fill="white" stroke="#bfbfbf" points="1158.05,-134.5 1158.05,-153.5 1208.05,-153.5 1208.05,-134.5 1158.05,-134.5"/>
<text text-anchor="middle" x="1183.05" y="-141.5" font-family="Helvetica,sans-Serif" font-size="10.00">atomic</text>
</a>
</g>
</g>
<!-- Node1&#45;&gt;Node24 -->
<g id="edge56" class="edge">
<title>Node1&#45;&gt;Node24</title>
<path fill="none" stroke="midnightblue" d="M892.84,-358.46C928.01,-342.81 1003,-307.32 1059.05,-266 1103.01,-233.59 1147,-186.28 1168.85,-161.51"/>
<polygon fill="midnightblue" stroke="midnightblue" points="1171.69,-163.59 1175.63,-153.75 1166.41,-158.98 1171.69,-163.59"/>
</g>
<!-- Node30 -->
<g id="node30" class="node">
<title>Node30</title>
<g id="a_node30"><a xlink:href="filter_8h.html" target="_top" xlink:title="This header defines Filter and all of it&#39;s subclasses.">
<polygon fill="white" stroke="black" points="720.05,-302.5 720.05,-321.5 834.05,-321.5 834.05,-302.5 720.05,-302.5"/>
<text text-anchor="middle" x="777.05" y="-309.5" font-family="Helvetica,sans-Serif" font-size="10.00">log4cplus/spi/filter.h</text>
</a>
</g>
</g>
<!-- Node1&#45;&gt;Node30 -->
<g id="edge45" class="edge">
<title>Node1&#45;&gt;Node30</title>
<path fill="none" stroke="midnightblue" d="M857.63,-358.32C842.51,-349.82 819.23,-336.73 801.58,-326.8"/>
<polygon fill="midnightblue" stroke="midnightblue" points="802.87,-323.51 792.44,-321.65 799.44,-329.61 802.87,-323.51"/>
</g>
<!-- Node31 -->
<g id="node31" class="node">
<title>Node31</title>
<g id="a_node31"><a xlink:href="lockfile_8h.html" target="_top" xlink:title=" ">
<polygon fill="white" stroke="black" points="900.55,-246.5 900.55,-265.5 1049.55,-265.5 1049.55,-246.5 900.55,-246.5"/>
<text text-anchor="middle" x="975.05" y="-253.5" font-family="Helvetica,sans-Serif" font-size="10.00">log4cplus/helpers/lockfile.h</text>
</a>
</g>
</g>
<!-- Node1&#45;&gt;Node31 -->
<g id="edge50" class="edge">
<title>Node1&#45;&gt;Node31</title>
<path fill="none" stroke="midnightblue" d="M881.05,-358.37C898.11,-339.97 938.26,-296.67 960.16,-273.05"/>
<polygon fill="midnightblue" stroke="midnightblue" points="962.85,-275.3 967.08,-265.59 957.72,-270.54 962.85,-275.3"/>
</g>
<!-- Node3 -->
<g id="node3" class="node">
<title>Node3</title>
<g id="a_node3"><a xlink:href="win32_8h.html" target="_top" xlink:title=" ">
<polygon fill="white" stroke="black" points="456.55,-6 456.55,-25 593.55,-25 593.55,-6 456.55,-6"/>
<text text-anchor="middle" x="525.05" y="-13" font-family="Helvetica,sans-Serif" font-size="10.00">log4cplus/config/win32.h</text>
</a>
</g>
</g>
<!-- Node2&#45;&gt;Node3 -->
<g id="edge2" class="edge">
<title>Node2&#45;&gt;Node3</title>
<path fill="none" stroke="midnightblue" d="M591.66,-72.73C579.2,-62.21 558.08,-44.38 542.96,-31.62"/>
<polygon fill="midnightblue" stroke="midnightblue" points="545.17,-28.9 535.27,-25.13 540.65,-34.25 545.17,-28.9"/>
</g>
<!-- Node4 -->
<g id="node4" class="node">
<title>Node4</title>
<g id="a_node4"><a xlink:href="thread-config_8h.html" target="_top" xlink:title=" ">
<polygon fill="white" stroke="black" points="611.55,-0.5 611.55,-30.5 748.55,-30.5 748.55,-0.5 611.55,-0.5"/>
<text text-anchor="start" x="619.55" y="-18.5" font-family="Helvetica,sans-Serif" font-size="10.00">log4cplus/helpers/thread</text>
<text text-anchor="middle" x="680.05" y="-7.5" font-family="Helvetica,sans-Serif" font-size="10.00">&#45;config.h</text>
</a>
</g>
</g>
<!-- Node2&#45;&gt;Node4 -->
<g id="edge3" class="edge">
<title>Node2&#45;&gt;Node4</title>
<path fill="none" stroke="midnightblue" d="M612.57,-72.73C623.41,-63.7 640.72,-49.27 655.09,-37.3"/>
<polygon fill="midnightblue" stroke="midnightblue" points="657.7,-39.68 663.14,-30.59 653.22,-34.3 657.7,-39.68"/>
</g>
<!-- Node5&#45;&gt;Node2 -->
<g id="edge5" class="edge">
<title>Node5&#45;&gt;Node2</title>
<path fill="none" stroke="midnightblue" d="M343.79,-304.8C291.9,-298 211.09,-285.41 143.05,-266 74.97,-246.58 -16.03,-258.18 3.05,-190 10.9,-161.96 12.34,-149.4 37.05,-134 78.33,-108.28 392.37,-92.18 533.61,-86.17"/>
<polygon fill="midnightblue" stroke="midnightblue" points="534.04,-89.66 543.88,-85.74 533.74,-82.66 534.04,-89.66"/>
</g>
<!-- Node5&#45;&gt;Node6 -->
<g id="edge6" class="edge">
<title>Node5&#45;&gt;Node6</title>
<path fill="none" stroke="midnightblue" d="M424.3,-302.44C453.49,-293.28 499.97,-278.69 532.36,-268.52"/>
<polygon fill="midnightblue" stroke="midnightblue" points="533.43,-271.85 541.92,-265.52 531.33,-265.17 533.43,-271.85"/>
</g>
<!-- Node7 -->
<g id="node7" class="node">
<title>Node7</title>
<g id="a_node7"><a xlink:title=" ">
<polygon fill="white" stroke="#bfbfbf" points="314.55,-190.5 314.55,-209.5 361.55,-209.5 361.55,-190.5 314.55,-190.5"/>
<text text-anchor="middle" x="338.05" y="-197.5" font-family="Helvetica,sans-Serif" font-size="10.00">vector</text>
</a>
</g>
</g>
<!-- Node5&#45;&gt;Node7 -->
<g id="edge40" class="edge">
<title>Node5&#45;&gt;Node7</title>
<path fill="none" stroke="midnightblue" d="M395.34,-302.15C392.58,-289.22 386.41,-264.66 376.05,-246 370.17,-235.41 361.59,-224.98 354.07,-216.83"/>
<polygon fill="midnightblue" stroke="midnightblue" points="356.5,-214.31 347.04,-209.52 351.45,-219.16 356.5,-214.31"/>
</g>
<!-- Node5&#45;&gt;Node8 -->
<g id="edge41" class="edge">
<title>Node5&#45;&gt;Node8</title>
<path fill="none" stroke="midnightblue" d="M450.11,-305.93C510.8,-299.28 605.58,-286.05 635.05,-266 651.56,-254.77 662.78,-234.45 669.25,-219.51"/>
<polygon fill="midnightblue" stroke="midnightblue" points="672.67,-220.38 673.13,-209.79 666.17,-217.78 672.67,-220.38"/>
</g>
<!-- Node5&#45;&gt;Node10 -->
<g id="edge34" class="edge">
<title>Node5&#45;&gt;Node10</title>
<path fill="none" stroke="midnightblue" d="M399.87,-302.37C405.71,-284.54 419.21,-243.3 427.07,-219.27"/>
<polygon fill="midnightblue" stroke="midnightblue" points="430.45,-220.18 430.24,-209.59 423.8,-218.01 430.45,-220.18"/>
</g>
<!-- Node25 -->
<g id="node25" class="node">
<title>Node25</title>
<g id="a_node25"><a xlink:href="streams_8h.html" target="_top" xlink:title=" ">
<polygon fill="white" stroke="black" points="12.55,-190.5 12.55,-209.5 127.55,-209.5 127.55,-190.5 12.55,-190.5"/>
<text text-anchor="middle" x="70.05" y="-197.5" font-family="Helvetica,sans-Serif" font-size="10.00">log4cplus/streams.h</text>
</a>
</g>
</g>
<!-- Node5&#45;&gt;Node25 -->
<g id="edge30" class="edge">
<title>Node5&#45;&gt;Node25</title>
<path fill="none" stroke="midnightblue" d="M343.83,-303.55C301.55,-296.64 241.35,-284.59 191.05,-266 154.52,-252.5 115.35,-229.77 91.78,-215.08"/>
<polygon fill="midnightblue" stroke="midnightblue" points="93.58,-212.08 83.26,-209.7 89.84,-218 93.58,-212.08"/>
</g>
<!-- Node27 -->
<g id="node27" class="node">
<title>Node27</title>
<g id="a_node27"><a xlink:href="timehelper_8h.html" target="_top" xlink:title=" ">
<polygon fill="white" stroke="black" points="200.55,-246.5 200.55,-265.5 367.55,-265.5 367.55,-246.5 200.55,-246.5"/>
<text text-anchor="middle" x="284.05" y="-253.5" font-family="Helvetica,sans-Serif" font-size="10.00">log4cplus/helpers/timehelper.h</text>
</a>
</g>
</g>
<!-- Node5&#45;&gt;Node27 -->
<g id="edge35" class="edge">
<title>Node5&#45;&gt;Node27</title>
<path fill="none" stroke="midnightblue" d="M379.14,-302.44C360.8,-293.68 332.04,-279.94 310.96,-269.86"/>
<polygon fill="midnightblue" stroke="midnightblue" points="312.4,-266.67 301.87,-265.52 309.38,-272.99 312.4,-266.67"/>
</g>
<!-- Node6&#45;&gt;Node2 -->
<g id="edge7" class="edge">
<title>Node6&#45;&gt;Node2</title>
<path fill="none" stroke="midnightblue" d="M558.44,-246.26C544.75,-233.86 523.85,-210.41 534.05,-190 545.98,-166.15 566.95,-175.98 582.05,-154 592.73,-138.46 597.74,-117.28 600.08,-102.2"/>
<polygon fill="midnightblue" stroke="midnightblue" points="603.58,-102.42 601.39,-92.06 596.63,-101.53 603.58,-102.42"/>
</g>
<!-- Node6&#45;&gt;Node7 -->
<g id="edge8" class="edge">
<title>Node6&#45;&gt;Node7</title>
<path fill="none" stroke="midnightblue" d="M528.5,-246.47C490.31,-238.3 431.28,-225.3 371.73,-210.34"/>
<polygon fill="midnightblue" stroke="midnightblue" points="372.33,-206.88 361.78,-207.82 370.61,-213.67 372.33,-206.88"/>
</g>
<!-- Node6&#45;&gt;Node8 -->
<g id="edge9" class="edge">
<title>Node6&#45;&gt;Node8</title>
<path fill="none" stroke="midnightblue" d="M586.24,-246.32C603.4,-237.66 630,-224.24 649.8,-214.25"/>
<polygon fill="midnightblue" stroke="midnightblue" points="651.55,-217.28 658.9,-209.65 648.4,-211.04 651.55,-217.28"/>
</g>
<!-- Node9 -->
<g id="node9" class="node">
<title>Node9</title>
<g id="a_node9"><a xlink:title=" ">
<polygon fill="white" stroke="#bfbfbf" points="543.05,-190.5 543.05,-209.5 629.05,-209.5 629.05,-190.5 543.05,-190.5"/>
<text text-anchor="middle" x="586.05" y="-197.5" font-family="Helvetica,sans-Serif" font-size="10.00">shared_mutex</text>
</a>
</g>
</g>
<!-- Node6&#45;&gt;Node9 -->
<g id="edge10" class="edge">
<title>Node6&#45;&gt;Node9</title>
<path fill="none" stroke="midnightblue" d="M571.86,-246.08C574.13,-238.85 577.42,-228.41 580.26,-219.4"/>
<polygon fill="midnightblue" stroke="midnightblue" points="583.63,-220.34 583.29,-209.75 576.95,-218.24 583.63,-220.34"/>
</g>
<!-- Node6&#45;&gt;Node10 -->
<g id="edge11" class="edge">
<title>Node6&#45;&gt;Node10</title>
<path fill="none" stroke="midnightblue" d="M547.5,-246.44C525.02,-237.52 489.56,-223.44 464.07,-213.32"/>
<polygon fill="midnightblue" stroke="midnightblue" points="465.08,-209.95 454.5,-209.52 462.5,-216.46 465.08,-209.95"/>
</g>
<!-- Node6&#45;&gt;Node17 -->
<g id="edge20" class="edge">
<title>Node6&#45;&gt;Node17</title>
<path fill="none" stroke="midnightblue" d="M617.22,-246.44C670.92,-236.9 757.74,-221.48 815.1,-211.29"/>
<polygon fill="midnightblue" stroke="midnightblue" points="815.87,-214.71 825.11,-209.52 814.65,-207.82 815.87,-214.71"/>
</g>
<!-- Node10&#45;&gt;Node2 -->
<g id="edge12" class="edge">
<title>Node10&#45;&gt;Node2</title>
<path fill="none" stroke="midnightblue" d="M401.11,-190.41C366.85,-179.66 320.02,-159.49 341.05,-134 365.04,-104.92 464.7,-92.39 533.68,-87.13"/>
<polygon fill="midnightblue" stroke="midnightblue" points="534.33,-90.59 544.05,-86.38 533.82,-83.61 534.33,-90.59"/>
</g>
<!-- Node11 -->
<g id="node11" class="node">
<title>Node11</title>
<g id="a_node11"><a xlink:title=" ">
<polygon fill="white" stroke="#bfbfbf" points="350.55,-134.5 350.55,-153.5 419.55,-153.5 419.55,-134.5 350.55,-134.5"/>
<text text-anchor="middle" x="385.05" y="-141.5" font-family="Helvetica,sans-Serif" font-size="10.00">type_traits</text>
</a>
</g>
</g>
<!-- Node10&#45;&gt;Node11 -->
<g id="edge13" class="edge">
<title>Node10&#45;&gt;Node11</title>
<path fill="none" stroke="midnightblue" d="M425.12,-190.08C418.2,-182.3 407.98,-170.8 399.6,-161.37"/>
<polygon fill="midnightblue" stroke="midnightblue" points="402.09,-158.9 392.83,-153.75 396.86,-163.55 402.09,-158.9"/>
</g>
<!-- Node12 -->
<g id="node12" class="node">
<title>Node12</title>
<g id="a_node12"><a xlink:title=" ">
<polygon fill="white" stroke="#bfbfbf" points="630.55,-134.5 630.55,-153.5 695.55,-153.5 695.55,-134.5 630.55,-134.5"/>
<text text-anchor="middle" x="663.05" y="-141.5" font-family="Helvetica,sans-Serif" font-size="10.00">functional</text>
</a>
</g>
</g>
<!-- Node10&#45;&gt;Node12 -->
<g id="edge14" class="edge">
<title>Node10&#45;&gt;Node12</title>
<path fill="none" stroke="midnightblue" d="M469.49,-190.44C510.54,-180.81 577.15,-165.17 620.53,-154.98"/>
<polygon fill="midnightblue" stroke="midnightblue" points="621.56,-158.34 630.49,-152.64 619.96,-151.52 621.56,-158.34"/>
</g>
<!-- Node13 -->
<g id="node13" class="node">
<title>Node13</title>
<g id="a_node13"><a xlink:title=" ">
<polygon fill="white" stroke="#bfbfbf" points="438.05,-134.5 438.05,-153.5 482.05,-153.5 482.05,-134.5 438.05,-134.5"/>
<text text-anchor="middle" x="460.05" y="-141.5" font-family="Helvetica,sans-Serif" font-size="10.00">string</text>
</a>
</g>
</g>
<!-- Node10&#45;&gt;Node13 -->
<g id="edge15" class="edge">
<title>Node10&#45;&gt;Node13</title>
<path fill="none" stroke="midnightblue" d="M437.51,-190.08C441.2,-182.69 446.57,-171.95 451.14,-162.81"/>
<polygon fill="midnightblue" stroke="midnightblue" points="454.33,-164.26 455.67,-153.75 448.07,-161.13 454.33,-164.26"/>
</g>
<!-- Node14 -->
<g id="node14" class="node">
<title>Node14</title>
<g id="a_node14"><a xlink:title=" ">
<polygon fill="white" stroke="#bfbfbf" points="500.55,-134.5 500.55,-153.5 573.55,-153.5 573.55,-134.5 500.55,-134.5"/>
<text text-anchor="middle" x="537.05" y="-141.5" font-family="Helvetica,sans-Serif" font-size="10.00">string_view</text>
</a>
</g>
</g>
<!-- Node10&#45;&gt;Node14 -->
<g id="edge16" class="edge">
<title>Node10&#45;&gt;Node14</title>
<path fill="none" stroke="midnightblue" d="M449.76,-190.32C466.36,-181.7 492.05,-168.36 511.27,-158.39"/>
<polygon fill="midnightblue" stroke="midnightblue" points="513.12,-161.37 520.38,-153.65 509.89,-155.16 513.12,-161.37"/>
</g>
<!-- Node15 -->
<g id="node15" class="node">
<title>Node15</title>
<g id="a_node15"><a xlink:href="tchar_8h.html" target="_top" xlink:title=" ">
<polygon fill="white" stroke="black" points="156.55,-134.5 156.55,-153.5 255.55,-153.5 255.55,-134.5 156.55,-134.5"/>
<text text-anchor="middle" x="206.05" y="-141.5" font-family="Helvetica,sans-Serif" font-size="10.00">log4cplus/tchar.h</text>
</a>
</g>
</g>
<!-- Node10&#45;&gt;Node15 -->
<g id="edge17" class="edge">
<title>Node10&#45;&gt;Node15</title>
<path fill="none" stroke="midnightblue" d="M397.08,-190.44C357.73,-181.08 294.56,-166.06 251.74,-155.87"/>
<polygon fill="midnightblue" stroke="midnightblue" points="252.39,-152.43 241.85,-153.52 250.77,-159.24 252.39,-152.43"/>
</g>
<!-- Node15&#45;&gt;Node2 -->
<g id="edge18" class="edge">
<title>Node15&#45;&gt;Node2</title>
<path fill="none" stroke="midnightblue" d="M255.8,-135.52C326.48,-124.91 456.11,-105.43 535.15,-93.55"/>
<polygon fill="midnightblue" stroke="midnightblue" points="536.11,-96.95 545.47,-92 535.07,-90.03 536.11,-96.95"/>
</g>
<!-- Node16 -->
<g id="node16" class="node">
<title>Node16</title>
<g id="a_node16"><a xlink:title=" ">
<polygon fill="white" stroke="#bfbfbf" points="179.55,-73 179.55,-92 232.55,-92 232.55,-73 179.55,-73"/>
<text text-anchor="middle" x="206.05" y="-80" font-family="Helvetica,sans-Serif" font-size="10.00">cstddef</text>
</a>
</g>
</g>
<!-- Node15&#45;&gt;Node16 -->
<g id="edge19" class="edge">
<title>Node15&#45;&gt;Node16</title>
<path fill="none" stroke="midnightblue" d="M206.05,-134.48C206.05,-126.08 206.05,-112.98 206.05,-102.16"/>
<polygon fill="midnightblue" stroke="midnightblue" points="209.55,-102.01 206.05,-92.01 202.55,-102.01 209.55,-102.01"/>
</g>
<!-- Node17&#45;&gt;Node2 -->
<g id="edge21" class="edge">
<title>Node17&#45;&gt;Node2</title>
<path fill="none" stroke="midnightblue" d="M855.43,-190.41C821.57,-173.9 749.69,-138.95 738.05,-134 704.2,-119.6 664.7,-105.19 637.02,-95.47"/>
<polygon fill="midnightblue" stroke="midnightblue" points="637.99,-92.1 627.39,-92.11 635.68,-98.71 637.99,-92.1"/>
</g>
<!-- Node18 -->
<g id="node18" class="node">
<title>Node18</title>
<g id="a_node18"><a xlink:href="syncprims_8h.html" target="_top" xlink:title=" ">
<polygon fill="white" stroke="black" points="980.05,-134.5 980.05,-153.5 1140.05,-153.5 1140.05,-134.5 980.05,-134.5"/>
<text text-anchor="middle" x="1060.05" y="-141.5" font-family="Helvetica,sans-Serif" font-size="10.00">log4cplus/thread/syncprims.h</text>
</a>
</g>
</g>
<!-- Node17&#45;&gt;Node18 -->
<g id="edge22" class="edge">
<title>Node17&#45;&gt;Node18</title>
<path fill="none" stroke="midnightblue" d="M902.68,-190.44C934.55,-181.24 985.38,-166.56 1020.61,-156.39"/>
<polygon fill="midnightblue" stroke="midnightblue" points="1021.92,-159.65 1030.56,-153.52 1019.98,-152.93 1021.92,-159.65"/>
</g>
<!-- Node22 -->
<g id="node22" class="node">
<title>Node22</title>
<g id="a_node22"><a xlink:title=" ">
<polygon fill="white" stroke="#bfbfbf" points="860.05,-134.5 860.05,-153.5 924.05,-153.5 924.05,-134.5 860.05,-134.5"/>
<text text-anchor="middle" x="892.05" y="-141.5" font-family="Helvetica,sans-Serif" font-size="10.00">algorithm</text>
</a>
</g>
</g>
<!-- Node17&#45;&gt;Node22 -->
<g id="edge27" class="edge">
<title>Node17&#45;&gt;Node22</title>
<path fill="none" stroke="midnightblue" d="M876.19,-190.08C878.73,-182.85 882.41,-172.41 885.58,-163.4"/>
<polygon fill="midnightblue" stroke="midnightblue" points="888.95,-164.35 888.97,-153.75 882.35,-162.02 888.95,-164.35"/>
</g>
<!-- Node23 -->
<g id="node23" class="node">
<title>Node23</title>
<g id="a_node23"><a xlink:title=" ">
<polygon fill="white" stroke="#bfbfbf" points="790.05,-134.5 790.05,-153.5 842.05,-153.5 842.05,-134.5 790.05,-134.5"/>
<text text-anchor="middle" x="816.05" y="-141.5" font-family="Helvetica,sans-Serif" font-size="10.00">cassert</text>
</a>
</g>
</g>
<!-- Node17&#45;&gt;Node23 -->
<g id="edge28" class="edge">
<title>Node17&#45;&gt;Node23</title>
<path fill="none" stroke="midnightblue" d="M863.89,-190.32C855.55,-182.42 843.02,-170.55 832.87,-160.94"/>
<polygon fill="midnightblue" stroke="midnightblue" points="835.04,-158.17 825.37,-153.83 830.23,-163.25 835.04,-158.17"/>
</g>
<!-- Node17&#45;&gt;Node24 -->
<g id="edge29" class="edge">
<title>Node17&#45;&gt;Node24</title>
<path fill="none" stroke="midnightblue" d="M936.13,-190.5C989.98,-182.83 1069.66,-170.53 1147.84,-154.09"/>
<polygon fill="midnightblue" stroke="midnightblue" points="1148.81,-157.46 1157.86,-151.96 1147.35,-150.62 1148.81,-157.46"/>
</g>
<!-- Node18&#45;&gt;Node2 -->
<g id="edge23" class="edge">
<title>Node18&#45;&gt;Node2</title>
<path fill="none" stroke="midnightblue" d="M994.43,-134.48C908.3,-123.29 757.83,-103.74 670.38,-92.38"/>
<polygon fill="midnightblue" stroke="midnightblue" points="670.66,-88.88 660.3,-91.07 669.76,-95.83 670.66,-88.88"/>
</g>
<!-- Node18&#45;&gt;Node19 -->
<g id="edge24" class="edge">
<title>Node18&#45;&gt;Node19</title>
<path fill="none" stroke="midnightblue" d="M1078.96,-134.48C1101.21,-124.45 1138.36,-107.7 1163.98,-96.15"/>
<polygon fill="midnightblue" stroke="midnightblue" points="1165.49,-99.31 1173.17,-92.01 1162.62,-92.93 1165.49,-99.31"/>
</g>
<!-- Node18&#45;&gt;Node20 -->
<g id="edge25" class="edge">
<title>Node18&#45;&gt;Node20</title>
<path fill="none" stroke="midnightblue" d="M1094.44,-134.48C1136.94,-123.94 1209.35,-105.99 1255.92,-94.44"/>
<polygon fill="midnightblue" stroke="midnightblue" points="1256.86,-97.81 1265.73,-92.01 1255.18,-91.02 1256.86,-97.81"/>
</g>
<!-- Node21 -->
<g id="node21" class="node">
<title>Node21</title>
<g id="a_node21"><a xlink:href="threadsafetyanalysis_8h.html" target="_top" xlink:title=" ">
<polygon fill="white" stroke="black" points="994.55,-67.5 994.55,-97.5 1125.55,-97.5 1125.55,-67.5 994.55,-67.5"/>
<text text-anchor="start" x="1002.55" y="-85.5" font-family="Helvetica,sans-Serif" font-size="10.00">log4cplus/internal</text>
<text text-anchor="middle" x="1060.05" y="-74.5" font-family="Helvetica,sans-Serif" font-size="10.00">/threadsafetyanalysis.h</text>
</a>
</g>
</g>
<!-- Node18&#45;&gt;Node21 -->
<g id="edge26" class="edge">
<title>Node18&#45;&gt;Node21</title>
<path fill="none" stroke="midnightblue" d="M1060.05,-134.48C1060.05,-127.47 1060.05,-117.19 1060.05,-107.7"/>
<polygon fill="midnightblue" stroke="midnightblue" points="1063.55,-107.52 1060.05,-97.52 1056.55,-107.52 1063.55,-107.52"/>
</g>
<!-- Node25&#45;&gt;Node2 -->
<g id="edge31" class="edge">
<title>Node25&#45;&gt;Node2</title>
<path fill="none" stroke="midnightblue" d="M77.07,-190.43C89.47,-175.95 116.83,-146.98 147.05,-134 214.87,-104.86 423.83,-91.42 533.4,-86.24"/>
<polygon fill="midnightblue" stroke="midnightblue" points="533.86,-89.72 543.68,-85.76 533.53,-82.73 533.86,-89.72"/>
</g>
<!-- Node25&#45;&gt;Node15 -->
<g id="edge32" class="edge">
<title>Node25&#45;&gt;Node15</title>
<path fill="none" stroke="midnightblue" d="M91.6,-190.44C114.08,-181.52 149.54,-167.44 175.03,-157.32"/>
<polygon fill="midnightblue" stroke="midnightblue" points="176.6,-160.46 184.6,-153.52 174.01,-153.95 176.6,-160.46"/>
</g>
<!-- Node26 -->
<g id="node26" class="node">
<title>Node26</title>
<g id="a_node26"><a xlink:title=" ">
<polygon fill="white" stroke="#bfbfbf" points="46.05,-134.5 46.05,-153.5 94.05,-153.5 94.05,-134.5 46.05,-134.5"/>
<text text-anchor="middle" x="70.05" y="-141.5" font-family="Helvetica,sans-Serif" font-size="10.00">iosfwd</text>
</a>
</g>
</g>
<!-- Node25&#45;&gt;Node26 -->
<g id="edge33" class="edge">
<title>Node25&#45;&gt;Node26</title>
<path fill="none" stroke="midnightblue" d="M70.05,-190.08C70.05,-183.01 70.05,-172.86 70.05,-163.99"/>
<polygon fill="midnightblue" stroke="midnightblue" points="73.55,-163.75 70.05,-153.75 66.55,-163.75 73.55,-163.75"/>
</g>
<!-- Node27&#45;&gt;Node2 -->
<g id="edge36" class="edge">
<title>Node27&#45;&gt;Node2</title>
<path fill="none" stroke="midnightblue" d="M284.6,-246.19C286.53,-223.4 295.08,-162.29 332.05,-134 363,-110.31 464.51,-96.29 533.85,-89.24"/>
<polygon fill="midnightblue" stroke="midnightblue" points="534.23,-92.72 543.83,-88.25 533.54,-85.75 534.23,-92.72"/>
</g>
<!-- Node27&#45;&gt;Node10 -->
<g id="edge37" class="edge">
<title>Node27&#45;&gt;Node10</title>
<path fill="none" stroke="midnightblue" d="M307.66,-246.44C332.51,-237.44 371.82,-223.19 399.8,-213.05"/>
<polygon fill="midnightblue" stroke="midnightblue" points="401.34,-216.21 409.55,-209.52 398.96,-209.63 401.34,-216.21"/>
</g>
<!-- Node28 -->
<g id="node28" class="node">
<title>Node28</title>
<g id="a_node28"><a xlink:title=" ">
<polygon fill="white" stroke="#bfbfbf" points="214.05,-190.5 214.05,-209.5 258.05,-209.5 258.05,-190.5 214.05,-190.5"/>
<text text-anchor="middle" x="236.05" y="-197.5" font-family="Helvetica,sans-Serif" font-size="10.00">ctime</text>
</a>
</g>
</g>
<!-- Node27&#45;&gt;Node28 -->
<g id="edge38" class="edge">
<title>Node27&#45;&gt;Node28</title>
<path fill="none" stroke="midnightblue" d="M276.12,-246.08C269.2,-238.3 258.98,-226.8 250.6,-217.37"/>
<polygon fill="midnightblue" stroke="midnightblue" points="253.09,-214.9 243.83,-209.75 247.86,-219.55 253.09,-214.9"/>
</g>
<!-- Node29 -->
<g id="node29" class="node">
<title>Node29</title>
<g id="a_node29"><a xlink:title=" ">
<polygon fill="white" stroke="#bfbfbf" points="146.05,-190.5 146.05,-209.5 196.05,-209.5 196.05,-190.5 146.05,-190.5"/>
<text text-anchor="middle" x="171.05" y="-197.5" font-family="Helvetica,sans-Serif" font-size="10.00">chrono</text>
</a>
</g>
</g>
<!-- Node27&#45;&gt;Node29 -->
<g id="edge39" class="edge">
<title>Node27&#45;&gt;Node29</title>
<path fill="none" stroke="midnightblue" d="M266.14,-246.44C247.8,-237.68 219.04,-223.94 197.96,-213.86"/>
<polygon fill="midnightblue" stroke="midnightblue" points="199.4,-210.67 188.87,-209.52 196.38,-216.99 199.4,-210.67"/>
</g>
<!-- Node30&#45;&gt;Node2 -->
<g id="edge46" class="edge">
<title>Node30&#45;&gt;Node2</title>
<path fill="none" stroke="midnightblue" d="M775.97,-302.28C772.01,-273.98 755.8,-183.64 705.05,-134 686.98,-116.33 661.52,-103.77 640.43,-95.59"/>
<polygon fill="midnightblue" stroke="midnightblue" points="641.38,-92.21 630.79,-92.03 638.96,-98.78 641.38,-92.21"/>
</g>
<!-- Node30&#45;&gt;Node6 -->
<g id="edge49" class="edge">
<title>Node30&#45;&gt;Node6</title>
<path fill="none" stroke="midnightblue" d="M744.09,-302.44C708.26,-293.14 650.89,-278.25 611.66,-268.06"/>
<polygon fill="midnightblue" stroke="midnightblue" points="612.41,-264.64 601.85,-265.52 610.65,-271.42 612.41,-264.64"/>
</g>
<!-- Node30&#45;&gt;Node12 -->
<g id="edge47" class="edge">
<title>Node30&#45;&gt;Node12</title>
<path fill="none" stroke="midnightblue" d="M773,-302.23C761.64,-277.81 729.3,-209.49 714.05,-190 705.18,-178.67 693.2,-167.92 683.08,-159.78"/>
<polygon fill="midnightblue" stroke="midnightblue" points="685.16,-156.97 675.12,-153.59 680.87,-162.5 685.16,-156.97"/>
</g>
<!-- Node30&#45;&gt;Node17 -->
<g id="edge48" class="edge">
<title>Node30&#45;&gt;Node17</title>
<path fill="none" stroke="midnightblue" d="M784.58,-302.37C800.57,-284.05 838.1,-241.05 858.77,-217.36"/>
<polygon fill="midnightblue" stroke="midnightblue" points="861.61,-219.43 865.55,-209.59 856.34,-214.82 861.61,-219.43"/>
</g>
<!-- Node31&#45;&gt;Node2 -->
<g id="edge51" class="edge">
<title>Node31&#45;&gt;Node2</title>
<path fill="none" stroke="midnightblue" d="M974.99,-246.2C974.31,-223.41 969.06,-162.31 933.05,-134 893.36,-102.8 755.16,-90.69 670.39,-86.13"/>
<polygon fill="midnightblue" stroke="midnightblue" points="670.5,-82.63 660.33,-85.61 670.14,-89.62 670.5,-82.63"/>
</g>
<!-- Node31&#45;&gt;Node10 -->
<g id="edge52" class="edge">
<title>Node31&#45;&gt;Node10</title>
<path fill="none" stroke="midnightblue" d="M900.54,-247.58C793.38,-236.9 597.58,-217.39 496.77,-207.35"/>
<polygon fill="midnightblue" stroke="midnightblue" points="497.02,-203.86 486.72,-206.35 496.33,-210.82 497.02,-203.86"/>
</g>
<!-- Node31&#45;&gt;Node18 -->
<g id="edge53" class="edge">
<title>Node31&#45;&gt;Node18</title>
<path fill="none" stroke="midnightblue" d="M981.72,-246.37C995.81,-228.14 1028.81,-185.43 1047.16,-161.68"/>
<polygon fill="midnightblue" stroke="midnightblue" points="1050.07,-163.64 1053.41,-153.59 1044.53,-159.36 1050.07,-163.64"/>
</g>
</g>
</svg>
