<?xml version="1.0" encoding="UTF-8" standalone="no"?>
<!DOCTYPE svg PUBLIC "-//W3C//DTD SVG 1.1//EN"
 "http://www.w3.org/Graphics/SVG/1.1/DTD/svg11.dtd">
<!-- Generated by graphviz version 2.43.0 (0)
 -->
<!-- Title: appenderattachable.h Pages: 1 -->
<svg width="1476pt" height="442pt"
 viewBox="0.00 0.00 1475.50 442.00" xmlns="http://www.w3.org/2000/svg" xmlns:xlink="http://www.w3.org/1999/xlink">
<g id="graph0" class="graph" transform="scale(1 1) rotate(0) translate(4 438)">
<title>appenderattachable.h</title>
<polygon fill="white" stroke="transparent" points="-4,4 -4,-438 1471.5,-438 1471.5,4 -4,4"/>
<!-- Node1 -->
<g id="node1" class="node">
<title>Node1</title>
<g id="a_node1"><a xlink:title=" ">
<polygon fill="#bfbfbf" stroke="black" points="887.5,-414.5 887.5,-433.5 1010.5,-433.5 1010.5,-414.5 887.5,-414.5"/>
<text text-anchor="middle" x="949" y="-421.5" font-family="Helvetica,sans-Serif" font-size="10.00">appenderattachable.h</text>
</a>
</g>
</g>
<!-- Node2 -->
<g id="node2" class="node">
<title>Node2</title>
<g id="a_node2"><a xlink:href="config_8hxx.html" target="_top" xlink:title=" ">
<polygon fill="white" stroke="black" points="761,-73 761,-92 877,-92 877,-73 761,-73"/>
<text text-anchor="middle" x="819" y="-80" font-family="Helvetica,sans-Serif" font-size="10.00">log4cplus/config.hxx</text>
</a>
</g>
</g>
<!-- Node1&#45;&gt;Node2 -->
<g id="edge1" class="edge">
<title>Node1&#45;&gt;Node2</title>
<path fill="none" stroke="midnightblue" d="M1010.5,-420.37C1131.32,-413.51 1388,-389.9 1388,-313 1388,-313 1388,-313 1388,-199 1388,-168.9 1392.23,-153.13 1369,-134 1366.69,-132.1 1034.09,-102.5 887.29,-89.52"/>
<polygon fill="midnightblue" stroke="midnightblue" points="887.32,-86.01 877.05,-88.62 886.7,-92.99 887.32,-86.01"/>
</g>
<!-- Node5 -->
<g id="node5" class="node">
<title>Node5</title>
<g id="a_node5"><a xlink:href="appender_8h.html" target="_top" xlink:title=" ">
<polygon fill="white" stroke="black" points="889,-358.5 889,-377.5 1009,-377.5 1009,-358.5 889,-358.5"/>
<text text-anchor="middle" x="949" y="-365.5" font-family="Helvetica,sans-Serif" font-size="10.00">log4cplus/appender.h</text>
</a>
</g>
</g>
<!-- Node1&#45;&gt;Node5 -->
<g id="edge4" class="edge">
<title>Node1&#45;&gt;Node5</title>
<path fill="none" stroke="midnightblue" d="M949,-414.08C949,-407.01 949,-396.86 949,-387.99"/>
<polygon fill="midnightblue" stroke="midnightblue" points="952.5,-387.75 949,-377.75 945.5,-387.75 952.5,-387.75"/>
</g>
<!-- Node8 -->
<g id="node8" class="node">
<title>Node8</title>
<g id="a_node8"><a xlink:title=" ">
<polygon fill="white" stroke="#bfbfbf" points="588.5,-190.5 588.5,-209.5 635.5,-209.5 635.5,-190.5 588.5,-190.5"/>
<text text-anchor="middle" x="612" y="-197.5" font-family="Helvetica,sans-Serif" font-size="10.00">vector</text>
</a>
</g>
</g>
<!-- Node1&#45;&gt;Node8 -->
<g id="edge62" class="edge">
<title>Node1&#45;&gt;Node8</title>
<path fill="none" stroke="midnightblue" d="M887.32,-417.44C781.2,-406.46 571.21,-378.04 527,-322 497.66,-284.81 554.77,-238.37 588.95,-215.34"/>
<polygon fill="midnightblue" stroke="midnightblue" points="591.04,-218.15 597.49,-209.75 587.21,-212.3 591.04,-218.15"/>
</g>
<!-- Node11 -->
<g id="node11" class="node">
<title>Node11</title>
<g id="a_node11"><a xlink:href="tstring_8h.html" target="_top" xlink:title=" ">
<polygon fill="white" stroke="black" points="330.5,-190.5 330.5,-209.5 437.5,-209.5 437.5,-190.5 330.5,-190.5"/>
<text text-anchor="middle" x="384" y="-197.5" font-family="Helvetica,sans-Serif" font-size="10.00">log4cplus/tstring.h</text>
</a>
</g>
</g>
<!-- Node1&#45;&gt;Node11 -->
<g id="edge60" class="edge">
<title>Node1&#45;&gt;Node11</title>
<path fill="none" stroke="midnightblue" d="M887.27,-422.91C813.31,-421.11 686.54,-412.59 584,-378 500.71,-349.9 477.36,-333.45 421,-266 408.93,-251.55 398.66,-232.61 392.02,-218.91"/>
<polygon fill="midnightblue" stroke="midnightblue" points="395.09,-217.19 387.69,-209.61 388.74,-220.15 395.09,-217.19"/>
</g>
<!-- Node18 -->
<g id="node18" class="node">
<title>Node18</title>
<g id="a_node18"><a xlink:href="pointer_8h.html" target="_top" xlink:title=" ">
<polygon fill="white" stroke="black" points="1100,-190.5 1100,-209.5 1248,-209.5 1248,-190.5 1100,-190.5"/>
<text text-anchor="middle" x="1174" y="-197.5" font-family="Helvetica,sans-Serif" font-size="10.00">log4cplus/helpers/pointer.h</text>
</a>
</g>
</g>
<!-- Node1&#45;&gt;Node18 -->
<g id="edge61" class="edge">
<title>Node1&#45;&gt;Node18</title>
<path fill="none" stroke="midnightblue" d="M969.47,-414.4C1003.84,-399.28 1074.18,-365.39 1123,-322 1146.25,-301.33 1153.16,-294.77 1165,-266 1171.04,-251.33 1173.17,-233.4 1173.86,-220.08"/>
<polygon fill="midnightblue" stroke="midnightblue" points="1177.37,-219.87 1174.16,-209.77 1170.37,-219.67 1177.37,-219.87"/>
</g>
<!-- Node3 -->
<g id="node3" class="node">
<title>Node3</title>
<g id="a_node3"><a xlink:href="win32_8h.html" target="_top" xlink:title=" ">
<polygon fill="white" stroke="black" points="673.5,-6 673.5,-25 810.5,-25 810.5,-6 673.5,-6"/>
<text text-anchor="middle" x="742" y="-13" font-family="Helvetica,sans-Serif" font-size="10.00">log4cplus/config/win32.h</text>
</a>
</g>
</g>
<!-- Node2&#45;&gt;Node3 -->
<g id="edge2" class="edge">
<title>Node2&#45;&gt;Node3</title>
<path fill="none" stroke="midnightblue" d="M808.62,-72.73C796.15,-62.21 775.03,-44.38 759.91,-31.62"/>
<polygon fill="midnightblue" stroke="midnightblue" points="762.12,-28.9 752.22,-25.13 757.6,-34.25 762.12,-28.9"/>
</g>
<!-- Node4 -->
<g id="node4" class="node">
<title>Node4</title>
<g id="a_node4"><a xlink:href="thread-config_8h.html" target="_top" xlink:title=" ">
<polygon fill="white" stroke="black" points="828.5,-0.5 828.5,-30.5 965.5,-30.5 965.5,-0.5 828.5,-0.5"/>
<text text-anchor="start" x="836.5" y="-18.5" font-family="Helvetica,sans-Serif" font-size="10.00">log4cplus/helpers/thread</text>
<text text-anchor="middle" x="897" y="-7.5" font-family="Helvetica,sans-Serif" font-size="10.00">&#45;config.h</text>
</a>
</g>
</g>
<!-- Node2&#45;&gt;Node4 -->
<g id="edge3" class="edge">
<title>Node2&#45;&gt;Node4</title>
<path fill="none" stroke="midnightblue" d="M829.52,-72.73C840.36,-63.7 857.67,-49.27 872.04,-37.3"/>
<polygon fill="midnightblue" stroke="midnightblue" points="874.65,-39.68 880.09,-30.59 870.17,-34.3 874.65,-39.68"/>
</g>
<!-- Node5&#45;&gt;Node2 -->
<g id="edge5" class="edge">
<title>Node5&#45;&gt;Node2</title>
<path fill="none" stroke="midnightblue" d="M942.22,-358.25C929.31,-341.25 900.88,-302.26 883,-266 854.72,-208.64 833.09,-135.61 823.87,-101.98"/>
<polygon fill="midnightblue" stroke="midnightblue" points="827.21,-100.91 821.23,-92.16 820.45,-102.73 827.21,-100.91"/>
</g>
<!-- Node6 -->
<g id="node6" class="node">
<title>Node6</title>
<g id="a_node6"><a xlink:href="layout_8h.html" target="_top" xlink:title=" ">
<polygon fill="white" stroke="black" points="536,-302.5 536,-321.5 642,-321.5 642,-302.5 536,-302.5"/>
<text text-anchor="middle" x="589" y="-309.5" font-family="Helvetica,sans-Serif" font-size="10.00">log4cplus/layout.h</text>
</a>
</g>
</g>
<!-- Node5&#45;&gt;Node6 -->
<g id="edge6" class="edge">
<title>Node5&#45;&gt;Node6</title>
<path fill="none" stroke="midnightblue" d="M891.96,-358.44C826.71,-348.66 720.17,-332.68 652.38,-322.51"/>
<polygon fill="midnightblue" stroke="midnightblue" points="652.66,-319.01 642.26,-320.99 651.63,-325.93 652.66,-319.01"/>
</g>
<!-- Node7 -->
<g id="node7" class="node">
<title>Node7</title>
<g id="a_node7"><a xlink:href="loglevel_8h.html" target="_top" xlink:title="This header defines the LogLevel type.">
<polygon fill="white" stroke="black" points="892,-246.5 892,-265.5 1006,-265.5 1006,-246.5 892,-246.5"/>
<text text-anchor="middle" x="949" y="-253.5" font-family="Helvetica,sans-Serif" font-size="10.00">log4cplus/loglevel.h</text>
</a>
</g>
</g>
<!-- Node5&#45;&gt;Node7 -->
<g id="edge44" class="edge">
<title>Node5&#45;&gt;Node7</title>
<path fill="none" stroke="midnightblue" d="M949,-358.37C949,-340.62 949,-299.67 949,-275.6"/>
<polygon fill="midnightblue" stroke="midnightblue" points="952.5,-275.59 949,-265.59 945.5,-275.59 952.5,-275.59"/>
</g>
<!-- Node9 -->
<g id="node9" class="node">
<title>Node9</title>
<g id="a_node9"><a xlink:title=" ">
<polygon fill="white" stroke="#bfbfbf" points="768,-190.5 768,-209.5 826,-209.5 826,-190.5 768,-190.5"/>
<text text-anchor="middle" x="797" y="-197.5" font-family="Helvetica,sans-Serif" font-size="10.00">memory</text>
</a>
</g>
</g>
<!-- Node5&#45;&gt;Node9 -->
<g id="edge56" class="edge">
<title>Node5&#45;&gt;Node9</title>
<path fill="none" stroke="midnightblue" d="M915.08,-358.35C894.06,-351.5 867.77,-340.01 850,-322 821.24,-292.84 806.82,-245.49 800.72,-219.51"/>
<polygon fill="midnightblue" stroke="midnightblue" points="804.09,-218.53 798.54,-209.51 797.25,-220.02 804.09,-218.53"/>
</g>
<!-- Node5&#45;&gt;Node11 -->
<g id="edge45" class="edge">
<title>Node5&#45;&gt;Node11</title>
<path fill="none" stroke="midnightblue" d="M888.97,-364.93C788.42,-360.74 590.68,-349.24 527,-322 471.15,-298.11 420.67,-244.66 397.46,-217.51"/>
<polygon fill="midnightblue" stroke="midnightblue" points="400.01,-215.11 390.91,-209.69 394.65,-219.61 400.01,-215.11"/>
</g>
<!-- Node5&#45;&gt;Node18 -->
<g id="edge46" class="edge">
<title>Node5&#45;&gt;Node18</title>
<path fill="none" stroke="midnightblue" d="M1009.17,-359.42C1038.89,-353.25 1073.87,-342.1 1100,-322 1135.34,-294.81 1157.7,-245.56 1167.77,-219.05"/>
<polygon fill="midnightblue" stroke="midnightblue" points="1171.11,-220.1 1171.24,-209.5 1164.53,-217.71 1171.11,-220.1"/>
</g>
<!-- Node20 -->
<g id="node20" class="node">
<title>Node20</title>
<g id="a_node20"><a xlink:title=" ">
<polygon fill="white" stroke="#bfbfbf" points="1244,-73 1244,-92 1292,-92 1292,-73 1244,-73"/>
<text text-anchor="middle" x="1268" y="-80" font-family="Helvetica,sans-Serif" font-size="10.00">mutex</text>
</a>
</g>
</g>
<!-- Node5&#45;&gt;Node20 -->
<g id="edge57" class="edge">
<title>Node5&#45;&gt;Node20</title>
<path fill="none" stroke="midnightblue" d="M1009.17,-360.79C1113.62,-346.26 1324.69,-299.41 1402,-154 1406.17,-146.15 1407.06,-141.31 1402,-134 1390.32,-117.11 1337.92,-100.99 1302.21,-91.68"/>
<polygon fill="midnightblue" stroke="midnightblue" points="1302.73,-88.2 1292.18,-89.13 1301.01,-94.99 1302.73,-88.2"/>
</g>
<!-- Node21 -->
<g id="node21" class="node">
<title>Node21</title>
<g id="a_node21"><a xlink:title=" ">
<polygon fill="white" stroke="#bfbfbf" points="1360.5,-73 1360.5,-92 1467.5,-92 1467.5,-73 1360.5,-73"/>
<text text-anchor="middle" x="1414" y="-80" font-family="Helvetica,sans-Serif" font-size="10.00">condition_variable</text>
</a>
</g>
</g>
<!-- Node5&#45;&gt;Node21 -->
<g id="edge59" class="edge">
<title>Node5&#45;&gt;Node21</title>
<path fill="none" stroke="midnightblue" d="M1009.08,-366.69C1144.94,-364.37 1464,-349.11 1464,-257 1464,-257 1464,-257 1464,-199 1464,-161.5 1441.53,-122.38 1426.72,-100.66"/>
<polygon fill="midnightblue" stroke="midnightblue" points="1429.38,-98.36 1420.74,-92.22 1423.67,-102.4 1429.38,-98.36"/>
</g>
<!-- Node25 -->
<g id="node25" class="node">
<title>Node25</title>
<g id="a_node25"><a xlink:title=" ">
<polygon fill="white" stroke="#bfbfbf" points="1310,-134.5 1310,-153.5 1360,-153.5 1360,-134.5 1310,-134.5"/>
<text text-anchor="middle" x="1335" y="-141.5" font-family="Helvetica,sans-Serif" font-size="10.00">atomic</text>
</a>
</g>
</g>
<!-- Node5&#45;&gt;Node25 -->
<g id="edge58" class="edge">
<title>Node5&#45;&gt;Node25</title>
<path fill="none" stroke="midnightblue" d="M1007.74,-358.49C1042.61,-351.84 1086.92,-340.53 1123,-322 1207.54,-278.59 1288.25,-196.3 1320.39,-161.35"/>
<polygon fill="midnightblue" stroke="midnightblue" points="1323.35,-163.3 1327.48,-153.54 1318.17,-158.59 1323.35,-163.3"/>
</g>
<!-- Node31 -->
<g id="node31" class="node">
<title>Node31</title>
<g id="a_node31"><a xlink:href="filter_8h.html" target="_top" xlink:title="This header defines Filter and all of it&#39;s subclasses.">
<polygon fill="white" stroke="black" points="977,-302.5 977,-321.5 1091,-321.5 1091,-302.5 977,-302.5"/>
<text text-anchor="middle" x="1034" y="-309.5" font-family="Helvetica,sans-Serif" font-size="10.00">log4cplus/spi/filter.h</text>
</a>
</g>
</g>
<!-- Node5&#45;&gt;Node31 -->
<g id="edge47" class="edge">
<title>Node5&#45;&gt;Node31</title>
<path fill="none" stroke="midnightblue" d="M962.66,-358.32C975.92,-349.9 996.27,-336.97 1011.85,-327.07"/>
<polygon fill="midnightblue" stroke="midnightblue" points="1013.81,-329.97 1020.38,-321.65 1010.06,-324.06 1013.81,-329.97"/>
</g>
<!-- Node32 -->
<g id="node32" class="node">
<title>Node32</title>
<g id="a_node32"><a xlink:href="lockfile_8h.html" target="_top" xlink:title=" ">
<polygon fill="white" stroke="black" points="611.5,-246.5 611.5,-265.5 760.5,-265.5 760.5,-246.5 611.5,-246.5"/>
<text text-anchor="middle" x="686" y="-253.5" font-family="Helvetica,sans-Serif" font-size="10.00">log4cplus/helpers/lockfile.h</text>
</a>
</g>
</g>
<!-- Node5&#45;&gt;Node32 -->
<g id="edge52" class="edge">
<title>Node5&#45;&gt;Node32</title>
<path fill="none" stroke="midnightblue" d="M918.29,-358.44C890.19,-350.24 847.67,-336.95 812,-322 775.16,-306.56 734.4,-284.58 709.49,-270.55"/>
<polygon fill="midnightblue" stroke="midnightblue" points="711.18,-267.49 700.76,-265.6 707.73,-273.58 711.18,-267.49"/>
</g>
<!-- Node6&#45;&gt;Node2 -->
<g id="edge7" class="edge">
<title>Node6&#45;&gt;Node2</title>
<path fill="none" stroke="midnightblue" d="M588.86,-302.19C589.06,-288.87 591.12,-263.33 603,-246 624.04,-215.29 713.7,-176.96 743,-154 764.99,-136.77 788.26,-114.51 803.17,-99.66"/>
<polygon fill="midnightblue" stroke="midnightblue" points="805.97,-101.81 810.53,-92.25 801,-96.87 805.97,-101.81"/>
</g>
<!-- Node6&#45;&gt;Node7 -->
<g id="edge8" class="edge">
<title>Node6&#45;&gt;Node7</title>
<path fill="none" stroke="midnightblue" d="M642.12,-303.03C705.87,-293.47 812.84,-277.42 882.15,-267.03"/>
<polygon fill="midnightblue" stroke="midnightblue" points="882.72,-270.48 892.09,-265.54 881.68,-263.56 882.72,-270.48"/>
</g>
<!-- Node6&#45;&gt;Node8 -->
<g id="edge42" class="edge">
<title>Node6&#45;&gt;Node8</title>
<path fill="none" stroke="midnightblue" d="M582.92,-302.42C574.79,-289.82 562.24,-265.69 570,-246 574.51,-234.55 583.47,-224.29 591.95,-216.47"/>
<polygon fill="midnightblue" stroke="midnightblue" points="594.47,-218.93 599.79,-209.76 589.91,-213.61 594.47,-218.93"/>
</g>
<!-- Node6&#45;&gt;Node9 -->
<g id="edge43" class="edge">
<title>Node6&#45;&gt;Node9</title>
<path fill="none" stroke="midnightblue" d="M642.32,-310.16C681.8,-306.84 734.65,-296.41 770,-266 783.73,-254.19 790.61,-234.27 793.97,-219.58"/>
<polygon fill="midnightblue" stroke="midnightblue" points="797.44,-220.08 795.91,-209.6 790.57,-218.75 797.44,-220.08"/>
</g>
<!-- Node6&#45;&gt;Node11 -->
<g id="edge36" class="edge">
<title>Node6&#45;&gt;Node11</title>
<path fill="none" stroke="midnightblue" d="M572.91,-302.37C537.29,-283.25 451.52,-237.23 408.9,-214.36"/>
<polygon fill="midnightblue" stroke="midnightblue" points="410.48,-211.24 400.01,-209.59 407.17,-217.4 410.48,-211.24"/>
</g>
<!-- Node26 -->
<g id="node26" class="node">
<title>Node26</title>
<g id="a_node26"><a xlink:href="streams_8h.html" target="_top" xlink:title=" ">
<polygon fill="white" stroke="black" points="455.5,-190.5 455.5,-209.5 570.5,-209.5 570.5,-190.5 455.5,-190.5"/>
<text text-anchor="middle" x="513" y="-197.5" font-family="Helvetica,sans-Serif" font-size="10.00">log4cplus/streams.h</text>
</a>
</g>
</g>
<!-- Node6&#45;&gt;Node26 -->
<g id="edge32" class="edge">
<title>Node6&#45;&gt;Node26</title>
<path fill="none" stroke="midnightblue" d="M583.04,-302.37C570.49,-284.22 541.19,-241.8 524.74,-217.99"/>
<polygon fill="midnightblue" stroke="midnightblue" points="527.5,-215.83 518.94,-209.59 521.74,-219.81 527.5,-215.83"/>
</g>
<!-- Node28 -->
<g id="node28" class="node">
<title>Node28</title>
<g id="a_node28"><a xlink:href="timehelper_8h.html" target="_top" xlink:title=" ">
<polygon fill="white" stroke="black" points="56.5,-246.5 56.5,-265.5 223.5,-265.5 223.5,-246.5 56.5,-246.5"/>
<text text-anchor="middle" x="140" y="-253.5" font-family="Helvetica,sans-Serif" font-size="10.00">log4cplus/helpers/timehelper.h</text>
</a>
</g>
</g>
<!-- Node6&#45;&gt;Node28 -->
<g id="edge37" class="edge">
<title>Node6&#45;&gt;Node28</title>
<path fill="none" stroke="midnightblue" d="M535.73,-304.59C457.81,-295.22 312.14,-277.7 220.93,-266.73"/>
<polygon fill="midnightblue" stroke="midnightblue" points="221.26,-263.25 210.91,-265.53 220.42,-270.2 221.26,-263.25"/>
</g>
<!-- Node7&#45;&gt;Node2 -->
<g id="edge9" class="edge">
<title>Node7&#45;&gt;Node2</title>
<path fill="none" stroke="midnightblue" d="M941.24,-246.19C933.42,-237.23 921.1,-222.87 911,-210 880.98,-171.72 847.93,-125.08 830.79,-100.52"/>
<polygon fill="midnightblue" stroke="midnightblue" points="833.62,-98.46 825.04,-92.25 827.87,-102.46 833.62,-98.46"/>
</g>
<!-- Node7&#45;&gt;Node8 -->
<g id="edge10" class="edge">
<title>Node7&#45;&gt;Node8</title>
<path fill="none" stroke="midnightblue" d="M895.6,-246.44C825.54,-235.22 704.62,-215.84 645.92,-206.44"/>
<polygon fill="midnightblue" stroke="midnightblue" points="646.14,-202.93 635.71,-204.8 645.04,-209.84 646.14,-202.93"/>
</g>
<!-- Node7&#45;&gt;Node9 -->
<g id="edge11" class="edge">
<title>Node7&#45;&gt;Node9</title>
<path fill="none" stroke="midnightblue" d="M924.92,-246.44C899.46,-237.4 859.11,-223.06 830.54,-212.92"/>
<polygon fill="midnightblue" stroke="midnightblue" points="831.57,-209.57 820.97,-209.52 829.22,-216.16 831.57,-209.57"/>
</g>
<!-- Node10 -->
<g id="node10" class="node">
<title>Node10</title>
<g id="a_node10"><a xlink:title=" ">
<polygon fill="white" stroke="#bfbfbf" points="920,-190.5 920,-209.5 1006,-209.5 1006,-190.5 920,-190.5"/>
<text text-anchor="middle" x="963" y="-197.5" font-family="Helvetica,sans-Serif" font-size="10.00">shared_mutex</text>
</a>
</g>
</g>
<!-- Node7&#45;&gt;Node10 -->
<g id="edge12" class="edge">
<title>Node7&#45;&gt;Node10</title>
<path fill="none" stroke="midnightblue" d="M951.31,-246.08C953.17,-238.93 955.84,-228.64 958.15,-219.69"/>
<polygon fill="midnightblue" stroke="midnightblue" points="961.61,-220.31 960.73,-209.75 954.83,-218.55 961.61,-220.31"/>
</g>
<!-- Node7&#45;&gt;Node11 -->
<g id="edge13" class="edge">
<title>Node7&#45;&gt;Node11</title>
<path fill="none" stroke="midnightblue" d="M891.94,-250.92C800.38,-244.15 614.75,-229.5 447.7,-210.15"/>
<polygon fill="midnightblue" stroke="midnightblue" points="448.08,-206.67 437.74,-208.99 447.27,-213.62 448.08,-206.67"/>
</g>
<!-- Node7&#45;&gt;Node18 -->
<g id="edge22" class="edge">
<title>Node7&#45;&gt;Node18</title>
<path fill="none" stroke="midnightblue" d="M984.65,-246.44C1023.66,-237.08 1086.27,-222.06 1128.72,-211.87"/>
<polygon fill="midnightblue" stroke="midnightblue" points="1129.61,-215.25 1138.51,-209.52 1127.97,-208.45 1129.61,-215.25"/>
</g>
<!-- Node11&#45;&gt;Node2 -->
<g id="edge14" class="edge">
<title>Node11&#45;&gt;Node2</title>
<path fill="none" stroke="midnightblue" d="M388.55,-190.04C396.43,-175.53 414.11,-147.19 438,-134 490.34,-105.09 656.13,-91.91 750.86,-86.6"/>
<polygon fill="midnightblue" stroke="midnightblue" points="751.13,-90.09 760.93,-86.05 750.75,-83.1 751.13,-90.09"/>
</g>
<!-- Node12 -->
<g id="node12" class="node">
<title>Node12</title>
<g id="a_node12"><a xlink:title=" ">
<polygon fill="white" stroke="#bfbfbf" points="321.5,-134.5 321.5,-153.5 390.5,-153.5 390.5,-134.5 321.5,-134.5"/>
<text text-anchor="middle" x="356" y="-141.5" font-family="Helvetica,sans-Serif" font-size="10.00">type_traits</text>
</a>
</g>
</g>
<!-- Node11&#45;&gt;Node12 -->
<g id="edge15" class="edge">
<title>Node11&#45;&gt;Node12</title>
<path fill="none" stroke="midnightblue" d="M379.38,-190.08C375.54,-182.69 369.98,-171.95 365.24,-162.81"/>
<polygon fill="midnightblue" stroke="midnightblue" points="368.25,-161.02 360.54,-153.75 362.03,-164.24 368.25,-161.02"/>
</g>
<!-- Node13 -->
<g id="node13" class="node">
<title>Node13</title>
<g id="a_node13"><a xlink:title=" ">
<polygon fill="white" stroke="#bfbfbf" points="564.5,-134.5 564.5,-153.5 629.5,-153.5 629.5,-134.5 564.5,-134.5"/>
<text text-anchor="middle" x="597" y="-141.5" font-family="Helvetica,sans-Serif" font-size="10.00">functional</text>
</a>
</g>
</g>
<!-- Node11&#45;&gt;Node13 -->
<g id="edge16" class="edge">
<title>Node11&#45;&gt;Node13</title>
<path fill="none" stroke="midnightblue" d="M417.75,-190.44C454.84,-181.04 514.49,-165.92 554.68,-155.73"/>
<polygon fill="midnightblue" stroke="midnightblue" points="555.62,-159.1 564.46,-153.25 553.9,-152.32 555.62,-159.1"/>
</g>
<!-- Node14 -->
<g id="node14" class="node">
<title>Node14</title>
<g id="a_node14"><a xlink:title=" ">
<polygon fill="white" stroke="#bfbfbf" points="168,-134.5 168,-153.5 212,-153.5 212,-134.5 168,-134.5"/>
<text text-anchor="middle" x="190" y="-141.5" font-family="Helvetica,sans-Serif" font-size="10.00">string</text>
</a>
</g>
</g>
<!-- Node11&#45;&gt;Node14 -->
<g id="edge17" class="edge">
<title>Node11&#45;&gt;Node14</title>
<path fill="none" stroke="midnightblue" d="M352.72,-190.5C321.87,-182.08 273.12,-168.7 221.93,-154.24"/>
<polygon fill="midnightblue" stroke="midnightblue" points="222.58,-150.78 212.01,-151.43 220.67,-157.52 222.58,-150.78"/>
</g>
<!-- Node15 -->
<g id="node15" class="node">
<title>Node15</title>
<g id="a_node15"><a xlink:title=" ">
<polygon fill="white" stroke="#bfbfbf" points="230.5,-134.5 230.5,-153.5 303.5,-153.5 303.5,-134.5 230.5,-134.5"/>
<text text-anchor="middle" x="267" y="-141.5" font-family="Helvetica,sans-Serif" font-size="10.00">string_view</text>
</a>
</g>
</g>
<!-- Node11&#45;&gt;Node15 -->
<g id="edge18" class="edge">
<title>Node11&#45;&gt;Node15</title>
<path fill="none" stroke="midnightblue" d="M365.46,-190.44C346.38,-181.64 316.43,-167.81 294.56,-157.72"/>
<polygon fill="midnightblue" stroke="midnightblue" points="296,-154.53 285.45,-153.52 293.07,-160.88 296,-154.53"/>
</g>
<!-- Node16 -->
<g id="node16" class="node">
<title>Node16</title>
<g id="a_node16"><a xlink:href="tchar_8h.html" target="_top" xlink:title=" ">
<polygon fill="white" stroke="black" points="447.5,-134.5 447.5,-153.5 546.5,-153.5 546.5,-134.5 447.5,-134.5"/>
<text text-anchor="middle" x="497" y="-141.5" font-family="Helvetica,sans-Serif" font-size="10.00">log4cplus/tchar.h</text>
</a>
</g>
</g>
<!-- Node11&#45;&gt;Node16 -->
<g id="edge19" class="edge">
<title>Node11&#45;&gt;Node16</title>
<path fill="none" stroke="midnightblue" d="M401.91,-190.44C420.25,-181.68 449.01,-167.94 470.09,-157.86"/>
<polygon fill="midnightblue" stroke="midnightblue" points="471.67,-160.99 479.18,-153.52 468.65,-154.67 471.67,-160.99"/>
</g>
<!-- Node16&#45;&gt;Node2 -->
<g id="edge20" class="edge">
<title>Node16&#45;&gt;Node2</title>
<path fill="none" stroke="midnightblue" d="M543.13,-134.48C601.12,-123.76 700.58,-105.38 762.9,-93.87"/>
<polygon fill="midnightblue" stroke="midnightblue" points="763.75,-97.27 772.95,-92.01 762.48,-90.38 763.75,-97.27"/>
</g>
<!-- Node17 -->
<g id="node17" class="node">
<title>Node17</title>
<g id="a_node17"><a xlink:title=" ">
<polygon fill="white" stroke="#bfbfbf" points="470.5,-73 470.5,-92 523.5,-92 523.5,-73 470.5,-73"/>
<text text-anchor="middle" x="497" y="-80" font-family="Helvetica,sans-Serif" font-size="10.00">cstddef</text>
</a>
</g>
</g>
<!-- Node16&#45;&gt;Node17 -->
<g id="edge21" class="edge">
<title>Node16&#45;&gt;Node17</title>
<path fill="none" stroke="midnightblue" d="M497,-134.48C497,-126.08 497,-112.98 497,-102.16"/>
<polygon fill="midnightblue" stroke="midnightblue" points="500.5,-102.01 497,-92.01 493.5,-102.01 500.5,-102.01"/>
</g>
<!-- Node18&#45;&gt;Node2 -->
<g id="edge23" class="edge">
<title>Node18&#45;&gt;Node2</title>
<path fill="none" stroke="midnightblue" d="M1120.56,-190.43C1079.12,-183.01 1020.57,-170.8 971,-154 951.04,-147.23 947.12,-142.87 928,-134 900.32,-121.15 868.66,-106.49 846.63,-96.29"/>
<polygon fill="midnightblue" stroke="midnightblue" points="848.06,-93.09 837.52,-92.07 845.12,-99.45 848.06,-93.09"/>
</g>
<!-- Node19 -->
<g id="node19" class="node">
<title>Node19</title>
<g id="a_node19"><a xlink:href="syncprims_8h.html" target="_top" xlink:title=" ">
<polygon fill="white" stroke="black" points="980,-134.5 980,-153.5 1140,-153.5 1140,-134.5 980,-134.5"/>
<text text-anchor="middle" x="1060" y="-141.5" font-family="Helvetica,sans-Serif" font-size="10.00">log4cplus/thread/syncprims.h</text>
</a>
</g>
</g>
<!-- Node18&#45;&gt;Node19 -->
<g id="edge24" class="edge">
<title>Node18&#45;&gt;Node19</title>
<path fill="none" stroke="midnightblue" d="M1155.94,-190.44C1137.43,-181.68 1108.42,-167.94 1087.14,-157.86"/>
<polygon fill="midnightblue" stroke="midnightblue" points="1088.51,-154.63 1077.98,-153.52 1085.52,-160.96 1088.51,-154.63"/>
</g>
<!-- Node23 -->
<g id="node23" class="node">
<title>Node23</title>
<g id="a_node23"><a xlink:title=" ">
<polygon fill="white" stroke="#bfbfbf" points="1158,-134.5 1158,-153.5 1222,-153.5 1222,-134.5 1158,-134.5"/>
<text text-anchor="middle" x="1190" y="-141.5" font-family="Helvetica,sans-Serif" font-size="10.00">algorithm</text>
</a>
</g>
</g>
<!-- Node18&#45;&gt;Node23 -->
<g id="edge29" class="edge">
<title>Node18&#45;&gt;Node23</title>
<path fill="none" stroke="midnightblue" d="M1176.64,-190.08C1178.79,-182.85 1181.88,-172.41 1184.55,-163.4"/>
<polygon fill="midnightblue" stroke="midnightblue" points="1187.92,-164.33 1187.41,-153.75 1181.21,-162.34 1187.92,-164.33"/>
</g>
<!-- Node24 -->
<g id="node24" class="node">
<title>Node24</title>
<g id="a_node24"><a xlink:title=" ">
<polygon fill="white" stroke="#bfbfbf" points="1240,-134.5 1240,-153.5 1292,-153.5 1292,-134.5 1240,-134.5"/>
<text text-anchor="middle" x="1266" y="-141.5" font-family="Helvetica,sans-Serif" font-size="10.00">cassert</text>
</a>
</g>
</g>
<!-- Node18&#45;&gt;Node24 -->
<g id="edge30" class="edge">
<title>Node18&#45;&gt;Node24</title>
<path fill="none" stroke="midnightblue" d="M1188.78,-190.32C1203.27,-181.82 1225.57,-168.73 1242.49,-158.8"/>
<polygon fill="midnightblue" stroke="midnightblue" points="1244.4,-161.74 1251.26,-153.65 1240.86,-155.7 1244.4,-161.74"/>
</g>
<!-- Node18&#45;&gt;Node25 -->
<g id="edge31" class="edge">
<title>Node18&#45;&gt;Node25</title>
<path fill="none" stroke="midnightblue" d="M1199.51,-190.44C1226.68,-181.33 1269.84,-166.85 1300.14,-156.69"/>
<polygon fill="midnightblue" stroke="midnightblue" points="1301.51,-159.93 1309.87,-153.43 1299.28,-153.29 1301.51,-159.93"/>
</g>
<!-- Node19&#45;&gt;Node2 -->
<g id="edge25" class="edge">
<title>Node19&#45;&gt;Node2</title>
<path fill="none" stroke="midnightblue" d="M1025.47,-134.48C982.79,-123.94 910.08,-105.99 863.32,-94.44"/>
<polygon fill="midnightblue" stroke="midnightblue" points="864.01,-91.01 853.47,-92.01 862.33,-97.8 864.01,-91.01"/>
</g>
<!-- Node19&#45;&gt;Node20 -->
<g id="edge26" class="edge">
<title>Node19&#45;&gt;Node20</title>
<path fill="none" stroke="midnightblue" d="M1089.8,-134.48C1127.93,-123.57 1193.83,-104.72 1233.92,-93.25"/>
<polygon fill="midnightblue" stroke="midnightblue" points="1235.11,-96.55 1243.76,-90.43 1233.19,-89.82 1235.11,-96.55"/>
</g>
<!-- Node19&#45;&gt;Node21 -->
<g id="edge27" class="edge">
<title>Node19&#45;&gt;Node21</title>
<path fill="none" stroke="midnightblue" d="M1110.72,-134.48C1174.73,-123.72 1284.71,-105.23 1353.17,-93.72"/>
<polygon fill="midnightblue" stroke="midnightblue" points="1354.09,-97.12 1363.37,-92.01 1352.93,-90.22 1354.09,-97.12"/>
</g>
<!-- Node22 -->
<g id="node22" class="node">
<title>Node22</title>
<g id="a_node22"><a xlink:href="threadsafetyanalysis_8h.html" target="_top" xlink:title=" ">
<polygon fill="white" stroke="black" points="994.5,-67.5 994.5,-97.5 1125.5,-97.5 1125.5,-67.5 994.5,-67.5"/>
<text text-anchor="start" x="1002.5" y="-85.5" font-family="Helvetica,sans-Serif" font-size="10.00">log4cplus/internal</text>
<text text-anchor="middle" x="1060" y="-74.5" font-family="Helvetica,sans-Serif" font-size="10.00">/threadsafetyanalysis.h</text>
</a>
</g>
</g>
<!-- Node19&#45;&gt;Node22 -->
<g id="edge28" class="edge">
<title>Node19&#45;&gt;Node22</title>
<path fill="none" stroke="midnightblue" d="M1060,-134.48C1060,-127.47 1060,-117.19 1060,-107.7"/>
<polygon fill="midnightblue" stroke="midnightblue" points="1063.5,-107.52 1060,-97.52 1056.5,-107.52 1063.5,-107.52"/>
</g>
<!-- Node26&#45;&gt;Node2 -->
<g id="edge33" class="edge">
<title>Node26&#45;&gt;Node2</title>
<path fill="none" stroke="midnightblue" d="M540.47,-190.43C566.29,-182.09 605.82,-168.57 639,-154 656.47,-146.33 659.52,-141.66 677,-134 711.73,-118.78 752.64,-104.61 781.61,-95.18"/>
<polygon fill="midnightblue" stroke="midnightblue" points="782.88,-98.44 791.33,-92.04 780.74,-91.78 782.88,-98.44"/>
</g>
<!-- Node26&#45;&gt;Node16 -->
<g id="edge34" class="edge">
<title>Node26&#45;&gt;Node16</title>
<path fill="none" stroke="midnightblue" d="M510.36,-190.08C508.21,-182.85 505.12,-172.41 502.45,-163.4"/>
<polygon fill="midnightblue" stroke="midnightblue" points="505.79,-162.34 499.59,-153.75 499.08,-164.33 505.79,-162.34"/>
</g>
<!-- Node27 -->
<g id="node27" class="node">
<title>Node27</title>
<g id="a_node27"><a xlink:title=" ">
<polygon fill="white" stroke="#bfbfbf" points="686,-134.5 686,-153.5 734,-153.5 734,-134.5 686,-134.5"/>
<text text-anchor="middle" x="710" y="-141.5" font-family="Helvetica,sans-Serif" font-size="10.00">iosfwd</text>
</a>
</g>
</g>
<!-- Node26&#45;&gt;Node27 -->
<g id="edge35" class="edge">
<title>Node26&#45;&gt;Node27</title>
<path fill="none" stroke="midnightblue" d="M544.22,-190.44C580.11,-180.6 638.86,-164.5 675.92,-154.34"/>
<polygon fill="midnightblue" stroke="midnightblue" points="677.04,-157.66 685.76,-151.64 675.19,-150.91 677.04,-157.66"/>
</g>
<!-- Node28&#45;&gt;Node2 -->
<g id="edge38" class="edge">
<title>Node28&#45;&gt;Node2</title>
<path fill="none" stroke="midnightblue" d="M138.21,-246.36C134.13,-223.96 126.82,-163.72 159,-134 169.79,-124.04 584.38,-97.77 750.85,-87.6"/>
<polygon fill="midnightblue" stroke="midnightblue" points="751.21,-91.09 760.97,-86.99 750.78,-84.1 751.21,-91.09"/>
</g>
<!-- Node28&#45;&gt;Node11 -->
<g id="edge39" class="edge">
<title>Node28&#45;&gt;Node11</title>
<path fill="none" stroke="midnightblue" d="M178.66,-246.44C221.14,-237.04 289.43,-221.93 335.47,-211.74"/>
<polygon fill="midnightblue" stroke="midnightblue" points="336.51,-215.09 345.52,-209.52 335,-208.26 336.51,-215.09"/>
</g>
<!-- Node29 -->
<g id="node29" class="node">
<title>Node29</title>
<g id="a_node29"><a xlink:title=" ">
<polygon fill="white" stroke="#bfbfbf" points="0,-190.5 0,-209.5 44,-209.5 44,-190.5 0,-190.5"/>
<text text-anchor="middle" x="22" y="-197.5" font-family="Helvetica,sans-Serif" font-size="10.00">ctime</text>
</a>
</g>
</g>
<!-- Node28&#45;&gt;Node29 -->
<g id="edge40" class="edge">
<title>Node28&#45;&gt;Node29</title>
<path fill="none" stroke="midnightblue" d="M121.3,-246.44C102.06,-237.64 71.85,-223.81 49.8,-213.72"/>
<polygon fill="midnightblue" stroke="midnightblue" points="51.16,-210.5 40.61,-209.52 48.25,-216.86 51.16,-210.5"/>
</g>
<!-- Node30 -->
<g id="node30" class="node">
<title>Node30</title>
<g id="a_node30"><a xlink:title=" ">
<polygon fill="white" stroke="#bfbfbf" points="62,-190.5 62,-209.5 112,-209.5 112,-190.5 62,-190.5"/>
<text text-anchor="middle" x="87" y="-197.5" font-family="Helvetica,sans-Serif" font-size="10.00">chrono</text>
</a>
</g>
</g>
<!-- Node28&#45;&gt;Node30 -->
<g id="edge41" class="edge">
<title>Node28&#45;&gt;Node30</title>
<path fill="none" stroke="midnightblue" d="M131.25,-246.08C123.53,-238.22 112.1,-226.57 102.78,-217.08"/>
<polygon fill="midnightblue" stroke="midnightblue" points="105.09,-214.44 95.59,-209.75 100.1,-219.34 105.09,-214.44"/>
</g>
<!-- Node31&#45;&gt;Node2 -->
<g id="edge48" class="edge">
<title>Node31&#45;&gt;Node2</title>
<path fill="none" stroke="midnightblue" d="M1038.62,-302.34C1043.06,-293.49 1049.45,-279.22 1052,-266 1058.55,-232.01 1059.11,-214.84 1035,-190 1000.05,-154 973.19,-175.79 928,-154 894.78,-137.98 859.5,-113.64 838.36,-98.16"/>
<polygon fill="midnightblue" stroke="midnightblue" points="840.33,-95.26 830.21,-92.11 836.16,-100.88 840.33,-95.26"/>
</g>
<!-- Node31&#45;&gt;Node7 -->
<g id="edge51" class="edge">
<title>Node31&#45;&gt;Node7</title>
<path fill="none" stroke="midnightblue" d="M1020.34,-302.32C1007.08,-293.9 986.73,-280.97 971.15,-271.07"/>
<polygon fill="midnightblue" stroke="midnightblue" points="972.94,-268.06 962.62,-265.65 969.19,-273.97 972.94,-268.06"/>
</g>
<!-- Node31&#45;&gt;Node13 -->
<g id="edge49" class="edge">
<title>Node31&#45;&gt;Node13</title>
<path fill="none" stroke="midnightblue" d="M1035.74,-302.41C1039.7,-280.15 1046.73,-220.2 1015,-190 960.28,-137.93 752.09,-162.22 677,-154 664.96,-152.68 651.91,-151.23 639.91,-149.88"/>
<polygon fill="midnightblue" stroke="midnightblue" points="640.02,-146.37 629.69,-148.72 639.24,-153.32 640.02,-146.37"/>
</g>
<!-- Node31&#45;&gt;Node18 -->
<g id="edge50" class="edge">
<title>Node31&#45;&gt;Node18</title>
<path fill="none" stroke="midnightblue" d="M1044.99,-302.37C1068.81,-283.65 1125.44,-239.15 1155.12,-215.83"/>
<polygon fill="midnightblue" stroke="midnightblue" points="1157.36,-218.52 1163.07,-209.59 1153.04,-213.02 1157.36,-218.52"/>
</g>
<!-- Node32&#45;&gt;Node2 -->
<g id="edge53" class="edge">
<title>Node32&#45;&gt;Node2</title>
<path fill="none" stroke="midnightblue" d="M689.81,-246.25C695.87,-233 708.7,-207.55 725,-190 743.88,-169.67 757.05,-174.26 776,-154 790.8,-138.18 803.11,-116.47 810.71,-101.33"/>
<polygon fill="midnightblue" stroke="midnightblue" points="814,-102.59 815.2,-92.06 807.69,-99.54 814,-102.59"/>
</g>
<!-- Node32&#45;&gt;Node11 -->
<g id="edge54" class="edge">
<title>Node32&#45;&gt;Node11</title>
<path fill="none" stroke="midnightblue" d="M638.15,-246.44C584.8,-236.9 498.56,-221.48 441.56,-211.29"/>
<polygon fill="midnightblue" stroke="midnightblue" points="442.09,-207.83 431.63,-209.52 440.86,-214.72 442.09,-207.83"/>
</g>
<!-- Node32&#45;&gt;Node19 -->
<g id="edge55" class="edge">
<title>Node32&#45;&gt;Node19</title>
<path fill="none" stroke="midnightblue" d="M692.98,-246.08C704.83,-231.63 730.42,-203.39 759,-190 795.39,-172.96 894.79,-160.28 969.48,-152.8"/>
<polygon fill="midnightblue" stroke="midnightblue" points="970.24,-156.24 979.85,-151.78 969.55,-149.28 970.24,-156.24"/>
</g>
</g>
</svg>
