<?xml version="1.0" encoding="UTF-8" standalone="no"?>
<!DOCTYPE svg PUBLIC "-//W3C//DTD SVG 1.1//EN"
 "http://www.w3.org/Graphics/SVG/1.1/DTD/svg11.dtd">
<!-- Generated by graphviz version 2.43.0 (0)
 -->
<!-- Title: appenderattachableimpl.h Pages: 1 -->
<svg width="1592pt" height="498pt"
 viewBox="0.00 0.00 1592.00 498.00" xmlns="http://www.w3.org/2000/svg" xmlns:xlink="http://www.w3.org/1999/xlink">
<g id="graph0" class="graph" transform="scale(1 1) rotate(0) translate(4 494)">
<title>appenderattachableimpl.h</title>
<polygon fill="white" stroke="transparent" points="-4,4 -4,-494 1588,-494 1588,4 -4,4"/>
<!-- Node1 -->
<g id="node1" class="node">
<title>Node1</title>
<g id="a_node1"><a xlink:title=" ">
<polygon fill="#bfbfbf" stroke="black" points="861.5,-470.5 861.5,-489.5 1006.5,-489.5 1006.5,-470.5 861.5,-470.5"/>
<text text-anchor="middle" x="934" y="-477.5" font-family="Helvetica,sans-Serif" font-size="10.00">appenderattachableimpl.h</text>
</a>
</g>
</g>
<!-- Node2 -->
<g id="node2" class="node">
<title>Node2</title>
<g id="a_node2"><a xlink:href="config_8hxx.html" target="_top" xlink:title=" ">
<polygon fill="white" stroke="black" points="954,-73 954,-92 1070,-92 1070,-73 954,-73"/>
<text text-anchor="middle" x="1012" y="-80" font-family="Helvetica,sans-Serif" font-size="10.00">log4cplus/config.hxx</text>
</a>
</g>
</g>
<!-- Node1&#45;&gt;Node2 -->
<g id="edge1" class="edge">
<title>Node1&#45;&gt;Node2</title>
<path fill="none" stroke="midnightblue" d="M1006.61,-476.78C1132.4,-472.29 1385.5,-460.23 1470,-434 1525.7,-416.71 1584,-427.32 1584,-369 1584,-369 1584,-369 1584,-199 1584,-157.19 1554.11,-151.2 1516,-134 1430.01,-95.2 1186.53,-110.32 1093,-98 1084.15,-96.83 1074.79,-95.37 1065.71,-93.83"/>
<polygon fill="midnightblue" stroke="midnightblue" points="1066.06,-90.34 1055.6,-92.07 1064.85,-97.23 1066.06,-90.34"/>
</g>
<!-- Node5 -->
<g id="node5" class="node">
<title>Node5</title>
<g id="a_node5"><a xlink:href="tstring_8h.html" target="_top" xlink:title=" ">
<polygon fill="white" stroke="black" points="760.5,-190.5 760.5,-209.5 867.5,-209.5 867.5,-190.5 760.5,-190.5"/>
<text text-anchor="middle" x="814" y="-197.5" font-family="Helvetica,sans-Serif" font-size="10.00">log4cplus/tstring.h</text>
</a>
</g>
</g>
<!-- Node1&#45;&gt;Node5 -->
<g id="edge4" class="edge">
<title>Node1&#45;&gt;Node5</title>
<path fill="none" stroke="midnightblue" d="M893.73,-470.42C872.06,-463.86 846.47,-452.65 830,-434 810.08,-411.44 811,-399.1 811,-369 811,-369 811,-369 811,-311 811,-278.94 812.29,-241.63 813.18,-219.74"/>
<polygon fill="midnightblue" stroke="midnightblue" points="816.68,-219.69 813.61,-209.56 809.69,-219.4 816.68,-219.69"/>
</g>
<!-- Node12 -->
<g id="node12" class="node">
<title>Node12</title>
<g id="a_node12"><a xlink:href="pointer_8h.html" target="_top" xlink:title=" ">
<polygon fill="white" stroke="black" points="226,-190.5 226,-209.5 374,-209.5 374,-190.5 226,-190.5"/>
<text text-anchor="middle" x="300" y="-197.5" font-family="Helvetica,sans-Serif" font-size="10.00">log4cplus/helpers/pointer.h</text>
</a>
</g>
</g>
<!-- Node1&#45;&gt;Node12 -->
<g id="edge13" class="edge">
<title>Node1&#45;&gt;Node12</title>
<path fill="none" stroke="midnightblue" d="M861.44,-474.76C686.54,-463.56 256,-429.82 256,-369 256,-369 256,-369 256,-311 256,-276.04 275.4,-239.01 288.43,-218.07"/>
<polygon fill="midnightblue" stroke="midnightblue" points="291.39,-219.95 293.88,-209.65 285.51,-216.15 291.39,-219.95"/>
</g>
<!-- Node13 -->
<g id="node13" class="node">
<title>Node13</title>
<g id="a_node13"><a xlink:href="syncprims_8h.html" target="_top" xlink:title=" ">
<polygon fill="white" stroke="black" points="90,-134.5 90,-153.5 250,-153.5 250,-134.5 90,-134.5"/>
<text text-anchor="middle" x="170" y="-141.5" font-family="Helvetica,sans-Serif" font-size="10.00">log4cplus/thread/syncprims.h</text>
</a>
</g>
</g>
<!-- Node1&#45;&gt;Node13 -->
<g id="edge67" class="edge">
<title>Node1&#45;&gt;Node13</title>
<path fill="none" stroke="midnightblue" d="M861.44,-477.33C727.01,-473.58 444.46,-462.49 351,-434 302.65,-419.26 284.46,-416.75 252,-378 196.76,-312.05 177.74,-206.38 172.1,-163.74"/>
<polygon fill="midnightblue" stroke="midnightblue" points="175.56,-163.18 170.86,-153.68 168.61,-164.03 175.56,-163.18"/>
</g>
<!-- Node20 -->
<g id="node20" class="node">
<title>Node20</title>
<g id="a_node20"><a xlink:href="appenderattachable_8h.html" target="_top" xlink:title=" ">
<polygon fill="white" stroke="black" points="839,-414.5 839,-433.5 1029,-433.5 1029,-414.5 839,-414.5"/>
<text text-anchor="middle" x="934" y="-421.5" font-family="Helvetica,sans-Serif" font-size="10.00">log4cplus/spi/appenderattachable.h</text>
</a>
</g>
</g>
<!-- Node1&#45;&gt;Node20 -->
<g id="edge23" class="edge">
<title>Node1&#45;&gt;Node20</title>
<path fill="none" stroke="midnightblue" d="M934,-470.08C934,-463.01 934,-452.86 934,-443.99"/>
<polygon fill="midnightblue" stroke="midnightblue" points="937.5,-443.75 934,-433.75 930.5,-443.75 937.5,-443.75"/>
</g>
<!-- Node24 -->
<g id="node24" class="node">
<title>Node24</title>
<g id="a_node24"><a xlink:title=" ">
<polygon fill="white" stroke="#bfbfbf" points="1444.5,-190.5 1444.5,-209.5 1491.5,-209.5 1491.5,-190.5 1444.5,-190.5"/>
<text text-anchor="middle" x="1468" y="-197.5" font-family="Helvetica,sans-Serif" font-size="10.00">vector</text>
</a>
</g>
</g>
<!-- Node1&#45;&gt;Node24 -->
<g id="edge69" class="edge">
<title>Node1&#45;&gt;Node24</title>
<path fill="none" stroke="midnightblue" d="M1006.55,-478.57C1097.84,-476.51 1258.8,-467.82 1392,-434 1464.01,-415.72 1546,-443.29 1546,-369 1546,-369 1546,-369 1546,-311 1546,-270.97 1511.2,-235.34 1488.09,-216.09"/>
<polygon fill="midnightblue" stroke="midnightblue" points="1490.18,-213.28 1480.19,-209.76 1485.8,-218.74 1490.18,-213.28"/>
</g>
<!-- Node25 -->
<g id="node25" class="node">
<title>Node25</title>
<g id="a_node25"><a xlink:title=" ">
<polygon fill="white" stroke="#bfbfbf" points="1368,-190.5 1368,-209.5 1426,-209.5 1426,-190.5 1368,-190.5"/>
<text text-anchor="middle" x="1397" y="-197.5" font-family="Helvetica,sans-Serif" font-size="10.00">memory</text>
</a>
</g>
</g>
<!-- Node1&#45;&gt;Node25 -->
<g id="edge68" class="edge">
<title>Node1&#45;&gt;Node25</title>
<path fill="none" stroke="midnightblue" d="M1006.68,-477.91C1144.9,-473.84 1432,-455.05 1432,-369 1432,-369 1432,-369 1432,-311 1432,-277.07 1416.69,-239.91 1406.32,-218.63"/>
<polygon fill="midnightblue" stroke="midnightblue" points="1409.36,-216.88 1401.72,-209.54 1403.12,-220.05 1409.36,-216.88"/>
</g>
<!-- Node3 -->
<g id="node3" class="node">
<title>Node3</title>
<g id="a_node3"><a xlink:href="win32_8h.html" target="_top" xlink:title=" ">
<polygon fill="white" stroke="black" points="865.5,-6 865.5,-25 1002.5,-25 1002.5,-6 865.5,-6"/>
<text text-anchor="middle" x="934" y="-13" font-family="Helvetica,sans-Serif" font-size="10.00">log4cplus/config/win32.h</text>
</a>
</g>
</g>
<!-- Node2&#45;&gt;Node3 -->
<g id="edge2" class="edge">
<title>Node2&#45;&gt;Node3</title>
<path fill="none" stroke="midnightblue" d="M1001.48,-72.73C988.85,-62.21 967.46,-44.38 952.14,-31.62"/>
<polygon fill="midnightblue" stroke="midnightblue" points="954.28,-28.84 944.35,-25.13 949.79,-34.22 954.28,-28.84"/>
</g>
<!-- Node4 -->
<g id="node4" class="node">
<title>Node4</title>
<g id="a_node4"><a xlink:href="thread-config_8h.html" target="_top" xlink:title=" ">
<polygon fill="white" stroke="black" points="1020.5,-0.5 1020.5,-30.5 1157.5,-30.5 1157.5,-0.5 1020.5,-0.5"/>
<text text-anchor="start" x="1028.5" y="-18.5" font-family="Helvetica,sans-Serif" font-size="10.00">log4cplus/helpers/thread</text>
<text text-anchor="middle" x="1089" y="-7.5" font-family="Helvetica,sans-Serif" font-size="10.00">&#45;config.h</text>
</a>
</g>
</g>
<!-- Node2&#45;&gt;Node4 -->
<g id="edge3" class="edge">
<title>Node2&#45;&gt;Node4</title>
<path fill="none" stroke="midnightblue" d="M1022.38,-72.73C1033.09,-63.7 1050.18,-49.27 1064.36,-37.3"/>
<polygon fill="midnightblue" stroke="midnightblue" points="1066.93,-39.71 1072.31,-30.59 1062.41,-34.37 1066.93,-39.71"/>
</g>
<!-- Node5&#45;&gt;Node2 -->
<g id="edge5" class="edge">
<title>Node5&#45;&gt;Node2</title>
<path fill="none" stroke="midnightblue" d="M864.14,-190.43C892.6,-183.82 927.85,-172.57 955,-154 975.23,-140.17 991.93,-117.08 1001.92,-101.12"/>
<polygon fill="midnightblue" stroke="midnightblue" points="1005.1,-102.62 1007.24,-92.24 999.1,-99.02 1005.1,-102.62"/>
</g>
<!-- Node6 -->
<g id="node6" class="node">
<title>Node6</title>
<g id="a_node6"><a xlink:title=" ">
<polygon fill="white" stroke="#bfbfbf" points="814.5,-134.5 814.5,-153.5 883.5,-153.5 883.5,-134.5 814.5,-134.5"/>
<text text-anchor="middle" x="849" y="-141.5" font-family="Helvetica,sans-Serif" font-size="10.00">type_traits</text>
</a>
</g>
</g>
<!-- Node5&#45;&gt;Node6 -->
<g id="edge6" class="edge">
<title>Node5&#45;&gt;Node6</title>
<path fill="none" stroke="midnightblue" d="M819.78,-190.08C824.67,-182.53 831.83,-171.49 837.83,-162.23"/>
<polygon fill="midnightblue" stroke="midnightblue" points="840.83,-164.05 843.33,-153.75 834.95,-160.24 840.83,-164.05"/>
</g>
<!-- Node7 -->
<g id="node7" class="node">
<title>Node7</title>
<g id="a_node7"><a xlink:title=" ">
<polygon fill="white" stroke="#bfbfbf" points="640.5,-134.5 640.5,-153.5 705.5,-153.5 705.5,-134.5 640.5,-134.5"/>
<text text-anchor="middle" x="673" y="-141.5" font-family="Helvetica,sans-Serif" font-size="10.00">functional</text>
</a>
</g>
</g>
<!-- Node5&#45;&gt;Node7 -->
<g id="edge7" class="edge">
<title>Node5&#45;&gt;Node7</title>
<path fill="none" stroke="midnightblue" d="M791.66,-190.44C768.25,-181.48 731.26,-167.31 704.81,-157.18"/>
<polygon fill="midnightblue" stroke="midnightblue" points="705.83,-153.82 695.24,-153.52 703.32,-160.36 705.83,-153.82"/>
</g>
<!-- Node8 -->
<g id="node8" class="node">
<title>Node8</title>
<g id="a_node8"><a xlink:title=" ">
<polygon fill="white" stroke="#bfbfbf" points="902,-134.5 902,-153.5 946,-153.5 946,-134.5 902,-134.5"/>
<text text-anchor="middle" x="924" y="-141.5" font-family="Helvetica,sans-Serif" font-size="10.00">string</text>
</a>
</g>
</g>
<!-- Node5&#45;&gt;Node8 -->
<g id="edge8" class="edge">
<title>Node5&#45;&gt;Node8</title>
<path fill="none" stroke="midnightblue" d="M831.67,-190.32C849.39,-181.62 876.9,-168.12 897.29,-158.11"/>
<polygon fill="midnightblue" stroke="midnightblue" points="898.94,-161.2 906.37,-153.65 895.85,-154.92 898.94,-161.2"/>
</g>
<!-- Node9 -->
<g id="node9" class="node">
<title>Node9</title>
<g id="a_node9"><a xlink:title=" ">
<polygon fill="white" stroke="#bfbfbf" points="723.5,-134.5 723.5,-153.5 796.5,-153.5 796.5,-134.5 723.5,-134.5"/>
<text text-anchor="middle" x="760" y="-141.5" font-family="Helvetica,sans-Serif" font-size="10.00">string_view</text>
</a>
</g>
</g>
<!-- Node5&#45;&gt;Node9 -->
<g id="edge9" class="edge">
<title>Node5&#45;&gt;Node9</title>
<path fill="none" stroke="midnightblue" d="M805.08,-190.08C797.22,-182.22 785.57,-170.57 776.08,-161.08"/>
<polygon fill="midnightblue" stroke="midnightblue" points="778.3,-158.35 768.75,-153.75 773.35,-163.3 778.3,-158.35"/>
</g>
<!-- Node10 -->
<g id="node10" class="node">
<title>Node10</title>
<g id="a_node10"><a xlink:href="tchar_8h.html" target="_top" xlink:title=" ">
<polygon fill="white" stroke="black" points="1078.5,-134.5 1078.5,-153.5 1177.5,-153.5 1177.5,-134.5 1078.5,-134.5"/>
<text text-anchor="middle" x="1128" y="-141.5" font-family="Helvetica,sans-Serif" font-size="10.00">log4cplus/tchar.h</text>
</a>
</g>
</g>
<!-- Node5&#45;&gt;Node10 -->
<g id="edge10" class="edge">
<title>Node5&#45;&gt;Node10</title>
<path fill="none" stroke="midnightblue" d="M863.75,-190.44C919.33,-180.89 1009.26,-165.42 1068.52,-155.23"/>
<polygon fill="midnightblue" stroke="midnightblue" points="1069.22,-158.66 1078.48,-153.52 1068.03,-151.76 1069.22,-158.66"/>
</g>
<!-- Node10&#45;&gt;Node2 -->
<g id="edge11" class="edge">
<title>Node10&#45;&gt;Node2</title>
<path fill="none" stroke="midnightblue" d="M1111.38,-134.48C1092.08,-124.58 1060.04,-108.14 1037.57,-96.62"/>
<polygon fill="midnightblue" stroke="midnightblue" points="1039.08,-93.46 1028.59,-92.01 1035.89,-99.69 1039.08,-93.46"/>
</g>
<!-- Node11 -->
<g id="node11" class="node">
<title>Node11</title>
<g id="a_node11"><a xlink:title=" ">
<polygon fill="white" stroke="#bfbfbf" points="1101.5,-73 1101.5,-92 1154.5,-92 1154.5,-73 1101.5,-73"/>
<text text-anchor="middle" x="1128" y="-80" font-family="Helvetica,sans-Serif" font-size="10.00">cstddef</text>
</a>
</g>
</g>
<!-- Node10&#45;&gt;Node11 -->
<g id="edge12" class="edge">
<title>Node10&#45;&gt;Node11</title>
<path fill="none" stroke="midnightblue" d="M1128,-134.48C1128,-126.08 1128,-112.98 1128,-102.16"/>
<polygon fill="midnightblue" stroke="midnightblue" points="1131.5,-102.01 1128,-92.01 1124.5,-102.01 1131.5,-102.01"/>
</g>
<!-- Node12&#45;&gt;Node2 -->
<g id="edge14" class="edge">
<title>Node12&#45;&gt;Node2</title>
<path fill="none" stroke="midnightblue" d="M323.25,-190.35C345.9,-181.74 381.2,-167.84 411,-154 428.31,-145.96 430.7,-139.4 449,-134 539.95,-107.16 814.45,-92.06 943.53,-86.28"/>
<polygon fill="midnightblue" stroke="midnightblue" points="943.85,-89.77 953.69,-85.83 943.54,-82.77 943.85,-89.77"/>
</g>
<!-- Node12&#45;&gt;Node13 -->
<g id="edge15" class="edge">
<title>Node12&#45;&gt;Node13</title>
<path fill="none" stroke="midnightblue" d="M279.4,-190.44C258.01,-181.56 224.32,-167.56 199.98,-157.45"/>
<polygon fill="midnightblue" stroke="midnightblue" points="201.08,-154.12 190.5,-153.52 198.39,-160.58 201.08,-154.12"/>
</g>
<!-- Node17 -->
<g id="node17" class="node">
<title>Node17</title>
<g id="a_node17"><a xlink:title=" ">
<polygon fill="white" stroke="#bfbfbf" points="268,-134.5 268,-153.5 332,-153.5 332,-134.5 268,-134.5"/>
<text text-anchor="middle" x="300" y="-141.5" font-family="Helvetica,sans-Serif" font-size="10.00">algorithm</text>
</a>
</g>
</g>
<!-- Node12&#45;&gt;Node17 -->
<g id="edge20" class="edge">
<title>Node12&#45;&gt;Node17</title>
<path fill="none" stroke="midnightblue" d="M300,-190.08C300,-183.01 300,-172.86 300,-163.99"/>
<polygon fill="midnightblue" stroke="midnightblue" points="303.5,-163.75 300,-153.75 296.5,-163.75 303.5,-163.75"/>
</g>
<!-- Node18 -->
<g id="node18" class="node">
<title>Node18</title>
<g id="a_node18"><a xlink:title=" ">
<polygon fill="white" stroke="#bfbfbf" points="350,-134.5 350,-153.5 402,-153.5 402,-134.5 350,-134.5"/>
<text text-anchor="middle" x="376" y="-141.5" font-family="Helvetica,sans-Serif" font-size="10.00">cassert</text>
</a>
</g>
</g>
<!-- Node12&#45;&gt;Node18 -->
<g id="edge21" class="edge">
<title>Node12&#45;&gt;Node18</title>
<path fill="none" stroke="midnightblue" d="M312.21,-190.32C323.78,-182.11 341.38,-169.6 355.16,-159.81"/>
<polygon fill="midnightblue" stroke="midnightblue" points="357.44,-162.48 363.57,-153.83 353.39,-156.77 357.44,-162.48"/>
</g>
<!-- Node19 -->
<g id="node19" class="node">
<title>Node19</title>
<g id="a_node19"><a xlink:title=" ">
<polygon fill="white" stroke="#bfbfbf" points="458,-134.5 458,-153.5 508,-153.5 508,-134.5 458,-134.5"/>
<text text-anchor="middle" x="483" y="-141.5" font-family="Helvetica,sans-Serif" font-size="10.00">atomic</text>
</a>
</g>
</g>
<!-- Node12&#45;&gt;Node19 -->
<g id="edge22" class="edge">
<title>Node12&#45;&gt;Node19</title>
<path fill="none" stroke="midnightblue" d="M329,-190.44C361.38,-180.89 413.76,-165.43 448.29,-155.24"/>
<polygon fill="midnightblue" stroke="midnightblue" points="449.36,-158.58 457.96,-152.39 447.38,-151.86 449.36,-158.58"/>
</g>
<!-- Node13&#45;&gt;Node2 -->
<g id="edge16" class="edge">
<title>Node13&#45;&gt;Node2</title>
<path fill="none" stroke="midnightblue" d="M250.04,-134.78C253.07,-134.51 256.06,-134.25 259,-134 511.27,-112.79 811.68,-94.83 943.86,-87.3"/>
<polygon fill="midnightblue" stroke="midnightblue" points="944.06,-90.79 953.85,-86.73 943.66,-83.8 944.06,-90.79"/>
</g>
<!-- Node14 -->
<g id="node14" class="node">
<title>Node14</title>
<g id="a_node14"><a xlink:title=" ">
<polygon fill="white" stroke="#bfbfbf" points="0,-73 0,-92 48,-92 48,-73 0,-73"/>
<text text-anchor="middle" x="24" y="-80" font-family="Helvetica,sans-Serif" font-size="10.00">mutex</text>
</a>
</g>
</g>
<!-- Node13&#45;&gt;Node14 -->
<g id="edge17" class="edge">
<title>Node13&#45;&gt;Node14</title>
<path fill="none" stroke="midnightblue" d="M147.82,-134.43C124.97,-125.54 88.36,-111.13 57,-98 55.59,-97.41 54.15,-96.8 52.7,-96.18"/>
<polygon fill="midnightblue" stroke="midnightblue" points="53.71,-92.81 43.15,-92.05 50.93,-99.23 53.71,-92.81"/>
</g>
<!-- Node15 -->
<g id="node15" class="node">
<title>Node15</title>
<g id="a_node15"><a xlink:title=" ">
<polygon fill="white" stroke="#bfbfbf" points="66.5,-73 66.5,-92 173.5,-92 173.5,-73 66.5,-73"/>
<text text-anchor="middle" x="120" y="-80" font-family="Helvetica,sans-Serif" font-size="10.00">condition_variable</text>
</a>
</g>
</g>
<!-- Node13&#45;&gt;Node15 -->
<g id="edge18" class="edge">
<title>Node13&#45;&gt;Node15</title>
<path fill="none" stroke="midnightblue" d="M162.84,-134.48C155.26,-125.46 143.13,-111.02 133.71,-99.81"/>
<polygon fill="midnightblue" stroke="midnightblue" points="136.26,-97.41 127.15,-92.01 130.9,-101.92 136.26,-97.41"/>
</g>
<!-- Node16 -->
<g id="node16" class="node">
<title>Node16</title>
<g id="a_node16"><a xlink:href="threadsafetyanalysis_8h.html" target="_top" xlink:title=" ">
<polygon fill="white" stroke="black" points="191.5,-67.5 191.5,-97.5 322.5,-97.5 322.5,-67.5 191.5,-67.5"/>
<text text-anchor="start" x="199.5" y="-85.5" font-family="Helvetica,sans-Serif" font-size="10.00">log4cplus/internal</text>
<text text-anchor="middle" x="257" y="-74.5" font-family="Helvetica,sans-Serif" font-size="10.00">/threadsafetyanalysis.h</text>
</a>
</g>
</g>
<!-- Node13&#45;&gt;Node16 -->
<g id="edge19" class="edge">
<title>Node13&#45;&gt;Node16</title>
<path fill="none" stroke="midnightblue" d="M182.46,-134.48C194.36,-126.34 212.71,-113.79 228.23,-103.18"/>
<polygon fill="midnightblue" stroke="midnightblue" points="230.22,-106.06 236.5,-97.52 226.27,-100.28 230.22,-106.06"/>
</g>
<!-- Node20&#45;&gt;Node2 -->
<g id="edge24" class="edge">
<title>Node20&#45;&gt;Node2</title>
<path fill="none" stroke="midnightblue" d="M1029.08,-419.51C1101.81,-414.81 1203.92,-403.8 1290,-378 1404.83,-343.59 1467.95,-325.23 1501,-210 1552.84,-29.25 1278.33,-129.82 1093,-98 1085.28,-96.67 1077.15,-95.25 1069.14,-93.83"/>
<polygon fill="midnightblue" stroke="midnightblue" points="1069.55,-90.35 1059.09,-92.05 1068.33,-97.24 1069.55,-90.35"/>
</g>
<!-- Node20&#45;&gt;Node5 -->
<g id="edge64" class="edge">
<title>Node20&#45;&gt;Node5</title>
<path fill="none" stroke="midnightblue" d="M929.3,-414.3C911.49,-381.36 848,-263.9 823.62,-218.81"/>
<polygon fill="midnightblue" stroke="midnightblue" points="826.64,-217.02 818.8,-209.88 820.48,-220.35 826.64,-217.02"/>
</g>
<!-- Node20&#45;&gt;Node12 -->
<g id="edge65" class="edge">
<title>Node20&#45;&gt;Node12</title>
<path fill="none" stroke="midnightblue" d="M838.93,-418.43C689.76,-409.42 409.99,-384.49 335,-322 304.72,-296.77 299.73,-247.08 299.43,-219.89"/>
<polygon fill="midnightblue" stroke="midnightblue" points="302.93,-219.78 299.52,-209.74 295.93,-219.71 302.93,-219.78"/>
</g>
<!-- Node21 -->
<g id="node21" class="node">
<title>Node21</title>
<g id="a_node21"><a xlink:href="appender_8h.html" target="_top" xlink:title=" ">
<polygon fill="white" stroke="black" points="548,-358.5 548,-377.5 668,-377.5 668,-358.5 548,-358.5"/>
<text text-anchor="middle" x="608" y="-365.5" font-family="Helvetica,sans-Serif" font-size="10.00">log4cplus/appender.h</text>
</a>
</g>
</g>
<!-- Node20&#45;&gt;Node21 -->
<g id="edge25" class="edge">
<title>Node20&#45;&gt;Node21</title>
<path fill="none" stroke="midnightblue" d="M882.34,-414.44C824.52,-404.87 730.89,-389.36 669.38,-379.17"/>
<polygon fill="midnightblue" stroke="midnightblue" points="669.85,-375.7 659.41,-377.52 668.71,-382.6 669.85,-375.7"/>
</g>
<!-- Node20&#45;&gt;Node24 -->
<g id="edge66" class="edge">
<title>Node20&#45;&gt;Node24</title>
<path fill="none" stroke="midnightblue" d="M1029.19,-419.73C1143.49,-410.64 1333.79,-378.3 1446,-266 1458.23,-253.76 1463.66,-234.5 1466.07,-220.12"/>
<polygon fill="midnightblue" stroke="midnightblue" points="1469.59,-220.23 1467.43,-209.85 1462.65,-219.31 1469.59,-220.23"/>
</g>
<!-- Node21&#45;&gt;Node2 -->
<g id="edge26" class="edge">
<title>Node21&#45;&gt;Node2</title>
<path fill="none" stroke="midnightblue" d="M601.63,-358.23C595.74,-349.53 587.39,-335.57 584,-322 567.8,-257.21 519.6,-224.21 615,-134 661,-90.5 842.7,-83.34 943.58,-82.83"/>
<polygon fill="midnightblue" stroke="midnightblue" points="943.69,-86.33 953.68,-82.8 943.67,-79.33 943.69,-86.33"/>
</g>
<!-- Node21&#45;&gt;Node5 -->
<g id="edge49" class="edge">
<title>Node21&#45;&gt;Node5</title>
<path fill="none" stroke="midnightblue" d="M639.44,-358.46C662.2,-351.24 692.91,-339.28 716,-322 755.34,-292.56 788.23,-243.92 803.98,-218.19"/>
<polygon fill="midnightblue" stroke="midnightblue" points="807.03,-219.92 809.16,-209.54 801.02,-216.32 807.03,-219.92"/>
</g>
<!-- Node21&#45;&gt;Node12 -->
<g id="edge50" class="edge">
<title>Node21&#45;&gt;Node12</title>
<path fill="none" stroke="midnightblue" d="M547.88,-362.63C483.08,-356.84 385.3,-344.6 356,-322 322.96,-296.52 308.69,-246.93 303.13,-219.82"/>
<polygon fill="midnightblue" stroke="midnightblue" points="306.52,-218.9 301.25,-209.71 299.64,-220.18 306.52,-218.9"/>
</g>
<!-- Node21&#45;&gt;Node14 -->
<g id="edge61" class="edge">
<title>Node21&#45;&gt;Node14</title>
<path fill="none" stroke="midnightblue" d="M547.75,-363.99C480.59,-359.44 369.29,-348.35 277,-322 218.46,-305.28 201.48,-301.46 152,-266 90.44,-221.89 48.2,-138.58 31.72,-101.77"/>
<polygon fill="midnightblue" stroke="midnightblue" points="34.8,-100.08 27.59,-92.31 28.38,-102.88 34.8,-100.08"/>
</g>
<!-- Node21&#45;&gt;Node15 -->
<g id="edge63" class="edge">
<title>Node21&#45;&gt;Node15</title>
<path fill="none" stroke="midnightblue" d="M547.78,-364.31C491.15,-360.13 404.87,-349.41 335,-322 209,-272.57 145.08,-273.22 81,-154 70.83,-135.08 86.89,-113.49 101.38,-99.24"/>
<polygon fill="midnightblue" stroke="midnightblue" points="104.1,-101.49 109.09,-92.15 99.36,-96.34 104.1,-101.49"/>
</g>
<!-- Node21&#45;&gt;Node19 -->
<g id="edge62" class="edge">
<title>Node21&#45;&gt;Node19</title>
<path fill="none" stroke="midnightblue" d="M551.47,-358.45C499.01,-347.19 423.79,-321.81 388,-266 361.6,-224.83 421.59,-180.64 457.88,-158.82"/>
<polygon fill="midnightblue" stroke="midnightblue" points="460.08,-161.59 466.96,-153.53 456.56,-155.54 460.08,-161.59"/>
</g>
<!-- Node22 -->
<g id="node22" class="node">
<title>Node22</title>
<g id="a_node22"><a xlink:href="layout_8h.html" target="_top" xlink:title=" ">
<polygon fill="white" stroke="black" points="1133,-302.5 1133,-321.5 1239,-321.5 1239,-302.5 1133,-302.5"/>
<text text-anchor="middle" x="1186" y="-309.5" font-family="Helvetica,sans-Serif" font-size="10.00">log4cplus/layout.h</text>
</a>
</g>
</g>
<!-- Node21&#45;&gt;Node22 -->
<g id="edge27" class="edge">
<title>Node21&#45;&gt;Node22</title>
<path fill="none" stroke="midnightblue" d="M668.22,-361.37C778.13,-351.11 1010.25,-329.42 1122.53,-318.93"/>
<polygon fill="midnightblue" stroke="midnightblue" points="1123.05,-322.4 1132.68,-317.98 1122.4,-315.43 1123.05,-322.4"/>
</g>
<!-- Node23 -->
<g id="node23" class="node">
<title>Node23</title>
<g id="a_node23"><a xlink:href="loglevel_8h.html" target="_top" xlink:title="This header defines the LogLevel type.">
<polygon fill="white" stroke="black" points="915,-246.5 915,-265.5 1029,-265.5 1029,-246.5 915,-246.5"/>
<text text-anchor="middle" x="972" y="-253.5" font-family="Helvetica,sans-Serif" font-size="10.00">log4cplus/loglevel.h</text>
</a>
</g>
</g>
<!-- Node21&#45;&gt;Node23 -->
<g id="edge48" class="edge">
<title>Node21&#45;&gt;Node23</title>
<path fill="none" stroke="midnightblue" d="M636.26,-358.46C701.11,-338.86 860.66,-290.65 934,-268.48"/>
<polygon fill="midnightblue" stroke="midnightblue" points="935.2,-271.78 943.76,-265.53 933.17,-265.08 935.2,-271.78"/>
</g>
<!-- Node21&#45;&gt;Node25 -->
<g id="edge60" class="edge">
<title>Node21&#45;&gt;Node25</title>
<path fill="none" stroke="midnightblue" d="M668.08,-366.98C806.18,-366.25 1142.5,-360.45 1248,-322 1306.76,-300.58 1359.45,-245.53 1383.39,-217.67"/>
<polygon fill="midnightblue" stroke="midnightblue" points="1386.36,-219.57 1390.12,-209.66 1381.01,-215.07 1386.36,-219.57"/>
</g>
<!-- Node32 -->
<g id="node32" class="node">
<title>Node32</title>
<g id="a_node32"><a xlink:href="filter_8h.html" target="_top" xlink:title="This header defines Filter and all of it&#39;s subclasses.">
<polygon fill="white" stroke="black" points="593,-302.5 593,-321.5 707,-321.5 707,-302.5 593,-302.5"/>
<text text-anchor="middle" x="650" y="-309.5" font-family="Helvetica,sans-Serif" font-size="10.00">log4cplus/spi/filter.h</text>
</a>
</g>
</g>
<!-- Node21&#45;&gt;Node32 -->
<g id="edge51" class="edge">
<title>Node21&#45;&gt;Node32</title>
<path fill="none" stroke="midnightblue" d="M614.94,-358.08C620.93,-350.38 629.75,-339.03 637.05,-329.65"/>
<polygon fill="midnightblue" stroke="midnightblue" points="639.82,-331.79 643.19,-321.75 634.29,-327.5 639.82,-331.79"/>
</g>
<!-- Node33 -->
<g id="node33" class="node">
<title>Node33</title>
<g id="a_node33"><a xlink:href="lockfile_8h.html" target="_top" xlink:title=" ">
<polygon fill="white" stroke="black" points="397.5,-246.5 397.5,-265.5 546.5,-265.5 546.5,-246.5 397.5,-246.5"/>
<text text-anchor="middle" x="472" y="-253.5" font-family="Helvetica,sans-Serif" font-size="10.00">log4cplus/helpers/lockfile.h</text>
</a>
</g>
</g>
<!-- Node21&#45;&gt;Node33 -->
<g id="edge56" class="edge">
<title>Node21&#45;&gt;Node33</title>
<path fill="none" stroke="midnightblue" d="M597.02,-358.44C585.5,-349.43 566.9,-334.82 551,-322 530.11,-305.17 506.38,-285.57 490.42,-272.33"/>
<polygon fill="midnightblue" stroke="midnightblue" points="492.35,-269.39 482.42,-265.69 487.88,-274.77 492.35,-269.39"/>
</g>
<!-- Node22&#45;&gt;Node2 -->
<g id="edge28" class="edge">
<title>Node22&#45;&gt;Node2</title>
<path fill="none" stroke="midnightblue" d="M1200.67,-302.37C1232.87,-283.1 1307.89,-236.17 1321,-210 1335.33,-181.38 1292.33,-134.97 1291,-134 1290.44,-133.59 1151.19,-108.51 1069.65,-93.86"/>
<polygon fill="midnightblue" stroke="midnightblue" points="1069.98,-90.36 1059.52,-92.04 1068.75,-97.25 1069.98,-90.36"/>
</g>
<!-- Node22&#45;&gt;Node5 -->
<g id="edge40" class="edge">
<title>Node22&#45;&gt;Node5</title>
<path fill="none" stroke="midnightblue" d="M1132.74,-309.57C1074.94,-306.41 980.88,-296.54 906,-266 876.9,-254.13 848.08,-231.55 830.66,-216.38"/>
<polygon fill="midnightblue" stroke="midnightblue" points="832.86,-213.66 823.07,-209.61 828.2,-218.88 832.86,-213.66"/>
</g>
<!-- Node22&#45;&gt;Node23 -->
<g id="edge29" class="edge">
<title>Node22&#45;&gt;Node23</title>
<path fill="none" stroke="midnightblue" d="M1152.09,-302.44C1115.15,-293.12 1055.95,-278.18 1015.58,-268"/>
<polygon fill="midnightblue" stroke="midnightblue" points="1016.3,-264.57 1005.75,-265.52 1014.59,-271.36 1016.3,-264.57"/>
</g>
<!-- Node22&#45;&gt;Node24 -->
<g id="edge46" class="edge">
<title>Node22&#45;&gt;Node24</title>
<path fill="none" stroke="midnightblue" d="M1215.63,-302.47C1244,-294.06 1287.87,-280.4 1325,-266 1366.4,-249.95 1412.97,-228.03 1441.4,-214.19"/>
<polygon fill="midnightblue" stroke="midnightblue" points="1443.22,-217.2 1450.66,-209.66 1440.14,-210.91 1443.22,-217.2"/>
</g>
<!-- Node22&#45;&gt;Node25 -->
<g id="edge47" class="edge">
<title>Node22&#45;&gt;Node25</title>
<path fill="none" stroke="midnightblue" d="M1209.69,-302.45C1231.92,-294.12 1265.88,-280.6 1294,-266 1323.62,-250.62 1355.87,-229.5 1376.24,-215.56"/>
<polygon fill="midnightblue" stroke="midnightblue" points="1378.48,-218.27 1384.72,-209.71 1374.5,-212.51 1378.48,-218.27"/>
</g>
<!-- Node27 -->
<g id="node27" class="node">
<title>Node27</title>
<g id="a_node27"><a xlink:href="streams_8h.html" target="_top" xlink:title=" ">
<polygon fill="white" stroke="black" points="1196.5,-190.5 1196.5,-209.5 1311.5,-209.5 1311.5,-190.5 1196.5,-190.5"/>
<text text-anchor="middle" x="1254" y="-197.5" font-family="Helvetica,sans-Serif" font-size="10.00">log4cplus/streams.h</text>
</a>
</g>
</g>
<!-- Node22&#45;&gt;Node27 -->
<g id="edge36" class="edge">
<title>Node22&#45;&gt;Node27</title>
<path fill="none" stroke="midnightblue" d="M1194.63,-302.26C1202.88,-293.58 1215.32,-279.63 1224,-266 1233.48,-251.11 1241.67,-232.73 1247.09,-219.32"/>
<polygon fill="midnightblue" stroke="midnightblue" points="1250.44,-220.38 1250.81,-209.79 1243.92,-217.84 1250.44,-220.38"/>
</g>
<!-- Node29 -->
<g id="node29" class="node">
<title>Node29</title>
<g id="a_node29"><a xlink:href="timehelper_8h.html" target="_top" xlink:title=" ">
<polygon fill="white" stroke="black" points="1047.5,-246.5 1047.5,-265.5 1214.5,-265.5 1214.5,-246.5 1047.5,-246.5"/>
<text text-anchor="middle" x="1131" y="-253.5" font-family="Helvetica,sans-Serif" font-size="10.00">log4cplus/helpers/timehelper.h</text>
</a>
</g>
</g>
<!-- Node22&#45;&gt;Node29 -->
<g id="edge41" class="edge">
<title>Node22&#45;&gt;Node29</title>
<path fill="none" stroke="midnightblue" d="M1176.92,-302.08C1168.83,-294.14 1156.8,-282.34 1147.09,-272.8"/>
<polygon fill="midnightblue" stroke="midnightblue" points="1149.5,-270.26 1139.91,-265.75 1144.6,-275.25 1149.5,-270.26"/>
</g>
<!-- Node23&#45;&gt;Node2 -->
<g id="edge30" class="edge">
<title>Node23&#45;&gt;Node2</title>
<path fill="none" stroke="midnightblue" d="M954.46,-246.38C933.15,-234.67 901.59,-212.59 915,-190 932.06,-161.27 958.4,-178.61 981,-154 994.54,-139.26 1002.84,-117.66 1007.4,-102.25"/>
<polygon fill="midnightblue" stroke="midnightblue" points="1010.86,-102.89 1010.09,-92.32 1004.1,-101.06 1010.86,-102.89"/>
</g>
<!-- Node23&#45;&gt;Node5 -->
<g id="edge34" class="edge">
<title>Node23&#45;&gt;Node5</title>
<path fill="none" stroke="midnightblue" d="M946.96,-246.44C920.38,-237.36 878.19,-222.94 848.48,-212.78"/>
<polygon fill="midnightblue" stroke="midnightblue" points="849.51,-209.44 838.92,-209.52 847.25,-216.06 849.51,-209.44"/>
</g>
<!-- Node23&#45;&gt;Node12 -->
<g id="edge35" class="edge">
<title>Node23&#45;&gt;Node12</title>
<path fill="none" stroke="midnightblue" d="M915,-250.42C796.5,-240.9 523.11,-218.93 384.24,-207.77"/>
<polygon fill="midnightblue" stroke="midnightblue" points="384.32,-204.26 374.07,-206.95 383.76,-211.24 384.32,-204.26"/>
</g>
<!-- Node23&#45;&gt;Node24 -->
<g id="edge31" class="edge">
<title>Node23&#45;&gt;Node24</title>
<path fill="none" stroke="midnightblue" d="M1029.36,-247.13C1032.62,-246.73 1035.85,-246.35 1039,-246 1211.36,-226.6 1259.31,-240.82 1434.26,-209.8"/>
<polygon fill="midnightblue" stroke="midnightblue" points="1435.1,-213.21 1444.32,-207.99 1433.86,-206.32 1435.1,-213.21"/>
</g>
<!-- Node23&#45;&gt;Node25 -->
<g id="edge32" class="edge">
<title>Node23&#45;&gt;Node25</title>
<path fill="none" stroke="midnightblue" d="M1029.02,-247.31C1032.39,-246.86 1035.74,-246.42 1039,-246 1154.87,-230.94 1291.94,-213.93 1357.81,-205.82"/>
<polygon fill="midnightblue" stroke="midnightblue" points="1358.26,-209.29 1367.75,-204.59 1357.4,-202.34 1358.26,-209.29"/>
</g>
<!-- Node26 -->
<g id="node26" class="node">
<title>Node26</title>
<g id="a_node26"><a xlink:title=" ">
<polygon fill="white" stroke="#bfbfbf" points="924,-190.5 924,-209.5 1010,-209.5 1010,-190.5 924,-190.5"/>
<text text-anchor="middle" x="967" y="-197.5" font-family="Helvetica,sans-Serif" font-size="10.00">shared_mutex</text>
</a>
</g>
</g>
<!-- Node23&#45;&gt;Node26 -->
<g id="edge33" class="edge">
<title>Node23&#45;&gt;Node26</title>
<path fill="none" stroke="midnightblue" d="M971.17,-246.08C970.52,-239.01 969.58,-228.86 968.76,-219.99"/>
<polygon fill="midnightblue" stroke="midnightblue" points="972.22,-219.39 967.81,-209.75 965.25,-220.03 972.22,-219.39"/>
</g>
<!-- Node27&#45;&gt;Node2 -->
<g id="edge37" class="edge">
<title>Node27&#45;&gt;Node2</title>
<path fill="none" stroke="midnightblue" d="M1247.56,-190.47C1236.63,-176.58 1213.08,-149.12 1187,-134 1152.89,-114.22 1110.49,-101.73 1075.97,-94.11"/>
<polygon fill="midnightblue" stroke="midnightblue" points="1076.5,-90.65 1065.99,-92 1075.05,-97.5 1076.5,-90.65"/>
</g>
<!-- Node27&#45;&gt;Node10 -->
<g id="edge38" class="edge">
<title>Node27&#45;&gt;Node10</title>
<path fill="none" stroke="midnightblue" d="M1234.03,-190.44C1213.39,-181.6 1180.94,-167.69 1157.37,-157.59"/>
<polygon fill="midnightblue" stroke="midnightblue" points="1158.44,-154.24 1147.87,-153.52 1155.68,-160.67 1158.44,-154.24"/>
</g>
<!-- Node28 -->
<g id="node28" class="node">
<title>Node28</title>
<g id="a_node28"><a xlink:title=" ">
<polygon fill="white" stroke="#bfbfbf" points="1234,-134.5 1234,-153.5 1282,-153.5 1282,-134.5 1234,-134.5"/>
<text text-anchor="middle" x="1258" y="-141.5" font-family="Helvetica,sans-Serif" font-size="10.00">iosfwd</text>
</a>
</g>
</g>
<!-- Node27&#45;&gt;Node28 -->
<g id="edge39" class="edge">
<title>Node27&#45;&gt;Node28</title>
<path fill="none" stroke="midnightblue" d="M1254.66,-190.08C1255.18,-183.01 1255.94,-172.86 1256.59,-163.99"/>
<polygon fill="midnightblue" stroke="midnightblue" points="1260.1,-163.98 1257.35,-153.75 1253.12,-163.47 1260.1,-163.98"/>
</g>
<!-- Node29&#45;&gt;Node2 -->
<g id="edge42" class="edge">
<title>Node29&#45;&gt;Node2</title>
<path fill="none" stroke="midnightblue" d="M1109.09,-246.49C1092.67,-239.1 1070.76,-226.91 1057,-210 1030.73,-177.71 1019.21,-128.92 1014.65,-102.35"/>
<polygon fill="midnightblue" stroke="midnightblue" points="1018.06,-101.49 1013.06,-92.15 1011.14,-102.57 1018.06,-101.49"/>
</g>
<!-- Node29&#45;&gt;Node5 -->
<g id="edge43" class="edge">
<title>Node29&#45;&gt;Node5</title>
<path fill="none" stroke="midnightblue" d="M1080.77,-246.44C1024.66,-236.89 933.87,-221.42 874.05,-211.23"/>
<polygon fill="midnightblue" stroke="midnightblue" points="874.44,-207.75 863.99,-209.52 873.26,-214.65 874.44,-207.75"/>
</g>
<!-- Node30 -->
<g id="node30" class="node">
<title>Node30</title>
<g id="a_node30"><a xlink:title=" ">
<polygon fill="white" stroke="#bfbfbf" points="1066,-190.5 1066,-209.5 1110,-209.5 1110,-190.5 1066,-190.5"/>
<text text-anchor="middle" x="1088" y="-197.5" font-family="Helvetica,sans-Serif" font-size="10.00">ctime</text>
</a>
</g>
</g>
<!-- Node29&#45;&gt;Node30 -->
<g id="edge44" class="edge">
<title>Node29&#45;&gt;Node30</title>
<path fill="none" stroke="midnightblue" d="M1123.9,-246.08C1117.76,-238.38 1108.73,-227.03 1101.26,-217.65"/>
<polygon fill="midnightblue" stroke="midnightblue" points="1103.94,-215.39 1094.97,-209.75 1098.46,-219.75 1103.94,-215.39"/>
</g>
<!-- Node31 -->
<g id="node31" class="node">
<title>Node31</title>
<g id="a_node31"><a xlink:title=" ">
<polygon fill="white" stroke="#bfbfbf" points="1128,-190.5 1128,-209.5 1178,-209.5 1178,-190.5 1128,-190.5"/>
<text text-anchor="middle" x="1153" y="-197.5" font-family="Helvetica,sans-Serif" font-size="10.00">chrono</text>
</a>
</g>
</g>
<!-- Node29&#45;&gt;Node31 -->
<g id="edge45" class="edge">
<title>Node29&#45;&gt;Node31</title>
<path fill="none" stroke="midnightblue" d="M1134.63,-246.08C1137.61,-238.77 1141.93,-228.18 1145.62,-219.1"/>
<polygon fill="midnightblue" stroke="midnightblue" points="1148.9,-220.33 1149.43,-209.75 1142.42,-217.69 1148.9,-220.33"/>
</g>
<!-- Node32&#45;&gt;Node2 -->
<g id="edge52" class="edge">
<title>Node32&#45;&gt;Node2</title>
<path fill="none" stroke="midnightblue" d="M645.11,-302.29C629.98,-274.01 587.41,-183.74 631,-134 651.24,-110.9 839.45,-94.91 943.54,-87.74"/>
<polygon fill="midnightblue" stroke="midnightblue" points="943.91,-91.23 953.65,-87.06 943.44,-84.24 943.91,-91.23"/>
</g>
<!-- Node32&#45;&gt;Node7 -->
<g id="edge53" class="edge">
<title>Node32&#45;&gt;Node7</title>
<path fill="none" stroke="midnightblue" d="M653.4,-302.19C656.7,-293.22 661.55,-278.86 664,-266 670.8,-230.25 672.52,-187.66 672.92,-163.73"/>
<polygon fill="midnightblue" stroke="midnightblue" points="676.42,-163.63 673.03,-153.6 669.42,-163.56 676.42,-163.63"/>
</g>
<!-- Node32&#45;&gt;Node12 -->
<g id="edge54" class="edge">
<title>Node32&#45;&gt;Node12</title>
<path fill="none" stroke="midnightblue" d="M640.56,-302.46C624.34,-288.29 589.6,-260.12 555,-246 500.47,-223.75 434.96,-212.49 384,-206.8"/>
<polygon fill="midnightblue" stroke="midnightblue" points="384.32,-203.31 374.01,-205.73 383.58,-210.27 384.32,-203.31"/>
</g>
<!-- Node32&#45;&gt;Node23 -->
<g id="edge55" class="edge">
<title>Node32&#45;&gt;Node23</title>
<path fill="none" stroke="midnightblue" d="M701.02,-302.44C758.02,-292.89 850.24,-277.42 911,-267.23"/>
<polygon fill="midnightblue" stroke="midnightblue" points="911.93,-270.62 921.22,-265.52 910.78,-263.72 911.93,-270.62"/>
</g>
<!-- Node33&#45;&gt;Node2 -->
<g id="edge57" class="edge">
<title>Node33&#45;&gt;Node2</title>
<path fill="none" stroke="midnightblue" d="M475.33,-246.37C484.67,-223.46 513.52,-161.03 560,-134 623.48,-97.09 833.33,-87.16 943.34,-84.48"/>
<polygon fill="midnightblue" stroke="midnightblue" points="943.74,-87.98 953.66,-84.25 943.58,-80.98 943.74,-87.98"/>
</g>
<!-- Node33&#45;&gt;Node5 -->
<g id="edge58" class="edge">
<title>Node33&#45;&gt;Node5</title>
<path fill="none" stroke="midnightblue" d="M526.19,-246.44C587.07,-236.83 685.78,-221.25 750.29,-211.06"/>
<polygon fill="midnightblue" stroke="midnightblue" points="751.01,-214.49 760.34,-209.47 749.92,-207.57 751.01,-214.49"/>
</g>
<!-- Node33&#45;&gt;Node13 -->
<g id="edge59" class="edge">
<title>Node33&#45;&gt;Node13</title>
<path fill="none" stroke="midnightblue" d="M397.41,-248.08C333.21,-241.01 246.43,-228.44 217,-210 199.17,-198.83 186.01,-178.19 178.22,-163.16"/>
<polygon fill="midnightblue" stroke="midnightblue" points="181.21,-161.31 173.7,-153.84 174.91,-164.36 181.21,-161.31"/>
</g>
</g>
</svg>
