<?xml version="1.0" encoding="UTF-8" standalone="no"?>
<!DOCTYPE svg PUBLIC "-//W3C//DTD SVG 1.1//EN"
 "http://www.w3.org/Graphics/SVG/1.1/DTD/svg11.dtd">
<!-- Generated by graphviz version 2.43.0 (0)
 -->
<!-- Title: appenderattachable.h Pages: 1 -->
<svg width="619pt" height="252pt"
 viewBox="0.00 0.00 618.50 252.00" xmlns="http://www.w3.org/2000/svg" xmlns:xlink="http://www.w3.org/1999/xlink">
<g id="graph0" class="graph" transform="scale(1 1) rotate(0) translate(4 248)">
<title>appenderattachable.h</title>
<polygon fill="white" stroke="transparent" points="-4,4 -4,-248 614.5,-248 614.5,4 -4,4"/>
<!-- Node1 -->
<g id="node1" class="node">
<title>Node1</title>
<g id="a_node1"><a xlink:title=" ">
<polygon fill="#bfbfbf" stroke="black" points="176,-224.5 176,-243.5 299,-243.5 299,-224.5 176,-224.5"/>
<text text-anchor="middle" x="237.5" y="-231.5" font-family="Helvetica,sans-Serif" font-size="10.00">appenderattachable.h</text>
</a>
</g>
</g>
<!-- Node2 -->
<g id="node2" class="node">
<title>Node2</title>
<g id="a_node2"><a xlink:href="appenderattachableimpl_8h.html" target="_top" xlink:title=" ">
<polygon fill="white" stroke="black" points="81,-168.5 81,-187.5 226,-187.5 226,-168.5 81,-168.5"/>
<text text-anchor="middle" x="153.5" y="-175.5" font-family="Helvetica,sans-Serif" font-size="10.00">appenderattachableimpl.h</text>
</a>
</g>
</g>
<!-- Node1&#45;&gt;Node2 -->
<g id="edge1" class="edge">
<title>Node1&#45;&gt;Node2</title>
<path fill="none" stroke="midnightblue" d="M215.57,-218.9C200.16,-209 180.05,-196.07 166.96,-187.65"/>
<polygon fill="midnightblue" stroke="midnightblue" points="213.7,-221.86 224,-224.32 217.48,-215.97 213.7,-221.86"/>
</g>
<!-- Node7 -->
<g id="node7" class="node">
<title>Node7</title>
<g id="a_node7"><a xlink:href="logger_8h.html" target="_top" xlink:title="This header defines the Logger class and the logging macros.">
<polygon fill="white" stroke="black" points="293.5,-168.5 293.5,-187.5 349.5,-187.5 349.5,-168.5 293.5,-168.5"/>
<text text-anchor="middle" x="321.5" y="-175.5" font-family="Helvetica,sans-Serif" font-size="10.00">logger.h</text>
</a>
</g>
</g>
<!-- Node1&#45;&gt;Node7 -->
<g id="edge6" class="edge">
<title>Node1&#45;&gt;Node7</title>
<path fill="none" stroke="midnightblue" d="M259.43,-218.9C274.84,-209 294.95,-196.07 308.04,-187.65"/>
<polygon fill="midnightblue" stroke="midnightblue" points="257.52,-215.97 251,-224.32 261.3,-221.86 257.52,-215.97"/>
</g>
<!-- Node3 -->
<g id="node3" class="node">
<title>Node3</title>
<g id="a_node3"><a xlink:href="asyncappender_8h.html" target="_top" xlink:title=" ">
<polygon fill="white" stroke="black" points="0,-56.5 0,-75.5 99,-75.5 99,-56.5 0,-56.5"/>
<text text-anchor="middle" x="49.5" y="-63.5" font-family="Helvetica,sans-Serif" font-size="10.00">asyncappender.h</text>
</a>
</g>
</g>
<!-- Node2&#45;&gt;Node3 -->
<g id="edge2" class="edge">
<title>Node2&#45;&gt;Node3</title>
<path fill="none" stroke="midnightblue" d="M136.14,-161.55C126.82,-153.06 115.28,-142.2 105.5,-132 86.94,-112.65 66.8,-88.37 56.47,-75.67"/>
<polygon fill="midnightblue" stroke="midnightblue" points="133.88,-164.23 143.65,-168.33 138.57,-159.03 133.88,-164.23"/>
</g>
<!-- Node5 -->
<g id="node5" class="node">
<title>Node5</title>
<g id="a_node5"><a xlink:href="loggerimpl_8h.html" target="_top" xlink:title=" ">
<polygon fill="white" stroke="black" points="114.5,-112.5 114.5,-131.5 192.5,-131.5 192.5,-112.5 114.5,-112.5"/>
<text text-anchor="middle" x="153.5" y="-119.5" font-family="Helvetica,sans-Serif" font-size="10.00">loggerimpl.h</text>
</a>
</g>
</g>
<!-- Node2&#45;&gt;Node5 -->
<g id="edge4" class="edge">
<title>Node2&#45;&gt;Node5</title>
<path fill="none" stroke="midnightblue" d="M153.5,-157.8C153.5,-148.91 153.5,-138.78 153.5,-131.75"/>
<polygon fill="midnightblue" stroke="midnightblue" points="150,-158.08 153.5,-168.08 157,-158.08 150,-158.08"/>
</g>
<!-- Node4 -->
<g id="node4" class="node">
<title>Node4</title>
<g id="a_node4"><a xlink:href="log4cplus_8h.html" target="_top" xlink:title=" ">
<polygon fill="white" stroke="black" points="289.5,-0.5 289.5,-19.5 361.5,-19.5 361.5,-0.5 289.5,-0.5"/>
<text text-anchor="middle" x="325.5" y="-7.5" font-family="Helvetica,sans-Serif" font-size="10.00">log4cplus.h</text>
</a>
</g>
</g>
<!-- Node3&#45;&gt;Node4 -->
<g id="edge3" class="edge">
<title>Node3&#45;&gt;Node4</title>
<path fill="none" stroke="midnightblue" d="M103.14,-54.51C158.08,-43.76 241.97,-27.34 289.45,-18.05"/>
<polygon fill="midnightblue" stroke="midnightblue" points="102.37,-51.09 93.23,-56.44 103.72,-57.96 102.37,-51.09"/>
</g>
<!-- Node6 -->
<g id="node6" class="node">
<title>Node6</title>
<g id="a_node6"><a xlink:href="rootlogger_8h.html" target="_top" xlink:title=" ">
<polygon fill="white" stroke="black" points="117,-56.5 117,-75.5 192,-75.5 192,-56.5 117,-56.5"/>
<text text-anchor="middle" x="154.5" y="-63.5" font-family="Helvetica,sans-Serif" font-size="10.00">rootlogger.h</text>
</a>
</g>
</g>
<!-- Node5&#45;&gt;Node6 -->
<g id="edge5" class="edge">
<title>Node5&#45;&gt;Node6</title>
<path fill="none" stroke="midnightblue" d="M153.86,-101.8C154.02,-92.91 154.21,-82.78 154.34,-75.75"/>
<polygon fill="midnightblue" stroke="midnightblue" points="150.35,-102.02 153.67,-112.08 157.35,-102.15 150.35,-102.02"/>
</g>
<!-- Node7&#45;&gt;Node4 -->
<g id="edge12" class="edge">
<title>Node7&#45;&gt;Node4</title>
<path fill="none" stroke="midnightblue" d="M299.58,-162.69C268.18,-140.34 216.66,-95.59 240.5,-56 251.61,-37.55 273.11,-26.26 291.7,-19.61"/>
<polygon fill="midnightblue" stroke="midnightblue" points="297.61,-165.58 307.82,-168.38 301.58,-159.82 297.61,-165.58"/>
</g>
<!-- Node8 -->
<g id="node8" class="node">
<title>Node8</title>
<g id="a_node8"><a xlink:href="configurator_8h.html" target="_top" xlink:title=" ">
<polygon fill="white" stroke="black" points="249,-56.5 249,-75.5 332,-75.5 332,-56.5 249,-56.5"/>
<text text-anchor="middle" x="290.5" y="-63.5" font-family="Helvetica,sans-Serif" font-size="10.00">configurator.h</text>
</a>
</g>
</g>
<!-- Node7&#45;&gt;Node8 -->
<g id="edge7" class="edge">
<title>Node7&#45;&gt;Node8</title>
<path fill="none" stroke="midnightblue" d="M300.79,-161.95C291.83,-154.14 282.3,-143.77 277.5,-132 269.68,-112.82 279.28,-88.48 285.68,-75.71"/>
<polygon fill="midnightblue" stroke="midnightblue" points="298.75,-164.8 308.72,-168.37 303.15,-159.36 298.75,-164.8"/>
</g>
<!-- Node9 -->
<g id="node9" class="node">
<title>Node9</title>
<g id="a_node9"><a xlink:href="hierarchy_8h.html" target="_top" xlink:title=" ">
<polygon fill="white" stroke="black" points="286.5,-112.5 286.5,-131.5 356.5,-131.5 356.5,-112.5 286.5,-112.5"/>
<text text-anchor="middle" x="321.5" y="-119.5" font-family="Helvetica,sans-Serif" font-size="10.00">hierarchy.h</text>
</a>
</g>
</g>
<!-- Node7&#45;&gt;Node9 -->
<g id="edge9" class="edge">
<title>Node7&#45;&gt;Node9</title>
<path fill="none" stroke="midnightblue" d="M321.5,-157.8C321.5,-148.91 321.5,-138.78 321.5,-131.75"/>
<polygon fill="midnightblue" stroke="midnightblue" points="318,-158.08 321.5,-168.08 325,-158.08 318,-158.08"/>
</g>
<!-- Node10 -->
<g id="node10" class="node">
<title>Node10</title>
<g id="a_node10"><a xlink:href="hierarchylocker_8h.html" target="_top" xlink:title=" ">
<polygon fill="white" stroke="black" points="374.5,-112.5 374.5,-131.5 474.5,-131.5 474.5,-112.5 374.5,-112.5"/>
<text text-anchor="middle" x="424.5" y="-119.5" font-family="Helvetica,sans-Serif" font-size="10.00">hierarchylocker.h</text>
</a>
</g>
</g>
<!-- Node7&#45;&gt;Node10 -->
<g id="edge11" class="edge">
<title>Node7&#45;&gt;Node10</title>
<path fill="none" stroke="midnightblue" d="M347.08,-163.59C366.12,-153.61 391.56,-140.27 407.99,-131.65"/>
<polygon fill="midnightblue" stroke="midnightblue" points="345.28,-160.58 338.05,-168.32 348.53,-166.78 345.28,-160.58"/>
</g>
<!-- Node11 -->
<g id="node11" class="node">
<title>Node11</title>
<g id="a_node11"><a xlink:href="loggingmacros_8h.html" target="_top" xlink:title="This header defines the logging macros.">
<polygon fill="white" stroke="black" points="444.5,-56.5 444.5,-75.5 542.5,-75.5 542.5,-56.5 444.5,-56.5"/>
<text text-anchor="middle" x="493.5" y="-63.5" font-family="Helvetica,sans-Serif" font-size="10.00">loggingmacros.h</text>
</a>
</g>
</g>
<!-- Node7&#45;&gt;Node11 -->
<g id="edge13" class="edge">
<title>Node7&#45;&gt;Node11</title>
<path fill="none" stroke="midnightblue" d="M359.7,-177.49C396.98,-175.76 452.49,-166.91 483.5,-132 497.45,-116.29 496.51,-89.59 494.88,-75.81"/>
<polygon fill="midnightblue" stroke="midnightblue" points="359.59,-173.99 349.7,-177.81 359.81,-180.99 359.59,-173.99"/>
</g>
<!-- Node12 -->
<g id="node12" class="node">
<title>Node12</title>
<g id="a_node12"><a xlink:href="tracelogger_8h.html" target="_top" xlink:title=" ">
<polygon fill="white" stroke="black" points="530.5,-112.5 530.5,-131.5 610.5,-131.5 610.5,-112.5 530.5,-112.5"/>
<text text-anchor="middle" x="570.5" y="-119.5" font-family="Helvetica,sans-Serif" font-size="10.00">tracelogger.h</text>
</a>
</g>
</g>
<!-- Node7&#45;&gt;Node12 -->
<g id="edge15" class="edge">
<title>Node7&#45;&gt;Node12</title>
<path fill="none" stroke="midnightblue" d="M359.54,-168.75C405.96,-158.68 484.05,-141.75 531.08,-131.55"/>
<polygon fill="midnightblue" stroke="midnightblue" points="358.61,-165.37 349.58,-170.91 360.09,-172.21 358.61,-165.37"/>
</g>
<!-- Node8&#45;&gt;Node4 -->
<g id="edge8" class="edge">
<title>Node8&#45;&gt;Node4</title>
<path fill="none" stroke="midnightblue" d="M301.8,-47.57C307.82,-38.27 314.97,-27.25 319.83,-19.75"/>
<polygon fill="midnightblue" stroke="midnightblue" points="298.78,-45.79 296.28,-56.08 304.66,-49.6 298.78,-45.79"/>
</g>
<!-- Node9&#45;&gt;Node4 -->
<g id="edge10" class="edge">
<title>Node9&#45;&gt;Node4</title>
<path fill="none" stroke="midnightblue" d="M331.43,-103.3C335.4,-95.24 339.5,-85.41 341.5,-76 345.79,-55.76 336.38,-32.24 330.25,-19.79"/>
<polygon fill="midnightblue" stroke="midnightblue" points="328.19,-101.93 326.63,-112.41 334.39,-105.19 328.19,-101.93"/>
</g>
<!-- Node11&#45;&gt;Node4 -->
<g id="edge14" class="edge">
<title>Node11&#45;&gt;Node4</title>
<path fill="none" stroke="midnightblue" d="M457.11,-53.3C425.46,-43.13 380.33,-28.62 352,-19.52"/>
<polygon fill="midnightblue" stroke="midnightblue" points="456.29,-56.72 466.88,-56.44 458.43,-50.05 456.29,-56.72"/>
</g>
<!-- Node12&#45;&gt;Node4 -->
<g id="edge16" class="edge">
<title>Node12&#45;&gt;Node4</title>
<path fill="none" stroke="midnightblue" d="M570.07,-102.39C568.69,-87.7 564.35,-67.77 551.5,-56 524.21,-31.01 418.34,-18.64 361.71,-13.7"/>
<polygon fill="midnightblue" stroke="midnightblue" points="566.57,-102.6 570.63,-112.39 573.56,-102.21 566.57,-102.6"/>
</g>
<!-- Node12&#45;&gt;Node11 -->
<g id="edge17" class="edge">
<title>Node12&#45;&gt;Node11</title>
<path fill="none" stroke="midnightblue" d="M549.6,-106.34C535.59,-96.52 517.62,-83.91 505.84,-75.65"/>
<polygon fill="midnightblue" stroke="midnightblue" points="547.93,-109.45 558.13,-112.32 551.95,-103.72 547.93,-109.45"/>
</g>
</g>
</svg>
