<?xml version="1.0" encoding="UTF-8" standalone="no"?>
<!DOCTYPE svg PUBLIC "-//W3C//DTD SVG 1.1//EN"
 "http://www.w3.org/Graphics/SVG/1.1/DTD/svg11.dtd">
<!-- Generated by graphviz version 2.43.0 (0)
 -->
<!-- Title: callbackappender.h Pages: 1 -->
<svg width="1586pt" height="442pt"
 viewBox="0.00 0.00 1585.50 442.00" xmlns="http://www.w3.org/2000/svg" xmlns:xlink="http://www.w3.org/1999/xlink">
<g id="graph0" class="graph" transform="scale(1 1) rotate(0) translate(4 438)">
<title>callbackappender.h</title>
<polygon fill="white" stroke="transparent" points="-4,4 -4,-438 1581.5,-438 1581.5,4 -4,4"/>
<!-- Node1 -->
<g id="node1" class="node">
<title>Node1</title>
<g id="a_node1"><a xlink:title=" ">
<polygon fill="#bfbfbf" stroke="black" points="83,-414.5 83,-433.5 193,-433.5 193,-414.5 83,-414.5"/>
<text text-anchor="middle" x="138" y="-421.5" font-family="Helvetica,sans-Serif" font-size="10.00">callbackappender.h</text>
</a>
</g>
</g>
<!-- Node2 -->
<g id="node2" class="node">
<title>Node2</title>
<g id="a_node2"><a xlink:href="config_8hxx.html" target="_top" xlink:title=" ">
<polygon fill="white" stroke="black" points="604,-73 604,-92 720,-92 720,-73 604,-73"/>
<text text-anchor="middle" x="662" y="-80" font-family="Helvetica,sans-Serif" font-size="10.00">log4cplus/config.hxx</text>
</a>
</g>
</g>
<!-- Node1&#45;&gt;Node2 -->
<g id="edge1" class="edge">
<title>Node1&#45;&gt;Node2</title>
<path fill="none" stroke="midnightblue" d="M138,-414.44C138,-395.94 138,-350.81 138,-313 138,-313 138,-313 138,-199 138,-159.08 164.05,-151.36 200,-134 279.37,-95.67 507.87,-111.35 595,-98 601.88,-96.95 609.11,-95.62 616.17,-94.2"/>
<polygon fill="midnightblue" stroke="midnightblue" points="617.27,-97.54 626.34,-92.06 615.83,-90.69 617.27,-97.54"/>
</g>
<!-- Node5 -->
<g id="node5" class="node">
<title>Node5</title>
<g id="a_node5"><a xlink:href="appender_8h.html" target="_top" xlink:title=" ">
<polygon fill="white" stroke="black" points="954,-358.5 954,-377.5 1074,-377.5 1074,-358.5 954,-358.5"/>
<text text-anchor="middle" x="1014" y="-365.5" font-family="Helvetica,sans-Serif" font-size="10.00">log4cplus/appender.h</text>
</a>
</g>
</g>
<!-- Node1&#45;&gt;Node5 -->
<g id="edge4" class="edge">
<title>Node1&#45;&gt;Node5</title>
<path fill="none" stroke="midnightblue" d="M193.13,-419.6C345.87,-410.19 774.36,-383.77 943.79,-373.33"/>
<polygon fill="midnightblue" stroke="midnightblue" points="944.07,-376.82 953.84,-372.71 943.64,-369.83 944.07,-376.82"/>
</g>
<!-- Node33 -->
<g id="node33" class="node">
<title>Node33</title>
<g id="a_node33"><a xlink:href="clogger_8h.html" target="_top" xlink:title="Module: Log4CPLUS File: clogger.h Created: 01/2011 Author: Jens Rehsack.">
<polygon fill="white" stroke="black" points="0,-358.5 0,-377.5 110,-377.5 110,-358.5 0,-358.5"/>
<text text-anchor="middle" x="55" y="-365.5" font-family="Helvetica,sans-Serif" font-size="10.00">log4cplus/clogger.h</text>
</a>
</g>
</g>
<!-- Node1&#45;&gt;Node33 -->
<g id="edge60" class="edge">
<title>Node1&#45;&gt;Node33</title>
<path fill="none" stroke="midnightblue" d="M124.66,-414.32C111.84,-405.98 92.22,-393.21 77.06,-383.35"/>
<polygon fill="midnightblue" stroke="midnightblue" points="78.59,-380.17 68.3,-377.65 74.78,-386.04 78.59,-380.17"/>
</g>
<!-- Node3 -->
<g id="node3" class="node">
<title>Node3</title>
<g id="a_node3"><a xlink:href="win32_8h.html" target="_top" xlink:title=" ">
<polygon fill="white" stroke="black" points="516.5,-6 516.5,-25 653.5,-25 653.5,-6 516.5,-6"/>
<text text-anchor="middle" x="585" y="-13" font-family="Helvetica,sans-Serif" font-size="10.00">log4cplus/config/win32.h</text>
</a>
</g>
</g>
<!-- Node2&#45;&gt;Node3 -->
<g id="edge2" class="edge">
<title>Node2&#45;&gt;Node3</title>
<path fill="none" stroke="midnightblue" d="M651.62,-72.73C639.15,-62.21 618.03,-44.38 602.91,-31.62"/>
<polygon fill="midnightblue" stroke="midnightblue" points="605.12,-28.9 595.22,-25.13 600.6,-34.25 605.12,-28.9"/>
</g>
<!-- Node4 -->
<g id="node4" class="node">
<title>Node4</title>
<g id="a_node4"><a xlink:href="thread-config_8h.html" target="_top" xlink:title=" ">
<polygon fill="white" stroke="black" points="671.5,-0.5 671.5,-30.5 808.5,-30.5 808.5,-0.5 671.5,-0.5"/>
<text text-anchor="start" x="679.5" y="-18.5" font-family="Helvetica,sans-Serif" font-size="10.00">log4cplus/helpers/thread</text>
<text text-anchor="middle" x="740" y="-7.5" font-family="Helvetica,sans-Serif" font-size="10.00">&#45;config.h</text>
</a>
</g>
</g>
<!-- Node2&#45;&gt;Node4 -->
<g id="edge3" class="edge">
<title>Node2&#45;&gt;Node4</title>
<path fill="none" stroke="midnightblue" d="M672.52,-72.73C683.36,-63.7 700.67,-49.27 715.04,-37.3"/>
<polygon fill="midnightblue" stroke="midnightblue" points="717.65,-39.68 723.09,-30.59 713.17,-34.3 717.65,-39.68"/>
</g>
<!-- Node5&#45;&gt;Node2 -->
<g id="edge5" class="edge">
<title>Node5&#45;&gt;Node2</title>
<path fill="none" stroke="midnightblue" d="M1049.1,-358.47C1094.27,-345.15 1167,-314.74 1167,-257 1167,-257 1167,-257 1167,-199 1167,-168.9 1171.12,-153.27 1148,-134 1116.59,-107.81 856.76,-92.42 730.44,-86.42"/>
<polygon fill="midnightblue" stroke="midnightblue" points="730.26,-82.91 720.11,-85.94 729.93,-89.9 730.26,-82.91"/>
</g>
<!-- Node6 -->
<g id="node6" class="node">
<title>Node6</title>
<g id="a_node6"><a xlink:href="layout_8h.html" target="_top" xlink:title=" ">
<polygon fill="white" stroke="black" points="529,-302.5 529,-321.5 635,-321.5 635,-302.5 529,-302.5"/>
<text text-anchor="middle" x="582" y="-309.5" font-family="Helvetica,sans-Serif" font-size="10.00">log4cplus/layout.h</text>
</a>
</g>
</g>
<!-- Node5&#45;&gt;Node6 -->
<g id="edge6" class="edge">
<title>Node5&#45;&gt;Node6</title>
<path fill="none" stroke="midnightblue" d="M953.93,-359.49C872.59,-349.32 728.07,-331.26 645.16,-320.89"/>
<polygon fill="midnightblue" stroke="midnightblue" points="645.47,-317.41 635.11,-319.64 644.6,-324.35 645.47,-317.41"/>
</g>
<!-- Node7 -->
<g id="node7" class="node">
<title>Node7</title>
<g id="a_node7"><a xlink:href="loglevel_8h.html" target="_top" xlink:title="This header defines the LogLevel type.">
<polygon fill="white" stroke="black" points="702,-246.5 702,-265.5 816,-265.5 816,-246.5 702,-246.5"/>
<text text-anchor="middle" x="759" y="-253.5" font-family="Helvetica,sans-Serif" font-size="10.00">log4cplus/loglevel.h</text>
</a>
</g>
</g>
<!-- Node5&#45;&gt;Node7 -->
<g id="edge44" class="edge">
<title>Node5&#45;&gt;Node7</title>
<path fill="none" stroke="midnightblue" d="M978.03,-358.48C947.94,-350.75 904.23,-338.11 868,-322 835.59,-307.59 800.83,-285.6 779.5,-271.26"/>
<polygon fill="midnightblue" stroke="midnightblue" points="781.46,-268.36 771.23,-265.62 777.52,-274.14 781.46,-268.36"/>
</g>
<!-- Node9 -->
<g id="node9" class="node">
<title>Node9</title>
<g id="a_node9"><a xlink:title=" ">
<polygon fill="white" stroke="#bfbfbf" points="839,-190.5 839,-209.5 897,-209.5 897,-190.5 839,-190.5"/>
<text text-anchor="middle" x="868" y="-197.5" font-family="Helvetica,sans-Serif" font-size="10.00">memory</text>
</a>
</g>
</g>
<!-- Node5&#45;&gt;Node9 -->
<g id="edge56" class="edge">
<title>Node5&#45;&gt;Node9</title>
<path fill="none" stroke="midnightblue" d="M966.79,-358.47C943.98,-352.06 917.95,-340.98 901,-322 875.1,-293 869.27,-245.58 868.12,-219.55"/>
<polygon fill="midnightblue" stroke="midnightblue" points="871.62,-219.44 867.87,-209.53 864.62,-219.62 871.62,-219.44"/>
</g>
<!-- Node11 -->
<g id="node11" class="node">
<title>Node11</title>
<g id="a_node11"><a xlink:href="tstring_8h.html" target="_top" xlink:title=" ">
<polygon fill="white" stroke="black" points="373.5,-190.5 373.5,-209.5 480.5,-209.5 480.5,-190.5 373.5,-190.5"/>
<text text-anchor="middle" x="427" y="-197.5" font-family="Helvetica,sans-Serif" font-size="10.00">log4cplus/tstring.h</text>
</a>
</g>
</g>
<!-- Node5&#45;&gt;Node11 -->
<g id="edge45" class="edge">
<title>Node5&#45;&gt;Node11</title>
<path fill="none" stroke="midnightblue" d="M953.99,-367.45C839.14,-367.35 593.18,-362.28 520,-322 477.4,-298.55 448.08,-246.52 434.89,-218.95"/>
<polygon fill="midnightblue" stroke="midnightblue" points="437.99,-217.32 430.64,-209.7 431.63,-220.24 437.99,-217.32"/>
</g>
<!-- Node18 -->
<g id="node18" class="node">
<title>Node18</title>
<g id="a_node18"><a xlink:href="pointer_8h.html" target="_top" xlink:title=" ">
<polygon fill="white" stroke="black" points="991,-190.5 991,-209.5 1139,-209.5 1139,-190.5 991,-190.5"/>
<text text-anchor="middle" x="1065" y="-197.5" font-family="Helvetica,sans-Serif" font-size="10.00">log4cplus/helpers/pointer.h</text>
</a>
</g>
</g>
<!-- Node5&#45;&gt;Node18 -->
<g id="edge46" class="edge">
<title>Node5&#45;&gt;Node18</title>
<path fill="none" stroke="midnightblue" d="M1018.16,-358.18C1022.29,-349.21 1028.62,-334.84 1033,-322 1045.18,-286.32 1055.55,-243.42 1060.97,-219.48"/>
<polygon fill="midnightblue" stroke="midnightblue" points="1064.4,-220.15 1063.16,-209.63 1057.57,-218.63 1064.4,-220.15"/>
</g>
<!-- Node20 -->
<g id="node20" class="node">
<title>Node20</title>
<g id="a_node20"><a xlink:title=" ">
<polygon fill="white" stroke="#bfbfbf" points="1402,-73 1402,-92 1450,-92 1450,-73 1402,-73"/>
<text text-anchor="middle" x="1426" y="-80" font-family="Helvetica,sans-Serif" font-size="10.00">mutex</text>
</a>
</g>
</g>
<!-- Node5&#45;&gt;Node20 -->
<g id="edge57" class="edge">
<title>Node5&#45;&gt;Node20</title>
<path fill="none" stroke="midnightblue" d="M1074.16,-365.59C1201.97,-360.98 1489,-341.22 1489,-257 1489,-257 1489,-257 1489,-199 1489,-168.9 1484.44,-160.41 1470,-134 1462.94,-121.09 1452.1,-108.6 1442.95,-99.27"/>
<polygon fill="midnightblue" stroke="midnightblue" points="1445.37,-96.74 1435.78,-92.24 1440.47,-101.74 1445.37,-96.74"/>
</g>
<!-- Node21 -->
<g id="node21" class="node">
<title>Node21</title>
<g id="a_node21"><a xlink:title=" ">
<polygon fill="white" stroke="#bfbfbf" points="1470.5,-73 1470.5,-92 1577.5,-92 1577.5,-73 1470.5,-73"/>
<text text-anchor="middle" x="1524" y="-80" font-family="Helvetica,sans-Serif" font-size="10.00">condition_variable</text>
</a>
</g>
</g>
<!-- Node5&#45;&gt;Node21 -->
<g id="edge59" class="edge">
<title>Node5&#45;&gt;Node21</title>
<path fill="none" stroke="midnightblue" d="M1074.1,-366.64C1209.57,-364.2 1527,-348.71 1527,-257 1527,-257 1527,-257 1527,-199 1527,-164.85 1525.67,-125.04 1524.78,-102.21"/>
<polygon fill="midnightblue" stroke="midnightblue" points="1528.28,-102.04 1524.38,-92.19 1521.29,-102.32 1528.28,-102.04"/>
</g>
<!-- Node25 -->
<g id="node25" class="node">
<title>Node25</title>
<g id="a_node25"><a xlink:title=" ">
<polygon fill="white" stroke="#bfbfbf" points="1411,-134.5 1411,-153.5 1461,-153.5 1461,-134.5 1411,-134.5"/>
<text text-anchor="middle" x="1436" y="-141.5" font-family="Helvetica,sans-Serif" font-size="10.00">atomic</text>
</a>
</g>
</g>
<!-- Node5&#45;&gt;Node25 -->
<g id="edge58" class="edge">
<title>Node5&#45;&gt;Node25</title>
<path fill="none" stroke="midnightblue" d="M1074.13,-362.63C1147.2,-354.51 1270.86,-331.43 1353,-266 1388.9,-237.4 1415.38,-189.12 1427.92,-163.03"/>
<polygon fill="midnightblue" stroke="midnightblue" points="1431.25,-164.16 1432.29,-153.62 1424.9,-161.21 1431.25,-164.16"/>
</g>
<!-- Node31 -->
<g id="node31" class="node">
<title>Node31</title>
<g id="a_node31"><a xlink:href="filter_8h.html" target="_top" xlink:title="This header defines Filter and all of it&#39;s subclasses.">
<polygon fill="white" stroke="black" points="910,-302.5 910,-321.5 1024,-321.5 1024,-302.5 910,-302.5"/>
<text text-anchor="middle" x="967" y="-309.5" font-family="Helvetica,sans-Serif" font-size="10.00">log4cplus/spi/filter.h</text>
</a>
</g>
</g>
<!-- Node5&#45;&gt;Node31 -->
<g id="edge47" class="edge">
<title>Node5&#45;&gt;Node31</title>
<path fill="none" stroke="midnightblue" d="M1006.24,-358.08C999.46,-350.3 989.46,-338.8 981.24,-329.37"/>
<polygon fill="midnightblue" stroke="midnightblue" points="983.82,-327 974.62,-321.75 978.54,-331.59 983.82,-327"/>
</g>
<!-- Node32 -->
<g id="node32" class="node">
<title>Node32</title>
<g id="a_node32"><a xlink:href="lockfile_8h.html" target="_top" xlink:title=" ">
<polygon fill="white" stroke="black" points="1194.5,-246.5 1194.5,-265.5 1343.5,-265.5 1343.5,-246.5 1194.5,-246.5"/>
<text text-anchor="middle" x="1269" y="-253.5" font-family="Helvetica,sans-Serif" font-size="10.00">log4cplus/helpers/lockfile.h</text>
</a>
</g>
</g>
<!-- Node5&#45;&gt;Node32 -->
<g id="edge52" class="edge">
<title>Node5&#45;&gt;Node32</title>
<path fill="none" stroke="midnightblue" d="M1064.69,-358.46C1098.73,-351.51 1143.95,-339.88 1181,-322 1207.8,-309.06 1234.76,-287.61 1251.65,-272.92"/>
<polygon fill="midnightblue" stroke="midnightblue" points="1254.36,-275.19 1259.5,-265.93 1249.7,-269.96 1254.36,-275.19"/>
</g>
<!-- Node6&#45;&gt;Node2 -->
<g id="edge7" class="edge">
<title>Node6&#45;&gt;Node2</title>
<path fill="none" stroke="midnightblue" d="M528.9,-310.8C443.56,-309.39 281.08,-301.92 238,-266 192.37,-227.96 177.04,-177.95 217,-134 245.38,-102.78 553.31,-104.47 595,-98 601.87,-96.93 609.1,-95.6 616.16,-94.17"/>
<polygon fill="midnightblue" stroke="midnightblue" points="617.26,-97.52 626.33,-92.04 615.83,-90.67 617.26,-97.52"/>
</g>
<!-- Node6&#45;&gt;Node7 -->
<g id="edge8" class="edge">
<title>Node6&#45;&gt;Node7</title>
<path fill="none" stroke="midnightblue" d="M610.05,-302.44C640.08,-293.28 687.91,-278.69 721.24,-268.52"/>
<polygon fill="midnightblue" stroke="midnightblue" points="722.54,-271.78 731.09,-265.52 720.5,-265.09 722.54,-271.78"/>
</g>
<!-- Node8 -->
<g id="node8" class="node">
<title>Node8</title>
<g id="a_node8"><a xlink:title=" ">
<polygon fill="white" stroke="#bfbfbf" points="631.5,-190.5 631.5,-209.5 678.5,-209.5 678.5,-190.5 631.5,-190.5"/>
<text text-anchor="middle" x="655" y="-197.5" font-family="Helvetica,sans-Serif" font-size="10.00">vector</text>
</a>
</g>
</g>
<!-- Node6&#45;&gt;Node8 -->
<g id="edge42" class="edge">
<title>Node6&#45;&gt;Node8</title>
<path fill="none" stroke="midnightblue" d="M587.73,-302.37C599.78,-284.22 627.92,-241.8 643.72,-217.99"/>
<polygon fill="midnightblue" stroke="midnightblue" points="646.69,-219.86 649.3,-209.59 640.85,-215.99 646.69,-219.86"/>
</g>
<!-- Node6&#45;&gt;Node9 -->
<g id="edge43" class="edge">
<title>Node6&#45;&gt;Node9</title>
<path fill="none" stroke="midnightblue" d="M635,-306.05C696.84,-299.45 794.5,-286.19 825,-266 842.05,-254.71 853.96,-234.1 860.85,-219.11"/>
<polygon fill="midnightblue" stroke="midnightblue" points="864.11,-220.38 864.82,-209.81 857.67,-217.63 864.11,-220.38"/>
</g>
<!-- Node6&#45;&gt;Node11 -->
<g id="edge36" class="edge">
<title>Node6&#45;&gt;Node11</title>
<path fill="none" stroke="midnightblue" d="M569.84,-302.37C543.35,-283.57 480.22,-238.77 447.48,-215.53"/>
<polygon fill="midnightblue" stroke="midnightblue" points="449.29,-212.52 439.11,-209.59 445.24,-218.23 449.29,-212.52"/>
</g>
<!-- Node26 -->
<g id="node26" class="node">
<title>Node26</title>
<g id="a_node26"><a xlink:href="streams_8h.html" target="_top" xlink:title=" ">
<polygon fill="white" stroke="black" points="498.5,-190.5 498.5,-209.5 613.5,-209.5 613.5,-190.5 498.5,-190.5"/>
<text text-anchor="middle" x="556" y="-197.5" font-family="Helvetica,sans-Serif" font-size="10.00">log4cplus/streams.h</text>
</a>
</g>
</g>
<!-- Node6&#45;&gt;Node26 -->
<g id="edge32" class="edge">
<title>Node6&#45;&gt;Node26</title>
<path fill="none" stroke="midnightblue" d="M579.96,-302.37C575.76,-284.62 566.08,-243.67 560.4,-219.6"/>
<polygon fill="midnightblue" stroke="midnightblue" points="563.74,-218.52 558.03,-209.59 556.92,-220.13 563.74,-218.52"/>
</g>
<!-- Node28 -->
<g id="node28" class="node">
<title>Node28</title>
<g id="a_node28"><a xlink:href="timehelper_8h.html" target="_top" xlink:title=" ">
<polygon fill="white" stroke="black" points="246.5,-246.5 246.5,-265.5 413.5,-265.5 413.5,-246.5 246.5,-246.5"/>
<text text-anchor="middle" x="330" y="-253.5" font-family="Helvetica,sans-Serif" font-size="10.00">log4cplus/helpers/timehelper.h</text>
</a>
</g>
</g>
<!-- Node6&#45;&gt;Node28 -->
<g id="edge37" class="edge">
<title>Node6&#45;&gt;Node28</title>
<path fill="none" stroke="midnightblue" d="M542.07,-302.44C498.11,-293.02 427.37,-277.87 379.82,-267.68"/>
<polygon fill="midnightblue" stroke="midnightblue" points="380.25,-264.19 369.74,-265.52 378.79,-271.03 380.25,-264.19"/>
</g>
<!-- Node7&#45;&gt;Node2 -->
<g id="edge9" class="edge">
<title>Node7&#45;&gt;Node2</title>
<path fill="none" stroke="midnightblue" d="M748.6,-246.18C734.67,-233.29 713.12,-208.79 726,-190 753.27,-150.2 847.42,-172.99 819,-134 798.67,-106.11 762.68,-93.29 730.29,-87.53"/>
<polygon fill="midnightblue" stroke="midnightblue" points="730.79,-84.06 720.37,-85.96 729.7,-90.98 730.79,-84.06"/>
</g>
<!-- Node7&#45;&gt;Node8 -->
<g id="edge10" class="edge">
<title>Node7&#45;&gt;Node8</title>
<path fill="none" stroke="midnightblue" d="M742.29,-246.32C725.69,-237.7 700,-224.36 680.78,-214.39"/>
<polygon fill="midnightblue" stroke="midnightblue" points="682.16,-211.16 671.67,-209.65 678.93,-217.37 682.16,-211.16"/>
</g>
<!-- Node7&#45;&gt;Node9 -->
<g id="edge11" class="edge">
<title>Node7&#45;&gt;Node9</title>
<path fill="none" stroke="midnightblue" d="M776.51,-246.32C794.07,-237.62 821.33,-224.12 841.53,-214.11"/>
<polygon fill="midnightblue" stroke="midnightblue" points="843.12,-217.23 850.53,-209.65 840.02,-210.96 843.12,-217.23"/>
</g>
<!-- Node10 -->
<g id="node10" class="node">
<title>Node10</title>
<g id="a_node10"><a xlink:title=" ">
<polygon fill="white" stroke="#bfbfbf" points="735,-190.5 735,-209.5 821,-209.5 821,-190.5 735,-190.5"/>
<text text-anchor="middle" x="778" y="-197.5" font-family="Helvetica,sans-Serif" font-size="10.00">shared_mutex</text>
</a>
</g>
</g>
<!-- Node7&#45;&gt;Node10 -->
<g id="edge12" class="edge">
<title>Node7&#45;&gt;Node10</title>
<path fill="none" stroke="midnightblue" d="M762.14,-246.08C764.68,-238.85 768.36,-228.41 771.53,-219.4"/>
<polygon fill="midnightblue" stroke="midnightblue" points="774.9,-220.35 774.92,-209.75 768.3,-218.02 774.9,-220.35"/>
</g>
<!-- Node7&#45;&gt;Node11 -->
<g id="edge13" class="edge">
<title>Node7&#45;&gt;Node11</title>
<path fill="none" stroke="midnightblue" d="M706.39,-246.44C647.51,-236.87 552.15,-221.36 489.51,-211.17"/>
<polygon fill="midnightblue" stroke="midnightblue" points="489.79,-207.67 479.36,-209.52 488.67,-214.58 489.79,-207.67"/>
</g>
<!-- Node7&#45;&gt;Node18 -->
<g id="edge22" class="edge">
<title>Node7&#45;&gt;Node18</title>
<path fill="none" stroke="midnightblue" d="M807.49,-246.44C861.54,-236.9 948.93,-221.48 1006.67,-211.29"/>
<polygon fill="midnightblue" stroke="midnightblue" points="1007.5,-214.7 1016.74,-209.52 1006.28,-207.81 1007.5,-214.7"/>
</g>
<!-- Node11&#45;&gt;Node2 -->
<g id="edge14" class="edge">
<title>Node11&#45;&gt;Node2</title>
<path fill="none" stroke="midnightblue" d="M436.49,-190.31C451.79,-176.68 483.31,-150.18 514,-134 547.01,-116.59 587.24,-103.32 617.42,-94.76"/>
<polygon fill="midnightblue" stroke="midnightblue" points="618.55,-98.08 627.25,-92.04 616.68,-91.33 618.55,-98.08"/>
</g>
<!-- Node12 -->
<g id="node12" class="node">
<title>Node12</title>
<g id="a_node12"><a xlink:title=" ">
<polygon fill="white" stroke="#bfbfbf" points="242.5,-134.5 242.5,-153.5 311.5,-153.5 311.5,-134.5 242.5,-134.5"/>
<text text-anchor="middle" x="277" y="-141.5" font-family="Helvetica,sans-Serif" font-size="10.00">type_traits</text>
</a>
</g>
</g>
<!-- Node11&#45;&gt;Node12 -->
<g id="edge15" class="edge">
<title>Node11&#45;&gt;Node12</title>
<path fill="none" stroke="midnightblue" d="M403.23,-190.44C378.11,-181.4 338.29,-167.06 310.1,-156.92"/>
<polygon fill="midnightblue" stroke="midnightblue" points="311.25,-153.61 300.66,-153.52 308.88,-160.2 311.25,-153.61"/>
</g>
<!-- Node13 -->
<g id="node13" class="node">
<title>Node13</title>
<g id="a_node13"><a xlink:title=" ">
<polygon fill="white" stroke="#bfbfbf" points="744.5,-134.5 744.5,-153.5 809.5,-153.5 809.5,-134.5 744.5,-134.5"/>
<text text-anchor="middle" x="777" y="-141.5" font-family="Helvetica,sans-Serif" font-size="10.00">functional</text>
</a>
</g>
</g>
<!-- Node11&#45;&gt;Node13 -->
<g id="edge16" class="edge">
<title>Node11&#45;&gt;Node13</title>
<path fill="none" stroke="midnightblue" d="M480.72,-191.25C557.35,-180.17 692.66,-160.57 734.41,-153.88"/>
<polygon fill="midnightblue" stroke="midnightblue" points="735.2,-157.3 744.48,-152.19 734.04,-150.39 735.2,-157.3"/>
</g>
<!-- Node14 -->
<g id="node14" class="node">
<title>Node14</title>
<g id="a_node14"><a xlink:title=" ">
<polygon fill="white" stroke="#bfbfbf" points="330,-134.5 330,-153.5 374,-153.5 374,-134.5 330,-134.5"/>
<text text-anchor="middle" x="352" y="-141.5" font-family="Helvetica,sans-Serif" font-size="10.00">string</text>
</a>
</g>
</g>
<!-- Node11&#45;&gt;Node14 -->
<g id="edge17" class="edge">
<title>Node11&#45;&gt;Node14</title>
<path fill="none" stroke="midnightblue" d="M414.95,-190.32C403.54,-182.11 386.17,-169.6 372.57,-159.81"/>
<polygon fill="midnightblue" stroke="midnightblue" points="374.43,-156.84 364.27,-153.83 370.34,-162.52 374.43,-156.84"/>
</g>
<!-- Node15 -->
<g id="node15" class="node">
<title>Node15</title>
<g id="a_node15"><a xlink:title=" ">
<polygon fill="white" stroke="#bfbfbf" points="392.5,-134.5 392.5,-153.5 465.5,-153.5 465.5,-134.5 392.5,-134.5"/>
<text text-anchor="middle" x="429" y="-141.5" font-family="Helvetica,sans-Serif" font-size="10.00">string_view</text>
</a>
</g>
</g>
<!-- Node11&#45;&gt;Node15 -->
<g id="edge18" class="edge">
<title>Node11&#45;&gt;Node15</title>
<path fill="none" stroke="midnightblue" d="M427.33,-190.08C427.59,-183.01 427.97,-172.86 428.3,-163.99"/>
<polygon fill="midnightblue" stroke="midnightblue" points="431.8,-163.87 428.68,-153.75 424.81,-163.61 431.8,-163.87"/>
</g>
<!-- Node16 -->
<g id="node16" class="node">
<title>Node16</title>
<g id="a_node16"><a xlink:href="tchar_8h.html" target="_top" xlink:title=" ">
<polygon fill="white" stroke="black" points="522.5,-134.5 522.5,-153.5 621.5,-153.5 621.5,-134.5 522.5,-134.5"/>
<text text-anchor="middle" x="572" y="-141.5" font-family="Helvetica,sans-Serif" font-size="10.00">log4cplus/tchar.h</text>
</a>
</g>
</g>
<!-- Node11&#45;&gt;Node16 -->
<g id="edge19" class="edge">
<title>Node11&#45;&gt;Node16</title>
<path fill="none" stroke="midnightblue" d="M449.98,-190.44C474.16,-181.44 512.42,-167.19 539.65,-157.05"/>
<polygon fill="midnightblue" stroke="midnightblue" points="540.98,-160.29 549.13,-153.52 538.54,-153.73 540.98,-160.29"/>
</g>
<!-- Node16&#45;&gt;Node2 -->
<g id="edge20" class="edge">
<title>Node16&#45;&gt;Node2</title>
<path fill="none" stroke="midnightblue" d="M584.89,-134.48C599.46,-124.84 623.4,-109.02 640.75,-97.55"/>
<polygon fill="midnightblue" stroke="midnightblue" points="642.72,-100.44 649.13,-92.01 638.86,-94.6 642.72,-100.44"/>
</g>
<!-- Node17 -->
<g id="node17" class="node">
<title>Node17</title>
<g id="a_node17"><a xlink:title=" ">
<polygon fill="white" stroke="#bfbfbf" points="532.5,-73 532.5,-92 585.5,-92 585.5,-73 532.5,-73"/>
<text text-anchor="middle" x="559" y="-80" font-family="Helvetica,sans-Serif" font-size="10.00">cstddef</text>
</a>
</g>
</g>
<!-- Node16&#45;&gt;Node17 -->
<g id="edge21" class="edge">
<title>Node16&#45;&gt;Node17</title>
<path fill="none" stroke="midnightblue" d="M570.14,-134.48C568.28,-125.99 565.38,-112.7 563,-101.82"/>
<polygon fill="midnightblue" stroke="midnightblue" points="566.41,-101.03 560.86,-92.01 559.57,-102.53 566.41,-101.03"/>
</g>
<!-- Node18&#45;&gt;Node2 -->
<g id="edge23" class="edge">
<title>Node18&#45;&gt;Node2</title>
<path fill="none" stroke="midnightblue" d="M1051.69,-190.48C1026.69,-174.59 973.39,-141.42 953,-134 879.55,-107.28 790.39,-94.48 730.28,-88.49"/>
<polygon fill="midnightblue" stroke="midnightblue" points="730.44,-84.99 720.15,-87.52 729.77,-91.96 730.44,-84.99"/>
</g>
<!-- Node19 -->
<g id="node19" class="node">
<title>Node19</title>
<g id="a_node19"><a xlink:href="syncprims_8h.html" target="_top" xlink:title=" ">
<polygon fill="white" stroke="black" points="1233,-134.5 1233,-153.5 1393,-153.5 1393,-134.5 1233,-134.5"/>
<text text-anchor="middle" x="1313" y="-141.5" font-family="Helvetica,sans-Serif" font-size="10.00">log4cplus/thread/syncprims.h</text>
</a>
</g>
</g>
<!-- Node18&#45;&gt;Node19 -->
<g id="edge24" class="edge">
<title>Node18&#45;&gt;Node19</title>
<path fill="none" stroke="midnightblue" d="M1104.3,-190.44C1147.56,-181.02 1217.17,-165.87 1263.97,-155.68"/>
<polygon fill="midnightblue" stroke="midnightblue" points="1264.86,-159.06 1273.89,-153.52 1263.37,-152.22 1264.86,-159.06"/>
</g>
<!-- Node23 -->
<g id="node23" class="node">
<title>Node23</title>
<g id="a_node23"><a xlink:title=" ">
<polygon fill="white" stroke="#bfbfbf" points="1075,-134.5 1075,-153.5 1139,-153.5 1139,-134.5 1075,-134.5"/>
<text text-anchor="middle" x="1107" y="-141.5" font-family="Helvetica,sans-Serif" font-size="10.00">algorithm</text>
</a>
</g>
</g>
<!-- Node18&#45;&gt;Node23 -->
<g id="edge29" class="edge">
<title>Node18&#45;&gt;Node23</title>
<path fill="none" stroke="midnightblue" d="M1071.94,-190.08C1077.93,-182.38 1086.75,-171.03 1094.05,-161.65"/>
<polygon fill="midnightblue" stroke="midnightblue" points="1096.82,-163.79 1100.19,-153.75 1091.29,-159.5 1096.82,-163.79"/>
</g>
<!-- Node24 -->
<g id="node24" class="node">
<title>Node24</title>
<g id="a_node24"><a xlink:title=" ">
<polygon fill="white" stroke="#bfbfbf" points="1005,-134.5 1005,-153.5 1057,-153.5 1057,-134.5 1005,-134.5"/>
<text text-anchor="middle" x="1031" y="-141.5" font-family="Helvetica,sans-Serif" font-size="10.00">cassert</text>
</a>
</g>
</g>
<!-- Node18&#45;&gt;Node24 -->
<g id="edge30" class="edge">
<title>Node18&#45;&gt;Node24</title>
<path fill="none" stroke="midnightblue" d="M1059.39,-190.08C1054.63,-182.53 1047.68,-171.49 1041.85,-162.23"/>
<polygon fill="midnightblue" stroke="midnightblue" points="1044.8,-160.35 1036.51,-153.75 1038.88,-164.08 1044.8,-160.35"/>
</g>
<!-- Node18&#45;&gt;Node25 -->
<g id="edge31" class="edge">
<title>Node18&#45;&gt;Node25</title>
<path fill="none" stroke="midnightblue" d="M1139.07,-191.82C1205.37,-184.78 1305.35,-172.64 1400.99,-153.99"/>
<polygon fill="midnightblue" stroke="midnightblue" points="1401.7,-157.41 1410.83,-152.04 1400.34,-150.55 1401.7,-157.41"/>
</g>
<!-- Node19&#45;&gt;Node2 -->
<g id="edge25" class="edge">
<title>Node19&#45;&gt;Node2</title>
<path fill="none" stroke="midnightblue" d="M1232.75,-135.29C1228.1,-134.85 1223.49,-134.42 1219,-134 1042.87,-117.58 835.33,-98.96 730.29,-89.58"/>
<polygon fill="midnightblue" stroke="midnightblue" points="730.42,-86.08 720.15,-88.67 729.79,-93.05 730.42,-86.08"/>
</g>
<!-- Node19&#45;&gt;Node20 -->
<g id="edge26" class="edge">
<title>Node19&#45;&gt;Node20</title>
<path fill="none" stroke="midnightblue" d="M1329.19,-134.48C1347.9,-124.62 1378.92,-108.29 1400.8,-96.77"/>
<polygon fill="midnightblue" stroke="midnightblue" points="1402.62,-99.77 1409.84,-92.01 1399.36,-93.57 1402.62,-99.77"/>
</g>
<!-- Node19&#45;&gt;Node21 -->
<g id="edge27" class="edge">
<title>Node19&#45;&gt;Node21</title>
<path fill="none" stroke="midnightblue" d="M1343.23,-134.48C1380.29,-124.03 1443.19,-106.29 1484.16,-94.73"/>
<polygon fill="midnightblue" stroke="midnightblue" points="1485.15,-98.09 1493.82,-92.01 1483.25,-91.35 1485.15,-98.09"/>
</g>
<!-- Node22 -->
<g id="node22" class="node">
<title>Node22</title>
<g id="a_node22"><a xlink:href="threadsafetyanalysis_8h.html" target="_top" xlink:title=" ">
<polygon fill="white" stroke="black" points="1247.5,-67.5 1247.5,-97.5 1378.5,-97.5 1378.5,-67.5 1247.5,-67.5"/>
<text text-anchor="start" x="1255.5" y="-85.5" font-family="Helvetica,sans-Serif" font-size="10.00">log4cplus/internal</text>
<text text-anchor="middle" x="1313" y="-74.5" font-family="Helvetica,sans-Serif" font-size="10.00">/threadsafetyanalysis.h</text>
</a>
</g>
</g>
<!-- Node19&#45;&gt;Node22 -->
<g id="edge28" class="edge">
<title>Node19&#45;&gt;Node22</title>
<path fill="none" stroke="midnightblue" d="M1313,-134.48C1313,-127.47 1313,-117.19 1313,-107.7"/>
<polygon fill="midnightblue" stroke="midnightblue" points="1316.5,-107.52 1313,-97.52 1309.5,-107.52 1316.5,-107.52"/>
</g>
<!-- Node26&#45;&gt;Node2 -->
<g id="edge33" class="edge">
<title>Node26&#45;&gt;Node2</title>
<path fill="none" stroke="midnightblue" d="M577.52,-190.43C594.01,-182.93 616.34,-170.63 631,-154 644.23,-138.99 652.59,-117.43 657.25,-102.11"/>
<polygon fill="midnightblue" stroke="midnightblue" points="660.68,-102.82 660,-92.25 653.94,-100.94 660.68,-102.82"/>
</g>
<!-- Node26&#45;&gt;Node16 -->
<g id="edge34" class="edge">
<title>Node26&#45;&gt;Node16</title>
<path fill="none" stroke="midnightblue" d="M558.64,-190.08C560.79,-182.85 563.88,-172.41 566.55,-163.4"/>
<polygon fill="midnightblue" stroke="midnightblue" points="569.92,-164.33 569.41,-153.75 563.21,-162.34 569.92,-164.33"/>
</g>
<!-- Node27 -->
<g id="node27" class="node">
<title>Node27</title>
<g id="a_node27"><a xlink:title=" ">
<polygon fill="white" stroke="#bfbfbf" points="678,-134.5 678,-153.5 726,-153.5 726,-134.5 678,-134.5"/>
<text text-anchor="middle" x="702" y="-141.5" font-family="Helvetica,sans-Serif" font-size="10.00">iosfwd</text>
</a>
</g>
</g>
<!-- Node26&#45;&gt;Node27 -->
<g id="edge35" class="edge">
<title>Node26&#45;&gt;Node27</title>
<path fill="none" stroke="midnightblue" d="M579.13,-190.44C603.48,-181.44 642.01,-167.19 669.42,-157.05"/>
<polygon fill="midnightblue" stroke="midnightblue" points="670.81,-160.27 678.97,-153.52 668.38,-153.7 670.81,-160.27"/>
</g>
<!-- Node28&#45;&gt;Node2 -->
<g id="edge38" class="edge">
<title>Node28&#45;&gt;Node2</title>
<path fill="none" stroke="midnightblue" d="M288.67,-246.41C268.59,-239.95 246.22,-228.84 234,-210 215.62,-181.65 210.33,-159.04 233,-134 287.26,-74.07 515.14,-110.57 595,-98 601.87,-96.92 609.1,-95.57 616.16,-94.14"/>
<polygon fill="midnightblue" stroke="midnightblue" points="617.26,-97.49 626.33,-92.01 615.82,-90.64 617.26,-97.49"/>
</g>
<!-- Node28&#45;&gt;Node11 -->
<g id="edge39" class="edge">
<title>Node28&#45;&gt;Node11</title>
<path fill="none" stroke="midnightblue" d="M345.58,-246.32C361,-237.74 384.81,-224.49 402.71,-214.52"/>
<polygon fill="midnightblue" stroke="midnightblue" points="404.42,-217.58 411.45,-209.65 401.01,-211.46 404.42,-217.58"/>
</g>
<!-- Node29 -->
<g id="node29" class="node">
<title>Node29</title>
<g id="a_node29"><a xlink:title=" ">
<polygon fill="white" stroke="#bfbfbf" points="243,-190.5 243,-209.5 287,-209.5 287,-190.5 243,-190.5"/>
<text text-anchor="middle" x="265" y="-197.5" font-family="Helvetica,sans-Serif" font-size="10.00">ctime</text>
</a>
</g>
</g>
<!-- Node28&#45;&gt;Node29 -->
<g id="edge40" class="edge">
<title>Node28&#45;&gt;Node29</title>
<path fill="none" stroke="midnightblue" d="M319.56,-246.32C309.85,-238.26 295.18,-226.08 283.5,-216.37"/>
<polygon fill="midnightblue" stroke="midnightblue" points="285.56,-213.53 275.63,-209.83 281.09,-218.92 285.56,-213.53"/>
</g>
<!-- Node30 -->
<g id="node30" class="node">
<title>Node30</title>
<g id="a_node30"><a xlink:title=" ">
<polygon fill="white" stroke="#bfbfbf" points="305,-190.5 305,-209.5 355,-209.5 355,-190.5 305,-190.5"/>
<text text-anchor="middle" x="330" y="-197.5" font-family="Helvetica,sans-Serif" font-size="10.00">chrono</text>
</a>
</g>
</g>
<!-- Node28&#45;&gt;Node30 -->
<g id="edge41" class="edge">
<title>Node28&#45;&gt;Node30</title>
<path fill="none" stroke="midnightblue" d="M330,-246.08C330,-239.01 330,-228.86 330,-219.99"/>
<polygon fill="midnightblue" stroke="midnightblue" points="333.5,-219.75 330,-209.75 326.5,-219.75 333.5,-219.75"/>
</g>
<!-- Node31&#45;&gt;Node2 -->
<g id="edge48" class="edge">
<title>Node31&#45;&gt;Node2</title>
<path fill="none" stroke="midnightblue" d="M966.24,-302.32C963.94,-280.84 955.3,-224.48 926,-190 876.51,-131.76 790.47,-105.02 730.11,-92.98"/>
<polygon fill="midnightblue" stroke="midnightblue" points="730.75,-89.54 720.28,-91.1 729.44,-96.41 730.75,-89.54"/>
</g>
<!-- Node31&#45;&gt;Node7 -->
<g id="edge51" class="edge">
<title>Node31&#45;&gt;Node7</title>
<path fill="none" stroke="midnightblue" d="M934.04,-302.44C898.21,-293.14 840.84,-278.25 801.61,-268.06"/>
<polygon fill="midnightblue" stroke="midnightblue" points="802.36,-264.64 791.8,-265.52 800.6,-271.42 802.36,-264.64"/>
</g>
<!-- Node31&#45;&gt;Node13 -->
<g id="edge49" class="edge">
<title>Node31&#45;&gt;Node13</title>
<path fill="none" stroke="midnightblue" d="M963.6,-302.26C953.72,-277.27 924.58,-206.28 906,-190 881.8,-168.79 847.02,-157.42 819.67,-151.42"/>
<polygon fill="midnightblue" stroke="midnightblue" points="820.09,-147.93 809.59,-149.37 818.69,-154.79 820.09,-147.93"/>
</g>
<!-- Node31&#45;&gt;Node18 -->
<g id="edge50" class="edge">
<title>Node31&#45;&gt;Node18</title>
<path fill="none" stroke="midnightblue" d="M974.69,-302.37C991.01,-284.05 1029.32,-241.05 1050.42,-217.36"/>
<polygon fill="midnightblue" stroke="midnightblue" points="1053.31,-219.39 1057.35,-209.59 1048.08,-214.73 1053.31,-219.39"/>
</g>
<!-- Node32&#45;&gt;Node2 -->
<g id="edge53" class="edge">
<title>Node32&#45;&gt;Node2</title>
<path fill="none" stroke="midnightblue" d="M1265.69,-246.33C1256.4,-223.33 1227.67,-160.69 1181,-134 1105.8,-91 853.01,-84.07 730.16,-83.31"/>
<polygon fill="midnightblue" stroke="midnightblue" points="730.13,-79.81 720.11,-83.26 730.09,-86.81 730.13,-79.81"/>
</g>
<!-- Node32&#45;&gt;Node11 -->
<g id="edge54" class="edge">
<title>Node32&#45;&gt;Node11</title>
<path fill="none" stroke="midnightblue" d="M1194.45,-252.78C1057.34,-248.25 755.75,-236.14 490.78,-209.98"/>
<polygon fill="midnightblue" stroke="midnightblue" points="490.88,-206.48 480.58,-208.97 490.18,-213.44 490.88,-206.48"/>
</g>
<!-- Node32&#45;&gt;Node19 -->
<g id="edge55" class="edge">
<title>Node32&#45;&gt;Node19</title>
<path fill="none" stroke="midnightblue" d="M1272.45,-246.37C1279.62,-228.46 1296.23,-186.92 1305.82,-162.95"/>
<polygon fill="midnightblue" stroke="midnightblue" points="1309.1,-164.18 1309.56,-153.59 1302.6,-161.58 1309.1,-164.18"/>
</g>
<!-- Node33&#45;&gt;Node2 -->
<g id="edge61" class="edge">
<title>Node33&#45;&gt;Node2</title>
<path fill="none" stroke="midnightblue" d="M58.1,-358.29C64.38,-339.86 78,-295.44 78,-257 78,-257 78,-257 78,-199 78,-163.61 93.21,-151.45 124,-134 215.33,-82.24 491.13,-113.14 595,-98 602.21,-96.95 609.79,-95.57 617.17,-94.09"/>
<polygon fill="midnightblue" stroke="midnightblue" points="617.98,-97.49 627.04,-92.01 616.54,-90.64 617.98,-97.49"/>
</g>
</g>
</svg>
