<?xml version="1.0" encoding="UTF-8" standalone="no"?>
<!DOCTYPE svg PUBLIC "-//W3C//DTD SVG 1.1//EN"
 "http://www.w3.org/Graphics/SVG/1.1/DTD/svg11.dtd">
<!-- Generated by graphviz version 2.43.0 (0)
 -->
<!-- Title: log4cplus::helpers::ConnectorThread Pages: 1 -->
<svg width="482pt" height="137pt"
 viewBox="0.00 0.00 482.00 137.00" xmlns="http://www.w3.org/2000/svg" xmlns:xlink="http://www.w3.org/1999/xlink">
<g id="graph0" class="graph" transform="scale(1 1) rotate(0) translate(4 133)">
<title>log4cplus::helpers::ConnectorThread</title>
<polygon fill="white" stroke="transparent" points="-4,4 -4,-133 478,-133 478,4 -4,4"/>
<!-- Node1 -->
<g id="node1" class="node">
<title>Node1</title>
<g id="a_node1"><a xlink:title="This class is used by SocketAppender and (remote) SysLogAppender to provide asynchronous re&#45;connectio...">
<polygon fill="#bfbfbf" stroke="black" points="368,-49.5 368,-79.5 474,-79.5 474,-49.5 368,-49.5"/>
<text text-anchor="start" x="376" y="-67.5" font-family="Helvetica,sans-Serif" font-size="10.00">log4cplus::helpers</text>
<text text-anchor="middle" x="421" y="-56.5" font-family="Helvetica,sans-Serif" font-size="10.00">::ConnectorThread</text>
</a>
</g>
</g>
<!-- Node2 -->
<g id="node2" class="node">
<title>Node2</title>
<g id="a_node2"><a xlink:href="classlog4cplus_1_1thread_1_1AbstractThread.html" target="_top" xlink:title="There are many cross&#45;platform C++ Threading libraries.">
<polygon fill="white" stroke="black" points="157,-98.5 157,-128.5 264,-128.5 264,-98.5 157,-98.5"/>
<text text-anchor="start" x="165" y="-116.5" font-family="Helvetica,sans-Serif" font-size="10.00">log4cplus::thread::</text>
<text text-anchor="middle" x="210.5" y="-105.5" font-family="Helvetica,sans-Serif" font-size="10.00">AbstractThread</text>
</a>
</g>
</g>
<!-- Node2&#45;&gt;Node1 -->
<g id="edge1" class="edge">
<title>Node2&#45;&gt;Node1</title>
<path fill="none" stroke="midnightblue" d="M274.03,-98.81C303.93,-91.78 339.32,-83.46 367.76,-76.78"/>
<polygon fill="midnightblue" stroke="midnightblue" points="273.05,-95.44 264.11,-101.14 274.65,-102.25 273.05,-95.44"/>
</g>
<!-- Node3 -->
<g id="node3" class="node">
<title>Node3</title>
<g id="a_node3"><a xlink:href="classlog4cplus_1_1helpers_1_1SharedObject.html" target="_top" xlink:title=" ">
<polygon fill="white" stroke="black" points="0,-98.5 0,-128.5 105,-128.5 105,-98.5 0,-98.5"/>
<text text-anchor="start" x="8" y="-116.5" font-family="Helvetica,sans-Serif" font-size="10.00">log4cplus::helpers</text>
<text text-anchor="middle" x="52.5" y="-105.5" font-family="Helvetica,sans-Serif" font-size="10.00">::SharedObject</text>
</a>
</g>
</g>
<!-- Node3&#45;&gt;Node2 -->
<g id="edge2" class="edge">
<title>Node3&#45;&gt;Node2</title>
<path fill="none" stroke="midnightblue" d="M115.38,-113.5C129.15,-113.5 143.62,-113.5 156.97,-113.5"/>
<polygon fill="midnightblue" stroke="midnightblue" points="115.01,-110 105.01,-113.5 115.01,-117 115.01,-110"/>
</g>
<!-- Node4 -->
<g id="node4" class="node">
<title>Node4</title>
<g id="a_node4"><a xlink:href="classlog4cplus_1_1helpers_1_1IConnectorThreadClient.html" target="_top" xlink:title="Interface implemented by users of ConnectorThread.">
<polygon fill="white" stroke="black" points="142,-49.5 142,-79.5 279,-79.5 279,-49.5 142,-49.5"/>
<text text-anchor="start" x="150" y="-67.5" font-family="Helvetica,sans-Serif" font-size="10.00">log4cplus::helpers</text>
<text text-anchor="middle" x="210.5" y="-56.5" font-family="Helvetica,sans-Serif" font-size="10.00">::IConnectorThreadClient</text>
</a>
</g>
</g>
<!-- Node4&#45;&gt;Node1 -->
<g id="edge3" class="edge">
<title>Node4&#45;&gt;Node1</title>
<path fill="none" stroke="#9a32cd" stroke-dasharray="5,2" d="M289.47,-64.5C315.63,-64.5 344.14,-64.5 367.83,-64.5"/>
<polygon fill="#9a32cd" stroke="#9a32cd" points="289.19,-61 279.19,-64.5 289.19,-68 289.19,-61"/>
<text text-anchor="middle" x="323.5" y="-67.5" font-family="Helvetica,sans-Serif" font-size="10.00"> ctc</text>
</g>
<!-- Node5 -->
<g id="node5" class="node">
<title>Node5</title>
<g id="a_node5"><a xlink:href="classlog4cplus_1_1thread_1_1ManualResetEvent.html" target="_top" xlink:title=" ">
<polygon fill="white" stroke="black" points="156.5,-0.5 156.5,-30.5 264.5,-30.5 264.5,-0.5 156.5,-0.5"/>
<text text-anchor="start" x="164.5" y="-18.5" font-family="Helvetica,sans-Serif" font-size="10.00">log4cplus::thread::</text>
<text text-anchor="middle" x="210.5" y="-7.5" font-family="Helvetica,sans-Serif" font-size="10.00">ManualResetEvent</text>
</a>
</g>
</g>
<!-- Node5&#45;&gt;Node1 -->
<g id="edge4" class="edge">
<title>Node5&#45;&gt;Node1</title>
<path fill="none" stroke="#9a32cd" stroke-dasharray="5,2" d="M274.52,-30.31C304.29,-37.31 339.4,-45.56 367.67,-52.2"/>
<polygon fill="#9a32cd" stroke="#9a32cd" points="275.19,-26.87 264.65,-27.99 273.59,-33.69 275.19,-26.87"/>
<text text-anchor="middle" x="323.5" y="-50.5" font-family="Helvetica,sans-Serif" font-size="10.00"> trigger_ev</text>
</g>
</g>
</svg>
