<?xml version="1.0" encoding="UTF-8" standalone="no"?>
<!DOCTYPE svg PUBLIC "-//W3C//DTD SVG 1.1//EN"
 "http://www.w3.org/Graphics/SVG/1.1/DTD/svg11.dtd">
<!-- Generated by graphviz version 2.43.0 (0)
 -->
<!-- Title: log4cplus::helpers::SharedObjectPtr&lt; T &gt; Pages: 1 -->
<svg width="456pt" height="259pt"
 viewBox="0.00 0.00 456.00 259.00" xmlns="http://www.w3.org/2000/svg" xmlns:xlink="http://www.w3.org/1999/xlink">
<g id="graph0" class="graph" transform="scale(1 1) rotate(0) translate(4 255)">
<title>log4cplus::helpers::SharedObjectPtr&lt; T &gt;</title>
<polygon fill="white" stroke="transparent" points="-4,4 -4,-255 452,-255 452,4 -4,4"/>
<!-- Node1 -->
<g id="node1" class="node">
<title>Node1</title>
<g id="a_node1"><a xlink:title=" ">
<polygon fill="#bfbfbf" stroke="black" points="0,-110.5 0,-140.5 130,-140.5 130,-110.5 0,-110.5"/>
<text text-anchor="start" x="8" y="-128.5" font-family="Helvetica,sans-Serif" font-size="10.00">log4cplus::helpers</text>
<text text-anchor="middle" x="65" y="-117.5" font-family="Helvetica,sans-Serif" font-size="10.00">::SharedObjectPtr&lt; T &gt;</text>
</a>
</g>
</g>
<!-- Node2 -->
<g id="node2" class="node">
<title>Node2</title>
<g id="a_node2"><a xlink:href="classlog4cplus_1_1helpers_1_1SharedObjectPtr.html" target="_top" xlink:title=" ">
<polygon fill="white" stroke="black" points="284,-220.5 284,-250.5 433,-250.5 433,-220.5 284,-220.5"/>
<text text-anchor="start" x="292" y="-238.5" font-family="Helvetica,sans-Serif" font-size="10.00">log4cplus::helpers</text>
<text text-anchor="middle" x="358.5" y="-227.5" font-family="Helvetica,sans-Serif" font-size="10.00">::SharedObjectPtr&lt; Filter &gt;</text>
</a>
</g>
</g>
<!-- Node1&#45;&gt;Node2 -->
<g id="edge1" class="edge">
<title>Node1&#45;&gt;Node2</title>
<path fill="none" stroke="orange" stroke-dasharray="5,2" d="M96.23,-146.04C111.3,-155.63 130.1,-166.64 148,-174.5 193.61,-194.53 247.64,-210.08 289.41,-220.47"/>
<polygon fill="orange" stroke="orange" points="98.11,-143.09 87.81,-140.59 94.3,-148.96 98.11,-143.09"/>
<text text-anchor="middle" x="199.5" y="-212.5" font-family="Helvetica,sans-Serif" font-size="10.00"> &lt; Filter &gt;</text>
</g>
<!-- Node3 -->
<g id="node3" class="node">
<title>Node3</title>
<g id="a_node3"><a xlink:href="classlog4cplus_1_1helpers_1_1SharedObjectPtr.html" target="_top" xlink:title=" ">
<polygon fill="white" stroke="black" points="282,-160 282,-201 435,-201 435,-160 282,-160"/>
<text text-anchor="start" x="290" y="-189" font-family="Helvetica,sans-Serif" font-size="10.00">log4cplus::helpers</text>
<text text-anchor="start" x="290" y="-178" font-family="Helvetica,sans-Serif" font-size="10.00">::SharedObjectPtr&lt; Abstract</text>
<text text-anchor="middle" x="358.5" y="-167" font-family="Helvetica,sans-Serif" font-size="10.00">Thread &gt;</text>
</a>
</g>
</g>
<!-- Node1&#45;&gt;Node3 -->
<g id="edge2" class="edge">
<title>Node1&#45;&gt;Node3</title>
<path fill="none" stroke="orange" stroke-dasharray="5,2" d="M140.26,-139.51C183.68,-147.7 238.35,-158.02 281.98,-166.25"/>
<polygon fill="orange" stroke="orange" points="140.81,-136.05 130.33,-137.64 139.51,-142.93 140.81,-136.05"/>
<text text-anchor="middle" x="199.5" y="-162.5" font-family="Helvetica,sans-Serif" font-size="10.00"> &lt; AbstractThread &gt;</text>
</g>
<!-- Node4 -->
<g id="node4" class="node">
<title>Node4</title>
<g id="a_node4"><a xlink:href="classlog4cplus_1_1helpers_1_1SharedObjectPtr.html" target="_top" xlink:title=" ">
<polygon fill="white" stroke="black" points="281,-110.5 281,-140.5 436,-140.5 436,-110.5 281,-110.5"/>
<text text-anchor="start" x="289" y="-128.5" font-family="Helvetica,sans-Serif" font-size="10.00">log4cplus::helpers</text>
<text text-anchor="middle" x="358.5" y="-117.5" font-family="Helvetica,sans-Serif" font-size="10.00">::SharedObjectPtr&lt; Queue &gt;</text>
</a>
</g>
</g>
<!-- Node1&#45;&gt;Node4 -->
<g id="edge3" class="edge">
<title>Node1&#45;&gt;Node4</title>
<path fill="none" stroke="orange" stroke-dasharray="5,2" d="M140.46,-125.5C183.5,-125.5 237.53,-125.5 280.92,-125.5"/>
<polygon fill="orange" stroke="orange" points="140.33,-122 130.33,-125.5 140.33,-129 140.33,-122"/>
<text text-anchor="middle" x="199.5" y="-128.5" font-family="Helvetica,sans-Serif" font-size="10.00"> &lt; Queue &gt;</text>
</g>
<!-- Node5 -->
<g id="node5" class="node">
<title>Node5</title>
<g id="a_node5"><a xlink:href="classlog4cplus_1_1helpers_1_1SharedObjectPtr.html" target="_top" xlink:title=" ">
<polygon fill="white" stroke="black" points="279,-50 279,-91 438,-91 438,-50 279,-50"/>
<text text-anchor="start" x="287" y="-79" font-family="Helvetica,sans-Serif" font-size="10.00">log4cplus::helpers</text>
<text text-anchor="start" x="287" y="-68" font-family="Helvetica,sans-Serif" font-size="10.00">::SharedObjectPtr&lt; log4cplus</text>
<text text-anchor="middle" x="358.5" y="-57" font-family="Helvetica,sans-Serif" font-size="10.00">::helpers::ConnectorThread &gt;</text>
</a>
</g>
</g>
<!-- Node1&#45;&gt;Node5 -->
<g id="edge4" class="edge">
<title>Node1&#45;&gt;Node5</title>
<path fill="none" stroke="orange" stroke-dasharray="5,2" d="M118.24,-107.48C128.05,-104.52 138.28,-101.7 148,-99.5 190.8,-89.83 239.29,-82.86 278.83,-78.19"/>
<polygon fill="orange" stroke="orange" points="117.11,-104.17 108.61,-110.48 119.2,-110.85 117.11,-104.17"/>
<text text-anchor="start" x="148" y="-113.5" font-family="Helvetica,sans-Serif" font-size="10.00"> &lt; log4cplus::helpers</text>
<text text-anchor="middle" x="199.5" y="-102.5" font-family="Helvetica,sans-Serif" font-size="10.00">::ConnectorThread &gt;</text>
</g>
<!-- Node6 -->
<g id="node6" class="node">
<title>Node6</title>
<g id="a_node6"><a xlink:href="classlog4cplus_1_1helpers_1_1SharedObjectPtr.html" target="_top" xlink:title=" ">
<polygon fill="white" stroke="black" points="269,-0.5 269,-30.5 448,-30.5 448,-0.5 269,-0.5"/>
<text text-anchor="start" x="277" y="-18.5" font-family="Helvetica,sans-Serif" font-size="10.00">log4cplus::helpers</text>
<text text-anchor="middle" x="358.5" y="-7.5" font-family="Helvetica,sans-Serif" font-size="10.00">::SharedObjectPtr&lt; LoggerImpl &gt;</text>
</a>
</g>
</g>
<!-- Node1&#45;&gt;Node6 -->
<g id="edge5" class="edge">
<title>Node1&#45;&gt;Node6</title>
<path fill="none" stroke="orange" stroke-dasharray="5,2" d="M91.01,-103.6C106.49,-91.08 127.3,-76.03 148,-66.5 185.92,-49.05 230.55,-37.13 268.85,-29.23"/>
<polygon fill="orange" stroke="orange" points="88.46,-101.17 82.99,-110.24 92.93,-106.56 88.46,-101.17"/>
<text text-anchor="middle" x="199.5" y="-69.5" font-family="Helvetica,sans-Serif" font-size="10.00"> &lt; LoggerImpl &gt;</text>
</g>
</g>
</svg>
