<?xml version="1.0" encoding="UTF-8" standalone="no"?>
<!DOCTYPE svg PUBLIC "-//W3C//DTD SVG 1.1//EN"
 "http://www.w3.org/Graphics/SVG/1.1/DTD/svg11.dtd">
<!-- Generated by graphviz version 2.43.0 (0)
 -->
<!-- Title: log4cplus::FileAppender Pages: 1 -->
<svg width="340pt" height="274pt"
 viewBox="0.00 0.00 339.50 274.00" xmlns="http://www.w3.org/2000/svg" xmlns:xlink="http://www.w3.org/1999/xlink">
<g id="graph0" class="graph" transform="scale(1 1) rotate(0) translate(4 270)">
<title>log4cplus::FileAppender</title>
<polygon fill="white" stroke="transparent" points="-4,4 -4,-270 335.5,-270 335.5,4 -4,4"/>
<!-- Node1 -->
<g id="node1" class="node">
<title>Node1</title>
<g id="a_node1"><a xlink:title="Appends log events to a file.">
<polygon fill="#bfbfbf" stroke="black" points="93.5,-67.5 93.5,-86.5 226.5,-86.5 226.5,-67.5 93.5,-67.5"/>
<text text-anchor="middle" x="160" y="-74.5" font-family="Helvetica,sans-Serif" font-size="10.00">log4cplus::FileAppender</text>
</a>
</g>
</g>
<!-- Node5 -->
<g id="node5" class="node">
<title>Node5</title>
<g id="a_node5"><a xlink:href="classlog4cplus_1_1DailyRollingFileAppender.html" target="_top" xlink:title="DailyRollingFileAppender extends FileAppender so that the underlying file is rolled over at a user ch...">
<polygon fill="white" stroke="black" points="0,-0.5 0,-30.5 146,-30.5 146,-0.5 0,-0.5"/>
<text text-anchor="start" x="8" y="-18.5" font-family="Helvetica,sans-Serif" font-size="10.00">log4cplus::DailyRollingFile</text>
<text text-anchor="middle" x="73" y="-7.5" font-family="Helvetica,sans-Serif" font-size="10.00">Appender</text>
</a>
</g>
</g>
<!-- Node1&#45;&gt;Node5 -->
<g id="edge4" class="edge">
<title>Node1&#45;&gt;Node5</title>
<path fill="none" stroke="midnightblue" d="M139.15,-61.74C125.32,-52.28 107.26,-39.93 93.5,-30.52"/>
<polygon fill="midnightblue" stroke="midnightblue" points="137.3,-64.72 147.54,-67.48 141.26,-58.94 137.3,-64.72"/>
</g>
<!-- Node6 -->
<g id="node6" class="node">
<title>Node6</title>
<g id="a_node6"><a xlink:href="classlog4cplus_1_1RollingFileAppender.html" target="_top" xlink:title="RollingFileAppender extends FileAppender to backup the log files when they reach a certain size.">
<polygon fill="white" stroke="black" points="164.5,-6 164.5,-25 331.5,-25 331.5,-6 164.5,-6"/>
<text text-anchor="middle" x="248" y="-13" font-family="Helvetica,sans-Serif" font-size="10.00">log4cplus::RollingFileAppender</text>
</a>
</g>
</g>
<!-- Node1&#45;&gt;Node6 -->
<g id="edge5" class="edge">
<title>Node1&#45;&gt;Node6</title>
<path fill="none" stroke="midnightblue" d="M181.28,-61.61C198.2,-50.17 221.31,-34.55 235.42,-25.01"/>
<polygon fill="midnightblue" stroke="midnightblue" points="178.93,-58.97 172.61,-67.48 182.85,-64.77 178.93,-58.97"/>
</g>
<!-- Node2 -->
<g id="node2" class="node">
<title>Node2</title>
<g id="a_node2"><a xlink:href="classlog4cplus_1_1FileAppenderBase.html" target="_top" xlink:title="Base class for Appenders writing log events to a file.">
<polygon fill="white" stroke="black" points="81.5,-123.5 81.5,-142.5 238.5,-142.5 238.5,-123.5 81.5,-123.5"/>
<text text-anchor="middle" x="160" y="-130.5" font-family="Helvetica,sans-Serif" font-size="10.00">log4cplus::FileAppenderBase</text>
</a>
</g>
</g>
<!-- Node2&#45;&gt;Node1 -->
<g id="edge1" class="edge">
<title>Node2&#45;&gt;Node1</title>
<path fill="none" stroke="midnightblue" d="M160,-112.8C160,-103.91 160,-93.78 160,-86.75"/>
<polygon fill="midnightblue" stroke="midnightblue" points="156.5,-113.08 160,-123.08 163.5,-113.08 156.5,-113.08"/>
</g>
<!-- Node3 -->
<g id="node3" class="node">
<title>Node3</title>
<g id="a_node3"><a xlink:href="classlog4cplus_1_1Appender.html" target="_top" xlink:title="Extend this class for implementing your own strategies for printing log statements.">
<polygon fill="white" stroke="black" points="102,-179.5 102,-198.5 218,-198.5 218,-179.5 102,-179.5"/>
<text text-anchor="middle" x="160" y="-186.5" font-family="Helvetica,sans-Serif" font-size="10.00">log4cplus::Appender</text>
</a>
</g>
</g>
<!-- Node3&#45;&gt;Node2 -->
<g id="edge2" class="edge">
<title>Node3&#45;&gt;Node2</title>
<path fill="none" stroke="midnightblue" d="M160,-168.8C160,-159.91 160,-149.78 160,-142.75"/>
<polygon fill="midnightblue" stroke="midnightblue" points="156.5,-169.08 160,-179.08 163.5,-169.08 156.5,-169.08"/>
</g>
<!-- Node4 -->
<g id="node4" class="node">
<title>Node4</title>
<g id="a_node4"><a xlink:href="classlog4cplus_1_1helpers_1_1SharedObject.html" target="_top" xlink:title=" ">
<polygon fill="white" stroke="black" points="107.5,-235.5 107.5,-265.5 212.5,-265.5 212.5,-235.5 107.5,-235.5"/>
<text text-anchor="start" x="115.5" y="-253.5" font-family="Helvetica,sans-Serif" font-size="10.00">log4cplus::helpers</text>
<text text-anchor="middle" x="160" y="-242.5" font-family="Helvetica,sans-Serif" font-size="10.00">::SharedObject</text>
</a>
</g>
</g>
<!-- Node4&#45;&gt;Node3 -->
<g id="edge3" class="edge">
<title>Node4&#45;&gt;Node3</title>
<path fill="none" stroke="midnightblue" d="M160,-225.29C160,-215.86 160,-205.65 160,-198.66"/>
<polygon fill="midnightblue" stroke="midnightblue" points="156.5,-225.4 160,-235.4 163.5,-225.4 156.5,-225.4"/>
</g>
</g>
</svg>
