<?xml version="1.0" encoding="UTF-8" standalone="no"?>
<!DOCTYPE svg PUBLIC "-//W3C//DTD SVG 1.1//EN"
 "http://www.w3.org/Graphics/SVG/1.1/DTD/svg11.dtd">
<!-- Generated by graphviz version 2.43.0 (0)
 -->
<!-- Title: log4cplus::Log4jUdpAppender Pages: 1 -->
<svg width="784pt" height="137pt"
 viewBox="0.00 0.00 784.00 137.00" xmlns="http://www.w3.org/2000/svg" xmlns:xlink="http://www.w3.org/1999/xlink">
<g id="graph0" class="graph" transform="scale(1 1) rotate(0) translate(4 133)">
<title>log4cplus::Log4jUdpAppender</title>
<polygon fill="white" stroke="transparent" points="-4,4 -4,-133 780,-133 780,4 -4,4"/>
<!-- Node1 -->
<g id="node1" class="node">
<title>Node1</title>
<g id="a_node1"><a xlink:title="Sends log events as Log4j XML to a remote a log server.">
<polygon fill="#bfbfbf" stroke="black" points="615,-31 615,-50 776,-50 776,-31 615,-31"/>
<text text-anchor="middle" x="695.5" y="-38" font-family="Helvetica,sans-Serif" font-size="10.00">log4cplus::Log4jUdpAppender</text>
</a>
</g>
</g>
<!-- Node2 -->
<g id="node2" class="node">
<title>Node2</title>
<g id="a_node2"><a xlink:href="classlog4cplus_1_1Appender.html" target="_top" xlink:title="Extend this class for implementing your own strategies for printing log statements.">
<polygon fill="white" stroke="black" points="428,-55 428,-74 544,-74 544,-55 428,-55"/>
<text text-anchor="middle" x="486" y="-62" font-family="Helvetica,sans-Serif" font-size="10.00">log4cplus::Appender</text>
</a>
</g>
</g>
<!-- Node2&#45;&gt;Node1 -->
<g id="edge1" class="edge">
<title>Node2&#45;&gt;Node1</title>
<path fill="none" stroke="midnightblue" d="M554.18,-56.73C573.55,-54.49 594.87,-52.02 614.92,-49.7"/>
<polygon fill="midnightblue" stroke="midnightblue" points="553.78,-53.25 544.25,-57.88 554.59,-60.21 553.78,-53.25"/>
</g>
<!-- Node3 -->
<g id="node3" class="node">
<title>Node3</title>
<g id="a_node3"><a xlink:href="classlog4cplus_1_1helpers_1_1SharedObject.html" target="_top" xlink:title=" ">
<polygon fill="white" stroke="black" points="239,-98.5 239,-128.5 344,-128.5 344,-98.5 239,-98.5"/>
<text text-anchor="start" x="247" y="-116.5" font-family="Helvetica,sans-Serif" font-size="10.00">log4cplus::helpers</text>
<text text-anchor="middle" x="291.5" y="-105.5" font-family="Helvetica,sans-Serif" font-size="10.00">::SharedObject</text>
</a>
</g>
</g>
<!-- Node3&#45;&gt;Node2 -->
<g id="edge2" class="edge">
<title>Node3&#45;&gt;Node2</title>
<path fill="none" stroke="midnightblue" d="M353.88,-97.88C384.7,-90.03 421.03,-80.78 447.62,-74.01"/>
<polygon fill="midnightblue" stroke="midnightblue" points="352.91,-94.51 344.09,-100.37 354.64,-101.29 352.91,-94.51"/>
</g>
<!-- Node4 -->
<g id="node4" class="node">
<title>Node4</title>
<g id="a_node4"><a xlink:href="classlog4cplus_1_1helpers_1_1SharedObjectPtr.html" target="_top" xlink:title=" ">
<polygon fill="white" stroke="black" points="217,-49.5 217,-79.5 366,-79.5 366,-49.5 217,-49.5"/>
<text text-anchor="start" x="225" y="-67.5" font-family="Helvetica,sans-Serif" font-size="10.00">log4cplus::helpers</text>
<text text-anchor="middle" x="291.5" y="-56.5" font-family="Helvetica,sans-Serif" font-size="10.00">::SharedObjectPtr&lt; Filter &gt;</text>
</a>
</g>
</g>
<!-- Node4&#45;&gt;Node2 -->
<g id="edge3" class="edge">
<title>Node4&#45;&gt;Node2</title>
<path fill="none" stroke="#9a32cd" stroke-dasharray="5,2" d="M376.28,-64.5C393.71,-64.5 411.7,-64.5 427.9,-64.5"/>
<polygon fill="#9a32cd" stroke="#9a32cd" points="376.1,-61 366.1,-64.5 376.1,-68 376.1,-61"/>
<text text-anchor="middle" x="397" y="-67.5" font-family="Helvetica,sans-Serif" font-size="10.00"> filter</text>
</g>
<!-- Node5 -->
<g id="node5" class="node">
<title>Node5</title>
<g id="a_node5"><a xlink:href="classlog4cplus_1_1helpers_1_1SharedObjectPtr.html" target="_top" xlink:title=" ">
<polygon fill="white" stroke="black" points="0,-49.5 0,-79.5 130,-79.5 130,-49.5 0,-49.5"/>
<text text-anchor="start" x="8" y="-67.5" font-family="Helvetica,sans-Serif" font-size="10.00">log4cplus::helpers</text>
<text text-anchor="middle" x="65" y="-56.5" font-family="Helvetica,sans-Serif" font-size="10.00">::SharedObjectPtr&lt; T &gt;</text>
</a>
</g>
</g>
<!-- Node5&#45;&gt;Node4 -->
<g id="edge4" class="edge">
<title>Node5&#45;&gt;Node4</title>
<path fill="none" stroke="orange" stroke-dasharray="5,2" d="M140.06,-64.5C164.75,-64.5 192.23,-64.5 216.88,-64.5"/>
<polygon fill="orange" stroke="orange" points="140.03,-61 130.03,-64.5 140.03,-68 140.03,-61"/>
<text text-anchor="middle" x="173.5" y="-67.5" font-family="Helvetica,sans-Serif" font-size="10.00"> &lt; Filter &gt;</text>
</g>
<!-- Node6 -->
<g id="node6" class="node">
<title>Node6</title>
<g id="a_node6"><a xlink:href="classlog4cplus_1_1helpers_1_1Socket.html" target="_top" xlink:title="This class implements client sockets (also called just &quot;sockets&quot;).">
<polygon fill="white" stroke="black" points="433.5,-3.5 433.5,-33.5 538.5,-33.5 538.5,-3.5 433.5,-3.5"/>
<text text-anchor="start" x="441.5" y="-21.5" font-family="Helvetica,sans-Serif" font-size="10.00">log4cplus::helpers</text>
<text text-anchor="middle" x="486" y="-10.5" font-family="Helvetica,sans-Serif" font-size="10.00">::Socket</text>
</a>
</g>
</g>
<!-- Node6&#45;&gt;Node1 -->
<g id="edge5" class="edge">
<title>Node6&#45;&gt;Node1</title>
<path fill="none" stroke="#9a32cd" stroke-dasharray="5,2" d="M548.54,-25.02C569.35,-27.23 592.9,-29.73 614.91,-32.06"/>
<polygon fill="#9a32cd" stroke="#9a32cd" points="548.87,-21.54 538.56,-23.97 548.13,-28.5 548.87,-21.54"/>
<text text-anchor="middle" x="579.5" y="-33.5" font-family="Helvetica,sans-Serif" font-size="10.00"> socket</text>
</g>
<!-- Node7 -->
<g id="node7" class="node">
<title>Node7</title>
<g id="a_node7"><a xlink:href="classlog4cplus_1_1helpers_1_1AbstractSocket.html" target="_top" xlink:title=" ">
<polygon fill="white" stroke="black" points="239,-0.5 239,-30.5 344,-30.5 344,-0.5 239,-0.5"/>
<text text-anchor="start" x="247" y="-18.5" font-family="Helvetica,sans-Serif" font-size="10.00">log4cplus::helpers</text>
<text text-anchor="middle" x="291.5" y="-7.5" font-family="Helvetica,sans-Serif" font-size="10.00">::AbstractSocket</text>
</a>
</g>
</g>
<!-- Node7&#45;&gt;Node6 -->
<g id="edge6" class="edge">
<title>Node7&#45;&gt;Node6</title>
<path fill="none" stroke="midnightblue" d="M354.38,-16.46C379.83,-16.86 408.98,-17.32 433.27,-17.69"/>
<polygon fill="midnightblue" stroke="midnightblue" points="354.14,-12.96 344.09,-16.3 354.03,-19.96 354.14,-12.96"/>
</g>
</g>
</svg>
