<?xml version="1.0" encoding="UTF-8" standalone="no"?>
<!DOCTYPE svg PUBLIC "-//W3C//DTD SVG 1.1//EN"
 "http://www.w3.org/Graphics/SVG/1.1/DTD/svg11.dtd">
<!-- Generated by graphviz version 2.43.0 (0)
 -->
<!-- Title: log4cplus::PropertyConfigurator Pages: 1 -->
<svg width="248pt" height="106pt"
 viewBox="0.00 0.00 247.50 106.00" xmlns="http://www.w3.org/2000/svg" xmlns:xlink="http://www.w3.org/1999/xlink">
<g id="graph0" class="graph" transform="scale(1 1) rotate(0) translate(4 102)">
<title>log4cplus::PropertyConfigurator</title>
<polygon fill="white" stroke="transparent" points="-4,4 -4,-102 243.5,-102 243.5,4 -4,4"/>
<!-- Node1 -->
<g id="node1" class="node">
<title>Node1</title>
<g id="a_node1"><a xlink:title="Provides configuration from an external file.">
<polygon fill="#bfbfbf" stroke="black" points="37,-0.5 37,-19.5 207,-19.5 207,-0.5 37,-0.5"/>
<text text-anchor="middle" x="122" y="-7.5" font-family="Helvetica,sans-Serif" font-size="10.00">log4cplus::PropertyConfigurator</text>
</a>
</g>
</g>
<!-- Node2 -->
<g id="node2" class="node">
<title>Node2</title>
<g id="a_node2"><a xlink:href="classlog4cplus_1_1Hierarchy.html" target="_top" xlink:title="This class is specialized in retrieving loggers by name and also maintaining the logger hierarchy.">
<polygon fill="white" stroke="black" points="0,-73 0,-92 116,-92 116,-73 0,-73"/>
<text text-anchor="middle" x="58" y="-80" font-family="Helvetica,sans-Serif" font-size="10.00">log4cplus::Hierarchy</text>
</a>
</g>
</g>
<!-- Node2&#45;&gt;Node1 -->
<g id="edge1" class="edge">
<title>Node2&#45;&gt;Node1</title>
<path fill="none" stroke="#9a32cd" stroke-dasharray="5,2" d="M72.71,-65.3C85.58,-51.12 103.79,-31.06 114.09,-19.72"/>
<polygon fill="#9a32cd" stroke="#9a32cd" points="69.98,-63.1 65.85,-72.86 75.16,-67.8 69.98,-63.1"/>
<text text-anchor="middle" x="101" y="-41" font-family="Helvetica,sans-Serif" font-size="10.00"> h</text>
</g>
<!-- Node3 -->
<g id="node3" class="node">
<title>Node3</title>
<g id="a_node3"><a xlink:href="classlog4cplus_1_1helpers_1_1Properties.html" target="_top" xlink:title=" ">
<polygon fill="white" stroke="black" points="134.5,-67.5 134.5,-97.5 239.5,-97.5 239.5,-67.5 134.5,-67.5"/>
<text text-anchor="start" x="142.5" y="-85.5" font-family="Helvetica,sans-Serif" font-size="10.00">log4cplus::helpers</text>
<text text-anchor="middle" x="187" y="-74.5" font-family="Helvetica,sans-Serif" font-size="10.00">::Properties</text>
</a>
</g>
</g>
<!-- Node3&#45;&gt;Node1 -->
<g id="edge2" class="edge">
<title>Node3&#45;&gt;Node1</title>
<path fill="none" stroke="#9a32cd" stroke-dasharray="5,2" d="M166.96,-59.76C154.59,-46.34 139.38,-29.85 130.2,-19.89"/>
<polygon fill="#9a32cd" stroke="#9a32cd" points="164.49,-62.25 173.85,-67.23 169.64,-57.51 164.49,-62.25"/>
<text text-anchor="middle" x="182.5" y="-41" font-family="Helvetica,sans-Serif" font-size="10.00"> properties</text>
</g>
</g>
</svg>
