<?xml version="1.0" encoding="UTF-8" standalone="no"?>
<!DOCTYPE svg PUBLIC "-//W3C//DTD SVG 1.1//EN"
 "http://www.w3.org/Graphics/SVG/1.1/DTD/svg11.dtd">
<!-- Generated by graphviz version 2.43.0 (0)
 -->
<!-- Title: log4cplus::thread::AbstractThread Pages: 1 -->
<svg width="115pt" height="173pt"
 viewBox="0.00 0.00 115.00 173.00" xmlns="http://www.w3.org/2000/svg" xmlns:xlink="http://www.w3.org/1999/xlink">
<g id="graph0" class="graph" transform="scale(1 1) rotate(0) translate(4 169)">
<title>log4cplus::thread::AbstractThread</title>
<polygon fill="white" stroke="transparent" points="-4,4 -4,-169 111,-169 111,4 -4,4"/>
<!-- Node1 -->
<g id="node1" class="node">
<title>Node1</title>
<g id="a_node1"><a xlink:title="There are many cross&#45;platform C++ Threading libraries.">
<polygon fill="#bfbfbf" stroke="black" points="0,-67.5 0,-97.5 107,-97.5 107,-67.5 0,-67.5"/>
<text text-anchor="start" x="8" y="-85.5" font-family="Helvetica,sans-Serif" font-size="10.00">log4cplus::thread::</text>
<text text-anchor="middle" x="53.5" y="-74.5" font-family="Helvetica,sans-Serif" font-size="10.00">AbstractThread</text>
</a>
</g>
</g>
<!-- Node3 -->
<g id="node3" class="node">
<title>Node3</title>
<g id="a_node3"><a xlink:href="classlog4cplus_1_1helpers_1_1ConnectorThread.html" target="_top" xlink:title="This class is used by SocketAppender and (remote) SysLogAppender to provide asynchronous re&#45;connectio...">
<polygon fill="white" stroke="black" points="0.5,-0.5 0.5,-30.5 106.5,-30.5 106.5,-0.5 0.5,-0.5"/>
<text text-anchor="start" x="8.5" y="-18.5" font-family="Helvetica,sans-Serif" font-size="10.00">log4cplus::helpers</text>
<text text-anchor="middle" x="53.5" y="-7.5" font-family="Helvetica,sans-Serif" font-size="10.00">::ConnectorThread</text>
</a>
</g>
</g>
<!-- Node1&#45;&gt;Node3 -->
<g id="edge2" class="edge">
<title>Node1&#45;&gt;Node3</title>
<path fill="none" stroke="midnightblue" d="M53.5,-57.11C53.5,-48.15 53.5,-38.32 53.5,-30.58"/>
<polygon fill="midnightblue" stroke="midnightblue" points="50,-57.4 53.5,-67.4 57,-57.4 50,-57.4"/>
</g>
<!-- Node2 -->
<g id="node2" class="node">
<title>Node2</title>
<g id="a_node2"><a xlink:href="classlog4cplus_1_1helpers_1_1SharedObject.html" target="_top" xlink:title=" ">
<polygon fill="white" stroke="black" points="1,-134.5 1,-164.5 106,-164.5 106,-134.5 1,-134.5"/>
<text text-anchor="start" x="9" y="-152.5" font-family="Helvetica,sans-Serif" font-size="10.00">log4cplus::helpers</text>
<text text-anchor="middle" x="53.5" y="-141.5" font-family="Helvetica,sans-Serif" font-size="10.00">::SharedObject</text>
</a>
</g>
</g>
<!-- Node2&#45;&gt;Node1 -->
<g id="edge1" class="edge">
<title>Node2&#45;&gt;Node1</title>
<path fill="none" stroke="midnightblue" d="M53.5,-124.11C53.5,-115.15 53.5,-105.32 53.5,-97.58"/>
<polygon fill="midnightblue" stroke="midnightblue" points="50,-124.4 53.5,-134.4 57,-124.4 50,-124.4"/>
</g>
</g>
</svg>
