<?xml version="1.0" encoding="UTF-8" standalone="no"?>
<!DOCTYPE svg PUBLIC "-//W3C//DTD SVG 1.1//EN"
 "http://www.w3.org/Graphics/SVG/1.1/DTD/svg11.dtd">
<!-- Generated by graphviz version 2.43.0 (0)
 -->
<!-- Title: log4cplus::spi::Filter Pages: 1 -->
<svg width="280pt" height="184pt"
 viewBox="0.00 0.00 280.00 184.00" xmlns="http://www.w3.org/2000/svg" xmlns:xlink="http://www.w3.org/1999/xlink">
<g id="graph0" class="graph" transform="scale(1 1) rotate(0) translate(4 180)">
<title>log4cplus::spi::Filter</title>
<polygon fill="white" stroke="transparent" points="-4,4 -4,-180 276,-180 276,4 -4,4"/>
<!-- Node1 -->
<g id="node1" class="node">
<title>Node1</title>
<g id="a_node1"><a xlink:title="Users should extend this class to implement customized logging event filtering.">
<polygon fill="#bfbfbf" stroke="black" points="39.5,-0.5 39.5,-19.5 153.5,-19.5 153.5,-0.5 39.5,-0.5"/>
<text text-anchor="middle" x="96.5" y="-7.5" font-family="Helvetica,sans-Serif" font-size="10.00">log4cplus::spi::Filter</text>
</a>
</g>
</g>
<!-- Node2 -->
<g id="node2" class="node">
<title>Node2</title>
<g id="a_node2"><a xlink:href="classlog4cplus_1_1helpers_1_1SharedObject.html" target="_top" xlink:title=" ">
<polygon fill="white" stroke="black" points="0,-67.5 0,-97.5 105,-97.5 105,-67.5 0,-67.5"/>
<text text-anchor="start" x="8" y="-85.5" font-family="Helvetica,sans-Serif" font-size="10.00">log4cplus::helpers</text>
<text text-anchor="middle" x="52.5" y="-74.5" font-family="Helvetica,sans-Serif" font-size="10.00">::SharedObject</text>
</a>
</g>
</g>
<!-- Node2&#45;&gt;Node1 -->
<g id="edge1" class="edge">
<title>Node2&#45;&gt;Node1</title>
<path fill="none" stroke="midnightblue" d="M66.78,-58.63C75.02,-45.42 84.91,-29.57 90.95,-19.89"/>
<polygon fill="midnightblue" stroke="midnightblue" points="63.73,-56.9 61.4,-67.23 69.67,-60.6 63.73,-56.9"/>
</g>
<!-- Node3 -->
<g id="node3" class="node">
<title>Node3</title>
<g id="a_node3"><a xlink:href="classlog4cplus_1_1helpers_1_1SharedObjectPtr.html" target="_top" xlink:title=" ">
<polygon fill="white" stroke="black" points="123,-67.5 123,-97.5 272,-97.5 272,-67.5 123,-67.5"/>
<text text-anchor="start" x="131" y="-85.5" font-family="Helvetica,sans-Serif" font-size="10.00">log4cplus::helpers</text>
<text text-anchor="middle" x="197.5" y="-74.5" font-family="Helvetica,sans-Serif" font-size="10.00">::SharedObjectPtr&lt; Filter &gt;</text>
</a>
</g>
</g>
<!-- Node3&#45;&gt;Node1 -->
<g id="edge2" class="edge">
<title>Node3&#45;&gt;Node1</title>
<path fill="none" stroke="#9a32cd" stroke-dasharray="5,2" d="M168.71,-61.4C148.97,-47.62 123.76,-30.03 108.95,-19.69"/>
<polygon fill="#9a32cd" stroke="#9a32cd" points="166.86,-64.38 177.06,-67.23 170.86,-58.64 166.86,-64.38"/>
<text text-anchor="middle" x="162" y="-41" font-family="Helvetica,sans-Serif" font-size="10.00"> next</text>
</g>
<!-- Node4 -->
<g id="node4" class="node">
<title>Node4</title>
<g id="a_node4"><a xlink:href="classlog4cplus_1_1helpers_1_1SharedObjectPtr.html" target="_top" xlink:title=" ">
<polygon fill="white" stroke="black" points="132.5,-145.5 132.5,-175.5 262.5,-175.5 262.5,-145.5 132.5,-145.5"/>
<text text-anchor="start" x="140.5" y="-163.5" font-family="Helvetica,sans-Serif" font-size="10.00">log4cplus::helpers</text>
<text text-anchor="middle" x="197.5" y="-152.5" font-family="Helvetica,sans-Serif" font-size="10.00">::SharedObjectPtr&lt; T &gt;</text>
</a>
</g>
</g>
<!-- Node4&#45;&gt;Node3 -->
<g id="edge3" class="edge">
<title>Node4&#45;&gt;Node3</title>
<path fill="none" stroke="orange" stroke-dasharray="5,2" d="M197.5,-135.09C197.5,-122.76 197.5,-108.22 197.5,-97.73"/>
<polygon fill="orange" stroke="orange" points="194,-135.2 197.5,-145.2 201,-135.21 194,-135.2"/>
<text text-anchor="middle" x="223" y="-119" font-family="Helvetica,sans-Serif" font-size="10.00"> &lt; Filter &gt;</text>
</g>
</g>
</svg>
