<?xml version="1.0" encoding="UTF-8" standalone="no"?>
<!DOCTYPE svg PUBLIC "-//W3C//DTD SVG 1.1//EN"
 "http://www.w3.org/Graphics/SVG/1.1/DTD/svg11.dtd">
<!-- Generated by graphviz version 2.43.0 (0)
 -->
<!-- Title: log4cplus::helpers::SharedObject Pages: 1 -->
<svg width="928pt" height="1043pt"
 viewBox="0.00 0.00 928.00 1042.50" xmlns="http://www.w3.org/2000/svg" xmlns:xlink="http://www.w3.org/1999/xlink">
<g id="graph0" class="graph" transform="scale(1 1) rotate(0) translate(4 1038.5)">
<title>log4cplus::helpers::SharedObject</title>
<polygon fill="white" stroke="transparent" points="-4,4 -4,-1038.5 924,-1038.5 924,4 -4,4"/>
<!-- Node1 -->
<g id="node1" class="node">
<title>Node1</title>
<g id="a_node1"><a xlink:title=" ">
<polygon fill="#bfbfbf" stroke="black" points="0,-216.5 0,-246.5 105,-246.5 105,-216.5 0,-216.5"/>
<text text-anchor="start" x="8" y="-234.5" font-family="Helvetica,sans-Serif" font-size="10.00">log4cplus::helpers</text>
<text text-anchor="middle" x="52.5" y="-223.5" font-family="Helvetica,sans-Serif" font-size="10.00">::SharedObject</text>
</a>
</g>
</g>
<!-- Node2 -->
<g id="node2" class="node">
<title>Node2</title>
<g id="a_node2"><a xlink:href="classlog4cplus_1_1Appender.html" target="_top" xlink:title="Extend this class for implementing your own strategies for printing log statements.">
<polygon fill="white" stroke="black" points="163.5,-718 163.5,-737 279.5,-737 279.5,-718 163.5,-718"/>
<text text-anchor="middle" x="221.5" y="-725" font-family="Helvetica,sans-Serif" font-size="10.00">log4cplus::Appender</text>
</a>
</g>
</g>
<!-- Node1&#45;&gt;Node2 -->
<g id="edge1" class="edge">
<title>Node1&#45;&gt;Node2</title>
<path fill="none" stroke="midnightblue" d="M61.86,-256.34C92.47,-347.23 197.59,-659.44 217.3,-718"/>
<polygon fill="midnightblue" stroke="midnightblue" points="65.1,-254.98 58.59,-246.62 58.46,-257.21 65.1,-254.98"/>
</g>
<!-- Node22 -->
<g id="node22" class="node">
<title>Node22</title>
<g id="a_node22"><a xlink:href="classlog4cplus_1_1LogLevelTranslator.html" target="_top" xlink:title="This is a base class used by LogLevelManager to translate between numeric LogLevel and log level name...">
<polygon fill="white" stroke="black" points="141,-353 141,-372 302,-372 302,-353 141,-353"/>
<text text-anchor="middle" x="221.5" y="-360" font-family="Helvetica,sans-Serif" font-size="10.00">log4cplus::LogLevelTranslator</text>
</a>
</g>
</g>
<!-- Node1&#45;&gt;Node22 -->
<g id="edge21" class="edge">
<title>Node1&#45;&gt;Node22</title>
<path fill="none" stroke="midnightblue" d="M80.95,-253.03C117.73,-281.88 181.45,-331.87 208.16,-352.82"/>
<polygon fill="midnightblue" stroke="midnightblue" points="82.69,-249.95 72.66,-246.53 78.36,-255.45 82.69,-249.95"/>
</g>
<!-- Node24 -->
<g id="node24" class="node">
<title>Node24</title>
<g id="a_node24"><a xlink:href="classlog4cplus_1_1spi_1_1Filter.html" target="_top" xlink:title="Users should extend this class to implement customized logging event filtering.">
<polygon fill="white" stroke="black" points="164.5,-241 164.5,-260 278.5,-260 278.5,-241 164.5,-241"/>
<text text-anchor="middle" x="221.5" y="-248" font-family="Helvetica,sans-Serif" font-size="10.00">log4cplus::spi::Filter</text>
</a>
</g>
</g>
<!-- Node1&#45;&gt;Node24 -->
<g id="edge23" class="edge">
<title>Node1&#45;&gt;Node24</title>
<path fill="none" stroke="midnightblue" d="M115.7,-238.58C131.62,-240.39 148.65,-242.33 164.26,-244.1"/>
<polygon fill="midnightblue" stroke="midnightblue" points="115.76,-235.06 105.42,-237.41 114.96,-242.02 115.76,-235.06"/>
</g>
<!-- Node32 -->
<g id="node32" class="node">
<title>Node32</title>
<g id="a_node32"><a xlink:href="classlog4cplus_1_1spi_1_1LoggerImpl.html" target="_top" xlink:title="This is the central class in the log4cplus package.">
<polygon fill="white" stroke="black" points="149.5,-203 149.5,-222 293.5,-222 293.5,-203 149.5,-203"/>
<text text-anchor="middle" x="221.5" y="-210" font-family="Helvetica,sans-Serif" font-size="10.00">log4cplus::spi::LoggerImpl</text>
</a>
</g>
</g>
<!-- Node1&#45;&gt;Node32 -->
<g id="edge31" class="edge">
<title>Node1&#45;&gt;Node32</title>
<path fill="none" stroke="midnightblue" d="M115.39,-224.46C126.43,-223.2 138.01,-221.89 149.29,-220.6"/>
<polygon fill="midnightblue" stroke="midnightblue" points="114.96,-220.98 105.42,-225.59 115.76,-227.94 114.96,-220.98"/>
</g>
<!-- Node34 -->
<g id="node34" class="node">
<title>Node34</title>
<g id="a_node34"><a xlink:href="classlog4cplus_1_1thread_1_1AbstractThread.html" target="_top" xlink:title="There are many cross&#45;platform C++ Threading libraries.">
<polygon fill="white" stroke="black" points="168,-153.5 168,-183.5 275,-183.5 275,-153.5 168,-153.5"/>
<text text-anchor="start" x="176" y="-171.5" font-family="Helvetica,sans-Serif" font-size="10.00">log4cplus::thread::</text>
<text text-anchor="middle" x="221.5" y="-160.5" font-family="Helvetica,sans-Serif" font-size="10.00">AbstractThread</text>
</a>
</g>
</g>
<!-- Node1&#45;&gt;Node34 -->
<g id="edge33" class="edge">
<title>Node1&#45;&gt;Node34</title>
<path fill="none" stroke="midnightblue" d="M95.14,-212.35C109.54,-206.02 125.85,-199.15 141,-193.5 150.22,-190.06 160.15,-186.68 169.76,-183.58"/>
<polygon fill="midnightblue" stroke="midnightblue" points="93.71,-209.16 85.99,-216.42 96.55,-215.56 93.71,-209.16"/>
</g>
<!-- Node36 -->
<g id="node36" class="node">
<title>Node36</title>
<g id="a_node36"><a xlink:href="classlog4cplus_1_1thread_1_1Queue.html" target="_top" xlink:title="Single consumer, multiple producers queue.">
<polygon fill="white" stroke="black" points="168,-104.5 168,-134.5 275,-134.5 275,-104.5 168,-104.5"/>
<text text-anchor="start" x="176" y="-122.5" font-family="Helvetica,sans-Serif" font-size="10.00">log4cplus::thread::</text>
<text text-anchor="middle" x="221.5" y="-111.5" font-family="Helvetica,sans-Serif" font-size="10.00">Queue</text>
</a>
</g>
</g>
<!-- Node1&#45;&gt;Node36 -->
<g id="edge35" class="edge">
<title>Node1&#45;&gt;Node36</title>
<path fill="none" stroke="midnightblue" d="M71.21,-208.53C87.43,-188.95 113.09,-161.37 141,-144.5 149.17,-139.56 158.42,-135.51 167.63,-132.21"/>
<polygon fill="midnightblue" stroke="midnightblue" points="68.43,-206.4 64.86,-216.37 73.87,-210.8 68.43,-206.4"/>
</g>
<!-- Node3 -->
<g id="node3" class="node">
<title>Node3</title>
<g id="a_node3"><a xlink:href="classlog4cplus_1_1AsyncAppender.html" target="_top" xlink:title="This Appender is a wrapper to which other appenders can be attached.">
<polygon fill="white" stroke="black" points="358,-1015 358,-1034 503,-1034 503,-1015 358,-1015"/>
<text text-anchor="middle" x="430.5" y="-1022" font-family="Helvetica,sans-Serif" font-size="10.00">log4cplus::AsyncAppender</text>
</a>
</g>
</g>
<!-- Node2&#45;&gt;Node3 -->
<g id="edge2" class="edge">
<title>Node2&#45;&gt;Node3</title>
<path fill="none" stroke="midnightblue" d="M224.51,-747.38C230.82,-798.79 255.06,-936.92 338,-1005.5 343.88,-1010.36 350.68,-1014.07 357.87,-1016.9"/>
<polygon fill="midnightblue" stroke="midnightblue" points="227.97,-746.81 223.37,-737.27 221.01,-747.6 227.97,-746.81"/>
</g>
<!-- Node4 -->
<g id="node4" class="node">
<title>Node4</title>
<g id="a_node4"><a xlink:href="classlog4cplus_1_1CLFSAppender.html" target="_top" xlink:title=" ">
<polygon fill="white" stroke="black" points="360.5,-977 360.5,-996 500.5,-996 500.5,-977 360.5,-977"/>
<text text-anchor="middle" x="430.5" y="-984" font-family="Helvetica,sans-Serif" font-size="10.00">log4cplus::CLFSAppender</text>
</a>
</g>
</g>
<!-- Node2&#45;&gt;Node4 -->
<g id="edge3" class="edge">
<title>Node2&#45;&gt;Node4</title>
<path fill="none" stroke="midnightblue" d="M225.88,-747.13C234.95,-793.44 264.29,-909.88 338,-967.5 344.65,-972.7 352.37,-976.56 360.45,-979.43"/>
<polygon fill="midnightblue" stroke="midnightblue" points="229.3,-746.38 224.04,-737.18 222.42,-747.65 229.3,-746.38"/>
</g>
<!-- Node5 -->
<g id="node5" class="node">
<title>Node5</title>
<g id="a_node5"><a xlink:href="classlog4cplus_1_1CallbackAppender.html" target="_top" xlink:title="Send log events to a C function callback.">
<polygon fill="white" stroke="black" points="351.5,-939 351.5,-958 509.5,-958 509.5,-939 351.5,-939"/>
<text text-anchor="middle" x="430.5" y="-946" font-family="Helvetica,sans-Serif" font-size="10.00">log4cplus::CallbackAppender</text>
</a>
</g>
</g>
<!-- Node2&#45;&gt;Node5 -->
<g id="edge4" class="edge">
<title>Node2&#45;&gt;Node5</title>
<path fill="none" stroke="midnightblue" d="M227.83,-747.33C239.94,-788.38 273.62,-882.75 338,-929.5 343.25,-933.31 349.1,-936.4 355.22,-938.89"/>
<polygon fill="midnightblue" stroke="midnightblue" points="231.12,-746.13 225.03,-737.46 224.39,-748.03 231.12,-746.13"/>
</g>
<!-- Node6 -->
<g id="node6" class="node">
<title>Node6</title>
<g id="a_node6"><a xlink:href="classlog4cplus_1_1ConsoleAppender.html" target="_top" xlink:title="ConsoleAppender appends log events to std::cout or std::cerr using a layout specified by the user.">
<polygon fill="white" stroke="black" points="353,-901 353,-920 508,-920 508,-901 353,-901"/>
<text text-anchor="middle" x="430.5" y="-908" font-family="Helvetica,sans-Serif" font-size="10.00">log4cplus::ConsoleAppender</text>
</a>
</g>
</g>
<!-- Node2&#45;&gt;Node6 -->
<g id="edge5" class="edge">
<title>Node2&#45;&gt;Node6</title>
<path fill="none" stroke="midnightblue" d="M230.25,-746.67C245.39,-781.5 282.33,-854.95 338,-891.5 343.83,-895.33 350.29,-898.41 356.99,-900.88"/>
<polygon fill="midnightblue" stroke="midnightblue" points="233.36,-745.04 226.26,-737.18 226.91,-747.76 233.36,-745.04"/>
</g>
<!-- Node7 -->
<g id="node7" class="node">
<title>Node7</title>
<g id="a_node7"><a xlink:href="classlog4cplus_1_1DeviceAppender.html" target="_top" xlink:title="This appender wraps Boost IOStreams&#39; Device concept instance as underlying sink for the appender.">
<polygon fill="white" stroke="black" points="356,-851.5 356,-881.5 505,-881.5 505,-851.5 356,-851.5"/>
<text text-anchor="start" x="364" y="-869.5" font-family="Helvetica,sans-Serif" font-size="10.00">log4cplus::DeviceAppender</text>
<text text-anchor="middle" x="430.5" y="-858.5" font-family="Helvetica,sans-Serif" font-size="10.00">&lt; Device &gt;</text>
</a>
</g>
</g>
<!-- Node2&#45;&gt;Node7 -->
<g id="edge6" class="edge">
<title>Node2&#45;&gt;Node7</title>
<path fill="none" stroke="midnightblue" d="M235.7,-745.4C255.24,-770.61 294.3,-816.32 338,-841.5 344.71,-845.36 352.03,-848.65 359.53,-851.45"/>
<polygon fill="midnightblue" stroke="midnightblue" points="238.24,-742.96 229.41,-737.11 232.67,-747.19 238.24,-742.96"/>
</g>
<!-- Node8 -->
<g id="node8" class="node">
<title>Node8</title>
<g id="a_node8"><a xlink:href="classlog4cplus_1_1FileAppenderBase.html" target="_top" xlink:title="Base class for Appenders writing log events to a file.">
<polygon fill="white" stroke="black" points="352,-813 352,-832 509,-832 509,-813 352,-813"/>
<text text-anchor="middle" x="430.5" y="-820" font-family="Helvetica,sans-Serif" font-size="10.00">log4cplus::FileAppenderBase</text>
</a>
</g>
</g>
<!-- Node2&#45;&gt;Node8 -->
<g id="edge7" class="edge">
<title>Node2&#45;&gt;Node8</title>
<path fill="none" stroke="midnightblue" d="M241.65,-743.42C263.57,-760.82 301.2,-788.23 338,-803.5 347.29,-807.36 357.45,-810.46 367.51,-812.95"/>
<polygon fill="midnightblue" stroke="midnightblue" points="243.78,-740.64 233.8,-737.08 239.38,-746.08 243.78,-740.64"/>
</g>
<!-- Node13 -->
<g id="node13" class="node">
<title>Node13</title>
<g id="a_node13"><a xlink:href="classlog4cplus_1_1Log4jUdpAppender.html" target="_top" xlink:title="Sends log events as Log4j XML to a remote a log server.">
<polygon fill="white" stroke="black" points="350,-775 350,-794 511,-794 511,-775 350,-775"/>
<text text-anchor="middle" x="430.5" y="-782" font-family="Helvetica,sans-Serif" font-size="10.00">log4cplus::Log4jUdpAppender</text>
</a>
</g>
</g>
<!-- Node2&#45;&gt;Node13 -->
<g id="edge12" class="edge">
<title>Node2&#45;&gt;Node13</title>
<path fill="none" stroke="midnightblue" d="M258.39,-740.47C281.03,-748.36 311,-758.28 338,-765.5 351.01,-768.98 365.2,-772.2 378.44,-774.96"/>
<polygon fill="midnightblue" stroke="midnightblue" points="259.45,-737.13 248.85,-737.11 257.12,-743.74 259.45,-737.13"/>
</g>
<!-- Node14 -->
<g id="node14" class="node">
<title>Node14</title>
<g id="a_node14"><a xlink:href="classlog4cplus_1_1MSTTSAppender.html" target="_top" xlink:title=" ">
<polygon fill="white" stroke="black" points="356,-737 356,-756 505,-756 505,-737 356,-737"/>
<text text-anchor="middle" x="430.5" y="-744" font-family="Helvetica,sans-Serif" font-size="10.00">log4cplus::MSTTSAppender</text>
</a>
</g>
</g>
<!-- Node2&#45;&gt;Node14 -->
<g id="edge13" class="edge">
<title>Node2&#45;&gt;Node14</title>
<path fill="none" stroke="midnightblue" d="M289.78,-733.68C310.91,-735.61 334.33,-737.77 355.88,-739.74"/>
<polygon fill="midnightblue" stroke="midnightblue" points="289.89,-730.17 279.61,-732.74 289.25,-737.14 289.89,-730.17"/>
</g>
<!-- Node15 -->
<g id="node15" class="node">
<title>Node15</title>
<g id="a_node15"><a xlink:href="classlog4cplus_1_1NTEventLogAppender.html" target="_top" xlink:title="Appends log events to NT EventLog.">
<polygon fill="white" stroke="black" points="343.5,-699 343.5,-718 517.5,-718 517.5,-699 343.5,-699"/>
<text text-anchor="middle" x="430.5" y="-706" font-family="Helvetica,sans-Serif" font-size="10.00">log4cplus::NTEventLogAppender</text>
</a>
</g>
</g>
<!-- Node2&#45;&gt;Node15 -->
<g id="edge14" class="edge">
<title>Node2&#45;&gt;Node15</title>
<path fill="none" stroke="midnightblue" d="M290.02,-721.3C307.09,-719.74 325.65,-718.03 343.49,-716.39"/>
<polygon fill="midnightblue" stroke="midnightblue" points="289.25,-717.86 279.61,-722.26 289.89,-724.83 289.25,-717.86"/>
</g>
<!-- Node16 -->
<g id="node16" class="node">
<title>Node16</title>
<g id="a_node16"><a xlink:href="classlog4cplus_1_1NullAppender.html" target="_top" xlink:title="Appends log events to a file.">
<polygon fill="white" stroke="black" points="363,-661 363,-680 498,-680 498,-661 363,-661"/>
<text text-anchor="middle" x="430.5" y="-668" font-family="Helvetica,sans-Serif" font-size="10.00">log4cplus::NullAppender</text>
</a>
</g>
</g>
<!-- Node2&#45;&gt;Node16 -->
<g id="edge15" class="edge">
<title>Node2&#45;&gt;Node16</title>
<path fill="none" stroke="midnightblue" d="M258.39,-714.53C281.03,-706.64 311,-696.72 338,-689.5 351.01,-686.02 365.2,-682.8 378.44,-680.04"/>
<polygon fill="midnightblue" stroke="midnightblue" points="257.12,-711.26 248.85,-717.89 259.45,-717.87 257.12,-711.26"/>
</g>
<!-- Node17 -->
<g id="node17" class="node">
<title>Node17</title>
<g id="a_node17"><a xlink:href="classlog4cplus_1_1Qt4DebugAppender.html" target="_top" xlink:title=" ">
<polygon fill="white" stroke="black" points="348.5,-623 348.5,-642 512.5,-642 512.5,-623 348.5,-623"/>
<text text-anchor="middle" x="430.5" y="-630" font-family="Helvetica,sans-Serif" font-size="10.00">log4cplus::Qt4DebugAppender</text>
</a>
</g>
</g>
<!-- Node2&#45;&gt;Node17 -->
<g id="edge16" class="edge">
<title>Node2&#45;&gt;Node17</title>
<path fill="none" stroke="midnightblue" d="M241.65,-711.58C263.57,-694.18 301.2,-666.77 338,-651.5 347.29,-647.64 357.45,-644.54 367.51,-642.05"/>
<polygon fill="midnightblue" stroke="midnightblue" points="239.38,-708.92 233.8,-717.92 243.78,-714.36 239.38,-708.92"/>
</g>
<!-- Node18 -->
<g id="node18" class="node">
<title>Node18</title>
<g id="a_node18"><a xlink:href="classlog4cplus_1_1Qt5DebugAppender.html" target="_top" xlink:title=" ">
<polygon fill="white" stroke="black" points="348.5,-585 348.5,-604 512.5,-604 512.5,-585 348.5,-585"/>
<text text-anchor="middle" x="430.5" y="-592" font-family="Helvetica,sans-Serif" font-size="10.00">log4cplus::Qt5DebugAppender</text>
</a>
</g>
</g>
<!-- Node2&#45;&gt;Node18 -->
<g id="edge17" class="edge">
<title>Node2&#45;&gt;Node18</title>
<path fill="none" stroke="midnightblue" d="M235.24,-709.57C254.44,-683.98 293.35,-637.42 338,-613.5 345.29,-609.59 353.31,-606.49 361.48,-604.02"/>
<polygon fill="midnightblue" stroke="midnightblue" points="232.38,-707.54 229.29,-717.68 238.03,-711.69 232.38,-707.54"/>
</g>
<!-- Node19 -->
<g id="node19" class="node">
<title>Node19</title>
<g id="a_node19"><a xlink:href="classlog4cplus_1_1SocketAppender.html" target="_top" xlink:title="Sends spi::InternalLoggingEvent objects to a remote a log server.">
<polygon fill="white" stroke="black" points="356.5,-547 356.5,-566 504.5,-566 504.5,-547 356.5,-547"/>
<text text-anchor="middle" x="430.5" y="-554" font-family="Helvetica,sans-Serif" font-size="10.00">log4cplus::SocketAppender</text>
</a>
</g>
</g>
<!-- Node2&#45;&gt;Node19 -->
<g id="edge18" class="edge">
<title>Node2&#45;&gt;Node19</title>
<path fill="none" stroke="midnightblue" d="M231.31,-708.37C247.48,-675.56 285.14,-608.85 338,-575.5 344.17,-571.6 351.01,-568.49 358.07,-566.01"/>
<polygon fill="midnightblue" stroke="midnightblue" points="227.98,-707.22 226.83,-717.75 234.3,-710.24 227.98,-707.22"/>
</g>
<!-- Node20 -->
<g id="node20" class="node">
<title>Node20</title>
<g id="a_node20"><a xlink:href="classlog4cplus_1_1SysLogAppender.html" target="_top" xlink:title="Appends log events to a file.">
<polygon fill="white" stroke="black" points="355.5,-509 355.5,-528 505.5,-528 505.5,-509 355.5,-509"/>
<text text-anchor="middle" x="430.5" y="-516" font-family="Helvetica,sans-Serif" font-size="10.00">log4cplus::SysLogAppender</text>
</a>
</g>
</g>
<!-- Node2&#45;&gt;Node20 -->
<g id="edge19" class="edge">
<title>Node2&#45;&gt;Node20</title>
<path fill="none" stroke="midnightblue" d="M228.45,-708.04C241.46,-668.98 276.31,-581.05 338,-537.5 343.43,-533.66 349.48,-530.57 355.79,-528.08"/>
<polygon fill="midnightblue" stroke="midnightblue" points="225.08,-707.09 225.36,-717.68 231.74,-709.23 225.08,-707.09"/>
</g>
<!-- Node21 -->
<g id="node21" class="node">
<title>Node21</title>
<g id="a_node21"><a xlink:href="classlog4cplus_1_1Win32ConsoleAppender.html" target="_top" xlink:title="Prints events to Win32 console.">
<polygon fill="white" stroke="black" points="338,-471 338,-490 523,-490 523,-471 338,-471"/>
<text text-anchor="middle" x="430.5" y="-478" font-family="Helvetica,sans-Serif" font-size="10.00">log4cplus::Win32ConsoleAppender</text>
</a>
</g>
</g>
<!-- Node2&#45;&gt;Node21 -->
<g id="edge20" class="edge">
<title>Node2&#45;&gt;Node21</title>
<path fill="none" stroke="midnightblue" d="M226.4,-707.94C236.38,-663.32 267.19,-553.7 338,-499.5 343.02,-495.65 348.64,-492.54 354.55,-490.02"/>
<polygon fill="midnightblue" stroke="midnightblue" points="222.96,-707.3 224.3,-717.81 229.81,-708.75 222.96,-707.3"/>
</g>
<!-- Node9 -->
<g id="node9" class="node">
<title>Node9</title>
<g id="a_node9"><a xlink:href="classlog4cplus_1_1FileAppender.html" target="_top" xlink:title="Appends log events to a file.">
<polygon fill="white" stroke="black" points="571.5,-835 571.5,-854 704.5,-854 704.5,-835 571.5,-835"/>
<text text-anchor="middle" x="638" y="-842" font-family="Helvetica,sans-Serif" font-size="10.00">log4cplus::FileAppender</text>
</a>
</g>
</g>
<!-- Node8&#45;&gt;Node9 -->
<g id="edge8" class="edge">
<title>Node8&#45;&gt;Node9</title>
<path fill="none" stroke="midnightblue" d="M519.36,-831.91C536.77,-833.77 554.76,-835.7 571.28,-837.46"/>
<polygon fill="midnightblue" stroke="midnightblue" points="519.51,-828.4 509.19,-830.82 518.76,-835.36 519.51,-828.4"/>
</g>
<!-- Node12 -->
<g id="node12" class="node">
<title>Node12</title>
<g id="a_node12"><a xlink:href="classlog4cplus_1_1TimeBasedRollingFileAppender.html" target="_top" xlink:title="TimeBasedRollingFileAppender extends FileAppenderBase so that the underlying file is rolled over at a...">
<polygon fill="white" stroke="black" points="559,-785.5 559,-815.5 717,-815.5 717,-785.5 559,-785.5"/>
<text text-anchor="start" x="567" y="-803.5" font-family="Helvetica,sans-Serif" font-size="10.00">log4cplus::TimeBasedRolling</text>
<text text-anchor="middle" x="638" y="-792.5" font-family="Helvetica,sans-Serif" font-size="10.00">FileAppender</text>
</a>
</g>
</g>
<!-- Node8&#45;&gt;Node12 -->
<g id="edge11" class="edge">
<title>Node8&#45;&gt;Node12</title>
<path fill="none" stroke="midnightblue" d="M519.19,-813.11C532.37,-811.7 545.89,-810.25 558.86,-808.87"/>
<polygon fill="midnightblue" stroke="midnightblue" points="518.76,-809.64 509.19,-814.18 519.51,-816.6 518.76,-809.64"/>
</g>
<!-- Node10 -->
<g id="node10" class="node">
<title>Node10</title>
<g id="a_node10"><a xlink:href="classlog4cplus_1_1DailyRollingFileAppender.html" target="_top" xlink:title="DailyRollingFileAppender extends FileAppender so that the underlying file is rolled over at a user ch...">
<polygon fill="white" stroke="black" points="763.5,-851.5 763.5,-881.5 909.5,-881.5 909.5,-851.5 763.5,-851.5"/>
<text text-anchor="start" x="771.5" y="-869.5" font-family="Helvetica,sans-Serif" font-size="10.00">log4cplus::DailyRollingFile</text>
<text text-anchor="middle" x="836.5" y="-858.5" font-family="Helvetica,sans-Serif" font-size="10.00">Appender</text>
</a>
</g>
</g>
<!-- Node9&#45;&gt;Node10 -->
<g id="edge9" class="edge">
<title>Node9&#45;&gt;Node10</title>
<path fill="none" stroke="midnightblue" d="M715.02,-853.01C730.94,-854.79 747.67,-856.67 763.44,-858.43"/>
<polygon fill="midnightblue" stroke="midnightblue" points="715.03,-849.49 704.7,-851.86 714.25,-856.45 715.03,-849.49"/>
</g>
<!-- Node11 -->
<g id="node11" class="node">
<title>Node11</title>
<g id="a_node11"><a xlink:href="classlog4cplus_1_1RollingFileAppender.html" target="_top" xlink:title="RollingFileAppender extends FileAppender to backup the log files when they reach a certain size.">
<polygon fill="white" stroke="black" points="753,-813 753,-832 920,-832 920,-813 753,-813"/>
<text text-anchor="middle" x="836.5" y="-820" font-family="Helvetica,sans-Serif" font-size="10.00">log4cplus::RollingFileAppender</text>
</a>
</g>
</g>
<!-- Node9&#45;&gt;Node11 -->
<g id="edge10" class="edge">
<title>Node9&#45;&gt;Node11</title>
<path fill="none" stroke="midnightblue" d="M714.96,-836C727.34,-834.61 740.21,-833.17 752.73,-831.77"/>
<polygon fill="midnightblue" stroke="midnightblue" points="714.25,-832.55 704.7,-837.14 715.03,-839.51 714.25,-832.55"/>
</g>
<!-- Node23 -->
<g id="node23" class="node">
<title>Node23</title>
<g id="a_node23"><a xlink:href="classlog4cplus_1_1internal_1_1CustomLogLevelManager.html" target="_top" xlink:title="Custom log level manager used by C API.">
<polygon fill="white" stroke="black" points="357.5,-421.5 357.5,-451.5 503.5,-451.5 503.5,-421.5 357.5,-421.5"/>
<text text-anchor="start" x="365.5" y="-439.5" font-family="Helvetica,sans-Serif" font-size="10.00">log4cplus::internal</text>
<text text-anchor="middle" x="430.5" y="-428.5" font-family="Helvetica,sans-Serif" font-size="10.00">::CustomLogLevelManager</text>
</a>
</g>
</g>
<!-- Node22&#45;&gt;Node23 -->
<g id="edge22" class="edge">
<title>Node22&#45;&gt;Node23</title>
<path fill="none" stroke="midnightblue" d="M251.86,-376.25C274.96,-386.75 308.11,-401.13 338,-411.5 348.11,-415.01 358.99,-418.35 369.59,-421.38"/>
<polygon fill="midnightblue" stroke="midnightblue" points="253.17,-373 242.62,-372.02 250.25,-379.37 253.17,-373"/>
</g>
<!-- Node25 -->
<g id="node25" class="node">
<title>Node25</title>
<g id="a_node25"><a xlink:href="classlog4cplus_1_1spi_1_1DenyAllFilter.html" target="_top" xlink:title="This filter drops all logging events.">
<polygon fill="white" stroke="black" points="354.5,-383 354.5,-402 506.5,-402 506.5,-383 354.5,-383"/>
<text text-anchor="middle" x="430.5" y="-390" font-family="Helvetica,sans-Serif" font-size="10.00">log4cplus::spi::DenyAllFilter</text>
</a>
</g>
</g>
<!-- Node24&#45;&gt;Node25 -->
<g id="edge24" class="edge">
<title>Node24&#45;&gt;Node25</title>
<path fill="none" stroke="midnightblue" d="M236.68,-268.04C261.79,-298.65 313.71,-359.89 338,-373.5 344.94,-377.39 352.57,-380.48 360.38,-382.94"/>
<polygon fill="midnightblue" stroke="midnightblue" points="239.39,-265.82 230.36,-260.28 233.96,-270.24 239.39,-265.82"/>
</g>
<!-- Node26 -->
<g id="node26" class="node">
<title>Node26</title>
<g id="a_node26"><a xlink:href="classlog4cplus_1_1spi_1_1FunctionFilter.html" target="_top" xlink:title="This filter allows using std::function&lt;FilterResult(const InternalLoggingEvent &amp;)&gt;.">
<polygon fill="white" stroke="black" points="365,-333.5 365,-363.5 496,-363.5 496,-333.5 365,-333.5"/>
<text text-anchor="start" x="373" y="-351.5" font-family="Helvetica,sans-Serif" font-size="10.00">log4cplus::spi::Function</text>
<text text-anchor="middle" x="430.5" y="-340.5" font-family="Helvetica,sans-Serif" font-size="10.00">Filter</text>
</a>
</g>
</g>
<!-- Node24&#45;&gt;Node26 -->
<g id="edge25" class="edge">
<title>Node24&#45;&gt;Node26</title>
<path fill="none" stroke="midnightblue" d="M242.59,-266.16C264.8,-282.8 302.19,-308.8 338,-324.5 346.42,-328.19 355.54,-331.42 364.64,-334.2"/>
<polygon fill="midnightblue" stroke="midnightblue" points="244.66,-263.35 234.58,-260.08 240.43,-268.92 244.66,-263.35"/>
</g>
<!-- Node27 -->
<g id="node27" class="node">
<title>Node27</title>
<g id="a_node27"><a xlink:href="classlog4cplus_1_1spi_1_1LogLevelMatchFilter.html" target="_top" xlink:title="This is a very simple filter based on LogLevel matching.">
<polygon fill="white" stroke="black" points="364,-284.5 364,-314.5 497,-314.5 497,-284.5 364,-284.5"/>
<text text-anchor="start" x="372" y="-302.5" font-family="Helvetica,sans-Serif" font-size="10.00">log4cplus::spi::LogLevel</text>
<text text-anchor="middle" x="430.5" y="-291.5" font-family="Helvetica,sans-Serif" font-size="10.00">MatchFilter</text>
</a>
</g>
</g>
<!-- Node24&#45;&gt;Node27 -->
<g id="edge26" class="edge">
<title>Node24&#45;&gt;Node27</title>
<path fill="none" stroke="midnightblue" d="M272.88,-262.43C300.92,-269.06 336.08,-277.39 365.98,-284.46"/>
<polygon fill="midnightblue" stroke="midnightblue" points="273.44,-258.96 262.9,-260.06 271.83,-265.77 273.44,-258.96"/>
</g>
<!-- Node28 -->
<g id="node28" class="node">
<title>Node28</title>
<g id="a_node28"><a xlink:href="classlog4cplus_1_1spi_1_1LogLevelRangeFilter.html" target="_top" xlink:title="This is a very simple filter based on LogLevel matching, which can be used to reject messages with Lo...">
<polygon fill="white" stroke="black" points="364,-235.5 364,-265.5 497,-265.5 497,-235.5 364,-235.5"/>
<text text-anchor="start" x="372" y="-253.5" font-family="Helvetica,sans-Serif" font-size="10.00">log4cplus::spi::LogLevel</text>
<text text-anchor="middle" x="430.5" y="-242.5" font-family="Helvetica,sans-Serif" font-size="10.00">RangeFilter</text>
</a>
</g>
</g>
<!-- Node24&#45;&gt;Node28 -->
<g id="edge27" class="edge">
<title>Node24&#45;&gt;Node28</title>
<path fill="none" stroke="midnightblue" d="M288.62,-250.5C312.69,-250.5 339.87,-250.5 363.89,-250.5"/>
<polygon fill="midnightblue" stroke="midnightblue" points="288.52,-247 278.52,-250.5 288.52,-254 288.52,-247"/>
</g>
<!-- Node29 -->
<g id="node29" class="node">
<title>Node29</title>
<g id="a_node29"><a xlink:href="classlog4cplus_1_1spi_1_1MDCMatchFilter.html" target="_top" xlink:title="This is a simple filter based on the key/value pair stored in MDC.">
<polygon fill="white" stroke="black" points="359,-186.5 359,-216.5 502,-216.5 502,-186.5 359,-186.5"/>
<text text-anchor="start" x="367" y="-204.5" font-family="Helvetica,sans-Serif" font-size="10.00">log4cplus::spi::MDCMatch</text>
<text text-anchor="middle" x="430.5" y="-193.5" font-family="Helvetica,sans-Serif" font-size="10.00">Filter</text>
</a>
</g>
</g>
<!-- Node24&#45;&gt;Node29 -->
<g id="edge28" class="edge">
<title>Node24&#45;&gt;Node29</title>
<path fill="none" stroke="midnightblue" d="M272.88,-238.57C300.92,-231.94 336.08,-223.61 365.98,-216.54"/>
<polygon fill="midnightblue" stroke="midnightblue" points="271.83,-235.23 262.9,-240.94 273.44,-242.04 271.83,-235.23"/>
</g>
<!-- Node30 -->
<g id="node30" class="node">
<title>Node30</title>
<g id="a_node30"><a xlink:href="classlog4cplus_1_1spi_1_1NDCMatchFilter.html" target="_top" xlink:title="This is a simple filter based on the string returned by event.getNDC().">
<polygon fill="white" stroke="black" points="360,-137.5 360,-167.5 501,-167.5 501,-137.5 360,-137.5"/>
<text text-anchor="start" x="368" y="-155.5" font-family="Helvetica,sans-Serif" font-size="10.00">log4cplus::spi::NDCMatch</text>
<text text-anchor="middle" x="430.5" y="-144.5" font-family="Helvetica,sans-Serif" font-size="10.00">Filter</text>
</a>
</g>
</g>
<!-- Node24&#45;&gt;Node30 -->
<g id="edge29" class="edge">
<title>Node24&#45;&gt;Node30</title>
<path fill="none" stroke="midnightblue" d="M288.22,-239.09C293.08,-236.97 297.74,-234.47 302,-231.5 325.66,-215.01 314.6,-194.37 338,-177.5 344.54,-172.78 351.94,-168.95 359.61,-165.85"/>
<polygon fill="midnightblue" stroke="midnightblue" points="286.78,-235.89 278.66,-242.7 289.25,-242.44 286.78,-235.89"/>
</g>
<!-- Node31 -->
<g id="node31" class="node">
<title>Node31</title>
<g id="a_node31"><a xlink:href="classlog4cplus_1_1spi_1_1StringMatchFilter.html" target="_top" xlink:title="This is a very simple filter based on string matching.">
<polygon fill="white" stroke="black" points="356.5,-88.5 356.5,-118.5 504.5,-118.5 504.5,-88.5 356.5,-88.5"/>
<text text-anchor="start" x="364.5" y="-106.5" font-family="Helvetica,sans-Serif" font-size="10.00">log4cplus::spi::StringMatch</text>
<text text-anchor="middle" x="430.5" y="-95.5" font-family="Helvetica,sans-Serif" font-size="10.00">Filter</text>
</a>
</g>
</g>
<!-- Node24&#45;&gt;Node31 -->
<g id="edge30" class="edge">
<title>Node24&#45;&gt;Node31</title>
<path fill="none" stroke="midnightblue" d="M288.03,-240.76C293.1,-238.29 297.85,-235.25 302,-231.5 337.99,-199 302.54,-161.58 338,-128.5 343.3,-123.56 349.48,-119.58 356.08,-116.37"/>
<polygon fill="midnightblue" stroke="midnightblue" points="286.55,-237.58 278.61,-244.6 289.19,-244.06 286.55,-237.58"/>
</g>
<!-- Node33 -->
<g id="node33" class="node">
<title>Node33</title>
<g id="a_node33"><a xlink:href="classlog4cplus_1_1spi_1_1RootLogger.html" target="_top" xlink:title="RootLogger sits at the top of the logger hierachy.">
<polygon fill="white" stroke="black" points="358,-50 358,-69 503,-69 503,-50 358,-50"/>
<text text-anchor="middle" x="430.5" y="-57" font-family="Helvetica,sans-Serif" font-size="10.00">log4cplus::spi::RootLogger</text>
</a>
</g>
</g>
<!-- Node32&#45;&gt;Node33 -->
<g id="edge32" class="edge">
<title>Node32&#45;&gt;Node33</title>
<path fill="none" stroke="midnightblue" d="M297.2,-197.45C298.88,-196.23 300.48,-194.91 302,-193.5 340.89,-157.29 298.76,-115.33 338,-79.5 343.76,-74.24 350.58,-70.24 357.86,-67.23"/>
<polygon fill="midnightblue" stroke="midnightblue" points="295.05,-194.66 288.3,-202.82 298.67,-200.65 295.05,-194.66"/>
</g>
<!-- Node35 -->
<g id="node35" class="node">
<title>Node35</title>
<g id="a_node35"><a xlink:href="classlog4cplus_1_1helpers_1_1ConnectorThread.html" target="_top" xlink:title="This class is used by SocketAppender and (remote) SysLogAppender to provide asynchronous re&#45;connectio...">
<polygon fill="white" stroke="black" points="377.5,-0.5 377.5,-30.5 483.5,-30.5 483.5,-0.5 377.5,-0.5"/>
<text text-anchor="start" x="385.5" y="-18.5" font-family="Helvetica,sans-Serif" font-size="10.00">log4cplus::helpers</text>
<text text-anchor="middle" x="430.5" y="-7.5" font-family="Helvetica,sans-Serif" font-size="10.00">::ConnectorThread</text>
</a>
</g>
</g>
<!-- Node34&#45;&gt;Node35 -->
<g id="edge34" class="edge">
<title>Node34&#45;&gt;Node35</title>
<path fill="none" stroke="midnightblue" d="M284.63,-156.28C291,-153.19 296.97,-149.33 302,-144.5 337.27,-110.61 302.28,-73.92 338,-40.5 348.7,-30.49 363.02,-24.41 377.15,-20.75"/>
<polygon fill="midnightblue" stroke="midnightblue" points="282.95,-153.19 275.07,-160.27 285.65,-159.65 282.95,-153.19"/>
</g>
</g>
</svg>
