<?xml version="1.0" encoding="UTF-8" standalone="no"?>
<!DOCTYPE svg PUBLIC "-//W3C//DTD SVG 1.1//EN"
 "http://www.w3.org/Graphics/SVG/1.1/DTD/svg11.dtd">
<!-- Generated by graphviz version 2.43.0 (0)
 -->
<!-- Title: log4cplus::DailyRollingFileAppender Pages: 1 -->
<svg width="280pt" height="366pt"
 viewBox="0.00 0.00 280.00 366.00" xmlns="http://www.w3.org/2000/svg" xmlns:xlink="http://www.w3.org/1999/xlink">
<g id="graph0" class="graph" transform="scale(1 1) rotate(0) translate(4 362)">
<title>log4cplus::DailyRollingFileAppender</title>
<polygon fill="white" stroke="transparent" points="-4,4 -4,-362 276,-362 276,4 -4,4"/>
<!-- Node1 -->
<g id="node1" class="node">
<title>Node1</title>
<g id="a_node1"><a xlink:title="DailyRollingFileAppender extends FileAppender so that the underlying file is rolled over at a user ch...">
<polygon fill="#bfbfbf" stroke="black" points="23.5,-0.5 23.5,-30.5 169.5,-30.5 169.5,-0.5 23.5,-0.5"/>
<text text-anchor="start" x="31.5" y="-18.5" font-family="Helvetica,sans-Serif" font-size="10.00">log4cplus::DailyRollingFile</text>
<text text-anchor="middle" x="96.5" y="-7.5" font-family="Helvetica,sans-Serif" font-size="10.00">Appender</text>
</a>
</g>
</g>
<!-- Node2 -->
<g id="node2" class="node">
<title>Node2</title>
<g id="a_node2"><a xlink:href="classlog4cplus_1_1FileAppender.html" target="_top" xlink:title="Appends log events to a file.">
<polygon fill="white" stroke="black" points="30,-68.5 30,-87.5 163,-87.5 163,-68.5 30,-68.5"/>
<text text-anchor="middle" x="96.5" y="-75.5" font-family="Helvetica,sans-Serif" font-size="10.00">log4cplus::FileAppender</text>
</a>
</g>
</g>
<!-- Node2&#45;&gt;Node1 -->
<g id="edge1" class="edge">
<title>Node2&#45;&gt;Node1</title>
<path fill="none" stroke="midnightblue" d="M96.5,-58.22C96.5,-49.36 96.5,-38.96 96.5,-30.76"/>
<polygon fill="midnightblue" stroke="midnightblue" points="93,-58.33 96.5,-68.33 100,-58.33 93,-58.33"/>
</g>
<!-- Node3 -->
<g id="node3" class="node">
<title>Node3</title>
<g id="a_node3"><a xlink:href="classlog4cplus_1_1FileAppenderBase.html" target="_top" xlink:title="Base class for Appenders writing log events to a file.">
<polygon fill="white" stroke="black" points="18,-125.5 18,-144.5 175,-144.5 175,-125.5 18,-125.5"/>
<text text-anchor="middle" x="96.5" y="-132.5" font-family="Helvetica,sans-Serif" font-size="10.00">log4cplus::FileAppenderBase</text>
</a>
</g>
</g>
<!-- Node3&#45;&gt;Node2 -->
<g id="edge2" class="edge">
<title>Node3&#45;&gt;Node2</title>
<path fill="none" stroke="midnightblue" d="M96.5,-115.12C96.5,-105.82 96.5,-95.06 96.5,-87.71"/>
<polygon fill="midnightblue" stroke="midnightblue" points="93,-115.41 96.5,-125.41 100,-115.41 93,-115.41"/>
</g>
<!-- Node4 -->
<g id="node4" class="node">
<title>Node4</title>
<g id="a_node4"><a xlink:href="classlog4cplus_1_1Appender.html" target="_top" xlink:title="Extend this class for implementing your own strategies for printing log statements.">
<polygon fill="white" stroke="black" points="38.5,-182.5 38.5,-201.5 154.5,-201.5 154.5,-182.5 38.5,-182.5"/>
<text text-anchor="middle" x="96.5" y="-189.5" font-family="Helvetica,sans-Serif" font-size="10.00">log4cplus::Appender</text>
</a>
</g>
</g>
<!-- Node4&#45;&gt;Node3 -->
<g id="edge3" class="edge">
<title>Node4&#45;&gt;Node3</title>
<path fill="none" stroke="midnightblue" d="M96.5,-172.12C96.5,-162.82 96.5,-152.06 96.5,-144.71"/>
<polygon fill="midnightblue" stroke="midnightblue" points="93,-172.41 96.5,-182.41 100,-172.41 93,-172.41"/>
</g>
<!-- Node5 -->
<g id="node5" class="node">
<title>Node5</title>
<g id="a_node5"><a xlink:href="classlog4cplus_1_1helpers_1_1SharedObject.html" target="_top" xlink:title=" ">
<polygon fill="white" stroke="black" points="0,-249.5 0,-279.5 105,-279.5 105,-249.5 0,-249.5"/>
<text text-anchor="start" x="8" y="-267.5" font-family="Helvetica,sans-Serif" font-size="10.00">log4cplus::helpers</text>
<text text-anchor="middle" x="52.5" y="-256.5" font-family="Helvetica,sans-Serif" font-size="10.00">::SharedObject</text>
</a>
</g>
</g>
<!-- Node5&#45;&gt;Node4 -->
<g id="edge4" class="edge">
<title>Node5&#45;&gt;Node4</title>
<path fill="none" stroke="midnightblue" d="M66.78,-240.63C75.02,-227.42 84.91,-211.57 90.95,-201.89"/>
<polygon fill="midnightblue" stroke="midnightblue" points="63.73,-238.9 61.4,-249.23 69.67,-242.6 63.73,-238.9"/>
</g>
<!-- Node6 -->
<g id="node6" class="node">
<title>Node6</title>
<g id="a_node6"><a xlink:href="classlog4cplus_1_1helpers_1_1SharedObjectPtr.html" target="_top" xlink:title=" ">
<polygon fill="white" stroke="black" points="123,-249.5 123,-279.5 272,-279.5 272,-249.5 123,-249.5"/>
<text text-anchor="start" x="131" y="-267.5" font-family="Helvetica,sans-Serif" font-size="10.00">log4cplus::helpers</text>
<text text-anchor="middle" x="197.5" y="-256.5" font-family="Helvetica,sans-Serif" font-size="10.00">::SharedObjectPtr&lt; Filter &gt;</text>
</a>
</g>
</g>
<!-- Node6&#45;&gt;Node4 -->
<g id="edge5" class="edge">
<title>Node6&#45;&gt;Node4</title>
<path fill="none" stroke="#9a32cd" stroke-dasharray="5,2" d="M168.71,-243.4C148.97,-229.62 123.76,-212.03 108.95,-201.69"/>
<polygon fill="#9a32cd" stroke="#9a32cd" points="166.86,-246.38 177.06,-249.23 170.86,-240.64 166.86,-246.38"/>
<text text-anchor="middle" x="162.5" y="-223" font-family="Helvetica,sans-Serif" font-size="10.00"> filter</text>
</g>
<!-- Node7 -->
<g id="node7" class="node">
<title>Node7</title>
<g id="a_node7"><a xlink:href="classlog4cplus_1_1helpers_1_1SharedObjectPtr.html" target="_top" xlink:title=" ">
<polygon fill="white" stroke="black" points="132.5,-327.5 132.5,-357.5 262.5,-357.5 262.5,-327.5 132.5,-327.5"/>
<text text-anchor="start" x="140.5" y="-345.5" font-family="Helvetica,sans-Serif" font-size="10.00">log4cplus::helpers</text>
<text text-anchor="middle" x="197.5" y="-334.5" font-family="Helvetica,sans-Serif" font-size="10.00">::SharedObjectPtr&lt; T &gt;</text>
</a>
</g>
</g>
<!-- Node7&#45;&gt;Node6 -->
<g id="edge6" class="edge">
<title>Node7&#45;&gt;Node6</title>
<path fill="none" stroke="orange" stroke-dasharray="5,2" d="M197.5,-317.09C197.5,-304.76 197.5,-290.22 197.5,-279.73"/>
<polygon fill="orange" stroke="orange" points="194,-317.2 197.5,-327.2 201,-317.21 194,-317.2"/>
<text text-anchor="middle" x="223" y="-301" font-family="Helvetica,sans-Serif" font-size="10.00"> &lt; Filter &gt;</text>
</g>
</g>
</svg>
