<?xml version="1.0" encoding="UTF-8" standalone="no"?>
<!DOCTYPE svg PUBLIC "-//W3C//DTD SVG 1.1//EN"
 "http://www.w3.org/Graphics/SVG/1.1/DTD/svg11.dtd">
<!-- Generated by graphviz version 2.43.0 (0)
 -->
<!-- Title: log4cplus::RollingFileAppender Pages: 1 -->
<svg width="280pt" height="355pt"
 viewBox="0.00 0.00 280.00 355.00" xmlns="http://www.w3.org/2000/svg" xmlns:xlink="http://www.w3.org/1999/xlink">
<g id="graph0" class="graph" transform="scale(1 1) rotate(0) translate(4 351)">
<title>log4cplus::RollingFileAppender</title>
<polygon fill="white" stroke="transparent" points="-4,4 -4,-351 276,-351 276,4 -4,4"/>
<!-- Node1 -->
<g id="node1" class="node">
<title>Node1</title>
<g id="a_node1"><a xlink:title="RollingFileAppender extends FileAppender to backup the log files when they reach a certain size.">
<polygon fill="#bfbfbf" stroke="black" points="13,-0.5 13,-19.5 180,-19.5 180,-0.5 13,-0.5"/>
<text text-anchor="middle" x="96.5" y="-7.5" font-family="Helvetica,sans-Serif" font-size="10.00">log4cplus::RollingFileAppender</text>
</a>
</g>
</g>
<!-- Node2 -->
<g id="node2" class="node">
<title>Node2</title>
<g id="a_node2"><a xlink:href="classlog4cplus_1_1FileAppender.html" target="_top" xlink:title="Appends log events to a file.">
<polygon fill="white" stroke="black" points="30,-57.5 30,-76.5 163,-76.5 163,-57.5 30,-57.5"/>
<text text-anchor="middle" x="96.5" y="-64.5" font-family="Helvetica,sans-Serif" font-size="10.00">log4cplus::FileAppender</text>
</a>
</g>
</g>
<!-- Node2&#45;&gt;Node1 -->
<g id="edge1" class="edge">
<title>Node2&#45;&gt;Node1</title>
<path fill="none" stroke="midnightblue" d="M96.5,-47.12C96.5,-37.82 96.5,-27.06 96.5,-19.71"/>
<polygon fill="midnightblue" stroke="midnightblue" points="93,-47.41 96.5,-57.41 100,-47.41 93,-47.41"/>
</g>
<!-- Node3 -->
<g id="node3" class="node">
<title>Node3</title>
<g id="a_node3"><a xlink:href="classlog4cplus_1_1FileAppenderBase.html" target="_top" xlink:title="Base class for Appenders writing log events to a file.">
<polygon fill="white" stroke="black" points="18,-114.5 18,-133.5 175,-133.5 175,-114.5 18,-114.5"/>
<text text-anchor="middle" x="96.5" y="-121.5" font-family="Helvetica,sans-Serif" font-size="10.00">log4cplus::FileAppenderBase</text>
</a>
</g>
</g>
<!-- Node3&#45;&gt;Node2 -->
<g id="edge2" class="edge">
<title>Node3&#45;&gt;Node2</title>
<path fill="none" stroke="midnightblue" d="M96.5,-104.12C96.5,-94.82 96.5,-84.06 96.5,-76.71"/>
<polygon fill="midnightblue" stroke="midnightblue" points="93,-104.41 96.5,-114.41 100,-104.41 93,-104.41"/>
</g>
<!-- Node4 -->
<g id="node4" class="node">
<title>Node4</title>
<g id="a_node4"><a xlink:href="classlog4cplus_1_1Appender.html" target="_top" xlink:title="Extend this class for implementing your own strategies for printing log statements.">
<polygon fill="white" stroke="black" points="38.5,-171.5 38.5,-190.5 154.5,-190.5 154.5,-171.5 38.5,-171.5"/>
<text text-anchor="middle" x="96.5" y="-178.5" font-family="Helvetica,sans-Serif" font-size="10.00">log4cplus::Appender</text>
</a>
</g>
</g>
<!-- Node4&#45;&gt;Node3 -->
<g id="edge3" class="edge">
<title>Node4&#45;&gt;Node3</title>
<path fill="none" stroke="midnightblue" d="M96.5,-161.12C96.5,-151.82 96.5,-141.06 96.5,-133.71"/>
<polygon fill="midnightblue" stroke="midnightblue" points="93,-161.41 96.5,-171.41 100,-161.41 93,-161.41"/>
</g>
<!-- Node5 -->
<g id="node5" class="node">
<title>Node5</title>
<g id="a_node5"><a xlink:href="classlog4cplus_1_1helpers_1_1SharedObject.html" target="_top" xlink:title=" ">
<polygon fill="white" stroke="black" points="0,-238.5 0,-268.5 105,-268.5 105,-238.5 0,-238.5"/>
<text text-anchor="start" x="8" y="-256.5" font-family="Helvetica,sans-Serif" font-size="10.00">log4cplus::helpers</text>
<text text-anchor="middle" x="52.5" y="-245.5" font-family="Helvetica,sans-Serif" font-size="10.00">::SharedObject</text>
</a>
</g>
</g>
<!-- Node5&#45;&gt;Node4 -->
<g id="edge4" class="edge">
<title>Node5&#45;&gt;Node4</title>
<path fill="none" stroke="midnightblue" d="M66.78,-229.63C75.02,-216.42 84.91,-200.57 90.95,-190.89"/>
<polygon fill="midnightblue" stroke="midnightblue" points="63.73,-227.9 61.4,-238.23 69.67,-231.6 63.73,-227.9"/>
</g>
<!-- Node6 -->
<g id="node6" class="node">
<title>Node6</title>
<g id="a_node6"><a xlink:href="classlog4cplus_1_1helpers_1_1SharedObjectPtr.html" target="_top" xlink:title=" ">
<polygon fill="white" stroke="black" points="123,-238.5 123,-268.5 272,-268.5 272,-238.5 123,-238.5"/>
<text text-anchor="start" x="131" y="-256.5" font-family="Helvetica,sans-Serif" font-size="10.00">log4cplus::helpers</text>
<text text-anchor="middle" x="197.5" y="-245.5" font-family="Helvetica,sans-Serif" font-size="10.00">::SharedObjectPtr&lt; Filter &gt;</text>
</a>
</g>
</g>
<!-- Node6&#45;&gt;Node4 -->
<g id="edge5" class="edge">
<title>Node6&#45;&gt;Node4</title>
<path fill="none" stroke="#9a32cd" stroke-dasharray="5,2" d="M168.71,-232.4C148.97,-218.62 123.76,-201.03 108.95,-190.69"/>
<polygon fill="#9a32cd" stroke="#9a32cd" points="166.86,-235.38 177.06,-238.23 170.86,-229.64 166.86,-235.38"/>
<text text-anchor="middle" x="162.5" y="-212" font-family="Helvetica,sans-Serif" font-size="10.00"> filter</text>
</g>
<!-- Node7 -->
<g id="node7" class="node">
<title>Node7</title>
<g id="a_node7"><a xlink:href="classlog4cplus_1_1helpers_1_1SharedObjectPtr.html" target="_top" xlink:title=" ">
<polygon fill="white" stroke="black" points="132.5,-316.5 132.5,-346.5 262.5,-346.5 262.5,-316.5 132.5,-316.5"/>
<text text-anchor="start" x="140.5" y="-334.5" font-family="Helvetica,sans-Serif" font-size="10.00">log4cplus::helpers</text>
<text text-anchor="middle" x="197.5" y="-323.5" font-family="Helvetica,sans-Serif" font-size="10.00">::SharedObjectPtr&lt; T &gt;</text>
</a>
</g>
</g>
<!-- Node7&#45;&gt;Node6 -->
<g id="edge6" class="edge">
<title>Node7&#45;&gt;Node6</title>
<path fill="none" stroke="orange" stroke-dasharray="5,2" d="M197.5,-306.09C197.5,-293.76 197.5,-279.22 197.5,-268.73"/>
<polygon fill="orange" stroke="orange" points="194,-306.2 197.5,-316.2 201,-306.21 194,-306.2"/>
<text text-anchor="middle" x="223" y="-290" font-family="Helvetica,sans-Serif" font-size="10.00"> &lt; Filter &gt;</text>
</g>
</g>
</svg>
