<?xml version="1.0" encoding="UTF-8" standalone="no"?>
<!DOCTYPE svg PUBLIC "-//W3C//DTD SVG 1.1//EN"
 "http://www.w3.org/Graphics/SVG/1.1/DTD/svg11.dtd">
<!-- Generated by graphviz version 2.43.0 (0)
 -->
<!-- Title: log4cplus::Appender Pages: 1 -->
<svg width="883pt" height="572pt"
 viewBox="0.00 0.00 883.00 572.00" xmlns="http://www.w3.org/2000/svg" xmlns:xlink="http://www.w3.org/1999/xlink">
<g id="graph0" class="graph" transform="scale(1 1) rotate(0) translate(4 568)">
<title>log4cplus::Appender</title>
<polygon fill="white" stroke="transparent" points="-4,4 -4,-568 879,-568 879,4 -4,4"/>
<!-- Node1 -->
<g id="node1" class="node">
<title>Node1</title>
<g id="a_node1"><a xlink:title="Extend this class for implementing your own strategies for printing log statements.">
<polygon fill="#bfbfbf" stroke="black" points="141,-266.5 141,-285.5 257,-285.5 257,-266.5 141,-266.5"/>
<text text-anchor="middle" x="199" y="-273.5" font-family="Helvetica,sans-Serif" font-size="10.00">log4cplus::Appender</text>
</a>
</g>
</g>
<!-- Node3 -->
<g id="node3" class="node">
<title>Node3</title>
<g id="a_node3"><a xlink:href="classlog4cplus_1_1AsyncAppender.html" target="_top" xlink:title="This Appender is a wrapper to which other appenders can be attached.">
<polygon fill="white" stroke="black" points="313,-544.5 313,-563.5 458,-563.5 458,-544.5 313,-544.5"/>
<text text-anchor="middle" x="385.5" y="-551.5" font-family="Helvetica,sans-Serif" font-size="10.00">log4cplus::AsyncAppender</text>
</a>
</g>
</g>
<!-- Node1&#45;&gt;Node3 -->
<g id="edge2" class="edge">
<title>Node1&#45;&gt;Node3</title>
<path fill="none" stroke="midnightblue" d="M200.84,-295.71C204.04,-344.39 219.38,-471.03 293,-535 298.76,-540 305.48,-543.81 312.63,-546.69"/>
<polygon fill="midnightblue" stroke="midnightblue" points="204.33,-295.37 200.28,-285.57 197.34,-295.75 204.33,-295.37"/>
</g>
<!-- Node4 -->
<g id="node4" class="node">
<title>Node4</title>
<g id="a_node4"><a xlink:href="classlog4cplus_1_1CLFSAppender.html" target="_top" xlink:title=" ">
<polygon fill="white" stroke="black" points="315.5,-506.5 315.5,-525.5 455.5,-525.5 455.5,-506.5 315.5,-506.5"/>
<text text-anchor="middle" x="385.5" y="-513.5" font-family="Helvetica,sans-Serif" font-size="10.00">log4cplus::CLFSAppender</text>
</a>
</g>
</g>
<!-- Node1&#45;&gt;Node4 -->
<g id="edge3" class="edge">
<title>Node1&#45;&gt;Node4</title>
<path fill="none" stroke="midnightblue" d="M202.21,-295.75C208.19,-339.36 228.84,-444.2 293,-497 299.51,-502.36 307.16,-506.33 315.2,-509.25"/>
<polygon fill="midnightblue" stroke="midnightblue" points="205.68,-295.31 200.96,-285.83 198.74,-296.19 205.68,-295.31"/>
</g>
<!-- Node5 -->
<g id="node5" class="node">
<title>Node5</title>
<g id="a_node5"><a xlink:href="classlog4cplus_1_1CallbackAppender.html" target="_top" xlink:title="Send log events to a C function callback.">
<polygon fill="white" stroke="black" points="306.5,-468.5 306.5,-487.5 464.5,-487.5 464.5,-468.5 306.5,-468.5"/>
<text text-anchor="middle" x="385.5" y="-475.5" font-family="Helvetica,sans-Serif" font-size="10.00">log4cplus::CallbackAppender</text>
</a>
</g>
</g>
<!-- Node1&#45;&gt;Node5 -->
<g id="edge4" class="edge">
<title>Node1&#45;&gt;Node5</title>
<path fill="none" stroke="midnightblue" d="M204.08,-295.69C213.02,-333.69 238.11,-417.04 293,-459 298.03,-462.84 303.65,-465.96 309.56,-468.47"/>
<polygon fill="midnightblue" stroke="midnightblue" points="207.47,-294.85 201.89,-285.85 200.64,-296.37 207.47,-294.85"/>
</g>
<!-- Node6 -->
<g id="node6" class="node">
<title>Node6</title>
<g id="a_node6"><a xlink:href="classlog4cplus_1_1ConsoleAppender.html" target="_top" xlink:title="ConsoleAppender appends log events to std::cout or std::cerr using a layout specified by the user.">
<polygon fill="white" stroke="black" points="308,-430.5 308,-449.5 463,-449.5 463,-430.5 308,-430.5"/>
<text text-anchor="middle" x="385.5" y="-437.5" font-family="Helvetica,sans-Serif" font-size="10.00">log4cplus::ConsoleAppender</text>
</a>
</g>
</g>
<!-- Node1&#45;&gt;Node6 -->
<g id="edge5" class="edge">
<title>Node1&#45;&gt;Node6</title>
<path fill="none" stroke="midnightblue" d="M206.84,-295.31C219.01,-326.69 247.5,-388.45 293,-420 299.28,-424.35 306.34,-427.78 313.68,-430.48"/>
<polygon fill="midnightblue" stroke="midnightblue" points="209.99,-293.72 203.22,-285.57 203.43,-296.16 209.99,-293.72"/>
</g>
<!-- Node7 -->
<g id="node7" class="node">
<title>Node7</title>
<g id="a_node7"><a xlink:href="classlog4cplus_1_1DeviceAppender.html" target="_top" xlink:title="This appender wraps Boost IOStreams&#39; Device concept instance as underlying sink for the appender.">
<polygon fill="white" stroke="black" points="311,-381 311,-411 460,-411 460,-381 311,-381"/>
<text text-anchor="start" x="319" y="-399" font-family="Helvetica,sans-Serif" font-size="10.00">log4cplus::DeviceAppender</text>
<text text-anchor="middle" x="385.5" y="-388" font-family="Helvetica,sans-Serif" font-size="10.00">&lt; Device &gt;</text>
</a>
</g>
</g>
<!-- Node1&#45;&gt;Node7 -->
<g id="edge6" class="edge">
<title>Node1&#45;&gt;Node7</title>
<path fill="none" stroke="midnightblue" d="M212.8,-293.99C229.04,-315.49 259.05,-351.04 293,-371 299.53,-374.84 306.67,-378.1 313.98,-380.88"/>
<polygon fill="midnightblue" stroke="midnightblue" points="215.46,-291.7 206.72,-285.73 209.83,-295.85 215.46,-291.7"/>
</g>
<!-- Node8 -->
<g id="node8" class="node">
<title>Node8</title>
<g id="a_node8"><a xlink:href="classlog4cplus_1_1FileAppenderBase.html" target="_top" xlink:title="Base class for Appenders writing log events to a file.">
<polygon fill="white" stroke="black" points="307,-342.5 307,-361.5 464,-361.5 464,-342.5 307,-342.5"/>
<text text-anchor="middle" x="385.5" y="-349.5" font-family="Helvetica,sans-Serif" font-size="10.00">log4cplus::FileAppenderBase</text>
</a>
</g>
</g>
<!-- Node1&#45;&gt;Node8 -->
<g id="edge7" class="edge">
<title>Node1&#45;&gt;Node8</title>
<path fill="none" stroke="midnightblue" d="M220.6,-291.52C238.75,-304.47 266.37,-322.45 293,-333 302.65,-336.83 313.2,-339.93 323.59,-342.42"/>
<polygon fill="midnightblue" stroke="midnightblue" points="222.64,-288.68 212.49,-285.62 218.52,-294.34 222.64,-288.68"/>
</g>
<!-- Node13 -->
<g id="node13" class="node">
<title>Node13</title>
<g id="a_node13"><a xlink:href="classlog4cplus_1_1Log4jUdpAppender.html" target="_top" xlink:title="Sends log events as Log4j XML to a remote a log server.">
<polygon fill="white" stroke="black" points="305,-304.5 305,-323.5 466,-323.5 466,-304.5 305,-304.5"/>
<text text-anchor="middle" x="385.5" y="-311.5" font-family="Helvetica,sans-Serif" font-size="10.00">log4cplus::Log4jUdpAppender</text>
</a>
</g>
</g>
<!-- Node1&#45;&gt;Node13 -->
<g id="edge12" class="edge">
<title>Node1&#45;&gt;Node13</title>
<path fill="none" stroke="midnightblue" d="M256.37,-287.61C282.61,-293.01 313.44,-299.36 338.28,-304.48"/>
<polygon fill="midnightblue" stroke="midnightblue" points="257.06,-284.18 246.56,-285.59 255.65,-291.03 257.06,-284.18"/>
</g>
<!-- Node14 -->
<g id="node14" class="node">
<title>Node14</title>
<g id="a_node14"><a xlink:href="classlog4cplus_1_1MSTTSAppender.html" target="_top" xlink:title=" ">
<polygon fill="white" stroke="black" points="311,-266.5 311,-285.5 460,-285.5 460,-266.5 311,-266.5"/>
<text text-anchor="middle" x="385.5" y="-273.5" font-family="Helvetica,sans-Serif" font-size="10.00">log4cplus::MSTTSAppender</text>
</a>
</g>
</g>
<!-- Node1&#45;&gt;Node14 -->
<g id="edge13" class="edge">
<title>Node1&#45;&gt;Node14</title>
<path fill="none" stroke="midnightblue" d="M267.23,-276C281.35,-276 296.32,-276 310.67,-276"/>
<polygon fill="midnightblue" stroke="midnightblue" points="267.11,-272.5 257.11,-276 267.11,-279.5 267.11,-272.5"/>
</g>
<!-- Node15 -->
<g id="node15" class="node">
<title>Node15</title>
<g id="a_node15"><a xlink:href="classlog4cplus_1_1NTEventLogAppender.html" target="_top" xlink:title="Appends log events to NT EventLog.">
<polygon fill="white" stroke="black" points="298.5,-228.5 298.5,-247.5 472.5,-247.5 472.5,-228.5 298.5,-228.5"/>
<text text-anchor="middle" x="385.5" y="-235.5" font-family="Helvetica,sans-Serif" font-size="10.00">log4cplus::NTEventLogAppender</text>
</a>
</g>
</g>
<!-- Node1&#45;&gt;Node15 -->
<g id="edge14" class="edge">
<title>Node1&#45;&gt;Node15</title>
<path fill="none" stroke="midnightblue" d="M256.37,-264.39C282.61,-258.99 313.44,-252.64 338.28,-247.52"/>
<polygon fill="midnightblue" stroke="midnightblue" points="255.65,-260.97 246.56,-266.41 257.06,-267.82 255.65,-260.97"/>
</g>
<!-- Node16 -->
<g id="node16" class="node">
<title>Node16</title>
<g id="a_node16"><a xlink:href="classlog4cplus_1_1NullAppender.html" target="_top" xlink:title="Appends log events to a file.">
<polygon fill="white" stroke="black" points="318,-190.5 318,-209.5 453,-209.5 453,-190.5 318,-190.5"/>
<text text-anchor="middle" x="385.5" y="-197.5" font-family="Helvetica,sans-Serif" font-size="10.00">log4cplus::NullAppender</text>
</a>
</g>
</g>
<!-- Node1&#45;&gt;Node16 -->
<g id="edge15" class="edge">
<title>Node1&#45;&gt;Node16</title>
<path fill="none" stroke="midnightblue" d="M220.6,-260.48C238.75,-247.53 266.37,-229.55 293,-219 302.65,-215.17 313.2,-212.07 323.59,-209.58"/>
<polygon fill="midnightblue" stroke="midnightblue" points="218.52,-257.66 212.49,-266.38 222.64,-263.32 218.52,-257.66"/>
</g>
<!-- Node17 -->
<g id="node17" class="node">
<title>Node17</title>
<g id="a_node17"><a xlink:href="classlog4cplus_1_1Qt4DebugAppender.html" target="_top" xlink:title=" ">
<polygon fill="white" stroke="black" points="303.5,-152.5 303.5,-171.5 467.5,-171.5 467.5,-152.5 303.5,-152.5"/>
<text text-anchor="middle" x="385.5" y="-159.5" font-family="Helvetica,sans-Serif" font-size="10.00">log4cplus::Qt4DebugAppender</text>
</a>
</g>
</g>
<!-- Node1&#45;&gt;Node17 -->
<g id="edge16" class="edge">
<title>Node1&#45;&gt;Node17</title>
<path fill="none" stroke="midnightblue" d="M212.36,-257.99C228.33,-236.17 258.27,-199.99 293,-181 300.12,-177.11 307.95,-174.01 315.93,-171.55"/>
<polygon fill="midnightblue" stroke="midnightblue" points="209.34,-256.19 206.39,-266.37 215.04,-260.25 209.34,-256.19"/>
</g>
<!-- Node18 -->
<g id="node18" class="node">
<title>Node18</title>
<g id="a_node18"><a xlink:href="classlog4cplus_1_1Qt5DebugAppender.html" target="_top" xlink:title=" ">
<polygon fill="white" stroke="black" points="303.5,-114.5 303.5,-133.5 467.5,-133.5 467.5,-114.5 303.5,-114.5"/>
<text text-anchor="middle" x="385.5" y="-121.5" font-family="Helvetica,sans-Serif" font-size="10.00">log4cplus::Qt5DebugAppender</text>
</a>
</g>
</g>
<!-- Node1&#45;&gt;Node18 -->
<g id="edge17" class="edge">
<title>Node1&#45;&gt;Node18</title>
<path fill="none" stroke="midnightblue" d="M207.77,-256.87C220.77,-227.43 249.84,-171.44 293,-143 298.83,-139.16 305.28,-136.08 311.98,-133.6"/>
<polygon fill="midnightblue" stroke="midnightblue" points="204.4,-255.84 203.71,-266.42 210.85,-258.58 204.4,-255.84"/>
</g>
<!-- Node19 -->
<g id="node19" class="node">
<title>Node19</title>
<g id="a_node19"><a xlink:href="classlog4cplus_1_1SocketAppender.html" target="_top" xlink:title="Sends spi::InternalLoggingEvent objects to a remote a log server.">
<polygon fill="white" stroke="black" points="311.5,-76.5 311.5,-95.5 459.5,-95.5 459.5,-76.5 311.5,-76.5"/>
<text text-anchor="middle" x="385.5" y="-83.5" font-family="Helvetica,sans-Serif" font-size="10.00">log4cplus::SocketAppender</text>
</a>
</g>
</g>
<!-- Node1&#45;&gt;Node19 -->
<g id="edge18" class="edge">
<title>Node1&#45;&gt;Node19</title>
<path fill="none" stroke="midnightblue" d="M204.74,-256.6C214.61,-220.63 240.87,-143.71 293,-105 298.47,-100.94 304.61,-97.7 311.05,-95.12"/>
<polygon fill="midnightblue" stroke="midnightblue" points="201.34,-255.81 202.2,-266.37 208.11,-257.57 201.34,-255.81"/>
</g>
<!-- Node20 -->
<g id="node20" class="node">
<title>Node20</title>
<g id="a_node20"><a xlink:href="classlog4cplus_1_1SysLogAppender.html" target="_top" xlink:title="Appends log events to a file.">
<polygon fill="white" stroke="black" points="310.5,-38.5 310.5,-57.5 460.5,-57.5 460.5,-38.5 310.5,-38.5"/>
<text text-anchor="middle" x="385.5" y="-45.5" font-family="Helvetica,sans-Serif" font-size="10.00">log4cplus::SysLogAppender</text>
</a>
</g>
</g>
<!-- Node1&#45;&gt;Node20 -->
<g id="edge19" class="edge">
<title>Node1&#45;&gt;Node20</title>
<path fill="none" stroke="midnightblue" d="M202.75,-256.19C209.66,-214.25 231.82,-116.31 293,-67 298.18,-62.83 304.05,-59.5 310.25,-56.86"/>
<polygon fill="midnightblue" stroke="midnightblue" points="199.26,-255.82 201.21,-266.23 206.18,-256.87 199.26,-255.82"/>
</g>
<!-- Node21 -->
<g id="node21" class="node">
<title>Node21</title>
<g id="a_node21"><a xlink:href="classlog4cplus_1_1Win32ConsoleAppender.html" target="_top" xlink:title="Prints events to Win32 console.">
<polygon fill="white" stroke="black" points="293,-0.5 293,-19.5 478,-19.5 478,-0.5 293,-0.5"/>
<text text-anchor="middle" x="385.5" y="-7.5" font-family="Helvetica,sans-Serif" font-size="10.00">log4cplus::Win32ConsoleAppender</text>
</a>
</g>
</g>
<!-- Node1&#45;&gt;Node21 -->
<g id="edge20" class="edge">
<title>Node1&#45;&gt;Node21</title>
<path fill="none" stroke="midnightblue" d="M201.23,-256.25C205.29,-209.09 222.4,-89.4 293,-29 297.44,-25.2 302.44,-22.1 307.75,-19.57"/>
<polygon fill="midnightblue" stroke="midnightblue" points="197.73,-256.12 200.47,-266.36 204.71,-256.65 197.73,-256.12"/>
</g>
<!-- Node2 -->
<g id="node2" class="node">
<title>Node2</title>
<g id="a_node2"><a xlink:href="classlog4cplus_1_1helpers_1_1SharedObject.html" target="_top" xlink:title=" ">
<polygon fill="white" stroke="black" points="0,-261 0,-291 105,-291 105,-261 0,-261"/>
<text text-anchor="start" x="8" y="-279" font-family="Helvetica,sans-Serif" font-size="10.00">log4cplus::helpers</text>
<text text-anchor="middle" x="52.5" y="-268" font-family="Helvetica,sans-Serif" font-size="10.00">::SharedObject</text>
</a>
</g>
</g>
<!-- Node2&#45;&gt;Node1 -->
<g id="edge1" class="edge">
<title>Node2&#45;&gt;Node1</title>
<path fill="none" stroke="midnightblue" d="M115.39,-276C123.8,-276 132.4,-276 140.72,-276"/>
<polygon fill="midnightblue" stroke="midnightblue" points="115.26,-272.5 105.26,-276 115.26,-279.5 115.26,-272.5"/>
</g>
<!-- Node9 -->
<g id="node9" class="node">
<title>Node9</title>
<g id="a_node9"><a xlink:href="classlog4cplus_1_1FileAppender.html" target="_top" xlink:title="Appends log events to a file.">
<polygon fill="white" stroke="black" points="526.5,-364.5 526.5,-383.5 659.5,-383.5 659.5,-364.5 526.5,-364.5"/>
<text text-anchor="middle" x="593" y="-371.5" font-family="Helvetica,sans-Serif" font-size="10.00">log4cplus::FileAppender</text>
</a>
</g>
</g>
<!-- Node8&#45;&gt;Node9 -->
<g id="edge8" class="edge">
<title>Node8&#45;&gt;Node9</title>
<path fill="none" stroke="midnightblue" d="M474.36,-361.41C491.77,-363.27 509.76,-365.2 526.28,-366.96"/>
<polygon fill="midnightblue" stroke="midnightblue" points="474.51,-357.9 464.19,-360.32 473.76,-364.86 474.51,-357.9"/>
</g>
<!-- Node12 -->
<g id="node12" class="node">
<title>Node12</title>
<g id="a_node12"><a xlink:href="classlog4cplus_1_1TimeBasedRollingFileAppender.html" target="_top" xlink:title="TimeBasedRollingFileAppender extends FileAppenderBase so that the underlying file is rolled over at a...">
<polygon fill="white" stroke="black" points="514,-315 514,-345 672,-345 672,-315 514,-315"/>
<text text-anchor="start" x="522" y="-333" font-family="Helvetica,sans-Serif" font-size="10.00">log4cplus::TimeBasedRolling</text>
<text text-anchor="middle" x="593" y="-322" font-family="Helvetica,sans-Serif" font-size="10.00">FileAppender</text>
</a>
</g>
</g>
<!-- Node8&#45;&gt;Node12 -->
<g id="edge11" class="edge">
<title>Node8&#45;&gt;Node12</title>
<path fill="none" stroke="midnightblue" d="M474.19,-342.61C487.37,-341.2 500.89,-339.75 513.86,-338.37"/>
<polygon fill="midnightblue" stroke="midnightblue" points="473.76,-339.14 464.19,-343.68 474.51,-346.1 473.76,-339.14"/>
</g>
<!-- Node10 -->
<g id="node10" class="node">
<title>Node10</title>
<g id="a_node10"><a xlink:href="classlog4cplus_1_1DailyRollingFileAppender.html" target="_top" xlink:title="DailyRollingFileAppender extends FileAppender so that the underlying file is rolled over at a user ch...">
<polygon fill="white" stroke="black" points="718.5,-381 718.5,-411 864.5,-411 864.5,-381 718.5,-381"/>
<text text-anchor="start" x="726.5" y="-399" font-family="Helvetica,sans-Serif" font-size="10.00">log4cplus::DailyRollingFile</text>
<text text-anchor="middle" x="791.5" y="-388" font-family="Helvetica,sans-Serif" font-size="10.00">Appender</text>
</a>
</g>
</g>
<!-- Node9&#45;&gt;Node10 -->
<g id="edge9" class="edge">
<title>Node9&#45;&gt;Node10</title>
<path fill="none" stroke="midnightblue" d="M670.02,-382.51C685.94,-384.29 702.67,-386.17 718.44,-387.93"/>
<polygon fill="midnightblue" stroke="midnightblue" points="670.03,-378.99 659.7,-381.36 669.25,-385.95 670.03,-378.99"/>
</g>
<!-- Node11 -->
<g id="node11" class="node">
<title>Node11</title>
<g id="a_node11"><a xlink:href="classlog4cplus_1_1RollingFileAppender.html" target="_top" xlink:title="RollingFileAppender extends FileAppender to backup the log files when they reach a certain size.">
<polygon fill="white" stroke="black" points="708,-342.5 708,-361.5 875,-361.5 875,-342.5 708,-342.5"/>
<text text-anchor="middle" x="791.5" y="-349.5" font-family="Helvetica,sans-Serif" font-size="10.00">log4cplus::RollingFileAppender</text>
</a>
</g>
</g>
<!-- Node9&#45;&gt;Node11 -->
<g id="edge10" class="edge">
<title>Node9&#45;&gt;Node11</title>
<path fill="none" stroke="midnightblue" d="M669.96,-365.5C682.34,-364.11 695.21,-362.67 707.73,-361.27"/>
<polygon fill="midnightblue" stroke="midnightblue" points="669.25,-362.05 659.7,-366.64 670.03,-369.01 669.25,-362.05"/>
</g>
</g>
</svg>
