<?xml version="1.0" encoding="UTF-8" standalone="no"?>
<!DOCTYPE svg PUBLIC "-//W3C//DTD SVG 1.1//EN"
 "http://www.w3.org/Graphics/SVG/1.1/DTD/svg11.dtd">
<!-- Generated by graphviz version 2.43.0 (0)
 -->
<!-- Title: log4cplus::TimeBasedRollingFileAppender Pages: 1 -->
<svg width="280pt" height="309pt"
 viewBox="0.00 0.00 280.00 309.00" xmlns="http://www.w3.org/2000/svg" xmlns:xlink="http://www.w3.org/1999/xlink">
<g id="graph0" class="graph" transform="scale(1 1) rotate(0) translate(4 305)">
<title>log4cplus::TimeBasedRollingFileAppender</title>
<polygon fill="white" stroke="transparent" points="-4,4 -4,-305 276,-305 276,4 -4,4"/>
<!-- Node1 -->
<g id="node1" class="node">
<title>Node1</title>
<g id="a_node1"><a xlink:title="TimeBasedRollingFileAppender extends FileAppenderBase so that the underlying file is rolled over at a...">
<polygon fill="#bfbfbf" stroke="black" points="17.5,-0.5 17.5,-30.5 175.5,-30.5 175.5,-0.5 17.5,-0.5"/>
<text text-anchor="start" x="25.5" y="-18.5" font-family="Helvetica,sans-Serif" font-size="10.00">log4cplus::TimeBasedRolling</text>
<text text-anchor="middle" x="96.5" y="-7.5" font-family="Helvetica,sans-Serif" font-size="10.00">FileAppender</text>
</a>
</g>
</g>
<!-- Node2 -->
<g id="node2" class="node">
<title>Node2</title>
<g id="a_node2"><a xlink:href="classlog4cplus_1_1FileAppenderBase.html" target="_top" xlink:title="Base class for Appenders writing log events to a file.">
<polygon fill="white" stroke="black" points="18,-68.5 18,-87.5 175,-87.5 175,-68.5 18,-68.5"/>
<text text-anchor="middle" x="96.5" y="-75.5" font-family="Helvetica,sans-Serif" font-size="10.00">log4cplus::FileAppenderBase</text>
</a>
</g>
</g>
<!-- Node2&#45;&gt;Node1 -->
<g id="edge1" class="edge">
<title>Node2&#45;&gt;Node1</title>
<path fill="none" stroke="midnightblue" d="M96.5,-58.22C96.5,-49.36 96.5,-38.96 96.5,-30.76"/>
<polygon fill="midnightblue" stroke="midnightblue" points="93,-58.33 96.5,-68.33 100,-58.33 93,-58.33"/>
</g>
<!-- Node3 -->
<g id="node3" class="node">
<title>Node3</title>
<g id="a_node3"><a xlink:href="classlog4cplus_1_1Appender.html" target="_top" xlink:title="Extend this class for implementing your own strategies for printing log statements.">
<polygon fill="white" stroke="black" points="38.5,-125.5 38.5,-144.5 154.5,-144.5 154.5,-125.5 38.5,-125.5"/>
<text text-anchor="middle" x="96.5" y="-132.5" font-family="Helvetica,sans-Serif" font-size="10.00">log4cplus::Appender</text>
</a>
</g>
</g>
<!-- Node3&#45;&gt;Node2 -->
<g id="edge2" class="edge">
<title>Node3&#45;&gt;Node2</title>
<path fill="none" stroke="midnightblue" d="M96.5,-115.12C96.5,-105.82 96.5,-95.06 96.5,-87.71"/>
<polygon fill="midnightblue" stroke="midnightblue" points="93,-115.41 96.5,-125.41 100,-115.41 93,-115.41"/>
</g>
<!-- Node4 -->
<g id="node4" class="node">
<title>Node4</title>
<g id="a_node4"><a xlink:href="classlog4cplus_1_1helpers_1_1SharedObject.html" target="_top" xlink:title=" ">
<polygon fill="white" stroke="black" points="0,-192.5 0,-222.5 105,-222.5 105,-192.5 0,-192.5"/>
<text text-anchor="start" x="8" y="-210.5" font-family="Helvetica,sans-Serif" font-size="10.00">log4cplus::helpers</text>
<text text-anchor="middle" x="52.5" y="-199.5" font-family="Helvetica,sans-Serif" font-size="10.00">::SharedObject</text>
</a>
</g>
</g>
<!-- Node4&#45;&gt;Node3 -->
<g id="edge3" class="edge">
<title>Node4&#45;&gt;Node3</title>
<path fill="none" stroke="midnightblue" d="M66.78,-183.63C75.02,-170.42 84.91,-154.57 90.95,-144.89"/>
<polygon fill="midnightblue" stroke="midnightblue" points="63.73,-181.9 61.4,-192.23 69.67,-185.6 63.73,-181.9"/>
</g>
<!-- Node5 -->
<g id="node5" class="node">
<title>Node5</title>
<g id="a_node5"><a xlink:href="classlog4cplus_1_1helpers_1_1SharedObjectPtr.html" target="_top" xlink:title=" ">
<polygon fill="white" stroke="black" points="123,-192.5 123,-222.5 272,-222.5 272,-192.5 123,-192.5"/>
<text text-anchor="start" x="131" y="-210.5" font-family="Helvetica,sans-Serif" font-size="10.00">log4cplus::helpers</text>
<text text-anchor="middle" x="197.5" y="-199.5" font-family="Helvetica,sans-Serif" font-size="10.00">::SharedObjectPtr&lt; Filter &gt;</text>
</a>
</g>
</g>
<!-- Node5&#45;&gt;Node3 -->
<g id="edge4" class="edge">
<title>Node5&#45;&gt;Node3</title>
<path fill="none" stroke="#9a32cd" stroke-dasharray="5,2" d="M168.71,-186.4C148.97,-172.62 123.76,-155.03 108.95,-144.69"/>
<polygon fill="#9a32cd" stroke="#9a32cd" points="166.86,-189.38 177.06,-192.23 170.86,-183.64 166.86,-189.38"/>
<text text-anchor="middle" x="162.5" y="-166" font-family="Helvetica,sans-Serif" font-size="10.00"> filter</text>
</g>
<!-- Node6 -->
<g id="node6" class="node">
<title>Node6</title>
<g id="a_node6"><a xlink:href="classlog4cplus_1_1helpers_1_1SharedObjectPtr.html" target="_top" xlink:title=" ">
<polygon fill="white" stroke="black" points="132.5,-270.5 132.5,-300.5 262.5,-300.5 262.5,-270.5 132.5,-270.5"/>
<text text-anchor="start" x="140.5" y="-288.5" font-family="Helvetica,sans-Serif" font-size="10.00">log4cplus::helpers</text>
<text text-anchor="middle" x="197.5" y="-277.5" font-family="Helvetica,sans-Serif" font-size="10.00">::SharedObjectPtr&lt; T &gt;</text>
</a>
</g>
</g>
<!-- Node6&#45;&gt;Node5 -->
<g id="edge5" class="edge">
<title>Node6&#45;&gt;Node5</title>
<path fill="none" stroke="orange" stroke-dasharray="5,2" d="M197.5,-260.09C197.5,-247.76 197.5,-233.22 197.5,-222.73"/>
<polygon fill="orange" stroke="orange" points="194,-260.2 197.5,-270.2 201,-260.21 194,-260.2"/>
<text text-anchor="middle" x="223" y="-244" font-family="Helvetica,sans-Serif" font-size="10.00"> &lt; Filter &gt;</text>
</g>
</g>
</svg>
