<?xml version="1.0" encoding="UTF-8" standalone="no"?>
<!DOCTYPE svg PUBLIC "-//W3C//DTD SVG 1.1//EN"
 "http://www.w3.org/Graphics/SVG/1.1/DTD/svg11.dtd">
<!-- Generated by graphviz version 2.43.0 (0)
 -->
<!-- Title: log4cplus::Logger Pages: 1 -->
<svg width="824pt" height="168pt"
 viewBox="0.00 0.00 824.00 168.00" xmlns="http://www.w3.org/2000/svg" xmlns:xlink="http://www.w3.org/1999/xlink">
<g id="graph0" class="graph" transform="scale(1 1) rotate(0) translate(4 164)">
<title>log4cplus::Logger</title>
<polygon fill="white" stroke="transparent" points="-4,4 -4,-164 820,-164 820,4 -4,4"/>
<!-- Node1 -->
<g id="node1" class="node">
<title>Node1</title>
<g id="a_node1"><a xlink:title="This is the central class in the log4cplus package.">
<polygon fill="#bfbfbf" stroke="black" points="714,-126 714,-145 816,-145 816,-126 714,-126"/>
<text text-anchor="middle" x="765" y="-133" font-family="Helvetica,sans-Serif" font-size="10.00">log4cplus::Logger</text>
</a>
</g>
</g>
<!-- Node2 -->
<g id="node2" class="node">
<title>Node2</title>
<g id="a_node2"><a xlink:href="classlog4cplus_1_1spi_1_1AppenderAttachable.html" target="_top" xlink:title="This Interface is for attaching Appenders to objects.">
<polygon fill="white" stroke="black" points="0,-129.5 0,-159.5 136,-159.5 136,-129.5 0,-129.5"/>
<text text-anchor="start" x="8" y="-147.5" font-family="Helvetica,sans-Serif" font-size="10.00">log4cplus::spi::Appender</text>
<text text-anchor="middle" x="68" y="-136.5" font-family="Helvetica,sans-Serif" font-size="10.00">Attachable</text>
</a>
</g>
</g>
<!-- Node2&#45;&gt;Node1 -->
<g id="edge1" class="edge">
<title>Node2&#45;&gt;Node1</title>
<path fill="none" stroke="midnightblue" d="M146.16,-144.18C174.14,-144.03 206,-143.81 235,-143.5 410.88,-141.64 619.64,-138.09 713.67,-136.41"/>
<polygon fill="midnightblue" stroke="midnightblue" points="146.02,-140.68 136.04,-144.23 146.06,-147.68 146.02,-140.68"/>
</g>
<!-- Node5 -->
<g id="node5" class="node">
<title>Node5</title>
<g id="a_node5"><a xlink:href="classlog4cplus_1_1helpers_1_1AppenderAttachableImpl.html" target="_top" xlink:title="This Interface is for attaching Appenders to objects.">
<polygon fill="white" stroke="black" points="271,-98.5 271,-128.5 414,-128.5 414,-98.5 271,-98.5"/>
<text text-anchor="start" x="279" y="-116.5" font-family="Helvetica,sans-Serif" font-size="10.00">log4cplus::helpers</text>
<text text-anchor="middle" x="342.5" y="-105.5" font-family="Helvetica,sans-Serif" font-size="10.00">::AppenderAttachableImpl</text>
</a>
</g>
</g>
<!-- Node2&#45;&gt;Node5 -->
<g id="edge5" class="edge">
<title>Node2&#45;&gt;Node5</title>
<path fill="none" stroke="midnightblue" d="M146.06,-135.73C185.3,-131.27 232.66,-125.88 270.94,-121.53"/>
<polygon fill="midnightblue" stroke="midnightblue" points="145.55,-132.27 136.01,-136.88 146.34,-139.22 145.55,-132.27"/>
</g>
<!-- Node3 -->
<g id="node3" class="node">
<title>Node3</title>
<g id="a_node3"><a xlink:href="classlog4cplus_1_1spi_1_1LoggerImpl.html" target="_top" xlink:title="This is the central class in the log4cplus package.">
<polygon fill="white" stroke="black" points="503,-74 503,-93 647,-93 647,-74 503,-74"/>
<text text-anchor="middle" x="575" y="-81" font-family="Helvetica,sans-Serif" font-size="10.00">log4cplus::spi::LoggerImpl</text>
</a>
</g>
</g>
<!-- Node3&#45;&gt;Node1 -->
<g id="edge2" class="edge">
<title>Node3&#45;&gt;Node1</title>
<path fill="none" stroke="#9a32cd" stroke-dasharray="5,2" d="M620.42,-95.79C653.76,-105.01 698.74,-117.45 729.42,-125.93"/>
<polygon fill="#9a32cd" stroke="#9a32cd" points="621.05,-92.33 610.48,-93.04 619.19,-99.08 621.05,-92.33"/>
<text text-anchor="middle" x="680.5" y="-118.5" font-family="Helvetica,sans-Serif" font-size="10.00"> value</text>
</g>
<!-- Node4 -->
<g id="node4" class="node">
<title>Node4</title>
<g id="a_node4"><a xlink:href="classlog4cplus_1_1helpers_1_1SharedObject.html" target="_top" xlink:title=" ">
<polygon fill="white" stroke="black" points="290,-49.5 290,-79.5 395,-79.5 395,-49.5 290,-49.5"/>
<text text-anchor="start" x="298" y="-67.5" font-family="Helvetica,sans-Serif" font-size="10.00">log4cplus::helpers</text>
<text text-anchor="middle" x="342.5" y="-56.5" font-family="Helvetica,sans-Serif" font-size="10.00">::SharedObject</text>
</a>
</g>
</g>
<!-- Node4&#45;&gt;Node3 -->
<g id="edge3" class="edge">
<title>Node4&#45;&gt;Node3</title>
<path fill="none" stroke="midnightblue" d="M405.56,-69.62C435.54,-72.09 471.68,-75.07 502.78,-77.63"/>
<polygon fill="midnightblue" stroke="midnightblue" points="405.48,-66.1 395.23,-68.76 404.91,-73.07 405.48,-66.1"/>
</g>
<!-- Node5&#45;&gt;Node3 -->
<g id="edge4" class="edge">
<title>Node5&#45;&gt;Node3</title>
<path fill="none" stroke="midnightblue" d="M424.25,-102.99C449.77,-99.67 477.79,-96.02 502.61,-92.79"/>
<polygon fill="midnightblue" stroke="midnightblue" points="423.69,-99.53 414.22,-104.3 424.59,-106.48 423.69,-99.53"/>
</g>
<!-- Node6 -->
<g id="node6" class="node">
<title>Node6</title>
<g id="a_node6"><a xlink:href="classlog4cplus_1_1helpers_1_1SharedObjectPtr.html" target="_top" xlink:title=" ">
<polygon fill="white" stroke="black" points="253,-0.5 253,-30.5 432,-30.5 432,-0.5 253,-0.5"/>
<text text-anchor="start" x="261" y="-18.5" font-family="Helvetica,sans-Serif" font-size="10.00">log4cplus::helpers</text>
<text text-anchor="middle" x="342.5" y="-7.5" font-family="Helvetica,sans-Serif" font-size="10.00">::SharedObjectPtr&lt; LoggerImpl &gt;</text>
</a>
</g>
</g>
<!-- Node6&#45;&gt;Node3 -->
<g id="edge6" class="edge">
<title>Node6&#45;&gt;Node3</title>
<path fill="none" stroke="#9a32cd" stroke-dasharray="5,2" d="M407.13,-33.32C415.5,-35.71 423.96,-38.15 432,-40.5 470.32,-51.71 514.29,-65.11 543.03,-73.94"/>
<polygon fill="#9a32cd" stroke="#9a32cd" points="407.94,-29.91 397.37,-30.54 406.03,-36.65 407.94,-29.91"/>
<text text-anchor="middle" x="467.5" y="-58.5" font-family="Helvetica,sans-Serif" font-size="10.00"> parent</text>
</g>
<!-- Node7 -->
<g id="node7" class="node">
<title>Node7</title>
<g id="a_node7"><a xlink:href="classlog4cplus_1_1helpers_1_1SharedObjectPtr.html" target="_top" xlink:title=" ">
<polygon fill="white" stroke="black" points="3,-0.5 3,-30.5 133,-30.5 133,-0.5 3,-0.5"/>
<text text-anchor="start" x="11" y="-18.5" font-family="Helvetica,sans-Serif" font-size="10.00">log4cplus::helpers</text>
<text text-anchor="middle" x="68" y="-7.5" font-family="Helvetica,sans-Serif" font-size="10.00">::SharedObjectPtr&lt; T &gt;</text>
</a>
</g>
</g>
<!-- Node7&#45;&gt;Node6 -->
<g id="edge7" class="edge">
<title>Node7&#45;&gt;Node6</title>
<path fill="none" stroke="orange" stroke-dasharray="5,2" d="M143.51,-15.5C177.33,-15.5 217.59,-15.5 252.95,-15.5"/>
<polygon fill="orange" stroke="orange" points="143.23,-12 133.23,-15.5 143.23,-19 143.23,-12"/>
<text text-anchor="middle" x="194.5" y="-18.5" font-family="Helvetica,sans-Serif" font-size="10.00"> &lt; LoggerImpl &gt;</text>
</g>
</g>
</svg>
