<?xml version="1.0" encoding="UTF-8" standalone="no"?>
<!DOCTYPE svg PUBLIC "-//W3C//DTD SVG 1.1//EN"
 "http://www.w3.org/Graphics/SVG/1.1/DTD/svg11.dtd">
<!-- Generated by graphviz version 2.43.0 (0)
 -->
<!-- Title: log4cplus::SysLogAppender Pages: 1 -->
<svg width="1011pt" height="280pt"
 viewBox="0.00 0.00 1011.00 280.00" xmlns="http://www.w3.org/2000/svg" xmlns:xlink="http://www.w3.org/1999/xlink">
<g id="graph0" class="graph" transform="scale(1 1) rotate(0) translate(4 276)">
<title>log4cplus::SysLogAppender</title>
<polygon fill="white" stroke="transparent" points="-4,4 -4,-276 1007,-276 1007,4 -4,4"/>
<!-- Node1 -->
<g id="node1" class="node">
<title>Node1</title>
<g id="a_node1"><a xlink:title="Appends log events to a file.">
<polygon fill="#bfbfbf" stroke="black" points="853,-104 853,-123 1003,-123 1003,-104 853,-104"/>
<text text-anchor="middle" x="928" y="-111" font-family="Helvetica,sans-Serif" font-size="10.00">log4cplus::SysLogAppender</text>
</a>
</g>
</g>
<!-- Node2 -->
<g id="node2" class="node">
<title>Node2</title>
<g id="a_node2"><a xlink:href="classlog4cplus_1_1Appender.html" target="_top" xlink:title="Extend this class for implementing your own strategies for printing log statements.">
<polygon fill="white" stroke="black" points="623.5,-198 623.5,-217 739.5,-217 739.5,-198 623.5,-198"/>
<text text-anchor="middle" x="681.5" y="-205" font-family="Helvetica,sans-Serif" font-size="10.00">log4cplus::Appender</text>
</a>
</g>
</g>
<!-- Node2&#45;&gt;Node1 -->
<g id="edge1" class="edge">
<title>Node2&#45;&gt;Node1</title>
<path fill="none" stroke="midnightblue" d="M749.85,-201.62C777.08,-197.6 808.31,-190.85 835,-179.5 868.11,-165.43 900.89,-137.75 916.9,-123.11"/>
<polygon fill="midnightblue" stroke="midnightblue" points="749.06,-198.2 739.63,-203.03 750.01,-205.13 749.06,-198.2"/>
</g>
<!-- Node3 -->
<g id="node3" class="node">
<title>Node3</title>
<g id="a_node3"><a xlink:href="classlog4cplus_1_1helpers_1_1SharedObject.html" target="_top" xlink:title=" ">
<polygon fill="white" stroke="black" points="291,-241.5 291,-271.5 396,-271.5 396,-241.5 291,-241.5"/>
<text text-anchor="start" x="299" y="-259.5" font-family="Helvetica,sans-Serif" font-size="10.00">log4cplus::helpers</text>
<text text-anchor="middle" x="343.5" y="-248.5" font-family="Helvetica,sans-Serif" font-size="10.00">::SharedObject</text>
</a>
</g>
</g>
<!-- Node3&#45;&gt;Node2 -->
<g id="edge2" class="edge">
<title>Node3&#45;&gt;Node2</title>
<path fill="none" stroke="midnightblue" d="M406.55,-248.76C457.3,-242.26 530.9,-232.47 595,-222.5 605.72,-220.83 617.18,-218.92 628.1,-217.02"/>
<polygon fill="midnightblue" stroke="midnightblue" points="405.88,-245.32 396.4,-250.05 406.76,-252.26 405.88,-245.32"/>
</g>
<!-- Node4 -->
<g id="node4" class="node">
<title>Node4</title>
<g id="a_node4"><a xlink:href="classlog4cplus_1_1helpers_1_1SharedObjectPtr.html" target="_top" xlink:title=" ">
<polygon fill="white" stroke="black" points="269,-192.5 269,-222.5 418,-222.5 418,-192.5 269,-192.5"/>
<text text-anchor="start" x="277" y="-210.5" font-family="Helvetica,sans-Serif" font-size="10.00">log4cplus::helpers</text>
<text text-anchor="middle" x="343.5" y="-199.5" font-family="Helvetica,sans-Serif" font-size="10.00">::SharedObjectPtr&lt; Filter &gt;</text>
</a>
</g>
</g>
<!-- Node4&#45;&gt;Node2 -->
<g id="edge3" class="edge">
<title>Node4&#45;&gt;Node2</title>
<path fill="none" stroke="#9a32cd" stroke-dasharray="5,2" d="M428.58,-207.5C489.36,-207.5 569.87,-207.5 623.33,-207.5"/>
<polygon fill="#9a32cd" stroke="#9a32cd" points="428.24,-204 418.24,-207.5 428.24,-211 428.24,-204"/>
<text text-anchor="middle" x="515.5" y="-210.5" font-family="Helvetica,sans-Serif" font-size="10.00"> filter</text>
</g>
<!-- Node5 -->
<g id="node5" class="node">
<title>Node5</title>
<g id="a_node5"><a xlink:href="classlog4cplus_1_1helpers_1_1SharedObjectPtr.html" target="_top" xlink:title=" ">
<polygon fill="white" stroke="black" points="0,-169.5 0,-199.5 130,-199.5 130,-169.5 0,-169.5"/>
<text text-anchor="start" x="8" y="-187.5" font-family="Helvetica,sans-Serif" font-size="10.00">log4cplus::helpers</text>
<text text-anchor="middle" x="65" y="-176.5" font-family="Helvetica,sans-Serif" font-size="10.00">::SharedObjectPtr&lt; T &gt;</text>
</a>
</g>
</g>
<!-- Node5&#45;&gt;Node4 -->
<g id="edge4" class="edge">
<title>Node5&#45;&gt;Node4</title>
<path fill="none" stroke="orange" stroke-dasharray="5,2" d="M140.33,-190.68C180.21,-194 229.19,-198.07 268.95,-201.38"/>
<polygon fill="orange" stroke="orange" points="140.39,-187.18 130.13,-189.83 139.81,-194.15 140.39,-187.18"/>
<text text-anchor="middle" x="199.5" y="-201.5" font-family="Helvetica,sans-Serif" font-size="10.00"> &lt; Filter &gt;</text>
</g>
<!-- Node10 -->
<g id="node10" class="node">
<title>Node10</title>
<g id="a_node10"><a xlink:href="classlog4cplus_1_1helpers_1_1SharedObjectPtr.html" target="_top" xlink:title=" ">
<polygon fill="white" stroke="black" points="436,-142 436,-183 595,-183 595,-142 436,-142"/>
<text text-anchor="start" x="444" y="-171" font-family="Helvetica,sans-Serif" font-size="10.00">log4cplus::helpers</text>
<text text-anchor="start" x="444" y="-160" font-family="Helvetica,sans-Serif" font-size="10.00">::SharedObjectPtr&lt; log4cplus</text>
<text text-anchor="middle" x="515.5" y="-149" font-family="Helvetica,sans-Serif" font-size="10.00">::helpers::ConnectorThread &gt;</text>
</a>
</g>
</g>
<!-- Node5&#45;&gt;Node10 -->
<g id="edge10" class="edge">
<title>Node5&#45;&gt;Node10</title>
<path fill="none" stroke="orange" stroke-dasharray="5,2" d="M134.16,-167.52C138.82,-166.73 143.47,-166.04 148,-165.5 246.73,-153.8 361.47,-155.27 435.9,-158.18"/>
<polygon fill="orange" stroke="orange" points="133.15,-164.15 123.96,-169.41 134.43,-171.03 133.15,-164.15"/>
<text text-anchor="start" x="148" y="-179.5" font-family="Helvetica,sans-Serif" font-size="10.00"> &lt; log4cplus::helpers</text>
<text text-anchor="middle" x="199.5" y="-168.5" font-family="Helvetica,sans-Serif" font-size="10.00">::ConnectorThread &gt;</text>
</g>
<!-- Node6 -->
<g id="node6" class="node">
<title>Node6</title>
<g id="a_node6"><a xlink:href="classlog4cplus_1_1helpers_1_1IConnectorThreadClient.html" target="_top" xlink:title="Interface implemented by users of ConnectorThread.">
<polygon fill="white" stroke="black" points="613,-98.5 613,-128.5 750,-128.5 750,-98.5 613,-98.5"/>
<text text-anchor="start" x="621" y="-116.5" font-family="Helvetica,sans-Serif" font-size="10.00">log4cplus::helpers</text>
<text text-anchor="middle" x="681.5" y="-105.5" font-family="Helvetica,sans-Serif" font-size="10.00">::IConnectorThreadClient</text>
</a>
</g>
</g>
<!-- Node6&#45;&gt;Node1 -->
<g id="edge5" class="edge">
<title>Node6&#45;&gt;Node1</title>
<path fill="none" stroke="darkgreen" d="M760.54,-113.5C790.03,-113.5 823.5,-113.5 852.64,-113.5"/>
<polygon fill="darkgreen" stroke="darkgreen" points="760.28,-110 750.28,-113.5 760.28,-117 760.28,-110"/>
</g>
<!-- Node7 -->
<g id="node7" class="node">
<title>Node7</title>
<g id="a_node7"><a xlink:href="classlog4cplus_1_1spi_1_1InternalLoggingEvent.html" target="_top" xlink:title="The internal representation of logging events.">
<polygon fill="white" stroke="black" points="618,-49.5 618,-79.5 745,-79.5 745,-49.5 618,-49.5"/>
<text text-anchor="start" x="626" y="-67.5" font-family="Helvetica,sans-Serif" font-size="10.00">log4cplus::spi::Internal</text>
<text text-anchor="middle" x="681.5" y="-56.5" font-family="Helvetica,sans-Serif" font-size="10.00">LoggingEvent</text>
</a>
</g>
</g>
<!-- Node7&#45;&gt;Node1 -->
<g id="edge6" class="edge">
<title>Node7&#45;&gt;Node1</title>
<path fill="none" stroke="#9a32cd" stroke-dasharray="5,2" d="M755.18,-79.06C795.41,-87.13 844.26,-96.92 879.57,-104"/>
<polygon fill="#9a32cd" stroke="#9a32cd" points="755.64,-75.59 745.15,-77.06 754.26,-82.45 755.64,-75.59"/>
<text text-anchor="middle" x="801.5" y="-97.5" font-family="Helvetica,sans-Serif" font-size="10.00"> appendFunc</text>
</g>
<!-- Node8 -->
<g id="node8" class="node">
<title>Node8</title>
<g id="a_node8"><a xlink:href="classlog4cplus_1_1helpers_1_1Socket.html" target="_top" xlink:title="This class implements client sockets (also called just &quot;sockets&quot;).">
<polygon fill="white" stroke="black" points="629,-0.5 629,-30.5 734,-30.5 734,-0.5 629,-0.5"/>
<text text-anchor="start" x="637" y="-18.5" font-family="Helvetica,sans-Serif" font-size="10.00">log4cplus::helpers</text>
<text text-anchor="middle" x="681.5" y="-7.5" font-family="Helvetica,sans-Serif" font-size="10.00">::Socket</text>
</a>
</g>
</g>
<!-- Node8&#45;&gt;Node1 -->
<g id="edge7" class="edge">
<title>Node8&#45;&gt;Node1</title>
<path fill="none" stroke="#9a32cd" stroke-dasharray="5,2" d="M743.43,-33.57C771.65,-42.53 805.41,-54.08 835,-66.5 861.96,-77.82 891.88,-93.78 910.07,-103.88"/>
<polygon fill="#9a32cd" stroke="#9a32cd" points="744.28,-30.17 733.69,-30.52 742.18,-36.85 744.28,-30.17"/>
<text text-anchor="middle" x="801.5" y="-69.5" font-family="Helvetica,sans-Serif" font-size="10.00"> syslogSocket</text>
</g>
<!-- Node9 -->
<g id="node9" class="node">
<title>Node9</title>
<g id="a_node9"><a xlink:href="classlog4cplus_1_1helpers_1_1AbstractSocket.html" target="_top" xlink:title=" ">
<polygon fill="white" stroke="black" points="291,-0.5 291,-30.5 396,-30.5 396,-0.5 291,-0.5"/>
<text text-anchor="start" x="299" y="-18.5" font-family="Helvetica,sans-Serif" font-size="10.00">log4cplus::helpers</text>
<text text-anchor="middle" x="343.5" y="-7.5" font-family="Helvetica,sans-Serif" font-size="10.00">::AbstractSocket</text>
</a>
</g>
</g>
<!-- Node9&#45;&gt;Node8 -->
<g id="edge8" class="edge">
<title>Node9&#45;&gt;Node8</title>
<path fill="none" stroke="midnightblue" d="M406.61,-15.5C470.59,-15.5 569.15,-15.5 628.95,-15.5"/>
<polygon fill="midnightblue" stroke="midnightblue" points="406.26,-12 396.26,-15.5 406.26,-19 406.26,-12"/>
</g>
<!-- Node10&#45;&gt;Node1 -->
<g id="edge9" class="edge">
<title>Node10&#45;&gt;Node1</title>
<path fill="none" stroke="#9a32cd" stroke-dasharray="5,2" d="M605.2,-153.94C648.84,-149.58 702.21,-144.05 750,-138.5 787.84,-134.11 797.28,-132.81 835,-127.5 844.92,-126.1 855.43,-124.56 865.66,-123.03"/>
<polygon fill="#9a32cd" stroke="#9a32cd" points="604.79,-150.46 595.19,-154.93 605.49,-157.43 604.79,-150.46"/>
<text text-anchor="middle" x="681.5" y="-155.5" font-family="Helvetica,sans-Serif" font-size="10.00"> connector</text>
</g>
</g>
</svg>
