<?xml version="1.0" encoding="UTF-8" standalone="no"?>
<!DOCTYPE svg PUBLIC "-//W3C//DTD SVG 1.1//EN"
 "http://www.w3.org/Graphics/SVG/1.1/DTD/svg11.dtd">
<!-- Generated by graphviz version 2.43.0 (0)
 -->
<!-- Title: log4cplus::spi::Filter Pages: 1 -->
<svg width="451pt" height="323pt"
 viewBox="0.00 0.00 451.00 322.50" xmlns="http://www.w3.org/2000/svg" xmlns:xlink="http://www.w3.org/1999/xlink">
<g id="graph0" class="graph" transform="scale(1 1) rotate(0) translate(4 318.5)">
<title>log4cplus::spi::Filter</title>
<polygon fill="white" stroke="transparent" points="-4,4 -4,-318.5 447,-318.5 447,4 -4,4"/>
<!-- Node1 -->
<g id="node1" class="node">
<title>Node1</title>
<g id="a_node1"><a xlink:title="Users should extend this class to implement customized logging event filtering.">
<polygon fill="#bfbfbf" stroke="black" points="141,-153 141,-172 255,-172 255,-153 141,-153"/>
<text text-anchor="middle" x="198" y="-160" font-family="Helvetica,sans-Serif" font-size="10.00">log4cplus::spi::Filter</text>
</a>
</g>
</g>
<!-- Node3 -->
<g id="node3" class="node">
<title>Node3</title>
<g id="a_node3"><a xlink:href="classlog4cplus_1_1spi_1_1DenyAllFilter.html" target="_top" xlink:title="This filter drops all logging events.">
<polygon fill="white" stroke="black" points="291,-295 291,-314 443,-314 443,-295 291,-295"/>
<text text-anchor="middle" x="367" y="-302" font-family="Helvetica,sans-Serif" font-size="10.00">log4cplus::spi::DenyAllFilter</text>
</a>
</g>
</g>
<!-- Node1&#45;&gt;Node3 -->
<g id="edge2" class="edge">
<title>Node1&#45;&gt;Node3</title>
<path fill="none" stroke="midnightblue" d="M207.95,-181.54C221.81,-208.87 251.07,-258.86 291,-285.5 296.81,-289.38 303.35,-292.46 310.1,-294.92"/>
<polygon fill="midnightblue" stroke="midnightblue" points="210.95,-179.71 203.41,-172.27 204.67,-182.79 210.95,-179.71"/>
</g>
<!-- Node4 -->
<g id="node4" class="node">
<title>Node4</title>
<g id="a_node4"><a xlink:href="classlog4cplus_1_1spi_1_1FunctionFilter.html" target="_top" xlink:title="This filter allows using std::function&lt;FilterResult(const InternalLoggingEvent &amp;)&gt;.">
<polygon fill="white" stroke="black" points="301.5,-245.5 301.5,-275.5 432.5,-275.5 432.5,-245.5 301.5,-245.5"/>
<text text-anchor="start" x="309.5" y="-263.5" font-family="Helvetica,sans-Serif" font-size="10.00">log4cplus::spi::Function</text>
<text text-anchor="middle" x="367" y="-252.5" font-family="Helvetica,sans-Serif" font-size="10.00">Filter</text>
</a>
</g>
</g>
<!-- Node1&#45;&gt;Node4 -->
<g id="edge3" class="edge">
<title>Node1&#45;&gt;Node4</title>
<path fill="none" stroke="midnightblue" d="M215.98,-179.41C233.46,-195.99 262.15,-220.98 291,-236.5 297.26,-239.87 304.07,-242.86 310.95,-245.48"/>
<polygon fill="midnightblue" stroke="midnightblue" points="217.96,-176.46 208.34,-172.02 213.1,-181.49 217.96,-176.46"/>
</g>
<!-- Node5 -->
<g id="node5" class="node">
<title>Node5</title>
<g id="a_node5"><a xlink:href="classlog4cplus_1_1spi_1_1LogLevelMatchFilter.html" target="_top" xlink:title="This is a very simple filter based on LogLevel matching.">
<polygon fill="white" stroke="black" points="300.5,-196.5 300.5,-226.5 433.5,-226.5 433.5,-196.5 300.5,-196.5"/>
<text text-anchor="start" x="308.5" y="-214.5" font-family="Helvetica,sans-Serif" font-size="10.00">log4cplus::spi::LogLevel</text>
<text text-anchor="middle" x="367" y="-203.5" font-family="Helvetica,sans-Serif" font-size="10.00">MatchFilter</text>
</a>
</g>
</g>
<!-- Node1&#45;&gt;Node5 -->
<g id="edge4" class="edge">
<title>Node1&#45;&gt;Node5</title>
<path fill="none" stroke="midnightblue" d="M241.45,-174.95C263.75,-181.5 291.26,-189.57 314.75,-196.46"/>
<polygon fill="midnightblue" stroke="midnightblue" points="242.18,-171.52 231.6,-172.06 240.21,-178.24 242.18,-171.52"/>
</g>
<!-- Node6 -->
<g id="node6" class="node">
<title>Node6</title>
<g id="a_node6"><a xlink:href="classlog4cplus_1_1spi_1_1LogLevelRangeFilter.html" target="_top" xlink:title="This is a very simple filter based on LogLevel matching, which can be used to reject messages with Lo...">
<polygon fill="white" stroke="black" points="300.5,-147.5 300.5,-177.5 433.5,-177.5 433.5,-147.5 300.5,-147.5"/>
<text text-anchor="start" x="308.5" y="-165.5" font-family="Helvetica,sans-Serif" font-size="10.00">log4cplus::spi::LogLevel</text>
<text text-anchor="middle" x="367" y="-154.5" font-family="Helvetica,sans-Serif" font-size="10.00">RangeFilter</text>
</a>
</g>
</g>
<!-- Node1&#45;&gt;Node6 -->
<g id="edge5" class="edge">
<title>Node1&#45;&gt;Node6</title>
<path fill="none" stroke="midnightblue" d="M265.09,-162.5C276.66,-162.5 288.7,-162.5 300.25,-162.5"/>
<polygon fill="midnightblue" stroke="midnightblue" points="265.07,-159 255.07,-162.5 265.07,-166 265.07,-159"/>
</g>
<!-- Node7 -->
<g id="node7" class="node">
<title>Node7</title>
<g id="a_node7"><a xlink:href="classlog4cplus_1_1spi_1_1MDCMatchFilter.html" target="_top" xlink:title="This is a simple filter based on the key/value pair stored in MDC.">
<polygon fill="white" stroke="black" points="295.5,-98.5 295.5,-128.5 438.5,-128.5 438.5,-98.5 295.5,-98.5"/>
<text text-anchor="start" x="303.5" y="-116.5" font-family="Helvetica,sans-Serif" font-size="10.00">log4cplus::spi::MDCMatch</text>
<text text-anchor="middle" x="367" y="-105.5" font-family="Helvetica,sans-Serif" font-size="10.00">Filter</text>
</a>
</g>
</g>
<!-- Node1&#45;&gt;Node7 -->
<g id="edge6" class="edge">
<title>Node1&#45;&gt;Node7</title>
<path fill="none" stroke="midnightblue" d="M241.45,-150.05C263.75,-143.5 291.26,-135.43 314.75,-128.54"/>
<polygon fill="midnightblue" stroke="midnightblue" points="240.21,-146.76 231.6,-152.94 242.18,-153.48 240.21,-146.76"/>
</g>
<!-- Node8 -->
<g id="node8" class="node">
<title>Node8</title>
<g id="a_node8"><a xlink:href="classlog4cplus_1_1spi_1_1NDCMatchFilter.html" target="_top" xlink:title="This is a simple filter based on the string returned by event.getNDC().">
<polygon fill="white" stroke="black" points="296.5,-49.5 296.5,-79.5 437.5,-79.5 437.5,-49.5 296.5,-49.5"/>
<text text-anchor="start" x="304.5" y="-67.5" font-family="Helvetica,sans-Serif" font-size="10.00">log4cplus::spi::NDCMatch</text>
<text text-anchor="middle" x="367" y="-56.5" font-family="Helvetica,sans-Serif" font-size="10.00">Filter</text>
</a>
</g>
</g>
<!-- Node1&#45;&gt;Node8 -->
<g id="edge7" class="edge">
<title>Node1&#45;&gt;Node8</title>
<path fill="none" stroke="midnightblue" d="M215.98,-145.59C233.46,-129.01 262.15,-104.02 291,-88.5 297.26,-85.13 304.07,-82.14 310.95,-79.52"/>
<polygon fill="midnightblue" stroke="midnightblue" points="213.1,-143.51 208.34,-152.98 217.96,-148.54 213.1,-143.51"/>
</g>
<!-- Node9 -->
<g id="node9" class="node">
<title>Node9</title>
<g id="a_node9"><a xlink:href="classlog4cplus_1_1spi_1_1StringMatchFilter.html" target="_top" xlink:title="This is a very simple filter based on string matching.">
<polygon fill="white" stroke="black" points="293,-0.5 293,-30.5 441,-30.5 441,-0.5 293,-0.5"/>
<text text-anchor="start" x="301" y="-18.5" font-family="Helvetica,sans-Serif" font-size="10.00">log4cplus::spi::StringMatch</text>
<text text-anchor="middle" x="367" y="-7.5" font-family="Helvetica,sans-Serif" font-size="10.00">Filter</text>
</a>
</g>
</g>
<!-- Node1&#45;&gt;Node9 -->
<g id="edge8" class="edge">
<title>Node1&#45;&gt;Node9</title>
<path fill="none" stroke="midnightblue" d="M208.17,-143.78C222.31,-116.85 251.91,-67.36 291,-39.5 295.79,-36.09 301.08,-33.15 306.58,-30.61"/>
<polygon fill="midnightblue" stroke="midnightblue" points="204.95,-142.41 203.53,-152.91 211.18,-145.58 204.95,-142.41"/>
</g>
<!-- Node2 -->
<g id="node2" class="node">
<title>Node2</title>
<g id="a_node2"><a xlink:href="classlog4cplus_1_1helpers_1_1SharedObject.html" target="_top" xlink:title=" ">
<polygon fill="white" stroke="black" points="0,-147.5 0,-177.5 105,-177.5 105,-147.5 0,-147.5"/>
<text text-anchor="start" x="8" y="-165.5" font-family="Helvetica,sans-Serif" font-size="10.00">log4cplus::helpers</text>
<text text-anchor="middle" x="52.5" y="-154.5" font-family="Helvetica,sans-Serif" font-size="10.00">::SharedObject</text>
</a>
</g>
</g>
<!-- Node2&#45;&gt;Node1 -->
<g id="edge1" class="edge">
<title>Node2&#45;&gt;Node1</title>
<path fill="none" stroke="midnightblue" d="M115.49,-162.5C123.94,-162.5 132.57,-162.5 140.9,-162.5"/>
<polygon fill="midnightblue" stroke="midnightblue" points="115.31,-159 105.31,-162.5 115.31,-166 115.31,-159"/>
</g>
</g>
</svg>
