<?xml version="1.0" encoding="UTF-8" standalone="no"?>
<!DOCTYPE svg PUBLIC "-//W3C//DTD SVG 1.1//EN"
 "http://www.w3.org/Graphics/SVG/1.1/DTD/svg11.dtd">
<!-- Generated by graphviz version 2.43.0 (0)
 -->
<!-- Title: log4cplus::LogLevelTranslator Pages: 1 -->
<svg width="169pt" height="162pt"
 viewBox="0.00 0.00 169.00 162.00" xmlns="http://www.w3.org/2000/svg" xmlns:xlink="http://www.w3.org/1999/xlink">
<g id="graph0" class="graph" transform="scale(1 1) rotate(0) translate(4 158)">
<title>log4cplus::LogLevelTranslator</title>
<polygon fill="white" stroke="transparent" points="-4,4 -4,-158 165,-158 165,4 -4,4"/>
<!-- Node1 -->
<g id="node1" class="node">
<title>Node1</title>
<g id="a_node1"><a xlink:title="This is a base class used by LogLevelManager to translate between numeric LogLevel and log level name...">
<polygon fill="#bfbfbf" stroke="black" points="0,-67.5 0,-86.5 161,-86.5 161,-67.5 0,-67.5"/>
<text text-anchor="middle" x="80.5" y="-74.5" font-family="Helvetica,sans-Serif" font-size="10.00">log4cplus::LogLevelTranslator</text>
</a>
</g>
</g>
<!-- Node3 -->
<g id="node3" class="node">
<title>Node3</title>
<g id="a_node3"><a xlink:href="classlog4cplus_1_1internal_1_1CustomLogLevelManager.html" target="_top" xlink:title="Custom log level manager used by C API.">
<polygon fill="white" stroke="black" points="7.5,-0.5 7.5,-30.5 153.5,-30.5 153.5,-0.5 7.5,-0.5"/>
<text text-anchor="start" x="15.5" y="-18.5" font-family="Helvetica,sans-Serif" font-size="10.00">log4cplus::internal</text>
<text text-anchor="middle" x="80.5" y="-7.5" font-family="Helvetica,sans-Serif" font-size="10.00">::CustomLogLevelManager</text>
</a>
</g>
</g>
<!-- Node1&#45;&gt;Node3 -->
<g id="edge2" class="edge">
<title>Node1&#45;&gt;Node3</title>
<path fill="none" stroke="midnightblue" d="M80.5,-57.23C80.5,-48.59 80.5,-38.5 80.5,-30.52"/>
<polygon fill="midnightblue" stroke="midnightblue" points="77,-57.48 80.5,-67.48 84,-57.48 77,-57.48"/>
</g>
<!-- Node2 -->
<g id="node2" class="node">
<title>Node2</title>
<g id="a_node2"><a xlink:href="classlog4cplus_1_1helpers_1_1SharedObject.html" target="_top" xlink:title=" ">
<polygon fill="white" stroke="black" points="28,-123.5 28,-153.5 133,-153.5 133,-123.5 28,-123.5"/>
<text text-anchor="start" x="36" y="-141.5" font-family="Helvetica,sans-Serif" font-size="10.00">log4cplus::helpers</text>
<text text-anchor="middle" x="80.5" y="-130.5" font-family="Helvetica,sans-Serif" font-size="10.00">::SharedObject</text>
</a>
</g>
</g>
<!-- Node2&#45;&gt;Node1 -->
<g id="edge1" class="edge">
<title>Node2&#45;&gt;Node1</title>
<path fill="none" stroke="midnightblue" d="M80.5,-113.29C80.5,-103.86 80.5,-93.65 80.5,-86.66"/>
<polygon fill="midnightblue" stroke="midnightblue" points="77,-113.4 80.5,-123.4 84,-113.4 77,-113.4"/>
</g>
</g>
</svg>
