<?xml version="1.0" encoding="UTF-8" standalone="no"?>
<!DOCTYPE svg PUBLIC "-//W3C//DTD SVG 1.1//EN"
 "http://www.w3.org/Graphics/SVG/1.1/DTD/svg11.dtd">
<!-- Generated by graphviz version 2.43.0 (0)
 -->
<!-- Title: log4cplus::helpers::AppenderAttachableImpl Pages: 1 -->
<svg width="316pt" height="218pt"
 viewBox="0.00 0.00 316.00 218.00" xmlns="http://www.w3.org/2000/svg" xmlns:xlink="http://www.w3.org/1999/xlink">
<g id="graph0" class="graph" transform="scale(1 1) rotate(0) translate(4 214)">
<title>log4cplus::helpers::AppenderAttachableImpl</title>
<polygon fill="white" stroke="transparent" points="-4,4 -4,-214 312,-214 312,4 -4,4"/>
<!-- Node1 -->
<g id="node1" class="node">
<title>Node1</title>
<g id="a_node1"><a xlink:title="This Interface is for attaching Appenders to objects.">
<polygon fill="#bfbfbf" stroke="black" points="82,-112.5 82,-142.5 225,-142.5 225,-112.5 82,-112.5"/>
<text text-anchor="start" x="90" y="-130.5" font-family="Helvetica,sans-Serif" font-size="10.00">log4cplus::helpers</text>
<text text-anchor="middle" x="153.5" y="-119.5" font-family="Helvetica,sans-Serif" font-size="10.00">::AppenderAttachableImpl</text>
</a>
</g>
</g>
<!-- Node3 -->
<g id="node3" class="node">
<title>Node3</title>
<g id="a_node3"><a xlink:href="classlog4cplus_1_1AsyncAppender.html" target="_top" xlink:title="This Appender is a wrapper to which other appenders can be attached.">
<polygon fill="white" stroke="black" points="0,-56.5 0,-75.5 145,-75.5 145,-56.5 0,-56.5"/>
<text text-anchor="middle" x="72.5" y="-63.5" font-family="Helvetica,sans-Serif" font-size="10.00">log4cplus::AsyncAppender</text>
</a>
</g>
</g>
<!-- Node1&#45;&gt;Node3 -->
<g id="edge2" class="edge">
<title>Node1&#45;&gt;Node3</title>
<path fill="none" stroke="midnightblue" d="M125.85,-106.19C111.67,-95.77 95.14,-83.63 84.29,-75.66"/>
<polygon fill="midnightblue" stroke="midnightblue" points="124.17,-109.3 134.3,-112.4 128.32,-103.66 124.17,-109.3"/>
</g>
<!-- Node4 -->
<g id="node4" class="node">
<title>Node4</title>
<g id="a_node4"><a xlink:href="classlog4cplus_1_1spi_1_1LoggerImpl.html" target="_top" xlink:title="This is the central class in the log4cplus package.">
<polygon fill="white" stroke="black" points="163.5,-56.5 163.5,-75.5 307.5,-75.5 307.5,-56.5 163.5,-56.5"/>
<text text-anchor="middle" x="235.5" y="-63.5" font-family="Helvetica,sans-Serif" font-size="10.00">log4cplus::spi::LoggerImpl</text>
</a>
</g>
</g>
<!-- Node1&#45;&gt;Node4 -->
<g id="edge3" class="edge">
<title>Node1&#45;&gt;Node4</title>
<path fill="none" stroke="midnightblue" d="M181.09,-106.48C195.53,-96 212.47,-83.71 223.57,-75.66"/>
<polygon fill="midnightblue" stroke="midnightblue" points="178.97,-103.69 172.93,-112.4 183.08,-109.36 178.97,-103.69"/>
</g>
<!-- Node2 -->
<g id="node2" class="node">
<title>Node2</title>
<g id="a_node2"><a xlink:href="classlog4cplus_1_1spi_1_1AppenderAttachable.html" target="_top" xlink:title="This Interface is for attaching Appenders to objects.">
<polygon fill="white" stroke="black" points="85.5,-179.5 85.5,-209.5 221.5,-209.5 221.5,-179.5 85.5,-179.5"/>
<text text-anchor="start" x="93.5" y="-197.5" font-family="Helvetica,sans-Serif" font-size="10.00">log4cplus::spi::Appender</text>
<text text-anchor="middle" x="153.5" y="-186.5" font-family="Helvetica,sans-Serif" font-size="10.00">Attachable</text>
</a>
</g>
</g>
<!-- Node2&#45;&gt;Node1 -->
<g id="edge1" class="edge">
<title>Node2&#45;&gt;Node1</title>
<path fill="none" stroke="midnightblue" d="M153.5,-169.11C153.5,-160.15 153.5,-150.32 153.5,-142.58"/>
<polygon fill="midnightblue" stroke="midnightblue" points="150,-169.4 153.5,-179.4 157,-169.4 150,-169.4"/>
</g>
<!-- Node5 -->
<g id="node5" class="node">
<title>Node5</title>
<g id="a_node5"><a xlink:href="classlog4cplus_1_1spi_1_1RootLogger.html" target="_top" xlink:title="RootLogger sits at the top of the logger hierachy.">
<polygon fill="white" stroke="black" points="163,-0.5 163,-19.5 308,-19.5 308,-0.5 163,-0.5"/>
<text text-anchor="middle" x="235.5" y="-7.5" font-family="Helvetica,sans-Serif" font-size="10.00">log4cplus::spi::RootLogger</text>
</a>
</g>
</g>
<!-- Node4&#45;&gt;Node5 -->
<g id="edge4" class="edge">
<title>Node4&#45;&gt;Node5</title>
<path fill="none" stroke="midnightblue" d="M235.5,-45.8C235.5,-36.91 235.5,-26.78 235.5,-19.75"/>
<polygon fill="midnightblue" stroke="midnightblue" points="232,-46.08 235.5,-56.08 239,-46.08 232,-46.08"/>
</g>
</g>
</svg>
