<?xml version="1.0" encoding="UTF-8" standalone="no"?>
<!DOCTYPE svg PUBLIC "-//W3C//DTD SVG 1.1//EN"
 "http://www.w3.org/Graphics/SVG/1.1/DTD/svg11.dtd">
<!-- Generated by graphviz version 2.43.0 (0)
 -->
<!-- Title: log4cplus::NullAppender Pages: 1 -->
<svg width="143pt" height="151pt"
 viewBox="0.00 0.00 143.00 151.00" xmlns="http://www.w3.org/2000/svg" xmlns:xlink="http://www.w3.org/1999/xlink">
<g id="graph0" class="graph" transform="scale(1 1) rotate(0) translate(4 147)">
<title>log4cplus::NullAppender</title>
<polygon fill="white" stroke="transparent" points="-4,4 -4,-147 139,-147 139,4 -4,4"/>
<!-- Node1 -->
<g id="node1" class="node">
<title>Node1</title>
<g id="a_node1"><a xlink:title="Appends log events to a file.">
<polygon fill="#bfbfbf" stroke="black" points="0,-0.5 0,-19.5 135,-19.5 135,-0.5 0,-0.5"/>
<text text-anchor="middle" x="67.5" y="-7.5" font-family="Helvetica,sans-Serif" font-size="10.00">log4cplus::NullAppender</text>
</a>
</g>
</g>
<!-- Node2 -->
<g id="node2" class="node">
<title>Node2</title>
<g id="a_node2"><a xlink:href="classlog4cplus_1_1Appender.html" target="_top" xlink:title="Extend this class for implementing your own strategies for printing log statements.">
<polygon fill="white" stroke="black" points="9.5,-56.5 9.5,-75.5 125.5,-75.5 125.5,-56.5 9.5,-56.5"/>
<text text-anchor="middle" x="67.5" y="-63.5" font-family="Helvetica,sans-Serif" font-size="10.00">log4cplus::Appender</text>
</a>
</g>
</g>
<!-- Node2&#45;&gt;Node1 -->
<g id="edge1" class="edge">
<title>Node2&#45;&gt;Node1</title>
<path fill="none" stroke="midnightblue" d="M67.5,-45.8C67.5,-36.91 67.5,-26.78 67.5,-19.75"/>
<polygon fill="midnightblue" stroke="midnightblue" points="64,-46.08 67.5,-56.08 71,-46.08 64,-46.08"/>
</g>
<!-- Node3 -->
<g id="node3" class="node">
<title>Node3</title>
<g id="a_node3"><a xlink:href="classlog4cplus_1_1helpers_1_1SharedObject.html" target="_top" xlink:title=" ">
<polygon fill="white" stroke="black" points="15,-112.5 15,-142.5 120,-142.5 120,-112.5 15,-112.5"/>
<text text-anchor="start" x="23" y="-130.5" font-family="Helvetica,sans-Serif" font-size="10.00">log4cplus::helpers</text>
<text text-anchor="middle" x="67.5" y="-119.5" font-family="Helvetica,sans-Serif" font-size="10.00">::SharedObject</text>
</a>
</g>
</g>
<!-- Node3&#45;&gt;Node2 -->
<g id="edge2" class="edge">
<title>Node3&#45;&gt;Node2</title>
<path fill="none" stroke="midnightblue" d="M67.5,-102.29C67.5,-92.86 67.5,-82.65 67.5,-75.66"/>
<polygon fill="midnightblue" stroke="midnightblue" points="64,-102.4 67.5,-112.4 71,-102.4 64,-102.4"/>
</g>
</g>
</svg>
