<?xml version="1.0" encoding="UTF-8" standalone="no"?>
<!DOCTYPE svg PUBLIC "-//W3C//DTD SVG 1.1//EN"
 "http://www.w3.org/Graphics/SVG/1.1/DTD/svg11.dtd">
<!-- Generated by graphviz version 2.43.0 (0)
 -->
<!-- Title: log4cplus::spi::RootLogger Pages: 1 -->
<svg width="274pt" height="218pt"
 viewBox="0.00 0.00 274.00 218.00" xmlns="http://www.w3.org/2000/svg" xmlns:xlink="http://www.w3.org/1999/xlink">
<g id="graph0" class="graph" transform="scale(1 1) rotate(0) translate(4 214)">
<title>log4cplus::spi::RootLogger</title>
<polygon fill="white" stroke="transparent" points="-4,4 -4,-214 270,-214 270,4 -4,4"/>
<!-- Node1 -->
<g id="node1" class="node">
<title>Node1</title>
<g id="a_node1"><a xlink:title="RootLogger sits at the top of the logger hierachy.">
<polygon fill="#bfbfbf" stroke="black" points="51,-0.5 51,-19.5 196,-19.5 196,-0.5 51,-0.5"/>
<text text-anchor="middle" x="123.5" y="-7.5" font-family="Helvetica,sans-Serif" font-size="10.00">log4cplus::spi::RootLogger</text>
</a>
</g>
</g>
<!-- Node2 -->
<g id="node2" class="node">
<title>Node2</title>
<g id="a_node2"><a xlink:href="classlog4cplus_1_1spi_1_1LoggerImpl.html" target="_top" xlink:title="This is the central class in the log4cplus package.">
<polygon fill="white" stroke="black" points="51.5,-56.5 51.5,-75.5 195.5,-75.5 195.5,-56.5 51.5,-56.5"/>
<text text-anchor="middle" x="123.5" y="-63.5" font-family="Helvetica,sans-Serif" font-size="10.00">log4cplus::spi::LoggerImpl</text>
</a>
</g>
</g>
<!-- Node2&#45;&gt;Node1 -->
<g id="edge1" class="edge">
<title>Node2&#45;&gt;Node1</title>
<path fill="none" stroke="midnightblue" d="M123.5,-45.8C123.5,-36.91 123.5,-26.78 123.5,-19.75"/>
<polygon fill="midnightblue" stroke="midnightblue" points="120,-46.08 123.5,-56.08 127,-46.08 120,-46.08"/>
</g>
<!-- Node3 -->
<g id="node3" class="node">
<title>Node3</title>
<g id="a_node3"><a xlink:href="classlog4cplus_1_1helpers_1_1SharedObject.html" target="_top" xlink:title=" ">
<polygon fill="white" stroke="black" points="0,-112.5 0,-142.5 105,-142.5 105,-112.5 0,-112.5"/>
<text text-anchor="start" x="8" y="-130.5" font-family="Helvetica,sans-Serif" font-size="10.00">log4cplus::helpers</text>
<text text-anchor="middle" x="52.5" y="-119.5" font-family="Helvetica,sans-Serif" font-size="10.00">::SharedObject</text>
</a>
</g>
</g>
<!-- Node3&#45;&gt;Node2 -->
<g id="edge2" class="edge">
<title>Node3&#45;&gt;Node2</title>
<path fill="none" stroke="midnightblue" d="M77.09,-105.89C89.44,-95.54 103.74,-83.56 113.17,-75.66"/>
<polygon fill="midnightblue" stroke="midnightblue" points="74.74,-103.29 69.33,-112.4 79.24,-108.66 74.74,-103.29"/>
</g>
<!-- Node4 -->
<g id="node4" class="node">
<title>Node4</title>
<g id="a_node4"><a xlink:href="classlog4cplus_1_1helpers_1_1AppenderAttachableImpl.html" target="_top" xlink:title="This Interface is for attaching Appenders to objects.">
<polygon fill="white" stroke="black" points="123,-112.5 123,-142.5 266,-142.5 266,-112.5 123,-112.5"/>
<text text-anchor="start" x="131" y="-130.5" font-family="Helvetica,sans-Serif" font-size="10.00">log4cplus::helpers</text>
<text text-anchor="middle" x="194.5" y="-119.5" font-family="Helvetica,sans-Serif" font-size="10.00">::AppenderAttachableImpl</text>
</a>
</g>
</g>
<!-- Node4&#45;&gt;Node2 -->
<g id="edge3" class="edge">
<title>Node4&#45;&gt;Node2</title>
<path fill="none" stroke="midnightblue" d="M169.91,-105.89C157.56,-95.54 143.26,-83.56 133.83,-75.66"/>
<polygon fill="midnightblue" stroke="midnightblue" points="167.76,-108.66 177.67,-112.4 172.26,-103.29 167.76,-108.66"/>
</g>
<!-- Node5 -->
<g id="node5" class="node">
<title>Node5</title>
<g id="a_node5"><a xlink:href="classlog4cplus_1_1spi_1_1AppenderAttachable.html" target="_top" xlink:title="This Interface is for attaching Appenders to objects.">
<polygon fill="white" stroke="black" points="126.5,-179.5 126.5,-209.5 262.5,-209.5 262.5,-179.5 126.5,-179.5"/>
<text text-anchor="start" x="134.5" y="-197.5" font-family="Helvetica,sans-Serif" font-size="10.00">log4cplus::spi::Appender</text>
<text text-anchor="middle" x="194.5" y="-186.5" font-family="Helvetica,sans-Serif" font-size="10.00">Attachable</text>
</a>
</g>
</g>
<!-- Node5&#45;&gt;Node4 -->
<g id="edge4" class="edge">
<title>Node5&#45;&gt;Node4</title>
<path fill="none" stroke="midnightblue" d="M194.5,-169.11C194.5,-160.15 194.5,-150.32 194.5,-142.58"/>
<polygon fill="midnightblue" stroke="midnightblue" points="191,-169.4 194.5,-179.4 198,-169.4 191,-169.4"/>
</g>
</g>
</svg>
