<?xml version="1.0" encoding="UTF-8" standalone="no"?>
<!DOCTYPE svg PUBLIC "-//W3C//DTD SVG 1.1//EN"
 "http://www.w3.org/Graphics/SVG/1.1/DTD/svg11.dtd">
<!-- Generated by graphviz version 2.43.0 (0)
 -->
<!-- Title: log4cplus::AsyncAppender Pages: 1 -->
<svg width="939pt" height="225pt"
 viewBox="0.00 0.00 939.00 225.00" xmlns="http://www.w3.org/2000/svg" xmlns:xlink="http://www.w3.org/1999/xlink">
<g id="graph0" class="graph" transform="scale(1 1) rotate(0) translate(4 221)">
<title>log4cplus::AsyncAppender</title>
<polygon fill="white" stroke="transparent" points="-4,4 -4,-221 935,-221 935,4 -4,4"/>
<!-- Node1 -->
<g id="node1" class="node">
<title>Node1</title>
<g id="a_node1"><a xlink:title="This Appender is a wrapper to which other appenders can be attached.">
<polygon fill="#bfbfbf" stroke="black" points="786,-81 786,-100 931,-100 931,-81 786,-81"/>
<text text-anchor="middle" x="858.5" y="-88" font-family="Helvetica,sans-Serif" font-size="10.00">log4cplus::AsyncAppender</text>
</a>
</g>
</g>
<!-- Node2 -->
<g id="node2" class="node">
<title>Node2</title>
<g id="a_node2"><a xlink:href="classlog4cplus_1_1Appender.html" target="_top" xlink:title="Extend this class for implementing your own strategies for printing log statements.">
<polygon fill="white" stroke="black" points="619.5,-144 619.5,-163 735.5,-163 735.5,-144 619.5,-144"/>
<text text-anchor="middle" x="677.5" y="-151" font-family="Helvetica,sans-Serif" font-size="10.00">log4cplus::Appender</text>
</a>
</g>
</g>
<!-- Node2&#45;&gt;Node1 -->
<g id="edge1" class="edge">
<title>Node2&#45;&gt;Node1</title>
<path fill="none" stroke="midnightblue" d="M726.76,-141.25C740.22,-137.5 754.77,-133.13 768,-128.5 792.22,-120.02 819.23,-108.21 837.18,-100.02"/>
<polygon fill="midnightblue" stroke="midnightblue" points="725.45,-137.98 716.72,-143.99 727.29,-144.73 725.45,-137.98"/>
</g>
<!-- Node3 -->
<g id="node3" class="node">
<title>Node3</title>
<g id="a_node3"><a xlink:href="classlog4cplus_1_1helpers_1_1SharedObject.html" target="_top" xlink:title=" ">
<polygon fill="white" stroke="black" points="288,-186.5 288,-216.5 393,-216.5 393,-186.5 288,-186.5"/>
<text text-anchor="start" x="296" y="-204.5" font-family="Helvetica,sans-Serif" font-size="10.00">log4cplus::helpers</text>
<text text-anchor="middle" x="340.5" y="-193.5" font-family="Helvetica,sans-Serif" font-size="10.00">::SharedObject</text>
</a>
</g>
</g>
<!-- Node3&#45;&gt;Node2 -->
<g id="edge2" class="edge">
<title>Node3&#45;&gt;Node2</title>
<path fill="none" stroke="midnightblue" d="M402.99,-193.36C452.89,-186.68 525.03,-176.82 588,-167.5 598.16,-166 608.96,-164.34 619.4,-162.7"/>
<polygon fill="midnightblue" stroke="midnightblue" points="402.45,-189.9 393,-194.7 403.38,-196.84 402.45,-189.9"/>
</g>
<!-- Node4 -->
<g id="node4" class="node">
<title>Node4</title>
<g id="a_node4"><a xlink:href="classlog4cplus_1_1helpers_1_1SharedObjectPtr.html" target="_top" xlink:title=" ">
<polygon fill="white" stroke="black" points="266,-137.5 266,-167.5 415,-167.5 415,-137.5 266,-137.5"/>
<text text-anchor="start" x="274" y="-155.5" font-family="Helvetica,sans-Serif" font-size="10.00">log4cplus::helpers</text>
<text text-anchor="middle" x="340.5" y="-144.5" font-family="Helvetica,sans-Serif" font-size="10.00">::SharedObjectPtr&lt; Filter &gt;</text>
</a>
</g>
</g>
<!-- Node4&#45;&gt;Node2 -->
<g id="edge3" class="edge">
<title>Node4&#45;&gt;Node2</title>
<path fill="none" stroke="#9a32cd" stroke-dasharray="5,2" d="M425.31,-152.75C485.82,-152.93 565.93,-153.17 619.24,-153.33"/>
<polygon fill="#9a32cd" stroke="#9a32cd" points="425.03,-149.25 415.02,-152.72 425.01,-156.25 425.03,-149.25"/>
<text text-anchor="middle" x="510.5" y="-155.5" font-family="Helvetica,sans-Serif" font-size="10.00"> filter</text>
</g>
<!-- Node5 -->
<g id="node5" class="node">
<title>Node5</title>
<g id="a_node5"><a xlink:href="classlog4cplus_1_1helpers_1_1SharedObjectPtr.html" target="_top" xlink:title=" ">
<polygon fill="white" stroke="black" points="0,-93.5 0,-123.5 130,-123.5 130,-93.5 0,-93.5"/>
<text text-anchor="start" x="8" y="-111.5" font-family="Helvetica,sans-Serif" font-size="10.00">log4cplus::helpers</text>
<text text-anchor="middle" x="65" y="-100.5" font-family="Helvetica,sans-Serif" font-size="10.00">::SharedObjectPtr&lt; T &gt;</text>
</a>
</g>
</g>
<!-- Node5&#45;&gt;Node4 -->
<g id="edge4" class="edge">
<title>Node5&#45;&gt;Node4</title>
<path fill="none" stroke="orange" stroke-dasharray="5,2" d="M140.4,-122.21C142.96,-122.65 145.5,-123.08 148,-123.5 186.8,-129.99 230.14,-136.6 265.76,-141.87"/>
<polygon fill="orange" stroke="orange" points="140.88,-118.74 130.43,-120.48 139.68,-125.64 140.88,-118.74"/>
<text text-anchor="middle" x="198" y="-141.5" font-family="Helvetica,sans-Serif" font-size="10.00"> &lt; Filter &gt;</text>
</g>
<!-- Node8 -->
<g id="node8" class="node">
<title>Node8</title>
<g id="a_node8"><a xlink:href="classlog4cplus_1_1helpers_1_1SharedObjectPtr.html" target="_top" xlink:title=" ">
<polygon fill="white" stroke="black" points="434,-89 434,-130 587,-130 587,-89 434,-89"/>
<text text-anchor="start" x="442" y="-118" font-family="Helvetica,sans-Serif" font-size="10.00">log4cplus::helpers</text>
<text text-anchor="start" x="442" y="-107" font-family="Helvetica,sans-Serif" font-size="10.00">::SharedObjectPtr&lt; Abstract</text>
<text text-anchor="middle" x="510.5" y="-96" font-family="Helvetica,sans-Serif" font-size="10.00">Thread &gt;</text>
</a>
</g>
</g>
<!-- Node5&#45;&gt;Node8 -->
<g id="edge8" class="edge">
<title>Node5&#45;&gt;Node8</title>
<path fill="none" stroke="orange" stroke-dasharray="5,2" d="M140.05,-108.44C173.09,-108.42 212.49,-108.43 248,-108.5 310.65,-108.62 381.75,-108.9 433.97,-109.13"/>
<polygon fill="orange" stroke="orange" points="140.01,-104.94 130.01,-108.44 140.02,-111.94 140.01,-104.94"/>
<text text-anchor="middle" x="198" y="-111.5" font-family="Helvetica,sans-Serif" font-size="10.00"> &lt; AbstractThread &gt;</text>
</g>
<!-- Node9 -->
<g id="node9" class="node">
<title>Node9</title>
<g id="a_node9"><a xlink:href="classlog4cplus_1_1helpers_1_1SharedObjectPtr.html" target="_top" xlink:title=" ">
<polygon fill="white" stroke="black" points="433,-52.5 433,-82.5 588,-82.5 588,-52.5 433,-52.5"/>
<text text-anchor="start" x="441" y="-70.5" font-family="Helvetica,sans-Serif" font-size="10.00">log4cplus::helpers</text>
<text text-anchor="middle" x="510.5" y="-59.5" font-family="Helvetica,sans-Serif" font-size="10.00">::SharedObjectPtr&lt; Queue &gt;</text>
</a>
</g>
</g>
<!-- Node5&#45;&gt;Node9 -->
<g id="edge10" class="edge">
<title>Node5&#45;&gt;Node9</title>
<path fill="none" stroke="orange" stroke-dasharray="5,2" d="M140.35,-93.58C142.93,-93.19 145.48,-92.83 148,-92.5 245.77,-79.63 359.34,-73.15 432.71,-70.06"/>
<polygon fill="orange" stroke="orange" points="139.66,-90.14 130.33,-95.17 140.76,-97.06 139.66,-90.14"/>
<text text-anchor="middle" x="198" y="-95.5" font-family="Helvetica,sans-Serif" font-size="10.00"> &lt; Queue &gt;</text>
</g>
<!-- Node6 -->
<g id="node6" class="node">
<title>Node6</title>
<g id="a_node6"><a xlink:href="classlog4cplus_1_1helpers_1_1AppenderAttachableImpl.html" target="_top" xlink:title="This Interface is for attaching Appenders to objects.">
<polygon fill="white" stroke="black" points="606,-0.5 606,-30.5 749,-30.5 749,-0.5 606,-0.5"/>
<text text-anchor="start" x="614" y="-18.5" font-family="Helvetica,sans-Serif" font-size="10.00">log4cplus::helpers</text>
<text text-anchor="middle" x="677.5" y="-7.5" font-family="Helvetica,sans-Serif" font-size="10.00">::AppenderAttachableImpl</text>
</a>
</g>
</g>
<!-- Node6&#45;&gt;Node1 -->
<g id="edge5" class="edge">
<title>Node6&#45;&gt;Node1</title>
<path fill="none" stroke="midnightblue" d="M724.34,-34.71C759.65,-49.5 806.98,-69.33 834.66,-80.93"/>
<polygon fill="midnightblue" stroke="midnightblue" points="725.3,-31.31 714.72,-30.68 722.59,-37.77 725.3,-31.31"/>
</g>
<!-- Node7 -->
<g id="node7" class="node">
<title>Node7</title>
<g id="a_node7"><a xlink:href="classlog4cplus_1_1spi_1_1AppenderAttachable.html" target="_top" xlink:title="This Interface is for attaching Appenders to objects.">
<polygon fill="white" stroke="black" points="272.5,-0.5 272.5,-30.5 408.5,-30.5 408.5,-0.5 272.5,-0.5"/>
<text text-anchor="start" x="280.5" y="-18.5" font-family="Helvetica,sans-Serif" font-size="10.00">log4cplus::spi::Appender</text>
<text text-anchor="middle" x="340.5" y="-7.5" font-family="Helvetica,sans-Serif" font-size="10.00">Attachable</text>
</a>
</g>
</g>
<!-- Node7&#45;&gt;Node6 -->
<g id="edge6" class="edge">
<title>Node7&#45;&gt;Node6</title>
<path fill="none" stroke="midnightblue" d="M419.17,-15.5C475.51,-15.5 551.09,-15.5 605.75,-15.5"/>
<polygon fill="midnightblue" stroke="midnightblue" points="418.89,-12 408.89,-15.5 418.89,-19 418.89,-12"/>
</g>
<!-- Node8&#45;&gt;Node1 -->
<g id="edge7" class="edge">
<title>Node8&#45;&gt;Node1</title>
<path fill="none" stroke="#9a32cd" stroke-dasharray="5,2" d="M597.26,-104.79C655.34,-101.6 731.19,-97.44 786,-94.43"/>
<polygon fill="#9a32cd" stroke="#9a32cd" points="596.8,-101.31 587,-105.35 597.18,-108.3 596.8,-101.31"/>
<text text-anchor="middle" x="677.5" y="-106.5" font-family="Helvetica,sans-Serif" font-size="10.00"> queue_thread</text>
</g>
<!-- Node9&#45;&gt;Node1 -->
<g id="edge9" class="edge">
<title>Node9&#45;&gt;Node1</title>
<path fill="none" stroke="#9a32cd" stroke-dasharray="5,2" d="M598.05,-71.46C643.09,-73.72 699.03,-76.83 749,-80.5 760.89,-81.37 773.49,-82.42 785.75,-83.51"/>
<polygon fill="#9a32cd" stroke="#9a32cd" points="598.18,-67.96 588.02,-70.96 597.84,-74.96 598.18,-67.96"/>
<text text-anchor="middle" x="677.5" y="-83.5" font-family="Helvetica,sans-Serif" font-size="10.00"> queue</text>
</g>
</g>
</svg>
