<?xml version="1.0" encoding="UTF-8" standalone="no"?>
<!DOCTYPE svg PUBLIC "-//W3C//DTD SVG 1.1//EN"
 "http://www.w3.org/Graphics/SVG/1.1/DTD/svg11.dtd">
<!-- Generated by graphviz version 2.43.0 (0)
 -->
<!-- Title: log4cplus::thread::Queue Pages: 1 -->
<svg width="328pt" height="137pt"
 viewBox="0.00 0.00 328.00 137.00" xmlns="http://www.w3.org/2000/svg" xmlns:xlink="http://www.w3.org/1999/xlink">
<g id="graph0" class="graph" transform="scale(1 1) rotate(0) translate(4 133)">
<title>log4cplus::thread::Queue</title>
<polygon fill="white" stroke="transparent" points="-4,4 -4,-133 324,-133 324,4 -4,4"/>
<!-- Node1 -->
<g id="node1" class="node">
<title>Node1</title>
<g id="a_node1"><a xlink:title="Single consumer, multiple producers queue.">
<polygon fill="#bfbfbf" stroke="black" points="213,-49.5 213,-79.5 320,-79.5 320,-49.5 213,-49.5"/>
<text text-anchor="start" x="221" y="-67.5" font-family="Helvetica,sans-Serif" font-size="10.00">log4cplus::thread::</text>
<text text-anchor="middle" x="266.5" y="-56.5" font-family="Helvetica,sans-Serif" font-size="10.00">Queue</text>
</a>
</g>
</g>
<!-- Node2 -->
<g id="node2" class="node">
<title>Node2</title>
<g id="a_node2"><a xlink:href="classlog4cplus_1_1helpers_1_1SharedObject.html" target="_top" xlink:title=" ">
<polygon fill="white" stroke="black" points="1.5,-98.5 1.5,-128.5 106.5,-128.5 106.5,-98.5 1.5,-98.5"/>
<text text-anchor="start" x="9.5" y="-116.5" font-family="Helvetica,sans-Serif" font-size="10.00">log4cplus::helpers</text>
<text text-anchor="middle" x="54" y="-105.5" font-family="Helvetica,sans-Serif" font-size="10.00">::SharedObject</text>
</a>
</g>
</g>
<!-- Node2&#45;&gt;Node1 -->
<g id="edge1" class="edge">
<title>Node2&#45;&gt;Node1</title>
<path fill="none" stroke="midnightblue" d="M116.86,-99.1C147.34,-92.01 183.71,-83.54 212.84,-76.76"/>
<polygon fill="midnightblue" stroke="midnightblue" points="115.71,-95.77 106.76,-101.45 117.3,-102.59 115.71,-95.77"/>
</g>
<!-- Node3 -->
<g id="node3" class="node">
<title>Node3</title>
<g id="a_node3"><a xlink:href="classlog4cplus_1_1thread_1_1ManualResetEvent.html" target="_top" xlink:title=" ">
<polygon fill="white" stroke="black" points="0,-49.5 0,-79.5 108,-79.5 108,-49.5 0,-49.5"/>
<text text-anchor="start" x="8" y="-67.5" font-family="Helvetica,sans-Serif" font-size="10.00">log4cplus::thread::</text>
<text text-anchor="middle" x="54" y="-56.5" font-family="Helvetica,sans-Serif" font-size="10.00">ManualResetEvent</text>
</a>
</g>
</g>
<!-- Node3&#45;&gt;Node1 -->
<g id="edge2" class="edge">
<title>Node3&#45;&gt;Node1</title>
<path fill="none" stroke="#9a32cd" stroke-dasharray="5,2" d="M118.13,-64.5C148.32,-64.5 184.05,-64.5 212.76,-64.5"/>
<polygon fill="#9a32cd" stroke="#9a32cd" points="118.12,-61 108.12,-64.5 118.12,-68 118.12,-61"/>
<text text-anchor="middle" x="160.5" y="-67.5" font-family="Helvetica,sans-Serif" font-size="10.00"> ev_consumer</text>
</g>
<!-- Node4 -->
<g id="node4" class="node">
<title>Node4</title>
<g id="a_node4"><a xlink:href="classlog4cplus_1_1thread_1_1Semaphore.html" target="_top" xlink:title=" ">
<polygon fill="white" stroke="black" points="0.5,-0.5 0.5,-30.5 107.5,-30.5 107.5,-0.5 0.5,-0.5"/>
<text text-anchor="start" x="8.5" y="-18.5" font-family="Helvetica,sans-Serif" font-size="10.00">log4cplus::thread::</text>
<text text-anchor="middle" x="54" y="-7.5" font-family="Helvetica,sans-Serif" font-size="10.00">Semaphore</text>
</a>
</g>
</g>
<!-- Node4&#45;&gt;Node1 -->
<g id="edge3" class="edge">
<title>Node4&#45;&gt;Node1</title>
<path fill="none" stroke="#9a32cd" stroke-dasharray="5,2" d="M117.63,-30.08C147.96,-37.14 183.97,-45.52 212.87,-52.25"/>
<polygon fill="#9a32cd" stroke="#9a32cd" points="118.11,-26.6 107.58,-27.74 116.52,-33.41 118.11,-26.6"/>
<text text-anchor="middle" x="160.5" y="-49.5" font-family="Helvetica,sans-Serif" font-size="10.00"> sem</text>
</g>
</g>
</svg>
