<?xml version="1.0" encoding="UTF-8" standalone="no"?>
<!DOCTYPE svg PUBLIC "-//W3C//DTD SVG 1.1//EN"
 "http://www.w3.org/Graphics/SVG/1.1/DTD/svg11.dtd">
<!-- Generated by graphviz version 2.43.0 (0)
 -->
<!-- Title: log4cplus::spi::BaseFactory Pages: 1 -->
<svg width="351pt" height="154pt"
 viewBox="0.00 0.00 351.00 153.50" xmlns="http://www.w3.org/2000/svg" xmlns:xlink="http://www.w3.org/1999/xlink">
<g id="graph0" class="graph" transform="scale(1 1) rotate(0) translate(4 149.5)">
<title>log4cplus::spi::BaseFactory</title>
<polygon fill="white" stroke="transparent" points="-4,4 -4,-149.5 347,-149.5 347,4 -4,4"/>
<!-- Node1 -->
<g id="node1" class="node">
<title>Node1</title>
<g id="a_node1"><a xlink:title="This is the base class for all factories.">
<polygon fill="#bfbfbf" stroke="black" points="0,-57.5 0,-76.5 149,-76.5 149,-57.5 0,-57.5"/>
<text text-anchor="middle" x="74.5" y="-64.5" font-family="Helvetica,sans-Serif" font-size="10.00">log4cplus::spi::BaseFactory</text>
</a>
</g>
</g>
<!-- Node2 -->
<g id="node2" class="node">
<title>Node2</title>
<g id="a_node2"><a xlink:href="classlog4cplus_1_1spi_1_1AppenderFactory.html" target="_top" xlink:title="This abstract class defines the &quot;Factory&quot; interface to create &quot;Appender&quot; objects.">
<polygon fill="white" stroke="black" points="196,-115 196,-145 332,-145 332,-115 196,-115"/>
<text text-anchor="start" x="204" y="-133" font-family="Helvetica,sans-Serif" font-size="10.00">log4cplus::spi::Appender</text>
<text text-anchor="middle" x="264" y="-122" font-family="Helvetica,sans-Serif" font-size="10.00">Factory</text>
</a>
</g>
</g>
<!-- Node1&#45;&gt;Node2 -->
<g id="edge1" class="edge">
<title>Node1&#45;&gt;Node2</title>
<path fill="none" stroke="midnightblue" d="M112.04,-79.93C133.29,-87.38 160.61,-96.86 185,-105 194.85,-108.29 205.42,-111.73 215.51,-114.98"/>
<polygon fill="midnightblue" stroke="midnightblue" points="113.03,-76.56 102.44,-76.55 110.71,-83.17 113.03,-76.56"/>
</g>
<!-- Node3 -->
<g id="node3" class="node">
<title>Node3</title>
<g id="a_node3"><a xlink:href="classlog4cplus_1_1spi_1_1FilterFactory.html" target="_top" xlink:title="This abstract class defines the &quot;Factory&quot; interface to create &quot;Appender&quot; objects.">
<polygon fill="white" stroke="black" points="189.5,-76.5 189.5,-95.5 338.5,-95.5 338.5,-76.5 189.5,-76.5"/>
<text text-anchor="middle" x="264" y="-83.5" font-family="Helvetica,sans-Serif" font-size="10.00">log4cplus::spi::FilterFactory</text>
</a>
</g>
</g>
<!-- Node1&#45;&gt;Node3 -->
<g id="edge2" class="edge">
<title>Node1&#45;&gt;Node3</title>
<path fill="none" stroke="midnightblue" d="M159.08,-75.47C169.17,-76.49 179.41,-77.53 189.34,-78.54"/>
<polygon fill="midnightblue" stroke="midnightblue" points="159.37,-71.98 149.07,-74.45 158.66,-78.95 159.37,-71.98"/>
</g>
<!-- Node4 -->
<g id="node4" class="node">
<title>Node4</title>
<g id="a_node4"><a xlink:href="classlog4cplus_1_1spi_1_1LayoutFactory.html" target="_top" xlink:title="This abstract class defines the &quot;Factory&quot; interface to create &quot;Layout&quot; objects.">
<polygon fill="white" stroke="black" points="185,-38.5 185,-57.5 343,-57.5 343,-38.5 185,-38.5"/>
<text text-anchor="middle" x="264" y="-45.5" font-family="Helvetica,sans-Serif" font-size="10.00">log4cplus::spi::LayoutFactory</text>
</a>
</g>
</g>
<!-- Node1&#45;&gt;Node4 -->
<g id="edge3" class="edge">
<title>Node1&#45;&gt;Node4</title>
<path fill="none" stroke="midnightblue" d="M159.02,-58.54C167.56,-57.67 176.22,-56.79 184.7,-55.93"/>
<polygon fill="midnightblue" stroke="midnightblue" points="158.66,-55.05 149.07,-59.55 159.37,-62.02 158.66,-55.05"/>
</g>
<!-- Node5 -->
<g id="node5" class="node">
<title>Node5</title>
<g id="a_node5"><a xlink:href="classlog4cplus_1_1spi_1_1LocaleFactory.html" target="_top" xlink:title="This abstract class defines the &quot;Factory&quot; interface to create std::locale instances.">
<polygon fill="white" stroke="black" points="186,-0.5 186,-19.5 342,-19.5 342,-0.5 186,-0.5"/>
<text text-anchor="middle" x="264" y="-7.5" font-family="Helvetica,sans-Serif" font-size="10.00">log4cplus::spi::LocaleFactory</text>
</a>
</g>
</g>
<!-- Node1&#45;&gt;Node5 -->
<g id="edge4" class="edge">
<title>Node1&#45;&gt;Node5</title>
<path fill="none" stroke="midnightblue" d="M110.56,-53.88C131.91,-46.13 159.84,-36.41 185,-29 196.5,-25.61 209.07,-22.36 220.7,-19.53"/>
<polygon fill="midnightblue" stroke="midnightblue" points="109.13,-50.68 100.94,-57.4 111.54,-57.25 109.13,-50.68"/>
</g>
</g>
</svg>
