<?xml version="1.0" encoding="UTF-8" standalone="no"?>
<!DOCTYPE svg PUBLIC "-//W3C//DTD SVG 1.1//EN"
 "http://www.w3.org/Graphics/SVG/1.1/DTD/svg11.dtd">
<!-- Generated by graphviz version 2.43.0 (0)
 -->
<!-- Title: log4cplus::SocketAppender Pages: 1 -->
<svg width="977pt" height="231pt"
 viewBox="0.00 0.00 977.00 231.00" xmlns="http://www.w3.org/2000/svg" xmlns:xlink="http://www.w3.org/1999/xlink">
<g id="graph0" class="graph" transform="scale(1 1) rotate(0) translate(4 227)">
<title>log4cplus::SocketAppender</title>
<polygon fill="white" stroke="transparent" points="-4,4 -4,-227 973,-227 973,4 -4,4"/>
<!-- Node1 -->
<g id="node1" class="node">
<title>Node1</title>
<g id="a_node1"><a xlink:title="Sends spi::InternalLoggingEvent objects to a remote a log server.">
<polygon fill="#bfbfbf" stroke="black" points="821,-81 821,-100 969,-100 969,-81 821,-81"/>
<text text-anchor="middle" x="895" y="-88" font-family="Helvetica,sans-Serif" font-size="10.00">log4cplus::SocketAppender</text>
</a>
</g>
</g>
<!-- Node2 -->
<g id="node2" class="node">
<title>Node2</title>
<g id="a_node2"><a xlink:href="classlog4cplus_1_1Appender.html" target="_top" xlink:title="Extend this class for implementing your own strategies for printing log statements.">
<polygon fill="white" stroke="black" points="623.5,-149 623.5,-168 739.5,-168 739.5,-149 623.5,-149"/>
<text text-anchor="middle" x="681.5" y="-156" font-family="Helvetica,sans-Serif" font-size="10.00">log4cplus::Appender</text>
</a>
</g>
</g>
<!-- Node2&#45;&gt;Node1 -->
<g id="edge1" class="edge">
<title>Node2&#45;&gt;Node1</title>
<path fill="none" stroke="midnightblue" d="M742.86,-146.78C762.27,-142.4 783.74,-136.91 803,-130.5 828.54,-122 856.75,-109.01 874.88,-100.15"/>
<polygon fill="midnightblue" stroke="midnightblue" points="741.93,-143.4 732.91,-148.97 743.43,-150.24 741.93,-143.4"/>
</g>
<!-- Node3 -->
<g id="node3" class="node">
<title>Node3</title>
<g id="a_node3"><a xlink:href="classlog4cplus_1_1helpers_1_1SharedObject.html" target="_top" xlink:title=" ">
<polygon fill="white" stroke="black" points="291,-192.5 291,-222.5 396,-222.5 396,-192.5 291,-192.5"/>
<text text-anchor="start" x="299" y="-210.5" font-family="Helvetica,sans-Serif" font-size="10.00">log4cplus::helpers</text>
<text text-anchor="middle" x="343.5" y="-199.5" font-family="Helvetica,sans-Serif" font-size="10.00">::SharedObject</text>
</a>
</g>
</g>
<!-- Node3&#45;&gt;Node2 -->
<g id="edge2" class="edge">
<title>Node3&#45;&gt;Node2</title>
<path fill="none" stroke="midnightblue" d="M406.55,-199.76C457.3,-193.26 530.9,-183.47 595,-173.5 605.72,-171.83 617.18,-169.92 628.1,-168.02"/>
<polygon fill="midnightblue" stroke="midnightblue" points="405.88,-196.32 396.4,-201.05 406.76,-203.26 405.88,-196.32"/>
</g>
<!-- Node4 -->
<g id="node4" class="node">
<title>Node4</title>
<g id="a_node4"><a xlink:href="classlog4cplus_1_1helpers_1_1SharedObjectPtr.html" target="_top" xlink:title=" ">
<polygon fill="white" stroke="black" points="269,-143.5 269,-173.5 418,-173.5 418,-143.5 269,-143.5"/>
<text text-anchor="start" x="277" y="-161.5" font-family="Helvetica,sans-Serif" font-size="10.00">log4cplus::helpers</text>
<text text-anchor="middle" x="343.5" y="-150.5" font-family="Helvetica,sans-Serif" font-size="10.00">::SharedObjectPtr&lt; Filter &gt;</text>
</a>
</g>
</g>
<!-- Node4&#45;&gt;Node2 -->
<g id="edge3" class="edge">
<title>Node4&#45;&gt;Node2</title>
<path fill="none" stroke="#9a32cd" stroke-dasharray="5,2" d="M428.58,-158.5C489.36,-158.5 569.87,-158.5 623.33,-158.5"/>
<polygon fill="#9a32cd" stroke="#9a32cd" points="428.24,-155 418.24,-158.5 428.24,-162 428.24,-155"/>
<text text-anchor="middle" x="515.5" y="-161.5" font-family="Helvetica,sans-Serif" font-size="10.00"> filter</text>
</g>
<!-- Node5 -->
<g id="node5" class="node">
<title>Node5</title>
<g id="a_node5"><a xlink:href="classlog4cplus_1_1helpers_1_1SharedObjectPtr.html" target="_top" xlink:title=" ">
<polygon fill="white" stroke="black" points="0,-120.5 0,-150.5 130,-150.5 130,-120.5 0,-120.5"/>
<text text-anchor="start" x="8" y="-138.5" font-family="Helvetica,sans-Serif" font-size="10.00">log4cplus::helpers</text>
<text text-anchor="middle" x="65" y="-127.5" font-family="Helvetica,sans-Serif" font-size="10.00">::SharedObjectPtr&lt; T &gt;</text>
</a>
</g>
</g>
<!-- Node5&#45;&gt;Node4 -->
<g id="edge4" class="edge">
<title>Node5&#45;&gt;Node4</title>
<path fill="none" stroke="orange" stroke-dasharray="5,2" d="M140.33,-141.68C180.21,-145 229.19,-149.07 268.95,-152.38"/>
<polygon fill="orange" stroke="orange" points="140.39,-138.18 130.13,-140.83 139.81,-145.15 140.39,-138.18"/>
<text text-anchor="middle" x="199.5" y="-152.5" font-family="Helvetica,sans-Serif" font-size="10.00"> &lt; Filter &gt;</text>
</g>
<!-- Node9 -->
<g id="node9" class="node">
<title>Node9</title>
<g id="a_node9"><a xlink:href="classlog4cplus_1_1helpers_1_1SharedObjectPtr.html" target="_top" xlink:title=" ">
<polygon fill="white" stroke="black" points="436,-93 436,-134 595,-134 595,-93 436,-93"/>
<text text-anchor="start" x="444" y="-122" font-family="Helvetica,sans-Serif" font-size="10.00">log4cplus::helpers</text>
<text text-anchor="start" x="444" y="-111" font-family="Helvetica,sans-Serif" font-size="10.00">::SharedObjectPtr&lt; log4cplus</text>
<text text-anchor="middle" x="515.5" y="-100" font-family="Helvetica,sans-Serif" font-size="10.00">::helpers::ConnectorThread &gt;</text>
</a>
</g>
</g>
<!-- Node5&#45;&gt;Node9 -->
<g id="edge9" class="edge">
<title>Node5&#45;&gt;Node9</title>
<path fill="none" stroke="orange" stroke-dasharray="5,2" d="M134.16,-118.52C138.82,-117.73 143.47,-117.04 148,-116.5 246.73,-104.8 361.47,-106.27 435.9,-109.18"/>
<polygon fill="orange" stroke="orange" points="133.15,-115.15 123.96,-120.41 134.43,-122.03 133.15,-115.15"/>
<text text-anchor="start" x="148" y="-130.5" font-family="Helvetica,sans-Serif" font-size="10.00"> &lt; log4cplus::helpers</text>
<text text-anchor="middle" x="199.5" y="-119.5" font-family="Helvetica,sans-Serif" font-size="10.00">::ConnectorThread &gt;</text>
</g>
<!-- Node6 -->
<g id="node6" class="node">
<title>Node6</title>
<g id="a_node6"><a xlink:href="classlog4cplus_1_1helpers_1_1IConnectorThreadClient.html" target="_top" xlink:title="Interface implemented by users of ConnectorThread.">
<polygon fill="white" stroke="black" points="613,-49.5 613,-79.5 750,-79.5 750,-49.5 613,-49.5"/>
<text text-anchor="start" x="621" y="-67.5" font-family="Helvetica,sans-Serif" font-size="10.00">log4cplus::helpers</text>
<text text-anchor="middle" x="681.5" y="-56.5" font-family="Helvetica,sans-Serif" font-size="10.00">::IConnectorThreadClient</text>
</a>
</g>
</g>
<!-- Node6&#45;&gt;Node1 -->
<g id="edge5" class="edge">
<title>Node6&#45;&gt;Node1</title>
<path fill="none" stroke="darkgreen" d="M759.96,-74.02C779.87,-76.47 801.24,-79.1 820.92,-81.52"/>
<polygon fill="darkgreen" stroke="darkgreen" points="760.35,-70.54 750,-72.8 759.5,-77.49 760.35,-70.54"/>
</g>
<!-- Node7 -->
<g id="node7" class="node">
<title>Node7</title>
<g id="a_node7"><a xlink:href="classlog4cplus_1_1helpers_1_1Socket.html" target="_top" xlink:title="This class implements client sockets (also called just &quot;sockets&quot;).">
<polygon fill="white" stroke="black" points="629,-0.5 629,-30.5 734,-30.5 734,-0.5 629,-0.5"/>
<text text-anchor="start" x="637" y="-18.5" font-family="Helvetica,sans-Serif" font-size="10.00">log4cplus::helpers</text>
<text text-anchor="middle" x="681.5" y="-7.5" font-family="Helvetica,sans-Serif" font-size="10.00">::Socket</text>
</a>
</g>
</g>
<!-- Node7&#45;&gt;Node1 -->
<g id="edge6" class="edge">
<title>Node7&#45;&gt;Node1</title>
<path fill="none" stroke="#9a32cd" stroke-dasharray="5,2" d="M734.54,-33.95C776.45,-48.81 833.67,-69.11 866.95,-80.91"/>
<polygon fill="#9a32cd" stroke="#9a32cd" points="735.64,-30.63 725.05,-30.59 733.3,-37.23 735.64,-30.63"/>
<text text-anchor="middle" x="785.5" y="-59.5" font-family="Helvetica,sans-Serif" font-size="10.00"> socket</text>
</g>
<!-- Node8 -->
<g id="node8" class="node">
<title>Node8</title>
<g id="a_node8"><a xlink:href="classlog4cplus_1_1helpers_1_1AbstractSocket.html" target="_top" xlink:title=" ">
<polygon fill="white" stroke="black" points="291,-0.5 291,-30.5 396,-30.5 396,-0.5 291,-0.5"/>
<text text-anchor="start" x="299" y="-18.5" font-family="Helvetica,sans-Serif" font-size="10.00">log4cplus::helpers</text>
<text text-anchor="middle" x="343.5" y="-7.5" font-family="Helvetica,sans-Serif" font-size="10.00">::AbstractSocket</text>
</a>
</g>
</g>
<!-- Node8&#45;&gt;Node7 -->
<g id="edge7" class="edge">
<title>Node8&#45;&gt;Node7</title>
<path fill="none" stroke="midnightblue" d="M406.61,-15.5C470.59,-15.5 569.15,-15.5 628.95,-15.5"/>
<polygon fill="midnightblue" stroke="midnightblue" points="406.26,-12 396.26,-15.5 406.26,-19 406.26,-12"/>
</g>
<!-- Node9&#45;&gt;Node1 -->
<g id="edge8" class="edge">
<title>Node9&#45;&gt;Node1</title>
<path fill="none" stroke="#9a32cd" stroke-dasharray="5,2" d="M605.51,-108.08C671.14,-104.08 759.33,-98.7 820.87,-94.96"/>
<polygon fill="#9a32cd" stroke="#9a32cd" points="604.95,-104.6 595.18,-108.71 605.37,-111.59 604.95,-104.6"/>
<text text-anchor="middle" x="681.5" y="-109.5" font-family="Helvetica,sans-Serif" font-size="10.00"> connector</text>
</g>
</g>
</svg>
