<?xml version="1.0" encoding="UTF-8" standalone="no"?>
<!DOCTYPE svg PUBLIC "-//W3C//DTD SVG 1.1//EN"
 "http://www.w3.org/Graphics/SVG/1.1/DTD/svg11.dtd">
<!-- Generated by graphviz version 2.43.0 (0)
 -->
<!-- Title: log4cplus::spi::MDCMatchFilter Pages: 1 -->
<svg width="280pt" height="252pt"
 viewBox="0.00 0.00 280.00 252.00" xmlns="http://www.w3.org/2000/svg" xmlns:xlink="http://www.w3.org/1999/xlink">
<g id="graph0" class="graph" transform="scale(1 1) rotate(0) translate(4 248)">
<title>log4cplus::spi::MDCMatchFilter</title>
<polygon fill="white" stroke="transparent" points="-4,4 -4,-248 276,-248 276,4 -4,4"/>
<!-- Node1 -->
<g id="node1" class="node">
<title>Node1</title>
<g id="a_node1"><a xlink:title="This is a simple filter based on the key/value pair stored in MDC.">
<polygon fill="#bfbfbf" stroke="black" points="25,-0.5 25,-30.5 168,-30.5 168,-0.5 25,-0.5"/>
<text text-anchor="start" x="33" y="-18.5" font-family="Helvetica,sans-Serif" font-size="10.00">log4cplus::spi::MDCMatch</text>
<text text-anchor="middle" x="96.5" y="-7.5" font-family="Helvetica,sans-Serif" font-size="10.00">Filter</text>
</a>
</g>
</g>
<!-- Node2 -->
<g id="node2" class="node">
<title>Node2</title>
<g id="a_node2"><a xlink:href="classlog4cplus_1_1spi_1_1Filter.html" target="_top" xlink:title="Users should extend this class to implement customized logging event filtering.">
<polygon fill="white" stroke="black" points="39.5,-68.5 39.5,-87.5 153.5,-87.5 153.5,-68.5 39.5,-68.5"/>
<text text-anchor="middle" x="96.5" y="-75.5" font-family="Helvetica,sans-Serif" font-size="10.00">log4cplus::spi::Filter</text>
</a>
</g>
</g>
<!-- Node2&#45;&gt;Node1 -->
<g id="edge1" class="edge">
<title>Node2&#45;&gt;Node1</title>
<path fill="none" stroke="midnightblue" d="M96.5,-58.22C96.5,-49.36 96.5,-38.96 96.5,-30.76"/>
<polygon fill="midnightblue" stroke="midnightblue" points="93,-58.33 96.5,-68.33 100,-58.33 93,-58.33"/>
</g>
<!-- Node3 -->
<g id="node3" class="node">
<title>Node3</title>
<g id="a_node3"><a xlink:href="classlog4cplus_1_1helpers_1_1SharedObject.html" target="_top" xlink:title=" ">
<polygon fill="white" stroke="black" points="0,-135.5 0,-165.5 105,-165.5 105,-135.5 0,-135.5"/>
<text text-anchor="start" x="8" y="-153.5" font-family="Helvetica,sans-Serif" font-size="10.00">log4cplus::helpers</text>
<text text-anchor="middle" x="52.5" y="-142.5" font-family="Helvetica,sans-Serif" font-size="10.00">::SharedObject</text>
</a>
</g>
</g>
<!-- Node3&#45;&gt;Node2 -->
<g id="edge2" class="edge">
<title>Node3&#45;&gt;Node2</title>
<path fill="none" stroke="midnightblue" d="M66.78,-126.63C75.02,-113.42 84.91,-97.57 90.95,-87.89"/>
<polygon fill="midnightblue" stroke="midnightblue" points="63.73,-124.9 61.4,-135.23 69.67,-128.6 63.73,-124.9"/>
</g>
<!-- Node4 -->
<g id="node4" class="node">
<title>Node4</title>
<g id="a_node4"><a xlink:href="classlog4cplus_1_1helpers_1_1SharedObjectPtr.html" target="_top" xlink:title=" ">
<polygon fill="white" stroke="black" points="123,-135.5 123,-165.5 272,-165.5 272,-135.5 123,-135.5"/>
<text text-anchor="start" x="131" y="-153.5" font-family="Helvetica,sans-Serif" font-size="10.00">log4cplus::helpers</text>
<text text-anchor="middle" x="197.5" y="-142.5" font-family="Helvetica,sans-Serif" font-size="10.00">::SharedObjectPtr&lt; Filter &gt;</text>
</a>
</g>
</g>
<!-- Node4&#45;&gt;Node2 -->
<g id="edge3" class="edge">
<title>Node4&#45;&gt;Node2</title>
<path fill="none" stroke="#9a32cd" stroke-dasharray="5,2" d="M168.71,-129.4C148.97,-115.62 123.76,-98.03 108.95,-87.69"/>
<polygon fill="#9a32cd" stroke="#9a32cd" points="166.86,-132.38 177.06,-135.23 170.86,-126.64 166.86,-132.38"/>
<text text-anchor="middle" x="162" y="-109" font-family="Helvetica,sans-Serif" font-size="10.00"> next</text>
</g>
<!-- Node5 -->
<g id="node5" class="node">
<title>Node5</title>
<g id="a_node5"><a xlink:href="classlog4cplus_1_1helpers_1_1SharedObjectPtr.html" target="_top" xlink:title=" ">
<polygon fill="white" stroke="black" points="132.5,-213.5 132.5,-243.5 262.5,-243.5 262.5,-213.5 132.5,-213.5"/>
<text text-anchor="start" x="140.5" y="-231.5" font-family="Helvetica,sans-Serif" font-size="10.00">log4cplus::helpers</text>
<text text-anchor="middle" x="197.5" y="-220.5" font-family="Helvetica,sans-Serif" font-size="10.00">::SharedObjectPtr&lt; T &gt;</text>
</a>
</g>
</g>
<!-- Node5&#45;&gt;Node4 -->
<g id="edge4" class="edge">
<title>Node5&#45;&gt;Node4</title>
<path fill="none" stroke="orange" stroke-dasharray="5,2" d="M197.5,-203.09C197.5,-190.76 197.5,-176.22 197.5,-165.73"/>
<polygon fill="orange" stroke="orange" points="194,-203.2 197.5,-213.2 201,-203.21 194,-203.2"/>
<text text-anchor="middle" x="223" y="-187" font-family="Helvetica,sans-Serif" font-size="10.00"> &lt; Filter &gt;</text>
</g>
</g>
</svg>
