<?xml version="1.0" encoding="UTF-8" standalone="no"?>
<!DOCTYPE svg PUBLIC "-//W3C//DTD SVG 1.1//EN"
 "http://www.w3.org/Graphics/SVG/1.1/DTD/svg11.dtd">
<!-- Generated by graphviz version 2.43.0 (0)
 -->
<!-- Title: log4cplus::BasicConfigurator Pages: 1 -->
<svg width="248pt" height="163pt"
 viewBox="0.00 0.00 247.50 163.00" xmlns="http://www.w3.org/2000/svg" xmlns:xlink="http://www.w3.org/1999/xlink">
<g id="graph0" class="graph" transform="scale(1 1) rotate(0) translate(4 159)">
<title>log4cplus::BasicConfigurator</title>
<polygon fill="white" stroke="transparent" points="-4,4 -4,-159 243.5,-159 243.5,4 -4,4"/>
<!-- Node1 -->
<g id="node1" class="node">
<title>Node1</title>
<g id="a_node1"><a xlink:title="Use this class to quickly configure the package.">
<polygon fill="#bfbfbf" stroke="black" points="44.5,-0.5 44.5,-19.5 199.5,-19.5 199.5,-0.5 44.5,-0.5"/>
<text text-anchor="middle" x="122" y="-7.5" font-family="Helvetica,sans-Serif" font-size="10.00">log4cplus::BasicConfigurator</text>
</a>
</g>
</g>
<!-- Node2 -->
<g id="node2" class="node">
<title>Node2</title>
<g id="a_node2"><a xlink:href="classlog4cplus_1_1PropertyConfigurator.html" target="_top" xlink:title="Provides configuration from an external file.">
<polygon fill="white" stroke="black" points="37,-57.5 37,-76.5 207,-76.5 207,-57.5 37,-57.5"/>
<text text-anchor="middle" x="122" y="-64.5" font-family="Helvetica,sans-Serif" font-size="10.00">log4cplus::PropertyConfigurator</text>
</a>
</g>
</g>
<!-- Node2&#45;&gt;Node1 -->
<g id="edge1" class="edge">
<title>Node2&#45;&gt;Node1</title>
<path fill="none" stroke="midnightblue" d="M122,-47.12C122,-37.82 122,-27.06 122,-19.71"/>
<polygon fill="midnightblue" stroke="midnightblue" points="118.5,-47.41 122,-57.41 125.5,-47.41 118.5,-47.41"/>
</g>
<!-- Node3 -->
<g id="node3" class="node">
<title>Node3</title>
<g id="a_node3"><a xlink:href="classlog4cplus_1_1Hierarchy.html" target="_top" xlink:title="This class is specialized in retrieving loggers by name and also maintaining the logger hierarchy.">
<polygon fill="white" stroke="black" points="0,-130 0,-149 116,-149 116,-130 0,-130"/>
<text text-anchor="middle" x="58" y="-137" font-family="Helvetica,sans-Serif" font-size="10.00">log4cplus::Hierarchy</text>
</a>
</g>
</g>
<!-- Node3&#45;&gt;Node2 -->
<g id="edge2" class="edge">
<title>Node3&#45;&gt;Node2</title>
<path fill="none" stroke="#9a32cd" stroke-dasharray="5,2" d="M72.71,-122.3C85.58,-108.12 103.79,-88.06 114.09,-76.72"/>
<polygon fill="#9a32cd" stroke="#9a32cd" points="69.98,-120.1 65.85,-129.86 75.16,-124.8 69.98,-120.1"/>
<text text-anchor="middle" x="101" y="-98" font-family="Helvetica,sans-Serif" font-size="10.00"> h</text>
</g>
<!-- Node4 -->
<g id="node4" class="node">
<title>Node4</title>
<g id="a_node4"><a xlink:href="classlog4cplus_1_1helpers_1_1Properties.html" target="_top" xlink:title=" ">
<polygon fill="white" stroke="black" points="134.5,-124.5 134.5,-154.5 239.5,-154.5 239.5,-124.5 134.5,-124.5"/>
<text text-anchor="start" x="142.5" y="-142.5" font-family="Helvetica,sans-Serif" font-size="10.00">log4cplus::helpers</text>
<text text-anchor="middle" x="187" y="-131.5" font-family="Helvetica,sans-Serif" font-size="10.00">::Properties</text>
</a>
</g>
</g>
<!-- Node4&#45;&gt;Node2 -->
<g id="edge3" class="edge">
<title>Node4&#45;&gt;Node2</title>
<path fill="none" stroke="#9a32cd" stroke-dasharray="5,2" d="M166.96,-116.76C154.59,-103.34 139.38,-86.85 130.2,-76.89"/>
<polygon fill="#9a32cd" stroke="#9a32cd" points="164.49,-119.25 173.85,-124.23 169.64,-114.51 164.49,-119.25"/>
<text text-anchor="middle" x="182.5" y="-98" font-family="Helvetica,sans-Serif" font-size="10.00"> properties</text>
</g>
</g>
</svg>
