<?xml version="1.0" encoding="UTF-8" standalone="no"?>
<!DOCTYPE svg PUBLIC "-//W3C//DTD SVG 1.1//EN"
 "http://www.w3.org/Graphics/SVG/1.1/DTD/svg11.dtd">
<!-- Generated by graphviz version 2.43.0 (0)
 -->
<!-- Title: log4cplus::spi::AppenderAttachable Pages: 1 -->
<svg width="355pt" height="218pt"
 viewBox="0.00 0.00 354.50 218.00" xmlns="http://www.w3.org/2000/svg" xmlns:xlink="http://www.w3.org/1999/xlink">
<g id="graph0" class="graph" transform="scale(1 1) rotate(0) translate(4 214)">
<title>log4cplus::spi::AppenderAttachable</title>
<polygon fill="white" stroke="transparent" points="-4,4 -4,-214 350.5,-214 350.5,4 -4,4"/>
<!-- Node1 -->
<g id="node1" class="node">
<title>Node1</title>
<g id="a_node1"><a xlink:title="This Interface is for attaching Appenders to objects.">
<polygon fill="#bfbfbf" stroke="black" points="53,-179.5 53,-209.5 189,-209.5 189,-179.5 53,-179.5"/>
<text text-anchor="start" x="61" y="-197.5" font-family="Helvetica,sans-Serif" font-size="10.00">log4cplus::spi::Appender</text>
<text text-anchor="middle" x="121" y="-186.5" font-family="Helvetica,sans-Serif" font-size="10.00">Attachable</text>
</a>
</g>
</g>
<!-- Node2 -->
<g id="node2" class="node">
<title>Node2</title>
<g id="a_node2"><a xlink:href="classlog4cplus_1_1Logger.html" target="_top" xlink:title="This is the central class in the log4cplus package.">
<polygon fill="white" stroke="black" points="0,-118 0,-137 102,-137 102,-118 0,-118"/>
<text text-anchor="middle" x="51" y="-125" font-family="Helvetica,sans-Serif" font-size="10.00">log4cplus::Logger</text>
</a>
</g>
</g>
<!-- Node1&#45;&gt;Node2 -->
<g id="edge1" class="edge">
<title>Node1&#45;&gt;Node2</title>
<path fill="none" stroke="midnightblue" d="M98.21,-172.34C85.35,-160.4 69.99,-146.14 60.36,-137.19"/>
<polygon fill="midnightblue" stroke="midnightblue" points="96.1,-175.16 105.81,-179.4 100.86,-170.03 96.1,-175.16"/>
</g>
<!-- Node3 -->
<g id="node3" class="node">
<title>Node3</title>
<g id="a_node3"><a xlink:href="classlog4cplus_1_1helpers_1_1AppenderAttachableImpl.html" target="_top" xlink:title="This Interface is for attaching Appenders to objects.">
<polygon fill="white" stroke="black" points="120.5,-112.5 120.5,-142.5 263.5,-142.5 263.5,-112.5 120.5,-112.5"/>
<text text-anchor="start" x="128.5" y="-130.5" font-family="Helvetica,sans-Serif" font-size="10.00">log4cplus::helpers</text>
<text text-anchor="middle" x="192" y="-119.5" font-family="Helvetica,sans-Serif" font-size="10.00">::AppenderAttachableImpl</text>
</a>
</g>
</g>
<!-- Node1&#45;&gt;Node3 -->
<g id="edge2" class="edge">
<title>Node1&#45;&gt;Node3</title>
<path fill="none" stroke="midnightblue" d="M143.83,-172.6C154.55,-162.78 167.05,-151.34 176.62,-142.58"/>
<polygon fill="midnightblue" stroke="midnightblue" points="141.42,-170.06 136.41,-179.4 146.15,-175.22 141.42,-170.06"/>
</g>
<!-- Node4 -->
<g id="node4" class="node">
<title>Node4</title>
<g id="a_node4"><a xlink:href="classlog4cplus_1_1AsyncAppender.html" target="_top" xlink:title="This Appender is a wrapper to which other appenders can be attached.">
<polygon fill="white" stroke="black" points="38.5,-56.5 38.5,-75.5 183.5,-75.5 183.5,-56.5 38.5,-56.5"/>
<text text-anchor="middle" x="111" y="-63.5" font-family="Helvetica,sans-Serif" font-size="10.00">log4cplus::AsyncAppender</text>
</a>
</g>
</g>
<!-- Node3&#45;&gt;Node4 -->
<g id="edge3" class="edge">
<title>Node3&#45;&gt;Node4</title>
<path fill="none" stroke="midnightblue" d="M164.35,-106.19C150.17,-95.77 133.64,-83.63 122.79,-75.66"/>
<polygon fill="midnightblue" stroke="midnightblue" points="162.67,-109.3 172.8,-112.4 166.82,-103.66 162.67,-109.3"/>
</g>
<!-- Node5 -->
<g id="node5" class="node">
<title>Node5</title>
<g id="a_node5"><a xlink:href="classlog4cplus_1_1spi_1_1LoggerImpl.html" target="_top" xlink:title="This is the central class in the log4cplus package.">
<polygon fill="white" stroke="black" points="202,-56.5 202,-75.5 346,-75.5 346,-56.5 202,-56.5"/>
<text text-anchor="middle" x="274" y="-63.5" font-family="Helvetica,sans-Serif" font-size="10.00">log4cplus::spi::LoggerImpl</text>
</a>
</g>
</g>
<!-- Node3&#45;&gt;Node5 -->
<g id="edge4" class="edge">
<title>Node3&#45;&gt;Node5</title>
<path fill="none" stroke="midnightblue" d="M219.59,-106.48C234.03,-96 250.97,-83.71 262.07,-75.66"/>
<polygon fill="midnightblue" stroke="midnightblue" points="217.47,-103.69 211.43,-112.4 221.58,-109.36 217.47,-103.69"/>
</g>
<!-- Node6 -->
<g id="node6" class="node">
<title>Node6</title>
<g id="a_node6"><a xlink:href="classlog4cplus_1_1spi_1_1RootLogger.html" target="_top" xlink:title="RootLogger sits at the top of the logger hierachy.">
<polygon fill="white" stroke="black" points="201.5,-0.5 201.5,-19.5 346.5,-19.5 346.5,-0.5 201.5,-0.5"/>
<text text-anchor="middle" x="274" y="-7.5" font-family="Helvetica,sans-Serif" font-size="10.00">log4cplus::spi::RootLogger</text>
</a>
</g>
</g>
<!-- Node5&#45;&gt;Node6 -->
<g id="edge5" class="edge">
<title>Node5&#45;&gt;Node6</title>
<path fill="none" stroke="midnightblue" d="M274,-45.8C274,-36.91 274,-26.78 274,-19.75"/>
<polygon fill="midnightblue" stroke="midnightblue" points="270.5,-46.08 274,-56.08 277.5,-46.08 270.5,-46.08"/>
</g>
</g>
</svg>
