<?xml version="1.0" encoding="UTF-8" standalone="no"?>
<!DOCTYPE svg PUBLIC "-//W3C//DTD SVG 1.1//EN"
 "http://www.w3.org/Graphics/SVG/1.1/DTD/svg11.dtd">
<!-- Generated by graphviz version 2.43.0 (0)
 -->
<!-- Title: log4cplus::Layout Pages: 1 -->
<svg width="445pt" height="84pt"
 viewBox="0.00 0.00 445.00 84.00" xmlns="http://www.w3.org/2000/svg" xmlns:xlink="http://www.w3.org/1999/xlink">
<g id="graph0" class="graph" transform="scale(1 1) rotate(0) translate(4 80)">
<title>log4cplus::Layout</title>
<polygon fill="white" stroke="transparent" points="-4,4 -4,-80 441,-80 441,4 -4,4"/>
<!-- Node1 -->
<g id="node1" class="node">
<title>Node1</title>
<g id="a_node1"><a xlink:title="This class is used to layout strings sent to an log4cplus::Appender.">
<polygon fill="#bfbfbf" stroke="black" points="172.5,-56.5 172.5,-75.5 274.5,-75.5 274.5,-56.5 172.5,-56.5"/>
<text text-anchor="middle" x="223.5" y="-63.5" font-family="Helvetica,sans-Serif" font-size="10.00">log4cplus::Layout</text>
</a>
</g>
</g>
<!-- Node2 -->
<g id="node2" class="node">
<title>Node2</title>
<g id="a_node2"><a xlink:href="classlog4cplus_1_1PatternLayout.html" target="_top" xlink:title="A flexible layout configurable with pattern string.">
<polygon fill="white" stroke="black" points="0,-0.5 0,-19.5 137,-19.5 137,-0.5 0,-0.5"/>
<text text-anchor="middle" x="68.5" y="-7.5" font-family="Helvetica,sans-Serif" font-size="10.00">log4cplus::PatternLayout</text>
</a>
</g>
</g>
<!-- Node1&#45;&gt;Node2 -->
<g id="edge1" class="edge">
<title>Node1&#45;&gt;Node2</title>
<path fill="none" stroke="midnightblue" d="M189.17,-53.04C160,-42.88 118.86,-28.55 92.95,-19.52"/>
<polygon fill="midnightblue" stroke="midnightblue" points="188.34,-56.46 198.94,-56.44 190.65,-49.85 188.34,-56.46"/>
</g>
<!-- Node3 -->
<g id="node3" class="node">
<title>Node3</title>
<g id="a_node3"><a xlink:href="classlog4cplus_1_1SimpleLayout.html" target="_top" xlink:title="SimpleLayout consists of the LogLevel of the log statement, followed by &quot; &#45; &quot; and then the log messag...">
<polygon fill="white" stroke="black" points="155.5,-0.5 155.5,-19.5 291.5,-19.5 291.5,-0.5 155.5,-0.5"/>
<text text-anchor="middle" x="223.5" y="-7.5" font-family="Helvetica,sans-Serif" font-size="10.00">log4cplus::SimpleLayout</text>
</a>
</g>
</g>
<!-- Node1&#45;&gt;Node3 -->
<g id="edge2" class="edge">
<title>Node1&#45;&gt;Node3</title>
<path fill="none" stroke="midnightblue" d="M223.5,-45.8C223.5,-36.91 223.5,-26.78 223.5,-19.75"/>
<polygon fill="midnightblue" stroke="midnightblue" points="220,-46.08 223.5,-56.08 227,-46.08 220,-46.08"/>
</g>
<!-- Node4 -->
<g id="node4" class="node">
<title>Node4</title>
<g id="a_node4"><a xlink:href="classlog4cplus_1_1TTCCLayout.html" target="_top" xlink:title="TTCC layout format consists of time, thread, Logger and nested diagnostic context information,...">
<polygon fill="white" stroke="black" points="310,-0.5 310,-19.5 437,-19.5 437,-0.5 310,-0.5"/>
<text text-anchor="middle" x="373.5" y="-7.5" font-family="Helvetica,sans-Serif" font-size="10.00">log4cplus::TTCCLayout</text>
</a>
</g>
</g>
<!-- Node1&#45;&gt;Node4 -->
<g id="edge3" class="edge">
<title>Node1&#45;&gt;Node4</title>
<path fill="none" stroke="midnightblue" d="M256.72,-53.04C284.95,-42.88 324.76,-28.55 349.84,-19.52"/>
<polygon fill="midnightblue" stroke="midnightblue" points="255.49,-49.76 247.27,-56.44 257.86,-56.35 255.49,-49.76"/>
</g>
</g>
</svg>
