<?xml version="1.0" encoding="UTF-8" standalone="no"?>
<!DOCTYPE svg PUBLIC "-//W3C//DTD SVG 1.1//EN"
 "http://www.w3.org/Graphics/SVG/1.1/DTD/svg11.dtd">
<!-- Generated by graphviz version 2.43.0 (0)
 -->
<!-- Title: configurator.h Pages: 1 -->
<svg width="1893pt" height="554pt"
 viewBox="0.00 0.00 1892.50 554.00" xmlns="http://www.w3.org/2000/svg" xmlns:xlink="http://www.w3.org/1999/xlink">
<g id="graph0" class="graph" transform="scale(1 1) rotate(0) translate(4 550)">
<title>configurator.h</title>
<polygon fill="white" stroke="transparent" points="-4,4 -4,-550 1888.5,-550 1888.5,4 -4,4"/>
<!-- Node1 -->
<g id="node1" class="node">
<title>Node1</title>
<g id="a_node1"><a xlink:title=" ">
<polygon fill="#bfbfbf" stroke="black" points="1519.5,-526.5 1519.5,-545.5 1602.5,-545.5 1602.5,-526.5 1519.5,-526.5"/>
<text text-anchor="middle" x="1561" y="-533.5" font-family="Helvetica,sans-Serif" font-size="10.00">configurator.h</text>
</a>
</g>
</g>
<!-- Node2 -->
<g id="node2" class="node">
<title>Node2</title>
<g id="a_node2"><a xlink:href="config_8hxx.html" target="_top" xlink:title=" ">
<polygon fill="white" stroke="black" points="822,-73 822,-92 938,-92 938,-73 822,-73"/>
<text text-anchor="middle" x="880" y="-80" font-family="Helvetica,sans-Serif" font-size="10.00">log4cplus/config.hxx</text>
</a>
</g>
</g>
<!-- Node1&#45;&gt;Node2 -->
<g id="edge1" class="edge">
<title>Node1&#45;&gt;Node2</title>
<path fill="none" stroke="midnightblue" d="M1519.25,-534.3C1271,-529.89 0,-503.45 0,-425 0,-425 0,-425 0,-199 0,-159.98 23.83,-150.89 59,-134 126,-101.83 627,-88.59 811.8,-84.76"/>
<polygon fill="midnightblue" stroke="midnightblue" points="812.01,-88.26 821.94,-84.55 811.87,-81.26 812.01,-88.26"/>
</g>
<!-- Node5 -->
<g id="node5" class="node">
<title>Node5</title>
<g id="a_node5"><a xlink:href="appender_8h.html" target="_top" xlink:title=" ">
<polygon fill="white" stroke="black" points="1057,-358.5 1057,-377.5 1177,-377.5 1177,-358.5 1057,-358.5"/>
<text text-anchor="middle" x="1117" y="-365.5" font-family="Helvetica,sans-Serif" font-size="10.00">log4cplus/appender.h</text>
</a>
</g>
</g>
<!-- Node1&#45;&gt;Node5 -->
<g id="edge4" class="edge">
<title>Node1&#45;&gt;Node5</title>
<path fill="none" stroke="midnightblue" d="M1538.06,-526.42C1464.53,-498.93 1234.5,-412.93 1149.23,-381.05"/>
<polygon fill="midnightblue" stroke="midnightblue" points="1150.39,-377.75 1139.8,-377.52 1147.94,-384.3 1150.39,-377.75"/>
</g>
<!-- Node18 -->
<g id="node18" class="node">
<title>Node18</title>
<g id="a_node18"><a xlink:href="pointer_8h.html" target="_top" xlink:title=" ">
<polygon fill="white" stroke="black" points="1481,-190.5 1481,-209.5 1629,-209.5 1629,-190.5 1481,-190.5"/>
<text text-anchor="middle" x="1555" y="-197.5" font-family="Helvetica,sans-Serif" font-size="10.00">log4cplus/helpers/pointer.h</text>
</a>
</g>
</g>
<!-- Node1&#45;&gt;Node18 -->
<g id="edge74" class="edge">
<title>Node1&#45;&gt;Node18</title>
<path fill="none" stroke="midnightblue" d="M1602.52,-528.29C1655.39,-517.11 1740,-489.2 1740,-425 1740,-425 1740,-425 1740,-311 1740,-253.13 1672.3,-225.02 1618.81,-211.85"/>
<polygon fill="midnightblue" stroke="midnightblue" points="1619.54,-208.42 1609.01,-209.55 1617.95,-215.24 1619.54,-208.42"/>
</g>
<!-- Node33 -->
<g id="node33" class="node">
<title>Node33</title>
<g id="a_node33"><a xlink:href="logger_8h.html" target="_top" xlink:title="This header defines the Logger class and the logging macros.">
<polygon fill="white" stroke="black" points="495.5,-470.5 495.5,-489.5 600.5,-489.5 600.5,-470.5 495.5,-470.5"/>
<text text-anchor="middle" x="548" y="-477.5" font-family="Helvetica,sans-Serif" font-size="10.00">log4cplus/logger.h</text>
</a>
</g>
</g>
<!-- Node1&#45;&gt;Node33 -->
<g id="edge60" class="edge">
<title>Node1&#45;&gt;Node33</title>
<path fill="none" stroke="midnightblue" d="M1519.4,-532.78C1361.65,-524.37 799.74,-494.42 610.63,-484.34"/>
<polygon fill="midnightblue" stroke="midnightblue" points="610.75,-480.84 600.57,-483.8 610.37,-487.83 610.75,-480.84"/>
</g>
<!-- Node36 -->
<g id="node36" class="node">
<title>Node36</title>
<g id="a_node36"><a xlink:href="property_8h.html" target="_top" xlink:title=" ">
<polygon fill="white" stroke="black" points="1292,-246.5 1292,-265.5 1446,-265.5 1446,-246.5 1292,-246.5"/>
<text text-anchor="middle" x="1369" y="-253.5" font-family="Helvetica,sans-Serif" font-size="10.00">log4cplus/helpers/property.h</text>
</a>
</g>
</g>
<!-- Node1&#45;&gt;Node36 -->
<g id="edge75" class="edge">
<title>Node1&#45;&gt;Node36</title>
<path fill="none" stroke="midnightblue" d="M1578.94,-526.25C1608.45,-510.45 1664,-474.19 1664,-425 1664,-425 1664,-425 1664,-367 1664,-317.84 1518.35,-283.46 1431.74,-267.35"/>
<polygon fill="midnightblue" stroke="midnightblue" points="1432.21,-263.88 1421.74,-265.53 1430.95,-270.77 1432.21,-263.88"/>
</g>
<!-- Node37 -->
<g id="node37" class="node">
<title>Node37</title>
<g id="a_node37"><a xlink:title=" ">
<polygon fill="white" stroke="#bfbfbf" points="1709,-190.5 1709,-209.5 1747,-209.5 1747,-190.5 1709,-190.5"/>
<text text-anchor="middle" x="1728" y="-197.5" font-family="Helvetica,sans-Serif" font-size="10.00">map</text>
</a>
</g>
</g>
<!-- Node1&#45;&gt;Node37 -->
<g id="edge81" class="edge">
<title>Node1&#45;&gt;Node37</title>
<path fill="none" stroke="midnightblue" d="M1602.67,-528.32C1683.56,-514.16 1854,-478.04 1854,-425 1854,-425 1854,-425 1854,-311 1854,-259.55 1793.65,-226.63 1756.49,-211.23"/>
<polygon fill="midnightblue" stroke="midnightblue" points="1757.72,-207.96 1747.14,-207.52 1755.14,-214.47 1757.72,-207.96"/>
</g>
<!-- Node3 -->
<g id="node3" class="node">
<title>Node3</title>
<g id="a_node3"><a xlink:href="win32_8h.html" target="_top" xlink:title=" ">
<polygon fill="white" stroke="black" points="734.5,-6 734.5,-25 871.5,-25 871.5,-6 734.5,-6"/>
<text text-anchor="middle" x="803" y="-13" font-family="Helvetica,sans-Serif" font-size="10.00">log4cplus/config/win32.h</text>
</a>
</g>
</g>
<!-- Node2&#45;&gt;Node3 -->
<g id="edge2" class="edge">
<title>Node2&#45;&gt;Node3</title>
<path fill="none" stroke="midnightblue" d="M869.62,-72.73C857.15,-62.21 836.03,-44.38 820.91,-31.62"/>
<polygon fill="midnightblue" stroke="midnightblue" points="823.12,-28.9 813.22,-25.13 818.6,-34.25 823.12,-28.9"/>
</g>
<!-- Node4 -->
<g id="node4" class="node">
<title>Node4</title>
<g id="a_node4"><a xlink:href="thread-config_8h.html" target="_top" xlink:title=" ">
<polygon fill="white" stroke="black" points="889.5,-0.5 889.5,-30.5 1026.5,-30.5 1026.5,-0.5 889.5,-0.5"/>
<text text-anchor="start" x="897.5" y="-18.5" font-family="Helvetica,sans-Serif" font-size="10.00">log4cplus/helpers/thread</text>
<text text-anchor="middle" x="958" y="-7.5" font-family="Helvetica,sans-Serif" font-size="10.00">&#45;config.h</text>
</a>
</g>
</g>
<!-- Node2&#45;&gt;Node4 -->
<g id="edge3" class="edge">
<title>Node2&#45;&gt;Node4</title>
<path fill="none" stroke="midnightblue" d="M890.52,-72.73C901.36,-63.7 918.67,-49.27 933.04,-37.3"/>
<polygon fill="midnightblue" stroke="midnightblue" points="935.65,-39.68 941.09,-30.59 931.17,-34.3 935.65,-39.68"/>
</g>
<!-- Node5&#45;&gt;Node2 -->
<g id="edge5" class="edge">
<title>Node5&#45;&gt;Node2</title>
<path fill="none" stroke="midnightblue" d="M1108.23,-358.23C1074.1,-324.02 950.48,-199.21 918,-154 905.99,-137.28 895.16,-116.32 888.16,-101.61"/>
<polygon fill="midnightblue" stroke="midnightblue" points="891.16,-99.76 883.78,-92.16 884.81,-102.71 891.16,-99.76"/>
</g>
<!-- Node6 -->
<g id="node6" class="node">
<title>Node6</title>
<g id="a_node6"><a xlink:href="layout_8h.html" target="_top" xlink:title=" ">
<polygon fill="white" stroke="black" points="652,-302.5 652,-321.5 758,-321.5 758,-302.5 652,-302.5"/>
<text text-anchor="middle" x="705" y="-309.5" font-family="Helvetica,sans-Serif" font-size="10.00">log4cplus/layout.h</text>
</a>
</g>
</g>
<!-- Node5&#45;&gt;Node6 -->
<g id="edge6" class="edge">
<title>Node5&#45;&gt;Node6</title>
<path fill="none" stroke="midnightblue" d="M1056.65,-359.09C979.64,-349 847.04,-331.62 768.54,-321.33"/>
<polygon fill="midnightblue" stroke="midnightblue" points="768.67,-317.82 758.3,-319.99 767.76,-324.76 768.67,-317.82"/>
</g>
<!-- Node7 -->
<g id="node7" class="node">
<title>Node7</title>
<g id="a_node7"><a xlink:href="loglevel_8h.html" target="_top" xlink:title="This header defines the LogLevel type.">
<polygon fill="white" stroke="black" points="766,-246.5 766,-265.5 880,-265.5 880,-246.5 766,-246.5"/>
<text text-anchor="middle" x="823" y="-253.5" font-family="Helvetica,sans-Serif" font-size="10.00">log4cplus/loglevel.h</text>
</a>
</g>
</g>
<!-- Node5&#45;&gt;Node7 -->
<g id="edge44" class="edge">
<title>Node5&#45;&gt;Node7</title>
<path fill="none" stroke="midnightblue" d="M1093.93,-358.37C1041.98,-338.93 915.68,-291.67 855.68,-269.23"/>
<polygon fill="midnightblue" stroke="midnightblue" points="856.55,-265.82 845.96,-265.59 854.1,-272.37 856.55,-265.82"/>
</g>
<!-- Node9 -->
<g id="node9" class="node">
<title>Node9</title>
<g id="a_node9"><a xlink:title=" ">
<polygon fill="white" stroke="#bfbfbf" points="671,-190.5 671,-209.5 729,-209.5 729,-190.5 671,-190.5"/>
<text text-anchor="middle" x="700" y="-197.5" font-family="Helvetica,sans-Serif" font-size="10.00">memory</text>
</a>
</g>
</g>
<!-- Node5&#45;&gt;Node9 -->
<g id="edge56" class="edge">
<title>Node5&#45;&gt;Node9</title>
<path fill="none" stroke="midnightblue" d="M1056.98,-365.72C935.64,-362.5 670.36,-352.08 643,-322 614.11,-290.24 656.68,-241.25 682.56,-216.48"/>
<polygon fill="midnightblue" stroke="midnightblue" points="685,-218.98 689.95,-209.61 680.24,-213.85 685,-218.98"/>
</g>
<!-- Node11 -->
<g id="node11" class="node">
<title>Node11</title>
<g id="a_node11"><a xlink:href="tstring_8h.html" target="_top" xlink:title=" ">
<polygon fill="white" stroke="black" points="545.5,-190.5 545.5,-209.5 652.5,-209.5 652.5,-190.5 545.5,-190.5"/>
<text text-anchor="middle" x="599" y="-197.5" font-family="Helvetica,sans-Serif" font-size="10.00">log4cplus/tstring.h</text>
</a>
</g>
</g>
<!-- Node5&#45;&gt;Node11 -->
<g id="edge45" class="edge">
<title>Node5&#45;&gt;Node11</title>
<path fill="none" stroke="midnightblue" d="M1056.86,-365.27C933.75,-361.19 661.86,-349.17 630,-322 600.26,-296.64 597.03,-247 597.72,-219.85"/>
<polygon fill="midnightblue" stroke="midnightblue" points="601.23,-219.88 598.2,-209.73 594.23,-219.55 601.23,-219.88"/>
</g>
<!-- Node5&#45;&gt;Node18 -->
<g id="edge46" class="edge">
<title>Node5&#45;&gt;Node18</title>
<path fill="none" stroke="midnightblue" d="M1177.16,-366.23C1268.96,-363.98 1438.56,-355.31 1488,-322 1524.23,-297.59 1542.8,-246.76 1550.52,-219.39"/>
<polygon fill="midnightblue" stroke="midnightblue" points="1553.95,-220.11 1553.11,-209.55 1547.18,-218.33 1553.95,-220.11"/>
</g>
<!-- Node20 -->
<g id="node20" class="node">
<title>Node20</title>
<g id="a_node20"><a xlink:title=" ">
<polygon fill="white" stroke="#bfbfbf" points="1711,-73 1711,-92 1759,-92 1759,-73 1711,-73"/>
<text text-anchor="middle" x="1735" y="-80" font-family="Helvetica,sans-Serif" font-size="10.00">mutex</text>
</a>
</g>
</g>
<!-- Node5&#45;&gt;Node20 -->
<g id="edge57" class="edge">
<title>Node5&#45;&gt;Node20</title>
<path fill="none" stroke="midnightblue" d="M1177.01,-366.03C1255.41,-363.45 1396.32,-354.25 1512,-322 1626.94,-289.96 1676.81,-299.26 1756,-210 1779.04,-184.03 1785.21,-166.85 1774,-134 1769.52,-120.86 1760.08,-108.49 1751.61,-99.28"/>
<polygon fill="midnightblue" stroke="midnightblue" points="1754.06,-96.77 1744.57,-92.06 1749.05,-101.66 1754.06,-96.77"/>
</g>
<!-- Node21 -->
<g id="node21" class="node">
<title>Node21</title>
<g id="a_node21"><a xlink:title=" ">
<polygon fill="white" stroke="#bfbfbf" points="1777.5,-73 1777.5,-92 1884.5,-92 1884.5,-73 1777.5,-73"/>
<text text-anchor="middle" x="1831" y="-80" font-family="Helvetica,sans-Serif" font-size="10.00">condition_variable</text>
</a>
</g>
</g>
<!-- Node5&#45;&gt;Node21 -->
<g id="edge59" class="edge">
<title>Node5&#45;&gt;Node21</title>
<path fill="none" stroke="midnightblue" d="M1177.32,-365.7C1264.24,-362.77 1429.28,-353.2 1566,-322 1637,-305.8 1658.4,-304.85 1720,-266 1750.04,-247.06 1756.98,-239.33 1777,-210 1800.92,-174.95 1817.65,-127.61 1825.65,-101.93"/>
<polygon fill="midnightblue" stroke="midnightblue" points="1829.09,-102.64 1828.62,-92.06 1822.39,-100.62 1829.09,-102.64"/>
</g>
<!-- Node25 -->
<g id="node25" class="node">
<title>Node25</title>
<g id="a_node25"><a xlink:title=" ">
<polygon fill="white" stroke="#bfbfbf" points="1347,-134.5 1347,-153.5 1397,-153.5 1397,-134.5 1347,-134.5"/>
<text text-anchor="middle" x="1372" y="-141.5" font-family="Helvetica,sans-Serif" font-size="10.00">atomic</text>
</a>
</g>
</g>
<!-- Node5&#45;&gt;Node25 -->
<g id="edge58" class="edge">
<title>Node5&#45;&gt;Node25</title>
<path fill="none" stroke="midnightblue" d="M1172.77,-358.49C1259.72,-343.95 1421.17,-311.44 1455,-266 1482.95,-228.46 1428.03,-182.48 1394.79,-159.51"/>
<polygon fill="midnightblue" stroke="midnightblue" points="1396.34,-156.33 1386.08,-153.67 1392.44,-162.14 1396.34,-156.33"/>
</g>
<!-- Node31 -->
<g id="node31" class="node">
<title>Node31</title>
<g id="a_node31"><a xlink:href="filter_8h.html" target="_top" xlink:title="This header defines Filter and all of it&#39;s subclasses.">
<polygon fill="white" stroke="black" points="1145,-302.5 1145,-321.5 1259,-321.5 1259,-302.5 1145,-302.5"/>
<text text-anchor="middle" x="1202" y="-309.5" font-family="Helvetica,sans-Serif" font-size="10.00">log4cplus/spi/filter.h</text>
</a>
</g>
</g>
<!-- Node5&#45;&gt;Node31 -->
<g id="edge47" class="edge">
<title>Node5&#45;&gt;Node31</title>
<path fill="none" stroke="midnightblue" d="M1130.66,-358.32C1143.92,-349.9 1164.27,-336.97 1179.85,-327.07"/>
<polygon fill="midnightblue" stroke="midnightblue" points="1181.81,-329.97 1188.38,-321.65 1178.06,-324.06 1181.81,-329.97"/>
</g>
<!-- Node32 -->
<g id="node32" class="node">
<title>Node32</title>
<g id="a_node32"><a xlink:href="lockfile_8h.html" target="_top" xlink:title=" ">
<polygon fill="white" stroke="black" points="1087.5,-246.5 1087.5,-265.5 1236.5,-265.5 1236.5,-246.5 1087.5,-246.5"/>
<text text-anchor="middle" x="1162" y="-253.5" font-family="Helvetica,sans-Serif" font-size="10.00">log4cplus/helpers/lockfile.h</text>
</a>
</g>
</g>
<!-- Node5&#45;&gt;Node32 -->
<g id="edge52" class="edge">
<title>Node5&#45;&gt;Node32</title>
<path fill="none" stroke="midnightblue" d="M1118.83,-358.36C1121.67,-345.69 1127.68,-321.46 1136,-302 1140.08,-292.46 1145.74,-282.41 1150.74,-274.23"/>
<polygon fill="midnightblue" stroke="midnightblue" points="1153.79,-275.96 1156.17,-265.64 1147.87,-272.22 1153.79,-275.96"/>
</g>
<!-- Node6&#45;&gt;Node2 -->
<g id="edge7" class="edge">
<title>Node6&#45;&gt;Node2</title>
<path fill="none" stroke="midnightblue" d="M651.69,-308.87C548.3,-304.19 328.64,-291.34 306,-266 295.5,-254.24 288.93,-218.64 311,-190 371.22,-111.85 673.76,-90.93 811.5,-85.42"/>
<polygon fill="midnightblue" stroke="midnightblue" points="811.67,-88.92 821.53,-85.04 811.4,-81.93 811.67,-88.92"/>
</g>
<!-- Node6&#45;&gt;Node7 -->
<g id="edge8" class="edge">
<title>Node6&#45;&gt;Node7</title>
<path fill="none" stroke="midnightblue" d="M723.7,-302.44C742.94,-293.64 773.15,-279.81 795.2,-269.72"/>
<polygon fill="midnightblue" stroke="midnightblue" points="796.75,-272.86 804.39,-265.52 793.84,-266.5 796.75,-272.86"/>
</g>
<!-- Node8 -->
<g id="node8" class="node">
<title>Node8</title>
<g id="a_node8"><a xlink:title=" ">
<polygon fill="white" stroke="#bfbfbf" points="889.5,-190.5 889.5,-209.5 936.5,-209.5 936.5,-190.5 889.5,-190.5"/>
<text text-anchor="middle" x="913" y="-197.5" font-family="Helvetica,sans-Serif" font-size="10.00">vector</text>
</a>
</g>
</g>
<!-- Node6&#45;&gt;Node8 -->
<g id="edge42" class="edge">
<title>Node6&#45;&gt;Node8</title>
<path fill="none" stroke="midnightblue" d="M709.52,-302.42C717.32,-288.47 734.64,-260.92 757,-246 794.45,-221.01 845.89,-209.69 879.29,-204.7"/>
<polygon fill="midnightblue" stroke="midnightblue" points="880.03,-208.13 889.46,-203.3 879.07,-201.2 880.03,-208.13"/>
</g>
<!-- Node6&#45;&gt;Node9 -->
<g id="edge43" class="edge">
<title>Node6&#45;&gt;Node9</title>
<path fill="none" stroke="midnightblue" d="M704.61,-302.37C703.8,-284.62 701.94,-243.67 700.85,-219.6"/>
<polygon fill="midnightblue" stroke="midnightblue" points="704.34,-219.42 700.39,-209.59 697.35,-219.74 704.34,-219.42"/>
</g>
<!-- Node6&#45;&gt;Node11 -->
<g id="edge36" class="edge">
<title>Node6&#45;&gt;Node11</title>
<path fill="none" stroke="midnightblue" d="M696.68,-302.37C678.96,-283.97 637.23,-240.67 614.47,-217.05"/>
<polygon fill="midnightblue" stroke="midnightblue" points="616.74,-214.36 607.28,-209.59 611.7,-219.22 616.74,-214.36"/>
</g>
<!-- Node26 -->
<g id="node26" class="node">
<title>Node26</title>
<g id="a_node26"><a xlink:href="streams_8h.html" target="_top" xlink:title=" ">
<polygon fill="white" stroke="black" points="1157.5,-190.5 1157.5,-209.5 1272.5,-209.5 1272.5,-190.5 1157.5,-190.5"/>
<text text-anchor="middle" x="1215" y="-197.5" font-family="Helvetica,sans-Serif" font-size="10.00">log4cplus/streams.h</text>
</a>
</g>
</g>
<!-- Node6&#45;&gt;Node26 -->
<g id="edge32" class="edge">
<title>Node6&#45;&gt;Node26</title>
<path fill="none" stroke="midnightblue" d="M744.59,-302.46C836.57,-282.62 1064.5,-233.46 1165.49,-211.68"/>
<polygon fill="midnightblue" stroke="midnightblue" points="1166.39,-215.06 1175.43,-209.53 1164.92,-208.22 1166.39,-215.06"/>
</g>
<!-- Node28 -->
<g id="node28" class="node">
<title>Node28</title>
<g id="a_node28"><a xlink:href="timehelper_8h.html" target="_top" xlink:title=" ">
<polygon fill="white" stroke="black" points="315.5,-246.5 315.5,-265.5 482.5,-265.5 482.5,-246.5 315.5,-246.5"/>
<text text-anchor="middle" x="399" y="-253.5" font-family="Helvetica,sans-Serif" font-size="10.00">log4cplus/helpers/timehelper.h</text>
</a>
</g>
</g>
<!-- Node6&#45;&gt;Node28 -->
<g id="edge37" class="edge">
<title>Node6&#45;&gt;Node28</title>
<path fill="none" stroke="midnightblue" d="M656.51,-302.44C602.46,-292.9 515.07,-277.48 457.33,-267.29"/>
<polygon fill="midnightblue" stroke="midnightblue" points="457.72,-263.81 447.26,-265.52 456.5,-270.7 457.72,-263.81"/>
</g>
<!-- Node7&#45;&gt;Node2 -->
<g id="edge9" class="edge">
<title>Node7&#45;&gt;Node2</title>
<path fill="none" stroke="midnightblue" d="M826.92,-246.48C830.97,-237.51 837.35,-222.93 842,-210 855.61,-172.21 868.39,-126.91 875.1,-102.07"/>
<polygon fill="midnightblue" stroke="midnightblue" points="878.54,-102.76 877.74,-92.19 871.77,-100.95 878.54,-102.76"/>
</g>
<!-- Node7&#45;&gt;Node8 -->
<g id="edge10" class="edge">
<title>Node7&#45;&gt;Node8</title>
<path fill="none" stroke="midnightblue" d="M837.46,-246.32C851.5,-237.9 873.05,-224.97 889.54,-215.07"/>
<polygon fill="midnightblue" stroke="midnightblue" points="891.8,-217.8 898.58,-209.65 888.2,-211.8 891.8,-217.8"/>
</g>
<!-- Node7&#45;&gt;Node9 -->
<g id="edge11" class="edge">
<title>Node7&#45;&gt;Node9</title>
<path fill="none" stroke="midnightblue" d="M803.51,-246.44C783.36,-237.6 751.68,-223.69 728.67,-213.59"/>
<polygon fill="midnightblue" stroke="midnightblue" points="729.96,-210.33 719.4,-209.52 727.15,-216.74 729.96,-210.33"/>
</g>
<!-- Node10 -->
<g id="node10" class="node">
<title>Node10</title>
<g id="a_node10"><a xlink:title=" ">
<polygon fill="white" stroke="#bfbfbf" points="747,-190.5 747,-209.5 833,-209.5 833,-190.5 747,-190.5"/>
<text text-anchor="middle" x="790" y="-197.5" font-family="Helvetica,sans-Serif" font-size="10.00">shared_mutex</text>
</a>
</g>
</g>
<!-- Node7&#45;&gt;Node10 -->
<g id="edge12" class="edge">
<title>Node7&#45;&gt;Node10</title>
<path fill="none" stroke="midnightblue" d="M817.55,-246.08C812.99,-238.61 806.33,-227.72 800.71,-218.52"/>
<polygon fill="midnightblue" stroke="midnightblue" points="803.55,-216.46 795.35,-209.75 797.58,-220.11 803.55,-216.46"/>
</g>
<!-- Node7&#45;&gt;Node11 -->
<g id="edge13" class="edge">
<title>Node7&#45;&gt;Node11</title>
<path fill="none" stroke="midnightblue" d="M787.51,-246.44C748.68,-237.08 686.34,-222.06 644.08,-211.87"/>
<polygon fill="midnightblue" stroke="midnightblue" points="644.87,-208.46 634.33,-209.52 643.23,-215.26 644.87,-208.46"/>
</g>
<!-- Node7&#45;&gt;Node18 -->
<g id="edge22" class="edge">
<title>Node7&#45;&gt;Node18</title>
<path fill="none" stroke="midnightblue" d="M880.13,-250.79C1008.49,-241.32 1320.23,-218.32 1470.82,-207.21"/>
<polygon fill="midnightblue" stroke="midnightblue" points="1471.23,-210.69 1480.94,-206.46 1470.71,-203.71 1471.23,-210.69"/>
</g>
<!-- Node11&#45;&gt;Node2 -->
<g id="edge14" class="edge">
<title>Node11&#45;&gt;Node2</title>
<path fill="none" stroke="midnightblue" d="M627.15,-190.42C654.11,-181.97 695.77,-168.28 731,-154 775.08,-136.13 824.73,-111.74 854.14,-96.84"/>
<polygon fill="midnightblue" stroke="midnightblue" points="855.98,-99.83 863.3,-92.17 852.8,-93.59 855.98,-99.83"/>
</g>
<!-- Node12 -->
<g id="node12" class="node">
<title>Node12</title>
<g id="a_node12"><a xlink:title=" ">
<polygon fill="white" stroke="#bfbfbf" points="653.5,-134.5 653.5,-153.5 722.5,-153.5 722.5,-134.5 653.5,-134.5"/>
<text text-anchor="middle" x="688" y="-141.5" font-family="Helvetica,sans-Serif" font-size="10.00">type_traits</text>
</a>
</g>
</g>
<!-- Node11&#45;&gt;Node12 -->
<g id="edge15" class="edge">
<title>Node11&#45;&gt;Node12</title>
<path fill="none" stroke="midnightblue" d="M613.3,-190.32C627.18,-181.9 648.49,-168.97 664.8,-159.07"/>
<polygon fill="midnightblue" stroke="midnightblue" points="667,-161.83 673.74,-153.65 663.37,-155.85 667,-161.83"/>
</g>
<!-- Node13 -->
<g id="node13" class="node">
<title>Node13</title>
<g id="a_node13"><a xlink:title=" ">
<polygon fill="white" stroke="#bfbfbf" points="927.5,-134.5 927.5,-153.5 992.5,-153.5 992.5,-134.5 927.5,-134.5"/>
<text text-anchor="middle" x="960" y="-141.5" font-family="Helvetica,sans-Serif" font-size="10.00">functional</text>
</a>
</g>
</g>
<!-- Node11&#45;&gt;Node13 -->
<g id="edge16" class="edge">
<title>Node11&#45;&gt;Node13</title>
<path fill="none" stroke="midnightblue" d="M652.66,-190.97C724.62,-180.21 850.98,-161.31 917.03,-151.43"/>
<polygon fill="midnightblue" stroke="midnightblue" points="917.72,-154.86 927.1,-149.92 916.69,-147.94 917.72,-154.86"/>
</g>
<!-- Node14 -->
<g id="node14" class="node">
<title>Node14</title>
<g id="a_node14"><a xlink:title=" ">
<polygon fill="white" stroke="#bfbfbf" points="500,-134.5 500,-153.5 544,-153.5 544,-134.5 500,-134.5"/>
<text text-anchor="middle" x="522" y="-141.5" font-family="Helvetica,sans-Serif" font-size="10.00">string</text>
</a>
</g>
</g>
<!-- Node11&#45;&gt;Node14 -->
<g id="edge17" class="edge">
<title>Node11&#45;&gt;Node14</title>
<path fill="none" stroke="midnightblue" d="M586.63,-190.32C574.84,-182.06 556.87,-169.45 542.86,-159.63"/>
<polygon fill="midnightblue" stroke="midnightblue" points="544.54,-156.53 534.34,-153.65 540.52,-162.26 544.54,-156.53"/>
</g>
<!-- Node15 -->
<g id="node15" class="node">
<title>Node15</title>
<g id="a_node15"><a xlink:title=" ">
<polygon fill="white" stroke="#bfbfbf" points="562.5,-134.5 562.5,-153.5 635.5,-153.5 635.5,-134.5 562.5,-134.5"/>
<text text-anchor="middle" x="599" y="-141.5" font-family="Helvetica,sans-Serif" font-size="10.00">string_view</text>
</a>
</g>
</g>
<!-- Node11&#45;&gt;Node15 -->
<g id="edge18" class="edge">
<title>Node11&#45;&gt;Node15</title>
<path fill="none" stroke="midnightblue" d="M599,-190.08C599,-183.01 599,-172.86 599,-163.99"/>
<polygon fill="midnightblue" stroke="midnightblue" points="602.5,-163.75 599,-153.75 595.5,-163.75 602.5,-163.75"/>
</g>
<!-- Node16 -->
<g id="node16" class="node">
<title>Node16</title>
<g id="a_node16"><a xlink:href="tchar_8h.html" target="_top" xlink:title=" ">
<polygon fill="white" stroke="black" points="1087.5,-134.5 1087.5,-153.5 1186.5,-153.5 1186.5,-134.5 1087.5,-134.5"/>
<text text-anchor="middle" x="1137" y="-141.5" font-family="Helvetica,sans-Serif" font-size="10.00">log4cplus/tchar.h</text>
</a>
</g>
</g>
<!-- Node11&#45;&gt;Node16 -->
<g id="edge19" class="edge">
<title>Node11&#45;&gt;Node16</title>
<path fill="none" stroke="midnightblue" d="M652.59,-191.17C655.77,-190.76 658.93,-190.36 662,-190 811.1,-172.3 987.2,-157.1 1077.31,-149.74"/>
<polygon fill="midnightblue" stroke="midnightblue" points="1077.66,-153.22 1087.34,-148.92 1077.09,-146.25 1077.66,-153.22"/>
</g>
<!-- Node16&#45;&gt;Node2 -->
<g id="edge20" class="edge">
<title>Node16&#45;&gt;Node2</title>
<path fill="none" stroke="midnightblue" d="M1100.18,-134.48C1054.47,-123.89 976.47,-105.84 926.63,-94.3"/>
<polygon fill="midnightblue" stroke="midnightblue" points="927.29,-90.85 916.75,-92.01 925.71,-97.67 927.29,-90.85"/>
</g>
<!-- Node17 -->
<g id="node17" class="node">
<title>Node17</title>
<g id="a_node17"><a xlink:title=" ">
<polygon fill="white" stroke="#bfbfbf" points="1110.5,-73 1110.5,-92 1163.5,-92 1163.5,-73 1110.5,-73"/>
<text text-anchor="middle" x="1137" y="-80" font-family="Helvetica,sans-Serif" font-size="10.00">cstddef</text>
</a>
</g>
</g>
<!-- Node16&#45;&gt;Node17 -->
<g id="edge21" class="edge">
<title>Node16&#45;&gt;Node17</title>
<path fill="none" stroke="midnightblue" d="M1137,-134.48C1137,-126.08 1137,-112.98 1137,-102.16"/>
<polygon fill="midnightblue" stroke="midnightblue" points="1140.5,-102.01 1137,-92.01 1133.5,-102.01 1140.5,-102.01"/>
</g>
<!-- Node18&#45;&gt;Node2 -->
<g id="edge23" class="edge">
<title>Node18&#45;&gt;Node2</title>
<path fill="none" stroke="midnightblue" d="M1531.75,-190.35C1509.1,-181.74 1473.8,-167.84 1444,-154 1426.69,-145.96 1424.29,-139.46 1406,-134 1363.16,-121.21 1080.61,-98.62 948.22,-88.57"/>
<polygon fill="midnightblue" stroke="midnightblue" points="948.42,-85.07 938.19,-87.81 947.9,-92.05 948.42,-85.07"/>
</g>
<!-- Node19 -->
<g id="node19" class="node">
<title>Node19</title>
<g id="a_node19"><a xlink:href="syncprims_8h.html" target="_top" xlink:title=" ">
<polygon fill="white" stroke="black" points="1605,-134.5 1605,-153.5 1765,-153.5 1765,-134.5 1605,-134.5"/>
<text text-anchor="middle" x="1685" y="-141.5" font-family="Helvetica,sans-Serif" font-size="10.00">log4cplus/thread/syncprims.h</text>
</a>
</g>
</g>
<!-- Node18&#45;&gt;Node19 -->
<g id="edge24" class="edge">
<title>Node18&#45;&gt;Node19</title>
<path fill="none" stroke="midnightblue" d="M1575.6,-190.44C1596.99,-181.56 1630.68,-167.56 1655.02,-157.45"/>
<polygon fill="midnightblue" stroke="midnightblue" points="1656.61,-160.58 1664.5,-153.52 1653.92,-154.12 1656.61,-160.58"/>
</g>
<!-- Node23 -->
<g id="node23" class="node">
<title>Node23</title>
<g id="a_node23"><a xlink:title=" ">
<polygon fill="white" stroke="#bfbfbf" points="1523,-134.5 1523,-153.5 1587,-153.5 1587,-134.5 1523,-134.5"/>
<text text-anchor="middle" x="1555" y="-141.5" font-family="Helvetica,sans-Serif" font-size="10.00">algorithm</text>
</a>
</g>
</g>
<!-- Node18&#45;&gt;Node23 -->
<g id="edge29" class="edge">
<title>Node18&#45;&gt;Node23</title>
<path fill="none" stroke="midnightblue" d="M1555,-190.08C1555,-183.01 1555,-172.86 1555,-163.99"/>
<polygon fill="midnightblue" stroke="midnightblue" points="1558.5,-163.75 1555,-153.75 1551.5,-163.75 1558.5,-163.75"/>
</g>
<!-- Node24 -->
<g id="node24" class="node">
<title>Node24</title>
<g id="a_node24"><a xlink:title=" ">
<polygon fill="white" stroke="#bfbfbf" points="1453,-134.5 1453,-153.5 1505,-153.5 1505,-134.5 1453,-134.5"/>
<text text-anchor="middle" x="1479" y="-141.5" font-family="Helvetica,sans-Serif" font-size="10.00">cassert</text>
</a>
</g>
</g>
<!-- Node18&#45;&gt;Node24 -->
<g id="edge30" class="edge">
<title>Node18&#45;&gt;Node24</title>
<path fill="none" stroke="midnightblue" d="M1542.79,-190.32C1531.22,-182.11 1513.62,-169.6 1499.84,-159.81"/>
<polygon fill="midnightblue" stroke="midnightblue" points="1501.61,-156.77 1491.43,-153.83 1497.56,-162.48 1501.61,-156.77"/>
</g>
<!-- Node18&#45;&gt;Node25 -->
<g id="edge31" class="edge">
<title>Node18&#45;&gt;Node25</title>
<path fill="none" stroke="midnightblue" d="M1526,-190.44C1493.62,-180.89 1441.24,-165.43 1406.71,-155.24"/>
<polygon fill="midnightblue" stroke="midnightblue" points="1407.62,-151.86 1397.04,-152.39 1405.64,-158.58 1407.62,-151.86"/>
</g>
<!-- Node19&#45;&gt;Node2 -->
<g id="edge25" class="edge">
<title>Node19&#45;&gt;Node2</title>
<path fill="none" stroke="midnightblue" d="M1604.96,-134.79C1601.93,-134.52 1598.94,-134.25 1596,-134 1471.44,-123.31 1102.32,-98.36 948.49,-88.06"/>
<polygon fill="midnightblue" stroke="midnightblue" points="948.45,-84.55 938.24,-87.38 947.98,-91.54 948.45,-84.55"/>
</g>
<!-- Node19&#45;&gt;Node20 -->
<g id="edge26" class="edge">
<title>Node19&#45;&gt;Node20</title>
<path fill="none" stroke="midnightblue" d="M1692.16,-134.48C1699.74,-125.46 1711.87,-111.02 1721.29,-99.81"/>
<polygon fill="midnightblue" stroke="midnightblue" points="1724.1,-101.92 1727.85,-92.01 1718.74,-97.41 1724.1,-101.92"/>
</g>
<!-- Node19&#45;&gt;Node21 -->
<g id="edge27" class="edge">
<title>Node19&#45;&gt;Node21</title>
<path fill="none" stroke="midnightblue" d="M1705.92,-134.48C1730.75,-124.36 1772.34,-107.4 1800.69,-95.85"/>
<polygon fill="midnightblue" stroke="midnightblue" points="1802.18,-99.02 1810.12,-92.01 1799.54,-92.54 1802.18,-99.02"/>
</g>
<!-- Node22 -->
<g id="node22" class="node">
<title>Node22</title>
<g id="a_node22"><a xlink:href="threadsafetyanalysis_8h.html" target="_top" xlink:title=" ">
<polygon fill="white" stroke="black" points="1561.5,-67.5 1561.5,-97.5 1692.5,-97.5 1692.5,-67.5 1561.5,-67.5"/>
<text text-anchor="start" x="1569.5" y="-85.5" font-family="Helvetica,sans-Serif" font-size="10.00">log4cplus/internal</text>
<text text-anchor="middle" x="1627" y="-74.5" font-family="Helvetica,sans-Serif" font-size="10.00">/threadsafetyanalysis.h</text>
</a>
</g>
</g>
<!-- Node19&#45;&gt;Node22 -->
<g id="edge28" class="edge">
<title>Node19&#45;&gt;Node22</title>
<path fill="none" stroke="midnightblue" d="M1676.69,-134.48C1669.2,-126.79 1657.87,-115.17 1647.92,-104.96"/>
<polygon fill="midnightblue" stroke="midnightblue" points="1650.16,-102.24 1640.67,-97.52 1645.14,-107.13 1650.16,-102.24"/>
</g>
<!-- Node26&#45;&gt;Node2 -->
<g id="edge33" class="edge">
<title>Node26&#45;&gt;Node2</title>
<path fill="none" stroke="midnightblue" d="M1215.05,-190.31C1214.62,-176.19 1211.57,-148.41 1195,-134 1159.12,-102.81 1029.73,-90.74 948.36,-86.18"/>
<polygon fill="midnightblue" stroke="midnightblue" points="948.37,-82.67 938.2,-85.63 948,-89.66 948.37,-82.67"/>
</g>
<!-- Node26&#45;&gt;Node16 -->
<g id="edge34" class="edge">
<title>Node26&#45;&gt;Node16</title>
<path fill="none" stroke="midnightblue" d="M1202.47,-190.32C1190.41,-181.98 1171.97,-169.21 1157.73,-159.35"/>
<polygon fill="midnightblue" stroke="midnightblue" points="1159.72,-156.47 1149.5,-153.65 1155.73,-162.22 1159.72,-156.47"/>
</g>
<!-- Node27 -->
<g id="node27" class="node">
<title>Node27</title>
<g id="a_node27"><a xlink:title=" ">
<polygon fill="white" stroke="#bfbfbf" points="1243,-134.5 1243,-153.5 1291,-153.5 1291,-134.5 1243,-134.5"/>
<text text-anchor="middle" x="1267" y="-141.5" font-family="Helvetica,sans-Serif" font-size="10.00">iosfwd</text>
</a>
</g>
</g>
<!-- Node26&#45;&gt;Node27 -->
<g id="edge35" class="edge">
<title>Node26&#45;&gt;Node27</title>
<path fill="none" stroke="midnightblue" d="M1223.59,-190.08C1231.16,-182.22 1242.38,-170.57 1251.51,-161.08"/>
<polygon fill="midnightblue" stroke="midnightblue" points="1254.16,-163.38 1258.57,-153.75 1249.12,-158.53 1254.16,-163.38"/>
</g>
<!-- Node28&#45;&gt;Node2 -->
<g id="edge38" class="edge">
<title>Node28&#45;&gt;Node2</title>
<path fill="none" stroke="midnightblue" d="M407.83,-246.43C416.67,-237.66 430.43,-223.44 441,-210 465.99,-178.22 456.72,-155.44 491,-134 543.07,-101.43 714.87,-89.69 811.83,-85.59"/>
<polygon fill="midnightblue" stroke="midnightblue" points="811.99,-89.09 821.84,-85.18 811.71,-82.09 811.99,-89.09"/>
</g>
<!-- Node28&#45;&gt;Node11 -->
<g id="edge39" class="edge">
<title>Node28&#45;&gt;Node11</title>
<path fill="none" stroke="midnightblue" d="M430.69,-246.44C465.07,-237.16 520.08,-222.31 557.79,-212.13"/>
<polygon fill="midnightblue" stroke="midnightblue" points="558.72,-215.5 567.46,-209.52 556.89,-208.74 558.72,-215.5"/>
</g>
<!-- Node29 -->
<g id="node29" class="node">
<title>Node29</title>
<g id="a_node29"><a xlink:title=" ">
<polygon fill="white" stroke="#bfbfbf" points="320,-190.5 320,-209.5 364,-209.5 364,-190.5 320,-190.5"/>
<text text-anchor="middle" x="342" y="-197.5" font-family="Helvetica,sans-Serif" font-size="10.00">ctime</text>
</a>
</g>
</g>
<!-- Node28&#45;&gt;Node29 -->
<g id="edge40" class="edge">
<title>Node28&#45;&gt;Node29</title>
<path fill="none" stroke="midnightblue" d="M389.84,-246.32C381.5,-238.42 368.97,-226.55 358.82,-216.94"/>
<polygon fill="midnightblue" stroke="midnightblue" points="360.99,-214.17 351.32,-209.83 356.18,-219.25 360.99,-214.17"/>
</g>
<!-- Node30 -->
<g id="node30" class="node">
<title>Node30</title>
<g id="a_node30"><a xlink:title=" ">
<polygon fill="white" stroke="#bfbfbf" points="382,-190.5 382,-209.5 432,-209.5 432,-190.5 382,-190.5"/>
<text text-anchor="middle" x="407" y="-197.5" font-family="Helvetica,sans-Serif" font-size="10.00">chrono</text>
</a>
</g>
</g>
<!-- Node28&#45;&gt;Node30 -->
<g id="edge41" class="edge">
<title>Node28&#45;&gt;Node30</title>
<path fill="none" stroke="midnightblue" d="M400.32,-246.08C401.38,-238.93 402.91,-228.64 404.23,-219.69"/>
<polygon fill="midnightblue" stroke="midnightblue" points="407.7,-220.16 405.7,-209.75 400.78,-219.13 407.7,-220.16"/>
</g>
<!-- Node31&#45;&gt;Node2 -->
<g id="edge48" class="edge">
<title>Node31&#45;&gt;Node2</title>
<path fill="none" stroke="midnightblue" d="M1215.08,-302.29C1232.3,-289.74 1258.83,-265.88 1245,-246 1218.74,-208.25 1189.13,-230.57 1148,-210 1092.21,-182.09 1086.21,-161.05 1030,-134 995.19,-117.25 953.36,-103.66 922.74,-94.82"/>
<polygon fill="midnightblue" stroke="midnightblue" points="923.38,-91.37 912.8,-92.01 921.47,-98.1 923.38,-91.37"/>
</g>
<!-- Node31&#45;&gt;Node7 -->
<g id="edge51" class="edge">
<title>Node31&#45;&gt;Node7</title>
<path fill="none" stroke="midnightblue" d="M1144.85,-302.86C1076.61,-293.13 962.65,-276.9 890.24,-266.58"/>
<polygon fill="midnightblue" stroke="midnightblue" points="890.7,-263.11 880.31,-265.16 889.71,-270.04 890.7,-263.11"/>
</g>
<!-- Node31&#45;&gt;Node13 -->
<g id="edge49" class="edge">
<title>Node31&#45;&gt;Node13</title>
<path fill="none" stroke="midnightblue" d="M1165.56,-302.44C1139.75,-295.3 1105.04,-283.45 1078,-266 1032.79,-236.83 991.8,-187.36 972.18,-161.64"/>
<polygon fill="midnightblue" stroke="midnightblue" points="974.96,-159.51 966.17,-153.61 969.36,-163.71 974.96,-159.51"/>
</g>
<!-- Node31&#45;&gt;Node18 -->
<g id="edge50" class="edge">
<title>Node31&#45;&gt;Node18</title>
<path fill="none" stroke="midnightblue" d="M1259.04,-307.38C1311.5,-302.54 1390.69,-291.4 1455,-266 1486.23,-253.66 1518.02,-230.87 1537.13,-215.82"/>
<polygon fill="midnightblue" stroke="midnightblue" points="1539.37,-218.51 1544.97,-209.52 1534.98,-213.06 1539.37,-218.51"/>
</g>
<!-- Node32&#45;&gt;Node2 -->
<g id="edge53" class="edge">
<title>Node32&#45;&gt;Node2</title>
<path fill="none" stroke="midnightblue" d="M1151.36,-246.45C1120.79,-221.98 1032.86,-152.24 1001,-134 973.39,-118.2 939.87,-104.6 915.12,-95.51"/>
<polygon fill="midnightblue" stroke="midnightblue" points="916.02,-92.11 905.42,-92.01 913.64,-98.7 916.02,-92.11"/>
</g>
<!-- Node32&#45;&gt;Node11 -->
<g id="edge54" class="edge">
<title>Node32&#45;&gt;Node11</title>
<path fill="none" stroke="midnightblue" d="M1087.33,-249.5C991.59,-242.18 820.2,-228.15 662.93,-210.05"/>
<polygon fill="midnightblue" stroke="midnightblue" points="662.93,-206.52 652.59,-208.85 662.12,-213.48 662.93,-206.52"/>
</g>
<!-- Node32&#45;&gt;Node19 -->
<g id="edge55" class="edge">
<title>Node32&#45;&gt;Node19</title>
<path fill="none" stroke="midnightblue" d="M1236.56,-248.74C1368.32,-237.58 1629.39,-214.92 1638,-210 1656.47,-199.44 1669.63,-178.34 1677.24,-163.04"/>
<polygon fill="midnightblue" stroke="midnightblue" points="1680.6,-164.12 1681.62,-153.57 1674.25,-161.18 1680.6,-164.12"/>
</g>
<!-- Node33&#45;&gt;Node2 -->
<g id="edge61" class="edge">
<title>Node33&#45;&gt;Node2</title>
<path fill="none" stroke="midnightblue" d="M495.34,-478.7C365.04,-476.53 38,-461.84 38,-369 38,-369 38,-369 38,-199 38,-125.53 118.61,-151.36 190,-134 306.66,-105.63 661.87,-90.77 811.94,-85.62"/>
<polygon fill="midnightblue" stroke="midnightblue" points="812.08,-89.12 821.95,-85.29 811.84,-82.13 812.08,-89.12"/>
</g>
<!-- Node33&#45;&gt;Node7 -->
<g id="edge62" class="edge">
<title>Node33&#45;&gt;Node7</title>
<path fill="none" stroke="midnightblue" d="M562.19,-470.5C598.37,-448.46 696.23,-386.72 767,-322 783.41,-306.99 799.73,-287.38 810.48,-273.64"/>
<polygon fill="midnightblue" stroke="midnightblue" points="813.36,-275.63 816.68,-265.57 807.81,-271.36 813.36,-275.63"/>
</g>
<!-- Node33&#45;&gt;Node8 -->
<g id="edge73" class="edge">
<title>Node33&#45;&gt;Node8</title>
<path fill="none" stroke="midnightblue" d="M600.59,-476.77C716.55,-470.41 984,-447.26 984,-369 984,-369 984,-369 984,-311 984,-272.1 952.27,-236.05 931.23,-216.43"/>
<polygon fill="midnightblue" stroke="midnightblue" points="933.56,-213.81 923.78,-209.74 928.89,-219.02 933.56,-213.81"/>
</g>
<!-- Node33&#45;&gt;Node11 -->
<g id="edge63" class="edge">
<title>Node33&#45;&gt;Node11</title>
<path fill="none" stroke="midnightblue" d="M542.72,-470.23C532.27,-452.04 510,-408.6 510,-369 510,-369 510,-369 510,-311 510,-268.85 549.99,-233.78 576.36,-215.24"/>
<polygon fill="midnightblue" stroke="midnightblue" points="578.38,-218.1 584.7,-209.6 574.46,-212.3 578.38,-218.1"/>
</g>
<!-- Node34 -->
<g id="node34" class="node">
<title>Node34</title>
<g id="a_node34"><a xlink:href="appenderattachable_8h.html" target="_top" xlink:title=" ">
<polygon fill="white" stroke="black" points="671,-414.5 671,-433.5 861,-433.5 861,-414.5 671,-414.5"/>
<text text-anchor="middle" x="766" y="-421.5" font-family="Helvetica,sans-Serif" font-size="10.00">log4cplus/spi/appenderattachable.h</text>
</a>
</g>
</g>
<!-- Node33&#45;&gt;Node34 -->
<g id="edge64" class="edge">
<title>Node33&#45;&gt;Node34</title>
<path fill="none" stroke="midnightblue" d="M582.54,-470.44C620.25,-461.1 680.74,-446.12 721.86,-435.93"/>
<polygon fill="midnightblue" stroke="midnightblue" points="722.75,-439.32 731.62,-433.52 721.07,-432.52 722.75,-439.32"/>
</g>
<!-- Node35 -->
<g id="node35" class="node">
<title>Node35</title>
<g id="a_node35"><a xlink:href="loggerfactory_8h.html" target="_top" xlink:title=" ">
<polygon fill="white" stroke="black" points="104,-246.5 104,-265.5 260,-265.5 260,-246.5 104,-246.5"/>
<text text-anchor="middle" x="182" y="-253.5" font-family="Helvetica,sans-Serif" font-size="10.00">log4cplus/spi/loggerfactory.h</text>
</a>
</g>
</g>
<!-- Node33&#45;&gt;Node35 -->
<g id="edge70" class="edge">
<title>Node33&#45;&gt;Node35</title>
<path fill="none" stroke="midnightblue" d="M533.65,-470.3C477.73,-436.38 274.1,-312.86 205.07,-270.99"/>
<polygon fill="midnightblue" stroke="midnightblue" points="206.61,-267.84 196.25,-265.64 202.98,-273.82 206.61,-267.84"/>
</g>
<!-- Node34&#45;&gt;Node2 -->
<g id="edge65" class="edge">
<title>Node34&#45;&gt;Node2</title>
<path fill="none" stroke="midnightblue" d="M670.8,-416.34C473.26,-400.32 41.48,-352.76 95,-246 132.29,-171.62 167.14,-163.34 245,-134 347.16,-95.5 669.44,-86.35 811.54,-84.18"/>
<polygon fill="midnightblue" stroke="midnightblue" points="811.92,-87.67 821.87,-84.03 811.82,-80.67 811.92,-87.67"/>
</g>
<!-- Node34&#45;&gt;Node5 -->
<g id="edge66" class="edge">
<title>Node34&#45;&gt;Node5</title>
<path fill="none" stroke="midnightblue" d="M821.62,-414.44C884.13,-404.83 985.52,-389.23 1051.73,-379.04"/>
<polygon fill="midnightblue" stroke="midnightblue" points="1052.29,-382.5 1061.64,-377.52 1051.23,-375.58 1052.29,-382.5"/>
</g>
<!-- Node34&#45;&gt;Node8 -->
<g id="edge69" class="edge">
<title>Node34&#45;&gt;Node8</title>
<path fill="none" stroke="midnightblue" d="M774.26,-414.5C795.77,-391.99 854.23,-328.28 889,-266 897.25,-251.23 903.67,-233.07 907.79,-219.71"/>
<polygon fill="midnightblue" stroke="midnightblue" points="911.25,-220.37 910.7,-209.79 904.53,-218.4 911.25,-220.37"/>
</g>
<!-- Node34&#45;&gt;Node11 -->
<g id="edge67" class="edge">
<title>Node34&#45;&gt;Node11</title>
<path fill="none" stroke="midnightblue" d="M743.61,-414.47C709.76,-400.41 645.81,-369.16 611,-322 588.72,-291.82 591.59,-245.23 595.43,-219.56"/>
<polygon fill="midnightblue" stroke="midnightblue" points="598.89,-220.11 597.12,-209.66 591.99,-218.93 598.89,-220.11"/>
</g>
<!-- Node34&#45;&gt;Node18 -->
<g id="edge68" class="edge">
<title>Node34&#45;&gt;Node18</title>
<path fill="none" stroke="midnightblue" d="M861.33,-419.9C1037.52,-412.59 1405.84,-389.49 1512,-322 1537.6,-305.73 1541.03,-294.64 1551,-266 1556.17,-251.13 1556.9,-233.21 1556.49,-219.96"/>
<polygon fill="midnightblue" stroke="midnightblue" points="1559.97,-219.49 1555.92,-209.7 1552.98,-219.88 1559.97,-219.49"/>
</g>
<!-- Node35&#45;&gt;Node2 -->
<g id="edge71" class="edge">
<title>Node35&#45;&gt;Node2</title>
<path fill="none" stroke="midnightblue" d="M185.56,-246.29C195.52,-223.17 226.11,-160.28 274,-134 320.18,-108.66 662.69,-92.13 811.41,-86.08"/>
<polygon fill="midnightblue" stroke="midnightblue" points="811.93,-89.57 821.78,-85.67 811.64,-82.57 811.93,-89.57"/>
</g>
<!-- Node35&#45;&gt;Node11 -->
<g id="edge72" class="edge">
<title>Node35&#45;&gt;Node11</title>
<path fill="none" stroke="midnightblue" d="M248.07,-246.44C326.87,-236.24 457.64,-219.31 535.35,-209.24"/>
<polygon fill="midnightblue" stroke="midnightblue" points="536.02,-212.69 545.49,-207.93 535.12,-205.74 536.02,-212.69"/>
</g>
<!-- Node36&#45;&gt;Node2 -->
<g id="edge76" class="edge">
<title>Node36&#45;&gt;Node2</title>
<path fill="none" stroke="midnightblue" d="M1366.97,-246.44C1361.08,-223.71 1341.7,-161.69 1300,-134 1271.34,-114.97 1059.57,-96.74 948.14,-88.34"/>
<polygon fill="midnightblue" stroke="midnightblue" points="948.24,-84.83 938,-87.58 947.72,-91.81 948.24,-84.83"/>
</g>
<!-- Node36&#45;&gt;Node8 -->
<g id="edge80" class="edge">
<title>Node36&#45;&gt;Node8</title>
<path fill="none" stroke="midnightblue" d="M1297,-246.47C1197.25,-234.66 1020.97,-213.79 947.08,-205.04"/>
<polygon fill="midnightblue" stroke="midnightblue" points="947.29,-201.54 936.95,-203.84 946.46,-208.49 947.29,-201.54"/>
</g>
<!-- Node36&#45;&gt;Node11 -->
<g id="edge78" class="edge">
<title>Node36&#45;&gt;Node11</title>
<path fill="none" stroke="midnightblue" d="M1291.95,-249.28C1276.41,-248.16 1260.18,-247.02 1245,-246 989.27,-228.82 921.96,-236.18 662.68,-209.98"/>
<polygon fill="midnightblue" stroke="midnightblue" points="662.88,-206.48 652.58,-208.95 662.17,-213.45 662.88,-206.48"/>
</g>
<!-- Node36&#45;&gt;Node26 -->
<g id="edge77" class="edge">
<title>Node36&#45;&gt;Node26</title>
<path fill="none" stroke="midnightblue" d="M1344.6,-246.44C1318.8,-237.4 1277.92,-223.06 1248.98,-212.92"/>
<polygon fill="midnightblue" stroke="midnightblue" points="1249.88,-209.52 1239.29,-209.52 1247.57,-216.13 1249.88,-209.52"/>
</g>
<!-- Node36&#45;&gt;Node37 -->
<g id="edge79" class="edge">
<title>Node36&#45;&gt;Node37</title>
<path fill="none" stroke="midnightblue" d="M1435.1,-246.48C1498.55,-238.07 1597.02,-224.41 1682,-210 1687.38,-209.09 1693.09,-208.04 1698.6,-206.98"/>
<polygon fill="midnightblue" stroke="midnightblue" points="1699.65,-210.34 1708.79,-204.98 1698.31,-203.47 1699.65,-210.34"/>
</g>
</g>
</svg>
