<?xml version="1.0" encoding="UTF-8" standalone="no"?>
<!DOCTYPE svg PUBLIC "-//W3C//DTD SVG 1.1//EN"
 "http://www.w3.org/Graphics/SVG/1.1/DTD/svg11.dtd">
<!-- Generated by graphviz version 2.43.0 (0)
 -->
<!-- Title: connectorthread.h Pages: 1 -->
<svg width="1185pt" height="386pt"
 viewBox="0.00 0.00 1185.00 386.00" xmlns="http://www.w3.org/2000/svg" xmlns:xlink="http://www.w3.org/1999/xlink">
<g id="graph0" class="graph" transform="scale(1 1) rotate(0) translate(4 382)">
<title>connectorthread.h</title>
<polygon fill="white" stroke="transparent" points="-4,4 -4,-382 1181,-382 1181,4 -4,4"/>
<!-- Node1 -->
<g id="node1" class="node">
<title>Node1</title>
<g id="a_node1"><a xlink:title=" ">
<polygon fill="#bfbfbf" stroke="black" points="256.5,-358.5 256.5,-377.5 361.5,-377.5 361.5,-358.5 256.5,-358.5"/>
<text text-anchor="middle" x="309" y="-365.5" font-family="Helvetica,sans-Serif" font-size="10.00">connectorthread.h</text>
</a>
</g>
</g>
<!-- Node2 -->
<g id="node2" class="node">
<title>Node2</title>
<g id="a_node2"><a xlink:href="config_8hxx.html" target="_top" xlink:title=" ">
<polygon fill="white" stroke="black" points="512,-73 512,-92 628,-92 628,-73 512,-73"/>
<text text-anchor="middle" x="570" y="-80" font-family="Helvetica,sans-Serif" font-size="10.00">log4cplus/config.hxx</text>
</a>
</g>
</g>
<!-- Node1&#45;&gt;Node2 -->
<g id="edge1" class="edge">
<title>Node1&#45;&gt;Node2</title>
<path fill="none" stroke="midnightblue" d="M302.33,-358.46C285.16,-335.84 239.68,-271.9 224,-210 214.36,-171.95 235.13,-153.85 269,-134 307.5,-111.44 425.64,-96.7 501.96,-89.26"/>
<polygon fill="midnightblue" stroke="midnightblue" points="502.35,-92.74 511.97,-88.31 501.69,-85.77 502.35,-92.74"/>
</g>
<!-- Node5 -->
<g id="node5" class="node">
<title>Node5</title>
<g id="a_node5"><a xlink:href="syncprims_8h.html" target="_top" xlink:title=" ">
<polygon fill="white" stroke="black" points="40,-134.5 40,-153.5 200,-153.5 200,-134.5 40,-134.5"/>
<text text-anchor="middle" x="120" y="-141.5" font-family="Helvetica,sans-Serif" font-size="10.00">log4cplus/thread/syncprims.h</text>
</a>
</g>
</g>
<!-- Node1&#45;&gt;Node5 -->
<g id="edge4" class="edge">
<title>Node1&#45;&gt;Node5</title>
<path fill="none" stroke="midnightblue" d="M262.12,-358.49C238.22,-352.03 210.23,-340.91 191,-322 145.41,-277.18 128.2,-199.27 122.49,-163.69"/>
<polygon fill="midnightblue" stroke="midnightblue" points="125.95,-163.1 121.03,-153.72 119.02,-164.12 125.95,-163.1"/>
</g>
<!-- Node9 -->
<g id="node9" class="node">
<title>Node9</title>
<g id="a_node9"><a xlink:href="threads_8h.html" target="_top" xlink:title=" ">
<polygon fill="white" stroke="black" points="371,-246.5 371,-265.5 517,-265.5 517,-246.5 371,-246.5"/>
<text text-anchor="middle" x="444" y="-253.5" font-family="Helvetica,sans-Serif" font-size="10.00">log4cplus/thread/threads.h</text>
</a>
</g>
</g>
<!-- Node1&#45;&gt;Node9 -->
<g id="edge9" class="edge">
<title>Node1&#45;&gt;Node9</title>
<path fill="none" stroke="midnightblue" d="M319.59,-358.37C342.46,-339.73 396.71,-295.53 425.43,-272.13"/>
<polygon fill="midnightblue" stroke="midnightblue" points="427.91,-274.62 433.46,-265.59 423.49,-269.19 427.91,-274.62"/>
</g>
<!-- Node23 -->
<g id="node23" class="node">
<title>Node23</title>
<g id="a_node23"><a xlink:href="helpers_2socket_8h.html" target="_top" xlink:title=" ">
<polygon fill="white" stroke="black" points="730,-302.5 730,-321.5 876,-321.5 876,-302.5 730,-302.5"/>
<text text-anchor="middle" x="803" y="-309.5" font-family="Helvetica,sans-Serif" font-size="10.00">log4cplus/helpers/socket.h</text>
</a>
</g>
</g>
<!-- Node1&#45;&gt;Node23 -->
<g id="edge28" class="edge">
<title>Node1&#45;&gt;Node23</title>
<path fill="none" stroke="midnightblue" d="M361.87,-361.22C447.62,-351.85 617.71,-333.25 719.81,-322.09"/>
<polygon fill="midnightblue" stroke="midnightblue" points="720.22,-325.57 729.78,-321 719.46,-318.61 720.22,-325.57"/>
</g>
<!-- Node3 -->
<g id="node3" class="node">
<title>Node3</title>
<g id="a_node3"><a xlink:href="win32_8h.html" target="_top" xlink:title=" ">
<polygon fill="white" stroke="black" points="423.5,-6 423.5,-25 560.5,-25 560.5,-6 423.5,-6"/>
<text text-anchor="middle" x="492" y="-13" font-family="Helvetica,sans-Serif" font-size="10.00">log4cplus/config/win32.h</text>
</a>
</g>
</g>
<!-- Node2&#45;&gt;Node3 -->
<g id="edge2" class="edge">
<title>Node2&#45;&gt;Node3</title>
<path fill="none" stroke="midnightblue" d="M559.48,-72.73C546.85,-62.21 525.46,-44.38 510.14,-31.62"/>
<polygon fill="midnightblue" stroke="midnightblue" points="512.28,-28.84 502.35,-25.13 507.79,-34.22 512.28,-28.84"/>
</g>
<!-- Node4 -->
<g id="node4" class="node">
<title>Node4</title>
<g id="a_node4"><a xlink:href="thread-config_8h.html" target="_top" xlink:title=" ">
<polygon fill="white" stroke="black" points="578.5,-0.5 578.5,-30.5 715.5,-30.5 715.5,-0.5 578.5,-0.5"/>
<text text-anchor="start" x="586.5" y="-18.5" font-family="Helvetica,sans-Serif" font-size="10.00">log4cplus/helpers/thread</text>
<text text-anchor="middle" x="647" y="-7.5" font-family="Helvetica,sans-Serif" font-size="10.00">&#45;config.h</text>
</a>
</g>
</g>
<!-- Node2&#45;&gt;Node4 -->
<g id="edge3" class="edge">
<title>Node2&#45;&gt;Node4</title>
<path fill="none" stroke="midnightblue" d="M580.38,-72.73C591.09,-63.7 608.18,-49.27 622.36,-37.3"/>
<polygon fill="midnightblue" stroke="midnightblue" points="624.93,-39.71 630.31,-30.59 620.41,-34.37 624.93,-39.71"/>
</g>
<!-- Node5&#45;&gt;Node2 -->
<g id="edge5" class="edge">
<title>Node5&#45;&gt;Node2</title>
<path fill="none" stroke="midnightblue" d="M184.47,-134.48C268.75,-123.33 415.71,-103.9 501.79,-92.52"/>
<polygon fill="midnightblue" stroke="midnightblue" points="502.27,-95.99 511.72,-91.21 501.35,-89.05 502.27,-95.99"/>
</g>
<!-- Node6 -->
<g id="node6" class="node">
<title>Node6</title>
<g id="a_node6"><a xlink:title=" ">
<polygon fill="white" stroke="#bfbfbf" points="0,-73 0,-92 48,-92 48,-73 0,-73"/>
<text text-anchor="middle" x="24" y="-80" font-family="Helvetica,sans-Serif" font-size="10.00">mutex</text>
</a>
</g>
</g>
<!-- Node5&#45;&gt;Node6 -->
<g id="edge6" class="edge">
<title>Node5&#45;&gt;Node6</title>
<path fill="none" stroke="midnightblue" d="M106.25,-134.48C90.63,-124.8 64.94,-108.87 46.42,-97.39"/>
<polygon fill="midnightblue" stroke="midnightblue" points="48.07,-94.3 37.73,-92.01 44.38,-100.25 48.07,-94.3"/>
</g>
<!-- Node7 -->
<g id="node7" class="node">
<title>Node7</title>
<g id="a_node7"><a xlink:title=" ">
<polygon fill="white" stroke="#bfbfbf" points="66.5,-73 66.5,-92 173.5,-92 173.5,-73 66.5,-73"/>
<text text-anchor="middle" x="120" y="-80" font-family="Helvetica,sans-Serif" font-size="10.00">condition_variable</text>
</a>
</g>
</g>
<!-- Node5&#45;&gt;Node7 -->
<g id="edge7" class="edge">
<title>Node5&#45;&gt;Node7</title>
<path fill="none" stroke="midnightblue" d="M120,-134.48C120,-126.08 120,-112.98 120,-102.16"/>
<polygon fill="midnightblue" stroke="midnightblue" points="123.5,-102.01 120,-92.01 116.5,-102.01 123.5,-102.01"/>
</g>
<!-- Node8 -->
<g id="node8" class="node">
<title>Node8</title>
<g id="a_node8"><a xlink:href="threadsafetyanalysis_8h.html" target="_top" xlink:title=" ">
<polygon fill="white" stroke="black" points="191.5,-67.5 191.5,-97.5 322.5,-97.5 322.5,-67.5 191.5,-67.5"/>
<text text-anchor="start" x="199.5" y="-85.5" font-family="Helvetica,sans-Serif" font-size="10.00">log4cplus/internal</text>
<text text-anchor="middle" x="257" y="-74.5" font-family="Helvetica,sans-Serif" font-size="10.00">/threadsafetyanalysis.h</text>
</a>
</g>
</g>
<!-- Node5&#45;&gt;Node8 -->
<g id="edge8" class="edge">
<title>Node5&#45;&gt;Node8</title>
<path fill="none" stroke="midnightblue" d="M139.63,-134.48C159.31,-125.93 190.22,-112.5 215.39,-101.57"/>
<polygon fill="midnightblue" stroke="midnightblue" points="216.93,-104.72 224.71,-97.52 214.15,-98.3 216.93,-104.72"/>
</g>
<!-- Node9&#45;&gt;Node2 -->
<g id="edge10" class="edge">
<title>Node9&#45;&gt;Node2</title>
<path fill="none" stroke="midnightblue" d="M474.03,-246.42C493.15,-239.5 517.06,-227.92 532,-210 558.22,-178.55 566.35,-129.42 568.87,-102.58"/>
<polygon fill="midnightblue" stroke="midnightblue" points="572.39,-102.5 569.66,-92.26 565.41,-101.97 572.39,-102.5"/>
</g>
<!-- Node10 -->
<g id="node10" class="node">
<title>Node10</title>
<g id="a_node10"><a xlink:title=" ">
<polygon fill="white" stroke="#bfbfbf" points="465,-190.5 465,-209.5 523,-209.5 523,-190.5 465,-190.5"/>
<text text-anchor="middle" x="494" y="-197.5" font-family="Helvetica,sans-Serif" font-size="10.00">memory</text>
</a>
</g>
</g>
<!-- Node9&#45;&gt;Node10 -->
<g id="edge11" class="edge">
<title>Node9&#45;&gt;Node10</title>
<path fill="none" stroke="midnightblue" d="M452.26,-246.08C459.46,-238.3 470.11,-226.8 478.85,-217.37"/>
<polygon fill="midnightblue" stroke="midnightblue" points="481.67,-219.47 485.9,-209.75 476.53,-214.71 481.67,-219.47"/>
</g>
<!-- Node11 -->
<g id="node11" class="node">
<title>Node11</title>
<g id="a_node11"><a xlink:title=" ">
<polygon fill="white" stroke="#bfbfbf" points="233,-190.5 233,-209.5 281,-209.5 281,-190.5 233,-190.5"/>
<text text-anchor="middle" x="257" y="-197.5" font-family="Helvetica,sans-Serif" font-size="10.00">thread</text>
</a>
</g>
</g>
<!-- Node9&#45;&gt;Node11 -->
<g id="edge12" class="edge">
<title>Node9&#45;&gt;Node11</title>
<path fill="none" stroke="midnightblue" d="M414.37,-246.44C380.81,-236.75 326.23,-220.99 290.98,-210.81"/>
<polygon fill="midnightblue" stroke="midnightblue" points="291.72,-207.38 281.14,-207.97 289.78,-214.11 291.72,-207.38"/>
</g>
<!-- Node12 -->
<g id="node12" class="node">
<title>Node12</title>
<g id="a_node12"><a xlink:href="tstring_8h.html" target="_top" xlink:title=" ">
<polygon fill="white" stroke="black" points="727.5,-190.5 727.5,-209.5 834.5,-209.5 834.5,-190.5 727.5,-190.5"/>
<text text-anchor="middle" x="781" y="-197.5" font-family="Helvetica,sans-Serif" font-size="10.00">log4cplus/tstring.h</text>
</a>
</g>
</g>
<!-- Node9&#45;&gt;Node12 -->
<g id="edge13" class="edge">
<title>Node9&#45;&gt;Node12</title>
<path fill="none" stroke="midnightblue" d="M497.4,-246.44C557.3,-236.85 654.37,-221.29 717.95,-211.1"/>
<polygon fill="midnightblue" stroke="midnightblue" points="718.53,-214.55 727.85,-209.52 717.42,-207.64 718.53,-214.55"/>
</g>
<!-- Node19 -->
<g id="node19" class="node">
<title>Node19</title>
<g id="a_node19"><a xlink:href="pointer_8h.html" target="_top" xlink:title=" ">
<polygon fill="white" stroke="black" points="299,-190.5 299,-209.5 447,-209.5 447,-190.5 299,-190.5"/>
<text text-anchor="middle" x="373" y="-197.5" font-family="Helvetica,sans-Serif" font-size="10.00">log4cplus/helpers/pointer.h</text>
</a>
</g>
</g>
<!-- Node9&#45;&gt;Node19 -->
<g id="edge22" class="edge">
<title>Node9&#45;&gt;Node19</title>
<path fill="none" stroke="midnightblue" d="M432.59,-246.32C421.89,-238.18 405.66,-225.84 392.84,-216.09"/>
<polygon fill="midnightblue" stroke="midnightblue" points="394.69,-213.1 384.61,-209.83 390.46,-218.67 394.69,-213.1"/>
</g>
<!-- Node12&#45;&gt;Node2 -->
<g id="edge14" class="edge">
<title>Node12&#45;&gt;Node2</title>
<path fill="none" stroke="midnightblue" d="M740.99,-190.44C713.07,-183.35 675.65,-171.57 646,-154 621.44,-139.45 598.14,-115.86 583.96,-100.03"/>
<polygon fill="midnightblue" stroke="midnightblue" points="586.29,-97.37 577.08,-92.13 581.01,-101.97 586.29,-97.37"/>
</g>
<!-- Node13 -->
<g id="node13" class="node">
<title>Node13</title>
<g id="a_node13"><a xlink:title=" ">
<polygon fill="white" stroke="#bfbfbf" points="746.5,-134.5 746.5,-153.5 815.5,-153.5 815.5,-134.5 746.5,-134.5"/>
<text text-anchor="middle" x="781" y="-141.5" font-family="Helvetica,sans-Serif" font-size="10.00">type_traits</text>
</a>
</g>
</g>
<!-- Node12&#45;&gt;Node13 -->
<g id="edge15" class="edge">
<title>Node12&#45;&gt;Node13</title>
<path fill="none" stroke="midnightblue" d="M781,-190.08C781,-183.01 781,-172.86 781,-163.99"/>
<polygon fill="midnightblue" stroke="midnightblue" points="784.5,-163.75 781,-153.75 777.5,-163.75 784.5,-163.75"/>
</g>
<!-- Node14 -->
<g id="node14" class="node">
<title>Node14</title>
<g id="a_node14"><a xlink:title=" ">
<polygon fill="white" stroke="#bfbfbf" points="833.5,-134.5 833.5,-153.5 898.5,-153.5 898.5,-134.5 833.5,-134.5"/>
<text text-anchor="middle" x="866" y="-141.5" font-family="Helvetica,sans-Serif" font-size="10.00">functional</text>
</a>
</g>
</g>
<!-- Node12&#45;&gt;Node14 -->
<g id="edge16" class="edge">
<title>Node12&#45;&gt;Node14</title>
<path fill="none" stroke="midnightblue" d="M794.66,-190.32C807.92,-181.9 828.27,-168.97 843.85,-159.07"/>
<polygon fill="midnightblue" stroke="midnightblue" points="845.81,-161.97 852.38,-153.65 842.06,-156.06 845.81,-161.97"/>
</g>
<!-- Node15 -->
<g id="node15" class="node">
<title>Node15</title>
<g id="a_node15"><a xlink:title=" ">
<polygon fill="white" stroke="#bfbfbf" points="917,-134.5 917,-153.5 961,-153.5 961,-134.5 917,-134.5"/>
<text text-anchor="middle" x="939" y="-141.5" font-family="Helvetica,sans-Serif" font-size="10.00">string</text>
</a>
</g>
</g>
<!-- Node12&#45;&gt;Node15 -->
<g id="edge17" class="edge">
<title>Node12&#45;&gt;Node15</title>
<path fill="none" stroke="midnightblue" d="M806.04,-190.44C833.48,-181.07 877.56,-166 907.37,-155.81"/>
<polygon fill="midnightblue" stroke="midnightblue" points="908.56,-159.1 916.89,-152.56 906.29,-152.48 908.56,-159.1"/>
</g>
<!-- Node16 -->
<g id="node16" class="node">
<title>Node16</title>
<g id="a_node16"><a xlink:title=" ">
<polygon fill="white" stroke="#bfbfbf" points="655.5,-134.5 655.5,-153.5 728.5,-153.5 728.5,-134.5 655.5,-134.5"/>
<text text-anchor="middle" x="692" y="-141.5" font-family="Helvetica,sans-Serif" font-size="10.00">string_view</text>
</a>
</g>
</g>
<!-- Node12&#45;&gt;Node16 -->
<g id="edge18" class="edge">
<title>Node12&#45;&gt;Node16</title>
<path fill="none" stroke="midnightblue" d="M766.7,-190.32C752.82,-181.9 731.51,-168.97 715.2,-159.07"/>
<polygon fill="midnightblue" stroke="midnightblue" points="716.63,-155.85 706.26,-153.65 713,-161.83 716.63,-155.85"/>
</g>
<!-- Node17 -->
<g id="node17" class="node">
<title>Node17</title>
<g id="a_node17"><a xlink:href="tchar_8h.html" target="_top" xlink:title=" ">
<polygon fill="white" stroke="black" points="979.5,-134.5 979.5,-153.5 1078.5,-153.5 1078.5,-134.5 979.5,-134.5"/>
<text text-anchor="middle" x="1029" y="-141.5" font-family="Helvetica,sans-Serif" font-size="10.00">log4cplus/tchar.h</text>
</a>
</g>
</g>
<!-- Node12&#45;&gt;Node17 -->
<g id="edge19" class="edge">
<title>Node12&#45;&gt;Node17</title>
<path fill="none" stroke="midnightblue" d="M820.3,-190.44C863.56,-181.02 933.17,-165.87 979.97,-155.68"/>
<polygon fill="midnightblue" stroke="midnightblue" points="980.86,-159.06 989.89,-153.52 979.37,-152.22 980.86,-159.06"/>
</g>
<!-- Node17&#45;&gt;Node2 -->
<g id="edge20" class="edge">
<title>Node17&#45;&gt;Node2</title>
<path fill="none" stroke="midnightblue" d="M979.44,-135.35C976.25,-134.88 973.08,-134.43 970,-134 853.73,-117.79 718.12,-101.15 638.41,-91.59"/>
<polygon fill="midnightblue" stroke="midnightblue" points="638.37,-88.06 628.02,-90.35 637.54,-95.01 638.37,-88.06"/>
</g>
<!-- Node18 -->
<g id="node18" class="node">
<title>Node18</title>
<g id="a_node18"><a xlink:title=" ">
<polygon fill="white" stroke="#bfbfbf" points="1002.5,-73 1002.5,-92 1055.5,-92 1055.5,-73 1002.5,-73"/>
<text text-anchor="middle" x="1029" y="-80" font-family="Helvetica,sans-Serif" font-size="10.00">cstddef</text>
</a>
</g>
</g>
<!-- Node17&#45;&gt;Node18 -->
<g id="edge21" class="edge">
<title>Node17&#45;&gt;Node18</title>
<path fill="none" stroke="midnightblue" d="M1029,-134.48C1029,-126.08 1029,-112.98 1029,-102.16"/>
<polygon fill="midnightblue" stroke="midnightblue" points="1032.5,-102.01 1029,-92.01 1025.5,-102.01 1032.5,-102.01"/>
</g>
<!-- Node19&#45;&gt;Node2 -->
<g id="edge23" class="edge">
<title>Node19&#45;&gt;Node2</title>
<path fill="none" stroke="midnightblue" d="M403.4,-190.4C427.6,-182.81 461.82,-170.41 489,-154 514.28,-138.74 539.28,-115.37 554.68,-99.78"/>
<polygon fill="midnightblue" stroke="midnightblue" points="557.37,-102.03 561.8,-92.41 552.33,-97.17 557.37,-102.03"/>
</g>
<!-- Node19&#45;&gt;Node5 -->
<g id="edge24" class="edge">
<title>Node19&#45;&gt;Node5</title>
<path fill="none" stroke="midnightblue" d="M332.91,-190.44C288.68,-181 217.46,-165.8 169.72,-155.61"/>
<polygon fill="midnightblue" stroke="midnightblue" points="170.41,-152.18 159.9,-153.52 168.95,-159.03 170.41,-152.18"/>
</g>
<!-- Node20 -->
<g id="node20" class="node">
<title>Node20</title>
<g id="a_node20"><a xlink:title=" ">
<polygon fill="white" stroke="#bfbfbf" points="416,-134.5 416,-153.5 480,-153.5 480,-134.5 416,-134.5"/>
<text text-anchor="middle" x="448" y="-141.5" font-family="Helvetica,sans-Serif" font-size="10.00">algorithm</text>
</a>
</g>
</g>
<!-- Node19&#45;&gt;Node20 -->
<g id="edge25" class="edge">
<title>Node19&#45;&gt;Node20</title>
<path fill="none" stroke="midnightblue" d="M385.05,-190.32C396.46,-182.11 413.83,-169.6 427.43,-159.81"/>
<polygon fill="midnightblue" stroke="midnightblue" points="429.66,-162.52 435.73,-153.83 425.57,-156.84 429.66,-162.52"/>
</g>
<!-- Node21 -->
<g id="node21" class="node">
<title>Node21</title>
<g id="a_node21"><a xlink:title=" ">
<polygon fill="white" stroke="#bfbfbf" points="278,-134.5 278,-153.5 330,-153.5 330,-134.5 278,-134.5"/>
<text text-anchor="middle" x="304" y="-141.5" font-family="Helvetica,sans-Serif" font-size="10.00">cassert</text>
</a>
</g>
</g>
<!-- Node19&#45;&gt;Node21 -->
<g id="edge26" class="edge">
<title>Node19&#45;&gt;Node21</title>
<path fill="none" stroke="midnightblue" d="M361.91,-190.32C351.51,-182.18 335.74,-169.84 323.28,-160.09"/>
<polygon fill="midnightblue" stroke="midnightblue" points="325.32,-157.24 315.29,-153.83 321.01,-162.75 325.32,-157.24"/>
</g>
<!-- Node22 -->
<g id="node22" class="node">
<title>Node22</title>
<g id="a_node22"><a xlink:title=" ">
<polygon fill="white" stroke="#bfbfbf" points="348,-134.5 348,-153.5 398,-153.5 398,-134.5 348,-134.5"/>
<text text-anchor="middle" x="373" y="-141.5" font-family="Helvetica,sans-Serif" font-size="10.00">atomic</text>
</a>
</g>
</g>
<!-- Node19&#45;&gt;Node22 -->
<g id="edge27" class="edge">
<title>Node19&#45;&gt;Node22</title>
<path fill="none" stroke="midnightblue" d="M373,-190.08C373,-183.01 373,-172.86 373,-163.99"/>
<polygon fill="midnightblue" stroke="midnightblue" points="376.5,-163.75 373,-153.75 369.5,-163.75 376.5,-163.75"/>
</g>
<!-- Node23&#45;&gt;Node2 -->
<g id="edge29" class="edge">
<title>Node23&#45;&gt;Node2</title>
<path fill="none" stroke="midnightblue" d="M845.52,-302.49C942.8,-281.26 1167.25,-221.35 1088,-134 1058.34,-101.31 772.15,-89.1 638.33,-85.15"/>
<polygon fill="midnightblue" stroke="midnightblue" points="638.29,-81.65 628.19,-84.86 638.09,-88.65 638.29,-81.65"/>
</g>
<!-- Node23&#45;&gt;Node12 -->
<g id="edge32" class="edge">
<title>Node23&#45;&gt;Node12</title>
<path fill="none" stroke="midnightblue" d="M806.52,-302.39C811.17,-289.76 818.09,-265.58 812,-246 808.77,-235.62 802.22,-225.52 795.98,-217.53"/>
<polygon fill="midnightblue" stroke="midnightblue" points="798.58,-215.19 789.48,-209.77 793.21,-219.68 798.58,-215.19"/>
</g>
<!-- Node24 -->
<g id="node24" class="node">
<title>Node24</title>
<g id="a_node24"><a xlink:title=" ">
<polygon fill="white" stroke="#bfbfbf" points="1135,-246.5 1135,-265.5 1177,-265.5 1177,-246.5 1135,-246.5"/>
<text text-anchor="middle" x="1156" y="-253.5" font-family="Helvetica,sans-Serif" font-size="10.00">array</text>
</a>
</g>
</g>
<!-- Node23&#45;&gt;Node24 -->
<g id="edge30" class="edge">
<title>Node23&#45;&gt;Node24</title>
<path fill="none" stroke="midnightblue" d="M876.01,-303.01C940.72,-295.37 1037.6,-282.57 1121,-266 1122.28,-265.75 1123.58,-265.47 1124.9,-265.19"/>
<polygon fill="midnightblue" stroke="midnightblue" points="1126.06,-268.51 1134.99,-262.81 1124.45,-261.7 1126.06,-268.51"/>
</g>
<!-- Node25 -->
<g id="node25" class="node">
<title>Node25</title>
<g id="a_node25"><a xlink:title=" ">
<polygon fill="white" stroke="#bfbfbf" points="747,-246.5 747,-265.5 803,-265.5 803,-246.5 747,-246.5"/>
<text text-anchor="middle" x="775" y="-253.5" font-family="Helvetica,sans-Serif" font-size="10.00">optional</text>
</a>
</g>
</g>
<!-- Node23&#45;&gt;Node25 -->
<g id="edge31" class="edge">
<title>Node23&#45;&gt;Node25</title>
<path fill="none" stroke="midnightblue" d="M798.38,-302.08C794.54,-294.69 788.98,-283.95 784.24,-274.81"/>
<polygon fill="midnightblue" stroke="midnightblue" points="787.25,-273.02 779.54,-265.75 781.03,-276.24 787.25,-273.02"/>
</g>
<!-- Node26 -->
<g id="node26" class="node">
<title>Node26</title>
<g id="a_node26"><a xlink:href="socketbuffer_8h.html" target="_top" xlink:title=" ">
<polygon fill="white" stroke="black" points="555.5,-246.5 555.5,-265.5 728.5,-265.5 728.5,-246.5 555.5,-246.5"/>
<text text-anchor="middle" x="642" y="-253.5" font-family="Helvetica,sans-Serif" font-size="10.00">log4cplus/helpers/socketbuffer.h</text>
</a>
</g>
</g>
<!-- Node23&#45;&gt;Node26 -->
<g id="edge33" class="edge">
<title>Node23&#45;&gt;Node26</title>
<path fill="none" stroke="midnightblue" d="M777.49,-302.44C750.4,-293.36 707.41,-278.94 677.13,-268.78"/>
<polygon fill="midnightblue" stroke="midnightblue" points="677.99,-265.38 667.39,-265.52 675.76,-272.01 677.99,-265.38"/>
</g>
<!-- Node26&#45;&gt;Node2 -->
<g id="edge34" class="edge">
<title>Node26&#45;&gt;Node2</title>
<path fill="none" stroke="midnightblue" d="M638.33,-246.26C627.06,-219.42 592.8,-137.82 577.51,-101.39"/>
<polygon fill="midnightblue" stroke="midnightblue" points="580.67,-99.88 573.58,-92.02 574.22,-102.59 580.67,-99.88"/>
</g>
<!-- Node26&#45;&gt;Node12 -->
<g id="edge35" class="edge">
<title>Node26&#45;&gt;Node12</title>
<path fill="none" stroke="midnightblue" d="M664.02,-246.44C687.1,-237.48 723.56,-223.31 749.64,-213.18"/>
<polygon fill="midnightblue" stroke="midnightblue" points="751.02,-216.4 759.08,-209.52 748.49,-209.88 751.02,-216.4"/>
</g>
</g>
</svg>
