<?xml version="1.0" encoding="UTF-8" standalone="no"?>
<!DOCTYPE svg PUBLIC "-//W3C//DTD SVG 1.1//EN"
 "http://www.w3.org/Graphics/SVG/1.1/DTD/svg11.dtd">
<!-- Generated by graphviz version 2.43.0 (0)
 -->
<!-- Title: connectorthread.h Pages: 1 -->
<svg width="230pt" height="140pt"
 viewBox="0.00 0.00 230.00 140.00" xmlns="http://www.w3.org/2000/svg" xmlns:xlink="http://www.w3.org/1999/xlink">
<g id="graph0" class="graph" transform="scale(1 1) rotate(0) translate(4 136)">
<title>connectorthread.h</title>
<polygon fill="white" stroke="transparent" points="-4,4 -4,-136 226,-136 226,4 -4,4"/>
<!-- Node1 -->
<g id="node1" class="node">
<title>Node1</title>
<g id="a_node1"><a xlink:title=" ">
<polygon fill="#bfbfbf" stroke="black" points="58.5,-112.5 58.5,-131.5 163.5,-131.5 163.5,-112.5 58.5,-112.5"/>
<text text-anchor="middle" x="111" y="-119.5" font-family="Helvetica,sans-Serif" font-size="10.00">connectorthread.h</text>
</a>
</g>
</g>
<!-- Node2 -->
<g id="node2" class="node">
<title>Node2</title>
<g id="a_node2"><a xlink:href="socketappender_8h.html" target="_top" xlink:title=" ">
<polygon fill="white" stroke="black" points="0,-56.5 0,-75.5 102,-75.5 102,-56.5 0,-56.5"/>
<text text-anchor="middle" x="51" y="-63.5" font-family="Helvetica,sans-Serif" font-size="10.00">socketappender.h</text>
</a>
</g>
</g>
<!-- Node1&#45;&gt;Node2 -->
<g id="edge1" class="edge">
<title>Node1&#45;&gt;Node2</title>
<path fill="none" stroke="midnightblue" d="M93.82,-105.54C83.12,-95.91 69.74,-83.87 60.82,-75.83"/>
<polygon fill="midnightblue" stroke="midnightblue" points="91.59,-108.24 101.36,-112.32 96.27,-103.03 91.59,-108.24"/>
</g>
<!-- Node4 -->
<g id="node4" class="node">
<title>Node4</title>
<g id="a_node4"><a xlink:href="syslogappender_8h.html" target="_top" xlink:title=" ">
<polygon fill="white" stroke="black" points="120,-56.5 120,-75.5 222,-75.5 222,-56.5 120,-56.5"/>
<text text-anchor="middle" x="171" y="-63.5" font-family="Helvetica,sans-Serif" font-size="10.00">syslogappender.h</text>
</a>
</g>
</g>
<!-- Node1&#45;&gt;Node4 -->
<g id="edge3" class="edge">
<title>Node1&#45;&gt;Node4</title>
<path fill="none" stroke="midnightblue" d="M128.18,-105.54C138.88,-95.91 152.26,-83.87 161.18,-75.83"/>
<polygon fill="midnightblue" stroke="midnightblue" points="125.73,-103.03 120.64,-112.32 130.41,-108.24 125.73,-103.03"/>
</g>
<!-- Node3 -->
<g id="node3" class="node">
<title>Node3</title>
<g id="a_node3"><a xlink:href="log4cplus_8h.html" target="_top" xlink:title=" ">
<polygon fill="white" stroke="black" points="75,-0.5 75,-19.5 147,-19.5 147,-0.5 75,-0.5"/>
<text text-anchor="middle" x="111" y="-7.5" font-family="Helvetica,sans-Serif" font-size="10.00">log4cplus.h</text>
</a>
</g>
</g>
<!-- Node2&#45;&gt;Node3 -->
<g id="edge2" class="edge">
<title>Node2&#45;&gt;Node3</title>
<path fill="none" stroke="midnightblue" d="M68.18,-49.54C78.88,-39.91 92.26,-27.87 101.18,-19.83"/>
<polygon fill="midnightblue" stroke="midnightblue" points="65.73,-47.03 60.64,-56.32 70.41,-52.24 65.73,-47.03"/>
</g>
<!-- Node4&#45;&gt;Node3 -->
<g id="edge4" class="edge">
<title>Node4&#45;&gt;Node3</title>
<path fill="none" stroke="midnightblue" d="M153.82,-49.54C143.12,-39.91 129.74,-27.87 120.82,-19.83"/>
<polygon fill="midnightblue" stroke="midnightblue" points="151.59,-52.24 161.36,-56.32 156.27,-47.03 151.59,-52.24"/>
</g>
</g>
</svg>
