<?xml version="1.0" encoding="UTF-8" standalone="no"?>
<!DOCTYPE svg PUBLIC "-//W3C//DTD SVG 1.1//EN"
 "http://www.w3.org/Graphics/SVG/1.1/DTD/svg11.dtd">
<!-- Generated by graphviz version 2.43.0 (0)
 -->
<!-- Title: customloglevelmanager.h Pages: 1 -->
<svg width="2062pt" height="464pt"
 viewBox="0.00 0.00 2062.06 464.00" xmlns="http://www.w3.org/2000/svg" xmlns:xlink="http://www.w3.org/1999/xlink">
<g id="graph0" class="graph" transform="scale(1 1) rotate(0) translate(4 460)">
<title>customloglevelmanager.h</title>
<polygon fill="white" stroke="transparent" points="-4,4 -4,-460 2058.06,-460 2058.06,4 -4,4"/>
<!-- Node1 -->
<g id="node1" class="node">
<title>Node1</title>
<g id="a_node1"><a xlink:title="This header contains declaration internal to log4cplus.">
<polygon fill="#bfbfbf" stroke="black" points="1348,-436.5 1348,-455.5 1491,-455.5 1491,-436.5 1348,-436.5"/>
<text text-anchor="middle" x="1419.5" y="-443.5" font-family="Helvetica,sans-Serif" font-size="10.00">customloglevelmanager.h</text>
</a>
</g>
</g>
<!-- Node2 -->
<g id="node2" class="node">
<title>Node2</title>
<g id="a_node2"><a xlink:href="config_8hxx.html" target="_top" xlink:title=" ">
<polygon fill="white" stroke="black" points="1014.5,-73 1014.5,-92 1130.5,-92 1130.5,-73 1014.5,-73"/>
<text text-anchor="middle" x="1072.5" y="-80" font-family="Helvetica,sans-Serif" font-size="10.00">log4cplus/config.hxx</text>
</a>
</g>
</g>
<!-- Node1&#45;&gt;Node2 -->
<g id="edge1" class="edge">
<title>Node1&#45;&gt;Node2</title>
<path fill="none" stroke="midnightblue" d="M1491.19,-438.75C1656.92,-423.33 2052.5,-380.61 2052.5,-324 2052.5,-324 2052.5,-324 2052.5,-204.5 2052.5,-172.05 2058.73,-154.41 2033.5,-134 1998.85,-105.98 1354.31,-89.59 1140.66,-84.9"/>
<polygon fill="midnightblue" stroke="midnightblue" points="1140.58,-81.4 1130.51,-84.68 1140.43,-88.4 1140.58,-81.4"/>
</g>
<!-- Node5 -->
<g id="node5" class="node">
<title>Node5</title>
<g id="a_node5"><a xlink:title=" ">
<polygon fill="white" stroke="#bfbfbf" points="420.5,-196 420.5,-215 458.5,-215 458.5,-196 420.5,-196"/>
<text text-anchor="middle" x="439.5" y="-203" font-family="Helvetica,sans-Serif" font-size="10.00">map</text>
</a>
</g>
</g>
<!-- Node1&#45;&gt;Node5 -->
<g id="edge4" class="edge">
<title>Node1&#45;&gt;Node5</title>
<path fill="none" stroke="midnightblue" d="M1347.93,-439.79C1214.1,-428.84 917.66,-398.78 676.5,-333 612.24,-315.47 595.84,-309.12 537.5,-277 507.89,-260.69 476.69,-236.95 457.65,-221.61"/>
<polygon fill="midnightblue" stroke="midnightblue" points="459.77,-218.83 449.81,-215.21 455.35,-224.25 459.77,-218.83"/>
</g>
<!-- Node6 -->
<g id="node6" class="node">
<title>Node6</title>
<g id="a_node6"><a xlink:href="syncprims_8h.html" target="_top" xlink:title=" ">
<polygon fill="white" stroke="black" points="110.5,-134.5 110.5,-153.5 270.5,-153.5 270.5,-134.5 110.5,-134.5"/>
<text text-anchor="middle" x="190.5" y="-141.5" font-family="Helvetica,sans-Serif" font-size="10.00">log4cplus/thread/syncprims.h</text>
</a>
</g>
</g>
<!-- Node1&#45;&gt;Node6 -->
<g id="edge5" class="edge">
<title>Node1&#45;&gt;Node6</title>
<path fill="none" stroke="midnightblue" d="M1347.94,-445.3C1090.35,-445.45 225.5,-437.49 225.5,-324 225.5,-324 225.5,-324 225.5,-266 225.5,-228.07 209.44,-186 199.07,-162.8"/>
<polygon fill="midnightblue" stroke="midnightblue" points="202.17,-161.16 194.79,-153.56 195.82,-164.1 202.17,-161.16"/>
</g>
<!-- Node10 -->
<g id="node10" class="node">
<title>Node10</title>
<g id="a_node10"><a xlink:href="internal_8h.html" target="_top" xlink:title="This header contains declaration internal to log4cplus.">
<polygon fill="white" stroke="black" points="1367.5,-369.5 1367.5,-399.5 1471.5,-399.5 1471.5,-369.5 1367.5,-369.5"/>
<text text-anchor="start" x="1375.5" y="-387.5" font-family="Helvetica,sans-Serif" font-size="10.00">log4cplus/internal</text>
<text text-anchor="middle" x="1419.5" y="-376.5" font-family="Helvetica,sans-Serif" font-size="10.00">/internal.h</text>
</a>
</g>
</g>
<!-- Node1&#45;&gt;Node10 -->
<g id="edge10" class="edge">
<title>Node1&#45;&gt;Node10</title>
<path fill="none" stroke="midnightblue" d="M1419.5,-436.48C1419.5,-429.47 1419.5,-419.19 1419.5,-409.7"/>
<polygon fill="midnightblue" stroke="midnightblue" points="1423,-409.52 1419.5,-399.52 1416,-409.52 1423,-409.52"/>
</g>
<!-- Node31 -->
<g id="node31" class="node">
<title>Node31</title>
<g id="a_node31"><a xlink:title=" ">
<polygon fill="white" stroke="#bfbfbf" points="1586.5,-196 1586.5,-215 1672.5,-215 1672.5,-196 1586.5,-196"/>
<text text-anchor="middle" x="1629.5" y="-203" font-family="Helvetica,sans-Serif" font-size="10.00">shared_mutex</text>
</a>
</g>
</g>
<!-- Node1&#45;&gt;Node31 -->
<g id="edge81" class="edge">
<title>Node1&#45;&gt;Node31</title>
<path fill="none" stroke="midnightblue" d="M1457.26,-436.46C1505.5,-423.33 1587.2,-393.14 1624.5,-333 1645.19,-299.65 1639.45,-251.27 1634.08,-225.06"/>
<polygon fill="midnightblue" stroke="midnightblue" points="1637.43,-223.99 1631.81,-215 1630.6,-225.53 1637.43,-223.99"/>
</g>
<!-- Node3 -->
<g id="node3" class="node">
<title>Node3</title>
<g id="a_node3"><a xlink:href="win32_8h.html" target="_top" xlink:title=" ">
<polygon fill="white" stroke="black" points="926,-6 926,-25 1063,-25 1063,-6 926,-6"/>
<text text-anchor="middle" x="994.5" y="-13" font-family="Helvetica,sans-Serif" font-size="10.00">log4cplus/config/win32.h</text>
</a>
</g>
</g>
<!-- Node2&#45;&gt;Node3 -->
<g id="edge2" class="edge">
<title>Node2&#45;&gt;Node3</title>
<path fill="none" stroke="midnightblue" d="M1061.98,-72.73C1049.35,-62.21 1027.96,-44.38 1012.64,-31.62"/>
<polygon fill="midnightblue" stroke="midnightblue" points="1014.78,-28.84 1004.85,-25.13 1010.29,-34.22 1014.78,-28.84"/>
</g>
<!-- Node4 -->
<g id="node4" class="node">
<title>Node4</title>
<g id="a_node4"><a xlink:href="thread-config_8h.html" target="_top" xlink:title=" ">
<polygon fill="white" stroke="black" points="1081,-0.5 1081,-30.5 1218,-30.5 1218,-0.5 1081,-0.5"/>
<text text-anchor="start" x="1089" y="-18.5" font-family="Helvetica,sans-Serif" font-size="10.00">log4cplus/helpers/thread</text>
<text text-anchor="middle" x="1149.5" y="-7.5" font-family="Helvetica,sans-Serif" font-size="10.00">&#45;config.h</text>
</a>
</g>
</g>
<!-- Node2&#45;&gt;Node4 -->
<g id="edge3" class="edge">
<title>Node2&#45;&gt;Node4</title>
<path fill="none" stroke="midnightblue" d="M1082.88,-72.73C1093.59,-63.7 1110.68,-49.27 1124.86,-37.3"/>
<polygon fill="midnightblue" stroke="midnightblue" points="1127.43,-39.71 1132.81,-30.59 1122.91,-34.37 1127.43,-39.71"/>
</g>
<!-- Node6&#45;&gt;Node2 -->
<g id="edge6" class="edge">
<title>Node6&#45;&gt;Node2</title>
<path fill="none" stroke="midnightblue" d="M270.74,-135.15C275.39,-134.74 280.01,-134.36 284.5,-134 550.2,-112.77 866.86,-94.66 1003.8,-87.17"/>
<polygon fill="midnightblue" stroke="midnightblue" points="1004.34,-90.65 1014.13,-86.61 1003.95,-83.66 1004.34,-90.65"/>
</g>
<!-- Node7 -->
<g id="node7" class="node">
<title>Node7</title>
<g id="a_node7"><a xlink:title=" ">
<polygon fill="white" stroke="#bfbfbf" points="274.5,-73 274.5,-92 322.5,-92 322.5,-73 274.5,-73"/>
<text text-anchor="middle" x="298.5" y="-80" font-family="Helvetica,sans-Serif" font-size="10.00">mutex</text>
</a>
</g>
</g>
<!-- Node6&#45;&gt;Node7 -->
<g id="edge7" class="edge">
<title>Node6&#45;&gt;Node7</title>
<path fill="none" stroke="midnightblue" d="M205.97,-134.48C223.78,-124.67 253.24,-108.43 274.13,-96.92"/>
<polygon fill="midnightblue" stroke="midnightblue" points="275.99,-99.9 283.05,-92.01 272.61,-93.77 275.99,-99.9"/>
</g>
<!-- Node8 -->
<g id="node8" class="node">
<title>Node8</title>
<g id="a_node8"><a xlink:title=" ">
<polygon fill="white" stroke="#bfbfbf" points="0,-73 0,-92 107,-92 107,-73 0,-73"/>
<text text-anchor="middle" x="53.5" y="-80" font-family="Helvetica,sans-Serif" font-size="10.00">condition_variable</text>
</a>
</g>
</g>
<!-- Node6&#45;&gt;Node8 -->
<g id="edge8" class="edge">
<title>Node6&#45;&gt;Node8</title>
<path fill="none" stroke="midnightblue" d="M170.87,-134.48C147.68,-124.4 108.88,-107.55 82.29,-96"/>
<polygon fill="midnightblue" stroke="midnightblue" points="83.66,-92.78 73.09,-92.01 80.87,-99.2 83.66,-92.78"/>
</g>
<!-- Node9 -->
<g id="node9" class="node">
<title>Node9</title>
<g id="a_node9"><a xlink:href="threadsafetyanalysis_8h.html" target="_top" xlink:title=" ">
<polygon fill="white" stroke="black" points="125,-67.5 125,-97.5 256,-97.5 256,-67.5 125,-67.5"/>
<text text-anchor="start" x="133" y="-85.5" font-family="Helvetica,sans-Serif" font-size="10.00">log4cplus/internal</text>
<text text-anchor="middle" x="190.5" y="-74.5" font-family="Helvetica,sans-Serif" font-size="10.00">/threadsafetyanalysis.h</text>
</a>
</g>
</g>
<!-- Node6&#45;&gt;Node9 -->
<g id="edge9" class="edge">
<title>Node6&#45;&gt;Node9</title>
<path fill="none" stroke="midnightblue" d="M190.5,-134.48C190.5,-127.47 190.5,-117.19 190.5,-107.7"/>
<polygon fill="midnightblue" stroke="midnightblue" points="194,-107.52 190.5,-97.52 187,-107.52 194,-107.52"/>
</g>
<!-- Node10&#45;&gt;Node2 -->
<g id="edge11" class="edge">
<title>Node10&#45;&gt;Node2</title>
<path fill="none" stroke="midnightblue" d="M1367.22,-383.89C1245.21,-383.95 932.57,-379.15 676.5,-333 504.48,-302 404.03,-361.1 299.5,-221 213.08,-105.17 800.17,-86.89 1004.32,-84.02"/>
<polygon fill="midnightblue" stroke="midnightblue" points="1004.37,-87.52 1014.32,-83.89 1004.28,-80.52 1004.37,-87.52"/>
</g>
<!-- Node11 -->
<g id="node11" class="node">
<title>Node11</title>
<g id="a_node11"><a xlink:title=" ">
<polygon fill="white" stroke="#bfbfbf" points="1370.5,-196 1370.5,-215 1428.5,-215 1428.5,-196 1370.5,-196"/>
<text text-anchor="middle" x="1399.5" y="-203" font-family="Helvetica,sans-Serif" font-size="10.00">memory</text>
</a>
</g>
</g>
<!-- Node10&#45;&gt;Node11 -->
<g id="edge12" class="edge">
<title>Node10&#45;&gt;Node11</title>
<path fill="none" stroke="midnightblue" d="M1416.64,-369.4C1414.67,-359.3 1412.14,-345.36 1410.5,-333 1405.46,-294.89 1402.18,-250 1400.6,-225.25"/>
<polygon fill="midnightblue" stroke="midnightblue" points="1404.09,-224.89 1399.98,-215.12 1397.1,-225.31 1404.09,-224.89"/>
</g>
<!-- Node12 -->
<g id="node12" class="node">
<title>Node12</title>
<g id="a_node12"><a xlink:title=" ">
<polygon fill="white" stroke="#bfbfbf" points="1691,-196 1691,-215 1738,-215 1738,-196 1691,-196"/>
<text text-anchor="middle" x="1714.5" y="-203" font-family="Helvetica,sans-Serif" font-size="10.00">vector</text>
</a>
</g>
</g>
<!-- Node10&#45;&gt;Node12 -->
<g id="edge13" class="edge">
<title>Node10&#45;&gt;Node12</title>
<path fill="none" stroke="midnightblue" d="M1443.14,-369.31C1498.59,-336.05 1636.44,-253.33 1691.37,-220.38"/>
<polygon fill="midnightblue" stroke="midnightblue" points="1693.27,-223.32 1700.04,-215.17 1689.67,-217.32 1693.27,-223.32"/>
</g>
<!-- Node13 -->
<g id="node13" class="node">
<title>Node13</title>
<g id="a_node13"><a xlink:title=" ">
<polygon fill="white" stroke="#bfbfbf" points="1419.5,-313.5 1419.5,-332.5 1475.5,-332.5 1475.5,-313.5 1419.5,-313.5"/>
<text text-anchor="middle" x="1447.5" y="-320.5" font-family="Helvetica,sans-Serif" font-size="10.00">sstream</text>
</a>
</g>
</g>
<!-- Node10&#45;&gt;Node13 -->
<g id="edge14" class="edge">
<title>Node10&#45;&gt;Node13</title>
<path fill="none" stroke="midnightblue" d="M1426.14,-369.4C1430.04,-361.11 1435,-350.55 1439.17,-341.71"/>
<polygon fill="midnightblue" stroke="midnightblue" points="1442.33,-343.2 1443.43,-332.66 1436,-340.22 1442.33,-343.2"/>
</g>
<!-- Node14 -->
<g id="node14" class="node">
<title>Node14</title>
<g id="a_node14"><a xlink:title=" ">
<polygon fill="white" stroke="#bfbfbf" points="1569.5,-313.5 1569.5,-332.5 1615.5,-332.5 1615.5,-313.5 1569.5,-313.5"/>
<text text-anchor="middle" x="1592.5" y="-320.5" font-family="Helvetica,sans-Serif" font-size="10.00">cstdio</text>
</a>
</g>
</g>
<!-- Node10&#45;&gt;Node14 -->
<g id="edge15" class="edge">
<title>Node10&#45;&gt;Node14</title>
<path fill="none" stroke="midnightblue" d="M1460.5,-369.4C1490.76,-358.99 1531.4,-345.02 1559.55,-335.33"/>
<polygon fill="midnightblue" stroke="midnightblue" points="1561,-338.53 1569.32,-331.97 1558.73,-331.91 1561,-338.53"/>
</g>
<!-- Node15 -->
<g id="node15" class="node">
<title>Node15</title>
<g id="a_node15"><a xlink:href="tstring_8h.html" target="_top" xlink:title=" ">
<polygon fill="white" stroke="black" points="731,-196 731,-215 838,-215 838,-196 731,-196"/>
<text text-anchor="middle" x="784.5" y="-203" font-family="Helvetica,sans-Serif" font-size="10.00">log4cplus/tstring.h</text>
</a>
</g>
</g>
<!-- Node10&#45;&gt;Node15 -->
<g id="edge16" class="edge">
<title>Node10&#45;&gt;Node15</title>
<path fill="none" stroke="midnightblue" d="M1367.13,-382.67C1249.36,-380.14 967.17,-370.27 880.5,-333 845.78,-318.07 839.04,-307.34 816.5,-277 804.63,-261.03 795.79,-239.95 790.44,-225.01"/>
<polygon fill="midnightblue" stroke="midnightblue" points="793.7,-223.73 787.17,-215.38 787.07,-225.98 793.7,-223.73"/>
</g>
<!-- Node22 -->
<g id="node22" class="node">
<title>Node22</title>
<g id="a_node22"><a xlink:href="streams_8h.html" target="_top" xlink:title=" ">
<polygon fill="white" stroke="black" points="1904,-196 1904,-215 2019,-215 2019,-196 1904,-196"/>
<text text-anchor="middle" x="1961.5" y="-203" font-family="Helvetica,sans-Serif" font-size="10.00">log4cplus/streams.h</text>
</a>
</g>
</g>
<!-- Node10&#45;&gt;Node22 -->
<g id="edge25" class="edge">
<title>Node10&#45;&gt;Node22</title>
<path fill="none" stroke="midnightblue" d="M1471.83,-378.97C1558.7,-369.79 1736.39,-343.83 1870.5,-277 1899.4,-262.6 1928.07,-238.3 1945.28,-222.32"/>
<polygon fill="midnightblue" stroke="midnightblue" points="1947.92,-224.65 1952.77,-215.23 1943.1,-219.57 1947.92,-224.65"/>
</g>
<!-- Node24 -->
<g id="node24" class="node">
<title>Node24</title>
<g id="a_node24"><a xlink:href="ndc_8h.html" target="_top" xlink:title="This header defined the NDC class.">
<polygon fill="white" stroke="black" points="660.5,-257.5 660.5,-276.5 752.5,-276.5 752.5,-257.5 660.5,-257.5"/>
<text text-anchor="middle" x="706.5" y="-264.5" font-family="Helvetica,sans-Serif" font-size="10.00">log4cplus/ndc.h</text>
</a>
</g>
</g>
<!-- Node10&#45;&gt;Node24 -->
<g id="edge29" class="edge">
<title>Node10&#45;&gt;Node24</title>
<path fill="none" stroke="midnightblue" d="M1367.48,-381.66C1222.33,-376.21 820.03,-358.94 766.5,-333 744.98,-322.57 727.45,-300.79 717.01,-285.32"/>
<polygon fill="midnightblue" stroke="midnightblue" points="719.8,-283.18 711.45,-276.66 713.91,-286.96 719.8,-283.18"/>
</g>
<!-- Node26 -->
<g id="node26" class="node">
<title>Node26</title>
<g id="a_node26"><a xlink:href="mdc_8h.html" target="_top" xlink:title=" ">
<polygon fill="white" stroke="black" points="546.5,-257.5 546.5,-276.5 642.5,-276.5 642.5,-257.5 546.5,-257.5"/>
<text text-anchor="middle" x="594.5" y="-264.5" font-family="Helvetica,sans-Serif" font-size="10.00">log4cplus/mdc.h</text>
</a>
</g>
</g>
<!-- Node10&#45;&gt;Node26 -->
<g id="edge34" class="edge">
<title>Node10&#45;&gt;Node26</title>
<path fill="none" stroke="midnightblue" d="M1367.11,-382.02C1228.69,-377.74 855.69,-363.63 736.5,-333 692.34,-321.65 644.92,-297.16 617.58,-281.7"/>
<polygon fill="midnightblue" stroke="midnightblue" points="619.2,-278.59 608.78,-276.64 615.71,-284.66 619.2,-278.59"/>
</g>
<!-- Node29 -->
<g id="node29" class="node">
<title>Node29</title>
<g id="a_node29"><a xlink:href="loggingevent_8h.html" target="_top" xlink:title=" ">
<polygon fill="white" stroke="black" points="889.5,-313.5 889.5,-332.5 1045.5,-332.5 1045.5,-313.5 889.5,-313.5"/>
<text text-anchor="middle" x="967.5" y="-320.5" font-family="Helvetica,sans-Serif" font-size="10.00">log4cplus/spi/loggingevent.h</text>
</a>
</g>
</g>
<!-- Node10&#45;&gt;Node29 -->
<g id="edge42" class="edge">
<title>Node10&#45;&gt;Node29</title>
<path fill="none" stroke="midnightblue" d="M1367.21,-376.62C1287.24,-366.09 1134.22,-345.95 1042.46,-333.87"/>
<polygon fill="midnightblue" stroke="midnightblue" points="1042.78,-330.38 1032.41,-332.54 1041.87,-337.32 1042.78,-330.38"/>
</g>
<!-- Node41 -->
<g id="node41" class="node">
<title>Node41</title>
<g id="a_node41"><a xlink:href="tls_8h.html" target="_top" xlink:title=" ">
<polygon fill="white" stroke="black" points="1446.5,-190.5 1446.5,-220.5 1568.5,-220.5 1568.5,-190.5 1446.5,-190.5"/>
<text text-anchor="start" x="1454.5" y="-208.5" font-family="Helvetica,sans-Serif" font-size="10.00">log4cplus/thread/impl</text>
<text text-anchor="middle" x="1507.5" y="-197.5" font-family="Helvetica,sans-Serif" font-size="10.00">/tls.h</text>
</a>
</g>
</g>
<!-- Node10&#45;&gt;Node41 -->
<g id="edge71" class="edge">
<title>Node10&#45;&gt;Node41</title>
<path fill="none" stroke="midnightblue" d="M1445.87,-369.36C1459.52,-360.67 1475.24,-348.27 1484.5,-333 1503.72,-301.29 1507.68,-257.47 1508.1,-230.61"/>
<polygon fill="midnightblue" stroke="midnightblue" points="1511.6,-230.55 1508.09,-220.55 1504.6,-230.55 1511.6,-230.55"/>
</g>
<!-- Node44 -->
<g id="node44" class="node">
<title>Node44</title>
<g id="a_node44"><a xlink:href="snprintf_8h.html" target="_top" xlink:title=" ">
<polygon fill="white" stroke="black" points="1710,-257.5 1710,-276.5 1861,-276.5 1861,-257.5 1710,-257.5"/>
<text text-anchor="middle" x="1785.5" y="-264.5" font-family="Helvetica,sans-Serif" font-size="10.00">log4cplus/helpers/snprintf.h</text>
</a>
</g>
</g>
<!-- Node10&#45;&gt;Node44 -->
<g id="edge76" class="edge">
<title>Node10&#45;&gt;Node44</title>
<path fill="none" stroke="midnightblue" d="M1471.89,-372.75C1513.65,-363.67 1573.4,-349.52 1624.5,-333 1672.07,-317.62 1725.57,-294.89 1757.36,-280.79"/>
<polygon fill="midnightblue" stroke="midnightblue" points="1758.79,-283.98 1766.5,-276.7 1755.94,-277.59 1758.79,-283.98"/>
</g>
<!-- Node15&#45;&gt;Node2 -->
<g id="edge17" class="edge">
<title>Node15&#45;&gt;Node2</title>
<path fill="none" stroke="midnightblue" d="M815.74,-195.93C847.25,-186.89 897.05,-171.56 938.5,-154 978.6,-137.02 1022.91,-112.49 1049.2,-97.3"/>
<polygon fill="midnightblue" stroke="midnightblue" points="1051.14,-100.21 1058.02,-92.15 1047.62,-94.17 1051.14,-100.21"/>
</g>
<!-- Node16 -->
<g id="node16" class="node">
<title>Node16</title>
<g id="a_node16"><a xlink:title=" ">
<polygon fill="white" stroke="#bfbfbf" points="770,-134.5 770,-153.5 839,-153.5 839,-134.5 770,-134.5"/>
<text text-anchor="middle" x="804.5" y="-141.5" font-family="Helvetica,sans-Serif" font-size="10.00">type_traits</text>
</a>
</g>
</g>
<!-- Node15&#45;&gt;Node16 -->
<g id="edge18" class="edge">
<title>Node15&#45;&gt;Node16</title>
<path fill="none" stroke="midnightblue" d="M787.37,-195.98C790.22,-187.49 794.68,-174.2 798.34,-163.32"/>
<polygon fill="midnightblue" stroke="midnightblue" points="801.77,-164.1 801.64,-153.51 795.14,-161.87 801.77,-164.1"/>
</g>
<!-- Node17 -->
<g id="node17" class="node">
<title>Node17</title>
<g id="a_node17"><a xlink:title=" ">
<polygon fill="white" stroke="#bfbfbf" points="586,-134.5 586,-153.5 651,-153.5 651,-134.5 586,-134.5"/>
<text text-anchor="middle" x="618.5" y="-141.5" font-family="Helvetica,sans-Serif" font-size="10.00">functional</text>
</a>
</g>
</g>
<!-- Node15&#45;&gt;Node17 -->
<g id="edge19" class="edge">
<title>Node15&#45;&gt;Node17</title>
<path fill="none" stroke="midnightblue" d="M760.72,-195.98C732.12,-185.72 683.95,-168.46 651.7,-156.9"/>
<polygon fill="midnightblue" stroke="midnightblue" points="652.83,-153.59 642.24,-153.51 650.47,-160.18 652.83,-153.59"/>
</g>
<!-- Node18 -->
<g id="node18" class="node">
<title>Node18</title>
<g id="a_node18"><a xlink:title=" ">
<polygon fill="white" stroke="#bfbfbf" points="707.5,-134.5 707.5,-153.5 751.5,-153.5 751.5,-134.5 707.5,-134.5"/>
<text text-anchor="middle" x="729.5" y="-141.5" font-family="Helvetica,sans-Serif" font-size="10.00">string</text>
</a>
</g>
</g>
<!-- Node15&#45;&gt;Node18 -->
<g id="edge20" class="edge">
<title>Node15&#45;&gt;Node18</title>
<path fill="none" stroke="midnightblue" d="M776.62,-195.98C768.21,-186.87 754.68,-172.24 744.27,-160.98"/>
<polygon fill="midnightblue" stroke="midnightblue" points="746.72,-158.48 737.37,-153.51 741.58,-163.23 746.72,-158.48"/>
</g>
<!-- Node19 -->
<g id="node19" class="node">
<title>Node19</title>
<g id="a_node19"><a xlink:title=" ">
<polygon fill="white" stroke="#bfbfbf" points="857,-134.5 857,-153.5 930,-153.5 930,-134.5 857,-134.5"/>
<text text-anchor="middle" x="893.5" y="-141.5" font-family="Helvetica,sans-Serif" font-size="10.00">string_view</text>
</a>
</g>
</g>
<!-- Node15&#45;&gt;Node19 -->
<g id="edge21" class="edge">
<title>Node15&#45;&gt;Node19</title>
<path fill="none" stroke="midnightblue" d="M800.12,-195.98C818.09,-186.17 847.82,-169.93 868.91,-158.42"/>
<polygon fill="midnightblue" stroke="midnightblue" points="870.81,-161.37 877.91,-153.51 867.46,-155.23 870.81,-161.37"/>
</g>
<!-- Node20 -->
<g id="node20" class="node">
<title>Node20</title>
<g id="a_node20"><a xlink:href="tchar_8h.html" target="_top" xlink:title=" ">
<polygon fill="white" stroke="black" points="1821,-134.5 1821,-153.5 1920,-153.5 1920,-134.5 1821,-134.5"/>
<text text-anchor="middle" x="1870.5" y="-141.5" font-family="Helvetica,sans-Serif" font-size="10.00">log4cplus/tchar.h</text>
</a>
</g>
</g>
<!-- Node15&#45;&gt;Node20 -->
<g id="edge22" class="edge">
<title>Node15&#45;&gt;Node20</title>
<path fill="none" stroke="midnightblue" d="M838.23,-198.18C864,-195.33 895.31,-192.14 923.5,-190 1258.28,-164.6 1660.79,-151.11 1810.55,-146.67"/>
<polygon fill="midnightblue" stroke="midnightblue" points="1811,-150.16 1820.89,-146.37 1810.8,-143.16 1811,-150.16"/>
</g>
<!-- Node20&#45;&gt;Node2 -->
<g id="edge23" class="edge">
<title>Node20&#45;&gt;Node2</title>
<path fill="none" stroke="midnightblue" d="M1820.93,-135.67C1816.06,-135.06 1811.19,-134.49 1806.5,-134 1562.21,-108.45 1270.78,-92.79 1140.86,-86.58"/>
<polygon fill="midnightblue" stroke="midnightblue" points="1140.82,-83.07 1130.66,-86.1 1140.49,-90.07 1140.82,-83.07"/>
</g>
<!-- Node21 -->
<g id="node21" class="node">
<title>Node21</title>
<g id="a_node21"><a xlink:title=" ">
<polygon fill="white" stroke="#bfbfbf" points="1844,-73 1844,-92 1897,-92 1897,-73 1844,-73"/>
<text text-anchor="middle" x="1870.5" y="-80" font-family="Helvetica,sans-Serif" font-size="10.00">cstddef</text>
</a>
</g>
</g>
<!-- Node20&#45;&gt;Node21 -->
<g id="edge24" class="edge">
<title>Node20&#45;&gt;Node21</title>
<path fill="none" stroke="midnightblue" d="M1870.5,-134.48C1870.5,-126.08 1870.5,-112.98 1870.5,-102.16"/>
<polygon fill="midnightblue" stroke="midnightblue" points="1874,-102.01 1870.5,-92.01 1867,-102.01 1874,-102.01"/>
</g>
<!-- Node22&#45;&gt;Node2 -->
<g id="edge26" class="edge">
<title>Node22&#45;&gt;Node2</title>
<path fill="none" stroke="midnightblue" d="M1960.41,-195.74C1957.98,-180.29 1950.55,-148.46 1929.5,-134 1865.18,-89.83 1332.7,-84.13 1140.97,-83.52"/>
<polygon fill="midnightblue" stroke="midnightblue" points="1140.74,-80.02 1130.73,-83.49 1140.72,-87.02 1140.74,-80.02"/>
</g>
<!-- Node22&#45;&gt;Node20 -->
<g id="edge27" class="edge">
<title>Node22&#45;&gt;Node20</title>
<path fill="none" stroke="midnightblue" d="M1948.46,-195.98C1933.73,-186.34 1909.53,-170.52 1891.99,-159.05"/>
<polygon fill="midnightblue" stroke="midnightblue" points="1893.8,-156.05 1883.51,-153.51 1889.97,-161.91 1893.8,-156.05"/>
</g>
<!-- Node23 -->
<g id="node23" class="node">
<title>Node23</title>
<g id="a_node23"><a xlink:title=" ">
<polygon fill="white" stroke="#bfbfbf" points="1976.5,-134.5 1976.5,-153.5 2024.5,-153.5 2024.5,-134.5 1976.5,-134.5"/>
<text text-anchor="middle" x="2000.5" y="-141.5" font-family="Helvetica,sans-Serif" font-size="10.00">iosfwd</text>
</a>
</g>
</g>
<!-- Node22&#45;&gt;Node23 -->
<g id="edge28" class="edge">
<title>Node22&#45;&gt;Node23</title>
<path fill="none" stroke="midnightblue" d="M1967.09,-195.98C1972.88,-187.14 1982.09,-173.09 1989.37,-161.98"/>
<polygon fill="midnightblue" stroke="midnightblue" points="1992.37,-163.79 1994.92,-153.51 1986.51,-159.95 1992.37,-163.79"/>
</g>
<!-- Node24&#45;&gt;Node2 -->
<g id="edge30" class="edge">
<title>Node24&#45;&gt;Node2</title>
<path fill="none" stroke="midnightblue" d="M702.3,-257.28C691.76,-234 667.22,-169.78 698.5,-134 718.28,-111.38 901.76,-95.24 1004.18,-87.92"/>
<polygon fill="midnightblue" stroke="midnightblue" points="1004.7,-91.39 1014.43,-87.19 1004.21,-84.41 1004.7,-91.39"/>
</g>
<!-- Node24&#45;&gt;Node5 -->
<g id="edge32" class="edge">
<title>Node24&#45;&gt;Node5</title>
<path fill="none" stroke="midnightblue" d="M660.3,-258.05C596.02,-246.87 485.44,-227.18 467.5,-221 466.08,-220.51 464.64,-219.96 463.2,-219.36"/>
<polygon fill="midnightblue" stroke="midnightblue" points="464.5,-216.11 453.96,-215.01 461.52,-222.44 464.5,-216.11"/>
</g>
<!-- Node24&#45;&gt;Node15 -->
<g id="edge31" class="edge">
<title>Node24&#45;&gt;Node15</title>
<path fill="none" stroke="midnightblue" d="M717.68,-257.48C730.07,-248.02 750.29,-232.6 765.25,-221.19"/>
<polygon fill="midnightblue" stroke="midnightblue" points="767.52,-223.86 773.35,-215.01 763.27,-218.29 767.52,-223.86"/>
</g>
<!-- Node25 -->
<g id="node25" class="node">
<title>Node25</title>
<g id="a_node25"><a xlink:title=" ">
<polygon fill="white" stroke="#bfbfbf" points="627,-196 627,-215 674,-215 674,-196 627,-196"/>
<text text-anchor="middle" x="650.5" y="-203" font-family="Helvetica,sans-Serif" font-size="10.00">deque</text>
</a>
</g>
</g>
<!-- Node24&#45;&gt;Node25 -->
<g id="edge33" class="edge">
<title>Node24&#45;&gt;Node25</title>
<path fill="none" stroke="midnightblue" d="M698.48,-257.48C689.91,-248.37 676.14,-233.74 665.54,-222.48"/>
<polygon fill="midnightblue" stroke="midnightblue" points="667.91,-219.89 658.51,-215.01 662.81,-224.69 667.91,-219.89"/>
</g>
<!-- Node26&#45;&gt;Node2 -->
<g id="edge35" class="edge">
<title>Node26&#45;&gt;Node2</title>
<path fill="none" stroke="midnightblue" d="M592.54,-257.25C586.36,-229.25 568.21,-143.18 576.5,-134 604.64,-102.85 874.96,-89.91 1004.26,-85.47"/>
<polygon fill="midnightblue" stroke="midnightblue" points="1004.57,-88.96 1014.44,-85.13 1004.33,-81.97 1004.57,-88.96"/>
</g>
<!-- Node26&#45;&gt;Node5 -->
<g id="edge37" class="edge">
<title>Node26&#45;&gt;Node5</title>
<path fill="none" stroke="midnightblue" d="M566.83,-257.41C540.82,-249.05 500.98,-235.52 467.5,-221 466.47,-220.55 465.43,-220.09 464.38,-219.6"/>
<polygon fill="midnightblue" stroke="midnightblue" points="465.53,-216.27 455.01,-215.01 462.45,-222.56 465.53,-216.27"/>
</g>
<!-- Node26&#45;&gt;Node15 -->
<g id="edge36" class="edge">
<title>Node26&#45;&gt;Node15</title>
<path fill="none" stroke="midnightblue" d="M621.72,-257.48C654.74,-247.14 710.54,-229.66 747.45,-218.1"/>
<polygon fill="midnightblue" stroke="midnightblue" points="748.83,-221.34 757.33,-215.01 746.74,-214.66 748.83,-221.34"/>
</g>
<!-- Node26&#45;&gt;Node17 -->
<g id="edge39" class="edge">
<title>Node26&#45;&gt;Node17</title>
<path fill="none" stroke="midnightblue" d="M546.25,-262.71C479.79,-256.35 372.48,-238.41 411.5,-190 431.72,-164.92 521.22,-153.09 575.7,-148.12"/>
<polygon fill="midnightblue" stroke="midnightblue" points="576.11,-151.6 585.77,-147.25 575.51,-144.63 576.11,-151.6"/>
</g>
<!-- Node26&#45;&gt;Node25 -->
<g id="edge41" class="edge">
<title>Node26&#45;&gt;Node25</title>
<path fill="none" stroke="midnightblue" d="M602.52,-257.48C611.09,-248.37 624.86,-233.74 635.46,-222.48"/>
<polygon fill="midnightblue" stroke="midnightblue" points="638.19,-224.69 642.49,-215.01 633.09,-219.89 638.19,-224.69"/>
</g>
<!-- Node27 -->
<g id="node27" class="node">
<title>Node27</title>
<g id="a_node27"><a xlink:title=" ">
<polygon fill="white" stroke="#bfbfbf" points="477,-196 477,-215 570,-215 570,-196 477,-196"/>
<text text-anchor="middle" x="523.5" y="-203" font-family="Helvetica,sans-Serif" font-size="10.00">unordered_map</text>
</a>
</g>
</g>
<!-- Node26&#45;&gt;Node27 -->
<g id="edge38" class="edge">
<title>Node26&#45;&gt;Node27</title>
<path fill="none" stroke="midnightblue" d="M584.33,-257.48C573.15,-248.11 554.98,-232.88 541.41,-221.51"/>
<polygon fill="midnightblue" stroke="midnightblue" points="543.57,-218.75 533.65,-215.01 539.07,-224.11 543.57,-218.75"/>
</g>
<!-- Node28 -->
<g id="node28" class="node">
<title>Node28</title>
<g id="a_node28"><a xlink:title=" ">
<polygon fill="white" stroke="#bfbfbf" points="308.5,-196 308.5,-215 364.5,-215 364.5,-196 308.5,-196"/>
<text text-anchor="middle" x="336.5" y="-203" font-family="Helvetica,sans-Serif" font-size="10.00">optional</text>
</a>
</g>
</g>
<!-- Node26&#45;&gt;Node28 -->
<g id="edge40" class="edge">
<title>Node26&#45;&gt;Node28</title>
<path fill="none" stroke="midnightblue" d="M546.47,-257.8C502.42,-249.86 435.55,-236.72 378.5,-221 375.47,-220.17 372.35,-219.23 369.23,-218.25"/>
<polygon fill="midnightblue" stroke="midnightblue" points="370.04,-214.83 359.44,-215.01 367.84,-221.47 370.04,-214.83"/>
</g>
<!-- Node29&#45;&gt;Node2 -->
<g id="edge43" class="edge">
<title>Node29&#45;&gt;Node2</title>
<path fill="none" stroke="midnightblue" d="M928.25,-313.48C908.5,-306.99 886.32,-295.84 874.5,-277 869.78,-269.47 872.09,-265.56 874.5,-257 883.97,-223.4 890.89,-214.76 915.5,-190 936.89,-168.48 948.24,-170.81 973.5,-154 1001.38,-135.45 1032.74,-112.81 1052.55,-98.27"/>
<polygon fill="midnightblue" stroke="midnightblue" points="1054.8,-100.96 1060.78,-92.21 1050.65,-95.32 1054.8,-100.96"/>
</g>
<!-- Node29&#45;&gt;Node11 -->
<g id="edge44" class="edge">
<title>Node29&#45;&gt;Node11</title>
<path fill="none" stroke="midnightblue" d="M1045.91,-320.93C1144.41,-318.24 1306.6,-308.92 1356.5,-277 1375.32,-264.96 1387.16,-241.45 1393.55,-224.9"/>
<polygon fill="midnightblue" stroke="midnightblue" points="1396.94,-225.81 1396.97,-215.21 1390.34,-223.47 1396.94,-225.81"/>
</g>
<!-- Node29&#45;&gt;Node15 -->
<g id="edge59" class="edge">
<title>Node29&#45;&gt;Node15</title>
<path fill="none" stroke="midnightblue" d="M927.47,-313.44C901.57,-306.56 868.05,-295.01 842.5,-277 822.33,-262.78 805.24,-239.78 794.95,-223.94"/>
<polygon fill="midnightblue" stroke="midnightblue" points="797.72,-221.77 789.45,-215.15 791.78,-225.48 797.72,-221.77"/>
</g>
<!-- Node29&#45;&gt;Node24 -->
<g id="edge57" class="edge">
<title>Node29&#45;&gt;Node24</title>
<path fill="none" stroke="midnightblue" d="M926.14,-313.44C880.42,-303.98 806.74,-288.74 757.48,-278.55"/>
<polygon fill="midnightblue" stroke="midnightblue" points="758.16,-275.12 747.66,-276.52 756.75,-281.97 758.16,-275.12"/>
</g>
<!-- Node29&#45;&gt;Node26 -->
<g id="edge58" class="edge">
<title>Node29&#45;&gt;Node26</title>
<path fill="none" stroke="midnightblue" d="M905.7,-313.48C844.15,-304.93 746.67,-291.22 652.66,-277.16"/>
<polygon fill="midnightblue" stroke="midnightblue" points="653.1,-273.68 642.69,-275.66 652.06,-280.61 653.1,-273.68"/>
</g>
<!-- Node30 -->
<g id="node30" class="node">
<title>Node30</title>
<g id="a_node30"><a xlink:href="loglevel_8h.html" target="_top" xlink:title="This header defines the LogLevel type.">
<polygon fill="white" stroke="black" points="1233.5,-257.5 1233.5,-276.5 1347.5,-276.5 1347.5,-257.5 1233.5,-257.5"/>
<text text-anchor="middle" x="1290.5" y="-264.5" font-family="Helvetica,sans-Serif" font-size="10.00">log4cplus/loglevel.h</text>
</a>
</g>
</g>
<!-- Node29&#45;&gt;Node30 -->
<g id="edge45" class="edge">
<title>Node29&#45;&gt;Node30</title>
<path fill="none" stroke="midnightblue" d="M1018.68,-313.44C1075.97,-303.87 1168.74,-288.36 1229.69,-278.17"/>
<polygon fill="midnightblue" stroke="midnightblue" points="1230.27,-281.62 1239.56,-276.52 1229.12,-274.71 1230.27,-281.62"/>
</g>
<!-- Node36 -->
<g id="node36" class="node">
<title>Node36</title>
<g id="a_node36"><a xlink:href="timehelper_8h.html" target="_top" xlink:title=" ">
<polygon fill="white" stroke="black" points="884,-257.5 884,-276.5 1051,-276.5 1051,-257.5 884,-257.5"/>
<text text-anchor="middle" x="967.5" y="-264.5" font-family="Helvetica,sans-Serif" font-size="10.00">log4cplus/helpers/timehelper.h</text>
</a>
</g>
</g>
<!-- Node29&#45;&gt;Node36 -->
<g id="edge60" class="edge">
<title>Node29&#45;&gt;Node36</title>
<path fill="none" stroke="midnightblue" d="M967.5,-313.08C967.5,-306.01 967.5,-295.86 967.5,-286.99"/>
<polygon fill="midnightblue" stroke="midnightblue" points="971,-286.75 967.5,-276.75 964,-286.75 971,-286.75"/>
</g>
<!-- Node39 -->
<g id="node39" class="node">
<title>Node39</title>
<g id="a_node39"><a xlink:href="threads_8h.html" target="_top" xlink:title=" ">
<polygon fill="white" stroke="black" points="1069.5,-257.5 1069.5,-276.5 1215.5,-276.5 1215.5,-257.5 1069.5,-257.5"/>
<text text-anchor="middle" x="1142.5" y="-264.5" font-family="Helvetica,sans-Serif" font-size="10.00">log4cplus/thread/threads.h</text>
</a>
</g>
</g>
<!-- Node29&#45;&gt;Node39 -->
<g id="edge65" class="edge">
<title>Node29&#45;&gt;Node39</title>
<path fill="none" stroke="midnightblue" d="M995.23,-313.44C1024.93,-304.28 1072.22,-289.69 1105.17,-279.52"/>
<polygon fill="midnightblue" stroke="midnightblue" points="1106.38,-282.81 1114.9,-276.52 1104.31,-276.12 1106.38,-282.81"/>
</g>
<!-- Node30&#45;&gt;Node2 -->
<g id="edge46" class="edge">
<title>Node30&#45;&gt;Node2</title>
<path fill="none" stroke="midnightblue" d="M1300.16,-257.4C1324.23,-234.98 1382.62,-173.71 1349.5,-134 1323.41,-102.72 1213.89,-90.76 1140.63,-86.23"/>
<polygon fill="midnightblue" stroke="midnightblue" points="1140.73,-82.73 1130.54,-85.64 1140.32,-89.72 1140.73,-82.73"/>
</g>
<!-- Node30&#45;&gt;Node11 -->
<g id="edge48" class="edge">
<title>Node30&#45;&gt;Node11</title>
<path fill="none" stroke="midnightblue" d="M1306.12,-257.48C1324.09,-247.67 1353.82,-231.43 1374.91,-219.92"/>
<polygon fill="midnightblue" stroke="midnightblue" points="1376.81,-222.87 1383.91,-215.01 1373.46,-216.73 1376.81,-222.87"/>
</g>
<!-- Node30&#45;&gt;Node12 -->
<g id="edge47" class="edge">
<title>Node30&#45;&gt;Node12</title>
<path fill="none" stroke="midnightblue" d="M1347.51,-264.75C1424.54,-261.88 1565.58,-252.37 1681.5,-221 1683.79,-220.38 1686.13,-219.62 1688.45,-218.79"/>
<polygon fill="midnightblue" stroke="midnightblue" points="1689.77,-222.03 1697.73,-215.03 1687.14,-215.54 1689.77,-222.03"/>
</g>
<!-- Node30&#45;&gt;Node15 -->
<g id="edge50" class="edge">
<title>Node30&#45;&gt;Node15</title>
<path fill="none" stroke="midnightblue" d="M1233.27,-258.12C1230.31,-257.74 1227.37,-257.36 1224.5,-257 1090.71,-240.2 933.74,-222.72 848.13,-213.37"/>
<polygon fill="midnightblue" stroke="midnightblue" points="848.37,-209.88 838.05,-212.28 847.61,-216.84 848.37,-209.88"/>
</g>
<!-- Node30&#45;&gt;Node31 -->
<g id="edge49" class="edge">
<title>Node30&#45;&gt;Node31</title>
<path fill="none" stroke="midnightblue" d="M1347.77,-259.02C1405.96,-251.46 1498.52,-238.14 1577.5,-221 1582,-220.02 1586.69,-218.89 1591.33,-217.69"/>
<polygon fill="midnightblue" stroke="midnightblue" points="1592.56,-220.98 1601.31,-215 1590.75,-214.22 1592.56,-220.98"/>
</g>
<!-- Node32 -->
<g id="node32" class="node">
<title>Node32</title>
<g id="a_node32"><a xlink:href="pointer_8h.html" target="_top" xlink:title=" ">
<polygon fill="white" stroke="black" points="1166.5,-196 1166.5,-215 1314.5,-215 1314.5,-196 1166.5,-196"/>
<text text-anchor="middle" x="1240.5" y="-203" font-family="Helvetica,sans-Serif" font-size="10.00">log4cplus/helpers/pointer.h</text>
</a>
</g>
</g>
<!-- Node30&#45;&gt;Node32 -->
<g id="edge51" class="edge">
<title>Node30&#45;&gt;Node32</title>
<path fill="none" stroke="midnightblue" d="M1283.34,-257.48C1275.76,-248.46 1263.63,-234.02 1254.21,-222.81"/>
<polygon fill="midnightblue" stroke="midnightblue" points="1256.76,-220.41 1247.65,-215.01 1251.4,-224.92 1256.76,-220.41"/>
</g>
<!-- Node32&#45;&gt;Node2 -->
<g id="edge52" class="edge">
<title>Node32&#45;&gt;Node2</title>
<path fill="none" stroke="midnightblue" d="M1243.73,-195.66C1248.41,-181.2 1255.1,-152.26 1241.5,-134 1218.34,-102.91 1176.76,-90.22 1140.64,-85.33"/>
<polygon fill="midnightblue" stroke="midnightblue" points="1140.95,-81.85 1130.61,-84.15 1140.14,-88.8 1140.95,-81.85"/>
</g>
<!-- Node32&#45;&gt;Node6 -->
<g id="edge53" class="edge">
<title>Node32&#45;&gt;Node6</title>
<path fill="none" stroke="midnightblue" d="M1197.57,-195.93C1184.73,-193.66 1170.59,-191.44 1157.5,-190 989.32,-171.47 487.49,-154.25 280.89,-147.74"/>
<polygon fill="midnightblue" stroke="midnightblue" points="280.79,-144.24 270.69,-147.42 280.57,-151.24 280.79,-144.24"/>
</g>
<!-- Node33 -->
<g id="node33" class="node">
<title>Node33</title>
<g id="a_node33"><a xlink:title=" ">
<polygon fill="white" stroke="#bfbfbf" points="1100.5,-134.5 1100.5,-153.5 1164.5,-153.5 1164.5,-134.5 1100.5,-134.5"/>
<text text-anchor="middle" x="1132.5" y="-141.5" font-family="Helvetica,sans-Serif" font-size="10.00">algorithm</text>
</a>
</g>
</g>
<!-- Node32&#45;&gt;Node33 -->
<g id="edge54" class="edge">
<title>Node32&#45;&gt;Node33</title>
<path fill="none" stroke="midnightblue" d="M1225.03,-195.98C1207.22,-186.17 1177.76,-169.93 1156.87,-158.42"/>
<polygon fill="midnightblue" stroke="midnightblue" points="1158.39,-155.27 1147.95,-153.51 1155.01,-161.4 1158.39,-155.27"/>
</g>
<!-- Node34 -->
<g id="node34" class="node">
<title>Node34</title>
<g id="a_node34"><a xlink:title=" ">
<polygon fill="white" stroke="#bfbfbf" points="1288.5,-134.5 1288.5,-153.5 1340.5,-153.5 1340.5,-134.5 1288.5,-134.5"/>
<text text-anchor="middle" x="1314.5" y="-141.5" font-family="Helvetica,sans-Serif" font-size="10.00">cassert</text>
</a>
</g>
</g>
<!-- Node32&#45;&gt;Node34 -->
<g id="edge55" class="edge">
<title>Node32&#45;&gt;Node34</title>
<path fill="none" stroke="midnightblue" d="M1251.1,-195.98C1262.75,-186.61 1281.69,-171.38 1295.83,-160.01"/>
<polygon fill="midnightblue" stroke="midnightblue" points="1298.32,-162.5 1303.92,-153.51 1293.93,-157.05 1298.32,-162.5"/>
</g>
<!-- Node35 -->
<g id="node35" class="node">
<title>Node35</title>
<g id="a_node35"><a xlink:title=" ">
<polygon fill="white" stroke="#bfbfbf" points="1182.5,-134.5 1182.5,-153.5 1232.5,-153.5 1232.5,-134.5 1182.5,-134.5"/>
<text text-anchor="middle" x="1207.5" y="-141.5" font-family="Helvetica,sans-Serif" font-size="10.00">atomic</text>
</a>
</g>
</g>
<!-- Node32&#45;&gt;Node35 -->
<g id="edge56" class="edge">
<title>Node32&#45;&gt;Node35</title>
<path fill="none" stroke="midnightblue" d="M1235.77,-195.98C1230.92,-187.23 1223.23,-173.37 1217.1,-162.31"/>
<polygon fill="midnightblue" stroke="midnightblue" points="1220.13,-160.56 1212.22,-153.51 1214.01,-163.95 1220.13,-160.56"/>
</g>
<!-- Node36&#45;&gt;Node2 -->
<g id="edge61" class="edge">
<title>Node36&#45;&gt;Node2</title>
<path fill="none" stroke="midnightblue" d="M954.72,-257.37C944.11,-249.36 929.77,-236.38 923.5,-221 918.3,-208.24 915.84,-201.45 923.5,-190 946.75,-155.21 976.46,-178.34 1010.5,-154 1031.33,-139.1 1049.95,-115.92 1061.23,-100.25"/>
<polygon fill="midnightblue" stroke="midnightblue" points="1064.13,-102.21 1066.98,-92.01 1058.38,-98.21 1064.13,-102.21"/>
</g>
<!-- Node36&#45;&gt;Node15 -->
<g id="edge62" class="edge">
<title>Node36&#45;&gt;Node15</title>
<path fill="none" stroke="midnightblue" d="M941.28,-257.48C909.48,-247.14 855.73,-229.66 820.18,-218.1"/>
<polygon fill="midnightblue" stroke="midnightblue" points="821.26,-214.77 810.67,-215.01 819.1,-221.43 821.26,-214.77"/>
</g>
<!-- Node37 -->
<g id="node37" class="node">
<title>Node37</title>
<g id="a_node37"><a xlink:title=" ">
<polygon fill="white" stroke="#bfbfbf" points="1000.5,-196 1000.5,-215 1044.5,-215 1044.5,-196 1000.5,-196"/>
<text text-anchor="middle" x="1022.5" y="-203" font-family="Helvetica,sans-Serif" font-size="10.00">ctime</text>
</a>
</g>
</g>
<!-- Node36&#45;&gt;Node37 -->
<g id="edge63" class="edge">
<title>Node36&#45;&gt;Node37</title>
<path fill="none" stroke="midnightblue" d="M975.38,-257.48C983.79,-248.37 997.32,-233.74 1007.73,-222.48"/>
<polygon fill="midnightblue" stroke="midnightblue" points="1010.42,-224.73 1014.63,-215.01 1005.28,-219.98 1010.42,-224.73"/>
</g>
<!-- Node38 -->
<g id="node38" class="node">
<title>Node38</title>
<g id="a_node38"><a xlink:title=" ">
<polygon fill="white" stroke="#bfbfbf" points="932.5,-196 932.5,-215 982.5,-215 982.5,-196 932.5,-196"/>
<text text-anchor="middle" x="957.5" y="-203" font-family="Helvetica,sans-Serif" font-size="10.00">chrono</text>
</a>
</g>
</g>
<!-- Node36&#45;&gt;Node38 -->
<g id="edge64" class="edge">
<title>Node36&#45;&gt;Node38</title>
<path fill="none" stroke="midnightblue" d="M966.07,-257.48C964.66,-249.08 962.45,-235.98 960.64,-225.16"/>
<polygon fill="midnightblue" stroke="midnightblue" points="964.04,-224.29 958.93,-215.01 957.14,-225.45 964.04,-224.29"/>
</g>
<!-- Node39&#45;&gt;Node2 -->
<g id="edge66" class="edge">
<title>Node39&#45;&gt;Node2</title>
<path fill="none" stroke="midnightblue" d="M1127.82,-257.27C1115.95,-249.37 1099.88,-236.61 1091.5,-221 1070.96,-182.73 1069.92,-130.18 1071.11,-102.44"/>
<polygon fill="midnightblue" stroke="midnightblue" points="1074.62,-102.37 1071.7,-92.18 1067.63,-101.96 1074.62,-102.37"/>
</g>
<!-- Node39&#45;&gt;Node11 -->
<g id="edge67" class="edge">
<title>Node39&#45;&gt;Node11</title>
<path fill="none" stroke="midnightblue" d="M1179.32,-257.48C1227.4,-246.35 1311.19,-226.95 1360.37,-215.56"/>
<polygon fill="midnightblue" stroke="midnightblue" points="1361.36,-218.92 1370.32,-213.26 1359.79,-212.1 1361.36,-218.92"/>
</g>
<!-- Node39&#45;&gt;Node15 -->
<g id="edge69" class="edge">
<title>Node39&#45;&gt;Node15</title>
<path fill="none" stroke="midnightblue" d="M1091.21,-257.48C1026.34,-246.69 914.79,-228.15 845.59,-216.65"/>
<polygon fill="midnightblue" stroke="midnightblue" points="846.14,-213.2 835.7,-215.01 844.99,-220.1 846.14,-213.2"/>
</g>
<!-- Node39&#45;&gt;Node32 -->
<g id="edge70" class="edge">
<title>Node39&#45;&gt;Node32</title>
<path fill="none" stroke="midnightblue" d="M1156.54,-257.48C1172.55,-247.75 1198.95,-231.73 1217.87,-220.24"/>
<polygon fill="midnightblue" stroke="midnightblue" points="1219.75,-223.19 1226.49,-215.01 1216.12,-217.21 1219.75,-223.19"/>
</g>
<!-- Node40 -->
<g id="node40" class="node">
<title>Node40</title>
<g id="a_node40"><a xlink:title=" ">
<polygon fill="white" stroke="#bfbfbf" points="1100.5,-196 1100.5,-215 1148.5,-215 1148.5,-196 1100.5,-196"/>
<text text-anchor="middle" x="1124.5" y="-203" font-family="Helvetica,sans-Serif" font-size="10.00">thread</text>
</a>
</g>
</g>
<!-- Node39&#45;&gt;Node40 -->
<g id="edge68" class="edge">
<title>Node39&#45;&gt;Node40</title>
<path fill="none" stroke="midnightblue" d="M1139.92,-257.48C1137.35,-248.99 1133.33,-235.7 1130.04,-224.82"/>
<polygon fill="midnightblue" stroke="midnightblue" points="1133.32,-223.57 1127.07,-215.01 1126.62,-225.59 1133.32,-223.57"/>
</g>
<!-- Node41&#45;&gt;Node2 -->
<g id="edge72" class="edge">
<title>Node41&#45;&gt;Node2</title>
<path fill="none" stroke="midnightblue" d="M1526.59,-190.22C1544.42,-175.2 1566.13,-151.37 1550.5,-134 1523.62,-104.14 1266.67,-90.62 1141.01,-85.76"/>
<polygon fill="midnightblue" stroke="midnightblue" points="1140.86,-82.26 1130.74,-85.37 1140.6,-89.25 1140.86,-82.26"/>
</g>
<!-- Node41&#45;&gt;Node34 -->
<g id="edge74" class="edge">
<title>Node41&#45;&gt;Node34</title>
<path fill="none" stroke="midnightblue" d="M1461.76,-190.4C1427.66,-179.89 1381.74,-165.73 1350.3,-156.04"/>
<polygon fill="midnightblue" stroke="midnightblue" points="1351.22,-152.66 1340.63,-153.06 1349.16,-159.35 1351.22,-152.66"/>
</g>
<!-- Node42 -->
<g id="node42" class="node">
<title>Node42</title>
<g id="a_node42"><a xlink:title=" ">
<polygon fill="white" stroke="#bfbfbf" points="1405,-134.5 1405,-153.5 1442,-153.5 1442,-134.5 1405,-134.5"/>
<text text-anchor="middle" x="1423.5" y="-141.5" font-family="Helvetica,sans-Serif" font-size="10.00">new</text>
</a>
</g>
</g>
<!-- Node41&#45;&gt;Node42 -->
<g id="edge73" class="edge">
<title>Node41&#45;&gt;Node42</title>
<path fill="none" stroke="midnightblue" d="M1487.59,-190.4C1474.51,-181.13 1457.42,-169.03 1444.18,-159.65"/>
<polygon fill="midnightblue" stroke="midnightblue" points="1445.91,-156.58 1435.72,-153.66 1441.86,-162.29 1445.91,-156.58"/>
</g>
<!-- Node43 -->
<g id="node43" class="node">
<title>Node43</title>
<g id="a_node43"><a xlink:title=" ">
<polygon fill="white" stroke="#bfbfbf" points="1460,-134.5 1460,-153.5 1541,-153.5 1541,-134.5 1460,-134.5"/>
<text text-anchor="middle" x="1500.5" y="-141.5" font-family="Helvetica,sans-Serif" font-size="10.00">system_error</text>
</a>
</g>
</g>
<!-- Node41&#45;&gt;Node43 -->
<g id="edge75" class="edge">
<title>Node41&#45;&gt;Node43</title>
<path fill="none" stroke="midnightblue" d="M1505.84,-190.4C1504.91,-182.47 1503.73,-172.46 1502.72,-163.86"/>
<polygon fill="midnightblue" stroke="midnightblue" points="1506.16,-163.18 1501.52,-153.66 1499.21,-164 1506.16,-163.18"/>
</g>
<!-- Node44&#45;&gt;Node2 -->
<g id="edge77" class="edge">
<title>Node44&#45;&gt;Node2</title>
<path fill="none" stroke="midnightblue" d="M1794.83,-257.23C1809.69,-242.19 1835.42,-211.09 1818.5,-190 1776.26,-137.34 1317.25,-100.37 1140.93,-88.02"/>
<polygon fill="midnightblue" stroke="midnightblue" points="1140.96,-84.51 1130.74,-87.31 1140.47,-91.49 1140.96,-84.51"/>
</g>
<!-- Node44&#45;&gt;Node12 -->
<g id="edge80" class="edge">
<title>Node44&#45;&gt;Node12</title>
<path fill="none" stroke="midnightblue" d="M1775.33,-257.48C1764.15,-248.11 1745.98,-232.88 1732.41,-221.51"/>
<polygon fill="midnightblue" stroke="midnightblue" points="1734.57,-218.75 1724.65,-215.01 1730.07,-224.11 1734.57,-218.75"/>
</g>
<!-- Node44&#45;&gt;Node20 -->
<g id="edge78" class="edge">
<title>Node44&#45;&gt;Node20</title>
<path fill="none" stroke="midnightblue" d="M1805.17,-257.42C1820.08,-249.91 1839.92,-237.61 1851.5,-221 1863.38,-203.96 1867.85,-180.19 1869.52,-163.8"/>
<polygon fill="midnightblue" stroke="midnightblue" points="1873.01,-164.04 1870.29,-153.8 1866.03,-163.5 1873.01,-164.04"/>
</g>
<!-- Node45 -->
<g id="node45" class="node">
<title>Node45</title>
<g id="a_node45"><a xlink:title=" ">
<polygon fill="white" stroke="#bfbfbf" points="1756,-196 1756,-215 1809,-215 1809,-196 1756,-196"/>
<text text-anchor="middle" x="1782.5" y="-203" font-family="Helvetica,sans-Serif" font-size="10.00">cstdarg</text>
</a>
</g>
</g>
<!-- Node44&#45;&gt;Node45 -->
<g id="edge79" class="edge">
<title>Node44&#45;&gt;Node45</title>
<path fill="none" stroke="midnightblue" d="M1785.07,-257.48C1784.65,-249.08 1783.99,-235.98 1783.44,-225.16"/>
<polygon fill="midnightblue" stroke="midnightblue" points="1786.93,-224.82 1782.93,-215.01 1779.94,-225.17 1786.93,-224.82"/>
</g>
</g>
</svg>
