<?xml version="1.0" encoding="UTF-8" standalone="no"?>
<!DOCTYPE svg PUBLIC "-//W3C//DTD SVG 1.1//EN"
 "http://www.w3.org/Graphics/SVG/1.1/DTD/svg11.dtd">
<!-- Generated by graphviz version 2.43.0 (0)
 -->
<!-- Title: deviceappender.hxx Pages: 1 -->
<svg width="1775pt" height="442pt"
 viewBox="0.00 0.00 1774.50 442.00" xmlns="http://www.w3.org/2000/svg" xmlns:xlink="http://www.w3.org/1999/xlink">
<g id="graph0" class="graph" transform="scale(1 1) rotate(0) translate(4 438)">
<title>deviceappender.hxx</title>
<polygon fill="white" stroke="transparent" points="-4,4 -4,-438 1770.5,-438 1770.5,4 -4,4"/>
<!-- Node1 -->
<g id="node1" class="node">
<title>Node1</title>
<g id="a_node1"><a xlink:title=" ">
<polygon fill="#bfbfbf" stroke="black" points="1157.5,-414.5 1157.5,-433.5 1272.5,-433.5 1272.5,-414.5 1157.5,-414.5"/>
<text text-anchor="middle" x="1215" y="-421.5" font-family="Helvetica,sans-Serif" font-size="10.00">deviceappender.hxx</text>
</a>
</g>
</g>
<!-- Node2 -->
<g id="node2" class="node">
<title>Node2</title>
<g id="a_node2"><a xlink:href="config_8hxx.html" target="_top" xlink:title=" ">
<polygon fill="white" stroke="black" points="624,-73 624,-92 740,-92 740,-73 624,-73"/>
<text text-anchor="middle" x="682" y="-80" font-family="Helvetica,sans-Serif" font-size="10.00">log4cplus/config.hxx</text>
</a>
</g>
</g>
<!-- Node1&#45;&gt;Node2 -->
<g id="edge1" class="edge">
<title>Node1&#45;&gt;Node2</title>
<path fill="none" stroke="midnightblue" d="M1272.62,-418.07C1336.3,-409.1 1430,-383.86 1430,-313 1430,-313 1430,-313 1430,-199 1430,-141.45 1372.94,-151.15 1318,-134 1291.25,-125.65 909.13,-98.93 750.38,-88.11"/>
<polygon fill="midnightblue" stroke="midnightblue" points="750.47,-84.61 740.25,-87.42 749.99,-91.59 750.47,-84.61"/>
</g>
<!-- Node5 -->
<g id="node5" class="node">
<title>Node5</title>
<g id="a_node5"><a xlink:title=" ">
<polygon fill="white" stroke="#bfbfbf" points="736,-190.5 736,-209.5 794,-209.5 794,-190.5 736,-190.5"/>
<text text-anchor="middle" x="765" y="-197.5" font-family="Helvetica,sans-Serif" font-size="10.00">memory</text>
</a>
</g>
</g>
<!-- Node1&#45;&gt;Node5 -->
<g id="edge4" class="edge">
<title>Node1&#45;&gt;Node5</title>
<path fill="none" stroke="midnightblue" d="M1157.2,-415.97C1110.43,-409.25 1043.31,-397.24 987,-378 934.34,-360.01 922.64,-350.76 875,-322 838.47,-299.94 824.58,-298.56 797,-266 785.21,-252.08 776.51,-233.07 771.18,-219.21"/>
<polygon fill="midnightblue" stroke="midnightblue" points="774.46,-217.99 767.77,-209.78 767.88,-220.37 774.46,-217.99"/>
</g>
<!-- Node6 -->
<g id="node6" class="node">
<title>Node6</title>
<g id="a_node6"><a xlink:title=" ">
<polygon fill="white" stroke="#bfbfbf" points="1458.5,-358.5 1458.5,-377.5 1629.5,-377.5 1629.5,-358.5 1458.5,-358.5"/>
<text text-anchor="middle" x="1544" y="-365.5" font-family="Helvetica,sans-Serif" font-size="10.00">boost/iostreams/operations.hpp</text>
</a>
</g>
</g>
<!-- Node1&#45;&gt;Node6 -->
<g id="edge5" class="edge">
<title>Node1&#45;&gt;Node6</title>
<path fill="none" stroke="midnightblue" d="M1267.13,-414.44C1325.49,-404.87 1419.98,-389.36 1482.06,-379.17"/>
<polygon fill="midnightblue" stroke="midnightblue" points="1482.81,-382.59 1492.11,-377.52 1481.68,-375.68 1482.81,-382.59"/>
</g>
<!-- Node7 -->
<g id="node7" class="node">
<title>Node7</title>
<g id="a_node7"><a xlink:title=" ">
<polygon fill="white" stroke="#bfbfbf" points="1647.5,-358.5 1647.5,-377.5 1766.5,-377.5 1766.5,-358.5 1647.5,-358.5"/>
<text text-anchor="middle" x="1707" y="-365.5" font-family="Helvetica,sans-Serif" font-size="10.00">boost/shared_ptr.hpp</text>
</a>
</g>
</g>
<!-- Node1&#45;&gt;Node7 -->
<g id="edge6" class="edge">
<title>Node1&#45;&gt;Node7</title>
<path fill="none" stroke="midnightblue" d="M1272.66,-417.36C1352.29,-409.46 1500.69,-394.36 1637.09,-378.2"/>
<polygon fill="midnightblue" stroke="midnightblue" points="1637.79,-381.65 1647.31,-376.99 1636.96,-374.69 1637.79,-381.65"/>
</g>
<!-- Node8 -->
<g id="node8" class="node">
<title>Node8</title>
<g id="a_node8"><a xlink:href="appender_8h.html" target="_top" xlink:title=" ">
<polygon fill="white" stroke="black" points="996,-358.5 996,-377.5 1116,-377.5 1116,-358.5 996,-358.5"/>
<text text-anchor="middle" x="1056" y="-365.5" font-family="Helvetica,sans-Serif" font-size="10.00">log4cplus/appender.h</text>
</a>
</g>
</g>
<!-- Node1&#45;&gt;Node8 -->
<g id="edge7" class="edge">
<title>Node1&#45;&gt;Node8</title>
<path fill="none" stroke="midnightblue" d="M1189.81,-414.44C1163.06,-405.36 1120.6,-390.94 1090.69,-380.78"/>
<polygon fill="midnightblue" stroke="midnightblue" points="1091.67,-377.42 1081.08,-377.52 1089.42,-384.05 1091.67,-377.42"/>
</g>
<!-- Node35 -->
<g id="node35" class="node">
<title>Node35</title>
<g id="a_node35"><a xlink:href="property_8h.html" target="_top" xlink:title=" ">
<polygon fill="white" stroke="black" points="5,-246.5 5,-265.5 159,-265.5 159,-246.5 5,-246.5"/>
<text text-anchor="middle" x="82" y="-253.5" font-family="Helvetica,sans-Serif" font-size="10.00">log4cplus/helpers/property.h</text>
</a>
</g>
</g>
<!-- Node1&#45;&gt;Node35 -->
<g id="edge63" class="edge">
<title>Node1&#45;&gt;Node35</title>
<path fill="none" stroke="midnightblue" d="M1157.38,-418.4C1069.56,-411.17 896.98,-396.08 751,-378 585.51,-357.5 543.99,-352.23 380,-322 290.1,-305.43 185.93,-281.65 127.62,-267.92"/>
<polygon fill="midnightblue" stroke="midnightblue" points="128.16,-264.45 117.63,-265.56 126.56,-271.26 128.16,-264.45"/>
</g>
<!-- Node3 -->
<g id="node3" class="node">
<title>Node3</title>
<g id="a_node3"><a xlink:href="win32_8h.html" target="_top" xlink:title=" ">
<polygon fill="white" stroke="black" points="535.5,-6 535.5,-25 672.5,-25 672.5,-6 535.5,-6"/>
<text text-anchor="middle" x="604" y="-13" font-family="Helvetica,sans-Serif" font-size="10.00">log4cplus/config/win32.h</text>
</a>
</g>
</g>
<!-- Node2&#45;&gt;Node3 -->
<g id="edge2" class="edge">
<title>Node2&#45;&gt;Node3</title>
<path fill="none" stroke="midnightblue" d="M671.48,-72.73C658.85,-62.21 637.46,-44.38 622.14,-31.62"/>
<polygon fill="midnightblue" stroke="midnightblue" points="624.28,-28.84 614.35,-25.13 619.79,-34.22 624.28,-28.84"/>
</g>
<!-- Node4 -->
<g id="node4" class="node">
<title>Node4</title>
<g id="a_node4"><a xlink:href="thread-config_8h.html" target="_top" xlink:title=" ">
<polygon fill="white" stroke="black" points="690.5,-0.5 690.5,-30.5 827.5,-30.5 827.5,-0.5 690.5,-0.5"/>
<text text-anchor="start" x="698.5" y="-18.5" font-family="Helvetica,sans-Serif" font-size="10.00">log4cplus/helpers/thread</text>
<text text-anchor="middle" x="759" y="-7.5" font-family="Helvetica,sans-Serif" font-size="10.00">&#45;config.h</text>
</a>
</g>
</g>
<!-- Node2&#45;&gt;Node4 -->
<g id="edge3" class="edge">
<title>Node2&#45;&gt;Node4</title>
<path fill="none" stroke="midnightblue" d="M692.38,-72.73C703.09,-63.7 720.18,-49.27 734.36,-37.3"/>
<polygon fill="midnightblue" stroke="midnightblue" points="736.93,-39.71 742.31,-30.59 732.41,-34.37 736.93,-39.71"/>
</g>
<!-- Node8&#45;&gt;Node2 -->
<g id="edge8" class="edge">
<title>Node8&#45;&gt;Node2</title>
<path fill="none" stroke="midnightblue" d="M1116.3,-366.76C1193.11,-362.91 1316,-343.26 1316,-257 1316,-257 1316,-257 1316,-199 1316,-168.9 1320.32,-153.02 1297,-134 1286.5,-125.43 908.06,-98.84 750.14,-88.08"/>
<polygon fill="midnightblue" stroke="midnightblue" points="750.28,-84.58 740.06,-87.4 749.8,-91.57 750.28,-84.58"/>
</g>
<!-- Node8&#45;&gt;Node5 -->
<g id="edge59" class="edge">
<title>Node8&#45;&gt;Node5</title>
<path fill="none" stroke="midnightblue" d="M1020.61,-358.39C971.73,-345.11 882.71,-315.83 822,-266 804.68,-251.78 788.17,-232.04 777.42,-218.05"/>
<polygon fill="midnightblue" stroke="midnightblue" points="780.04,-215.71 771.24,-209.81 774.44,-219.91 780.04,-215.71"/>
</g>
<!-- Node9 -->
<g id="node9" class="node">
<title>Node9</title>
<g id="a_node9"><a xlink:href="layout_8h.html" target="_top" xlink:title=" ">
<polygon fill="white" stroke="black" points="389,-302.5 389,-321.5 495,-321.5 495,-302.5 389,-302.5"/>
<text text-anchor="middle" x="442" y="-309.5" font-family="Helvetica,sans-Serif" font-size="10.00">log4cplus/layout.h</text>
</a>
</g>
</g>
<!-- Node8&#45;&gt;Node9 -->
<g id="edge9" class="edge">
<title>Node8&#45;&gt;Node9</title>
<path fill="none" stroke="midnightblue" d="M995.6,-363.05C894.68,-356.22 685.44,-341.1 509,-322 507.89,-321.88 506.77,-321.76 505.65,-321.63"/>
<polygon fill="midnightblue" stroke="midnightblue" points="505.7,-318.11 495.36,-320.42 504.89,-325.06 505.7,-318.11"/>
</g>
<!-- Node10 -->
<g id="node10" class="node">
<title>Node10</title>
<g id="a_node10"><a xlink:href="loglevel_8h.html" target="_top" xlink:title="This header defines the LogLevel type.">
<polygon fill="white" stroke="black" points="831,-246.5 831,-265.5 945,-265.5 945,-246.5 831,-246.5"/>
<text text-anchor="middle" x="888" y="-253.5" font-family="Helvetica,sans-Serif" font-size="10.00">log4cplus/loglevel.h</text>
</a>
</g>
</g>
<!-- Node8&#45;&gt;Node10 -->
<g id="edge47" class="edge">
<title>Node8&#45;&gt;Node10</title>
<path fill="none" stroke="midnightblue" d="M1023.89,-358.36C1000.59,-351.08 969.07,-339.11 945,-322 926.54,-308.87 910.03,-288.63 899.59,-274.22"/>
<polygon fill="midnightblue" stroke="midnightblue" points="902.25,-271.92 893.65,-265.74 896.52,-275.93 902.25,-271.92"/>
</g>
<!-- Node13 -->
<g id="node13" class="node">
<title>Node13</title>
<g id="a_node13"><a xlink:href="tstring_8h.html" target="_top" xlink:title=" ">
<polygon fill="white" stroke="black" points="502.5,-190.5 502.5,-209.5 609.5,-209.5 609.5,-190.5 502.5,-190.5"/>
<text text-anchor="middle" x="556" y="-197.5" font-family="Helvetica,sans-Serif" font-size="10.00">log4cplus/tstring.h</text>
</a>
</g>
</g>
<!-- Node8&#45;&gt;Node13 -->
<g id="edge48" class="edge">
<title>Node8&#45;&gt;Node13</title>
<path fill="none" stroke="midnightblue" d="M995.64,-364.88C871.64,-359.06 595.34,-338.11 542,-266 531.95,-252.41 537.98,-233.1 544.98,-219.05"/>
<polygon fill="midnightblue" stroke="midnightblue" points="548.26,-220.36 550.03,-209.92 542.13,-216.97 548.26,-220.36"/>
</g>
<!-- Node20 -->
<g id="node20" class="node">
<title>Node20</title>
<g id="a_node20"><a xlink:href="pointer_8h.html" target="_top" xlink:title=" ">
<polygon fill="white" stroke="black" points="1038,-190.5 1038,-209.5 1186,-209.5 1186,-190.5 1038,-190.5"/>
<text text-anchor="middle" x="1112" y="-197.5" font-family="Helvetica,sans-Serif" font-size="10.00">log4cplus/helpers/pointer.h</text>
</a>
</g>
</g>
<!-- Node8&#45;&gt;Node20 -->
<g id="edge49" class="edge">
<title>Node8&#45;&gt;Node20</title>
<path fill="none" stroke="midnightblue" d="M1060.6,-358.21C1065.16,-349.26 1072.15,-334.91 1077,-322 1090.34,-286.47 1101.67,-243.52 1107.59,-219.52"/>
<polygon fill="midnightblue" stroke="midnightblue" points="1111.03,-220.2 1109.99,-209.66 1104.23,-218.55 1111.03,-220.2"/>
</g>
<!-- Node22 -->
<g id="node22" class="node">
<title>Node22</title>
<g id="a_node22"><a xlink:title=" ">
<polygon fill="white" stroke="#bfbfbf" points="1172,-73 1172,-92 1220,-92 1220,-73 1172,-73"/>
<text text-anchor="middle" x="1196" y="-80" font-family="Helvetica,sans-Serif" font-size="10.00">mutex</text>
</a>
</g>
</g>
<!-- Node8&#45;&gt;Node22 -->
<g id="edge60" class="edge">
<title>Node8&#45;&gt;Node22</title>
<path fill="none" stroke="midnightblue" d="M1116.05,-364.09C1186.64,-359.5 1298.21,-348.23 1330,-322 1353.75,-302.4 1354,-287.8 1354,-257 1354,-257 1354,-257 1354,-199 1354,-168.2 1351.7,-155.85 1330,-134 1303.04,-106.86 1260.09,-94.1 1230.1,-88.24"/>
<polygon fill="midnightblue" stroke="midnightblue" points="1230.54,-84.77 1220.08,-86.44 1229.3,-91.66 1230.54,-84.77"/>
</g>
<!-- Node23 -->
<g id="node23" class="node">
<title>Node23</title>
<g id="a_node23"><a xlink:title=" ">
<polygon fill="white" stroke="#bfbfbf" points="1288.5,-73 1288.5,-92 1395.5,-92 1395.5,-73 1288.5,-73"/>
<text text-anchor="middle" x="1342" y="-80" font-family="Helvetica,sans-Serif" font-size="10.00">condition_variable</text>
</a>
</g>
</g>
<!-- Node8&#45;&gt;Node23 -->
<g id="edge62" class="edge">
<title>Node8&#45;&gt;Node23</title>
<path fill="none" stroke="midnightblue" d="M1116.05,-363.79C1191.1,-358.79 1314.3,-346.97 1352,-322 1380.28,-303.27 1392,-290.92 1392,-257 1392,-257 1392,-257 1392,-199 1392,-161.5 1369.53,-122.38 1354.72,-100.66"/>
<polygon fill="midnightblue" stroke="midnightblue" points="1357.38,-98.36 1348.74,-92.22 1351.67,-102.4 1357.38,-98.36"/>
</g>
<!-- Node27 -->
<g id="node27" class="node">
<title>Node27</title>
<g id="a_node27"><a xlink:title=" ">
<polygon fill="white" stroke="#bfbfbf" points="1238,-134.5 1238,-153.5 1288,-153.5 1288,-134.5 1238,-134.5"/>
<text text-anchor="middle" x="1263" y="-141.5" font-family="Helvetica,sans-Serif" font-size="10.00">atomic</text>
</a>
</g>
</g>
<!-- Node8&#45;&gt;Node27 -->
<g id="edge61" class="edge">
<title>Node8&#45;&gt;Node27</title>
<path fill="none" stroke="midnightblue" d="M1064.11,-358.3C1095.15,-325.01 1206.66,-205.42 1247.7,-161.41"/>
<polygon fill="midnightblue" stroke="midnightblue" points="1250.46,-163.58 1254.72,-153.88 1245.34,-158.81 1250.46,-163.58"/>
</g>
<!-- Node33 -->
<g id="node33" class="node">
<title>Node33</title>
<g id="a_node33"><a xlink:href="filter_8h.html" target="_top" xlink:title="This header defines Filter and all of it&#39;s subclasses.">
<polygon fill="white" stroke="black" points="954,-302.5 954,-321.5 1068,-321.5 1068,-302.5 954,-302.5"/>
<text text-anchor="middle" x="1011" y="-309.5" font-family="Helvetica,sans-Serif" font-size="10.00">log4cplus/spi/filter.h</text>
</a>
</g>
</g>
<!-- Node8&#45;&gt;Node33 -->
<g id="edge50" class="edge">
<title>Node8&#45;&gt;Node33</title>
<path fill="none" stroke="midnightblue" d="M1048.57,-358.08C1042.15,-350.38 1032.69,-339.03 1024.88,-329.65"/>
<polygon fill="midnightblue" stroke="midnightblue" points="1027.38,-327.19 1018.29,-321.75 1022.01,-331.67 1027.38,-327.19"/>
</g>
<!-- Node34 -->
<g id="node34" class="node">
<title>Node34</title>
<g id="a_node34"><a xlink:href="lockfile_8h.html" target="_top" xlink:title=" ">
<polygon fill="white" stroke="black" points="550.5,-246.5 550.5,-265.5 699.5,-265.5 699.5,-246.5 550.5,-246.5"/>
<text text-anchor="middle" x="625" y="-253.5" font-family="Helvetica,sans-Serif" font-size="10.00">log4cplus/helpers/lockfile.h</text>
</a>
</g>
</g>
<!-- Node8&#45;&gt;Node34 -->
<g id="edge55" class="edge">
<title>Node8&#45;&gt;Node34</title>
<path fill="none" stroke="midnightblue" d="M995.82,-360.53C941.19,-353.79 858.73,-341.46 789,-322 739.54,-308.2 684.52,-284.59 652.44,-269.95"/>
<polygon fill="midnightblue" stroke="midnightblue" points="653.8,-266.72 643.25,-265.71 650.87,-273.08 653.8,-266.72"/>
</g>
<!-- Node9&#45;&gt;Node2 -->
<g id="edge10" class="edge">
<title>Node9&#45;&gt;Node2</title>
<path fill="none" stroke="midnightblue" d="M436.48,-302.41C419.3,-274.51 370.45,-185.28 413,-134 438.02,-103.85 542.41,-91.59 613.54,-86.68"/>
<polygon fill="midnightblue" stroke="midnightblue" points="614.03,-90.16 623.78,-86.01 613.57,-83.17 614.03,-90.16"/>
</g>
<!-- Node9&#45;&gt;Node5 -->
<g id="edge46" class="edge">
<title>Node9&#45;&gt;Node5</title>
<path fill="none" stroke="midnightblue" d="M495.09,-306.35C562.19,-299.73 673.27,-286.14 709,-266 728.8,-254.84 744.89,-233.89 754.66,-218.79"/>
<polygon fill="midnightblue" stroke="midnightblue" points="757.89,-220.22 760.14,-209.87 751.92,-216.56 757.89,-220.22"/>
</g>
<!-- Node9&#45;&gt;Node10 -->
<g id="edge11" class="edge">
<title>Node9&#45;&gt;Node10</title>
<path fill="none" stroke="midnightblue" d="M495.36,-304.54C576.73,-294.69 731.75,-275.92 820.73,-265.14"/>
<polygon fill="midnightblue" stroke="midnightblue" points="821.21,-268.61 830.71,-263.94 820.37,-261.66 821.21,-268.61"/>
</g>
<!-- Node11 -->
<g id="node11" class="node">
<title>Node11</title>
<g id="a_node11"><a xlink:title=" ">
<polygon fill="white" stroke="#bfbfbf" points="437.5,-190.5 437.5,-209.5 484.5,-209.5 484.5,-190.5 437.5,-190.5"/>
<text text-anchor="middle" x="461" y="-197.5" font-family="Helvetica,sans-Serif" font-size="10.00">vector</text>
</a>
</g>
</g>
<!-- Node9&#45;&gt;Node11 -->
<g id="edge45" class="edge">
<title>Node9&#45;&gt;Node11</title>
<path fill="none" stroke="midnightblue" d="M443.49,-302.37C446.56,-284.62 453.63,-243.67 457.79,-219.6"/>
<polygon fill="midnightblue" stroke="midnightblue" points="461.26,-220.04 459.52,-209.59 454.36,-218.85 461.26,-220.04"/>
</g>
<!-- Node9&#45;&gt;Node13 -->
<g id="edge39" class="edge">
<title>Node9&#45;&gt;Node13</title>
<path fill="none" stroke="midnightblue" d="M451.08,-302.15C463.95,-289.62 488.23,-266.02 509,-246 519.19,-236.18 530.67,-225.19 539.73,-216.53"/>
<polygon fill="midnightblue" stroke="midnightblue" points="542.16,-219.05 546.97,-209.61 537.32,-213.99 542.16,-219.05"/>
</g>
<!-- Node28 -->
<g id="node28" class="node">
<title>Node28</title>
<g id="a_node28"><a xlink:href="streams_8h.html" target="_top" xlink:title=" ">
<polygon fill="white" stroke="black" points="97.5,-190.5 97.5,-209.5 212.5,-209.5 212.5,-190.5 97.5,-190.5"/>
<text text-anchor="middle" x="155" y="-197.5" font-family="Helvetica,sans-Serif" font-size="10.00">log4cplus/streams.h</text>
</a>
</g>
</g>
<!-- Node9&#45;&gt;Node28 -->
<g id="edge35" class="edge">
<title>Node9&#45;&gt;Node28</title>
<path fill="none" stroke="midnightblue" d="M388.7,-311.49C337.95,-309.62 261.19,-300.55 205,-266 186.5,-254.62 172.29,-233.72 163.83,-218.68"/>
<polygon fill="midnightblue" stroke="midnightblue" points="166.9,-217 159.11,-209.81 160.72,-220.28 166.9,-217"/>
</g>
<!-- Node30 -->
<g id="node30" class="node">
<title>Node30</title>
<g id="a_node30"><a xlink:href="timehelper_8h.html" target="_top" xlink:title=" ">
<polygon fill="white" stroke="black" points="214.5,-246.5 214.5,-265.5 381.5,-265.5 381.5,-246.5 214.5,-246.5"/>
<text text-anchor="middle" x="298" y="-253.5" font-family="Helvetica,sans-Serif" font-size="10.00">log4cplus/helpers/timehelper.h</text>
</a>
</g>
</g>
<!-- Node9&#45;&gt;Node30 -->
<g id="edge40" class="edge">
<title>Node9&#45;&gt;Node30</title>
<path fill="none" stroke="midnightblue" d="M419.18,-302.44C395.17,-293.44 357.17,-279.19 330.13,-269.05"/>
<polygon fill="midnightblue" stroke="midnightblue" points="331.3,-265.75 320.71,-265.52 328.84,-272.3 331.3,-265.75"/>
</g>
<!-- Node10&#45;&gt;Node2 -->
<g id="edge12" class="edge">
<title>Node10&#45;&gt;Node2</title>
<path fill="none" stroke="midnightblue" d="M878.16,-246.49C868.31,-237.76 852.93,-223.58 841,-210 813.3,-178.49 817.2,-160.89 785,-134 764.94,-117.25 738.39,-104.4 717.26,-95.86"/>
<polygon fill="midnightblue" stroke="midnightblue" points="718.27,-92.49 707.68,-92.12 715.73,-99.02 718.27,-92.49"/>
</g>
<!-- Node10&#45;&gt;Node5 -->
<g id="edge14" class="edge">
<title>Node10&#45;&gt;Node5</title>
<path fill="none" stroke="midnightblue" d="M868.51,-246.44C848.36,-237.6 816.68,-223.69 793.67,-213.59"/>
<polygon fill="midnightblue" stroke="midnightblue" points="794.96,-210.33 784.4,-209.52 792.15,-216.74 794.96,-210.33"/>
</g>
<!-- Node10&#45;&gt;Node11 -->
<g id="edge13" class="edge">
<title>Node10&#45;&gt;Node11</title>
<path fill="none" stroke="midnightblue" d="M830.98,-251.39C755.83,-246 619.46,-234.02 494.77,-210.08"/>
<polygon fill="midnightblue" stroke="midnightblue" points="495.15,-206.59 484.66,-208.11 493.81,-213.46 495.15,-206.59"/>
</g>
<!-- Node12 -->
<g id="node12" class="node">
<title>Node12</title>
<g id="a_node12"><a xlink:title=" ">
<polygon fill="white" stroke="#bfbfbf" points="850,-190.5 850,-209.5 936,-209.5 936,-190.5 850,-190.5"/>
<text text-anchor="middle" x="893" y="-197.5" font-family="Helvetica,sans-Serif" font-size="10.00">shared_mutex</text>
</a>
</g>
</g>
<!-- Node10&#45;&gt;Node12 -->
<g id="edge15" class="edge">
<title>Node10&#45;&gt;Node12</title>
<path fill="none" stroke="midnightblue" d="M888.83,-246.08C889.48,-239.01 890.42,-228.86 891.24,-219.99"/>
<polygon fill="midnightblue" stroke="midnightblue" points="894.75,-220.03 892.19,-209.75 887.78,-219.39 894.75,-220.03"/>
</g>
<!-- Node10&#45;&gt;Node13 -->
<g id="edge16" class="edge">
<title>Node10&#45;&gt;Node13</title>
<path fill="none" stroke="midnightblue" d="M835.39,-246.44C776.51,-236.87 681.15,-221.36 618.51,-211.17"/>
<polygon fill="midnightblue" stroke="midnightblue" points="618.79,-207.67 608.36,-209.52 617.67,-214.58 618.79,-207.67"/>
</g>
<!-- Node10&#45;&gt;Node20 -->
<g id="edge25" class="edge">
<title>Node10&#45;&gt;Node20</title>
<path fill="none" stroke="midnightblue" d="M923.49,-246.44C962.32,-237.08 1024.66,-222.06 1066.92,-211.87"/>
<polygon fill="midnightblue" stroke="midnightblue" points="1067.77,-215.26 1076.67,-209.52 1066.13,-208.46 1067.77,-215.26"/>
</g>
<!-- Node13&#45;&gt;Node2 -->
<g id="edge17" class="edge">
<title>Node13&#45;&gt;Node2</title>
<path fill="none" stroke="midnightblue" d="M513.39,-190.45C478.11,-182.41 432.05,-169.33 421,-154 415.8,-146.79 415.34,-140.86 421,-134 444.99,-104.92 544.65,-92.39 613.63,-87.13"/>
<polygon fill="midnightblue" stroke="midnightblue" points="614.28,-90.59 624,-86.38 613.77,-83.61 614.28,-90.59"/>
</g>
<!-- Node14 -->
<g id="node14" class="node">
<title>Node14</title>
<g id="a_node14"><a xlink:title=" ">
<polygon fill="white" stroke="#bfbfbf" points="430.5,-134.5 430.5,-153.5 499.5,-153.5 499.5,-134.5 430.5,-134.5"/>
<text text-anchor="middle" x="465" y="-141.5" font-family="Helvetica,sans-Serif" font-size="10.00">type_traits</text>
</a>
</g>
</g>
<!-- Node13&#45;&gt;Node14 -->
<g id="edge18" class="edge">
<title>Node13&#45;&gt;Node14</title>
<path fill="none" stroke="midnightblue" d="M541.38,-190.32C527.05,-181.82 504.99,-168.73 488.25,-158.8"/>
<polygon fill="midnightblue" stroke="midnightblue" points="489.97,-155.75 479.58,-153.65 486.4,-161.77 489.97,-155.75"/>
</g>
<!-- Node15 -->
<g id="node15" class="node">
<title>Node15</title>
<g id="a_node15"><a xlink:title=" ">
<polygon fill="white" stroke="#bfbfbf" points="710.5,-134.5 710.5,-153.5 775.5,-153.5 775.5,-134.5 710.5,-134.5"/>
<text text-anchor="middle" x="743" y="-141.5" font-family="Helvetica,sans-Serif" font-size="10.00">functional</text>
</a>
</g>
</g>
<!-- Node13&#45;&gt;Node15 -->
<g id="edge19" class="edge">
<title>Node13&#45;&gt;Node15</title>
<path fill="none" stroke="midnightblue" d="M585.63,-190.44C617.5,-181.24 668.33,-166.56 703.56,-156.39"/>
<polygon fill="midnightblue" stroke="midnightblue" points="704.87,-159.65 713.51,-153.52 702.93,-152.93 704.87,-159.65"/>
</g>
<!-- Node16 -->
<g id="node16" class="node">
<title>Node16</title>
<g id="a_node16"><a xlink:title=" ">
<polygon fill="white" stroke="#bfbfbf" points="518,-134.5 518,-153.5 562,-153.5 562,-134.5 518,-134.5"/>
<text text-anchor="middle" x="540" y="-141.5" font-family="Helvetica,sans-Serif" font-size="10.00">string</text>
</a>
</g>
</g>
<!-- Node13&#45;&gt;Node16 -->
<g id="edge20" class="edge">
<title>Node13&#45;&gt;Node16</title>
<path fill="none" stroke="midnightblue" d="M553.36,-190.08C551.21,-182.85 548.12,-172.41 545.45,-163.4"/>
<polygon fill="midnightblue" stroke="midnightblue" points="548.79,-162.34 542.59,-153.75 542.08,-164.33 548.79,-162.34"/>
</g>
<!-- Node17 -->
<g id="node17" class="node">
<title>Node17</title>
<g id="a_node17"><a xlink:title=" ">
<polygon fill="white" stroke="#bfbfbf" points="580.5,-134.5 580.5,-153.5 653.5,-153.5 653.5,-134.5 580.5,-134.5"/>
<text text-anchor="middle" x="617" y="-141.5" font-family="Helvetica,sans-Serif" font-size="10.00">string_view</text>
</a>
</g>
</g>
<!-- Node13&#45;&gt;Node17 -->
<g id="edge21" class="edge">
<title>Node13&#45;&gt;Node17</title>
<path fill="none" stroke="midnightblue" d="M565.8,-190.32C574.82,-182.34 588.41,-170.31 599.32,-160.65"/>
<polygon fill="midnightblue" stroke="midnightblue" points="601.85,-163.08 607.02,-153.83 597.21,-157.84 601.85,-163.08"/>
</g>
<!-- Node18 -->
<g id="node18" class="node">
<title>Node18</title>
<g id="a_node18"><a xlink:href="tchar_8h.html" target="_top" xlink:title=" ">
<polygon fill="white" stroke="black" points="198.5,-134.5 198.5,-153.5 297.5,-153.5 297.5,-134.5 198.5,-134.5"/>
<text text-anchor="middle" x="248" y="-141.5" font-family="Helvetica,sans-Serif" font-size="10.00">log4cplus/tchar.h</text>
</a>
</g>
</g>
<!-- Node13&#45;&gt;Node18 -->
<g id="edge22" class="edge">
<title>Node13&#45;&gt;Node18</title>
<path fill="none" stroke="midnightblue" d="M507.2,-190.44C452.79,-180.9 364.83,-165.48 306.71,-155.29"/>
<polygon fill="midnightblue" stroke="midnightblue" points="307.03,-151.8 296.58,-153.52 305.82,-158.69 307.03,-151.8"/>
</g>
<!-- Node18&#45;&gt;Node2 -->
<g id="edge23" class="edge">
<title>Node18&#45;&gt;Node2</title>
<path fill="none" stroke="midnightblue" d="M297.61,-136C302.47,-135.32 307.33,-134.65 312,-134 417.34,-119.4 539.6,-102.78 613.84,-92.72"/>
<polygon fill="midnightblue" stroke="midnightblue" points="614.55,-96.15 623.99,-91.34 613.61,-89.22 614.55,-96.15"/>
</g>
<!-- Node19 -->
<g id="node19" class="node">
<title>Node19</title>
<g id="a_node19"><a xlink:title=" ">
<polygon fill="white" stroke="#bfbfbf" points="221.5,-73 221.5,-92 274.5,-92 274.5,-73 221.5,-73"/>
<text text-anchor="middle" x="248" y="-80" font-family="Helvetica,sans-Serif" font-size="10.00">cstddef</text>
</a>
</g>
</g>
<!-- Node18&#45;&gt;Node19 -->
<g id="edge24" class="edge">
<title>Node18&#45;&gt;Node19</title>
<path fill="none" stroke="midnightblue" d="M248,-134.48C248,-126.08 248,-112.98 248,-102.16"/>
<polygon fill="midnightblue" stroke="midnightblue" points="251.5,-102.01 248,-92.01 244.5,-102.01 251.5,-102.01"/>
</g>
<!-- Node20&#45;&gt;Node2 -->
<g id="edge26" class="edge">
<title>Node20&#45;&gt;Node2</title>
<path fill="none" stroke="midnightblue" d="M1054.11,-190.43C1010.73,-183.13 950.27,-171.09 899,-154 879,-147.33 875.73,-141.4 856,-134 813.11,-117.91 762.71,-103.78 727.23,-94.59"/>
<polygon fill="midnightblue" stroke="midnightblue" points="727.73,-91.11 717.18,-92.02 725.99,-97.89 727.73,-91.11"/>
</g>
<!-- Node21 -->
<g id="node21" class="node">
<title>Node21</title>
<g id="a_node21"><a xlink:href="syncprims_8h.html" target="_top" xlink:title=" ">
<polygon fill="white" stroke="black" points="908,-134.5 908,-153.5 1068,-153.5 1068,-134.5 908,-134.5"/>
<text text-anchor="middle" x="988" y="-141.5" font-family="Helvetica,sans-Serif" font-size="10.00">log4cplus/thread/syncprims.h</text>
</a>
</g>
</g>
<!-- Node20&#45;&gt;Node21 -->
<g id="edge27" class="edge">
<title>Node20&#45;&gt;Node21</title>
<path fill="none" stroke="midnightblue" d="M1092.35,-190.44C1072.04,-181.6 1040.1,-167.69 1016.9,-157.59"/>
<polygon fill="midnightblue" stroke="midnightblue" points="1018.12,-154.3 1007.56,-153.52 1015.33,-160.72 1018.12,-154.3"/>
</g>
<!-- Node25 -->
<g id="node25" class="node">
<title>Node25</title>
<g id="a_node25"><a xlink:title=" ">
<polygon fill="white" stroke="#bfbfbf" points="1156,-134.5 1156,-153.5 1220,-153.5 1220,-134.5 1156,-134.5"/>
<text text-anchor="middle" x="1188" y="-141.5" font-family="Helvetica,sans-Serif" font-size="10.00">algorithm</text>
</a>
</g>
</g>
<!-- Node20&#45;&gt;Node25 -->
<g id="edge32" class="edge">
<title>Node20&#45;&gt;Node25</title>
<path fill="none" stroke="midnightblue" d="M1124.21,-190.32C1135.78,-182.11 1153.38,-169.6 1167.16,-159.81"/>
<polygon fill="midnightblue" stroke="midnightblue" points="1169.44,-162.48 1175.57,-153.83 1165.39,-156.77 1169.44,-162.48"/>
</g>
<!-- Node26 -->
<g id="node26" class="node">
<title>Node26</title>
<g id="a_node26"><a xlink:title=" ">
<polygon fill="white" stroke="#bfbfbf" points="1086,-134.5 1086,-153.5 1138,-153.5 1138,-134.5 1086,-134.5"/>
<text text-anchor="middle" x="1112" y="-141.5" font-family="Helvetica,sans-Serif" font-size="10.00">cassert</text>
</a>
</g>
</g>
<!-- Node20&#45;&gt;Node26 -->
<g id="edge33" class="edge">
<title>Node20&#45;&gt;Node26</title>
<path fill="none" stroke="midnightblue" d="M1112,-190.08C1112,-183.01 1112,-172.86 1112,-163.99"/>
<polygon fill="midnightblue" stroke="midnightblue" points="1115.5,-163.75 1112,-153.75 1108.5,-163.75 1115.5,-163.75"/>
</g>
<!-- Node20&#45;&gt;Node27 -->
<g id="edge34" class="edge">
<title>Node20&#45;&gt;Node27</title>
<path fill="none" stroke="midnightblue" d="M1135.93,-190.44C1161.22,-181.4 1201.3,-167.06 1229.68,-156.92"/>
<polygon fill="midnightblue" stroke="midnightblue" points="1230.95,-160.18 1239.19,-153.52 1228.59,-153.59 1230.95,-160.18"/>
</g>
<!-- Node21&#45;&gt;Node2 -->
<g id="edge28" class="edge">
<title>Node21&#45;&gt;Node2</title>
<path fill="none" stroke="midnightblue" d="M944.16,-134.48C889.17,-123.78 794.93,-105.46 735.68,-93.94"/>
<polygon fill="midnightblue" stroke="midnightblue" points="736.25,-90.48 725.76,-92.01 734.91,-97.35 736.25,-90.48"/>
</g>
<!-- Node21&#45;&gt;Node22 -->
<g id="edge29" class="edge">
<title>Node21&#45;&gt;Node22</title>
<path fill="none" stroke="midnightblue" d="M1017.8,-134.48C1055.93,-123.57 1121.83,-104.72 1161.92,-93.25"/>
<polygon fill="midnightblue" stroke="midnightblue" points="1163.11,-96.55 1171.76,-90.43 1161.19,-89.82 1163.11,-96.55"/>
</g>
<!-- Node21&#45;&gt;Node23 -->
<g id="edge30" class="edge">
<title>Node21&#45;&gt;Node23</title>
<path fill="none" stroke="midnightblue" d="M1038.72,-134.48C1102.73,-123.72 1212.71,-105.23 1281.17,-93.72"/>
<polygon fill="midnightblue" stroke="midnightblue" points="1282.09,-97.12 1291.37,-92.01 1280.93,-90.22 1282.09,-97.12"/>
</g>
<!-- Node24 -->
<g id="node24" class="node">
<title>Node24</title>
<g id="a_node24"><a xlink:href="threadsafetyanalysis_8h.html" target="_top" xlink:title=" ">
<polygon fill="white" stroke="black" points="922.5,-67.5 922.5,-97.5 1053.5,-97.5 1053.5,-67.5 922.5,-67.5"/>
<text text-anchor="start" x="930.5" y="-85.5" font-family="Helvetica,sans-Serif" font-size="10.00">log4cplus/internal</text>
<text text-anchor="middle" x="988" y="-74.5" font-family="Helvetica,sans-Serif" font-size="10.00">/threadsafetyanalysis.h</text>
</a>
</g>
</g>
<!-- Node21&#45;&gt;Node24 -->
<g id="edge31" class="edge">
<title>Node21&#45;&gt;Node24</title>
<path fill="none" stroke="midnightblue" d="M988,-134.48C988,-127.47 988,-117.19 988,-107.7"/>
<polygon fill="midnightblue" stroke="midnightblue" points="991.5,-107.52 988,-97.52 984.5,-107.52 991.5,-107.52"/>
</g>
<!-- Node28&#45;&gt;Node2 -->
<g id="edge36" class="edge">
<title>Node28&#45;&gt;Node2</title>
<path fill="none" stroke="midnightblue" d="M144.65,-190.08C130.25,-176.62 107.56,-150.9 123,-134 155.5,-98.43 471.5,-87.68 613.5,-84.63"/>
<polygon fill="midnightblue" stroke="midnightblue" points="613.9,-88.12 623.83,-84.41 613.76,-81.12 613.9,-88.12"/>
</g>
<!-- Node28&#45;&gt;Node18 -->
<g id="edge37" class="edge">
<title>Node28&#45;&gt;Node18</title>
<path fill="none" stroke="midnightblue" d="M169.94,-190.32C184.59,-181.82 207.13,-168.73 224.24,-158.8"/>
<polygon fill="midnightblue" stroke="midnightblue" points="226.2,-161.7 233.1,-153.65 222.69,-155.65 226.2,-161.7"/>
</g>
<!-- Node29 -->
<g id="node29" class="node">
<title>Node29</title>
<g id="a_node29"><a xlink:title=" ">
<polygon fill="white" stroke="#bfbfbf" points="132,-134.5 132,-153.5 180,-153.5 180,-134.5 132,-134.5"/>
<text text-anchor="middle" x="156" y="-141.5" font-family="Helvetica,sans-Serif" font-size="10.00">iosfwd</text>
</a>
</g>
</g>
<!-- Node28&#45;&gt;Node29 -->
<g id="edge38" class="edge">
<title>Node28&#45;&gt;Node29</title>
<path fill="none" stroke="midnightblue" d="M155.17,-190.08C155.3,-183.01 155.48,-172.86 155.65,-163.99"/>
<polygon fill="midnightblue" stroke="midnightblue" points="159.15,-163.81 155.84,-153.75 152.15,-163.68 159.15,-163.81"/>
</g>
<!-- Node30&#45;&gt;Node2 -->
<g id="edge41" class="edge">
<title>Node30&#45;&gt;Node2</title>
<path fill="none" stroke="midnightblue" d="M286.67,-246.45C271.74,-234.08 248.64,-210.45 260,-190 271.44,-169.41 327.9,-142.16 350,-134 437.4,-101.72 545.04,-90.07 613.61,-85.86"/>
<polygon fill="midnightblue" stroke="midnightblue" points="614.07,-89.34 623.85,-85.27 613.67,-82.35 614.07,-89.34"/>
</g>
<!-- Node30&#45;&gt;Node13 -->
<g id="edge42" class="edge">
<title>Node30&#45;&gt;Node13</title>
<path fill="none" stroke="midnightblue" d="M338.88,-246.44C383.98,-237 456.61,-221.8 505.3,-211.61"/>
<polygon fill="midnightblue" stroke="midnightblue" points="506.24,-214.99 515.31,-209.52 504.81,-208.14 506.24,-214.99"/>
</g>
<!-- Node31 -->
<g id="node31" class="node">
<title>Node31</title>
<g id="a_node31"><a xlink:title=" ">
<polygon fill="white" stroke="#bfbfbf" points="337,-190.5 337,-209.5 381,-209.5 381,-190.5 337,-190.5"/>
<text text-anchor="middle" x="359" y="-197.5" font-family="Helvetica,sans-Serif" font-size="10.00">ctime</text>
</a>
</g>
</g>
<!-- Node30&#45;&gt;Node31 -->
<g id="edge43" class="edge">
<title>Node30&#45;&gt;Node31</title>
<path fill="none" stroke="midnightblue" d="M307.8,-246.32C316.82,-238.34 330.41,-226.31 341.32,-216.65"/>
<polygon fill="midnightblue" stroke="midnightblue" points="343.85,-219.08 349.02,-209.83 339.21,-213.84 343.85,-219.08"/>
</g>
<!-- Node32 -->
<g id="node32" class="node">
<title>Node32</title>
<g id="a_node32"><a xlink:title=" ">
<polygon fill="white" stroke="#bfbfbf" points="269,-190.5 269,-209.5 319,-209.5 319,-190.5 269,-190.5"/>
<text text-anchor="middle" x="294" y="-197.5" font-family="Helvetica,sans-Serif" font-size="10.00">chrono</text>
</a>
</g>
</g>
<!-- Node30&#45;&gt;Node32 -->
<g id="edge44" class="edge">
<title>Node30&#45;&gt;Node32</title>
<path fill="none" stroke="midnightblue" d="M297.34,-246.08C296.82,-239.01 296.06,-228.86 295.41,-219.99"/>
<polygon fill="midnightblue" stroke="midnightblue" points="298.88,-219.47 294.65,-209.75 291.9,-219.98 298.88,-219.47"/>
</g>
<!-- Node33&#45;&gt;Node2 -->
<g id="edge51" class="edge">
<title>Node33&#45;&gt;Node2</title>
<path fill="none" stroke="midnightblue" d="M1010.66,-302.34C1009.29,-279.89 1002.33,-219.53 967,-190 927.21,-156.74 904.64,-171.99 856,-154 834.32,-145.98 829.39,-142.74 808,-134 775.84,-120.86 738.93,-106.1 713.41,-95.95"/>
<polygon fill="midnightblue" stroke="midnightblue" points="714.47,-92.61 703.89,-92.17 711.89,-99.11 714.47,-92.61"/>
</g>
<!-- Node33&#45;&gt;Node10 -->
<g id="edge54" class="edge">
<title>Node33&#45;&gt;Node10</title>
<path fill="none" stroke="midnightblue" d="M991.51,-302.44C971.36,-293.6 939.68,-279.69 916.67,-269.59"/>
<polygon fill="midnightblue" stroke="midnightblue" points="917.96,-266.33 907.4,-265.52 915.15,-272.74 917.96,-266.33"/>
</g>
<!-- Node33&#45;&gt;Node15 -->
<g id="edge52" class="edge">
<title>Node33&#45;&gt;Node15</title>
<path fill="none" stroke="midnightblue" d="M1007.32,-302.15C996.63,-276.85 965.07,-205.11 945,-190 920.29,-171.4 837.48,-157.47 785.87,-150.34"/>
<polygon fill="midnightblue" stroke="midnightblue" points="786.06,-146.83 775.68,-148.96 785.12,-153.77 786.06,-146.83"/>
</g>
<!-- Node33&#45;&gt;Node20 -->
<g id="edge53" class="edge">
<title>Node33&#45;&gt;Node20</title>
<path fill="none" stroke="midnightblue" d="M1018.93,-302.37C1035.81,-283.97 1075.57,-240.67 1097.26,-217.05"/>
<polygon fill="midnightblue" stroke="midnightblue" points="1099.93,-219.32 1104.11,-209.59 1094.77,-214.59 1099.93,-219.32"/>
</g>
<!-- Node34&#45;&gt;Node2 -->
<g id="edge56" class="edge">
<title>Node34&#45;&gt;Node2</title>
<path fill="none" stroke="midnightblue" d="M628.54,-246.45C635.61,-229.17 651.8,-188.77 663,-154 668.58,-136.67 673.88,-116.6 677.46,-102.31"/>
<polygon fill="midnightblue" stroke="midnightblue" points="680.94,-102.81 679.93,-92.26 674.14,-101.14 680.94,-102.81"/>
</g>
<!-- Node34&#45;&gt;Node13 -->
<g id="edge57" class="edge">
<title>Node34&#45;&gt;Node13</title>
<path fill="none" stroke="midnightblue" d="M613.91,-246.32C603.51,-238.18 587.74,-225.84 575.28,-216.09"/>
<polygon fill="midnightblue" stroke="midnightblue" points="577.32,-213.24 567.29,-209.83 573.01,-218.75 577.32,-213.24"/>
</g>
<!-- Node34&#45;&gt;Node21 -->
<g id="edge58" class="edge">
<title>Node34&#45;&gt;Node21</title>
<path fill="none" stroke="midnightblue" d="M635.25,-246.47C652.83,-232.32 690.38,-204.16 727,-190 781.58,-168.89 846.39,-157.65 897.78,-151.68"/>
<polygon fill="midnightblue" stroke="midnightblue" points="898.32,-155.14 907.87,-150.55 897.55,-148.18 898.32,-155.14"/>
</g>
<!-- Node35&#45;&gt;Node2 -->
<g id="edge64" class="edge">
<title>Node35&#45;&gt;Node2</title>
<path fill="none" stroke="midnightblue" d="M81.02,-246.24C78.99,-223.01 77.19,-159.86 114,-134 154.06,-105.86 471.31,-91.06 613.49,-85.78"/>
<polygon fill="midnightblue" stroke="midnightblue" points="613.96,-89.27 623.83,-85.4 613.71,-82.27 613.96,-89.27"/>
</g>
<!-- Node35&#45;&gt;Node11 -->
<g id="edge68" class="edge">
<title>Node35&#45;&gt;Node11</title>
<path fill="none" stroke="midnightblue" d="M142.05,-246.44C222.72,-234.95 363.34,-214.91 427.44,-205.78"/>
<polygon fill="midnightblue" stroke="midnightblue" points="428,-209.24 437.41,-204.36 427.01,-202.31 428,-209.24"/>
</g>
<!-- Node35&#45;&gt;Node13 -->
<g id="edge66" class="edge">
<title>Node35&#45;&gt;Node13</title>
<path fill="none" stroke="midnightblue" d="M159.35,-247.3C239.85,-239.1 369.84,-225.39 492.46,-210.03"/>
<polygon fill="midnightblue" stroke="midnightblue" points="492.92,-213.5 502.4,-208.78 492.04,-206.56 492.92,-213.5"/>
</g>
<!-- Node35&#45;&gt;Node28 -->
<g id="edge65" class="edge">
<title>Node35&#45;&gt;Node28</title>
<path fill="none" stroke="midnightblue" d="M93.73,-246.32C104.84,-238.11 121.74,-225.6 134.98,-215.81"/>
<polygon fill="midnightblue" stroke="midnightblue" points="137.1,-218.59 143.06,-209.83 132.94,-212.97 137.1,-218.59"/>
</g>
<!-- Node36 -->
<g id="node36" class="node">
<title>Node36</title>
<g id="a_node36"><a xlink:title=" ">
<polygon fill="white" stroke="#bfbfbf" points="0,-190.5 0,-209.5 38,-209.5 38,-190.5 0,-190.5"/>
<text text-anchor="middle" x="19" y="-197.5" font-family="Helvetica,sans-Serif" font-size="10.00">map</text>
</a>
</g>
</g>
<!-- Node35&#45;&gt;Node36 -->
<g id="edge67" class="edge">
<title>Node35&#45;&gt;Node36</title>
<path fill="none" stroke="midnightblue" d="M71.88,-246.32C62.47,-238.26 48.26,-226.08 36.93,-216.37"/>
<polygon fill="midnightblue" stroke="midnightblue" points="39.18,-213.68 29.31,-209.83 34.62,-219 39.18,-213.68"/>
</g>
</g>
</svg>
