<?xml version="1.0" encoding="UTF-8" standalone="no"?>
<!DOCTYPE svg PUBLIC "-//W3C//DTD SVG 1.1//EN"
 "http://www.w3.org/Graphics/SVG/1.1/DTD/svg11.dtd">
<!-- Generated by graphviz version 2.43.0 (0)
 -->
<!-- Title: internal Pages: 1 -->
<svg width="310pt" height="167pt"
 viewBox="0.00 0.00 310.00 167.00" xmlns="http://www.w3.org/2000/svg" xmlns:xlink="http://www.w3.org/1999/xlink">
<g id="graph0" class="graph" transform="scale(1 1) rotate(0) translate(4 163)">
<title>internal</title>
<polygon fill="white" stroke="transparent" points="-4,4 -4,-163 306,-163 306,4 -4,4"/>
<g id="clust1" class="cluster">
<title>clusterdir_c1127a47df8dad6101631a17711b0d4b</title>
<g id="a_clust1"><a xlink:href="dir_c1127a47df8dad6101631a17711b0d4b.html" target="_top" xlink:title="log4cplus">
<polygon fill="#edf0f7" stroke="#7f7f7f" stroke-dasharray="5,2" points="8,-8 8,-151 294,-151 294,-8 8,-8"/>
<text text-anchor="middle" x="151" y="-139" font-family="Helvetica,sans-Serif" font-size="10.00">log4cplus</text>
</a>
</g>
</g>
<!-- dir_15e0ad6291f54c01f72f2b7a09f5a39a -->
<g id="node1" class="node">
<title>dir_15e0ad6291f54c01f72f2b7a09f5a39a</title>
<g id="a_node1"><a xlink:href="dir_15e0ad6291f54c01f72f2b7a09f5a39a.html" target="_top" xlink:title="helpers">
<polygon fill="#a2b4d6" stroke="#404040" points="70,-52 16,-52 16,-16 70,-16 70,-52"/>
<text text-anchor="middle" x="43" y="-31.5" font-family="Helvetica,sans-Serif" font-size="10.00">helpers</text>
</a>
</g>
</g>
<!-- dir_853879e30bdf8afe9a7079a6b1a108d0 -->
<g id="node2" class="node">
<title>dir_853879e30bdf8afe9a7079a6b1a108d0</title>
<g id="a_node2"><a xlink:href="dir_853879e30bdf8afe9a7079a6b1a108d0.html" target="_top" xlink:title="thread">
<polygon fill="#a2b4d6" stroke="red" points="142,-52 88,-52 88,-16 142,-16 142,-52"/>
<text text-anchor="middle" x="115" y="-31.5" font-family="Helvetica,sans-Serif" font-size="10.00">thread</text>
</a>
</g>
</g>
<!-- dir_978d533c27f1e6af39004a1d79354223 -->
<g id="node3" class="node">
<title>dir_978d533c27f1e6af39004a1d79354223</title>
<g id="a_node3"><a xlink:href="dir_978d533c27f1e6af39004a1d79354223.html" target="_top" xlink:title="spi">
<polygon fill="#a2b4d6" stroke="#404040" points="214,-52 160,-52 160,-16 214,-16 214,-52"/>
<text text-anchor="middle" x="187" y="-31.5" font-family="Helvetica,sans-Serif" font-size="10.00">spi</text>
</a>
</g>
</g>
<!-- dir_beaf3939c5b2e4f56ef965799f9263aa -->
<g id="node4" class="node">
<title>dir_beaf3939c5b2e4f56ef965799f9263aa</title>
<g id="a_node4"><a xlink:href="dir_beaf3939c5b2e4f56ef965799f9263aa.html" target="_top" xlink:title="config">
<polygon fill="#a2b4d6" stroke="#404040" points="286,-52 232,-52 232,-16 286,-16 286,-52"/>
<text text-anchor="middle" x="259" y="-31.5" font-family="Helvetica,sans-Serif" font-size="10.00">config</text>
</a>
</g>
</g>
<!-- dir_fa6d830662653e00a3f098549d35e05d -->
<g id="node5" class="node">
<title>dir_fa6d830662653e00a3f098549d35e05d</title>
<g id="a_node5"><a xlink:href="dir_fa6d830662653e00a3f098549d35e05d.html" target="_top" xlink:title="internal">
<polygon fill="#edf0f7" stroke="#404040" stroke-width="2" points="178,-124 124,-124 124,-88 178,-88 178,-124"/>
<text text-anchor="middle" x="151" y="-103.5" font-family="Helvetica,sans-Serif" font-size="10.00">internal</text>
</a>
</g>
</g>
<!-- dir_fa6d830662653e00a3f098549d35e05d&#45;&gt;dir_15e0ad6291f54c01f72f2b7a09f5a39a -->
<g id="edge1" class="edge">
<title>dir_fa6d830662653e00a3f098549d35e05d&#45;&gt;dir_15e0ad6291f54c01f72f2b7a09f5a39a</title>
<path fill="none" stroke="black" d="M124.58,-87.88C110.59,-78.81 93.22,-67.55 78.11,-57.76"/>
<polygon fill="black" stroke="black" points="79.82,-54.69 69.52,-52.19 76.01,-60.57 79.82,-54.69"/>
<g id="a_edge1&#45;headlabel"><a xlink:href="dir_000005_000002.html" target="_top" xlink:title="2">
<text text-anchor="middle" x="84.38" y="-51.76" font-family="Helvetica,sans-Serif" font-size="10.00">2</text>
</a>
</g>
</g>
<!-- dir_fa6d830662653e00a3f098549d35e05d&#45;&gt;dir_853879e30bdf8afe9a7079a6b1a108d0 -->
<g id="edge2" class="edge">
<title>dir_fa6d830662653e00a3f098549d35e05d&#45;&gt;dir_853879e30bdf8afe9a7079a6b1a108d0</title>
<path fill="none" stroke="black" d="M142.1,-87.7C138,-79.73 133.05,-70.1 128.51,-61.26"/>
<polygon fill="black" stroke="black" points="131.48,-59.4 123.8,-52.1 125.26,-62.6 131.48,-59.4"/>
<g id="a_edge2&#45;headlabel"><a xlink:href="dir_000005_000008.html" target="_top" xlink:title="2">
<text text-anchor="middle" x="135.65" y="-58.79" font-family="Helvetica,sans-Serif" font-size="10.00">2</text>
</a>
</g>
</g>
<!-- dir_fa6d830662653e00a3f098549d35e05d&#45;&gt;dir_978d533c27f1e6af39004a1d79354223 -->
<g id="edge3" class="edge">
<title>dir_fa6d830662653e00a3f098549d35e05d&#45;&gt;dir_978d533c27f1e6af39004a1d79354223</title>
<path fill="none" stroke="black" d="M159.9,-87.7C164,-79.73 168.95,-70.1 173.49,-61.26"/>
<polygon fill="black" stroke="black" points="176.74,-62.6 178.2,-52.1 170.52,-59.4 176.74,-62.6"/>
<g id="a_edge3&#45;headlabel"><a xlink:href="dir_000005_000007.html" target="_top" xlink:title="1">
<text text-anchor="middle" x="177.62" y="-64.59" font-family="Helvetica,sans-Serif" font-size="10.00">1</text>
</a>
</g>
</g>
<!-- dir_fa6d830662653e00a3f098549d35e05d&#45;&gt;dir_beaf3939c5b2e4f56ef965799f9263aa -->
<g id="edge4" class="edge">
<title>dir_fa6d830662653e00a3f098549d35e05d&#45;&gt;dir_beaf3939c5b2e4f56ef965799f9263aa</title>
<path fill="none" stroke="black" d="M177.42,-87.88C191.41,-78.81 208.78,-67.55 223.89,-57.76"/>
<polygon fill="black" stroke="black" points="225.99,-60.57 232.48,-52.19 222.18,-54.69 225.99,-60.57"/>
<g id="a_edge4&#45;headlabel"><a xlink:href="dir_000005_000001.html" target="_top" xlink:title="2">
<text text-anchor="middle" x="224.52" y="-62.4" font-family="Helvetica,sans-Serif" font-size="10.00">2</text>
</a>
</g>
</g>
</g>
</svg>
