<?xml version="1.0" encoding="UTF-8" standalone="no"?>
<!DOCTYPE svg PUBLIC "-//W3C//DTD SVG 1.1//EN"
 "http://www.w3.org/Graphics/SVG/1.1/DTD/svg11.dtd">
<!-- Generated by graphviz version 2.43.0 (0)
 -->
<!-- Title: impl Pages: 1 -->
<svg width="206pt" height="151pt"
 viewBox="0.00 0.00 206.00 151.00" xmlns="http://www.w3.org/2000/svg" xmlns:xlink="http://www.w3.org/1999/xlink">
<g id="graph0" class="graph" transform="scale(1 1) rotate(0) translate(4 147)">
<title>impl</title>
<polygon fill="white" stroke="transparent" points="-4,4 -4,-147 202,-147 202,4 -4,4"/>
<g id="clust1" class="cluster">
<title>clusterdir_853879e30bdf8afe9a7079a6b1a108d0</title>
<g id="a_clust1"><a xlink:href="dir_853879e30bdf8afe9a7079a6b1a108d0.html" target="_top" xlink:title="thread">
<polygon fill="#edf0f7" stroke="#7f7f7f" stroke-dasharray="5,2" points="64,-64 64,-135 134,-135 134,-64 64,-64"/>
<text text-anchor="middle" x="99" y="-123" font-family="Helvetica,sans-Serif" font-size="10.00">thread</text>
</a>
</g>
</g>
<!-- dir_8365f885db0e24c0a4a28d7556850d67 -->
<g id="node1" class="node">
<title>dir_8365f885db0e24c0a4a28d7556850d67</title>
<g id="a_node1"><a xlink:href="dir_8365f885db0e24c0a4a28d7556850d67.html" target="_top" xlink:title="impl">
<polygon fill="#edf0f7" stroke="#404040" stroke-width="2" points="126,-108 72,-108 72,-72 126,-72 126,-108"/>
<text text-anchor="middle" x="99" y="-87.5" font-family="Helvetica,sans-Serif" font-size="10.00">impl</text>
</a>
</g>
</g>
<!-- dir_15e0ad6291f54c01f72f2b7a09f5a39a -->
<g id="node2" class="node">
<title>dir_15e0ad6291f54c01f72f2b7a09f5a39a</title>
<g id="a_node2"><a xlink:href="dir_15e0ad6291f54c01f72f2b7a09f5a39a.html" target="_top" xlink:title="helpers">
<polygon fill="none" stroke="#7f7f7f" points="54,-36 0,-36 0,0 54,0 54,-36"/>
<text text-anchor="middle" x="27" y="-15.5" font-family="Helvetica,sans-Serif" font-size="10.00">helpers</text>
</a>
</g>
</g>
<!-- dir_8365f885db0e24c0a4a28d7556850d67&#45;&gt;dir_15e0ad6291f54c01f72f2b7a09f5a39a -->
<g id="edge1" class="edge">
<title>dir_8365f885db0e24c0a4a28d7556850d67&#45;&gt;dir_15e0ad6291f54c01f72f2b7a09f5a39a</title>
<path fill="none" stroke="black" d="M81.2,-71.7C72.4,-63.14 61.62,-52.66 52,-43.3"/>
<polygon fill="black" stroke="black" points="54.2,-40.57 44.59,-36.1 49.32,-45.58 54.2,-40.57"/>
<g id="a_edge1&#45;headlabel"><a xlink:href="dir_000003_000002.html" target="_top" xlink:title="1">
<text text-anchor="middle" x="58.76" y="-38.54" font-family="Helvetica,sans-Serif" font-size="10.00">1</text>
</a>
</g>
</g>
<!-- dir_beaf3939c5b2e4f56ef965799f9263aa -->
<g id="node3" class="node">
<title>dir_beaf3939c5b2e4f56ef965799f9263aa</title>
<g id="a_node3"><a xlink:href="dir_beaf3939c5b2e4f56ef965799f9263aa.html" target="_top" xlink:title="config">
<polygon fill="none" stroke="#7f7f7f" points="126,-36 72,-36 72,0 126,0 126,-36"/>
<text text-anchor="middle" x="99" y="-15.5" font-family="Helvetica,sans-Serif" font-size="10.00">config</text>
</a>
</g>
</g>
<!-- dir_8365f885db0e24c0a4a28d7556850d67&#45;&gt;dir_beaf3939c5b2e4f56ef965799f9263aa -->
<g id="edge2" class="edge">
<title>dir_8365f885db0e24c0a4a28d7556850d67&#45;&gt;dir_beaf3939c5b2e4f56ef965799f9263aa</title>
<path fill="none" stroke="black" d="M99,-71.7C99,-63.98 99,-54.71 99,-46.11"/>
<polygon fill="black" stroke="black" points="102.5,-46.1 99,-36.1 95.5,-46.1 102.5,-46.1"/>
<g id="a_edge2&#45;headlabel"><a xlink:href="dir_000003_000001.html" target="_top" xlink:title="1">
<text text-anchor="middle" x="105.34" y="-47.2" font-family="Helvetica,sans-Serif" font-size="10.00">1</text>
</a>
</g>
</g>
<!-- dir_fa6d830662653e00a3f098549d35e05d -->
<g id="node4" class="node">
<title>dir_fa6d830662653e00a3f098549d35e05d</title>
<g id="a_node4"><a xlink:href="dir_fa6d830662653e00a3f098549d35e05d.html" target="_top" xlink:title="internal">
<polygon fill="none" stroke="#7f7f7f" points="198,-36 144,-36 144,0 198,0 198,-36"/>
<text text-anchor="middle" x="171" y="-15.5" font-family="Helvetica,sans-Serif" font-size="10.00">internal</text>
</a>
</g>
</g>
<!-- dir_8365f885db0e24c0a4a28d7556850d67&#45;&gt;dir_fa6d830662653e00a3f098549d35e05d -->
<g id="edge3" class="edge">
<title>dir_8365f885db0e24c0a4a28d7556850d67&#45;&gt;dir_fa6d830662653e00a3f098549d35e05d</title>
<path fill="none" stroke="black" d="M116.8,-71.7C125.6,-63.14 136.38,-52.66 146,-43.3"/>
<polygon fill="black" stroke="black" points="148.68,-45.58 153.41,-36.1 143.8,-40.57 148.68,-45.58"/>
<g id="a_edge3&#45;headlabel"><a xlink:href="dir_000003_000005.html" target="_top" xlink:title="1">
<text text-anchor="middle" x="148.08" y="-47.63" font-family="Helvetica,sans-Serif" font-size="10.00">1</text>
</a>
</g>
</g>
</g>
</svg>
