<?xml version="1.0" encoding="UTF-8" standalone="no"?>
<!DOCTYPE svg PUBLIC "-//W3C//DTD SVG 1.1//EN"
 "http://www.w3.org/Graphics/SVG/1.1/DTD/svg11.dtd">
<!-- Generated by graphviz version 2.43.0 (0)
 -->
<!-- Title: log4cplus Pages: 1 -->
<svg width="210pt" height="471pt"
 viewBox="0.00 0.00 210.00 471.00" xmlns="http://www.w3.org/2000/svg" xmlns:xlink="http://www.w3.org/1999/xlink">
<g id="graph0" class="graph" transform="scale(1 1) rotate(0) translate(4 467)">
<title>log4cplus</title>
<polygon fill="white" stroke="transparent" points="-4,4 -4,-467 206,-467 206,4 -4,4"/>
<g id="clust1" class="cluster">
<title>clusterdir_d44c64559bbebec7f509842c48db8b23</title>
<g id="a_clust1"><a xlink:href="dir_d44c64559bbebec7f509842c48db8b23.html" target="_top" xlink:title="include">
<polygon fill="#edf0f7" stroke="#404040" stroke-dasharray="5,2" points="8,-8 8,-455 194,-455 194,-8 8,-8"/>
<text text-anchor="middle" x="101" y="-443" font-family="Helvetica,sans-Serif" font-size="10.00">include</text>
</a>
</g>
</g>
<g id="clust2" class="cluster">
<title>clusterdir_c1127a47df8dad6101631a17711b0d4b</title>
<g id="a_clust2"><a xlink:href="dir_c1127a47df8dad6101631a17711b0d4b.html" target="_top">
<polygon fill="#edf0f7" stroke="#404040" stroke-width="2" points="16,-16 16,-428 186,-428 186,-16 16,-16"/>
</a>
</g>
</g>
<!-- dir_c1127a47df8dad6101631a17711b0d4b -->
<g id="node1" class="node">
<title>dir_c1127a47df8dad6101631a17711b0d4b</title>
<text text-anchor="middle" x="56" y="-399.5" font-family="Helvetica,sans-Serif" font-size="10.00">log4cplus</text>
</g>
<!-- dir_beaf3939c5b2e4f56ef965799f9263aa -->
<g id="node3" class="node">
<title>dir_beaf3939c5b2e4f56ef965799f9263aa</title>
<g id="a_node3"><a xlink:href="dir_beaf3939c5b2e4f56ef965799f9263aa.html" target="_top" xlink:title="config">
<polygon fill="#a2b4d6" stroke="#404040" points="118,-60 64,-60 64,-24 118,-24 118,-60"/>
<text text-anchor="middle" x="91" y="-39.5" font-family="Helvetica,sans-Serif" font-size="10.00">config</text>
</a>
</g>
</g>
<!-- dir_c1127a47df8dad6101631a17711b0d4b&#45;&gt;dir_beaf3939c5b2e4f56ef965799f9263aa -->
<g id="edge4" class="edge">
<title>dir_c1127a47df8dad6101631a17711b0d4b&#45;&gt;dir_beaf3939c5b2e4f56ef965799f9263aa</title>
<path fill="none" stroke="black" d="M49.73,-383.78C40.67,-357.32 25,-304.92 25,-259 25,-259 25,-259 25,-185 25,-140.84 51.57,-95.56 70.99,-68.35"/>
<polygon fill="black" stroke="black" points="73.9,-70.31 77,-60.18 68.26,-66.16 73.9,-70.31"/>
<g id="a_edge4&#45;headlabel"><a xlink:href="dir_000006_000001.html" target="_top" xlink:title="5">
<text text-anchor="middle" x="74.05" y="-72.38" font-family="Helvetica,sans-Serif" font-size="10.00">5</text>
</a>
</g>
</g>
<!-- dir_15e0ad6291f54c01f72f2b7a09f5a39a -->
<g id="node4" class="node">
<title>dir_15e0ad6291f54c01f72f2b7a09f5a39a</title>
<g id="a_node4"><a xlink:href="dir_15e0ad6291f54c01f72f2b7a09f5a39a.html" target="_top" xlink:title="helpers">
<polygon fill="#a2b4d6" stroke="#404040" points="138,-348 84,-348 84,-312 138,-312 138,-348"/>
<text text-anchor="middle" x="111" y="-327.5" font-family="Helvetica,sans-Serif" font-size="10.00">helpers</text>
</a>
</g>
</g>
<!-- dir_c1127a47df8dad6101631a17711b0d4b&#45;&gt;dir_15e0ad6291f54c01f72f2b7a09f5a39a -->
<g id="edge1" class="edge">
<title>dir_c1127a47df8dad6101631a17711b0d4b&#45;&gt;dir_15e0ad6291f54c01f72f2b7a09f5a39a</title>
<path fill="none" stroke="black" d="M69.6,-383.7C76.12,-375.39 84.07,-365.28 91.25,-356.14"/>
<polygon fill="black" stroke="black" points="94.13,-358.13 97.56,-348.1 88.63,-353.81 94.13,-358.13"/>
<g id="a_edge1&#45;headlabel"><a xlink:href="dir_000006_000002.html" target="_top" xlink:title="29">
<text text-anchor="middle" x="94.15" y="-360.21" font-family="Helvetica,sans-Serif" font-size="10.00">29</text>
</a>
</g>
</g>
<!-- dir_978d533c27f1e6af39004a1d79354223 -->
<g id="node6" class="node">
<title>dir_978d533c27f1e6af39004a1d79354223</title>
<g id="a_node6"><a xlink:href="dir_978d533c27f1e6af39004a1d79354223.html" target="_top" xlink:title="spi">
<polygon fill="#a2b4d6" stroke="#404040" points="138,-204 84,-204 84,-168 138,-168 138,-204"/>
<text text-anchor="middle" x="111" y="-183.5" font-family="Helvetica,sans-Serif" font-size="10.00">spi</text>
</a>
</g>
</g>
<!-- dir_c1127a47df8dad6101631a17711b0d4b&#45;&gt;dir_978d533c27f1e6af39004a1d79354223 -->
<g id="edge3" class="edge">
<title>dir_c1127a47df8dad6101631a17711b0d4b&#45;&gt;dir_978d533c27f1e6af39004a1d79354223</title>
<path fill="none" stroke="black" d="M59.29,-383.86C62.83,-365.87 68.78,-336.83 75,-312 83.53,-277.92 94.99,-239.1 102.67,-213.89"/>
<polygon fill="black" stroke="black" points="106.02,-214.87 105.61,-204.29 99.33,-212.82 106.02,-214.87"/>
<g id="a_edge3&#45;headlabel"><a xlink:href="dir_000006_000007.html" target="_top" xlink:title="9">
<text text-anchor="middle" x="107.69" y="-216.64" font-family="Helvetica,sans-Serif" font-size="10.00">9</text>
</a>
</g>
</g>
<!-- dir_853879e30bdf8afe9a7079a6b1a108d0 -->
<g id="node7" class="node">
<title>dir_853879e30bdf8afe9a7079a6b1a108d0</title>
<g id="a_node7"><a xlink:href="dir_853879e30bdf8afe9a7079a6b1a108d0.html" target="_top" xlink:title="thread">
<polygon fill="#a2b4d6" stroke="#404040" points="118,-132 64,-132 64,-96 118,-96 118,-132"/>
<text text-anchor="middle" x="91" y="-111.5" font-family="Helvetica,sans-Serif" font-size="10.00">thread</text>
</a>
</g>
</g>
<!-- dir_c1127a47df8dad6101631a17711b0d4b&#45;&gt;dir_853879e30bdf8afe9a7079a6b1a108d0 -->
<g id="edge2" class="edge">
<title>dir_c1127a47df8dad6101631a17711b0d4b&#45;&gt;dir_853879e30bdf8afe9a7079a6b1a108d0</title>
<path fill="none" stroke="black" d="M55.19,-383.79C53.76,-344.83 52.42,-247.12 70,-168 71.97,-159.11 75.24,-149.77 78.62,-141.44"/>
<polygon fill="black" stroke="black" points="81.85,-142.8 82.56,-132.22 75.41,-140.04 81.85,-142.8"/>
<g id="a_edge2&#45;headlabel"><a xlink:href="dir_000006_000008.html" target="_top" xlink:title="17">
<text text-anchor="middle" x="83.04" y="-144.72" font-family="Helvetica,sans-Serif" font-size="10.00">17</text>
</a>
</g>
</g>
<!-- dir_3211d121ecc3b8c63a5aff086e15ca89 -->
<g id="node2" class="node">
<title>dir_3211d121ecc3b8c63a5aff086e15ca89</title>
<g id="a_node2"><a xlink:href="dir_3211d121ecc3b8c63a5aff086e15ca89.html" target="_top" xlink:title="boost">
<polygon fill="#a2b4d6" stroke="#404040" points="160,-420 106,-420 106,-384 160,-384 160,-420"/>
<text text-anchor="middle" x="133" y="-399.5" font-family="Helvetica,sans-Serif" font-size="10.00">boost</text>
</a>
</g>
</g>
<!-- dir_3211d121ecc3b8c63a5aff086e15ca89&#45;&gt;dir_15e0ad6291f54c01f72f2b7a09f5a39a -->
<g id="edge5" class="edge">
<title>dir_3211d121ecc3b8c63a5aff086e15ca89&#45;&gt;dir_15e0ad6291f54c01f72f2b7a09f5a39a</title>
<path fill="none" stroke="black" d="M127.56,-383.7C125.11,-375.9 122.16,-366.51 119.43,-357.83"/>
<polygon fill="black" stroke="black" points="122.71,-356.59 116.38,-348.1 116.04,-358.69 122.71,-356.59"/>
<g id="a_edge5&#45;headlabel"><a xlink:href="dir_000000_000002.html" target="_top" xlink:title="1">
<text text-anchor="middle" x="126.5" y="-356.67" font-family="Helvetica,sans-Serif" font-size="10.00">1</text>
</a>
</g>
</g>
<!-- dir_fa6d830662653e00a3f098549d35e05d -->
<g id="node5" class="node">
<title>dir_fa6d830662653e00a3f098549d35e05d</title>
<g id="a_node5"><a xlink:href="dir_fa6d830662653e00a3f098549d35e05d.html" target="_top" xlink:title="internal">
<polygon fill="#a2b4d6" stroke="#404040" points="178,-276 124,-276 124,-240 178,-240 178,-276"/>
<text text-anchor="middle" x="151" y="-255.5" font-family="Helvetica,sans-Serif" font-size="10.00">internal</text>
</a>
</g>
</g>
<!-- dir_15e0ad6291f54c01f72f2b7a09f5a39a&#45;&gt;dir_fa6d830662653e00a3f098549d35e05d -->
<g id="edge8" class="edge">
<title>dir_15e0ad6291f54c01f72f2b7a09f5a39a&#45;&gt;dir_fa6d830662653e00a3f098549d35e05d</title>
<path fill="none" stroke="black" d="M114.97,-311.7C118.78,-303.56 124.22,-293.69 129.78,-284.7"/>
<polygon fill="black" stroke="black" points="132.85,-286.4 135.33,-276.1 126.97,-282.61 132.85,-286.4"/>
<g id="a_edge8&#45;headlabel"><a xlink:href="dir_000002_000005.html" target="_top" xlink:title="1">
<text text-anchor="middle" x="133.28" y="-288.46" font-family="Helvetica,sans-Serif" font-size="10.00">1</text>
</a>
</g>
</g>
<!-- dir_15e0ad6291f54c01f72f2b7a09f5a39a&#45;&gt;dir_978d533c27f1e6af39004a1d79354223 -->
<g id="edge7" class="edge">
<title>dir_15e0ad6291f54c01f72f2b7a09f5a39a&#45;&gt;dir_978d533c27f1e6af39004a1d79354223</title>
<path fill="none" stroke="black" d="M106.42,-311.87C103.86,-287.67 103.57,-243.21 105.54,-214.39"/>
<polygon fill="black" stroke="black" points="109.05,-214.45 106.41,-204.19 102.07,-213.86 109.05,-214.45"/>
<g id="a_edge7&#45;headlabel"><a xlink:href="dir_000002_000007.html" target="_top" xlink:title="2">
<text text-anchor="middle" x="111.57" y="-215.77" font-family="Helvetica,sans-Serif" font-size="10.00">2</text>
</a>
</g>
</g>
<!-- dir_15e0ad6291f54c01f72f2b7a09f5a39a&#45;&gt;dir_853879e30bdf8afe9a7079a6b1a108d0 -->
<g id="edge6" class="edge">
<title>dir_15e0ad6291f54c01f72f2b7a09f5a39a&#45;&gt;dir_853879e30bdf8afe9a7079a6b1a108d0</title>
<path fill="none" stroke="black" d="M97.37,-311.76C80.99,-282.47 58.18,-220.99 66,-168 67.28,-159.35 69.67,-150.15 72.62,-141.89"/>
<polygon fill="black" stroke="black" points="75.97,-142.95 76.47,-132.37 69.48,-140.33 75.97,-142.95"/>
<g id="a_edge6&#45;headlabel"><a xlink:href="dir_000002_000008.html" target="_top" xlink:title="9">
<text text-anchor="middle" x="77.25" y="-144.85" font-family="Helvetica,sans-Serif" font-size="10.00">9</text>
</a>
</g>
</g>
<!-- dir_fa6d830662653e00a3f098549d35e05d&#45;&gt;dir_beaf3939c5b2e4f56ef965799f9263aa -->
<g id="edge12" class="edge">
<title>dir_fa6d830662653e00a3f098549d35e05d&#45;&gt;dir_beaf3939c5b2e4f56ef965799f9263aa</title>
<path fill="none" stroke="black" d="M154.46,-239.77C157.5,-221.72 160.77,-192.61 156,-168 148.75,-130.57 126.23,-92.39 109.73,-68.24"/>
<polygon fill="black" stroke="black" points="112.56,-66.18 103.96,-60 106.83,-70.2 112.56,-66.18"/>
<g id="a_edge12&#45;headlabel"><a xlink:href="dir_000005_000001.html" target="_top" xlink:title="2">
<text text-anchor="middle" x="116.95" y="-65" font-family="Helvetica,sans-Serif" font-size="10.00">2</text>
</a>
</g>
</g>
<!-- dir_fa6d830662653e00a3f098549d35e05d&#45;&gt;dir_15e0ad6291f54c01f72f2b7a09f5a39a -->
<g id="edge9" class="edge">
<title>dir_fa6d830662653e00a3f098549d35e05d&#45;&gt;dir_15e0ad6291f54c01f72f2b7a09f5a39a</title>
<path fill="none" stroke="black" d="M147.12,-276.1C143.34,-284.21 137.92,-294.08 132.36,-303.08"/>
<polygon fill="black" stroke="black" points="129.28,-301.39 126.8,-311.7 135.16,-305.19 129.28,-301.39"/>
<g id="a_edge9&#45;headlabel"><a xlink:href="dir_000005_000002.html" target="_top" xlink:title="2">
<text text-anchor="middle" x="128.84" y="-294.34" font-family="Helvetica,sans-Serif" font-size="10.00">2</text>
</a>
</g>
</g>
<!-- dir_fa6d830662653e00a3f098549d35e05d&#45;&gt;dir_978d533c27f1e6af39004a1d79354223 -->
<g id="edge11" class="edge">
<title>dir_fa6d830662653e00a3f098549d35e05d&#45;&gt;dir_978d533c27f1e6af39004a1d79354223</title>
<path fill="none" stroke="black" d="M141.11,-239.7C136.51,-231.64 130.94,-221.89 125.85,-212.98"/>
<polygon fill="black" stroke="black" points="128.77,-211.05 120.77,-204.1 122.7,-214.52 128.77,-211.05"/>
<g id="a_edge11&#45;headlabel"><a xlink:href="dir_000005_000007.html" target="_top" xlink:title="1">
<text text-anchor="middle" x="133.02" y="-210.26" font-family="Helvetica,sans-Serif" font-size="10.00">1</text>
</a>
</g>
</g>
<!-- dir_fa6d830662653e00a3f098549d35e05d&#45;&gt;dir_853879e30bdf8afe9a7079a6b1a108d0 -->
<g id="edge10" class="edge">
<title>dir_fa6d830662653e00a3f098549d35e05d&#45;&gt;dir_853879e30bdf8afe9a7079a6b1a108d0</title>
<path fill="none" stroke="black" d="M147.28,-239.72C147.22,-221.11 148.55,-191.07 138,-168 132.97,-157 124.52,-147.17 116.08,-139.04"/>
<polygon fill="black" stroke="black" points="118.18,-136.22 108.43,-132.08 113.47,-141.4 118.18,-136.22"/>
<g id="a_edge10&#45;headlabel"><a xlink:href="dir_000005_000008.html" target="_top" xlink:title="2">
<text text-anchor="middle" x="122.75" y="-134.04" font-family="Helvetica,sans-Serif" font-size="10.00">2</text>
</a>
</g>
</g>
<!-- dir_978d533c27f1e6af39004a1d79354223&#45;&gt;dir_15e0ad6291f54c01f72f2b7a09f5a39a -->
<g id="edge13" class="edge">
<title>dir_978d533c27f1e6af39004a1d79354223&#45;&gt;dir_15e0ad6291f54c01f72f2b7a09f5a39a</title>
<path fill="none" stroke="black" d="M115.59,-204.19C118.15,-228.42 118.43,-272.89 116.45,-301.68"/>
<polygon fill="black" stroke="black" points="112.95,-301.61 115.58,-311.87 119.92,-302.21 112.95,-301.61"/>
<g id="a_edge13&#45;headlabel"><a xlink:href="dir_000007_000002.html" target="_top" xlink:title="5">
<text text-anchor="middle" x="110.42" y="-295.29" font-family="Helvetica,sans-Serif" font-size="10.00">5</text>
</a>
</g>
</g>
<!-- dir_978d533c27f1e6af39004a1d79354223&#45;&gt;dir_853879e30bdf8afe9a7079a6b1a108d0 -->
<g id="edge14" class="edge">
<title>dir_978d533c27f1e6af39004a1d79354223&#45;&gt;dir_853879e30bdf8afe9a7079a6b1a108d0</title>
<path fill="none" stroke="black" d="M106.06,-167.7C103.83,-159.9 101.15,-150.51 98.67,-141.83"/>
<polygon fill="black" stroke="black" points="102,-140.76 95.89,-132.1 95.27,-142.68 102,-140.76"/>
<g id="a_edge14&#45;headlabel"><a xlink:href="dir_000007_000008.html" target="_top" xlink:title="2">
<text text-anchor="middle" x="105.72" y="-140.93" font-family="Helvetica,sans-Serif" font-size="10.00">2</text>
</a>
</g>
</g>
<!-- dir_853879e30bdf8afe9a7079a6b1a108d0&#45;&gt;dir_beaf3939c5b2e4f56ef965799f9263aa -->
<g id="edge16" class="edge">
<title>dir_853879e30bdf8afe9a7079a6b1a108d0&#45;&gt;dir_beaf3939c5b2e4f56ef965799f9263aa</title>
<path fill="none" stroke="black" d="M91,-95.7C91,-87.98 91,-78.71 91,-70.11"/>
<polygon fill="black" stroke="black" points="94.5,-70.1 91,-60.1 87.5,-70.1 94.5,-70.1"/>
<g id="a_edge16&#45;headlabel"><a xlink:href="dir_000008_000001.html" target="_top" xlink:title="1">
<text text-anchor="middle" x="97.34" y="-71.2" font-family="Helvetica,sans-Serif" font-size="10.00">1</text>
</a>
</g>
</g>
<!-- dir_853879e30bdf8afe9a7079a6b1a108d0&#45;&gt;dir_15e0ad6291f54c01f72f2b7a09f5a39a -->
<g id="edge15" class="edge">
<title>dir_853879e30bdf8afe9a7079a6b1a108d0&#45;&gt;dir_15e0ad6291f54c01f72f2b7a09f5a39a</title>
<path fill="none" stroke="black" d="M92.22,-132.37C89.8,-142.58 85.8,-155.83 84,-168 76.97,-215.6 94.67,-270.07 105.13,-301.88"/>
<polygon fill="black" stroke="black" points="101.92,-303.34 108.35,-311.76 108.58,-301.17 101.92,-303.34"/>
<g id="a_edge15&#45;headlabel"><a xlink:href="dir_000008_000002.html" target="_top" xlink:title="2">
<text text-anchor="middle" x="98.11" y="-298.3" font-family="Helvetica,sans-Serif" font-size="10.00">2</text>
</a>
</g>
</g>
<!-- dir_853879e30bdf8afe9a7079a6b1a108d0&#45;&gt;dir_fa6d830662653e00a3f098549d35e05d -->
<g id="edge17" class="edge">
<title>dir_853879e30bdf8afe9a7079a6b1a108d0&#45;&gt;dir_fa6d830662653e00a3f098549d35e05d</title>
<path fill="none" stroke="black" d="M118.11,-127.49C132.42,-136.91 148.26,-151.08 156,-168 164.82,-187.28 165.34,-211.44 162.54,-229.71"/>
<polygon fill="black" stroke="black" points="159.07,-229.22 160.54,-239.72 165.93,-230.59 159.07,-229.22"/>
<g id="a_edge17&#45;headlabel"><a xlink:href="dir_000008_000005.html" target="_top" xlink:title="2">
<text text-anchor="middle" x="156.99" y="-222.64" font-family="Helvetica,sans-Serif" font-size="10.00">2</text>
</a>
</g>
</g>
</g>
</svg>
