<?xml version="1.0" encoding="UTF-8" standalone="no"?>
<!DOCTYPE svg PUBLIC "-//W3C//DTD SVG 1.1//EN"
 "http://www.w3.org/Graphics/SVG/1.1/DTD/svg11.dtd">
<!-- Generated by graphviz version 2.43.0 (0)
 -->
<!-- Title: thread Pages: 1 -->
<svg width="238pt" height="175pt"
 viewBox="0.00 0.00 238.00 175.00" xmlns="http://www.w3.org/2000/svg" xmlns:xlink="http://www.w3.org/1999/xlink">
<g id="graph0" class="graph" transform="scale(1 1) rotate(0) translate(4 171)">
<title>thread</title>
<polygon fill="white" stroke="transparent" points="-4,4 -4,-171 234,-171 234,4 -4,4"/>
<g id="clust1" class="cluster">
<title>clusterdir_c1127a47df8dad6101631a17711b0d4b</title>
<g id="a_clust1"><a xlink:href="dir_c1127a47df8dad6101631a17711b0d4b.html" target="_top" xlink:title="log4cplus">
<polygon fill="#edf0f7" stroke="#7f7f7f" stroke-dasharray="5,2" points="8,-8 8,-159 222,-159 222,-8 8,-8"/>
<text text-anchor="middle" x="115" y="-147" font-family="Helvetica,sans-Serif" font-size="10.00">log4cplus</text>
</a>
</g>
</g>
<g id="clust2" class="cluster">
<title>clusterdir_853879e30bdf8afe9a7079a6b1a108d0</title>
<g id="a_clust2"><a xlink:href="dir_853879e30bdf8afe9a7079a6b1a108d0.html" target="_top">
<polygon fill="#edf0f7" stroke="#404040" stroke-width="2" points="16,-80 16,-132 158,-132 158,-80 16,-80"/>
</a>
</g>
</g>
<!-- dir_15e0ad6291f54c01f72f2b7a09f5a39a -->
<g id="node1" class="node">
<title>dir_15e0ad6291f54c01f72f2b7a09f5a39a</title>
<g id="a_node1"><a xlink:href="dir_15e0ad6291f54c01f72f2b7a09f5a39a.html" target="_top" xlink:title="helpers">
<polygon fill="#a2b4d6" stroke="#404040" points="70,-52 16,-52 16,-16 70,-16 70,-52"/>
<text text-anchor="middle" x="43" y="-31.5" font-family="Helvetica,sans-Serif" font-size="10.00">helpers</text>
</a>
</g>
</g>
<!-- dir_beaf3939c5b2e4f56ef965799f9263aa -->
<g id="node2" class="node">
<title>dir_beaf3939c5b2e4f56ef965799f9263aa</title>
<g id="a_node2"><a xlink:href="dir_beaf3939c5b2e4f56ef965799f9263aa.html" target="_top" xlink:title="config">
<polygon fill="#a2b4d6" stroke="#404040" points="214,-52 160,-52 160,-16 214,-16 214,-52"/>
<text text-anchor="middle" x="187" y="-31.5" font-family="Helvetica,sans-Serif" font-size="10.00">config</text>
</a>
</g>
</g>
<!-- dir_fa6d830662653e00a3f098549d35e05d -->
<g id="node3" class="node">
<title>dir_fa6d830662653e00a3f098549d35e05d</title>
<g id="a_node3"><a xlink:href="dir_fa6d830662653e00a3f098549d35e05d.html" target="_top" xlink:title="internal">
<polygon fill="#a2b4d6" stroke="#404040" points="142,-52 88,-52 88,-16 142,-16 142,-52"/>
<text text-anchor="middle" x="115" y="-31.5" font-family="Helvetica,sans-Serif" font-size="10.00">internal</text>
</a>
</g>
</g>
<!-- dir_853879e30bdf8afe9a7079a6b1a108d0 -->
<g id="node4" class="node">
<title>dir_853879e30bdf8afe9a7079a6b1a108d0</title>
<text text-anchor="middle" x="51" y="-103.5" font-family="Helvetica,sans-Serif" font-size="10.00">thread</text>
</g>
<!-- dir_853879e30bdf8afe9a7079a6b1a108d0&#45;&gt;dir_15e0ad6291f54c01f72f2b7a09f5a39a -->
<g id="edge1" class="edge">
<title>dir_853879e30bdf8afe9a7079a6b1a108d0&#45;&gt;dir_15e0ad6291f54c01f72f2b7a09f5a39a</title>
<path fill="none" stroke="black" d="M49.02,-87.7C48.14,-79.98 47.08,-70.71 46.1,-62.11"/>
<polygon fill="black" stroke="black" points="49.57,-61.64 44.95,-52.1 42.61,-62.44 49.57,-61.64"/>
<g id="a_edge1&#45;headlabel"><a xlink:href="dir_000008_000002.html" target="_top" xlink:title="2">
<text text-anchor="middle" x="52.8" y="-62.39" font-family="Helvetica,sans-Serif" font-size="10.00">2</text>
</a>
</g>
</g>
<!-- dir_853879e30bdf8afe9a7079a6b1a108d0&#45;&gt;dir_fa6d830662653e00a3f098549d35e05d -->
<g id="edge2" class="edge">
<title>dir_853879e30bdf8afe9a7079a6b1a108d0&#45;&gt;dir_fa6d830662653e00a3f098549d35e05d</title>
<path fill="none" stroke="black" d="M66.82,-87.7C74.57,-79.22 84.04,-68.86 92.52,-59.58"/>
<polygon fill="black" stroke="black" points="95.2,-61.85 99.36,-52.1 90.03,-57.12 95.2,-61.85"/>
<g id="a_edge2&#45;headlabel"><a xlink:href="dir_000008_000005.html" target="_top" xlink:title="2">
<text text-anchor="middle" x="94.87" y="-63.92" font-family="Helvetica,sans-Serif" font-size="10.00">2</text>
</a>
</g>
</g>
<!-- dir_8365f885db0e24c0a4a28d7556850d67 -->
<g id="node5" class="node">
<title>dir_8365f885db0e24c0a4a28d7556850d67</title>
<g id="a_node5"><a xlink:href="dir_8365f885db0e24c0a4a28d7556850d67.html" target="_top" xlink:title="impl">
<polygon fill="#a2b4d6" stroke="#404040" points="150,-124 96,-124 96,-88 150,-88 150,-124"/>
<text text-anchor="middle" x="123" y="-103.5" font-family="Helvetica,sans-Serif" font-size="10.00">impl</text>
</a>
</g>
</g>
<!-- dir_8365f885db0e24c0a4a28d7556850d67&#45;&gt;dir_15e0ad6291f54c01f72f2b7a09f5a39a -->
<g id="edge3" class="edge">
<title>dir_8365f885db0e24c0a4a28d7556850d67&#45;&gt;dir_15e0ad6291f54c01f72f2b7a09f5a39a</title>
<path fill="none" stroke="black" d="M103.22,-87.7C93.25,-78.97 80.99,-68.24 70.14,-58.75"/>
<polygon fill="black" stroke="black" points="72.38,-56.06 62.55,-52.1 67.77,-61.32 72.38,-56.06"/>
<g id="a_edge3&#45;headlabel"><a xlink:href="dir_000003_000002.html" target="_top" xlink:title="1">
<text text-anchor="middle" x="76.95" y="-53.79" font-family="Helvetica,sans-Serif" font-size="10.00">1</text>
</a>
</g>
</g>
<!-- dir_8365f885db0e24c0a4a28d7556850d67&#45;&gt;dir_beaf3939c5b2e4f56ef965799f9263aa -->
<g id="edge4" class="edge">
<title>dir_8365f885db0e24c0a4a28d7556850d67&#45;&gt;dir_beaf3939c5b2e4f56ef965799f9263aa</title>
<path fill="none" stroke="black" d="M138.82,-87.7C146.57,-79.22 156.04,-68.86 164.52,-59.58"/>
<polygon fill="black" stroke="black" points="167.2,-61.85 171.36,-52.1 162.03,-57.12 167.2,-61.85"/>
<g id="a_edge4&#45;headlabel"><a xlink:href="dir_000003_000001.html" target="_top" xlink:title="1">
<text text-anchor="middle" x="166.87" y="-63.92" font-family="Helvetica,sans-Serif" font-size="10.00">1</text>
</a>
</g>
</g>
<!-- dir_8365f885db0e24c0a4a28d7556850d67&#45;&gt;dir_fa6d830662653e00a3f098549d35e05d -->
<g id="edge5" class="edge">
<title>dir_8365f885db0e24c0a4a28d7556850d67&#45;&gt;dir_fa6d830662653e00a3f098549d35e05d</title>
<path fill="none" stroke="black" d="M121.02,-87.7C120.14,-79.98 119.08,-70.71 118.1,-62.11"/>
<polygon fill="black" stroke="black" points="121.57,-61.64 116.95,-52.1 114.61,-62.44 121.57,-61.64"/>
<g id="a_edge5&#45;headlabel"><a xlink:href="dir_000003_000005.html" target="_top" xlink:title="1">
<text text-anchor="middle" x="124.8" y="-62.39" font-family="Helvetica,sans-Serif" font-size="10.00">1</text>
</a>
</g>
</g>
</g>
</svg>
