<?xml version="1.0" encoding="UTF-8" standalone="no"?>
<!DOCTYPE svg PUBLIC "-//W3C//DTD SVG 1.1//EN"
 "http://www.w3.org/Graphics/SVG/1.1/DTD/svg11.dtd">
<!-- Generated by graphviz version 2.43.0 (0)
 -->
<!-- Title: env.h Pages: 1 -->
<svg width="868pt" height="274pt"
 viewBox="0.00 0.00 867.50 274.00" xmlns="http://www.w3.org/2000/svg" xmlns:xlink="http://www.w3.org/1999/xlink">
<g id="graph0" class="graph" transform="scale(1 1) rotate(0) translate(4 270)">
<title>env.h</title>
<polygon fill="white" stroke="transparent" points="-4,4 -4,-270 863.5,-270 863.5,4 -4,4"/>
<!-- Node1 -->
<g id="node1" class="node">
<title>Node1</title>
<g id="a_node1"><a xlink:title=" ">
<polygon fill="#bfbfbf" stroke="black" points="308,-246.5 308,-265.5 351,-265.5 351,-246.5 308,-246.5"/>
<text text-anchor="middle" x="329.5" y="-253.5" font-family="Helvetica,sans-Serif" font-size="10.00">env.h</text>
</a>
</g>
</g>
<!-- Node2 -->
<g id="node2" class="node">
<title>Node2</title>
<g id="a_node2"><a xlink:href="config_8hxx.html" target="_top" xlink:title=" ">
<polygon fill="white" stroke="black" points="87.5,-67.5 87.5,-86.5 203.5,-86.5 203.5,-67.5 87.5,-67.5"/>
<text text-anchor="middle" x="145.5" y="-74.5" font-family="Helvetica,sans-Serif" font-size="10.00">log4cplus/config.hxx</text>
</a>
</g>
</g>
<!-- Node1&#45;&gt;Node2 -->
<g id="edge1" class="edge">
<title>Node1&#45;&gt;Node2</title>
<path fill="none" stroke="midnightblue" d="M307.82,-251.3C280.85,-245.86 234.37,-233.69 201.5,-210 170.92,-187.96 162.8,-178.27 149.5,-143 143.94,-128.27 143.25,-110.34 143.77,-97.04"/>
<polygon fill="midnightblue" stroke="midnightblue" points="147.28,-96.96 144.45,-86.75 140.3,-96.5 147.28,-96.96"/>
</g>
<!-- Node5 -->
<g id="node5" class="node">
<title>Node5</title>
<g id="a_node5"><a xlink:title=" ">
<polygon fill="white" stroke="#bfbfbf" points="211,-185 211,-204 258,-204 258,-185 211,-185"/>
<text text-anchor="middle" x="234.5" y="-192" font-family="Helvetica,sans-Serif" font-size="10.00">vector</text>
</a>
</g>
</g>
<!-- Node1&#45;&gt;Node5 -->
<g id="edge4" class="edge">
<title>Node1&#45;&gt;Node5</title>
<path fill="none" stroke="midnightblue" d="M315.89,-246.48C300.44,-236.8 275.01,-220.87 256.68,-209.39"/>
<polygon fill="midnightblue" stroke="midnightblue" points="258.42,-206.35 248.09,-204.01 254.7,-212.28 258.42,-206.35"/>
</g>
<!-- Node6 -->
<g id="node6" class="node">
<title>Node6</title>
<g id="a_node6"><a xlink:href="tstring_8h.html" target="_top" xlink:title=" ">
<polygon fill="white" stroke="black" points="276,-185 276,-204 383,-204 383,-185 276,-185"/>
<text text-anchor="middle" x="329.5" y="-192" font-family="Helvetica,sans-Serif" font-size="10.00">log4cplus/tstring.h</text>
</a>
</g>
</g>
<!-- Node1&#45;&gt;Node6 -->
<g id="edge5" class="edge">
<title>Node1&#45;&gt;Node6</title>
<path fill="none" stroke="midnightblue" d="M329.5,-246.48C329.5,-238.08 329.5,-224.98 329.5,-214.16"/>
<polygon fill="midnightblue" stroke="midnightblue" points="333,-214.01 329.5,-204.01 326,-214.01 333,-214.01"/>
</g>
<!-- Node13 -->
<g id="node13" class="node">
<title>Node13</title>
<g id="a_node13"><a xlink:title=" ">
<polygon fill="white" stroke="#bfbfbf" points="401.5,-185 401.5,-204 447.5,-204 447.5,-185 401.5,-185"/>
<text text-anchor="middle" x="424.5" y="-192" font-family="Helvetica,sans-Serif" font-size="10.00">locale</text>
</a>
</g>
</g>
<!-- Node1&#45;&gt;Node13 -->
<g id="edge14" class="edge">
<title>Node1&#45;&gt;Node13</title>
<path fill="none" stroke="midnightblue" d="M343.11,-246.48C358.56,-236.8 383.99,-220.87 402.32,-209.39"/>
<polygon fill="midnightblue" stroke="midnightblue" points="404.3,-212.28 410.91,-204.01 400.58,-206.35 404.3,-212.28"/>
</g>
<!-- Node14 -->
<g id="node14" class="node">
<title>Node14</title>
<g id="a_node14"><a xlink:href="windowsh-inc_8h.html" target="_top" xlink:title=" ">
<polygon fill="white" stroke="black" points="621,-179.5 621,-209.5 768,-209.5 768,-179.5 621,-179.5"/>
<text text-anchor="start" x="629" y="-197.5" font-family="Helvetica,sans-Serif" font-size="10.00">log4cplus/config/windowsh</text>
<text text-anchor="middle" x="694.5" y="-186.5" font-family="Helvetica,sans-Serif" font-size="10.00">&#45;inc.h</text>
</a>
</g>
</g>
<!-- Node1&#45;&gt;Node14 -->
<g id="edge15" class="edge">
<title>Node1&#45;&gt;Node14</title>
<path fill="none" stroke="midnightblue" d="M351.24,-251.46C401.16,-243.32 526.2,-222.94 610.76,-209.15"/>
<polygon fill="midnightblue" stroke="midnightblue" points="611.55,-212.57 620.86,-207.5 610.43,-205.66 611.55,-212.57"/>
</g>
<!-- Node3 -->
<g id="node3" class="node">
<title>Node3</title>
<g id="a_node3"><a xlink:href="win32_8h.html" target="_top" xlink:title=" ">
<polygon fill="white" stroke="black" points="0,-6 0,-25 137,-25 137,-6 0,-6"/>
<text text-anchor="middle" x="68.5" y="-13" font-family="Helvetica,sans-Serif" font-size="10.00">log4cplus/config/win32.h</text>
</a>
</g>
</g>
<!-- Node2&#45;&gt;Node3 -->
<g id="edge2" class="edge">
<title>Node2&#45;&gt;Node3</title>
<path fill="none" stroke="midnightblue" d="M134.47,-67.48C122.23,-58.02 102.27,-42.6 87.51,-31.19"/>
<polygon fill="midnightblue" stroke="midnightblue" points="89.56,-28.35 79.51,-25.01 85.28,-33.89 89.56,-28.35"/>
</g>
<!-- Node4 -->
<g id="node4" class="node">
<title>Node4</title>
<g id="a_node4"><a xlink:href="thread-config_8h.html" target="_top" xlink:title=" ">
<polygon fill="white" stroke="black" points="155,-0.5 155,-30.5 292,-30.5 292,-0.5 155,-0.5"/>
<text text-anchor="start" x="163" y="-18.5" font-family="Helvetica,sans-Serif" font-size="10.00">log4cplus/helpers/thread</text>
<text text-anchor="middle" x="223.5" y="-7.5" font-family="Helvetica,sans-Serif" font-size="10.00">&#45;config.h</text>
</a>
</g>
</g>
<!-- Node2&#45;&gt;Node4 -->
<g id="edge3" class="edge">
<title>Node2&#45;&gt;Node4</title>
<path fill="none" stroke="midnightblue" d="M156.68,-67.48C167.14,-59.49 183.18,-47.25 196.93,-36.77"/>
<polygon fill="midnightblue" stroke="midnightblue" points="199.29,-39.37 205.12,-30.52 195.04,-33.81 199.29,-39.37"/>
</g>
<!-- Node6&#45;&gt;Node2 -->
<g id="edge6" class="edge">
<title>Node6&#45;&gt;Node2</title>
<path fill="none" stroke="midnightblue" d="M295.49,-184.93C249.98,-173.2 173.87,-152.49 164.5,-143 152.51,-130.85 148.01,-111.58 146.36,-97.17"/>
<polygon fill="midnightblue" stroke="midnightblue" points="149.82,-96.58 145.56,-86.88 142.84,-97.12 149.82,-96.58"/>
</g>
<!-- Node7 -->
<g id="node7" class="node">
<title>Node7</title>
<g id="a_node7"><a xlink:title=" ">
<polygon fill="white" stroke="#bfbfbf" points="174,-123.5 174,-142.5 243,-142.5 243,-123.5 174,-123.5"/>
<text text-anchor="middle" x="208.5" y="-130.5" font-family="Helvetica,sans-Serif" font-size="10.00">type_traits</text>
</a>
</g>
</g>
<!-- Node6&#45;&gt;Node7 -->
<g id="edge7" class="edge">
<title>Node6&#45;&gt;Node7</title>
<path fill="none" stroke="midnightblue" d="M312.16,-184.98C291.95,-175.03 258.31,-158.49 234.86,-146.96"/>
<polygon fill="midnightblue" stroke="midnightblue" points="236.32,-143.78 225.8,-142.51 233.23,-150.06 236.32,-143.78"/>
</g>
<!-- Node8 -->
<g id="node8" class="node">
<title>Node8</title>
<g id="a_node8"><a xlink:title=" ">
<polygon fill="white" stroke="#bfbfbf" points="261,-123.5 261,-142.5 326,-142.5 326,-123.5 261,-123.5"/>
<text text-anchor="middle" x="293.5" y="-130.5" font-family="Helvetica,sans-Serif" font-size="10.00">functional</text>
</a>
</g>
</g>
<!-- Node6&#45;&gt;Node8 -->
<g id="edge8" class="edge">
<title>Node6&#45;&gt;Node8</title>
<path fill="none" stroke="midnightblue" d="M324.34,-184.98C319.05,-176.23 310.66,-162.37 303.97,-151.31"/>
<polygon fill="midnightblue" stroke="midnightblue" points="306.82,-149.25 298.65,-142.51 300.83,-152.88 306.82,-149.25"/>
</g>
<!-- Node9 -->
<g id="node9" class="node">
<title>Node9</title>
<g id="a_node9"><a xlink:title=" ">
<polygon fill="white" stroke="#bfbfbf" points="344.5,-123.5 344.5,-142.5 388.5,-142.5 388.5,-123.5 344.5,-123.5"/>
<text text-anchor="middle" x="366.5" y="-130.5" font-family="Helvetica,sans-Serif" font-size="10.00">string</text>
</a>
</g>
</g>
<!-- Node6&#45;&gt;Node9 -->
<g id="edge9" class="edge">
<title>Node6&#45;&gt;Node9</title>
<path fill="none" stroke="midnightblue" d="M334.8,-184.98C340.24,-176.23 348.86,-162.37 355.74,-151.31"/>
<polygon fill="midnightblue" stroke="midnightblue" points="358.9,-152.85 361.21,-142.51 352.96,-149.15 358.9,-152.85"/>
</g>
<!-- Node10 -->
<g id="node10" class="node">
<title>Node10</title>
<g id="a_node10"><a xlink:title=" ">
<polygon fill="white" stroke="#bfbfbf" points="407,-123.5 407,-142.5 480,-142.5 480,-123.5 407,-123.5"/>
<text text-anchor="middle" x="443.5" y="-130.5" font-family="Helvetica,sans-Serif" font-size="10.00">string_view</text>
</a>
</g>
</g>
<!-- Node6&#45;&gt;Node10 -->
<g id="edge10" class="edge">
<title>Node6&#45;&gt;Node10</title>
<path fill="none" stroke="midnightblue" d="M345.83,-184.98C364.71,-175.12 396.01,-158.79 418.08,-147.27"/>
<polygon fill="midnightblue" stroke="midnightblue" points="419.95,-150.24 427.2,-142.51 416.71,-144.03 419.95,-150.24"/>
</g>
<!-- Node11 -->
<g id="node11" class="node">
<title>Node11</title>
<g id="a_node11"><a xlink:href="tchar_8h.html" target="_top" xlink:title=" ">
<polygon fill="white" stroke="black" points="498,-123.5 498,-142.5 597,-142.5 597,-123.5 498,-123.5"/>
<text text-anchor="middle" x="547.5" y="-130.5" font-family="Helvetica,sans-Serif" font-size="10.00">log4cplus/tchar.h</text>
</a>
</g>
</g>
<!-- Node6&#45;&gt;Node11 -->
<g id="edge11" class="edge">
<title>Node6&#45;&gt;Node11</title>
<path fill="none" stroke="midnightblue" d="M360.73,-184.98C399.1,-174.5 464.29,-156.71 506.61,-145.16"/>
<polygon fill="midnightblue" stroke="midnightblue" points="507.6,-148.52 516.32,-142.51 505.76,-141.77 507.6,-148.52"/>
</g>
<!-- Node11&#45;&gt;Node2 -->
<g id="edge12" class="edge">
<title>Node11&#45;&gt;Node2</title>
<path fill="none" stroke="midnightblue" d="M497.94,-124.36C494.74,-123.89 491.58,-123.44 488.5,-123 393.34,-109.5 283.11,-95.29 213.84,-86.54"/>
<polygon fill="midnightblue" stroke="midnightblue" points="213.87,-83.01 203.51,-85.23 212.99,-89.96 213.87,-83.01"/>
</g>
<!-- Node12 -->
<g id="node12" class="node">
<title>Node12</title>
<g id="a_node12"><a xlink:title=" ">
<polygon fill="white" stroke="#bfbfbf" points="521,-67.5 521,-86.5 574,-86.5 574,-67.5 521,-67.5"/>
<text text-anchor="middle" x="547.5" y="-74.5" font-family="Helvetica,sans-Serif" font-size="10.00">cstddef</text>
</a>
</g>
</g>
<!-- Node11&#45;&gt;Node12 -->
<g id="edge13" class="edge">
<title>Node11&#45;&gt;Node12</title>
<path fill="none" stroke="midnightblue" d="M547.5,-123.08C547.5,-116.01 547.5,-105.86 547.5,-96.99"/>
<polygon fill="midnightblue" stroke="midnightblue" points="551,-96.75 547.5,-86.75 544,-96.75 551,-96.75"/>
</g>
<!-- Node15 -->
<g id="node15" class="node">
<title>Node15</title>
<g id="a_node15"><a xlink:title=" ">
<polygon fill="white" stroke="#bfbfbf" points="615,-123.5 615,-142.5 686,-142.5 686,-123.5 615,-123.5"/>
<text text-anchor="middle" x="650.5" y="-130.5" font-family="Helvetica,sans-Serif" font-size="10.00">winsock2.h</text>
</a>
</g>
</g>
<!-- Node14&#45;&gt;Node15 -->
<g id="edge16" class="edge">
<title>Node14&#45;&gt;Node15</title>
<path fill="none" stroke="midnightblue" d="M684.07,-179.4C677.74,-170.84 669.63,-159.87 662.97,-150.86"/>
<polygon fill="midnightblue" stroke="midnightblue" points="665.66,-148.62 656.9,-142.66 660.03,-152.78 665.66,-148.62"/>
</g>
<!-- Node16 -->
<g id="node16" class="node">
<title>Node16</title>
<g id="a_node16"><a xlink:title=" ">
<polygon fill="white" stroke="#bfbfbf" points="704,-123.5 704,-142.5 773,-142.5 773,-123.5 704,-123.5"/>
<text text-anchor="middle" x="738.5" y="-130.5" font-family="Helvetica,sans-Serif" font-size="10.00">ws2tcpip.h</text>
</a>
</g>
</g>
<!-- Node14&#45;&gt;Node16 -->
<g id="edge17" class="edge">
<title>Node14&#45;&gt;Node16</title>
<path fill="none" stroke="midnightblue" d="M704.93,-179.4C711.26,-170.84 719.37,-159.87 726.03,-150.86"/>
<polygon fill="midnightblue" stroke="midnightblue" points="728.97,-152.78 732.1,-142.66 723.34,-148.62 728.97,-152.78"/>
</g>
<!-- Node17 -->
<g id="node17" class="node">
<title>Node17</title>
<g id="a_node17"><a xlink:title=" ">
<polygon fill="white" stroke="#bfbfbf" points="791.5,-123.5 791.5,-142.5 859.5,-142.5 859.5,-123.5 791.5,-123.5"/>
<text text-anchor="middle" x="825.5" y="-130.5" font-family="Helvetica,sans-Serif" font-size="10.00">windows.h</text>
</a>
</g>
</g>
<!-- Node14&#45;&gt;Node17 -->
<g id="edge18" class="edge">
<title>Node14&#45;&gt;Node17</title>
<path fill="none" stroke="midnightblue" d="M725.55,-179.4C747.23,-169.55 775.96,-156.5 797.05,-146.92"/>
<polygon fill="midnightblue" stroke="midnightblue" points="798.78,-149.98 806.44,-142.66 795.89,-143.61 798.78,-149.98"/>
</g>
</g>
</svg>
