<?xml version="1.0" encoding="UTF-8" standalone="no"?>
<!DOCTYPE svg PUBLIC "-//W3C//DTD SVG 1.1//EN"
 "http://www.w3.org/Graphics/SVG/1.1/DTD/svg11.dtd">
<!-- Generated by graphviz version 2.43.0 (0)
 -->
<!-- Title: eventcounter.h Pages: 1 -->
<svg width="666pt" height="218pt"
 viewBox="0.00 0.00 665.50 218.00" xmlns="http://www.w3.org/2000/svg" xmlns:xlink="http://www.w3.org/1999/xlink">
<g id="graph0" class="graph" transform="scale(1 1) rotate(0) translate(4 214)">
<title>eventcounter.h</title>
<polygon fill="white" stroke="transparent" points="-4,4 -4,-214 661.5,-214 661.5,4 -4,4"/>
<!-- Node1 -->
<g id="node1" class="node">
<title>Node1</title>
<g id="a_node1"><a xlink:title=" ">
<polygon fill="#bfbfbf" stroke="black" points="387,-190.5 387,-209.5 476,-209.5 476,-190.5 387,-190.5"/>
<text text-anchor="middle" x="431.5" y="-197.5" font-family="Helvetica,sans-Serif" font-size="10.00">eventcounter.h</text>
</a>
</g>
</g>
<!-- Node2 -->
<g id="node2" class="node">
<title>Node2</title>
<g id="a_node2"><a xlink:href="config_8hxx.html" target="_top" xlink:title=" ">
<polygon fill="white" stroke="black" points="87.5,-73 87.5,-92 203.5,-92 203.5,-73 87.5,-73"/>
<text text-anchor="middle" x="145.5" y="-80" font-family="Helvetica,sans-Serif" font-size="10.00">log4cplus/config.hxx</text>
</a>
</g>
</g>
<!-- Node1&#45;&gt;Node2 -->
<g id="edge1" class="edge">
<title>Node1&#45;&gt;Node2</title>
<path fill="none" stroke="midnightblue" d="M390.56,-190.44C357.47,-182.84 310.04,-170.4 270.5,-154 232.34,-138.18 191.17,-113.27 166.9,-97.69"/>
<polygon fill="midnightblue" stroke="midnightblue" points="168.76,-94.73 158.47,-92.21 164.95,-100.6 168.76,-94.73"/>
</g>
<!-- Node5 -->
<g id="node5" class="node">
<title>Node5</title>
<g id="a_node5"><a xlink:href="threadsafetyanalysis_8h.html" target="_top" xlink:title=" ">
<polygon fill="white" stroke="black" points="222,-67.5 222,-97.5 353,-97.5 353,-67.5 222,-67.5"/>
<text text-anchor="start" x="230" y="-85.5" font-family="Helvetica,sans-Serif" font-size="10.00">log4cplus/internal</text>
<text text-anchor="middle" x="287.5" y="-74.5" font-family="Helvetica,sans-Serif" font-size="10.00">/threadsafetyanalysis.h</text>
</a>
</g>
</g>
<!-- Node1&#45;&gt;Node5 -->
<g id="edge4" class="edge">
<title>Node1&#45;&gt;Node5</title>
<path fill="none" stroke="midnightblue" d="M386.83,-199.09C351.7,-196.49 304.78,-186.57 280.5,-154 270.64,-140.78 273.03,-122.07 277.54,-107.25"/>
<polygon fill="midnightblue" stroke="midnightblue" points="280.87,-108.32 280.88,-97.72 274.27,-106 280.87,-108.32"/>
</g>
<!-- Node6 -->
<g id="node6" class="node">
<title>Node6</title>
<g id="a_node6"><a xlink:href="syncprims_8h.html" target="_top" xlink:title=" ">
<polygon fill="white" stroke="black" points="289.5,-134.5 289.5,-153.5 449.5,-153.5 449.5,-134.5 289.5,-134.5"/>
<text text-anchor="middle" x="369.5" y="-141.5" font-family="Helvetica,sans-Serif" font-size="10.00">log4cplus/thread/syncprims.h</text>
</a>
</g>
</g>
<!-- Node1&#45;&gt;Node6 -->
<g id="edge5" class="edge">
<title>Node1&#45;&gt;Node6</title>
<path fill="none" stroke="midnightblue" d="M421.54,-190.32C412.37,-182.34 398.56,-170.31 387.47,-160.65"/>
<polygon fill="midnightblue" stroke="midnightblue" points="389.48,-157.76 379.64,-153.83 384.88,-163.04 389.48,-157.76"/>
</g>
<!-- Node9 -->
<g id="node9" class="node">
<title>Node9</title>
<g id="a_node9"><a xlink:title=" ">
<polygon fill="white" stroke="#bfbfbf" points="468,-134.5 468,-153.5 521,-153.5 521,-134.5 468,-134.5"/>
<text text-anchor="middle" x="494.5" y="-141.5" font-family="Helvetica,sans-Serif" font-size="10.00">cstddef</text>
</a>
</g>
</g>
<!-- Node1&#45;&gt;Node9 -->
<g id="edge10" class="edge">
<title>Node1&#45;&gt;Node9</title>
<path fill="none" stroke="midnightblue" d="M441.62,-190.32C451.03,-182.26 465.24,-170.08 476.57,-160.37"/>
<polygon fill="midnightblue" stroke="midnightblue" points="478.88,-163 484.19,-153.83 474.32,-157.68 478.88,-163"/>
</g>
<!-- Node10 -->
<g id="node10" class="node">
<title>Node10</title>
<g id="a_node10"><a xlink:title=" ">
<polygon fill="white" stroke="#bfbfbf" points="539.5,-134.5 539.5,-153.5 589.5,-153.5 589.5,-134.5 539.5,-134.5"/>
<text text-anchor="middle" x="564.5" y="-141.5" font-family="Helvetica,sans-Serif" font-size="10.00">atomic</text>
</a>
</g>
</g>
<!-- Node1&#45;&gt;Node10 -->
<g id="edge11" class="edge">
<title>Node1&#45;&gt;Node10</title>
<path fill="none" stroke="midnightblue" d="M452.57,-190.44C474.56,-181.52 509.23,-167.44 534.16,-157.32"/>
<polygon fill="midnightblue" stroke="midnightblue" points="535.58,-160.52 543.52,-153.52 532.94,-154.04 535.58,-160.52"/>
</g>
<!-- Node11 -->
<g id="node11" class="node">
<title>Node11</title>
<g id="a_node11"><a xlink:title=" ">
<polygon fill="white" stroke="#bfbfbf" points="607.5,-134.5 607.5,-153.5 657.5,-153.5 657.5,-134.5 607.5,-134.5"/>
<text text-anchor="middle" x="632.5" y="-141.5" font-family="Helvetica,sans-Serif" font-size="10.00">chrono</text>
</a>
</g>
</g>
<!-- Node1&#45;&gt;Node11 -->
<g id="edge12" class="edge">
<title>Node1&#45;&gt;Node11</title>
<path fill="none" stroke="midnightblue" d="M463.35,-190.44C499.88,-180.63 559.58,-164.59 597.41,-154.43"/>
<polygon fill="midnightblue" stroke="midnightblue" points="598.72,-157.7 607.47,-151.73 596.9,-150.94 598.72,-157.7"/>
</g>
<!-- Node3 -->
<g id="node3" class="node">
<title>Node3</title>
<g id="a_node3"><a xlink:href="win32_8h.html" target="_top" xlink:title=" ">
<polygon fill="white" stroke="black" points="0,-6 0,-25 137,-25 137,-6 0,-6"/>
<text text-anchor="middle" x="68.5" y="-13" font-family="Helvetica,sans-Serif" font-size="10.00">log4cplus/config/win32.h</text>
</a>
</g>
</g>
<!-- Node2&#45;&gt;Node3 -->
<g id="edge2" class="edge">
<title>Node2&#45;&gt;Node3</title>
<path fill="none" stroke="midnightblue" d="M135.12,-72.73C122.65,-62.21 101.53,-44.38 86.41,-31.62"/>
<polygon fill="midnightblue" stroke="midnightblue" points="88.62,-28.9 78.72,-25.13 84.1,-34.25 88.62,-28.9"/>
</g>
<!-- Node4 -->
<g id="node4" class="node">
<title>Node4</title>
<g id="a_node4"><a xlink:href="thread-config_8h.html" target="_top" xlink:title=" ">
<polygon fill="white" stroke="black" points="155,-0.5 155,-30.5 292,-30.5 292,-0.5 155,-0.5"/>
<text text-anchor="start" x="163" y="-18.5" font-family="Helvetica,sans-Serif" font-size="10.00">log4cplus/helpers/thread</text>
<text text-anchor="middle" x="223.5" y="-7.5" font-family="Helvetica,sans-Serif" font-size="10.00">&#45;config.h</text>
</a>
</g>
</g>
<!-- Node2&#45;&gt;Node4 -->
<g id="edge3" class="edge">
<title>Node2&#45;&gt;Node4</title>
<path fill="none" stroke="midnightblue" d="M156.02,-72.73C166.86,-63.7 184.17,-49.27 198.54,-37.3"/>
<polygon fill="midnightblue" stroke="midnightblue" points="201.15,-39.68 206.59,-30.59 196.67,-34.3 201.15,-39.68"/>
</g>
<!-- Node6&#45;&gt;Node2 -->
<g id="edge6" class="edge">
<title>Node6&#45;&gt;Node2</title>
<path fill="none" stroke="midnightblue" d="M337.41,-134.48C297.9,-123.98 230.72,-106.14 187.24,-94.59"/>
<polygon fill="midnightblue" stroke="midnightblue" points="188.1,-91.19 177.53,-92.01 186.3,-97.96 188.1,-91.19"/>
</g>
<!-- Node6&#45;&gt;Node5 -->
<g id="edge9" class="edge">
<title>Node6&#45;&gt;Node5</title>
<path fill="none" stroke="midnightblue" d="M357.75,-134.48C346.65,-126.42 329.57,-114.02 315.03,-103.47"/>
<polygon fill="midnightblue" stroke="midnightblue" points="316.98,-100.56 306.83,-97.52 312.86,-106.23 316.98,-100.56"/>
</g>
<!-- Node7 -->
<g id="node7" class="node">
<title>Node7</title>
<g id="a_node7"><a xlink:title=" ">
<polygon fill="white" stroke="#bfbfbf" points="371.5,-73 371.5,-92 419.5,-92 419.5,-73 371.5,-73"/>
<text text-anchor="middle" x="395.5" y="-80" font-family="Helvetica,sans-Serif" font-size="10.00">mutex</text>
</a>
</g>
</g>
<!-- Node6&#45;&gt;Node7 -->
<g id="edge7" class="edge">
<title>Node6&#45;&gt;Node7</title>
<path fill="none" stroke="midnightblue" d="M373.23,-134.48C376.97,-125.9 382.86,-112.43 387.64,-101.48"/>
<polygon fill="midnightblue" stroke="midnightblue" points="390.98,-102.57 391.78,-92.01 384.57,-99.77 390.98,-102.57"/>
</g>
<!-- Node8 -->
<g id="node8" class="node">
<title>Node8</title>
<g id="a_node8"><a xlink:title=" ">
<polygon fill="white" stroke="#bfbfbf" points="438,-73 438,-92 545,-92 545,-73 438,-73"/>
<text text-anchor="middle" x="491.5" y="-80" font-family="Helvetica,sans-Serif" font-size="10.00">condition_variable</text>
</a>
</g>
</g>
<!-- Node6&#45;&gt;Node8 -->
<g id="edge8" class="edge">
<title>Node6&#45;&gt;Node8</title>
<path fill="none" stroke="midnightblue" d="M386.98,-134.48C407.36,-124.53 441.28,-107.99 464.92,-96.46"/>
<polygon fill="midnightblue" stroke="midnightblue" points="466.6,-99.54 474.05,-92.01 463.53,-93.25 466.6,-99.54"/>
</g>
</g>
</svg>
