<?xml version="1.0" encoding="UTF-8" standalone="no"?>
<!DOCTYPE svg PUBLIC "-//W3C//DTD SVG 1.1//EN"
 "http://www.w3.org/Graphics/SVG/1.1/DTD/svg11.dtd">
<!-- Generated by graphviz version 2.43.0 (0)
 -->
<!-- Title: factory.h Pages: 1 -->
<svg width="1516pt" height="442pt"
 viewBox="0.00 0.00 1516.44 442.00" xmlns="http://www.w3.org/2000/svg" xmlns:xlink="http://www.w3.org/1999/xlink">
<g id="graph0" class="graph" transform="scale(1 1) rotate(0) translate(4 438)">
<title>factory.h</title>
<polygon fill="white" stroke="transparent" points="-4,4 -4,-438 1512.44,-438 1512.44,4 -4,4"/>
<!-- Node1 -->
<g id="node1" class="node">
<title>Node1</title>
<g id="a_node1"><a xlink:title=" ">
<polygon fill="#bfbfbf" stroke="black" points="843.44,-414.5 843.44,-433.5 902.44,-433.5 902.44,-414.5 843.44,-414.5"/>
<text text-anchor="middle" x="872.94" y="-421.5" font-family="Helvetica,sans-Serif" font-size="10.00">factory.h</text>
</a>
</g>
</g>
<!-- Node2 -->
<g id="node2" class="node">
<title>Node2</title>
<g id="a_node2"><a xlink:href="config_8hxx.html" target="_top" xlink:title=" ">
<polygon fill="white" stroke="black" points="316.94,-73 316.94,-92 432.94,-92 432.94,-73 316.94,-73"/>
<text text-anchor="middle" x="374.94" y="-80" font-family="Helvetica,sans-Serif" font-size="10.00">log4cplus/config.hxx</text>
</a>
</g>
</g>
<!-- Node1&#45;&gt;Node2 -->
<g id="edge1" class="edge">
<title>Node1&#45;&gt;Node2</title>
<path fill="none" stroke="midnightblue" d="M843.42,-422.45C691.1,-419.24 0.94,-399.88 0.94,-313 0.94,-313 0.94,-313 0.94,-199 0.94,-168.9 -2.81,-153.71 19.94,-134 41.21,-115.57 209.6,-97.98 306.62,-89.24"/>
<polygon fill="midnightblue" stroke="midnightblue" points="307,-92.72 316.65,-88.34 306.37,-85.74 307,-92.72"/>
</g>
<!-- Node5 -->
<g id="node5" class="node">
<title>Node5</title>
<g id="a_node5"><a xlink:href="appender_8h.html" target="_top" xlink:title=" ">
<polygon fill="white" stroke="black" points="812.94,-358.5 812.94,-377.5 932.94,-377.5 932.94,-358.5 812.94,-358.5"/>
<text text-anchor="middle" x="872.94" y="-365.5" font-family="Helvetica,sans-Serif" font-size="10.00">log4cplus/appender.h</text>
</a>
</g>
</g>
<!-- Node1&#45;&gt;Node5 -->
<g id="edge4" class="edge">
<title>Node1&#45;&gt;Node5</title>
<path fill="none" stroke="midnightblue" d="M872.94,-414.08C872.94,-407.01 872.94,-396.86 872.94,-387.99"/>
<polygon fill="midnightblue" stroke="midnightblue" points="876.44,-387.75 872.94,-377.75 869.44,-387.75 876.44,-387.75"/>
</g>
<!-- Node6 -->
<g id="node6" class="node">
<title>Node6</title>
<g id="a_node6"><a xlink:href="layout_8h.html" target="_top" xlink:title=" ">
<polygon fill="white" stroke="black" points="400.94,-302.5 400.94,-321.5 506.94,-321.5 506.94,-302.5 400.94,-302.5"/>
<text text-anchor="middle" x="453.94" y="-309.5" font-family="Helvetica,sans-Serif" font-size="10.00">log4cplus/layout.h</text>
</a>
</g>
</g>
<!-- Node1&#45;&gt;Node6 -->
<g id="edge60" class="edge">
<title>Node1&#45;&gt;Node6</title>
<path fill="none" stroke="midnightblue" d="M843.14,-415.18C769.93,-395.96 581.05,-346.37 496.25,-324.11"/>
<polygon fill="midnightblue" stroke="midnightblue" points="497,-320.69 486.44,-321.53 495.22,-327.46 497,-320.69"/>
</g>
<!-- Node8 -->
<g id="node8" class="node">
<title>Node8</title>
<g id="a_node8"><a xlink:title=" ">
<polygon fill="white" stroke="#bfbfbf" points="1057.44,-190.5 1057.44,-209.5 1104.44,-209.5 1104.44,-190.5 1057.44,-190.5"/>
<text text-anchor="middle" x="1080.94" y="-197.5" font-family="Helvetica,sans-Serif" font-size="10.00">vector</text>
</a>
</g>
</g>
<!-- Node1&#45;&gt;Node8 -->
<g id="edge71" class="edge">
<title>Node1&#45;&gt;Node8</title>
<path fill="none" stroke="midnightblue" d="M898.62,-414.49C918.13,-407.1 944.77,-394.91 963.94,-378 1017.5,-330.73 1057.06,-253.5 1073.09,-218.83"/>
<polygon fill="midnightblue" stroke="midnightblue" points="1076.37,-220.07 1077.3,-209.52 1069.99,-217.19 1076.37,-220.07"/>
</g>
<!-- Node9 -->
<g id="node9" class="node">
<title>Node9</title>
<g id="a_node9"><a xlink:title=" ">
<polygon fill="white" stroke="#bfbfbf" points="980.94,-190.5 980.94,-209.5 1038.94,-209.5 1038.94,-190.5 980.94,-190.5"/>
<text text-anchor="middle" x="1009.94" y="-197.5" font-family="Helvetica,sans-Serif" font-size="10.00">memory</text>
</a>
</g>
</g>
<!-- Node1&#45;&gt;Node9 -->
<g id="edge70" class="edge">
<title>Node1&#45;&gt;Node9</title>
<path fill="none" stroke="midnightblue" d="M891.2,-414.4C906.28,-406.58 927.49,-393.86 941.94,-378 979.83,-336.41 983.71,-319.56 1000.94,-266 1005.79,-250.9 1008.03,-233 1009.06,-219.81"/>
<polygon fill="midnightblue" stroke="midnightblue" points="1012.57,-219.82 1009.69,-209.62 1005.58,-219.39 1012.57,-219.82"/>
</g>
<!-- Node11 -->
<g id="node11" class="node">
<title>Node11</title>
<g id="a_node11"><a xlink:href="tstring_8h.html" target="_top" xlink:title=" ">
<polygon fill="white" stroke="black" points="427.44,-190.5 427.44,-209.5 534.44,-209.5 534.44,-190.5 427.44,-190.5"/>
<text text-anchor="middle" x="480.94" y="-197.5" font-family="Helvetica,sans-Serif" font-size="10.00">log4cplus/tstring.h</text>
</a>
</g>
</g>
<!-- Node1&#45;&gt;Node11 -->
<g id="edge61" class="edge">
<title>Node1&#45;&gt;Node11</title>
<path fill="none" stroke="midnightblue" d="M843.24,-421.55C747.26,-416.19 448.41,-393.87 391.94,-322 362.21,-284.17 421.57,-238.01 457.04,-215.19"/>
<polygon fill="midnightblue" stroke="midnightblue" points="459.27,-217.92 465.89,-209.65 455.56,-211.98 459.27,-217.92"/>
</g>
<!-- Node31 -->
<g id="node31" class="node">
<title>Node31</title>
<g id="a_node31"><a xlink:href="filter_8h.html" target="_top" xlink:title="This header defines Filter and all of it&#39;s subclasses.">
<polygon fill="white" stroke="black" points="590.94,-302.5 590.94,-321.5 704.94,-321.5 704.94,-302.5 590.94,-302.5"/>
<text text-anchor="middle" x="647.94" y="-309.5" font-family="Helvetica,sans-Serif" font-size="10.00">log4cplus/spi/filter.h</text>
</a>
</g>
</g>
<!-- Node1&#45;&gt;Node31 -->
<g id="edge62" class="edge">
<title>Node1&#45;&gt;Node31</title>
<path fill="none" stroke="midnightblue" d="M855.28,-414.37C816.01,-395.17 721.25,-348.84 674.68,-326.07"/>
<polygon fill="midnightblue" stroke="midnightblue" points="676.03,-322.84 665.51,-321.59 672.96,-329.13 676.03,-322.84"/>
</g>
<!-- Node33 -->
<g id="node33" class="node">
<title>Node33</title>
<g id="a_node33"><a xlink:href="objectregistry_8h.html" target="_top" xlink:title=" ">
<polygon fill="white" stroke="black" points="1230.94,-246.5 1230.94,-265.5 1388.94,-265.5 1388.94,-246.5 1230.94,-246.5"/>
<text text-anchor="middle" x="1309.94" y="-253.5" font-family="Helvetica,sans-Serif" font-size="10.00">log4cplus/spi/objectregistry.h</text>
</a>
</g>
</g>
<!-- Node1&#45;&gt;Node33 -->
<g id="edge63" class="edge">
<title>Node1&#45;&gt;Node33</title>
<path fill="none" stroke="midnightblue" d="M902.57,-423.66C985.01,-424.89 1214.7,-424.02 1270.94,-378 1301.73,-352.81 1308.49,-303.1 1309.8,-275.9"/>
<polygon fill="midnightblue" stroke="midnightblue" points="1313.3,-275.84 1310.08,-265.75 1306.31,-275.65 1313.3,-275.84"/>
</g>
<!-- Node35 -->
<g id="node35" class="node">
<title>Node35</title>
<g id="a_node35"><a xlink:title=" ">
<polygon fill="white" stroke="#bfbfbf" points="1322.94,-358.5 1322.94,-377.5 1368.94,-377.5 1368.94,-358.5 1322.94,-358.5"/>
<text text-anchor="middle" x="1345.94" y="-365.5" font-family="Helvetica,sans-Serif" font-size="10.00">locale</text>
</a>
</g>
</g>
<!-- Node1&#45;&gt;Node35 -->
<g id="edge72" class="edge">
<title>Node1&#45;&gt;Node35</title>
<path fill="none" stroke="midnightblue" d="M902.47,-421.34C973.11,-417.07 1157.27,-404.15 1308.94,-378 1310.18,-377.79 1311.45,-377.55 1312.73,-377.31"/>
<polygon fill="midnightblue" stroke="midnightblue" points="1313.51,-380.72 1322.55,-375.2 1312.04,-373.87 1313.51,-380.72"/>
</g>
<!-- Node3 -->
<g id="node3" class="node">
<title>Node3</title>
<g id="a_node3"><a xlink:href="win32_8h.html" target="_top" xlink:title=" ">
<polygon fill="white" stroke="black" points="229.44,-6 229.44,-25 366.44,-25 366.44,-6 229.44,-6"/>
<text text-anchor="middle" x="297.94" y="-13" font-family="Helvetica,sans-Serif" font-size="10.00">log4cplus/config/win32.h</text>
</a>
</g>
</g>
<!-- Node2&#45;&gt;Node3 -->
<g id="edge2" class="edge">
<title>Node2&#45;&gt;Node3</title>
<path fill="none" stroke="midnightblue" d="M364.55,-72.73C352.08,-62.21 330.96,-44.38 315.85,-31.62"/>
<polygon fill="midnightblue" stroke="midnightblue" points="318.06,-28.9 308.16,-25.13 313.54,-34.25 318.06,-28.9"/>
</g>
<!-- Node4 -->
<g id="node4" class="node">
<title>Node4</title>
<g id="a_node4"><a xlink:href="thread-config_8h.html" target="_top" xlink:title=" ">
<polygon fill="white" stroke="black" points="384.44,-0.5 384.44,-30.5 521.44,-30.5 521.44,-0.5 384.44,-0.5"/>
<text text-anchor="start" x="392.44" y="-18.5" font-family="Helvetica,sans-Serif" font-size="10.00">log4cplus/helpers/thread</text>
<text text-anchor="middle" x="452.94" y="-7.5" font-family="Helvetica,sans-Serif" font-size="10.00">&#45;config.h</text>
</a>
</g>
</g>
<!-- Node2&#45;&gt;Node4 -->
<g id="edge3" class="edge">
<title>Node2&#45;&gt;Node4</title>
<path fill="none" stroke="midnightblue" d="M385.46,-72.73C396.3,-63.7 413.61,-49.27 427.98,-37.3"/>
<polygon fill="midnightblue" stroke="midnightblue" points="430.59,-39.68 436.03,-30.59 426.11,-34.3 430.59,-39.68"/>
</g>
<!-- Node5&#45;&gt;Node2 -->
<g id="edge5" class="edge">
<title>Node5&#45;&gt;Node2</title>
<path fill="none" stroke="midnightblue" d="M915.35,-358.46C945.83,-351.3 987.32,-339.42 1020.94,-322 1056.93,-303.35 1065.59,-295.92 1092.94,-266 1112.9,-244.16 1120.6,-238.39 1128.94,-210 1139.22,-175 1128.7,-153.61 1097.94,-134 1043.57,-99.35 612.91,-87.81 443.27,-84.59"/>
<polygon fill="midnightblue" stroke="midnightblue" points="443.27,-81.09 433.2,-84.4 443.14,-88.09 443.27,-81.09"/>
</g>
<!-- Node5&#45;&gt;Node6 -->
<g id="edge6" class="edge">
<title>Node5&#45;&gt;Node6</title>
<path fill="none" stroke="midnightblue" d="M812.82,-359.43C742.73,-350.58 623.41,-335.43 520.94,-322 519.66,-321.83 518.37,-321.66 517.07,-321.49"/>
<polygon fill="midnightblue" stroke="midnightblue" points="517.34,-318 506.96,-320.15 516.42,-324.94 517.34,-318"/>
</g>
<!-- Node7 -->
<g id="node7" class="node">
<title>Node7</title>
<g id="a_node7"><a xlink:href="loglevel_8h.html" target="_top" xlink:title="This header defines the LogLevel type.">
<polygon fill="white" stroke="black" points="590.94,-246.5 590.94,-265.5 704.94,-265.5 704.94,-246.5 590.94,-246.5"/>
<text text-anchor="middle" x="647.94" y="-253.5" font-family="Helvetica,sans-Serif" font-size="10.00">log4cplus/loglevel.h</text>
</a>
</g>
</g>
<!-- Node5&#45;&gt;Node7 -->
<g id="edge44" class="edge">
<title>Node5&#45;&gt;Node7</title>
<path fill="none" stroke="midnightblue" d="M847.07,-358.37C823.21,-350.08 787.03,-336.68 756.94,-322 725.23,-306.53 690.54,-284.98 669.01,-271.01"/>
<polygon fill="midnightblue" stroke="midnightblue" points="670.92,-268.08 660.63,-265.53 667.08,-273.93 670.92,-268.08"/>
</g>
<!-- Node5&#45;&gt;Node9 -->
<g id="edge56" class="edge">
<title>Node5&#45;&gt;Node9</title>
<path fill="none" stroke="midnightblue" d="M885.3,-358.3C907.31,-342.28 953.65,-306.03 981.94,-266 992.12,-251.59 999.69,-232.89 1004.37,-219.25"/>
<polygon fill="midnightblue" stroke="midnightblue" points="1007.76,-220.17 1007.51,-209.58 1001.1,-218.01 1007.76,-220.17"/>
</g>
<!-- Node5&#45;&gt;Node11 -->
<g id="edge45" class="edge">
<title>Node5&#45;&gt;Node11</title>
<path fill="none" stroke="midnightblue" d="M812.83,-362.71C739.45,-356.62 620.38,-343.72 581.94,-322 538.21,-297.29 505.26,-245.81 490.12,-218.65"/>
<polygon fill="midnightblue" stroke="midnightblue" points="493.03,-216.68 485.2,-209.54 486.87,-220 493.03,-216.68"/>
</g>
<!-- Node18 -->
<g id="node18" class="node">
<title>Node18</title>
<g id="a_node18"><a xlink:href="pointer_8h.html" target="_top" xlink:title=" ">
<polygon fill="white" stroke="black" points="738.94,-190.5 738.94,-209.5 886.94,-209.5 886.94,-190.5 738.94,-190.5"/>
<text text-anchor="middle" x="812.94" y="-197.5" font-family="Helvetica,sans-Serif" font-size="10.00">log4cplus/helpers/pointer.h</text>
</a>
</g>
</g>
<!-- Node5&#45;&gt;Node18 -->
<g id="edge46" class="edge">
<title>Node5&#45;&gt;Node18</title>
<path fill="none" stroke="midnightblue" d="M862.13,-358.42C843.15,-342.57 804.48,-306.6 789.94,-266 784.16,-249.86 792.04,-231.43 800.12,-218.33"/>
<polygon fill="midnightblue" stroke="midnightblue" points="803.15,-220.09 805.83,-209.84 797.34,-216.18 803.15,-220.09"/>
</g>
<!-- Node20 -->
<g id="node20" class="node">
<title>Node20</title>
<g id="a_node20"><a xlink:title=" ">
<polygon fill="white" stroke="#bfbfbf" points="1334.94,-73 1334.94,-92 1382.94,-92 1382.94,-73 1334.94,-73"/>
<text text-anchor="middle" x="1358.94" y="-80" font-family="Helvetica,sans-Serif" font-size="10.00">mutex</text>
</a>
</g>
</g>
<!-- Node5&#45;&gt;Node20 -->
<g id="edge57" class="edge">
<title>Node5&#45;&gt;Node20</title>
<path fill="none" stroke="midnightblue" d="M933,-365.05C1058.65,-359.54 1342.27,-339.11 1397.94,-266 1433.48,-219.33 1416.88,-189.52 1397.94,-134 1393.46,-120.86 1384.02,-108.49 1375.55,-99.28"/>
<polygon fill="midnightblue" stroke="midnightblue" points="1377.99,-96.77 1368.51,-92.06 1372.98,-101.66 1377.99,-96.77"/>
</g>
<!-- Node21 -->
<g id="node21" class="node">
<title>Node21</title>
<g id="a_node21"><a xlink:title=" ">
<polygon fill="white" stroke="#bfbfbf" points="1401.44,-73 1401.44,-92 1508.44,-92 1508.44,-73 1401.44,-73"/>
<text text-anchor="middle" x="1454.94" y="-80" font-family="Helvetica,sans-Serif" font-size="10.00">condition_variable</text>
</a>
</g>
</g>
<!-- Node5&#45;&gt;Node21 -->
<g id="edge59" class="edge">
<title>Node5&#45;&gt;Node21</title>
<path fill="none" stroke="midnightblue" d="M933.23,-363.83C1039.43,-357.79 1255.49,-343.29 1327.94,-322 1388.77,-304.12 1454.94,-320.41 1454.94,-257 1454.94,-257 1454.94,-257 1454.94,-199 1454.94,-164.86 1454.94,-125.05 1454.94,-102.21"/>
<polygon fill="midnightblue" stroke="midnightblue" points="1458.44,-102.19 1454.94,-92.19 1451.44,-102.19 1458.44,-102.19"/>
</g>
<!-- Node25 -->
<g id="node25" class="node">
<title>Node25</title>
<g id="a_node25"><a xlink:title=" ">
<polygon fill="white" stroke="#bfbfbf" points="1038.94,-134.5 1038.94,-153.5 1088.94,-153.5 1088.94,-134.5 1038.94,-134.5"/>
<text text-anchor="middle" x="1063.94" y="-141.5" font-family="Helvetica,sans-Serif" font-size="10.00">atomic</text>
</a>
</g>
</g>
<!-- Node5&#45;&gt;Node25 -->
<g id="edge58" class="edge">
<title>Node5&#45;&gt;Node25</title>
<path fill="none" stroke="midnightblue" d="M902.29,-358.41C956.24,-340.83 1069.66,-295.04 1113.94,-210 1123.79,-191.07 1104.97,-172.03 1087.67,-159.49"/>
<polygon fill="midnightblue" stroke="midnightblue" points="1089.17,-156.28 1078.92,-153.56 1085.24,-162.07 1089.17,-156.28"/>
</g>
<!-- Node5&#45;&gt;Node31 -->
<g id="edge47" class="edge">
<title>Node5&#45;&gt;Node31</title>
<path fill="none" stroke="midnightblue" d="M837.29,-358.44C798.28,-349.08 735.67,-334.06 693.22,-323.87"/>
<polygon fill="midnightblue" stroke="midnightblue" points="693.96,-320.45 683.42,-321.52 692.33,-327.25 693.96,-320.45"/>
</g>
<!-- Node32 -->
<g id="node32" class="node">
<title>Node32</title>
<g id="a_node32"><a xlink:href="lockfile_8h.html" target="_top" xlink:title=" ">
<polygon fill="white" stroke="black" points="798.44,-246.5 798.44,-265.5 947.44,-265.5 947.44,-246.5 798.44,-246.5"/>
<text text-anchor="middle" x="872.94" y="-253.5" font-family="Helvetica,sans-Serif" font-size="10.00">log4cplus/helpers/lockfile.h</text>
</a>
</g>
</g>
<!-- Node5&#45;&gt;Node32 -->
<g id="edge52" class="edge">
<title>Node5&#45;&gt;Node32</title>
<path fill="none" stroke="midnightblue" d="M872.94,-358.37C872.94,-340.62 872.94,-299.67 872.94,-275.6"/>
<polygon fill="midnightblue" stroke="midnightblue" points="876.44,-275.59 872.94,-265.59 869.44,-275.59 876.44,-275.59"/>
</g>
<!-- Node6&#45;&gt;Node2 -->
<g id="edge7" class="edge">
<title>Node6&#45;&gt;Node2</title>
<path fill="none" stroke="midnightblue" d="M438.61,-302.49C424.96,-294.37 405.02,-281.17 390.94,-266 381.03,-255.33 326.86,-168.02 322.94,-154 320.54,-145.44 319.48,-142.19 322.94,-134 329.03,-119.59 341.47,-107.27 352.65,-98.4"/>
<polygon fill="midnightblue" stroke="midnightblue" points="354.9,-101.09 360.83,-92.32 350.72,-95.48 354.9,-101.09"/>
</g>
<!-- Node6&#45;&gt;Node7 -->
<g id="edge8" class="edge">
<title>Node6&#45;&gt;Node7</title>
<path fill="none" stroke="midnightblue" d="M484.68,-302.44C517.88,-293.2 570.93,-278.44 607.49,-268.26"/>
<polygon fill="midnightblue" stroke="midnightblue" points="608.65,-271.57 617.34,-265.52 606.77,-264.83 608.65,-271.57"/>
</g>
<!-- Node6&#45;&gt;Node8 -->
<g id="edge42" class="edge">
<title>Node6&#45;&gt;Node8</title>
<path fill="none" stroke="midnightblue" d="M507.22,-307.17C636.86,-297.75 959.74,-273.68 981.94,-266 1013.62,-255.04 1045.1,-231.68 1063.78,-216.16"/>
<polygon fill="midnightblue" stroke="midnightblue" points="1066.08,-218.8 1071.43,-209.65 1061.54,-213.47 1066.08,-218.8"/>
</g>
<!-- Node6&#45;&gt;Node9 -->
<g id="edge43" class="edge">
<title>Node6&#45;&gt;Node9</title>
<path fill="none" stroke="midnightblue" d="M507.01,-306.8C634.28,-296.64 947.08,-271.23 956.94,-266 976.77,-255.47 991.94,-234.04 1000.87,-218.66"/>
<polygon fill="midnightblue" stroke="midnightblue" points="1004.1,-220.06 1005.82,-209.61 997.95,-216.7 1004.1,-220.06"/>
</g>
<!-- Node6&#45;&gt;Node11 -->
<g id="edge36" class="edge">
<title>Node6&#45;&gt;Node11</title>
<path fill="none" stroke="midnightblue" d="M456.06,-302.37C460.41,-284.62 470.46,-243.67 476.37,-219.6"/>
<polygon fill="midnightblue" stroke="midnightblue" points="479.84,-220.14 478.83,-209.59 473.05,-218.47 479.84,-220.14"/>
</g>
<!-- Node26 -->
<g id="node26" class="node">
<title>Node26</title>
<g id="a_node26"><a xlink:href="streams_8h.html" target="_top" xlink:title=" ">
<polygon fill="white" stroke="black" points="49.44,-190.5 49.44,-209.5 164.44,-209.5 164.44,-190.5 49.44,-190.5"/>
<text text-anchor="middle" x="106.94" y="-197.5" font-family="Helvetica,sans-Serif" font-size="10.00">log4cplus/streams.h</text>
</a>
</g>
</g>
<!-- Node6&#45;&gt;Node26 -->
<g id="edge32" class="edge">
<title>Node6&#45;&gt;Node26</title>
<path fill="none" stroke="midnightblue" d="M400.65,-310.62C318.19,-308.92 164.98,-301 124.94,-266 111.87,-254.58 107.9,-234.59 106.87,-219.79"/>
<polygon fill="midnightblue" stroke="midnightblue" points="110.37,-219.59 106.56,-209.71 103.37,-219.81 110.37,-219.59"/>
</g>
<!-- Node28 -->
<g id="node28" class="node">
<title>Node28</title>
<g id="a_node28"><a xlink:href="timehelper_8h.html" target="_top" xlink:title=" ">
<polygon fill="white" stroke="black" points="134.44,-246.5 134.44,-265.5 301.44,-265.5 301.44,-246.5 134.44,-246.5"/>
<text text-anchor="middle" x="217.94" y="-253.5" font-family="Helvetica,sans-Serif" font-size="10.00">log4cplus/helpers/timehelper.h</text>
</a>
</g>
</g>
<!-- Node6&#45;&gt;Node28 -->
<g id="edge37" class="edge">
<title>Node6&#45;&gt;Node28</title>
<path fill="none" stroke="midnightblue" d="M416.54,-302.44C375.55,-293.06 309.68,-277.99 265.15,-267.8"/>
<polygon fill="midnightblue" stroke="midnightblue" points="265.69,-264.34 255.16,-265.52 264.12,-271.16 265.69,-264.34"/>
</g>
<!-- Node7&#45;&gt;Node2 -->
<g id="edge9" class="edge">
<title>Node7&#45;&gt;Node2</title>
<path fill="none" stroke="midnightblue" d="M640.42,-246.34C629.99,-233.21 613.71,-207.91 625.94,-190 652.92,-150.46 749.22,-170.23 717.94,-134 683.18,-93.75 533.01,-85.01 443.29,-83.45"/>
<polygon fill="midnightblue" stroke="midnightblue" points="443.25,-79.95 433.2,-83.3 443.15,-86.95 443.25,-79.95"/>
</g>
<!-- Node7&#45;&gt;Node8 -->
<g id="edge10" class="edge">
<title>Node7&#45;&gt;Node8</title>
<path fill="none" stroke="midnightblue" d="M704.99,-251.36C780.99,-245.9 919.7,-233.79 1047.3,-209.83"/>
<polygon fill="midnightblue" stroke="midnightblue" points="1048.08,-213.24 1057.25,-207.93 1046.77,-206.37 1048.08,-213.24"/>
</g>
<!-- Node7&#45;&gt;Node9 -->
<g id="edge11" class="edge">
<title>Node7&#45;&gt;Node9</title>
<path fill="none" stroke="midnightblue" d="M705.3,-246.44C779.52,-235.37 906.86,-216.38 970.84,-206.83"/>
<polygon fill="midnightblue" stroke="midnightblue" points="971.54,-210.27 980.91,-205.33 970.51,-203.34 971.54,-210.27"/>
</g>
<!-- Node10 -->
<g id="node10" class="node">
<title>Node10</title>
<g id="a_node10"><a xlink:title=" ">
<polygon fill="white" stroke="#bfbfbf" points="634.94,-190.5 634.94,-209.5 720.94,-209.5 720.94,-190.5 634.94,-190.5"/>
<text text-anchor="middle" x="677.94" y="-197.5" font-family="Helvetica,sans-Serif" font-size="10.00">shared_mutex</text>
</a>
</g>
</g>
<!-- Node7&#45;&gt;Node10 -->
<g id="edge12" class="edge">
<title>Node7&#45;&gt;Node10</title>
<path fill="none" stroke="midnightblue" d="M652.89,-246.08C657.04,-238.61 663.09,-227.72 668.2,-218.52"/>
<polygon fill="midnightblue" stroke="midnightblue" points="671.28,-220.19 673.08,-209.75 665.16,-216.79 671.28,-220.19"/>
</g>
<!-- Node7&#45;&gt;Node11 -->
<g id="edge13" class="edge">
<title>Node7&#45;&gt;Node11</title>
<path fill="none" stroke="midnightblue" d="M621.48,-246.44C593.26,-237.32 548.4,-222.81 516.97,-212.65"/>
<polygon fill="midnightblue" stroke="midnightblue" points="517.87,-209.26 507.28,-209.52 515.71,-215.92 517.87,-209.26"/>
</g>
<!-- Node7&#45;&gt;Node18 -->
<g id="edge22" class="edge">
<title>Node7&#45;&gt;Node18</title>
<path fill="none" stroke="midnightblue" d="M674.08,-246.44C701.96,-237.32 746.29,-222.81 777.34,-212.65"/>
<polygon fill="midnightblue" stroke="midnightblue" points="778.5,-215.95 786.91,-209.52 776.32,-209.3 778.5,-215.95"/>
</g>
<!-- Node11&#45;&gt;Node2 -->
<g id="edge14" class="edge">
<title>Node11&#45;&gt;Node2</title>
<path fill="none" stroke="midnightblue" d="M451.08,-190.48C432.1,-183.58 408.45,-172.01 393.94,-154 382.15,-139.37 377.64,-118.05 375.94,-102.69"/>
<polygon fill="midnightblue" stroke="midnightblue" points="379.39,-102 375.1,-92.31 372.41,-102.56 379.39,-102"/>
</g>
<!-- Node12 -->
<g id="node12" class="node">
<title>Node12</title>
<g id="a_node12"><a xlink:title=" ">
<polygon fill="white" stroke="#bfbfbf" points="403.44,-134.5 403.44,-153.5 472.44,-153.5 472.44,-134.5 403.44,-134.5"/>
<text text-anchor="middle" x="437.94" y="-141.5" font-family="Helvetica,sans-Serif" font-size="10.00">type_traits</text>
</a>
</g>
</g>
<!-- Node11&#45;&gt;Node12 -->
<g id="edge15" class="edge">
<title>Node11&#45;&gt;Node12</title>
<path fill="none" stroke="midnightblue" d="M473.84,-190.08C467.7,-182.38 458.67,-171.03 451.2,-161.65"/>
<polygon fill="midnightblue" stroke="midnightblue" points="453.87,-159.39 444.91,-153.75 448.4,-163.75 453.87,-159.39"/>
</g>
<!-- Node13 -->
<g id="node13" class="node">
<title>Node13</title>
<g id="a_node13"><a xlink:title=" ">
<polygon fill="white" stroke="#bfbfbf" points="644.44,-134.5 644.44,-153.5 709.44,-153.5 709.44,-134.5 644.44,-134.5"/>
<text text-anchor="middle" x="676.94" y="-141.5" font-family="Helvetica,sans-Serif" font-size="10.00">functional</text>
</a>
</g>
</g>
<!-- Node11&#45;&gt;Node13 -->
<g id="edge16" class="edge">
<title>Node11&#45;&gt;Node13</title>
<path fill="none" stroke="midnightblue" d="M511.99,-190.44C545.54,-181.2 599.13,-166.44 636.08,-156.26"/>
<polygon fill="midnightblue" stroke="midnightblue" points="637.31,-159.55 646.03,-153.52 635.46,-152.8 637.31,-159.55"/>
</g>
<!-- Node14 -->
<g id="node14" class="node">
<title>Node14</title>
<g id="a_node14"><a xlink:title=" ">
<polygon fill="white" stroke="#bfbfbf" points="490.94,-134.5 490.94,-153.5 534.94,-153.5 534.94,-134.5 490.94,-134.5"/>
<text text-anchor="middle" x="512.94" y="-141.5" font-family="Helvetica,sans-Serif" font-size="10.00">string</text>
</a>
</g>
</g>
<!-- Node11&#45;&gt;Node14 -->
<g id="edge17" class="edge">
<title>Node11&#45;&gt;Node14</title>
<path fill="none" stroke="midnightblue" d="M486.22,-190.08C490.65,-182.61 497.1,-171.72 502.56,-162.52"/>
<polygon fill="midnightblue" stroke="midnightblue" points="505.66,-164.14 507.75,-153.75 499.64,-160.57 505.66,-164.14"/>
</g>
<!-- Node15 -->
<g id="node15" class="node">
<title>Node15</title>
<g id="a_node15"><a xlink:title=" ">
<polygon fill="white" stroke="#bfbfbf" points="553.44,-134.5 553.44,-153.5 626.44,-153.5 626.44,-134.5 553.44,-134.5"/>
<text text-anchor="middle" x="589.94" y="-141.5" font-family="Helvetica,sans-Serif" font-size="10.00">string_view</text>
</a>
</g>
</g>
<!-- Node11&#45;&gt;Node15 -->
<g id="edge18" class="edge">
<title>Node11&#45;&gt;Node15</title>
<path fill="none" stroke="midnightblue" d="M498.45,-190.32C516.01,-181.62 543.27,-168.12 563.47,-158.11"/>
<polygon fill="midnightblue" stroke="midnightblue" points="565.06,-161.23 572.47,-153.65 561.95,-154.96 565.06,-161.23"/>
</g>
<!-- Node16 -->
<g id="node16" class="node">
<title>Node16</title>
<g id="a_node16"><a xlink:href="tchar_8h.html" target="_top" xlink:title=" ">
<polygon fill="white" stroke="black" points="95.44,-134.5 95.44,-153.5 194.44,-153.5 194.44,-134.5 95.44,-134.5"/>
<text text-anchor="middle" x="144.94" y="-141.5" font-family="Helvetica,sans-Serif" font-size="10.00">log4cplus/tchar.h</text>
</a>
</g>
</g>
<!-- Node11&#45;&gt;Node16 -->
<g id="edge19" class="edge">
<title>Node11&#45;&gt;Node16</title>
<path fill="none" stroke="midnightblue" d="M427.7,-190.44C367.05,-180.7 268.18,-164.81 204.87,-154.63"/>
<polygon fill="midnightblue" stroke="midnightblue" points="205.07,-151.12 194.64,-152.99 203.96,-158.03 205.07,-151.12"/>
</g>
<!-- Node16&#45;&gt;Node2 -->
<g id="edge20" class="edge">
<title>Node16&#45;&gt;Node2</title>
<path fill="none" stroke="midnightblue" d="M177.89,-134.48C218.54,-123.96 287.72,-106.06 332.36,-94.51"/>
<polygon fill="midnightblue" stroke="midnightblue" points="333.24,-97.9 342.05,-92.01 331.49,-91.13 333.24,-97.9"/>
</g>
<!-- Node17 -->
<g id="node17" class="node">
<title>Node17</title>
<g id="a_node17"><a xlink:title=" ">
<polygon fill="white" stroke="#bfbfbf" points="118.44,-73 118.44,-92 171.44,-92 171.44,-73 118.44,-73"/>
<text text-anchor="middle" x="144.94" y="-80" font-family="Helvetica,sans-Serif" font-size="10.00">cstddef</text>
</a>
</g>
</g>
<!-- Node16&#45;&gt;Node17 -->
<g id="edge21" class="edge">
<title>Node16&#45;&gt;Node17</title>
<path fill="none" stroke="midnightblue" d="M144.94,-134.48C144.94,-126.08 144.94,-112.98 144.94,-102.16"/>
<polygon fill="midnightblue" stroke="midnightblue" points="148.44,-102.01 144.94,-92.01 141.44,-102.01 148.44,-102.01"/>
</g>
<!-- Node18&#45;&gt;Node2 -->
<g id="edge23" class="edge">
<title>Node18&#45;&gt;Node2</title>
<path fill="none" stroke="midnightblue" d="M807.79,-190.5C798.58,-176.13 777.81,-147.31 751.94,-134 699.51,-107.03 536.81,-93.11 443.17,-87.16"/>
<polygon fill="midnightblue" stroke="midnightblue" points="443.14,-83.66 432.94,-86.53 442.71,-90.64 443.14,-83.66"/>
</g>
<!-- Node19 -->
<g id="node19" class="node">
<title>Node19</title>
<g id="a_node19"><a xlink:href="syncprims_8h.html" target="_top" xlink:title=" ">
<polygon fill="white" stroke="black" points="1228.94,-134.5 1228.94,-153.5 1388.94,-153.5 1388.94,-134.5 1228.94,-134.5"/>
<text text-anchor="middle" x="1308.94" y="-141.5" font-family="Helvetica,sans-Serif" font-size="10.00">log4cplus/thread/syncprims.h</text>
</a>
</g>
</g>
<!-- Node18&#45;&gt;Node19 -->
<g id="edge24" class="edge">
<title>Node18&#45;&gt;Node19</title>
<path fill="none" stroke="midnightblue" d="M887.19,-190.92C976.24,-181.22 1125.34,-164.99 1220.32,-154.65"/>
<polygon fill="midnightblue" stroke="midnightblue" points="1220.92,-158.1 1230.48,-153.54 1220.16,-151.14 1220.92,-158.1"/>
</g>
<!-- Node23 -->
<g id="node23" class="node">
<title>Node23</title>
<g id="a_node23"><a xlink:title=" ">
<polygon fill="white" stroke="#bfbfbf" points="803.94,-134.5 803.94,-153.5 867.94,-153.5 867.94,-134.5 803.94,-134.5"/>
<text text-anchor="middle" x="835.94" y="-141.5" font-family="Helvetica,sans-Serif" font-size="10.00">algorithm</text>
</a>
</g>
</g>
<!-- Node18&#45;&gt;Node23 -->
<g id="edge29" class="edge">
<title>Node18&#45;&gt;Node23</title>
<path fill="none" stroke="midnightblue" d="M816.74,-190.08C819.85,-182.77 824.36,-172.18 828.23,-163.1"/>
<polygon fill="midnightblue" stroke="midnightblue" points="831.51,-164.32 832.21,-153.75 825.07,-161.58 831.51,-164.32"/>
</g>
<!-- Node24 -->
<g id="node24" class="node">
<title>Node24</title>
<g id="a_node24"><a xlink:title=" ">
<polygon fill="white" stroke="#bfbfbf" points="885.94,-134.5 885.94,-153.5 937.94,-153.5 937.94,-134.5 885.94,-134.5"/>
<text text-anchor="middle" x="911.94" y="-141.5" font-family="Helvetica,sans-Serif" font-size="10.00">cassert</text>
</a>
</g>
</g>
<!-- Node18&#45;&gt;Node24 -->
<g id="edge30" class="edge">
<title>Node18&#45;&gt;Node24</title>
<path fill="none" stroke="midnightblue" d="M828.84,-190.32C844.58,-181.74 868.88,-168.49 887.15,-158.52"/>
<polygon fill="midnightblue" stroke="midnightblue" points="888.97,-161.52 896.07,-153.65 885.62,-155.37 888.97,-161.52"/>
</g>
<!-- Node18&#45;&gt;Node25 -->
<g id="edge31" class="edge">
<title>Node18&#45;&gt;Node25</title>
<path fill="none" stroke="midnightblue" d="M852.71,-190.44C901.29,-179.99 982.69,-162.48 1028.97,-152.52"/>
<polygon fill="midnightblue" stroke="midnightblue" points="1029.8,-155.92 1038.84,-150.4 1028.33,-149.08 1029.8,-155.92"/>
</g>
<!-- Node19&#45;&gt;Node2 -->
<g id="edge25" class="edge">
<title>Node19&#45;&gt;Node2</title>
<path fill="none" stroke="midnightblue" d="M1228.7,-135.13C1224.05,-134.73 1219.43,-134.35 1214.94,-134 928.61,-111.69 586.7,-93.87 443.41,-86.79"/>
<polygon fill="midnightblue" stroke="midnightblue" points="443.19,-83.28 433.03,-86.28 442.85,-90.27 443.19,-83.28"/>
</g>
<!-- Node19&#45;&gt;Node20 -->
<g id="edge26" class="edge">
<title>Node19&#45;&gt;Node20</title>
<path fill="none" stroke="midnightblue" d="M1316.1,-134.48C1323.68,-125.46 1335.81,-111.02 1345.23,-99.81"/>
<polygon fill="midnightblue" stroke="midnightblue" points="1348.03,-101.92 1351.79,-92.01 1342.67,-97.41 1348.03,-101.92"/>
</g>
<!-- Node19&#45;&gt;Node21 -->
<g id="edge27" class="edge">
<title>Node19&#45;&gt;Node21</title>
<path fill="none" stroke="midnightblue" d="M1329.86,-134.48C1354.68,-124.36 1396.28,-107.4 1424.63,-95.85"/>
<polygon fill="midnightblue" stroke="midnightblue" points="1426.12,-99.02 1434.06,-92.01 1423.48,-92.54 1426.12,-99.02"/>
</g>
<!-- Node22 -->
<g id="node22" class="node">
<title>Node22</title>
<g id="a_node22"><a xlink:href="threadsafetyanalysis_8h.html" target="_top" xlink:title=" ">
<polygon fill="white" stroke="black" points="1185.44,-67.5 1185.44,-97.5 1316.44,-97.5 1316.44,-67.5 1185.44,-67.5"/>
<text text-anchor="start" x="1193.44" y="-85.5" font-family="Helvetica,sans-Serif" font-size="10.00">log4cplus/internal</text>
<text text-anchor="middle" x="1250.94" y="-74.5" font-family="Helvetica,sans-Serif" font-size="10.00">/threadsafetyanalysis.h</text>
</a>
</g>
</g>
<!-- Node19&#45;&gt;Node22 -->
<g id="edge28" class="edge">
<title>Node19&#45;&gt;Node22</title>
<path fill="none" stroke="midnightblue" d="M1300.63,-134.48C1293.14,-126.79 1281.81,-115.17 1271.86,-104.96"/>
<polygon fill="midnightblue" stroke="midnightblue" points="1274.09,-102.24 1264.61,-97.52 1269.08,-107.13 1274.09,-102.24"/>
</g>
<!-- Node26&#45;&gt;Node2 -->
<g id="edge33" class="edge">
<title>Node26&#45;&gt;Node2</title>
<path fill="none" stroke="midnightblue" d="M125.22,-190.44C160.37,-173.99 234.96,-139.14 246.94,-134 279.25,-120.14 316.72,-105.52 342.74,-95.6"/>
<polygon fill="midnightblue" stroke="midnightblue" points="344.01,-98.86 352.11,-92.04 341.52,-92.32 344.01,-98.86"/>
</g>
<!-- Node26&#45;&gt;Node16 -->
<g id="edge34" class="edge">
<title>Node26&#45;&gt;Node16</title>
<path fill="none" stroke="midnightblue" d="M113.21,-190.08C118.58,-182.46 126.45,-171.26 133.02,-161.94"/>
<polygon fill="midnightblue" stroke="midnightblue" points="135.89,-163.94 138.78,-153.75 130.16,-159.91 135.89,-163.94"/>
</g>
<!-- Node27 -->
<g id="node27" class="node">
<title>Node27</title>
<g id="a_node27"><a xlink:title=" ">
<polygon fill="white" stroke="#bfbfbf" points="28.94,-134.5 28.94,-153.5 76.94,-153.5 76.94,-134.5 28.94,-134.5"/>
<text text-anchor="middle" x="52.94" y="-141.5" font-family="Helvetica,sans-Serif" font-size="10.00">iosfwd</text>
</a>
</g>
</g>
<!-- Node26&#45;&gt;Node27 -->
<g id="edge35" class="edge">
<title>Node26&#45;&gt;Node27</title>
<path fill="none" stroke="midnightblue" d="M98.02,-190.08C90.16,-182.22 78.51,-170.57 69.02,-161.08"/>
<polygon fill="midnightblue" stroke="midnightblue" points="71.23,-158.35 61.69,-153.75 66.28,-163.3 71.23,-158.35"/>
</g>
<!-- Node28&#45;&gt;Node2 -->
<g id="edge38" class="edge">
<title>Node28&#45;&gt;Node2</title>
<path fill="none" stroke="midnightblue" d="M222.59,-246.29C237.04,-219.29 280.43,-138.53 284.94,-134 301.4,-117.45 324.41,-104.66 343.05,-96.1"/>
<polygon fill="midnightblue" stroke="midnightblue" points="344.6,-99.24 352.34,-92.01 341.78,-92.83 344.6,-99.24"/>
</g>
<!-- Node28&#45;&gt;Node11 -->
<g id="edge39" class="edge">
<title>Node28&#45;&gt;Node11</title>
<path fill="none" stroke="midnightblue" d="M259.61,-246.44C305.68,-236.98 379.93,-221.74 429.57,-211.55"/>
<polygon fill="midnightblue" stroke="midnightblue" points="430.37,-214.96 439.46,-209.52 428.96,-208.1 430.37,-214.96"/>
</g>
<!-- Node29 -->
<g id="node29" class="node">
<title>Node29</title>
<g id="a_node29"><a xlink:title=" ">
<polygon fill="white" stroke="#bfbfbf" points="288.94,-190.5 288.94,-209.5 332.94,-209.5 332.94,-190.5 288.94,-190.5"/>
<text text-anchor="middle" x="310.94" y="-197.5" font-family="Helvetica,sans-Serif" font-size="10.00">ctime</text>
</a>
</g>
</g>
<!-- Node28&#45;&gt;Node29 -->
<g id="edge40" class="edge">
<title>Node28&#45;&gt;Node29</title>
<path fill="none" stroke="midnightblue" d="M232.88,-246.32C247.52,-237.82 270.07,-224.73 287.17,-214.8"/>
<polygon fill="midnightblue" stroke="midnightblue" points="289.14,-217.7 296.03,-209.65 285.63,-211.65 289.14,-217.7"/>
</g>
<!-- Node30 -->
<g id="node30" class="node">
<title>Node30</title>
<g id="a_node30"><a xlink:title=" ">
<polygon fill="white" stroke="#bfbfbf" points="182.94,-190.5 182.94,-209.5 232.94,-209.5 232.94,-190.5 182.94,-190.5"/>
<text text-anchor="middle" x="207.94" y="-197.5" font-family="Helvetica,sans-Serif" font-size="10.00">chrono</text>
</a>
</g>
</g>
<!-- Node28&#45;&gt;Node30 -->
<g id="edge41" class="edge">
<title>Node28&#45;&gt;Node30</title>
<path fill="none" stroke="midnightblue" d="M216.29,-246.08C214.96,-238.93 213.05,-228.64 211.4,-219.69"/>
<polygon fill="midnightblue" stroke="midnightblue" points="214.82,-218.95 209.56,-209.75 207.94,-220.22 214.82,-218.95"/>
</g>
<!-- Node31&#45;&gt;Node2 -->
<g id="edge48" class="edge">
<title>Node31&#45;&gt;Node2</title>
<path fill="none" stroke="midnightblue" d="M613.51,-302.42C565.49,-289.09 477.6,-259.66 417.94,-210 394.82,-190.76 389.78,-182.42 379.94,-154 374.11,-137.17 373.28,-116.75 373.66,-102.23"/>
<polygon fill="midnightblue" stroke="midnightblue" points="377.16,-102.19 374.15,-92.03 370.17,-101.85 377.16,-102.19"/>
</g>
<!-- Node31&#45;&gt;Node7 -->
<g id="edge51" class="edge">
<title>Node31&#45;&gt;Node7</title>
<path fill="none" stroke="midnightblue" d="M647.94,-302.08C647.94,-295.01 647.94,-284.86 647.94,-275.99"/>
<polygon fill="midnightblue" stroke="midnightblue" points="651.44,-275.75 647.94,-265.75 644.44,-275.75 651.44,-275.75"/>
</g>
<!-- Node31&#45;&gt;Node13 -->
<g id="edge49" class="edge">
<title>Node31&#45;&gt;Node13</title>
<path fill="none" stroke="midnightblue" d="M625.48,-302.38C610.17,-295.18 591.07,-283.29 581.94,-266 577.78,-258.14 581.08,-254.85 581.94,-246 584.39,-220.75 577.86,-210.4 592.94,-190 604.03,-174.99 621.67,-164.46 637.93,-157.39"/>
<polygon fill="midnightblue" stroke="midnightblue" points="639.31,-160.61 647.28,-153.62 636.69,-154.11 639.31,-160.61"/>
</g>
<!-- Node31&#45;&gt;Node18 -->
<g id="edge50" class="edge">
<title>Node31&#45;&gt;Node18</title>
<path fill="none" stroke="midnightblue" d="M660.88,-302.37C689.2,-283.49 756.86,-238.38 791.58,-215.24"/>
<polygon fill="midnightblue" stroke="midnightblue" points="793.67,-218.05 800.05,-209.59 789.79,-212.23 793.67,-218.05"/>
</g>
<!-- Node32&#45;&gt;Node2 -->
<g id="edge53" class="edge">
<title>Node32&#45;&gt;Node2</title>
<path fill="none" stroke="midnightblue" d="M881.26,-246.18C904,-221.62 964.31,-152.98 946.94,-134 913.51,-97.49 587.67,-87.24 443.25,-84.47"/>
<polygon fill="midnightblue" stroke="midnightblue" points="443.24,-80.97 433.17,-84.29 443.11,-87.97 443.24,-80.97"/>
</g>
<!-- Node32&#45;&gt;Node11 -->
<g id="edge54" class="edge">
<title>Node32&#45;&gt;Node11</title>
<path fill="none" stroke="midnightblue" d="M810.82,-246.44C738.04,-236.42 618.07,-219.89 544.62,-209.77"/>
<polygon fill="midnightblue" stroke="midnightblue" points="544.96,-206.29 534.57,-208.39 544,-213.22 544.96,-206.29"/>
</g>
<!-- Node32&#45;&gt;Node19 -->
<g id="edge55" class="edge">
<title>Node32&#45;&gt;Node19</title>
<path fill="none" stroke="midnightblue" d="M882.78,-246.31C899.69,-231.92 935.91,-203.43 971.94,-190 1052.06,-160.13 1149.43,-149.65 1218.86,-146.19"/>
<polygon fill="midnightblue" stroke="midnightblue" points="1219.07,-149.68 1228.9,-145.73 1218.75,-142.69 1219.07,-149.68"/>
</g>
<!-- Node33&#45;&gt;Node2 -->
<g id="edge64" class="edge">
<title>Node33&#45;&gt;Node2</title>
<path fill="none" stroke="midnightblue" d="M1291.38,-246.37C1275.36,-238.37 1252.14,-225.39 1234.94,-210 1203.27,-181.67 1214.41,-154.03 1176.94,-134 1113.08,-99.87 625.4,-87.88 443.26,-84.57"/>
<polygon fill="midnightblue" stroke="midnightblue" points="443.07,-81.07 433.01,-84.39 442.94,-88.07 443.07,-81.07"/>
</g>
<!-- Node33&#45;&gt;Node8 -->
<g id="edge69" class="edge">
<title>Node33&#45;&gt;Node8</title>
<path fill="none" stroke="midnightblue" d="M1273.65,-246.44C1229.84,-236.11 1156.78,-218.88 1114.31,-208.87"/>
<polygon fill="midnightblue" stroke="midnightblue" points="1115,-205.44 1104.47,-206.55 1113.4,-212.25 1115,-205.44"/>
</g>
<!-- Node33&#45;&gt;Node9 -->
<g id="edge68" class="edge">
<title>Node33&#45;&gt;Node9</title>
<path fill="none" stroke="midnightblue" d="M1255.28,-246.49C1204.53,-238.38 1126.64,-225.42 1049.22,-209.96"/>
<polygon fill="midnightblue" stroke="midnightblue" points="1049.78,-206.5 1039.29,-207.96 1048.4,-213.36 1049.78,-206.5"/>
</g>
<!-- Node33&#45;&gt;Node11 -->
<g id="edge65" class="edge">
<title>Node33&#45;&gt;Node11</title>
<path fill="none" stroke="midnightblue" d="M1230.82,-249.85C1067.3,-239.19 694.85,-214.93 545.08,-205.18"/>
<polygon fill="midnightblue" stroke="midnightblue" points="544.89,-201.66 534.68,-204.5 544.43,-208.64 544.89,-201.66"/>
</g>
<!-- Node33&#45;&gt;Node19 -->
<g id="edge66" class="edge">
<title>Node33&#45;&gt;Node19</title>
<path fill="none" stroke="midnightblue" d="M1309.86,-246.37C1309.7,-228.62 1309.33,-187.67 1309.11,-163.6"/>
<polygon fill="midnightblue" stroke="midnightblue" points="1312.61,-163.56 1309.02,-153.59 1305.61,-163.62 1312.61,-163.56"/>
</g>
<!-- Node34 -->
<g id="node34" class="node">
<title>Node34</title>
<g id="a_node34"><a xlink:title=" ">
<polygon fill="white" stroke="#bfbfbf" points="1243.94,-190.5 1243.94,-209.5 1281.94,-209.5 1281.94,-190.5 1243.94,-190.5"/>
<text text-anchor="middle" x="1262.94" y="-197.5" font-family="Helvetica,sans-Serif" font-size="10.00">map</text>
</a>
</g>
</g>
<!-- Node33&#45;&gt;Node34 -->
<g id="edge67" class="edge">
<title>Node33&#45;&gt;Node34</title>
<path fill="none" stroke="midnightblue" d="M1302.18,-246.08C1295.4,-238.3 1285.39,-226.8 1277.18,-217.37"/>
<polygon fill="midnightblue" stroke="midnightblue" points="1279.76,-215 1270.55,-209.75 1274.48,-219.59 1279.76,-215"/>
</g>
</g>
</svg>
