<?xml version="1.0" encoding="UTF-8" standalone="no"?>
<!DOCTYPE svg PUBLIC "-//W3C//DTD SVG 1.1//EN"
 "http://www.w3.org/Graphics/SVG/1.1/DTD/svg11.dtd">
<!-- Generated by graphviz version 2.43.0 (0)
 -->
<!-- Title: fileappender.h Pages: 1 -->
<svg width="1745pt" height="442pt"
 viewBox="0.00 0.00 1745.00 442.00" xmlns="http://www.w3.org/2000/svg" xmlns:xlink="http://www.w3.org/1999/xlink">
<g id="graph0" class="graph" transform="scale(1 1) rotate(0) translate(4 438)">
<title>fileappender.h</title>
<polygon fill="white" stroke="transparent" points="-4,4 -4,-438 1741,-438 1741,4 -4,4"/>
<!-- Node1 -->
<g id="node1" class="node">
<title>Node1</title>
<g id="a_node1"><a xlink:title=" ">
<polygon fill="#bfbfbf" stroke="black" points="1355,-414.5 1355,-433.5 1441,-433.5 1441,-414.5 1355,-414.5"/>
<text text-anchor="middle" x="1398" y="-421.5" font-family="Helvetica,sans-Serif" font-size="10.00">fileappender.h</text>
</a>
</g>
</g>
<!-- Node2 -->
<g id="node2" class="node">
<title>Node2</title>
<g id="a_node2"><a xlink:href="config_8hxx.html" target="_top" xlink:title=" ">
<polygon fill="white" stroke="black" points="775,-73 775,-92 891,-92 891,-73 775,-73"/>
<text text-anchor="middle" x="833" y="-80" font-family="Helvetica,sans-Serif" font-size="10.00">log4cplus/config.hxx</text>
</a>
</g>
</g>
<!-- Node1&#45;&gt;Node2 -->
<g id="edge1" class="edge">
<title>Node1&#45;&gt;Node2</title>
<path fill="none" stroke="midnightblue" d="M1441.34,-417.39C1497.69,-407.39 1589,-380.73 1589,-313 1589,-313 1589,-313 1589,-199 1589,-145.24 1537.99,-151.02 1487,-134 1379.86,-98.23 1046.09,-87.57 901.23,-84.59"/>
<polygon fill="midnightblue" stroke="midnightblue" points="901.2,-81.09 891.13,-84.39 901.06,-88.09 901.2,-81.09"/>
</g>
<!-- Node5 -->
<g id="node5" class="node">
<title>Node5</title>
<g id="a_node5"><a xlink:href="appender_8h.html" target="_top" xlink:title=" ">
<polygon fill="white" stroke="black" points="571,-358.5 571,-377.5 691,-377.5 691,-358.5 571,-358.5"/>
<text text-anchor="middle" x="631" y="-365.5" font-family="Helvetica,sans-Serif" font-size="10.00">log4cplus/appender.h</text>
</a>
</g>
</g>
<!-- Node1&#45;&gt;Node5 -->
<g id="edge4" class="edge">
<title>Node1&#45;&gt;Node5</title>
<path fill="none" stroke="midnightblue" d="M1354.84,-419.96C1228.35,-411.06 857.6,-384.95 701.53,-373.97"/>
<polygon fill="midnightblue" stroke="midnightblue" points="701.34,-370.44 691.12,-373.23 700.85,-377.43 701.34,-370.44"/>
</g>
<!-- Node9 -->
<g id="node9" class="node">
<title>Node9</title>
<g id="a_node9"><a xlink:title=" ">
<polygon fill="white" stroke="#bfbfbf" points="824,-190.5 824,-209.5 882,-209.5 882,-190.5 824,-190.5"/>
<text text-anchor="middle" x="853" y="-197.5" font-family="Helvetica,sans-Serif" font-size="10.00">memory</text>
</a>
</g>
</g>
<!-- Node1&#45;&gt;Node9 -->
<g id="edge68" class="edge">
<title>Node1&#45;&gt;Node9</title>
<path fill="none" stroke="midnightblue" d="M1374.46,-414.42C1350.21,-405.53 1311.34,-391.11 1278,-378 1128.06,-319.03 950.73,-243.18 882.12,-213.6"/>
<polygon fill="midnightblue" stroke="midnightblue" points="883.37,-210.33 872.8,-209.58 880.59,-216.75 883.37,-210.33"/>
</g>
<!-- Node28 -->
<g id="node28" class="node">
<title>Node28</title>
<g id="a_node28"><a xlink:href="timehelper_8h.html" target="_top" xlink:title=" ">
<polygon fill="white" stroke="black" points="1181.5,-246.5 1181.5,-265.5 1348.5,-265.5 1348.5,-246.5 1181.5,-246.5"/>
<text text-anchor="middle" x="1265" y="-253.5" font-family="Helvetica,sans-Serif" font-size="10.00">log4cplus/helpers/timehelper.h</text>
</a>
</g>
</g>
<!-- Node1&#45;&gt;Node28 -->
<g id="edge64" class="edge">
<title>Node1&#45;&gt;Node28</title>
<path fill="none" stroke="midnightblue" d="M1390.85,-414.08C1369.55,-387.49 1306.29,-308.54 1278.43,-273.76"/>
<polygon fill="midnightblue" stroke="midnightblue" points="1280.85,-271.18 1271.86,-265.57 1275.39,-275.56 1280.85,-271.18"/>
</g>
<!-- Node32 -->
<g id="node32" class="node">
<title>Node32</title>
<g id="a_node32"><a xlink:href="lockfile_8h.html" target="_top" xlink:title=" ">
<polygon fill="white" stroke="black" points="1014.5,-246.5 1014.5,-265.5 1163.5,-265.5 1163.5,-246.5 1014.5,-246.5"/>
<text text-anchor="middle" x="1089" y="-253.5" font-family="Helvetica,sans-Serif" font-size="10.00">log4cplus/helpers/lockfile.h</text>
</a>
</g>
</g>
<!-- Node1&#45;&gt;Node32 -->
<g id="edge65" class="edge">
<title>Node1&#45;&gt;Node32</title>
<path fill="none" stroke="midnightblue" d="M1381.82,-414.31C1331.14,-387.08 1175.17,-303.29 1113.99,-270.43"/>
<polygon fill="midnightblue" stroke="midnightblue" points="1115.48,-267.25 1105.02,-265.61 1112.17,-273.42 1115.48,-267.25"/>
</g>
<!-- Node33 -->
<g id="node33" class="node">
<title>Node33</title>
<g id="a_node33"><a xlink:href="fstreams_8h.html" target="_top" xlink:title=" ">
<polygon fill="white" stroke="black" points="1441.5,-190.5 1441.5,-209.5 1560.5,-209.5 1560.5,-190.5 1441.5,-190.5"/>
<text text-anchor="middle" x="1501" y="-197.5" font-family="Helvetica,sans-Serif" font-size="10.00">log4cplus/fstreams.h</text>
</a>
</g>
</g>
<!-- Node1&#45;&gt;Node33 -->
<g id="edge60" class="edge">
<title>Node1&#45;&gt;Node33</title>
<path fill="none" stroke="midnightblue" d="M1402.04,-414.3C1417.29,-381.42 1471.59,-264.39 1492.61,-219.09"/>
<polygon fill="midnightblue" stroke="midnightblue" points="1495.84,-220.43 1496.88,-209.88 1489.49,-217.48 1495.84,-220.43"/>
</g>
<!-- Node34 -->
<g id="node34" class="node">
<title>Node34</title>
<g id="a_node34"><a xlink:title=" ">
<polygon fill="white" stroke="#bfbfbf" points="1617.5,-358.5 1617.5,-377.5 1672.5,-377.5 1672.5,-358.5 1617.5,-358.5"/>
<text text-anchor="middle" x="1645" y="-365.5" font-family="Helvetica,sans-Serif" font-size="10.00">fstream</text>
</a>
</g>
</g>
<!-- Node1&#45;&gt;Node34 -->
<g id="edge66" class="edge">
<title>Node1&#45;&gt;Node34</title>
<path fill="none" stroke="midnightblue" d="M1437.14,-414.44C1483.8,-404.24 1561.25,-387.31 1607.28,-377.25"/>
<polygon fill="midnightblue" stroke="midnightblue" points="1608.14,-380.64 1617.16,-375.09 1606.64,-373.8 1608.14,-380.64"/>
</g>
<!-- Node35 -->
<g id="node35" class="node">
<title>Node35</title>
<g id="a_node35"><a xlink:title=" ">
<polygon fill="white" stroke="#bfbfbf" points="1691,-358.5 1691,-377.5 1737,-377.5 1737,-358.5 1691,-358.5"/>
<text text-anchor="middle" x="1714" y="-365.5" font-family="Helvetica,sans-Serif" font-size="10.00">locale</text>
</a>
</g>
</g>
<!-- Node1&#45;&gt;Node35 -->
<g id="edge67" class="edge">
<title>Node1&#45;&gt;Node35</title>
<path fill="none" stroke="midnightblue" d="M1441.11,-417.77C1495.06,-410.87 1590.39,-397.52 1680.8,-378.06"/>
<polygon fill="midnightblue" stroke="midnightblue" points="1681.64,-381.46 1690.66,-375.9 1680.14,-374.62 1681.64,-381.46"/>
</g>
<!-- Node3 -->
<g id="node3" class="node">
<title>Node3</title>
<g id="a_node3"><a xlink:href="win32_8h.html" target="_top" xlink:title=" ">
<polygon fill="white" stroke="black" points="686.5,-6 686.5,-25 823.5,-25 823.5,-6 686.5,-6"/>
<text text-anchor="middle" x="755" y="-13" font-family="Helvetica,sans-Serif" font-size="10.00">log4cplus/config/win32.h</text>
</a>
</g>
</g>
<!-- Node2&#45;&gt;Node3 -->
<g id="edge2" class="edge">
<title>Node2&#45;&gt;Node3</title>
<path fill="none" stroke="midnightblue" d="M822.48,-72.73C809.85,-62.21 788.46,-44.38 773.14,-31.62"/>
<polygon fill="midnightblue" stroke="midnightblue" points="775.28,-28.84 765.35,-25.13 770.79,-34.22 775.28,-28.84"/>
</g>
<!-- Node4 -->
<g id="node4" class="node">
<title>Node4</title>
<g id="a_node4"><a xlink:href="thread-config_8h.html" target="_top" xlink:title=" ">
<polygon fill="white" stroke="black" points="841.5,-0.5 841.5,-30.5 978.5,-30.5 978.5,-0.5 841.5,-0.5"/>
<text text-anchor="start" x="849.5" y="-18.5" font-family="Helvetica,sans-Serif" font-size="10.00">log4cplus/helpers/thread</text>
<text text-anchor="middle" x="910" y="-7.5" font-family="Helvetica,sans-Serif" font-size="10.00">&#45;config.h</text>
</a>
</g>
</g>
<!-- Node2&#45;&gt;Node4 -->
<g id="edge3" class="edge">
<title>Node2&#45;&gt;Node4</title>
<path fill="none" stroke="midnightblue" d="M843.38,-72.73C854.09,-63.7 871.18,-49.27 885.36,-37.3"/>
<polygon fill="midnightblue" stroke="midnightblue" points="887.93,-39.71 893.31,-30.59 883.41,-34.37 887.93,-39.71"/>
</g>
<!-- Node5&#45;&gt;Node2 -->
<g id="edge5" class="edge">
<title>Node5&#45;&gt;Node2</title>
<path fill="none" stroke="midnightblue" d="M581.68,-358.45C500.11,-342.9 346,-306.92 346,-257 346,-257 346,-257 346,-199 346,-168.9 341.92,-153.32 365,-134 395.02,-108.87 642.29,-93.07 764.77,-86.71"/>
<polygon fill="midnightblue" stroke="midnightblue" points="764.99,-90.2 774.8,-86.19 764.64,-83.21 764.99,-90.2"/>
</g>
<!-- Node6 -->
<g id="node6" class="node">
<title>Node6</title>
<g id="a_node6"><a xlink:href="layout_8h.html" target="_top" xlink:title=" ">
<polygon fill="white" stroke="black" points="803,-302.5 803,-321.5 909,-321.5 909,-302.5 803,-302.5"/>
<text text-anchor="middle" x="856" y="-309.5" font-family="Helvetica,sans-Serif" font-size="10.00">log4cplus/layout.h</text>
</a>
</g>
</g>
<!-- Node5&#45;&gt;Node6 -->
<g id="edge6" class="edge">
<title>Node5&#45;&gt;Node6</title>
<path fill="none" stroke="midnightblue" d="M666.65,-358.44C705.66,-349.08 768.27,-334.06 810.72,-323.87"/>
<polygon fill="midnightblue" stroke="midnightblue" points="811.61,-327.25 820.51,-321.52 809.97,-320.45 811.61,-327.25"/>
</g>
<!-- Node7 -->
<g id="node7" class="node">
<title>Node7</title>
<g id="a_node7"><a xlink:href="loglevel_8h.html" target="_top" xlink:title="This header defines the LogLevel type.">
<polygon fill="white" stroke="black" points="617,-246.5 617,-265.5 731,-265.5 731,-246.5 617,-246.5"/>
<text text-anchor="middle" x="674" y="-253.5" font-family="Helvetica,sans-Serif" font-size="10.00">log4cplus/loglevel.h</text>
</a>
</g>
</g>
<!-- Node5&#45;&gt;Node7 -->
<g id="edge44" class="edge">
<title>Node5&#45;&gt;Node7</title>
<path fill="none" stroke="midnightblue" d="M636.05,-358.25C641.06,-349.33 648.72,-335.01 654,-322 660.24,-306.62 665.66,-288.52 669.28,-275.33"/>
<polygon fill="midnightblue" stroke="midnightblue" points="672.69,-276.14 671.87,-265.58 665.92,-274.34 672.69,-276.14"/>
</g>
<!-- Node5&#45;&gt;Node9 -->
<g id="edge56" class="edge">
<title>Node5&#45;&gt;Node9</title>
<path fill="none" stroke="midnightblue" d="M642.62,-358.31C678.59,-331.42 788.34,-249.35 833.39,-215.67"/>
<polygon fill="midnightblue" stroke="midnightblue" points="835.58,-218.4 841.49,-209.61 831.39,-212.79 835.58,-218.4"/>
</g>
<!-- Node11 -->
<g id="node11" class="node">
<title>Node11</title>
<g id="a_node11"><a xlink:href="tstring_8h.html" target="_top" xlink:title=" ">
<polygon fill="white" stroke="black" points="976.5,-190.5 976.5,-209.5 1083.5,-209.5 1083.5,-190.5 976.5,-190.5"/>
<text text-anchor="middle" x="1030" y="-197.5" font-family="Helvetica,sans-Serif" font-size="10.00">log4cplus/tstring.h</text>
</a>
</g>
</g>
<!-- Node5&#45;&gt;Node11 -->
<g id="edge45" class="edge">
<title>Node5&#45;&gt;Node11</title>
<path fill="none" stroke="midnightblue" d="M691.06,-362.24C763.33,-355.7 879.72,-342.4 918,-322 964.57,-297.17 1002.15,-245.35 1019.54,-218.29"/>
<polygon fill="midnightblue" stroke="midnightblue" points="1022.68,-219.87 1025.01,-209.54 1016.74,-216.16 1022.68,-219.87"/>
</g>
<!-- Node18 -->
<g id="node18" class="node">
<title>Node18</title>
<g id="a_node18"><a xlink:href="pointer_8h.html" target="_top" xlink:title=" ">
<polygon fill="white" stroke="black" points="374,-190.5 374,-209.5 522,-209.5 522,-190.5 374,-190.5"/>
<text text-anchor="middle" x="448" y="-197.5" font-family="Helvetica,sans-Serif" font-size="10.00">log4cplus/helpers/pointer.h</text>
</a>
</g>
</g>
<!-- Node5&#45;&gt;Node18 -->
<g id="edge46" class="edge">
<title>Node5&#45;&gt;Node18</title>
<path fill="none" stroke="midnightblue" d="M595.31,-358.45C572.4,-351.56 543.1,-340.01 522,-322 488.26,-293.19 465.36,-245 454.75,-218.97"/>
<polygon fill="midnightblue" stroke="midnightblue" points="457.98,-217.62 451.07,-209.59 451.46,-220.18 457.98,-217.62"/>
</g>
<!-- Node20 -->
<g id="node20" class="node">
<title>Node20</title>
<g id="a_node20"><a xlink:title=" ">
<polygon fill="white" stroke="#bfbfbf" points="0,-73 0,-92 48,-92 48,-73 0,-73"/>
<text text-anchor="middle" x="24" y="-80" font-family="Helvetica,sans-Serif" font-size="10.00">mutex</text>
</a>
</g>
</g>
<!-- Node5&#45;&gt;Node20 -->
<g id="edge57" class="edge">
<title>Node5&#45;&gt;Node20</title>
<path fill="none" stroke="midnightblue" d="M570.88,-367.16C448.15,-366.67 173.27,-361.07 89,-322 51.93,-304.82 24,-297.86 24,-257 24,-257 24,-257 24,-199 24,-164.86 24,-125.05 24,-102.21"/>
<polygon fill="midnightblue" stroke="midnightblue" points="27.5,-102.19 24,-92.19 20.5,-102.19 27.5,-102.19"/>
</g>
<!-- Node21 -->
<g id="node21" class="node">
<title>Node21</title>
<g id="a_node21"><a xlink:title=" ">
<polygon fill="white" stroke="#bfbfbf" points="66.5,-73 66.5,-92 173.5,-92 173.5,-73 66.5,-73"/>
<text text-anchor="middle" x="120" y="-80" font-family="Helvetica,sans-Serif" font-size="10.00">condition_variable</text>
</a>
</g>
</g>
<!-- Node5&#45;&gt;Node21 -->
<g id="edge59" class="edge">
<title>Node5&#45;&gt;Node21</title>
<path fill="none" stroke="midnightblue" d="M570.91,-367.93C424.65,-368.58 62,-359.81 62,-257 62,-257 62,-257 62,-199 62,-168.9 67.34,-160.82 81,-134 87.31,-121.61 96.81,-109.22 104.86,-99.82"/>
<polygon fill="midnightblue" stroke="midnightblue" points="107.68,-101.91 111.7,-92.11 102.45,-97.26 107.68,-101.91"/>
</g>
<!-- Node25 -->
<g id="node25" class="node">
<title>Node25</title>
<g id="a_node25"><a xlink:title=" ">
<polygon fill="white" stroke="#bfbfbf" points="90,-134.5 90,-153.5 140,-153.5 140,-134.5 90,-134.5"/>
<text text-anchor="middle" x="115" y="-141.5" font-family="Helvetica,sans-Serif" font-size="10.00">atomic</text>
</a>
</g>
</g>
<!-- Node5&#45;&gt;Node25 -->
<g id="edge58" class="edge">
<title>Node5&#45;&gt;Node25</title>
<path fill="none" stroke="midnightblue" d="M570.83,-367.17C508.53,-365.28 409.64,-356.37 332,-322 243.52,-282.82 161.45,-197.57 129.31,-161.57"/>
<polygon fill="midnightblue" stroke="midnightblue" points="131.8,-159.1 122.56,-153.91 126.54,-163.73 131.8,-159.1"/>
</g>
<!-- Node31 -->
<g id="node31" class="node">
<title>Node31</title>
<g id="a_node31"><a xlink:href="filter_8h.html" target="_top" xlink:title="This header defines Filter and all of it&#39;s subclasses.">
<polygon fill="white" stroke="black" points="531,-302.5 531,-321.5 645,-321.5 645,-302.5 531,-302.5"/>
<text text-anchor="middle" x="588" y="-309.5" font-family="Helvetica,sans-Serif" font-size="10.00">log4cplus/spi/filter.h</text>
</a>
</g>
</g>
<!-- Node5&#45;&gt;Node31 -->
<g id="edge47" class="edge">
<title>Node5&#45;&gt;Node31</title>
<path fill="none" stroke="midnightblue" d="M623.9,-358.08C617.76,-350.38 608.73,-339.03 601.26,-329.65"/>
<polygon fill="midnightblue" stroke="midnightblue" points="603.94,-327.39 594.97,-321.75 598.46,-331.75 603.94,-327.39"/>
</g>
<!-- Node5&#45;&gt;Node32 -->
<g id="edge52" class="edge">
<title>Node5&#45;&gt;Node32</title>
<path fill="none" stroke="midnightblue" d="M691.19,-366.22C761.33,-363.71 879.86,-354.48 976,-322 1011.08,-310.15 1047.48,-286.89 1069.18,-271.65"/>
<polygon fill="midnightblue" stroke="midnightblue" points="1071.44,-274.34 1077.54,-265.67 1067.37,-268.65 1071.44,-274.34"/>
</g>
<!-- Node6&#45;&gt;Node2 -->
<g id="edge7" class="edge">
<title>Node6&#45;&gt;Node2</title>
<path fill="none" stroke="midnightblue" d="M862.82,-302.31C878.07,-281.73 912.01,-228.86 891,-190 877.11,-164.3 850.44,-179.4 836,-154 827.12,-138.38 827.43,-117.53 829.31,-102.56"/>
<polygon fill="midnightblue" stroke="midnightblue" points="832.81,-102.87 830.94,-92.44 825.9,-101.76 832.81,-102.87"/>
</g>
<!-- Node6&#45;&gt;Node7 -->
<g id="edge8" class="edge">
<title>Node6&#45;&gt;Node7</title>
<path fill="none" stroke="midnightblue" d="M827.16,-302.44C796.14,-293.24 746.67,-278.56 712.38,-268.39"/>
<polygon fill="midnightblue" stroke="midnightblue" points="713.29,-265.01 702.7,-265.52 711.29,-271.72 713.29,-265.01"/>
</g>
<!-- Node8 -->
<g id="node8" class="node">
<title>Node8</title>
<g id="a_node8"><a xlink:title=" ">
<polygon fill="white" stroke="#bfbfbf" points="758.5,-190.5 758.5,-209.5 805.5,-209.5 805.5,-190.5 758.5,-190.5"/>
<text text-anchor="middle" x="782" y="-197.5" font-family="Helvetica,sans-Serif" font-size="10.00">vector</text>
</a>
</g>
</g>
<!-- Node6&#45;&gt;Node8 -->
<g id="edge42" class="edge">
<title>Node6&#45;&gt;Node8</title>
<path fill="none" stroke="midnightblue" d="M850.19,-302.37C837.98,-284.22 809.45,-241.8 793.43,-217.99"/>
<polygon fill="midnightblue" stroke="midnightblue" points="796.27,-215.94 787.78,-209.59 790.46,-219.84 796.27,-215.94"/>
</g>
<!-- Node6&#45;&gt;Node9 -->
<g id="edge43" class="edge">
<title>Node6&#45;&gt;Node9</title>
<path fill="none" stroke="midnightblue" d="M855.76,-302.37C855.28,-284.62 854.16,-243.67 853.51,-219.6"/>
<polygon fill="midnightblue" stroke="midnightblue" points="857.01,-219.49 853.23,-209.59 850.01,-219.68 857.01,-219.49"/>
</g>
<!-- Node6&#45;&gt;Node11 -->
<g id="edge36" class="edge">
<title>Node6&#45;&gt;Node11</title>
<path fill="none" stroke="midnightblue" d="M869.65,-302.37C899.64,-283.41 971.47,-238 1007.95,-214.94"/>
<polygon fill="midnightblue" stroke="midnightblue" points="1009.83,-217.89 1016.41,-209.59 1006.09,-211.98 1009.83,-217.89"/>
</g>
<!-- Node26 -->
<g id="node26" class="node">
<title>Node26</title>
<g id="a_node26"><a xlink:href="streams_8h.html" target="_top" xlink:title=" ">
<polygon fill="white" stroke="black" points="1308.5,-190.5 1308.5,-209.5 1423.5,-209.5 1423.5,-190.5 1308.5,-190.5"/>
<text text-anchor="middle" x="1366" y="-197.5" font-family="Helvetica,sans-Serif" font-size="10.00">log4cplus/streams.h</text>
</a>
</g>
</g>
<!-- Node6&#45;&gt;Node26 -->
<g id="edge32" class="edge">
<title>Node6&#45;&gt;Node26</title>
<path fill="none" stroke="midnightblue" d="M909.35,-309.94C1032.05,-306.98 1326.24,-296.73 1358,-266 1370.11,-254.28 1370.88,-234.34 1369.38,-219.63"/>
<polygon fill="midnightblue" stroke="midnightblue" points="1372.83,-219.02 1367.94,-209.62 1365.9,-220.02 1372.83,-219.02"/>
</g>
<!-- Node6&#45;&gt;Node28 -->
<g id="edge37" class="edge">
<title>Node6&#45;&gt;Node28</title>
<path fill="none" stroke="midnightblue" d="M909.05,-304C980.77,-294.53 1109.02,-277.59 1190.42,-266.85"/>
<polygon fill="midnightblue" stroke="midnightblue" points="1191.14,-270.28 1200.6,-265.5 1190.22,-263.34 1191.14,-270.28"/>
</g>
<!-- Node7&#45;&gt;Node2 -->
<g id="edge9" class="edge">
<title>Node7&#45;&gt;Node2</title>
<path fill="none" stroke="midnightblue" d="M664.89,-246.3C652.69,-233.55 633.8,-209.22 645,-190 662.63,-159.76 754.48,-117 802.96,-96.06"/>
<polygon fill="midnightblue" stroke="midnightblue" points="804.51,-99.2 812.32,-92.05 801.75,-92.77 804.51,-99.2"/>
</g>
<!-- Node7&#45;&gt;Node8 -->
<g id="edge10" class="edge">
<title>Node7&#45;&gt;Node8</title>
<path fill="none" stroke="midnightblue" d="M691.35,-246.32C708.67,-237.66 735.52,-224.24 755.5,-214.25"/>
<polygon fill="midnightblue" stroke="midnightblue" points="757.31,-217.26 764.69,-209.65 754.18,-211 757.31,-217.26"/>
</g>
<!-- Node7&#45;&gt;Node9 -->
<g id="edge11" class="edge">
<title>Node7&#45;&gt;Node9</title>
<path fill="none" stroke="midnightblue" d="M702.36,-246.44C732.74,-237.28 781.11,-222.69 814.82,-212.52"/>
<polygon fill="midnightblue" stroke="midnightblue" points="816.21,-215.76 824.77,-209.52 814.18,-209.05 816.21,-215.76"/>
</g>
<!-- Node10 -->
<g id="node10" class="node">
<title>Node10</title>
<g id="a_node10"><a xlink:title=" ">
<polygon fill="white" stroke="#bfbfbf" points="654,-190.5 654,-209.5 740,-209.5 740,-190.5 654,-190.5"/>
<text text-anchor="middle" x="697" y="-197.5" font-family="Helvetica,sans-Serif" font-size="10.00">shared_mutex</text>
</a>
</g>
</g>
<!-- Node7&#45;&gt;Node10 -->
<g id="edge12" class="edge">
<title>Node7&#45;&gt;Node10</title>
<path fill="none" stroke="midnightblue" d="M677.8,-246.08C680.91,-238.77 685.42,-228.18 689.29,-219.1"/>
<polygon fill="midnightblue" stroke="midnightblue" points="692.57,-220.32 693.27,-209.75 686.13,-217.58 692.57,-220.32"/>
</g>
<!-- Node7&#45;&gt;Node11 -->
<g id="edge13" class="edge">
<title>Node7&#45;&gt;Node11</title>
<path fill="none" stroke="midnightblue" d="M730.41,-246.44C794.65,-236.7 899.38,-220.81 966.45,-210.64"/>
<polygon fill="midnightblue" stroke="midnightblue" points="967.11,-214.08 976.47,-209.12 966.06,-207.16 967.11,-214.08"/>
</g>
<!-- Node7&#45;&gt;Node18 -->
<g id="edge22" class="edge">
<title>Node7&#45;&gt;Node18</title>
<path fill="none" stroke="midnightblue" d="M638.19,-246.44C599.01,-237.08 536.12,-222.06 493.48,-211.87"/>
<polygon fill="midnightblue" stroke="midnightblue" points="494.18,-208.44 483.64,-209.52 492.56,-215.24 494.18,-208.44"/>
</g>
<!-- Node11&#45;&gt;Node2 -->
<g id="edge14" class="edge">
<title>Node11&#45;&gt;Node2</title>
<path fill="none" stroke="midnightblue" d="M976.43,-191.37C931,-183.85 870.5,-171.02 853,-154 839.2,-140.58 834.73,-118.4 833.38,-102.5"/>
<polygon fill="midnightblue" stroke="midnightblue" points="836.86,-102.06 832.85,-92.25 829.87,-102.41 836.86,-102.06"/>
</g>
<!-- Node12 -->
<g id="node12" class="node">
<title>Node12</title>
<g id="a_node12"><a xlink:title=" ">
<polygon fill="white" stroke="#bfbfbf" points="952.5,-134.5 952.5,-153.5 1021.5,-153.5 1021.5,-134.5 952.5,-134.5"/>
<text text-anchor="middle" x="987" y="-141.5" font-family="Helvetica,sans-Serif" font-size="10.00">type_traits</text>
</a>
</g>
</g>
<!-- Node11&#45;&gt;Node12 -->
<g id="edge15" class="edge">
<title>Node11&#45;&gt;Node12</title>
<path fill="none" stroke="midnightblue" d="M1022.9,-190.08C1016.76,-182.38 1007.73,-171.03 1000.26,-161.65"/>
<polygon fill="midnightblue" stroke="midnightblue" points="1002.94,-159.39 993.97,-153.75 997.46,-163.75 1002.94,-159.39"/>
</g>
<!-- Node13 -->
<g id="node13" class="node">
<title>Node13</title>
<g id="a_node13"><a xlink:title=" ">
<polygon fill="white" stroke="#bfbfbf" points="602.5,-134.5 602.5,-153.5 667.5,-153.5 667.5,-134.5 602.5,-134.5"/>
<text text-anchor="middle" x="635" y="-141.5" font-family="Helvetica,sans-Serif" font-size="10.00">functional</text>
</a>
</g>
</g>
<!-- Node11&#45;&gt;Node13 -->
<g id="edge16" class="edge">
<title>Node11&#45;&gt;Node13</title>
<path fill="none" stroke="midnightblue" d="M976.32,-191.66C897,-180.82 750.1,-160.74 677.66,-150.83"/>
<polygon fill="midnightblue" stroke="midnightblue" points="677.91,-147.33 667.53,-149.45 676.96,-154.27 677.91,-147.33"/>
</g>
<!-- Node14 -->
<g id="node14" class="node">
<title>Node14</title>
<g id="a_node14"><a xlink:title=" ">
<polygon fill="white" stroke="#bfbfbf" points="1040,-134.5 1040,-153.5 1084,-153.5 1084,-134.5 1040,-134.5"/>
<text text-anchor="middle" x="1062" y="-141.5" font-family="Helvetica,sans-Serif" font-size="10.00">string</text>
</a>
</g>
</g>
<!-- Node11&#45;&gt;Node14 -->
<g id="edge17" class="edge">
<title>Node11&#45;&gt;Node14</title>
<path fill="none" stroke="midnightblue" d="M1035.28,-190.08C1039.71,-182.61 1046.16,-171.72 1051.62,-162.52"/>
<polygon fill="midnightblue" stroke="midnightblue" points="1054.73,-164.14 1056.81,-153.75 1048.71,-160.57 1054.73,-164.14"/>
</g>
<!-- Node15 -->
<g id="node15" class="node">
<title>Node15</title>
<g id="a_node15"><a xlink:title=" ">
<polygon fill="white" stroke="#bfbfbf" points="861.5,-134.5 861.5,-153.5 934.5,-153.5 934.5,-134.5 861.5,-134.5"/>
<text text-anchor="middle" x="898" y="-141.5" font-family="Helvetica,sans-Serif" font-size="10.00">string_view</text>
</a>
</g>
</g>
<!-- Node11&#45;&gt;Node15 -->
<g id="edge18" class="edge">
<title>Node11&#45;&gt;Node15</title>
<path fill="none" stroke="midnightblue" d="M1009.08,-190.44C987.26,-181.52 952.85,-167.44 928.11,-157.32"/>
<polygon fill="midnightblue" stroke="midnightblue" points="929.4,-154.06 918.82,-153.52 926.75,-160.54 929.4,-154.06"/>
</g>
<!-- Node16 -->
<g id="node16" class="node">
<title>Node16</title>
<g id="a_node16"><a xlink:href="tchar_8h.html" target="_top" xlink:title=" ">
<polygon fill="white" stroke="black" points="1284.5,-134.5 1284.5,-153.5 1383.5,-153.5 1383.5,-134.5 1284.5,-134.5"/>
<text text-anchor="middle" x="1334" y="-141.5" font-family="Helvetica,sans-Serif" font-size="10.00">log4cplus/tchar.h</text>
</a>
</g>
</g>
<!-- Node11&#45;&gt;Node16 -->
<g id="edge19" class="edge">
<title>Node11&#45;&gt;Node16</title>
<path fill="none" stroke="midnightblue" d="M1078.17,-190.44C1131.87,-180.9 1218.69,-165.48 1276.05,-155.29"/>
<polygon fill="midnightblue" stroke="midnightblue" points="1276.82,-158.71 1286.06,-153.52 1275.6,-151.82 1276.82,-158.71"/>
</g>
<!-- Node16&#45;&gt;Node2 -->
<g id="edge20" class="edge">
<title>Node16&#45;&gt;Node2</title>
<path fill="none" stroke="midnightblue" d="M1284.13,-137.08C1193.92,-126.36 1003.53,-103.75 901.3,-91.61"/>
<polygon fill="midnightblue" stroke="midnightblue" points="901.43,-88.1 891.09,-90.4 900.61,-95.05 901.43,-88.1"/>
</g>
<!-- Node17 -->
<g id="node17" class="node">
<title>Node17</title>
<g id="a_node17"><a xlink:title=" ">
<polygon fill="white" stroke="#bfbfbf" points="1307.5,-73 1307.5,-92 1360.5,-92 1360.5,-73 1307.5,-73"/>
<text text-anchor="middle" x="1334" y="-80" font-family="Helvetica,sans-Serif" font-size="10.00">cstddef</text>
</a>
</g>
</g>
<!-- Node16&#45;&gt;Node17 -->
<g id="edge21" class="edge">
<title>Node16&#45;&gt;Node17</title>
<path fill="none" stroke="midnightblue" d="M1334,-134.48C1334,-126.08 1334,-112.98 1334,-102.16"/>
<polygon fill="midnightblue" stroke="midnightblue" points="1337.5,-102.01 1334,-92.01 1330.5,-102.01 1337.5,-102.01"/>
</g>
<!-- Node18&#45;&gt;Node2 -->
<g id="edge23" class="edge">
<title>Node18&#45;&gt;Node2</title>
<path fill="none" stroke="midnightblue" d="M459.75,-190.33C479.43,-176.25 520.78,-148.51 560,-134 627.13,-109.16 708.25,-96.15 764.53,-89.6"/>
<polygon fill="midnightblue" stroke="midnightblue" points="765.2,-93.04 774.74,-88.45 764.41,-86.09 765.2,-93.04"/>
</g>
<!-- Node19 -->
<g id="node19" class="node">
<title>Node19</title>
<g id="a_node19"><a xlink:href="syncprims_8h.html" target="_top" xlink:title=" ">
<polygon fill="white" stroke="black" points="158,-134.5 158,-153.5 318,-153.5 318,-134.5 158,-134.5"/>
<text text-anchor="middle" x="238" y="-141.5" font-family="Helvetica,sans-Serif" font-size="10.00">log4cplus/thread/syncprims.h</text>
</a>
</g>
</g>
<!-- Node18&#45;&gt;Node19 -->
<g id="edge24" class="edge">
<title>Node18&#45;&gt;Node19</title>
<path fill="none" stroke="midnightblue" d="M414.72,-190.44C378.55,-181.14 320.62,-166.25 281.02,-156.06"/>
<polygon fill="midnightblue" stroke="midnightblue" points="281.68,-152.62 271.12,-153.52 279.93,-159.4 281.68,-152.62"/>
</g>
<!-- Node23 -->
<g id="node23" class="node">
<title>Node23</title>
<g id="a_node23"><a xlink:title=" ">
<polygon fill="white" stroke="#bfbfbf" points="374,-134.5 374,-153.5 438,-153.5 438,-134.5 374,-134.5"/>
<text text-anchor="middle" x="406" y="-141.5" font-family="Helvetica,sans-Serif" font-size="10.00">algorithm</text>
</a>
</g>
</g>
<!-- Node18&#45;&gt;Node23 -->
<g id="edge29" class="edge">
<title>Node18&#45;&gt;Node23</title>
<path fill="none" stroke="midnightblue" d="M441.06,-190.08C435.07,-182.38 426.25,-171.03 418.95,-161.65"/>
<polygon fill="midnightblue" stroke="midnightblue" points="421.71,-159.5 412.81,-153.75 416.18,-163.79 421.71,-159.5"/>
</g>
<!-- Node24 -->
<g id="node24" class="node">
<title>Node24</title>
<g id="a_node24"><a xlink:title=" ">
<polygon fill="white" stroke="#bfbfbf" points="456,-134.5 456,-153.5 508,-153.5 508,-134.5 456,-134.5"/>
<text text-anchor="middle" x="482" y="-141.5" font-family="Helvetica,sans-Serif" font-size="10.00">cassert</text>
</a>
</g>
</g>
<!-- Node18&#45;&gt;Node24 -->
<g id="edge30" class="edge">
<title>Node18&#45;&gt;Node24</title>
<path fill="none" stroke="midnightblue" d="M453.61,-190.08C458.37,-182.53 465.32,-171.49 471.15,-162.23"/>
<polygon fill="midnightblue" stroke="midnightblue" points="474.12,-164.08 476.49,-153.75 468.2,-160.35 474.12,-164.08"/>
</g>
<!-- Node18&#45;&gt;Node25 -->
<g id="edge31" class="edge">
<title>Node18&#45;&gt;Node25</title>
<path fill="none" stroke="midnightblue" d="M376.63,-190.49C318.12,-183 233.02,-170.95 150.02,-154.03"/>
<polygon fill="midnightblue" stroke="midnightblue" points="150.68,-150.59 140.18,-151.99 149.26,-157.44 150.68,-150.59"/>
</g>
<!-- Node19&#45;&gt;Node2 -->
<g id="edge25" class="edge">
<title>Node19&#45;&gt;Node2</title>
<path fill="none" stroke="midnightblue" d="M318.24,-134.98C436.21,-123.18 654.38,-101.36 764.96,-90.3"/>
<polygon fill="midnightblue" stroke="midnightblue" points="765.39,-93.78 774.99,-89.3 764.69,-86.81 765.39,-93.78"/>
</g>
<!-- Node19&#45;&gt;Node20 -->
<g id="edge26" class="edge">
<title>Node19&#45;&gt;Node20</title>
<path fill="none" stroke="midnightblue" d="M194.98,-134.47C157.93,-126.61 103.27,-113.79 57,-98 55.13,-97.36 53.23,-96.66 51.32,-95.93"/>
<polygon fill="midnightblue" stroke="midnightblue" points="52.51,-92.63 41.94,-92.04 49.84,-99.1 52.51,-92.63"/>
</g>
<!-- Node19&#45;&gt;Node21 -->
<g id="edge27" class="edge">
<title>Node19&#45;&gt;Node21</title>
<path fill="none" stroke="midnightblue" d="M221.09,-134.48C201.47,-124.58 168.87,-108.14 146.01,-96.62"/>
<polygon fill="midnightblue" stroke="midnightblue" points="147.38,-93.39 136.88,-92.01 144.23,-99.64 147.38,-93.39"/>
</g>
<!-- Node22 -->
<g id="node22" class="node">
<title>Node22</title>
<g id="a_node22"><a xlink:href="threadsafetyanalysis_8h.html" target="_top" xlink:title=" ">
<polygon fill="white" stroke="black" points="191.5,-67.5 191.5,-97.5 322.5,-97.5 322.5,-67.5 191.5,-67.5"/>
<text text-anchor="start" x="199.5" y="-85.5" font-family="Helvetica,sans-Serif" font-size="10.00">log4cplus/internal</text>
<text text-anchor="middle" x="257" y="-74.5" font-family="Helvetica,sans-Serif" font-size="10.00">/threadsafetyanalysis.h</text>
</a>
</g>
</g>
<!-- Node19&#45;&gt;Node22 -->
<g id="edge28" class="edge">
<title>Node19&#45;&gt;Node22</title>
<path fill="none" stroke="midnightblue" d="M240.72,-134.48C243.01,-127.32 246.38,-116.75 249.47,-107.08"/>
<polygon fill="midnightblue" stroke="midnightblue" points="252.81,-108.11 252.52,-97.52 246.15,-105.98 252.81,-108.11"/>
</g>
<!-- Node26&#45;&gt;Node2 -->
<g id="edge33" class="edge">
<title>Node26&#45;&gt;Node2</title>
<path fill="none" stroke="midnightblue" d="M1343.61,-190.49C1306.7,-176.76 1230.52,-149.67 1164,-134 1074.26,-112.86 968.66,-98.53 901.3,-90.69"/>
<polygon fill="midnightblue" stroke="midnightblue" points="901.57,-87.19 891.24,-89.53 900.77,-94.15 901.57,-87.19"/>
</g>
<!-- Node26&#45;&gt;Node16 -->
<g id="edge34" class="edge">
<title>Node26&#45;&gt;Node16</title>
<path fill="none" stroke="midnightblue" d="M1360.72,-190.08C1356.29,-182.61 1349.84,-171.72 1344.38,-162.52"/>
<polygon fill="midnightblue" stroke="midnightblue" points="1347.29,-160.57 1339.19,-153.75 1341.27,-164.14 1347.29,-160.57"/>
</g>
<!-- Node27 -->
<g id="node27" class="node">
<title>Node27</title>
<g id="a_node27"><a xlink:title=" ">
<polygon fill="white" stroke="#bfbfbf" points="1408,-134.5 1408,-153.5 1456,-153.5 1456,-134.5 1408,-134.5"/>
<text text-anchor="middle" x="1432" y="-141.5" font-family="Helvetica,sans-Serif" font-size="10.00">iosfwd</text>
</a>
</g>
</g>
<!-- Node26&#45;&gt;Node27 -->
<g id="edge35" class="edge">
<title>Node26&#45;&gt;Node27</title>
<path fill="none" stroke="midnightblue" d="M1376.6,-190.32C1386.46,-182.26 1401.35,-170.08 1413.22,-160.37"/>
<polygon fill="midnightblue" stroke="midnightblue" points="1415.68,-162.88 1421.2,-153.83 1411.25,-157.46 1415.68,-162.88"/>
</g>
<!-- Node28&#45;&gt;Node2 -->
<g id="edge38" class="edge">
<title>Node28&#45;&gt;Node2</title>
<path fill="none" stroke="midnightblue" d="M1238.18,-246.45C1217.75,-239.04 1189.71,-226.84 1169,-210 1136.24,-183.36 1147.93,-156.18 1112,-134 1077.57,-112.74 972.28,-97.96 901.36,-90.1"/>
<polygon fill="midnightblue" stroke="midnightblue" points="901.47,-86.59 891.15,-88.99 900.72,-93.55 901.47,-86.59"/>
</g>
<!-- Node28&#45;&gt;Node11 -->
<g id="edge39" class="edge">
<title>Node28&#45;&gt;Node11</title>
<path fill="none" stroke="midnightblue" d="M1227.76,-246.44C1186.94,-237.06 1121.36,-221.99 1077.02,-211.8"/>
<polygon fill="midnightblue" stroke="midnightblue" points="1077.59,-208.34 1067.06,-209.52 1076.02,-215.17 1077.59,-208.34"/>
</g>
<!-- Node29 -->
<g id="node29" class="node">
<title>Node29</title>
<g id="a_node29"><a xlink:title=" ">
<polygon fill="white" stroke="#bfbfbf" points="1178,-190.5 1178,-209.5 1222,-209.5 1222,-190.5 1178,-190.5"/>
<text text-anchor="middle" x="1200" y="-197.5" font-family="Helvetica,sans-Serif" font-size="10.00">ctime</text>
</a>
</g>
</g>
<!-- Node28&#45;&gt;Node29 -->
<g id="edge40" class="edge">
<title>Node28&#45;&gt;Node29</title>
<path fill="none" stroke="midnightblue" d="M1254.56,-246.32C1244.85,-238.26 1230.18,-226.08 1218.5,-216.37"/>
<polygon fill="midnightblue" stroke="midnightblue" points="1220.56,-213.53 1210.63,-209.83 1216.09,-218.92 1220.56,-213.53"/>
</g>
<!-- Node30 -->
<g id="node30" class="node">
<title>Node30</title>
<g id="a_node30"><a xlink:title=" ">
<polygon fill="white" stroke="#bfbfbf" points="1240,-190.5 1240,-209.5 1290,-209.5 1290,-190.5 1240,-190.5"/>
<text text-anchor="middle" x="1265" y="-197.5" font-family="Helvetica,sans-Serif" font-size="10.00">chrono</text>
</a>
</g>
</g>
<!-- Node28&#45;&gt;Node30 -->
<g id="edge41" class="edge">
<title>Node28&#45;&gt;Node30</title>
<path fill="none" stroke="midnightblue" d="M1265,-246.08C1265,-239.01 1265,-228.86 1265,-219.99"/>
<polygon fill="midnightblue" stroke="midnightblue" points="1268.5,-219.75 1265,-209.75 1261.5,-219.75 1268.5,-219.75"/>
</g>
<!-- Node31&#45;&gt;Node2 -->
<g id="edge48" class="edge">
<title>Node31&#45;&gt;Node2</title>
<path fill="none" stroke="midnightblue" d="M584.99,-302.32C575.84,-274.15 551.43,-184.17 594,-134 615.7,-108.42 701.85,-95.17 764.5,-88.78"/>
<polygon fill="midnightblue" stroke="midnightblue" points="765.12,-92.24 774.73,-87.78 764.44,-85.27 765.12,-92.24"/>
</g>
<!-- Node31&#45;&gt;Node7 -->
<g id="edge51" class="edge">
<title>Node31&#45;&gt;Node7</title>
<path fill="none" stroke="midnightblue" d="M601.82,-302.32C615.23,-293.9 635.82,-280.97 651.59,-271.07"/>
<polygon fill="midnightblue" stroke="midnightblue" points="653.61,-273.94 660.22,-265.65 649.89,-268.01 653.61,-273.94"/>
</g>
<!-- Node31&#45;&gt;Node13 -->
<g id="edge49" class="edge">
<title>Node31&#45;&gt;Node13</title>
<path fill="none" stroke="midnightblue" d="M588.89,-302.28C591.14,-282.07 597.88,-230.67 612,-190 615.27,-180.57 620.18,-170.64 624.62,-162.51"/>
<polygon fill="midnightblue" stroke="midnightblue" points="627.76,-164.07 629.66,-153.64 621.68,-160.6 627.76,-164.07"/>
</g>
<!-- Node31&#45;&gt;Node18 -->
<g id="edge50" class="edge">
<title>Node31&#45;&gt;Node18</title>
<path fill="none" stroke="midnightblue" d="M577.01,-302.37C553.19,-283.65 496.56,-239.15 466.88,-215.83"/>
<polygon fill="midnightblue" stroke="midnightblue" points="468.96,-213.02 458.93,-209.59 464.64,-218.52 468.96,-213.02"/>
</g>
<!-- Node32&#45;&gt;Node2 -->
<g id="edge53" class="edge">
<title>Node32&#45;&gt;Node2</title>
<path fill="none" stroke="midnightblue" d="M1092.68,-246.46C1101.36,-224.84 1120.41,-167.25 1093,-134 1069.14,-105.06 970.12,-92.5 901.41,-87.19"/>
<polygon fill="midnightblue" stroke="midnightblue" points="901.31,-83.67 891.08,-86.43 900.8,-90.66 901.31,-83.67"/>
</g>
<!-- Node32&#45;&gt;Node11 -->
<g id="edge54" class="edge">
<title>Node32&#45;&gt;Node11</title>
<path fill="none" stroke="midnightblue" d="M1079.52,-246.32C1070.8,-238.34 1057.66,-226.31 1047.1,-216.65"/>
<polygon fill="midnightblue" stroke="midnightblue" points="1049.39,-214 1039.65,-209.83 1044.67,-219.17 1049.39,-214"/>
</g>
<!-- Node32&#45;&gt;Node19 -->
<g id="edge55" class="edge">
<title>Node32&#45;&gt;Node19</title>
<path fill="none" stroke="midnightblue" d="M1068.64,-246.44C1033.25,-231.98 957.76,-203.03 891,-190 661.02,-145.11 598.76,-170.28 365,-154 353.2,-153.18 340.78,-152.31 328.52,-151.44"/>
<polygon fill="midnightblue" stroke="midnightblue" points="328.5,-147.93 318.28,-150.72 328.01,-154.91 328.5,-147.93"/>
</g>
<!-- Node33&#45;&gt;Node2 -->
<g id="edge61" class="edge">
<title>Node33&#45;&gt;Node2</title>
<path fill="none" stroke="midnightblue" d="M1499.04,-190.46C1495.25,-176.03 1485.39,-147.14 1465,-134 1418.5,-104.04 1055.39,-89.99 901.53,-85.34"/>
<polygon fill="midnightblue" stroke="midnightblue" points="901.36,-81.84 891.26,-85.04 901.15,-88.83 901.36,-81.84"/>
</g>
<!-- Node33&#45;&gt;Node16 -->
<g id="edge62" class="edge">
<title>Node33&#45;&gt;Node16</title>
<path fill="none" stroke="midnightblue" d="M1474.54,-190.44C1446.32,-181.32 1401.46,-166.81 1370.03,-156.65"/>
<polygon fill="midnightblue" stroke="midnightblue" points="1370.93,-153.26 1360.34,-153.52 1368.78,-159.92 1370.93,-153.26"/>
</g>
<!-- Node33&#45;&gt;Node27 -->
<g id="edge63" class="edge">
<title>Node33&#45;&gt;Node27</title>
<path fill="none" stroke="midnightblue" d="M1489.91,-190.32C1479.51,-182.18 1463.74,-169.84 1451.28,-160.09"/>
<polygon fill="midnightblue" stroke="midnightblue" points="1453.32,-157.24 1443.29,-153.83 1449.01,-162.75 1453.32,-157.24"/>
</g>
</g>
</svg>
