<?xml version="1.0" encoding="UTF-8" standalone="no"?>
<!DOCTYPE svg PUBLIC "-//W3C//DTD SVG 1.1//EN"
 "http://www.w3.org/Graphics/SVG/1.1/DTD/svg11.dtd">
<!-- Generated by graphviz version 2.43.0 (0)
 -->
<!-- Title: fileinfo.h Pages: 1 -->
<svg width="624pt" height="319pt"
 viewBox="0.00 0.00 624.00 319.00" xmlns="http://www.w3.org/2000/svg" xmlns:xlink="http://www.w3.org/1999/xlink">
<g id="graph0" class="graph" transform="scale(1 1) rotate(0) translate(4 315)">
<title>fileinfo.h</title>
<polygon fill="white" stroke="transparent" points="-4,4 -4,-315 620,-315 620,4 -4,4"/>
<!-- Node1 -->
<g id="node1" class="node">
<title>Node1</title>
<g id="a_node1"><a xlink:title=" ">
<polygon fill="#bfbfbf" stroke="black" points="128,-291.5 128,-310.5 187,-310.5 187,-291.5 128,-291.5"/>
<text text-anchor="middle" x="157.5" y="-298.5" font-family="Helvetica,sans-Serif" font-size="10.00">fileinfo.h</text>
</a>
</g>
</g>
<!-- Node2 -->
<g id="node2" class="node">
<title>Node2</title>
<g id="a_node2"><a xlink:href="config_8hxx.html" target="_top" xlink:title=" ">
<polygon fill="white" stroke="black" points="87.5,-67.5 87.5,-86.5 203.5,-86.5 203.5,-67.5 87.5,-67.5"/>
<text text-anchor="middle" x="145.5" y="-74.5" font-family="Helvetica,sans-Serif" font-size="10.00">log4cplus/config.hxx</text>
</a>
</g>
</g>
<!-- Node1&#45;&gt;Node2 -->
<g id="edge1" class="edge">
<title>Node1&#45;&gt;Node2</title>
<path fill="none" stroke="midnightblue" d="M157.03,-291.3C155.26,-258.63 149.01,-142.87 146.52,-96.96"/>
<polygon fill="midnightblue" stroke="midnightblue" points="150.01,-96.68 145.98,-86.88 143.03,-97.06 150.01,-96.68"/>
</g>
<!-- Node5 -->
<g id="node5" class="node">
<title>Node5</title>
<g id="a_node5"><a xlink:href="timehelper_8h.html" target="_top" xlink:title=" ">
<polygon fill="white" stroke="black" points="186,-235.5 186,-254.5 353,-254.5 353,-235.5 186,-235.5"/>
<text text-anchor="middle" x="269.5" y="-242.5" font-family="Helvetica,sans-Serif" font-size="10.00">log4cplus/helpers/timehelper.h</text>
</a>
</g>
</g>
<!-- Node1&#45;&gt;Node5 -->
<g id="edge4" class="edge">
<title>Node1&#45;&gt;Node5</title>
<path fill="none" stroke="midnightblue" d="M175.49,-291.32C193.54,-282.62 221.55,-269.12 242.3,-259.11"/>
<polygon fill="midnightblue" stroke="midnightblue" points="244.06,-262.15 251.55,-254.65 241.02,-255.84 244.06,-262.15"/>
</g>
<!-- Node3 -->
<g id="node3" class="node">
<title>Node3</title>
<g id="a_node3"><a xlink:href="win32_8h.html" target="_top" xlink:title=" ">
<polygon fill="white" stroke="black" points="0,-6 0,-25 137,-25 137,-6 0,-6"/>
<text text-anchor="middle" x="68.5" y="-13" font-family="Helvetica,sans-Serif" font-size="10.00">log4cplus/config/win32.h</text>
</a>
</g>
</g>
<!-- Node2&#45;&gt;Node3 -->
<g id="edge2" class="edge">
<title>Node2&#45;&gt;Node3</title>
<path fill="none" stroke="midnightblue" d="M134.47,-67.48C122.23,-58.02 102.27,-42.6 87.51,-31.19"/>
<polygon fill="midnightblue" stroke="midnightblue" points="89.56,-28.35 79.51,-25.01 85.28,-33.89 89.56,-28.35"/>
</g>
<!-- Node4 -->
<g id="node4" class="node">
<title>Node4</title>
<g id="a_node4"><a xlink:href="thread-config_8h.html" target="_top" xlink:title=" ">
<polygon fill="white" stroke="black" points="155,-0.5 155,-30.5 292,-30.5 292,-0.5 155,-0.5"/>
<text text-anchor="start" x="163" y="-18.5" font-family="Helvetica,sans-Serif" font-size="10.00">log4cplus/helpers/thread</text>
<text text-anchor="middle" x="223.5" y="-7.5" font-family="Helvetica,sans-Serif" font-size="10.00">&#45;config.h</text>
</a>
</g>
</g>
<!-- Node2&#45;&gt;Node4 -->
<g id="edge3" class="edge">
<title>Node2&#45;&gt;Node4</title>
<path fill="none" stroke="midnightblue" d="M156.68,-67.48C167.14,-59.49 183.18,-47.25 196.93,-36.77"/>
<polygon fill="midnightblue" stroke="midnightblue" points="199.29,-39.37 205.12,-30.52 195.04,-33.81 199.29,-39.37"/>
</g>
<!-- Node5&#45;&gt;Node2 -->
<g id="edge5" class="edge">
<title>Node5&#45;&gt;Node2</title>
<path fill="none" stroke="midnightblue" d="M255.04,-235.47C241.61,-227.16 221.5,-213.65 206.5,-199 184.25,-177.26 178.42,-170.82 164.5,-143 157.1,-128.21 152.1,-110.06 149.09,-96.7"/>
<polygon fill="midnightblue" stroke="midnightblue" points="152.49,-95.86 147.03,-86.78 145.64,-97.28 152.49,-95.86"/>
</g>
<!-- Node6 -->
<g id="node6" class="node">
<title>Node6</title>
<g id="a_node6"><a xlink:href="tstring_8h.html" target="_top" xlink:title=" ">
<polygon fill="white" stroke="black" points="216,-179.5 216,-198.5 323,-198.5 323,-179.5 216,-179.5"/>
<text text-anchor="middle" x="269.5" y="-186.5" font-family="Helvetica,sans-Serif" font-size="10.00">log4cplus/tstring.h</text>
</a>
</g>
</g>
<!-- Node5&#45;&gt;Node6 -->
<g id="edge6" class="edge">
<title>Node5&#45;&gt;Node6</title>
<path fill="none" stroke="midnightblue" d="M269.5,-235.08C269.5,-228.01 269.5,-217.86 269.5,-208.99"/>
<polygon fill="midnightblue" stroke="midnightblue" points="273,-208.75 269.5,-198.75 266,-208.75 273,-208.75"/>
</g>
<!-- Node13 -->
<g id="node13" class="node">
<title>Node13</title>
<g id="a_node13"><a xlink:title=" ">
<polygon fill="white" stroke="#bfbfbf" points="341.5,-179.5 341.5,-198.5 385.5,-198.5 385.5,-179.5 341.5,-179.5"/>
<text text-anchor="middle" x="363.5" y="-186.5" font-family="Helvetica,sans-Serif" font-size="10.00">ctime</text>
</a>
</g>
</g>
<!-- Node5&#45;&gt;Node13 -->
<g id="edge15" class="edge">
<title>Node5&#45;&gt;Node13</title>
<path fill="none" stroke="midnightblue" d="M284.6,-235.32C299.4,-226.82 322.19,-213.73 339.48,-203.8"/>
<polygon fill="midnightblue" stroke="midnightblue" points="341.51,-206.67 348.43,-198.65 338.02,-200.6 341.51,-206.67"/>
</g>
<!-- Node14 -->
<g id="node14" class="node">
<title>Node14</title>
<g id="a_node14"><a xlink:title=" ">
<polygon fill="white" stroke="#bfbfbf" points="403.5,-179.5 403.5,-198.5 453.5,-198.5 453.5,-179.5 403.5,-179.5"/>
<text text-anchor="middle" x="428.5" y="-186.5" font-family="Helvetica,sans-Serif" font-size="10.00">chrono</text>
</a>
</g>
</g>
<!-- Node5&#45;&gt;Node14 -->
<g id="edge16" class="edge">
<title>Node5&#45;&gt;Node14</title>
<path fill="none" stroke="midnightblue" d="M294.69,-235.44C321.44,-226.36 363.9,-211.94 393.81,-201.78"/>
<polygon fill="midnightblue" stroke="midnightblue" points="395.08,-205.05 403.42,-198.52 392.83,-198.42 395.08,-205.05"/>
</g>
<!-- Node6&#45;&gt;Node2 -->
<g id="edge7" class="edge">
<title>Node6&#45;&gt;Node2</title>
<path fill="none" stroke="midnightblue" d="M244.99,-179.47C226.42,-172.06 201.18,-159.87 183.5,-143 169.63,-129.77 159.18,-110.37 152.79,-96.21"/>
<polygon fill="midnightblue" stroke="midnightblue" points="155.83,-94.42 148.7,-86.59 149.39,-97.16 155.83,-94.42"/>
</g>
<!-- Node7 -->
<g id="node7" class="node">
<title>Node7</title>
<g id="a_node7"><a xlink:title=" ">
<polygon fill="white" stroke="#bfbfbf" points="193,-123.5 193,-142.5 262,-142.5 262,-123.5 193,-123.5"/>
<text text-anchor="middle" x="227.5" y="-130.5" font-family="Helvetica,sans-Serif" font-size="10.00">type_traits</text>
</a>
</g>
</g>
<!-- Node6&#45;&gt;Node7 -->
<g id="edge8" class="edge">
<title>Node6&#45;&gt;Node7</title>
<path fill="none" stroke="midnightblue" d="M262.56,-179.08C256.57,-171.38 247.75,-160.03 240.45,-150.65"/>
<polygon fill="midnightblue" stroke="midnightblue" points="243.21,-148.5 234.31,-142.75 237.68,-152.79 243.21,-148.5"/>
</g>
<!-- Node8 -->
<g id="node8" class="node">
<title>Node8</title>
<g id="a_node8"><a xlink:title=" ">
<polygon fill="white" stroke="#bfbfbf" points="280,-123.5 280,-142.5 345,-142.5 345,-123.5 280,-123.5"/>
<text text-anchor="middle" x="312.5" y="-130.5" font-family="Helvetica,sans-Serif" font-size="10.00">functional</text>
</a>
</g>
</g>
<!-- Node6&#45;&gt;Node8 -->
<g id="edge9" class="edge">
<title>Node6&#45;&gt;Node8</title>
<path fill="none" stroke="midnightblue" d="M276.6,-179.08C282.74,-171.38 291.77,-160.03 299.24,-150.65"/>
<polygon fill="midnightblue" stroke="midnightblue" points="302.04,-152.75 305.53,-142.75 296.56,-148.39 302.04,-152.75"/>
</g>
<!-- Node9 -->
<g id="node9" class="node">
<title>Node9</title>
<g id="a_node9"><a xlink:title=" ">
<polygon fill="white" stroke="#bfbfbf" points="363.5,-123.5 363.5,-142.5 407.5,-142.5 407.5,-123.5 363.5,-123.5"/>
<text text-anchor="middle" x="385.5" y="-130.5" font-family="Helvetica,sans-Serif" font-size="10.00">string</text>
</a>
</g>
</g>
<!-- Node6&#45;&gt;Node9 -->
<g id="edge10" class="edge">
<title>Node6&#45;&gt;Node9</title>
<path fill="none" stroke="midnightblue" d="M287.88,-179.44C306.72,-170.68 336.23,-156.94 357.88,-146.86"/>
<polygon fill="midnightblue" stroke="midnightblue" points="359.62,-149.91 367.21,-142.52 356.66,-143.56 359.62,-149.91"/>
</g>
<!-- Node10 -->
<g id="node10" class="node">
<title>Node10</title>
<g id="a_node10"><a xlink:title=" ">
<polygon fill="white" stroke="#bfbfbf" points="426,-123.5 426,-142.5 499,-142.5 499,-123.5 426,-123.5"/>
<text text-anchor="middle" x="462.5" y="-130.5" font-family="Helvetica,sans-Serif" font-size="10.00">string_view</text>
</a>
</g>
</g>
<!-- Node6&#45;&gt;Node10 -->
<g id="edge11" class="edge">
<title>Node6&#45;&gt;Node10</title>
<path fill="none" stroke="midnightblue" d="M300.08,-179.44C333.11,-170.2 385.89,-155.44 422.27,-145.26"/>
<polygon fill="midnightblue" stroke="midnightblue" points="423.37,-148.58 432.06,-142.52 421.49,-141.84 423.37,-148.58"/>
</g>
<!-- Node11 -->
<g id="node11" class="node">
<title>Node11</title>
<g id="a_node11"><a xlink:href="tchar_8h.html" target="_top" xlink:title=" ">
<polygon fill="white" stroke="black" points="517,-123.5 517,-142.5 616,-142.5 616,-123.5 517,-123.5"/>
<text text-anchor="middle" x="566.5" y="-130.5" font-family="Helvetica,sans-Serif" font-size="10.00">log4cplus/tchar.h</text>
</a>
</g>
</g>
<!-- Node6&#45;&gt;Node11 -->
<g id="edge12" class="edge">
<title>Node6&#45;&gt;Node11</title>
<path fill="none" stroke="midnightblue" d="M316.56,-179.44C368.91,-169.92 453.49,-154.55 509.54,-144.36"/>
<polygon fill="midnightblue" stroke="midnightblue" points="510.45,-147.75 519.66,-142.52 509.19,-140.86 510.45,-147.75"/>
</g>
<!-- Node11&#45;&gt;Node2 -->
<g id="edge13" class="edge">
<title>Node11&#45;&gt;Node2</title>
<path fill="none" stroke="midnightblue" d="M516.84,-124.19C514.02,-123.78 511.22,-123.38 508.5,-123 405.93,-108.69 286.73,-94.35 213.72,-85.83"/>
<polygon fill="midnightblue" stroke="midnightblue" points="214.06,-82.34 203.73,-84.66 213.25,-89.3 214.06,-82.34"/>
</g>
<!-- Node12 -->
<g id="node12" class="node">
<title>Node12</title>
<g id="a_node12"><a xlink:title=" ">
<polygon fill="white" stroke="#bfbfbf" points="540,-67.5 540,-86.5 593,-86.5 593,-67.5 540,-67.5"/>
<text text-anchor="middle" x="566.5" y="-74.5" font-family="Helvetica,sans-Serif" font-size="10.00">cstddef</text>
</a>
</g>
</g>
<!-- Node11&#45;&gt;Node12 -->
<g id="edge14" class="edge">
<title>Node11&#45;&gt;Node12</title>
<path fill="none" stroke="midnightblue" d="M566.5,-123.08C566.5,-116.01 566.5,-105.86 566.5,-96.99"/>
<polygon fill="midnightblue" stroke="midnightblue" points="570,-96.75 566.5,-86.75 563,-96.75 570,-96.75"/>
</g>
</g>
</svg>
