<?xml version="1.0" encoding="UTF-8" standalone="no"?>
<!DOCTYPE svg PUBLIC "-//W3C//DTD SVG 1.1//EN"
 "http://www.w3.org/Graphics/SVG/1.1/DTD/svg11.dtd">
<!-- Generated by graphviz version 2.43.0 (0)
 -->
<!-- Title: filter.h Pages: 1 -->
<svg width="1077pt" height="330pt"
 viewBox="0.00 0.00 1077.44 330.00" xmlns="http://www.w3.org/2000/svg" xmlns:xlink="http://www.w3.org/1999/xlink">
<g id="graph0" class="graph" transform="scale(1 1) rotate(0) translate(4 326)">
<title>filter.h</title>
<polygon fill="white" stroke="transparent" points="-4,4 -4,-326 1073.44,-326 1073.44,4 -4,4"/>
<!-- Node1 -->
<g id="node1" class="node">
<title>Node1</title>
<g id="a_node1"><a xlink:title="This header defines Filter and all of it&#39;s subclasses.">
<polygon fill="#bfbfbf" stroke="black" points="811,-302.5 811,-321.5 858,-321.5 858,-302.5 811,-302.5"/>
<text text-anchor="middle" x="834.5" y="-309.5" font-family="Helvetica,sans-Serif" font-size="10.00">filter.h</text>
</a>
</g>
</g>
<!-- Node2 -->
<g id="node2" class="node">
<title>Node2</title>
<g id="a_node2"><a xlink:href="config_8hxx.html" target="_top" xlink:title=" ">
<polygon fill="white" stroke="black" points="517.5,-73 517.5,-92 633.5,-92 633.5,-73 517.5,-73"/>
<text text-anchor="middle" x="575.5" y="-80" font-family="Helvetica,sans-Serif" font-size="10.00">log4cplus/config.hxx</text>
</a>
</g>
</g>
<!-- Node1&#45;&gt;Node2 -->
<g id="edge1" class="edge">
<title>Node1&#45;&gt;Node2</title>
<path fill="none" stroke="midnightblue" d="M858.42,-303.8C928.45,-281.6 1123.86,-211.06 1054.5,-134 1027.57,-104.08 770.07,-90.6 644.16,-85.75"/>
<polygon fill="midnightblue" stroke="midnightblue" points="643.98,-82.24 633.86,-85.36 643.72,-89.24 643.98,-82.24"/>
</g>
<!-- Node5 -->
<g id="node5" class="node">
<title>Node5</title>
<g id="a_node5"><a xlink:title=" ">
<polygon fill="white" stroke="#bfbfbf" points="980,-134.5 980,-153.5 1045,-153.5 1045,-134.5 980,-134.5"/>
<text text-anchor="middle" x="1012.5" y="-141.5" font-family="Helvetica,sans-Serif" font-size="10.00">functional</text>
</a>
</g>
</g>
<!-- Node1&#45;&gt;Node5 -->
<g id="edge4" class="edge">
<title>Node1&#45;&gt;Node5</title>
<path fill="none" stroke="midnightblue" d="M844.22,-302.49C863.81,-285.29 909.34,-245.02 946.5,-210 963.95,-193.56 983.45,-174.23 996.7,-160.94"/>
<polygon fill="midnightblue" stroke="midnightblue" points="999.5,-163.09 1004.07,-153.54 994.54,-158.16 999.5,-163.09"/>
</g>
<!-- Node6 -->
<g id="node6" class="node">
<title>Node6</title>
<g id="a_node6"><a xlink:href="pointer_8h.html" target="_top" xlink:title=" ">
<polygon fill="white" stroke="black" points="360.5,-190.5 360.5,-209.5 508.5,-209.5 508.5,-190.5 360.5,-190.5"/>
<text text-anchor="middle" x="434.5" y="-197.5" font-family="Helvetica,sans-Serif" font-size="10.00">log4cplus/helpers/pointer.h</text>
</a>
</g>
</g>
<!-- Node1&#45;&gt;Node6 -->
<g id="edge5" class="edge">
<title>Node1&#45;&gt;Node6</title>
<path fill="none" stroke="midnightblue" d="M810.99,-306.31C773.89,-298.75 699.59,-283 637.5,-266 577.45,-249.56 508.65,-226.65 468.54,-212.88"/>
<polygon fill="midnightblue" stroke="midnightblue" points="469.58,-209.54 458.98,-209.59 467.3,-216.16 469.58,-209.54"/>
</g>
<!-- Node14 -->
<g id="node14" class="node">
<title>Node14</title>
<g id="a_node14"><a xlink:href="loglevel_8h.html" target="_top" xlink:title="This header defines the LogLevel type.">
<polygon fill="white" stroke="black" points="646.5,-246.5 646.5,-265.5 760.5,-265.5 760.5,-246.5 646.5,-246.5"/>
<text text-anchor="middle" x="703.5" y="-253.5" font-family="Helvetica,sans-Serif" font-size="10.00">log4cplus/loglevel.h</text>
</a>
</g>
</g>
<!-- Node1&#45;&gt;Node14 -->
<g id="edge15" class="edge">
<title>Node1&#45;&gt;Node14</title>
<path fill="none" stroke="midnightblue" d="M813.74,-302.44C792.18,-293.56 758.24,-279.56 733.71,-269.45"/>
<polygon fill="midnightblue" stroke="midnightblue" points="734.74,-266.09 724.16,-265.52 732.07,-272.56 734.74,-266.09"/>
</g>
<!-- Node3 -->
<g id="node3" class="node">
<title>Node3</title>
<g id="a_node3"><a xlink:href="win32_8h.html" target="_top" xlink:title=" ">
<polygon fill="white" stroke="black" points="429,-6 429,-25 566,-25 566,-6 429,-6"/>
<text text-anchor="middle" x="497.5" y="-13" font-family="Helvetica,sans-Serif" font-size="10.00">log4cplus/config/win32.h</text>
</a>
</g>
</g>
<!-- Node2&#45;&gt;Node3 -->
<g id="edge2" class="edge">
<title>Node2&#45;&gt;Node3</title>
<path fill="none" stroke="midnightblue" d="M564.98,-72.73C552.35,-62.21 530.96,-44.38 515.64,-31.62"/>
<polygon fill="midnightblue" stroke="midnightblue" points="517.78,-28.84 507.85,-25.13 513.29,-34.22 517.78,-28.84"/>
</g>
<!-- Node4 -->
<g id="node4" class="node">
<title>Node4</title>
<g id="a_node4"><a xlink:href="thread-config_8h.html" target="_top" xlink:title=" ">
<polygon fill="white" stroke="black" points="584,-0.5 584,-30.5 721,-30.5 721,-0.5 584,-0.5"/>
<text text-anchor="start" x="592" y="-18.5" font-family="Helvetica,sans-Serif" font-size="10.00">log4cplus/helpers/thread</text>
<text text-anchor="middle" x="652.5" y="-7.5" font-family="Helvetica,sans-Serif" font-size="10.00">&#45;config.h</text>
</a>
</g>
</g>
<!-- Node2&#45;&gt;Node4 -->
<g id="edge3" class="edge">
<title>Node2&#45;&gt;Node4</title>
<path fill="none" stroke="midnightblue" d="M585.88,-72.73C596.59,-63.7 613.68,-49.27 627.86,-37.3"/>
<polygon fill="midnightblue" stroke="midnightblue" points="630.43,-39.71 635.81,-30.59 625.91,-34.37 630.43,-39.71"/>
</g>
<!-- Node6&#45;&gt;Node2 -->
<g id="edge6" class="edge">
<title>Node6&#45;&gt;Node2</title>
<path fill="none" stroke="midnightblue" d="M387.12,-190.45C345.16,-180.8 293.94,-162.61 317.5,-134 341.09,-105.34 438.85,-92.72 507.01,-87.32"/>
<polygon fill="midnightblue" stroke="midnightblue" points="507.55,-90.79 517.26,-86.54 507.03,-83.81 507.55,-90.79"/>
</g>
<!-- Node7 -->
<g id="node7" class="node">
<title>Node7</title>
<g id="a_node7"><a xlink:href="syncprims_8h.html" target="_top" xlink:title=" ">
<polygon fill="white" stroke="black" points="110.5,-134.5 110.5,-153.5 270.5,-153.5 270.5,-134.5 110.5,-134.5"/>
<text text-anchor="middle" x="190.5" y="-141.5" font-family="Helvetica,sans-Serif" font-size="10.00">log4cplus/thread/syncprims.h</text>
</a>
</g>
</g>
<!-- Node6&#45;&gt;Node7 -->
<g id="edge7" class="edge">
<title>Node6&#45;&gt;Node7</title>
<path fill="none" stroke="midnightblue" d="M395.84,-190.44C353.36,-181.04 285.07,-165.93 239.03,-155.74"/>
<polygon fill="midnightblue" stroke="midnightblue" points="239.5,-152.26 228.98,-153.52 237.99,-159.09 239.5,-152.26"/>
</g>
<!-- Node11 -->
<g id="node11" class="node">
<title>Node11</title>
<g id="a_node11"><a xlink:title=" ">
<polygon fill="white" stroke="#bfbfbf" points="326.5,-134.5 326.5,-153.5 390.5,-153.5 390.5,-134.5 326.5,-134.5"/>
<text text-anchor="middle" x="358.5" y="-141.5" font-family="Helvetica,sans-Serif" font-size="10.00">algorithm</text>
</a>
</g>
</g>
<!-- Node6&#45;&gt;Node11 -->
<g id="edge12" class="edge">
<title>Node6&#45;&gt;Node11</title>
<path fill="none" stroke="midnightblue" d="M422.29,-190.32C410.72,-182.11 393.12,-169.6 379.34,-159.81"/>
<polygon fill="midnightblue" stroke="midnightblue" points="381.11,-156.77 370.93,-153.83 377.06,-162.48 381.11,-156.77"/>
</g>
<!-- Node12 -->
<g id="node12" class="node">
<title>Node12</title>
<g id="a_node12"><a xlink:title=" ">
<polygon fill="white" stroke="#bfbfbf" points="408.5,-134.5 408.5,-153.5 460.5,-153.5 460.5,-134.5 408.5,-134.5"/>
<text text-anchor="middle" x="434.5" y="-141.5" font-family="Helvetica,sans-Serif" font-size="10.00">cassert</text>
</a>
</g>
</g>
<!-- Node6&#45;&gt;Node12 -->
<g id="edge13" class="edge">
<title>Node6&#45;&gt;Node12</title>
<path fill="none" stroke="midnightblue" d="M434.5,-190.08C434.5,-183.01 434.5,-172.86 434.5,-163.99"/>
<polygon fill="midnightblue" stroke="midnightblue" points="438,-163.75 434.5,-153.75 431,-163.75 438,-163.75"/>
</g>
<!-- Node13 -->
<g id="node13" class="node">
<title>Node13</title>
<g id="a_node13"><a xlink:title=" ">
<polygon fill="white" stroke="#bfbfbf" points="478.5,-134.5 478.5,-153.5 528.5,-153.5 528.5,-134.5 478.5,-134.5"/>
<text text-anchor="middle" x="503.5" y="-141.5" font-family="Helvetica,sans-Serif" font-size="10.00">atomic</text>
</a>
</g>
</g>
<!-- Node6&#45;&gt;Node13 -->
<g id="edge14" class="edge">
<title>Node6&#45;&gt;Node13</title>
<path fill="none" stroke="midnightblue" d="M445.59,-190.32C455.99,-182.18 471.76,-169.84 484.22,-160.09"/>
<polygon fill="midnightblue" stroke="midnightblue" points="486.49,-162.75 492.21,-153.83 482.18,-157.24 486.49,-162.75"/>
</g>
<!-- Node7&#45;&gt;Node2 -->
<g id="edge8" class="edge">
<title>Node7&#45;&gt;Node2</title>
<path fill="none" stroke="midnightblue" d="M245.66,-134.48C315.56,-123.67 435.87,-105.08 510.26,-93.58"/>
<polygon fill="midnightblue" stroke="midnightblue" points="511.09,-97 520.44,-92.01 510.02,-90.08 511.09,-97"/>
</g>
<!-- Node8 -->
<g id="node8" class="node">
<title>Node8</title>
<g id="a_node8"><a xlink:title=" ">
<polygon fill="white" stroke="#bfbfbf" points="274.5,-73 274.5,-92 322.5,-92 322.5,-73 274.5,-73"/>
<text text-anchor="middle" x="298.5" y="-80" font-family="Helvetica,sans-Serif" font-size="10.00">mutex</text>
</a>
</g>
</g>
<!-- Node7&#45;&gt;Node8 -->
<g id="edge9" class="edge">
<title>Node7&#45;&gt;Node8</title>
<path fill="none" stroke="midnightblue" d="M205.97,-134.48C223.78,-124.67 253.24,-108.43 274.13,-96.92"/>
<polygon fill="midnightblue" stroke="midnightblue" points="275.99,-99.9 283.05,-92.01 272.61,-93.77 275.99,-99.9"/>
</g>
<!-- Node9 -->
<g id="node9" class="node">
<title>Node9</title>
<g id="a_node9"><a xlink:title=" ">
<polygon fill="white" stroke="#bfbfbf" points="0,-73 0,-92 107,-92 107,-73 0,-73"/>
<text text-anchor="middle" x="53.5" y="-80" font-family="Helvetica,sans-Serif" font-size="10.00">condition_variable</text>
</a>
</g>
</g>
<!-- Node7&#45;&gt;Node9 -->
<g id="edge10" class="edge">
<title>Node7&#45;&gt;Node9</title>
<path fill="none" stroke="midnightblue" d="M170.87,-134.48C147.68,-124.4 108.88,-107.55 82.29,-96"/>
<polygon fill="midnightblue" stroke="midnightblue" points="83.66,-92.78 73.09,-92.01 80.87,-99.2 83.66,-92.78"/>
</g>
<!-- Node10 -->
<g id="node10" class="node">
<title>Node10</title>
<g id="a_node10"><a xlink:href="threadsafetyanalysis_8h.html" target="_top" xlink:title=" ">
<polygon fill="white" stroke="black" points="125,-67.5 125,-97.5 256,-97.5 256,-67.5 125,-67.5"/>
<text text-anchor="start" x="133" y="-85.5" font-family="Helvetica,sans-Serif" font-size="10.00">log4cplus/internal</text>
<text text-anchor="middle" x="190.5" y="-74.5" font-family="Helvetica,sans-Serif" font-size="10.00">/threadsafetyanalysis.h</text>
</a>
</g>
</g>
<!-- Node7&#45;&gt;Node10 -->
<g id="edge11" class="edge">
<title>Node7&#45;&gt;Node10</title>
<path fill="none" stroke="midnightblue" d="M190.5,-134.48C190.5,-127.47 190.5,-117.19 190.5,-107.7"/>
<polygon fill="midnightblue" stroke="midnightblue" points="194,-107.52 190.5,-97.52 187,-107.52 194,-107.52"/>
</g>
<!-- Node14&#45;&gt;Node2 -->
<g id="edge16" class="edge">
<title>Node14&#45;&gt;Node2</title>
<path fill="none" stroke="midnightblue" d="M646.35,-249.71C620.26,-244.11 591.64,-232.78 575.5,-210 552.73,-177.86 561.87,-128.65 569.38,-102.08"/>
<polygon fill="midnightblue" stroke="midnightblue" points="572.83,-102.77 572.4,-92.19 566.13,-100.73 572.83,-102.77"/>
</g>
<!-- Node14&#45;&gt;Node6 -->
<g id="edge29" class="edge">
<title>Node14&#45;&gt;Node6</title>
<path fill="none" stroke="midnightblue" d="M660.88,-246.44C613.75,-236.98 537.81,-221.74 487.04,-211.55"/>
<polygon fill="midnightblue" stroke="midnightblue" points="487.42,-208.05 476.92,-209.52 486.04,-214.92 487.42,-208.05"/>
</g>
<!-- Node15 -->
<g id="node15" class="node">
<title>Node15</title>
<g id="a_node15"><a xlink:title=" ">
<polygon fill="white" stroke="#bfbfbf" points="890,-190.5 890,-209.5 937,-209.5 937,-190.5 890,-190.5"/>
<text text-anchor="middle" x="913.5" y="-197.5" font-family="Helvetica,sans-Serif" font-size="10.00">vector</text>
</a>
</g>
</g>
<!-- Node14&#45;&gt;Node15 -->
<g id="edge17" class="edge">
<title>Node14&#45;&gt;Node15</title>
<path fill="none" stroke="midnightblue" d="M738.36,-246.48C772.26,-238.12 825.46,-224.85 879.93,-210.37"/>
<polygon fill="midnightblue" stroke="midnightblue" points="880.99,-213.71 889.75,-207.75 879.19,-206.95 880.99,-213.71"/>
</g>
<!-- Node16 -->
<g id="node16" class="node">
<title>Node16</title>
<g id="a_node16"><a xlink:title=" ">
<polygon fill="white" stroke="#bfbfbf" points="584.5,-190.5 584.5,-209.5 642.5,-209.5 642.5,-190.5 584.5,-190.5"/>
<text text-anchor="middle" x="613.5" y="-197.5" font-family="Helvetica,sans-Serif" font-size="10.00">memory</text>
</a>
</g>
</g>
<!-- Node14&#45;&gt;Node16 -->
<g id="edge18" class="edge">
<title>Node14&#45;&gt;Node16</title>
<path fill="none" stroke="midnightblue" d="M689.04,-246.32C675,-237.9 653.45,-224.97 636.96,-215.07"/>
<polygon fill="midnightblue" stroke="midnightblue" points="638.3,-211.8 627.92,-209.65 634.7,-217.8 638.3,-211.8"/>
</g>
<!-- Node17 -->
<g id="node17" class="node">
<title>Node17</title>
<g id="a_node17"><a xlink:title=" ">
<polygon fill="white" stroke="#bfbfbf" points="660.5,-190.5 660.5,-209.5 746.5,-209.5 746.5,-190.5 660.5,-190.5"/>
<text text-anchor="middle" x="703.5" y="-197.5" font-family="Helvetica,sans-Serif" font-size="10.00">shared_mutex</text>
</a>
</g>
</g>
<!-- Node14&#45;&gt;Node17 -->
<g id="edge19" class="edge">
<title>Node14&#45;&gt;Node17</title>
<path fill="none" stroke="midnightblue" d="M703.5,-246.08C703.5,-239.01 703.5,-228.86 703.5,-219.99"/>
<polygon fill="midnightblue" stroke="midnightblue" points="707,-219.75 703.5,-209.75 700,-219.75 707,-219.75"/>
</g>
<!-- Node18 -->
<g id="node18" class="node">
<title>Node18</title>
<g id="a_node18"><a xlink:href="tstring_8h.html" target="_top" xlink:title=" ">
<polygon fill="white" stroke="black" points="765,-190.5 765,-209.5 872,-209.5 872,-190.5 765,-190.5"/>
<text text-anchor="middle" x="818.5" y="-197.5" font-family="Helvetica,sans-Serif" font-size="10.00">log4cplus/tstring.h</text>
</a>
</g>
</g>
<!-- Node14&#45;&gt;Node18 -->
<g id="edge20" class="edge">
<title>Node14&#45;&gt;Node18</title>
<path fill="none" stroke="midnightblue" d="M721.72,-246.44C740.4,-237.68 769.66,-223.94 791.12,-213.86"/>
<polygon fill="midnightblue" stroke="midnightblue" points="792.8,-216.93 800.36,-209.52 789.82,-210.6 792.8,-216.93"/>
</g>
<!-- Node18&#45;&gt;Node2 -->
<g id="edge21" class="edge">
<title>Node18&#45;&gt;Node2</title>
<path fill="none" stroke="midnightblue" d="M769.32,-190.42C712.72,-180.21 625.9,-163.35 613.5,-154 596.54,-141.21 586.29,-118.58 580.78,-102.41"/>
<polygon fill="midnightblue" stroke="midnightblue" points="584,-100.97 577.7,-92.45 577.31,-103.04 584,-100.97"/>
</g>
<!-- Node18&#45;&gt;Node5 -->
<g id="edge23" class="edge">
<title>Node18&#45;&gt;Node5</title>
<path fill="none" stroke="midnightblue" d="M849.24,-190.44C882.44,-181.2 935.49,-166.44 972.06,-156.26"/>
<polygon fill="midnightblue" stroke="midnightblue" points="973.21,-159.57 981.9,-153.52 971.33,-152.83 973.21,-159.57"/>
</g>
<!-- Node19 -->
<g id="node19" class="node">
<title>Node19</title>
<g id="a_node19"><a xlink:title=" ">
<polygon fill="white" stroke="#bfbfbf" points="776,-134.5 776,-153.5 845,-153.5 845,-134.5 776,-134.5"/>
<text text-anchor="middle" x="810.5" y="-141.5" font-family="Helvetica,sans-Serif" font-size="10.00">type_traits</text>
</a>
</g>
</g>
<!-- Node18&#45;&gt;Node19 -->
<g id="edge22" class="edge">
<title>Node18&#45;&gt;Node19</title>
<path fill="none" stroke="midnightblue" d="M817.18,-190.08C816.12,-182.93 814.59,-172.64 813.27,-163.69"/>
<polygon fill="midnightblue" stroke="midnightblue" points="816.72,-163.13 811.8,-153.75 809.8,-164.16 816.72,-163.13"/>
</g>
<!-- Node20 -->
<g id="node20" class="node">
<title>Node20</title>
<g id="a_node20"><a xlink:title=" ">
<polygon fill="white" stroke="#bfbfbf" points="622.5,-134.5 622.5,-153.5 666.5,-153.5 666.5,-134.5 622.5,-134.5"/>
<text text-anchor="middle" x="644.5" y="-141.5" font-family="Helvetica,sans-Serif" font-size="10.00">string</text>
</a>
</g>
</g>
<!-- Node18&#45;&gt;Node20 -->
<g id="edge24" class="edge">
<title>Node18&#45;&gt;Node20</title>
<path fill="none" stroke="midnightblue" d="M790.93,-190.44C759.75,-180.77 709.07,-165.04 676.26,-154.86"/>
<polygon fill="midnightblue" stroke="midnightblue" points="677.28,-151.51 666.7,-151.89 675.21,-158.2 677.28,-151.51"/>
</g>
<!-- Node21 -->
<g id="node21" class="node">
<title>Node21</title>
<g id="a_node21"><a xlink:title=" ">
<polygon fill="white" stroke="#bfbfbf" points="685,-134.5 685,-153.5 758,-153.5 758,-134.5 685,-134.5"/>
<text text-anchor="middle" x="721.5" y="-141.5" font-family="Helvetica,sans-Serif" font-size="10.00">string_view</text>
</a>
</g>
</g>
<!-- Node18&#45;&gt;Node21 -->
<g id="edge25" class="edge">
<title>Node18&#45;&gt;Node21</title>
<path fill="none" stroke="midnightblue" d="M802.92,-190.32C787.5,-181.74 763.69,-168.49 745.79,-158.52"/>
<polygon fill="midnightblue" stroke="midnightblue" points="747.49,-155.46 737.05,-153.65 744.08,-161.58 747.49,-155.46"/>
</g>
<!-- Node22 -->
<g id="node22" class="node">
<title>Node22</title>
<g id="a_node22"><a xlink:href="tchar_8h.html" target="_top" xlink:title=" ">
<polygon fill="white" stroke="black" points="863,-134.5 863,-153.5 962,-153.5 962,-134.5 863,-134.5"/>
<text text-anchor="middle" x="912.5" y="-141.5" font-family="Helvetica,sans-Serif" font-size="10.00">log4cplus/tchar.h</text>
</a>
</g>
</g>
<!-- Node18&#45;&gt;Node22 -->
<g id="edge26" class="edge">
<title>Node18&#45;&gt;Node22</title>
<path fill="none" stroke="midnightblue" d="M833.6,-190.32C848.4,-181.82 871.19,-168.73 888.48,-158.8"/>
<polygon fill="midnightblue" stroke="midnightblue" points="890.51,-161.67 897.43,-153.65 887.02,-155.6 890.51,-161.67"/>
</g>
<!-- Node22&#45;&gt;Node2 -->
<g id="edge27" class="edge">
<title>Node22&#45;&gt;Node2</title>
<path fill="none" stroke="midnightblue" d="M864.22,-134.48C803.41,-123.74 699.01,-105.31 633.81,-93.79"/>
<polygon fill="midnightblue" stroke="midnightblue" points="634.15,-90.3 623.69,-92.01 632.93,-97.19 634.15,-90.3"/>
</g>
<!-- Node23 -->
<g id="node23" class="node">
<title>Node23</title>
<g id="a_node23"><a xlink:title=" ">
<polygon fill="white" stroke="#bfbfbf" points="886,-73 886,-92 939,-92 939,-73 886,-73"/>
<text text-anchor="middle" x="912.5" y="-80" font-family="Helvetica,sans-Serif" font-size="10.00">cstddef</text>
</a>
</g>
</g>
<!-- Node22&#45;&gt;Node23 -->
<g id="edge28" class="edge">
<title>Node22&#45;&gt;Node23</title>
<path fill="none" stroke="midnightblue" d="M912.5,-134.48C912.5,-126.08 912.5,-112.98 912.5,-102.16"/>
<polygon fill="midnightblue" stroke="midnightblue" points="916,-102.01 912.5,-92.01 909,-102.01 916,-102.01"/>
</g>
</g>
</svg>
