<?xml version="1.0" encoding="UTF-8" standalone="no"?>
<!DOCTYPE svg PUBLIC "-//W3C//DTD SVG 1.1//EN"
 "http://www.w3.org/Graphics/SVG/1.1/DTD/svg11.dtd">
<!-- Generated by graphviz version 2.43.0 (0)
 -->
<!-- Title: socket.h Pages: 1 -->
<svg width="625pt" height="319pt"
 viewBox="0.00 0.00 625.00 319.00" xmlns="http://www.w3.org/2000/svg" xmlns:xlink="http://www.w3.org/1999/xlink">
<g id="graph0" class="graph" transform="scale(1 1) rotate(0) translate(4 315)">
<title>socket.h</title>
<polygon fill="white" stroke="transparent" points="-4,4 -4,-315 621,-315 621,4 -4,4"/>
<!-- Node1 -->
<g id="node1" class="node">
<title>Node1</title>
<g id="a_node1"><a xlink:title=" ">
<polygon fill="#bfbfbf" stroke="black" points="285,-291.5 285,-310.5 342,-310.5 342,-291.5 285,-291.5"/>
<text text-anchor="middle" x="313.5" y="-298.5" font-family="Helvetica,sans-Serif" font-size="10.00">socket.h</text>
</a>
</g>
</g>
<!-- Node2 -->
<g id="node2" class="node">
<title>Node2</title>
<g id="a_node2"><a xlink:href="config_8hxx.html" target="_top" xlink:title=" ">
<polygon fill="white" stroke="black" points="412.5,-67.5 412.5,-86.5 528.5,-86.5 528.5,-67.5 412.5,-67.5"/>
<text text-anchor="middle" x="470.5" y="-74.5" font-family="Helvetica,sans-Serif" font-size="10.00">log4cplus/config.hxx</text>
</a>
</g>
</g>
<!-- Node1&#45;&gt;Node2 -->
<g id="edge1" class="edge">
<title>Node1&#45;&gt;Node2</title>
<path fill="none" stroke="midnightblue" d="M342.04,-298.75C397.67,-295.65 517.4,-285.51 542.5,-255 583.88,-204.69 519.42,-127.43 487.14,-94.15"/>
<polygon fill="midnightblue" stroke="midnightblue" points="489.25,-91.31 479.71,-86.68 484.28,-96.24 489.25,-91.31"/>
</g>
<!-- Node5 -->
<g id="node5" class="node">
<title>Node5</title>
<g id="a_node5"><a xlink:title=" ">
<polygon fill="white" stroke="#bfbfbf" points="225.5,-235.5 225.5,-254.5 267.5,-254.5 267.5,-235.5 225.5,-235.5"/>
<text text-anchor="middle" x="246.5" y="-242.5" font-family="Helvetica,sans-Serif" font-size="10.00">array</text>
</a>
</g>
</g>
<!-- Node1&#45;&gt;Node5 -->
<g id="edge4" class="edge">
<title>Node1&#45;&gt;Node5</title>
<path fill="none" stroke="midnightblue" d="M302.74,-291.32C292.73,-283.26 277.61,-271.08 265.57,-261.37"/>
<polygon fill="midnightblue" stroke="midnightblue" points="267.44,-258.38 257.46,-254.83 263.05,-263.83 267.44,-258.38"/>
</g>
<!-- Node6 -->
<g id="node6" class="node">
<title>Node6</title>
<g id="a_node6"><a xlink:title=" ">
<polygon fill="white" stroke="#bfbfbf" points="285.5,-235.5 285.5,-254.5 341.5,-254.5 341.5,-235.5 285.5,-235.5"/>
<text text-anchor="middle" x="313.5" y="-242.5" font-family="Helvetica,sans-Serif" font-size="10.00">optional</text>
</a>
</g>
</g>
<!-- Node1&#45;&gt;Node6 -->
<g id="edge5" class="edge">
<title>Node1&#45;&gt;Node6</title>
<path fill="none" stroke="midnightblue" d="M313.5,-291.08C313.5,-284.01 313.5,-273.86 313.5,-264.99"/>
<polygon fill="midnightblue" stroke="midnightblue" points="317,-264.75 313.5,-254.75 310,-264.75 317,-264.75"/>
</g>
<!-- Node7 -->
<g id="node7" class="node">
<title>Node7</title>
<g id="a_node7"><a xlink:href="tstring_8h.html" target="_top" xlink:title=" ">
<polygon fill="white" stroke="black" points="178,-179.5 178,-198.5 285,-198.5 285,-179.5 178,-179.5"/>
<text text-anchor="middle" x="231.5" y="-186.5" font-family="Helvetica,sans-Serif" font-size="10.00">log4cplus/tstring.h</text>
</a>
</g>
</g>
<!-- Node1&#45;&gt;Node7 -->
<g id="edge6" class="edge">
<title>Node1&#45;&gt;Node7</title>
<path fill="none" stroke="midnightblue" d="M284.63,-295.21C261.8,-289.73 231.38,-278.31 216.5,-255 207.37,-240.7 213.6,-221.49 220.6,-207.67"/>
<polygon fill="midnightblue" stroke="midnightblue" points="223.79,-209.14 225.62,-198.7 217.68,-205.71 223.79,-209.14"/>
</g>
<!-- Node14 -->
<g id="node14" class="node">
<title>Node14</title>
<g id="a_node14"><a xlink:href="socketbuffer_8h.html" target="_top" xlink:title=" ">
<polygon fill="white" stroke="black" points="360,-235.5 360,-254.5 533,-254.5 533,-235.5 360,-235.5"/>
<text text-anchor="middle" x="446.5" y="-242.5" font-family="Helvetica,sans-Serif" font-size="10.00">log4cplus/helpers/socketbuffer.h</text>
</a>
</g>
</g>
<!-- Node1&#45;&gt;Node14 -->
<g id="edge15" class="edge">
<title>Node1&#45;&gt;Node14</title>
<path fill="none" stroke="midnightblue" d="M334.57,-291.44C356.56,-282.52 391.23,-268.44 416.16,-258.32"/>
<polygon fill="midnightblue" stroke="midnightblue" points="417.58,-261.52 425.52,-254.52 414.94,-255.04 417.58,-261.52"/>
</g>
<!-- Node3 -->
<g id="node3" class="node">
<title>Node3</title>
<g id="a_node3"><a xlink:href="win32_8h.html" target="_top" xlink:title=" ">
<polygon fill="white" stroke="black" points="325,-6 325,-25 462,-25 462,-6 325,-6"/>
<text text-anchor="middle" x="393.5" y="-13" font-family="Helvetica,sans-Serif" font-size="10.00">log4cplus/config/win32.h</text>
</a>
</g>
</g>
<!-- Node2&#45;&gt;Node3 -->
<g id="edge2" class="edge">
<title>Node2&#45;&gt;Node3</title>
<path fill="none" stroke="midnightblue" d="M459.47,-67.48C447.23,-58.02 427.27,-42.6 412.51,-31.19"/>
<polygon fill="midnightblue" stroke="midnightblue" points="414.56,-28.35 404.51,-25.01 410.28,-33.89 414.56,-28.35"/>
</g>
<!-- Node4 -->
<g id="node4" class="node">
<title>Node4</title>
<g id="a_node4"><a xlink:href="thread-config_8h.html" target="_top" xlink:title=" ">
<polygon fill="white" stroke="black" points="480,-0.5 480,-30.5 617,-30.5 617,-0.5 480,-0.5"/>
<text text-anchor="start" x="488" y="-18.5" font-family="Helvetica,sans-Serif" font-size="10.00">log4cplus/helpers/thread</text>
<text text-anchor="middle" x="548.5" y="-7.5" font-family="Helvetica,sans-Serif" font-size="10.00">&#45;config.h</text>
</a>
</g>
</g>
<!-- Node2&#45;&gt;Node4 -->
<g id="edge3" class="edge">
<title>Node2&#45;&gt;Node4</title>
<path fill="none" stroke="midnightblue" d="M481.68,-67.48C492.14,-59.49 508.18,-47.25 521.93,-36.77"/>
<polygon fill="midnightblue" stroke="midnightblue" points="524.29,-39.37 530.12,-30.52 520.04,-33.81 524.29,-39.37"/>
</g>
<!-- Node7&#45;&gt;Node2 -->
<g id="edge7" class="edge">
<title>Node7&#45;&gt;Node2</title>
<path fill="none" stroke="midnightblue" d="M285.02,-187.24C328.23,-184.14 388.67,-173.96 431.5,-143 447.46,-131.46 458.09,-111.2 464.17,-96.35"/>
<polygon fill="midnightblue" stroke="midnightblue" points="467.55,-97.3 467.8,-86.71 461,-94.83 467.55,-97.3"/>
</g>
<!-- Node8 -->
<g id="node8" class="node">
<title>Node8</title>
<g id="a_node8"><a xlink:title=" ">
<polygon fill="white" stroke="#bfbfbf" points="354,-123.5 354,-142.5 423,-142.5 423,-123.5 354,-123.5"/>
<text text-anchor="middle" x="388.5" y="-130.5" font-family="Helvetica,sans-Serif" font-size="10.00">type_traits</text>
</a>
</g>
</g>
<!-- Node7&#45;&gt;Node8 -->
<g id="edge8" class="edge">
<title>Node7&#45;&gt;Node8</title>
<path fill="none" stroke="midnightblue" d="M256.38,-179.44C282.79,-170.36 324.72,-155.94 354.24,-145.78"/>
<polygon fill="midnightblue" stroke="midnightblue" points="355.42,-149.08 363.74,-142.52 353.14,-142.46 355.42,-149.08"/>
</g>
<!-- Node9 -->
<g id="node9" class="node">
<title>Node9</title>
<g id="a_node9"><a xlink:title=" ">
<polygon fill="white" stroke="#bfbfbf" points="117,-123.5 117,-142.5 182,-142.5 182,-123.5 117,-123.5"/>
<text text-anchor="middle" x="149.5" y="-130.5" font-family="Helvetica,sans-Serif" font-size="10.00">functional</text>
</a>
</g>
</g>
<!-- Node7&#45;&gt;Node9 -->
<g id="edge9" class="edge">
<title>Node7&#45;&gt;Node9</title>
<path fill="none" stroke="midnightblue" d="M218.33,-179.32C205.65,-170.98 186.27,-158.21 171.29,-148.35"/>
<polygon fill="midnightblue" stroke="midnightblue" points="172.92,-145.23 162.64,-142.65 169.07,-151.08 172.92,-145.23"/>
</g>
<!-- Node10 -->
<g id="node10" class="node">
<title>Node10</title>
<g id="a_node10"><a xlink:title=" ">
<polygon fill="white" stroke="#bfbfbf" points="200.5,-123.5 200.5,-142.5 244.5,-142.5 244.5,-123.5 200.5,-123.5"/>
<text text-anchor="middle" x="222.5" y="-130.5" font-family="Helvetica,sans-Serif" font-size="10.00">string</text>
</a>
</g>
</g>
<!-- Node7&#45;&gt;Node10 -->
<g id="edge10" class="edge">
<title>Node7&#45;&gt;Node10</title>
<path fill="none" stroke="midnightblue" d="M230.01,-179.08C228.82,-171.93 227.11,-161.64 225.62,-152.69"/>
<polygon fill="midnightblue" stroke="midnightblue" points="229.05,-152.04 223.96,-142.75 222.15,-153.19 229.05,-152.04"/>
</g>
<!-- Node11 -->
<g id="node11" class="node">
<title>Node11</title>
<g id="a_node11"><a xlink:title=" ">
<polygon fill="white" stroke="#bfbfbf" points="263,-123.5 263,-142.5 336,-142.5 336,-123.5 263,-123.5"/>
<text text-anchor="middle" x="299.5" y="-130.5" font-family="Helvetica,sans-Serif" font-size="10.00">string_view</text>
</a>
</g>
</g>
<!-- Node7&#45;&gt;Node11 -->
<g id="edge11" class="edge">
<title>Node7&#45;&gt;Node11</title>
<path fill="none" stroke="midnightblue" d="M242.43,-179.32C252.67,-171.18 268.22,-158.84 280.5,-149.09"/>
<polygon fill="midnightblue" stroke="midnightblue" points="282.72,-151.79 288.38,-142.83 278.37,-146.31 282.72,-151.79"/>
</g>
<!-- Node12 -->
<g id="node12" class="node">
<title>Node12</title>
<g id="a_node12"><a xlink:href="tchar_8h.html" target="_top" xlink:title=" ">
<polygon fill="white" stroke="black" points="0,-123.5 0,-142.5 99,-142.5 99,-123.5 0,-123.5"/>
<text text-anchor="middle" x="49.5" y="-130.5" font-family="Helvetica,sans-Serif" font-size="10.00">log4cplus/tchar.h</text>
</a>
</g>
</g>
<!-- Node7&#45;&gt;Node12 -->
<g id="edge12" class="edge">
<title>Node7&#45;&gt;Node12</title>
<path fill="none" stroke="midnightblue" d="M202.66,-179.44C171.64,-170.24 122.17,-155.56 87.88,-145.39"/>
<polygon fill="midnightblue" stroke="midnightblue" points="88.79,-142.01 78.2,-142.52 86.79,-148.72 88.79,-142.01"/>
</g>
<!-- Node12&#45;&gt;Node2 -->
<g id="edge13" class="edge">
<title>Node12&#45;&gt;Node2</title>
<path fill="none" stroke="midnightblue" d="M99.16,-124.19C101.98,-123.78 104.78,-123.38 107.5,-123 210.07,-108.69 329.27,-94.35 402.28,-85.83"/>
<polygon fill="midnightblue" stroke="midnightblue" points="402.75,-89.3 412.27,-84.66 401.94,-82.34 402.75,-89.3"/>
</g>
<!-- Node13 -->
<g id="node13" class="node">
<title>Node13</title>
<g id="a_node13"><a xlink:title=" ">
<polygon fill="white" stroke="#bfbfbf" points="23,-67.5 23,-86.5 76,-86.5 76,-67.5 23,-67.5"/>
<text text-anchor="middle" x="49.5" y="-74.5" font-family="Helvetica,sans-Serif" font-size="10.00">cstddef</text>
</a>
</g>
</g>
<!-- Node12&#45;&gt;Node13 -->
<g id="edge14" class="edge">
<title>Node12&#45;&gt;Node13</title>
<path fill="none" stroke="midnightblue" d="M49.5,-123.08C49.5,-116.01 49.5,-105.86 49.5,-96.99"/>
<polygon fill="midnightblue" stroke="midnightblue" points="53,-96.75 49.5,-86.75 46,-96.75 53,-96.75"/>
</g>
<!-- Node14&#45;&gt;Node2 -->
<g id="edge16" class="edge">
<title>Node14&#45;&gt;Node2</title>
<path fill="none" stroke="midnightblue" d="M447.79,-235.08C451.57,-208.95 462.66,-132.21 467.81,-96.58"/>
<polygon fill="midnightblue" stroke="midnightblue" points="471.29,-96.97 469.26,-86.57 464.37,-95.96 471.29,-96.97"/>
</g>
<!-- Node14&#45;&gt;Node7 -->
<g id="edge17" class="edge">
<title>Node14&#45;&gt;Node7</title>
<path fill="none" stroke="midnightblue" d="M412.43,-235.44C375.32,-226.12 315.84,-211.18 275.29,-201"/>
<polygon fill="midnightblue" stroke="midnightblue" points="275.96,-197.56 265.41,-198.52 274.25,-204.35 275.96,-197.56"/>
</g>
</g>
</svg>
