<?xml version="1.0" encoding="UTF-8" standalone="no"?>
<!DOCTYPE svg PUBLIC "-//W3C//DTD SVG 1.1//EN"
 "http://www.w3.org/Graphics/SVG/1.1/DTD/svg11.dtd">
<!-- Generated by graphviz version 2.43.0 (0)
 -->
<!-- Title: socket.h Pages: 1 -->
<svg width="417pt" height="196pt"
 viewBox="0.00 0.00 416.50 196.00" xmlns="http://www.w3.org/2000/svg" xmlns:xlink="http://www.w3.org/1999/xlink">
<g id="graph0" class="graph" transform="scale(1 1) rotate(0) translate(4 192)">
<title>socket.h</title>
<polygon fill="white" stroke="transparent" points="-4,4 -4,-192 412.5,-192 412.5,4 -4,4"/>
<!-- Node1 -->
<g id="node1" class="node">
<title>Node1</title>
<g id="a_node1"><a xlink:title=" ">
<polygon fill="#bfbfbf" stroke="black" points="163.5,-168.5 163.5,-187.5 220.5,-187.5 220.5,-168.5 163.5,-168.5"/>
<text text-anchor="middle" x="192" y="-175.5" font-family="Helvetica,sans-Serif" font-size="10.00">socket.h</text>
</a>
</g>
</g>
<!-- Node2 -->
<g id="node2" class="node">
<title>Node2</title>
<g id="a_node2"><a xlink:href="connectorthread_8h.html" target="_top" xlink:title=" ">
<polygon fill="white" stroke="black" points="58.5,-112.5 58.5,-131.5 163.5,-131.5 163.5,-112.5 58.5,-112.5"/>
<text text-anchor="middle" x="111" y="-119.5" font-family="Helvetica,sans-Serif" font-size="10.00">connectorthread.h</text>
</a>
</g>
</g>
<!-- Node1&#45;&gt;Node2 -->
<g id="edge1" class="edge">
<title>Node1&#45;&gt;Node2</title>
<path fill="none" stroke="midnightblue" d="M170.43,-162.62C155.64,-152.76 136.49,-139.99 123.98,-131.65"/>
<polygon fill="midnightblue" stroke="midnightblue" points="168.72,-165.69 178.99,-168.32 172.61,-159.86 168.72,-165.69"/>
</g>
<!-- Node3 -->
<g id="node3" class="node">
<title>Node3</title>
<g id="a_node3"><a xlink:href="socketappender_8h.html" target="_top" xlink:title=" ">
<polygon fill="white" stroke="black" points="0,-56.5 0,-75.5 102,-75.5 102,-56.5 0,-56.5"/>
<text text-anchor="middle" x="51" y="-63.5" font-family="Helvetica,sans-Serif" font-size="10.00">socketappender.h</text>
</a>
</g>
</g>
<!-- Node1&#45;&gt;Node3 -->
<g id="edge8" class="edge">
<title>Node1&#45;&gt;Node3</title>
<path fill="none" stroke="midnightblue" d="M152.88,-176.62C119.28,-173.96 72.62,-164.19 49,-132 36.71,-115.25 43.12,-89 47.7,-75.56"/>
<polygon fill="midnightblue" stroke="midnightblue" points="153.1,-180.14 163.29,-177.25 153.52,-173.15 153.1,-180.14"/>
</g>
<!-- Node5 -->
<g id="node5" class="node">
<title>Node5</title>
<g id="a_node5"><a xlink:href="syslogappender_8h.html" target="_top" xlink:title=" ">
<polygon fill="white" stroke="black" points="120,-56.5 120,-75.5 222,-75.5 222,-56.5 120,-56.5"/>
<text text-anchor="middle" x="171" y="-63.5" font-family="Helvetica,sans-Serif" font-size="10.00">syslogappender.h</text>
</a>
</g>
</g>
<!-- Node1&#45;&gt;Node5 -->
<g id="edge9" class="edge">
<title>Node1&#45;&gt;Node5</title>
<path fill="none" stroke="midnightblue" d="M188.44,-158.35C183.84,-134.25 176.02,-93.31 172.64,-75.59"/>
<polygon fill="midnightblue" stroke="midnightblue" points="185.04,-159.2 190.35,-168.37 191.91,-157.89 185.04,-159.2"/>
</g>
<!-- Node6 -->
<g id="node6" class="node">
<title>Node6</title>
<g id="a_node6"><a xlink:href="log4judpappender_8h.html" target="_top" xlink:title=" ">
<polygon fill="white" stroke="black" points="220.5,-112.5 220.5,-131.5 333.5,-131.5 333.5,-112.5 220.5,-112.5"/>
<text text-anchor="middle" x="277" y="-119.5" font-family="Helvetica,sans-Serif" font-size="10.00">log4judpappender.h</text>
</a>
</g>
</g>
<!-- Node1&#45;&gt;Node6 -->
<g id="edge6" class="edge">
<title>Node1&#45;&gt;Node6</title>
<path fill="none" stroke="midnightblue" d="M214.19,-162.9C229.78,-153 250.13,-140.07 263.38,-131.65"/>
<polygon fill="midnightblue" stroke="midnightblue" points="212.22,-160.01 205.66,-168.32 215.97,-165.92 212.22,-160.01"/>
</g>
<!-- Node7 -->
<g id="node7" class="node">
<title>Node7</title>
<g id="a_node7"><a xlink:href="internal_2socket_8h.html" target="_top" xlink:title="This header contains declaration internal to log4cplus.">
<polygon fill="white" stroke="black" points="351.5,-112.5 351.5,-131.5 408.5,-131.5 408.5,-112.5 351.5,-112.5"/>
<text text-anchor="middle" x="380" y="-119.5" font-family="Helvetica,sans-Serif" font-size="10.00">socket.h</text>
</a>
</g>
</g>
<!-- Node1&#45;&gt;Node7 -->
<g id="edge7" class="edge">
<title>Node1&#45;&gt;Node7</title>
<path fill="none" stroke="midnightblue" d="M230.2,-166.03C266.13,-155.71 319.11,-140.49 351.49,-131.19"/>
<polygon fill="midnightblue" stroke="midnightblue" points="229.2,-162.67 220.55,-168.8 231.13,-169.4 229.2,-162.67"/>
</g>
<!-- Node2&#45;&gt;Node3 -->
<g id="edge2" class="edge">
<title>Node2&#45;&gt;Node3</title>
<path fill="none" stroke="midnightblue" d="M93.82,-105.54C83.12,-95.91 69.74,-83.87 60.82,-75.83"/>
<polygon fill="midnightblue" stroke="midnightblue" points="91.59,-108.24 101.36,-112.32 96.27,-103.03 91.59,-108.24"/>
</g>
<!-- Node2&#45;&gt;Node5 -->
<g id="edge4" class="edge">
<title>Node2&#45;&gt;Node5</title>
<path fill="none" stroke="midnightblue" d="M128.18,-105.54C138.88,-95.91 152.26,-83.87 161.18,-75.83"/>
<polygon fill="midnightblue" stroke="midnightblue" points="125.73,-103.03 120.64,-112.32 130.41,-108.24 125.73,-103.03"/>
</g>
<!-- Node4 -->
<g id="node4" class="node">
<title>Node4</title>
<g id="a_node4"><a xlink:href="log4cplus_8h.html" target="_top" xlink:title=" ">
<polygon fill="white" stroke="black" points="75,-0.5 75,-19.5 147,-19.5 147,-0.5 75,-0.5"/>
<text text-anchor="middle" x="111" y="-7.5" font-family="Helvetica,sans-Serif" font-size="10.00">log4cplus.h</text>
</a>
</g>
</g>
<!-- Node3&#45;&gt;Node4 -->
<g id="edge3" class="edge">
<title>Node3&#45;&gt;Node4</title>
<path fill="none" stroke="midnightblue" d="M68.18,-49.54C78.88,-39.91 92.26,-27.87 101.18,-19.83"/>
<polygon fill="midnightblue" stroke="midnightblue" points="65.73,-47.03 60.64,-56.32 70.41,-52.24 65.73,-47.03"/>
</g>
<!-- Node5&#45;&gt;Node4 -->
<g id="edge5" class="edge">
<title>Node5&#45;&gt;Node4</title>
<path fill="none" stroke="midnightblue" d="M153.82,-49.54C143.12,-39.91 129.74,-27.87 120.82,-19.83"/>
<polygon fill="midnightblue" stroke="midnightblue" points="151.59,-52.24 161.36,-56.32 156.27,-47.03 151.59,-52.24"/>
</g>
</g>
</svg>
