<?xml version="1.0" encoding="UTF-8" standalone="no"?>
<!DOCTYPE svg PUBLIC "-//W3C//DTD SVG 1.1//EN"
 "http://www.w3.org/Graphics/SVG/1.1/DTD/svg11.dtd">
<!-- Generated by graphviz version 2.43.0 (0)
 -->
<!-- Title: hierarchylocker.h Pages: 1 -->
<svg width="1718pt" height="554pt"
 viewBox="0.00 0.00 1717.91 554.00" xmlns="http://www.w3.org/2000/svg" xmlns:xlink="http://www.w3.org/1999/xlink">
<g id="graph0" class="graph" transform="scale(1 1) rotate(0) translate(4 550)">
<title>hierarchylocker.h</title>
<polygon fill="white" stroke="transparent" points="-4,4 -4,-550 1713.91,-550 1713.91,4 -4,4"/>
<!-- Node1 -->
<g id="node1" class="node">
<title>Node1</title>
<g id="a_node1"><a xlink:title=" ">
<polygon fill="#bfbfbf" stroke="black" points="798.41,-526.5 798.41,-545.5 898.41,-545.5 898.41,-526.5 798.41,-526.5"/>
<text text-anchor="middle" x="848.41" y="-533.5" font-family="Helvetica,sans-Serif" font-size="10.00">hierarchylocker.h</text>
</a>
</g>
</g>
<!-- Node2 -->
<g id="node2" class="node">
<title>Node2</title>
<g id="a_node2"><a xlink:href="config_8hxx.html" target="_top" xlink:title=" ">
<polygon fill="white" stroke="black" points="662.41,-73 662.41,-92 778.41,-92 778.41,-73 662.41,-73"/>
<text text-anchor="middle" x="720.41" y="-80" font-family="Helvetica,sans-Serif" font-size="10.00">log4cplus/config.hxx</text>
</a>
</g>
</g>
<!-- Node1&#45;&gt;Node2 -->
<g id="edge1" class="edge">
<title>Node1&#45;&gt;Node2</title>
<path fill="none" stroke="midnightblue" d="M898.65,-533.48C1075.17,-527.47 1656.41,-501.85 1656.41,-425 1656.41,-425 1656.41,-425 1656.41,-367 1656.41,-198.18 1513.82,-195.02 1356.41,-134 1254.39,-94.46 931.07,-85.87 788.77,-84.01"/>
<polygon fill="midnightblue" stroke="midnightblue" points="788.47,-80.51 778.43,-83.88 788.38,-87.51 788.47,-80.51"/>
</g>
<!-- Node5 -->
<g id="node5" class="node">
<title>Node5</title>
<g id="a_node5"><a xlink:href="tstring_8h.html" target="_top" xlink:title=" ">
<polygon fill="white" stroke="black" points="286.91,-190.5 286.91,-209.5 393.91,-209.5 393.91,-190.5 286.91,-190.5"/>
<text text-anchor="middle" x="340.41" y="-197.5" font-family="Helvetica,sans-Serif" font-size="10.00">log4cplus/tstring.h</text>
</a>
</g>
</g>
<!-- Node1&#45;&gt;Node5 -->
<g id="edge4" class="edge">
<title>Node1&#45;&gt;Node5</title>
<path fill="none" stroke="midnightblue" d="M798.18,-531.85C645.03,-521.58 194.41,-486.17 194.41,-425 194.41,-425 194.41,-425 194.41,-367 194.41,-294.74 273.37,-238.99 315.15,-214.54"/>
<polygon fill="midnightblue" stroke="midnightblue" points="316.98,-217.52 323.94,-209.54 313.52,-211.44 316.98,-217.52"/>
</g>
<!-- Node12 -->
<g id="node12" class="node">
<title>Node12</title>
<g id="a_node12"><a xlink:href="appender_8h.html" target="_top" xlink:title=" ">
<polygon fill="white" stroke="black" points="1078.41,-358.5 1078.41,-377.5 1198.41,-377.5 1198.41,-358.5 1078.41,-358.5"/>
<text text-anchor="middle" x="1138.41" y="-365.5" font-family="Helvetica,sans-Serif" font-size="10.00">log4cplus/appender.h</text>
</a>
</g>
</g>
<!-- Node1&#45;&gt;Node12 -->
<g id="edge13" class="edge">
<title>Node1&#45;&gt;Node12</title>
<path fill="none" stroke="midnightblue" d="M863.59,-526.31C911.06,-499.14 1056.94,-415.64 1114.6,-382.63"/>
<polygon fill="midnightblue" stroke="midnightblue" points="1116.44,-385.61 1123.38,-377.61 1112.96,-379.54 1116.44,-385.61"/>
</g>
<!-- Node33 -->
<g id="node33" class="node">
<title>Node33</title>
<g id="a_node33"><a xlink:href="logger_8h.html" target="_top" xlink:title="This header defines the Logger class and the logging macros.">
<polygon fill="white" stroke="black" points="658.91,-470.5 658.91,-489.5 763.91,-489.5 763.91,-470.5 658.91,-470.5"/>
<text text-anchor="middle" x="711.41" y="-477.5" font-family="Helvetica,sans-Serif" font-size="10.00">log4cplus/logger.h</text>
</a>
</g>
</g>
<!-- Node1&#45;&gt;Node33 -->
<g id="edge61" class="edge">
<title>Node1&#45;&gt;Node33</title>
<path fill="none" stroke="midnightblue" d="M826.7,-526.44C804.05,-517.52 768.34,-503.44 742.66,-493.32"/>
<polygon fill="midnightblue" stroke="midnightblue" points="743.6,-489.93 733.01,-489.52 741.03,-496.44 743.6,-489.93"/>
</g>
<!-- Node3 -->
<g id="node3" class="node">
<title>Node3</title>
<g id="a_node3"><a xlink:href="win32_8h.html" target="_top" xlink:title=" ">
<polygon fill="white" stroke="black" points="574.91,-6 574.91,-25 711.91,-25 711.91,-6 574.91,-6"/>
<text text-anchor="middle" x="643.41" y="-13" font-family="Helvetica,sans-Serif" font-size="10.00">log4cplus/config/win32.h</text>
</a>
</g>
</g>
<!-- Node2&#45;&gt;Node3 -->
<g id="edge2" class="edge">
<title>Node2&#45;&gt;Node3</title>
<path fill="none" stroke="midnightblue" d="M710.02,-72.73C697.55,-62.21 676.43,-44.38 661.32,-31.62"/>
<polygon fill="midnightblue" stroke="midnightblue" points="663.53,-28.9 653.63,-25.13 659.01,-34.25 663.53,-28.9"/>
</g>
<!-- Node4 -->
<g id="node4" class="node">
<title>Node4</title>
<g id="a_node4"><a xlink:href="thread-config_8h.html" target="_top" xlink:title=" ">
<polygon fill="white" stroke="black" points="729.91,-0.5 729.91,-30.5 866.91,-30.5 866.91,-0.5 729.91,-0.5"/>
<text text-anchor="start" x="737.91" y="-18.5" font-family="Helvetica,sans-Serif" font-size="10.00">log4cplus/helpers/thread</text>
<text text-anchor="middle" x="798.41" y="-7.5" font-family="Helvetica,sans-Serif" font-size="10.00">&#45;config.h</text>
</a>
</g>
</g>
<!-- Node2&#45;&gt;Node4 -->
<g id="edge3" class="edge">
<title>Node2&#45;&gt;Node4</title>
<path fill="none" stroke="midnightblue" d="M730.93,-72.73C741.77,-63.7 759.08,-49.27 773.45,-37.3"/>
<polygon fill="midnightblue" stroke="midnightblue" points="776.06,-39.68 781.5,-30.59 771.58,-34.3 776.06,-39.68"/>
</g>
<!-- Node5&#45;&gt;Node2 -->
<g id="edge5" class="edge">
<title>Node5&#45;&gt;Node2</title>
<path fill="none" stroke="midnightblue" d="M350.96,-190.27C368.68,-176.11 406.04,-148.25 442.41,-134 510.91,-107.15 594.58,-94.43 652.12,-88.5"/>
<polygon fill="midnightblue" stroke="midnightblue" points="652.59,-91.97 662.19,-87.5 651.9,-85 652.59,-91.97"/>
</g>
<!-- Node6 -->
<g id="node6" class="node">
<title>Node6</title>
<g id="a_node6"><a xlink:title=" ">
<polygon fill="white" stroke="#bfbfbf" points="49.91,-134.5 49.91,-153.5 118.91,-153.5 118.91,-134.5 49.91,-134.5"/>
<text text-anchor="middle" x="84.41" y="-141.5" font-family="Helvetica,sans-Serif" font-size="10.00">type_traits</text>
</a>
</g>
</g>
<!-- Node5&#45;&gt;Node6 -->
<g id="edge6" class="edge">
<title>Node5&#45;&gt;Node6</title>
<path fill="none" stroke="midnightblue" d="M299.84,-190.44C253.25,-180.61 177.04,-164.54 128.87,-154.38"/>
<polygon fill="midnightblue" stroke="midnightblue" points="129.54,-150.94 119.04,-152.3 128.1,-157.79 129.54,-150.94"/>
</g>
<!-- Node7 -->
<g id="node7" class="node">
<title>Node7</title>
<g id="a_node7"><a xlink:title=" ">
<polygon fill="white" stroke="#bfbfbf" points="588.91,-134.5 588.91,-153.5 653.91,-153.5 653.91,-134.5 588.91,-134.5"/>
<text text-anchor="middle" x="621.41" y="-141.5" font-family="Helvetica,sans-Serif" font-size="10.00">functional</text>
</a>
</g>
</g>
<!-- Node5&#45;&gt;Node7 -->
<g id="edge7" class="edge">
<title>Node5&#45;&gt;Node7</title>
<path fill="none" stroke="midnightblue" d="M384.93,-190.44C438.03,-180.24 526.17,-163.3 578.53,-153.24"/>
<polygon fill="midnightblue" stroke="midnightblue" points="579.35,-156.65 588.51,-151.32 578.02,-149.77 579.35,-156.65"/>
</g>
<!-- Node8 -->
<g id="node8" class="node">
<title>Node8</title>
<g id="a_node8"><a xlink:title=" ">
<polygon fill="white" stroke="#bfbfbf" points="137.41,-134.5 137.41,-153.5 181.41,-153.5 181.41,-134.5 137.41,-134.5"/>
<text text-anchor="middle" x="159.41" y="-141.5" font-family="Helvetica,sans-Serif" font-size="10.00">string</text>
</a>
</g>
</g>
<!-- Node5&#45;&gt;Node8 -->
<g id="edge8" class="edge">
<title>Node5&#45;&gt;Node8</title>
<path fill="none" stroke="midnightblue" d="M311.73,-190.44C279.03,-180.69 225.7,-164.78 191.6,-154.6"/>
<polygon fill="midnightblue" stroke="midnightblue" points="192.26,-151.15 181.68,-151.64 190.26,-157.86 192.26,-151.15"/>
</g>
<!-- Node9 -->
<g id="node9" class="node">
<title>Node9</title>
<g id="a_node9"><a xlink:title=" ">
<polygon fill="white" stroke="#bfbfbf" points="199.91,-134.5 199.91,-153.5 272.91,-153.5 272.91,-134.5 199.91,-134.5"/>
<text text-anchor="middle" x="236.41" y="-141.5" font-family="Helvetica,sans-Serif" font-size="10.00">string_view</text>
</a>
</g>
</g>
<!-- Node5&#45;&gt;Node9 -->
<g id="edge9" class="edge">
<title>Node5&#45;&gt;Node9</title>
<path fill="none" stroke="midnightblue" d="M323.7,-190.32C307.1,-181.7 281.41,-168.36 262.19,-158.39"/>
<polygon fill="midnightblue" stroke="midnightblue" points="263.56,-155.16 253.08,-153.65 260.34,-161.37 263.56,-155.16"/>
</g>
<!-- Node10 -->
<g id="node10" class="node">
<title>Node10</title>
<g id="a_node10"><a xlink:href="tchar_8h.html" target="_top" xlink:title=" ">
<polygon fill="white" stroke="black" points="290.91,-134.5 290.91,-153.5 389.91,-153.5 389.91,-134.5 290.91,-134.5"/>
<text text-anchor="middle" x="340.41" y="-141.5" font-family="Helvetica,sans-Serif" font-size="10.00">log4cplus/tchar.h</text>
</a>
</g>
</g>
<!-- Node5&#45;&gt;Node10 -->
<g id="edge10" class="edge">
<title>Node5&#45;&gt;Node10</title>
<path fill="none" stroke="midnightblue" d="M340.41,-190.08C340.41,-183.01 340.41,-172.86 340.41,-163.99"/>
<polygon fill="midnightblue" stroke="midnightblue" points="343.91,-163.75 340.41,-153.75 336.91,-163.75 343.91,-163.75"/>
</g>
<!-- Node10&#45;&gt;Node2 -->
<g id="edge11" class="edge">
<title>Node10&#45;&gt;Node2</title>
<path fill="none" stroke="midnightblue" d="M390.09,-135.22C458.2,-124.56 580.68,-105.38 655.83,-93.61"/>
<polygon fill="midnightblue" stroke="midnightblue" points="656.77,-97.01 666.11,-92 655.69,-90.09 656.77,-97.01"/>
</g>
<!-- Node11 -->
<g id="node11" class="node">
<title>Node11</title>
<g id="a_node11"><a xlink:title=" ">
<polygon fill="white" stroke="#bfbfbf" points="313.91,-73 313.91,-92 366.91,-92 366.91,-73 313.91,-73"/>
<text text-anchor="middle" x="340.41" y="-80" font-family="Helvetica,sans-Serif" font-size="10.00">cstddef</text>
</a>
</g>
</g>
<!-- Node10&#45;&gt;Node11 -->
<g id="edge12" class="edge">
<title>Node10&#45;&gt;Node11</title>
<path fill="none" stroke="midnightblue" d="M340.41,-134.48C340.41,-126.08 340.41,-112.98 340.41,-102.16"/>
<polygon fill="midnightblue" stroke="midnightblue" points="343.91,-102.01 340.41,-92.01 336.91,-102.01 343.91,-102.01"/>
</g>
<!-- Node12&#45;&gt;Node2 -->
<g id="edge14" class="edge">
<title>Node12&#45;&gt;Node2</title>
<path fill="none" stroke="midnightblue" d="M1198.52,-366.3C1295.71,-362.38 1472.75,-342.2 1433.41,-246 1407,-181.42 1386.56,-163.65 1323.41,-134 1230.27,-90.27 926.58,-83.89 789.11,-83.31"/>
<polygon fill="midnightblue" stroke="midnightblue" points="788.73,-79.81 778.71,-83.28 788.7,-86.81 788.73,-79.81"/>
</g>
<!-- Node12&#45;&gt;Node5 -->
<g id="edge46" class="edge">
<title>Node12&#45;&gt;Node5</title>
<path fill="none" stroke="midnightblue" d="M1078.23,-366.22C980.86,-363.97 783.15,-355.3 619.41,-322 540.63,-305.98 520.47,-299.54 447.41,-266 415.75,-251.47 381.79,-229.65 360.82,-215.37"/>
<polygon fill="midnightblue" stroke="midnightblue" points="362.63,-212.37 352.41,-209.57 358.66,-218.13 362.63,-212.37"/>
</g>
<!-- Node13 -->
<g id="node13" class="node">
<title>Node13</title>
<g id="a_node13"><a xlink:href="layout_8h.html" target="_top" xlink:title=" ">
<polygon fill="white" stroke="black" points="628.41,-302.5 628.41,-321.5 734.41,-321.5 734.41,-302.5 628.41,-302.5"/>
<text text-anchor="middle" x="681.41" y="-309.5" font-family="Helvetica,sans-Serif" font-size="10.00">log4cplus/layout.h</text>
</a>
</g>
</g>
<!-- Node12&#45;&gt;Node13 -->
<g id="edge15" class="edge">
<title>Node12&#45;&gt;Node13</title>
<path fill="none" stroke="midnightblue" d="M1078.19,-359.88C991.7,-349.66 833.01,-330.91 744.79,-320.49"/>
<polygon fill="midnightblue" stroke="midnightblue" points="744.99,-316.99 734.65,-319.29 744.17,-323.94 744.99,-316.99"/>
</g>
<!-- Node14 -->
<g id="node14" class="node">
<title>Node14</title>
<g id="a_node14"><a xlink:href="loglevel_8h.html" target="_top" xlink:title="This header defines the LogLevel type.">
<polygon fill="white" stroke="black" points="938.41,-246.5 938.41,-265.5 1052.41,-265.5 1052.41,-246.5 938.41,-246.5"/>
<text text-anchor="middle" x="995.41" y="-253.5" font-family="Helvetica,sans-Serif" font-size="10.00">log4cplus/loglevel.h</text>
</a>
</g>
</g>
<!-- Node12&#45;&gt;Node14 -->
<g id="edge45" class="edge">
<title>Node12&#45;&gt;Node14</title>
<path fill="none" stroke="midnightblue" d="M1124.98,-358.43C1111.44,-349.65 1090.08,-335.42 1072.41,-322 1051.25,-305.93 1028.1,-286.05 1012.76,-272.53"/>
<polygon fill="midnightblue" stroke="midnightblue" points="1014.91,-269.76 1005.11,-265.75 1010.27,-275 1014.91,-269.76"/>
</g>
<!-- Node16 -->
<g id="node16" class="node">
<title>Node16</title>
<g id="a_node16"><a xlink:title=" ">
<polygon fill="white" stroke="#bfbfbf" points="856.41,-190.5 856.41,-209.5 914.41,-209.5 914.41,-190.5 856.41,-190.5"/>
<text text-anchor="middle" x="885.41" y="-197.5" font-family="Helvetica,sans-Serif" font-size="10.00">memory</text>
</a>
</g>
</g>
<!-- Node12&#45;&gt;Node16 -->
<g id="edge57" class="edge">
<title>Node12&#45;&gt;Node16</title>
<path fill="none" stroke="midnightblue" d="M1109.65,-358.49C1066.63,-344.66 984.67,-313.92 929.41,-266 914.17,-252.78 901.84,-233.11 894.15,-218.87"/>
<polygon fill="midnightblue" stroke="midnightblue" points="897.08,-216.93 889.4,-209.63 890.86,-220.13 897.08,-216.93"/>
</g>
<!-- Node18 -->
<g id="node18" class="node">
<title>Node18</title>
<g id="a_node18"><a xlink:href="pointer_8h.html" target="_top" xlink:title=" ">
<polygon fill="white" stroke="black" points="1112.41,-190.5 1112.41,-209.5 1260.41,-209.5 1260.41,-190.5 1112.41,-190.5"/>
<text text-anchor="middle" x="1186.41" y="-197.5" font-family="Helvetica,sans-Serif" font-size="10.00">log4cplus/helpers/pointer.h</text>
</a>
</g>
</g>
<!-- Node12&#45;&gt;Node18 -->
<g id="edge47" class="edge">
<title>Node12&#45;&gt;Node18</title>
<path fill="none" stroke="midnightblue" d="M1160.87,-358.38C1176.18,-351.18 1195.27,-339.29 1204.41,-322 1222.04,-288.65 1206.54,-243.33 1195.39,-218.7"/>
<polygon fill="midnightblue" stroke="midnightblue" points="1198.47,-217.02 1190.99,-209.51 1192.15,-220.04 1198.47,-217.02"/>
</g>
<!-- Node20 -->
<g id="node20" class="node">
<title>Node20</title>
<g id="a_node20"><a xlink:title=" ">
<polygon fill="white" stroke="#bfbfbf" points="1536.41,-73 1536.41,-92 1584.41,-92 1584.41,-73 1536.41,-73"/>
<text text-anchor="middle" x="1560.41" y="-80" font-family="Helvetica,sans-Serif" font-size="10.00">mutex</text>
</a>
</g>
</g>
<!-- Node12&#45;&gt;Node20 -->
<g id="edge58" class="edge">
<title>Node12&#45;&gt;Node20</title>
<path fill="none" stroke="midnightblue" d="M1198.53,-362.26C1272.32,-355.67 1392.59,-342.23 1432.41,-322 1526.27,-274.31 1559.26,-251.33 1599.41,-154 1607.51,-134.36 1592.27,-113.21 1578.54,-99.26"/>
<polygon fill="midnightblue" stroke="midnightblue" points="1580.88,-96.65 1571.22,-92.3 1576.05,-101.72 1580.88,-96.65"/>
</g>
<!-- Node21 -->
<g id="node21" class="node">
<title>Node21</title>
<g id="a_node21"><a xlink:title=" ">
<polygon fill="white" stroke="#bfbfbf" points="1602.91,-73 1602.91,-92 1709.91,-92 1709.91,-73 1602.91,-73"/>
<text text-anchor="middle" x="1656.41" y="-80" font-family="Helvetica,sans-Serif" font-size="10.00">condition_variable</text>
</a>
</g>
</g>
<!-- Node12&#45;&gt;Node21 -->
<g id="edge60" class="edge">
<title>Node12&#45;&gt;Node21</title>
<path fill="none" stroke="midnightblue" d="M1198.65,-366.59C1265.59,-364.35 1375.91,-355.3 1464.41,-322 1534.85,-295.5 1551.49,-273.8 1591.41,-210 1614.67,-172.82 1636.94,-126.33 1648.4,-101.36"/>
<polygon fill="midnightblue" stroke="midnightblue" points="1651.68,-102.61 1652.62,-92.06 1645.3,-99.72 1651.68,-102.61"/>
</g>
<!-- Node25 -->
<g id="node25" class="node">
<title>Node25</title>
<g id="a_node25"><a xlink:title=" ">
<polygon fill="white" stroke="#bfbfbf" points="1210.41,-134.5 1210.41,-153.5 1260.41,-153.5 1260.41,-134.5 1210.41,-134.5"/>
<text text-anchor="middle" x="1235.41" y="-141.5" font-family="Helvetica,sans-Serif" font-size="10.00">atomic</text>
</a>
</g>
</g>
<!-- Node12&#45;&gt;Node25 -->
<g id="edge59" class="edge">
<title>Node12&#45;&gt;Node25</title>
<path fill="none" stroke="midnightblue" d="M1198.47,-364.74C1265.12,-358.61 1369.69,-337.39 1418.41,-266 1423.42,-258.66 1422.93,-253.65 1418.41,-246 1386.47,-191.9 1314.04,-164.78 1270.49,-152.89"/>
<polygon fill="midnightblue" stroke="midnightblue" points="1271.17,-149.45 1260.61,-150.32 1269.4,-156.23 1271.17,-149.45"/>
</g>
<!-- Node31 -->
<g id="node31" class="node">
<title>Node31</title>
<g id="a_node31"><a xlink:href="filter_8h.html" target="_top" xlink:title="This header defines Filter and all of it&#39;s subclasses.">
<polygon fill="white" stroke="black" points="1081.41,-302.5 1081.41,-321.5 1195.41,-321.5 1195.41,-302.5 1081.41,-302.5"/>
<text text-anchor="middle" x="1138.41" y="-309.5" font-family="Helvetica,sans-Serif" font-size="10.00">log4cplus/spi/filter.h</text>
</a>
</g>
</g>
<!-- Node12&#45;&gt;Node31 -->
<g id="edge48" class="edge">
<title>Node12&#45;&gt;Node31</title>
<path fill="none" stroke="midnightblue" d="M1138.41,-358.08C1138.41,-351.01 1138.41,-340.86 1138.41,-331.99"/>
<polygon fill="midnightblue" stroke="midnightblue" points="1141.91,-331.75 1138.41,-321.75 1134.91,-331.75 1141.91,-331.75"/>
</g>
<!-- Node32 -->
<g id="node32" class="node">
<title>Node32</title>
<g id="a_node32"><a xlink:href="lockfile_8h.html" target="_top" xlink:title=" ">
<polygon fill="white" stroke="black" points="1259.91,-246.5 1259.91,-265.5 1408.91,-265.5 1408.91,-246.5 1259.91,-246.5"/>
<text text-anchor="middle" x="1334.41" y="-253.5" font-family="Helvetica,sans-Serif" font-size="10.00">log4cplus/helpers/lockfile.h</text>
</a>
</g>
</g>
<!-- Node12&#45;&gt;Node32 -->
<g id="edge53" class="edge">
<title>Node12&#45;&gt;Node32</title>
<path fill="none" stroke="midnightblue" d="M1163.66,-358.45C1186.07,-350.4 1219.37,-337.32 1246.41,-322 1272.16,-307.41 1299.17,-286.5 1316.36,-272.36"/>
<polygon fill="midnightblue" stroke="midnightblue" points="1318.96,-274.75 1324.4,-265.66 1314.48,-269.38 1318.96,-274.75"/>
</g>
<!-- Node13&#45;&gt;Node2 -->
<g id="edge16" class="edge">
<title>Node13&#45;&gt;Node2</title>
<path fill="none" stroke="midnightblue" d="M628.15,-304.35C587.08,-296.51 539.72,-279.97 555.41,-246 581.84,-188.75 619.4,-199.15 663.41,-154 680.15,-136.83 697.15,-115.12 708.18,-100.36"/>
<polygon fill="midnightblue" stroke="midnightblue" points="711.1,-102.3 714.22,-92.17 705.46,-98.14 711.1,-102.3"/>
</g>
<!-- Node13&#45;&gt;Node5 -->
<g id="edge37" class="edge">
<title>Node13&#45;&gt;Node5</title>
<path fill="none" stroke="midnightblue" d="M643.02,-302.45C607.51,-294.22 553.43,-280.85 507.41,-266 458.3,-250.16 402.74,-227.56 369.69,-213.61"/>
<polygon fill="midnightblue" stroke="midnightblue" points="370.76,-210.26 360.18,-209.58 368.02,-216.71 370.76,-210.26"/>
</g>
<!-- Node13&#45;&gt;Node14 -->
<g id="edge17" class="edge">
<title>Node13&#45;&gt;Node14</title>
<path fill="none" stroke="midnightblue" d="M731.16,-302.44C786.74,-292.89 876.67,-277.42 935.92,-267.23"/>
<polygon fill="midnightblue" stroke="midnightblue" points="936.62,-270.66 945.89,-265.52 935.44,-263.76 936.62,-270.66"/>
</g>
<!-- Node15 -->
<g id="node15" class="node">
<title>Node15</title>
<g id="a_node15"><a xlink:title=" ">
<polygon fill="white" stroke="#bfbfbf" points="790.91,-190.5 790.91,-209.5 837.91,-209.5 837.91,-190.5 790.91,-190.5"/>
<text text-anchor="middle" x="814.41" y="-197.5" font-family="Helvetica,sans-Serif" font-size="10.00">vector</text>
</a>
</g>
</g>
<!-- Node13&#45;&gt;Node15 -->
<g id="edge43" class="edge">
<title>Node13&#45;&gt;Node15</title>
<path fill="none" stroke="midnightblue" d="M693.35,-302.27C705.4,-293.37 724.46,-279.06 740.41,-266 760.31,-249.7 782.39,-230.1 797.2,-216.72"/>
<polygon fill="midnightblue" stroke="midnightblue" points="799.96,-218.94 805.01,-209.63 795.25,-213.76 799.96,-218.94"/>
</g>
<!-- Node13&#45;&gt;Node16 -->
<g id="edge44" class="edge">
<title>Node13&#45;&gt;Node16</title>
<path fill="none" stroke="midnightblue" d="M697.52,-302.4C714.44,-293.35 741.81,-278.71 765.41,-266 798.37,-248.24 836.36,-227.64 860.62,-214.47"/>
<polygon fill="midnightblue" stroke="midnightblue" points="862.39,-217.49 869.5,-209.65 859.05,-211.34 862.39,-217.49"/>
</g>
<!-- Node26 -->
<g id="node26" class="node">
<title>Node26</title>
<g id="a_node26"><a xlink:href="streams_8h.html" target="_top" xlink:title=" ">
<polygon fill="white" stroke="black" points="450.91,-190.5 450.91,-209.5 565.91,-209.5 565.91,-190.5 450.91,-190.5"/>
<text text-anchor="middle" x="508.41" y="-197.5" font-family="Helvetica,sans-Serif" font-size="10.00">log4cplus/streams.h</text>
</a>
</g>
</g>
<!-- Node13&#45;&gt;Node26 -->
<g id="edge33" class="edge">
<title>Node13&#45;&gt;Node26</title>
<path fill="none" stroke="midnightblue" d="M628.09,-309.49C593.27,-305.61 549.4,-294.77 522.41,-266 510.94,-253.78 507.98,-234.51 507.56,-220.12"/>
<polygon fill="midnightblue" stroke="midnightblue" points="511.06,-219.89 507.66,-209.86 504.06,-219.82 511.06,-219.89"/>
</g>
<!-- Node28 -->
<g id="node28" class="node">
<title>Node28</title>
<g id="a_node28"><a xlink:href="timehelper_8h.html" target="_top" xlink:title=" ">
<polygon fill="white" stroke="black" points="563.91,-246.5 563.91,-265.5 730.91,-265.5 730.91,-246.5 563.91,-246.5"/>
<text text-anchor="middle" x="647.41" y="-253.5" font-family="Helvetica,sans-Serif" font-size="10.00">log4cplus/helpers/timehelper.h</text>
</a>
</g>
</g>
<!-- Node13&#45;&gt;Node28 -->
<g id="edge38" class="edge">
<title>Node13&#45;&gt;Node28</title>
<path fill="none" stroke="midnightblue" d="M675.79,-302.08C671.04,-294.53 664.09,-283.49 658.26,-274.23"/>
<polygon fill="midnightblue" stroke="midnightblue" points="661.21,-272.35 652.92,-265.75 655.28,-276.08 661.21,-272.35"/>
</g>
<!-- Node14&#45;&gt;Node2 -->
<g id="edge18" class="edge">
<title>Node14&#45;&gt;Node2</title>
<path fill="none" stroke="midnightblue" d="M987.14,-246.24C974.34,-232.99 948.55,-207.53 923.41,-190 865.65,-149.74 790.77,-114.26 750.02,-96.18"/>
<polygon fill="midnightblue" stroke="midnightblue" points="751.23,-92.89 740.67,-92.08 748.42,-99.3 751.23,-92.89"/>
</g>
<!-- Node14&#45;&gt;Node5 -->
<g id="edge22" class="edge">
<title>Node14&#45;&gt;Node5</title>
<path fill="none" stroke="midnightblue" d="M938.08,-250.46C837.64,-242.49 623.33,-225.34 442.41,-210 430.04,-208.95 416.83,-207.8 404.15,-206.69"/>
<polygon fill="midnightblue" stroke="midnightblue" points="404.4,-203.2 394.13,-205.81 403.79,-210.17 404.4,-203.2"/>
</g>
<!-- Node14&#45;&gt;Node15 -->
<g id="edge19" class="edge">
<title>Node14&#45;&gt;Node15</title>
<path fill="none" stroke="midnightblue" d="M966.73,-246.44C934.48,-236.82 882.17,-221.21 848.02,-211.03"/>
<polygon fill="midnightblue" stroke="midnightblue" points="848.63,-207.56 838.05,-208.05 846.63,-214.27 848.63,-207.56"/>
</g>
<!-- Node14&#45;&gt;Node16 -->
<g id="edge20" class="edge">
<title>Node14&#45;&gt;Node16</title>
<path fill="none" stroke="midnightblue" d="M977.73,-246.32C960.01,-237.62 932.51,-224.12 912.12,-214.11"/>
<polygon fill="midnightblue" stroke="midnightblue" points="913.56,-210.92 903.04,-209.65 910.47,-217.2 913.56,-210.92"/>
</g>
<!-- Node17 -->
<g id="node17" class="node">
<title>Node17</title>
<g id="a_node17"><a xlink:title=" ">
<polygon fill="white" stroke="#bfbfbf" points="970.41,-190.5 970.41,-209.5 1056.41,-209.5 1056.41,-190.5 970.41,-190.5"/>
<text text-anchor="middle" x="1013.41" y="-197.5" font-family="Helvetica,sans-Serif" font-size="10.00">shared_mutex</text>
</a>
</g>
</g>
<!-- Node14&#45;&gt;Node17 -->
<g id="edge21" class="edge">
<title>Node14&#45;&gt;Node17</title>
<path fill="none" stroke="midnightblue" d="M998.38,-246.08C1000.79,-238.85 1004.27,-228.41 1007.28,-219.4"/>
<polygon fill="midnightblue" stroke="midnightblue" points="1010.65,-220.34 1010.49,-209.75 1004.01,-218.13 1010.65,-220.34"/>
</g>
<!-- Node14&#45;&gt;Node18 -->
<g id="edge23" class="edge">
<title>Node14&#45;&gt;Node18</title>
<path fill="none" stroke="midnightblue" d="M1025.67,-246.44C1058.36,-237.2 1110.59,-222.44 1146.59,-212.26"/>
<polygon fill="midnightblue" stroke="midnightblue" points="1147.61,-215.61 1156.29,-209.52 1145.71,-208.87 1147.61,-215.61"/>
</g>
<!-- Node18&#45;&gt;Node2 -->
<g id="edge24" class="edge">
<title>Node18&#45;&gt;Node2</title>
<path fill="none" stroke="midnightblue" d="M1158.24,-190.4C1115.03,-177.36 1029.71,-152.18 956.41,-134 894.33,-118.6 822.38,-103.61 774.4,-94.02"/>
<polygon fill="midnightblue" stroke="midnightblue" points="775.03,-90.58 764.53,-92.06 773.66,-97.44 775.03,-90.58"/>
</g>
<!-- Node19 -->
<g id="node19" class="node">
<title>Node19</title>
<g id="a_node19"><a xlink:href="syncprims_8h.html" target="_top" xlink:title=" ">
<polygon fill="white" stroke="black" points="1430.41,-134.5 1430.41,-153.5 1590.41,-153.5 1590.41,-134.5 1430.41,-134.5"/>
<text text-anchor="middle" x="1510.41" y="-141.5" font-family="Helvetica,sans-Serif" font-size="10.00">log4cplus/thread/syncprims.h</text>
</a>
</g>
</g>
<!-- Node18&#45;&gt;Node19 -->
<g id="edge25" class="edge">
<title>Node18&#45;&gt;Node19</title>
<path fill="none" stroke="midnightblue" d="M1237.75,-190.44C1295.22,-180.87 1388.27,-165.36 1449.41,-155.17"/>
<polygon fill="midnightblue" stroke="midnightblue" points="1450.02,-158.61 1459.31,-153.52 1448.87,-151.71 1450.02,-158.61"/>
</g>
<!-- Node23 -->
<g id="node23" class="node">
<title>Node23</title>
<g id="a_node23"><a xlink:title=" ">
<polygon fill="white" stroke="#bfbfbf" points="1058.41,-134.5 1058.41,-153.5 1122.41,-153.5 1122.41,-134.5 1058.41,-134.5"/>
<text text-anchor="middle" x="1090.41" y="-141.5" font-family="Helvetica,sans-Serif" font-size="10.00">algorithm</text>
</a>
</g>
</g>
<!-- Node18&#45;&gt;Node23 -->
<g id="edge30" class="edge">
<title>Node18&#45;&gt;Node23</title>
<path fill="none" stroke="midnightblue" d="M1170.98,-190.32C1155.87,-181.82 1132.59,-168.73 1114.94,-158.8"/>
<polygon fill="midnightblue" stroke="midnightblue" points="1116.23,-155.51 1105.79,-153.65 1112.79,-161.61 1116.23,-155.51"/>
</g>
<!-- Node24 -->
<g id="node24" class="node">
<title>Node24</title>
<g id="a_node24"><a xlink:title=" ">
<polygon fill="white" stroke="#bfbfbf" points="1140.41,-134.5 1140.41,-153.5 1192.41,-153.5 1192.41,-134.5 1140.41,-134.5"/>
<text text-anchor="middle" x="1166.41" y="-141.5" font-family="Helvetica,sans-Serif" font-size="10.00">cassert</text>
</a>
</g>
</g>
<!-- Node18&#45;&gt;Node24 -->
<g id="edge31" class="edge">
<title>Node18&#45;&gt;Node24</title>
<path fill="none" stroke="midnightblue" d="M1183.11,-190.08C1180.43,-182.85 1176.56,-172.41 1173.22,-163.4"/>
<polygon fill="midnightblue" stroke="midnightblue" points="1176.4,-161.91 1169.65,-153.75 1169.84,-164.34 1176.4,-161.91"/>
</g>
<!-- Node18&#45;&gt;Node25 -->
<g id="edge32" class="edge">
<title>Node18&#45;&gt;Node25</title>
<path fill="none" stroke="midnightblue" d="M1194.5,-190.08C1201.56,-182.3 1212,-170.8 1220.56,-161.37"/>
<polygon fill="midnightblue" stroke="midnightblue" points="1223.34,-163.51 1227.47,-153.75 1218.16,-158.8 1223.34,-163.51"/>
</g>
<!-- Node19&#45;&gt;Node2 -->
<g id="edge26" class="edge">
<title>Node19&#45;&gt;Node2</title>
<path fill="none" stroke="midnightblue" d="M1430.17,-135.19C1425.51,-134.78 1420.9,-134.38 1416.41,-134 1186.55,-114.66 913.61,-96.15 788.82,-87.94"/>
<polygon fill="midnightblue" stroke="midnightblue" points="788.86,-84.43 778.65,-87.27 788.4,-91.42 788.86,-84.43"/>
</g>
<!-- Node19&#45;&gt;Node20 -->
<g id="edge27" class="edge">
<title>Node19&#45;&gt;Node20</title>
<path fill="none" stroke="midnightblue" d="M1517.57,-134.48C1525.15,-125.46 1537.28,-111.02 1546.7,-99.81"/>
<polygon fill="midnightblue" stroke="midnightblue" points="1549.5,-101.92 1553.26,-92.01 1544.14,-97.41 1549.5,-101.92"/>
</g>
<!-- Node19&#45;&gt;Node21 -->
<g id="edge28" class="edge">
<title>Node19&#45;&gt;Node21</title>
<path fill="none" stroke="midnightblue" d="M1531.33,-134.48C1556.15,-124.36 1597.75,-107.4 1626.1,-95.85"/>
<polygon fill="midnightblue" stroke="midnightblue" points="1627.59,-99.02 1635.53,-92.01 1624.95,-92.54 1627.59,-99.02"/>
</g>
<!-- Node22 -->
<g id="node22" class="node">
<title>Node22</title>
<g id="a_node22"><a xlink:href="threadsafetyanalysis_8h.html" target="_top" xlink:title=" ">
<polygon fill="white" stroke="black" points="1386.91,-67.5 1386.91,-97.5 1517.91,-97.5 1517.91,-67.5 1386.91,-67.5"/>
<text text-anchor="start" x="1394.91" y="-85.5" font-family="Helvetica,sans-Serif" font-size="10.00">log4cplus/internal</text>
<text text-anchor="middle" x="1452.41" y="-74.5" font-family="Helvetica,sans-Serif" font-size="10.00">/threadsafetyanalysis.h</text>
</a>
</g>
</g>
<!-- Node19&#45;&gt;Node22 -->
<g id="edge29" class="edge">
<title>Node19&#45;&gt;Node22</title>
<path fill="none" stroke="midnightblue" d="M1502.1,-134.48C1494.61,-126.79 1483.28,-115.17 1473.33,-104.96"/>
<polygon fill="midnightblue" stroke="midnightblue" points="1475.56,-102.24 1466.08,-97.52 1470.55,-107.13 1475.56,-102.24"/>
</g>
<!-- Node26&#45;&gt;Node2 -->
<g id="edge34" class="edge">
<title>Node26&#45;&gt;Node2</title>
<path fill="none" stroke="midnightblue" d="M515.98,-190.25C528.27,-176.54 553.84,-149.94 580.41,-134 610.14,-116.17 647.17,-103.15 675.67,-94.81"/>
<polygon fill="midnightblue" stroke="midnightblue" points="676.71,-98.15 685.37,-92.05 674.8,-91.42 676.71,-98.15"/>
</g>
<!-- Node26&#45;&gt;Node10 -->
<g id="edge35" class="edge">
<title>Node26&#45;&gt;Node10</title>
<path fill="none" stroke="midnightblue" d="M481.79,-190.44C453.4,-181.32 408.27,-166.81 376.66,-156.65"/>
<polygon fill="midnightblue" stroke="midnightblue" points="377.5,-153.24 366.9,-153.52 375.35,-159.91 377.5,-153.24"/>
</g>
<!-- Node27 -->
<g id="node27" class="node">
<title>Node27</title>
<g id="a_node27"><a xlink:title=" ">
<polygon fill="white" stroke="#bfbfbf" points="484.41,-134.5 484.41,-153.5 532.41,-153.5 532.41,-134.5 484.41,-134.5"/>
<text text-anchor="middle" x="508.41" y="-141.5" font-family="Helvetica,sans-Serif" font-size="10.00">iosfwd</text>
</a>
</g>
</g>
<!-- Node26&#45;&gt;Node27 -->
<g id="edge36" class="edge">
<title>Node26&#45;&gt;Node27</title>
<path fill="none" stroke="midnightblue" d="M508.41,-190.08C508.41,-183.01 508.41,-172.86 508.41,-163.99"/>
<polygon fill="midnightblue" stroke="midnightblue" points="511.91,-163.75 508.41,-153.75 504.91,-163.75 511.91,-163.75"/>
</g>
<!-- Node28&#45;&gt;Node2 -->
<g id="edge39" class="edge">
<title>Node28&#45;&gt;Node2</title>
<path fill="none" stroke="midnightblue" d="M645.84,-246.42C643.91,-233.41 641.93,-208.26 651.41,-190 663.21,-167.27 681.69,-174.96 696.41,-154 707.42,-138.32 713.73,-117.16 717.08,-102.13"/>
<polygon fill="midnightblue" stroke="midnightblue" points="720.58,-102.51 719.11,-92.02 713.71,-101.14 720.58,-102.51"/>
</g>
<!-- Node28&#45;&gt;Node5 -->
<g id="edge40" class="edge">
<title>Node28&#45;&gt;Node5</title>
<path fill="none" stroke="midnightblue" d="M598.76,-246.44C544.53,-236.9 456.86,-221.48 398.93,-211.29"/>
<polygon fill="midnightblue" stroke="midnightblue" points="399.28,-207.8 388.83,-209.52 398.07,-214.7 399.28,-207.8"/>
</g>
<!-- Node29 -->
<g id="node29" class="node">
<title>Node29</title>
<g id="a_node29"><a xlink:title=" ">
<polygon fill="white" stroke="#bfbfbf" points="660.41,-190.5 660.41,-209.5 704.41,-209.5 704.41,-190.5 660.41,-190.5"/>
<text text-anchor="middle" x="682.41" y="-197.5" font-family="Helvetica,sans-Serif" font-size="10.00">ctime</text>
</a>
</g>
</g>
<!-- Node28&#45;&gt;Node29 -->
<g id="edge41" class="edge">
<title>Node28&#45;&gt;Node29</title>
<path fill="none" stroke="midnightblue" d="M653.19,-246.08C658.08,-238.53 665.24,-227.49 671.24,-218.23"/>
<polygon fill="midnightblue" stroke="midnightblue" points="674.23,-220.05 676.74,-209.75 668.36,-216.24 674.23,-220.05"/>
</g>
<!-- Node30 -->
<g id="node30" class="node">
<title>Node30</title>
<g id="a_node30"><a xlink:title=" ">
<polygon fill="white" stroke="#bfbfbf" points="722.41,-190.5 722.41,-209.5 772.41,-209.5 772.41,-190.5 722.41,-190.5"/>
<text text-anchor="middle" x="747.41" y="-197.5" font-family="Helvetica,sans-Serif" font-size="10.00">chrono</text>
</a>
</g>
</g>
<!-- Node28&#45;&gt;Node30 -->
<g id="edge42" class="edge">
<title>Node28&#45;&gt;Node30</title>
<path fill="none" stroke="midnightblue" d="M663.48,-246.32C679.37,-237.74 703.92,-224.49 722.37,-214.52"/>
<polygon fill="midnightblue" stroke="midnightblue" points="724.25,-217.49 731.38,-209.65 720.92,-211.33 724.25,-217.49"/>
</g>
<!-- Node31&#45;&gt;Node2 -->
<g id="edge49" class="edge">
<title>Node31&#45;&gt;Node2</title>
<path fill="none" stroke="midnightblue" d="M1158.88,-302.43C1189.55,-288.34 1246.28,-257.03 1269.41,-210 1284.31,-179.69 1292.17,-158.95 1269.41,-134 1237.59,-99.12 928.68,-88.01 788.72,-84.75"/>
<polygon fill="midnightblue" stroke="midnightblue" points="788.61,-81.24 778.54,-84.52 788.46,-88.24 788.61,-81.24"/>
</g>
<!-- Node31&#45;&gt;Node7 -->
<g id="edge50" class="edge">
<title>Node31&#45;&gt;Node7</title>
<path fill="none" stroke="midnightblue" d="M1136.12,-302.38C1129.56,-279.51 1108.32,-217.17 1065.41,-190 999.49,-148.26 762.46,-144.34 664.37,-144.57"/>
<polygon fill="midnightblue" stroke="midnightblue" points="664.2,-141.07 654.22,-144.61 664.23,-148.07 664.2,-141.07"/>
</g>
<!-- Node31&#45;&gt;Node14 -->
<g id="edge52" class="edge">
<title>Node31&#45;&gt;Node14</title>
<path fill="none" stroke="midnightblue" d="M1115.75,-302.44C1092.01,-293.48 1054.5,-279.31 1027.67,-269.18"/>
<polygon fill="midnightblue" stroke="midnightblue" points="1028.55,-265.77 1017.96,-265.52 1026.08,-272.32 1028.55,-265.77"/>
</g>
<!-- Node31&#45;&gt;Node18 -->
<g id="edge51" class="edge">
<title>Node31&#45;&gt;Node18</title>
<path fill="none" stroke="midnightblue" d="M1142.17,-302.37C1149.99,-284.46 1168.11,-242.92 1178.58,-218.95"/>
<polygon fill="midnightblue" stroke="midnightblue" points="1181.87,-220.16 1182.66,-209.59 1175.45,-217.36 1181.87,-220.16"/>
</g>
<!-- Node32&#45;&gt;Node2 -->
<g id="edge54" class="edge">
<title>Node32&#45;&gt;Node2</title>
<path fill="none" stroke="midnightblue" d="M1335.14,-246.25C1336.51,-223.61 1336.66,-162.82 1302.41,-134 1263.83,-101.54 934.02,-89.04 788.7,-85.07"/>
<polygon fill="midnightblue" stroke="midnightblue" points="788.65,-81.57 778.56,-84.8 788.46,-88.57 788.65,-81.57"/>
</g>
<!-- Node32&#45;&gt;Node5 -->
<g id="edge55" class="edge">
<title>Node32&#45;&gt;Node5</title>
<path fill="none" stroke="midnightblue" d="M1259.76,-252.18C1106.48,-246.19 745.21,-230.99 442.41,-210 430.02,-209.14 416.81,-208.08 404.13,-206.99"/>
<polygon fill="midnightblue" stroke="midnightblue" points="404.38,-203.5 394.11,-206.12 403.77,-210.48 404.38,-203.5"/>
</g>
<!-- Node32&#45;&gt;Node19 -->
<g id="edge56" class="edge">
<title>Node32&#45;&gt;Node19</title>
<path fill="none" stroke="midnightblue" d="M1348.22,-246.37C1378.55,-227.41 1451.21,-182 1488.1,-158.94"/>
<polygon fill="midnightblue" stroke="midnightblue" points="1490.04,-161.86 1496.66,-153.59 1486.33,-155.92 1490.04,-161.86"/>
</g>
<!-- Node33&#45;&gt;Node2 -->
<g id="edge62" class="edge">
<title>Node33&#45;&gt;Node2</title>
<path fill="none" stroke="midnightblue" d="M658.86,-476.53C558.74,-471.35 344.36,-457.8 274.41,-434 139.89,-388.23 71.62,-390.09 2.41,-266 -1.92,-258.24 1.43,-254.84 2.41,-246 8,-195.3 -11.2,-167.32 27.41,-134 50.83,-113.79 481.89,-93.53 652.1,-86.29"/>
<polygon fill="midnightblue" stroke="midnightblue" points="652.35,-89.78 662.2,-85.86 652.06,-82.79 652.35,-89.78"/>
</g>
<!-- Node33&#45;&gt;Node5 -->
<g id="edge64" class="edge">
<title>Node33&#45;&gt;Node5</title>
<path fill="none" stroke="midnightblue" d="M658.72,-475.68C549.49,-467.34 308.41,-440.8 308.41,-369 308.41,-369 308.41,-369 308.41,-311 308.41,-277.33 322.4,-240.08 331.88,-218.72"/>
<polygon fill="midnightblue" stroke="midnightblue" points="335.08,-220.14 336.09,-209.59 328.73,-217.21 335.08,-220.14"/>
</g>
<!-- Node33&#45;&gt;Node14 -->
<g id="edge63" class="edge">
<title>Node33&#45;&gt;Node14</title>
<path fill="none" stroke="midnightblue" d="M758.11,-470.49C786.06,-463.8 821.3,-452.45 848.41,-434 913,-390.04 964.71,-309.92 985.51,-274.56"/>
<polygon fill="midnightblue" stroke="midnightblue" points="988.57,-276.26 990.54,-265.85 982.51,-272.76 988.57,-276.26"/>
</g>
<!-- Node33&#45;&gt;Node15 -->
<g id="edge74" class="edge">
<title>Node33&#45;&gt;Node15</title>
<path fill="none" stroke="midnightblue" d="M751.68,-470.42C773.35,-463.86 798.93,-452.65 815.41,-434 835.33,-411.44 834.41,-399.1 834.41,-369 834.41,-369 834.41,-369 834.41,-311 834.41,-278.44 825.82,-241.32 819.9,-219.59"/>
<polygon fill="midnightblue" stroke="midnightblue" points="823.2,-218.41 817.11,-209.74 816.47,-220.32 823.2,-218.41"/>
</g>
<!-- Node34 -->
<g id="node34" class="node">
<title>Node34</title>
<g id="a_node34"><a xlink:href="appenderattachable_8h.html" target="_top" xlink:title=" ">
<polygon fill="white" stroke="black" points="616.41,-414.5 616.41,-433.5 806.41,-433.5 806.41,-414.5 616.41,-414.5"/>
<text text-anchor="middle" x="711.41" y="-421.5" font-family="Helvetica,sans-Serif" font-size="10.00">log4cplus/spi/appenderattachable.h</text>
</a>
</g>
</g>
<!-- Node33&#45;&gt;Node34 -->
<g id="edge65" class="edge">
<title>Node33&#45;&gt;Node34</title>
<path fill="none" stroke="midnightblue" d="M711.41,-470.08C711.41,-463.01 711.41,-452.86 711.41,-443.99"/>
<polygon fill="midnightblue" stroke="midnightblue" points="714.91,-443.75 711.41,-433.75 707.91,-443.75 714.91,-443.75"/>
</g>
<!-- Node35 -->
<g id="node35" class="node">
<title>Node35</title>
<g id="a_node35"><a xlink:href="loggerfactory_8h.html" target="_top" xlink:title=" ">
<polygon fill="white" stroke="black" points="11.41,-246.5 11.41,-265.5 167.41,-265.5 167.41,-246.5 11.41,-246.5"/>
<text text-anchor="middle" x="89.41" y="-253.5" font-family="Helvetica,sans-Serif" font-size="10.00">log4cplus/spi/loggerfactory.h</text>
</a>
</g>
</g>
<!-- Node33&#45;&gt;Node35 -->
<g id="edge71" class="edge">
<title>Node33&#45;&gt;Node35</title>
<path fill="none" stroke="midnightblue" d="M658.86,-476.41C553.18,-470.77 322.56,-456.07 294.41,-434 245.28,-395.49 292.06,-344.58 246.41,-302 227.55,-284.41 202.29,-273.64 177.54,-267.07"/>
<polygon fill="midnightblue" stroke="midnightblue" points="178.27,-263.64 167.73,-264.66 176.61,-270.44 178.27,-263.64"/>
</g>
<!-- Node34&#45;&gt;Node2 -->
<g id="edge66" class="edge">
<title>Node34&#45;&gt;Node2</title>
<path fill="none" stroke="midnightblue" d="M660.74,-414.46C577.85,-399.04 422.41,-363.4 422.41,-313 422.41,-313 422.41,-313 422.41,-255 422.41,-196.29 427.65,-168.15 475.41,-134 503.27,-114.08 589.79,-99.54 652.12,-91.31"/>
<polygon fill="midnightblue" stroke="midnightblue" points="652.83,-94.74 662.29,-89.99 651.93,-87.8 652.83,-94.74"/>
</g>
<!-- Node34&#45;&gt;Node5 -->
<g id="edge68" class="edge">
<title>Node34&#45;&gt;Node5</title>
<path fill="none" stroke="midnightblue" d="M616.11,-419.17C539.53,-414.26 439.74,-403.11 408.41,-378 358.58,-338.06 345.22,-257 341.67,-220.09"/>
<polygon fill="midnightblue" stroke="midnightblue" points="345.13,-219.44 340.83,-209.76 338.16,-220.01 345.13,-219.44"/>
</g>
<!-- Node34&#45;&gt;Node12 -->
<g id="edge67" class="edge">
<title>Node34&#45;&gt;Node12</title>
<path fill="none" stroke="midnightblue" d="M779.07,-414.44C858.11,-404.45 988.24,-387.99 1068.32,-377.86"/>
<polygon fill="midnightblue" stroke="midnightblue" points="1068.83,-381.33 1078.31,-376.6 1067.95,-374.38 1068.83,-381.33"/>
</g>
<!-- Node34&#45;&gt;Node15 -->
<g id="edge70" class="edge">
<title>Node34&#45;&gt;Node15</title>
<path fill="none" stroke="midnightblue" d="M715.45,-414.3C730.7,-381.42 785,-264.39 806.02,-219.09"/>
<polygon fill="midnightblue" stroke="midnightblue" points="809.25,-220.43 810.29,-209.88 802.9,-217.48 809.25,-220.43"/>
</g>
<!-- Node34&#45;&gt;Node18 -->
<g id="edge69" class="edge">
<title>Node34&#45;&gt;Node18</title>
<path fill="none" stroke="midnightblue" d="M731.72,-414.38C785.8,-391.32 937.61,-325.89 1061.41,-266 1096.75,-248.9 1136.91,-227.7 1161.95,-214.25"/>
<polygon fill="midnightblue" stroke="midnightblue" points="1163.62,-217.33 1170.77,-209.5 1160.31,-211.16 1163.62,-217.33"/>
</g>
<!-- Node35&#45;&gt;Node2 -->
<g id="edge72" class="edge">
<title>Node35&#45;&gt;Node2</title>
<path fill="none" stroke="midnightblue" d="M80.27,-246.24C58.74,-224.6 8.95,-167.88 40.41,-134 61.02,-111.8 483.5,-92.81 651.95,-86.1"/>
<polygon fill="midnightblue" stroke="midnightblue" points="652.34,-89.58 662.19,-85.69 652.06,-82.59 652.34,-89.58"/>
</g>
<!-- Node35&#45;&gt;Node5 -->
<g id="edge73" class="edge">
<title>Node35&#45;&gt;Node5</title>
<path fill="none" stroke="midnightblue" d="M129.18,-246.44C172.97,-237.02 243.42,-221.87 290.79,-211.68"/>
<polygon fill="midnightblue" stroke="midnightblue" points="291.78,-215.04 300.82,-209.52 290.31,-208.2 291.78,-215.04"/>
</g>
</g>
</svg>
