<?xml version="1.0" encoding="UTF-8" standalone="no"?>
<!DOCTYPE svg PUBLIC "-//W3C//DTD SVG 1.1//EN"
 "http://www.w3.org/Graphics/SVG/1.1/DTD/svg11.dtd">
<!-- Generated by graphviz version 2.43.0 (0)
 -->
<!-- Title: hierarchy.h Pages: 1 -->
<svg width="1827pt" height="554pt"
 viewBox="0.00 0.00 1827.00 554.00" xmlns="http://www.w3.org/2000/svg" xmlns:xlink="http://www.w3.org/1999/xlink">
<g id="graph0" class="graph" transform="scale(1 1) rotate(0) translate(4 550)">
<title>hierarchy.h</title>
<polygon fill="white" stroke="transparent" points="-4,4 -4,-550 1823,-550 1823,4 -4,4"/>
<!-- Node1 -->
<g id="node1" class="node">
<title>Node1</title>
<g id="a_node1"><a xlink:title=" ">
<polygon fill="#bfbfbf" stroke="black" points="1436,-526.5 1436,-545.5 1506,-545.5 1506,-526.5 1436,-526.5"/>
<text text-anchor="middle" x="1471" y="-533.5" font-family="Helvetica,sans-Serif" font-size="10.00">hierarchy.h</text>
</a>
</g>
</g>
<!-- Node2 -->
<g id="node2" class="node">
<title>Node2</title>
<g id="a_node2"><a xlink:href="config_8hxx.html" target="_top" xlink:title=" ">
<polygon fill="white" stroke="black" points="847,-73 847,-92 963,-92 963,-73 847,-73"/>
<text text-anchor="middle" x="905" y="-80" font-family="Helvetica,sans-Serif" font-size="10.00">log4cplus/config.hxx</text>
</a>
</g>
</g>
<!-- Node1&#45;&gt;Node2 -->
<g id="edge1" class="edge">
<title>Node1&#45;&gt;Node2</title>
<path fill="none" stroke="midnightblue" d="M1506.4,-535.94C1554.9,-535.61 1643.05,-529.04 1705,-490 1735.38,-470.85 1753,-460.91 1753,-425 1753,-425 1753,-425 1753,-199 1753,-162.82 1735.85,-151.15 1704,-134 1640.53,-99.82 1155.14,-87.87 973.4,-84.57"/>
<polygon fill="midnightblue" stroke="midnightblue" points="973.23,-81.07 963.17,-84.39 973.11,-88.07 973.23,-81.07"/>
</g>
<!-- Node5 -->
<g id="node5" class="node">
<title>Node5</title>
<g id="a_node5"><a xlink:href="logger_8h.html" target="_top" xlink:title="This header defines the Logger class and the logging macros.">
<polygon fill="white" stroke="black" points="1093.5,-470.5 1093.5,-489.5 1198.5,-489.5 1198.5,-470.5 1093.5,-470.5"/>
<text text-anchor="middle" x="1146" y="-477.5" font-family="Helvetica,sans-Serif" font-size="10.00">log4cplus/logger.h</text>
</a>
</g>
</g>
<!-- Node1&#45;&gt;Node5 -->
<g id="edge4" class="edge">
<title>Node1&#45;&gt;Node5</title>
<path fill="none" stroke="midnightblue" d="M1435.91,-529.17C1381.19,-520.08 1274.81,-502.4 1207.25,-491.18"/>
<polygon fill="midnightblue" stroke="midnightblue" points="1207.6,-487.69 1197.17,-489.5 1206.46,-494.59 1207.6,-487.69"/>
</g>
<!-- Node7 -->
<g id="node7" class="node">
<title>Node7</title>
<g id="a_node7"><a xlink:title=" ">
<polygon fill="white" stroke="#bfbfbf" points="1638.5,-190.5 1638.5,-209.5 1685.5,-209.5 1685.5,-190.5 1638.5,-190.5"/>
<text text-anchor="middle" x="1662" y="-197.5" font-family="Helvetica,sans-Serif" font-size="10.00">vector</text>
</a>
</g>
</g>
<!-- Node1&#45;&gt;Node7 -->
<g id="edge76" class="edge">
<title>Node1&#45;&gt;Node7</title>
<path fill="none" stroke="midnightblue" d="M1506.22,-534.66C1573.79,-531.96 1715,-515.49 1715,-425 1715,-425 1715,-425 1715,-311 1715,-274.99 1691.67,-238.34 1675.96,-217.75"/>
<polygon fill="midnightblue" stroke="midnightblue" points="1678.55,-215.38 1669.59,-209.72 1673.07,-219.73 1678.55,-215.38"/>
</g>
<!-- Node8 -->
<g id="node8" class="node">
<title>Node8</title>
<g id="a_node8"><a xlink:title=" ">
<polygon fill="white" stroke="#bfbfbf" points="941,-190.5 941,-209.5 999,-209.5 999,-190.5 941,-190.5"/>
<text text-anchor="middle" x="970" y="-197.5" font-family="Helvetica,sans-Serif" font-size="10.00">memory</text>
</a>
</g>
</g>
<!-- Node1&#45;&gt;Node8 -->
<g id="edge75" class="edge">
<title>Node1&#45;&gt;Node8</title>
<path fill="none" stroke="midnightblue" d="M1435.78,-534.66C1368.21,-531.96 1227,-515.49 1227,-425 1227,-425 1227,-425 1227,-367 1227,-256.58 1078.62,-343.54 1000,-266 987.03,-253.2 979.07,-233.74 974.64,-219.45"/>
<polygon fill="midnightblue" stroke="midnightblue" points="977.99,-218.41 971.92,-209.72 971.25,-220.3 977.99,-218.41"/>
</g>
<!-- Node18 -->
<g id="node18" class="node">
<title>Node18</title>
<g id="a_node18"><a xlink:href="syncprims_8h.html" target="_top" xlink:title=" ">
<polygon fill="white" stroke="black" points="90,-134.5 90,-153.5 250,-153.5 250,-134.5 90,-134.5"/>
<text text-anchor="middle" x="170" y="-141.5" font-family="Helvetica,sans-Serif" font-size="10.00">log4cplus/thread/syncprims.h</text>
</a>
</g>
</g>
<!-- Node1&#45;&gt;Node18 -->
<g id="edge73" class="edge">
<title>Node1&#45;&gt;Node18</title>
<path fill="none" stroke="midnightblue" d="M1435.82,-534.15C1217.95,-528.65 62,-496.12 62,-425 62,-425 62,-425 62,-255 62,-209.21 110.25,-175.49 142.25,-158.16"/>
<polygon fill="midnightblue" stroke="midnightblue" points="143.93,-161.23 151.19,-153.51 140.7,-155.02 143.93,-161.23"/>
</g>
<!-- Node36 -->
<g id="node36" class="node">
<title>Node36</title>
<g id="a_node36"><a xlink:title=" ">
<polygon fill="white" stroke="#bfbfbf" points="1781,-470.5 1781,-489.5 1819,-489.5 1819,-470.5 1781,-470.5"/>
<text text-anchor="middle" x="1800" y="-477.5" font-family="Helvetica,sans-Serif" font-size="10.00">map</text>
</a>
</g>
</g>
<!-- Node1&#45;&gt;Node36 -->
<g id="edge74" class="edge">
<title>Node1&#45;&gt;Node36</title>
<path fill="none" stroke="midnightblue" d="M1506.32,-530.97C1562.06,-524.31 1673.68,-509.75 1767,-490 1768.27,-489.73 1769.57,-489.44 1770.88,-489.14"/>
<polygon fill="midnightblue" stroke="midnightblue" points="1772.06,-492.45 1780.9,-486.61 1770.34,-485.66 1772.06,-492.45"/>
</g>
<!-- Node3 -->
<g id="node3" class="node">
<title>Node3</title>
<g id="a_node3"><a xlink:href="win32_8h.html" target="_top" xlink:title=" ">
<polygon fill="white" stroke="black" points="758.5,-6 758.5,-25 895.5,-25 895.5,-6 758.5,-6"/>
<text text-anchor="middle" x="827" y="-13" font-family="Helvetica,sans-Serif" font-size="10.00">log4cplus/config/win32.h</text>
</a>
</g>
</g>
<!-- Node2&#45;&gt;Node3 -->
<g id="edge2" class="edge">
<title>Node2&#45;&gt;Node3</title>
<path fill="none" stroke="midnightblue" d="M894.48,-72.73C881.85,-62.21 860.46,-44.38 845.14,-31.62"/>
<polygon fill="midnightblue" stroke="midnightblue" points="847.28,-28.84 837.35,-25.13 842.79,-34.22 847.28,-28.84"/>
</g>
<!-- Node4 -->
<g id="node4" class="node">
<title>Node4</title>
<g id="a_node4"><a xlink:href="thread-config_8h.html" target="_top" xlink:title=" ">
<polygon fill="white" stroke="black" points="913.5,-0.5 913.5,-30.5 1050.5,-30.5 1050.5,-0.5 913.5,-0.5"/>
<text text-anchor="start" x="921.5" y="-18.5" font-family="Helvetica,sans-Serif" font-size="10.00">log4cplus/helpers/thread</text>
<text text-anchor="middle" x="982" y="-7.5" font-family="Helvetica,sans-Serif" font-size="10.00">&#45;config.h</text>
</a>
</g>
</g>
<!-- Node2&#45;&gt;Node4 -->
<g id="edge3" class="edge">
<title>Node2&#45;&gt;Node4</title>
<path fill="none" stroke="midnightblue" d="M915.38,-72.73C926.09,-63.7 943.18,-49.27 957.36,-37.3"/>
<polygon fill="midnightblue" stroke="midnightblue" points="959.93,-39.71 965.31,-30.59 955.41,-34.37 959.93,-39.71"/>
</g>
<!-- Node5&#45;&gt;Node2 -->
<g id="edge5" class="edge">
<title>Node5&#45;&gt;Node2</title>
<path fill="none" stroke="midnightblue" d="M1093.4,-478.3C897.71,-475.02 223,-457.3 223,-369 223,-369 223,-369 223,-311 223,-212.33 270.76,-181.94 357,-134 437.59,-89.2 708.2,-83.25 836.46,-83.03"/>
<polygon fill="midnightblue" stroke="midnightblue" points="836.56,-86.53 846.56,-83.03 836.56,-79.53 836.56,-86.53"/>
</g>
<!-- Node6 -->
<g id="node6" class="node">
<title>Node6</title>
<g id="a_node6"><a xlink:href="loglevel_8h.html" target="_top" xlink:title="This header defines the LogLevel type.">
<polygon fill="white" stroke="black" points="1009,-246.5 1009,-265.5 1123,-265.5 1123,-246.5 1009,-246.5"/>
<text text-anchor="middle" x="1066" y="-253.5" font-family="Helvetica,sans-Serif" font-size="10.00">log4cplus/loglevel.h</text>
</a>
</g>
</g>
<!-- Node5&#45;&gt;Node6 -->
<g id="edge6" class="edge">
<title>Node5&#45;&gt;Node6</title>
<path fill="none" stroke="midnightblue" d="M1142.86,-470.3C1131.04,-437.49 1089.02,-320.88 1072.62,-275.38"/>
<polygon fill="midnightblue" stroke="midnightblue" points="1075.88,-274.1 1069.2,-265.88 1069.3,-276.48 1075.88,-274.1"/>
</g>
<!-- Node5&#45;&gt;Node7 -->
<g id="edge72" class="edge">
<title>Node5&#45;&gt;Node7</title>
<path fill="none" stroke="midnightblue" d="M1198.86,-479.15C1333.17,-478.11 1677,-465.97 1677,-369 1677,-369 1677,-369 1677,-311 1677,-278.5 1670.49,-241.1 1666.05,-219.34"/>
<polygon fill="midnightblue" stroke="midnightblue" points="1669.46,-218.56 1663.96,-209.5 1662.61,-220.01 1669.46,-218.56"/>
</g>
<!-- Node10 -->
<g id="node10" class="node">
<title>Node10</title>
<g id="a_node10"><a xlink:href="tstring_8h.html" target="_top" xlink:title=" ">
<polygon fill="white" stroke="black" points="1159.5,-190.5 1159.5,-209.5 1266.5,-209.5 1266.5,-190.5 1159.5,-190.5"/>
<text text-anchor="middle" x="1213" y="-197.5" font-family="Helvetica,sans-Serif" font-size="10.00">log4cplus/tstring.h</text>
</a>
</g>
</g>
<!-- Node5&#45;&gt;Node10 -->
<g id="edge30" class="edge">
<title>Node5&#45;&gt;Node10</title>
<path fill="none" stroke="midnightblue" d="M1168.1,-470.44C1202.52,-455.5 1265,-421.19 1265,-369 1265,-369 1265,-369 1265,-311 1265,-275.12 1242.11,-238.42 1226.7,-217.79"/>
<polygon fill="midnightblue" stroke="midnightblue" points="1229.35,-215.5 1220.45,-209.74 1223.82,-219.79 1229.35,-215.5"/>
</g>
<!-- Node25 -->
<g id="node25" class="node">
<title>Node25</title>
<g id="a_node25"><a xlink:href="appenderattachable_8h.html" target="_top" xlink:title=" ">
<polygon fill="white" stroke="black" points="891,-414.5 891,-433.5 1081,-433.5 1081,-414.5 891,-414.5"/>
<text text-anchor="middle" x="986" y="-421.5" font-family="Helvetica,sans-Serif" font-size="10.00">log4cplus/spi/appenderattachable.h</text>
</a>
</g>
</g>
<!-- Node5&#45;&gt;Node25 -->
<g id="edge31" class="edge">
<title>Node5&#45;&gt;Node25</title>
<path fill="none" stroke="midnightblue" d="M1120.65,-470.44C1093.73,-461.36 1051,-446.94 1020.91,-436.78"/>
<polygon fill="midnightblue" stroke="midnightblue" points="1021.83,-433.4 1011.23,-433.52 1019.59,-440.03 1021.83,-433.4"/>
</g>
<!-- Node35 -->
<g id="node35" class="node">
<title>Node35</title>
<g id="a_node35"><a xlink:href="loggerfactory_8h.html" target="_top" xlink:title=" ">
<polygon fill="white" stroke="black" points="365,-246.5 365,-265.5 521,-265.5 521,-246.5 365,-246.5"/>
<text text-anchor="middle" x="443" y="-253.5" font-family="Helvetica,sans-Serif" font-size="10.00">log4cplus/spi/loggerfactory.h</text>
</a>
</g>
</g>
<!-- Node5&#45;&gt;Node35 -->
<g id="edge69" class="edge">
<title>Node5&#45;&gt;Node35</title>
<path fill="none" stroke="midnightblue" d="M1093.33,-475.04C999.5,-466.56 798.55,-441.94 642,-378 571.56,-349.23 497.15,-297.37 462.67,-271.92"/>
<polygon fill="midnightblue" stroke="midnightblue" points="464.52,-268.93 454.41,-265.76 460.33,-274.55 464.52,-268.93"/>
</g>
<!-- Node6&#45;&gt;Node2 -->
<g id="edge7" class="edge">
<title>Node6&#45;&gt;Node2</title>
<path fill="none" stroke="midnightblue" d="M1062.01,-246.28C1049.62,-219.25 1012.37,-138.41 1008,-134 990.33,-116.17 965.09,-103.66 944.02,-95.55"/>
<polygon fill="midnightblue" stroke="midnightblue" points="944.96,-92.16 934.37,-92.02 942.56,-98.74 944.96,-92.16"/>
</g>
<!-- Node6&#45;&gt;Node7 -->
<g id="edge8" class="edge">
<title>Node6&#45;&gt;Node7</title>
<path fill="none" stroke="midnightblue" d="M1123.31,-254.1C1224.01,-251.72 1439.24,-243.06 1628.51,-209.95"/>
<polygon fill="midnightblue" stroke="midnightblue" points="1629.12,-213.4 1638.35,-208.2 1627.9,-206.51 1629.12,-213.4"/>
</g>
<!-- Node6&#45;&gt;Node8 -->
<g id="edge9" class="edge">
<title>Node6&#45;&gt;Node8</title>
<path fill="none" stroke="midnightblue" d="M1050.58,-246.32C1035.46,-237.82 1012.18,-224.73 994.53,-214.8"/>
<polygon fill="midnightblue" stroke="midnightblue" points="995.82,-211.51 985.39,-209.65 992.39,-217.61 995.82,-211.51"/>
</g>
<!-- Node9 -->
<g id="node9" class="node">
<title>Node9</title>
<g id="a_node9"><a xlink:title=" ">
<polygon fill="white" stroke="#bfbfbf" points="1055,-190.5 1055,-209.5 1141,-209.5 1141,-190.5 1055,-190.5"/>
<text text-anchor="middle" x="1098" y="-197.5" font-family="Helvetica,sans-Serif" font-size="10.00">shared_mutex</text>
</a>
</g>
</g>
<!-- Node6&#45;&gt;Node9 -->
<g id="edge10" class="edge">
<title>Node6&#45;&gt;Node9</title>
<path fill="none" stroke="midnightblue" d="M1071.28,-246.08C1075.71,-238.61 1082.16,-227.72 1087.62,-218.52"/>
<polygon fill="midnightblue" stroke="midnightblue" points="1090.73,-220.14 1092.81,-209.75 1084.71,-216.57 1090.73,-220.14"/>
</g>
<!-- Node6&#45;&gt;Node10 -->
<g id="edge11" class="edge">
<title>Node6&#45;&gt;Node10</title>
<path fill="none" stroke="midnightblue" d="M1089.29,-246.44C1113.81,-237.44 1152.6,-223.19 1180.2,-213.05"/>
<polygon fill="midnightblue" stroke="midnightblue" points="1181.64,-216.25 1189.82,-209.52 1179.22,-209.68 1181.64,-216.25"/>
</g>
<!-- Node17 -->
<g id="node17" class="node">
<title>Node17</title>
<g id="a_node17"><a xlink:href="pointer_8h.html" target="_top" xlink:title=" ">
<polygon fill="white" stroke="black" points="475,-190.5 475,-209.5 623,-209.5 623,-190.5 475,-190.5"/>
<text text-anchor="middle" x="549" y="-197.5" font-family="Helvetica,sans-Serif" font-size="10.00">log4cplus/helpers/pointer.h</text>
</a>
</g>
</g>
<!-- Node6&#45;&gt;Node17 -->
<g id="edge20" class="edge">
<title>Node6&#45;&gt;Node17</title>
<path fill="none" stroke="midnightblue" d="M1008.7,-249.01C917.52,-239.49 738.94,-220.84 633.2,-209.79"/>
<polygon fill="midnightblue" stroke="midnightblue" points="633.51,-206.31 623.2,-208.75 632.78,-213.27 633.51,-206.31"/>
</g>
<!-- Node10&#45;&gt;Node2 -->
<g id="edge12" class="edge">
<title>Node10&#45;&gt;Node2</title>
<path fill="none" stroke="midnightblue" d="M1236.74,-190.41C1265.53,-178.72 1307.88,-156.67 1288,-134 1267.62,-110.76 1077.96,-94.8 973.4,-87.69"/>
<polygon fill="midnightblue" stroke="midnightblue" points="973.46,-84.19 963.25,-87.01 973,-91.17 973.46,-84.19"/>
</g>
<!-- Node11 -->
<g id="node11" class="node">
<title>Node11</title>
<g id="a_node11"><a xlink:title=" ">
<polygon fill="white" stroke="#bfbfbf" points="1055.5,-134.5 1055.5,-153.5 1124.5,-153.5 1124.5,-134.5 1055.5,-134.5"/>
<text text-anchor="middle" x="1090" y="-141.5" font-family="Helvetica,sans-Serif" font-size="10.00">type_traits</text>
</a>
</g>
</g>
<!-- Node10&#45;&gt;Node11 -->
<g id="edge13" class="edge">
<title>Node10&#45;&gt;Node11</title>
<path fill="none" stroke="midnightblue" d="M1193.51,-190.44C1173.36,-181.6 1141.68,-167.69 1118.67,-157.59"/>
<polygon fill="midnightblue" stroke="midnightblue" points="1119.96,-154.33 1109.4,-153.52 1117.15,-160.74 1119.96,-154.33"/>
</g>
<!-- Node12 -->
<g id="node12" class="node">
<title>Node12</title>
<g id="a_node12"><a xlink:title=" ">
<polygon fill="white" stroke="#bfbfbf" points="933.5,-134.5 933.5,-153.5 998.5,-153.5 998.5,-134.5 933.5,-134.5"/>
<text text-anchor="middle" x="966" y="-141.5" font-family="Helvetica,sans-Serif" font-size="10.00">functional</text>
</a>
</g>
</g>
<!-- Node10&#45;&gt;Node12 -->
<g id="edge14" class="edge">
<title>Node10&#45;&gt;Node12</title>
<path fill="none" stroke="midnightblue" d="M1173.86,-190.44C1128.84,-180.6 1055.17,-164.49 1008.7,-154.33"/>
<polygon fill="midnightblue" stroke="midnightblue" points="1009.16,-150.85 998.64,-152.14 1007.67,-157.69 1009.16,-150.85"/>
</g>
<!-- Node13 -->
<g id="node13" class="node">
<title>Node13</title>
<g id="a_node13"><a xlink:title=" ">
<polygon fill="white" stroke="#bfbfbf" points="1143,-134.5 1143,-153.5 1187,-153.5 1187,-134.5 1143,-134.5"/>
<text text-anchor="middle" x="1165" y="-141.5" font-family="Helvetica,sans-Serif" font-size="10.00">string</text>
</a>
</g>
</g>
<!-- Node10&#45;&gt;Node13 -->
<g id="edge15" class="edge">
<title>Node10&#45;&gt;Node13</title>
<path fill="none" stroke="midnightblue" d="M1205.07,-190.08C1198.15,-182.3 1187.93,-170.8 1179.55,-161.37"/>
<polygon fill="midnightblue" stroke="midnightblue" points="1182.04,-158.9 1172.78,-153.75 1176.81,-163.55 1182.04,-158.9"/>
</g>
<!-- Node14 -->
<g id="node14" class="node">
<title>Node14</title>
<g id="a_node14"><a xlink:title=" ">
<polygon fill="white" stroke="#bfbfbf" points="1205.5,-134.5 1205.5,-153.5 1278.5,-153.5 1278.5,-134.5 1205.5,-134.5"/>
<text text-anchor="middle" x="1242" y="-141.5" font-family="Helvetica,sans-Serif" font-size="10.00">string_view</text>
</a>
</g>
</g>
<!-- Node10&#45;&gt;Node14 -->
<g id="edge16" class="edge">
<title>Node10&#45;&gt;Node14</title>
<path fill="none" stroke="midnightblue" d="M1217.79,-190.08C1221.76,-182.69 1227.53,-171.95 1232.43,-162.81"/>
<polygon fill="midnightblue" stroke="midnightblue" points="1235.65,-164.22 1237.3,-153.75 1229.49,-160.91 1235.65,-164.22"/>
</g>
<!-- Node15 -->
<g id="node15" class="node">
<title>Node15</title>
<g id="a_node15"><a xlink:href="tchar_8h.html" target="_top" xlink:title=" ">
<polygon fill="white" stroke="black" points="1491.5,-134.5 1491.5,-153.5 1590.5,-153.5 1590.5,-134.5 1491.5,-134.5"/>
<text text-anchor="middle" x="1541" y="-141.5" font-family="Helvetica,sans-Serif" font-size="10.00">log4cplus/tchar.h</text>
</a>
</g>
</g>
<!-- Node10&#45;&gt;Node15 -->
<g id="edge17" class="edge">
<title>Node10&#45;&gt;Node15</title>
<path fill="none" stroke="midnightblue" d="M1264.97,-190.44C1323.84,-180.75 1419.58,-164.99 1481.42,-154.81"/>
<polygon fill="midnightblue" stroke="midnightblue" points="1482.12,-158.24 1491.42,-153.16 1480.98,-151.33 1482.12,-158.24"/>
</g>
<!-- Node15&#45;&gt;Node2 -->
<g id="edge18" class="edge">
<title>Node15&#45;&gt;Node2</title>
<path fill="none" stroke="midnightblue" d="M1491.42,-135.77C1486.55,-135.14 1481.68,-134.54 1477,-134 1295.41,-113.23 1080.55,-96.31 973.2,-88.38"/>
<polygon fill="midnightblue" stroke="midnightblue" points="973.38,-84.88 963.15,-87.64 972.87,-91.86 973.38,-84.88"/>
</g>
<!-- Node16 -->
<g id="node16" class="node">
<title>Node16</title>
<g id="a_node16"><a xlink:title=" ">
<polygon fill="white" stroke="#bfbfbf" points="1514.5,-73 1514.5,-92 1567.5,-92 1567.5,-73 1514.5,-73"/>
<text text-anchor="middle" x="1541" y="-80" font-family="Helvetica,sans-Serif" font-size="10.00">cstddef</text>
</a>
</g>
</g>
<!-- Node15&#45;&gt;Node16 -->
<g id="edge19" class="edge">
<title>Node15&#45;&gt;Node16</title>
<path fill="none" stroke="midnightblue" d="M1541,-134.48C1541,-126.08 1541,-112.98 1541,-102.16"/>
<polygon fill="midnightblue" stroke="midnightblue" points="1544.5,-102.01 1541,-92.01 1537.5,-102.01 1544.5,-102.01"/>
</g>
<!-- Node17&#45;&gt;Node2 -->
<g id="edge21" class="edge">
<title>Node17&#45;&gt;Node2</title>
<path fill="none" stroke="midnightblue" d="M555.52,-190.16C566.61,-175.82 590.64,-147.72 618,-134 687.25,-99.27 776.36,-88.02 836.78,-84.58"/>
<polygon fill="midnightblue" stroke="midnightblue" points="837.16,-88.07 846.96,-84.06 836.8,-81.08 837.16,-88.07"/>
</g>
<!-- Node17&#45;&gt;Node18 -->
<g id="edge22" class="edge">
<title>Node17&#45;&gt;Node18</title>
<path fill="none" stroke="midnightblue" d="M488.95,-190.44C421.31,-180.81 311.52,-165.16 240.03,-154.98"/>
<polygon fill="midnightblue" stroke="midnightblue" points="240.17,-151.46 229.77,-153.52 239.18,-158.39 240.17,-151.46"/>
</g>
<!-- Node22 -->
<g id="node22" class="node">
<title>Node22</title>
<g id="a_node22"><a xlink:title=" ">
<polygon fill="white" stroke="#bfbfbf" points="507,-134.5 507,-153.5 571,-153.5 571,-134.5 507,-134.5"/>
<text text-anchor="middle" x="539" y="-141.5" font-family="Helvetica,sans-Serif" font-size="10.00">algorithm</text>
</a>
</g>
</g>
<!-- Node17&#45;&gt;Node22 -->
<g id="edge27" class="edge">
<title>Node17&#45;&gt;Node22</title>
<path fill="none" stroke="midnightblue" d="M547.35,-190.08C546.02,-182.93 544.12,-172.64 542.46,-163.69"/>
<polygon fill="midnightblue" stroke="midnightblue" points="545.88,-162.95 540.62,-153.75 539,-164.22 545.88,-162.95"/>
</g>
<!-- Node23 -->
<g id="node23" class="node">
<title>Node23</title>
<g id="a_node23"><a xlink:title=" ">
<polygon fill="white" stroke="#bfbfbf" points="437,-134.5 437,-153.5 489,-153.5 489,-134.5 437,-134.5"/>
<text text-anchor="middle" x="463" y="-141.5" font-family="Helvetica,sans-Serif" font-size="10.00">cassert</text>
</a>
</g>
</g>
<!-- Node17&#45;&gt;Node23 -->
<g id="edge28" class="edge">
<title>Node17&#45;&gt;Node23</title>
<path fill="none" stroke="midnightblue" d="M535.18,-190.32C521.77,-181.9 501.18,-168.97 485.41,-159.07"/>
<polygon fill="midnightblue" stroke="midnightblue" points="487.11,-156.01 476.78,-153.65 483.39,-161.94 487.11,-156.01"/>
</g>
<!-- Node24 -->
<g id="node24" class="node">
<title>Node24</title>
<g id="a_node24"><a xlink:title=" ">
<polygon fill="white" stroke="#bfbfbf" points="627,-134.5 627,-153.5 677,-153.5 677,-134.5 627,-134.5"/>
<text text-anchor="middle" x="652" y="-141.5" font-family="Helvetica,sans-Serif" font-size="10.00">atomic</text>
</a>
</g>
</g>
<!-- Node17&#45;&gt;Node24 -->
<g id="edge29" class="edge">
<title>Node17&#45;&gt;Node24</title>
<path fill="none" stroke="midnightblue" d="M565.55,-190.32C581.99,-181.7 607.43,-168.36 626.47,-158.39"/>
<polygon fill="midnightblue" stroke="midnightblue" points="628.26,-161.4 635.49,-153.65 625.01,-155.2 628.26,-161.4"/>
</g>
<!-- Node18&#45;&gt;Node2 -->
<g id="edge23" class="edge">
<title>Node18&#45;&gt;Node2</title>
<path fill="none" stroke="midnightblue" d="M250.24,-135.23C254.9,-134.8 259.51,-134.39 264,-134 472.34,-115.82 719.04,-97.2 836.38,-88.53"/>
<polygon fill="midnightblue" stroke="midnightblue" points="836.93,-91.99 846.64,-87.77 836.41,-85.01 836.93,-91.99"/>
</g>
<!-- Node19 -->
<g id="node19" class="node">
<title>Node19</title>
<g id="a_node19"><a xlink:title=" ">
<polygon fill="white" stroke="#bfbfbf" points="0,-73 0,-92 48,-92 48,-73 0,-73"/>
<text text-anchor="middle" x="24" y="-80" font-family="Helvetica,sans-Serif" font-size="10.00">mutex</text>
</a>
</g>
</g>
<!-- Node18&#45;&gt;Node19 -->
<g id="edge24" class="edge">
<title>Node18&#45;&gt;Node19</title>
<path fill="none" stroke="midnightblue" d="M147.82,-134.43C124.97,-125.54 88.36,-111.13 57,-98 55.59,-97.41 54.15,-96.8 52.7,-96.18"/>
<polygon fill="midnightblue" stroke="midnightblue" points="53.71,-92.81 43.15,-92.05 50.93,-99.23 53.71,-92.81"/>
</g>
<!-- Node20 -->
<g id="node20" class="node">
<title>Node20</title>
<g id="a_node20"><a xlink:title=" ">
<polygon fill="white" stroke="#bfbfbf" points="66.5,-73 66.5,-92 173.5,-92 173.5,-73 66.5,-73"/>
<text text-anchor="middle" x="120" y="-80" font-family="Helvetica,sans-Serif" font-size="10.00">condition_variable</text>
</a>
</g>
</g>
<!-- Node18&#45;&gt;Node20 -->
<g id="edge25" class="edge">
<title>Node18&#45;&gt;Node20</title>
<path fill="none" stroke="midnightblue" d="M162.84,-134.48C155.26,-125.46 143.13,-111.02 133.71,-99.81"/>
<polygon fill="midnightblue" stroke="midnightblue" points="136.26,-97.41 127.15,-92.01 130.9,-101.92 136.26,-97.41"/>
</g>
<!-- Node21 -->
<g id="node21" class="node">
<title>Node21</title>
<g id="a_node21"><a xlink:href="threadsafetyanalysis_8h.html" target="_top" xlink:title=" ">
<polygon fill="white" stroke="black" points="191.5,-67.5 191.5,-97.5 322.5,-97.5 322.5,-67.5 191.5,-67.5"/>
<text text-anchor="start" x="199.5" y="-85.5" font-family="Helvetica,sans-Serif" font-size="10.00">log4cplus/internal</text>
<text text-anchor="middle" x="257" y="-74.5" font-family="Helvetica,sans-Serif" font-size="10.00">/threadsafetyanalysis.h</text>
</a>
</g>
</g>
<!-- Node18&#45;&gt;Node21 -->
<g id="edge26" class="edge">
<title>Node18&#45;&gt;Node21</title>
<path fill="none" stroke="midnightblue" d="M182.46,-134.48C194.36,-126.34 212.71,-113.79 228.23,-103.18"/>
<polygon fill="midnightblue" stroke="midnightblue" points="230.22,-106.06 236.5,-97.52 226.27,-100.28 230.22,-106.06"/>
</g>
<!-- Node25&#45;&gt;Node2 -->
<g id="edge32" class="edge">
<title>Node25&#45;&gt;Node2</title>
<path fill="none" stroke="midnightblue" d="M890.99,-414.67C728.61,-398.15 409.25,-354.88 348,-266 313.43,-215.83 335.55,-169.59 385,-134 420.87,-108.18 703.59,-92.4 836.45,-86.34"/>
<polygon fill="midnightblue" stroke="midnightblue" points="836.69,-89.84 846.52,-85.89 836.37,-82.84 836.69,-89.84"/>
</g>
<!-- Node25&#45;&gt;Node7 -->
<g id="edge68" class="edge">
<title>Node25&#45;&gt;Node7</title>
<path fill="none" stroke="midnightblue" d="M1081,-415.79C1206.39,-402.57 1430.14,-365.87 1592,-266 1613.71,-252.61 1634.6,-231.84 1647.82,-217.4"/>
<polygon fill="midnightblue" stroke="midnightblue" points="1650.62,-219.52 1654.67,-209.73 1645.4,-214.86 1650.62,-219.52"/>
</g>
<!-- Node25&#45;&gt;Node10 -->
<g id="edge66" class="edge">
<title>Node25&#45;&gt;Node10</title>
<path fill="none" stroke="midnightblue" d="M996.71,-414.32C1024.77,-391.38 1102.23,-326.73 1160,-266 1174.68,-250.57 1189.88,-231.56 1200.22,-218.09"/>
<polygon fill="midnightblue" stroke="midnightblue" points="1203.28,-219.85 1206.54,-209.76 1197.7,-215.62 1203.28,-219.85"/>
</g>
<!-- Node25&#45;&gt;Node17 -->
<g id="edge67" class="edge">
<title>Node25&#45;&gt;Node17</title>
<path fill="none" stroke="midnightblue" d="M890.61,-420.68C803.73,-413.87 676.32,-391.54 591,-322 559.93,-296.68 551.79,-247.03 549.7,-219.86"/>
<polygon fill="midnightblue" stroke="midnightblue" points="553.18,-219.52 549.12,-209.73 546.19,-219.92 553.18,-219.52"/>
</g>
<!-- Node26 -->
<g id="node26" class="node">
<title>Node26</title>
<g id="a_node26"><a xlink:href="appender_8h.html" target="_top" xlink:title=" ">
<polygon fill="white" stroke="black" points="810,-358.5 810,-377.5 930,-377.5 930,-358.5 810,-358.5"/>
<text text-anchor="middle" x="870" y="-365.5" font-family="Helvetica,sans-Serif" font-size="10.00">log4cplus/appender.h</text>
</a>
</g>
</g>
<!-- Node25&#45;&gt;Node26 -->
<g id="edge33" class="edge">
<title>Node25&#45;&gt;Node26</title>
<path fill="none" stroke="midnightblue" d="M967.62,-414.44C948.78,-405.68 919.27,-391.94 897.62,-381.86"/>
<polygon fill="midnightblue" stroke="midnightblue" points="898.84,-378.56 888.29,-377.52 895.88,-384.91 898.84,-378.56"/>
</g>
<!-- Node26&#45;&gt;Node2 -->
<g id="edge34" class="edge">
<title>Node26&#45;&gt;Node2</title>
<path fill="none" stroke="midnightblue" d="M874.72,-358.46C884.27,-340.34 905,-296.48 905,-257 905,-257 905,-257 905,-199 905,-164.86 905,-125.05 905,-102.21"/>
<polygon fill="midnightblue" stroke="midnightblue" points="908.5,-102.19 905,-92.19 901.5,-102.19 908.5,-102.19"/>
</g>
<!-- Node26&#45;&gt;Node6 -->
<g id="edge50" class="edge">
<title>Node26&#45;&gt;Node6</title>
<path fill="none" stroke="midnightblue" d="M887.5,-358.34C905.18,-349.5 933.22,-335.22 957,-322 987.33,-305.13 1021.6,-284.42 1043.48,-270.97"/>
<polygon fill="midnightblue" stroke="midnightblue" points="1045.37,-273.92 1052.05,-265.69 1041.7,-267.96 1045.37,-273.92"/>
</g>
<!-- Node26&#45;&gt;Node8 -->
<g id="edge62" class="edge">
<title>Node26&#45;&gt;Node8</title>
<path fill="none" stroke="midnightblue" d="M882.26,-358.19C893.11,-349.87 908.76,-336.54 919,-322 942.1,-289.19 957.55,-244.28 964.94,-219.44"/>
<polygon fill="midnightblue" stroke="midnightblue" points="968.39,-220.12 967.77,-209.55 961.66,-218.2 968.39,-220.12"/>
</g>
<!-- Node26&#45;&gt;Node10 -->
<g id="edge51" class="edge">
<title>Node26&#45;&gt;Node10</title>
<path fill="none" stroke="midnightblue" d="M901.24,-358.39C951.82,-343.71 1053.84,-311 1132,-266 1156.26,-252.03 1180.88,-231.1 1196.51,-216.79"/>
<polygon fill="midnightblue" stroke="midnightblue" points="1199.28,-218.99 1204.21,-209.6 1194.51,-213.87 1199.28,-218.99"/>
</g>
<!-- Node26&#45;&gt;Node17 -->
<g id="edge52" class="edge">
<title>Node26&#45;&gt;Node17</title>
<path fill="none" stroke="midnightblue" d="M809.87,-362.74C743.46,-356.97 641.83,-344.7 611,-322 593.06,-308.79 567.87,-249.29 555.87,-218.93"/>
<polygon fill="midnightblue" stroke="midnightblue" points="559.11,-217.58 552.21,-209.53 552.58,-220.12 559.11,-217.58"/>
</g>
<!-- Node26&#45;&gt;Node19 -->
<g id="edge63" class="edge">
<title>Node26&#45;&gt;Node19</title>
<path fill="none" stroke="midnightblue" d="M809.86,-364.08C659.83,-355.9 273.22,-329.12 163,-266 94.76,-226.92 49.1,-139.57 31.78,-101.65"/>
<polygon fill="midnightblue" stroke="midnightblue" points="34.91,-100.06 27.65,-92.34 28.51,-102.9 34.91,-100.06"/>
</g>
<!-- Node26&#45;&gt;Node20 -->
<g id="edge65" class="edge">
<title>Node26&#45;&gt;Node20</title>
<path fill="none" stroke="midnightblue" d="M809.93,-358.49C753.29,-350.19 666.11,-336.7 591,-322 356.79,-276.18 213.14,-352.73 81,-154 68.86,-135.75 86.19,-113.43 101.47,-98.86"/>
<polygon fill="midnightblue" stroke="midnightblue" points="104,-101.29 109.1,-92.01 99.32,-96.08 104,-101.29"/>
</g>
<!-- Node26&#45;&gt;Node24 -->
<g id="edge64" class="edge">
<title>Node26&#45;&gt;Node24</title>
<path fill="none" stroke="midnightblue" d="M809.83,-363.43C750.12,-358.49 664.62,-347.13 644,-322 624.56,-298.31 640.23,-204.26 648.13,-163.74"/>
<polygon fill="midnightblue" stroke="midnightblue" points="651.58,-164.32 650.12,-153.83 644.72,-162.95 651.58,-164.32"/>
</g>
<!-- Node27 -->
<g id="node27" class="node">
<title>Node27</title>
<g id="a_node27"><a xlink:href="layout_8h.html" target="_top" xlink:title=" ">
<polygon fill="white" stroke="black" points="1327,-302.5 1327,-321.5 1433,-321.5 1433,-302.5 1327,-302.5"/>
<text text-anchor="middle" x="1380" y="-309.5" font-family="Helvetica,sans-Serif" font-size="10.00">log4cplus/layout.h</text>
</a>
</g>
</g>
<!-- Node26&#45;&gt;Node27 -->
<g id="edge35" class="edge">
<title>Node26&#45;&gt;Node27</title>
<path fill="none" stroke="midnightblue" d="M930,-360.65C1027.02,-350.37 1217.45,-330.21 1316.6,-319.71"/>
<polygon fill="midnightblue" stroke="midnightblue" points="1317.2,-323.17 1326.78,-318.64 1316.46,-316.21 1317.2,-323.17"/>
</g>
<!-- Node33 -->
<g id="node33" class="node">
<title>Node33</title>
<g id="a_node33"><a xlink:href="filter_8h.html" target="_top" xlink:title="This header defines Filter and all of it&#39;s subclasses.">
<polygon fill="white" stroke="black" points="653,-302.5 653,-321.5 767,-321.5 767,-302.5 653,-302.5"/>
<text text-anchor="middle" x="710" y="-309.5" font-family="Helvetica,sans-Serif" font-size="10.00">log4cplus/spi/filter.h</text>
</a>
</g>
</g>
<!-- Node26&#45;&gt;Node33 -->
<g id="edge53" class="edge">
<title>Node26&#45;&gt;Node33</title>
<path fill="none" stroke="midnightblue" d="M844.65,-358.44C817.73,-349.36 775,-334.94 744.91,-324.78"/>
<polygon fill="midnightblue" stroke="midnightblue" points="745.83,-321.4 735.23,-321.52 743.59,-328.03 745.83,-321.4"/>
</g>
<!-- Node34 -->
<g id="node34" class="node">
<title>Node34</title>
<g id="a_node34"><a xlink:href="lockfile_8h.html" target="_top" xlink:title=" ">
<polygon fill="white" stroke="black" points="728.5,-246.5 728.5,-265.5 877.5,-265.5 877.5,-246.5 728.5,-246.5"/>
<text text-anchor="middle" x="803" y="-253.5" font-family="Helvetica,sans-Serif" font-size="10.00">log4cplus/helpers/lockfile.h</text>
</a>
</g>
</g>
<!-- Node26&#45;&gt;Node34 -->
<g id="edge58" class="edge">
<title>Node26&#45;&gt;Node34</title>
<path fill="none" stroke="midnightblue" d="M864.74,-358.37C853.73,-340.3 828.08,-298.18 813.54,-274.31"/>
<polygon fill="midnightblue" stroke="midnightblue" points="816.42,-272.31 808.23,-265.59 810.45,-275.95 816.42,-272.31"/>
</g>
<!-- Node27&#45;&gt;Node2 -->
<g id="edge36" class="edge">
<title>Node27&#45;&gt;Node2</title>
<path fill="none" stroke="midnightblue" d="M1433.17,-304.33C1475.32,-296.42 1524.46,-279.77 1507,-246 1467.48,-169.54 1429.41,-164.72 1349,-134 1282.04,-108.42 1080.41,-93.45 973.41,-87.11"/>
<polygon fill="midnightblue" stroke="midnightblue" points="973.55,-83.61 963.36,-86.52 973.14,-90.6 973.55,-83.61"/>
</g>
<!-- Node27&#45;&gt;Node6 -->
<g id="edge37" class="edge">
<title>Node27&#45;&gt;Node6</title>
<path fill="none" stroke="midnightblue" d="M1330.25,-302.44C1274.67,-292.89 1184.74,-277.42 1125.48,-267.23"/>
<polygon fill="midnightblue" stroke="midnightblue" points="1125.97,-263.76 1115.52,-265.52 1124.78,-270.66 1125.97,-263.76"/>
</g>
<!-- Node27&#45;&gt;Node7 -->
<g id="edge48" class="edge">
<title>Node27&#45;&gt;Node7</title>
<path fill="none" stroke="midnightblue" d="M1431.94,-302.46C1468.45,-295.38 1517.91,-283.6 1559,-266 1590.18,-252.65 1622.73,-230.5 1642.69,-215.83"/>
<polygon fill="midnightblue" stroke="midnightblue" points="1645.01,-218.46 1650.92,-209.67 1640.82,-212.86 1645.01,-218.46"/>
</g>
<!-- Node27&#45;&gt;Node8 -->
<g id="edge49" class="edge">
<title>Node27&#45;&gt;Node8</title>
<path fill="none" stroke="midnightblue" d="M1348.17,-302.46C1273.92,-282.54 1089.48,-233.05 1008.81,-211.41"/>
<polygon fill="midnightblue" stroke="midnightblue" points="1009.61,-208 999.04,-208.79 1007.79,-214.76 1009.61,-208"/>
</g>
<!-- Node27&#45;&gt;Node10 -->
<g id="edge42" class="edge">
<title>Node27&#45;&gt;Node10</title>
<path fill="none" stroke="midnightblue" d="M1366.9,-302.37C1338.24,-283.49 1269.76,-238.38 1234.61,-215.24"/>
<polygon fill="midnightblue" stroke="midnightblue" points="1236.32,-212.17 1226.04,-209.59 1232.47,-218.02 1236.32,-212.17"/>
</g>
<!-- Node28 -->
<g id="node28" class="node">
<title>Node28</title>
<g id="a_node28"><a xlink:href="streams_8h.html" target="_top" xlink:title=" ">
<polygon fill="white" stroke="black" points="1505.5,-190.5 1505.5,-209.5 1620.5,-209.5 1620.5,-190.5 1505.5,-190.5"/>
<text text-anchor="middle" x="1563" y="-197.5" font-family="Helvetica,sans-Serif" font-size="10.00">log4cplus/streams.h</text>
</a>
</g>
</g>
<!-- Node27&#45;&gt;Node28 -->
<g id="edge38" class="edge">
<title>Node27&#45;&gt;Node28</title>
<path fill="none" stroke="midnightblue" d="M1433.18,-308.07C1467.27,-303.54 1510.36,-292.49 1539,-266 1552.09,-253.89 1558.07,-234.02 1560.78,-219.43"/>
<polygon fill="midnightblue" stroke="midnightblue" points="1564.24,-219.93 1562.28,-209.51 1557.32,-218.88 1564.24,-219.93"/>
</g>
<!-- Node30 -->
<g id="node30" class="node">
<title>Node30</title>
<g id="a_node30"><a xlink:href="timehelper_8h.html" target="_top" xlink:title=" ">
<polygon fill="white" stroke="black" points="1330.5,-246.5 1330.5,-265.5 1497.5,-265.5 1497.5,-246.5 1330.5,-246.5"/>
<text text-anchor="middle" x="1414" y="-253.5" font-family="Helvetica,sans-Serif" font-size="10.00">log4cplus/helpers/timehelper.h</text>
</a>
</g>
</g>
<!-- Node27&#45;&gt;Node30 -->
<g id="edge43" class="edge">
<title>Node27&#45;&gt;Node30</title>
<path fill="none" stroke="midnightblue" d="M1385.61,-302.08C1390.37,-294.53 1397.32,-283.49 1403.15,-274.23"/>
<polygon fill="midnightblue" stroke="midnightblue" points="1406.12,-276.08 1408.49,-265.75 1400.2,-272.35 1406.12,-276.08"/>
</g>
<!-- Node28&#45;&gt;Node2 -->
<g id="edge39" class="edge">
<title>Node28&#45;&gt;Node2</title>
<path fill="none" stroke="midnightblue" d="M1574.26,-190.4C1590.32,-177.14 1616.18,-151.4 1600,-134 1557.91,-88.74 1140.18,-83.56 973.33,-83.31"/>
<polygon fill="midnightblue" stroke="midnightblue" points="973.18,-79.81 963.18,-83.3 973.18,-86.81 973.18,-79.81"/>
</g>
<!-- Node28&#45;&gt;Node15 -->
<g id="edge40" class="edge">
<title>Node28&#45;&gt;Node15</title>
<path fill="none" stroke="midnightblue" d="M1559.37,-190.08C1556.39,-182.77 1552.07,-172.18 1548.38,-163.1"/>
<polygon fill="midnightblue" stroke="midnightblue" points="1551.58,-161.69 1544.57,-153.75 1545.1,-164.33 1551.58,-161.69"/>
</g>
<!-- Node29 -->
<g id="node29" class="node">
<title>Node29</title>
<g id="a_node29"><a xlink:title=" ">
<polygon fill="white" stroke="#bfbfbf" points="1647,-134.5 1647,-153.5 1695,-153.5 1695,-134.5 1647,-134.5"/>
<text text-anchor="middle" x="1671" y="-141.5" font-family="Helvetica,sans-Serif" font-size="10.00">iosfwd</text>
</a>
</g>
</g>
<!-- Node28&#45;&gt;Node29 -->
<g id="edge41" class="edge">
<title>Node28&#45;&gt;Node29</title>
<path fill="none" stroke="midnightblue" d="M1580.35,-190.32C1597.67,-181.66 1624.52,-168.24 1644.5,-158.25"/>
<polygon fill="midnightblue" stroke="midnightblue" points="1646.31,-161.26 1653.69,-153.65 1643.18,-155 1646.31,-161.26"/>
</g>
<!-- Node30&#45;&gt;Node2 -->
<g id="edge44" class="edge">
<title>Node30&#45;&gt;Node2</title>
<path fill="none" stroke="midnightblue" d="M1415.29,-246.14C1416.75,-232.76 1417.61,-207.13 1406,-190 1376.99,-147.19 1353.19,-149.97 1304,-134 1191.91,-97.6 1054.19,-87.25 973.35,-84.42"/>
<polygon fill="midnightblue" stroke="midnightblue" points="973.41,-80.92 963.3,-84.09 973.18,-87.91 973.41,-80.92"/>
</g>
<!-- Node30&#45;&gt;Node10 -->
<g id="edge45" class="edge">
<title>Node30&#45;&gt;Node10</title>
<path fill="none" stroke="midnightblue" d="M1382.15,-246.44C1347.6,-237.16 1292.32,-222.31 1254.42,-212.13"/>
<polygon fill="midnightblue" stroke="midnightblue" points="1255.27,-208.73 1244.7,-209.52 1253.45,-215.49 1255.27,-208.73"/>
</g>
<!-- Node31 -->
<g id="node31" class="node">
<title>Node31</title>
<g id="a_node31"><a xlink:title=" ">
<polygon fill="white" stroke="#bfbfbf" points="1285,-190.5 1285,-209.5 1329,-209.5 1329,-190.5 1285,-190.5"/>
<text text-anchor="middle" x="1307" y="-197.5" font-family="Helvetica,sans-Serif" font-size="10.00">ctime</text>
</a>
</g>
</g>
<!-- Node30&#45;&gt;Node31 -->
<g id="edge46" class="edge">
<title>Node30&#45;&gt;Node31</title>
<path fill="none" stroke="midnightblue" d="M1396.81,-246.32C1379.65,-237.66 1353.05,-224.24 1333.25,-214.25"/>
<polygon fill="midnightblue" stroke="midnightblue" points="1334.65,-211.04 1324.15,-209.65 1331.5,-217.28 1334.65,-211.04"/>
</g>
<!-- Node32 -->
<g id="node32" class="node">
<title>Node32</title>
<g id="a_node32"><a xlink:title=" ">
<polygon fill="white" stroke="#bfbfbf" points="1347,-190.5 1347,-209.5 1397,-209.5 1397,-190.5 1347,-190.5"/>
<text text-anchor="middle" x="1372" y="-197.5" font-family="Helvetica,sans-Serif" font-size="10.00">chrono</text>
</a>
</g>
</g>
<!-- Node30&#45;&gt;Node32 -->
<g id="edge47" class="edge">
<title>Node30&#45;&gt;Node32</title>
<path fill="none" stroke="midnightblue" d="M1407.06,-246.08C1401.07,-238.38 1392.25,-227.03 1384.95,-217.65"/>
<polygon fill="midnightblue" stroke="midnightblue" points="1387.71,-215.5 1378.81,-209.75 1382.18,-219.79 1387.71,-215.5"/>
</g>
<!-- Node33&#45;&gt;Node2 -->
<g id="edge54" class="edge">
<title>Node33&#45;&gt;Node2</title>
<path fill="none" stroke="midnightblue" d="M652.79,-307.81C557.62,-301.91 375.27,-287.88 356,-266 350.12,-259.33 353.93,-254.64 356,-246 369.03,-191.69 366.94,-165.59 413,-134 480.17,-87.93 718,-82.41 836.65,-82.64"/>
<polygon fill="midnightblue" stroke="midnightblue" points="836.7,-86.14 846.71,-82.67 836.72,-79.14 836.7,-86.14"/>
</g>
<!-- Node33&#45;&gt;Node6 -->
<g id="edge57" class="edge">
<title>Node33&#45;&gt;Node6</title>
<path fill="none" stroke="midnightblue" d="M766.41,-302.44C829.81,-292.83 932.65,-277.23 999.8,-267.04"/>
<polygon fill="midnightblue" stroke="midnightblue" points="1000.49,-270.48 1009.85,-265.52 999.44,-263.56 1000.49,-270.48"/>
</g>
<!-- Node33&#45;&gt;Node12 -->
<g id="edge55" class="edge">
<title>Node33&#45;&gt;Node12</title>
<path fill="none" stroke="midnightblue" d="M708.84,-302.38C707.52,-288.86 707,-262.51 720,-246 770.14,-182.31 867.21,-158.47 923.26,-149.78"/>
<polygon fill="midnightblue" stroke="midnightblue" points="923.84,-153.24 933.23,-148.33 922.83,-146.31 923.84,-153.24"/>
</g>
<!-- Node33&#45;&gt;Node17 -->
<g id="edge56" class="edge">
<title>Node33&#45;&gt;Node17</title>
<path fill="none" stroke="midnightblue" d="M697.37,-302.37C669.74,-283.49 603.72,-238.38 569.84,-215.24"/>
<polygon fill="midnightblue" stroke="midnightblue" points="571.81,-212.34 561.57,-209.59 567.86,-218.12 571.81,-212.34"/>
</g>
<!-- Node34&#45;&gt;Node2 -->
<g id="edge59" class="edge">
<title>Node34&#45;&gt;Node2</title>
<path fill="none" stroke="midnightblue" d="M808.2,-246.26C824.23,-219.31 873.11,-137.12 894.64,-100.92"/>
<polygon fill="midnightblue" stroke="midnightblue" points="897.83,-102.4 899.93,-92.02 891.81,-98.83 897.83,-102.4"/>
</g>
<!-- Node34&#45;&gt;Node10 -->
<g id="edge60" class="edge">
<title>Node34&#45;&gt;Node10</title>
<path fill="none" stroke="midnightblue" d="M870.86,-246.46C938.64,-237.88 1046.12,-224.1 1149.41,-210.07"/>
<polygon fill="midnightblue" stroke="midnightblue" points="1149.95,-213.52 1159.39,-208.71 1149.01,-206.59 1149.95,-213.52"/>
</g>
<!-- Node34&#45;&gt;Node18 -->
<g id="edge61" class="edge">
<title>Node34&#45;&gt;Node18</title>
<path fill="none" stroke="midnightblue" d="M728.43,-246.85C659.96,-238.94 555.81,-225.83 466,-210 376.06,-194.15 272,-169.91 214.32,-155.95"/>
<polygon fill="midnightblue" stroke="midnightblue" points="214.99,-152.51 204.45,-153.55 213.34,-159.31 214.99,-152.51"/>
</g>
<!-- Node35&#45;&gt;Node2 -->
<g id="edge70" class="edge">
<title>Node35&#45;&gt;Node2</title>
<path fill="none" stroke="midnightblue" d="M438,-246.35C426.05,-224.44 398.98,-166.26 428,-134 454.82,-104.19 711.24,-90.65 836.63,-85.77"/>
<polygon fill="midnightblue" stroke="midnightblue" points="837.03,-89.26 846.89,-85.38 836.76,-82.27 837.03,-89.26"/>
</g>
<!-- Node35&#45;&gt;Node10 -->
<g id="edge71" class="edge">
<title>Node35&#45;&gt;Node10</title>
<path fill="none" stroke="midnightblue" d="M521.11,-252.03C649.76,-246.7 914.5,-233.86 1149.32,-209.98"/>
<polygon fill="midnightblue" stroke="midnightblue" points="1149.83,-213.45 1159.42,-208.95 1149.11,-206.48 1149.83,-213.45"/>
</g>
</g>
</svg>
