<?xml version="1.0" encoding="UTF-8" standalone="no"?>
<!DOCTYPE svg PUBLIC "-//W3C//DTD SVG 1.1//EN"
 "http://www.w3.org/Graphics/SVG/1.1/DTD/svg11.dtd">
<!-- Generated by graphviz version 2.43.0 (0)
 -->
<!-- Title: Graphical Class Hierarchy Pages: 1 -->
<svg width="283pt" height="104pt"
 viewBox="0.00 0.00 283.00 104.00" xmlns="http://www.w3.org/2000/svg" xmlns:xlink="http://www.w3.org/1999/xlink">
<g id="graph0" class="graph" transform="scale(1 1) rotate(0) translate(4 100)">
<title>Graphical Class Hierarchy</title>
<polygon fill="white" stroke="transparent" points="-4,4 -4,-100 279,-100 279,4 -4,4"/>
<!-- Node0 -->
<g id="node1" class="node">
<title>Node0</title>
<g id="a_node1"><a xlink:href="classlog4cplus_1_1Layout.html" target="_top" xlink:title="This class is used to layout strings sent to an log4cplus::Appender.">
<polygon fill="white" stroke="black" points="0,-38.5 0,-57.5 102,-57.5 102,-38.5 0,-38.5"/>
<text text-anchor="middle" x="51" y="-45.5" font-family="Helvetica,sans-Serif" font-size="10.00">log4cplus::Layout</text>
</a>
</g>
</g>
<!-- Node1 -->
<g id="node2" class="node">
<title>Node1</title>
<g id="a_node2"><a xlink:href="classlog4cplus_1_1PatternLayout.html" target="_top" xlink:title="A flexible layout configurable with pattern string.">
<polygon fill="white" stroke="black" points="138,-76.5 138,-95.5 275,-95.5 275,-76.5 138,-76.5"/>
<text text-anchor="middle" x="206.5" y="-83.5" font-family="Helvetica,sans-Serif" font-size="10.00">log4cplus::PatternLayout</text>
</a>
</g>
</g>
<!-- Node0&#45;&gt;Node1 -->
<g id="edge1" class="edge">
<title>Node0&#45;&gt;Node1</title>
<path fill="none" stroke="midnightblue" d="M100.64,-60.04C122.08,-65.35 146.92,-71.5 167.04,-76.48"/>
<polygon fill="midnightblue" stroke="midnightblue" points="101.28,-56.59 90.73,-57.59 99.6,-63.39 101.28,-56.59"/>
</g>
<!-- Node2 -->
<g id="node3" class="node">
<title>Node2</title>
<g id="a_node3"><a xlink:href="classlog4cplus_1_1SimpleLayout.html" target="_top" xlink:title="SimpleLayout consists of the LogLevel of the log statement, followed by &quot; &#45; &quot; and then the log messag...">
<polygon fill="white" stroke="black" points="138.5,-38.5 138.5,-57.5 274.5,-57.5 274.5,-38.5 138.5,-38.5"/>
<text text-anchor="middle" x="206.5" y="-45.5" font-family="Helvetica,sans-Serif" font-size="10.00">log4cplus::SimpleLayout</text>
</a>
</g>
</g>
<!-- Node0&#45;&gt;Node2 -->
<g id="edge2" class="edge">
<title>Node0&#45;&gt;Node2</title>
<path fill="none" stroke="midnightblue" d="M112.47,-48C120.97,-48 129.76,-48 138.38,-48"/>
<polygon fill="midnightblue" stroke="midnightblue" points="112.26,-44.5 102.26,-48 112.26,-51.5 112.26,-44.5"/>
</g>
<!-- Node3 -->
<g id="node4" class="node">
<title>Node3</title>
<g id="a_node4"><a xlink:href="classlog4cplus_1_1TTCCLayout.html" target="_top" xlink:title="TTCC layout format consists of time, thread, Logger and nested diagnostic context information,...">
<polygon fill="white" stroke="black" points="143,-0.5 143,-19.5 270,-19.5 270,-0.5 143,-0.5"/>
<text text-anchor="middle" x="206.5" y="-7.5" font-family="Helvetica,sans-Serif" font-size="10.00">log4cplus::TTCCLayout</text>
</a>
</g>
</g>
<!-- Node0&#45;&gt;Node3 -->
<g id="edge3" class="edge">
<title>Node0&#45;&gt;Node3</title>
<path fill="none" stroke="midnightblue" d="M100.64,-35.96C122.08,-30.65 146.92,-24.5 167.04,-19.52"/>
<polygon fill="midnightblue" stroke="midnightblue" points="99.6,-32.61 90.73,-38.41 101.28,-39.41 99.6,-32.61"/>
</g>
</g>
</svg>
