<?xml version="1.0" encoding="UTF-8" standalone="no"?>
<!DOCTYPE svg PUBLIC "-//W3C//DTD SVG 1.1//EN"
 "http://www.w3.org/Graphics/SVG/1.1/DTD/svg11.dtd">
<!-- Generated by graphviz version 2.43.0 (0)
 -->
<!-- Title: Graphical Class Hierarchy Pages: 1 -->
<svg width="959pt" height="1067pt"
 viewBox="0.00 0.00 959.00 1066.50" xmlns="http://www.w3.org/2000/svg" xmlns:xlink="http://www.w3.org/1999/xlink">
<g id="graph0" class="graph" transform="scale(1 1) rotate(0) translate(4 1062.5)">
<title>Graphical Class Hierarchy</title>
<polygon fill="white" stroke="transparent" points="-4,4 -4,-1062.5 955,-1062.5 955,4 -4,4"/>
<!-- Node0 -->
<g id="node1" class="node">
<title>Node0</title>
<g id="a_node1"><a xlink:href="classlog4cplus_1_1spi_1_1AppenderAttachable.html" target="_top" xlink:title="This Interface is for attaching Appenders to objects.">
<polygon fill="white" stroke="black" points="0,-1011.5 0,-1041.5 136,-1041.5 136,-1011.5 0,-1011.5"/>
<text text-anchor="start" x="8" y="-1029.5" font-family="Helvetica,sans-Serif" font-size="10.00">log4cplus::spi::Appender</text>
<text text-anchor="middle" x="68" y="-1018.5" font-family="Helvetica,sans-Serif" font-size="10.00">Attachable</text>
</a>
</g>
</g>
<!-- Node1 -->
<g id="node2" class="node">
<title>Node1</title>
<g id="a_node2"><a xlink:href="classlog4cplus_1_1Logger.html" target="_top" xlink:title="This is the central class in the log4cplus package.">
<polygon fill="white" stroke="black" points="201.5,-1039 201.5,-1058 303.5,-1058 303.5,-1039 201.5,-1039"/>
<text text-anchor="middle" x="252.5" y="-1046" font-family="Helvetica,sans-Serif" font-size="10.00">log4cplus::Logger</text>
</a>
</g>
</g>
<!-- Node0&#45;&gt;Node1 -->
<g id="edge1" class="edge">
<title>Node0&#45;&gt;Node1</title>
<path fill="none" stroke="midnightblue" d="M146.14,-1035.8C164.8,-1038.05 184.26,-1040.39 201.31,-1042.45"/>
<polygon fill="midnightblue" stroke="midnightblue" points="146.53,-1032.32 136.18,-1034.6 145.69,-1039.27 146.53,-1032.32"/>
</g>
<!-- Node2 -->
<g id="node3" class="node">
<title>Node2</title>
<g id="a_node3"><a xlink:href="classlog4cplus_1_1helpers_1_1AppenderAttachableImpl.html" target="_top" xlink:title="This Interface is for attaching Appenders to objects.">
<polygon fill="white" stroke="black" points="181,-989.5 181,-1019.5 324,-1019.5 324,-989.5 181,-989.5"/>
<text text-anchor="start" x="189" y="-1007.5" font-family="Helvetica,sans-Serif" font-size="10.00">log4cplus::helpers</text>
<text text-anchor="middle" x="252.5" y="-996.5" font-family="Helvetica,sans-Serif" font-size="10.00">::AppenderAttachableImpl</text>
</a>
</g>
</g>
<!-- Node0&#45;&gt;Node2 -->
<g id="edge2" class="edge">
<title>Node0&#45;&gt;Node2</title>
<path fill="none" stroke="midnightblue" d="M146.17,-1017.2C157.66,-1015.81 169.45,-1014.39 180.79,-1013.02"/>
<polygon fill="midnightblue" stroke="midnightblue" points="145.69,-1013.73 136.18,-1018.4 146.53,-1020.68 145.69,-1013.73"/>
</g>
<!-- Node3 -->
<g id="node4" class="node">
<title>Node3</title>
<g id="a_node4"><a xlink:href="classlog4cplus_1_1AsyncAppender.html" target="_top" xlink:title="This Appender is a wrapper to which other appenders can be attached.">
<polygon fill="white" stroke="black" points="389,-976 389,-995 534,-995 534,-976 389,-976"/>
<text text-anchor="middle" x="461.5" y="-983" font-family="Helvetica,sans-Serif" font-size="10.00">log4cplus::AsyncAppender</text>
</a>
</g>
</g>
<!-- Node2&#45;&gt;Node3 -->
<g id="edge3" class="edge">
<title>Node2&#45;&gt;Node3</title>
<path fill="none" stroke="midnightblue" d="M334.31,-997.08C352.27,-995.43 371.19,-993.7 388.75,-992.09"/>
<polygon fill="midnightblue" stroke="midnightblue" points="333.8,-993.61 324.16,-998.01 334.44,-1000.59 333.8,-993.61"/>
</g>
<!-- Node35 -->
<g id="node5" class="node">
<title>Node35</title>
<g id="a_node5"><a xlink:href="classlog4cplus_1_1spi_1_1LoggerImpl.html" target="_top" xlink:title="This is the central class in the log4cplus package.">
<polygon fill="white" stroke="black" points="389.5,-1014 389.5,-1033 533.5,-1033 533.5,-1014 389.5,-1014"/>
<text text-anchor="middle" x="461.5" y="-1021" font-family="Helvetica,sans-Serif" font-size="10.00">log4cplus::spi::LoggerImpl</text>
</a>
</g>
</g>
<!-- Node2&#45;&gt;Node35 -->
<g id="edge4" class="edge">
<title>Node2&#45;&gt;Node35</title>
<path fill="none" stroke="midnightblue" d="M334.17,-1011.9C352.41,-1013.58 371.65,-1015.34 389.46,-1016.98"/>
<polygon fill="midnightblue" stroke="midnightblue" points="334.44,-1008.41 324.16,-1010.99 333.8,-1015.39 334.44,-1008.41"/>
</g>
<!-- Node36 -->
<g id="node6" class="node">
<title>Node36</title>
<g id="a_node6"><a xlink:href="classlog4cplus_1_1spi_1_1RootLogger.html" target="_top" xlink:title="RootLogger sits at the top of the logger hierachy.">
<polygon fill="white" stroke="black" points="596.5,-1014 596.5,-1033 741.5,-1033 741.5,-1014 596.5,-1014"/>
<text text-anchor="middle" x="669" y="-1021" font-family="Helvetica,sans-Serif" font-size="10.00">log4cplus::spi::RootLogger</text>
</a>
</g>
</g>
<!-- Node35&#45;&gt;Node36 -->
<g id="edge5" class="edge">
<title>Node35&#45;&gt;Node36</title>
<path fill="none" stroke="midnightblue" d="M543.63,-1023.5C561.03,-1023.5 579.28,-1023.5 596.29,-1023.5"/>
<polygon fill="midnightblue" stroke="midnightblue" points="543.51,-1020 533.51,-1023.5 543.51,-1027 543.51,-1020"/>
</g>
<!-- Node21 -->
<g id="node7" class="node">
<title>Node21</title>
<g id="a_node7"><a xlink:href="classlog4cplus_1_1helpers_1_1IConnectorThreadClient.html" target="_top" xlink:title="Interface implemented by users of ConnectorThread.">
<polygon fill="white" stroke="black" points="184,-445.5 184,-475.5 321,-475.5 321,-445.5 184,-445.5"/>
<text text-anchor="start" x="192" y="-463.5" font-family="Helvetica,sans-Serif" font-size="10.00">log4cplus::helpers</text>
<text text-anchor="middle" x="252.5" y="-452.5" font-family="Helvetica,sans-Serif" font-size="10.00">::IConnectorThreadClient</text>
</a>
</g>
</g>
<!-- Node20 -->
<g id="node8" class="node">
<title>Node20</title>
<g id="a_node8"><a xlink:href="classlog4cplus_1_1SocketAppender.html" target="_top" xlink:title="Sends spi::InternalLoggingEvent objects to a remote a log server.">
<polygon fill="white" stroke="black" points="387.5,-432 387.5,-451 535.5,-451 535.5,-432 387.5,-432"/>
<text text-anchor="middle" x="461.5" y="-439" font-family="Helvetica,sans-Serif" font-size="10.00">log4cplus::SocketAppender</text>
</a>
</g>
</g>
<!-- Node21&#45;&gt;Node20 -->
<g id="edge6" class="edge">
<title>Node21&#45;&gt;Node20</title>
<path fill="none" stroke="darkgreen" d="M331.32,-453.36C349.64,-451.68 369.1,-449.89 387.21,-448.23"/>
<polygon fill="darkgreen" stroke="darkgreen" points="330.92,-449.88 321.28,-454.28 331.56,-456.85 330.92,-449.88"/>
</g>
<!-- Node22 -->
<g id="node9" class="node">
<title>Node22</title>
<g id="a_node9"><a xlink:href="classlog4cplus_1_1SysLogAppender.html" target="_top" xlink:title="Appends log events to a file.">
<polygon fill="white" stroke="black" points="386.5,-470 386.5,-489 536.5,-489 536.5,-470 386.5,-470"/>
<text text-anchor="middle" x="461.5" y="-477" font-family="Helvetica,sans-Serif" font-size="10.00">log4cplus::SysLogAppender</text>
</a>
</g>
</g>
<!-- Node21&#45;&gt;Node22 -->
<g id="edge7" class="edge">
<title>Node21&#45;&gt;Node22</title>
<path fill="none" stroke="darkgreen" d="M331.46,-467.66C349.5,-469.31 368.63,-471.07 386.49,-472.71"/>
<polygon fill="darkgreen" stroke="darkgreen" points="331.56,-464.15 321.28,-466.72 330.92,-471.12 331.56,-464.15"/>
</g>
<!-- Node24 -->
<g id="node10" class="node">
<title>Node24</title>
<g id="a_node10"><a xlink:href="classlog4cplus_1_1helpers_1_1SharedObject.html" target="_top" xlink:title=" ">
<polygon fill="white" stroke="black" points="15.5,-480.5 15.5,-510.5 120.5,-510.5 120.5,-480.5 15.5,-480.5"/>
<text text-anchor="start" x="23.5" y="-498.5" font-family="Helvetica,sans-Serif" font-size="10.00">log4cplus::helpers</text>
<text text-anchor="middle" x="68" y="-487.5" font-family="Helvetica,sans-Serif" font-size="10.00">::SharedObject</text>
</a>
</g>
</g>
<!-- Node24&#45;&gt;Node35 -->
<g id="edge38" class="edge">
<title>Node24&#45;&gt;Node35</title>
<path fill="none" stroke="midnightblue" d="M76.42,-520.12C91.05,-566.84 126.2,-670.84 172,-750.5 243.21,-874.35 247.8,-928.86 369,-1004.5 375.19,-1008.37 382.04,-1011.46 389.11,-1013.93"/>
<polygon fill="midnightblue" stroke="midnightblue" points="79.76,-519.05 73.46,-510.53 73.07,-521.12 79.76,-519.05"/>
</g>
<!-- Node4 -->
<g id="node11" class="node">
<title>Node4</title>
<g id="a_node11"><a xlink:href="classlog4cplus_1_1Appender.html" target="_top" xlink:title="Extend this class for implementing your own strategies for printing log statements.">
<polygon fill="white" stroke="black" points="194.5,-672 194.5,-691 310.5,-691 310.5,-672 194.5,-672"/>
<text text-anchor="middle" x="252.5" y="-679" font-family="Helvetica,sans-Serif" font-size="10.00">log4cplus::Appender</text>
</a>
</g>
</g>
<!-- Node24&#45;&gt;Node4 -->
<g id="edge8" class="edge">
<title>Node24&#45;&gt;Node4</title>
<path fill="none" stroke="midnightblue" d="M91.11,-518.03C131.1,-558.79 213.93,-643.21 241.97,-671.79"/>
<polygon fill="midnightblue" stroke="midnightblue" points="93.44,-515.41 83.93,-510.72 88.44,-520.31 93.44,-515.41"/>
</g>
<!-- Node25 -->
<g id="node28" class="node">
<title>Node25</title>
<g id="a_node28"><a xlink:href="classlog4cplus_1_1LogLevelTranslator.html" target="_top" xlink:title="This is a base class used by LogLevelManager to translate between numeric LogLevel and log level name...">
<polygon fill="white" stroke="black" points="172,-185 172,-204 333,-204 333,-185 172,-185"/>
<text text-anchor="middle" x="252.5" y="-192" font-family="Helvetica,sans-Serif" font-size="10.00">log4cplus::LogLevelTranslator</text>
</a>
</g>
</g>
<!-- Node24&#45;&gt;Node25 -->
<g id="edge28" class="edge">
<title>Node24&#45;&gt;Node25</title>
<path fill="none" stroke="midnightblue" d="M76.34,-470.89C90.22,-426.97 123.34,-333.41 172,-266.5 190.95,-240.45 220.59,-216.72 237.82,-204.08"/>
<polygon fill="midnightblue" stroke="midnightblue" points="72.99,-469.87 73.38,-480.46 79.68,-471.95 72.99,-469.87"/>
</g>
<!-- Node27 -->
<g id="node30" class="node">
<title>Node27</title>
<g id="a_node30"><a xlink:href="classlog4cplus_1_1spi_1_1Filter.html" target="_top" xlink:title="Users should extend this class to implement customized logging event filtering.">
<polygon fill="white" stroke="black" points="195.5,-276 195.5,-295 309.5,-295 309.5,-276 195.5,-276"/>
<text text-anchor="middle" x="252.5" y="-283" font-family="Helvetica,sans-Serif" font-size="10.00">log4cplus::spi::Filter</text>
</a>
</g>
</g>
<!-- Node24&#45;&gt;Node27 -->
<g id="edge30" class="edge">
<title>Node24&#45;&gt;Node27</title>
<path fill="none" stroke="midnightblue" d="M88.69,-472.85C128.13,-427.46 215.39,-327.05 242.97,-295.31"/>
<polygon fill="midnightblue" stroke="midnightblue" points="86.04,-470.55 82.12,-480.4 91.33,-475.15 86.04,-470.55"/>
</g>
<!-- Node37 -->
<g id="node38" class="node">
<title>Node37</title>
<g id="a_node38"><a xlink:href="classlog4cplus_1_1thread_1_1AbstractThread.html" target="_top" xlink:title="There are many cross&#45;platform C++ Threading libraries.">
<polygon fill="white" stroke="black" points="199,-29.5 199,-59.5 306,-59.5 306,-29.5 199,-29.5"/>
<text text-anchor="start" x="207" y="-47.5" font-family="Helvetica,sans-Serif" font-size="10.00">log4cplus::thread::</text>
<text text-anchor="middle" x="252.5" y="-36.5" font-family="Helvetica,sans-Serif" font-size="10.00">AbstractThread</text>
</a>
</g>
</g>
<!-- Node24&#45;&gt;Node37 -->
<g id="edge39" class="edge">
<title>Node24&#45;&gt;Node37</title>
<path fill="none" stroke="midnightblue" d="M74.92,-470.48C88.36,-415.57 123.81,-281.01 172,-175.5 192.23,-131.22 224.16,-83.3 240.73,-59.58"/>
<polygon fill="midnightblue" stroke="midnightblue" points="71.48,-469.82 72.53,-480.36 78.28,-471.47 71.48,-469.82"/>
</g>
<!-- Node39 -->
<g id="node40" class="node">
<title>Node39</title>
<g id="a_node40"><a xlink:href="classlog4cplus_1_1thread_1_1Queue.html" target="_top" xlink:title="Single consumer, multiple producers queue.">
<polygon fill="white" stroke="black" points="199,-710.5 199,-740.5 306,-740.5 306,-710.5 199,-710.5"/>
<text text-anchor="start" x="207" y="-728.5" font-family="Helvetica,sans-Serif" font-size="10.00">log4cplus::thread::</text>
<text text-anchor="middle" x="252.5" y="-717.5" font-family="Helvetica,sans-Serif" font-size="10.00">Queue</text>
</a>
</g>
</g>
<!-- Node24&#45;&gt;Node39 -->
<g id="edge41" class="edge">
<title>Node24&#45;&gt;Node39</title>
<path fill="none" stroke="midnightblue" d="M74.78,-520.58C85.99,-563.68 114.81,-651.84 172,-700.5 179.71,-707.06 189.15,-711.91 198.8,-715.48"/>
<polygon fill="midnightblue" stroke="midnightblue" points="78.11,-519.5 72.3,-510.64 71.32,-521.19 78.11,-519.5"/>
</g>
<!-- Node4&#45;&gt;Node3 -->
<g id="edge9" class="edge">
<title>Node4&#45;&gt;Node3</title>
<path fill="none" stroke="midnightblue" d="M319.91,-691.25C324.8,-693.96 329.26,-697.32 333,-701.5 412.24,-790.1 287.93,-879.58 369,-966.5 374.53,-972.43 381.39,-976.77 388.86,-979.92"/>
<polygon fill="midnightblue" stroke="midnightblue" points="321.28,-688.03 310.73,-687.07 318.38,-694.4 321.28,-688.03"/>
</g>
<!-- Node4&#45;&gt;Node20 -->
<g id="edge25" class="edge">
<title>Node4&#45;&gt;Node20</title>
<path fill="none" stroke="midnightblue" d="M257.8,-661.65C268.4,-617.82 300.04,-512.59 369,-460.5 374.57,-456.29 380.84,-452.97 387.44,-450.34"/>
<polygon fill="midnightblue" stroke="midnightblue" points="254.34,-661.09 255.51,-671.62 261.16,-662.66 254.34,-661.09"/>
</g>
<!-- Node4&#45;&gt;Node22 -->
<g id="edge26" class="edge">
<title>Node4&#45;&gt;Node22</title>
<path fill="none" stroke="midnightblue" d="M260.03,-661.72C273.71,-623.59 309.15,-540 369,-498.5 374.47,-494.71 380.53,-491.65 386.86,-489.17"/>
<polygon fill="midnightblue" stroke="midnightblue" points="256.58,-661.01 256.62,-671.6 263.19,-663.3 256.58,-661.01"/>
</g>
<!-- Node5 -->
<g id="node12" class="node">
<title>Node5</title>
<g id="a_node12"><a xlink:href="classlog4cplus_1_1CLFSAppender.html" target="_top" xlink:title=" ">
<polygon fill="white" stroke="black" points="391.5,-710 391.5,-729 531.5,-729 531.5,-710 391.5,-710"/>
<text text-anchor="middle" x="461.5" y="-717" font-family="Helvetica,sans-Serif" font-size="10.00">log4cplus::CLFSAppender</text>
</a>
</g>
</g>
<!-- Node4&#45;&gt;Node5 -->
<g id="edge10" class="edge">
<title>Node4&#45;&gt;Node5</title>
<path fill="none" stroke="midnightblue" d="M315.31,-692.85C345.01,-698.3 380.21,-704.76 408.51,-709.96"/>
<polygon fill="midnightblue" stroke="midnightblue" points="315.94,-689.4 305.47,-691.04 314.67,-696.29 315.94,-689.4"/>
</g>
<!-- Node6 -->
<g id="node13" class="node">
<title>Node6</title>
<g id="a_node13"><a xlink:href="classlog4cplus_1_1CallbackAppender.html" target="_top" xlink:title="Send log events to a C function callback.">
<polygon fill="white" stroke="black" points="382.5,-672 382.5,-691 540.5,-691 540.5,-672 382.5,-672"/>
<text text-anchor="middle" x="461.5" y="-679" font-family="Helvetica,sans-Serif" font-size="10.00">log4cplus::CallbackAppender</text>
</a>
</g>
</g>
<!-- Node4&#45;&gt;Node6 -->
<g id="edge11" class="edge">
<title>Node4&#45;&gt;Node6</title>
<path fill="none" stroke="midnightblue" d="M320.69,-681.5C340.34,-681.5 361.99,-681.5 382.27,-681.5"/>
<polygon fill="midnightblue" stroke="midnightblue" points="320.61,-678 310.61,-681.5 320.61,-685 320.61,-678"/>
</g>
<!-- Node7 -->
<g id="node14" class="node">
<title>Node7</title>
<g id="a_node14"><a xlink:href="classlog4cplus_1_1ConsoleAppender.html" target="_top" xlink:title="ConsoleAppender appends log events to std::cout or std::cerr using a layout specified by the user.">
<polygon fill="white" stroke="black" points="384,-634 384,-653 539,-653 539,-634 384,-634"/>
<text text-anchor="middle" x="461.5" y="-641" font-family="Helvetica,sans-Serif" font-size="10.00">log4cplus::ConsoleAppender</text>
</a>
</g>
</g>
<!-- Node4&#45;&gt;Node7 -->
<g id="edge12" class="edge">
<title>Node4&#45;&gt;Node7</title>
<path fill="none" stroke="midnightblue" d="M315.31,-670.15C345.01,-664.7 380.21,-658.24 408.51,-653.04"/>
<polygon fill="midnightblue" stroke="midnightblue" points="314.67,-666.71 305.47,-671.96 315.94,-673.6 314.67,-666.71"/>
</g>
<!-- Node8 -->
<g id="node15" class="node">
<title>Node8</title>
<g id="a_node15"><a xlink:href="classlog4cplus_1_1DeviceAppender.html" target="_top" xlink:title="This appender wraps Boost IOStreams&#39; Device concept instance as underlying sink for the appender.">
<polygon fill="white" stroke="black" points="387,-584.5 387,-614.5 536,-614.5 536,-584.5 387,-584.5"/>
<text text-anchor="start" x="395" y="-602.5" font-family="Helvetica,sans-Serif" font-size="10.00">log4cplus::DeviceAppender</text>
<text text-anchor="middle" x="461.5" y="-591.5" font-family="Helvetica,sans-Serif" font-size="10.00">&lt; Device &gt;</text>
</a>
</g>
</g>
<!-- Node4&#45;&gt;Node8 -->
<g id="edge13" class="edge">
<title>Node4&#45;&gt;Node8</title>
<path fill="none" stroke="midnightblue" d="M279.04,-667.12C302.04,-654.61 337.03,-636.63 369,-624.5 378.55,-620.88 388.84,-617.55 398.95,-614.57"/>
<polygon fill="midnightblue" stroke="midnightblue" points="277.34,-664.06 270.26,-671.95 280.71,-670.2 277.34,-664.06"/>
</g>
<!-- Node9 -->
<g id="node16" class="node">
<title>Node9</title>
<g id="a_node16"><a xlink:href="classlog4cplus_1_1FileAppenderBase.html" target="_top" xlink:title="Base class for Appenders writing log events to a file.">
<polygon fill="white" stroke="black" points="383,-546 383,-565 540,-565 540,-546 383,-546"/>
<text text-anchor="middle" x="461.5" y="-553" font-family="Helvetica,sans-Serif" font-size="10.00">log4cplus::FileAppenderBase</text>
</a>
</g>
</g>
<!-- Node4&#45;&gt;Node9 -->
<g id="edge14" class="edge">
<title>Node4&#45;&gt;Node9</title>
<path fill="none" stroke="midnightblue" d="M267.42,-663.88C287.3,-639.98 326.19,-597.73 369,-575.5 377.37,-571.15 386.64,-567.75 395.98,-565.09"/>
<polygon fill="midnightblue" stroke="midnightblue" points="264.58,-661.82 260.98,-671.79 270.01,-666.24 264.58,-661.82"/>
</g>
<!-- Node14 -->
<g id="node21" class="node">
<title>Node14</title>
<g id="a_node21"><a xlink:href="classlog4cplus_1_1Log4jUdpAppender.html" target="_top" xlink:title="Sends log events as Log4j XML to a remote a log server.">
<polygon fill="white" stroke="black" points="381,-508 381,-527 542,-527 542,-508 381,-508"/>
<text text-anchor="middle" x="461.5" y="-515" font-family="Helvetica,sans-Serif" font-size="10.00">log4cplus::Log4jUdpAppender</text>
</a>
</g>
</g>
<!-- Node4&#45;&gt;Node14 -->
<g id="edge19" class="edge">
<title>Node4&#45;&gt;Node14</title>
<path fill="none" stroke="midnightblue" d="M262.79,-662.8C279.46,-631.33 317.55,-568.15 369,-536.5 375.22,-532.67 382.08,-529.61 389.16,-527.15"/>
<polygon fill="midnightblue" stroke="midnightblue" points="259.61,-661.33 258.15,-671.82 265.84,-664.53 259.61,-661.33"/>
</g>
<!-- Node15 -->
<g id="node22" class="node">
<title>Node15</title>
<g id="a_node22"><a xlink:href="classlog4cplus_1_1MSTTSAppender.html" target="_top" xlink:title=" ">
<polygon fill="white" stroke="black" points="387,-938 387,-957 536,-957 536,-938 387,-938"/>
<text text-anchor="middle" x="461.5" y="-945" font-family="Helvetica,sans-Serif" font-size="10.00">log4cplus::MSTTSAppender</text>
</a>
</g>
</g>
<!-- Node4&#45;&gt;Node15 -->
<g id="edge20" class="edge">
<title>Node4&#45;&gt;Node15</title>
<path fill="none" stroke="midnightblue" d="M319.81,-691.34C324.72,-694.03 329.22,-697.36 333,-701.5 401.94,-776.88 298.5,-854.58 369,-928.5 374.04,-933.78 380.13,-937.8 386.76,-940.82"/>
<polygon fill="midnightblue" stroke="midnightblue" points="321.16,-688.11 310.61,-687.18 318.28,-694.49 321.16,-688.11"/>
</g>
<!-- Node16 -->
<g id="node23" class="node">
<title>Node16</title>
<g id="a_node23"><a xlink:href="classlog4cplus_1_1NTEventLogAppender.html" target="_top" xlink:title="Appends log events to NT EventLog.">
<polygon fill="white" stroke="black" points="374.5,-900 374.5,-919 548.5,-919 548.5,-900 374.5,-900"/>
<text text-anchor="middle" x="461.5" y="-907" font-family="Helvetica,sans-Serif" font-size="10.00">log4cplus::NTEventLogAppender</text>
</a>
</g>
</g>
<!-- Node4&#45;&gt;Node16 -->
<g id="edge21" class="edge">
<title>Node4&#45;&gt;Node16</title>
<path fill="none" stroke="midnightblue" d="M320.27,-691.8C324.98,-694.4 329.31,-697.59 333,-701.5 391.68,-763.7 309.04,-829.54 369,-890.5 372.64,-894.2 376.8,-897.27 381.29,-899.82"/>
<polygon fill="midnightblue" stroke="midnightblue" points="321.39,-688.46 310.84,-687.49 318.48,-694.83 321.39,-688.46"/>
</g>
<!-- Node17 -->
<g id="node24" class="node">
<title>Node17</title>
<g id="a_node24"><a xlink:href="classlog4cplus_1_1NullAppender.html" target="_top" xlink:title="Appends log events to a file.">
<polygon fill="white" stroke="black" points="394,-862 394,-881 529,-881 529,-862 394,-862"/>
<text text-anchor="middle" x="461.5" y="-869" font-family="Helvetica,sans-Serif" font-size="10.00">log4cplus::NullAppender</text>
</a>
</g>
</g>
<!-- Node4&#45;&gt;Node17 -->
<g id="edge22" class="edge">
<title>Node4&#45;&gt;Node17</title>
<path fill="none" stroke="midnightblue" d="M320.08,-691.98C324.83,-694.54 329.22,-697.67 333,-701.5 381.48,-750.59 319.51,-804.44 369,-852.5 375.87,-859.17 384.43,-863.77 393.54,-866.91"/>
<polygon fill="midnightblue" stroke="midnightblue" points="321.14,-688.62 310.59,-687.73 318.28,-695.01 321.14,-688.62"/>
</g>
<!-- Node18 -->
<g id="node25" class="node">
<title>Node18</title>
<g id="a_node25"><a xlink:href="classlog4cplus_1_1Qt4DebugAppender.html" target="_top" xlink:title=" ">
<polygon fill="white" stroke="black" points="379.5,-824 379.5,-843 543.5,-843 543.5,-824 379.5,-824"/>
<text text-anchor="middle" x="461.5" y="-831" font-family="Helvetica,sans-Serif" font-size="10.00">log4cplus::Qt4DebugAppender</text>
</a>
</g>
</g>
<!-- Node4&#45;&gt;Node18 -->
<g id="edge23" class="edge">
<title>Node4&#45;&gt;Node18</title>
<path fill="none" stroke="midnightblue" d="M320.01,-692.42C324.73,-694.88 329.15,-697.88 333,-701.5 371.41,-737.6 329.85,-779.21 369,-814.5 373.22,-818.3 377.99,-821.42 383.09,-823.97"/>
<polygon fill="midnightblue" stroke="midnightblue" points="321.16,-689.1 310.6,-688.29 318.35,-695.51 321.16,-689.1"/>
</g>
<!-- Node19 -->
<g id="node26" class="node">
<title>Node19</title>
<g id="a_node26"><a xlink:href="classlog4cplus_1_1Qt5DebugAppender.html" target="_top" xlink:title=" ">
<polygon fill="white" stroke="black" points="379.5,-786 379.5,-805 543.5,-805 543.5,-786 379.5,-786"/>
<text text-anchor="middle" x="461.5" y="-793" font-family="Helvetica,sans-Serif" font-size="10.00">log4cplus::Qt5DebugAppender</text>
</a>
</g>
</g>
<!-- Node4&#45;&gt;Node19 -->
<g id="edge24" class="edge">
<title>Node4&#45;&gt;Node19</title>
<path fill="none" stroke="midnightblue" d="M319.95,-693.25C324.62,-695.54 329.04,-698.26 333,-701.5 361.64,-724.89 339.88,-753.71 369,-776.5 373.86,-780.3 379.29,-783.39 385.01,-785.9"/>
<polygon fill="midnightblue" stroke="midnightblue" points="321.3,-690.02 310.72,-689.37 318.58,-696.47 321.3,-690.02"/>
</g>
<!-- Node23 -->
<g id="node27" class="node">
<title>Node23</title>
<g id="a_node27"><a xlink:href="classlog4cplus_1_1Win32ConsoleAppender.html" target="_top" xlink:title="Prints events to Win32 console.">
<polygon fill="white" stroke="black" points="369,-748 369,-767 554,-767 554,-748 369,-748"/>
<text text-anchor="middle" x="461.5" y="-755" font-family="Helvetica,sans-Serif" font-size="10.00">log4cplus::Win32ConsoleAppender</text>
</a>
</g>
</g>
<!-- Node4&#45;&gt;Node23 -->
<g id="edge27" class="edge">
<title>Node4&#45;&gt;Node23</title>
<path fill="none" stroke="midnightblue" d="M318.02,-694.41C323.23,-696.45 328.3,-698.79 333,-701.5 352.88,-712.96 348.89,-727.46 369,-738.5 376.11,-742.4 383.94,-745.51 391.92,-747.97"/>
<polygon fill="midnightblue" stroke="midnightblue" points="319.11,-691.09 308.52,-691.09 316.8,-697.7 319.11,-691.09"/>
</g>
<!-- Node10 -->
<g id="node17" class="node">
<title>Node10</title>
<g id="a_node17"><a xlink:href="classlog4cplus_1_1FileAppender.html" target="_top" xlink:title="Appends log events to a file.">
<polygon fill="white" stroke="black" points="602.5,-568 602.5,-587 735.5,-587 735.5,-568 602.5,-568"/>
<text text-anchor="middle" x="669" y="-575" font-family="Helvetica,sans-Serif" font-size="10.00">log4cplus::FileAppender</text>
</a>
</g>
</g>
<!-- Node9&#45;&gt;Node10 -->
<g id="edge15" class="edge">
<title>Node9&#45;&gt;Node10</title>
<path fill="none" stroke="midnightblue" d="M550.36,-564.91C567.77,-566.77 585.76,-568.7 602.28,-570.46"/>
<polygon fill="midnightblue" stroke="midnightblue" points="550.51,-561.4 540.19,-563.82 549.76,-568.36 550.51,-561.4"/>
</g>
<!-- Node13 -->
<g id="node20" class="node">
<title>Node13</title>
<g id="a_node20"><a xlink:href="classlog4cplus_1_1TimeBasedRollingFileAppender.html" target="_top" xlink:title="TimeBasedRollingFileAppender extends FileAppenderBase so that the underlying file is rolled over at a...">
<polygon fill="white" stroke="black" points="590,-518.5 590,-548.5 748,-548.5 748,-518.5 590,-518.5"/>
<text text-anchor="start" x="598" y="-536.5" font-family="Helvetica,sans-Serif" font-size="10.00">log4cplus::TimeBasedRolling</text>
<text text-anchor="middle" x="669" y="-525.5" font-family="Helvetica,sans-Serif" font-size="10.00">FileAppender</text>
</a>
</g>
</g>
<!-- Node9&#45;&gt;Node13 -->
<g id="edge18" class="edge">
<title>Node9&#45;&gt;Node13</title>
<path fill="none" stroke="midnightblue" d="M550.19,-546.11C563.37,-544.7 576.89,-543.25 589.86,-541.87"/>
<polygon fill="midnightblue" stroke="midnightblue" points="549.76,-542.64 540.19,-547.18 550.51,-549.6 549.76,-542.64"/>
</g>
<!-- Node11 -->
<g id="node18" class="node">
<title>Node11</title>
<g id="a_node18"><a xlink:href="classlog4cplus_1_1DailyRollingFileAppender.html" target="_top" xlink:title="DailyRollingFileAppender extends FileAppender so that the underlying file is rolled over at a user ch...">
<polygon fill="white" stroke="black" points="794.5,-584.5 794.5,-614.5 940.5,-614.5 940.5,-584.5 794.5,-584.5"/>
<text text-anchor="start" x="802.5" y="-602.5" font-family="Helvetica,sans-Serif" font-size="10.00">log4cplus::DailyRollingFile</text>
<text text-anchor="middle" x="867.5" y="-591.5" font-family="Helvetica,sans-Serif" font-size="10.00">Appender</text>
</a>
</g>
</g>
<!-- Node10&#45;&gt;Node11 -->
<g id="edge16" class="edge">
<title>Node10&#45;&gt;Node11</title>
<path fill="none" stroke="midnightblue" d="M746.02,-586.01C761.94,-587.79 778.67,-589.67 794.44,-591.43"/>
<polygon fill="midnightblue" stroke="midnightblue" points="746.03,-582.49 735.7,-584.86 745.25,-589.45 746.03,-582.49"/>
</g>
<!-- Node12 -->
<g id="node19" class="node">
<title>Node12</title>
<g id="a_node19"><a xlink:href="classlog4cplus_1_1RollingFileAppender.html" target="_top" xlink:title="RollingFileAppender extends FileAppender to backup the log files when they reach a certain size.">
<polygon fill="white" stroke="black" points="784,-546 784,-565 951,-565 951,-546 784,-546"/>
<text text-anchor="middle" x="867.5" y="-553" font-family="Helvetica,sans-Serif" font-size="10.00">log4cplus::RollingFileAppender</text>
</a>
</g>
</g>
<!-- Node10&#45;&gt;Node12 -->
<g id="edge17" class="edge">
<title>Node10&#45;&gt;Node12</title>
<path fill="none" stroke="midnightblue" d="M745.96,-569C758.34,-567.61 771.21,-566.17 783.73,-564.77"/>
<polygon fill="midnightblue" stroke="midnightblue" points="745.25,-565.55 735.7,-570.14 746.03,-572.51 745.25,-565.55"/>
</g>
<!-- Node26 -->
<g id="node29" class="node">
<title>Node26</title>
<g id="a_node29"><a xlink:href="classlog4cplus_1_1internal_1_1CustomLogLevelManager.html" target="_top" xlink:title="Custom log level manager used by C API.">
<polygon fill="white" stroke="black" points="388.5,-49.5 388.5,-79.5 534.5,-79.5 534.5,-49.5 388.5,-49.5"/>
<text text-anchor="start" x="396.5" y="-67.5" font-family="Helvetica,sans-Serif" font-size="10.00">log4cplus::internal</text>
<text text-anchor="middle" x="461.5" y="-56.5" font-family="Helvetica,sans-Serif" font-size="10.00">::CustomLogLevelManager</text>
</a>
</g>
</g>
<!-- Node25&#45;&gt;Node26 -->
<g id="edge29" class="edge">
<title>Node25&#45;&gt;Node26</title>
<path fill="none" stroke="midnightblue" d="M267.92,-177.01C288.13,-153.64 327.11,-112.51 369,-89.5 375.93,-85.69 383.48,-82.44 391.17,-79.66"/>
<polygon fill="midnightblue" stroke="midnightblue" points="265.16,-174.86 261.36,-184.75 270.5,-179.39 265.16,-174.86"/>
</g>
<!-- Node28 -->
<g id="node31" class="node">
<title>Node28</title>
<g id="a_node31"><a xlink:href="classlog4cplus_1_1spi_1_1DenyAllFilter.html" target="_top" xlink:title="This filter drops all logging events.">
<polygon fill="white" stroke="black" points="385.5,-344 385.5,-363 537.5,-363 537.5,-344 385.5,-344"/>
<text text-anchor="middle" x="461.5" y="-351" font-family="Helvetica,sans-Serif" font-size="10.00">log4cplus::spi::DenyAllFilter</text>
</a>
</g>
</g>
<!-- Node27&#45;&gt;Node28 -->
<g id="edge31" class="edge">
<title>Node27&#45;&gt;Node28</title>
<path fill="none" stroke="midnightblue" d="M281.86,-299.39C304.89,-310.21 338.44,-324.95 369,-334.5 380.77,-338.18 393.61,-341.35 405.86,-343.99"/>
<polygon fill="midnightblue" stroke="midnightblue" points="283.21,-296.15 272.68,-295.02 280.21,-302.48 283.21,-296.15"/>
</g>
<!-- Node29 -->
<g id="node32" class="node">
<title>Node29</title>
<g id="a_node32"><a xlink:href="classlog4cplus_1_1spi_1_1FunctionFilter.html" target="_top" xlink:title="This filter allows using std::function&lt;FilterResult(const InternalLoggingEvent &amp;)&gt;.">
<polygon fill="white" stroke="black" points="396,-294.5 396,-324.5 527,-324.5 527,-294.5 396,-294.5"/>
<text text-anchor="start" x="404" y="-312.5" font-family="Helvetica,sans-Serif" font-size="10.00">log4cplus::spi::Function</text>
<text text-anchor="middle" x="461.5" y="-301.5" font-family="Helvetica,sans-Serif" font-size="10.00">Filter</text>
</a>
</g>
</g>
<!-- Node27&#45;&gt;Node29 -->
<g id="edge32" class="edge">
<title>Node27&#45;&gt;Node29</title>
<path fill="none" stroke="midnightblue" d="M319.72,-293.18C344.01,-295.99 371.47,-299.18 395.64,-301.98"/>
<polygon fill="midnightblue" stroke="midnightblue" points="319.85,-289.67 309.52,-291.99 319.05,-296.62 319.85,-289.67"/>
</g>
<!-- Node30 -->
<g id="node33" class="node">
<title>Node30</title>
<g id="a_node33"><a xlink:href="classlog4cplus_1_1spi_1_1LogLevelMatchFilter.html" target="_top" xlink:title="This is a very simple filter based on LogLevel matching.">
<polygon fill="white" stroke="black" points="395,-245.5 395,-275.5 528,-275.5 528,-245.5 395,-245.5"/>
<text text-anchor="start" x="403" y="-263.5" font-family="Helvetica,sans-Serif" font-size="10.00">log4cplus::spi::LogLevel</text>
<text text-anchor="middle" x="461.5" y="-252.5" font-family="Helvetica,sans-Serif" font-size="10.00">MatchFilter</text>
</a>
</g>
</g>
<!-- Node27&#45;&gt;Node30 -->
<g id="edge33" class="edge">
<title>Node27&#45;&gt;Node30</title>
<path fill="none" stroke="midnightblue" d="M319.62,-277.51C343.69,-274.61 370.87,-271.32 394.89,-268.42"/>
<polygon fill="midnightblue" stroke="midnightblue" points="319.03,-274.06 309.52,-278.73 319.86,-281.01 319.03,-274.06"/>
</g>
<!-- Node31 -->
<g id="node34" class="node">
<title>Node31</title>
<g id="a_node34"><a xlink:href="classlog4cplus_1_1spi_1_1LogLevelRangeFilter.html" target="_top" xlink:title="This is a very simple filter based on LogLevel matching, which can be used to reject messages with Lo...">
<polygon fill="white" stroke="black" points="395,-196.5 395,-226.5 528,-226.5 528,-196.5 395,-196.5"/>
<text text-anchor="start" x="403" y="-214.5" font-family="Helvetica,sans-Serif" font-size="10.00">log4cplus::spi::LogLevel</text>
<text text-anchor="middle" x="461.5" y="-203.5" font-family="Helvetica,sans-Serif" font-size="10.00">RangeFilter</text>
</a>
</g>
</g>
<!-- Node27&#45;&gt;Node31 -->
<g id="edge34" class="edge">
<title>Node27&#45;&gt;Node31</title>
<path fill="none" stroke="midnightblue" d="M282.86,-271.75C305.96,-261.25 339.11,-246.87 369,-236.5 379.11,-232.99 389.99,-229.65 400.59,-226.62"/>
<polygon fill="midnightblue" stroke="midnightblue" points="281.25,-268.63 273.62,-275.98 284.17,-275 281.25,-268.63"/>
</g>
<!-- Node32 -->
<g id="node35" class="node">
<title>Node32</title>
<g id="a_node35"><a xlink:href="classlog4cplus_1_1spi_1_1MDCMatchFilter.html" target="_top" xlink:title="This is a simple filter based on the key/value pair stored in MDC.">
<polygon fill="white" stroke="black" points="390,-147.5 390,-177.5 533,-177.5 533,-147.5 390,-147.5"/>
<text text-anchor="start" x="398" y="-165.5" font-family="Helvetica,sans-Serif" font-size="10.00">log4cplus::spi::MDCMatch</text>
<text text-anchor="middle" x="461.5" y="-154.5" font-family="Helvetica,sans-Serif" font-size="10.00">Filter</text>
</a>
</g>
</g>
<!-- Node27&#45;&gt;Node32 -->
<g id="edge35" class="edge">
<title>Node27&#45;&gt;Node32</title>
<path fill="none" stroke="midnightblue" d="M271.1,-268.9C297.81,-244.01 347.71,-198.73 369,-187.5 376.28,-183.66 384.21,-180.37 392.26,-177.55"/>
<polygon fill="midnightblue" stroke="midnightblue" points="268.52,-266.52 263.61,-275.91 273.3,-271.63 268.52,-266.52"/>
</g>
<!-- Node33 -->
<g id="node36" class="node">
<title>Node33</title>
<g id="a_node36"><a xlink:href="classlog4cplus_1_1spi_1_1NDCMatchFilter.html" target="_top" xlink:title="This is a simple filter based on the string returned by event.getNDC().">
<polygon fill="white" stroke="black" points="391,-98.5 391,-128.5 532,-128.5 532,-98.5 391,-98.5"/>
<text text-anchor="start" x="399" y="-116.5" font-family="Helvetica,sans-Serif" font-size="10.00">log4cplus::spi::NDCMatch</text>
<text text-anchor="middle" x="461.5" y="-105.5" font-family="Helvetica,sans-Serif" font-size="10.00">Filter</text>
</a>
</g>
</g>
<!-- Node27&#45;&gt;Node33 -->
<g id="edge36" class="edge">
<title>Node27&#45;&gt;Node33</title>
<path fill="none" stroke="midnightblue" d="M275.45,-269.48C292.74,-256.01 316.59,-235.48 333,-213.5 355.12,-183.87 340.6,-162.18 369,-138.5 375.45,-133.12 382.96,-128.89 390.86,-125.57"/>
<polygon fill="midnightblue" stroke="midnightblue" points="272.91,-267 267.08,-275.84 277.15,-272.57 272.91,-267"/>
</g>
<!-- Node34 -->
<g id="node37" class="node">
<title>Node34</title>
<g id="a_node37"><a xlink:href="classlog4cplus_1_1spi_1_1StringMatchFilter.html" target="_top" xlink:title="This is a very simple filter based on string matching.">
<polygon fill="white" stroke="black" points="387.5,-382.5 387.5,-412.5 535.5,-412.5 535.5,-382.5 387.5,-382.5"/>
<text text-anchor="start" x="395.5" y="-400.5" font-family="Helvetica,sans-Serif" font-size="10.00">log4cplus::spi::StringMatch</text>
<text text-anchor="middle" x="461.5" y="-389.5" font-family="Helvetica,sans-Serif" font-size="10.00">Filter</text>
</a>
</g>
</g>
<!-- Node27&#45;&gt;Node34 -->
<g id="edge37" class="edge">
<title>Node27&#45;&gt;Node34</title>
<path fill="none" stroke="midnightblue" d="M270.78,-301.91C292.21,-321.41 330.63,-353.67 369,-372.5 376.69,-376.27 385.03,-379.54 393.44,-382.36"/>
<polygon fill="midnightblue" stroke="midnightblue" points="273.15,-299.33 263.43,-295.11 268.4,-304.47 273.15,-299.33"/>
</g>
<!-- Node38 -->
<g id="node39" class="node">
<title>Node38</title>
<g id="a_node39"><a xlink:href="classlog4cplus_1_1helpers_1_1ConnectorThread.html" target="_top" xlink:title="This class is used by SocketAppender and (remote) SysLogAppender to provide asynchronous re&#45;connectio...">
<polygon fill="white" stroke="black" points="408.5,-0.5 408.5,-30.5 514.5,-30.5 514.5,-0.5 408.5,-0.5"/>
<text text-anchor="start" x="416.5" y="-18.5" font-family="Helvetica,sans-Serif" font-size="10.00">log4cplus::helpers</text>
<text text-anchor="middle" x="461.5" y="-7.5" font-family="Helvetica,sans-Serif" font-size="10.00">::ConnectorThread</text>
</a>
</g>
</g>
<!-- Node37&#45;&gt;Node38 -->
<g id="edge40" class="edge">
<title>Node37&#45;&gt;Node38</title>
<path fill="none" stroke="midnightblue" d="M316.19,-35.72C345.67,-31.59 380.41,-26.72 408.41,-22.8"/>
<polygon fill="midnightblue" stroke="midnightblue" points="315.42,-32.29 306,-37.14 316.39,-39.22 315.42,-32.29"/>
</g>
</g>
</svg>
