<?xml version="1.0" encoding="UTF-8" standalone="no"?>
<!DOCTYPE svg PUBLIC "-//W3C//DTD SVG 1.1//EN"
 "http://www.w3.org/Graphics/SVG/1.1/DTD/svg11.dtd">
<!-- Generated by graphviz version 2.43.0 (0)
 -->
<!-- Title: initializer.h Pages: 1 -->
<svg width="300pt" height="151pt"
 viewBox="0.00 0.00 300.00 151.00" xmlns="http://www.w3.org/2000/svg" xmlns:xlink="http://www.w3.org/1999/xlink">
<g id="graph0" class="graph" transform="scale(1 1) rotate(0) translate(4 147)">
<title>initializer.h</title>
<polygon fill="white" stroke="transparent" points="-4,4 -4,-147 296,-147 296,4 -4,4"/>
<!-- Node1 -->
<g id="node1" class="node">
<title>Node1</title>
<g id="a_node1"><a xlink:title=" ">
<polygon fill="#bfbfbf" stroke="black" points="162,-123.5 162,-142.5 233,-142.5 233,-123.5 162,-123.5"/>
<text text-anchor="middle" x="197.5" y="-130.5" font-family="Helvetica,sans-Serif" font-size="10.00">initializer.h</text>
</a>
</g>
</g>
<!-- Node2 -->
<g id="node2" class="node">
<title>Node2</title>
<g id="a_node2"><a xlink:href="config_8hxx.html" target="_top" xlink:title=" ">
<polygon fill="white" stroke="black" points="87.5,-67.5 87.5,-86.5 203.5,-86.5 203.5,-67.5 87.5,-67.5"/>
<text text-anchor="middle" x="145.5" y="-74.5" font-family="Helvetica,sans-Serif" font-size="10.00">log4cplus/config.hxx</text>
</a>
</g>
</g>
<!-- Node1&#45;&gt;Node2 -->
<g id="edge1" class="edge">
<title>Node1&#45;&gt;Node2</title>
<path fill="none" stroke="midnightblue" d="M188.91,-123.08C181.34,-115.22 170.12,-103.57 160.99,-94.08"/>
<polygon fill="midnightblue" stroke="midnightblue" points="163.38,-91.53 153.93,-86.75 158.34,-96.38 163.38,-91.53"/>
</g>
<!-- Node5 -->
<g id="node5" class="node">
<title>Node5</title>
<g id="a_node5"><a xlink:title=" ">
<polygon fill="white" stroke="#bfbfbf" points="221.5,-67.5 221.5,-86.5 279.5,-86.5 279.5,-67.5 221.5,-67.5"/>
<text text-anchor="middle" x="250.5" y="-74.5" font-family="Helvetica,sans-Serif" font-size="10.00">memory</text>
</a>
</g>
</g>
<!-- Node1&#45;&gt;Node5 -->
<g id="edge4" class="edge">
<title>Node1&#45;&gt;Node5</title>
<path fill="none" stroke="midnightblue" d="M206.25,-123.08C213.97,-115.22 225.4,-103.57 234.72,-94.08"/>
<polygon fill="midnightblue" stroke="midnightblue" points="237.4,-96.34 241.91,-86.75 232.41,-91.44 237.4,-96.34"/>
</g>
<!-- Node3 -->
<g id="node3" class="node">
<title>Node3</title>
<g id="a_node3"><a xlink:href="win32_8h.html" target="_top" xlink:title=" ">
<polygon fill="white" stroke="black" points="0,-6 0,-25 137,-25 137,-6 0,-6"/>
<text text-anchor="middle" x="68.5" y="-13" font-family="Helvetica,sans-Serif" font-size="10.00">log4cplus/config/win32.h</text>
</a>
</g>
</g>
<!-- Node2&#45;&gt;Node3 -->
<g id="edge2" class="edge">
<title>Node2&#45;&gt;Node3</title>
<path fill="none" stroke="midnightblue" d="M134.47,-67.48C122.23,-58.02 102.27,-42.6 87.51,-31.19"/>
<polygon fill="midnightblue" stroke="midnightblue" points="89.56,-28.35 79.51,-25.01 85.28,-33.89 89.56,-28.35"/>
</g>
<!-- Node4 -->
<g id="node4" class="node">
<title>Node4</title>
<g id="a_node4"><a xlink:href="thread-config_8h.html" target="_top" xlink:title=" ">
<polygon fill="white" stroke="black" points="155,-0.5 155,-30.5 292,-30.5 292,-0.5 155,-0.5"/>
<text text-anchor="start" x="163" y="-18.5" font-family="Helvetica,sans-Serif" font-size="10.00">log4cplus/helpers/thread</text>
<text text-anchor="middle" x="223.5" y="-7.5" font-family="Helvetica,sans-Serif" font-size="10.00">&#45;config.h</text>
</a>
</g>
</g>
<!-- Node2&#45;&gt;Node4 -->
<g id="edge3" class="edge">
<title>Node2&#45;&gt;Node4</title>
<path fill="none" stroke="midnightblue" d="M156.68,-67.48C167.14,-59.49 183.18,-47.25 196.93,-36.77"/>
<polygon fill="midnightblue" stroke="midnightblue" points="199.29,-39.37 205.12,-30.52 195.04,-33.81 199.29,-39.37"/>
</g>
</g>
</svg>
