<?xml version="1.0" encoding="UTF-8" standalone="no"?>
<!DOCTYPE svg PUBLIC "-//W3C//DTD SVG 1.1//EN"
 "http://www.w3.org/Graphics/SVG/1.1/DTD/svg11.dtd">
<!-- Generated by graphviz version 2.43.0 (0)
 -->
<!-- Title: socket.h Pages: 1 -->
<svg width="845pt" height="386pt"
 viewBox="0.00 0.00 845.00 386.00" xmlns="http://www.w3.org/2000/svg" xmlns:xlink="http://www.w3.org/1999/xlink">
<g id="graph0" class="graph" transform="scale(1 1) rotate(0) translate(4 382)">
<title>socket.h</title>
<polygon fill="white" stroke="transparent" points="-4,4 -4,-382 841,-382 841,4 -4,4"/>
<!-- Node1 -->
<g id="node1" class="node">
<title>Node1</title>
<g id="a_node1"><a xlink:title="This header contains declaration internal to log4cplus.">
<polygon fill="#bfbfbf" stroke="black" points="320,-358.5 320,-377.5 377,-377.5 377,-358.5 320,-358.5"/>
<text text-anchor="middle" x="348.5" y="-365.5" font-family="Helvetica,sans-Serif" font-size="10.00">socket.h</text>
</a>
</g>
</g>
<!-- Node2 -->
<g id="node2" class="node">
<title>Node2</title>
<g id="a_node2"><a xlink:href="config_8hxx.html" target="_top" xlink:title=" ">
<polygon fill="white" stroke="black" points="290.5,-67.5 290.5,-86.5 406.5,-86.5 406.5,-67.5 290.5,-67.5"/>
<text text-anchor="middle" x="348.5" y="-74.5" font-family="Helvetica,sans-Serif" font-size="10.00">log4cplus/config.hxx</text>
</a>
</g>
</g>
<!-- Node1&#45;&gt;Node2 -->
<g id="edge1" class="edge">
<title>Node1&#45;&gt;Node2</title>
<path fill="none" stroke="midnightblue" d="M338.25,-358.47C317.51,-340.18 272.5,-294.87 272.5,-246 272.5,-246 272.5,-246 272.5,-188 272.5,-148.28 306.46,-112.5 328.98,-93.15"/>
<polygon fill="midnightblue" stroke="midnightblue" points="331.48,-95.63 336.96,-86.57 327.02,-90.24 331.48,-95.63"/>
</g>
<!-- Node5 -->
<g id="node5" class="node">
<title>Node5</title>
<g id="a_node5"><a xlink:href="windowsh-inc_8h.html" target="_top" xlink:title=" ">
<polygon fill="white" stroke="black" points="74,-291.5 74,-321.5 221,-321.5 221,-291.5 74,-291.5"/>
<text text-anchor="start" x="82" y="-309.5" font-family="Helvetica,sans-Serif" font-size="10.00">log4cplus/config/windowsh</text>
<text text-anchor="middle" x="147.5" y="-298.5" font-family="Helvetica,sans-Serif" font-size="10.00">&#45;inc.h</text>
</a>
</g>
</g>
<!-- Node1&#45;&gt;Node5 -->
<g id="edge4" class="edge">
<title>Node1&#45;&gt;Node5</title>
<path fill="none" stroke="midnightblue" d="M319.7,-358.48C289.81,-349.63 242.25,-335.55 204.68,-324.43"/>
<polygon fill="midnightblue" stroke="midnightblue" points="205.45,-321.01 194.87,-321.52 203.47,-327.72 205.45,-321.01"/>
</g>
<!-- Node9 -->
<g id="node9" class="node">
<title>Node9</title>
<g id="a_node9"><a xlink:href="helpers_2socket_8h.html" target="_top" xlink:title=" ">
<polygon fill="white" stroke="black" points="352.5,-297 352.5,-316 498.5,-316 498.5,-297 352.5,-297"/>
<text text-anchor="middle" x="425.5" y="-304" font-family="Helvetica,sans-Serif" font-size="10.00">log4cplus/helpers/socket.h</text>
</a>
</g>
</g>
<!-- Node1&#45;&gt;Node9 -->
<g id="edge8" class="edge">
<title>Node1&#45;&gt;Node9</title>
<path fill="none" stroke="midnightblue" d="M359.53,-358.48C371.77,-349.02 391.73,-333.6 406.49,-322.19"/>
<polygon fill="midnightblue" stroke="midnightblue" points="408.72,-324.89 414.49,-316.01 404.44,-319.35 408.72,-324.89"/>
</g>
<!-- Node20 -->
<g id="node20" class="node">
<title>Node20</title>
<g id="a_node20"><a xlink:title=" ">
<polygon fill="white" stroke="#bfbfbf" points="517,-297 517,-316 564,-316 564,-297 517,-297"/>
<text text-anchor="middle" x="540.5" y="-304" font-family="Helvetica,sans-Serif" font-size="10.00">cerrno</text>
</a>
</g>
</g>
<!-- Node1&#45;&gt;Node20 -->
<g id="edge24" class="edge">
<title>Node1&#45;&gt;Node20</title>
<path fill="none" stroke="midnightblue" d="M377.02,-360.2C409.13,-352.24 462.68,-338.1 507.5,-322 509.16,-321.4 510.85,-320.76 512.56,-320.09"/>
<polygon fill="midnightblue" stroke="midnightblue" points="514.3,-323.16 522.18,-316.09 511.6,-316.7 514.3,-323.16"/>
</g>
<!-- Node3 -->
<g id="node3" class="node">
<title>Node3</title>
<g id="a_node3"><a xlink:href="win32_8h.html" target="_top" xlink:title=" ">
<polygon fill="white" stroke="black" points="203,-6 203,-25 340,-25 340,-6 203,-6"/>
<text text-anchor="middle" x="271.5" y="-13" font-family="Helvetica,sans-Serif" font-size="10.00">log4cplus/config/win32.h</text>
</a>
</g>
</g>
<!-- Node2&#45;&gt;Node3 -->
<g id="edge2" class="edge">
<title>Node2&#45;&gt;Node3</title>
<path fill="none" stroke="midnightblue" d="M337.47,-67.48C325.23,-58.02 305.27,-42.6 290.51,-31.19"/>
<polygon fill="midnightblue" stroke="midnightblue" points="292.56,-28.35 282.51,-25.01 288.28,-33.89 292.56,-28.35"/>
</g>
<!-- Node4 -->
<g id="node4" class="node">
<title>Node4</title>
<g id="a_node4"><a xlink:href="thread-config_8h.html" target="_top" xlink:title=" ">
<polygon fill="white" stroke="black" points="358,-0.5 358,-30.5 495,-30.5 495,-0.5 358,-0.5"/>
<text text-anchor="start" x="366" y="-18.5" font-family="Helvetica,sans-Serif" font-size="10.00">log4cplus/helpers/thread</text>
<text text-anchor="middle" x="426.5" y="-7.5" font-family="Helvetica,sans-Serif" font-size="10.00">&#45;config.h</text>
</a>
</g>
</g>
<!-- Node2&#45;&gt;Node4 -->
<g id="edge3" class="edge">
<title>Node2&#45;&gt;Node4</title>
<path fill="none" stroke="midnightblue" d="M359.68,-67.48C370.14,-59.49 386.18,-47.25 399.93,-36.77"/>
<polygon fill="midnightblue" stroke="midnightblue" points="402.29,-39.37 408.12,-30.52 398.04,-33.81 402.29,-39.37"/>
</g>
<!-- Node6 -->
<g id="node6" class="node">
<title>Node6</title>
<g id="a_node6"><a xlink:title=" ">
<polygon fill="white" stroke="#bfbfbf" points="0,-235.5 0,-254.5 71,-254.5 71,-235.5 0,-235.5"/>
<text text-anchor="middle" x="35.5" y="-242.5" font-family="Helvetica,sans-Serif" font-size="10.00">winsock2.h</text>
</a>
</g>
</g>
<!-- Node5&#45;&gt;Node6 -->
<g id="edge5" class="edge">
<title>Node5&#45;&gt;Node6</title>
<path fill="none" stroke="midnightblue" d="M120.96,-291.4C102.84,-281.77 78.96,-269.09 61.06,-259.58"/>
<polygon fill="midnightblue" stroke="midnightblue" points="62.27,-256.26 51.8,-254.66 58.99,-262.44 62.27,-256.26"/>
</g>
<!-- Node7 -->
<g id="node7" class="node">
<title>Node7</title>
<g id="a_node7"><a xlink:title=" ">
<polygon fill="white" stroke="#bfbfbf" points="89,-235.5 89,-254.5 158,-254.5 158,-235.5 89,-235.5"/>
<text text-anchor="middle" x="123.5" y="-242.5" font-family="Helvetica,sans-Serif" font-size="10.00">ws2tcpip.h</text>
</a>
</g>
</g>
<!-- Node5&#45;&gt;Node7 -->
<g id="edge6" class="edge">
<title>Node5&#45;&gt;Node7</title>
<path fill="none" stroke="midnightblue" d="M141.81,-291.4C138.5,-283.2 134.3,-272.78 130.76,-263.99"/>
<polygon fill="midnightblue" stroke="midnightblue" points="133.98,-262.62 126.99,-254.66 127.49,-265.24 133.98,-262.62"/>
</g>
<!-- Node8 -->
<g id="node8" class="node">
<title>Node8</title>
<g id="a_node8"><a xlink:title=" ">
<polygon fill="white" stroke="#bfbfbf" points="176.5,-235.5 176.5,-254.5 244.5,-254.5 244.5,-235.5 176.5,-235.5"/>
<text text-anchor="middle" x="210.5" y="-242.5" font-family="Helvetica,sans-Serif" font-size="10.00">windows.h</text>
</a>
</g>
</g>
<!-- Node5&#45;&gt;Node8 -->
<g id="edge7" class="edge">
<title>Node5&#45;&gt;Node8</title>
<path fill="none" stroke="midnightblue" d="M162.43,-291.4C171.87,-282.49 184.08,-270.95 193.83,-261.74"/>
<polygon fill="midnightblue" stroke="midnightblue" points="196.47,-264.07 201.33,-254.66 191.66,-258.98 196.47,-264.07"/>
</g>
<!-- Node9&#45;&gt;Node2 -->
<g id="edge9" class="edge">
<title>Node9&#45;&gt;Node2</title>
<path fill="none" stroke="midnightblue" d="M390.24,-296.9C368.62,-289.62 342.64,-276.76 329.5,-255 298.79,-204.15 324.9,-129.89 339.83,-96.03"/>
<polygon fill="midnightblue" stroke="midnightblue" points="343.19,-97.08 344.19,-86.53 336.83,-94.16 343.19,-97.08"/>
</g>
<!-- Node10 -->
<g id="node10" class="node">
<title>Node10</title>
<g id="a_node10"><a xlink:title=" ">
<polygon fill="white" stroke="#bfbfbf" points="530.5,-235.5 530.5,-254.5 572.5,-254.5 572.5,-235.5 530.5,-235.5"/>
<text text-anchor="middle" x="551.5" y="-242.5" font-family="Helvetica,sans-Serif" font-size="10.00">array</text>
</a>
</g>
</g>
<!-- Node9&#45;&gt;Node10 -->
<g id="edge10" class="edge">
<title>Node9&#45;&gt;Node10</title>
<path fill="none" stroke="midnightblue" d="M443.55,-296.98C464.7,-286.99 499.94,-270.35 524.38,-258.81"/>
<polygon fill="midnightblue" stroke="midnightblue" points="525.93,-261.94 533.48,-254.51 522.94,-255.61 525.93,-261.94"/>
</g>
<!-- Node11 -->
<g id="node11" class="node">
<title>Node11</title>
<g id="a_node11"><a xlink:title=" ">
<polygon fill="white" stroke="#bfbfbf" points="590.5,-235.5 590.5,-254.5 646.5,-254.5 646.5,-235.5 590.5,-235.5"/>
<text text-anchor="middle" x="618.5" y="-242.5" font-family="Helvetica,sans-Serif" font-size="10.00">optional</text>
</a>
</g>
</g>
<!-- Node9&#45;&gt;Node11 -->
<g id="edge11" class="edge">
<title>Node9&#45;&gt;Node11</title>
<path fill="none" stroke="midnightblue" d="M453.15,-296.98C486.69,-286.64 543.37,-269.16 580.87,-257.6"/>
<polygon fill="midnightblue" stroke="midnightblue" points="582.37,-260.8 590.9,-254.51 580.31,-254.11 582.37,-260.8"/>
</g>
<!-- Node12 -->
<g id="node12" class="node">
<title>Node12</title>
<g id="a_node12"><a xlink:href="tstring_8h.html" target="_top" xlink:title=" ">
<polygon fill="white" stroke="black" points="512,-179.5 512,-198.5 619,-198.5 619,-179.5 512,-179.5"/>
<text text-anchor="middle" x="565.5" y="-186.5" font-family="Helvetica,sans-Serif" font-size="10.00">log4cplus/tstring.h</text>
</a>
</g>
</g>
<!-- Node9&#45;&gt;Node12 -->
<g id="edge12" class="edge">
<title>Node9&#45;&gt;Node12</title>
<path fill="none" stroke="midnightblue" d="M471.12,-297C536.51,-284.59 649.69,-262.23 655.5,-255 674.05,-231.93 637.94,-213.14 606.08,-201.8"/>
<polygon fill="midnightblue" stroke="midnightblue" points="606.99,-198.42 596.39,-198.53 604.75,-205.05 606.99,-198.42"/>
</g>
<!-- Node19 -->
<g id="node19" class="node">
<title>Node19</title>
<g id="a_node19"><a xlink:href="socketbuffer_8h.html" target="_top" xlink:title=" ">
<polygon fill="white" stroke="black" points="339,-235.5 339,-254.5 512,-254.5 512,-235.5 339,-235.5"/>
<text text-anchor="middle" x="425.5" y="-242.5" font-family="Helvetica,sans-Serif" font-size="10.00">log4cplus/helpers/socketbuffer.h</text>
</a>
</g>
</g>
<!-- Node9&#45;&gt;Node19 -->
<g id="edge21" class="edge">
<title>Node9&#45;&gt;Node19</title>
<path fill="none" stroke="midnightblue" d="M425.5,-296.98C425.5,-288.58 425.5,-275.48 425.5,-264.66"/>
<polygon fill="midnightblue" stroke="midnightblue" points="429,-264.51 425.5,-254.51 422,-264.51 429,-264.51"/>
</g>
<!-- Node12&#45;&gt;Node2 -->
<g id="edge13" class="edge">
<title>Node12&#45;&gt;Node2</title>
<path fill="none" stroke="midnightblue" d="M511.93,-180.85C479.25,-174.64 437.72,-163.31 405.5,-143 386.13,-130.79 369.6,-110.04 359.41,-95.27"/>
<polygon fill="midnightblue" stroke="midnightblue" points="362.09,-92.99 353.66,-86.58 356.26,-96.85 362.09,-92.99"/>
</g>
<!-- Node13 -->
<g id="node13" class="node">
<title>Node13</title>
<g id="a_node13"><a xlink:title=" ">
<polygon fill="white" stroke="#bfbfbf" points="685,-123.5 685,-142.5 754,-142.5 754,-123.5 685,-123.5"/>
<text text-anchor="middle" x="719.5" y="-130.5" font-family="Helvetica,sans-Serif" font-size="10.00">type_traits</text>
</a>
</g>
</g>
<!-- Node12&#45;&gt;Node13 -->
<g id="edge14" class="edge">
<title>Node12&#45;&gt;Node13</title>
<path fill="none" stroke="midnightblue" d="M589.9,-179.44C615.7,-170.4 656.58,-156.06 685.52,-145.92"/>
<polygon fill="midnightblue" stroke="midnightblue" points="686.93,-149.13 695.21,-142.52 684.62,-142.52 686.93,-149.13"/>
</g>
<!-- Node14 -->
<g id="node14" class="node">
<title>Node14</title>
<g id="a_node14"><a xlink:title=" ">
<polygon fill="white" stroke="#bfbfbf" points="772,-123.5 772,-142.5 837,-142.5 837,-123.5 772,-123.5"/>
<text text-anchor="middle" x="804.5" y="-130.5" font-family="Helvetica,sans-Serif" font-size="10.00">functional</text>
</a>
</g>
</g>
<!-- Node12&#45;&gt;Node14 -->
<g id="edge15" class="edge">
<title>Node12&#45;&gt;Node14</title>
<path fill="none" stroke="midnightblue" d="M603.37,-179.44C646.57,-169.68 717.02,-153.77 762.04,-143.59"/>
<polygon fill="midnightblue" stroke="midnightblue" points="762.82,-147.01 771.8,-141.39 761.27,-140.18 762.82,-147.01"/>
</g>
<!-- Node15 -->
<g id="node15" class="node">
<title>Node15</title>
<g id="a_node15"><a xlink:title=" ">
<polygon fill="white" stroke="#bfbfbf" points="414.5,-123.5 414.5,-142.5 458.5,-142.5 458.5,-123.5 414.5,-123.5"/>
<text text-anchor="middle" x="436.5" y="-130.5" font-family="Helvetica,sans-Serif" font-size="10.00">string</text>
</a>
</g>
</g>
<!-- Node12&#45;&gt;Node15 -->
<g id="edge16" class="edge">
<title>Node12&#45;&gt;Node15</title>
<path fill="none" stroke="midnightblue" d="M545.06,-179.44C523.83,-170.56 490.4,-156.56 466.25,-146.45"/>
<polygon fill="midnightblue" stroke="midnightblue" points="467.42,-143.15 456.84,-142.52 464.72,-149.61 467.42,-143.15"/>
</g>
<!-- Node16 -->
<g id="node16" class="node">
<title>Node16</title>
<g id="a_node16"><a xlink:title=" ">
<polygon fill="white" stroke="#bfbfbf" points="477,-123.5 477,-142.5 550,-142.5 550,-123.5 477,-123.5"/>
<text text-anchor="middle" x="513.5" y="-130.5" font-family="Helvetica,sans-Serif" font-size="10.00">string_view</text>
</a>
</g>
</g>
<!-- Node12&#45;&gt;Node16 -->
<g id="edge17" class="edge">
<title>Node12&#45;&gt;Node16</title>
<path fill="none" stroke="midnightblue" d="M556.91,-179.08C549.34,-171.22 538.12,-159.57 528.99,-150.08"/>
<polygon fill="midnightblue" stroke="midnightblue" points="531.38,-147.53 521.93,-142.75 526.34,-152.38 531.38,-147.53"/>
</g>
<!-- Node17 -->
<g id="node17" class="node">
<title>Node17</title>
<g id="a_node17"><a xlink:href="tchar_8h.html" target="_top" xlink:title=" ">
<polygon fill="white" stroke="black" points="568,-123.5 568,-142.5 667,-142.5 667,-123.5 568,-123.5"/>
<text text-anchor="middle" x="617.5" y="-130.5" font-family="Helvetica,sans-Serif" font-size="10.00">log4cplus/tchar.h</text>
</a>
</g>
</g>
<!-- Node12&#45;&gt;Node17 -->
<g id="edge18" class="edge">
<title>Node12&#45;&gt;Node17</title>
<path fill="none" stroke="midnightblue" d="M574.09,-179.08C581.66,-171.22 592.88,-159.57 602.01,-150.08"/>
<polygon fill="midnightblue" stroke="midnightblue" points="604.66,-152.38 609.07,-142.75 599.62,-147.53 604.66,-152.38"/>
</g>
<!-- Node17&#45;&gt;Node2 -->
<g id="edge19" class="edge">
<title>Node17&#45;&gt;Node2</title>
<path fill="none" stroke="midnightblue" d="M574.88,-123.44C527.75,-113.98 451.81,-98.74 401.04,-88.55"/>
<polygon fill="midnightblue" stroke="midnightblue" points="401.42,-85.05 390.92,-86.52 400.04,-91.92 401.42,-85.05"/>
</g>
<!-- Node18 -->
<g id="node18" class="node">
<title>Node18</title>
<g id="a_node18"><a xlink:title=" ">
<polygon fill="white" stroke="#bfbfbf" points="591,-67.5 591,-86.5 644,-86.5 644,-67.5 591,-67.5"/>
<text text-anchor="middle" x="617.5" y="-74.5" font-family="Helvetica,sans-Serif" font-size="10.00">cstddef</text>
</a>
</g>
</g>
<!-- Node17&#45;&gt;Node18 -->
<g id="edge20" class="edge">
<title>Node17&#45;&gt;Node18</title>
<path fill="none" stroke="midnightblue" d="M617.5,-123.08C617.5,-116.01 617.5,-105.86 617.5,-96.99"/>
<polygon fill="midnightblue" stroke="midnightblue" points="621,-96.75 617.5,-86.75 614,-96.75 621,-96.75"/>
</g>
<!-- Node19&#45;&gt;Node2 -->
<g id="edge22" class="edge">
<title>Node19&#45;&gt;Node2</title>
<path fill="none" stroke="midnightblue" d="M421.32,-235.39C412.9,-217.99 393.34,-177.39 377.5,-143 370.24,-127.24 362.22,-109.2 356.45,-96.14"/>
<polygon fill="midnightblue" stroke="midnightblue" points="359.6,-94.61 352.37,-86.86 353.2,-97.42 359.6,-94.61"/>
</g>
<!-- Node19&#45;&gt;Node12 -->
<g id="edge23" class="edge">
<title>Node19&#45;&gt;Node12</title>
<path fill="none" stroke="midnightblue" d="M447.68,-235.44C470.93,-226.48 507.65,-212.31 533.92,-202.18"/>
<polygon fill="midnightblue" stroke="midnightblue" points="535.35,-205.38 543.42,-198.52 532.83,-198.85 535.35,-205.38"/>
</g>
</g>
</svg>
