<?xml version="1.0" encoding="UTF-8" standalone="no"?>
<!DOCTYPE svg PUBLIC "-//W3C//DTD SVG 1.1//EN"
 "http://www.w3.org/Graphics/SVG/1.1/DTD/svg11.dtd">
<!-- Generated by graphviz version 2.43.0 (0)
 -->
<!-- Title: internal.h Pages: 1 -->
<svg width="1930pt" height="397pt"
 viewBox="0.00 0.00 1929.50 397.00" xmlns="http://www.w3.org/2000/svg" xmlns:xlink="http://www.w3.org/1999/xlink">
<g id="graph0" class="graph" transform="scale(1 1) rotate(0) translate(4 393)">
<title>internal.h</title>
<polygon fill="white" stroke="transparent" points="-4,4 -4,-393 1925.5,-393 1925.5,4 -4,4"/>
<!-- Node1 -->
<g id="node1" class="node">
<title>Node1</title>
<g id="a_node1"><a xlink:title="This header contains declaration internal to log4cplus.">
<polygon fill="#bfbfbf" stroke="black" points="693.5,-369.5 693.5,-388.5 756.5,-388.5 756.5,-369.5 693.5,-369.5"/>
<text text-anchor="middle" x="725" y="-376.5" font-family="Helvetica,sans-Serif" font-size="10.00">internal.h</text>
</a>
</g>
</g>
<!-- Node2 -->
<g id="node2" class="node">
<title>Node2</title>
<g id="a_node2"><a xlink:href="config_8hxx.html" target="_top" xlink:title=" ">
<polygon fill="white" stroke="black" points="1013,-73 1013,-92 1129,-92 1129,-73 1013,-73"/>
<text text-anchor="middle" x="1071" y="-80" font-family="Helvetica,sans-Serif" font-size="10.00">log4cplus/config.hxx</text>
</a>
</g>
</g>
<!-- Node1&#45;&gt;Node2 -->
<g id="edge1" class="edge">
<title>Node1&#45;&gt;Node2</title>
<path fill="none" stroke="midnightblue" d="M756.75,-378.17C902.71,-378.16 1505.95,-369.09 1594,-221 1601.04,-209.16 1600.05,-202.38 1594,-190 1589.55,-180.9 1531.39,-137.82 1522,-134 1454.3,-106.47 1247.88,-92.32 1139.34,-86.62"/>
<polygon fill="midnightblue" stroke="midnightblue" points="1139.32,-83.11 1129.15,-86.09 1138.96,-90.1 1139.32,-83.11"/>
</g>
<!-- Node5 -->
<g id="node5" class="node">
<title>Node5</title>
<g id="a_node5"><a xlink:title=" ">
<polygon fill="white" stroke="#bfbfbf" points="1527,-196 1527,-215 1585,-215 1585,-196 1527,-196"/>
<text text-anchor="middle" x="1556" y="-203" font-family="Helvetica,sans-Serif" font-size="10.00">memory</text>
</a>
</g>
</g>
<!-- Node1&#45;&gt;Node5 -->
<g id="edge4" class="edge">
<title>Node1&#45;&gt;Node5</title>
<path fill="none" stroke="midnightblue" d="M756.73,-375.74C880.27,-366.6 1328.75,-330.35 1460,-277 1491.56,-264.17 1522.26,-238.65 1540.14,-222.09"/>
<polygon fill="midnightblue" stroke="midnightblue" points="1542.56,-224.62 1547.41,-215.19 1537.74,-219.54 1542.56,-224.62"/>
</g>
<!-- Node6 -->
<g id="node6" class="node">
<title>Node6</title>
<g id="a_node6"><a xlink:title=" ">
<polygon fill="white" stroke="#bfbfbf" points="295.5,-196 295.5,-215 342.5,-215 342.5,-196 295.5,-196"/>
<text text-anchor="middle" x="319" y="-203" font-family="Helvetica,sans-Serif" font-size="10.00">vector</text>
</a>
</g>
</g>
<!-- Node1&#45;&gt;Node6 -->
<g id="edge5" class="edge">
<title>Node1&#45;&gt;Node6</title>
<path fill="none" stroke="midnightblue" d="M693.41,-372.43C657.59,-365.54 597.83,-352.31 549,-333 468.18,-301.04 380.13,-246.49 340.48,-220.75"/>
<polygon fill="midnightblue" stroke="midnightblue" points="342.19,-217.69 331.9,-215.14 338.36,-223.54 342.19,-217.69"/>
</g>
<!-- Node7 -->
<g id="node7" class="node">
<title>Node7</title>
<g id="a_node7"><a xlink:title=" ">
<polygon fill="white" stroke="#bfbfbf" points="558,-313.5 558,-332.5 614,-332.5 614,-313.5 558,-313.5"/>
<text text-anchor="middle" x="586" y="-320.5" font-family="Helvetica,sans-Serif" font-size="10.00">sstream</text>
</a>
</g>
</g>
<!-- Node1&#45;&gt;Node7 -->
<g id="edge6" class="edge">
<title>Node1&#45;&gt;Node7</title>
<path fill="none" stroke="midnightblue" d="M702.98,-369.44C679.9,-360.48 643.44,-346.31 617.36,-336.18"/>
<polygon fill="midnightblue" stroke="midnightblue" points="618.51,-332.88 607.92,-332.52 615.98,-339.4 618.51,-332.88"/>
</g>
<!-- Node8 -->
<g id="node8" class="node">
<title>Node8</title>
<g id="a_node8"><a xlink:title=" ">
<polygon fill="white" stroke="#bfbfbf" points="632,-313.5 632,-332.5 678,-332.5 678,-313.5 632,-313.5"/>
<text text-anchor="middle" x="655" y="-320.5" font-family="Helvetica,sans-Serif" font-size="10.00">cstdio</text>
</a>
</g>
</g>
<!-- Node1&#45;&gt;Node8 -->
<g id="edge7" class="edge">
<title>Node1&#45;&gt;Node8</title>
<path fill="none" stroke="midnightblue" d="M713.75,-369.32C703.2,-361.18 687.2,-348.84 674.56,-339.09"/>
<polygon fill="midnightblue" stroke="midnightblue" points="676.51,-336.17 666.45,-332.83 672.23,-341.71 676.51,-336.17"/>
</g>
<!-- Node9 -->
<g id="node9" class="node">
<title>Node9</title>
<g id="a_node9"><a xlink:href="tstring_8h.html" target="_top" xlink:title=" ">
<polygon fill="white" stroke="black" points="783.5,-196 783.5,-215 890.5,-215 890.5,-196 783.5,-196"/>
<text text-anchor="middle" x="837" y="-203" font-family="Helvetica,sans-Serif" font-size="10.00">log4cplus/tstring.h</text>
</a>
</g>
</g>
<!-- Node1&#45;&gt;Node9 -->
<g id="edge8" class="edge">
<title>Node1&#45;&gt;Node9</title>
<path fill="none" stroke="midnightblue" d="M730.71,-369.26C748.39,-342.19 802.44,-259.41 825.92,-223.46"/>
<polygon fill="midnightblue" stroke="midnightblue" points="828.9,-225.31 831.44,-215.02 823.04,-221.48 828.9,-225.31"/>
</g>
<!-- Node16 -->
<g id="node16" class="node">
<title>Node16</title>
<g id="a_node16"><a xlink:href="streams_8h.html" target="_top" xlink:title=" ">
<polygon fill="white" stroke="black" points="14.5,-196 14.5,-215 129.5,-215 129.5,-196 14.5,-196"/>
<text text-anchor="middle" x="72" y="-203" font-family="Helvetica,sans-Serif" font-size="10.00">log4cplus/streams.h</text>
</a>
</g>
</g>
<!-- Node1&#45;&gt;Node16 -->
<g id="edge17" class="edge">
<title>Node1&#45;&gt;Node16</title>
<path fill="none" stroke="midnightblue" d="M693.36,-378.44C604.9,-378.42 349.52,-369.75 166,-277 136.59,-262.13 106.86,-237.95 88.93,-222.13"/>
<polygon fill="midnightblue" stroke="midnightblue" points="90.9,-219.2 81.13,-215.12 86.22,-224.41 90.9,-219.2"/>
</g>
<!-- Node18 -->
<g id="node18" class="node">
<title>Node18</title>
<g id="a_node18"><a xlink:href="ndc_8h.html" target="_top" xlink:title="This header defined the NDC class.">
<polygon fill="white" stroke="black" points="508,-257.5 508,-276.5 600,-276.5 600,-257.5 508,-257.5"/>
<text text-anchor="middle" x="554" y="-264.5" font-family="Helvetica,sans-Serif" font-size="10.00">log4cplus/ndc.h</text>
</a>
</g>
</g>
<!-- Node1&#45;&gt;Node18 -->
<g id="edge21" class="edge">
<title>Node1&#45;&gt;Node18</title>
<path fill="none" stroke="midnightblue" d="M722.1,-369.07C717.12,-355.13 705.64,-328.2 687,-313 665.07,-295.12 635.68,-284.2 610.1,-277.61"/>
<polygon fill="midnightblue" stroke="midnightblue" points="610.69,-274.15 600.15,-275.21 609.05,-280.95 610.69,-274.15"/>
</g>
<!-- Node21 -->
<g id="node21" class="node">
<title>Node21</title>
<g id="a_node21"><a xlink:href="mdc_8h.html" target="_top" xlink:title=" ">
<polygon fill="white" stroke="black" points="669,-257.5 669,-276.5 765,-276.5 765,-257.5 669,-257.5"/>
<text text-anchor="middle" x="717" y="-264.5" font-family="Helvetica,sans-Serif" font-size="10.00">log4cplus/mdc.h</text>
</a>
</g>
</g>
<!-- Node1&#45;&gt;Node21 -->
<g id="edge26" class="edge">
<title>Node1&#45;&gt;Node21</title>
<path fill="none" stroke="midnightblue" d="M724.37,-369.37C723.08,-351.62 720.1,-310.67 718.35,-286.6"/>
<polygon fill="midnightblue" stroke="midnightblue" points="721.84,-286.31 717.62,-276.59 714.86,-286.82 721.84,-286.31"/>
</g>
<!-- Node24 -->
<g id="node24" class="node">
<title>Node24</title>
<g id="a_node24"><a xlink:href="loggingevent_8h.html" target="_top" xlink:title=" ">
<polygon fill="white" stroke="black" points="894,-313.5 894,-332.5 1050,-332.5 1050,-313.5 894,-313.5"/>
<text text-anchor="middle" x="972" y="-320.5" font-family="Helvetica,sans-Serif" font-size="10.00">log4cplus/spi/loggingevent.h</text>
</a>
</g>
</g>
<!-- Node1&#45;&gt;Node24 -->
<g id="edge34" class="edge">
<title>Node1&#45;&gt;Node24</title>
<path fill="none" stroke="midnightblue" d="M756.53,-371.11C798.63,-361.9 873.62,-345.51 923.09,-334.69"/>
<polygon fill="midnightblue" stroke="midnightblue" points="923.91,-338.1 932.93,-332.54 922.41,-331.26 923.91,-338.1"/>
</g>
<!-- Node40 -->
<g id="node40" class="node">
<title>Node40</title>
<g id="a_node40"><a xlink:href="tls_8h.html" target="_top" xlink:title=" ">
<polygon fill="white" stroke="black" points="1641,-190.5 1641,-220.5 1763,-220.5 1763,-190.5 1641,-190.5"/>
<text text-anchor="start" x="1649" y="-208.5" font-family="Helvetica,sans-Serif" font-size="10.00">log4cplus/thread/impl</text>
<text text-anchor="middle" x="1702" y="-197.5" font-family="Helvetica,sans-Serif" font-size="10.00">/tls.h</text>
</a>
</g>
</g>
<!-- Node1&#45;&gt;Node40 -->
<g id="edge67" class="edge">
<title>Node1&#45;&gt;Node40</title>
<path fill="none" stroke="midnightblue" d="M756.63,-378.18C907.67,-378.79 1551.23,-378.7 1627,-333 1664.94,-310.12 1685.91,-260.13 1695.48,-230.3"/>
<polygon fill="midnightblue" stroke="midnightblue" points="1698.85,-231.25 1698.4,-220.66 1692.15,-229.22 1698.85,-231.25"/>
</g>
<!-- Node43 -->
<g id="node43" class="node">
<title>Node43</title>
<g id="a_node43"><a xlink:href="snprintf_8h.html" target="_top" xlink:title=" ">
<polygon fill="white" stroke="black" points="175.5,-257.5 175.5,-276.5 326.5,-276.5 326.5,-257.5 175.5,-257.5"/>
<text text-anchor="middle" x="251" y="-264.5" font-family="Helvetica,sans-Serif" font-size="10.00">log4cplus/helpers/snprintf.h</text>
</a>
</g>
</g>
<!-- Node1&#45;&gt;Node43 -->
<g id="edge72" class="edge">
<title>Node1&#45;&gt;Node43</title>
<path fill="none" stroke="midnightblue" d="M693.27,-375.85C636.59,-371.46 514.57,-359.57 415,-333 365.12,-319.69 309.82,-295.73 277.87,-280.91"/>
<polygon fill="midnightblue" stroke="midnightblue" points="279.27,-277.7 268.73,-276.63 276.3,-284.04 279.27,-277.7"/>
</g>
<!-- Node3 -->
<g id="node3" class="node">
<title>Node3</title>
<g id="a_node3"><a xlink:href="win32_8h.html" target="_top" xlink:title=" ">
<polygon fill="white" stroke="black" points="925.5,-6 925.5,-25 1062.5,-25 1062.5,-6 925.5,-6"/>
<text text-anchor="middle" x="994" y="-13" font-family="Helvetica,sans-Serif" font-size="10.00">log4cplus/config/win32.h</text>
</a>
</g>
</g>
<!-- Node2&#45;&gt;Node3 -->
<g id="edge2" class="edge">
<title>Node2&#45;&gt;Node3</title>
<path fill="none" stroke="midnightblue" d="M1060.62,-72.73C1048.15,-62.21 1027.03,-44.38 1011.91,-31.62"/>
<polygon fill="midnightblue" stroke="midnightblue" points="1014.12,-28.9 1004.22,-25.13 1009.6,-34.25 1014.12,-28.9"/>
</g>
<!-- Node4 -->
<g id="node4" class="node">
<title>Node4</title>
<g id="a_node4"><a xlink:href="thread-config_8h.html" target="_top" xlink:title=" ">
<polygon fill="white" stroke="black" points="1080.5,-0.5 1080.5,-30.5 1217.5,-30.5 1217.5,-0.5 1080.5,-0.5"/>
<text text-anchor="start" x="1088.5" y="-18.5" font-family="Helvetica,sans-Serif" font-size="10.00">log4cplus/helpers/thread</text>
<text text-anchor="middle" x="1149" y="-7.5" font-family="Helvetica,sans-Serif" font-size="10.00">&#45;config.h</text>
</a>
</g>
</g>
<!-- Node2&#45;&gt;Node4 -->
<g id="edge3" class="edge">
<title>Node2&#45;&gt;Node4</title>
<path fill="none" stroke="midnightblue" d="M1081.52,-72.73C1092.36,-63.7 1109.67,-49.27 1124.04,-37.3"/>
<polygon fill="midnightblue" stroke="midnightblue" points="1126.65,-39.68 1132.09,-30.59 1122.17,-34.3 1126.65,-39.68"/>
</g>
<!-- Node9&#45;&gt;Node2 -->
<g id="edge9" class="edge">
<title>Node9&#45;&gt;Node2</title>
<path fill="none" stroke="midnightblue" d="M824.04,-195.8C805.06,-182.03 773.76,-154.63 791,-134 817.47,-102.33 928.73,-90.49 1002.78,-86.08"/>
<polygon fill="midnightblue" stroke="midnightblue" points="1003.18,-89.56 1012.97,-85.51 1002.79,-82.58 1003.18,-89.56"/>
</g>
<!-- Node10 -->
<g id="node10" class="node">
<title>Node10</title>
<g id="a_node10"><a xlink:title=" ">
<polygon fill="white" stroke="#bfbfbf" points="800.5,-134.5 800.5,-153.5 869.5,-153.5 869.5,-134.5 800.5,-134.5"/>
<text text-anchor="middle" x="835" y="-141.5" font-family="Helvetica,sans-Serif" font-size="10.00">type_traits</text>
</a>
</g>
</g>
<!-- Node9&#45;&gt;Node10 -->
<g id="edge10" class="edge">
<title>Node9&#45;&gt;Node10</title>
<path fill="none" stroke="midnightblue" d="M836.71,-195.98C836.43,-187.58 835.99,-174.48 835.63,-163.66"/>
<polygon fill="midnightblue" stroke="midnightblue" points="839.12,-163.39 835.29,-153.51 832.12,-163.62 839.12,-163.39"/>
</g>
<!-- Node11 -->
<g id="node11" class="node">
<title>Node11</title>
<g id="a_node11"><a xlink:title=" ">
<polygon fill="white" stroke="#bfbfbf" points="678.5,-134.5 678.5,-153.5 743.5,-153.5 743.5,-134.5 678.5,-134.5"/>
<text text-anchor="middle" x="711" y="-141.5" font-family="Helvetica,sans-Serif" font-size="10.00">functional</text>
</a>
</g>
</g>
<!-- Node9&#45;&gt;Node11 -->
<g id="edge11" class="edge">
<title>Node9&#45;&gt;Node11</title>
<path fill="none" stroke="midnightblue" d="M818.95,-195.98C797.8,-185.99 762.56,-169.35 738.12,-157.81"/>
<polygon fill="midnightblue" stroke="midnightblue" points="739.56,-154.61 729.02,-153.51 736.57,-160.94 739.56,-154.61"/>
</g>
<!-- Node12 -->
<g id="node12" class="node">
<title>Node12</title>
<g id="a_node12"><a xlink:title=" ">
<polygon fill="white" stroke="#bfbfbf" points="888,-134.5 888,-153.5 932,-153.5 932,-134.5 888,-134.5"/>
<text text-anchor="middle" x="910" y="-141.5" font-family="Helvetica,sans-Serif" font-size="10.00">string</text>
</a>
</g>
</g>
<!-- Node9&#45;&gt;Node12 -->
<g id="edge12" class="edge">
<title>Node9&#45;&gt;Node12</title>
<path fill="none" stroke="midnightblue" d="M847.46,-195.98C858.95,-186.61 877.63,-171.38 891.59,-160.01"/>
<polygon fill="midnightblue" stroke="midnightblue" points="894.02,-162.54 899.56,-153.51 889.6,-157.11 894.02,-162.54"/>
</g>
<!-- Node13 -->
<g id="node13" class="node">
<title>Node13</title>
<g id="a_node13"><a xlink:title=" ">
<polygon fill="white" stroke="#bfbfbf" points="950.5,-134.5 950.5,-153.5 1023.5,-153.5 1023.5,-134.5 950.5,-134.5"/>
<text text-anchor="middle" x="987" y="-141.5" font-family="Helvetica,sans-Serif" font-size="10.00">string_view</text>
</a>
</g>
</g>
<!-- Node9&#45;&gt;Node13 -->
<g id="edge13" class="edge">
<title>Node9&#45;&gt;Node13</title>
<path fill="none" stroke="midnightblue" d="M858.49,-195.98C884.11,-185.81 927.11,-168.76 956.24,-157.2"/>
<polygon fill="midnightblue" stroke="midnightblue" points="957.54,-160.45 965.55,-153.51 954.96,-153.94 957.54,-160.45"/>
</g>
<!-- Node14 -->
<g id="node14" class="node">
<title>Node14</title>
<g id="a_node14"><a xlink:href="tchar_8h.html" target="_top" xlink:title=" ">
<polygon fill="white" stroke="black" points="104.5,-134.5 104.5,-153.5 203.5,-153.5 203.5,-134.5 104.5,-134.5"/>
<text text-anchor="middle" x="154" y="-141.5" font-family="Helvetica,sans-Serif" font-size="10.00">log4cplus/tchar.h</text>
</a>
</g>
</g>
<!-- Node9&#45;&gt;Node14 -->
<g id="edge14" class="edge">
<title>Node9&#45;&gt;Node14</title>
<path fill="none" stroke="midnightblue" d="M783.23,-198.62C757.46,-195.87 726.14,-192.63 698,-190 522.12,-173.55 313.95,-157.2 213.76,-149.52"/>
<polygon fill="midnightblue" stroke="midnightblue" points="213.77,-146.01 203.54,-148.74 213.24,-152.99 213.77,-146.01"/>
</g>
<!-- Node14&#45;&gt;Node2 -->
<g id="edge15" class="edge">
<title>Node14&#45;&gt;Node2</title>
<path fill="none" stroke="midnightblue" d="M203.57,-135.63C208.44,-135.02 213.31,-134.47 218,-134 509.2,-104.95 858.11,-90.69 1002.89,-85.67"/>
<polygon fill="midnightblue" stroke="midnightblue" points="1003.08,-89.16 1012.95,-85.32 1002.84,-82.17 1003.08,-89.16"/>
</g>
<!-- Node15 -->
<g id="node15" class="node">
<title>Node15</title>
<g id="a_node15"><a xlink:title=" ">
<polygon fill="white" stroke="#bfbfbf" points="127.5,-73 127.5,-92 180.5,-92 180.5,-73 127.5,-73"/>
<text text-anchor="middle" x="154" y="-80" font-family="Helvetica,sans-Serif" font-size="10.00">cstddef</text>
</a>
</g>
</g>
<!-- Node14&#45;&gt;Node15 -->
<g id="edge16" class="edge">
<title>Node14&#45;&gt;Node15</title>
<path fill="none" stroke="midnightblue" d="M154,-134.48C154,-126.08 154,-112.98 154,-102.16"/>
<polygon fill="midnightblue" stroke="midnightblue" points="157.5,-102.01 154,-92.01 150.5,-102.01 157.5,-102.01"/>
</g>
<!-- Node16&#45;&gt;Node2 -->
<g id="edge18" class="edge">
<title>Node16&#45;&gt;Node2</title>
<path fill="none" stroke="midnightblue" d="M71.93,-195.82C72.32,-180.5 75.58,-148.87 95,-134 130.97,-106.45 786.55,-89.71 1002.59,-84.93"/>
<polygon fill="midnightblue" stroke="midnightblue" points="1002.92,-88.42 1012.84,-84.7 1002.77,-81.42 1002.92,-88.42"/>
</g>
<!-- Node16&#45;&gt;Node14 -->
<g id="edge19" class="edge">
<title>Node16&#45;&gt;Node14</title>
<path fill="none" stroke="midnightblue" d="M83.75,-195.98C96.78,-186.52 118.04,-171.1 133.76,-159.69"/>
<polygon fill="midnightblue" stroke="midnightblue" points="136.23,-162.21 142.27,-153.51 132.12,-156.55 136.23,-162.21"/>
</g>
<!-- Node17 -->
<g id="node17" class="node">
<title>Node17</title>
<g id="a_node17"><a xlink:title=" ">
<polygon fill="white" stroke="#bfbfbf" points="0,-134.5 0,-153.5 48,-153.5 48,-134.5 0,-134.5"/>
<text text-anchor="middle" x="24" y="-141.5" font-family="Helvetica,sans-Serif" font-size="10.00">iosfwd</text>
</a>
</g>
</g>
<!-- Node16&#45;&gt;Node17 -->
<g id="edge20" class="edge">
<title>Node16&#45;&gt;Node17</title>
<path fill="none" stroke="midnightblue" d="M65.12,-195.98C57.85,-186.96 46.2,-172.52 37.16,-161.31"/>
<polygon fill="midnightblue" stroke="midnightblue" points="39.87,-159.09 30.86,-153.51 34.42,-163.49 39.87,-159.09"/>
</g>
<!-- Node18&#45;&gt;Node2 -->
<g id="edge22" class="edge">
<title>Node18&#45;&gt;Node2</title>
<path fill="none" stroke="midnightblue" d="M507.78,-261.2C447.8,-253.14 354.74,-233.32 390,-190 466.27,-96.29 845.97,-84.15 1002.93,-83.2"/>
<polygon fill="midnightblue" stroke="midnightblue" points="1002.95,-86.7 1012.94,-83.16 1002.92,-79.71 1002.95,-86.7"/>
</g>
<!-- Node18&#45;&gt;Node9 -->
<g id="edge23" class="edge">
<title>Node18&#45;&gt;Node9</title>
<path fill="none" stroke="midnightblue" d="M594.55,-257.48C645.19,-246.83 731.84,-228.61 786.68,-217.08"/>
<polygon fill="midnightblue" stroke="midnightblue" points="787.46,-220.49 796.53,-215.01 786.02,-213.64 787.46,-220.49"/>
</g>
<!-- Node19 -->
<g id="node19" class="node">
<title>Node19</title>
<g id="a_node19"><a xlink:title=" ">
<polygon fill="white" stroke="#bfbfbf" points="465,-196 465,-215 503,-215 503,-196 465,-196"/>
<text text-anchor="middle" x="484" y="-203" font-family="Helvetica,sans-Serif" font-size="10.00">map</text>
</a>
</g>
</g>
<!-- Node18&#45;&gt;Node19 -->
<g id="edge24" class="edge">
<title>Node18&#45;&gt;Node19</title>
<path fill="none" stroke="midnightblue" d="M543.97,-257.48C532.95,-248.11 515.04,-232.88 501.66,-221.51"/>
<polygon fill="midnightblue" stroke="midnightblue" points="503.9,-218.82 494.01,-215.01 499.36,-224.15 503.9,-218.82"/>
</g>
<!-- Node20 -->
<g id="node20" class="node">
<title>Node20</title>
<g id="a_node20"><a xlink:title=" ">
<polygon fill="white" stroke="#bfbfbf" points="399.5,-196 399.5,-215 446.5,-215 446.5,-196 399.5,-196"/>
<text text-anchor="middle" x="423" y="-203" font-family="Helvetica,sans-Serif" font-size="10.00">deque</text>
</a>
</g>
</g>
<!-- Node18&#45;&gt;Node20 -->
<g id="edge25" class="edge">
<title>Node18&#45;&gt;Node20</title>
<path fill="none" stroke="midnightblue" d="M535.23,-257.48C513.15,-247.45 476.28,-230.7 450.86,-219.15"/>
<polygon fill="midnightblue" stroke="midnightblue" points="452.29,-215.96 441.73,-215.01 449.39,-222.33 452.29,-215.96"/>
</g>
<!-- Node21&#45;&gt;Node2 -->
<g id="edge27" class="edge">
<title>Node21&#45;&gt;Node2</title>
<path fill="none" stroke="midnightblue" d="M716.04,-257.14C714.19,-242.51 709.27,-212.65 698,-190 685.52,-164.9 650.46,-155.02 669,-134 690.67,-109.44 893.57,-93.89 1002.55,-87.23"/>
<polygon fill="midnightblue" stroke="midnightblue" points="1003.02,-90.71 1012.79,-86.62 1002.6,-83.73 1003.02,-90.71"/>
</g>
<!-- Node21&#45;&gt;Node9 -->
<g id="edge28" class="edge">
<title>Node21&#45;&gt;Node9</title>
<path fill="none" stroke="midnightblue" d="M734.19,-257.48C754.24,-247.53 787.6,-230.99 810.86,-219.46"/>
<polygon fill="midnightblue" stroke="midnightblue" points="812.43,-222.59 819.84,-215.01 809.32,-216.32 812.43,-222.59"/>
</g>
<!-- Node21&#45;&gt;Node11 -->
<g id="edge31" class="edge">
<title>Node21&#45;&gt;Node11</title>
<path fill="none" stroke="midnightblue" d="M720.92,-257.08C726.65,-242.85 736.12,-214.15 731,-190 729,-180.59 724.9,-170.76 720.93,-162.7"/>
<polygon fill="midnightblue" stroke="midnightblue" points="723.89,-160.81 716.13,-153.59 717.69,-164.07 723.89,-160.81"/>
</g>
<!-- Node21&#45;&gt;Node19 -->
<g id="edge29" class="edge">
<title>Node21&#45;&gt;Node19</title>
<path fill="none" stroke="midnightblue" d="M668.78,-259.08C626.59,-252.17 564.08,-239.83 512,-221 510.75,-220.55 509.49,-220.06 508.23,-219.53"/>
<polygon fill="midnightblue" stroke="midnightblue" points="509.32,-216.17 498.79,-215.07 506.34,-222.5 509.32,-216.17"/>
</g>
<!-- Node21&#45;&gt;Node20 -->
<g id="edge33" class="edge">
<title>Node21&#45;&gt;Node20</title>
<path fill="none" stroke="midnightblue" d="M668.56,-261.22C615.54,-255.16 528.43,-242.8 456,-221 454.07,-220.42 452.1,-219.75 450.13,-219.03"/>
<polygon fill="midnightblue" stroke="midnightblue" points="451.09,-215.65 440.51,-215.14 448.47,-222.14 451.09,-215.65"/>
</g>
<!-- Node22 -->
<g id="node22" class="node">
<title>Node22</title>
<g id="a_node22"><a xlink:title=" ">
<polygon fill="white" stroke="#bfbfbf" points="521.5,-196 521.5,-215 614.5,-215 614.5,-196 521.5,-196"/>
<text text-anchor="middle" x="568" y="-203" font-family="Helvetica,sans-Serif" font-size="10.00">unordered_map</text>
</a>
</g>
</g>
<!-- Node21&#45;&gt;Node22 -->
<g id="edge30" class="edge">
<title>Node21&#45;&gt;Node22</title>
<path fill="none" stroke="midnightblue" d="M695.65,-257.48C670.31,-247.36 627.86,-230.4 598.93,-218.85"/>
<polygon fill="midnightblue" stroke="midnightblue" points="599.89,-215.47 589.31,-215.01 597.3,-221.97 599.89,-215.47"/>
</g>
<!-- Node23 -->
<g id="node23" class="node">
<title>Node23</title>
<g id="a_node23"><a xlink:title=" ">
<polygon fill="white" stroke="#bfbfbf" points="633,-196 633,-215 689,-215 689,-196 633,-196"/>
<text text-anchor="middle" x="661" y="-203" font-family="Helvetica,sans-Serif" font-size="10.00">optional</text>
</a>
</g>
</g>
<!-- Node21&#45;&gt;Node23 -->
<g id="edge32" class="edge">
<title>Node21&#45;&gt;Node23</title>
<path fill="none" stroke="midnightblue" d="M708.98,-257.48C700.41,-248.37 686.64,-233.74 676.04,-222.48"/>
<polygon fill="midnightblue" stroke="midnightblue" points="678.41,-219.89 669.01,-215.01 673.31,-224.69 678.41,-219.89"/>
</g>
<!-- Node24&#45;&gt;Node2 -->
<g id="edge35" class="edge">
<title>Node24&#45;&gt;Node2</title>
<path fill="none" stroke="midnightblue" d="M1008.92,-313.5C1028.63,-306.94 1051.37,-295.72 1064,-277 1100.64,-222.71 1085.56,-138.97 1076.26,-102.06"/>
<polygon fill="midnightblue" stroke="midnightblue" points="1079.59,-100.95 1073.63,-92.19 1072.83,-102.75 1079.59,-100.95"/>
</g>
<!-- Node24&#45;&gt;Node5 -->
<g id="edge36" class="edge">
<title>Node24&#45;&gt;Node5</title>
<path fill="none" stroke="midnightblue" d="M1050.36,-317.88C1160.76,-311.46 1356.18,-297.6 1424,-277 1466.29,-264.16 1510.66,-237.25 1535.67,-220.65"/>
<polygon fill="midnightblue" stroke="midnightblue" points="1537.65,-223.54 1543.97,-215.04 1533.73,-217.74 1537.65,-223.54"/>
</g>
<!-- Node24&#45;&gt;Node9 -->
<g id="edge55" class="edge">
<title>Node24&#45;&gt;Node9</title>
<path fill="none" stroke="midnightblue" d="M945.03,-313.45C925.3,-306.16 898.79,-294.13 880,-277 863.99,-262.41 851.89,-240.47 844.67,-224.95"/>
<polygon fill="midnightblue" stroke="midnightblue" points="847.7,-223.14 840.47,-215.4 841.29,-225.96 847.7,-223.14"/>
</g>
<!-- Node24&#45;&gt;Node18 -->
<g id="edge53" class="edge">
<title>Node24&#45;&gt;Node18</title>
<path fill="none" stroke="midnightblue" d="M905.77,-313.44C824.14,-302.9 686.86,-285.16 610.16,-275.26"/>
<polygon fill="midnightblue" stroke="midnightblue" points="610.57,-271.78 600.21,-273.97 609.68,-278.72 610.57,-271.78"/>
</g>
<!-- Node24&#45;&gt;Node21 -->
<g id="edge54" class="edge">
<title>Node24&#45;&gt;Node21</title>
<path fill="none" stroke="midnightblue" d="M931.59,-313.44C887.02,-304 815.23,-288.8 767.11,-278.61"/>
<polygon fill="midnightblue" stroke="midnightblue" points="767.72,-275.16 757.22,-276.52 766.27,-282.01 767.72,-275.16"/>
</g>
<!-- Node25 -->
<g id="node25" class="node">
<title>Node25</title>
<g id="a_node25"><a xlink:href="loglevel_8h.html" target="_top" xlink:title="This header defines the LogLevel type.">
<polygon fill="white" stroke="black" points="1115,-257.5 1115,-276.5 1229,-276.5 1229,-257.5 1115,-257.5"/>
<text text-anchor="middle" x="1172" y="-264.5" font-family="Helvetica,sans-Serif" font-size="10.00">log4cplus/loglevel.h</text>
</a>
</g>
</g>
<!-- Node24&#45;&gt;Node25 -->
<g id="edge37" class="edge">
<title>Node24&#45;&gt;Node25</title>
<path fill="none" stroke="midnightblue" d="M1003.69,-313.44C1038.07,-304.16 1093.08,-289.31 1130.79,-279.13"/>
<polygon fill="midnightblue" stroke="midnightblue" points="1131.72,-282.5 1140.46,-276.52 1129.89,-275.74 1131.72,-282.5"/>
</g>
<!-- Node35 -->
<g id="node35" class="node">
<title>Node35</title>
<g id="a_node35"><a xlink:href="timehelper_8h.html" target="_top" xlink:title=" ">
<polygon fill="white" stroke="black" points="888.5,-257.5 888.5,-276.5 1055.5,-276.5 1055.5,-257.5 888.5,-257.5"/>
<text text-anchor="middle" x="972" y="-264.5" font-family="Helvetica,sans-Serif" font-size="10.00">log4cplus/helpers/timehelper.h</text>
</a>
</g>
</g>
<!-- Node24&#45;&gt;Node35 -->
<g id="edge56" class="edge">
<title>Node24&#45;&gt;Node35</title>
<path fill="none" stroke="midnightblue" d="M972,-313.08C972,-306.01 972,-295.86 972,-286.99"/>
<polygon fill="midnightblue" stroke="midnightblue" points="975.5,-286.75 972,-276.75 968.5,-286.75 975.5,-286.75"/>
</g>
<!-- Node38 -->
<g id="node38" class="node">
<title>Node38</title>
<g id="a_node38"><a xlink:href="threads_8h.html" target="_top" xlink:title=" ">
<polygon fill="white" stroke="black" points="1269,-257.5 1269,-276.5 1415,-276.5 1415,-257.5 1269,-257.5"/>
<text text-anchor="middle" x="1342" y="-264.5" font-family="Helvetica,sans-Serif" font-size="10.00">log4cplus/thread/threads.h</text>
</a>
</g>
</g>
<!-- Node24&#45;&gt;Node38 -->
<g id="edge61" class="edge">
<title>Node24&#45;&gt;Node38</title>
<path fill="none" stroke="midnightblue" d="M1030.63,-313.44C1096.66,-303.81 1203.84,-288.16 1273.63,-277.98"/>
<polygon fill="midnightblue" stroke="midnightblue" points="1274.26,-281.42 1283.65,-276.52 1273.25,-274.5 1274.26,-281.42"/>
</g>
<!-- Node25&#45;&gt;Node2 -->
<g id="edge38" class="edge">
<title>Node25&#45;&gt;Node2</title>
<path fill="none" stroke="midnightblue" d="M1182.71,-257.3C1191.94,-249.07 1204.59,-235.79 1210,-221 1214.73,-208.06 1216.1,-202.35 1210,-190 1187.4,-144.22 1134.64,-112.68 1101.01,-96.39"/>
<polygon fill="midnightblue" stroke="midnightblue" points="1102.2,-93.08 1091.66,-92.01 1099.24,-99.42 1102.2,-93.08"/>
</g>
<!-- Node25&#45;&gt;Node5 -->
<g id="edge40" class="edge">
<title>Node25&#45;&gt;Node5</title>
<path fill="none" stroke="midnightblue" d="M1229.31,-260.2C1313.06,-251.44 1464.7,-234.44 1518,-221 1520.82,-220.29 1523.73,-219.43 1526.6,-218.49"/>
<polygon fill="midnightblue" stroke="midnightblue" points="1527.93,-221.73 1536.17,-215.08 1525.57,-215.14 1527.93,-221.73"/>
</g>
<!-- Node25&#45;&gt;Node6 -->
<g id="edge39" class="edge">
<title>Node25&#45;&gt;Node6</title>
<path fill="none" stroke="midnightblue" d="M1114.85,-260.92C1098.44,-259.55 1080.52,-258.13 1064,-257 764.72,-236.54 687.55,-259.12 390,-221 377.65,-219.42 364.23,-216.89 352.42,-214.39"/>
<polygon fill="midnightblue" stroke="midnightblue" points="353.04,-210.94 342.52,-212.22 351.54,-217.78 353.04,-210.94"/>
</g>
<!-- Node25&#45;&gt;Node9 -->
<g id="edge42" class="edge">
<title>Node25&#45;&gt;Node9</title>
<path fill="none" stroke="midnightblue" d="M1114.77,-257.59C1059.59,-249.24 973.84,-235.59 900,-221 894.22,-219.86 888.15,-218.57 882.17,-217.25"/>
<polygon fill="midnightblue" stroke="midnightblue" points="882.76,-213.8 872.24,-215.02 881.22,-220.63 882.76,-213.8"/>
</g>
<!-- Node26 -->
<g id="node26" class="node">
<title>Node26</title>
<g id="a_node26"><a xlink:title=" ">
<polygon fill="white" stroke="#bfbfbf" points="1115,-196 1115,-215 1201,-215 1201,-196 1115,-196"/>
<text text-anchor="middle" x="1158" y="-203" font-family="Helvetica,sans-Serif" font-size="10.00">shared_mutex</text>
</a>
</g>
</g>
<!-- Node25&#45;&gt;Node26 -->
<g id="edge41" class="edge">
<title>Node25&#45;&gt;Node26</title>
<path fill="none" stroke="midnightblue" d="M1169.99,-257.48C1168,-248.99 1164.87,-235.7 1162.31,-224.82"/>
<polygon fill="midnightblue" stroke="midnightblue" points="1165.7,-223.94 1160,-215.01 1158.89,-225.54 1165.7,-223.94"/>
</g>
<!-- Node27 -->
<g id="node27" class="node">
<title>Node27</title>
<g id="a_node27"><a xlink:href="pointer_8h.html" target="_top" xlink:title=" ">
<polygon fill="white" stroke="black" points="1257,-196 1257,-215 1405,-215 1405,-196 1257,-196"/>
<text text-anchor="middle" x="1331" y="-203" font-family="Helvetica,sans-Serif" font-size="10.00">log4cplus/helpers/pointer.h</text>
</a>
</g>
</g>
<!-- Node25&#45;&gt;Node27 -->
<g id="edge43" class="edge">
<title>Node25&#45;&gt;Node27</title>
<path fill="none" stroke="midnightblue" d="M1194.78,-257.48C1222.05,-247.27 1267.91,-230.11 1298.8,-218.55"/>
<polygon fill="midnightblue" stroke="midnightblue" points="1300.12,-221.79 1308.26,-215.01 1297.67,-215.24 1300.12,-221.79"/>
</g>
<!-- Node27&#45;&gt;Node2 -->
<g id="edge44" class="edge">
<title>Node27&#45;&gt;Node2</title>
<path fill="none" stroke="midnightblue" d="M1328.92,-195.57C1324.9,-180.43 1314.61,-149.83 1294,-134 1249.86,-100.09 1187.18,-88.18 1139.5,-84.34"/>
<polygon fill="midnightblue" stroke="midnightblue" points="1139.49,-80.83 1129.27,-83.62 1139,-87.81 1139.49,-80.83"/>
</g>
<!-- Node28 -->
<g id="node28" class="node">
<title>Node28</title>
<g id="a_node28"><a xlink:href="syncprims_8h.html" target="_top" xlink:title=" ">
<polygon fill="white" stroke="black" points="1607,-134.5 1607,-153.5 1767,-153.5 1767,-134.5 1607,-134.5"/>
<text text-anchor="middle" x="1687" y="-141.5" font-family="Helvetica,sans-Serif" font-size="10.00">log4cplus/thread/syncprims.h</text>
</a>
</g>
</g>
<!-- Node27&#45;&gt;Node28 -->
<g id="edge45" class="edge">
<title>Node27&#45;&gt;Node28</title>
<path fill="none" stroke="midnightblue" d="M1382.01,-195.98C1446.38,-185.22 1556.98,-166.73 1625.83,-155.22"/>
<polygon fill="midnightblue" stroke="midnightblue" points="1626.8,-158.61 1636.09,-153.51 1625.65,-151.71 1626.8,-158.61"/>
</g>
<!-- Node32 -->
<g id="node32" class="node">
<title>Node32</title>
<g id="a_node32"><a xlink:title=" ">
<polygon fill="white" stroke="#bfbfbf" points="1341,-134.5 1341,-153.5 1405,-153.5 1405,-134.5 1341,-134.5"/>
<text text-anchor="middle" x="1373" y="-141.5" font-family="Helvetica,sans-Serif" font-size="10.00">algorithm</text>
</a>
</g>
</g>
<!-- Node27&#45;&gt;Node32 -->
<g id="edge50" class="edge">
<title>Node27&#45;&gt;Node32</title>
<path fill="none" stroke="midnightblue" d="M1337.02,-195.98C1343.26,-187.14 1353.17,-173.09 1361.02,-161.98"/>
<polygon fill="midnightblue" stroke="midnightblue" points="1364.09,-163.7 1366.99,-153.51 1358.37,-159.66 1364.09,-163.7"/>
</g>
<!-- Node33 -->
<g id="node33" class="node">
<title>Node33</title>
<g id="a_node33"><a xlink:title=" ">
<polygon fill="white" stroke="#bfbfbf" points="1461,-134.5 1461,-153.5 1513,-153.5 1513,-134.5 1461,-134.5"/>
<text text-anchor="middle" x="1487" y="-141.5" font-family="Helvetica,sans-Serif" font-size="10.00">cassert</text>
</a>
</g>
</g>
<!-- Node27&#45;&gt;Node33 -->
<g id="edge51" class="edge">
<title>Node27&#45;&gt;Node33</title>
<path fill="none" stroke="midnightblue" d="M1353.35,-195.98C1379.99,-185.81 1424.71,-168.76 1455.01,-157.2"/>
<polygon fill="midnightblue" stroke="midnightblue" points="1456.59,-160.34 1464.69,-153.51 1454.1,-153.8 1456.59,-160.34"/>
</g>
<!-- Node34 -->
<g id="node34" class="node">
<title>Node34</title>
<g id="a_node34"><a xlink:title=" ">
<polygon fill="white" stroke="#bfbfbf" points="1235,-134.5 1235,-153.5 1285,-153.5 1285,-134.5 1235,-134.5"/>
<text text-anchor="middle" x="1260" y="-141.5" font-family="Helvetica,sans-Serif" font-size="10.00">atomic</text>
</a>
</g>
</g>
<!-- Node27&#45;&gt;Node34 -->
<g id="edge52" class="edge">
<title>Node27&#45;&gt;Node34</title>
<path fill="none" stroke="midnightblue" d="M1320.83,-195.98C1309.65,-186.61 1291.48,-171.38 1277.91,-160.01"/>
<polygon fill="midnightblue" stroke="midnightblue" points="1280.07,-157.25 1270.15,-153.51 1275.57,-162.61 1280.07,-157.25"/>
</g>
<!-- Node28&#45;&gt;Node2 -->
<g id="edge46" class="edge">
<title>Node28&#45;&gt;Node2</title>
<path fill="none" stroke="midnightblue" d="M1606.78,-135.25C1484.54,-123.44 1253.76,-101.15 1139.15,-90.08"/>
<polygon fill="midnightblue" stroke="midnightblue" points="1139.38,-86.59 1129.09,-89.11 1138.71,-93.56 1139.38,-86.59"/>
</g>
<!-- Node29 -->
<g id="node29" class="node">
<title>Node29</title>
<g id="a_node29"><a xlink:title=" ">
<polygon fill="white" stroke="#bfbfbf" points="1567,-73 1567,-92 1615,-92 1615,-73 1567,-73"/>
<text text-anchor="middle" x="1591" y="-80" font-family="Helvetica,sans-Serif" font-size="10.00">mutex</text>
</a>
</g>
</g>
<!-- Node28&#45;&gt;Node29 -->
<g id="edge47" class="edge">
<title>Node28&#45;&gt;Node29</title>
<path fill="none" stroke="midnightblue" d="M1673.25,-134.48C1657.63,-124.8 1631.94,-108.87 1613.42,-97.39"/>
<polygon fill="midnightblue" stroke="midnightblue" points="1615.07,-94.3 1604.73,-92.01 1611.38,-100.25 1615.07,-94.3"/>
</g>
<!-- Node30 -->
<g id="node30" class="node">
<title>Node30</title>
<g id="a_node30"><a xlink:title=" ">
<polygon fill="white" stroke="#bfbfbf" points="1633.5,-73 1633.5,-92 1740.5,-92 1740.5,-73 1633.5,-73"/>
<text text-anchor="middle" x="1687" y="-80" font-family="Helvetica,sans-Serif" font-size="10.00">condition_variable</text>
</a>
</g>
</g>
<!-- Node28&#45;&gt;Node30 -->
<g id="edge48" class="edge">
<title>Node28&#45;&gt;Node30</title>
<path fill="none" stroke="midnightblue" d="M1687,-134.48C1687,-126.08 1687,-112.98 1687,-102.16"/>
<polygon fill="midnightblue" stroke="midnightblue" points="1690.5,-102.01 1687,-92.01 1683.5,-102.01 1690.5,-102.01"/>
</g>
<!-- Node31 -->
<g id="node31" class="node">
<title>Node31</title>
<g id="a_node31"><a xlink:href="threadsafetyanalysis_8h.html" target="_top" xlink:title=" ">
<polygon fill="white" stroke="black" points="1758.5,-67.5 1758.5,-97.5 1889.5,-97.5 1889.5,-67.5 1758.5,-67.5"/>
<text text-anchor="start" x="1766.5" y="-85.5" font-family="Helvetica,sans-Serif" font-size="10.00">log4cplus/internal</text>
<text text-anchor="middle" x="1824" y="-74.5" font-family="Helvetica,sans-Serif" font-size="10.00">/threadsafetyanalysis.h</text>
</a>
</g>
</g>
<!-- Node28&#45;&gt;Node31 -->
<g id="edge49" class="edge">
<title>Node28&#45;&gt;Node31</title>
<path fill="none" stroke="midnightblue" d="M1706.63,-134.48C1726.31,-125.93 1757.22,-112.5 1782.39,-101.57"/>
<polygon fill="midnightblue" stroke="midnightblue" points="1783.93,-104.72 1791.71,-97.52 1781.15,-98.3 1783.93,-104.72"/>
</g>
<!-- Node35&#45;&gt;Node2 -->
<g id="edge57" class="edge">
<title>Node35&#45;&gt;Node2</title>
<path fill="none" stroke="midnightblue" d="M975.18,-257.26C980.59,-242.79 992.36,-213.17 1006,-190 1016.15,-172.76 1022.23,-170.85 1033,-154 1043.97,-136.84 1054.83,-116.24 1062.11,-101.76"/>
<polygon fill="midnightblue" stroke="midnightblue" points="1065.43,-102.94 1066.73,-92.42 1059.15,-99.83 1065.43,-102.94"/>
</g>
<!-- Node35&#45;&gt;Node9 -->
<g id="edge58" class="edge">
<title>Node35&#45;&gt;Node9</title>
<path fill="none" stroke="midnightblue" d="M952.66,-257.48C929.9,-247.45 891.91,-230.7 865.71,-219.15"/>
<polygon fill="midnightblue" stroke="midnightblue" points="866.87,-215.84 856.31,-215.01 864.05,-222.24 866.87,-215.84"/>
</g>
<!-- Node36 -->
<g id="node36" class="node">
<title>Node36</title>
<g id="a_node36"><a xlink:title=" ">
<polygon fill="white" stroke="#bfbfbf" points="1015,-196 1015,-215 1059,-215 1059,-196 1015,-196"/>
<text text-anchor="middle" x="1037" y="-203" font-family="Helvetica,sans-Serif" font-size="10.00">ctime</text>
</a>
</g>
</g>
<!-- Node35&#45;&gt;Node36 -->
<g id="edge59" class="edge">
<title>Node35&#45;&gt;Node36</title>
<path fill="none" stroke="midnightblue" d="M981.31,-257.48C991.45,-248.2 1007.86,-233.17 1020.25,-221.83"/>
<polygon fill="midnightblue" stroke="midnightblue" points="1022.69,-224.34 1027.7,-215.01 1017.96,-219.18 1022.69,-224.34"/>
</g>
<!-- Node37 -->
<g id="node37" class="node">
<title>Node37</title>
<g id="a_node37"><a xlink:title=" ">
<polygon fill="white" stroke="#bfbfbf" points="909,-196 909,-215 959,-215 959,-196 909,-196"/>
<text text-anchor="middle" x="934" y="-203" font-family="Helvetica,sans-Serif" font-size="10.00">chrono</text>
</a>
</g>
</g>
<!-- Node35&#45;&gt;Node37 -->
<g id="edge60" class="edge">
<title>Node35&#45;&gt;Node37</title>
<path fill="none" stroke="midnightblue" d="M966.56,-257.48C960.91,-248.64 951.94,-234.59 944.84,-223.48"/>
<polygon fill="midnightblue" stroke="midnightblue" points="947.77,-221.55 939.43,-215.01 941.87,-225.32 947.77,-221.55"/>
</g>
<!-- Node38&#45;&gt;Node2 -->
<g id="edge62" class="edge">
<title>Node38&#45;&gt;Node2</title>
<path fill="none" stroke="midnightblue" d="M1367.5,-257.47C1383.99,-250.48 1404.14,-238.79 1414,-221 1432.74,-187.18 1439.27,-163.27 1414,-134 1379.25,-93.75 1229.07,-85.01 1139.36,-83.45"/>
<polygon fill="midnightblue" stroke="midnightblue" points="1139.31,-79.95 1129.26,-83.3 1139.21,-86.95 1139.31,-79.95"/>
</g>
<!-- Node38&#45;&gt;Node5 -->
<g id="edge63" class="edge">
<title>Node38&#45;&gt;Node5</title>
<path fill="none" stroke="midnightblue" d="M1380.81,-257.42C1416.72,-249.17 1471.41,-235.79 1518,-221 1520.41,-220.23 1522.9,-219.4 1525.39,-218.53"/>
<polygon fill="midnightblue" stroke="midnightblue" points="1526.66,-221.79 1534.85,-215.06 1524.25,-215.21 1526.66,-221.79"/>
</g>
<!-- Node38&#45;&gt;Node9 -->
<g id="edge65" class="edge">
<title>Node38&#45;&gt;Node9</title>
<path fill="none" stroke="midnightblue" d="M1268.59,-259.65C1161.84,-250.22 968.97,-232.4 900,-221 893.68,-219.95 887.04,-218.65 880.55,-217.27"/>
<polygon fill="midnightblue" stroke="midnightblue" points="881.04,-213.79 870.52,-215.03 879.52,-220.62 881.04,-213.79"/>
</g>
<!-- Node38&#45;&gt;Node27 -->
<g id="edge66" class="edge">
<title>Node38&#45;&gt;Node27</title>
<path fill="none" stroke="midnightblue" d="M1340.42,-257.48C1338.87,-249.08 1336.45,-235.98 1334.45,-225.16"/>
<polygon fill="midnightblue" stroke="midnightblue" points="1337.83,-224.21 1332.57,-215.01 1330.95,-225.48 1337.83,-224.21"/>
</g>
<!-- Node39 -->
<g id="node39" class="node">
<title>Node39</title>
<g id="a_node39"><a xlink:title=" ">
<polygon fill="white" stroke="#bfbfbf" points="1461,-196 1461,-215 1509,-215 1509,-196 1461,-196"/>
<text text-anchor="middle" x="1485" y="-203" font-family="Helvetica,sans-Serif" font-size="10.00">thread</text>
</a>
</g>
</g>
<!-- Node38&#45;&gt;Node39 -->
<g id="edge64" class="edge">
<title>Node38&#45;&gt;Node39</title>
<path fill="none" stroke="midnightblue" d="M1362.49,-257.48C1386.81,-247.36 1427.55,-230.4 1455.32,-218.85"/>
<polygon fill="midnightblue" stroke="midnightblue" points="1456.66,-222.08 1464.55,-215.01 1453.97,-215.62 1456.66,-222.08"/>
</g>
<!-- Node40&#45;&gt;Node2 -->
<g id="edge68" class="edge">
<title>Node40&#45;&gt;Node2</title>
<path fill="none" stroke="midnightblue" d="M1673.03,-190.45C1631.09,-170.14 1558.1,-134.88 1555,-134 1410.87,-93.24 1234.24,-84.72 1139.25,-83.33"/>
<polygon fill="midnightblue" stroke="midnightblue" points="1139.24,-79.83 1129.2,-83.2 1139.15,-86.83 1139.24,-79.83"/>
</g>
<!-- Node40&#45;&gt;Node33 -->
<g id="edge70" class="edge">
<title>Node40&#45;&gt;Node33</title>
<path fill="none" stroke="midnightblue" d="M1651.32,-190.47C1611.89,-179.56 1558.14,-164.69 1523.01,-154.97"/>
<polygon fill="midnightblue" stroke="midnightblue" points="1523.76,-151.54 1513.18,-152.25 1521.89,-158.29 1523.76,-151.54"/>
</g>
<!-- Node41 -->
<g id="node41" class="node">
<title>Node41</title>
<g id="a_node41"><a xlink:title=" ">
<polygon fill="white" stroke="#bfbfbf" points="1785.5,-134.5 1785.5,-153.5 1822.5,-153.5 1822.5,-134.5 1785.5,-134.5"/>
<text text-anchor="middle" x="1804" y="-141.5" font-family="Helvetica,sans-Serif" font-size="10.00">new</text>
</a>
</g>
</g>
<!-- Node40&#45;&gt;Node41 -->
<g id="edge69" class="edge">
<title>Node40&#45;&gt;Node41</title>
<path fill="none" stroke="midnightblue" d="M1726.17,-190.4C1742.52,-180.86 1764.01,-168.32 1780.27,-158.84"/>
<polygon fill="midnightblue" stroke="midnightblue" points="1782.28,-161.72 1789.16,-153.66 1778.76,-155.67 1782.28,-161.72"/>
</g>
<!-- Node42 -->
<g id="node42" class="node">
<title>Node42</title>
<g id="a_node42"><a xlink:title=" ">
<polygon fill="white" stroke="#bfbfbf" points="1840.5,-134.5 1840.5,-153.5 1921.5,-153.5 1921.5,-134.5 1840.5,-134.5"/>
<text text-anchor="middle" x="1881" y="-141.5" font-family="Helvetica,sans-Serif" font-size="10.00">system_error</text>
</a>
</g>
</g>
<!-- Node40&#45;&gt;Node42 -->
<g id="edge71" class="edge">
<title>Node40&#45;&gt;Node42</title>
<path fill="none" stroke="midnightblue" d="M1744.42,-190.4C1775.22,-180.16 1816.41,-166.47 1845.48,-156.81"/>
<polygon fill="midnightblue" stroke="midnightblue" points="1846.83,-160.05 1855.22,-153.57 1844.62,-153.4 1846.83,-160.05"/>
</g>
<!-- Node43&#45;&gt;Node2 -->
<g id="edge73" class="edge">
<title>Node43&#45;&gt;Node2</title>
<path fill="none" stroke="midnightblue" d="M241.14,-257.33C225.4,-242.45 198.03,-211.57 215,-190 263.6,-128.2 808.44,-96.13 1002.71,-86.6"/>
<polygon fill="midnightblue" stroke="midnightblue" points="1002.97,-90.09 1012.79,-86.11 1002.63,-83.09 1002.97,-90.09"/>
</g>
<!-- Node43&#45;&gt;Node6 -->
<g id="edge76" class="edge">
<title>Node43&#45;&gt;Node6</title>
<path fill="none" stroke="midnightblue" d="M260.74,-257.48C271.35,-248.2 288.52,-233.17 301.48,-221.83"/>
<polygon fill="midnightblue" stroke="midnightblue" points="304.05,-224.23 309.28,-215.01 299.44,-218.96 304.05,-224.23"/>
</g>
<!-- Node43&#45;&gt;Node14 -->
<g id="edge74" class="edge">
<title>Node43&#45;&gt;Node14</title>
<path fill="none" stroke="midnightblue" d="M231.25,-257.41C215.91,-249.84 195.1,-237.44 182,-221 168.61,-204.2 161.23,-180.39 157.46,-163.92"/>
<polygon fill="midnightblue" stroke="midnightblue" points="160.83,-162.95 155.39,-153.86 153.97,-164.36 160.83,-162.95"/>
</g>
<!-- Node44 -->
<g id="node44" class="node">
<title>Node44</title>
<g id="a_node44"><a xlink:title=" ">
<polygon fill="white" stroke="#bfbfbf" points="224.5,-196 224.5,-215 277.5,-215 277.5,-196 224.5,-196"/>
<text text-anchor="middle" x="251" y="-203" font-family="Helvetica,sans-Serif" font-size="10.00">cstdarg</text>
</a>
</g>
</g>
<!-- Node43&#45;&gt;Node44 -->
<g id="edge75" class="edge">
<title>Node43&#45;&gt;Node44</title>
<path fill="none" stroke="midnightblue" d="M251,-257.48C251,-249.08 251,-235.98 251,-225.16"/>
<polygon fill="midnightblue" stroke="midnightblue" points="254.5,-225.01 251,-215.01 247.5,-225.01 254.5,-225.01"/>
</g>
</g>
</svg>
