<?xml version="1.0" encoding="UTF-8" standalone="no"?>
<!DOCTYPE svg PUBLIC "-//W3C//DTD SVG 1.1//EN"
 "http://www.w3.org/Graphics/SVG/1.1/DTD/svg11.dtd">
<!-- Generated by graphviz version 2.43.0 (0)
 -->
<!-- Title: layout.h Pages: 1 -->
<svg width="1805pt" height="364pt"
 viewBox="0.00 0.00 1805.00 364.00" xmlns="http://www.w3.org/2000/svg" xmlns:xlink="http://www.w3.org/1999/xlink">
<g id="graph0" class="graph" transform="scale(1 1) rotate(0) translate(4 360)">
<title>layout.h</title>
<polygon fill="white" stroke="transparent" points="-4,4 -4,-360 1801,-360 1801,4 -4,4"/>
<!-- Node1 -->
<g id="node1" class="node">
<title>Node1</title>
<g id="a_node1"><a xlink:title=" ">
<polygon fill="#bfbfbf" stroke="black" points="1700,-336.5 1700,-355.5 1756,-355.5 1756,-336.5 1700,-336.5"/>
<text text-anchor="middle" x="1728" y="-343.5" font-family="Helvetica,sans-Serif" font-size="10.00">layout.h</text>
</a>
</g>
</g>
<!-- Node2 -->
<g id="node2" class="node">
<title>Node2</title>
<g id="a_node2"><a xlink:href="appender_8h.html" target="_top" xlink:title=" ">
<polygon fill="white" stroke="black" points="1131.5,-280.5 1131.5,-299.5 1202.5,-299.5 1202.5,-280.5 1131.5,-280.5"/>
<text text-anchor="middle" x="1167" y="-287.5" font-family="Helvetica,sans-Serif" font-size="10.00">appender.h</text>
</a>
</g>
</g>
<!-- Node1&#45;&gt;Node2 -->
<g id="edge1" class="edge">
<title>Node1&#45;&gt;Node2</title>
<path fill="none" stroke="midnightblue" d="M1689.81,-341.32C1586.55,-331.38 1302.87,-304.08 1202.64,-294.43"/>
<polygon fill="midnightblue" stroke="midnightblue" points="1689.51,-344.81 1699.8,-342.29 1690.18,-337.84 1689.51,-344.81"/>
</g>
<!-- Node6 -->
<g id="node6" class="node">
<title>Node6</title>
<g id="a_node6"><a xlink:href="log4cplus_8h.html" target="_top" xlink:title=" ">
<polygon fill="white" stroke="black" points="1314,-0.5 1314,-19.5 1386,-19.5 1386,-0.5 1314,-0.5"/>
<text text-anchor="middle" x="1350" y="-7.5" font-family="Helvetica,sans-Serif" font-size="10.00">log4cplus.h</text>
</a>
</g>
</g>
<!-- Node1&#45;&gt;Node6 -->
<g id="edge46" class="edge">
<title>Node1&#45;&gt;Node6</title>
<path fill="none" stroke="midnightblue" d="M1745.67,-329.51C1766.12,-309.79 1797,-273.61 1797,-235 1797,-235 1797,-235 1797,-121 1797,-36.59 1492.62,-16.58 1386.2,-12.17"/>
<polygon fill="midnightblue" stroke="midnightblue" points="1743.13,-327.1 1738.18,-336.46 1747.89,-332.23 1743.13,-327.1"/>
</g>
<!-- Node19 -->
<g id="node19" class="node">
<title>Node19</title>
<g id="a_node19"><a xlink:href="factory_8h.html" target="_top" xlink:title=" ">
<polygon fill="white" stroke="black" points="1698.5,-224.5 1698.5,-243.5 1757.5,-243.5 1757.5,-224.5 1698.5,-224.5"/>
<text text-anchor="middle" x="1728" y="-231.5" font-family="Helvetica,sans-Serif" font-size="10.00">factory.h</text>
</a>
</g>
</g>
<!-- Node1&#45;&gt;Node19 -->
<g id="edge45" class="edge">
<title>Node1&#45;&gt;Node19</title>
<path fill="none" stroke="midnightblue" d="M1728,-326.35C1728,-302.25 1728,-261.31 1728,-243.59"/>
<polygon fill="midnightblue" stroke="midnightblue" points="1724.5,-326.37 1728,-336.37 1731.5,-326.37 1724.5,-326.37"/>
</g>
<!-- Node3 -->
<g id="node3" class="node">
<title>Node3</title>
<g id="a_node3"><a xlink:href="appenderattachable_8h.html" target="_top" xlink:title=" ">
<polygon fill="white" stroke="black" points="833.5,-224.5 833.5,-243.5 956.5,-243.5 956.5,-224.5 833.5,-224.5"/>
<text text-anchor="middle" x="895" y="-231.5" font-family="Helvetica,sans-Serif" font-size="10.00">appenderattachable.h</text>
</a>
</g>
</g>
<!-- Node2&#45;&gt;Node3 -->
<g id="edge2" class="edge">
<title>Node2&#45;&gt;Node3</title>
<path fill="none" stroke="midnightblue" d="M1121.35,-279.94C1070.3,-269.8 988.23,-253.51 938.2,-243.58"/>
<polygon fill="midnightblue" stroke="midnightblue" points="1120.95,-283.43 1131.44,-281.94 1122.31,-276.56 1120.95,-283.43"/>
</g>
<!-- Node5 -->
<g id="node5" class="node">
<title>Node5</title>
<g id="a_node5"><a xlink:href="asyncappender_8h.html" target="_top" xlink:title=" ">
<polygon fill="white" stroke="black" points="765.5,-112.5 765.5,-131.5 864.5,-131.5 864.5,-112.5 765.5,-112.5"/>
<text text-anchor="middle" x="815" y="-119.5" font-family="Helvetica,sans-Serif" font-size="10.00">asyncappender.h</text>
</a>
</g>
</g>
<!-- Node2&#45;&gt;Node5 -->
<g id="edge20" class="edge">
<title>Node2&#45;&gt;Node5</title>
<path fill="none" stroke="midnightblue" d="M1120.78,-287.88C963.65,-283.87 458.55,-269.05 435,-244 428.91,-237.52 429.58,-231.05 435,-224 455.81,-196.94 676.04,-150.52 771.39,-131.5"/>
<polygon fill="midnightblue" stroke="midnightblue" points="1120.96,-291.39 1131.04,-288.14 1121.14,-284.39 1120.96,-291.39"/>
</g>
<!-- Node2&#45;&gt;Node6 -->
<g id="edge32" class="edge">
<title>Node2&#45;&gt;Node6</title>
<path fill="none" stroke="midnightblue" d="M1201.3,-276.43C1218.11,-268.97 1237.75,-258.18 1252,-244 1320.12,-176.21 1343.41,-53.89 1348.72,-19.95"/>
<polygon fill="midnightblue" stroke="midnightblue" points="1199.64,-273.33 1191.79,-280.44 1202.36,-279.78 1199.64,-273.33"/>
</g>
<!-- Node10 -->
<g id="node10" class="node">
<title>Node10</title>
<g id="a_node10"><a xlink:href="configurator_8h.html" target="_top" xlink:title=" ">
<polygon fill="white" stroke="black" points="664.5,-112.5 664.5,-131.5 747.5,-131.5 747.5,-112.5 664.5,-112.5"/>
<text text-anchor="middle" x="706" y="-119.5" font-family="Helvetica,sans-Serif" font-size="10.00">configurator.h</text>
</a>
</g>
</g>
<!-- Node2&#45;&gt;Node10 -->
<g id="edge23" class="edge">
<title>Node2&#45;&gt;Node10</title>
<path fill="none" stroke="midnightblue" d="M1121.05,-288.45C941.12,-286.07 292.84,-275.36 263,-244 205.02,-183.06 543.56,-140.38 664.37,-127.25"/>
<polygon fill="midnightblue" stroke="midnightblue" points="1121.19,-291.95 1131.24,-288.58 1121.28,-284.95 1121.19,-291.95"/>
</g>
<!-- Node12 -->
<g id="node12" class="node">
<title>Node12</title>
<g id="a_node12"><a xlink:href="hierarchylocker_8h.html" target="_top" xlink:title=" ">
<polygon fill="white" stroke="black" points="1203,-112.5 1203,-131.5 1303,-131.5 1303,-112.5 1203,-112.5"/>
<text text-anchor="middle" x="1253" y="-119.5" font-family="Helvetica,sans-Serif" font-size="10.00">hierarchylocker.h</text>
</a>
</g>
</g>
<!-- Node2&#45;&gt;Node12 -->
<g id="edge31" class="edge">
<title>Node2&#45;&gt;Node12</title>
<path fill="none" stroke="midnightblue" d="M1197.01,-275.83C1210.43,-268.41 1225.19,-257.82 1234,-244 1257.21,-207.6 1255.56,-152.84 1253.88,-131.73"/>
<polygon fill="midnightblue" stroke="midnightblue" points="1195.31,-272.77 1188.02,-280.47 1198.52,-279 1195.31,-272.77"/>
</g>
<!-- Node15 -->
<g id="node15" class="node">
<title>Node15</title>
<g id="a_node15"><a xlink:href="callbackappender_8h.html" target="_top" xlink:title=" ">
<polygon fill="white" stroke="black" points="0,-224.5 0,-243.5 110,-243.5 110,-224.5 0,-224.5"/>
<text text-anchor="middle" x="55" y="-231.5" font-family="Helvetica,sans-Serif" font-size="10.00">callbackappender.h</text>
</a>
</g>
</g>
<!-- Node2&#45;&gt;Node15 -->
<g id="edge21" class="edge">
<title>Node2&#45;&gt;Node15</title>
<path fill="none" stroke="midnightblue" d="M1120.76,-288.61C973.93,-287.03 505.14,-279.36 119,-244 116.09,-243.73 113.12,-243.43 110.12,-243.1"/>
<polygon fill="midnightblue" stroke="midnightblue" points="1121.14,-292.11 1131.18,-288.72 1121.21,-285.11 1121.14,-292.11"/>
</g>
<!-- Node16 -->
<g id="node16" class="node">
<title>Node16</title>
<g id="a_node16"><a xlink:href="clfsappender_8h.html" target="_top" xlink:title=" ">
<polygon fill="white" stroke="black" points="128,-224.5 128,-243.5 216,-243.5 216,-224.5 128,-224.5"/>
<text text-anchor="middle" x="172" y="-231.5" font-family="Helvetica,sans-Serif" font-size="10.00">clfsappender.h</text>
</a>
</g>
</g>
<!-- Node2&#45;&gt;Node16 -->
<g id="edge22" class="edge">
<title>Node2&#45;&gt;Node16</title>
<path fill="none" stroke="midnightblue" d="M1121.08,-288.52C984.83,-286.71 571.1,-278.56 230,-244 225.54,-243.55 220.9,-242.99 216.27,-242.36"/>
<polygon fill="midnightblue" stroke="midnightblue" points="1121.11,-292.02 1131.15,-288.64 1121.2,-285.02 1121.11,-292.02"/>
</g>
<!-- Node17 -->
<g id="node17" class="node">
<title>Node17</title>
<g id="a_node17"><a xlink:href="consoleappender_8h.html" target="_top" xlink:title=" ">
<polygon fill="white" stroke="black" points="1319,-168.5 1319,-187.5 1427,-187.5 1427,-168.5 1319,-168.5"/>
<text text-anchor="middle" x="1373" y="-175.5" font-family="Helvetica,sans-Serif" font-size="10.00">consoleappender.h</text>
</a>
</g>
</g>
<!-- Node2&#45;&gt;Node17 -->
<g id="edge24" class="edge">
<title>Node2&#45;&gt;Node17</title>
<path fill="none" stroke="midnightblue" d="M1212.95,-289.07C1288.52,-288.1 1433.91,-281.29 1466,-244 1487.78,-218.69 1439.95,-198.4 1405.14,-187.58"/>
<polygon fill="midnightblue" stroke="midnightblue" points="1212.73,-285.57 1202.77,-289.17 1212.8,-292.57 1212.73,-285.57"/>
</g>
<!-- Node18 -->
<g id="node18" class="node">
<title>Node18</title>
<g id="a_node18"><a xlink:href="deviceappender_8hxx.html" target="_top" xlink:title=" ">
<polygon fill="white" stroke="black" points="272.5,-224.5 272.5,-243.5 387.5,-243.5 387.5,-224.5 272.5,-224.5"/>
<text text-anchor="middle" x="330" y="-231.5" font-family="Helvetica,sans-Serif" font-size="10.00">deviceappender.hxx</text>
</a>
</g>
</g>
<!-- Node2&#45;&gt;Node18 -->
<g id="edge26" class="edge">
<title>Node2&#45;&gt;Node18</title>
<path fill="none" stroke="midnightblue" d="M1121.3,-287.36C1002.51,-282.87 674.32,-269 402,-244 397.36,-243.57 392.55,-243.08 387.73,-242.55"/>
<polygon fill="midnightblue" stroke="midnightblue" points="1121.35,-290.86 1131.48,-287.74 1121.62,-283.87 1121.35,-290.86"/>
</g>
<!-- Node2&#45;&gt;Node19 -->
<g id="edge27" class="edge">
<title>Node2&#45;&gt;Node19</title>
<path fill="none" stroke="midnightblue" d="M1212.69,-286.07C1301.56,-280.11 1503.82,-265.34 1673,-244 1681.26,-242.96 1690.17,-241.6 1698.37,-240.26"/>
<polygon fill="midnightblue" stroke="midnightblue" points="1212.42,-282.58 1202.68,-286.73 1212.89,-289.56 1212.42,-282.58"/>
</g>
<!-- Node20 -->
<g id="node20" class="node">
<title>Node20</title>
<g id="a_node20"><a xlink:href="fileappender_8h.html" target="_top" xlink:title=" ">
<polygon fill="white" stroke="black" points="1400,-56.5 1400,-75.5 1486,-75.5 1486,-56.5 1400,-56.5"/>
<text text-anchor="middle" x="1443" y="-63.5" font-family="Helvetica,sans-Serif" font-size="10.00">fileappender.h</text>
</a>
</g>
</g>
<!-- Node2&#45;&gt;Node20 -->
<g id="edge29" class="edge">
<title>Node2&#45;&gt;Node20</title>
<path fill="none" stroke="midnightblue" d="M1212.79,-289.47C1291.59,-289.2 1447.71,-283.54 1482,-244 1487.82,-237.28 1483.08,-232.82 1482,-224 1478.35,-194.17 1453.55,-104.5 1445.51,-75.88"/>
<polygon fill="midnightblue" stroke="midnightblue" points="1212.66,-285.97 1202.66,-289.48 1212.67,-292.97 1212.66,-285.97"/>
</g>
<!-- Node21 -->
<g id="node21" class="node">
<title>Node21</title>
<g id="a_node21"><a xlink:href="log4judpappender_8h.html" target="_top" xlink:title=" ">
<polygon fill="white" stroke="black" points="444.5,-224.5 444.5,-243.5 557.5,-243.5 557.5,-224.5 444.5,-224.5"/>
<text text-anchor="middle" x="501" y="-231.5" font-family="Helvetica,sans-Serif" font-size="10.00">log4judpappender.h</text>
</a>
</g>
</g>
<!-- Node2&#45;&gt;Node21 -->
<g id="edge33" class="edge">
<title>Node2&#45;&gt;Node21</title>
<path fill="none" stroke="midnightblue" d="M1121.33,-286.52C1020.91,-280.87 773.43,-265.8 567,-244 564.01,-243.68 560.95,-243.34 557.86,-242.98"/>
<polygon fill="midnightblue" stroke="midnightblue" points="1121.25,-290.02 1131.43,-287.09 1121.64,-283.03 1121.25,-290.02"/>
</g>
<!-- Node22 -->
<g id="node22" class="node">
<title>Node22</title>
<g id="a_node22"><a xlink:href="msttsappender_8h.html" target="_top" xlink:title=" ">
<polygon fill="white" stroke="black" points="576,-224.5 576,-243.5 674,-243.5 674,-224.5 576,-224.5"/>
<text text-anchor="middle" x="625" y="-231.5" font-family="Helvetica,sans-Serif" font-size="10.00">msttsappender.h</text>
</a>
</g>
</g>
<!-- Node2&#45;&gt;Node22 -->
<g id="edge34" class="edge">
<title>Node2&#45;&gt;Node22</title>
<path fill="none" stroke="midnightblue" d="M1121.19,-285.68C1035.15,-279.24 843.59,-263.91 683,-244 680.07,-243.64 677.05,-243.24 674.02,-242.82"/>
<polygon fill="midnightblue" stroke="midnightblue" points="1121.16,-289.19 1131.4,-286.44 1121.68,-282.21 1121.16,-289.19"/>
</g>
<!-- Node23 -->
<g id="node23" class="node">
<title>Node23</title>
<g id="a_node23"><a xlink:href="nteventlogappender_8h.html" target="_top" xlink:title=" ">
<polygon fill="white" stroke="black" points="692.5,-224.5 692.5,-243.5 815.5,-243.5 815.5,-224.5 692.5,-224.5"/>
<text text-anchor="middle" x="754" y="-231.5" font-family="Helvetica,sans-Serif" font-size="10.00">nteventlogappender.h</text>
</a>
</g>
</g>
<!-- Node2&#45;&gt;Node23 -->
<g id="edge35" class="edge">
<title>Node2&#45;&gt;Node23</title>
<path fill="none" stroke="midnightblue" d="M1121.44,-283.04C1047.07,-273.32 899.51,-254.03 815.78,-243.08"/>
<polygon fill="midnightblue" stroke="midnightblue" points="1121.06,-286.52 1131.43,-284.35 1121.97,-279.58 1121.06,-286.52"/>
</g>
<!-- Node24 -->
<g id="node24" class="node">
<title>Node24</title>
<g id="a_node24"><a xlink:href="nullappender_8h.html" target="_top" xlink:title=" ">
<polygon fill="white" stroke="black" points="1483.5,-168.5 1483.5,-187.5 1572.5,-187.5 1572.5,-168.5 1483.5,-168.5"/>
<text text-anchor="middle" x="1528" y="-175.5" font-family="Helvetica,sans-Serif" font-size="10.00">nullappender.h</text>
</a>
</g>
</g>
<!-- Node2&#45;&gt;Node24 -->
<g id="edge36" class="edge">
<title>Node2&#45;&gt;Node24</title>
<path fill="none" stroke="midnightblue" d="M1212.68,-286.78C1306.9,-281.73 1515.81,-267.93 1537,-244 1550.9,-228.31 1540.17,-201.59 1533.03,-187.81"/>
<polygon fill="midnightblue" stroke="midnightblue" points="1212.39,-283.29 1202.58,-287.31 1212.75,-290.28 1212.39,-283.29"/>
</g>
<!-- Node25 -->
<g id="node25" class="node">
<title>Node25</title>
<g id="a_node25"><a xlink:href="qt4debugappender_8h.html" target="_top" xlink:title=" ">
<polygon fill="white" stroke="black" points="975,-224.5 975,-243.5 1091,-243.5 1091,-224.5 975,-224.5"/>
<text text-anchor="middle" x="1033" y="-231.5" font-family="Helvetica,sans-Serif" font-size="10.00">qt4debugappender.h</text>
</a>
</g>
</g>
<!-- Node2&#45;&gt;Node25 -->
<g id="edge38" class="edge">
<title>Node2&#45;&gt;Node25</title>
<path fill="none" stroke="midnightblue" d="M1136.32,-276.64C1111.18,-266.5 1076.25,-252.43 1054.13,-243.52"/>
<polygon fill="midnightblue" stroke="midnightblue" points="1135.18,-279.95 1145.77,-280.44 1137.8,-273.46 1135.18,-279.95"/>
</g>
<!-- Node26 -->
<g id="node26" class="node">
<title>Node26</title>
<g id="a_node26"><a xlink:href="qt5debugappender_8h.html" target="_top" xlink:title=" ">
<polygon fill="white" stroke="black" points="1109,-224.5 1109,-243.5 1225,-243.5 1225,-224.5 1109,-224.5"/>
<text text-anchor="middle" x="1167" y="-231.5" font-family="Helvetica,sans-Serif" font-size="10.00">qt5debugappender.h</text>
</a>
</g>
</g>
<!-- Node2&#45;&gt;Node26 -->
<g id="edge39" class="edge">
<title>Node2&#45;&gt;Node26</title>
<path fill="none" stroke="midnightblue" d="M1167,-269.8C1167,-260.91 1167,-250.78 1167,-243.75"/>
<polygon fill="midnightblue" stroke="midnightblue" points="1163.5,-270.08 1167,-280.08 1170.5,-270.08 1163.5,-270.08"/>
</g>
<!-- Node27 -->
<g id="node27" class="node">
<title>Node27</title>
<g id="a_node27"><a xlink:href="socketappender_8h.html" target="_top" xlink:title=" ">
<polygon fill="white" stroke="black" points="1545,-56.5 1545,-75.5 1647,-75.5 1647,-56.5 1545,-56.5"/>
<text text-anchor="middle" x="1596" y="-63.5" font-family="Helvetica,sans-Serif" font-size="10.00">socketappender.h</text>
</a>
</g>
</g>
<!-- Node2&#45;&gt;Node27 -->
<g id="edge40" class="edge">
<title>Node2&#45;&gt;Node27</title>
<path fill="none" stroke="midnightblue" d="M1212.88,-289C1303.18,-288.17 1499.93,-281.91 1554,-244 1609.86,-204.84 1601.36,-105.75 1597.34,-75.75"/>
<polygon fill="midnightblue" stroke="midnightblue" points="1212.64,-285.51 1202.67,-289.08 1212.69,-292.51 1212.64,-285.51"/>
</g>
<!-- Node28 -->
<g id="node28" class="node">
<title>Node28</title>
<g id="a_node28"><a xlink:href="syslogappender_8h.html" target="_top" xlink:title=" ">
<polygon fill="white" stroke="black" points="1629,-168.5 1629,-187.5 1731,-187.5 1731,-168.5 1629,-168.5"/>
<text text-anchor="middle" x="1680" y="-175.5" font-family="Helvetica,sans-Serif" font-size="10.00">syslogappender.h</text>
</a>
</g>
</g>
<!-- Node2&#45;&gt;Node28 -->
<g id="edge42" class="edge">
<title>Node2&#45;&gt;Node28</title>
<path fill="none" stroke="midnightblue" d="M1212.62,-288.27C1311.96,-286.07 1544.57,-277.4 1615,-244 1642.11,-231.15 1664.46,-202.12 1674.42,-187.6"/>
<polygon fill="midnightblue" stroke="midnightblue" points="1212.52,-284.77 1202.59,-288.48 1212.66,-291.77 1212.52,-284.77"/>
</g>
<!-- Node29 -->
<g id="node29" class="node">
<title>Node29</title>
<g id="a_node29"><a xlink:href="win32consoleappender_8h.html" target="_top" xlink:title=" ">
<polygon fill="white" stroke="black" points="1319.5,-224.5 1319.5,-243.5 1456.5,-243.5 1456.5,-224.5 1319.5,-224.5"/>
<text text-anchor="middle" x="1388" y="-231.5" font-family="Helvetica,sans-Serif" font-size="10.00">win32consoleappender.h</text>
</a>
</g>
</g>
<!-- Node2&#45;&gt;Node29 -->
<g id="edge44" class="edge">
<title>Node2&#45;&gt;Node29</title>
<path fill="none" stroke="midnightblue" d="M1211.92,-278.02C1253.67,-267.82 1314.98,-252.84 1353.15,-243.52"/>
<polygon fill="midnightblue" stroke="midnightblue" points="1210.9,-274.67 1202.02,-280.44 1212.56,-281.47 1210.9,-274.67"/>
</g>
<!-- Node4 -->
<g id="node4" class="node">
<title>Node4</title>
<g id="a_node4"><a xlink:href="appenderattachableimpl_8h.html" target="_top" xlink:title=" ">
<polygon fill="white" stroke="black" points="822.5,-168.5 822.5,-187.5 967.5,-187.5 967.5,-168.5 822.5,-168.5"/>
<text text-anchor="middle" x="895" y="-175.5" font-family="Helvetica,sans-Serif" font-size="10.00">appenderattachableimpl.h</text>
</a>
</g>
</g>
<!-- Node3&#45;&gt;Node4 -->
<g id="edge3" class="edge">
<title>Node3&#45;&gt;Node4</title>
<path fill="none" stroke="midnightblue" d="M895,-213.8C895,-204.91 895,-194.78 895,-187.75"/>
<polygon fill="midnightblue" stroke="midnightblue" points="891.5,-214.08 895,-224.08 898.5,-214.08 891.5,-214.08"/>
</g>
<!-- Node9 -->
<g id="node9" class="node">
<title>Node9</title>
<g id="a_node9"><a xlink:href="logger_8h.html" target="_top" xlink:title="This header defines the Logger class and the logging macros.">
<polygon fill="white" stroke="black" points="1011,-168.5 1011,-187.5 1067,-187.5 1067,-168.5 1011,-168.5"/>
<text text-anchor="middle" x="1039" y="-175.5" font-family="Helvetica,sans-Serif" font-size="10.00">logger.h</text>
</a>
</g>
</g>
<!-- Node3&#45;&gt;Node9 -->
<g id="edge8" class="edge">
<title>Node3&#45;&gt;Node9</title>
<path fill="none" stroke="midnightblue" d="M927.25,-220.91C954.32,-210.75 992.32,-196.51 1016.29,-187.52"/>
<polygon fill="midnightblue" stroke="midnightblue" points="925.95,-217.66 917.82,-224.44 928.41,-224.21 925.95,-217.66"/>
</g>
<!-- Node4&#45;&gt;Node5 -->
<g id="edge4" class="edge">
<title>Node4&#45;&gt;Node5</title>
<path fill="none" stroke="midnightblue" d="M873.7,-162.62C859.08,-152.76 840.17,-139.99 827.82,-131.65"/>
<polygon fill="midnightblue" stroke="midnightblue" points="871.9,-165.63 882.15,-168.32 875.82,-159.83 871.9,-165.63"/>
</g>
<!-- Node7 -->
<g id="node7" class="node">
<title>Node7</title>
<g id="a_node7"><a xlink:href="loggerimpl_8h.html" target="_top" xlink:title=" ">
<polygon fill="white" stroke="black" points="883,-112.5 883,-131.5 961,-131.5 961,-112.5 883,-112.5"/>
<text text-anchor="middle" x="922" y="-119.5" font-family="Helvetica,sans-Serif" font-size="10.00">loggerimpl.h</text>
</a>
</g>
</g>
<!-- Node4&#45;&gt;Node7 -->
<g id="edge6" class="edge">
<title>Node4&#45;&gt;Node7</title>
<path fill="none" stroke="midnightblue" d="M904.01,-158.98C908.59,-149.82 913.95,-139.09 917.62,-131.75"/>
<polygon fill="midnightblue" stroke="midnightblue" points="900.8,-157.57 899.46,-168.08 907.06,-160.7 900.8,-157.57"/>
</g>
<!-- Node5&#45;&gt;Node6 -->
<g id="edge5" class="edge">
<title>Node5&#45;&gt;Node6</title>
<path fill="none" stroke="midnightblue" d="M823.05,-103.38C831.08,-88.03 844.96,-66.61 864,-56 941.16,-12.99 1215.01,-10.19 1313.98,-10.63"/>
<polygon fill="midnightblue" stroke="midnightblue" points="819.88,-101.9 818.62,-112.42 826.17,-104.98 819.88,-101.9"/>
</g>
<!-- Node8 -->
<g id="node8" class="node">
<title>Node8</title>
<g id="a_node8"><a xlink:href="rootlogger_8h.html" target="_top" xlink:title=" ">
<polygon fill="white" stroke="black" points="872.5,-56.5 872.5,-75.5 947.5,-75.5 947.5,-56.5 872.5,-56.5"/>
<text text-anchor="middle" x="910" y="-63.5" font-family="Helvetica,sans-Serif" font-size="10.00">rootlogger.h</text>
</a>
</g>
</g>
<!-- Node7&#45;&gt;Node8 -->
<g id="edge7" class="edge">
<title>Node7&#45;&gt;Node8</title>
<path fill="none" stroke="midnightblue" d="M917.8,-102.1C915.81,-93.14 913.52,-82.86 911.94,-75.75"/>
<polygon fill="midnightblue" stroke="midnightblue" points="914.43,-103.08 920.02,-112.08 921.27,-101.56 914.43,-103.08"/>
</g>
<!-- Node9&#45;&gt;Node6 -->
<g id="edge14" class="edge">
<title>Node9&#45;&gt;Node6</title>
<path fill="none" stroke="midnightblue" d="M1075.21,-165.08C1098.72,-156.86 1129.75,-145.08 1156,-132 1228.12,-96.05 1307.85,-41.03 1337.77,-19.79"/>
<polygon fill="midnightblue" stroke="midnightblue" points="1073.95,-161.82 1065.64,-168.38 1076.23,-168.43 1073.95,-161.82"/>
</g>
<!-- Node9&#45;&gt;Node10 -->
<g id="edge9" class="edge">
<title>Node9&#45;&gt;Node10</title>
<path fill="none" stroke="midnightblue" d="M1000.96,-171.2C946.6,-162.86 843.55,-146.84 756,-132 753.3,-131.54 750.53,-131.06 747.73,-130.58"/>
<polygon fill="midnightblue" stroke="midnightblue" points="1000.44,-174.66 1010.85,-172.72 1001.5,-167.74 1000.44,-174.66"/>
</g>
<!-- Node11 -->
<g id="node11" class="node">
<title>Node11</title>
<g id="a_node11"><a xlink:href="hierarchy_8h.html" target="_top" xlink:title=" ">
<polygon fill="white" stroke="black" points="966,-56.5 966,-75.5 1036,-75.5 1036,-56.5 966,-56.5"/>
<text text-anchor="middle" x="1001" y="-63.5" font-family="Helvetica,sans-Serif" font-size="10.00">hierarchy.h</text>
</a>
</g>
</g>
<!-- Node9&#45;&gt;Node11 -->
<g id="edge11" class="edge">
<title>Node9&#45;&gt;Node11</title>
<path fill="none" stroke="midnightblue" d="M1032.67,-158.67C1024.36,-134.62 1010.12,-93.39 1003.97,-75.59"/>
<polygon fill="midnightblue" stroke="midnightblue" points="1029.44,-160.06 1036.02,-168.37 1036.06,-157.77 1029.44,-160.06"/>
</g>
<!-- Node9&#45;&gt;Node12 -->
<g id="edge13" class="edge">
<title>Node9&#45;&gt;Node12</title>
<path fill="none" stroke="midnightblue" d="M1077.16,-167.37C1117.5,-157.19 1180.54,-141.28 1219.17,-131.54"/>
<polygon fill="midnightblue" stroke="midnightblue" points="1076.26,-163.99 1067.42,-169.83 1077.97,-170.78 1076.26,-163.99"/>
</g>
<!-- Node13 -->
<g id="node13" class="node">
<title>Node13</title>
<g id="a_node13"><a xlink:href="loggingmacros_8h.html" target="_top" xlink:title="This header defines the logging macros.">
<polygon fill="white" stroke="black" points="1054,-56.5 1054,-75.5 1152,-75.5 1152,-56.5 1054,-56.5"/>
<text text-anchor="middle" x="1103" y="-63.5" font-family="Helvetica,sans-Serif" font-size="10.00">loggingmacros.h</text>
</a>
</g>
</g>
<!-- Node9&#45;&gt;Node13 -->
<g id="edge15" class="edge">
<title>Node9&#45;&gt;Node13</title>
<path fill="none" stroke="midnightblue" d="M1041.87,-158.41C1044.56,-144.84 1049.48,-126.38 1058,-112 1066.67,-97.36 1081.2,-84.05 1091.39,-75.77"/>
<polygon fill="midnightblue" stroke="midnightblue" points="1038.39,-158.01 1040.11,-168.46 1045.29,-159.22 1038.39,-158.01"/>
</g>
<!-- Node14 -->
<g id="node14" class="node">
<title>Node14</title>
<g id="a_node14"><a xlink:href="tracelogger_8h.html" target="_top" xlink:title=" ">
<polygon fill="white" stroke="black" points="1067,-112.5 1067,-131.5 1147,-131.5 1147,-112.5 1067,-112.5"/>
<text text-anchor="middle" x="1107" y="-119.5" font-family="Helvetica,sans-Serif" font-size="10.00">tracelogger.h</text>
</a>
</g>
</g>
<!-- Node9&#45;&gt;Node14 -->
<g id="edge17" class="edge">
<title>Node9&#45;&gt;Node14</title>
<path fill="none" stroke="midnightblue" d="M1057.76,-162.1C1070,-152.38 1085.56,-140.03 1095.88,-131.83"/>
<polygon fill="midnightblue" stroke="midnightblue" points="1055.58,-159.36 1049.93,-168.32 1059.93,-164.85 1055.58,-159.36"/>
</g>
<!-- Node10&#45;&gt;Node6 -->
<g id="edge10" class="edge">
<title>Node10&#45;&gt;Node6</title>
<path fill="none" stroke="midnightblue" d="M727.85,-107.18C753.42,-91.78 797.54,-67.53 839,-56 928.66,-31.07 1212.51,-16.85 1313.72,-12.47"/>
<polygon fill="midnightblue" stroke="midnightblue" points="726.01,-104.21 719.31,-112.42 729.67,-110.18 726.01,-104.21"/>
</g>
<!-- Node11&#45;&gt;Node6 -->
<g id="edge12" class="edge">
<title>Node11&#45;&gt;Node6</title>
<path fill="none" stroke="midnightblue" d="M1045.97,-55.91C1148.85,-38.01 1258.29,-23.01 1313.74,-15.69"/>
<polygon fill="midnightblue" stroke="midnightblue" points="1045.28,-52.48 1036.03,-57.65 1046.49,-59.37 1045.28,-52.48"/>
</g>
<!-- Node13&#45;&gt;Node6 -->
<g id="edge16" class="edge">
<title>Node13&#45;&gt;Node6</title>
<path fill="none" stroke="midnightblue" d="M1151.94,-54.3C1199.65,-43.87 1271.08,-28.25 1313.86,-18.9"/>
<polygon fill="midnightblue" stroke="midnightblue" points="1151.16,-50.89 1142.14,-56.44 1152.65,-57.73 1151.16,-50.89"/>
</g>
<!-- Node14&#45;&gt;Node6 -->
<g id="edge18" class="edge">
<title>Node14&#45;&gt;Node6</title>
<path fill="none" stroke="midnightblue" d="M1125.44,-106.24C1144.26,-91.77 1174.77,-69.93 1204,-56 1239.8,-38.94 1283.58,-26.46 1313.81,-19.03"/>
<polygon fill="midnightblue" stroke="midnightblue" points="1123.16,-103.58 1117.43,-112.5 1127.47,-109.1 1123.16,-103.58"/>
</g>
<!-- Node14&#45;&gt;Node13 -->
<g id="edge19" class="edge">
<title>Node14&#45;&gt;Node13</title>
<path fill="none" stroke="midnightblue" d="M1105.6,-102.1C1104.94,-93.14 1104.17,-82.86 1103.65,-75.75"/>
<polygon fill="midnightblue" stroke="midnightblue" points="1102.11,-102.37 1106.34,-112.08 1109.09,-101.85 1102.11,-102.37"/>
</g>
<!-- Node17&#45;&gt;Node6 -->
<g id="edge25" class="edge">
<title>Node17&#45;&gt;Node6</title>
<path fill="none" stroke="midnightblue" d="M1370.36,-157.93C1365.37,-121.92 1354.74,-45.23 1351.19,-19.57"/>
<polygon fill="midnightblue" stroke="midnightblue" points="1366.92,-158.65 1371.76,-168.08 1373.86,-157.69 1366.92,-158.65"/>
</g>
<!-- Node19&#45;&gt;Node6 -->
<g id="edge28" class="edge">
<title>Node19&#45;&gt;Node6</title>
<path fill="none" stroke="midnightblue" d="M1735.64,-214.8C1740.11,-201.67 1744.14,-183.6 1740,-168 1725.28,-112.59 1723.5,-88.11 1676,-56 1629.32,-24.44 1461.03,-14.8 1386.25,-12.04"/>
<polygon fill="midnightblue" stroke="midnightblue" points="1732.23,-213.9 1731.95,-224.49 1738.78,-216.39 1732.23,-213.9"/>
</g>
<!-- Node20&#45;&gt;Node6 -->
<g id="edge30" class="edge">
<title>Node20&#45;&gt;Node6</title>
<path fill="none" stroke="midnightblue" d="M1419.19,-51.18C1402.08,-41.24 1379.53,-28.15 1364.9,-19.65"/>
<polygon fill="midnightblue" stroke="midnightblue" points="1417.65,-54.33 1428.06,-56.32 1421.17,-48.28 1417.65,-54.33"/>
</g>
<!-- Node24&#45;&gt;Node6 -->
<g id="edge37" class="edge">
<title>Node24&#45;&gt;Node6</title>
<path fill="none" stroke="midnightblue" d="M1528.18,-158.17C1527.4,-131.79 1522.01,-83.97 1495,-56 1466.43,-26.43 1418.84,-16.18 1386.01,-12.7"/>
<polygon fill="midnightblue" stroke="midnightblue" points="1524.68,-158.36 1528.29,-168.33 1531.68,-158.29 1524.68,-158.36"/>
</g>
<!-- Node27&#45;&gt;Node6 -->
<g id="edge41" class="edge">
<title>Node27&#45;&gt;Node6</title>
<path fill="none" stroke="midnightblue" d="M1546.99,-54.24C1499.62,-43.84 1428.96,-28.33 1386.39,-18.99"/>
<polygon fill="midnightblue" stroke="midnightblue" points="1546.5,-57.72 1557.02,-56.44 1548,-50.88 1546.5,-57.72"/>
</g>
<!-- Node28&#45;&gt;Node6 -->
<g id="edge43" class="edge">
<title>Node28&#45;&gt;Node6</title>
<path fill="none" stroke="midnightblue" d="M1682.29,-158.48C1684.45,-131.73 1683.97,-82.61 1656,-56 1617.88,-19.73 1458.76,-12.62 1386.27,-11.28"/>
<polygon fill="midnightblue" stroke="midnightblue" points="1678.8,-158.13 1681.27,-168.44 1685.77,-158.84 1678.8,-158.13"/>
</g>
</g>
</svg>
