<?xml version="1.0" encoding="UTF-8" standalone="no"?>
<!DOCTYPE svg PUBLIC "-//W3C//DTD SVG 1.1//EN"
 "http://www.w3.org/Graphics/SVG/1.1/DTD/svg11.dtd">
<!-- Generated by graphviz version 2.43.0 (0)
 -->
<!-- Title: layout.h Pages: 1 -->
<svg width="1235pt" height="330pt"
 viewBox="0.00 0.00 1234.50 330.00" xmlns="http://www.w3.org/2000/svg" xmlns:xlink="http://www.w3.org/1999/xlink">
<g id="graph0" class="graph" transform="scale(1 1) rotate(0) translate(4 326)">
<title>layout.h</title>
<polygon fill="white" stroke="transparent" points="-4,4 -4,-326 1230.5,-326 1230.5,4 -4,4"/>
<!-- Node1 -->
<g id="node1" class="node">
<title>Node1</title>
<g id="a_node1"><a xlink:title=" ">
<polygon fill="#bfbfbf" stroke="black" points="701.5,-302.5 701.5,-321.5 757.5,-321.5 757.5,-302.5 701.5,-302.5"/>
<text text-anchor="middle" x="729.5" y="-309.5" font-family="Helvetica,sans-Serif" font-size="10.00">layout.h</text>
</a>
</g>
</g>
<!-- Node2 -->
<g id="node2" class="node">
<title>Node2</title>
<g id="a_node2"><a xlink:href="config_8hxx.html" target="_top" xlink:title=" ">
<polygon fill="white" stroke="black" points="879.5,-73 879.5,-92 995.5,-92 995.5,-73 879.5,-73"/>
<text text-anchor="middle" x="937.5" y="-80" font-family="Helvetica,sans-Serif" font-size="10.00">log4cplus/config.hxx</text>
</a>
</g>
</g>
<!-- Node1&#45;&gt;Node2 -->
<g id="edge1" class="edge">
<title>Node1&#45;&gt;Node2</title>
<path fill="none" stroke="midnightblue" d="M757.56,-310.83C799.18,-309.32 878.31,-301.55 933.5,-266 965.95,-245.1 982.08,-228.03 975.5,-190 969.89,-157.57 955.33,-121.93 945.94,-101.2"/>
<polygon fill="midnightblue" stroke="midnightblue" points="949.09,-99.66 941.7,-92.06 942.74,-102.6 949.09,-99.66"/>
</g>
<!-- Node5 -->
<g id="node5" class="node">
<title>Node5</title>
<g id="a_node5"><a xlink:href="loglevel_8h.html" target="_top" xlink:title="This header defines the LogLevel type.">
<polygon fill="white" stroke="black" points="474.5,-246.5 474.5,-265.5 588.5,-265.5 588.5,-246.5 474.5,-246.5"/>
<text text-anchor="middle" x="531.5" y="-253.5" font-family="Helvetica,sans-Serif" font-size="10.00">log4cplus/loglevel.h</text>
</a>
</g>
</g>
<!-- Node1&#45;&gt;Node5 -->
<g id="edge4" class="edge">
<title>Node1&#45;&gt;Node5</title>
<path fill="none" stroke="midnightblue" d="M701.13,-303.26C667.46,-294.08 611.05,-278.7 572.6,-268.21"/>
<polygon fill="midnightblue" stroke="midnightblue" points="573.32,-264.78 562.76,-265.52 571.48,-271.53 573.32,-264.78"/>
</g>
<!-- Node6 -->
<g id="node6" class="node">
<title>Node6</title>
<g id="a_node6"><a xlink:title=" ">
<polygon fill="white" stroke="#bfbfbf" points="181,-190.5 181,-209.5 228,-209.5 228,-190.5 181,-190.5"/>
<text text-anchor="middle" x="204.5" y="-197.5" font-family="Helvetica,sans-Serif" font-size="10.00">vector</text>
</a>
</g>
</g>
<!-- Node1&#45;&gt;Node6 -->
<g id="edge38" class="edge">
<title>Node1&#45;&gt;Node6</title>
<path fill="none" stroke="midnightblue" d="M701.28,-308.96C643.72,-304.42 508.91,-291.76 398.5,-266 339.44,-252.22 272.86,-227.91 235.07,-213.24"/>
<polygon fill="midnightblue" stroke="midnightblue" points="236.24,-209.94 225.65,-209.55 233.69,-216.46 236.24,-209.94"/>
</g>
<!-- Node7 -->
<g id="node7" class="node">
<title>Node7</title>
<g id="a_node7"><a xlink:title=" ">
<polygon fill="white" stroke="#bfbfbf" points="246.5,-190.5 246.5,-209.5 304.5,-209.5 304.5,-190.5 246.5,-190.5"/>
<text text-anchor="middle" x="275.5" y="-197.5" font-family="Helvetica,sans-Serif" font-size="10.00">memory</text>
</a>
</g>
</g>
<!-- Node1&#45;&gt;Node7 -->
<g id="edge39" class="edge">
<title>Node1&#45;&gt;Node7</title>
<path fill="none" stroke="midnightblue" d="M701.45,-307.73C652.88,-301.72 550.21,-287.56 465.5,-266 408.37,-251.46 343.81,-227.77 306.57,-213.36"/>
<polygon fill="midnightblue" stroke="midnightblue" points="307.4,-209.93 296.81,-209.55 304.86,-216.45 307.4,-209.93"/>
</g>
<!-- Node9 -->
<g id="node9" class="node">
<title>Node9</title>
<g id="a_node9"><a xlink:href="tstring_8h.html" target="_top" xlink:title=" ">
<polygon fill="white" stroke="black" points="691,-190.5 691,-209.5 798,-209.5 798,-190.5 691,-190.5"/>
<text text-anchor="middle" x="744.5" y="-197.5" font-family="Helvetica,sans-Serif" font-size="10.00">log4cplus/tstring.h</text>
</a>
</g>
</g>
<!-- Node1&#45;&gt;Node9 -->
<g id="edge32" class="edge">
<title>Node1&#45;&gt;Node9</title>
<path fill="none" stroke="midnightblue" d="M730.68,-302.37C733.1,-284.62 738.68,-243.67 741.96,-219.6"/>
<polygon fill="midnightblue" stroke="midnightblue" points="745.45,-219.97 743.33,-209.59 738.51,-219.03 745.45,-219.97"/>
</g>
<!-- Node24 -->
<g id="node24" class="node">
<title>Node24</title>
<g id="a_node24"><a xlink:href="streams_8h.html" target="_top" xlink:title=" ">
<polygon fill="white" stroke="black" points="1058,-190.5 1058,-209.5 1173,-209.5 1173,-190.5 1058,-190.5"/>
<text text-anchor="middle" x="1115.5" y="-197.5" font-family="Helvetica,sans-Serif" font-size="10.00">log4cplus/streams.h</text>
</a>
</g>
</g>
<!-- Node1&#45;&gt;Node24 -->
<g id="edge28" class="edge">
<title>Node1&#45;&gt;Node24</title>
<path fill="none" stroke="midnightblue" d="M757.72,-310.01C809.12,-307.45 920.79,-298.3 1008.5,-266 1041.72,-253.76 1075.99,-230.78 1096.52,-215.68"/>
<polygon fill="midnightblue" stroke="midnightblue" points="1098.78,-218.36 1104.68,-209.56 1094.58,-212.76 1098.78,-218.36"/>
</g>
<!-- Node26 -->
<g id="node26" class="node">
<title>Node26</title>
<g id="a_node26"><a xlink:href="timehelper_8h.html" target="_top" xlink:title=" ">
<polygon fill="white" stroke="black" points="757,-246.5 757,-265.5 924,-265.5 924,-246.5 757,-246.5"/>
<text text-anchor="middle" x="840.5" y="-253.5" font-family="Helvetica,sans-Serif" font-size="10.00">log4cplus/helpers/timehelper.h</text>
</a>
</g>
</g>
<!-- Node1&#45;&gt;Node26 -->
<g id="edge33" class="edge">
<title>Node1&#45;&gt;Node26</title>
<path fill="none" stroke="midnightblue" d="M747.33,-302.32C765.22,-293.62 792.98,-280.12 813.55,-270.11"/>
<polygon fill="midnightblue" stroke="midnightblue" points="815.25,-273.18 822.71,-265.65 812.19,-266.88 815.25,-273.18"/>
</g>
<!-- Node3 -->
<g id="node3" class="node">
<title>Node3</title>
<g id="a_node3"><a xlink:href="win32_8h.html" target="_top" xlink:title=" ">
<polygon fill="white" stroke="black" points="791,-6 791,-25 928,-25 928,-6 791,-6"/>
<text text-anchor="middle" x="859.5" y="-13" font-family="Helvetica,sans-Serif" font-size="10.00">log4cplus/config/win32.h</text>
</a>
</g>
</g>
<!-- Node2&#45;&gt;Node3 -->
<g id="edge2" class="edge">
<title>Node2&#45;&gt;Node3</title>
<path fill="none" stroke="midnightblue" d="M926.98,-72.73C914.35,-62.21 892.96,-44.38 877.64,-31.62"/>
<polygon fill="midnightblue" stroke="midnightblue" points="879.78,-28.84 869.85,-25.13 875.29,-34.22 879.78,-28.84"/>
</g>
<!-- Node4 -->
<g id="node4" class="node">
<title>Node4</title>
<g id="a_node4"><a xlink:href="thread-config_8h.html" target="_top" xlink:title=" ">
<polygon fill="white" stroke="black" points="946,-0.5 946,-30.5 1083,-30.5 1083,-0.5 946,-0.5"/>
<text text-anchor="start" x="954" y="-18.5" font-family="Helvetica,sans-Serif" font-size="10.00">log4cplus/helpers/thread</text>
<text text-anchor="middle" x="1014.5" y="-7.5" font-family="Helvetica,sans-Serif" font-size="10.00">&#45;config.h</text>
</a>
</g>
</g>
<!-- Node2&#45;&gt;Node4 -->
<g id="edge3" class="edge">
<title>Node2&#45;&gt;Node4</title>
<path fill="none" stroke="midnightblue" d="M947.88,-72.73C958.59,-63.7 975.68,-49.27 989.86,-37.3"/>
<polygon fill="midnightblue" stroke="midnightblue" points="992.43,-39.71 997.81,-30.59 987.91,-34.37 992.43,-39.71"/>
</g>
<!-- Node5&#45;&gt;Node2 -->
<g id="edge5" class="edge">
<title>Node5&#45;&gt;Node2</title>
<path fill="none" stroke="midnightblue" d="M547.28,-246.47C559.7,-238.77 576.11,-226.18 583.5,-210 597.62,-179.11 553.2,-159.62 575.5,-134 612.83,-91.1 775.31,-83.52 869.42,-82.83"/>
<polygon fill="midnightblue" stroke="midnightblue" points="869.44,-86.33 879.42,-82.78 869.4,-79.33 869.44,-86.33"/>
</g>
<!-- Node5&#45;&gt;Node6 -->
<g id="edge6" class="edge">
<title>Node5&#45;&gt;Node6</title>
<path fill="none" stroke="midnightblue" d="M474.24,-248.21C416.88,-240.96 325.94,-228.27 238.08,-209.9"/>
<polygon fill="midnightblue" stroke="midnightblue" points="238.72,-206.46 228.21,-207.82 237.27,-213.31 238.72,-206.46"/>
</g>
<!-- Node5&#45;&gt;Node7 -->
<g id="edge7" class="edge">
<title>Node5&#45;&gt;Node7</title>
<path fill="none" stroke="midnightblue" d="M488.4,-246.49C446.43,-238.11 380.59,-224.75 314.31,-210.13"/>
<polygon fill="midnightblue" stroke="midnightblue" points="315.05,-206.71 304.53,-207.97 313.53,-213.54 315.05,-206.71"/>
</g>
<!-- Node8 -->
<g id="node8" class="node">
<title>Node8</title>
<g id="a_node8"><a xlink:title=" ">
<polygon fill="white" stroke="#bfbfbf" points="488.5,-190.5 488.5,-209.5 574.5,-209.5 574.5,-190.5 488.5,-190.5"/>
<text text-anchor="middle" x="531.5" y="-197.5" font-family="Helvetica,sans-Serif" font-size="10.00">shared_mutex</text>
</a>
</g>
</g>
<!-- Node5&#45;&gt;Node8 -->
<g id="edge8" class="edge">
<title>Node5&#45;&gt;Node8</title>
<path fill="none" stroke="midnightblue" d="M531.5,-246.08C531.5,-239.01 531.5,-228.86 531.5,-219.99"/>
<polygon fill="midnightblue" stroke="midnightblue" points="535,-219.75 531.5,-209.75 528,-219.75 535,-219.75"/>
</g>
<!-- Node5&#45;&gt;Node9 -->
<g id="edge9" class="edge">
<title>Node5&#45;&gt;Node9</title>
<path fill="none" stroke="midnightblue" d="M565.25,-246.44C602.02,-237.12 660.95,-222.18 701.12,-212"/>
<polygon fill="midnightblue" stroke="midnightblue" points="702.07,-215.37 710.91,-209.52 700.35,-208.58 702.07,-215.37"/>
</g>
<!-- Node16 -->
<g id="node16" class="node">
<title>Node16</title>
<g id="a_node16"><a xlink:href="pointer_8h.html" target="_top" xlink:title=" ">
<polygon fill="white" stroke="black" points="322.5,-190.5 322.5,-209.5 470.5,-209.5 470.5,-190.5 322.5,-190.5"/>
<text text-anchor="middle" x="396.5" y="-197.5" font-family="Helvetica,sans-Serif" font-size="10.00">log4cplus/helpers/pointer.h</text>
</a>
</g>
</g>
<!-- Node5&#45;&gt;Node16 -->
<g id="edge18" class="edge">
<title>Node5&#45;&gt;Node16</title>
<path fill="none" stroke="midnightblue" d="M510.11,-246.44C487.79,-237.52 452.6,-223.44 427.29,-213.32"/>
<polygon fill="midnightblue" stroke="midnightblue" points="428.38,-209.98 417.79,-209.52 425.78,-216.48 428.38,-209.98"/>
</g>
<!-- Node9&#45;&gt;Node2 -->
<g id="edge10" class="edge">
<title>Node9&#45;&gt;Node2</title>
<path fill="none" stroke="midnightblue" d="M787.31,-190.46C826.92,-181.88 882.23,-167.95 899.5,-154 916.02,-140.65 926.36,-118.13 932,-102.14"/>
<polygon fill="midnightblue" stroke="midnightblue" points="935.44,-102.89 935.19,-92.3 928.78,-100.74 935.44,-102.89"/>
</g>
<!-- Node10 -->
<g id="node10" class="node">
<title>Node10</title>
<g id="a_node10"><a xlink:title=" ">
<polygon fill="white" stroke="#bfbfbf" points="738,-134.5 738,-153.5 807,-153.5 807,-134.5 738,-134.5"/>
<text text-anchor="middle" x="772.5" y="-141.5" font-family="Helvetica,sans-Serif" font-size="10.00">type_traits</text>
</a>
</g>
</g>
<!-- Node9&#45;&gt;Node10 -->
<g id="edge11" class="edge">
<title>Node9&#45;&gt;Node10</title>
<path fill="none" stroke="midnightblue" d="M749.12,-190.08C752.96,-182.69 758.52,-171.95 763.26,-162.81"/>
<polygon fill="midnightblue" stroke="midnightblue" points="766.47,-164.24 767.96,-153.75 760.25,-161.02 766.47,-164.24"/>
</g>
<!-- Node11 -->
<g id="node11" class="node">
<title>Node11</title>
<g id="a_node11"><a xlink:title=" ">
<polygon fill="white" stroke="#bfbfbf" points="825,-134.5 825,-153.5 890,-153.5 890,-134.5 825,-134.5"/>
<text text-anchor="middle" x="857.5" y="-141.5" font-family="Helvetica,sans-Serif" font-size="10.00">functional</text>
</a>
</g>
</g>
<!-- Node9&#45;&gt;Node11 -->
<g id="edge12" class="edge">
<title>Node9&#45;&gt;Node11</title>
<path fill="none" stroke="midnightblue" d="M762.41,-190.44C780.75,-181.68 809.51,-167.94 830.59,-157.86"/>
<polygon fill="midnightblue" stroke="midnightblue" points="832.17,-160.99 839.68,-153.52 829.15,-154.67 832.17,-160.99"/>
</g>
<!-- Node12 -->
<g id="node12" class="node">
<title>Node12</title>
<g id="a_node12"><a xlink:title=" ">
<polygon fill="white" stroke="#bfbfbf" points="584.5,-134.5 584.5,-153.5 628.5,-153.5 628.5,-134.5 584.5,-134.5"/>
<text text-anchor="middle" x="606.5" y="-141.5" font-family="Helvetica,sans-Serif" font-size="10.00">string</text>
</a>
</g>
</g>
<!-- Node9&#45;&gt;Node12 -->
<g id="edge13" class="edge">
<title>Node9&#45;&gt;Node12</title>
<path fill="none" stroke="midnightblue" d="M722.63,-190.44C699.72,-181.48 663.52,-167.31 637.63,-157.18"/>
<polygon fill="midnightblue" stroke="midnightblue" points="638.85,-153.9 628.26,-153.52 636.3,-160.42 638.85,-153.9"/>
</g>
<!-- Node13 -->
<g id="node13" class="node">
<title>Node13</title>
<g id="a_node13"><a xlink:title=" ">
<polygon fill="white" stroke="#bfbfbf" points="647,-134.5 647,-153.5 720,-153.5 720,-134.5 647,-134.5"/>
<text text-anchor="middle" x="683.5" y="-141.5" font-family="Helvetica,sans-Serif" font-size="10.00">string_view</text>
</a>
</g>
</g>
<!-- Node9&#45;&gt;Node13 -->
<g id="edge14" class="edge">
<title>Node9&#45;&gt;Node13</title>
<path fill="none" stroke="midnightblue" d="M734.7,-190.32C725.68,-182.34 712.09,-170.31 701.18,-160.65"/>
<polygon fill="midnightblue" stroke="midnightblue" points="703.29,-157.84 693.48,-153.83 698.65,-163.08 703.29,-157.84"/>
</g>
<!-- Node14 -->
<g id="node14" class="node">
<title>Node14</title>
<g id="a_node14"><a xlink:href="tchar_8h.html" target="_top" xlink:title=" ">
<polygon fill="white" stroke="black" points="1023,-134.5 1023,-153.5 1122,-153.5 1122,-134.5 1023,-134.5"/>
<text text-anchor="middle" x="1072.5" y="-141.5" font-family="Helvetica,sans-Serif" font-size="10.00">log4cplus/tchar.h</text>
</a>
</g>
</g>
<!-- Node9&#45;&gt;Node14 -->
<g id="edge15" class="edge">
<title>Node9&#45;&gt;Node14</title>
<path fill="none" stroke="midnightblue" d="M796.47,-190.44C855.34,-180.75 951.08,-164.99 1012.92,-154.81"/>
<polygon fill="midnightblue" stroke="midnightblue" points="1013.62,-158.24 1022.92,-153.16 1012.48,-151.33 1013.62,-158.24"/>
</g>
<!-- Node14&#45;&gt;Node2 -->
<g id="edge16" class="edge">
<title>Node14&#45;&gt;Node2</title>
<path fill="none" stroke="midnightblue" d="M1053.16,-134.48C1030.4,-124.45 992.41,-107.7 966.21,-96.15"/>
<polygon fill="midnightblue" stroke="midnightblue" points="967.37,-92.84 956.81,-92.01 964.55,-99.24 967.37,-92.84"/>
</g>
<!-- Node15 -->
<g id="node15" class="node">
<title>Node15</title>
<g id="a_node15"><a xlink:title=" ">
<polygon fill="white" stroke="#bfbfbf" points="1046,-73 1046,-92 1099,-92 1099,-73 1046,-73"/>
<text text-anchor="middle" x="1072.5" y="-80" font-family="Helvetica,sans-Serif" font-size="10.00">cstddef</text>
</a>
</g>
</g>
<!-- Node14&#45;&gt;Node15 -->
<g id="edge17" class="edge">
<title>Node14&#45;&gt;Node15</title>
<path fill="none" stroke="midnightblue" d="M1072.5,-134.48C1072.5,-126.08 1072.5,-112.98 1072.5,-102.16"/>
<polygon fill="midnightblue" stroke="midnightblue" points="1076,-102.01 1072.5,-92.01 1069,-102.01 1076,-102.01"/>
</g>
<!-- Node16&#45;&gt;Node2 -->
<g id="edge19" class="edge">
<title>Node16&#45;&gt;Node2</title>
<path fill="none" stroke="midnightblue" d="M416.69,-190.34C437.5,-181.38 470.86,-166.91 499.5,-154 518.71,-145.34 522.25,-139.85 542.5,-134 654.06,-101.77 789.26,-90.09 869.06,-85.87"/>
<polygon fill="midnightblue" stroke="midnightblue" points="869.66,-89.35 879.47,-85.35 869.3,-82.36 869.66,-89.35"/>
</g>
<!-- Node17 -->
<g id="node17" class="node">
<title>Node17</title>
<g id="a_node17"><a xlink:href="syncprims_8h.html" target="_top" xlink:title=" ">
<polygon fill="white" stroke="black" points="110.5,-134.5 110.5,-153.5 270.5,-153.5 270.5,-134.5 110.5,-134.5"/>
<text text-anchor="middle" x="190.5" y="-141.5" font-family="Helvetica,sans-Serif" font-size="10.00">log4cplus/thread/syncprims.h</text>
</a>
</g>
</g>
<!-- Node16&#45;&gt;Node17 -->
<g id="edge20" class="edge">
<title>Node16&#45;&gt;Node17</title>
<path fill="none" stroke="midnightblue" d="M363.86,-190.44C328.45,-181.16 271.79,-166.31 232.95,-156.13"/>
<polygon fill="midnightblue" stroke="midnightblue" points="233.55,-152.67 222.99,-153.52 231.77,-159.44 233.55,-152.67"/>
</g>
<!-- Node21 -->
<g id="node21" class="node">
<title>Node21</title>
<g id="a_node21"><a xlink:title=" ">
<polygon fill="white" stroke="#bfbfbf" points="288.5,-134.5 288.5,-153.5 352.5,-153.5 352.5,-134.5 288.5,-134.5"/>
<text text-anchor="middle" x="320.5" y="-141.5" font-family="Helvetica,sans-Serif" font-size="10.00">algorithm</text>
</a>
</g>
</g>
<!-- Node16&#45;&gt;Node21 -->
<g id="edge25" class="edge">
<title>Node16&#45;&gt;Node21</title>
<path fill="none" stroke="midnightblue" d="M384.29,-190.32C372.72,-182.11 355.12,-169.6 341.34,-159.81"/>
<polygon fill="midnightblue" stroke="midnightblue" points="343.11,-156.77 332.93,-153.83 339.06,-162.48 343.11,-156.77"/>
</g>
<!-- Node22 -->
<g id="node22" class="node">
<title>Node22</title>
<g id="a_node22"><a xlink:title=" ">
<polygon fill="white" stroke="#bfbfbf" points="370.5,-134.5 370.5,-153.5 422.5,-153.5 422.5,-134.5 370.5,-134.5"/>
<text text-anchor="middle" x="396.5" y="-141.5" font-family="Helvetica,sans-Serif" font-size="10.00">cassert</text>
</a>
</g>
</g>
<!-- Node16&#45;&gt;Node22 -->
<g id="edge26" class="edge">
<title>Node16&#45;&gt;Node22</title>
<path fill="none" stroke="midnightblue" d="M396.5,-190.08C396.5,-183.01 396.5,-172.86 396.5,-163.99"/>
<polygon fill="midnightblue" stroke="midnightblue" points="400,-163.75 396.5,-153.75 393,-163.75 400,-163.75"/>
</g>
<!-- Node23 -->
<g id="node23" class="node">
<title>Node23</title>
<g id="a_node23"><a xlink:title=" ">
<polygon fill="white" stroke="#bfbfbf" points="440.5,-134.5 440.5,-153.5 490.5,-153.5 490.5,-134.5 440.5,-134.5"/>
<text text-anchor="middle" x="465.5" y="-141.5" font-family="Helvetica,sans-Serif" font-size="10.00">atomic</text>
</a>
</g>
</g>
<!-- Node16&#45;&gt;Node23 -->
<g id="edge27" class="edge">
<title>Node16&#45;&gt;Node23</title>
<path fill="none" stroke="midnightblue" d="M407.59,-190.32C417.99,-182.18 433.76,-169.84 446.22,-160.09"/>
<polygon fill="midnightblue" stroke="midnightblue" points="448.49,-162.75 454.21,-153.83 444.18,-157.24 448.49,-162.75"/>
</g>
<!-- Node17&#45;&gt;Node2 -->
<g id="edge21" class="edge">
<title>Node17&#45;&gt;Node2</title>
<path fill="none" stroke="midnightblue" d="M270.54,-134.81C273.57,-134.53 276.56,-134.26 279.5,-134 494.63,-114.87 749.71,-96.53 869.26,-88.19"/>
<polygon fill="midnightblue" stroke="midnightblue" points="869.63,-91.67 879.37,-87.49 869.15,-84.69 869.63,-91.67"/>
</g>
<!-- Node18 -->
<g id="node18" class="node">
<title>Node18</title>
<g id="a_node18"><a xlink:title=" ">
<polygon fill="white" stroke="#bfbfbf" points="274.5,-73 274.5,-92 322.5,-92 322.5,-73 274.5,-73"/>
<text text-anchor="middle" x="298.5" y="-80" font-family="Helvetica,sans-Serif" font-size="10.00">mutex</text>
</a>
</g>
</g>
<!-- Node17&#45;&gt;Node18 -->
<g id="edge22" class="edge">
<title>Node17&#45;&gt;Node18</title>
<path fill="none" stroke="midnightblue" d="M205.97,-134.48C223.78,-124.67 253.24,-108.43 274.13,-96.92"/>
<polygon fill="midnightblue" stroke="midnightblue" points="275.99,-99.9 283.05,-92.01 272.61,-93.77 275.99,-99.9"/>
</g>
<!-- Node19 -->
<g id="node19" class="node">
<title>Node19</title>
<g id="a_node19"><a xlink:title=" ">
<polygon fill="white" stroke="#bfbfbf" points="0,-73 0,-92 107,-92 107,-73 0,-73"/>
<text text-anchor="middle" x="53.5" y="-80" font-family="Helvetica,sans-Serif" font-size="10.00">condition_variable</text>
</a>
</g>
</g>
<!-- Node17&#45;&gt;Node19 -->
<g id="edge23" class="edge">
<title>Node17&#45;&gt;Node19</title>
<path fill="none" stroke="midnightblue" d="M170.87,-134.48C147.68,-124.4 108.88,-107.55 82.29,-96"/>
<polygon fill="midnightblue" stroke="midnightblue" points="83.66,-92.78 73.09,-92.01 80.87,-99.2 83.66,-92.78"/>
</g>
<!-- Node20 -->
<g id="node20" class="node">
<title>Node20</title>
<g id="a_node20"><a xlink:href="threadsafetyanalysis_8h.html" target="_top" xlink:title=" ">
<polygon fill="white" stroke="black" points="125,-67.5 125,-97.5 256,-97.5 256,-67.5 125,-67.5"/>
<text text-anchor="start" x="133" y="-85.5" font-family="Helvetica,sans-Serif" font-size="10.00">log4cplus/internal</text>
<text text-anchor="middle" x="190.5" y="-74.5" font-family="Helvetica,sans-Serif" font-size="10.00">/threadsafetyanalysis.h</text>
</a>
</g>
</g>
<!-- Node17&#45;&gt;Node20 -->
<g id="edge24" class="edge">
<title>Node17&#45;&gt;Node20</title>
<path fill="none" stroke="midnightblue" d="M190.5,-134.48C190.5,-127.47 190.5,-117.19 190.5,-107.7"/>
<polygon fill="midnightblue" stroke="midnightblue" points="194,-107.52 190.5,-97.52 187,-107.52 194,-107.52"/>
</g>
<!-- Node24&#45;&gt;Node2 -->
<g id="edge29" class="edge">
<title>Node24&#45;&gt;Node2</title>
<path fill="none" stroke="midnightblue" d="M1121.69,-190.48C1130.59,-177.1 1144.58,-150.92 1131.5,-134 1115.97,-113.91 1055.09,-100.31 1005.62,-92.33"/>
<polygon fill="midnightblue" stroke="midnightblue" points="1006,-88.85 995.58,-90.77 1004.92,-95.77 1006,-88.85"/>
</g>
<!-- Node24&#45;&gt;Node14 -->
<g id="edge30" class="edge">
<title>Node24&#45;&gt;Node14</title>
<path fill="none" stroke="midnightblue" d="M1108.4,-190.08C1102.26,-182.38 1093.23,-171.03 1085.76,-161.65"/>
<polygon fill="midnightblue" stroke="midnightblue" points="1088.44,-159.39 1079.47,-153.75 1082.96,-163.75 1088.44,-159.39"/>
</g>
<!-- Node25 -->
<g id="node25" class="node">
<title>Node25</title>
<g id="a_node25"><a xlink:title=" ">
<polygon fill="white" stroke="#bfbfbf" points="1178.5,-134.5 1178.5,-153.5 1226.5,-153.5 1226.5,-134.5 1178.5,-134.5"/>
<text text-anchor="middle" x="1202.5" y="-141.5" font-family="Helvetica,sans-Serif" font-size="10.00">iosfwd</text>
</a>
</g>
</g>
<!-- Node24&#45;&gt;Node25 -->
<g id="edge31" class="edge">
<title>Node24&#45;&gt;Node25</title>
<path fill="none" stroke="midnightblue" d="M1129.48,-190.32C1143.05,-181.9 1163.88,-168.97 1179.82,-159.07"/>
<polygon fill="midnightblue" stroke="midnightblue" points="1181.91,-161.9 1188.56,-153.65 1178.21,-155.95 1181.91,-161.9"/>
</g>
<!-- Node26&#45;&gt;Node2 -->
<g id="edge34" class="edge">
<title>Node26&#45;&gt;Node2</title>
<path fill="none" stroke="midnightblue" d="M838.59,-246.1C836.22,-232.66 833.82,-206.97 845.5,-190 866.68,-159.21 898.12,-183.16 921.5,-154 933.14,-139.49 936.66,-118.15 937.57,-102.75"/>
<polygon fill="midnightblue" stroke="midnightblue" points="941.08,-102.43 937.84,-92.35 934.08,-102.25 941.08,-102.43"/>
</g>
<!-- Node26&#45;&gt;Node9 -->
<g id="edge35" class="edge">
<title>Node26&#45;&gt;Node9</title>
<path fill="none" stroke="midnightblue" d="M825.08,-246.32C809.96,-237.82 786.68,-224.73 769.03,-214.8"/>
<polygon fill="midnightblue" stroke="midnightblue" points="770.32,-211.51 759.89,-209.65 766.89,-217.61 770.32,-211.51"/>
</g>
<!-- Node27 -->
<g id="node27" class="node">
<title>Node27</title>
<g id="a_node27"><a xlink:title=" ">
<polygon fill="white" stroke="#bfbfbf" points="922.5,-190.5 922.5,-209.5 966.5,-209.5 966.5,-190.5 922.5,-190.5"/>
<text text-anchor="middle" x="944.5" y="-197.5" font-family="Helvetica,sans-Serif" font-size="10.00">ctime</text>
</a>
</g>
</g>
<!-- Node26&#45;&gt;Node27 -->
<g id="edge36" class="edge">
<title>Node26&#45;&gt;Node27</title>
<path fill="none" stroke="midnightblue" d="M857.21,-246.32C873.81,-237.7 899.5,-224.36 918.72,-214.39"/>
<polygon fill="midnightblue" stroke="midnightblue" points="920.57,-217.37 927.83,-209.65 917.34,-211.16 920.57,-217.37"/>
</g>
<!-- Node28 -->
<g id="node28" class="node">
<title>Node28</title>
<g id="a_node28"><a xlink:title=" ">
<polygon fill="white" stroke="#bfbfbf" points="854.5,-190.5 854.5,-209.5 904.5,-209.5 904.5,-190.5 854.5,-190.5"/>
<text text-anchor="middle" x="879.5" y="-197.5" font-family="Helvetica,sans-Serif" font-size="10.00">chrono</text>
</a>
</g>
</g>
<!-- Node26&#45;&gt;Node28 -->
<g id="edge37" class="edge">
<title>Node26&#45;&gt;Node28</title>
<path fill="none" stroke="midnightblue" d="M846.94,-246.08C852.45,-238.46 860.53,-227.26 867.26,-217.94"/>
<polygon fill="midnightblue" stroke="midnightblue" points="870.16,-219.91 873.18,-209.75 864.49,-215.81 870.16,-219.91"/>
</g>
</g>
</svg>
