<?xml version="1.0" encoding="UTF-8" standalone="no"?>
<!DOCTYPE svg PUBLIC "-//W3C//DTD SVG 1.1//EN"
 "http://www.w3.org/Graphics/SVG/1.1/DTD/svg11.dtd">
<!-- Generated by graphviz version 2.43.0 (0)
 -->
<!-- Title: lockfile.h Pages: 1 -->
<svg width="2213pt" height="364pt"
 viewBox="0.00 0.00 2212.50 364.00" xmlns="http://www.w3.org/2000/svg" xmlns:xlink="http://www.w3.org/1999/xlink">
<g id="graph0" class="graph" transform="scale(1 1) rotate(0) translate(4 360)">
<title>lockfile.h</title>
<polygon fill="white" stroke="transparent" points="-4,4 -4,-360 2208.5,-360 2208.5,4 -4,4"/>
<!-- Node1 -->
<g id="node1" class="node">
<title>Node1</title>
<g id="a_node1"><a xlink:title=" ">
<polygon fill="#bfbfbf" stroke="black" points="995,-336.5 995,-355.5 1056,-355.5 1056,-336.5 995,-336.5"/>
<text text-anchor="middle" x="1025.5" y="-343.5" font-family="Helvetica,sans-Serif" font-size="10.00">lockfile.h</text>
</a>
</g>
</g>
<!-- Node2 -->
<g id="node2" class="node">
<title>Node2</title>
<g id="a_node2"><a xlink:href="appender_8h.html" target="_top" xlink:title=" ">
<polygon fill="white" stroke="black" points="958,-280.5 958,-299.5 1029,-299.5 1029,-280.5 958,-280.5"/>
<text text-anchor="middle" x="993.5" y="-287.5" font-family="Helvetica,sans-Serif" font-size="10.00">appender.h</text>
</a>
</g>
</g>
<!-- Node1&#45;&gt;Node2 -->
<g id="edge1" class="edge">
<title>Node1&#45;&gt;Node2</title>
<path fill="none" stroke="midnightblue" d="M1015,-327.27C1009.53,-318.05 1003.08,-307.17 998.69,-299.75"/>
<polygon fill="midnightblue" stroke="midnightblue" points="1012.11,-329.26 1020.22,-336.08 1018.13,-325.7 1012.11,-329.26"/>
</g>
<!-- Node20 -->
<g id="node20" class="node">
<title>Node20</title>
<g id="a_node20"><a xlink:href="fileappender_8h.html" target="_top" xlink:title=" ">
<polygon fill="white" stroke="black" points="2118.5,-224.5 2118.5,-243.5 2204.5,-243.5 2204.5,-224.5 2118.5,-224.5"/>
<text text-anchor="middle" x="2161.5" y="-231.5" font-family="Helvetica,sans-Serif" font-size="10.00">fileappender.h</text>
</a>
</g>
</g>
<!-- Node1&#45;&gt;Node20 -->
<g id="edge45" class="edge">
<title>Node1&#45;&gt;Node20</title>
<path fill="none" stroke="midnightblue" d="M1066.31,-342.36C1209.78,-332.82 1704.17,-297.88 2109.5,-244 2112.41,-243.61 2115.4,-243.18 2118.41,-242.73"/>
<polygon fill="midnightblue" stroke="midnightblue" points="1065.95,-338.87 1056.21,-343.03 1066.42,-345.86 1065.95,-338.87"/>
</g>
<!-- Node3 -->
<g id="node3" class="node">
<title>Node3</title>
<g id="a_node3"><a xlink:href="appenderattachable_8h.html" target="_top" xlink:title=" ">
<polygon fill="white" stroke="black" points="292,-224.5 292,-243.5 415,-243.5 415,-224.5 292,-224.5"/>
<text text-anchor="middle" x="353.5" y="-231.5" font-family="Helvetica,sans-Serif" font-size="10.00">appenderattachable.h</text>
</a>
</g>
</g>
<!-- Node2&#45;&gt;Node3 -->
<g id="edge2" class="edge">
<title>Node2&#45;&gt;Node3</title>
<path fill="none" stroke="midnightblue" d="M947.69,-285.13C834.86,-275.61 543.5,-251.03 415.44,-240.23"/>
<polygon fill="midnightblue" stroke="midnightblue" points="947.46,-288.63 957.72,-285.98 948.05,-281.65 947.46,-288.63"/>
</g>
<!-- Node5 -->
<g id="node5" class="node">
<title>Node5</title>
<g id="a_node5"><a xlink:href="asyncappender_8h.html" target="_top" xlink:title=" ">
<polygon fill="white" stroke="black" points="0,-112.5 0,-131.5 99,-131.5 99,-112.5 0,-112.5"/>
<text text-anchor="middle" x="49.5" y="-119.5" font-family="Helvetica,sans-Serif" font-size="10.00">asyncappender.h</text>
</a>
</g>
</g>
<!-- Node2&#45;&gt;Node5 -->
<g id="edge20" class="edge">
<title>Node2&#45;&gt;Node5</title>
<path fill="none" stroke="midnightblue" d="M947.7,-289.25C834.3,-289.19 531.68,-284.85 283.5,-244 189.03,-228.45 147.05,-251.6 75.5,-188 58.6,-172.98 52.53,-145.47 50.48,-131.55"/>
<polygon fill="midnightblue" stroke="midnightblue" points="947.76,-292.75 957.76,-289.24 947.75,-285.75 947.76,-292.75"/>
</g>
<!-- Node6 -->
<g id="node6" class="node">
<title>Node6</title>
<g id="a_node6"><a xlink:href="log4cplus_8h.html" target="_top" xlink:title=" ">
<polygon fill="white" stroke="black" points="603.5,-0.5 603.5,-19.5 675.5,-19.5 675.5,-0.5 603.5,-0.5"/>
<text text-anchor="middle" x="639.5" y="-7.5" font-family="Helvetica,sans-Serif" font-size="10.00">log4cplus.h</text>
</a>
</g>
</g>
<!-- Node2&#45;&gt;Node6 -->
<g id="edge32" class="edge">
<title>Node2&#45;&gt;Node6</title>
<path fill="none" stroke="midnightblue" d="M962.95,-275.56C950.17,-268.22 936.65,-257.77 929.5,-244 925.4,-236.11 925.69,-232.03 929.5,-224 940.32,-201.17 962.68,-210.83 973.5,-188 977.31,-179.97 975.63,-176.63 973.5,-168 959.99,-113.38 960.16,-88.88 914.5,-56 876.86,-28.9 741.32,-17.15 675.66,-12.96"/>
<polygon fill="midnightblue" stroke="midnightblue" points="961.54,-278.77 972.02,-280.36 964.82,-272.59 961.54,-278.77"/>
</g>
<!-- Node10 -->
<g id="node10" class="node">
<title>Node10</title>
<g id="a_node10"><a xlink:href="configurator_8h.html" target="_top" xlink:title=" ">
<polygon fill="white" stroke="black" points="426,-112.5 426,-131.5 509,-131.5 509,-112.5 426,-112.5"/>
<text text-anchor="middle" x="467.5" y="-119.5" font-family="Helvetica,sans-Serif" font-size="10.00">configurator.h</text>
</a>
</g>
</g>
<!-- Node2&#45;&gt;Node10 -->
<g id="edge23" class="edge">
<title>Node2&#45;&gt;Node10</title>
<path fill="none" stroke="midnightblue" d="M947.6,-288.14C853.12,-285.7 640.4,-276.66 576.5,-244 524.39,-217.36 485.28,-154.69 472.22,-131.67"/>
<polygon fill="midnightblue" stroke="midnightblue" points="947.63,-291.64 957.71,-288.38 947.8,-284.64 947.63,-291.64"/>
</g>
<!-- Node12 -->
<g id="node12" class="node">
<title>Node12</title>
<g id="a_node12"><a xlink:href="hierarchylocker_8h.html" target="_top" xlink:title=" ">
<polygon fill="white" stroke="black" points="527.5,-112.5 527.5,-131.5 627.5,-131.5 627.5,-112.5 527.5,-112.5"/>
<text text-anchor="middle" x="577.5" y="-119.5" font-family="Helvetica,sans-Serif" font-size="10.00">hierarchylocker.h</text>
</a>
</g>
</g>
<!-- Node2&#45;&gt;Node12 -->
<g id="edge31" class="edge">
<title>Node2&#45;&gt;Node12</title>
<path fill="none" stroke="midnightblue" d="M947.48,-288.7C879.19,-287.03 747.77,-279.02 642.5,-244 594.53,-228.04 568.97,-231.67 543.5,-188 531.95,-168.2 553.45,-144.11 567.24,-131.55"/>
<polygon fill="midnightblue" stroke="midnightblue" points="947.81,-292.21 957.88,-288.92 947.96,-285.21 947.81,-292.21"/>
</g>
<!-- Node15 -->
<g id="node15" class="node">
<title>Node15</title>
<g id="a_node15"><a xlink:href="callbackappender_8h.html" target="_top" xlink:title=" ">
<polygon fill="white" stroke="black" points="938.5,-224.5 938.5,-243.5 1048.5,-243.5 1048.5,-224.5 938.5,-224.5"/>
<text text-anchor="middle" x="993.5" y="-231.5" font-family="Helvetica,sans-Serif" font-size="10.00">callbackappender.h</text>
</a>
</g>
</g>
<!-- Node2&#45;&gt;Node15 -->
<g id="edge21" class="edge">
<title>Node2&#45;&gt;Node15</title>
<path fill="none" stroke="midnightblue" d="M993.5,-269.8C993.5,-260.91 993.5,-250.78 993.5,-243.75"/>
<polygon fill="midnightblue" stroke="midnightblue" points="990,-270.08 993.5,-280.08 997,-270.08 990,-270.08"/>
</g>
<!-- Node16 -->
<g id="node16" class="node">
<title>Node16</title>
<g id="a_node16"><a xlink:href="clfsappender_8h.html" target="_top" xlink:title=" ">
<polygon fill="white" stroke="black" points="1066.5,-224.5 1066.5,-243.5 1154.5,-243.5 1154.5,-224.5 1066.5,-224.5"/>
<text text-anchor="middle" x="1110.5" y="-231.5" font-family="Helvetica,sans-Serif" font-size="10.00">clfsappender.h</text>
</a>
</g>
</g>
<!-- Node2&#45;&gt;Node16 -->
<g id="edge22" class="edge">
<title>Node2&#45;&gt;Node16</title>
<path fill="none" stroke="midnightblue" d="M1021.16,-276.23C1043.05,-266.13 1073,-252.31 1092.05,-243.52"/>
<polygon fill="midnightblue" stroke="midnightblue" points="1019.65,-273.08 1012.04,-280.44 1022.59,-279.43 1019.65,-273.08"/>
</g>
<!-- Node17 -->
<g id="node17" class="node">
<title>Node17</title>
<g id="a_node17"><a xlink:href="consoleappender_8h.html" target="_top" xlink:title=" ">
<polygon fill="white" stroke="black" points="552.5,-168.5 552.5,-187.5 660.5,-187.5 660.5,-168.5 552.5,-168.5"/>
<text text-anchor="middle" x="606.5" y="-175.5" font-family="Helvetica,sans-Serif" font-size="10.00">consoleappender.h</text>
</a>
</g>
</g>
<!-- Node2&#45;&gt;Node17 -->
<g id="edge24" class="edge">
<title>Node2&#45;&gt;Node17</title>
<path fill="none" stroke="midnightblue" d="M947.55,-285.99C871.15,-280.41 721.72,-266.9 674.5,-244 647.17,-230.75 623.66,-202.44 612.84,-187.95"/>
<polygon fill="midnightblue" stroke="midnightblue" points="947.6,-289.5 957.83,-286.72 948.1,-282.52 947.6,-289.5"/>
</g>
<!-- Node18 -->
<g id="node18" class="node">
<title>Node18</title>
<g id="a_node18"><a xlink:href="deviceappender_8hxx.html" target="_top" xlink:title=" ">
<polygon fill="white" stroke="black" points="1172,-224.5 1172,-243.5 1287,-243.5 1287,-224.5 1172,-224.5"/>
<text text-anchor="middle" x="1229.5" y="-231.5" font-family="Helvetica,sans-Serif" font-size="10.00">deviceappender.hxx</text>
</a>
</g>
</g>
<!-- Node2&#45;&gt;Node18 -->
<g id="edge26" class="edge">
<title>Node2&#45;&gt;Node18</title>
<path fill="none" stroke="midnightblue" d="M1039.06,-278.58C1083.58,-268.39 1150.55,-253.06 1192.06,-243.57"/>
<polygon fill="midnightblue" stroke="midnightblue" points="1038.05,-275.21 1029.09,-280.86 1039.62,-282.04 1038.05,-275.21"/>
</g>
<!-- Node19 -->
<g id="node19" class="node">
<title>Node19</title>
<g id="a_node19"><a xlink:href="factory_8h.html" target="_top" xlink:title=" ">
<polygon fill="white" stroke="black" points="668,-56.5 668,-75.5 727,-75.5 727,-56.5 668,-56.5"/>
<text text-anchor="middle" x="697.5" y="-63.5" font-family="Helvetica,sans-Serif" font-size="10.00">factory.h</text>
</a>
</g>
</g>
<!-- Node2&#45;&gt;Node19 -->
<g id="edge27" class="edge">
<title>Node2&#45;&gt;Node19</title>
<path fill="none" stroke="midnightblue" d="M947.5,-289.16C880.03,-286.51 757,-270.03 708.5,-188 686.71,-151.14 692.56,-96.65 695.92,-75.67"/>
<polygon fill="midnightblue" stroke="midnightblue" points="947.73,-292.67 957.83,-289.47 947.94,-285.67 947.73,-292.67"/>
</g>
<!-- Node2&#45;&gt;Node20 -->
<g id="edge29" class="edge">
<title>Node2&#45;&gt;Node20</title>
<path fill="none" stroke="midnightblue" d="M1039.68,-289.3C1192.58,-289.84 1696.17,-287.91 2109.5,-244 2112.42,-243.69 2115.41,-243.32 2118.43,-242.9"/>
<polygon fill="midnightblue" stroke="midnightblue" points="1039.29,-285.8 1029.28,-289.26 1039.26,-292.8 1039.29,-285.8"/>
</g>
<!-- Node21 -->
<g id="node21" class="node">
<title>Node21</title>
<g id="a_node21"><a xlink:href="log4judpappender_8h.html" target="_top" xlink:title=" ">
<polygon fill="white" stroke="black" points="1305,-224.5 1305,-243.5 1418,-243.5 1418,-224.5 1305,-224.5"/>
<text text-anchor="middle" x="1361.5" y="-231.5" font-family="Helvetica,sans-Serif" font-size="10.00">log4judpappender.h</text>
</a>
</g>
</g>
<!-- Node2&#45;&gt;Node21 -->
<g id="edge33" class="edge">
<title>Node2&#45;&gt;Node21</title>
<path fill="none" stroke="midnightblue" d="M1039.41,-282.26C1106.72,-272.39 1232.08,-253.99 1304.97,-243.3"/>
<polygon fill="midnightblue" stroke="midnightblue" points="1038.51,-278.86 1029.12,-283.77 1039.52,-285.78 1038.51,-278.86"/>
</g>
<!-- Node22 -->
<g id="node22" class="node">
<title>Node22</title>
<g id="a_node22"><a xlink:href="msttsappender_8h.html" target="_top" xlink:title=" ">
<polygon fill="white" stroke="black" points="1436.5,-224.5 1436.5,-243.5 1534.5,-243.5 1534.5,-224.5 1436.5,-224.5"/>
<text text-anchor="middle" x="1485.5" y="-231.5" font-family="Helvetica,sans-Serif" font-size="10.00">msttsappender.h</text>
</a>
</g>
</g>
<!-- Node2&#45;&gt;Node22 -->
<g id="edge34" class="edge">
<title>Node2&#45;&gt;Node22</title>
<path fill="none" stroke="midnightblue" d="M1039.13,-285.03C1118.31,-277.98 1286.22,-262.27 1427.5,-244 1430.43,-243.62 1433.44,-243.21 1436.48,-242.79"/>
<polygon fill="midnightblue" stroke="midnightblue" points="1038.66,-281.56 1029.01,-285.93 1039.28,-288.53 1038.66,-281.56"/>
</g>
<!-- Node23 -->
<g id="node23" class="node">
<title>Node23</title>
<g id="a_node23"><a xlink:href="nteventlogappender_8h.html" target="_top" xlink:title=" ">
<polygon fill="white" stroke="black" points="1553,-224.5 1553,-243.5 1676,-243.5 1676,-224.5 1553,-224.5"/>
<text text-anchor="middle" x="1614.5" y="-231.5" font-family="Helvetica,sans-Serif" font-size="10.00">nteventlogappender.h</text>
</a>
</g>
</g>
<!-- Node2&#45;&gt;Node23 -->
<g id="edge35" class="edge">
<title>Node2&#45;&gt;Node23</title>
<path fill="none" stroke="midnightblue" d="M1039.33,-285.94C1133.77,-279.49 1356.82,-263.46 1543.5,-244 1546.59,-243.68 1549.75,-243.33 1552.95,-242.97"/>
<polygon fill="midnightblue" stroke="midnightblue" points="1039,-282.46 1029.26,-286.63 1039.48,-289.44 1039,-282.46"/>
</g>
<!-- Node24 -->
<g id="node24" class="node">
<title>Node24</title>
<g id="a_node24"><a xlink:href="nullappender_8h.html" target="_top" xlink:title=" ">
<polygon fill="white" stroke="black" points="717,-168.5 717,-187.5 806,-187.5 806,-168.5 717,-168.5"/>
<text text-anchor="middle" x="761.5" y="-175.5" font-family="Helvetica,sans-Serif" font-size="10.00">nullappender.h</text>
</a>
</g>
</g>
<!-- Node2&#45;&gt;Node24 -->
<g id="edge36" class="edge">
<title>Node2&#45;&gt;Node24</title>
<path fill="none" stroke="midnightblue" d="M947.34,-284.32C910.77,-278.95 859.53,-267.61 820.5,-244 796.25,-229.33 776.09,-201.66 766.88,-187.63"/>
<polygon fill="midnightblue" stroke="midnightblue" points="947.33,-287.85 957.71,-285.74 948.28,-280.91 947.33,-287.85"/>
</g>
<!-- Node25 -->
<g id="node25" class="node">
<title>Node25</title>
<g id="a_node25"><a xlink:href="qt4debugappender_8h.html" target="_top" xlink:title=" ">
<polygon fill="white" stroke="black" points="1694.5,-224.5 1694.5,-243.5 1810.5,-243.5 1810.5,-224.5 1694.5,-224.5"/>
<text text-anchor="middle" x="1752.5" y="-231.5" font-family="Helvetica,sans-Serif" font-size="10.00">qt4debugappender.h</text>
</a>
</g>
</g>
<!-- Node2&#45;&gt;Node25 -->
<g id="edge38" class="edge">
<title>Node2&#45;&gt;Node25</title>
<path fill="none" stroke="midnightblue" d="M1039.4,-287.11C1150.51,-282.28 1442.65,-268.18 1685.5,-244 1688.42,-243.71 1691.41,-243.39 1694.42,-243.05"/>
<polygon fill="midnightblue" stroke="midnightblue" points="1039.06,-283.62 1029.22,-287.54 1039.37,-290.61 1039.06,-283.62"/>
</g>
<!-- Node26 -->
<g id="node26" class="node">
<title>Node26</title>
<g id="a_node26"><a xlink:href="qt5debugappender_8h.html" target="_top" xlink:title=" ">
<polygon fill="white" stroke="black" points="1828.5,-224.5 1828.5,-243.5 1944.5,-243.5 1944.5,-224.5 1828.5,-224.5"/>
<text text-anchor="middle" x="1886.5" y="-231.5" font-family="Helvetica,sans-Serif" font-size="10.00">qt5debugappender.h</text>
</a>
</g>
</g>
<!-- Node2&#45;&gt;Node26 -->
<g id="edge39" class="edge">
<title>Node2&#45;&gt;Node26</title>
<path fill="none" stroke="midnightblue" d="M1039.41,-287.77C1164.69,-284.15 1522.93,-271.95 1819.5,-244 1822.42,-243.72 1825.41,-243.42 1828.43,-243.09"/>
<polygon fill="midnightblue" stroke="midnightblue" points="1039.3,-284.28 1029.4,-288.06 1039.5,-291.27 1039.3,-284.28"/>
</g>
<!-- Node27 -->
<g id="node27" class="node">
<title>Node27</title>
<g id="a_node27"><a xlink:href="socketappender_8h.html" target="_top" xlink:title=" ">
<polygon fill="white" stroke="black" points="783.5,-56.5 783.5,-75.5 885.5,-75.5 885.5,-56.5 783.5,-56.5"/>
<text text-anchor="middle" x="834.5" y="-63.5" font-family="Helvetica,sans-Serif" font-size="10.00">socketappender.h</text>
</a>
</g>
</g>
<!-- Node2&#45;&gt;Node27 -->
<g id="edge40" class="edge">
<title>Node2&#45;&gt;Node27</title>
<path fill="none" stroke="midnightblue" d="M949.99,-277.37C929.36,-270.25 905.38,-259.47 887.5,-244 835.35,-198.87 833.41,-104.7 834.13,-75.69"/>
<polygon fill="midnightblue" stroke="midnightblue" points="948.91,-280.7 959.51,-280.49 951.09,-274.05 948.91,-280.7"/>
</g>
<!-- Node28 -->
<g id="node28" class="node">
<title>Node28</title>
<g id="a_node28"><a xlink:href="syslogappender_8h.html" target="_top" xlink:title=" ">
<polygon fill="white" stroke="black" points="862.5,-168.5 862.5,-187.5 964.5,-187.5 964.5,-168.5 862.5,-168.5"/>
<text text-anchor="middle" x="913.5" y="-175.5" font-family="Helvetica,sans-Serif" font-size="10.00">syslogappender.h</text>
</a>
</g>
</g>
<!-- Node2&#45;&gt;Node28 -->
<g id="edge42" class="edge">
<title>Node2&#45;&gt;Node28</title>
<path fill="none" stroke="midnightblue" d="M947.91,-279.4C928.6,-272.83 907.95,-261.94 896.5,-244 885.08,-226.11 898.49,-200.8 907.2,-187.67"/>
<polygon fill="midnightblue" stroke="midnightblue" points="946.94,-282.76 957.53,-282.37 949.01,-276.07 946.94,-282.76"/>
</g>
<!-- Node29 -->
<g id="node29" class="node">
<title>Node29</title>
<g id="a_node29"><a xlink:href="win32consoleappender_8h.html" target="_top" xlink:title=" ">
<polygon fill="white" stroke="black" points="1963,-224.5 1963,-243.5 2100,-243.5 2100,-224.5 1963,-224.5"/>
<text text-anchor="middle" x="2031.5" y="-231.5" font-family="Helvetica,sans-Serif" font-size="10.00">win32consoleappender.h</text>
</a>
</g>
</g>
<!-- Node2&#45;&gt;Node29 -->
<g id="edge44" class="edge">
<title>Node2&#45;&gt;Node29</title>
<path fill="none" stroke="midnightblue" d="M1039.53,-287.95C1177.96,-284.57 1602.59,-272.44 1953.5,-244 1956.49,-243.76 1959.54,-243.49 1962.62,-243.2"/>
<polygon fill="midnightblue" stroke="midnightblue" points="1039.21,-284.46 1029.3,-288.2 1039.38,-291.46 1039.21,-284.46"/>
</g>
<!-- Node4 -->
<g id="node4" class="node">
<title>Node4</title>
<g id="a_node4"><a xlink:href="appenderattachableimpl_8h.html" target="_top" xlink:title=" ">
<polygon fill="white" stroke="black" points="84,-168.5 84,-187.5 229,-187.5 229,-168.5 84,-168.5"/>
<text text-anchor="middle" x="156.5" y="-175.5" font-family="Helvetica,sans-Serif" font-size="10.00">appenderattachableimpl.h</text>
</a>
</g>
</g>
<!-- Node3&#45;&gt;Node4 -->
<g id="edge3" class="edge">
<title>Node3&#45;&gt;Node4</title>
<path fill="none" stroke="midnightblue" d="M312.27,-221.7C275.09,-211.51 221.23,-196.74 187.57,-187.52"/>
<polygon fill="midnightblue" stroke="midnightblue" points="311.72,-225.18 322.28,-224.44 313.57,-218.42 311.72,-225.18"/>
</g>
<!-- Node9 -->
<g id="node9" class="node">
<title>Node9</title>
<g id="a_node9"><a xlink:href="logger_8h.html" target="_top" xlink:title="This header defines the Logger class and the logging macros.">
<polygon fill="white" stroke="black" points="325.5,-168.5 325.5,-187.5 381.5,-187.5 381.5,-168.5 325.5,-168.5"/>
<text text-anchor="middle" x="353.5" y="-175.5" font-family="Helvetica,sans-Serif" font-size="10.00">logger.h</text>
</a>
</g>
</g>
<!-- Node3&#45;&gt;Node9 -->
<g id="edge8" class="edge">
<title>Node3&#45;&gt;Node9</title>
<path fill="none" stroke="midnightblue" d="M353.5,-213.8C353.5,-204.91 353.5,-194.78 353.5,-187.75"/>
<polygon fill="midnightblue" stroke="midnightblue" points="350,-214.08 353.5,-224.08 357,-214.08 350,-214.08"/>
</g>
<!-- Node4&#45;&gt;Node5 -->
<g id="edge4" class="edge">
<title>Node4&#45;&gt;Node5</title>
<path fill="none" stroke="midnightblue" d="M130.2,-163.73C110.39,-153.73 83.79,-140.31 66.65,-131.65"/>
<polygon fill="midnightblue" stroke="midnightblue" points="128.8,-166.94 139.31,-168.32 131.96,-160.69 128.8,-166.94"/>
</g>
<!-- Node7 -->
<g id="node7" class="node">
<title>Node7</title>
<g id="a_node7"><a xlink:href="loggerimpl_8h.html" target="_top" xlink:title=" ">
<polygon fill="white" stroke="black" points="117.5,-112.5 117.5,-131.5 195.5,-131.5 195.5,-112.5 117.5,-112.5"/>
<text text-anchor="middle" x="156.5" y="-119.5" font-family="Helvetica,sans-Serif" font-size="10.00">loggerimpl.h</text>
</a>
</g>
</g>
<!-- Node4&#45;&gt;Node7 -->
<g id="edge6" class="edge">
<title>Node4&#45;&gt;Node7</title>
<path fill="none" stroke="midnightblue" d="M156.5,-157.8C156.5,-148.91 156.5,-138.78 156.5,-131.75"/>
<polygon fill="midnightblue" stroke="midnightblue" points="153,-158.08 156.5,-168.08 160,-158.08 153,-158.08"/>
</g>
<!-- Node5&#45;&gt;Node6 -->
<g id="edge5" class="edge">
<title>Node5&#45;&gt;Node6</title>
<path fill="none" stroke="midnightblue" d="M54.69,-102.57C60.03,-87.33 69.93,-66.55 86.5,-56 129.96,-28.31 487.19,-15.47 603.24,-12"/>
<polygon fill="midnightblue" stroke="midnightblue" points="51.24,-101.87 51.59,-112.45 57.92,-103.96 51.24,-101.87"/>
</g>
<!-- Node8 -->
<g id="node8" class="node">
<title>Node8</title>
<g id="a_node8"><a xlink:href="rootlogger_8h.html" target="_top" xlink:title=" ">
<polygon fill="white" stroke="black" points="95,-56.5 95,-75.5 170,-75.5 170,-56.5 95,-56.5"/>
<text text-anchor="middle" x="132.5" y="-63.5" font-family="Helvetica,sans-Serif" font-size="10.00">rootlogger.h</text>
</a>
</g>
</g>
<!-- Node7&#45;&gt;Node8 -->
<g id="edge7" class="edge">
<title>Node7&#45;&gt;Node8</title>
<path fill="none" stroke="midnightblue" d="M148.36,-102.69C144.32,-93.59 139.62,-83.01 136.39,-75.75"/>
<polygon fill="midnightblue" stroke="midnightblue" points="145.28,-104.37 152.54,-112.08 151.67,-101.52 145.28,-104.37"/>
</g>
<!-- Node9&#45;&gt;Node6 -->
<g id="edge14" class="edge">
<title>Node9&#45;&gt;Node6</title>
<path fill="none" stroke="midnightblue" d="M366.83,-160.58C378.94,-146.4 397.88,-126.05 417.5,-112 481.02,-66.52 568.29,-34.13 612.09,-19.59"/>
<polygon fill="midnightblue" stroke="midnightblue" points="363.94,-158.57 360.22,-168.49 369.31,-163.06 363.94,-158.57"/>
</g>
<!-- Node9&#45;&gt;Node10 -->
<g id="edge9" class="edge">
<title>Node9&#45;&gt;Node10</title>
<path fill="none" stroke="midnightblue" d="M380.74,-164.1C402.04,-154.01 431.04,-140.27 449.52,-131.52"/>
<polygon fill="midnightblue" stroke="midnightblue" points="379.1,-161 371.56,-168.44 382.1,-167.33 379.1,-161"/>
</g>
<!-- Node11 -->
<g id="node11" class="node">
<title>Node11</title>
<g id="a_node11"><a xlink:href="hierarchy_8h.html" target="_top" xlink:title=" ">
<polygon fill="white" stroke="black" points="188.5,-56.5 188.5,-75.5 258.5,-75.5 258.5,-56.5 188.5,-56.5"/>
<text text-anchor="middle" x="223.5" y="-63.5" font-family="Helvetica,sans-Serif" font-size="10.00">hierarchy.h</text>
</a>
</g>
</g>
<!-- Node9&#45;&gt;Node11 -->
<g id="edge11" class="edge">
<title>Node9&#45;&gt;Node11</title>
<path fill="none" stroke="midnightblue" d="M323.94,-163.96C308,-156.08 288.56,-145.05 273.5,-132 253.91,-115.04 236.9,-89.34 228.71,-75.9"/>
<polygon fill="midnightblue" stroke="midnightblue" points="322.81,-167.3 333.35,-168.45 325.83,-160.98 322.81,-167.3"/>
</g>
<!-- Node9&#45;&gt;Node12 -->
<g id="edge13" class="edge">
<title>Node9&#45;&gt;Node12</title>
<path fill="none" stroke="midnightblue" d="M391.75,-167.78C433.85,-157.63 501,-141.44 541.99,-131.56"/>
<polygon fill="midnightblue" stroke="midnightblue" points="390.77,-164.41 381.87,-170.16 392.41,-171.22 390.77,-164.41"/>
</g>
<!-- Node13 -->
<g id="node13" class="node">
<title>Node13</title>
<g id="a_node13"><a xlink:href="loggingmacros_8h.html" target="_top" xlink:title="This header defines the logging macros.">
<polygon fill="white" stroke="black" points="276.5,-56.5 276.5,-75.5 374.5,-75.5 374.5,-56.5 276.5,-56.5"/>
<text text-anchor="middle" x="325.5" y="-63.5" font-family="Helvetica,sans-Serif" font-size="10.00">loggingmacros.h</text>
</a>
</g>
</g>
<!-- Node9&#45;&gt;Node13 -->
<g id="edge15" class="edge">
<title>Node9&#45;&gt;Node13</title>
<path fill="none" stroke="midnightblue" d="M318.05,-164.2C303.72,-157.06 288.66,-146.61 280.5,-132 268.66,-110.79 294.7,-87.84 311.91,-75.69"/>
<polygon fill="midnightblue" stroke="midnightblue" points="316.74,-167.44 327.29,-168.41 319.65,-161.08 316.74,-167.44"/>
</g>
<!-- Node14 -->
<g id="node14" class="node">
<title>Node14</title>
<g id="a_node14"><a xlink:href="tracelogger_8h.html" target="_top" xlink:title=" ">
<polygon fill="white" stroke="black" points="289.5,-112.5 289.5,-131.5 369.5,-131.5 369.5,-112.5 289.5,-112.5"/>
<text text-anchor="middle" x="329.5" y="-119.5" font-family="Helvetica,sans-Serif" font-size="10.00">tracelogger.h</text>
</a>
</g>
</g>
<!-- Node9&#45;&gt;Node14 -->
<g id="edge17" class="edge">
<title>Node9&#45;&gt;Node14</title>
<path fill="none" stroke="midnightblue" d="M345.36,-158.69C341.32,-149.59 336.62,-139.01 333.39,-131.75"/>
<polygon fill="midnightblue" stroke="midnightblue" points="342.28,-160.37 349.54,-168.08 348.67,-157.52 342.28,-160.37"/>
</g>
<!-- Node10&#45;&gt;Node6 -->
<g id="edge10" class="edge">
<title>Node10&#45;&gt;Node6</title>
<path fill="none" stroke="midnightblue" d="M489.84,-106.71C526.08,-83.53 596.61,-38.43 626.07,-19.59"/>
<polygon fill="midnightblue" stroke="midnightblue" points="487.54,-104.03 481,-112.37 491.31,-109.93 487.54,-104.03"/>
</g>
<!-- Node11&#45;&gt;Node6 -->
<g id="edge12" class="edge">
<title>Node11&#45;&gt;Node6</title>
<path fill="none" stroke="midnightblue" d="M268.57,-55.94C397.54,-35.3 538.55,-20.67 603.45,-14.38"/>
<polygon fill="midnightblue" stroke="midnightblue" points="267.83,-52.52 258.52,-57.57 268.95,-59.43 267.83,-52.52"/>
</g>
<!-- Node13&#45;&gt;Node6 -->
<g id="edge16" class="edge">
<title>Node13&#45;&gt;Node6</title>
<path fill="none" stroke="midnightblue" d="M384.57,-54.84C448.98,-43.76 550,-26.39 603.48,-17.19"/>
<polygon fill="midnightblue" stroke="midnightblue" points="383.82,-51.42 374.56,-56.56 385.01,-58.32 383.82,-51.42"/>
</g>
<!-- Node14&#45;&gt;Node6 -->
<g id="edge18" class="edge">
<title>Node14&#45;&gt;Node6</title>
<path fill="none" stroke="midnightblue" d="M347.39,-105.91C365.98,-91.01 396.51,-68.65 426.5,-56 485.52,-31.09 559.76,-19.44 603.2,-14.41"/>
<polygon fill="midnightblue" stroke="midnightblue" points="345.02,-103.32 339.5,-112.37 349.45,-108.74 345.02,-103.32"/>
</g>
<!-- Node14&#45;&gt;Node13 -->
<g id="edge19" class="edge">
<title>Node14&#45;&gt;Node13</title>
<path fill="none" stroke="midnightblue" d="M328.1,-102.1C327.44,-93.14 326.67,-82.86 326.15,-75.75"/>
<polygon fill="midnightblue" stroke="midnightblue" points="324.61,-102.37 328.84,-112.08 331.59,-101.85 324.61,-102.37"/>
</g>
<!-- Node17&#45;&gt;Node6 -->
<g id="edge25" class="edge">
<title>Node17&#45;&gt;Node6</title>
<path fill="none" stroke="midnightblue" d="M620.65,-160.67C626.74,-152.6 633.21,-142.39 636.5,-132 649.24,-91.73 643.82,-40.1 640.91,-19.78"/>
<polygon fill="midnightblue" stroke="midnightblue" points="617.9,-158.5 614.36,-168.48 623.35,-162.89 617.9,-158.5"/>
</g>
<!-- Node19&#45;&gt;Node6 -->
<g id="edge28" class="edge">
<title>Node19&#45;&gt;Node6</title>
<path fill="none" stroke="midnightblue" d="M680.59,-49.25C670.3,-39.67 657.53,-27.79 648.99,-19.83"/>
<polygon fill="midnightblue" stroke="midnightblue" points="678.48,-52.07 688.18,-56.32 683.25,-46.95 678.48,-52.07"/>
</g>
<!-- Node20&#45;&gt;Node6 -->
<g id="edge30" class="edge">
<title>Node20&#45;&gt;Node6</title>
<path fill="none" stroke="midnightblue" d="M2108.21,-223.81C1618.37,-144.09 1494.4,-123.05 1006.5,-56 885.51,-39.37 741.66,-22.61 675.75,-15.09"/>
<polygon fill="midnightblue" stroke="midnightblue" points="2107.95,-227.32 2118.38,-225.47 2109.07,-220.41 2107.95,-227.32"/>
</g>
<!-- Node24&#45;&gt;Node6 -->
<g id="edge37" class="edge">
<title>Node24&#45;&gt;Node6</title>
<path fill="none" stroke="midnightblue" d="M762.56,-158C763,-132.16 760.07,-85.74 736.5,-56 721.51,-37.08 696.73,-25.78 675.97,-19.23"/>
<polygon fill="midnightblue" stroke="midnightblue" points="759.06,-158.18 762.19,-168.3 766.05,-158.43 759.06,-158.18"/>
</g>
<!-- Node27&#45;&gt;Node6 -->
<g id="edge41" class="edge">
<title>Node27&#45;&gt;Node6</title>
<path fill="none" stroke="midnightblue" d="M793.69,-53.7C756.89,-43.51 703.57,-28.74 670.25,-19.52"/>
<polygon fill="midnightblue" stroke="midnightblue" points="793.03,-57.15 803.6,-56.44 794.9,-50.4 793.03,-57.15"/>
</g>
<!-- Node28&#45;&gt;Node6 -->
<g id="edge43" class="edge">
<title>Node28&#45;&gt;Node6</title>
<path fill="none" stroke="midnightblue" d="M916.59,-158.29C919.82,-131.7 921.21,-83.23 894.5,-56 864.59,-25.52 738.61,-15.49 675.64,-12.35"/>
<polygon fill="midnightblue" stroke="midnightblue" points="913.12,-157.82 915.17,-168.21 920.05,-158.81 913.12,-157.82"/>
</g>
</g>
</svg>
