<?xml version="1.0" encoding="UTF-8" standalone="no"?>
<!DOCTYPE svg PUBLIC "-//W3C//DTD SVG 1.1//EN"
 "http://www.w3.org/Graphics/SVG/1.1/DTD/svg11.dtd">
<!-- Generated by graphviz version 2.43.0 (0)
 -->
<!-- Title: lockfile.h Pages: 1 -->
<svg width="835pt" height="274pt"
 viewBox="0.00 0.00 835.33 274.00" xmlns="http://www.w3.org/2000/svg" xmlns:xlink="http://www.w3.org/1999/xlink">
<g id="graph0" class="graph" transform="scale(1 1) rotate(0) translate(4 270)">
<title>lockfile.h</title>
<polygon fill="white" stroke="transparent" points="-4,4 -4,-270 831.33,-270 831.33,4 -4,4"/>
<!-- Node1 -->
<g id="node1" class="node">
<title>Node1</title>
<g id="a_node1"><a xlink:title=" ">
<polygon fill="#bfbfbf" stroke="black" points="162.33,-246.5 162.33,-265.5 223.33,-265.5 223.33,-246.5 162.33,-246.5"/>
<text text-anchor="middle" x="192.83" y="-253.5" font-family="Helvetica,sans-Serif" font-size="10.00">lockfile.h</text>
</a>
</g>
</g>
<!-- Node2 -->
<g id="node2" class="node">
<title>Node2</title>
<g id="a_node2"><a xlink:href="config_8hxx.html" target="_top" xlink:title=" ">
<polygon fill="white" stroke="black" points="88.83,-67.5 88.83,-86.5 204.83,-86.5 204.83,-67.5 88.83,-67.5"/>
<text text-anchor="middle" x="146.83" y="-74.5" font-family="Helvetica,sans-Serif" font-size="10.00">log4cplus/config.hxx</text>
</a>
</g>
</g>
<!-- Node1&#45;&gt;Node2 -->
<g id="edge1" class="edge">
<title>Node1&#45;&gt;Node2</title>
<path fill="none" stroke="midnightblue" d="M162.17,-248.66C118.48,-237.8 39.85,-211.04 5.83,-154 -1.23,-142.17 -2.3,-134.13 5.83,-123 22.7,-99.9 51.57,-88.38 78.8,-82.74"/>
<polygon fill="midnightblue" stroke="midnightblue" points="79.53,-86.16 88.73,-80.92 78.27,-79.28 79.53,-86.16"/>
</g>
<!-- Node5 -->
<g id="node5" class="node">
<title>Node5</title>
<g id="a_node5"><a xlink:href="tstring_8h.html" target="_top" xlink:title=" ">
<polygon fill="white" stroke="black" points="139.33,-190.5 139.33,-209.5 246.33,-209.5 246.33,-190.5 139.33,-190.5"/>
<text text-anchor="middle" x="192.83" y="-197.5" font-family="Helvetica,sans-Serif" font-size="10.00">log4cplus/tstring.h</text>
</a>
</g>
</g>
<!-- Node1&#45;&gt;Node5 -->
<g id="edge4" class="edge">
<title>Node1&#45;&gt;Node5</title>
<path fill="none" stroke="midnightblue" d="M192.83,-246.08C192.83,-239.01 192.83,-228.86 192.83,-219.99"/>
<polygon fill="midnightblue" stroke="midnightblue" points="196.33,-219.75 192.83,-209.75 189.33,-219.75 196.33,-219.75"/>
</g>
<!-- Node12 -->
<g id="node12" class="node">
<title>Node12</title>
<g id="a_node12"><a xlink:href="syncprims_8h.html" target="_top" xlink:title=" ">
<polygon fill="white" stroke="black" points="448.83,-190.5 448.83,-209.5 608.83,-209.5 608.83,-190.5 448.83,-190.5"/>
<text text-anchor="middle" x="528.83" y="-197.5" font-family="Helvetica,sans-Serif" font-size="10.00">log4cplus/thread/syncprims.h</text>
</a>
</g>
</g>
<!-- Node1&#45;&gt;Node12 -->
<g id="edge13" class="edge">
<title>Node1&#45;&gt;Node12</title>
<path fill="none" stroke="midnightblue" d="M223.54,-250.06C278.31,-241.26 393.87,-222.69 466.05,-211.09"/>
<polygon fill="midnightblue" stroke="midnightblue" points="466.62,-214.54 475.94,-209.5 465.51,-207.63 466.62,-214.54"/>
</g>
<!-- Node3 -->
<g id="node3" class="node">
<title>Node3</title>
<g id="a_node3"><a xlink:href="win32_8h.html" target="_top" xlink:title=" ">
<polygon fill="white" stroke="black" points="1.33,-6 1.33,-25 138.33,-25 138.33,-6 1.33,-6"/>
<text text-anchor="middle" x="69.83" y="-13" font-family="Helvetica,sans-Serif" font-size="10.00">log4cplus/config/win32.h</text>
</a>
</g>
</g>
<!-- Node2&#45;&gt;Node3 -->
<g id="edge2" class="edge">
<title>Node2&#45;&gt;Node3</title>
<path fill="none" stroke="midnightblue" d="M135.8,-67.48C123.56,-58.02 103.6,-42.6 88.84,-31.19"/>
<polygon fill="midnightblue" stroke="midnightblue" points="90.89,-28.35 80.84,-25.01 86.61,-33.89 90.89,-28.35"/>
</g>
<!-- Node4 -->
<g id="node4" class="node">
<title>Node4</title>
<g id="a_node4"><a xlink:href="thread-config_8h.html" target="_top" xlink:title=" ">
<polygon fill="white" stroke="black" points="156.33,-0.5 156.33,-30.5 293.33,-30.5 293.33,-0.5 156.33,-0.5"/>
<text text-anchor="start" x="164.33" y="-18.5" font-family="Helvetica,sans-Serif" font-size="10.00">log4cplus/helpers/thread</text>
<text text-anchor="middle" x="224.83" y="-7.5" font-family="Helvetica,sans-Serif" font-size="10.00">&#45;config.h</text>
</a>
</g>
</g>
<!-- Node2&#45;&gt;Node4 -->
<g id="edge3" class="edge">
<title>Node2&#45;&gt;Node4</title>
<path fill="none" stroke="midnightblue" d="M158,-67.48C168.47,-59.49 184.51,-47.25 198.26,-36.77"/>
<polygon fill="midnightblue" stroke="midnightblue" points="200.62,-39.37 206.45,-30.52 196.37,-33.81 200.62,-39.37"/>
</g>
<!-- Node5&#45;&gt;Node2 -->
<g id="edge5" class="edge">
<title>Node5&#45;&gt;Node2</title>
<path fill="none" stroke="midnightblue" d="M138.96,-192.57C92.62,-185.8 30.91,-173.4 15.83,-154 -9.36,-121.61 44.84,-100.47 91,-88.9"/>
<polygon fill="midnightblue" stroke="midnightblue" points="92.08,-92.24 100.99,-86.5 90.45,-85.43 92.08,-92.24"/>
</g>
<!-- Node6 -->
<g id="node6" class="node">
<title>Node6</title>
<g id="a_node6"><a xlink:title=" ">
<polygon fill="white" stroke="#bfbfbf" points="116.33,-129 116.33,-148 185.33,-148 185.33,-129 116.33,-129"/>
<text text-anchor="middle" x="150.83" y="-136" font-family="Helvetica,sans-Serif" font-size="10.00">type_traits</text>
</a>
</g>
</g>
<!-- Node5&#45;&gt;Node6 -->
<g id="edge6" class="edge">
<title>Node5&#45;&gt;Node6</title>
<path fill="none" stroke="midnightblue" d="M186.81,-190.48C180.57,-181.64 170.66,-167.59 162.81,-156.48"/>
<polygon fill="midnightblue" stroke="midnightblue" points="165.46,-154.16 156.83,-148.01 159.74,-158.2 165.46,-154.16"/>
</g>
<!-- Node7 -->
<g id="node7" class="node">
<title>Node7</title>
<g id="a_node7"><a xlink:title=" ">
<polygon fill="white" stroke="#bfbfbf" points="203.33,-129 203.33,-148 268.33,-148 268.33,-129 203.33,-129"/>
<text text-anchor="middle" x="235.83" y="-136" font-family="Helvetica,sans-Serif" font-size="10.00">functional</text>
</a>
</g>
</g>
<!-- Node5&#45;&gt;Node7 -->
<g id="edge7" class="edge">
<title>Node5&#45;&gt;Node7</title>
<path fill="none" stroke="midnightblue" d="M198.99,-190.48C205.44,-181.55 215.73,-167.31 223.8,-156.14"/>
<polygon fill="midnightblue" stroke="midnightblue" points="226.66,-158.16 229.68,-148.01 220.98,-154.06 226.66,-158.16"/>
</g>
<!-- Node8 -->
<g id="node8" class="node">
<title>Node8</title>
<g id="a_node8"><a xlink:title=" ">
<polygon fill="white" stroke="#bfbfbf" points="286.83,-129 286.83,-148 330.83,-148 330.83,-129 286.83,-129"/>
<text text-anchor="middle" x="308.83" y="-136" font-family="Helvetica,sans-Serif" font-size="10.00">string</text>
</a>
</g>
</g>
<!-- Node5&#45;&gt;Node8 -->
<g id="edge8" class="edge">
<title>Node5&#45;&gt;Node8</title>
<path fill="none" stroke="midnightblue" d="M209.45,-190.48C228.74,-180.58 260.79,-164.14 283.26,-152.62"/>
<polygon fill="midnightblue" stroke="midnightblue" points="284.94,-155.69 292.24,-148.01 281.74,-149.46 284.94,-155.69"/>
</g>
<!-- Node9 -->
<g id="node9" class="node">
<title>Node9</title>
<g id="a_node9"><a xlink:title=" ">
<polygon fill="white" stroke="#bfbfbf" points="25.33,-129 25.33,-148 98.33,-148 98.33,-129 25.33,-129"/>
<text text-anchor="middle" x="61.83" y="-136" font-family="Helvetica,sans-Serif" font-size="10.00">string_view</text>
</a>
</g>
</g>
<!-- Node5&#45;&gt;Node9 -->
<g id="edge9" class="edge">
<title>Node5&#45;&gt;Node9</title>
<path fill="none" stroke="midnightblue" d="M174.06,-190.48C151.98,-180.45 115.11,-163.7 89.69,-152.15"/>
<polygon fill="midnightblue" stroke="midnightblue" points="91.11,-148.96 80.56,-148.01 88.22,-155.33 91.11,-148.96"/>
</g>
<!-- Node10 -->
<g id="node10" class="node">
<title>Node10</title>
<g id="a_node10"><a xlink:href="tchar_8h.html" target="_top" xlink:title=" ">
<polygon fill="white" stroke="black" points="349.33,-129 349.33,-148 448.33,-148 448.33,-129 349.33,-129"/>
<text text-anchor="middle" x="398.83" y="-136" font-family="Helvetica,sans-Serif" font-size="10.00">log4cplus/tchar.h</text>
</a>
</g>
</g>
<!-- Node5&#45;&gt;Node10 -->
<g id="edge10" class="edge">
<title>Node5&#45;&gt;Node10</title>
<path fill="none" stroke="midnightblue" d="M222.34,-190.48C258.44,-180.05 319.68,-162.36 359.68,-150.81"/>
<polygon fill="midnightblue" stroke="midnightblue" points="360.73,-154.15 369.37,-148.01 358.79,-147.42 360.73,-154.15"/>
</g>
<!-- Node10&#45;&gt;Node2 -->
<g id="edge11" class="edge">
<title>Node10&#45;&gt;Node2</title>
<path fill="none" stroke="midnightblue" d="M364.53,-129C356.43,-127.01 347.83,-124.92 339.83,-123 290.22,-111.12 233.35,-97.91 194.25,-88.89"/>
<polygon fill="midnightblue" stroke="midnightblue" points="194.75,-85.41 184.22,-86.58 193.18,-92.24 194.75,-85.41"/>
</g>
<!-- Node11 -->
<g id="node11" class="node">
<title>Node11</title>
<g id="a_node11"><a xlink:title=" ">
<polygon fill="white" stroke="#bfbfbf" points="372.33,-67.5 372.33,-86.5 425.33,-86.5 425.33,-67.5 372.33,-67.5"/>
<text text-anchor="middle" x="398.83" y="-74.5" font-family="Helvetica,sans-Serif" font-size="10.00">cstddef</text>
</a>
</g>
</g>
<!-- Node10&#45;&gt;Node11 -->
<g id="edge12" class="edge">
<title>Node10&#45;&gt;Node11</title>
<path fill="none" stroke="midnightblue" d="M398.83,-128.98C398.83,-120.58 398.83,-107.48 398.83,-96.66"/>
<polygon fill="midnightblue" stroke="midnightblue" points="402.33,-96.51 398.83,-86.51 395.33,-96.51 402.33,-96.51"/>
</g>
<!-- Node12&#45;&gt;Node2 -->
<g id="edge14" class="edge">
<title>Node12&#45;&gt;Node2</title>
<path fill="none" stroke="midnightblue" d="M523.39,-190.14C512.82,-173.78 487.81,-139.06 456.83,-123 415.94,-101.8 293.43,-88.95 215.22,-82.69"/>
<polygon fill="midnightblue" stroke="midnightblue" points="215.21,-79.18 204.96,-81.88 214.66,-86.15 215.21,-79.18"/>
</g>
<!-- Node13 -->
<g id="node13" class="node">
<title>Node13</title>
<g id="a_node13"><a xlink:title=" ">
<polygon fill="white" stroke="#bfbfbf" points="504.83,-129 504.83,-148 552.83,-148 552.83,-129 504.83,-129"/>
<text text-anchor="middle" x="528.83" y="-136" font-family="Helvetica,sans-Serif" font-size="10.00">mutex</text>
</a>
</g>
</g>
<!-- Node12&#45;&gt;Node13 -->
<g id="edge15" class="edge">
<title>Node12&#45;&gt;Node13</title>
<path fill="none" stroke="midnightblue" d="M528.83,-190.48C528.83,-182.08 528.83,-168.98 528.83,-158.16"/>
<polygon fill="midnightblue" stroke="midnightblue" points="532.33,-158.01 528.83,-148.01 525.33,-158.01 532.33,-158.01"/>
</g>
<!-- Node14 -->
<g id="node14" class="node">
<title>Node14</title>
<g id="a_node14"><a xlink:title=" ">
<polygon fill="white" stroke="#bfbfbf" points="571.33,-129 571.33,-148 678.33,-148 678.33,-129 571.33,-129"/>
<text text-anchor="middle" x="624.83" y="-136" font-family="Helvetica,sans-Serif" font-size="10.00">condition_variable</text>
</a>
</g>
</g>
<!-- Node12&#45;&gt;Node14 -->
<g id="edge16" class="edge">
<title>Node12&#45;&gt;Node14</title>
<path fill="none" stroke="midnightblue" d="M542.58,-190.48C558.19,-180.8 583.89,-164.87 602.41,-153.39"/>
<polygon fill="midnightblue" stroke="midnightblue" points="604.44,-156.25 611.1,-148.01 600.76,-150.3 604.44,-156.25"/>
</g>
<!-- Node15 -->
<g id="node15" class="node">
<title>Node15</title>
<g id="a_node15"><a xlink:href="threadsafetyanalysis_8h.html" target="_top" xlink:title=" ">
<polygon fill="white" stroke="black" points="696.33,-123.5 696.33,-153.5 827.33,-153.5 827.33,-123.5 696.33,-123.5"/>
<text text-anchor="start" x="704.33" y="-141.5" font-family="Helvetica,sans-Serif" font-size="10.00">log4cplus/internal</text>
<text text-anchor="middle" x="761.83" y="-130.5" font-family="Helvetica,sans-Serif" font-size="10.00">/threadsafetyanalysis.h</text>
</a>
</g>
</g>
<!-- Node12&#45;&gt;Node15 -->
<g id="edge17" class="edge">
<title>Node12&#45;&gt;Node15</title>
<path fill="none" stroke="midnightblue" d="M562.21,-190.48C597.31,-181.51 653.4,-167.19 697.2,-156"/>
<polygon fill="midnightblue" stroke="midnightblue" points="698.09,-159.39 706.91,-153.52 696.36,-152.61 698.09,-159.39"/>
</g>
</g>
</svg>
