<?xml version="1.0" encoding="UTF-8" standalone="no"?>
<!DOCTYPE svg PUBLIC "-//W3C//DTD SVG 1.1//EN"
 "http://www.w3.org/Graphics/SVG/1.1/DTD/svg11.dtd">
<!-- Generated by graphviz version 2.43.0 (0)
 -->
<!-- Title: log4judpappender.h Pages: 1 -->
<svg width="1637pt" height="442pt"
 viewBox="0.00 0.00 1636.50 442.00" xmlns="http://www.w3.org/2000/svg" xmlns:xlink="http://www.w3.org/1999/xlink">
<g id="graph0" class="graph" transform="scale(1 1) rotate(0) translate(4 438)">
<title>log4judpappender.h</title>
<polygon fill="white" stroke="transparent" points="-4,4 -4,-438 1632.5,-438 1632.5,4 -4,4"/>
<!-- Node1 -->
<g id="node1" class="node">
<title>Node1</title>
<g id="a_node1"><a xlink:title=" ">
<polygon fill="#bfbfbf" stroke="black" points="229.5,-414.5 229.5,-433.5 342.5,-433.5 342.5,-414.5 229.5,-414.5"/>
<text text-anchor="middle" x="286" y="-421.5" font-family="Helvetica,sans-Serif" font-size="10.00">log4judpappender.h</text>
</a>
</g>
</g>
<!-- Node2 -->
<g id="node2" class="node">
<title>Node2</title>
<g id="a_node2"><a xlink:href="config_8hxx.html" target="_top" xlink:title=" ">
<polygon fill="white" stroke="black" points="705,-73 705,-92 821,-92 821,-73 705,-73"/>
<text text-anchor="middle" x="763" y="-80" font-family="Helvetica,sans-Serif" font-size="10.00">log4cplus/config.hxx</text>
</a>
</g>
</g>
<!-- Node1&#45;&gt;Node2 -->
<g id="edge1" class="edge">
<title>Node1&#45;&gt;Node2</title>
<path fill="none" stroke="midnightblue" d="M236.51,-414.49C154.65,-398.99 0,-363.07 0,-313 0,-313 0,-313 0,-199 0,-119.77 88.83,-151.97 166,-134 264.86,-110.98 559.96,-93.71 694.63,-86.8"/>
<polygon fill="midnightblue" stroke="midnightblue" points="695.02,-90.28 704.82,-86.28 694.66,-83.29 695.02,-90.28"/>
</g>
<!-- Node5 -->
<g id="node5" class="node">
<title>Node5</title>
<g id="a_node5"><a xlink:href="appender_8h.html" target="_top" xlink:title=" ">
<polygon fill="white" stroke="black" points="1051,-358.5 1051,-377.5 1171,-377.5 1171,-358.5 1051,-358.5"/>
<text text-anchor="middle" x="1111" y="-365.5" font-family="Helvetica,sans-Serif" font-size="10.00">log4cplus/appender.h</text>
</a>
</g>
</g>
<!-- Node1&#45;&gt;Node5 -->
<g id="edge4" class="edge">
<title>Node1&#45;&gt;Node5</title>
<path fill="none" stroke="midnightblue" d="M342.71,-419.29C489.2,-409.7 880.02,-384.12 1040.61,-373.61"/>
<polygon fill="midnightblue" stroke="midnightblue" points="1041.1,-377.08 1050.85,-372.94 1040.64,-370.1 1041.1,-377.08"/>
</g>
<!-- Node33 -->
<g id="node33" class="node">
<title>Node33</title>
<g id="a_node33"><a xlink:href="helpers_2socket_8h.html" target="_top" xlink:title=" ">
<polygon fill="white" stroke="black" points="213,-302.5 213,-321.5 359,-321.5 359,-302.5 213,-302.5"/>
<text text-anchor="middle" x="286" y="-309.5" font-family="Helvetica,sans-Serif" font-size="10.00">log4cplus/helpers/socket.h</text>
</a>
</g>
</g>
<!-- Node1&#45;&gt;Node33 -->
<g id="edge60" class="edge">
<title>Node1&#45;&gt;Node33</title>
<path fill="none" stroke="midnightblue" d="M286,-414.37C286,-396.62 286,-355.67 286,-331.6"/>
<polygon fill="midnightblue" stroke="midnightblue" points="289.5,-331.59 286,-321.59 282.5,-331.59 289.5,-331.59"/>
</g>
<!-- Node3 -->
<g id="node3" class="node">
<title>Node3</title>
<g id="a_node3"><a xlink:href="win32_8h.html" target="_top" xlink:title=" ">
<polygon fill="white" stroke="black" points="617.5,-6 617.5,-25 754.5,-25 754.5,-6 617.5,-6"/>
<text text-anchor="middle" x="686" y="-13" font-family="Helvetica,sans-Serif" font-size="10.00">log4cplus/config/win32.h</text>
</a>
</g>
</g>
<!-- Node2&#45;&gt;Node3 -->
<g id="edge2" class="edge">
<title>Node2&#45;&gt;Node3</title>
<path fill="none" stroke="midnightblue" d="M752.62,-72.73C740.15,-62.21 719.03,-44.38 703.91,-31.62"/>
<polygon fill="midnightblue" stroke="midnightblue" points="706.12,-28.9 696.22,-25.13 701.6,-34.25 706.12,-28.9"/>
</g>
<!-- Node4 -->
<g id="node4" class="node">
<title>Node4</title>
<g id="a_node4"><a xlink:href="thread-config_8h.html" target="_top" xlink:title=" ">
<polygon fill="white" stroke="black" points="772.5,-0.5 772.5,-30.5 909.5,-30.5 909.5,-0.5 772.5,-0.5"/>
<text text-anchor="start" x="780.5" y="-18.5" font-family="Helvetica,sans-Serif" font-size="10.00">log4cplus/helpers/thread</text>
<text text-anchor="middle" x="841" y="-7.5" font-family="Helvetica,sans-Serif" font-size="10.00">&#45;config.h</text>
</a>
</g>
</g>
<!-- Node2&#45;&gt;Node4 -->
<g id="edge3" class="edge">
<title>Node2&#45;&gt;Node4</title>
<path fill="none" stroke="midnightblue" d="M773.52,-72.73C784.36,-63.7 801.67,-49.27 816.04,-37.3"/>
<polygon fill="midnightblue" stroke="midnightblue" points="818.65,-39.68 824.09,-30.59 814.17,-34.3 818.65,-39.68"/>
</g>
<!-- Node5&#45;&gt;Node2 -->
<g id="edge5" class="edge">
<title>Node5&#45;&gt;Node2</title>
<path fill="none" stroke="midnightblue" d="M1156.19,-358.5C1207.15,-345.99 1283,-317.26 1283,-257 1283,-257 1283,-257 1283,-199 1283,-165.54 1273.12,-152.14 1245,-134 1178.26,-90.93 947.8,-83.92 831.4,-83.21"/>
<polygon fill="midnightblue" stroke="midnightblue" points="831.2,-79.71 821.18,-83.16 831.17,-86.71 831.2,-79.71"/>
</g>
<!-- Node6 -->
<g id="node6" class="node">
<title>Node6</title>
<g id="a_node6"><a xlink:href="layout_8h.html" target="_top" xlink:title=" ">
<polygon fill="white" stroke="black" points="730,-302.5 730,-321.5 836,-321.5 836,-302.5 730,-302.5"/>
<text text-anchor="middle" x="783" y="-309.5" font-family="Helvetica,sans-Serif" font-size="10.00">log4cplus/layout.h</text>
</a>
</g>
</g>
<!-- Node5&#45;&gt;Node6 -->
<g id="edge6" class="edge">
<title>Node5&#45;&gt;Node6</title>
<path fill="none" stroke="midnightblue" d="M1059.03,-358.44C1000.85,-348.87 906.64,-333.36 844.75,-323.17"/>
<polygon fill="midnightblue" stroke="midnightblue" points="845.17,-319.69 834.73,-321.52 844.03,-326.59 845.17,-319.69"/>
</g>
<!-- Node7 -->
<g id="node7" class="node">
<title>Node7</title>
<g id="a_node7"><a xlink:href="loglevel_8h.html" target="_top" xlink:title="This header defines the LogLevel type.">
<polygon fill="white" stroke="black" points="766,-246.5 766,-265.5 880,-265.5 880,-246.5 766,-246.5"/>
<text text-anchor="middle" x="823" y="-253.5" font-family="Helvetica,sans-Serif" font-size="10.00">log4cplus/loglevel.h</text>
</a>
</g>
</g>
<!-- Node5&#45;&gt;Node7 -->
<g id="edge44" class="edge">
<title>Node5&#45;&gt;Node7</title>
<path fill="none" stroke="midnightblue" d="M1080.97,-358.44C1052.21,-349.99 1007.72,-336.31 970,-322 927.34,-305.81 879.2,-283.79 849.99,-269.98"/>
<polygon fill="midnightblue" stroke="midnightblue" points="851.38,-266.77 840.84,-265.64 848.38,-273.09 851.38,-266.77"/>
</g>
<!-- Node9 -->
<g id="node9" class="node">
<title>Node9</title>
<g id="a_node9"><a xlink:title=" ">
<polygon fill="white" stroke="#bfbfbf" points="879,-190.5 879,-209.5 937,-209.5 937,-190.5 879,-190.5"/>
<text text-anchor="middle" x="908" y="-197.5" font-family="Helvetica,sans-Serif" font-size="10.00">memory</text>
</a>
</g>
</g>
<!-- Node5&#45;&gt;Node9 -->
<g id="edge56" class="edge">
<title>Node5&#45;&gt;Node9</title>
<path fill="none" stroke="midnightblue" d="M1079,-358.41C1056.25,-351.22 1025.8,-339.33 1003,-322 964.52,-292.75 932.97,-244.38 917.78,-218.55"/>
<polygon fill="midnightblue" stroke="midnightblue" points="920.63,-216.48 912.62,-209.55 914.56,-219.96 920.63,-216.48"/>
</g>
<!-- Node11 -->
<g id="node11" class="node">
<title>Node11</title>
<g id="a_node11"><a xlink:href="tstring_8h.html" target="_top" xlink:title=" ">
<polygon fill="white" stroke="black" points="546.5,-190.5 546.5,-209.5 653.5,-209.5 653.5,-190.5 546.5,-190.5"/>
<text text-anchor="middle" x="600" y="-197.5" font-family="Helvetica,sans-Serif" font-size="10.00">log4cplus/tstring.h</text>
</a>
</g>
</g>
<!-- Node5&#45;&gt;Node11 -->
<g id="edge45" class="edge">
<title>Node5&#45;&gt;Node11</title>
<path fill="none" stroke="midnightblue" d="M1050.74,-364.87C956.16,-360.72 777.77,-349.43 721,-322 671.47,-298.07 630.29,-245.45 611.29,-218.17"/>
<polygon fill="midnightblue" stroke="midnightblue" points="614.03,-215.97 605.52,-209.66 608.24,-219.9 614.03,-215.97"/>
</g>
<!-- Node18 -->
<g id="node18" class="node">
<title>Node18</title>
<g id="a_node18"><a xlink:href="pointer_8h.html" target="_top" xlink:title=" ">
<polygon fill="white" stroke="black" points="1031,-190.5 1031,-209.5 1179,-209.5 1179,-190.5 1031,-190.5"/>
<text text-anchor="middle" x="1105" y="-197.5" font-family="Helvetica,sans-Serif" font-size="10.00">log4cplus/helpers/pointer.h</text>
</a>
</g>
</g>
<!-- Node5&#45;&gt;Node18 -->
<g id="edge46" class="edge">
<title>Node5&#45;&gt;Node18</title>
<path fill="none" stroke="midnightblue" d="M1117.37,-358.23C1123.26,-349.53 1131.61,-335.57 1135,-322 1144.19,-285.24 1126.78,-242.16 1114.85,-218.6"/>
<polygon fill="midnightblue" stroke="midnightblue" points="1117.8,-216.7 1110.02,-209.51 1111.62,-219.98 1117.8,-216.7"/>
</g>
<!-- Node20 -->
<g id="node20" class="node">
<title>Node20</title>
<g id="a_node20"><a xlink:title=" ">
<polygon fill="white" stroke="#bfbfbf" points="1455,-73 1455,-92 1503,-92 1503,-73 1455,-73"/>
<text text-anchor="middle" x="1479" y="-80" font-family="Helvetica,sans-Serif" font-size="10.00">mutex</text>
</a>
</g>
</g>
<!-- Node5&#45;&gt;Node20 -->
<g id="edge57" class="edge">
<title>Node5&#45;&gt;Node20</title>
<path fill="none" stroke="midnightblue" d="M1171.13,-363.98C1288.56,-356.44 1537,-331.67 1537,-257 1537,-257 1537,-257 1537,-199 1537,-168.9 1531.66,-160.82 1518,-134 1511.69,-121.61 1502.19,-109.22 1494.14,-99.82"/>
<polygon fill="midnightblue" stroke="midnightblue" points="1496.55,-97.26 1487.3,-92.11 1491.32,-101.91 1496.55,-97.26"/>
</g>
<!-- Node21 -->
<g id="node21" class="node">
<title>Node21</title>
<g id="a_node21"><a xlink:title=" ">
<polygon fill="white" stroke="#bfbfbf" points="1521.5,-73 1521.5,-92 1628.5,-92 1628.5,-73 1521.5,-73"/>
<text text-anchor="middle" x="1575" y="-80" font-family="Helvetica,sans-Serif" font-size="10.00">condition_variable</text>
</a>
</g>
</g>
<!-- Node5&#45;&gt;Node21 -->
<g id="edge59" class="edge">
<title>Node5&#45;&gt;Node21</title>
<path fill="none" stroke="midnightblue" d="M1171.18,-365.26C1296.73,-359.99 1575,-339.06 1575,-257 1575,-257 1575,-257 1575,-199 1575,-164.86 1575,-125.05 1575,-102.21"/>
<polygon fill="midnightblue" stroke="midnightblue" points="1578.5,-102.19 1575,-92.19 1571.5,-102.19 1578.5,-102.19"/>
</g>
<!-- Node25 -->
<g id="node25" class="node">
<title>Node25</title>
<g id="a_node25"><a xlink:title=" ">
<polygon fill="white" stroke="#bfbfbf" points="1167,-134.5 1167,-153.5 1217,-153.5 1217,-134.5 1167,-134.5"/>
<text text-anchor="middle" x="1192" y="-141.5" font-family="Helvetica,sans-Serif" font-size="10.00">atomic</text>
</a>
</g>
</g>
<!-- Node5&#45;&gt;Node25 -->
<g id="edge58" class="edge">
<title>Node5&#45;&gt;Node25</title>
<path fill="none" stroke="midnightblue" d="M1120.2,-358.5C1128.92,-349.99 1141.88,-336.17 1150,-322 1176.15,-276.4 1177.85,-261.58 1188,-210 1191.04,-194.56 1191.96,-176.69 1192.16,-163.6"/>
<polygon fill="midnightblue" stroke="midnightblue" points="1195.66,-163.52 1192.19,-153.51 1188.66,-163.49 1195.66,-163.52"/>
</g>
<!-- Node31 -->
<g id="node31" class="node">
<title>Node31</title>
<g id="a_node31"><a xlink:href="filter_8h.html" target="_top" xlink:title="This header defines Filter and all of it&#39;s subclasses.">
<polygon fill="white" stroke="black" points="1012,-302.5 1012,-321.5 1126,-321.5 1126,-302.5 1012,-302.5"/>
<text text-anchor="middle" x="1069" y="-309.5" font-family="Helvetica,sans-Serif" font-size="10.00">log4cplus/spi/filter.h</text>
</a>
</g>
</g>
<!-- Node5&#45;&gt;Node31 -->
<g id="edge47" class="edge">
<title>Node5&#45;&gt;Node31</title>
<path fill="none" stroke="midnightblue" d="M1104.06,-358.08C1098.07,-350.38 1089.25,-339.03 1081.95,-329.65"/>
<polygon fill="midnightblue" stroke="midnightblue" points="1084.71,-327.5 1075.81,-321.75 1079.18,-331.79 1084.71,-327.5"/>
</g>
<!-- Node32 -->
<g id="node32" class="node">
<title>Node32</title>
<g id="a_node32"><a xlink:href="lockfile_8h.html" target="_top" xlink:title=" ">
<polygon fill="white" stroke="black" points="1310.5,-246.5 1310.5,-265.5 1459.5,-265.5 1459.5,-246.5 1310.5,-246.5"/>
<text text-anchor="middle" x="1385" y="-253.5" font-family="Helvetica,sans-Serif" font-size="10.00">log4cplus/helpers/lockfile.h</text>
</a>
</g>
</g>
<!-- Node5&#45;&gt;Node32 -->
<g id="edge52" class="edge">
<title>Node5&#45;&gt;Node32</title>
<path fill="none" stroke="midnightblue" d="M1171.25,-358.69C1208.69,-352.02 1257.11,-340.62 1297,-322 1324.26,-309.27 1351.47,-287.41 1368.26,-272.59"/>
<polygon fill="midnightblue" stroke="midnightblue" points="1370.96,-274.87 1376.04,-265.57 1366.27,-269.68 1370.96,-274.87"/>
</g>
<!-- Node6&#45;&gt;Node2 -->
<g id="edge7" class="edge">
<title>Node6&#45;&gt;Node2</title>
<path fill="none" stroke="midnightblue" d="M826.53,-302.47C852.2,-295.79 884.22,-284.46 908,-266 937.83,-242.84 951.24,-227.4 946,-190 942.41,-164.37 948.16,-152.44 930,-134 904.19,-107.79 865.29,-95.08 831.52,-88.97"/>
<polygon fill="midnightblue" stroke="midnightblue" points="831.67,-85.44 821.23,-87.27 830.53,-92.35 831.67,-85.44"/>
</g>
<!-- Node6&#45;&gt;Node7 -->
<g id="edge8" class="edge">
<title>Node6&#45;&gt;Node7</title>
<path fill="none" stroke="midnightblue" d="M789.61,-302.08C795.26,-294.46 803.54,-283.26 810.45,-273.94"/>
<polygon fill="midnightblue" stroke="midnightblue" points="813.38,-275.87 816.52,-265.75 807.75,-271.7 813.38,-275.87"/>
</g>
<!-- Node8 -->
<g id="node8" class="node">
<title>Node8</title>
<g id="a_node8"><a xlink:title=" ">
<polygon fill="white" stroke="#bfbfbf" points="671.5,-190.5 671.5,-209.5 718.5,-209.5 718.5,-190.5 671.5,-190.5"/>
<text text-anchor="middle" x="695" y="-197.5" font-family="Helvetica,sans-Serif" font-size="10.00">vector</text>
</a>
</g>
</g>
<!-- Node6&#45;&gt;Node8 -->
<g id="edge42" class="edge">
<title>Node6&#45;&gt;Node8</title>
<path fill="none" stroke="midnightblue" d="M776.09,-302.37C761.51,-284.14 727.34,-241.43 708.34,-217.68"/>
<polygon fill="midnightblue" stroke="midnightblue" points="710.85,-215.21 701.87,-209.59 705.39,-219.59 710.85,-215.21"/>
</g>
<!-- Node6&#45;&gt;Node9 -->
<g id="edge43" class="edge">
<title>Node6&#45;&gt;Node9</title>
<path fill="none" stroke="midnightblue" d="M824.55,-302.46C846.53,-295.93 872.33,-284.75 889,-266 900.34,-253.24 904.93,-234.05 906.78,-219.82"/>
<polygon fill="midnightblue" stroke="midnightblue" points="910.28,-219.98 907.75,-209.7 903.31,-219.32 910.28,-219.98"/>
</g>
<!-- Node6&#45;&gt;Node11 -->
<g id="edge36" class="edge">
<title>Node6&#45;&gt;Node11</title>
<path fill="none" stroke="midnightblue" d="M768.84,-302.33C748.38,-289.82 709.37,-266.01 676,-246 658.36,-235.42 638.34,-223.57 623.27,-214.69"/>
<polygon fill="midnightblue" stroke="midnightblue" points="624.99,-211.64 614.6,-209.58 621.44,-217.67 624.99,-211.64"/>
</g>
<!-- Node26 -->
<g id="node26" class="node">
<title>Node26</title>
<g id="a_node26"><a xlink:href="streams_8h.html" target="_top" xlink:title=" ">
<polygon fill="white" stroke="black" points="239.5,-190.5 239.5,-209.5 354.5,-209.5 354.5,-190.5 239.5,-190.5"/>
<text text-anchor="middle" x="297" y="-197.5" font-family="Helvetica,sans-Serif" font-size="10.00">log4cplus/streams.h</text>
</a>
</g>
</g>
<!-- Node6&#45;&gt;Node26 -->
<g id="edge32" class="edge">
<title>Node6&#45;&gt;Node26</title>
<path fill="none" stroke="midnightblue" d="M729.89,-310.33C658.2,-308.1 527.2,-299.33 421,-266 402.79,-260.29 399.9,-254.87 383,-246 362.79,-235.4 339.9,-223.42 322.82,-214.49"/>
<polygon fill="midnightblue" stroke="midnightblue" points="323.98,-211.15 313.49,-209.62 320.73,-217.35 323.98,-211.15"/>
</g>
<!-- Node28 -->
<g id="node28" class="node">
<title>Node28</title>
<g id="a_node28"><a xlink:href="timehelper_8h.html" target="_top" xlink:title=" ">
<polygon fill="white" stroke="black" points="429.5,-246.5 429.5,-265.5 596.5,-265.5 596.5,-246.5 429.5,-246.5"/>
<text text-anchor="middle" x="513" y="-253.5" font-family="Helvetica,sans-Serif" font-size="10.00">log4cplus/helpers/timehelper.h</text>
</a>
</g>
</g>
<!-- Node6&#45;&gt;Node28 -->
<g id="edge37" class="edge">
<title>Node6&#45;&gt;Node28</title>
<path fill="none" stroke="midnightblue" d="M740.22,-302.44C692.82,-292.96 616.37,-277.67 565.42,-267.48"/>
<polygon fill="midnightblue" stroke="midnightblue" points="566.07,-264.05 555.58,-265.52 564.7,-270.91 566.07,-264.05"/>
</g>
<!-- Node7&#45;&gt;Node2 -->
<g id="edge9" class="edge">
<title>Node7&#45;&gt;Node2</title>
<path fill="none" stroke="midnightblue" d="M804.92,-246.39C791.44,-238.87 774.03,-226.57 766,-210 762.12,-202 762.33,-198.1 766,-190 776,-167.91 797,-176.09 807,-154 810.67,-145.9 810.12,-142.32 807,-134 801.9,-120.39 791.29,-108.03 781.77,-98.94"/>
<polygon fill="midnightblue" stroke="midnightblue" points="783.95,-96.2 774.17,-92.13 779.28,-101.41 783.95,-96.2"/>
</g>
<!-- Node7&#45;&gt;Node8 -->
<g id="edge10" class="edge">
<title>Node7&#45;&gt;Node8</title>
<path fill="none" stroke="midnightblue" d="M802.72,-246.44C781.65,-237.56 748.48,-223.56 724.51,-213.45"/>
<polygon fill="midnightblue" stroke="midnightblue" points="725.76,-210.18 715.19,-209.52 723.04,-216.63 725.76,-210.18"/>
</g>
<!-- Node7&#45;&gt;Node9 -->
<g id="edge11" class="edge">
<title>Node7&#45;&gt;Node9</title>
<path fill="none" stroke="midnightblue" d="M836.66,-246.32C849.92,-237.9 870.27,-224.97 885.85,-215.07"/>
<polygon fill="midnightblue" stroke="midnightblue" points="887.81,-217.97 894.38,-209.65 884.06,-212.06 887.81,-217.97"/>
</g>
<!-- Node10 -->
<g id="node10" class="node">
<title>Node10</title>
<g id="a_node10"><a xlink:title=" ">
<polygon fill="white" stroke="#bfbfbf" points="775,-190.5 775,-209.5 861,-209.5 861,-190.5 775,-190.5"/>
<text text-anchor="middle" x="818" y="-197.5" font-family="Helvetica,sans-Serif" font-size="10.00">shared_mutex</text>
</a>
</g>
</g>
<!-- Node7&#45;&gt;Node10 -->
<g id="edge12" class="edge">
<title>Node7&#45;&gt;Node10</title>
<path fill="none" stroke="midnightblue" d="M822.17,-246.08C821.52,-239.01 820.58,-228.86 819.76,-219.99"/>
<polygon fill="midnightblue" stroke="midnightblue" points="823.22,-219.39 818.81,-209.75 816.25,-220.03 823.22,-219.39"/>
</g>
<!-- Node7&#45;&gt;Node11 -->
<g id="edge13" class="edge">
<title>Node7&#45;&gt;Node11</title>
<path fill="none" stroke="midnightblue" d="M787.66,-246.44C749.09,-237.1 687.22,-222.12 645.15,-211.93"/>
<polygon fill="midnightblue" stroke="midnightblue" points="645.71,-208.47 635.17,-209.52 644.07,-215.27 645.71,-208.47"/>
</g>
<!-- Node7&#45;&gt;Node18 -->
<g id="edge22" class="edge">
<title>Node7&#45;&gt;Node18</title>
<path fill="none" stroke="midnightblue" d="M867.68,-246.44C917.29,-236.94 997.36,-221.61 1050.59,-211.42"/>
<polygon fill="midnightblue" stroke="midnightblue" points="1051.36,-214.83 1060.53,-209.52 1050.05,-207.96 1051.36,-214.83"/>
</g>
<!-- Node11&#45;&gt;Node2 -->
<g id="edge14" class="edge">
<title>Node11&#45;&gt;Node2</title>
<path fill="none" stroke="midnightblue" d="M617.68,-190.49C634.51,-182.09 660.28,-168.44 681,-154 705.13,-137.18 730.44,-114.54 746.45,-99.5"/>
<polygon fill="midnightblue" stroke="midnightblue" points="749.08,-101.83 753.92,-92.41 744.26,-96.76 749.08,-101.83"/>
</g>
<!-- Node12 -->
<g id="node12" class="node">
<title>Node12</title>
<g id="a_node12"><a xlink:title=" ">
<polygon fill="white" stroke="#bfbfbf" points="728.5,-134.5 728.5,-153.5 797.5,-153.5 797.5,-134.5 728.5,-134.5"/>
<text text-anchor="middle" x="763" y="-141.5" font-family="Helvetica,sans-Serif" font-size="10.00">type_traits</text>
</a>
</g>
</g>
<!-- Node11&#45;&gt;Node12 -->
<g id="edge15" class="edge">
<title>Node11&#45;&gt;Node12</title>
<path fill="none" stroke="midnightblue" d="M625.83,-190.44C653.25,-181.36 696.78,-166.94 727.43,-156.78"/>
<polygon fill="midnightblue" stroke="midnightblue" points="728.9,-159.98 737.29,-153.52 726.7,-153.34 728.9,-159.98"/>
</g>
<!-- Node13 -->
<g id="node13" class="node">
<title>Node13</title>
<g id="a_node13"><a xlink:title=" ">
<polygon fill="white" stroke="#bfbfbf" points="855.5,-134.5 855.5,-153.5 920.5,-153.5 920.5,-134.5 855.5,-134.5"/>
<text text-anchor="middle" x="888" y="-141.5" font-family="Helvetica,sans-Serif" font-size="10.00">functional</text>
</a>
</g>
</g>
<!-- Node11&#45;&gt;Node13 -->
<g id="edge16" class="edge">
<title>Node11&#45;&gt;Node13</title>
<path fill="none" stroke="midnightblue" d="M645.63,-190.44C700.47,-180.16 791.76,-163.05 845.27,-153.01"/>
<polygon fill="midnightblue" stroke="midnightblue" points="845.94,-156.45 855.12,-151.16 844.65,-149.57 845.94,-156.45"/>
</g>
<!-- Node14 -->
<g id="node14" class="node">
<title>Node14</title>
<g id="a_node14"><a xlink:title=" ">
<polygon fill="white" stroke="#bfbfbf" points="536,-134.5 536,-153.5 580,-153.5 580,-134.5 536,-134.5"/>
<text text-anchor="middle" x="558" y="-141.5" font-family="Helvetica,sans-Serif" font-size="10.00">string</text>
</a>
</g>
</g>
<!-- Node11&#45;&gt;Node14 -->
<g id="edge17" class="edge">
<title>Node11&#45;&gt;Node14</title>
<path fill="none" stroke="midnightblue" d="M593.06,-190.08C587.07,-182.38 578.25,-171.03 570.95,-161.65"/>
<polygon fill="midnightblue" stroke="midnightblue" points="573.71,-159.5 564.81,-153.75 568.18,-163.79 573.71,-159.5"/>
</g>
<!-- Node15 -->
<g id="node15" class="node">
<title>Node15</title>
<g id="a_node15"><a xlink:title=" ">
<polygon fill="white" stroke="#bfbfbf" points="598.5,-134.5 598.5,-153.5 671.5,-153.5 671.5,-134.5 598.5,-134.5"/>
<text text-anchor="middle" x="635" y="-141.5" font-family="Helvetica,sans-Serif" font-size="10.00">string_view</text>
</a>
</g>
</g>
<!-- Node11&#45;&gt;Node15 -->
<g id="edge18" class="edge">
<title>Node11&#45;&gt;Node15</title>
<path fill="none" stroke="midnightblue" d="M605.78,-190.08C610.67,-182.53 617.83,-171.49 623.83,-162.23"/>
<polygon fill="midnightblue" stroke="midnightblue" points="626.83,-164.05 629.33,-153.75 620.95,-160.24 626.83,-164.05"/>
</g>
<!-- Node16 -->
<g id="node16" class="node">
<title>Node16</title>
<g id="a_node16"><a xlink:href="tchar_8h.html" target="_top" xlink:title=" ">
<polygon fill="white" stroke="black" points="380.5,-134.5 380.5,-153.5 479.5,-153.5 479.5,-134.5 380.5,-134.5"/>
<text text-anchor="middle" x="430" y="-141.5" font-family="Helvetica,sans-Serif" font-size="10.00">log4cplus/tchar.h</text>
</a>
</g>
</g>
<!-- Node11&#45;&gt;Node16 -->
<g id="edge19" class="edge">
<title>Node11&#45;&gt;Node16</title>
<path fill="none" stroke="midnightblue" d="M573.06,-190.44C544.34,-181.32 498.67,-166.81 466.68,-156.65"/>
<polygon fill="midnightblue" stroke="midnightblue" points="467.4,-153.21 456.81,-153.52 465.28,-159.88 467.4,-153.21"/>
</g>
<!-- Node16&#45;&gt;Node2 -->
<g id="edge20" class="edge">
<title>Node16&#45;&gt;Node2</title>
<path fill="none" stroke="midnightblue" d="M477.71,-134.48C537.8,-123.74 640.96,-105.31 705.38,-93.79"/>
<polygon fill="midnightblue" stroke="midnightblue" points="706.15,-97.21 715.38,-92.01 704.92,-90.32 706.15,-97.21"/>
</g>
<!-- Node17 -->
<g id="node17" class="node">
<title>Node17</title>
<g id="a_node17"><a xlink:title=" ">
<polygon fill="white" stroke="#bfbfbf" points="403.5,-73 403.5,-92 456.5,-92 456.5,-73 403.5,-73"/>
<text text-anchor="middle" x="430" y="-80" font-family="Helvetica,sans-Serif" font-size="10.00">cstddef</text>
</a>
</g>
</g>
<!-- Node16&#45;&gt;Node17 -->
<g id="edge21" class="edge">
<title>Node16&#45;&gt;Node17</title>
<path fill="none" stroke="midnightblue" d="M430,-134.48C430,-126.08 430,-112.98 430,-102.16"/>
<polygon fill="midnightblue" stroke="midnightblue" points="433.5,-102.01 430,-92.01 426.5,-102.01 433.5,-102.01"/>
</g>
<!-- Node18&#45;&gt;Node2 -->
<g id="edge23" class="edge">
<title>Node18&#45;&gt;Node2</title>
<path fill="none" stroke="midnightblue" d="M1098.72,-190.18C1088.02,-175.87 1064.79,-147.81 1038,-134 972.98,-100.48 889.21,-88.93 831.3,-85.09"/>
<polygon fill="midnightblue" stroke="midnightblue" points="831.35,-81.59 821.16,-84.48 830.93,-88.58 831.35,-81.59"/>
</g>
<!-- Node19 -->
<g id="node19" class="node">
<title>Node19</title>
<g id="a_node19"><a xlink:href="syncprims_8h.html" target="_top" xlink:title=" ">
<polygon fill="white" stroke="black" points="1349,-134.5 1349,-153.5 1509,-153.5 1509,-134.5 1349,-134.5"/>
<text text-anchor="middle" x="1429" y="-141.5" font-family="Helvetica,sans-Serif" font-size="10.00">log4cplus/thread/syncprims.h</text>
</a>
</g>
</g>
<!-- Node18&#45;&gt;Node19 -->
<g id="edge24" class="edge">
<title>Node18&#45;&gt;Node19</title>
<path fill="none" stroke="midnightblue" d="M1156.34,-190.44C1213.81,-180.87 1306.87,-165.36 1368,-155.17"/>
<polygon fill="midnightblue" stroke="midnightblue" points="1368.61,-158.61 1377.9,-153.52 1367.46,-151.71 1368.61,-158.61"/>
</g>
<!-- Node23 -->
<g id="node23" class="node">
<title>Node23</title>
<g id="a_node23"><a xlink:title=" ">
<polygon fill="white" stroke="#bfbfbf" points="1085,-134.5 1085,-153.5 1149,-153.5 1149,-134.5 1085,-134.5"/>
<text text-anchor="middle" x="1117" y="-141.5" font-family="Helvetica,sans-Serif" font-size="10.00">algorithm</text>
</a>
</g>
</g>
<!-- Node18&#45;&gt;Node23 -->
<g id="edge29" class="edge">
<title>Node18&#45;&gt;Node23</title>
<path fill="none" stroke="midnightblue" d="M1106.98,-190.08C1108.57,-182.93 1110.86,-172.64 1112.85,-163.69"/>
<polygon fill="midnightblue" stroke="midnightblue" points="1116.3,-164.27 1115.06,-153.75 1109.47,-162.75 1116.3,-164.27"/>
</g>
<!-- Node24 -->
<g id="node24" class="node">
<title>Node24</title>
<g id="a_node24"><a xlink:title=" ">
<polygon fill="white" stroke="#bfbfbf" points="977,-134.5 977,-153.5 1029,-153.5 1029,-134.5 977,-134.5"/>
<text text-anchor="middle" x="1003" y="-141.5" font-family="Helvetica,sans-Serif" font-size="10.00">cassert</text>
</a>
</g>
</g>
<!-- Node18&#45;&gt;Node24 -->
<g id="edge30" class="edge">
<title>Node18&#45;&gt;Node24</title>
<path fill="none" stroke="midnightblue" d="M1088.61,-190.32C1072.33,-181.7 1047.13,-168.36 1028.28,-158.39"/>
<polygon fill="midnightblue" stroke="midnightblue" points="1029.82,-155.24 1019.35,-153.65 1026.55,-161.43 1029.82,-155.24"/>
</g>
<!-- Node18&#45;&gt;Node25 -->
<g id="edge31" class="edge">
<title>Node18&#45;&gt;Node25</title>
<path fill="none" stroke="midnightblue" d="M1118.98,-190.32C1132.55,-181.9 1153.38,-168.97 1169.32,-159.07"/>
<polygon fill="midnightblue" stroke="midnightblue" points="1171.41,-161.9 1178.06,-153.65 1167.71,-155.95 1171.41,-161.9"/>
</g>
<!-- Node19&#45;&gt;Node2 -->
<g id="edge25" class="edge">
<title>Node19&#45;&gt;Node2</title>
<path fill="none" stroke="midnightblue" d="M1348.75,-135.28C1344.1,-134.84 1339.49,-134.41 1335,-134 1153,-117.25 938.31,-98.59 831.1,-89.35"/>
<polygon fill="midnightblue" stroke="midnightblue" points="831.33,-85.86 821.07,-88.48 830.73,-92.83 831.33,-85.86"/>
</g>
<!-- Node19&#45;&gt;Node20 -->
<g id="edge26" class="edge">
<title>Node19&#45;&gt;Node20</title>
<path fill="none" stroke="midnightblue" d="M1436.16,-134.48C1443.74,-125.46 1455.87,-111.02 1465.29,-99.81"/>
<polygon fill="midnightblue" stroke="midnightblue" points="1468.1,-101.92 1471.85,-92.01 1462.74,-97.41 1468.1,-101.92"/>
</g>
<!-- Node19&#45;&gt;Node21 -->
<g id="edge27" class="edge">
<title>Node19&#45;&gt;Node21</title>
<path fill="none" stroke="midnightblue" d="M1449.92,-134.48C1474.75,-124.36 1516.34,-107.4 1544.69,-95.85"/>
<polygon fill="midnightblue" stroke="midnightblue" points="1546.18,-99.02 1554.12,-92.01 1543.54,-92.54 1546.18,-99.02"/>
</g>
<!-- Node22 -->
<g id="node22" class="node">
<title>Node22</title>
<g id="a_node22"><a xlink:href="threadsafetyanalysis_8h.html" target="_top" xlink:title=" ">
<polygon fill="white" stroke="black" points="1305.5,-67.5 1305.5,-97.5 1436.5,-97.5 1436.5,-67.5 1305.5,-67.5"/>
<text text-anchor="start" x="1313.5" y="-85.5" font-family="Helvetica,sans-Serif" font-size="10.00">log4cplus/internal</text>
<text text-anchor="middle" x="1371" y="-74.5" font-family="Helvetica,sans-Serif" font-size="10.00">/threadsafetyanalysis.h</text>
</a>
</g>
</g>
<!-- Node19&#45;&gt;Node22 -->
<g id="edge28" class="edge">
<title>Node19&#45;&gt;Node22</title>
<path fill="none" stroke="midnightblue" d="M1420.69,-134.48C1413.2,-126.79 1401.87,-115.17 1391.92,-104.96"/>
<polygon fill="midnightblue" stroke="midnightblue" points="1394.16,-102.24 1384.67,-97.52 1389.14,-107.13 1394.16,-102.24"/>
</g>
<!-- Node26&#45;&gt;Node2 -->
<g id="edge33" class="edge">
<title>Node26&#45;&gt;Node2</title>
<path fill="none" stroke="midnightblue" d="M303.69,-190.48C315.53,-176.09 341.71,-147.24 371,-134 427.26,-108.58 598.11,-93.94 694.66,-87.49"/>
<polygon fill="midnightblue" stroke="midnightblue" points="695.16,-90.97 704.9,-86.82 694.7,-83.98 695.16,-90.97"/>
</g>
<!-- Node26&#45;&gt;Node16 -->
<g id="edge34" class="edge">
<title>Node26&#45;&gt;Node16</title>
<path fill="none" stroke="midnightblue" d="M318.07,-190.44C340.06,-181.52 374.73,-167.44 399.66,-157.32"/>
<polygon fill="midnightblue" stroke="midnightblue" points="401.08,-160.52 409.02,-153.52 398.44,-154.04 401.08,-160.52"/>
</g>
<!-- Node27 -->
<g id="node27" class="node">
<title>Node27</title>
<g id="a_node27"><a xlink:title=" ">
<polygon fill="white" stroke="#bfbfbf" points="273,-134.5 273,-153.5 321,-153.5 321,-134.5 273,-134.5"/>
<text text-anchor="middle" x="297" y="-141.5" font-family="Helvetica,sans-Serif" font-size="10.00">iosfwd</text>
</a>
</g>
</g>
<!-- Node26&#45;&gt;Node27 -->
<g id="edge35" class="edge">
<title>Node26&#45;&gt;Node27</title>
<path fill="none" stroke="midnightblue" d="M297,-190.08C297,-183.01 297,-172.86 297,-163.99"/>
<polygon fill="midnightblue" stroke="midnightblue" points="300.5,-163.75 297,-153.75 293.5,-163.75 300.5,-163.75"/>
</g>
<!-- Node28&#45;&gt;Node2 -->
<g id="edge38" class="edge">
<title>Node28&#45;&gt;Node2</title>
<path fill="none" stroke="midnightblue" d="M510.97,-246.33C506.41,-224.37 497.85,-166.08 527,-134 549.19,-109.58 633.39,-96.1 694.91,-89.33"/>
<polygon fill="midnightblue" stroke="midnightblue" points="695.38,-92.8 704.95,-88.26 694.64,-85.84 695.38,-92.8"/>
</g>
<!-- Node28&#45;&gt;Node11 -->
<g id="edge39" class="edge">
<title>Node28&#45;&gt;Node11</title>
<path fill="none" stroke="midnightblue" d="M526.98,-246.32C540.55,-237.9 561.38,-224.97 577.32,-215.07"/>
<polygon fill="midnightblue" stroke="midnightblue" points="579.41,-217.9 586.06,-209.65 575.71,-211.95 579.41,-217.9"/>
</g>
<!-- Node29 -->
<g id="node29" class="node">
<title>Node29</title>
<g id="a_node29"><a xlink:title=" ">
<polygon fill="white" stroke="#bfbfbf" points="441,-190.5 441,-209.5 485,-209.5 485,-190.5 441,-190.5"/>
<text text-anchor="middle" x="463" y="-197.5" font-family="Helvetica,sans-Serif" font-size="10.00">ctime</text>
</a>
</g>
</g>
<!-- Node28&#45;&gt;Node29 -->
<g id="edge40" class="edge">
<title>Node28&#45;&gt;Node29</title>
<path fill="none" stroke="midnightblue" d="M504.74,-246.08C497.54,-238.3 486.89,-226.8 478.15,-217.37"/>
<polygon fill="midnightblue" stroke="midnightblue" points="480.47,-214.71 471.1,-209.75 475.33,-219.47 480.47,-214.71"/>
</g>
<!-- Node30 -->
<g id="node30" class="node">
<title>Node30</title>
<g id="a_node30"><a xlink:title=" ">
<polygon fill="white" stroke="#bfbfbf" points="373,-190.5 373,-209.5 423,-209.5 423,-190.5 373,-190.5"/>
<text text-anchor="middle" x="398" y="-197.5" font-family="Helvetica,sans-Serif" font-size="10.00">chrono</text>
</a>
</g>
</g>
<!-- Node28&#45;&gt;Node30 -->
<g id="edge41" class="edge">
<title>Node28&#45;&gt;Node30</title>
<path fill="none" stroke="midnightblue" d="M494.78,-246.44C476.1,-237.68 446.84,-223.94 425.38,-213.86"/>
<polygon fill="midnightblue" stroke="midnightblue" points="426.68,-210.6 416.14,-209.52 423.7,-216.93 426.68,-210.6"/>
</g>
<!-- Node31&#45;&gt;Node2 -->
<g id="edge48" class="edge">
<title>Node31&#45;&gt;Node2</title>
<path fill="none" stroke="midnightblue" d="M1087.21,-302.5C1139.69,-276.93 1283.87,-198.52 1226,-134 1200.14,-105.16 953.6,-91.2 831.22,-86"/>
<polygon fill="midnightblue" stroke="midnightblue" points="831.34,-82.51 821.21,-85.59 831.05,-89.5 831.34,-82.51"/>
</g>
<!-- Node31&#45;&gt;Node7 -->
<g id="edge51" class="edge">
<title>Node31&#45;&gt;Node7</title>
<path fill="none" stroke="midnightblue" d="M1030.02,-302.44C987.11,-293.02 918.05,-277.87 871.63,-267.68"/>
<polygon fill="midnightblue" stroke="midnightblue" points="872.31,-264.24 861.8,-265.52 870.81,-271.08 872.31,-264.24"/>
</g>
<!-- Node31&#45;&gt;Node13 -->
<g id="edge49" class="edge">
<title>Node31&#45;&gt;Node13</title>
<path fill="none" stroke="midnightblue" d="M1060.97,-302.44C1041.8,-282.14 991.55,-229.83 946,-190 933.77,-179.3 919.33,-168.1 907.92,-159.55"/>
<polygon fill="midnightblue" stroke="midnightblue" points="909.99,-156.72 899.88,-153.58 905.82,-162.34 909.99,-156.72"/>
</g>
<!-- Node31&#45;&gt;Node18 -->
<g id="edge50" class="edge">
<title>Node31&#45;&gt;Node18</title>
<path fill="none" stroke="midnightblue" d="M1071.82,-302.37C1077.66,-284.54 1091.16,-243.3 1099.02,-219.27"/>
<polygon fill="midnightblue" stroke="midnightblue" points="1102.4,-220.18 1102.19,-209.59 1095.75,-218.01 1102.4,-220.18"/>
</g>
<!-- Node32&#45;&gt;Node2 -->
<g id="edge53" class="edge">
<title>Node32&#45;&gt;Node2</title>
<path fill="none" stroke="midnightblue" d="M1381.7,-246.32C1372.42,-223.31 1343.71,-160.63 1297,-134 1219.3,-89.7 957.52,-83.45 831.68,-83.09"/>
<polygon fill="midnightblue" stroke="midnightblue" points="831.4,-79.59 821.4,-83.07 831.39,-86.59 831.4,-79.59"/>
</g>
<!-- Node32&#45;&gt;Node11 -->
<g id="edge54" class="edge">
<title>Node32&#45;&gt;Node11</title>
<path fill="none" stroke="midnightblue" d="M1310.26,-252.31C1180.81,-247.21 906.3,-234.49 663.65,-209.98"/>
<polygon fill="midnightblue" stroke="midnightblue" points="663.88,-206.48 653.58,-208.95 663.17,-213.45 663.88,-206.48"/>
</g>
<!-- Node32&#45;&gt;Node19 -->
<g id="edge55" class="edge">
<title>Node32&#45;&gt;Node19</title>
<path fill="none" stroke="midnightblue" d="M1388.45,-246.37C1395.62,-228.46 1412.23,-186.92 1421.82,-162.95"/>
<polygon fill="midnightblue" stroke="midnightblue" points="1425.1,-164.18 1425.56,-153.59 1418.6,-161.58 1425.1,-164.18"/>
</g>
<!-- Node33&#45;&gt;Node2 -->
<g id="edge61" class="edge">
<title>Node33&#45;&gt;Node2</title>
<path fill="none" stroke="midnightblue" d="M212.72,-306.5C153.37,-301.15 76.53,-289.74 57,-266 51.35,-259.14 52.74,-253.8 57,-246 101.05,-165.27 144.09,-164.09 231,-134 314.89,-104.96 570.65,-91.12 694.44,-85.98"/>
<polygon fill="midnightblue" stroke="midnightblue" points="694.71,-89.47 704.56,-85.57 694.42,-82.48 694.71,-89.47"/>
</g>
<!-- Node33&#45;&gt;Node11 -->
<g id="edge64" class="edge">
<title>Node33&#45;&gt;Node11</title>
<path fill="none" stroke="midnightblue" d="M359.26,-311.33C443.38,-309.96 573.82,-301.89 605,-266 615.99,-253.35 612.6,-233.59 607.78,-219.18"/>
<polygon fill="midnightblue" stroke="midnightblue" points="611.04,-217.9 604.21,-209.8 604.5,-220.39 611.04,-217.9"/>
</g>
<!-- Node34 -->
<g id="node34" class="node">
<title>Node34</title>
<g id="a_node34"><a xlink:title=" ">
<polygon fill="white" stroke="#bfbfbf" points="332,-246.5 332,-265.5 374,-265.5 374,-246.5 332,-246.5"/>
<text text-anchor="middle" x="353" y="-253.5" font-family="Helvetica,sans-Serif" font-size="10.00">array</text>
</a>
</g>
</g>
<!-- Node33&#45;&gt;Node34 -->
<g id="edge62" class="edge">
<title>Node33&#45;&gt;Node34</title>
<path fill="none" stroke="midnightblue" d="M296.76,-302.32C306.77,-294.26 321.89,-282.08 333.93,-272.37"/>
<polygon fill="midnightblue" stroke="midnightblue" points="336.45,-274.83 342.04,-265.83 332.06,-269.38 336.45,-274.83"/>
</g>
<!-- Node35 -->
<g id="node35" class="node">
<title>Node35</title>
<g id="a_node35"><a xlink:title=" ">
<polygon fill="white" stroke="#bfbfbf" points="258,-246.5 258,-265.5 314,-265.5 314,-246.5 258,-246.5"/>
<text text-anchor="middle" x="286" y="-253.5" font-family="Helvetica,sans-Serif" font-size="10.00">optional</text>
</a>
</g>
</g>
<!-- Node33&#45;&gt;Node35 -->
<g id="edge63" class="edge">
<title>Node33&#45;&gt;Node35</title>
<path fill="none" stroke="midnightblue" d="M286,-302.08C286,-295.01 286,-284.86 286,-275.99"/>
<polygon fill="midnightblue" stroke="midnightblue" points="289.5,-275.75 286,-265.75 282.5,-275.75 289.5,-275.75"/>
</g>
<!-- Node36 -->
<g id="node36" class="node">
<title>Node36</title>
<g id="a_node36"><a xlink:href="socketbuffer_8h.html" target="_top" xlink:title=" ">
<polygon fill="white" stroke="black" points="66.5,-246.5 66.5,-265.5 239.5,-265.5 239.5,-246.5 66.5,-246.5"/>
<text text-anchor="middle" x="153" y="-253.5" font-family="Helvetica,sans-Serif" font-size="10.00">log4cplus/helpers/socketbuffer.h</text>
</a>
</g>
</g>
<!-- Node33&#45;&gt;Node36 -->
<g id="edge65" class="edge">
<title>Node33&#45;&gt;Node36</title>
<path fill="none" stroke="midnightblue" d="M264.93,-302.44C242.94,-293.52 208.27,-279.44 183.34,-269.32"/>
<polygon fill="midnightblue" stroke="midnightblue" points="184.56,-266.04 173.98,-265.52 181.92,-272.52 184.56,-266.04"/>
</g>
<!-- Node36&#45;&gt;Node2 -->
<g id="edge66" class="edge">
<title>Node36&#45;&gt;Node2</title>
<path fill="none" stroke="midnightblue" d="M157.85,-246.3C171.23,-223.24 211.25,-160.44 264,-134 301.61,-115.15 566.83,-95.98 694.56,-87.72"/>
<polygon fill="midnightblue" stroke="midnightblue" points="694.88,-91.2 704.63,-87.07 694.43,-84.22 694.88,-91.2"/>
</g>
<!-- Node36&#45;&gt;Node11 -->
<g id="edge67" class="edge">
<title>Node36&#45;&gt;Node11</title>
<path fill="none" stroke="midnightblue" d="M223.83,-246.44C309.85,-236.05 453.66,-218.68 536.32,-208.69"/>
<polygon fill="midnightblue" stroke="midnightblue" points="536.83,-212.16 546.34,-207.48 535.99,-205.21 536.83,-212.16"/>
</g>
</g>
</svg>
