<?xml version="1.0" encoding="UTF-8" standalone="no"?>
<!DOCTYPE svg PUBLIC "-//W3C//DTD SVG 1.1//EN"
 "http://www.w3.org/Graphics/SVG/1.1/DTD/svg11.dtd">
<!-- Generated by graphviz version 2.43.0 (0)
 -->
<!-- Title: loggerimpl.h Pages: 1 -->
<svg width="1833pt" height="554pt"
 viewBox="0.00 0.00 1832.50 554.00" xmlns="http://www.w3.org/2000/svg" xmlns:xlink="http://www.w3.org/1999/xlink">
<g id="graph0" class="graph" transform="scale(1 1) rotate(0) translate(4 550)">
<title>loggerimpl.h</title>
<polygon fill="white" stroke="transparent" points="-4,4 -4,-550 1828.5,-550 1828.5,4 -4,4"/>
<!-- Node1 -->
<g id="node1" class="node">
<title>Node1</title>
<g id="a_node1"><a xlink:title=" ">
<polygon fill="#bfbfbf" stroke="black" points="227,-526.5 227,-545.5 305,-545.5 305,-526.5 227,-526.5"/>
<text text-anchor="middle" x="266" y="-533.5" font-family="Helvetica,sans-Serif" font-size="10.00">loggerimpl.h</text>
</a>
</g>
</g>
<!-- Node2 -->
<g id="node2" class="node">
<title>Node2</title>
<g id="a_node2"><a xlink:href="config_8hxx.html" target="_top" xlink:title=" ">
<polygon fill="white" stroke="black" points="685,-73 685,-92 801,-92 801,-73 685,-73"/>
<text text-anchor="middle" x="743" y="-80" font-family="Helvetica,sans-Serif" font-size="10.00">log4cplus/config.hxx</text>
</a>
</g>
</g>
<!-- Node1&#45;&gt;Node2 -->
<g id="edge1" class="edge">
<title>Node1&#45;&gt;Node2</title>
<path fill="none" stroke="midnightblue" d="M226.75,-535.83C152.76,-535.13 0,-521.95 0,-425 0,-425 0,-425 0,-199 0,-118.52 90.6,-152.15 169,-134 263.42,-112.15 543.71,-94.44 674.44,-87.13"/>
<polygon fill="midnightblue" stroke="midnightblue" points="674.93,-90.61 684.73,-86.56 674.55,-83.62 674.93,-90.61"/>
</g>
<!-- Node5 -->
<g id="node5" class="node">
<title>Node5</title>
<g id="a_node5"><a xlink:href="tstring_8h.html" target="_top" xlink:title=" ">
<polygon fill="white" stroke="black" points="942.5,-190.5 942.5,-209.5 1049.5,-209.5 1049.5,-190.5 942.5,-190.5"/>
<text text-anchor="middle" x="996" y="-197.5" font-family="Helvetica,sans-Serif" font-size="10.00">log4cplus/tstring.h</text>
</a>
</g>
</g>
<!-- Node1&#45;&gt;Node5 -->
<g id="edge4" class="edge">
<title>Node1&#45;&gt;Node5</title>
<path fill="none" stroke="midnightblue" d="M305.06,-534.01C469.75,-529.33 1099,-506.14 1099,-425 1099,-425 1099,-425 1099,-311 1099,-266.43 1053.38,-232.46 1022.86,-214.73"/>
<polygon fill="midnightblue" stroke="midnightblue" points="1024.38,-211.57 1013.94,-209.75 1020.97,-217.68 1024.38,-211.57"/>
</g>
<!-- Node12 -->
<g id="node12" class="node">
<title>Node12</title>
<g id="a_node12"><a xlink:href="appenderattachableimpl_8h.html" target="_top" xlink:title=" ">
<polygon fill="white" stroke="black" points="426.5,-470.5 426.5,-489.5 659.5,-489.5 659.5,-470.5 426.5,-470.5"/>
<text text-anchor="middle" x="543" y="-477.5" font-family="Helvetica,sans-Serif" font-size="10.00">log4cplus/helpers/appenderattachableimpl.h</text>
</a>
</g>
</g>
<!-- Node1&#45;&gt;Node12 -->
<g id="edge13" class="edge">
<title>Node1&#45;&gt;Node12</title>
<path fill="none" stroke="midnightblue" d="M305.1,-527.38C353.15,-518.01 434.95,-502.06 488.99,-491.53"/>
<polygon fill="midnightblue" stroke="midnightblue" points="489.93,-494.91 499.07,-489.56 488.59,-488.04 489.93,-494.91"/>
</g>
<!-- Node13 -->
<g id="node13" class="node">
<title>Node13</title>
<g id="a_node13"><a xlink:href="pointer_8h.html" target="_top" xlink:title=" ">
<polygon fill="white" stroke="black" points="1227,-190.5 1227,-209.5 1375,-209.5 1375,-190.5 1227,-190.5"/>
<text text-anchor="middle" x="1301" y="-197.5" font-family="Helvetica,sans-Serif" font-size="10.00">log4cplus/helpers/pointer.h</text>
</a>
</g>
</g>
<!-- Node1&#45;&gt;Node13 -->
<g id="edge73" class="edge">
<title>Node1&#45;&gt;Node13</title>
<path fill="none" stroke="midnightblue" d="M305.05,-533.89C525.73,-527.39 1607,-492.12 1607,-425 1607,-425 1607,-425 1607,-311 1607,-281.02 1611.38,-265.94 1589,-246 1559.59,-219.79 1459.44,-208.82 1385.47,-204.24"/>
<polygon fill="midnightblue" stroke="midnightblue" points="1385.41,-200.73 1375.22,-203.64 1384.99,-207.72 1385.41,-200.73"/>
</g>
<!-- Node25 -->
<g id="node25" class="node">
<title>Node25</title>
<g id="a_node25"><a xlink:title=" ">
<polygon fill="white" stroke="#bfbfbf" points="128.5,-190.5 128.5,-209.5 175.5,-209.5 175.5,-190.5 128.5,-190.5"/>
<text text-anchor="middle" x="152" y="-197.5" font-family="Helvetica,sans-Serif" font-size="10.00">vector</text>
</a>
</g>
</g>
<!-- Node1&#45;&gt;Node25 -->
<g id="edge78" class="edge">
<title>Node1&#45;&gt;Node25</title>
<path fill="none" stroke="midnightblue" d="M226.81,-533.37C161.62,-528.33 38,-507.84 38,-425 38,-425 38,-425 38,-311 38,-264.11 88.55,-230.89 122.33,-213.93"/>
<polygon fill="midnightblue" stroke="midnightblue" points="123.87,-217.07 131.36,-209.58 120.83,-210.77 123.87,-217.07"/>
</g>
<!-- Node26 -->
<g id="node26" class="node">
<title>Node26</title>
<g id="a_node26"><a xlink:title=" ">
<polygon fill="white" stroke="#bfbfbf" points="313,-190.5 313,-209.5 371,-209.5 371,-190.5 313,-190.5"/>
<text text-anchor="middle" x="342" y="-197.5" font-family="Helvetica,sans-Serif" font-size="10.00">memory</text>
</a>
</g>
</g>
<!-- Node1&#45;&gt;Node26 -->
<g id="edge77" class="edge">
<title>Node1&#45;&gt;Node26</title>
<path fill="none" stroke="midnightblue" d="M260.72,-526.23C250.27,-508.04 228,-464.6 228,-425 228,-425 228,-425 228,-311 228,-264.11 278.55,-230.89 312.33,-213.93"/>
<polygon fill="midnightblue" stroke="midnightblue" points="313.87,-217.07 321.36,-209.58 310.83,-210.77 313.87,-217.07"/>
</g>
<!-- Node35 -->
<g id="node35" class="node">
<title>Node35</title>
<g id="a_node35"><a xlink:href="loggerfactory_8h.html" target="_top" xlink:title=" ">
<polygon fill="white" stroke="black" points="446,-246.5 446,-265.5 602,-265.5 602,-246.5 446,-246.5"/>
<text text-anchor="middle" x="524" y="-253.5" font-family="Helvetica,sans-Serif" font-size="10.00">log4cplus/spi/loggerfactory.h</text>
</a>
</g>
</g>
<!-- Node1&#45;&gt;Node35 -->
<g id="edge74" class="edge">
<title>Node1&#45;&gt;Node35</title>
<path fill="none" stroke="midnightblue" d="M274,-526.38C310.42,-487.14 460.76,-325.14 509.02,-273.15"/>
<polygon fill="midnightblue" stroke="midnightblue" points="511.85,-275.23 516.09,-265.52 506.72,-270.47 511.85,-275.23"/>
</g>
<!-- Node3 -->
<g id="node3" class="node">
<title>Node3</title>
<g id="a_node3"><a xlink:href="win32_8h.html" target="_top" xlink:title=" ">
<polygon fill="white" stroke="black" points="597.5,-6 597.5,-25 734.5,-25 734.5,-6 597.5,-6"/>
<text text-anchor="middle" x="666" y="-13" font-family="Helvetica,sans-Serif" font-size="10.00">log4cplus/config/win32.h</text>
</a>
</g>
</g>
<!-- Node2&#45;&gt;Node3 -->
<g id="edge2" class="edge">
<title>Node2&#45;&gt;Node3</title>
<path fill="none" stroke="midnightblue" d="M732.62,-72.73C720.15,-62.21 699.03,-44.38 683.91,-31.62"/>
<polygon fill="midnightblue" stroke="midnightblue" points="686.12,-28.9 676.22,-25.13 681.6,-34.25 686.12,-28.9"/>
</g>
<!-- Node4 -->
<g id="node4" class="node">
<title>Node4</title>
<g id="a_node4"><a xlink:href="thread-config_8h.html" target="_top" xlink:title=" ">
<polygon fill="white" stroke="black" points="752.5,-0.5 752.5,-30.5 889.5,-30.5 889.5,-0.5 752.5,-0.5"/>
<text text-anchor="start" x="760.5" y="-18.5" font-family="Helvetica,sans-Serif" font-size="10.00">log4cplus/helpers/thread</text>
<text text-anchor="middle" x="821" y="-7.5" font-family="Helvetica,sans-Serif" font-size="10.00">&#45;config.h</text>
</a>
</g>
</g>
<!-- Node2&#45;&gt;Node4 -->
<g id="edge3" class="edge">
<title>Node2&#45;&gt;Node4</title>
<path fill="none" stroke="midnightblue" d="M753.52,-72.73C764.36,-63.7 781.67,-49.27 796.04,-37.3"/>
<polygon fill="midnightblue" stroke="midnightblue" points="798.65,-39.68 804.09,-30.59 794.17,-34.3 798.65,-39.68"/>
</g>
<!-- Node5&#45;&gt;Node2 -->
<g id="edge5" class="edge">
<title>Node5&#45;&gt;Node2</title>
<path fill="none" stroke="midnightblue" d="M1009.69,-190.45C1028.47,-177.69 1058.15,-153.11 1042,-134 1013.09,-99.8 890.58,-88.75 811.62,-85.19"/>
<polygon fill="midnightblue" stroke="midnightblue" points="811.4,-81.68 801.26,-84.75 811.11,-88.67 811.4,-81.68"/>
</g>
<!-- Node6 -->
<g id="node6" class="node">
<title>Node6</title>
<g id="a_node6"><a xlink:title=" ">
<polygon fill="white" stroke="#bfbfbf" points="809.5,-134.5 809.5,-153.5 878.5,-153.5 878.5,-134.5 809.5,-134.5"/>
<text text-anchor="middle" x="844" y="-141.5" font-family="Helvetica,sans-Serif" font-size="10.00">type_traits</text>
</a>
</g>
</g>
<!-- Node5&#45;&gt;Node6 -->
<g id="edge6" class="edge">
<title>Node5&#45;&gt;Node6</title>
<path fill="none" stroke="midnightblue" d="M971.92,-190.44C946.46,-181.4 906.11,-167.06 877.54,-156.92"/>
<polygon fill="midnightblue" stroke="midnightblue" points="878.57,-153.57 867.97,-153.52 876.22,-160.16 878.57,-153.57"/>
</g>
<!-- Node7 -->
<g id="node7" class="node">
<title>Node7</title>
<g id="a_node7"><a xlink:title=" ">
<polygon fill="white" stroke="#bfbfbf" points="1089.5,-134.5 1089.5,-153.5 1154.5,-153.5 1154.5,-134.5 1089.5,-134.5"/>
<text text-anchor="middle" x="1122" y="-141.5" font-family="Helvetica,sans-Serif" font-size="10.00">functional</text>
</a>
</g>
</g>
<!-- Node5&#45;&gt;Node7 -->
<g id="edge7" class="edge">
<title>Node5&#45;&gt;Node7</title>
<path fill="none" stroke="midnightblue" d="M1015.97,-190.44C1036.61,-181.6 1069.06,-167.69 1092.63,-157.59"/>
<polygon fill="midnightblue" stroke="midnightblue" points="1094.32,-160.67 1102.13,-153.52 1091.56,-154.24 1094.32,-160.67"/>
</g>
<!-- Node8 -->
<g id="node8" class="node">
<title>Node8</title>
<g id="a_node8"><a xlink:title=" ">
<polygon fill="white" stroke="#bfbfbf" points="897,-134.5 897,-153.5 941,-153.5 941,-134.5 897,-134.5"/>
<text text-anchor="middle" x="919" y="-141.5" font-family="Helvetica,sans-Serif" font-size="10.00">string</text>
</a>
</g>
</g>
<!-- Node5&#45;&gt;Node8 -->
<g id="edge8" class="edge">
<title>Node5&#45;&gt;Node8</title>
<path fill="none" stroke="midnightblue" d="M983.63,-190.32C971.84,-182.06 953.87,-169.45 939.86,-159.63"/>
<polygon fill="midnightblue" stroke="midnightblue" points="941.54,-156.53 931.34,-153.65 937.52,-162.26 941.54,-156.53"/>
</g>
<!-- Node9 -->
<g id="node9" class="node">
<title>Node9</title>
<g id="a_node9"><a xlink:title=" ">
<polygon fill="white" stroke="#bfbfbf" points="959.5,-134.5 959.5,-153.5 1032.5,-153.5 1032.5,-134.5 959.5,-134.5"/>
<text text-anchor="middle" x="996" y="-141.5" font-family="Helvetica,sans-Serif" font-size="10.00">string_view</text>
</a>
</g>
</g>
<!-- Node5&#45;&gt;Node9 -->
<g id="edge9" class="edge">
<title>Node5&#45;&gt;Node9</title>
<path fill="none" stroke="midnightblue" d="M996,-190.08C996,-183.01 996,-172.86 996,-163.99"/>
<polygon fill="midnightblue" stroke="midnightblue" points="999.5,-163.75 996,-153.75 992.5,-163.75 999.5,-163.75"/>
</g>
<!-- Node10 -->
<g id="node10" class="node">
<title>Node10</title>
<g id="a_node10"><a xlink:href="tchar_8h.html" target="_top" xlink:title=" ">
<polygon fill="white" stroke="black" points="399.5,-134.5 399.5,-153.5 498.5,-153.5 498.5,-134.5 399.5,-134.5"/>
<text text-anchor="middle" x="449" y="-141.5" font-family="Helvetica,sans-Serif" font-size="10.00">log4cplus/tchar.h</text>
</a>
</g>
</g>
<!-- Node5&#45;&gt;Node10 -->
<g id="edge10" class="edge">
<title>Node5&#45;&gt;Node10</title>
<path fill="none" stroke="midnightblue" d="M942.31,-193.7C839.56,-183.56 615.85,-161.47 508.63,-150.89"/>
<polygon fill="midnightblue" stroke="midnightblue" points="508.92,-147.4 498.63,-149.9 508.24,-154.37 508.92,-147.4"/>
</g>
<!-- Node10&#45;&gt;Node2 -->
<g id="edge11" class="edge">
<title>Node10&#45;&gt;Node2</title>
<path fill="none" stroke="midnightblue" d="M491.12,-134.48C543.85,-123.8 634.13,-105.53 691.07,-94.01"/>
<polygon fill="midnightblue" stroke="midnightblue" points="691.85,-97.42 700.96,-92.01 690.46,-90.56 691.85,-97.42"/>
</g>
<!-- Node11 -->
<g id="node11" class="node">
<title>Node11</title>
<g id="a_node11"><a xlink:title=" ">
<polygon fill="white" stroke="#bfbfbf" points="422.5,-73 422.5,-92 475.5,-92 475.5,-73 422.5,-73"/>
<text text-anchor="middle" x="449" y="-80" font-family="Helvetica,sans-Serif" font-size="10.00">cstddef</text>
</a>
</g>
</g>
<!-- Node10&#45;&gt;Node11 -->
<g id="edge12" class="edge">
<title>Node10&#45;&gt;Node11</title>
<path fill="none" stroke="midnightblue" d="M449,-134.48C449,-126.08 449,-112.98 449,-102.16"/>
<polygon fill="midnightblue" stroke="midnightblue" points="452.5,-102.01 449,-92.01 445.5,-102.01 452.5,-102.01"/>
</g>
<!-- Node12&#45;&gt;Node2 -->
<g id="edge14" class="edge">
<title>Node12&#45;&gt;Node2</title>
<path fill="none" stroke="midnightblue" d="M426.15,-473.69C327.65,-467.76 195.25,-455.97 147,-434 108.06,-416.27 76,-411.78 76,-369 76,-369 76,-369 76,-199 76,-138.68 504.99,-100.82 674.89,-88.2"/>
<polygon fill="midnightblue" stroke="midnightblue" points="675.26,-91.68 684.97,-87.46 674.74,-84.7 675.26,-91.68"/>
</g>
<!-- Node12&#45;&gt;Node5 -->
<g id="edge15" class="edge">
<title>Node12&#45;&gt;Node5</title>
<path fill="none" stroke="midnightblue" d="M659.57,-477.32C812.32,-471.89 1061,-450.54 1061,-369 1061,-369 1061,-369 1061,-311 1061,-273.18 1032.16,-236.94 1012.91,-216.96"/>
<polygon fill="midnightblue" stroke="midnightblue" points="1015.14,-214.24 1005.59,-209.66 1010.2,-219.2 1015.14,-214.24"/>
</g>
<!-- Node12&#45;&gt;Node13 -->
<g id="edge16" class="edge">
<title>Node12&#45;&gt;Node13</title>
<path fill="none" stroke="midnightblue" d="M659.66,-473.05C873.14,-460.94 1308.94,-430.06 1353,-378 1393.64,-329.97 1341.29,-251.43 1314.73,-217.48"/>
<polygon fill="midnightblue" stroke="midnightblue" points="1317.31,-215.1 1308.32,-209.5 1311.86,-219.49 1317.31,-215.1"/>
</g>
<!-- Node14 -->
<g id="node14" class="node">
<title>Node14</title>
<g id="a_node14"><a xlink:href="syncprims_8h.html" target="_top" xlink:title=" ">
<polygon fill="white" stroke="black" points="1545,-134.5 1545,-153.5 1705,-153.5 1705,-134.5 1545,-134.5"/>
<text text-anchor="middle" x="1625" y="-141.5" font-family="Helvetica,sans-Serif" font-size="10.00">log4cplus/thread/syncprims.h</text>
</a>
</g>
</g>
<!-- Node12&#45;&gt;Node14 -->
<g id="edge70" class="edge">
<title>Node12&#45;&gt;Node14</title>
<path fill="none" stroke="midnightblue" d="M659.53,-479.9C952.22,-480.61 1695,-472.25 1695,-369 1695,-369 1695,-369 1695,-255 1695,-216.23 1663.67,-180.1 1642.93,-160.43"/>
<polygon fill="midnightblue" stroke="midnightblue" points="1645.08,-157.65 1635.33,-153.5 1640.36,-162.83 1645.08,-157.65"/>
</g>
<!-- Node21 -->
<g id="node21" class="node">
<title>Node21</title>
<g id="a_node21"><a xlink:href="appenderattachable_8h.html" target="_top" xlink:title=" ">
<polygon fill="white" stroke="black" points="711,-414.5 711,-433.5 901,-433.5 901,-414.5 711,-414.5"/>
<text text-anchor="middle" x="806" y="-421.5" font-family="Helvetica,sans-Serif" font-size="10.00">log4cplus/spi/appenderattachable.h</text>
</a>
</g>
</g>
<!-- Node12&#45;&gt;Node21 -->
<g id="edge26" class="edge">
<title>Node12&#45;&gt;Node21</title>
<path fill="none" stroke="midnightblue" d="M584.67,-470.44C630.75,-460.98 705,-445.74 754.63,-435.55"/>
<polygon fill="midnightblue" stroke="midnightblue" points="755.43,-438.96 764.52,-433.52 754.02,-432.1 755.43,-438.96"/>
</g>
<!-- Node12&#45;&gt;Node25 -->
<g id="edge72" class="edge">
<title>Node12&#45;&gt;Node25</title>
<path fill="none" stroke="midnightblue" d="M426.34,-471.89C299.31,-460.86 114,-433.68 114,-369 114,-369 114,-369 114,-311 114,-276.81 130.6,-239.76 141.86,-218.57"/>
<polygon fill="midnightblue" stroke="midnightblue" points="144.95,-220.22 146.72,-209.77 138.82,-216.83 144.95,-220.22"/>
</g>
<!-- Node12&#45;&gt;Node26 -->
<g id="edge71" class="edge">
<title>Node12&#45;&gt;Node26</title>
<path fill="none" stroke="midnightblue" d="M533.41,-470.19C504.02,-442.75 414.22,-355.24 364,-266 355.78,-251.4 349.96,-233.23 346.37,-219.81"/>
<polygon fill="midnightblue" stroke="midnightblue" points="349.7,-218.7 343.88,-209.84 342.91,-220.39 349.7,-218.7"/>
</g>
<!-- Node13&#45;&gt;Node2 -->
<g id="edge17" class="edge">
<title>Node13&#45;&gt;Node2</title>
<path fill="none" stroke="midnightblue" d="M1307.31,-190.2C1316.35,-176.42 1330.39,-149.72 1316,-134 1282.49,-97.41 955.7,-87.2 811.17,-84.46"/>
<polygon fill="midnightblue" stroke="midnightblue" points="811.14,-80.96 801.08,-84.27 811.02,-87.96 811.14,-80.96"/>
</g>
<!-- Node13&#45;&gt;Node14 -->
<g id="edge18" class="edge">
<title>Node13&#45;&gt;Node14</title>
<path fill="none" stroke="midnightblue" d="M1352.34,-190.44C1409.81,-180.87 1502.87,-165.36 1564,-155.17"/>
<polygon fill="midnightblue" stroke="midnightblue" points="1564.61,-158.61 1573.9,-153.52 1563.46,-151.71 1564.61,-158.61"/>
</g>
<!-- Node18 -->
<g id="node18" class="node">
<title>Node18</title>
<g id="a_node18"><a xlink:title=" ">
<polygon fill="white" stroke="#bfbfbf" points="1173,-134.5 1173,-153.5 1237,-153.5 1237,-134.5 1173,-134.5"/>
<text text-anchor="middle" x="1205" y="-141.5" font-family="Helvetica,sans-Serif" font-size="10.00">algorithm</text>
</a>
</g>
</g>
<!-- Node13&#45;&gt;Node18 -->
<g id="edge23" class="edge">
<title>Node13&#45;&gt;Node18</title>
<path fill="none" stroke="midnightblue" d="M1285.58,-190.32C1270.46,-181.82 1247.18,-168.73 1229.53,-158.8"/>
<polygon fill="midnightblue" stroke="midnightblue" points="1230.82,-155.51 1220.39,-153.65 1227.39,-161.61 1230.82,-155.51"/>
</g>
<!-- Node19 -->
<g id="node19" class="node">
<title>Node19</title>
<g id="a_node19"><a xlink:title=" ">
<polygon fill="white" stroke="#bfbfbf" points="1255,-134.5 1255,-153.5 1307,-153.5 1307,-134.5 1255,-134.5"/>
<text text-anchor="middle" x="1281" y="-141.5" font-family="Helvetica,sans-Serif" font-size="10.00">cassert</text>
</a>
</g>
</g>
<!-- Node13&#45;&gt;Node19 -->
<g id="edge24" class="edge">
<title>Node13&#45;&gt;Node19</title>
<path fill="none" stroke="midnightblue" d="M1297.7,-190.08C1295.02,-182.85 1291.15,-172.41 1287.81,-163.4"/>
<polygon fill="midnightblue" stroke="midnightblue" points="1291,-161.91 1284.24,-153.75 1284.43,-164.34 1291,-161.91"/>
</g>
<!-- Node20 -->
<g id="node20" class="node">
<title>Node20</title>
<g id="a_node20"><a xlink:title=" ">
<polygon fill="white" stroke="#bfbfbf" points="1363,-134.5 1363,-153.5 1413,-153.5 1413,-134.5 1363,-134.5"/>
<text text-anchor="middle" x="1388" y="-141.5" font-family="Helvetica,sans-Serif" font-size="10.00">atomic</text>
</a>
</g>
</g>
<!-- Node13&#45;&gt;Node20 -->
<g id="edge25" class="edge">
<title>Node13&#45;&gt;Node20</title>
<path fill="none" stroke="midnightblue" d="M1314.98,-190.32C1328.55,-181.9 1349.38,-168.97 1365.32,-159.07"/>
<polygon fill="midnightblue" stroke="midnightblue" points="1367.41,-161.9 1374.06,-153.65 1363.71,-155.95 1367.41,-161.9"/>
</g>
<!-- Node14&#45;&gt;Node2 -->
<g id="edge19" class="edge">
<title>Node14&#45;&gt;Node2</title>
<path fill="none" stroke="midnightblue" d="M1544.76,-135.15C1540.11,-134.74 1535.49,-134.36 1531,-134 1265.3,-112.77 948.64,-94.66 811.7,-87.17"/>
<polygon fill="midnightblue" stroke="midnightblue" points="811.55,-83.66 801.37,-86.61 811.16,-90.65 811.55,-83.66"/>
</g>
<!-- Node15 -->
<g id="node15" class="node">
<title>Node15</title>
<g id="a_node15"><a xlink:title=" ">
<polygon fill="white" stroke="#bfbfbf" points="1651,-73 1651,-92 1699,-92 1699,-73 1651,-73"/>
<text text-anchor="middle" x="1675" y="-80" font-family="Helvetica,sans-Serif" font-size="10.00">mutex</text>
</a>
</g>
</g>
<!-- Node14&#45;&gt;Node15 -->
<g id="edge20" class="edge">
<title>Node14&#45;&gt;Node15</title>
<path fill="none" stroke="midnightblue" d="M1632.16,-134.48C1639.74,-125.46 1651.87,-111.02 1661.29,-99.81"/>
<polygon fill="midnightblue" stroke="midnightblue" points="1664.1,-101.92 1667.85,-92.01 1658.74,-97.41 1664.1,-101.92"/>
</g>
<!-- Node16 -->
<g id="node16" class="node">
<title>Node16</title>
<g id="a_node16"><a xlink:title=" ">
<polygon fill="white" stroke="#bfbfbf" points="1717.5,-73 1717.5,-92 1824.5,-92 1824.5,-73 1717.5,-73"/>
<text text-anchor="middle" x="1771" y="-80" font-family="Helvetica,sans-Serif" font-size="10.00">condition_variable</text>
</a>
</g>
</g>
<!-- Node14&#45;&gt;Node16 -->
<g id="edge21" class="edge">
<title>Node14&#45;&gt;Node16</title>
<path fill="none" stroke="midnightblue" d="M1645.92,-134.48C1670.75,-124.36 1712.34,-107.4 1740.69,-95.85"/>
<polygon fill="midnightblue" stroke="midnightblue" points="1742.18,-99.02 1750.12,-92.01 1739.54,-92.54 1742.18,-99.02"/>
</g>
<!-- Node17 -->
<g id="node17" class="node">
<title>Node17</title>
<g id="a_node17"><a xlink:href="threadsafetyanalysis_8h.html" target="_top" xlink:title=" ">
<polygon fill="white" stroke="black" points="1501.5,-67.5 1501.5,-97.5 1632.5,-97.5 1632.5,-67.5 1501.5,-67.5"/>
<text text-anchor="start" x="1509.5" y="-85.5" font-family="Helvetica,sans-Serif" font-size="10.00">log4cplus/internal</text>
<text text-anchor="middle" x="1567" y="-74.5" font-family="Helvetica,sans-Serif" font-size="10.00">/threadsafetyanalysis.h</text>
</a>
</g>
</g>
<!-- Node14&#45;&gt;Node17 -->
<g id="edge22" class="edge">
<title>Node14&#45;&gt;Node17</title>
<path fill="none" stroke="midnightblue" d="M1616.69,-134.48C1609.2,-126.79 1597.87,-115.17 1587.92,-104.96"/>
<polygon fill="midnightblue" stroke="midnightblue" points="1590.16,-102.24 1580.67,-97.52 1585.14,-107.13 1590.16,-102.24"/>
</g>
<!-- Node21&#45;&gt;Node2 -->
<g id="edge27" class="edge">
<title>Node21&#45;&gt;Node2</title>
<path fill="none" stroke="midnightblue" d="M710.9,-418.55C584.89,-406.62 370.74,-363.58 304,-210 293.31,-185.4 321.88,-135.7 324,-134 350.82,-112.58 562.9,-95.46 674.64,-87.82"/>
<polygon fill="midnightblue" stroke="midnightblue" points="675.06,-91.3 684.8,-87.13 674.59,-84.32 675.06,-91.3"/>
</g>
<!-- Node21&#45;&gt;Node5 -->
<g id="edge67" class="edge">
<title>Node21&#45;&gt;Node5</title>
<path fill="none" stroke="midnightblue" d="M822.23,-414.4C858.73,-394.09 947.24,-339.32 987,-266 994.72,-251.76 996.64,-233.29 996.82,-219.68"/>
<polygon fill="midnightblue" stroke="midnightblue" points="1000.32,-219.53 996.66,-209.58 993.32,-219.64 1000.32,-219.53"/>
</g>
<!-- Node21&#45;&gt;Node13 -->
<g id="edge68" class="edge">
<title>Node21&#45;&gt;Node13</title>
<path fill="none" stroke="midnightblue" d="M825.1,-414.43C901.05,-380.37 1181.92,-254.41 1272.58,-213.75"/>
<polygon fill="midnightblue" stroke="midnightblue" points="1274.26,-216.83 1281.96,-209.54 1271.4,-210.44 1274.26,-216.83"/>
</g>
<!-- Node22 -->
<g id="node22" class="node">
<title>Node22</title>
<g id="a_node22"><a xlink:href="appender_8h.html" target="_top" xlink:title=" ">
<polygon fill="white" stroke="black" points="1224,-358.5 1224,-377.5 1344,-377.5 1344,-358.5 1224,-358.5"/>
<text text-anchor="middle" x="1284" y="-365.5" font-family="Helvetica,sans-Serif" font-size="10.00">log4cplus/appender.h</text>
</a>
</g>
</g>
<!-- Node21&#45;&gt;Node22 -->
<g id="edge28" class="edge">
<title>Node21&#45;&gt;Node22</title>
<path fill="none" stroke="midnightblue" d="M881.48,-414.47C972.67,-404.17 1124.89,-386.97 1213.7,-376.94"/>
<polygon fill="midnightblue" stroke="midnightblue" points="1214.13,-380.42 1223.68,-375.81 1213.35,-373.46 1214.13,-380.42"/>
</g>
<!-- Node21&#45;&gt;Node25 -->
<g id="edge69" class="edge">
<title>Node21&#45;&gt;Node25</title>
<path fill="none" stroke="midnightblue" d="M710.78,-419.71C600.48,-414.78 426.21,-403.21 366,-378 277.07,-340.77 196.5,-253.7 165.49,-217.37"/>
<polygon fill="midnightblue" stroke="midnightblue" points="168.12,-215.07 159.01,-209.67 162.76,-219.57 168.12,-215.07"/>
</g>
<!-- Node22&#45;&gt;Node2 -->
<g id="edge29" class="edge">
<title>Node22&#45;&gt;Node2</title>
<path fill="none" stroke="midnightblue" d="M1344.13,-367.08C1416.52,-363.49 1535.08,-345.02 1589,-266 1594.01,-258.66 1592.38,-254.22 1589,-246 1562.33,-181.19 1541.73,-163.17 1478,-134 1418.34,-106.69 982.15,-90.72 811.33,-85.45"/>
<polygon fill="midnightblue" stroke="midnightblue" points="811.31,-81.95 801.2,-85.14 811.09,-88.95 811.31,-81.95"/>
</g>
<!-- Node22&#45;&gt;Node5 -->
<g id="edge52" class="edge">
<title>Node22&#45;&gt;Node5</title>
<path fill="none" stroke="midnightblue" d="M1252.62,-358.38C1229.88,-351.12 1199.19,-339.15 1176,-322 1140.72,-295.91 1148.63,-271.6 1113,-246 1091.6,-230.63 1064.27,-219.73 1041.4,-212.51"/>
<polygon fill="midnightblue" stroke="midnightblue" points="1042.17,-209.09 1031.58,-209.55 1040.14,-215.79 1042.17,-209.09"/>
</g>
<!-- Node22&#45;&gt;Node13 -->
<g id="edge53" class="edge">
<title>Node22&#45;&gt;Node13</title>
<path fill="none" stroke="midnightblue" d="M1290.37,-358.23C1296.26,-349.53 1304.61,-335.57 1308,-322 1316.86,-286.58 1310.49,-243.58 1305.47,-219.56"/>
<polygon fill="midnightblue" stroke="midnightblue" points="1308.86,-218.66 1303.25,-209.67 1302.03,-220.2 1308.86,-218.66"/>
</g>
<!-- Node22&#45;&gt;Node15 -->
<g id="edge64" class="edge">
<title>Node22&#45;&gt;Node15</title>
<path fill="none" stroke="midnightblue" d="M1344.14,-366.53C1425.17,-362.74 1569.52,-344.45 1659,-266 1706.79,-224.1 1734.52,-194.15 1714,-134 1709.52,-120.86 1700.08,-108.49 1691.61,-99.28"/>
<polygon fill="midnightblue" stroke="midnightblue" points="1694.06,-96.77 1684.57,-92.06 1689.05,-101.66 1694.06,-96.77"/>
</g>
<!-- Node22&#45;&gt;Node16 -->
<g id="edge66" class="edge">
<title>Node22&#45;&gt;Node16</title>
<path fill="none" stroke="midnightblue" d="M1344.2,-365.94C1474.5,-362.01 1771,-343.57 1771,-257 1771,-257 1771,-257 1771,-199 1771,-164.86 1771,-125.05 1771,-102.21"/>
<polygon fill="midnightblue" stroke="midnightblue" points="1774.5,-102.19 1771,-92.19 1767.5,-102.19 1774.5,-102.19"/>
</g>
<!-- Node22&#45;&gt;Node20 -->
<g id="edge65" class="edge">
<title>Node22&#45;&gt;Node20</title>
<path fill="none" stroke="midnightblue" d="M1292.36,-358.5C1300.7,-349.77 1313.57,-335.59 1323,-322 1355.3,-275.42 1368.33,-264.47 1384,-210 1388.35,-194.87 1389.15,-176.98 1388.98,-163.79"/>
<polygon fill="midnightblue" stroke="midnightblue" points="1392.47,-163.49 1388.64,-153.61 1385.47,-163.72 1392.47,-163.49"/>
</g>
<!-- Node23 -->
<g id="node23" class="node">
<title>Node23</title>
<g id="a_node23"><a xlink:href="layout_8h.html" target="_top" xlink:title=" ">
<polygon fill="white" stroke="black" points="633,-302.5 633,-321.5 739,-321.5 739,-302.5 633,-302.5"/>
<text text-anchor="middle" x="686" y="-309.5" font-family="Helvetica,sans-Serif" font-size="10.00">log4cplus/layout.h</text>
</a>
</g>
</g>
<!-- Node22&#45;&gt;Node23 -->
<g id="edge30" class="edge">
<title>Node22&#45;&gt;Node23</title>
<path fill="none" stroke="midnightblue" d="M1223.92,-361.58C1110.36,-351.32 865.21,-329.18 749.24,-318.71"/>
<polygon fill="midnightblue" stroke="midnightblue" points="749.38,-315.21 739.1,-317.8 748.75,-322.18 749.38,-315.21"/>
</g>
<!-- Node24 -->
<g id="node24" class="node">
<title>Node24</title>
<g id="a_node24"><a xlink:href="loglevel_8h.html" target="_top" xlink:title="This header defines the LogLevel type.">
<polygon fill="white" stroke="black" points="843,-246.5 843,-265.5 957,-265.5 957,-246.5 843,-246.5"/>
<text text-anchor="middle" x="900" y="-253.5" font-family="Helvetica,sans-Serif" font-size="10.00">log4cplus/loglevel.h</text>
</a>
</g>
</g>
<!-- Node22&#45;&gt;Node24 -->
<g id="edge51" class="edge">
<title>Node22&#45;&gt;Node24</title>
<path fill="none" stroke="midnightblue" d="M1253.11,-358.47C1220.67,-349.5 1168.21,-334.91 1123,-322 1058.25,-303.51 983.08,-281.49 938.64,-268.4"/>
<polygon fill="midnightblue" stroke="midnightblue" points="939.42,-264.98 928.84,-265.52 937.44,-271.7 939.42,-264.98"/>
</g>
<!-- Node22&#45;&gt;Node26 -->
<g id="edge63" class="edge">
<title>Node22&#45;&gt;Node26</title>
<path fill="none" stroke="midnightblue" d="M1223.57,-366.22C1106.98,-363.99 843.14,-355.34 624,-322 517.85,-305.85 478.26,-325.68 389,-266 371.5,-254.3 358.29,-233.76 350.39,-218.9"/>
<polygon fill="midnightblue" stroke="midnightblue" points="353.39,-217.07 345.79,-209.69 347.13,-220.2 353.39,-217.07"/>
</g>
<!-- Node33 -->
<g id="node33" class="node">
<title>Node33</title>
<g id="a_node33"><a xlink:href="filter_8h.html" target="_top" xlink:title="This header defines Filter and all of it&#39;s subclasses.">
<polygon fill="white" stroke="black" points="1185,-302.5 1185,-321.5 1299,-321.5 1299,-302.5 1185,-302.5"/>
<text text-anchor="middle" x="1242" y="-309.5" font-family="Helvetica,sans-Serif" font-size="10.00">log4cplus/spi/filter.h</text>
</a>
</g>
</g>
<!-- Node22&#45;&gt;Node33 -->
<g id="edge54" class="edge">
<title>Node22&#45;&gt;Node33</title>
<path fill="none" stroke="midnightblue" d="M1277.06,-358.08C1271.07,-350.38 1262.25,-339.03 1254.95,-329.65"/>
<polygon fill="midnightblue" stroke="midnightblue" points="1257.71,-327.5 1248.81,-321.75 1252.18,-331.79 1257.71,-327.5"/>
</g>
<!-- Node34 -->
<g id="node34" class="node">
<title>Node34</title>
<g id="a_node34"><a xlink:href="lockfile_8h.html" target="_top" xlink:title=" ">
<polygon fill="white" stroke="black" points="1430.5,-246.5 1430.5,-265.5 1579.5,-265.5 1579.5,-246.5 1430.5,-246.5"/>
<text text-anchor="middle" x="1505" y="-253.5" font-family="Helvetica,sans-Serif" font-size="10.00">log4cplus/helpers/lockfile.h</text>
</a>
</g>
</g>
<!-- Node22&#45;&gt;Node34 -->
<g id="edge59" class="edge">
<title>Node22&#45;&gt;Node34</title>
<path fill="none" stroke="midnightblue" d="M1318.53,-358.49C1346.1,-350.96 1385.24,-338.59 1417,-322 1443.38,-308.22 1470.43,-286.96 1487.45,-272.54"/>
<polygon fill="midnightblue" stroke="midnightblue" points="1490.1,-274.88 1495.38,-265.69 1485.53,-269.58 1490.1,-274.88"/>
</g>
<!-- Node23&#45;&gt;Node2 -->
<g id="edge31" class="edge">
<title>Node23&#45;&gt;Node2</title>
<path fill="none" stroke="midnightblue" d="M675.34,-302.38C652.5,-282.8 602.42,-233.31 622,-190 641.45,-146.97 687.83,-114.4 717.19,-97.19"/>
<polygon fill="midnightblue" stroke="midnightblue" points="719.1,-100.13 726.07,-92.15 715.64,-94.04 719.1,-100.13"/>
</g>
<!-- Node23&#45;&gt;Node5 -->
<g id="edge43" class="edge">
<title>Node23&#45;&gt;Node5</title>
<path fill="none" stroke="midnightblue" d="M739.02,-308.35C810.04,-303.83 931.18,-292.4 966,-266 980.68,-254.87 988.42,-234.84 992.33,-219.94"/>
<polygon fill="midnightblue" stroke="midnightblue" points="995.83,-220.31 994.63,-209.79 989.01,-218.77 995.83,-220.31"/>
</g>
<!-- Node23&#45;&gt;Node24 -->
<g id="edge32" class="edge">
<title>Node23&#45;&gt;Node24</title>
<path fill="none" stroke="midnightblue" d="M719.91,-302.44C756.85,-293.12 816.05,-278.18 856.42,-268"/>
<polygon fill="midnightblue" stroke="midnightblue" points="857.41,-271.36 866.25,-265.52 855.7,-264.57 857.41,-271.36"/>
</g>
<!-- Node23&#45;&gt;Node25 -->
<g id="edge49" class="edge">
<title>Node23&#45;&gt;Node25</title>
<path fill="none" stroke="midnightblue" d="M632.82,-304.85C573.12,-297.51 473.56,-283.94 389,-266 315.47,-250.4 230.9,-225.49 185.31,-211.47"/>
<polygon fill="midnightblue" stroke="midnightblue" points="186.25,-208.09 175.66,-208.48 184.18,-214.78 186.25,-208.09"/>
</g>
<!-- Node23&#45;&gt;Node26 -->
<g id="edge50" class="edge">
<title>Node23&#45;&gt;Node26</title>
<path fill="none" stroke="midnightblue" d="M632.79,-309.28C578.66,-305.84 493.39,-295.69 426,-266 399.27,-254.22 373.46,-232.14 357.67,-217.01"/>
<polygon fill="midnightblue" stroke="midnightblue" points="359.95,-214.34 350.37,-209.82 355.04,-219.33 359.95,-214.34"/>
</g>
<!-- Node28 -->
<g id="node28" class="node">
<title>Node28</title>
<g id="a_node28"><a xlink:href="streams_8h.html" target="_top" xlink:title=" ">
<polygon fill="white" stroke="black" points="390.5,-190.5 390.5,-209.5 505.5,-209.5 505.5,-190.5 390.5,-190.5"/>
<text text-anchor="middle" x="448" y="-197.5" font-family="Helvetica,sans-Serif" font-size="10.00">log4cplus/streams.h</text>
</a>
</g>
</g>
<!-- Node23&#45;&gt;Node28 -->
<g id="edge39" class="edge">
<title>Node23&#45;&gt;Node28</title>
<path fill="none" stroke="midnightblue" d="M632.98,-309.12C567.42,-305.55 461.47,-295.29 437,-266 426.13,-253 431.52,-233.29 437.99,-218.99"/>
<polygon fill="midnightblue" stroke="midnightblue" points="441.29,-220.2 442.67,-209.7 435.05,-217.05 441.29,-220.2"/>
</g>
<!-- Node30 -->
<g id="node30" class="node">
<title>Node30</title>
<g id="a_node30"><a xlink:href="timehelper_8h.html" target="_top" xlink:title=" ">
<polygon fill="white" stroke="black" points="657.5,-246.5 657.5,-265.5 824.5,-265.5 824.5,-246.5 657.5,-246.5"/>
<text text-anchor="middle" x="741" y="-253.5" font-family="Helvetica,sans-Serif" font-size="10.00">log4cplus/helpers/timehelper.h</text>
</a>
</g>
</g>
<!-- Node23&#45;&gt;Node30 -->
<g id="edge44" class="edge">
<title>Node23&#45;&gt;Node30</title>
<path fill="none" stroke="midnightblue" d="M695.08,-302.08C703.17,-294.14 715.2,-282.34 724.91,-272.8"/>
<polygon fill="midnightblue" stroke="midnightblue" points="727.4,-275.25 732.09,-265.75 722.5,-270.26 727.4,-275.25"/>
</g>
<!-- Node24&#45;&gt;Node2 -->
<g id="edge33" class="edge">
<title>Node24&#45;&gt;Node2</title>
<path fill="none" stroke="midnightblue" d="M901.82,-246.42C904.17,-232.94 906.57,-206.64 894,-190 867.29,-154.63 836.92,-179.96 801,-154 781,-139.55 763.88,-116.6 753.53,-100.83"/>
<polygon fill="midnightblue" stroke="midnightblue" points="756.3,-98.66 747.99,-92.09 750.38,-102.41 756.3,-98.66"/>
</g>
<!-- Node24&#45;&gt;Node5 -->
<g id="edge37" class="edge">
<title>Node24&#45;&gt;Node5</title>
<path fill="none" stroke="midnightblue" d="M915.42,-246.32C930.54,-237.82 953.82,-224.73 971.47,-214.8"/>
<polygon fill="midnightblue" stroke="midnightblue" points="973.61,-217.61 980.61,-209.65 970.18,-211.51 973.61,-217.61"/>
</g>
<!-- Node24&#45;&gt;Node13 -->
<g id="edge38" class="edge">
<title>Node24&#45;&gt;Node13</title>
<path fill="none" stroke="midnightblue" d="M957.03,-247.32C1028.01,-237.76 1149.36,-221.42 1227.32,-210.92"/>
<polygon fill="midnightblue" stroke="midnightblue" points="1228.11,-214.35 1237.55,-209.54 1227.18,-207.41 1228.11,-214.35"/>
</g>
<!-- Node24&#45;&gt;Node25 -->
<g id="edge34" class="edge">
<title>Node24&#45;&gt;Node25</title>
<path fill="none" stroke="midnightblue" d="M842.79,-246.95C839.82,-246.61 836.88,-246.29 834,-246 769.19,-239.45 313.82,-211.03 185.55,-203.08"/>
<polygon fill="midnightblue" stroke="midnightblue" points="185.72,-199.58 175.53,-202.45 185.29,-206.57 185.72,-199.58"/>
</g>
<!-- Node24&#45;&gt;Node26 -->
<g id="edge35" class="edge">
<title>Node24&#45;&gt;Node26</title>
<path fill="none" stroke="midnightblue" d="M842.79,-247C839.82,-246.65 836.87,-246.31 834,-246 633.64,-224.38 581.25,-240.19 382,-210 381.78,-209.97 381.56,-209.93 381.34,-209.9"/>
<polygon fill="midnightblue" stroke="midnightblue" points="381.65,-206.4 371.18,-208.07 380.4,-213.29 381.65,-206.4"/>
</g>
<!-- Node27 -->
<g id="node27" class="node">
<title>Node27</title>
<g id="a_node27"><a xlink:title=" ">
<polygon fill="white" stroke="#bfbfbf" points="799,-190.5 799,-209.5 885,-209.5 885,-190.5 799,-190.5"/>
<text text-anchor="middle" x="842" y="-197.5" font-family="Helvetica,sans-Serif" font-size="10.00">shared_mutex</text>
</a>
</g>
</g>
<!-- Node24&#45;&gt;Node27 -->
<g id="edge36" class="edge">
<title>Node24&#45;&gt;Node27</title>
<path fill="none" stroke="midnightblue" d="M890.68,-246.32C882.11,-238.34 869.19,-226.31 858.81,-216.65"/>
<polygon fill="midnightblue" stroke="midnightblue" points="861.19,-214.09 851.49,-209.83 856.42,-219.21 861.19,-214.09"/>
</g>
<!-- Node28&#45;&gt;Node2 -->
<g id="edge40" class="edge">
<title>Node28&#45;&gt;Node2</title>
<path fill="none" stroke="midnightblue" d="M459.1,-190.37C477.31,-176.6 515.13,-149.6 551,-134 593.94,-115.33 645.38,-102.25 684.21,-94.09"/>
<polygon fill="midnightblue" stroke="midnightblue" points="685.2,-97.46 694.3,-92.02 683.8,-90.6 685.2,-97.46"/>
</g>
<!-- Node28&#45;&gt;Node10 -->
<g id="edge41" class="edge">
<title>Node28&#45;&gt;Node10</title>
<path fill="none" stroke="midnightblue" d="M448.17,-190.08C448.3,-183.01 448.48,-172.86 448.65,-163.99"/>
<polygon fill="midnightblue" stroke="midnightblue" points="452.15,-163.81 448.84,-153.75 445.15,-163.68 452.15,-163.81"/>
</g>
<!-- Node29 -->
<g id="node29" class="node">
<title>Node29</title>
<g id="a_node29"><a xlink:title=" ">
<polygon fill="white" stroke="#bfbfbf" points="333,-134.5 333,-153.5 381,-153.5 381,-134.5 333,-134.5"/>
<text text-anchor="middle" x="357" y="-141.5" font-family="Helvetica,sans-Serif" font-size="10.00">iosfwd</text>
</a>
</g>
</g>
<!-- Node28&#45;&gt;Node29 -->
<g id="edge42" class="edge">
<title>Node28&#45;&gt;Node29</title>
<path fill="none" stroke="midnightblue" d="M433.38,-190.32C419.05,-181.82 396.99,-168.73 380.25,-158.8"/>
<polygon fill="midnightblue" stroke="midnightblue" points="381.97,-155.75 371.58,-153.65 378.4,-161.77 381.97,-155.75"/>
</g>
<!-- Node30&#45;&gt;Node2 -->
<g id="edge45" class="edge">
<title>Node30&#45;&gt;Node2</title>
<path fill="none" stroke="midnightblue" d="M743.73,-246.49C746.45,-237.52 750.44,-222.94 752,-210 756.59,-171.88 750.75,-127 746.56,-102.25"/>
<polygon fill="midnightblue" stroke="midnightblue" points="749.95,-101.34 744.74,-92.12 743.06,-102.58 749.95,-101.34"/>
</g>
<!-- Node30&#45;&gt;Node5 -->
<g id="edge46" class="edge">
<title>Node30&#45;&gt;Node5</title>
<path fill="none" stroke="midnightblue" d="M781.41,-246.44C825.98,-237 897.77,-221.8 945.89,-211.61"/>
<polygon fill="midnightblue" stroke="midnightblue" points="946.73,-215.01 955.78,-209.52 945.28,-208.16 946.73,-215.01"/>
</g>
<!-- Node31 -->
<g id="node31" class="node">
<title>Node31</title>
<g id="a_node31"><a xlink:title=" ">
<polygon fill="white" stroke="#bfbfbf" points="631,-190.5 631,-209.5 675,-209.5 675,-190.5 631,-190.5"/>
<text text-anchor="middle" x="653" y="-197.5" font-family="Helvetica,sans-Serif" font-size="10.00">ctime</text>
</a>
</g>
</g>
<!-- Node30&#45;&gt;Node31 -->
<g id="edge47" class="edge">
<title>Node30&#45;&gt;Node31</title>
<path fill="none" stroke="midnightblue" d="M726.86,-246.32C713.13,-237.9 692.06,-224.97 675.94,-215.07"/>
<polygon fill="midnightblue" stroke="midnightblue" points="677.46,-211.9 667.1,-209.65 673.8,-217.87 677.46,-211.9"/>
</g>
<!-- Node32 -->
<g id="node32" class="node">
<title>Node32</title>
<g id="a_node32"><a xlink:title=" ">
<polygon fill="white" stroke="#bfbfbf" points="693,-190.5 693,-209.5 743,-209.5 743,-190.5 693,-190.5"/>
<text text-anchor="middle" x="718" y="-197.5" font-family="Helvetica,sans-Serif" font-size="10.00">chrono</text>
</a>
</g>
</g>
<!-- Node30&#45;&gt;Node32 -->
<g id="edge48" class="edge">
<title>Node30&#45;&gt;Node32</title>
<path fill="none" stroke="midnightblue" d="M737.2,-246.08C734.09,-238.77 729.58,-228.18 725.71,-219.1"/>
<polygon fill="midnightblue" stroke="midnightblue" points="728.87,-217.58 721.73,-209.75 722.43,-220.32 728.87,-217.58"/>
</g>
<!-- Node33&#45;&gt;Node2 -->
<g id="edge55" class="edge">
<title>Node33&#45;&gt;Node2</title>
<path fill="none" stroke="midnightblue" d="M1263.41,-302.44C1323.38,-277.35 1484.62,-201.45 1422,-134 1381.08,-89.92 976.03,-84.01 811.72,-83.44"/>
<polygon fill="midnightblue" stroke="midnightblue" points="811.26,-79.94 801.25,-83.41 811.24,-86.94 811.26,-79.94"/>
</g>
<!-- Node33&#45;&gt;Node7 -->
<g id="edge56" class="edge">
<title>Node33&#45;&gt;Node7</title>
<path fill="none" stroke="midnightblue" d="M1235.55,-302.08C1216.33,-275.49 1159.26,-196.54 1134.12,-161.76"/>
<polygon fill="midnightblue" stroke="midnightblue" points="1136.89,-159.62 1128.19,-153.57 1131.22,-163.72 1136.89,-159.62"/>
</g>
<!-- Node33&#45;&gt;Node13 -->
<g id="edge57" class="edge">
<title>Node33&#45;&gt;Node13</title>
<path fill="none" stroke="midnightblue" d="M1246.33,-302.09C1252.5,-289.49 1264.26,-265.8 1275,-246 1280.01,-236.76 1285.84,-226.62 1290.71,-218.31"/>
<polygon fill="midnightblue" stroke="midnightblue" points="1293.81,-219.94 1295.88,-209.55 1287.78,-216.38 1293.81,-219.94"/>
</g>
<!-- Node33&#45;&gt;Node24 -->
<g id="edge58" class="edge">
<title>Node33&#45;&gt;Node24</title>
<path fill="none" stroke="midnightblue" d="M1187.81,-302.44C1127.02,-292.85 1028.51,-277.29 963.99,-267.1"/>
<polygon fill="midnightblue" stroke="midnightblue" points="964.36,-263.62 953.94,-265.52 963.27,-270.53 964.36,-263.62"/>
</g>
<!-- Node34&#45;&gt;Node2 -->
<g id="edge60" class="edge">
<title>Node34&#45;&gt;Node2</title>
<path fill="none" stroke="midnightblue" d="M1504.4,-246.42C1502.3,-223.65 1493.16,-161.52 1455,-134 1403.59,-96.92 979.6,-86.85 811.39,-84.31"/>
<polygon fill="midnightblue" stroke="midnightblue" points="811.21,-80.8 801.16,-84.16 811.11,-87.8 811.21,-80.8"/>
</g>
<!-- Node34&#45;&gt;Node5 -->
<g id="edge61" class="edge">
<title>Node34&#45;&gt;Node5</title>
<path fill="none" stroke="midnightblue" d="M1430.44,-247.09C1330.27,-236.46 1153.94,-217.76 1059.67,-207.75"/>
<polygon fill="midnightblue" stroke="midnightblue" points="1060.01,-204.27 1049.7,-206.7 1059.27,-211.23 1060.01,-204.27"/>
</g>
<!-- Node34&#45;&gt;Node14 -->
<g id="edge62" class="edge">
<title>Node34&#45;&gt;Node14</title>
<path fill="none" stroke="midnightblue" d="M1514.42,-246.37C1534.66,-227.81 1582.55,-183.91 1608.16,-160.44"/>
<polygon fill="midnightblue" stroke="midnightblue" points="1610.62,-162.93 1615.63,-153.59 1605.89,-157.77 1610.62,-162.93"/>
</g>
<!-- Node35&#45;&gt;Node2 -->
<g id="edge75" class="edge">
<title>Node35&#45;&gt;Node2</title>
<path fill="none" stroke="midnightblue" d="M526.25,-246.24C532.39,-224.1 551.53,-165.39 589,-134 613.21,-113.71 645.81,-101.51 674.77,-94.2"/>
<polygon fill="midnightblue" stroke="midnightblue" points="675.92,-97.52 684.85,-91.81 674.31,-90.71 675.92,-97.52"/>
</g>
<!-- Node35&#45;&gt;Node5 -->
<g id="edge76" class="edge">
<title>Node35&#45;&gt;Node5</title>
<path fill="none" stroke="midnightblue" d="M598.53,-246.47C690.61,-235.94 845.7,-218.2 932.42,-208.27"/>
<polygon fill="midnightblue" stroke="midnightblue" points="932.86,-211.75 942.39,-207.13 932.06,-204.79 932.86,-211.75"/>
</g>
</g>
</svg>
