<?xml version="1.0" encoding="UTF-8" standalone="no"?>
<!DOCTYPE svg PUBLIC "-//W3C//DTD SVG 1.1//EN"
 "http://www.w3.org/Graphics/SVG/1.1/DTD/svg11.dtd">
<!-- Generated by graphviz version 2.43.0 (0)
 -->
<!-- Title: loggingevent.h Pages: 1 -->
<svg width="1569pt" height="330pt"
 viewBox="0.00 0.00 1568.50 330.00" xmlns="http://www.w3.org/2000/svg" xmlns:xlink="http://www.w3.org/1999/xlink">
<g id="graph0" class="graph" transform="scale(1 1) rotate(0) translate(4 326)">
<title>loggingevent.h</title>
<polygon fill="white" stroke="transparent" points="-4,4 -4,-326 1564.5,-326 1564.5,4 -4,4"/>
<!-- Node1 -->
<g id="node1" class="node">
<title>Node1</title>
<g id="a_node1"><a xlink:title=" ">
<polygon fill="#bfbfbf" stroke="black" points="832,-302.5 832,-321.5 921,-321.5 921,-302.5 832,-302.5"/>
<text text-anchor="middle" x="876.5" y="-309.5" font-family="Helvetica,sans-Serif" font-size="10.00">loggingevent.h</text>
</a>
</g>
</g>
<!-- Node2 -->
<g id="node2" class="node">
<title>Node2</title>
<g id="a_node2"><a xlink:href="config_8hxx.html" target="_top" xlink:title=" ">
<polygon fill="white" stroke="black" points="730.5,-73 730.5,-92 846.5,-92 846.5,-73 730.5,-73"/>
<text text-anchor="middle" x="788.5" y="-80" font-family="Helvetica,sans-Serif" font-size="10.00">log4cplus/config.hxx</text>
</a>
</g>
</g>
<!-- Node1&#45;&gt;Node2 -->
<g id="edge1" class="edge">
<title>Node1&#45;&gt;Node2</title>
<path fill="none" stroke="midnightblue" d="M872.13,-302.34C860.45,-278.9 827.98,-212.13 807.5,-154 801.45,-136.83 796.21,-116.74 792.77,-102.41"/>
<polygon fill="midnightblue" stroke="midnightblue" points="796.1,-101.26 790.42,-92.31 789.28,-102.85 796.1,-101.26"/>
</g>
<!-- Node5 -->
<g id="node5" class="node">
<title>Node5</title>
<g id="a_node5"><a xlink:title=" ">
<polygon fill="white" stroke="#bfbfbf" points="479.5,-190.5 479.5,-209.5 537.5,-209.5 537.5,-190.5 479.5,-190.5"/>
<text text-anchor="middle" x="508.5" y="-197.5" font-family="Helvetica,sans-Serif" font-size="10.00">memory</text>
</a>
</g>
</g>
<!-- Node1&#45;&gt;Node5 -->
<g id="edge4" class="edge">
<title>Node1&#45;&gt;Node5</title>
<path fill="none" stroke="midnightblue" d="M831.76,-305.14C785.8,-298.41 712.54,-285.69 651.5,-266 608.55,-252.15 561.37,-229.04 533.38,-214.44"/>
<polygon fill="midnightblue" stroke="midnightblue" points="534.79,-211.22 524.32,-209.65 531.53,-217.42 534.79,-211.22"/>
</g>
<!-- Node6 -->
<g id="node6" class="node">
<title>Node6</title>
<g id="a_node6"><a xlink:href="loglevel_8h.html" target="_top" xlink:title="This header defines the LogLevel type.">
<polygon fill="white" stroke="black" points="451.5,-246.5 451.5,-265.5 565.5,-265.5 565.5,-246.5 451.5,-246.5"/>
<text text-anchor="middle" x="508.5" y="-253.5" font-family="Helvetica,sans-Serif" font-size="10.00">log4cplus/loglevel.h</text>
</a>
</g>
</g>
<!-- Node1&#45;&gt;Node6 -->
<g id="edge5" class="edge">
<title>Node1&#45;&gt;Node6</title>
<path fill="none" stroke="midnightblue" d="M831.74,-304.43C767.9,-295.06 650.18,-277.79 575.8,-266.88"/>
<polygon fill="midnightblue" stroke="midnightblue" points="576,-263.37 565.6,-265.38 574.98,-270.29 576,-263.37"/>
</g>
<!-- Node9 -->
<g id="node9" class="node">
<title>Node9</title>
<g id="a_node9"><a xlink:href="tstring_8h.html" target="_top" xlink:title=" ">
<polygon fill="white" stroke="black" points="864,-190.5 864,-209.5 971,-209.5 971,-190.5 864,-190.5"/>
<text text-anchor="middle" x="917.5" y="-197.5" font-family="Helvetica,sans-Serif" font-size="10.00">log4cplus/tstring.h</text>
</a>
</g>
</g>
<!-- Node1&#45;&gt;Node9 -->
<g id="edge42" class="edge">
<title>Node1&#45;&gt;Node9</title>
<path fill="none" stroke="midnightblue" d="M879.72,-302.37C886.36,-284.54 901.74,-243.3 910.69,-219.27"/>
<polygon fill="midnightblue" stroke="midnightblue" points="914.08,-220.18 914.3,-209.59 907.53,-217.74 914.08,-220.18"/>
</g>
<!-- Node24 -->
<g id="node24" class="node">
<title>Node24</title>
<g id="a_node24"><a xlink:href="ndc_8h.html" target="_top" xlink:title="This header defined the NDC class.">
<polygon fill="white" stroke="black" points="953.5,-246.5 953.5,-265.5 1045.5,-265.5 1045.5,-246.5 953.5,-246.5"/>
<text text-anchor="middle" x="999.5" y="-253.5" font-family="Helvetica,sans-Serif" font-size="10.00">log4cplus/ndc.h</text>
</a>
</g>
</g>
<!-- Node1&#45;&gt;Node24 -->
<g id="edge29" class="edge">
<title>Node1&#45;&gt;Node24</title>
<path fill="none" stroke="midnightblue" d="M895.99,-302.44C916.14,-293.6 947.82,-279.69 970.83,-269.59"/>
<polygon fill="midnightblue" stroke="midnightblue" points="972.35,-272.74 980.1,-265.52 969.54,-266.33 972.35,-272.74"/>
</g>
<!-- Node27 -->
<g id="node27" class="node">
<title>Node27</title>
<g id="a_node27"><a xlink:href="mdc_8h.html" target="_top" xlink:title=" ">
<polygon fill="white" stroke="black" points="1105.5,-246.5 1105.5,-265.5 1201.5,-265.5 1201.5,-246.5 1105.5,-246.5"/>
<text text-anchor="middle" x="1153.5" y="-253.5" font-family="Helvetica,sans-Serif" font-size="10.00">log4cplus/mdc.h</text>
</a>
</g>
</g>
<!-- Node1&#45;&gt;Node27 -->
<g id="edge34" class="edge">
<title>Node1&#45;&gt;Node27</title>
<path fill="none" stroke="midnightblue" d="M920.39,-302.44C969.02,-292.96 1047.45,-277.67 1099.72,-267.48"/>
<polygon fill="midnightblue" stroke="midnightblue" points="1100.67,-270.87 1109.81,-265.52 1099.33,-263.99 1100.67,-270.87"/>
</g>
<!-- Node30 -->
<g id="node30" class="node">
<title>Node30</title>
<g id="a_node30"><a xlink:href="timehelper_8h.html" target="_top" xlink:title=" ">
<polygon fill="white" stroke="black" points="1352,-246.5 1352,-265.5 1519,-265.5 1519,-246.5 1352,-246.5"/>
<text text-anchor="middle" x="1435.5" y="-253.5" font-family="Helvetica,sans-Serif" font-size="10.00">log4cplus/helpers/timehelper.h</text>
</a>
</g>
</g>
<!-- Node1&#45;&gt;Node30 -->
<g id="edge43" class="edge">
<title>Node1&#45;&gt;Node30</title>
<path fill="none" stroke="midnightblue" d="M921.3,-306.67C1012.14,-297.9 1219.73,-277.84 1341.55,-266.08"/>
<polygon fill="midnightblue" stroke="midnightblue" points="1342,-269.55 1351.61,-265.1 1341.32,-262.58 1342,-269.55"/>
</g>
<!-- Node33 -->
<g id="node33" class="node">
<title>Node33</title>
<g id="a_node33"><a xlink:href="threads_8h.html" target="_top" xlink:title=" ">
<polygon fill="white" stroke="black" points="660.5,-246.5 660.5,-265.5 806.5,-265.5 806.5,-246.5 660.5,-246.5"/>
<text text-anchor="middle" x="733.5" y="-253.5" font-family="Helvetica,sans-Serif" font-size="10.00">log4cplus/thread/threads.h</text>
</a>
</g>
</g>
<!-- Node1&#45;&gt;Node33 -->
<g id="edge48" class="edge">
<title>Node1&#45;&gt;Node33</title>
<path fill="none" stroke="midnightblue" d="M853.84,-302.44C830.1,-293.48 792.59,-279.31 765.76,-269.18"/>
<polygon fill="midnightblue" stroke="midnightblue" points="766.64,-265.77 756.05,-265.52 764.17,-272.32 766.64,-265.77"/>
</g>
<!-- Node3 -->
<g id="node3" class="node">
<title>Node3</title>
<g id="a_node3"><a xlink:href="win32_8h.html" target="_top" xlink:title=" ">
<polygon fill="white" stroke="black" points="642,-6 642,-25 779,-25 779,-6 642,-6"/>
<text text-anchor="middle" x="710.5" y="-13" font-family="Helvetica,sans-Serif" font-size="10.00">log4cplus/config/win32.h</text>
</a>
</g>
</g>
<!-- Node2&#45;&gt;Node3 -->
<g id="edge2" class="edge">
<title>Node2&#45;&gt;Node3</title>
<path fill="none" stroke="midnightblue" d="M777.98,-72.73C765.35,-62.21 743.96,-44.38 728.64,-31.62"/>
<polygon fill="midnightblue" stroke="midnightblue" points="730.78,-28.84 720.85,-25.13 726.29,-34.22 730.78,-28.84"/>
</g>
<!-- Node4 -->
<g id="node4" class="node">
<title>Node4</title>
<g id="a_node4"><a xlink:href="thread-config_8h.html" target="_top" xlink:title=" ">
<polygon fill="white" stroke="black" points="797,-0.5 797,-30.5 934,-30.5 934,-0.5 797,-0.5"/>
<text text-anchor="start" x="805" y="-18.5" font-family="Helvetica,sans-Serif" font-size="10.00">log4cplus/helpers/thread</text>
<text text-anchor="middle" x="865.5" y="-7.5" font-family="Helvetica,sans-Serif" font-size="10.00">&#45;config.h</text>
</a>
</g>
</g>
<!-- Node2&#45;&gt;Node4 -->
<g id="edge3" class="edge">
<title>Node2&#45;&gt;Node4</title>
<path fill="none" stroke="midnightblue" d="M798.88,-72.73C809.59,-63.7 826.68,-49.27 840.86,-37.3"/>
<polygon fill="midnightblue" stroke="midnightblue" points="843.43,-39.71 848.81,-30.59 838.91,-34.37 843.43,-39.71"/>
</g>
<!-- Node6&#45;&gt;Node2 -->
<g id="edge6" class="edge">
<title>Node6&#45;&gt;Node2</title>
<path fill="none" stroke="midnightblue" d="M451.29,-250.55C396.39,-244.94 319.15,-233.11 300.5,-210 294.92,-203.08 295.4,-197.28 300.5,-190 348.16,-121.95 597.87,-96.11 720.46,-87.41"/>
<polygon fill="midnightblue" stroke="midnightblue" points="720.76,-90.9 730.49,-86.71 720.28,-83.91 720.76,-90.9"/>
</g>
<!-- Node6&#45;&gt;Node5 -->
<g id="edge8" class="edge">
<title>Node6&#45;&gt;Node5</title>
<path fill="none" stroke="midnightblue" d="M508.5,-246.08C508.5,-239.01 508.5,-228.86 508.5,-219.99"/>
<polygon fill="midnightblue" stroke="midnightblue" points="512,-219.75 508.5,-209.75 505,-219.75 512,-219.75"/>
</g>
<!-- Node7 -->
<g id="node7" class="node">
<title>Node7</title>
<g id="a_node7"><a xlink:title=" ">
<polygon fill="white" stroke="#bfbfbf" points="310,-190.5 310,-209.5 357,-209.5 357,-190.5 310,-190.5"/>
<text text-anchor="middle" x="333.5" y="-197.5" font-family="Helvetica,sans-Serif" font-size="10.00">vector</text>
</a>
</g>
</g>
<!-- Node6&#45;&gt;Node7 -->
<g id="edge7" class="edge">
<title>Node6&#45;&gt;Node7</title>
<path fill="none" stroke="midnightblue" d="M480.77,-246.44C449.85,-236.9 399.86,-221.48 366.84,-211.29"/>
<polygon fill="midnightblue" stroke="midnightblue" points="367.76,-207.91 357.17,-208.3 365.69,-214.6 367.76,-207.91"/>
</g>
<!-- Node8 -->
<g id="node8" class="node">
<title>Node8</title>
<g id="a_node8"><a xlink:title=" ">
<polygon fill="white" stroke="#bfbfbf" points="375.5,-190.5 375.5,-209.5 461.5,-209.5 461.5,-190.5 375.5,-190.5"/>
<text text-anchor="middle" x="418.5" y="-197.5" font-family="Helvetica,sans-Serif" font-size="10.00">shared_mutex</text>
</a>
</g>
</g>
<!-- Node6&#45;&gt;Node8 -->
<g id="edge9" class="edge">
<title>Node6&#45;&gt;Node8</title>
<path fill="none" stroke="midnightblue" d="M494.04,-246.32C480,-237.9 458.45,-224.97 441.96,-215.07"/>
<polygon fill="midnightblue" stroke="midnightblue" points="443.3,-211.8 432.92,-209.65 439.7,-217.8 443.3,-211.8"/>
</g>
<!-- Node6&#45;&gt;Node9 -->
<g id="edge10" class="edge">
<title>Node6&#45;&gt;Node9</title>
<path fill="none" stroke="midnightblue" d="M565.8,-247.43C641.55,-237.43 774.6,-219.87 853.54,-209.44"/>
<polygon fill="midnightblue" stroke="midnightblue" points="854.38,-212.86 863.84,-208.08 853.47,-205.92 854.38,-212.86"/>
</g>
<!-- Node16 -->
<g id="node16" class="node">
<title>Node16</title>
<g id="a_node16"><a xlink:href="pointer_8h.html" target="_top" xlink:title=" ">
<polygon fill="white" stroke="black" points="555.5,-190.5 555.5,-209.5 703.5,-209.5 703.5,-190.5 555.5,-190.5"/>
<text text-anchor="middle" x="629.5" y="-197.5" font-family="Helvetica,sans-Serif" font-size="10.00">log4cplus/helpers/pointer.h</text>
</a>
</g>
</g>
<!-- Node6&#45;&gt;Node16 -->
<g id="edge19" class="edge">
<title>Node6&#45;&gt;Node16</title>
<path fill="none" stroke="midnightblue" d="M527.67,-246.44C547.41,-237.64 578.39,-223.81 600.99,-213.72"/>
<polygon fill="midnightblue" stroke="midnightblue" points="602.71,-216.79 610.42,-209.52 599.86,-210.4 602.71,-216.79"/>
</g>
<!-- Node9&#45;&gt;Node2 -->
<g id="edge11" class="edge">
<title>Node9&#45;&gt;Node2</title>
<path fill="none" stroke="midnightblue" d="M890.5,-190.39C871.14,-183.14 845.4,-171.17 827.5,-154 812.24,-139.37 801.41,-117.44 795.09,-101.93"/>
<polygon fill="midnightblue" stroke="midnightblue" points="798.28,-100.48 791.44,-92.39 791.75,-102.98 798.28,-100.48"/>
</g>
<!-- Node10 -->
<g id="node10" class="node">
<title>Node10</title>
<g id="a_node10"><a xlink:title=" ">
<polygon fill="white" stroke="#bfbfbf" points="836,-134.5 836,-153.5 905,-153.5 905,-134.5 836,-134.5"/>
<text text-anchor="middle" x="870.5" y="-141.5" font-family="Helvetica,sans-Serif" font-size="10.00">type_traits</text>
</a>
</g>
</g>
<!-- Node9&#45;&gt;Node10 -->
<g id="edge12" class="edge">
<title>Node9&#45;&gt;Node10</title>
<path fill="none" stroke="midnightblue" d="M909.74,-190.08C902.96,-182.3 892.96,-170.8 884.74,-161.37"/>
<polygon fill="midnightblue" stroke="midnightblue" points="887.32,-159 878.12,-153.75 882.04,-163.59 887.32,-159"/>
</g>
<!-- Node11 -->
<g id="node11" class="node">
<title>Node11</title>
<g id="a_node11"><a xlink:title=" ">
<polygon fill="white" stroke="#bfbfbf" points="1194,-134.5 1194,-153.5 1259,-153.5 1259,-134.5 1194,-134.5"/>
<text text-anchor="middle" x="1226.5" y="-141.5" font-family="Helvetica,sans-Serif" font-size="10.00">functional</text>
</a>
</g>
</g>
<!-- Node9&#45;&gt;Node11 -->
<g id="edge13" class="edge">
<title>Node9&#45;&gt;Node11</title>
<path fill="none" stroke="midnightblue" d="M971.03,-190.81C1023.01,-182.69 1104.38,-169.49 1183.69,-154.28"/>
<polygon fill="midnightblue" stroke="midnightblue" points="1184.7,-157.65 1193.86,-152.32 1183.37,-150.78 1184.7,-157.65"/>
</g>
<!-- Node12 -->
<g id="node12" class="node">
<title>Node12</title>
<g id="a_node12"><a xlink:title=" ">
<polygon fill="white" stroke="#bfbfbf" points="923.5,-134.5 923.5,-153.5 967.5,-153.5 967.5,-134.5 923.5,-134.5"/>
<text text-anchor="middle" x="945.5" y="-141.5" font-family="Helvetica,sans-Serif" font-size="10.00">string</text>
</a>
</g>
</g>
<!-- Node9&#45;&gt;Node12 -->
<g id="edge14" class="edge">
<title>Node9&#45;&gt;Node12</title>
<path fill="none" stroke="midnightblue" d="M922.12,-190.08C925.96,-182.69 931.52,-171.95 936.26,-162.81"/>
<polygon fill="midnightblue" stroke="midnightblue" points="939.47,-164.24 940.96,-153.75 933.25,-161.02 939.47,-164.24"/>
</g>
<!-- Node13 -->
<g id="node13" class="node">
<title>Node13</title>
<g id="a_node13"><a xlink:title=" ">
<polygon fill="white" stroke="#bfbfbf" points="986,-134.5 986,-153.5 1059,-153.5 1059,-134.5 986,-134.5"/>
<text text-anchor="middle" x="1022.5" y="-141.5" font-family="Helvetica,sans-Serif" font-size="10.00">string_view</text>
</a>
</g>
</g>
<!-- Node9&#45;&gt;Node13 -->
<g id="edge15" class="edge">
<title>Node9&#45;&gt;Node13</title>
<path fill="none" stroke="midnightblue" d="M934.37,-190.32C951.21,-181.66 977.31,-168.24 996.74,-158.25"/>
<polygon fill="midnightblue" stroke="midnightblue" points="998.38,-161.34 1005.67,-153.65 995.18,-155.12 998.38,-161.34"/>
</g>
<!-- Node14 -->
<g id="node14" class="node">
<title>Node14</title>
<g id="a_node14"><a xlink:href="tchar_8h.html" target="_top" xlink:title=" ">
<polygon fill="white" stroke="black" points="1077,-134.5 1077,-153.5 1176,-153.5 1176,-134.5 1077,-134.5"/>
<text text-anchor="middle" x="1126.5" y="-141.5" font-family="Helvetica,sans-Serif" font-size="10.00">log4cplus/tchar.h</text>
</a>
</g>
</g>
<!-- Node9&#45;&gt;Node14 -->
<g id="edge16" class="edge">
<title>Node9&#45;&gt;Node14</title>
<path fill="none" stroke="midnightblue" d="M950.62,-190.44C986.62,-181.14 1044.27,-166.25 1083.69,-156.06"/>
<polygon fill="midnightblue" stroke="midnightblue" points="1084.73,-159.41 1093.54,-153.52 1082.98,-152.63 1084.73,-159.41"/>
</g>
<!-- Node14&#45;&gt;Node2 -->
<g id="edge17" class="edge">
<title>Node14&#45;&gt;Node2</title>
<path fill="none" stroke="midnightblue" d="M1078.07,-134.48C1017.08,-123.74 912.37,-105.31 846.98,-93.79"/>
<polygon fill="midnightblue" stroke="midnightblue" points="847.29,-90.3 836.84,-92.01 846.08,-97.19 847.29,-90.3"/>
</g>
<!-- Node15 -->
<g id="node15" class="node">
<title>Node15</title>
<g id="a_node15"><a xlink:title=" ">
<polygon fill="white" stroke="#bfbfbf" points="1100,-73 1100,-92 1153,-92 1153,-73 1100,-73"/>
<text text-anchor="middle" x="1126.5" y="-80" font-family="Helvetica,sans-Serif" font-size="10.00">cstddef</text>
</a>
</g>
</g>
<!-- Node14&#45;&gt;Node15 -->
<g id="edge18" class="edge">
<title>Node14&#45;&gt;Node15</title>
<path fill="none" stroke="midnightblue" d="M1126.5,-134.48C1126.5,-126.08 1126.5,-112.98 1126.5,-102.16"/>
<polygon fill="midnightblue" stroke="midnightblue" points="1130,-102.01 1126.5,-92.01 1123,-102.01 1130,-102.01"/>
</g>
<!-- Node16&#45;&gt;Node2 -->
<g id="edge20" class="edge">
<title>Node16&#45;&gt;Node2</title>
<path fill="none" stroke="midnightblue" d="M626.76,-190.42C623.02,-176.96 618.12,-150.68 630.5,-134 651.26,-106.02 687.69,-93.21 720.34,-87.48"/>
<polygon fill="midnightblue" stroke="midnightblue" points="720.99,-90.92 730.33,-85.92 719.91,-84 720.99,-90.92"/>
</g>
<!-- Node17 -->
<g id="node17" class="node">
<title>Node17</title>
<g id="a_node17"><a xlink:href="syncprims_8h.html" target="_top" xlink:title=" ">
<polygon fill="white" stroke="black" points="93.5,-134.5 93.5,-153.5 253.5,-153.5 253.5,-134.5 93.5,-134.5"/>
<text text-anchor="middle" x="173.5" y="-141.5" font-family="Helvetica,sans-Serif" font-size="10.00">log4cplus/thread/syncprims.h</text>
</a>
</g>
</g>
<!-- Node16&#45;&gt;Node17 -->
<g id="edge21" class="edge">
<title>Node16&#45;&gt;Node17</title>
<path fill="none" stroke="midnightblue" d="M557.5,-190.47C475.42,-180.75 341.52,-164.9 255.49,-154.71"/>
<polygon fill="midnightblue" stroke="midnightblue" points="255.84,-151.23 245.5,-153.53 255.02,-158.18 255.84,-151.23"/>
</g>
<!-- Node21 -->
<g id="node21" class="node">
<title>Node21</title>
<g id="a_node21"><a xlink:title=" ">
<polygon fill="white" stroke="#bfbfbf" points="639.5,-134.5 639.5,-153.5 703.5,-153.5 703.5,-134.5 639.5,-134.5"/>
<text text-anchor="middle" x="671.5" y="-141.5" font-family="Helvetica,sans-Serif" font-size="10.00">algorithm</text>
</a>
</g>
</g>
<!-- Node16&#45;&gt;Node21 -->
<g id="edge26" class="edge">
<title>Node16&#45;&gt;Node21</title>
<path fill="none" stroke="midnightblue" d="M636.44,-190.08C642.43,-182.38 651.25,-171.03 658.55,-161.65"/>
<polygon fill="midnightblue" stroke="midnightblue" points="661.32,-163.79 664.69,-153.75 655.79,-159.5 661.32,-163.79"/>
</g>
<!-- Node22 -->
<g id="node22" class="node">
<title>Node22</title>
<g id="a_node22"><a xlink:title=" ">
<polygon fill="white" stroke="#bfbfbf" points="463.5,-134.5 463.5,-153.5 515.5,-153.5 515.5,-134.5 463.5,-134.5"/>
<text text-anchor="middle" x="489.5" y="-141.5" font-family="Helvetica,sans-Serif" font-size="10.00">cassert</text>
</a>
</g>
</g>
<!-- Node16&#45;&gt;Node22 -->
<g id="edge27" class="edge">
<title>Node16&#45;&gt;Node22</title>
<path fill="none" stroke="midnightblue" d="M607.32,-190.44C584.07,-181.48 547.35,-167.31 521.08,-157.18"/>
<polygon fill="midnightblue" stroke="midnightblue" points="522.17,-153.85 511.58,-153.52 519.65,-160.38 522.17,-153.85"/>
</g>
<!-- Node23 -->
<g id="node23" class="node">
<title>Node23</title>
<g id="a_node23"><a xlink:title=" ">
<polygon fill="white" stroke="#bfbfbf" points="533.5,-134.5 533.5,-153.5 583.5,-153.5 583.5,-134.5 533.5,-134.5"/>
<text text-anchor="middle" x="558.5" y="-141.5" font-family="Helvetica,sans-Serif" font-size="10.00">atomic</text>
</a>
</g>
</g>
<!-- Node16&#45;&gt;Node23 -->
<g id="edge28" class="edge">
<title>Node16&#45;&gt;Node23</title>
<path fill="none" stroke="midnightblue" d="M618.09,-190.32C607.39,-182.18 591.16,-169.84 578.34,-160.09"/>
<polygon fill="midnightblue" stroke="midnightblue" points="580.19,-157.1 570.11,-153.83 575.96,-162.67 580.19,-157.1"/>
</g>
<!-- Node17&#45;&gt;Node2 -->
<g id="edge22" class="edge">
<title>Node17&#45;&gt;Node2</title>
<path fill="none" stroke="midnightblue" d="M253.59,-135.25C375.47,-123.46 605.44,-101.21 720.02,-90.13"/>
<polygon fill="midnightblue" stroke="midnightblue" points="720.46,-93.6 730.07,-89.15 719.78,-86.63 720.46,-93.6"/>
</g>
<!-- Node18 -->
<g id="node18" class="node">
<title>Node18</title>
<g id="a_node18"><a xlink:title=" ">
<polygon fill="white" stroke="#bfbfbf" points="149.5,-73 149.5,-92 197.5,-92 197.5,-73 149.5,-73"/>
<text text-anchor="middle" x="173.5" y="-80" font-family="Helvetica,sans-Serif" font-size="10.00">mutex</text>
</a>
</g>
</g>
<!-- Node17&#45;&gt;Node18 -->
<g id="edge23" class="edge">
<title>Node17&#45;&gt;Node18</title>
<path fill="none" stroke="midnightblue" d="M173.5,-134.48C173.5,-126.08 173.5,-112.98 173.5,-102.16"/>
<polygon fill="midnightblue" stroke="midnightblue" points="177,-102.01 173.5,-92.01 170,-102.01 177,-102.01"/>
</g>
<!-- Node19 -->
<g id="node19" class="node">
<title>Node19</title>
<g id="a_node19"><a xlink:title=" ">
<polygon fill="white" stroke="#bfbfbf" points="216,-73 216,-92 323,-92 323,-73 216,-73"/>
<text text-anchor="middle" x="269.5" y="-80" font-family="Helvetica,sans-Serif" font-size="10.00">condition_variable</text>
</a>
</g>
</g>
<!-- Node17&#45;&gt;Node19 -->
<g id="edge24" class="edge">
<title>Node17&#45;&gt;Node19</title>
<path fill="none" stroke="midnightblue" d="M187.25,-134.48C202.87,-124.8 228.56,-108.87 247.08,-97.39"/>
<polygon fill="midnightblue" stroke="midnightblue" points="249.12,-100.25 255.77,-92.01 245.43,-94.3 249.12,-100.25"/>
</g>
<!-- Node20 -->
<g id="node20" class="node">
<title>Node20</title>
<g id="a_node20"><a xlink:href="threadsafetyanalysis_8h.html" target="_top" xlink:title=" ">
<polygon fill="white" stroke="black" points="0,-67.5 0,-97.5 131,-97.5 131,-67.5 0,-67.5"/>
<text text-anchor="start" x="8" y="-85.5" font-family="Helvetica,sans-Serif" font-size="10.00">log4cplus/internal</text>
<text text-anchor="middle" x="65.5" y="-74.5" font-family="Helvetica,sans-Serif" font-size="10.00">/threadsafetyanalysis.h</text>
</a>
</g>
</g>
<!-- Node17&#45;&gt;Node20 -->
<g id="edge25" class="edge">
<title>Node17&#45;&gt;Node20</title>
<path fill="none" stroke="midnightblue" d="M158.03,-134.48C142.92,-126.15 119.42,-113.21 99.89,-102.45"/>
<polygon fill="midnightblue" stroke="midnightblue" points="101.4,-99.28 90.95,-97.52 98.02,-105.41 101.4,-99.28"/>
</g>
<!-- Node24&#45;&gt;Node2 -->
<g id="edge30" class="edge">
<title>Node24&#45;&gt;Node2</title>
<path fill="none" stroke="midnightblue" d="M999.28,-246.29C999.44,-232.15 1001.98,-204.33 1018.5,-190 1104.5,-115.37 1344.69,-218.62 1268.5,-134 1241.47,-103.98 982.82,-90.53 856.82,-85.72"/>
<polygon fill="midnightblue" stroke="midnightblue" points="856.64,-82.21 846.52,-85.34 856.38,-89.21 856.64,-82.21"/>
</g>
<!-- Node24&#45;&gt;Node9 -->
<g id="edge31" class="edge">
<title>Node24&#45;&gt;Node9</title>
<path fill="none" stroke="midnightblue" d="M986.33,-246.32C973.65,-237.98 954.27,-225.21 939.29,-215.35"/>
<polygon fill="midnightblue" stroke="midnightblue" points="940.92,-212.23 930.64,-209.65 937.07,-218.08 940.92,-212.23"/>
</g>
<!-- Node25 -->
<g id="node25" class="node">
<title>Node25</title>
<g id="a_node25"><a xlink:title=" ">
<polygon fill="white" stroke="#bfbfbf" points="1027.5,-190.5 1027.5,-209.5 1065.5,-209.5 1065.5,-190.5 1027.5,-190.5"/>
<text text-anchor="middle" x="1046.5" y="-197.5" font-family="Helvetica,sans-Serif" font-size="10.00">map</text>
</a>
</g>
</g>
<!-- Node24&#45;&gt;Node25 -->
<g id="edge32" class="edge">
<title>Node24&#45;&gt;Node25</title>
<path fill="none" stroke="midnightblue" d="M1007.26,-246.08C1014.04,-238.3 1024.04,-226.8 1032.26,-217.37"/>
<polygon fill="midnightblue" stroke="midnightblue" points="1034.96,-219.59 1038.88,-209.75 1029.68,-215 1034.96,-219.59"/>
</g>
<!-- Node26 -->
<g id="node26" class="node">
<title>Node26</title>
<g id="a_node26"><a xlink:title=" ">
<polygon fill="white" stroke="#bfbfbf" points="1084,-190.5 1084,-209.5 1131,-209.5 1131,-190.5 1084,-190.5"/>
<text text-anchor="middle" x="1107.5" y="-197.5" font-family="Helvetica,sans-Serif" font-size="10.00">deque</text>
</a>
</g>
</g>
<!-- Node24&#45;&gt;Node26 -->
<g id="edge33" class="edge">
<title>Node24&#45;&gt;Node26</title>
<path fill="none" stroke="midnightblue" d="M1016.85,-246.32C1034.17,-237.66 1061.02,-224.24 1081,-214.25"/>
<polygon fill="midnightblue" stroke="midnightblue" points="1082.81,-217.26 1090.19,-209.65 1079.68,-211 1082.81,-217.26"/>
</g>
<!-- Node27&#45;&gt;Node2 -->
<g id="edge35" class="edge">
<title>Node27&#45;&gt;Node2</title>
<path fill="none" stroke="midnightblue" d="M1201.83,-250.17C1251.65,-244.07 1324.4,-231.67 1341.5,-210 1369.74,-174.2 1320.6,-149.78 1288.5,-134 1250.67,-115.41 984.99,-96.11 857.05,-87.76"/>
<polygon fill="midnightblue" stroke="midnightblue" points="857.17,-84.26 846.96,-87.11 856.71,-91.25 857.17,-84.26"/>
</g>
<!-- Node27&#45;&gt;Node9 -->
<g id="edge36" class="edge">
<title>Node27&#45;&gt;Node9</title>
<path fill="none" stroke="midnightblue" d="M1116.11,-246.44C1075.11,-237.06 1009.25,-221.99 964.72,-211.8"/>
<polygon fill="midnightblue" stroke="midnightblue" points="965.25,-208.34 954.72,-209.52 963.69,-215.16 965.25,-208.34"/>
</g>
<!-- Node27&#45;&gt;Node11 -->
<g id="edge39" class="edge">
<title>Node27&#45;&gt;Node11</title>
<path fill="none" stroke="midnightblue" d="M1201.56,-249.01C1247,-242.24 1310.41,-229.55 1325.5,-210 1345.14,-184.56 1303.89,-165.96 1268.78,-155.32"/>
<polygon fill="midnightblue" stroke="midnightblue" points="1269.68,-151.94 1259.1,-152.53 1267.74,-158.66 1269.68,-151.94"/>
</g>
<!-- Node27&#45;&gt;Node25 -->
<g id="edge37" class="edge">
<title>Node27&#45;&gt;Node25</title>
<path fill="none" stroke="midnightblue" d="M1136.31,-246.32C1119.15,-237.66 1092.55,-224.24 1072.75,-214.25"/>
<polygon fill="midnightblue" stroke="midnightblue" points="1074.15,-211.04 1063.65,-209.65 1071,-217.28 1074.15,-211.04"/>
</g>
<!-- Node27&#45;&gt;Node26 -->
<g id="edge41" class="edge">
<title>Node27&#45;&gt;Node26</title>
<path fill="none" stroke="midnightblue" d="M1145.9,-246.08C1139.27,-238.3 1129.48,-226.8 1121.44,-217.37"/>
<polygon fill="midnightblue" stroke="midnightblue" points="1124.1,-215.09 1114.95,-209.75 1118.77,-219.63 1124.1,-215.09"/>
</g>
<!-- Node28 -->
<g id="node28" class="node">
<title>Node28</title>
<g id="a_node28"><a xlink:title=" ">
<polygon fill="white" stroke="#bfbfbf" points="1149,-190.5 1149,-209.5 1242,-209.5 1242,-190.5 1149,-190.5"/>
<text text-anchor="middle" x="1195.5" y="-197.5" font-family="Helvetica,sans-Serif" font-size="10.00">unordered_map</text>
</a>
</g>
</g>
<!-- Node27&#45;&gt;Node28 -->
<g id="edge38" class="edge">
<title>Node27&#45;&gt;Node28</title>
<path fill="none" stroke="midnightblue" d="M1160.44,-246.08C1166.43,-238.38 1175.25,-227.03 1182.55,-217.65"/>
<polygon fill="midnightblue" stroke="midnightblue" points="1185.32,-219.79 1188.69,-209.75 1179.79,-215.5 1185.32,-219.79"/>
</g>
<!-- Node29 -->
<g id="node29" class="node">
<title>Node29</title>
<g id="a_node29"><a xlink:title=" ">
<polygon fill="white" stroke="#bfbfbf" points="1260.5,-190.5 1260.5,-209.5 1316.5,-209.5 1316.5,-190.5 1260.5,-190.5"/>
<text text-anchor="middle" x="1288.5" y="-197.5" font-family="Helvetica,sans-Serif" font-size="10.00">optional</text>
</a>
</g>
</g>
<!-- Node27&#45;&gt;Node29 -->
<g id="edge40" class="edge">
<title>Node27&#45;&gt;Node29</title>
<path fill="none" stroke="midnightblue" d="M1174.89,-246.44C1197.21,-237.52 1232.4,-223.44 1257.71,-213.32"/>
<polygon fill="midnightblue" stroke="midnightblue" points="1259.22,-216.48 1267.21,-209.52 1256.62,-209.98 1259.22,-216.48"/>
</g>
<!-- Node30&#45;&gt;Node2 -->
<g id="edge44" class="edge">
<title>Node30&#45;&gt;Node2</title>
<path fill="none" stroke="midnightblue" d="M1446.17,-246.19C1460.45,-233.32 1482.57,-208.83 1469.5,-190 1428.92,-131.54 1388.85,-149.95 1319.5,-134 1156.34,-96.47 958.8,-86.76 856.82,-84.3"/>
<polygon fill="midnightblue" stroke="midnightblue" points="856.73,-80.8 846.65,-84.07 856.57,-87.79 856.73,-80.8"/>
</g>
<!-- Node30&#45;&gt;Node9 -->
<g id="edge45" class="edge">
<title>Node30&#45;&gt;Node9</title>
<path fill="none" stroke="midnightblue" d="M1353.71,-246.47C1250.52,-235.72 1075.24,-217.44 981.36,-207.66"/>
<polygon fill="midnightblue" stroke="midnightblue" points="981.46,-204.15 971.15,-206.59 980.74,-211.11 981.46,-204.15"/>
</g>
<!-- Node31 -->
<g id="node31" class="node">
<title>Node31</title>
<g id="a_node31"><a xlink:title=" ">
<polygon fill="white" stroke="#bfbfbf" points="1516.5,-190.5 1516.5,-209.5 1560.5,-209.5 1560.5,-190.5 1516.5,-190.5"/>
<text text-anchor="middle" x="1538.5" y="-197.5" font-family="Helvetica,sans-Serif" font-size="10.00">ctime</text>
</a>
</g>
</g>
<!-- Node30&#45;&gt;Node31 -->
<g id="edge46" class="edge">
<title>Node30&#45;&gt;Node31</title>
<path fill="none" stroke="midnightblue" d="M1452.05,-246.32C1468.49,-237.7 1493.93,-224.36 1512.97,-214.39"/>
<polygon fill="midnightblue" stroke="midnightblue" points="1514.76,-217.4 1521.99,-209.65 1511.51,-211.2 1514.76,-217.4"/>
</g>
<!-- Node32 -->
<g id="node32" class="node">
<title>Node32</title>
<g id="a_node32"><a xlink:title=" ">
<polygon fill="white" stroke="#bfbfbf" points="1410.5,-190.5 1410.5,-209.5 1460.5,-209.5 1460.5,-190.5 1410.5,-190.5"/>
<text text-anchor="middle" x="1435.5" y="-197.5" font-family="Helvetica,sans-Serif" font-size="10.00">chrono</text>
</a>
</g>
</g>
<!-- Node30&#45;&gt;Node32 -->
<g id="edge47" class="edge">
<title>Node30&#45;&gt;Node32</title>
<path fill="none" stroke="midnightblue" d="M1435.5,-246.08C1435.5,-239.01 1435.5,-228.86 1435.5,-219.99"/>
<polygon fill="midnightblue" stroke="midnightblue" points="1439,-219.75 1435.5,-209.75 1432,-219.75 1439,-219.75"/>
</g>
<!-- Node33&#45;&gt;Node2 -->
<g id="edge49" class="edge">
<title>Node33&#45;&gt;Node2</title>
<path fill="none" stroke="midnightblue" d="M733.89,-246.47C735.06,-226.24 739.53,-174.06 755.5,-134 760.32,-121.91 768.24,-109.66 775.11,-100.25"/>
<polygon fill="midnightblue" stroke="midnightblue" points="777.97,-102.27 781.24,-92.2 772.4,-98.03 777.97,-102.27"/>
</g>
<!-- Node33&#45;&gt;Node5 -->
<g id="edge50" class="edge">
<title>Node33&#45;&gt;Node5</title>
<path fill="none" stroke="midnightblue" d="M697.85,-246.44C656.87,-236.61 589.82,-220.52 547.49,-210.36"/>
<polygon fill="midnightblue" stroke="midnightblue" points="548.09,-206.9 537.55,-207.97 546.45,-213.71 548.09,-206.9"/>
</g>
<!-- Node33&#45;&gt;Node9 -->
<g id="edge52" class="edge">
<title>Node33&#45;&gt;Node9</title>
<path fill="none" stroke="midnightblue" d="M762.66,-246.44C794.01,-237.24 844.03,-222.56 878.7,-212.39"/>
<polygon fill="midnightblue" stroke="midnightblue" points="879.87,-215.69 888.48,-209.52 877.9,-208.97 879.87,-215.69"/>
</g>
<!-- Node33&#45;&gt;Node16 -->
<g id="edge53" class="edge">
<title>Node33&#45;&gt;Node16</title>
<path fill="none" stroke="midnightblue" d="M716.79,-246.32C700.19,-237.7 674.5,-224.36 655.28,-214.39"/>
<polygon fill="midnightblue" stroke="midnightblue" points="656.66,-211.16 646.17,-209.65 653.43,-217.37 656.66,-211.16"/>
</g>
<!-- Node34 -->
<g id="node34" class="node">
<title>Node34</title>
<g id="a_node34"><a xlink:title=" ">
<polygon fill="white" stroke="#bfbfbf" points="759.5,-190.5 759.5,-209.5 807.5,-209.5 807.5,-190.5 759.5,-190.5"/>
<text text-anchor="middle" x="783.5" y="-197.5" font-family="Helvetica,sans-Serif" font-size="10.00">thread</text>
</a>
</g>
</g>
<!-- Node33&#45;&gt;Node34 -->
<g id="edge51" class="edge">
<title>Node33&#45;&gt;Node34</title>
<path fill="none" stroke="midnightblue" d="M741.76,-246.08C748.96,-238.3 759.61,-226.8 768.35,-217.37"/>
<polygon fill="midnightblue" stroke="midnightblue" points="771.17,-219.47 775.4,-209.75 766.03,-214.71 771.17,-219.47"/>
</g>
</g>
</svg>
