<?xml version="1.0" encoding="UTF-8" standalone="no"?>
<!DOCTYPE svg PUBLIC "-//W3C//DTD SVG 1.1//EN"
 "http://www.w3.org/Graphics/SVG/1.1/DTD/svg11.dtd">
<!-- Generated by graphviz version 2.43.0 (0)
 -->
<!-- Title: logger.h Pages: 1 -->
<svg width="1592pt" height="498pt"
 viewBox="0.00 0.00 1592.00 498.00" xmlns="http://www.w3.org/2000/svg" xmlns:xlink="http://www.w3.org/1999/xlink">
<g id="graph0" class="graph" transform="scale(1 1) rotate(0) translate(4 494)">
<title>logger.h</title>
<polygon fill="white" stroke="transparent" points="-4,4 -4,-494 1588,-494 1588,4 -4,4"/>
<!-- Node1 -->
<g id="node1" class="node">
<title>Node1</title>
<g id="a_node1"><a xlink:title="This header defines the Logger class and the logging macros.">
<polygon fill="#bfbfbf" stroke="black" points="1103,-470.5 1103,-489.5 1159,-489.5 1159,-470.5 1103,-470.5"/>
<text text-anchor="middle" x="1131" y="-477.5" font-family="Helvetica,sans-Serif" font-size="10.00">logger.h</text>
</a>
</g>
</g>
<!-- Node2 -->
<g id="node2" class="node">
<title>Node2</title>
<g id="a_node2"><a xlink:href="config_8hxx.html" target="_top" xlink:title=" ">
<polygon fill="white" stroke="black" points="834,-73 834,-92 950,-92 950,-73 834,-73"/>
<text text-anchor="middle" x="892" y="-80" font-family="Helvetica,sans-Serif" font-size="10.00">log4cplus/config.hxx</text>
</a>
</g>
</g>
<!-- Node1&#45;&gt;Node2 -->
<g id="edge1" class="edge">
<title>Node1&#45;&gt;Node2</title>
<path fill="none" stroke="midnightblue" d="M1159.34,-478.23C1258.51,-474.79 1584,-456.81 1584,-369 1584,-369 1584,-369 1584,-199 1584,-139.13 1523.28,-151.44 1466,-134 1373.17,-105.73 1091.41,-91.31 960.37,-85.98"/>
<polygon fill="midnightblue" stroke="midnightblue" points="960.19,-82.47 950.06,-85.56 959.91,-89.46 960.19,-82.47"/>
</g>
<!-- Node5 -->
<g id="node5" class="node">
<title>Node5</title>
<g id="a_node5"><a xlink:href="loglevel_8h.html" target="_top" xlink:title="This header defines the LogLevel type.">
<polygon fill="white" stroke="black" points="1252,-246.5 1252,-265.5 1366,-265.5 1366,-246.5 1252,-246.5"/>
<text text-anchor="middle" x="1309" y="-253.5" font-family="Helvetica,sans-Serif" font-size="10.00">log4cplus/loglevel.h</text>
</a>
</g>
</g>
<!-- Node1&#45;&gt;Node5 -->
<g id="edge4" class="edge">
<title>Node1&#45;&gt;Node5</title>
<path fill="none" stroke="midnightblue" d="M1137.83,-470.49C1156.77,-446.92 1211.54,-378.73 1257,-322 1270.07,-305.69 1284.97,-287.06 1295.46,-273.94"/>
<polygon fill="midnightblue" stroke="midnightblue" points="1298.43,-275.83 1301.94,-265.83 1292.96,-271.46 1298.43,-275.83"/>
</g>
<!-- Node6 -->
<g id="node6" class="node">
<title>Node6</title>
<g id="a_node6"><a xlink:title=" ">
<polygon fill="white" stroke="#bfbfbf" points="1432.5,-190.5 1432.5,-209.5 1479.5,-209.5 1479.5,-190.5 1432.5,-190.5"/>
<text text-anchor="middle" x="1456" y="-197.5" font-family="Helvetica,sans-Serif" font-size="10.00">vector</text>
</a>
</g>
</g>
<!-- Node1&#45;&gt;Node6 -->
<g id="edge70" class="edge">
<title>Node1&#45;&gt;Node6</title>
<path fill="none" stroke="midnightblue" d="M1159.03,-476.9C1246.4,-469.61 1508,-441.7 1508,-369 1508,-369 1508,-369 1508,-311 1508,-275.12 1485.11,-238.42 1469.7,-217.79"/>
<polygon fill="midnightblue" stroke="midnightblue" points="1472.35,-215.5 1463.45,-209.74 1466.82,-219.79 1472.35,-215.5"/>
</g>
<!-- Node9 -->
<g id="node9" class="node">
<title>Node9</title>
<g id="a_node9"><a xlink:href="tstring_8h.html" target="_top" xlink:title=" ">
<polygon fill="white" stroke="black" points="506.5,-190.5 506.5,-209.5 613.5,-209.5 613.5,-190.5 506.5,-190.5"/>
<text text-anchor="middle" x="560" y="-197.5" font-family="Helvetica,sans-Serif" font-size="10.00">log4cplus/tstring.h</text>
</a>
</g>
</g>
<!-- Node1&#45;&gt;Node9 -->
<g id="edge28" class="edge">
<title>Node1&#45;&gt;Node9</title>
<path fill="none" stroke="midnightblue" d="M1102.85,-476.94C983.08,-467.82 522,-428.83 522,-369 522,-369 522,-369 522,-311 522,-276.81 538.6,-239.76 549.86,-218.57"/>
<polygon fill="midnightblue" stroke="midnightblue" points="552.95,-220.22 554.72,-209.77 546.82,-216.83 552.95,-220.22"/>
</g>
<!-- Node24 -->
<g id="node24" class="node">
<title>Node24</title>
<g id="a_node24"><a xlink:href="appenderattachable_8h.html" target="_top" xlink:title=" ">
<polygon fill="white" stroke="black" points="785,-414.5 785,-433.5 975,-433.5 975,-414.5 785,-414.5"/>
<text text-anchor="middle" x="880" y="-421.5" font-family="Helvetica,sans-Serif" font-size="10.00">log4cplus/spi/appenderattachable.h</text>
</a>
</g>
</g>
<!-- Node1&#45;&gt;Node24 -->
<g id="edge29" class="edge">
<title>Node1&#45;&gt;Node24</title>
<path fill="none" stroke="midnightblue" d="M1102.7,-472.91C1060.75,-463.89 981.47,-446.83 929.7,-435.69"/>
<polygon fill="midnightblue" stroke="midnightblue" points="930.25,-432.23 919.74,-433.55 928.78,-439.07 930.25,-432.23"/>
</g>
<!-- Node34 -->
<g id="node34" class="node">
<title>Node34</title>
<g id="a_node34"><a xlink:href="loggerfactory_8h.html" target="_top" xlink:title=" ">
<polygon fill="white" stroke="black" points="338,-246.5 338,-265.5 494,-265.5 494,-246.5 338,-246.5"/>
<text text-anchor="middle" x="416" y="-253.5" font-family="Helvetica,sans-Serif" font-size="10.00">log4cplus/spi/loggerfactory.h</text>
</a>
</g>
</g>
<!-- Node1&#45;&gt;Node34 -->
<g id="edge67" class="edge">
<title>Node1&#45;&gt;Node34</title>
<path fill="none" stroke="midnightblue" d="M1102.84,-478.57C987.92,-476.58 558.17,-467 508,-434 451.36,-396.75 427.55,-312.98 419.48,-275.61"/>
<polygon fill="midnightblue" stroke="midnightblue" points="422.87,-274.71 417.46,-265.6 416.01,-276.1 422.87,-274.71"/>
</g>
<!-- Node3 -->
<g id="node3" class="node">
<title>Node3</title>
<g id="a_node3"><a xlink:href="win32_8h.html" target="_top" xlink:title=" ">
<polygon fill="white" stroke="black" points="745.5,-6 745.5,-25 882.5,-25 882.5,-6 745.5,-6"/>
<text text-anchor="middle" x="814" y="-13" font-family="Helvetica,sans-Serif" font-size="10.00">log4cplus/config/win32.h</text>
</a>
</g>
</g>
<!-- Node2&#45;&gt;Node3 -->
<g id="edge2" class="edge">
<title>Node2&#45;&gt;Node3</title>
<path fill="none" stroke="midnightblue" d="M881.48,-72.73C868.85,-62.21 847.46,-44.38 832.14,-31.62"/>
<polygon fill="midnightblue" stroke="midnightblue" points="834.28,-28.84 824.35,-25.13 829.79,-34.22 834.28,-28.84"/>
</g>
<!-- Node4 -->
<g id="node4" class="node">
<title>Node4</title>
<g id="a_node4"><a xlink:href="thread-config_8h.html" target="_top" xlink:title=" ">
<polygon fill="white" stroke="black" points="900.5,-0.5 900.5,-30.5 1037.5,-30.5 1037.5,-0.5 900.5,-0.5"/>
<text text-anchor="start" x="908.5" y="-18.5" font-family="Helvetica,sans-Serif" font-size="10.00">log4cplus/helpers/thread</text>
<text text-anchor="middle" x="969" y="-7.5" font-family="Helvetica,sans-Serif" font-size="10.00">&#45;config.h</text>
</a>
</g>
</g>
<!-- Node2&#45;&gt;Node4 -->
<g id="edge3" class="edge">
<title>Node2&#45;&gt;Node4</title>
<path fill="none" stroke="midnightblue" d="M902.38,-72.73C913.09,-63.7 930.18,-49.27 944.36,-37.3"/>
<polygon fill="midnightblue" stroke="midnightblue" points="946.93,-39.71 952.31,-30.59 942.41,-34.37 946.93,-39.71"/>
</g>
<!-- Node5&#45;&gt;Node2 -->
<g id="edge5" class="edge">
<title>Node5&#45;&gt;Node2</title>
<path fill="none" stroke="midnightblue" d="M1334.47,-246.37C1361.89,-235.58 1399.73,-215.38 1385,-190 1359.82,-146.61 1334.57,-149.93 1287,-134 1176.74,-97.07 1040.85,-86.87 960.61,-84.22"/>
<polygon fill="midnightblue" stroke="midnightblue" points="960.25,-80.7 950.15,-83.9 960.04,-87.7 960.25,-80.7"/>
</g>
<!-- Node5&#45;&gt;Node6 -->
<g id="edge6" class="edge">
<title>Node5&#45;&gt;Node6</title>
<path fill="none" stroke="midnightblue" d="M1332.29,-246.44C1356.81,-237.44 1395.6,-223.19 1423.2,-213.05"/>
<polygon fill="midnightblue" stroke="midnightblue" points="1424.64,-216.25 1432.82,-209.52 1422.22,-209.68 1424.64,-216.25"/>
</g>
<!-- Node7 -->
<g id="node7" class="node">
<title>Node7</title>
<g id="a_node7"><a xlink:title=" ">
<polygon fill="white" stroke="#bfbfbf" points="670,-190.5 670,-209.5 728,-209.5 728,-190.5 670,-190.5"/>
<text text-anchor="middle" x="699" y="-197.5" font-family="Helvetica,sans-Serif" font-size="10.00">memory</text>
</a>
</g>
</g>
<!-- Node5&#45;&gt;Node7 -->
<g id="edge7" class="edge">
<title>Node5&#45;&gt;Node7</title>
<path fill="none" stroke="midnightblue" d="M1251.83,-253.42C1150.26,-249.97 931.62,-239.68 738.42,-209.99"/>
<polygon fill="midnightblue" stroke="midnightblue" points="738.79,-206.51 728.37,-208.43 737.71,-213.43 738.79,-206.51"/>
</g>
<!-- Node8 -->
<g id="node8" class="node">
<title>Node8</title>
<g id="a_node8"><a xlink:title=" ">
<polygon fill="white" stroke="#bfbfbf" points="1290,-190.5 1290,-209.5 1376,-209.5 1376,-190.5 1290,-190.5"/>
<text text-anchor="middle" x="1333" y="-197.5" font-family="Helvetica,sans-Serif" font-size="10.00">shared_mutex</text>
</a>
</g>
</g>
<!-- Node5&#45;&gt;Node8 -->
<g id="edge8" class="edge">
<title>Node5&#45;&gt;Node8</title>
<path fill="none" stroke="midnightblue" d="M1312.96,-246.08C1316.21,-238.77 1320.92,-228.18 1324.95,-219.1"/>
<polygon fill="midnightblue" stroke="midnightblue" points="1328.25,-220.31 1329.11,-209.75 1321.85,-217.47 1328.25,-220.31"/>
</g>
<!-- Node5&#45;&gt;Node9 -->
<g id="edge9" class="edge">
<title>Node5&#45;&gt;Node9</title>
<path fill="none" stroke="midnightblue" d="M1251.76,-251.4C1138.77,-244.22 879.09,-227.29 661,-210 649,-209.05 636.21,-207.96 623.91,-206.88"/>
<polygon fill="midnightblue" stroke="midnightblue" points="623.98,-203.38 613.71,-205.98 623.36,-210.35 623.98,-203.38"/>
</g>
<!-- Node16 -->
<g id="node16" class="node">
<title>Node16</title>
<g id="a_node16"><a xlink:href="pointer_8h.html" target="_top" xlink:title=" ">
<polygon fill="white" stroke="black" points="1086,-190.5 1086,-209.5 1234,-209.5 1234,-190.5 1086,-190.5"/>
<text text-anchor="middle" x="1160" y="-197.5" font-family="Helvetica,sans-Serif" font-size="10.00">log4cplus/helpers/pointer.h</text>
</a>
</g>
</g>
<!-- Node5&#45;&gt;Node16 -->
<g id="edge18" class="edge">
<title>Node5&#45;&gt;Node16</title>
<path fill="none" stroke="midnightblue" d="M1285.39,-246.44C1260.54,-237.44 1221.23,-223.19 1193.25,-213.05"/>
<polygon fill="midnightblue" stroke="midnightblue" points="1194.09,-209.63 1183.5,-209.52 1191.71,-216.21 1194.09,-209.63"/>
</g>
<!-- Node9&#45;&gt;Node2 -->
<g id="edge10" class="edge">
<title>Node9&#45;&gt;Node2</title>
<path fill="none" stroke="midnightblue" d="M569.52,-190.35C585.52,-176.28 619.38,-148.58 653,-134 707.67,-110.3 774.32,-97.4 823.34,-90.59"/>
<polygon fill="midnightblue" stroke="midnightblue" points="824.07,-94.02 833.52,-89.22 823.14,-87.08 824.07,-94.02"/>
</g>
<!-- Node10 -->
<g id="node10" class="node">
<title>Node10</title>
<g id="a_node10"><a xlink:title=" ">
<polygon fill="white" stroke="#bfbfbf" points="382.5,-134.5 382.5,-153.5 451.5,-153.5 451.5,-134.5 382.5,-134.5"/>
<text text-anchor="middle" x="417" y="-141.5" font-family="Helvetica,sans-Serif" font-size="10.00">type_traits</text>
</a>
</g>
</g>
<!-- Node9&#45;&gt;Node10 -->
<g id="edge11" class="edge">
<title>Node9&#45;&gt;Node10</title>
<path fill="none" stroke="midnightblue" d="M537.34,-190.44C513.6,-181.48 476.09,-167.31 449.26,-157.18"/>
<polygon fill="midnightblue" stroke="midnightblue" points="450.14,-153.77 439.55,-153.52 447.67,-160.32 450.14,-153.77"/>
</g>
<!-- Node11 -->
<g id="node11" class="node">
<title>Node11</title>
<g id="a_node11"><a xlink:title=" ">
<polygon fill="white" stroke="#bfbfbf" points="779.5,-134.5 779.5,-153.5 844.5,-153.5 844.5,-134.5 779.5,-134.5"/>
<text text-anchor="middle" x="812" y="-141.5" font-family="Helvetica,sans-Serif" font-size="10.00">functional</text>
</a>
</g>
</g>
<!-- Node9&#45;&gt;Node11 -->
<g id="edge12" class="edge">
<title>Node9&#45;&gt;Node11</title>
<path fill="none" stroke="midnightblue" d="M599.93,-190.44C646.22,-180.52 722.19,-164.24 769.53,-154.1"/>
<polygon fill="midnightblue" stroke="midnightblue" points="770.42,-157.49 779.47,-151.97 768.96,-150.64 770.42,-157.49"/>
</g>
<!-- Node12 -->
<g id="node12" class="node">
<title>Node12</title>
<g id="a_node12"><a xlink:title=" ">
<polygon fill="white" stroke="#bfbfbf" points="470,-134.5 470,-153.5 514,-153.5 514,-134.5 470,-134.5"/>
<text text-anchor="middle" x="492" y="-141.5" font-family="Helvetica,sans-Serif" font-size="10.00">string</text>
</a>
</g>
</g>
<!-- Node9&#45;&gt;Node12 -->
<g id="edge13" class="edge">
<title>Node9&#45;&gt;Node12</title>
<path fill="none" stroke="midnightblue" d="M549.07,-190.32C538.83,-182.18 523.28,-169.84 511,-160.09"/>
<polygon fill="midnightblue" stroke="midnightblue" points="513.13,-157.31 503.12,-153.83 508.78,-162.79 513.13,-157.31"/>
</g>
<!-- Node13 -->
<g id="node13" class="node">
<title>Node13</title>
<g id="a_node13"><a xlink:title=" ">
<polygon fill="white" stroke="#bfbfbf" points="532.5,-134.5 532.5,-153.5 605.5,-153.5 605.5,-134.5 532.5,-134.5"/>
<text text-anchor="middle" x="569" y="-141.5" font-family="Helvetica,sans-Serif" font-size="10.00">string_view</text>
</a>
</g>
</g>
<!-- Node9&#45;&gt;Node13 -->
<g id="edge14" class="edge">
<title>Node9&#45;&gt;Node13</title>
<path fill="none" stroke="midnightblue" d="M561.49,-190.08C562.68,-182.93 564.39,-172.64 565.88,-163.69"/>
<polygon fill="midnightblue" stroke="midnightblue" points="569.35,-164.19 567.54,-153.75 562.45,-163.04 569.35,-164.19"/>
</g>
<!-- Node14 -->
<g id="node14" class="node">
<title>Node14</title>
<g id="a_node14"><a xlink:href="tchar_8h.html" target="_top" xlink:title=" ">
<polygon fill="white" stroke="black" points="662.5,-134.5 662.5,-153.5 761.5,-153.5 761.5,-134.5 662.5,-134.5"/>
<text text-anchor="middle" x="712" y="-141.5" font-family="Helvetica,sans-Serif" font-size="10.00">log4cplus/tchar.h</text>
</a>
</g>
</g>
<!-- Node9&#45;&gt;Node14 -->
<g id="edge15" class="edge">
<title>Node9&#45;&gt;Node14</title>
<path fill="none" stroke="midnightblue" d="M584.08,-190.44C609.54,-181.4 649.89,-167.06 678.46,-156.92"/>
<polygon fill="midnightblue" stroke="midnightblue" points="679.78,-160.16 688.03,-153.52 677.43,-153.57 679.78,-160.16"/>
</g>
<!-- Node14&#45;&gt;Node2 -->
<g id="edge16" class="edge">
<title>Node14&#45;&gt;Node2</title>
<path fill="none" stroke="midnightblue" d="M737.79,-134.48C768.93,-124.18 821.48,-106.81 856.45,-95.25"/>
<polygon fill="midnightblue" stroke="midnightblue" points="857.86,-98.47 866.26,-92.01 855.66,-91.82 857.86,-98.47"/>
</g>
<!-- Node15 -->
<g id="node15" class="node">
<title>Node15</title>
<g id="a_node15"><a xlink:title=" ">
<polygon fill="white" stroke="#bfbfbf" points="685.5,-73 685.5,-92 738.5,-92 738.5,-73 685.5,-73"/>
<text text-anchor="middle" x="712" y="-80" font-family="Helvetica,sans-Serif" font-size="10.00">cstddef</text>
</a>
</g>
</g>
<!-- Node14&#45;&gt;Node15 -->
<g id="edge17" class="edge">
<title>Node14&#45;&gt;Node15</title>
<path fill="none" stroke="midnightblue" d="M712,-134.48C712,-126.08 712,-112.98 712,-102.16"/>
<polygon fill="midnightblue" stroke="midnightblue" points="715.5,-102.01 712,-92.01 708.5,-102.01 715.5,-102.01"/>
</g>
<!-- Node16&#45;&gt;Node2 -->
<g id="edge19" class="edge">
<title>Node16&#45;&gt;Node2</title>
<path fill="none" stroke="midnightblue" d="M1176.86,-190.39C1199.05,-177.96 1233.34,-154.25 1216,-134 1183.76,-96.34 1045.41,-86.55 960.27,-84.14"/>
<polygon fill="midnightblue" stroke="midnightblue" points="960.24,-80.64 950.16,-83.88 960.06,-87.63 960.24,-80.64"/>
</g>
<!-- Node17 -->
<g id="node17" class="node">
<title>Node17</title>
<g id="a_node17"><a xlink:href="syncprims_8h.html" target="_top" xlink:title=" ">
<polygon fill="white" stroke="black" points="90,-134.5 90,-153.5 250,-153.5 250,-134.5 90,-134.5"/>
<text text-anchor="middle" x="170" y="-141.5" font-family="Helvetica,sans-Serif" font-size="10.00">log4cplus/thread/syncprims.h</text>
</a>
</g>
</g>
<!-- Node16&#45;&gt;Node17 -->
<g id="edge20" class="edge">
<title>Node16&#45;&gt;Node17</title>
<path fill="none" stroke="midnightblue" d="M1085.82,-193.27C1070.04,-192.12 1053.47,-190.97 1038,-190 754.32,-172.19 418.17,-156.22 260.35,-149.03"/>
<polygon fill="midnightblue" stroke="midnightblue" points="260.36,-145.53 250.21,-148.57 260.04,-152.52 260.36,-145.53"/>
</g>
<!-- Node21 -->
<g id="node21" class="node">
<title>Node21</title>
<g id="a_node21"><a xlink:title=" ">
<polygon fill="white" stroke="#bfbfbf" points="1073,-134.5 1073,-153.5 1137,-153.5 1137,-134.5 1073,-134.5"/>
<text text-anchor="middle" x="1105" y="-141.5" font-family="Helvetica,sans-Serif" font-size="10.00">algorithm</text>
</a>
</g>
</g>
<!-- Node16&#45;&gt;Node21 -->
<g id="edge25" class="edge">
<title>Node16&#45;&gt;Node21</title>
<path fill="none" stroke="midnightblue" d="M1150.92,-190.08C1142.83,-182.14 1130.8,-170.34 1121.09,-160.8"/>
<polygon fill="midnightblue" stroke="midnightblue" points="1123.5,-158.26 1113.91,-153.75 1118.6,-163.25 1123.5,-158.26"/>
</g>
<!-- Node22 -->
<g id="node22" class="node">
<title>Node22</title>
<g id="a_node22"><a xlink:title=" ">
<polygon fill="white" stroke="#bfbfbf" points="1155,-134.5 1155,-153.5 1207,-153.5 1207,-134.5 1155,-134.5"/>
<text text-anchor="middle" x="1181" y="-141.5" font-family="Helvetica,sans-Serif" font-size="10.00">cassert</text>
</a>
</g>
</g>
<!-- Node16&#45;&gt;Node22 -->
<g id="edge26" class="edge">
<title>Node16&#45;&gt;Node22</title>
<path fill="none" stroke="midnightblue" d="M1163.47,-190.08C1166.31,-182.77 1170.43,-172.18 1173.96,-163.1"/>
<polygon fill="midnightblue" stroke="midnightblue" points="1177.23,-164.34 1177.6,-153.75 1170.71,-161.8 1177.23,-164.34"/>
</g>
<!-- Node23 -->
<g id="node23" class="node">
<title>Node23</title>
<g id="a_node23"><a xlink:title=" ">
<polygon fill="white" stroke="#bfbfbf" points="1005,-134.5 1005,-153.5 1055,-153.5 1055,-134.5 1005,-134.5"/>
<text text-anchor="middle" x="1030" y="-141.5" font-family="Helvetica,sans-Serif" font-size="10.00">atomic</text>
</a>
</g>
</g>
<!-- Node16&#45;&gt;Node23 -->
<g id="edge27" class="edge">
<title>Node16&#45;&gt;Node23</title>
<path fill="none" stroke="midnightblue" d="M1139.4,-190.44C1118.01,-181.56 1084.32,-167.56 1059.98,-157.45"/>
<polygon fill="midnightblue" stroke="midnightblue" points="1061.08,-154.12 1050.5,-153.52 1058.39,-160.58 1061.08,-154.12"/>
</g>
<!-- Node17&#45;&gt;Node2 -->
<g id="edge21" class="edge">
<title>Node17&#45;&gt;Node2</title>
<path fill="none" stroke="midnightblue" d="M250.24,-135.2C254.9,-134.79 259.51,-134.38 264,-134 478.49,-115.74 532.55,-116.71 747,-98 772.03,-95.82 799.46,-93.14 823.67,-90.69"/>
<polygon fill="midnightblue" stroke="midnightblue" points="824.23,-94.15 833.82,-89.66 823.52,-87.19 824.23,-94.15"/>
</g>
<!-- Node18 -->
<g id="node18" class="node">
<title>Node18</title>
<g id="a_node18"><a xlink:title=" ">
<polygon fill="white" stroke="#bfbfbf" points="0,-73 0,-92 48,-92 48,-73 0,-73"/>
<text text-anchor="middle" x="24" y="-80" font-family="Helvetica,sans-Serif" font-size="10.00">mutex</text>
</a>
</g>
</g>
<!-- Node17&#45;&gt;Node18 -->
<g id="edge22" class="edge">
<title>Node17&#45;&gt;Node18</title>
<path fill="none" stroke="midnightblue" d="M147.82,-134.43C124.97,-125.54 88.36,-111.13 57,-98 55.59,-97.41 54.15,-96.8 52.7,-96.18"/>
<polygon fill="midnightblue" stroke="midnightblue" points="53.71,-92.81 43.15,-92.05 50.93,-99.23 53.71,-92.81"/>
</g>
<!-- Node19 -->
<g id="node19" class="node">
<title>Node19</title>
<g id="a_node19"><a xlink:title=" ">
<polygon fill="white" stroke="#bfbfbf" points="66.5,-73 66.5,-92 173.5,-92 173.5,-73 66.5,-73"/>
<text text-anchor="middle" x="120" y="-80" font-family="Helvetica,sans-Serif" font-size="10.00">condition_variable</text>
</a>
</g>
</g>
<!-- Node17&#45;&gt;Node19 -->
<g id="edge23" class="edge">
<title>Node17&#45;&gt;Node19</title>
<path fill="none" stroke="midnightblue" d="M162.84,-134.48C155.26,-125.46 143.13,-111.02 133.71,-99.81"/>
<polygon fill="midnightblue" stroke="midnightblue" points="136.26,-97.41 127.15,-92.01 130.9,-101.92 136.26,-97.41"/>
</g>
<!-- Node20 -->
<g id="node20" class="node">
<title>Node20</title>
<g id="a_node20"><a xlink:href="threadsafetyanalysis_8h.html" target="_top" xlink:title=" ">
<polygon fill="white" stroke="black" points="191.5,-67.5 191.5,-97.5 322.5,-97.5 322.5,-67.5 191.5,-67.5"/>
<text text-anchor="start" x="199.5" y="-85.5" font-family="Helvetica,sans-Serif" font-size="10.00">log4cplus/internal</text>
<text text-anchor="middle" x="257" y="-74.5" font-family="Helvetica,sans-Serif" font-size="10.00">/threadsafetyanalysis.h</text>
</a>
</g>
</g>
<!-- Node17&#45;&gt;Node20 -->
<g id="edge24" class="edge">
<title>Node17&#45;&gt;Node20</title>
<path fill="none" stroke="midnightblue" d="M182.46,-134.48C194.36,-126.34 212.71,-113.79 228.23,-103.18"/>
<polygon fill="midnightblue" stroke="midnightblue" points="230.22,-106.06 236.5,-97.52 226.27,-100.28 230.22,-106.06"/>
</g>
<!-- Node24&#45;&gt;Node2 -->
<g id="edge30" class="edge">
<title>Node24&#45;&gt;Node2</title>
<path fill="none" stroke="midnightblue" d="M784.74,-417.69C575.81,-403.91 100.5,-359.79 161,-246 202.78,-167.41 243.08,-163.64 327,-134 503.66,-71.6 560.45,-115.32 747,-98 772.02,-95.68 799.45,-92.97 823.65,-90.54"/>
<polygon fill="midnightblue" stroke="midnightblue" points="824.21,-94 833.81,-89.51 823.51,-87.03 824.21,-94"/>
</g>
<!-- Node24&#45;&gt;Node6 -->
<g id="edge66" class="edge">
<title>Node24&#45;&gt;Node6</title>
<path fill="none" stroke="midnightblue" d="M975.42,-414.49C1088.33,-400.23 1277.31,-362.78 1407,-266 1423.93,-253.36 1437.8,-233.32 1446.41,-218.83"/>
<polygon fill="midnightblue" stroke="midnightblue" points="1449.61,-220.27 1451.5,-209.84 1443.52,-216.82 1449.61,-220.27"/>
</g>
<!-- Node24&#45;&gt;Node9 -->
<g id="edge64" class="edge">
<title>Node24&#45;&gt;Node9</title>
<path fill="none" stroke="midnightblue" d="M840.37,-414.42C788.25,-401.54 695.93,-373.11 633,-322 607.55,-301.33 601.79,-294.15 585,-266 576.29,-251.4 569.6,-233.23 565.35,-219.81"/>
<polygon fill="midnightblue" stroke="midnightblue" points="568.58,-218.41 562.35,-209.84 561.88,-220.43 568.58,-218.41"/>
</g>
<!-- Node24&#45;&gt;Node16 -->
<g id="edge65" class="edge">
<title>Node24&#45;&gt;Node16</title>
<path fill="none" stroke="midnightblue" d="M890.98,-414.3C933.41,-380.66 1087,-258.88 1141.04,-216.03"/>
<polygon fill="midnightblue" stroke="midnightblue" points="1143.44,-218.6 1149.1,-209.64 1139.09,-213.11 1143.44,-218.6"/>
</g>
<!-- Node25 -->
<g id="node25" class="node">
<title>Node25</title>
<g id="a_node25"><a xlink:href="appender_8h.html" target="_top" xlink:title=" ">
<polygon fill="white" stroke="black" points="744,-358.5 744,-377.5 864,-377.5 864,-358.5 744,-358.5"/>
<text text-anchor="middle" x="804" y="-365.5" font-family="Helvetica,sans-Serif" font-size="10.00">log4cplus/appender.h</text>
</a>
</g>
</g>
<!-- Node24&#45;&gt;Node25 -->
<g id="edge31" class="edge">
<title>Node24&#45;&gt;Node25</title>
<path fill="none" stroke="midnightblue" d="M867.79,-414.32C856.22,-406.11 838.62,-393.6 824.84,-383.81"/>
<polygon fill="midnightblue" stroke="midnightblue" points="826.61,-380.77 816.43,-377.83 822.56,-386.48 826.61,-380.77"/>
</g>
<!-- Node25&#45;&gt;Node2 -->
<g id="edge32" class="edge">
<title>Node25&#45;&gt;Node2</title>
<path fill="none" stroke="midnightblue" d="M864.22,-367.34C1016.52,-366.84 1411.01,-356.63 1497,-266 1514.4,-247.66 1504.77,-235.18 1507,-210 1507.78,-201.15 1511.08,-197.9 1507,-190 1487.24,-151.77 1468.35,-148.97 1428,-134 1343.94,-102.81 1084.83,-90.01 960.26,-85.55"/>
<polygon fill="midnightblue" stroke="midnightblue" points="960.19,-82.04 950.08,-85.19 959.95,-89.04 960.19,-82.04"/>
</g>
<!-- Node25&#45;&gt;Node5 -->
<g id="edge48" class="edge">
<title>Node25&#45;&gt;Node5</title>
<path fill="none" stroke="midnightblue" d="M864.32,-364.65C964.84,-360.07 1161.9,-348 1226,-322 1253.15,-310.99 1278.8,-288.33 1294.21,-272.9"/>
<polygon fill="midnightblue" stroke="midnightblue" points="1296.85,-275.2 1301.29,-265.58 1291.82,-270.34 1296.85,-275.2"/>
</g>
<!-- Node25&#45;&gt;Node7 -->
<g id="edge60" class="edge">
<title>Node25&#45;&gt;Node7</title>
<path fill="none" stroke="midnightblue" d="M798.51,-358.36C787.44,-340.91 761.63,-300.22 740,-266 729.79,-249.85 718.17,-231.42 709.91,-218.32"/>
<polygon fill="midnightblue" stroke="midnightblue" points="712.86,-216.43 704.56,-209.84 706.93,-220.16 712.86,-216.43"/>
</g>
<!-- Node25&#45;&gt;Node9 -->
<g id="edge49" class="edge">
<title>Node25&#45;&gt;Node9</title>
<path fill="none" stroke="midnightblue" d="M752.53,-358.44C723.55,-351.86 687.72,-340.62 660,-322 618.88,-294.38 585.74,-244.97 569.97,-218.65"/>
<polygon fill="midnightblue" stroke="midnightblue" points="572.86,-216.66 564.8,-209.78 566.82,-220.19 572.86,-216.66"/>
</g>
<!-- Node25&#45;&gt;Node16 -->
<g id="edge50" class="edge">
<title>Node25&#45;&gt;Node16</title>
<path fill="none" stroke="midnightblue" d="M855.46,-358.46C886.42,-351.76 925.75,-340.41 957,-322 998.43,-297.59 993.28,-271.58 1034,-246 1058.37,-230.69 1088.68,-219.65 1113.46,-212.35"/>
<polygon fill="midnightblue" stroke="midnightblue" points="1114.69,-215.63 1123.35,-209.54 1112.78,-208.9 1114.69,-215.63"/>
</g>
<!-- Node25&#45;&gt;Node18 -->
<g id="edge61" class="edge">
<title>Node25&#45;&gt;Node18</title>
<path fill="none" stroke="midnightblue" d="M743.77,-364.83C560.81,-357.45 24,-329.61 24,-257 24,-257 24,-257 24,-199 24,-164.86 24,-125.05 24,-102.21"/>
<polygon fill="midnightblue" stroke="midnightblue" points="27.5,-102.19 24,-92.19 20.5,-102.19 27.5,-102.19"/>
</g>
<!-- Node25&#45;&gt;Node19 -->
<g id="edge63" class="edge">
<title>Node25&#45;&gt;Node19</title>
<path fill="none" stroke="midnightblue" d="M743.89,-363.62C603.3,-354.75 257.59,-327.19 161,-266 109.32,-233.27 99.67,-212.25 81,-154 74.58,-133.96 89.18,-113.12 102.31,-99.35"/>
<polygon fill="midnightblue" stroke="midnightblue" points="105,-101.61 109.7,-92.11 100.1,-96.61 105,-101.61"/>
</g>
<!-- Node25&#45;&gt;Node23 -->
<g id="edge62" class="edge">
<title>Node25&#45;&gt;Node23</title>
<path fill="none" stroke="midnightblue" d="M787.48,-358.45C739.19,-332.42 605.16,-252.16 661,-190 709.13,-136.42 906.51,-165.21 994.88,-153.68"/>
<polygon fill="midnightblue" stroke="midnightblue" points="995.51,-157.12 1004.85,-152.11 994.42,-150.21 995.51,-157.12"/>
</g>
<!-- Node26 -->
<g id="node26" class="node">
<title>Node26</title>
<g id="a_node26"><a xlink:href="layout_8h.html" target="_top" xlink:title=" ">
<polygon fill="white" stroke="black" points="842,-302.5 842,-321.5 948,-321.5 948,-302.5 842,-302.5"/>
<text text-anchor="middle" x="895" y="-309.5" font-family="Helvetica,sans-Serif" font-size="10.00">log4cplus/layout.h</text>
</a>
</g>
</g>
<!-- Node25&#45;&gt;Node26 -->
<g id="edge33" class="edge">
<title>Node25&#45;&gt;Node26</title>
<path fill="none" stroke="midnightblue" d="M818.62,-358.32C832.95,-349.82 855.01,-336.73 871.75,-326.8"/>
<polygon fill="midnightblue" stroke="midnightblue" points="873.6,-329.77 880.42,-321.65 870.03,-323.75 873.6,-329.77"/>
</g>
<!-- Node32 -->
<g id="node32" class="node">
<title>Node32</title>
<g id="a_node32"><a xlink:href="filter_8h.html" target="_top" xlink:title="This header defines Filter and all of it&#39;s subclasses.">
<polygon fill="white" stroke="black" points="1103,-302.5 1103,-321.5 1217,-321.5 1217,-302.5 1103,-302.5"/>
<text text-anchor="middle" x="1160" y="-309.5" font-family="Helvetica,sans-Serif" font-size="10.00">log4cplus/spi/filter.h</text>
</a>
</g>
</g>
<!-- Node25&#45;&gt;Node32 -->
<g id="edge51" class="edge">
<title>Node25&#45;&gt;Node32</title>
<path fill="none" stroke="midnightblue" d="M860.41,-358.44C923.81,-348.83 1026.65,-333.23 1093.8,-323.04"/>
<polygon fill="midnightblue" stroke="midnightblue" points="1094.49,-326.48 1103.85,-321.52 1093.44,-319.56 1094.49,-326.48"/>
</g>
<!-- Node33 -->
<g id="node33" class="node">
<title>Node33</title>
<g id="a_node33"><a xlink:href="lockfile_8h.html" target="_top" xlink:title=" ">
<polygon fill="white" stroke="black" points="170.5,-246.5 170.5,-265.5 319.5,-265.5 319.5,-246.5 170.5,-246.5"/>
<text text-anchor="middle" x="245" y="-253.5" font-family="Helvetica,sans-Serif" font-size="10.00">log4cplus/helpers/lockfile.h</text>
</a>
</g>
</g>
<!-- Node25&#45;&gt;Node33 -->
<g id="edge56" class="edge">
<title>Node25&#45;&gt;Node33</title>
<path fill="none" stroke="midnightblue" d="M760.6,-358.46C659.48,-338.56 408.44,-289.16 298.27,-267.48"/>
<polygon fill="midnightblue" stroke="midnightblue" points="298.86,-264.03 288.37,-265.53 297.51,-270.9 298.86,-264.03"/>
</g>
<!-- Node26&#45;&gt;Node2 -->
<g id="edge34" class="edge">
<title>Node26&#45;&gt;Node2</title>
<path fill="none" stroke="midnightblue" d="M948.1,-303.42C1036.46,-289.59 1207.49,-257.28 1243,-210 1248.34,-202.89 1243.78,-198.85 1243,-190 1240.77,-164.82 1251.14,-151.61 1233,-134 1195.26,-97.36 1048.56,-87.23 960.33,-84.48"/>
<polygon fill="midnightblue" stroke="midnightblue" points="960.24,-80.97 950.14,-84.18 960.04,-87.97 960.24,-80.97"/>
</g>
<!-- Node26&#45;&gt;Node5 -->
<g id="edge35" class="edge">
<title>Node26&#45;&gt;Node5</title>
<path fill="none" stroke="midnightblue" d="M948.28,-304.05C1023.33,-294.26 1160.15,-276.42 1242,-265.74"/>
<polygon fill="midnightblue" stroke="midnightblue" points="1242.48,-269.21 1251.95,-264.44 1241.58,-262.26 1242.48,-269.21"/>
</g>
<!-- Node26&#45;&gt;Node6 -->
<g id="edge46" class="edge">
<title>Node26&#45;&gt;Node6</title>
<path fill="none" stroke="midnightblue" d="M948.29,-307.74C1065.06,-300.34 1336.21,-281.71 1375,-266 1401.75,-255.16 1426.72,-232.46 1441.68,-216.97"/>
<polygon fill="midnightblue" stroke="midnightblue" points="1444.27,-219.32 1448.54,-209.63 1439.16,-214.54 1444.27,-219.32"/>
</g>
<!-- Node26&#45;&gt;Node7 -->
<g id="edge47" class="edge">
<title>Node26&#45;&gt;Node7</title>
<path fill="none" stroke="midnightblue" d="M858.74,-302.47C832.33,-295.26 796.35,-283.31 768,-266 746.39,-252.81 725.84,-232.01 712.88,-217.5"/>
<polygon fill="midnightblue" stroke="midnightblue" points="715.37,-215.04 706.17,-209.79 710.09,-219.63 715.37,-215.04"/>
</g>
<!-- Node26&#45;&gt;Node9 -->
<g id="edge40" class="edge">
<title>Node26&#45;&gt;Node9</title>
<path fill="none" stroke="midnightblue" d="M863.35,-302.45C831.9,-293.8 782.37,-279.78 740,-266 687.58,-248.95 627.51,-226.7 591.72,-213.15"/>
<polygon fill="midnightblue" stroke="midnightblue" points="592.88,-209.85 582.29,-209.57 590.4,-216.39 592.88,-209.85"/>
</g>
<!-- Node27 -->
<g id="node27" class="node">
<title>Node27</title>
<g id="a_node27"><a xlink:href="streams_8h.html" target="_top" xlink:title=" ">
<polygon fill="white" stroke="black" points="914.5,-190.5 914.5,-209.5 1029.5,-209.5 1029.5,-190.5 914.5,-190.5"/>
<text text-anchor="middle" x="972" y="-197.5" font-family="Helvetica,sans-Serif" font-size="10.00">log4cplus/streams.h</text>
</a>
</g>
</g>
<!-- Node26&#45;&gt;Node27 -->
<g id="edge36" class="edge">
<title>Node26&#45;&gt;Node27</title>
<path fill="none" stroke="midnightblue" d="M911.06,-302.37C924.18,-294.54 942.24,-281.8 953,-266 962.41,-252.18 967.23,-233.66 969.65,-219.92"/>
<polygon fill="midnightblue" stroke="midnightblue" points="973.16,-220.13 971.17,-209.72 966.24,-219.09 973.16,-220.13"/>
</g>
<!-- Node29 -->
<g id="node29" class="node">
<title>Node29</title>
<g id="a_node29"><a xlink:href="timehelper_8h.html" target="_top" xlink:title=" ">
<polygon fill="white" stroke="black" points="777.5,-246.5 777.5,-265.5 944.5,-265.5 944.5,-246.5 777.5,-246.5"/>
<text text-anchor="middle" x="861" y="-253.5" font-family="Helvetica,sans-Serif" font-size="10.00">log4cplus/helpers/timehelper.h</text>
</a>
</g>
</g>
<!-- Node26&#45;&gt;Node29 -->
<g id="edge41" class="edge">
<title>Node26&#45;&gt;Node29</title>
<path fill="none" stroke="midnightblue" d="M889.39,-302.08C884.63,-294.53 877.68,-283.49 871.85,-274.23"/>
<polygon fill="midnightblue" stroke="midnightblue" points="874.8,-272.35 866.51,-265.75 868.88,-276.08 874.8,-272.35"/>
</g>
<!-- Node27&#45;&gt;Node2 -->
<g id="edge37" class="edge">
<title>Node27&#45;&gt;Node2</title>
<path fill="none" stroke="midnightblue" d="M962.58,-190.3C953.54,-181.64 939.85,-167.72 930,-154 917.99,-137.28 907.16,-116.31 900.17,-101.61"/>
<polygon fill="midnightblue" stroke="midnightblue" points="903.17,-99.76 895.79,-92.16 896.82,-102.71 903.17,-99.76"/>
</g>
<!-- Node27&#45;&gt;Node14 -->
<g id="edge38" class="edge">
<title>Node27&#45;&gt;Node14</title>
<path fill="none" stroke="midnightblue" d="M930.8,-190.44C885.35,-181 812.16,-165.8 763.09,-155.61"/>
<polygon fill="midnightblue" stroke="midnightblue" points="763.51,-152.12 753.01,-153.52 762.08,-158.98 763.51,-152.12"/>
</g>
<!-- Node28 -->
<g id="node28" class="node">
<title>Node28</title>
<g id="a_node28"><a xlink:title=" ">
<polygon fill="white" stroke="#bfbfbf" points="939,-134.5 939,-153.5 987,-153.5 987,-134.5 939,-134.5"/>
<text text-anchor="middle" x="963" y="-141.5" font-family="Helvetica,sans-Serif" font-size="10.00">iosfwd</text>
</a>
</g>
</g>
<!-- Node27&#45;&gt;Node28 -->
<g id="edge39" class="edge">
<title>Node27&#45;&gt;Node28</title>
<path fill="none" stroke="midnightblue" d="M970.51,-190.08C969.32,-182.93 967.61,-172.64 966.12,-163.69"/>
<polygon fill="midnightblue" stroke="midnightblue" points="969.55,-163.04 964.46,-153.75 962.65,-164.19 969.55,-163.04"/>
</g>
<!-- Node29&#45;&gt;Node2 -->
<g id="edge42" class="edge">
<title>Node29&#45;&gt;Node2</title>
<path fill="none" stroke="midnightblue" d="M855.76,-246.24C848.98,-233.83 838.54,-210.36 843,-190 850.3,-156.68 869.04,-121.35 881.11,-100.92"/>
<polygon fill="midnightblue" stroke="midnightblue" points="884.23,-102.52 886.43,-92.16 878.25,-98.89 884.23,-102.52"/>
</g>
<!-- Node29&#45;&gt;Node9 -->
<g id="edge43" class="edge">
<title>Node29&#45;&gt;Node9</title>
<path fill="none" stroke="midnightblue" d="M813.31,-246.44C760.14,-236.9 674.18,-221.48 617.37,-211.29"/>
<polygon fill="midnightblue" stroke="midnightblue" points="617.93,-207.84 607.47,-209.52 616.7,-214.73 617.93,-207.84"/>
</g>
<!-- Node30 -->
<g id="node30" class="node">
<title>Node30</title>
<g id="a_node30"><a xlink:title=" ">
<polygon fill="white" stroke="#bfbfbf" points="852,-190.5 852,-209.5 896,-209.5 896,-190.5 852,-190.5"/>
<text text-anchor="middle" x="874" y="-197.5" font-family="Helvetica,sans-Serif" font-size="10.00">ctime</text>
</a>
</g>
</g>
<!-- Node29&#45;&gt;Node30 -->
<g id="edge44" class="edge">
<title>Node29&#45;&gt;Node30</title>
<path fill="none" stroke="midnightblue" d="M863.15,-246.08C864.87,-238.93 867.35,-228.64 869.5,-219.69"/>
<polygon fill="midnightblue" stroke="midnightblue" points="872.96,-220.29 871.89,-209.75 866.15,-218.65 872.96,-220.29"/>
</g>
<!-- Node31 -->
<g id="node31" class="node">
<title>Node31</title>
<g id="a_node31"><a xlink:title=" ">
<polygon fill="white" stroke="#bfbfbf" points="746,-190.5 746,-209.5 796,-209.5 796,-190.5 746,-190.5"/>
<text text-anchor="middle" x="771" y="-197.5" font-family="Helvetica,sans-Serif" font-size="10.00">chrono</text>
</a>
</g>
</g>
<!-- Node29&#45;&gt;Node31 -->
<g id="edge45" class="edge">
<title>Node29&#45;&gt;Node31</title>
<path fill="none" stroke="midnightblue" d="M846.54,-246.32C832.5,-237.9 810.95,-224.97 794.46,-215.07"/>
<polygon fill="midnightblue" stroke="midnightblue" points="795.8,-211.8 785.42,-209.65 792.2,-217.8 795.8,-211.8"/>
</g>
<!-- Node32&#45;&gt;Node2 -->
<g id="edge52" class="edge">
<title>Node32&#45;&gt;Node2</title>
<path fill="none" stroke="midnightblue" d="M1217.07,-310.24C1328.36,-306.63 1557.73,-287.49 1489,-190 1428.87,-104.71 1103.86,-87.65 960.27,-84.29"/>
<polygon fill="midnightblue" stroke="midnightblue" points="960.33,-80.79 950.25,-84.07 960.17,-87.79 960.33,-80.79"/>
</g>
<!-- Node32&#45;&gt;Node5 -->
<g id="edge55" class="edge">
<title>Node32&#45;&gt;Node5</title>
<path fill="none" stroke="midnightblue" d="M1183.61,-302.44C1208.46,-293.44 1247.77,-279.19 1275.75,-269.05"/>
<polygon fill="midnightblue" stroke="midnightblue" points="1277.29,-272.21 1285.5,-265.52 1274.91,-265.63 1277.29,-272.21"/>
</g>
<!-- Node32&#45;&gt;Node11 -->
<g id="edge53" class="edge">
<title>Node32&#45;&gt;Node11</title>
<path fill="none" stroke="midnightblue" d="M1154.06,-302.26C1138.19,-279.62 1092.25,-218.86 1038,-190 979.55,-158.91 902.23,-149.21 854.86,-146.24"/>
<polygon fill="midnightblue" stroke="midnightblue" points="854.83,-142.73 844.65,-145.67 854.44,-149.72 854.83,-142.73"/>
</g>
<!-- Node32&#45;&gt;Node16 -->
<g id="edge54" class="edge">
<title>Node32&#45;&gt;Node16</title>
<path fill="none" stroke="midnightblue" d="M1160,-302.37C1160,-284.62 1160,-243.67 1160,-219.6"/>
<polygon fill="midnightblue" stroke="midnightblue" points="1163.5,-219.59 1160,-209.59 1156.5,-219.59 1163.5,-219.59"/>
</g>
<!-- Node33&#45;&gt;Node2 -->
<g id="edge57" class="edge">
<title>Node33&#45;&gt;Node2</title>
<path fill="none" stroke="midnightblue" d="M250.09,-246.28C264.15,-223.14 306.03,-160.19 360,-134 437.71,-96.29 661.03,-106.3 747,-98 772.01,-95.59 799.44,-92.86 823.64,-90.43"/>
<polygon fill="midnightblue" stroke="midnightblue" points="824.2,-93.9 833.8,-89.41 823.5,-86.93 824.2,-93.9"/>
</g>
<!-- Node33&#45;&gt;Node9 -->
<g id="edge58" class="edge">
<title>Node33&#45;&gt;Node9</title>
<path fill="none" stroke="midnightblue" d="M294.91,-246.44C350.67,-236.89 440.89,-221.42 500.33,-211.23"/>
<polygon fill="midnightblue" stroke="midnightblue" points="501.06,-214.66 510.32,-209.52 499.87,-207.76 501.06,-214.66"/>
</g>
<!-- Node33&#45;&gt;Node17 -->
<g id="edge59" class="edge">
<title>Node33&#45;&gt;Node17</title>
<path fill="none" stroke="midnightblue" d="M239.11,-246.37C226.74,-228.22 197.82,-185.8 181.58,-161.99"/>
<polygon fill="midnightblue" stroke="midnightblue" points="184.38,-159.88 175.86,-153.59 178.6,-163.83 184.38,-159.88"/>
</g>
<!-- Node34&#45;&gt;Node2 -->
<g id="edge68" class="edge">
<title>Node34&#45;&gt;Node2</title>
<path fill="none" stroke="midnightblue" d="M407.61,-246.22C387.88,-224.51 342.42,-167.66 373,-134 401.07,-103.1 705.45,-102.08 747,-98 772.01,-95.55 799.43,-92.81 823.64,-90.39"/>
<polygon fill="midnightblue" stroke="midnightblue" points="824.2,-93.85 833.8,-89.37 823.5,-86.89 824.2,-93.85"/>
</g>
<!-- Node34&#45;&gt;Node9 -->
<g id="edge69" class="edge">
<title>Node34&#45;&gt;Node9</title>
<path fill="none" stroke="midnightblue" d="M438.82,-246.44C462.83,-237.44 500.83,-223.19 527.87,-213.05"/>
<polygon fill="midnightblue" stroke="midnightblue" points="529.16,-216.3 537.29,-209.52 526.7,-209.75 529.16,-216.3"/>
</g>
</g>
</svg>
