<?xml version="1.0" encoding="UTF-8" standalone="no"?>
<!DOCTYPE svg PUBLIC "-//W3C//DTD SVG 1.1//EN"
 "http://www.w3.org/Graphics/SVG/1.1/DTD/svg11.dtd">
<!-- Generated by graphviz version 2.43.0 (0)
 -->
<!-- Title: loggerfactory.h Pages: 1 -->
<svg width="605pt" height="263pt"
 viewBox="0.00 0.00 605.00 263.00" xmlns="http://www.w3.org/2000/svg" xmlns:xlink="http://www.w3.org/1999/xlink">
<g id="graph0" class="graph" transform="scale(1 1) rotate(0) translate(4 259)">
<title>loggerfactory.h</title>
<polygon fill="white" stroke="transparent" points="-4,4 -4,-259 601,-259 601,4 -4,4"/>
<!-- Node1 -->
<g id="node1" class="node">
<title>Node1</title>
<g id="a_node1"><a xlink:title=" ">
<polygon fill="#bfbfbf" stroke="black" points="156,-235.5 156,-254.5 245,-254.5 245,-235.5 156,-235.5"/>
<text text-anchor="middle" x="200.5" y="-242.5" font-family="Helvetica,sans-Serif" font-size="10.00">loggerfactory.h</text>
</a>
</g>
</g>
<!-- Node2 -->
<g id="node2" class="node">
<title>Node2</title>
<g id="a_node2"><a xlink:href="config_8hxx.html" target="_top" xlink:title=" ">
<polygon fill="white" stroke="black" points="87.5,-67.5 87.5,-86.5 203.5,-86.5 203.5,-67.5 87.5,-67.5"/>
<text text-anchor="middle" x="145.5" y="-74.5" font-family="Helvetica,sans-Serif" font-size="10.00">log4cplus/config.hxx</text>
</a>
</g>
</g>
<!-- Node1&#45;&gt;Node2 -->
<g id="edge1" class="edge">
<title>Node1&#45;&gt;Node2</title>
<path fill="none" stroke="midnightblue" d="M194.56,-235.31C183.37,-218.42 159.41,-179.59 149.5,-143 145.38,-127.81 144.56,-109.92 144.67,-96.75"/>
<polygon fill="midnightblue" stroke="midnightblue" points="148.17,-96.68 144.94,-86.59 141.17,-96.49 148.17,-96.68"/>
</g>
<!-- Node5 -->
<g id="node5" class="node">
<title>Node5</title>
<g id="a_node5"><a xlink:href="tstring_8h.html" target="_top" xlink:title=" ">
<polygon fill="white" stroke="black" points="240,-179.5 240,-198.5 347,-198.5 347,-179.5 240,-179.5"/>
<text text-anchor="middle" x="293.5" y="-186.5" font-family="Helvetica,sans-Serif" font-size="10.00">log4cplus/tstring.h</text>
</a>
</g>
</g>
<!-- Node1&#45;&gt;Node5 -->
<g id="edge4" class="edge">
<title>Node1&#45;&gt;Node5</title>
<path fill="none" stroke="midnightblue" d="M215.44,-235.32C230.09,-226.82 252.63,-213.73 269.74,-203.8"/>
<polygon fill="midnightblue" stroke="midnightblue" points="271.7,-206.7 278.6,-198.65 268.19,-200.65 271.7,-206.7"/>
</g>
<!-- Node3 -->
<g id="node3" class="node">
<title>Node3</title>
<g id="a_node3"><a xlink:href="win32_8h.html" target="_top" xlink:title=" ">
<polygon fill="white" stroke="black" points="0,-6 0,-25 137,-25 137,-6 0,-6"/>
<text text-anchor="middle" x="68.5" y="-13" font-family="Helvetica,sans-Serif" font-size="10.00">log4cplus/config/win32.h</text>
</a>
</g>
</g>
<!-- Node2&#45;&gt;Node3 -->
<g id="edge2" class="edge">
<title>Node2&#45;&gt;Node3</title>
<path fill="none" stroke="midnightblue" d="M134.47,-67.48C122.23,-58.02 102.27,-42.6 87.51,-31.19"/>
<polygon fill="midnightblue" stroke="midnightblue" points="89.56,-28.35 79.51,-25.01 85.28,-33.89 89.56,-28.35"/>
</g>
<!-- Node4 -->
<g id="node4" class="node">
<title>Node4</title>
<g id="a_node4"><a xlink:href="thread-config_8h.html" target="_top" xlink:title=" ">
<polygon fill="white" stroke="black" points="155,-0.5 155,-30.5 292,-30.5 292,-0.5 155,-0.5"/>
<text text-anchor="start" x="163" y="-18.5" font-family="Helvetica,sans-Serif" font-size="10.00">log4cplus/helpers/thread</text>
<text text-anchor="middle" x="223.5" y="-7.5" font-family="Helvetica,sans-Serif" font-size="10.00">&#45;config.h</text>
</a>
</g>
</g>
<!-- Node2&#45;&gt;Node4 -->
<g id="edge3" class="edge">
<title>Node2&#45;&gt;Node4</title>
<path fill="none" stroke="midnightblue" d="M156.68,-67.48C167.14,-59.49 183.18,-47.25 196.93,-36.77"/>
<polygon fill="midnightblue" stroke="midnightblue" points="199.29,-39.37 205.12,-30.52 195.04,-33.81 199.29,-39.37"/>
</g>
<!-- Node5&#45;&gt;Node2 -->
<g id="edge5" class="edge">
<title>Node5&#45;&gt;Node2</title>
<path fill="none" stroke="midnightblue" d="M239.88,-180.94C213.92,-174.91 184.19,-163.72 164.5,-143 152.74,-130.62 148.21,-111.38 146.49,-97.04"/>
<polygon fill="midnightblue" stroke="midnightblue" points="149.96,-96.48 145.63,-86.81 142.98,-97.07 149.96,-96.48"/>
</g>
<!-- Node6 -->
<g id="node6" class="node">
<title>Node6</title>
<g id="a_node6"><a xlink:title=" ">
<polygon fill="white" stroke="#bfbfbf" points="174,-123.5 174,-142.5 243,-142.5 243,-123.5 174,-123.5"/>
<text text-anchor="middle" x="208.5" y="-130.5" font-family="Helvetica,sans-Serif" font-size="10.00">type_traits</text>
</a>
</g>
</g>
<!-- Node5&#45;&gt;Node6 -->
<g id="edge6" class="edge">
<title>Node5&#45;&gt;Node6</title>
<path fill="none" stroke="midnightblue" d="M279.84,-179.32C266.58,-170.9 246.23,-157.97 230.65,-148.07"/>
<polygon fill="midnightblue" stroke="midnightblue" points="232.44,-145.06 222.12,-142.65 228.69,-150.97 232.44,-145.06"/>
</g>
<!-- Node7 -->
<g id="node7" class="node">
<title>Node7</title>
<g id="a_node7"><a xlink:title=" ">
<polygon fill="white" stroke="#bfbfbf" points="261,-123.5 261,-142.5 326,-142.5 326,-123.5 261,-123.5"/>
<text text-anchor="middle" x="293.5" y="-130.5" font-family="Helvetica,sans-Serif" font-size="10.00">functional</text>
</a>
</g>
</g>
<!-- Node5&#45;&gt;Node7 -->
<g id="edge7" class="edge">
<title>Node5&#45;&gt;Node7</title>
<path fill="none" stroke="midnightblue" d="M293.5,-179.08C293.5,-172.01 293.5,-161.86 293.5,-152.99"/>
<polygon fill="midnightblue" stroke="midnightblue" points="297,-152.75 293.5,-142.75 290,-152.75 297,-152.75"/>
</g>
<!-- Node8 -->
<g id="node8" class="node">
<title>Node8</title>
<g id="a_node8"><a xlink:title=" ">
<polygon fill="white" stroke="#bfbfbf" points="344.5,-123.5 344.5,-142.5 388.5,-142.5 388.5,-123.5 344.5,-123.5"/>
<text text-anchor="middle" x="366.5" y="-130.5" font-family="Helvetica,sans-Serif" font-size="10.00">string</text>
</a>
</g>
</g>
<!-- Node5&#45;&gt;Node8 -->
<g id="edge8" class="edge">
<title>Node5&#45;&gt;Node8</title>
<path fill="none" stroke="midnightblue" d="M305.23,-179.32C316.34,-171.11 333.24,-158.6 346.48,-148.81"/>
<polygon fill="midnightblue" stroke="midnightblue" points="348.6,-151.59 354.56,-142.83 344.44,-145.97 348.6,-151.59"/>
</g>
<!-- Node9 -->
<g id="node9" class="node">
<title>Node9</title>
<g id="a_node9"><a xlink:title=" ">
<polygon fill="white" stroke="#bfbfbf" points="407,-123.5 407,-142.5 480,-142.5 480,-123.5 407,-123.5"/>
<text text-anchor="middle" x="443.5" y="-130.5" font-family="Helvetica,sans-Serif" font-size="10.00">string_view</text>
</a>
</g>
</g>
<!-- Node5&#45;&gt;Node9 -->
<g id="edge9" class="edge">
<title>Node5&#45;&gt;Node9</title>
<path fill="none" stroke="midnightblue" d="M317.27,-179.44C342.39,-170.4 382.21,-156.06 410.4,-145.92"/>
<polygon fill="midnightblue" stroke="midnightblue" points="411.62,-149.2 419.84,-142.52 409.25,-142.61 411.62,-149.2"/>
</g>
<!-- Node10 -->
<g id="node10" class="node">
<title>Node10</title>
<g id="a_node10"><a xlink:href="tchar_8h.html" target="_top" xlink:title=" ">
<polygon fill="white" stroke="black" points="498,-123.5 498,-142.5 597,-142.5 597,-123.5 498,-123.5"/>
<text text-anchor="middle" x="547.5" y="-130.5" font-family="Helvetica,sans-Serif" font-size="10.00">log4cplus/tchar.h</text>
</a>
</g>
</g>
<!-- Node5&#45;&gt;Node10 -->
<g id="edge10" class="edge">
<title>Node5&#45;&gt;Node10</title>
<path fill="none" stroke="midnightblue" d="M333.75,-179.44C378.15,-170 449.65,-154.8 497.59,-144.61"/>
<polygon fill="midnightblue" stroke="midnightblue" points="498.39,-148.02 507.44,-142.52 496.93,-141.17 498.39,-148.02"/>
</g>
<!-- Node10&#45;&gt;Node2 -->
<g id="edge11" class="edge">
<title>Node10&#45;&gt;Node2</title>
<path fill="none" stroke="midnightblue" d="M497.84,-124.21C495.02,-123.8 492.22,-123.39 489.5,-123 393.88,-109.33 283.07,-95.13 213.62,-86.42"/>
<polygon fill="midnightblue" stroke="midnightblue" points="214.04,-82.95 203.68,-85.18 213.17,-89.9 214.04,-82.95"/>
</g>
<!-- Node11 -->
<g id="node11" class="node">
<title>Node11</title>
<g id="a_node11"><a xlink:title=" ">
<polygon fill="white" stroke="#bfbfbf" points="521,-67.5 521,-86.5 574,-86.5 574,-67.5 521,-67.5"/>
<text text-anchor="middle" x="547.5" y="-74.5" font-family="Helvetica,sans-Serif" font-size="10.00">cstddef</text>
</a>
</g>
</g>
<!-- Node10&#45;&gt;Node11 -->
<g id="edge12" class="edge">
<title>Node10&#45;&gt;Node11</title>
<path fill="none" stroke="midnightblue" d="M547.5,-123.08C547.5,-116.01 547.5,-105.86 547.5,-96.99"/>
<polygon fill="midnightblue" stroke="midnightblue" points="551,-96.75 547.5,-86.75 544,-96.75 551,-96.75"/>
</g>
</g>
</svg>
