<?xml version="1.0" encoding="UTF-8" standalone="no"?>
<!DOCTYPE svg PUBLIC "-//W3C//DTD SVG 1.1//EN"
 "http://www.w3.org/Graphics/SVG/1.1/DTD/svg11.dtd">
<!-- Generated by graphviz version 2.43.0 (0)
 -->
<!-- Title: loggerfactory.h Pages: 1 -->
<svg width="515pt" height="252pt"
 viewBox="0.00 0.00 515.00 252.00" xmlns="http://www.w3.org/2000/svg" xmlns:xlink="http://www.w3.org/1999/xlink">
<g id="graph0" class="graph" transform="scale(1 1) rotate(0) translate(4 248)">
<title>loggerfactory.h</title>
<polygon fill="white" stroke="transparent" points="-4,4 -4,-248 511,-248 511,4 -4,4"/>
<!-- Node1 -->
<g id="node1" class="node">
<title>Node1</title>
<g id="a_node1"><a xlink:title=" ">
<polygon fill="#bfbfbf" stroke="black" points="225,-224.5 225,-243.5 314,-243.5 314,-224.5 225,-224.5"/>
<text text-anchor="middle" x="269.5" y="-231.5" font-family="Helvetica,sans-Serif" font-size="10.00">loggerfactory.h</text>
</a>
</g>
</g>
<!-- Node2 -->
<g id="node2" class="node">
<title>Node2</title>
<g id="a_node2"><a xlink:href="logger_8h.html" target="_top" xlink:title="This header defines the Logger class and the logging macros.">
<polygon fill="white" stroke="black" points="199.5,-168.5 199.5,-187.5 255.5,-187.5 255.5,-168.5 199.5,-168.5"/>
<text text-anchor="middle" x="227.5" y="-175.5" font-family="Helvetica,sans-Serif" font-size="10.00">logger.h</text>
</a>
</g>
</g>
<!-- Node1&#45;&gt;Node2 -->
<g id="edge1" class="edge">
<title>Node1&#45;&gt;Node2</title>
<path fill="none" stroke="midnightblue" d="M256.39,-216.14C249.07,-206.74 240.26,-195.4 234.31,-187.75"/>
<polygon fill="midnightblue" stroke="midnightblue" points="253.66,-218.34 262.56,-224.08 259.19,-214.04 253.66,-218.34"/>
</g>
<!-- Node9 -->
<g id="node9" class="node">
<title>Node9</title>
<g id="a_node9"><a xlink:href="loggerimpl_8h.html" target="_top" xlink:title=" ">
<polygon fill="white" stroke="black" points="351.5,-168.5 351.5,-187.5 429.5,-187.5 429.5,-168.5 351.5,-168.5"/>
<text text-anchor="middle" x="390.5" y="-175.5" font-family="Helvetica,sans-Serif" font-size="10.00">loggerimpl.h</text>
</a>
</g>
</g>
<!-- Node1&#45;&gt;Node9 -->
<g id="edge13" class="edge">
<title>Node1&#45;&gt;Node9</title>
<path fill="none" stroke="midnightblue" d="M297.81,-220.37C320.47,-210.26 351.63,-196.35 371.42,-187.52"/>
<polygon fill="midnightblue" stroke="midnightblue" points="296.38,-217.17 288.67,-224.44 299.23,-223.56 296.38,-217.17"/>
</g>
<!-- Node3 -->
<g id="node3" class="node">
<title>Node3</title>
<g id="a_node3"><a xlink:href="configurator_8h.html" target="_top" xlink:title=" ">
<polygon fill="white" stroke="black" points="0,-56.5 0,-75.5 83,-75.5 83,-56.5 0,-56.5"/>
<text text-anchor="middle" x="41.5" y="-63.5" font-family="Helvetica,sans-Serif" font-size="10.00">configurator.h</text>
</a>
</g>
</g>
<!-- Node2&#45;&gt;Node3 -->
<g id="edge2" class="edge">
<title>Node2&#45;&gt;Node3</title>
<path fill="none" stroke="midnightblue" d="M189.49,-169.43C162.19,-162.72 125.45,-150.97 97.5,-132 74.83,-116.61 55.82,-89.76 46.92,-75.88"/>
<polygon fill="midnightblue" stroke="midnightblue" points="188.91,-172.89 199.44,-171.76 190.51,-166.07 188.91,-172.89"/>
</g>
<!-- Node4 -->
<g id="node4" class="node">
<title>Node4</title>
<g id="a_node4"><a xlink:href="log4cplus_8h.html" target="_top" xlink:title=" ">
<polygon fill="white" stroke="black" points="138.5,-0.5 138.5,-19.5 210.5,-19.5 210.5,-0.5 138.5,-0.5"/>
<text text-anchor="middle" x="174.5" y="-7.5" font-family="Helvetica,sans-Serif" font-size="10.00">log4cplus.h</text>
</a>
</g>
</g>
<!-- Node2&#45;&gt;Node4 -->
<g id="edge7" class="edge">
<title>Node2&#45;&gt;Node4</title>
<path fill="none" stroke="midnightblue" d="M201.3,-163.47C187.9,-155.61 172.04,-144.75 160.5,-132 141.55,-111.07 137.37,-103.39 130.5,-76 128.34,-67.38 127.14,-64.23 130.5,-56 136.77,-40.62 151.11,-27.64 161.72,-19.63"/>
<polygon fill="midnightblue" stroke="midnightblue" points="199.67,-166.57 210.1,-168.42 203.1,-160.46 199.67,-166.57"/>
</g>
<!-- Node5 -->
<g id="node5" class="node">
<title>Node5</title>
<g id="a_node5"><a xlink:href="hierarchy_8h.html" target="_top" xlink:title=" ">
<polygon fill="white" stroke="black" points="139.5,-56.5 139.5,-75.5 209.5,-75.5 209.5,-56.5 139.5,-56.5"/>
<text text-anchor="middle" x="174.5" y="-63.5" font-family="Helvetica,sans-Serif" font-size="10.00">hierarchy.h</text>
</a>
</g>
</g>
<!-- Node2&#45;&gt;Node5 -->
<g id="edge4" class="edge">
<title>Node2&#45;&gt;Node5</title>
<path fill="none" stroke="midnightblue" d="M199.67,-163.27C187.76,-155.81 175.1,-145.34 168.5,-132 159.35,-113.51 166.24,-88.46 170.99,-75.52"/>
<polygon fill="midnightblue" stroke="midnightblue" points="198.11,-166.41 208.52,-168.4 201.62,-160.36 198.11,-166.41"/>
</g>
<!-- Node6 -->
<g id="node6" class="node">
<title>Node6</title>
<g id="a_node6"><a xlink:href="hierarchylocker_8h.html" target="_top" xlink:title=" ">
<polygon fill="white" stroke="black" points="177.5,-112.5 177.5,-131.5 277.5,-131.5 277.5,-112.5 177.5,-112.5"/>
<text text-anchor="middle" x="227.5" y="-119.5" font-family="Helvetica,sans-Serif" font-size="10.00">hierarchylocker.h</text>
</a>
</g>
</g>
<!-- Node2&#45;&gt;Node6 -->
<g id="edge6" class="edge">
<title>Node2&#45;&gt;Node6</title>
<path fill="none" stroke="midnightblue" d="M227.5,-157.8C227.5,-148.91 227.5,-138.78 227.5,-131.75"/>
<polygon fill="midnightblue" stroke="midnightblue" points="224,-158.08 227.5,-168.08 231,-158.08 224,-158.08"/>
</g>
<!-- Node7 -->
<g id="node7" class="node">
<title>Node7</title>
<g id="a_node7"><a xlink:href="loggingmacros_8h.html" target="_top" xlink:title="This header defines the logging macros.">
<polygon fill="white" stroke="black" points="247.5,-56.5 247.5,-75.5 345.5,-75.5 345.5,-56.5 247.5,-56.5"/>
<text text-anchor="middle" x="296.5" y="-63.5" font-family="Helvetica,sans-Serif" font-size="10.00">loggingmacros.h</text>
</a>
</g>
</g>
<!-- Node2&#45;&gt;Node7 -->
<g id="edge8" class="edge">
<title>Node2&#45;&gt;Node7</title>
<path fill="none" stroke="midnightblue" d="M253.7,-163.25C265.61,-155.64 278.74,-145.06 286.5,-132 297.11,-114.13 297.69,-88.82 297.14,-75.68"/>
<polygon fill="midnightblue" stroke="midnightblue" points="251.73,-160.35 244.94,-168.48 255.32,-166.36 251.73,-160.35"/>
</g>
<!-- Node8 -->
<g id="node8" class="node">
<title>Node8</title>
<g id="a_node8"><a xlink:href="tracelogger_8h.html" target="_top" xlink:title=" ">
<polygon fill="white" stroke="black" points="333.5,-112.5 333.5,-131.5 413.5,-131.5 413.5,-112.5 333.5,-112.5"/>
<text text-anchor="middle" x="373.5" y="-119.5" font-family="Helvetica,sans-Serif" font-size="10.00">tracelogger.h</text>
</a>
</g>
</g>
<!-- Node2&#45;&gt;Node8 -->
<g id="edge10" class="edge">
<title>Node2&#45;&gt;Node8</title>
<path fill="none" stroke="midnightblue" d="M260.2,-164.91C287.65,-154.75 326.17,-140.51 350.47,-131.52"/>
<polygon fill="midnightblue" stroke="midnightblue" points="258.8,-161.69 250.63,-168.44 261.23,-168.26 258.8,-161.69"/>
</g>
<!-- Node3&#45;&gt;Node4 -->
<g id="edge3" class="edge">
<title>Node3&#45;&gt;Node4</title>
<path fill="none" stroke="midnightblue" d="M71.95,-52.64C96.91,-42.5 131.58,-28.43 153.52,-19.52"/>
<polygon fill="midnightblue" stroke="midnightblue" points="70.52,-49.44 62.57,-56.44 73.16,-55.92 70.52,-49.44"/>
</g>
<!-- Node5&#45;&gt;Node4 -->
<g id="edge5" class="edge">
<title>Node5&#45;&gt;Node4</title>
<path fill="none" stroke="midnightblue" d="M174.5,-45.8C174.5,-36.91 174.5,-26.78 174.5,-19.75"/>
<polygon fill="midnightblue" stroke="midnightblue" points="171,-46.08 174.5,-56.08 178,-46.08 171,-46.08"/>
</g>
<!-- Node7&#45;&gt;Node4 -->
<g id="edge9" class="edge">
<title>Node7&#45;&gt;Node4</title>
<path fill="none" stroke="midnightblue" d="M267.96,-52.37C245.11,-42.26 213.69,-28.35 193.74,-19.52"/>
<polygon fill="midnightblue" stroke="midnightblue" points="266.61,-55.6 277.17,-56.44 269.44,-49.2 266.61,-55.6"/>
</g>
<!-- Node8&#45;&gt;Node4 -->
<g id="edge11" class="edge">
<title>Node8&#45;&gt;Node4</title>
<path fill="none" stroke="midnightblue" d="M372.87,-102.13C371.36,-87.57 366.94,-67.96 354.5,-56 334.12,-36.41 257.09,-22.53 210.66,-15.74"/>
<polygon fill="midnightblue" stroke="midnightblue" points="369.4,-102.73 373.55,-112.48 376.39,-102.27 369.4,-102.73"/>
</g>
<!-- Node8&#45;&gt;Node7 -->
<g id="edge12" class="edge">
<title>Node8&#45;&gt;Node7</title>
<path fill="none" stroke="midnightblue" d="M352.6,-106.34C338.59,-96.52 320.62,-83.91 308.84,-75.65"/>
<polygon fill="midnightblue" stroke="midnightblue" points="350.93,-109.45 361.13,-112.32 354.95,-103.72 350.93,-109.45"/>
</g>
<!-- Node10 -->
<g id="node10" class="node">
<title>Node10</title>
<g id="a_node10"><a xlink:href="rootlogger_8h.html" target="_top" xlink:title=" ">
<polygon fill="white" stroke="black" points="432,-112.5 432,-131.5 507,-131.5 507,-112.5 432,-112.5"/>
<text text-anchor="middle" x="469.5" y="-119.5" font-family="Helvetica,sans-Serif" font-size="10.00">rootlogger.h</text>
</a>
</g>
</g>
<!-- Node9&#45;&gt;Node10 -->
<g id="edge14" class="edge">
<title>Node9&#45;&gt;Node10</title>
<path fill="none" stroke="midnightblue" d="M411.53,-162.62C425.97,-152.76 444.64,-139.99 456.84,-131.65"/>
<polygon fill="midnightblue" stroke="midnightblue" points="409.47,-159.79 403.19,-168.32 413.42,-165.57 409.47,-159.79"/>
</g>
</g>
</svg>
