<?xml version="1.0" encoding="UTF-8" standalone="no"?>
<!DOCTYPE svg PUBLIC "-//W3C//DTD SVG 1.1//EN"
 "http://www.w3.org/Graphics/SVG/1.1/DTD/svg11.dtd">
<!-- Generated by graphviz version 2.43.0 (0)
 -->
<!-- Title: loggingmacros.h Pages: 1 -->
<svg width="2115pt" height="621pt"
 viewBox="0.00 0.00 2114.50 621.00" xmlns="http://www.w3.org/2000/svg" xmlns:xlink="http://www.w3.org/1999/xlink">
<g id="graph0" class="graph" transform="scale(1 1) rotate(0) translate(4 617)">
<title>loggingmacros.h</title>
<polygon fill="white" stroke="transparent" points="-4,4 -4,-617 2110.5,-617 2110.5,4 -4,4"/>
<!-- Node1 -->
<g id="node1" class="node">
<title>Node1</title>
<g id="a_node1"><a xlink:title="This header defines the logging macros.">
<polygon fill="#bfbfbf" stroke="black" points="401.5,-593.5 401.5,-612.5 499.5,-612.5 499.5,-593.5 401.5,-593.5"/>
<text text-anchor="middle" x="450.5" y="-600.5" font-family="Helvetica,sans-Serif" font-size="10.00">loggingmacros.h</text>
</a>
</g>
</g>
<!-- Node2 -->
<g id="node2" class="node">
<title>Node2</title>
<g id="a_node2"><a xlink:href="config_8hxx.html" target="_top" xlink:title=" ">
<polygon fill="white" stroke="black" points="720.5,-73 720.5,-92 836.5,-92 836.5,-73 720.5,-73"/>
<text text-anchor="middle" x="778.5" y="-80" font-family="Helvetica,sans-Serif" font-size="10.00">log4cplus/config.hxx</text>
</a>
</g>
</g>
<!-- Node1&#45;&gt;Node2 -->
<g id="edge1" class="edge">
<title>Node1&#45;&gt;Node2</title>
<path fill="none" stroke="midnightblue" d="M401.3,-599.24C357.52,-594.99 292.94,-584.24 243.5,-557 207.99,-537.43 179.5,-532.54 179.5,-492 179.5,-492 179.5,-492 179.5,-311 179.5,-232.31 122.23,-191.92 175.5,-134 211.11,-95.29 560.05,-86.24 710.28,-84.13"/>
<polygon fill="midnightblue" stroke="midnightblue" points="710.36,-87.63 720.32,-84 710.27,-80.63 710.36,-87.63"/>
</g>
<!-- Node5 -->
<g id="node5" class="node">
<title>Node5</title>
<g id="a_node5"><a xlink:href="streams_8h.html" target="_top" xlink:title=" ">
<polygon fill="white" stroke="black" points="307,-246.5 307,-265.5 422,-265.5 422,-246.5 307,-246.5"/>
<text text-anchor="middle" x="364.5" y="-253.5" font-family="Helvetica,sans-Serif" font-size="10.00">log4cplus/streams.h</text>
</a>
</g>
</g>
<!-- Node1&#45;&gt;Node5 -->
<g id="edge4" class="edge">
<title>Node1&#45;&gt;Node5</title>
<path fill="none" stroke="midnightblue" d="M445.22,-593.23C434.77,-575.04 412.5,-531.6 412.5,-492 412.5,-492 412.5,-492 412.5,-367 412.5,-331.58 391.34,-294.71 377.12,-273.92"/>
<polygon fill="midnightblue" stroke="midnightblue" points="379.82,-271.68 371.17,-265.56 374.12,-275.74 379.82,-271.68"/>
</g>
<!-- Node9 -->
<g id="node9" class="node">
<title>Node9</title>
<g id="a_node9"><a xlink:href="logger_8h.html" target="_top" xlink:title="This header defines the Logger class and the logging macros.">
<polygon fill="white" stroke="black" points="522,-481.5 522,-500.5 627,-500.5 627,-481.5 522,-481.5"/>
<text text-anchor="middle" x="574.5" y="-488.5" font-family="Helvetica,sans-Serif" font-size="10.00">log4cplus/logger.h</text>
</a>
</g>
</g>
<!-- Node1&#45;&gt;Node9 -->
<g id="edge10" class="edge">
<title>Node1&#45;&gt;Node9</title>
<path fill="none" stroke="midnightblue" d="M450.76,-593.31C451.61,-579.69 455.15,-553.19 469.5,-537 483.68,-521 504.53,-510.5 523.93,-503.7"/>
<polygon fill="midnightblue" stroke="midnightblue" points="525.16,-506.98 533.59,-500.56 523,-500.32 525.16,-506.98"/>
</g>
<!-- Node36 -->
<g id="node36" class="node">
<title>Node36</title>
<g id="a_node36"><a xlink:href="snprintf_8h.html" target="_top" xlink:title=" ">
<polygon fill="white" stroke="black" points="0,-246.5 0,-265.5 151,-265.5 151,-246.5 0,-246.5"/>
<text text-anchor="middle" x="75.5" y="-253.5" font-family="Helvetica,sans-Serif" font-size="10.00">log4cplus/helpers/snprintf.h</text>
</a>
</g>
</g>
<!-- Node1&#45;&gt;Node36 -->
<g id="edge74" class="edge">
<title>Node1&#45;&gt;Node36</title>
<path fill="none" stroke="midnightblue" d="M401.38,-598.29C330.88,-592.28 205.15,-578.85 165.5,-557 131.85,-538.45 108.5,-530.42 108.5,-492 108.5,-492 108.5,-492 108.5,-367 108.5,-333.25 94.07,-296.03 84.29,-274.69"/>
<polygon fill="midnightblue" stroke="midnightblue" points="87.41,-273.1 79.95,-265.58 81.09,-276.11 87.41,-273.1"/>
</g>
<!-- Node38 -->
<g id="node38" class="node">
<title>Node38</title>
<g id="a_node38"><a xlink:href="tracelogger_8h.html" target="_top" xlink:title=" ">
<polygon fill="white" stroke="black" points="252.5,-537.5 252.5,-556.5 382.5,-556.5 382.5,-537.5 252.5,-537.5"/>
<text text-anchor="middle" x="317.5" y="-544.5" font-family="Helvetica,sans-Serif" font-size="10.00">log4cplus/tracelogger.h</text>
</a>
</g>
</g>
<!-- Node1&#45;&gt;Node38 -->
<g id="edge79" class="edge">
<title>Node1&#45;&gt;Node38</title>
<path fill="none" stroke="midnightblue" d="M429.43,-593.44C407.44,-584.52 372.77,-570.44 347.84,-560.32"/>
<polygon fill="midnightblue" stroke="midnightblue" points="349.06,-557.04 338.48,-556.52 346.42,-563.52 349.06,-557.04"/>
</g>
<!-- Node40 -->
<g id="node40" class="node">
<title>Node40</title>
<g id="a_node40"><a xlink:title=" ">
<polygon fill="white" stroke="#bfbfbf" points="478.5,-537.5 478.5,-556.5 534.5,-556.5 534.5,-537.5 478.5,-537.5"/>
<text text-anchor="middle" x="506.5" y="-544.5" font-family="Helvetica,sans-Serif" font-size="10.00">sstream</text>
</a>
</g>
</g>
<!-- Node1&#45;&gt;Node40 -->
<g id="edge84" class="edge">
<title>Node1&#45;&gt;Node40</title>
<path fill="none" stroke="midnightblue" d="M459.5,-593.32C467.69,-585.42 480.01,-573.55 489.97,-563.94"/>
<polygon fill="midnightblue" stroke="midnightblue" points="492.57,-566.29 497.34,-556.83 487.71,-561.26 492.57,-566.29"/>
</g>
<!-- Node41 -->
<g id="node41" class="node">
<title>Node41</title>
<g id="a_node41"><a xlink:title=" ">
<polygon fill="white" stroke="#bfbfbf" points="553,-537.5 553,-556.5 598,-556.5 598,-537.5 553,-537.5"/>
<text text-anchor="middle" x="575.5" y="-544.5" font-family="Helvetica,sans-Serif" font-size="10.00">utility</text>
</a>
</g>
</g>
<!-- Node1&#45;&gt;Node41 -->
<g id="edge85" class="edge">
<title>Node1&#45;&gt;Node41</title>
<path fill="none" stroke="midnightblue" d="M470.31,-593.44C490.79,-584.6 522.98,-570.69 546.36,-560.59"/>
<polygon fill="midnightblue" stroke="midnightblue" points="547.99,-563.7 555.79,-556.52 545.22,-557.27 547.99,-563.7"/>
</g>
<!-- Node42 -->
<g id="node42" class="node">
<title>Node42</title>
<g id="a_node42"><a xlink:title=" ">
<polygon fill="white" stroke="#bfbfbf" points="616.5,-537.5 616.5,-556.5 666.5,-556.5 666.5,-537.5 616.5,-537.5"/>
<text text-anchor="middle" x="641.5" y="-544.5" font-family="Helvetica,sans-Serif" font-size="10.00">format</text>
</a>
</g>
</g>
<!-- Node1&#45;&gt;Node42 -->
<g id="edge86" class="edge">
<title>Node1&#45;&gt;Node42</title>
<path fill="none" stroke="midnightblue" d="M480.76,-593.44C514.85,-583.81 570.17,-568.17 606.19,-557.98"/>
<polygon fill="midnightblue" stroke="midnightblue" points="607.59,-561.23 616.26,-555.14 605.68,-554.49 607.59,-561.23"/>
</g>
<!-- Node43 -->
<g id="node43" class="node">
<title>Node43</title>
<g id="a_node43"><a xlink:title=" ">
<polygon fill="white" stroke="#bfbfbf" points="685,-537.5 685,-556.5 738,-556.5 738,-537.5 685,-537.5"/>
<text text-anchor="middle" x="711.5" y="-544.5" font-family="Helvetica,sans-Serif" font-size="10.00">iterator</text>
</a>
</g>
</g>
<!-- Node1&#45;&gt;Node43 -->
<g id="edge87" class="edge">
<title>Node1&#45;&gt;Node43</title>
<path fill="none" stroke="midnightblue" d="M496.31,-593.5C539.74,-585.29 607.03,-572.2 674.8,-557.07"/>
<polygon fill="midnightblue" stroke="midnightblue" points="675.81,-560.43 684.8,-554.83 674.27,-553.6 675.81,-560.43"/>
</g>
<!-- Node3 -->
<g id="node3" class="node">
<title>Node3</title>
<g id="a_node3"><a xlink:href="win32_8h.html" target="_top" xlink:title=" ">
<polygon fill="white" stroke="black" points="633,-6 633,-25 770,-25 770,-6 633,-6"/>
<text text-anchor="middle" x="701.5" y="-13" font-family="Helvetica,sans-Serif" font-size="10.00">log4cplus/config/win32.h</text>
</a>
</g>
</g>
<!-- Node2&#45;&gt;Node3 -->
<g id="edge2" class="edge">
<title>Node2&#45;&gt;Node3</title>
<path fill="none" stroke="midnightblue" d="M768.12,-72.73C755.65,-62.21 734.53,-44.38 719.41,-31.62"/>
<polygon fill="midnightblue" stroke="midnightblue" points="721.62,-28.9 711.72,-25.13 717.1,-34.25 721.62,-28.9"/>
</g>
<!-- Node4 -->
<g id="node4" class="node">
<title>Node4</title>
<g id="a_node4"><a xlink:href="thread-config_8h.html" target="_top" xlink:title=" ">
<polygon fill="white" stroke="black" points="788,-0.5 788,-30.5 925,-30.5 925,-0.5 788,-0.5"/>
<text text-anchor="start" x="796" y="-18.5" font-family="Helvetica,sans-Serif" font-size="10.00">log4cplus/helpers/thread</text>
<text text-anchor="middle" x="856.5" y="-7.5" font-family="Helvetica,sans-Serif" font-size="10.00">&#45;config.h</text>
</a>
</g>
</g>
<!-- Node2&#45;&gt;Node4 -->
<g id="edge3" class="edge">
<title>Node2&#45;&gt;Node4</title>
<path fill="none" stroke="midnightblue" d="M789.02,-72.73C799.86,-63.7 817.17,-49.27 831.54,-37.3"/>
<polygon fill="midnightblue" stroke="midnightblue" points="834.15,-39.68 839.59,-30.59 829.67,-34.3 834.15,-39.68"/>
</g>
<!-- Node5&#45;&gt;Node2 -->
<g id="edge5" class="edge">
<title>Node5&#45;&gt;Node2</title>
<path fill="none" stroke="midnightblue" d="M370.21,-246.47C376.17,-237.48 385.71,-222.89 393.5,-210 413.58,-176.79 404.5,-155.95 436.5,-134 479.76,-104.32 623.44,-91.63 710.2,-86.56"/>
<polygon fill="midnightblue" stroke="midnightblue" points="710.44,-90.05 720.23,-85.99 710.05,-83.06 710.44,-90.05"/>
</g>
<!-- Node6 -->
<g id="node6" class="node">
<title>Node6</title>
<g id="a_node6"><a xlink:href="tchar_8h.html" target="_top" xlink:title=" ">
<polygon fill="white" stroke="black" points="185,-134.5 185,-153.5 284,-153.5 284,-134.5 185,-134.5"/>
<text text-anchor="middle" x="234.5" y="-141.5" font-family="Helvetica,sans-Serif" font-size="10.00">log4cplus/tchar.h</text>
</a>
</g>
</g>
<!-- Node5&#45;&gt;Node6 -->
<g id="edge6" class="edge">
<title>Node5&#45;&gt;Node6</title>
<path fill="none" stroke="midnightblue" d="M354.3,-246.37C332.28,-227.73 280.04,-183.53 252.39,-160.13"/>
<polygon fill="midnightblue" stroke="midnightblue" points="254.55,-157.38 244.65,-153.59 250.03,-162.72 254.55,-157.38"/>
</g>
<!-- Node8 -->
<g id="node8" class="node">
<title>Node8</title>
<g id="a_node8"><a xlink:title=" ">
<polygon fill="white" stroke="#bfbfbf" points="336.5,-190.5 336.5,-209.5 384.5,-209.5 384.5,-190.5 336.5,-190.5"/>
<text text-anchor="middle" x="360.5" y="-197.5" font-family="Helvetica,sans-Serif" font-size="10.00">iosfwd</text>
</a>
</g>
</g>
<!-- Node5&#45;&gt;Node8 -->
<g id="edge9" class="edge">
<title>Node5&#45;&gt;Node8</title>
<path fill="none" stroke="midnightblue" d="M363.84,-246.08C363.32,-239.01 362.56,-228.86 361.91,-219.99"/>
<polygon fill="midnightblue" stroke="midnightblue" points="365.38,-219.47 361.15,-209.75 358.4,-219.98 365.38,-219.47"/>
</g>
<!-- Node6&#45;&gt;Node2 -->
<g id="edge7" class="edge">
<title>Node6&#45;&gt;Node2</title>
<path fill="none" stroke="midnightblue" d="M284.09,-135.85C288.96,-135.2 293.82,-134.57 298.5,-134 445,-116 617.15,-98.86 710.29,-89.92"/>
<polygon fill="midnightblue" stroke="midnightblue" points="710.8,-93.39 720.42,-88.95 710.14,-86.42 710.8,-93.39"/>
</g>
<!-- Node7 -->
<g id="node7" class="node">
<title>Node7</title>
<g id="a_node7"><a xlink:title=" ">
<polygon fill="white" stroke="#bfbfbf" points="208,-73 208,-92 261,-92 261,-73 208,-73"/>
<text text-anchor="middle" x="234.5" y="-80" font-family="Helvetica,sans-Serif" font-size="10.00">cstddef</text>
</a>
</g>
</g>
<!-- Node6&#45;&gt;Node7 -->
<g id="edge8" class="edge">
<title>Node6&#45;&gt;Node7</title>
<path fill="none" stroke="midnightblue" d="M234.5,-134.48C234.5,-126.08 234.5,-112.98 234.5,-102.16"/>
<polygon fill="midnightblue" stroke="midnightblue" points="238,-102.01 234.5,-92.01 231,-102.01 238,-102.01"/>
</g>
<!-- Node9&#45;&gt;Node2 -->
<g id="edge11" class="edge">
<title>Node9&#45;&gt;Node2</title>
<path fill="none" stroke="midnightblue" d="M554.02,-481.42C518.8,-465.12 450.5,-426.15 450.5,-369 450.5,-369 450.5,-369 450.5,-199 450.5,-150.73 493.51,-153.86 537.5,-134 592.72,-109.07 660.67,-96.26 710.33,-89.8"/>
<polygon fill="midnightblue" stroke="midnightblue" points="710.83,-93.26 720.32,-88.55 709.96,-86.32 710.83,-93.26"/>
</g>
<!-- Node10 -->
<g id="node10" class="node">
<title>Node10</title>
<g id="a_node10"><a xlink:href="loglevel_8h.html" target="_top" xlink:title="This header defines the LogLevel type.">
<polygon fill="white" stroke="black" points="1458.5,-246.5 1458.5,-265.5 1572.5,-265.5 1572.5,-246.5 1458.5,-246.5"/>
<text text-anchor="middle" x="1515.5" y="-253.5" font-family="Helvetica,sans-Serif" font-size="10.00">log4cplus/loglevel.h</text>
</a>
</g>
</g>
<!-- Node9&#45;&gt;Node10 -->
<g id="edge12" class="edge">
<title>Node9&#45;&gt;Node10</title>
<path fill="none" stroke="midnightblue" d="M627.24,-488.61C834.11,-482.61 1582.13,-455.67 1650.5,-378 1689.18,-334.06 1600.38,-290.09 1548.93,-269.33"/>
<polygon fill="midnightblue" stroke="midnightblue" points="1550.08,-266.02 1539.49,-265.62 1547.51,-272.54 1550.08,-266.02"/>
</g>
<!-- Node11 -->
<g id="node11" class="node">
<title>Node11</title>
<g id="a_node11"><a xlink:title=" ">
<polygon fill="white" stroke="#bfbfbf" points="541,-190.5 541,-209.5 588,-209.5 588,-190.5 541,-190.5"/>
<text text-anchor="middle" x="564.5" y="-197.5" font-family="Helvetica,sans-Serif" font-size="10.00">vector</text>
</a>
</g>
</g>
<!-- Node9&#45;&gt;Node11 -->
<g id="edge73" class="edge">
<title>Node9&#45;&gt;Node11</title>
<path fill="none" stroke="midnightblue" d="M574.2,-481.35C572.83,-441.63 567.1,-276.25 565.15,-219.9"/>
<polygon fill="midnightblue" stroke="midnightblue" points="568.64,-219.49 564.8,-209.62 561.65,-219.73 568.64,-219.49"/>
</g>
<!-- Node14 -->
<g id="node14" class="node">
<title>Node14</title>
<g id="a_node14"><a xlink:href="tstring_8h.html" target="_top" xlink:title=" ">
<polygon fill="white" stroke="black" points="1021,-190.5 1021,-209.5 1128,-209.5 1128,-190.5 1021,-190.5"/>
<text text-anchor="middle" x="1074.5" y="-197.5" font-family="Helvetica,sans-Serif" font-size="10.00">log4cplus/tstring.h</text>
</a>
</g>
</g>
<!-- Node9&#45;&gt;Node14 -->
<g id="edge34" class="edge">
<title>Node9&#45;&gt;Node14</title>
<path fill="none" stroke="midnightblue" d="M627.07,-489.26C762.44,-485.96 1112.5,-467.85 1112.5,-369 1112.5,-369 1112.5,-369 1112.5,-311 1112.5,-276.81 1095.9,-239.76 1084.64,-218.57"/>
<polygon fill="midnightblue" stroke="midnightblue" points="1087.68,-216.83 1079.78,-209.77 1081.55,-220.22 1087.68,-216.83"/>
</g>
<!-- Node27 -->
<g id="node27" class="node">
<title>Node27</title>
<g id="a_node27"><a xlink:href="appenderattachable_8h.html" target="_top" xlink:title=" ">
<polygon fill="white" stroke="black" points="788.5,-420 788.5,-439 978.5,-439 978.5,-420 788.5,-420"/>
<text text-anchor="middle" x="883.5" y="-427" font-family="Helvetica,sans-Serif" font-size="10.00">log4cplus/spi/appenderattachable.h</text>
</a>
</g>
</g>
<!-- Node9&#45;&gt;Node27 -->
<g id="edge35" class="edge">
<title>Node9&#45;&gt;Node27</title>
<path fill="none" stroke="midnightblue" d="M618.77,-481.48C674.3,-470.78 769.47,-452.46 829.3,-440.94"/>
<polygon fill="midnightblue" stroke="midnightblue" points="830.15,-444.34 839.31,-439.01 828.83,-437.46 830.15,-444.34"/>
</g>
<!-- Node35 -->
<g id="node35" class="node">
<title>Node35</title>
<g id="a_node35"><a xlink:href="loggerfactory_8h.html" target="_top" xlink:title=" ">
<polygon fill="white" stroke="black" points="630.5,-246.5 630.5,-265.5 786.5,-265.5 786.5,-246.5 630.5,-246.5"/>
<text text-anchor="middle" x="708.5" y="-253.5" font-family="Helvetica,sans-Serif" font-size="10.00">log4cplus/spi/loggerfactory.h</text>
</a>
</g>
</g>
<!-- Node9&#45;&gt;Node35 -->
<g id="edge70" class="edge">
<title>Node9&#45;&gt;Node35</title>
<path fill="none" stroke="midnightblue" d="M579.43,-481.43C599,-447.4 671.48,-321.37 698.37,-274.61"/>
<polygon fill="midnightblue" stroke="midnightblue" points="701.43,-276.31 703.38,-265.9 695.36,-272.82 701.43,-276.31"/>
</g>
<!-- Node10&#45;&gt;Node2 -->
<g id="edge13" class="edge">
<title>Node10&#45;&gt;Node2</title>
<path fill="none" stroke="midnightblue" d="M1512.39,-246.32C1507.11,-232.71 1495.25,-206.23 1477.5,-190 1434.37,-150.55 1414.94,-149.22 1358.5,-134 1263.72,-108.45 978.86,-92.6 846.93,-86.44"/>
<polygon fill="midnightblue" stroke="midnightblue" points="846.71,-82.92 836.56,-85.96 846.39,-89.92 846.71,-82.92"/>
</g>
<!-- Node10&#45;&gt;Node11 -->
<g id="edge14" class="edge">
<title>Node10&#45;&gt;Node11</title>
<path fill="none" stroke="midnightblue" d="M1458.15,-251.74C1279.88,-241.62 738.91,-210.9 598.23,-202.92"/>
<polygon fill="midnightblue" stroke="midnightblue" points="598.25,-199.41 588.06,-202.34 597.85,-206.4 598.25,-199.41"/>
</g>
<!-- Node12 -->
<g id="node12" class="node">
<title>Node12</title>
<g id="a_node12"><a xlink:title=" ">
<polygon fill="white" stroke="#bfbfbf" points="1410.5,-190.5 1410.5,-209.5 1468.5,-209.5 1468.5,-190.5 1410.5,-190.5"/>
<text text-anchor="middle" x="1439.5" y="-197.5" font-family="Helvetica,sans-Serif" font-size="10.00">memory</text>
</a>
</g>
</g>
<!-- Node10&#45;&gt;Node12 -->
<g id="edge15" class="edge">
<title>Node10&#45;&gt;Node12</title>
<path fill="none" stroke="midnightblue" d="M1503.29,-246.32C1491.72,-238.11 1474.12,-225.6 1460.34,-215.81"/>
<polygon fill="midnightblue" stroke="midnightblue" points="1462.11,-212.77 1451.93,-209.83 1458.06,-218.48 1462.11,-212.77"/>
</g>
<!-- Node13 -->
<g id="node13" class="node">
<title>Node13</title>
<g id="a_node13"><a xlink:title=" ">
<polygon fill="white" stroke="#bfbfbf" points="1524.5,-190.5 1524.5,-209.5 1610.5,-209.5 1610.5,-190.5 1524.5,-190.5"/>
<text text-anchor="middle" x="1567.5" y="-197.5" font-family="Helvetica,sans-Serif" font-size="10.00">shared_mutex</text>
</a>
</g>
</g>
<!-- Node10&#45;&gt;Node13 -->
<g id="edge16" class="edge">
<title>Node10&#45;&gt;Node13</title>
<path fill="none" stroke="midnightblue" d="M1524.09,-246.08C1531.66,-238.22 1542.88,-226.57 1552.01,-217.08"/>
<polygon fill="midnightblue" stroke="midnightblue" points="1554.66,-219.38 1559.07,-209.75 1549.62,-214.53 1554.66,-219.38"/>
</g>
<!-- Node10&#45;&gt;Node14 -->
<g id="edge17" class="edge">
<title>Node10&#45;&gt;Node14</title>
<path fill="none" stroke="midnightblue" d="M1458.3,-248C1375.89,-237.9 1224.23,-219.33 1138.29,-208.81"/>
<polygon fill="midnightblue" stroke="midnightblue" points="1138.5,-205.31 1128.15,-207.57 1137.65,-212.26 1138.5,-205.31"/>
</g>
<!-- Node19 -->
<g id="node19" class="node">
<title>Node19</title>
<g id="a_node19"><a xlink:href="pointer_8h.html" target="_top" xlink:title=" ">
<polygon fill="white" stroke="black" points="1704.5,-190.5 1704.5,-209.5 1852.5,-209.5 1852.5,-190.5 1704.5,-190.5"/>
<text text-anchor="middle" x="1778.5" y="-197.5" font-family="Helvetica,sans-Serif" font-size="10.00">log4cplus/helpers/pointer.h</text>
</a>
</g>
</g>
<!-- Node10&#45;&gt;Node19 -->
<g id="edge24" class="edge">
<title>Node10&#45;&gt;Node19</title>
<path fill="none" stroke="midnightblue" d="M1557.17,-246.44C1603.25,-236.98 1677.5,-221.74 1727.13,-211.55"/>
<polygon fill="midnightblue" stroke="midnightblue" points="1727.93,-214.96 1737.02,-209.52 1726.52,-208.1 1727.93,-214.96"/>
</g>
<!-- Node14&#45;&gt;Node2 -->
<g id="edge18" class="edge">
<title>Node14&#45;&gt;Node2</title>
<path fill="none" stroke="midnightblue" d="M1046.79,-190.47C1019.52,-181.89 976.8,-167.97 940.5,-154 892.5,-135.54 837.89,-111.02 805.91,-96.3"/>
<polygon fill="midnightblue" stroke="midnightblue" points="807.3,-93.08 796.75,-92.06 804.36,-99.43 807.3,-93.08"/>
</g>
<!-- Node14&#45;&gt;Node6 -->
<g id="edge23" class="edge">
<title>Node14&#45;&gt;Node6</title>
<path fill="none" stroke="midnightblue" d="M1020.98,-191.25C1017.1,-190.79 1013.24,-190.37 1009.5,-190 743.41,-163.9 424.33,-151.23 294.18,-146.85"/>
<polygon fill="midnightblue" stroke="midnightblue" points="294.13,-143.34 284.02,-146.51 293.9,-150.34 294.13,-143.34"/>
</g>
<!-- Node15 -->
<g id="node15" class="node">
<title>Node15</title>
<g id="a_node15"><a xlink:title=" ">
<polygon fill="white" stroke="#bfbfbf" points="1040,-134.5 1040,-153.5 1109,-153.5 1109,-134.5 1040,-134.5"/>
<text text-anchor="middle" x="1074.5" y="-141.5" font-family="Helvetica,sans-Serif" font-size="10.00">type_traits</text>
</a>
</g>
</g>
<!-- Node14&#45;&gt;Node15 -->
<g id="edge19" class="edge">
<title>Node14&#45;&gt;Node15</title>
<path fill="none" stroke="midnightblue" d="M1074.5,-190.08C1074.5,-183.01 1074.5,-172.86 1074.5,-163.99"/>
<polygon fill="midnightblue" stroke="midnightblue" points="1078,-163.75 1074.5,-153.75 1071,-163.75 1078,-163.75"/>
</g>
<!-- Node16 -->
<g id="node16" class="node">
<title>Node16</title>
<g id="a_node16"><a xlink:title=" ">
<polygon fill="white" stroke="#bfbfbf" points="1240,-134.5 1240,-153.5 1305,-153.5 1305,-134.5 1240,-134.5"/>
<text text-anchor="middle" x="1272.5" y="-141.5" font-family="Helvetica,sans-Serif" font-size="10.00">functional</text>
</a>
</g>
</g>
<!-- Node14&#45;&gt;Node16 -->
<g id="edge20" class="edge">
<title>Node14&#45;&gt;Node16</title>
<path fill="none" stroke="midnightblue" d="M1105.87,-190.44C1139.76,-181.2 1193.9,-166.44 1231.22,-156.26"/>
<polygon fill="midnightblue" stroke="midnightblue" points="1232.55,-159.52 1241.27,-153.52 1230.7,-152.77 1232.55,-159.52"/>
</g>
<!-- Node17 -->
<g id="node17" class="node">
<title>Node17</title>
<g id="a_node17"><a xlink:title=" ">
<polygon fill="white" stroke="#bfbfbf" points="1127.5,-134.5 1127.5,-153.5 1171.5,-153.5 1171.5,-134.5 1127.5,-134.5"/>
<text text-anchor="middle" x="1149.5" y="-141.5" font-family="Helvetica,sans-Serif" font-size="10.00">string</text>
</a>
</g>
</g>
<!-- Node14&#45;&gt;Node17 -->
<g id="edge21" class="edge">
<title>Node14&#45;&gt;Node17</title>
<path fill="none" stroke="midnightblue" d="M1086.55,-190.32C1097.96,-182.11 1115.33,-169.6 1128.93,-159.81"/>
<polygon fill="midnightblue" stroke="midnightblue" points="1131.16,-162.52 1137.23,-153.83 1127.07,-156.84 1131.16,-162.52"/>
</g>
<!-- Node18 -->
<g id="node18" class="node">
<title>Node18</title>
<g id="a_node18"><a xlink:title=" ">
<polygon fill="white" stroke="#bfbfbf" points="949,-134.5 949,-153.5 1022,-153.5 1022,-134.5 949,-134.5"/>
<text text-anchor="middle" x="985.5" y="-141.5" font-family="Helvetica,sans-Serif" font-size="10.00">string_view</text>
</a>
</g>
</g>
<!-- Node14&#45;&gt;Node18 -->
<g id="edge22" class="edge">
<title>Node14&#45;&gt;Node18</title>
<path fill="none" stroke="midnightblue" d="M1060.2,-190.32C1046.32,-181.9 1025.01,-168.97 1008.7,-159.07"/>
<polygon fill="midnightblue" stroke="midnightblue" points="1010.13,-155.85 999.76,-153.65 1006.5,-161.83 1010.13,-155.85"/>
</g>
<!-- Node19&#45;&gt;Node2 -->
<g id="edge25" class="edge">
<title>Node19&#45;&gt;Node2</title>
<path fill="none" stroke="midnightblue" d="M1761.18,-190.34C1731.03,-175.73 1666.56,-146.56 1608.5,-134 1463.83,-102.71 1018.37,-89.15 846.83,-84.99"/>
<polygon fill="midnightblue" stroke="midnightblue" points="846.74,-81.48 836.66,-84.74 846.57,-88.48 846.74,-81.48"/>
</g>
<!-- Node20 -->
<g id="node20" class="node">
<title>Node20</title>
<g id="a_node20"><a xlink:href="syncprims_8h.html" target="_top" xlink:title=" ">
<polygon fill="white" stroke="black" points="1698.5,-134.5 1698.5,-153.5 1858.5,-153.5 1858.5,-134.5 1698.5,-134.5"/>
<text text-anchor="middle" x="1778.5" y="-141.5" font-family="Helvetica,sans-Serif" font-size="10.00">log4cplus/thread/syncprims.h</text>
</a>
</g>
</g>
<!-- Node19&#45;&gt;Node20 -->
<g id="edge26" class="edge">
<title>Node19&#45;&gt;Node20</title>
<path fill="none" stroke="midnightblue" d="M1778.5,-190.08C1778.5,-183.01 1778.5,-172.86 1778.5,-163.99"/>
<polygon fill="midnightblue" stroke="midnightblue" points="1782,-163.75 1778.5,-153.75 1775,-163.75 1782,-163.75"/>
</g>
<!-- Node24 -->
<g id="node24" class="node">
<title>Node24</title>
<g id="a_node24"><a xlink:title=" ">
<polygon fill="white" stroke="#bfbfbf" points="1946.5,-134.5 1946.5,-153.5 2010.5,-153.5 2010.5,-134.5 1946.5,-134.5"/>
<text text-anchor="middle" x="1978.5" y="-141.5" font-family="Helvetica,sans-Serif" font-size="10.00">algorithm</text>
</a>
</g>
</g>
<!-- Node19&#45;&gt;Node24 -->
<g id="edge31" class="edge">
<title>Node19&#45;&gt;Node24</title>
<path fill="none" stroke="midnightblue" d="M1810.19,-190.44C1844.57,-181.16 1899.58,-166.31 1937.29,-156.13"/>
<polygon fill="midnightblue" stroke="midnightblue" points="1938.22,-159.5 1946.96,-153.52 1936.39,-152.74 1938.22,-159.5"/>
</g>
<!-- Node25 -->
<g id="node25" class="node">
<title>Node25</title>
<g id="a_node25"><a xlink:title=" ">
<polygon fill="white" stroke="#bfbfbf" points="1876.5,-134.5 1876.5,-153.5 1928.5,-153.5 1928.5,-134.5 1876.5,-134.5"/>
<text text-anchor="middle" x="1902.5" y="-141.5" font-family="Helvetica,sans-Serif" font-size="10.00">cassert</text>
</a>
</g>
</g>
<!-- Node19&#45;&gt;Node25 -->
<g id="edge32" class="edge">
<title>Node19&#45;&gt;Node25</title>
<path fill="none" stroke="midnightblue" d="M1798.15,-190.44C1818.46,-181.6 1850.4,-167.69 1873.6,-157.59"/>
<polygon fill="midnightblue" stroke="midnightblue" points="1875.17,-160.72 1882.94,-153.52 1872.38,-154.3 1875.17,-160.72"/>
</g>
<!-- Node26 -->
<g id="node26" class="node">
<title>Node26</title>
<g id="a_node26"><a xlink:title=" ">
<polygon fill="white" stroke="#bfbfbf" points="2028.5,-134.5 2028.5,-153.5 2078.5,-153.5 2078.5,-134.5 2028.5,-134.5"/>
<text text-anchor="middle" x="2053.5" y="-141.5" font-family="Helvetica,sans-Serif" font-size="10.00">atomic</text>
</a>
</g>
</g>
<!-- Node19&#45;&gt;Node26 -->
<g id="edge33" class="edge">
<title>Node19&#45;&gt;Node26</title>
<path fill="none" stroke="midnightblue" d="M1830.44,-190.45C1877.2,-182.49 1948.01,-169.8 2018.38,-154.13"/>
<polygon fill="midnightblue" stroke="midnightblue" points="2019.31,-157.5 2028.3,-151.89 2017.78,-150.67 2019.31,-157.5"/>
</g>
<!-- Node20&#45;&gt;Node2 -->
<g id="edge27" class="edge">
<title>Node20&#45;&gt;Node2</title>
<path fill="none" stroke="midnightblue" d="M1698.23,-137.4C1681.16,-136.24 1663.23,-135.06 1646.5,-134 1348.77,-115.19 993.42,-95.33 846.86,-87.24"/>
<polygon fill="midnightblue" stroke="midnightblue" points="846.85,-83.74 836.67,-86.68 846.46,-90.73 846.85,-83.74"/>
</g>
<!-- Node21 -->
<g id="node21" class="node">
<title>Node21</title>
<g id="a_node21"><a xlink:title=" ">
<polygon fill="white" stroke="#bfbfbf" points="1646.5,-73 1646.5,-92 1694.5,-92 1694.5,-73 1646.5,-73"/>
<text text-anchor="middle" x="1670.5" y="-80" font-family="Helvetica,sans-Serif" font-size="10.00">mutex</text>
</a>
</g>
</g>
<!-- Node20&#45;&gt;Node21 -->
<g id="edge28" class="edge">
<title>Node20&#45;&gt;Node21</title>
<path fill="none" stroke="midnightblue" d="M1763.03,-134.48C1745.22,-124.67 1715.76,-108.43 1694.87,-96.92"/>
<polygon fill="midnightblue" stroke="midnightblue" points="1696.39,-93.77 1685.95,-92.01 1693.01,-99.9 1696.39,-93.77"/>
</g>
<!-- Node22 -->
<g id="node22" class="node">
<title>Node22</title>
<g id="a_node22"><a xlink:title=" ">
<polygon fill="white" stroke="#bfbfbf" points="1957,-73 1957,-92 2064,-92 2064,-73 1957,-73"/>
<text text-anchor="middle" x="2010.5" y="-80" font-family="Helvetica,sans-Serif" font-size="10.00">condition_variable</text>
</a>
</g>
</g>
<!-- Node20&#45;&gt;Node22 -->
<g id="edge29" class="edge">
<title>Node20&#45;&gt;Node22</title>
<path fill="none" stroke="midnightblue" d="M1811.74,-134.48C1852.74,-123.96 1922.53,-106.06 1967.55,-94.51"/>
<polygon fill="midnightblue" stroke="midnightblue" points="1968.5,-97.88 1977.32,-92.01 1966.77,-91.1 1968.5,-97.88"/>
</g>
<!-- Node23 -->
<g id="node23" class="node">
<title>Node23</title>
<g id="a_node23"><a xlink:href="threadsafetyanalysis_8h.html" target="_top" xlink:title=" ">
<polygon fill="white" stroke="black" points="1713,-67.5 1713,-97.5 1844,-97.5 1844,-67.5 1713,-67.5"/>
<text text-anchor="start" x="1721" y="-85.5" font-family="Helvetica,sans-Serif" font-size="10.00">log4cplus/internal</text>
<text text-anchor="middle" x="1778.5" y="-74.5" font-family="Helvetica,sans-Serif" font-size="10.00">/threadsafetyanalysis.h</text>
</a>
</g>
</g>
<!-- Node20&#45;&gt;Node23 -->
<g id="edge30" class="edge">
<title>Node20&#45;&gt;Node23</title>
<path fill="none" stroke="midnightblue" d="M1778.5,-134.48C1778.5,-127.47 1778.5,-117.19 1778.5,-107.7"/>
<polygon fill="midnightblue" stroke="midnightblue" points="1782,-107.52 1778.5,-97.52 1775,-107.52 1782,-107.52"/>
</g>
<!-- Node27&#45;&gt;Node2 -->
<g id="edge36" class="edge">
<title>Node27&#45;&gt;Node2</title>
<path fill="none" stroke="midnightblue" d="M841.54,-419.99C805.88,-411.88 753.89,-397.93 711.5,-378 612.77,-331.57 567,-313.51 532.5,-210 506.14,-130.92 628.62,-100.92 710.22,-89.8"/>
<polygon fill="midnightblue" stroke="midnightblue" points="710.98,-93.23 720.45,-88.48 710.08,-86.29 710.98,-93.23"/>
</g>
<!-- Node27&#45;&gt;Node11 -->
<g id="edge69" class="edge">
<title>Node27&#45;&gt;Node11</title>
<path fill="none" stroke="midnightblue" d="M855.99,-419.93C799.36,-400.98 668.67,-350.41 592.5,-266 580.55,-252.76 573.15,-233.63 568.98,-219.55"/>
<polygon fill="midnightblue" stroke="midnightblue" points="572.27,-218.31 566.3,-209.55 565.51,-220.11 572.27,-218.31"/>
</g>
<!-- Node27&#45;&gt;Node14 -->
<g id="edge67" class="edge">
<title>Node27&#45;&gt;Node14</title>
<path fill="none" stroke="midnightblue" d="M899.23,-419.95C927.23,-404.03 986.1,-367.31 1021.5,-322 1046.47,-290.04 1062.23,-244.5 1069.59,-219.39"/>
<polygon fill="midnightblue" stroke="midnightblue" points="1072.98,-220.27 1072.31,-209.69 1066.24,-218.38 1072.98,-220.27"/>
</g>
<!-- Node27&#45;&gt;Node19 -->
<g id="edge68" class="edge">
<title>Node27&#45;&gt;Node19</title>
<path fill="none" stroke="midnightblue" d="M978.72,-425.65C1170.44,-419.4 1589.92,-403.06 1650.5,-378 1715.26,-351.21 1729.32,-328.26 1761.5,-266 1769.03,-251.43 1773.42,-233.25 1775.84,-219.83"/>
<polygon fill="midnightblue" stroke="midnightblue" points="1779.31,-220.28 1777.44,-209.85 1772.4,-219.17 1779.31,-220.28"/>
</g>
<!-- Node28 -->
<g id="node28" class="node">
<title>Node28</title>
<g id="a_node28"><a xlink:href="appender_8h.html" target="_top" xlink:title=" ">
<polygon fill="white" stroke="black" points="1521.5,-358.5 1521.5,-377.5 1641.5,-377.5 1641.5,-358.5 1521.5,-358.5"/>
<text text-anchor="middle" x="1581.5" y="-365.5" font-family="Helvetica,sans-Serif" font-size="10.00">log4cplus/appender.h</text>
</a>
</g>
</g>
<!-- Node27&#45;&gt;Node28 -->
<g id="edge37" class="edge">
<title>Node27&#45;&gt;Node28</title>
<path fill="none" stroke="midnightblue" d="M978.73,-420.38C1120.78,-408.27 1384.96,-385.75 1511.02,-375.01"/>
<polygon fill="midnightblue" stroke="midnightblue" points="1511.66,-378.47 1521.32,-374.13 1511.06,-371.49 1511.66,-378.47"/>
</g>
<!-- Node28&#45;&gt;Node2 -->
<g id="edge38" class="edge">
<title>Node28&#45;&gt;Node2</title>
<path fill="none" stroke="midnightblue" d="M1587.82,-358.18C1606.95,-330.33 1660.44,-242.97 1619.5,-190 1572.36,-129.01 1039.05,-96.51 846.94,-86.73"/>
<polygon fill="midnightblue" stroke="midnightblue" points="846.85,-83.22 836.69,-86.21 846.5,-90.21 846.85,-83.22"/>
</g>
<!-- Node28&#45;&gt;Node10 -->
<g id="edge51" class="edge">
<title>Node28&#45;&gt;Node10</title>
<path fill="none" stroke="midnightblue" d="M1576.41,-358.12C1569.2,-345.57 1555.52,-321.92 1543.5,-302 1537.91,-292.73 1531.54,-282.47 1526.29,-274.09"/>
<polygon fill="midnightblue" stroke="midnightblue" points="1529.22,-272.19 1520.94,-265.58 1523.3,-275.91 1529.22,-272.19"/>
</g>
<!-- Node28&#45;&gt;Node12 -->
<g id="edge63" class="edge">
<title>Node28&#45;&gt;Node12</title>
<path fill="none" stroke="midnightblue" d="M1584.63,-358.33C1591.78,-336.88 1606.81,-280.58 1581.5,-246 1569.25,-229.26 1516.59,-215.83 1478.98,-208.14"/>
<polygon fill="midnightblue" stroke="midnightblue" points="1479.31,-204.63 1468.82,-206.12 1477.94,-211.5 1479.31,-204.63"/>
</g>
<!-- Node28&#45;&gt;Node14 -->
<g id="edge52" class="edge">
<title>Node28&#45;&gt;Node14</title>
<path fill="none" stroke="midnightblue" d="M1521.23,-360.16C1438.55,-349.04 1286.84,-322.35 1169.5,-266 1140.86,-252.24 1111.15,-230.51 1092.75,-216"/>
<polygon fill="midnightblue" stroke="midnightblue" points="1094.67,-213.06 1084.68,-209.53 1090.29,-218.52 1094.67,-213.06"/>
</g>
<!-- Node28&#45;&gt;Node19 -->
<g id="edge53" class="edge">
<title>Node28&#45;&gt;Node19</title>
<path fill="none" stroke="midnightblue" d="M1614.98,-358.42C1637.92,-351.35 1668.14,-339.6 1690.5,-322 1727.44,-292.93 1756.13,-244.49 1769.77,-218.59"/>
<polygon fill="midnightblue" stroke="midnightblue" points="1772.95,-220.07 1774.4,-209.57 1766.72,-216.88 1772.95,-220.07"/>
</g>
<!-- Node28&#45;&gt;Node21 -->
<g id="edge64" class="edge">
<title>Node28&#45;&gt;Node21</title>
<path fill="none" stroke="midnightblue" d="M1605.55,-358.45C1621.74,-351.33 1641.98,-339.52 1652.5,-322 1695.37,-250.58 1682.11,-144.64 1674.36,-102.14"/>
<polygon fill="midnightblue" stroke="midnightblue" points="1677.76,-101.27 1672.41,-92.12 1670.88,-102.6 1677.76,-101.27"/>
</g>
<!-- Node28&#45;&gt;Node22 -->
<g id="edge66" class="edge">
<title>Node28&#45;&gt;Node22</title>
<path fill="none" stroke="midnightblue" d="M1641.72,-366.94C1779.62,-365.17 2106.5,-351.06 2106.5,-257 2106.5,-257 2106.5,-257 2106.5,-199 2106.5,-168.9 2105.41,-158.19 2087.5,-134 2075.41,-117.68 2056.35,-105.11 2040.22,-96.6"/>
<polygon fill="midnightblue" stroke="midnightblue" points="2041.65,-93.4 2031.14,-92.06 2038.52,-99.66 2041.65,-93.4"/>
</g>
<!-- Node28&#45;&gt;Node26 -->
<g id="edge65" class="edge">
<title>Node28&#45;&gt;Node26</title>
<path fill="none" stroke="midnightblue" d="M1611.05,-358.44C1638.33,-350.21 1679.75,-336.84 1714.5,-322 1837.18,-269.59 1976.13,-190.41 2030.22,-158.77"/>
<polygon fill="midnightblue" stroke="midnightblue" points="2032.18,-161.68 2039.03,-153.6 2028.63,-155.65 2032.18,-161.68"/>
</g>
<!-- Node29 -->
<g id="node29" class="node">
<title>Node29</title>
<g id="a_node29"><a xlink:href="layout_8h.html" target="_top" xlink:title=" ">
<polygon fill="white" stroke="black" points="906.5,-302.5 906.5,-321.5 1012.5,-321.5 1012.5,-302.5 906.5,-302.5"/>
<text text-anchor="middle" x="959.5" y="-309.5" font-family="Helvetica,sans-Serif" font-size="10.00">log4cplus/layout.h</text>
</a>
</g>
</g>
<!-- Node28&#45;&gt;Node29 -->
<g id="edge39" class="edge">
<title>Node28&#45;&gt;Node29</title>
<path fill="none" stroke="midnightblue" d="M1521.29,-361.77C1403.39,-351.54 1143.08,-328.94 1022.76,-318.49"/>
<polygon fill="midnightblue" stroke="midnightblue" points="1022.87,-314.99 1012.6,-317.61 1022.26,-321.96 1022.87,-314.99"/>
</g>
<!-- Node33 -->
<g id="node33" class="node">
<title>Node33</title>
<g id="a_node33"><a xlink:href="filter_8h.html" target="_top" xlink:title="This header defines Filter and all of it&#39;s subclasses.">
<polygon fill="white" stroke="black" points="1420.5,-302.5 1420.5,-321.5 1534.5,-321.5 1534.5,-302.5 1420.5,-302.5"/>
<text text-anchor="middle" x="1477.5" y="-309.5" font-family="Helvetica,sans-Serif" font-size="10.00">log4cplus/spi/filter.h</text>
</a>
</g>
</g>
<!-- Node28&#45;&gt;Node33 -->
<g id="edge54" class="edge">
<title>Node28&#45;&gt;Node33</title>
<path fill="none" stroke="midnightblue" d="M1564.79,-358.32C1548.19,-349.7 1522.5,-336.36 1503.28,-326.39"/>
<polygon fill="midnightblue" stroke="midnightblue" points="1504.66,-323.16 1494.17,-321.65 1501.43,-329.37 1504.66,-323.16"/>
</g>
<!-- Node34 -->
<g id="node34" class="node">
<title>Node34</title>
<g id="a_node34"><a xlink:href="lockfile_8h.html" target="_top" xlink:title=" ">
<polygon fill="white" stroke="black" points="1178,-246.5 1178,-265.5 1327,-265.5 1327,-246.5 1178,-246.5"/>
<text text-anchor="middle" x="1252.5" y="-253.5" font-family="Helvetica,sans-Serif" font-size="10.00">log4cplus/helpers/lockfile.h</text>
</a>
</g>
</g>
<!-- Node28&#45;&gt;Node34 -->
<g id="edge59" class="edge">
<title>Node28&#45;&gt;Node34</title>
<path fill="none" stroke="midnightblue" d="M1543.61,-358.46C1508.88,-350.28 1456.22,-336.99 1411.5,-322 1364.81,-306.35 1312.2,-283.84 1280.73,-269.84"/>
<polygon fill="midnightblue" stroke="midnightblue" points="1281.85,-266.51 1271.29,-265.61 1278.99,-272.89 1281.85,-266.51"/>
</g>
<!-- Node29&#45;&gt;Node2 -->
<g id="edge40" class="edge">
<title>Node29&#45;&gt;Node2</title>
<path fill="none" stroke="midnightblue" d="M906.23,-303.34C881.11,-297.16 852.55,-286.03 833.5,-266 789.26,-219.48 780.49,-138.66 778.83,-102.24"/>
<polygon fill="midnightblue" stroke="midnightblue" points="782.32,-101.96 778.51,-92.08 775.33,-102.18 782.32,-101.96"/>
</g>
<!-- Node29&#45;&gt;Node5 -->
<g id="edge42" class="edge">
<title>Node29&#45;&gt;Node5</title>
<path fill="none" stroke="midnightblue" d="M906.44,-306.18C798.22,-296.36 552.2,-274.04 432.48,-263.17"/>
<polygon fill="midnightblue" stroke="midnightblue" points="432.61,-259.67 422.34,-262.25 431.98,-266.64 432.61,-259.67"/>
</g>
<!-- Node29&#45;&gt;Node10 -->
<g id="edge41" class="edge">
<title>Node29&#45;&gt;Node10</title>
<path fill="none" stroke="midnightblue" d="M1012.56,-305.85C1114.16,-295.98 1336.02,-274.43 1447.99,-263.56"/>
<polygon fill="midnightblue" stroke="midnightblue" points="1448.54,-267.02 1458.15,-262.57 1447.86,-260.05 1448.54,-267.02"/>
</g>
<!-- Node29&#45;&gt;Node11 -->
<g id="edge49" class="edge">
<title>Node29&#45;&gt;Node11</title>
<path fill="none" stroke="midnightblue" d="M906.4,-308.46C823.95,-303.77 669.64,-291.78 621.5,-266 600.9,-254.97 584.27,-233.32 574.41,-218.04"/>
<polygon fill="midnightblue" stroke="midnightblue" points="577.38,-216.19 569.16,-209.5 571.42,-219.86 577.38,-216.19"/>
</g>
<!-- Node29&#45;&gt;Node12 -->
<g id="edge50" class="edge">
<title>Node29&#45;&gt;Node12</title>
<path fill="none" stroke="midnightblue" d="M1012.69,-311.94C1087.24,-311.64 1226.08,-305.17 1336.5,-266 1368.99,-254.48 1401.87,-231.27 1421.47,-215.93"/>
<polygon fill="midnightblue" stroke="midnightblue" points="1423.87,-218.49 1429.49,-209.51 1419.5,-213.03 1423.87,-218.49"/>
</g>
<!-- Node29&#45;&gt;Node14 -->
<g id="edge43" class="edge">
<title>Node29&#45;&gt;Node14</title>
<path fill="none" stroke="midnightblue" d="M972.31,-302.4C984.68,-293.83 1003.69,-279.96 1018.5,-266 1034.51,-250.92 1050.68,-231.61 1061.5,-217.97"/>
<polygon fill="midnightblue" stroke="midnightblue" points="1064.39,-219.96 1067.78,-209.92 1058.87,-215.65 1064.39,-219.96"/>
</g>
<!-- Node30 -->
<g id="node30" class="node">
<title>Node30</title>
<g id="a_node30"><a xlink:href="timehelper_8h.html" target="_top" xlink:title=" ">
<polygon fill="white" stroke="black" points="842,-246.5 842,-265.5 1009,-265.5 1009,-246.5 842,-246.5"/>
<text text-anchor="middle" x="925.5" y="-253.5" font-family="Helvetica,sans-Serif" font-size="10.00">log4cplus/helpers/timehelper.h</text>
</a>
</g>
</g>
<!-- Node29&#45;&gt;Node30 -->
<g id="edge44" class="edge">
<title>Node29&#45;&gt;Node30</title>
<path fill="none" stroke="midnightblue" d="M953.89,-302.08C949.13,-294.53 942.18,-283.49 936.35,-274.23"/>
<polygon fill="midnightblue" stroke="midnightblue" points="939.3,-272.35 931.01,-265.75 933.38,-276.08 939.3,-272.35"/>
</g>
<!-- Node30&#45;&gt;Node2 -->
<g id="edge45" class="edge">
<title>Node30&#45;&gt;Node2</title>
<path fill="none" stroke="midnightblue" d="M915.4,-246.23C905.66,-237.53 890.79,-223.57 879.5,-210 853.49,-178.72 854.26,-165.48 828.5,-134 818.39,-121.64 805.72,-108.88 795.67,-99.27"/>
<polygon fill="midnightblue" stroke="midnightblue" points="797.95,-96.61 788.27,-92.31 793.16,-101.71 797.95,-96.61"/>
</g>
<!-- Node30&#45;&gt;Node14 -->
<g id="edge46" class="edge">
<title>Node30&#45;&gt;Node14</title>
<path fill="none" stroke="midnightblue" d="M949.11,-246.44C973.96,-237.44 1013.27,-223.19 1041.25,-213.05"/>
<polygon fill="midnightblue" stroke="midnightblue" points="1042.79,-216.21 1051,-209.52 1040.41,-209.63 1042.79,-216.21"/>
</g>
<!-- Node31 -->
<g id="node31" class="node">
<title>Node31</title>
<g id="a_node31"><a xlink:title=" ">
<polygon fill="white" stroke="#bfbfbf" points="956.5,-190.5 956.5,-209.5 1000.5,-209.5 1000.5,-190.5 956.5,-190.5"/>
<text text-anchor="middle" x="978.5" y="-197.5" font-family="Helvetica,sans-Serif" font-size="10.00">ctime</text>
</a>
</g>
</g>
<!-- Node30&#45;&gt;Node31 -->
<g id="edge47" class="edge">
<title>Node30&#45;&gt;Node31</title>
<path fill="none" stroke="midnightblue" d="M934.25,-246.08C941.97,-238.22 953.4,-226.57 962.72,-217.08"/>
<polygon fill="midnightblue" stroke="midnightblue" points="965.4,-219.34 969.91,-209.75 960.41,-214.44 965.4,-219.34"/>
</g>
<!-- Node32 -->
<g id="node32" class="node">
<title>Node32</title>
<g id="a_node32"><a xlink:title=" ">
<polygon fill="white" stroke="#bfbfbf" points="888.5,-190.5 888.5,-209.5 938.5,-209.5 938.5,-190.5 888.5,-190.5"/>
<text text-anchor="middle" x="913.5" y="-197.5" font-family="Helvetica,sans-Serif" font-size="10.00">chrono</text>
</a>
</g>
</g>
<!-- Node30&#45;&gt;Node32 -->
<g id="edge48" class="edge">
<title>Node30&#45;&gt;Node32</title>
<path fill="none" stroke="midnightblue" d="M923.52,-246.08C921.93,-238.93 919.64,-228.64 917.65,-219.69"/>
<polygon fill="midnightblue" stroke="midnightblue" points="921.03,-218.75 915.44,-209.75 914.2,-220.27 921.03,-218.75"/>
</g>
<!-- Node33&#45;&gt;Node2 -->
<g id="edge55" class="edge">
<title>Node33&#45;&gt;Node2</title>
<path fill="none" stroke="midnightblue" d="M1470.84,-302.25C1445.63,-269.41 1355.48,-154.32 1314.5,-134 1234.07,-94.12 972.53,-85.66 846.98,-83.92"/>
<polygon fill="midnightblue" stroke="midnightblue" points="846.77,-80.41 836.72,-83.78 846.68,-87.41 846.77,-80.41"/>
</g>
<!-- Node33&#45;&gt;Node10 -->
<g id="edge58" class="edge">
<title>Node33&#45;&gt;Node10</title>
<path fill="none" stroke="midnightblue" d="M1483.77,-302.08C1489.14,-294.46 1497.02,-283.26 1503.58,-273.94"/>
<polygon fill="midnightblue" stroke="midnightblue" points="1506.45,-275.94 1509.34,-265.75 1500.72,-271.91 1506.45,-275.94"/>
</g>
<!-- Node33&#45;&gt;Node16 -->
<g id="edge56" class="edge">
<title>Node33&#45;&gt;Node16</title>
<path fill="none" stroke="midnightblue" d="M1462.47,-302.33C1434.87,-286.07 1374.88,-249.09 1330.5,-210 1313.56,-195.08 1296.65,-175.45 1285.5,-161.69"/>
<polygon fill="midnightblue" stroke="midnightblue" points="1288.02,-159.24 1279.06,-153.59 1282.55,-163.6 1288.02,-159.24"/>
</g>
<!-- Node33&#45;&gt;Node19 -->
<g id="edge57" class="edge">
<title>Node33&#45;&gt;Node19</title>
<path fill="none" stroke="midnightblue" d="M1501.12,-302.37C1554.42,-282.89 1684.15,-235.48 1745.42,-213.09"/>
<polygon fill="midnightblue" stroke="midnightblue" points="1746.8,-216.31 1754.99,-209.59 1744.4,-209.74 1746.8,-216.31"/>
</g>
<!-- Node34&#45;&gt;Node2 -->
<g id="edge60" class="edge">
<title>Node34&#45;&gt;Node2</title>
<path fill="none" stroke="midnightblue" d="M1250.25,-246.44C1243.78,-223.72 1222.84,-161.71 1180.5,-134 1127.01,-98.99 946.83,-88.24 846.82,-84.95"/>
<polygon fill="midnightblue" stroke="midnightblue" points="846.92,-81.45 836.81,-84.63 846.7,-88.44 846.92,-81.45"/>
</g>
<!-- Node34&#45;&gt;Node14 -->
<g id="edge61" class="edge">
<title>Node34&#45;&gt;Node14</title>
<path fill="none" stroke="midnightblue" d="M1224.3,-246.44C1194.09,-237.28 1145.99,-222.69 1112.47,-212.52"/>
<polygon fill="midnightblue" stroke="midnightblue" points="1113.16,-209.07 1102.57,-209.52 1111.13,-215.77 1113.16,-209.07"/>
</g>
<!-- Node34&#45;&gt;Node20 -->
<g id="edge62" class="edge">
<title>Node34&#45;&gt;Node20</title>
<path fill="none" stroke="midnightblue" d="M1268.04,-246.39C1294.54,-232.14 1350.57,-203.83 1401.5,-190 1497.23,-164.01 1610.7,-153.03 1687.96,-148.39"/>
<polygon fill="midnightblue" stroke="midnightblue" points="1688.36,-151.87 1698.14,-147.8 1687.96,-144.88 1688.36,-151.87"/>
</g>
<!-- Node35&#45;&gt;Node2 -->
<g id="edge71" class="edge">
<title>Node35&#45;&gt;Node2</title>
<path fill="none" stroke="midnightblue" d="M712.07,-246.26C723.02,-219.42 756.33,-137.82 771.2,-101.39"/>
<polygon fill="midnightblue" stroke="midnightblue" points="774.48,-102.6 775.02,-92.02 768,-99.96 774.48,-102.6"/>
</g>
<!-- Node35&#45;&gt;Node14 -->
<g id="edge72" class="edge">
<title>Node35&#45;&gt;Node14</title>
<path fill="none" stroke="midnightblue" d="M766.49,-246.44C833.02,-236.63 941.77,-220.58 1010.66,-210.42"/>
<polygon fill="midnightblue" stroke="midnightblue" points="1011.56,-213.82 1020.95,-208.9 1010.54,-206.9 1011.56,-213.82"/>
</g>
<!-- Node36&#45;&gt;Node2 -->
<g id="edge75" class="edge">
<title>Node36&#45;&gt;Node2</title>
<path fill="none" stroke="midnightblue" d="M80.08,-246.2C94.31,-218.93 137.12,-137.46 142.5,-134 189.35,-103.83 555.59,-89.88 710.1,-85.3"/>
<polygon fill="midnightblue" stroke="midnightblue" points="710.52,-88.79 720.41,-85 710.31,-81.79 710.52,-88.79"/>
</g>
<!-- Node36&#45;&gt;Node6 -->
<g id="edge76" class="edge">
<title>Node36&#45;&gt;Node6</title>
<path fill="none" stroke="midnightblue" d="M87.98,-246.37C115.14,-227.57 179.91,-182.77 213.49,-159.53"/>
<polygon fill="midnightblue" stroke="midnightblue" points="215.85,-162.16 222.08,-153.59 211.87,-156.4 215.85,-162.16"/>
</g>
<!-- Node36&#45;&gt;Node11 -->
<g id="edge78" class="edge">
<title>Node36&#45;&gt;Node11</title>
<path fill="none" stroke="midnightblue" d="M151.1,-246.65C258.9,-234.75 452.34,-213.39 530.43,-204.76"/>
<polygon fill="midnightblue" stroke="midnightblue" points="531.11,-208.21 540.66,-203.63 530.34,-201.25 531.11,-208.21"/>
</g>
<!-- Node37 -->
<g id="node37" class="node">
<title>Node37</title>
<g id="a_node37"><a xlink:title=" ">
<polygon fill="white" stroke="#bfbfbf" points="37,-190.5 37,-209.5 90,-209.5 90,-190.5 37,-190.5"/>
<text text-anchor="middle" x="63.5" y="-197.5" font-family="Helvetica,sans-Serif" font-size="10.00">cstdarg</text>
</a>
</g>
</g>
<!-- Node36&#45;&gt;Node37 -->
<g id="edge77" class="edge">
<title>Node36&#45;&gt;Node37</title>
<path fill="none" stroke="midnightblue" d="M73.52,-246.08C71.93,-238.93 69.64,-228.64 67.65,-219.69"/>
<polygon fill="midnightblue" stroke="midnightblue" points="71.03,-218.75 65.44,-209.75 64.2,-220.27 71.03,-218.75"/>
</g>
<!-- Node38&#45;&gt;Node2 -->
<g id="edge80" class="edge">
<title>Node38&#45;&gt;Node2</title>
<path fill="none" stroke="midnightblue" d="M307.08,-537.33C288.77,-521.33 251.47,-485.14 237.5,-445 232.97,-431.99 235.42,-427.62 237.5,-414 258.12,-278.92 241.4,-193.31 364.5,-134 423.94,-105.36 608.56,-91.91 710,-86.53"/>
<polygon fill="midnightblue" stroke="midnightblue" points="710.35,-90.02 720.15,-86 709.99,-83.03 710.35,-90.02"/>
</g>
<!-- Node38&#45;&gt;Node9 -->
<g id="edge81" class="edge">
<title>Node38&#45;&gt;Node9</title>
<path fill="none" stroke="midnightblue" d="M358.22,-537.44C403.15,-528 475.5,-512.8 524,-502.61"/>
<polygon fill="midnightblue" stroke="midnightblue" points="524.9,-506 533.97,-500.52 523.46,-499.15 524.9,-506"/>
</g>
<!-- Node39 -->
<g id="node39" class="node">
<title>Node39</title>
<g id="a_node39"><a xlink:href="source__location_8h.html" target="_top" xlink:title=" ">
<polygon fill="white" stroke="black" points="247,-414.5 247,-444.5 384,-444.5 384,-414.5 247,-414.5"/>
<text text-anchor="start" x="255" y="-432.5" font-family="Helvetica,sans-Serif" font-size="10.00">log4cplus/helpers/source</text>
<text text-anchor="middle" x="315.5" y="-421.5" font-family="Helvetica,sans-Serif" font-size="10.00">_location.h</text>
</a>
</g>
</g>
<!-- Node38&#45;&gt;Node39 -->
<g id="edge82" class="edge">
<title>Node38&#45;&gt;Node39</title>
<path fill="none" stroke="midnightblue" d="M317.35,-537.32C317.05,-519.97 316.37,-480.46 315.92,-454.66"/>
<polygon fill="midnightblue" stroke="midnightblue" points="319.42,-454.48 315.74,-444.55 312.42,-454.6 319.42,-454.48"/>
</g>
<!-- Node39&#45;&gt;Node2 -->
<g id="edge83" class="edge">
<title>Node39&#45;&gt;Node2</title>
<path fill="none" stroke="midnightblue" d="M310.78,-414.06C301.31,-382.88 282.15,-307.14 297.5,-246 304.37,-218.61 308.46,-210.85 327.5,-190 358.01,-156.59 370.16,-149.93 412.5,-134 511.55,-96.74 634.95,-86.53 710.17,-83.98"/>
<polygon fill="midnightblue" stroke="midnightblue" points="710.57,-87.47 720.46,-83.67 710.36,-80.47 710.57,-87.47"/>
</g>
</g>
</svg>
