<?xml version="1.0" encoding="UTF-8" standalone="no"?>
<!DOCTYPE svg PUBLIC "-//W3C//DTD SVG 1.1//EN"
 "http://www.w3.org/Graphics/SVG/1.1/DTD/svg11.dtd">
<!-- Generated by graphviz version 2.43.0 (0)
 -->
<!-- Title: logger.h Pages: 1 -->
<svg width="422pt" height="196pt"
 viewBox="0.00 0.00 421.50 196.00" xmlns="http://www.w3.org/2000/svg" xmlns:xlink="http://www.w3.org/1999/xlink">
<g id="graph0" class="graph" transform="scale(1 1) rotate(0) translate(4 192)">
<title>logger.h</title>
<polygon fill="white" stroke="transparent" points="-4,4 -4,-192 417.5,-192 417.5,4 -4,4"/>
<!-- Node1 -->
<g id="node1" class="node">
<title>Node1</title>
<g id="a_node1"><a xlink:title="This header defines the Logger class and the logging macros.">
<polygon fill="#bfbfbf" stroke="black" points="160.5,-168.5 160.5,-187.5 216.5,-187.5 216.5,-168.5 160.5,-168.5"/>
<text text-anchor="middle" x="188.5" y="-175.5" font-family="Helvetica,sans-Serif" font-size="10.00">logger.h</text>
</a>
</g>
</g>
<!-- Node2 -->
<g id="node2" class="node">
<title>Node2</title>
<g id="a_node2"><a xlink:href="configurator_8h.html" target="_top" xlink:title=" ">
<polygon fill="white" stroke="black" points="0,-56.5 0,-75.5 83,-75.5 83,-56.5 0,-56.5"/>
<text text-anchor="middle" x="41.5" y="-63.5" font-family="Helvetica,sans-Serif" font-size="10.00">configurator.h</text>
</a>
</g>
</g>
<!-- Node1&#45;&gt;Node2 -->
<g id="edge1" class="edge">
<title>Node1&#45;&gt;Node2</title>
<path fill="none" stroke="midnightblue" d="M155.64,-164.55C137.48,-156.77 115.09,-145.64 97.5,-132 75.84,-115.21 56.39,-88.98 47.16,-75.55"/>
<polygon fill="midnightblue" stroke="midnightblue" points="154.4,-167.83 164.97,-168.42 157.07,-161.36 154.4,-167.83"/>
</g>
<!-- Node3 -->
<g id="node3" class="node">
<title>Node3</title>
<g id="a_node3"><a xlink:href="log4cplus_8h.html" target="_top" xlink:title=" ">
<polygon fill="white" stroke="black" points="138.5,-0.5 138.5,-19.5 210.5,-19.5 210.5,-0.5 138.5,-0.5"/>
<text text-anchor="middle" x="174.5" y="-7.5" font-family="Helvetica,sans-Serif" font-size="10.00">log4cplus.h</text>
</a>
</g>
</g>
<!-- Node1&#45;&gt;Node3 -->
<g id="edge6" class="edge">
<title>Node1&#45;&gt;Node3</title>
<path fill="none" stroke="midnightblue" d="M175.18,-160.27C160.9,-141.17 139.14,-108.38 130.5,-76 128.21,-67.41 127.14,-64.23 130.5,-56 136.77,-40.62 151.11,-27.64 161.72,-19.63"/>
<polygon fill="midnightblue" stroke="midnightblue" points="172.45,-162.46 181.31,-168.25 178,-158.19 172.45,-162.46"/>
</g>
<!-- Node4 -->
<g id="node4" class="node">
<title>Node4</title>
<g id="a_node4"><a xlink:href="hierarchy_8h.html" target="_top" xlink:title=" ">
<polygon fill="white" stroke="black" points="139.5,-56.5 139.5,-75.5 209.5,-75.5 209.5,-56.5 139.5,-56.5"/>
<text text-anchor="middle" x="174.5" y="-63.5" font-family="Helvetica,sans-Serif" font-size="10.00">hierarchy.h</text>
</a>
</g>
</g>
<!-- Node1&#45;&gt;Node4 -->
<g id="edge3" class="edge">
<title>Node1&#45;&gt;Node4</title>
<path fill="none" stroke="midnightblue" d="M178.57,-159.3C174.6,-151.24 170.5,-141.41 168.5,-132 164.27,-112.05 168.95,-88.02 172.11,-75.51"/>
<polygon fill="midnightblue" stroke="midnightblue" points="175.61,-161.19 183.37,-168.41 181.81,-157.93 175.61,-161.19"/>
</g>
<!-- Node5 -->
<g id="node5" class="node">
<title>Node5</title>
<g id="a_node5"><a xlink:href="hierarchylocker_8h.html" target="_top" xlink:title=" ">
<polygon fill="white" stroke="black" points="177.5,-112.5 177.5,-131.5 277.5,-131.5 277.5,-112.5 177.5,-112.5"/>
<text text-anchor="middle" x="227.5" y="-119.5" font-family="Helvetica,sans-Serif" font-size="10.00">hierarchylocker.h</text>
</a>
</g>
</g>
<!-- Node1&#45;&gt;Node5 -->
<g id="edge5" class="edge">
<title>Node1&#45;&gt;Node5</title>
<path fill="none" stroke="midnightblue" d="M200.88,-159.86C207.64,-150.5 215.71,-139.33 221.18,-131.75"/>
<polygon fill="midnightblue" stroke="midnightblue" points="197.96,-157.93 194.94,-168.08 203.63,-162.03 197.96,-157.93"/>
</g>
<!-- Node6 -->
<g id="node6" class="node">
<title>Node6</title>
<g id="a_node6"><a xlink:href="loggingmacros_8h.html" target="_top" xlink:title="This header defines the logging macros.">
<polygon fill="white" stroke="black" points="247.5,-56.5 247.5,-75.5 345.5,-75.5 345.5,-56.5 247.5,-56.5"/>
<text text-anchor="middle" x="296.5" y="-63.5" font-family="Helvetica,sans-Serif" font-size="10.00">loggingmacros.h</text>
</a>
</g>
</g>
<!-- Node1&#45;&gt;Node6 -->
<g id="edge7" class="edge">
<title>Node1&#45;&gt;Node6</title>
<path fill="none" stroke="midnightblue" d="M226.65,-168.85C247.55,-162.39 272.06,-151.14 286.5,-132 299.16,-115.23 298.78,-88.99 297.58,-75.55"/>
<polygon fill="midnightblue" stroke="midnightblue" points="225.41,-165.57 216.74,-171.66 227.32,-172.3 225.41,-165.57"/>
</g>
<!-- Node7 -->
<g id="node7" class="node">
<title>Node7</title>
<g id="a_node7"><a xlink:href="tracelogger_8h.html" target="_top" xlink:title=" ">
<polygon fill="white" stroke="black" points="333.5,-112.5 333.5,-131.5 413.5,-131.5 413.5,-112.5 333.5,-112.5"/>
<text text-anchor="middle" x="373.5" y="-119.5" font-family="Helvetica,sans-Serif" font-size="10.00">tracelogger.h</text>
</a>
</g>
</g>
<!-- Node1&#45;&gt;Node7 -->
<g id="edge9" class="edge">
<title>Node1&#45;&gt;Node7</title>
<path fill="none" stroke="midnightblue" d="M226.43,-165.93C261.33,-155.74 312.36,-140.85 344.22,-131.55"/>
<polygon fill="midnightblue" stroke="midnightblue" points="225.22,-162.64 216.6,-168.8 227.18,-169.36 225.22,-162.64"/>
</g>
<!-- Node2&#45;&gt;Node3 -->
<g id="edge2" class="edge">
<title>Node2&#45;&gt;Node3</title>
<path fill="none" stroke="midnightblue" d="M71.95,-52.64C96.91,-42.5 131.58,-28.43 153.52,-19.52"/>
<polygon fill="midnightblue" stroke="midnightblue" points="70.52,-49.44 62.57,-56.44 73.16,-55.92 70.52,-49.44"/>
</g>
<!-- Node4&#45;&gt;Node3 -->
<g id="edge4" class="edge">
<title>Node4&#45;&gt;Node3</title>
<path fill="none" stroke="midnightblue" d="M174.5,-45.8C174.5,-36.91 174.5,-26.78 174.5,-19.75"/>
<polygon fill="midnightblue" stroke="midnightblue" points="171,-46.08 174.5,-56.08 178,-46.08 171,-46.08"/>
</g>
<!-- Node6&#45;&gt;Node3 -->
<g id="edge8" class="edge">
<title>Node6&#45;&gt;Node3</title>
<path fill="none" stroke="midnightblue" d="M267.96,-52.37C245.11,-42.26 213.69,-28.35 193.74,-19.52"/>
<polygon fill="midnightblue" stroke="midnightblue" points="266.61,-55.6 277.17,-56.44 269.44,-49.2 266.61,-55.6"/>
</g>
<!-- Node7&#45;&gt;Node3 -->
<g id="edge10" class="edge">
<title>Node7&#45;&gt;Node3</title>
<path fill="none" stroke="midnightblue" d="M372.87,-102.13C371.36,-87.57 366.94,-67.96 354.5,-56 334.12,-36.41 257.09,-22.53 210.66,-15.74"/>
<polygon fill="midnightblue" stroke="midnightblue" points="369.4,-102.73 373.55,-112.48 376.39,-102.27 369.4,-102.73"/>
</g>
<!-- Node7&#45;&gt;Node6 -->
<g id="edge11" class="edge">
<title>Node7&#45;&gt;Node6</title>
<path fill="none" stroke="midnightblue" d="M352.6,-106.34C338.59,-96.52 320.62,-83.91 308.84,-75.65"/>
<polygon fill="midnightblue" stroke="midnightblue" points="350.93,-109.45 361.13,-112.32 354.95,-103.72 350.93,-109.45"/>
</g>
</g>
</svg>
