<?xml version="1.0" encoding="UTF-8" standalone="no"?>
<!DOCTYPE svg PUBLIC "-//W3C//DTD SVG 1.1//EN"
 "http://www.w3.org/Graphics/SVG/1.1/DTD/svg11.dtd">
<!-- Generated by graphviz version 2.43.0 (0)
 -->
<!-- Title: loglog.h Pages: 1 -->
<svg width="991pt" height="274pt"
 viewBox="0.00 0.00 991.00 274.00" xmlns="http://www.w3.org/2000/svg" xmlns:xlink="http://www.w3.org/1999/xlink">
<g id="graph0" class="graph" transform="scale(1 1) rotate(0) translate(4 270)">
<title>loglog.h</title>
<polygon fill="white" stroke="transparent" points="-4,4 -4,-270 987,-270 987,4 -4,4"/>
<!-- Node1 -->
<g id="node1" class="node">
<title>Node1</title>
<g id="a_node1"><a xlink:title=" ">
<polygon fill="#bfbfbf" stroke="black" points="505,-246.5 505,-265.5 561,-265.5 561,-246.5 505,-246.5"/>
<text text-anchor="middle" x="533" y="-253.5" font-family="Helvetica,sans-Serif" font-size="10.00">loglog.h</text>
</a>
</g>
</g>
<!-- Node2 -->
<g id="node2" class="node">
<title>Node2</title>
<g id="a_node2"><a xlink:href="config_8hxx.html" target="_top" xlink:title=" ">
<polygon fill="white" stroke="black" points="444,-67.5 444,-86.5 560,-86.5 560,-67.5 444,-67.5"/>
<text text-anchor="middle" x="502" y="-74.5" font-family="Helvetica,sans-Serif" font-size="10.00">log4cplus/config.hxx</text>
</a>
</g>
</g>
<!-- Node1&#45;&gt;Node2 -->
<g id="edge1" class="edge">
<title>Node1&#45;&gt;Node2</title>
<path fill="none" stroke="midnightblue" d="M526.79,-246.19C521.01,-237.46 512.75,-223.48 509,-210 498.11,-170.89 498.93,-122.8 500.47,-96.81"/>
<polygon fill="midnightblue" stroke="midnightblue" points="503.99,-96.76 501.2,-86.54 497,-96.27 503.99,-96.76"/>
</g>
<!-- Node5 -->
<g id="node5" class="node">
<title>Node5</title>
<g id="a_node5"><a xlink:href="tstring_8h.html" target="_top" xlink:title=" ">
<polygon fill="white" stroke="black" points="219.5,-190.5 219.5,-209.5 326.5,-209.5 326.5,-190.5 219.5,-190.5"/>
<text text-anchor="middle" x="273" y="-197.5" font-family="Helvetica,sans-Serif" font-size="10.00">log4cplus/tstring.h</text>
</a>
</g>
</g>
<!-- Node1&#45;&gt;Node5 -->
<g id="edge4" class="edge">
<title>Node1&#45;&gt;Node5</title>
<path fill="none" stroke="midnightblue" d="M504.68,-249.12C461.4,-240.13 378.16,-222.84 324.13,-211.62"/>
<polygon fill="midnightblue" stroke="midnightblue" points="324.57,-208.14 314.07,-209.53 323.15,-214.99 324.57,-208.14"/>
</g>
<!-- Node12 -->
<g id="node12" class="node">
<title>Node12</title>
<g id="a_node12"><a xlink:href="streams_8h.html" target="_top" xlink:title=" ">
<polygon fill="white" stroke="black" points="518.5,-190.5 518.5,-209.5 633.5,-209.5 633.5,-190.5 518.5,-190.5"/>
<text text-anchor="middle" x="576" y="-197.5" font-family="Helvetica,sans-Serif" font-size="10.00">log4cplus/streams.h</text>
</a>
</g>
</g>
<!-- Node1&#45;&gt;Node12 -->
<g id="edge13" class="edge">
<title>Node1&#45;&gt;Node12</title>
<path fill="none" stroke="midnightblue" d="M540.1,-246.08C546.24,-238.38 555.27,-227.03 562.74,-217.65"/>
<polygon fill="midnightblue" stroke="midnightblue" points="565.54,-219.75 569.03,-209.75 560.06,-215.39 565.54,-219.75"/>
</g>
<!-- Node14 -->
<g id="node14" class="node">
<title>Node14</title>
<g id="a_node14"><a xlink:href="syncprims_8h.html" target="_top" xlink:title=" ">
<polygon fill="white" stroke="black" points="652,-190.5 652,-209.5 812,-209.5 812,-190.5 652,-190.5"/>
<text text-anchor="middle" x="732" y="-197.5" font-family="Helvetica,sans-Serif" font-size="10.00">log4cplus/thread/syncprims.h</text>
</a>
</g>
</g>
<!-- Node1&#45;&gt;Node14 -->
<g id="edge17" class="edge">
<title>Node1&#45;&gt;Node14</title>
<path fill="none" stroke="midnightblue" d="M561.09,-247.38C594.82,-238.22 651.7,-222.79 690.5,-212.26"/>
<polygon fill="midnightblue" stroke="midnightblue" points="691.71,-215.56 700.44,-209.56 689.87,-208.8 691.71,-215.56"/>
</g>
<!-- Node3 -->
<g id="node3" class="node">
<title>Node3</title>
<g id="a_node3"><a xlink:href="win32_8h.html" target="_top" xlink:title=" ">
<polygon fill="white" stroke="black" points="356.5,-6 356.5,-25 493.5,-25 493.5,-6 356.5,-6"/>
<text text-anchor="middle" x="425" y="-13" font-family="Helvetica,sans-Serif" font-size="10.00">log4cplus/config/win32.h</text>
</a>
</g>
</g>
<!-- Node2&#45;&gt;Node3 -->
<g id="edge2" class="edge">
<title>Node2&#45;&gt;Node3</title>
<path fill="none" stroke="midnightblue" d="M490.97,-67.48C478.73,-58.02 458.77,-42.6 444.01,-31.19"/>
<polygon fill="midnightblue" stroke="midnightblue" points="446.06,-28.35 436.01,-25.01 441.78,-33.89 446.06,-28.35"/>
</g>
<!-- Node4 -->
<g id="node4" class="node">
<title>Node4</title>
<g id="a_node4"><a xlink:href="thread-config_8h.html" target="_top" xlink:title=" ">
<polygon fill="white" stroke="black" points="511.5,-0.5 511.5,-30.5 648.5,-30.5 648.5,-0.5 511.5,-0.5"/>
<text text-anchor="start" x="519.5" y="-18.5" font-family="Helvetica,sans-Serif" font-size="10.00">log4cplus/helpers/thread</text>
<text text-anchor="middle" x="580" y="-7.5" font-family="Helvetica,sans-Serif" font-size="10.00">&#45;config.h</text>
</a>
</g>
</g>
<!-- Node2&#45;&gt;Node4 -->
<g id="edge3" class="edge">
<title>Node2&#45;&gt;Node4</title>
<path fill="none" stroke="midnightblue" d="M513.18,-67.48C523.64,-59.49 539.68,-47.25 553.43,-36.77"/>
<polygon fill="midnightblue" stroke="midnightblue" points="555.79,-39.37 561.62,-30.52 551.54,-33.81 555.79,-39.37"/>
</g>
<!-- Node5&#45;&gt;Node2 -->
<g id="edge5" class="edge">
<title>Node5&#45;&gt;Node2</title>
<path fill="none" stroke="midnightblue" d="M281.19,-190.26C298.11,-172.38 336.69,-132.48 353,-123 381,-106.72 415.45,-95.82 444.17,-88.83"/>
<polygon fill="midnightblue" stroke="midnightblue" points="445.12,-92.2 454.06,-86.52 443.53,-85.39 445.12,-92.2"/>
</g>
<!-- Node6 -->
<g id="node6" class="node">
<title>Node6</title>
<g id="a_node6"><a xlink:title=" ">
<polygon fill="white" stroke="#bfbfbf" points="153.5,-129 153.5,-148 222.5,-148 222.5,-129 153.5,-129"/>
<text text-anchor="middle" x="188" y="-136" font-family="Helvetica,sans-Serif" font-size="10.00">type_traits</text>
</a>
</g>
</g>
<!-- Node5&#45;&gt;Node6 -->
<g id="edge6" class="edge">
<title>Node5&#45;&gt;Node6</title>
<path fill="none" stroke="midnightblue" d="M260.82,-190.48C247.19,-180.93 224.87,-165.31 208.53,-153.87"/>
<polygon fill="midnightblue" stroke="midnightblue" points="210.36,-150.88 200.16,-148.01 206.34,-156.61 210.36,-150.88"/>
</g>
<!-- Node7 -->
<g id="node7" class="node">
<title>Node7</title>
<g id="a_node7"><a xlink:title=" ">
<polygon fill="white" stroke="#bfbfbf" points="240.5,-129 240.5,-148 305.5,-148 305.5,-129 240.5,-129"/>
<text text-anchor="middle" x="273" y="-136" font-family="Helvetica,sans-Serif" font-size="10.00">functional</text>
</a>
</g>
</g>
<!-- Node5&#45;&gt;Node7 -->
<g id="edge7" class="edge">
<title>Node5&#45;&gt;Node7</title>
<path fill="none" stroke="midnightblue" d="M273,-190.48C273,-182.08 273,-168.98 273,-158.16"/>
<polygon fill="midnightblue" stroke="midnightblue" points="276.5,-158.01 273,-148.01 269.5,-158.01 276.5,-158.01"/>
</g>
<!-- Node8 -->
<g id="node8" class="node">
<title>Node8</title>
<g id="a_node8"><a xlink:title=" ">
<polygon fill="white" stroke="#bfbfbf" points="0,-129 0,-148 44,-148 44,-129 0,-129"/>
<text text-anchor="middle" x="22" y="-136" font-family="Helvetica,sans-Serif" font-size="10.00">string</text>
</a>
</g>
</g>
<!-- Node5&#45;&gt;Node8 -->
<g id="edge8" class="edge">
<title>Node5&#45;&gt;Node8</title>
<path fill="none" stroke="midnightblue" d="M219.18,-191.62C174.07,-184.58 108.33,-172.31 53,-154 51.33,-153.45 49.64,-152.83 47.94,-152.17"/>
<polygon fill="midnightblue" stroke="midnightblue" points="49.01,-148.82 38.44,-148.07 46.23,-155.24 49.01,-148.82"/>
</g>
<!-- Node9 -->
<g id="node9" class="node">
<title>Node9</title>
<g id="a_node9"><a xlink:title=" ">
<polygon fill="white" stroke="#bfbfbf" points="62.5,-129 62.5,-148 135.5,-148 135.5,-129 62.5,-129"/>
<text text-anchor="middle" x="99" y="-136" font-family="Helvetica,sans-Serif" font-size="10.00">string_view</text>
</a>
</g>
</g>
<!-- Node5&#45;&gt;Node9 -->
<g id="edge9" class="edge">
<title>Node5&#45;&gt;Node9</title>
<path fill="none" stroke="midnightblue" d="M248.07,-190.48C217.96,-180.18 167.17,-162.81 133.36,-151.25"/>
<polygon fill="midnightblue" stroke="midnightblue" points="134.48,-147.93 123.88,-148.01 132.21,-154.56 134.48,-147.93"/>
</g>
<!-- Node10 -->
<g id="node10" class="node">
<title>Node10</title>
<g id="a_node10"><a xlink:href="tchar_8h.html" target="_top" xlink:title=" ">
<polygon fill="white" stroke="black" points="362.5,-129 362.5,-148 461.5,-148 461.5,-129 362.5,-129"/>
<text text-anchor="middle" x="412" y="-136" font-family="Helvetica,sans-Serif" font-size="10.00">log4cplus/tchar.h</text>
</a>
</g>
</g>
<!-- Node5&#45;&gt;Node10 -->
<g id="edge10" class="edge">
<title>Node5&#45;&gt;Node10</title>
<path fill="none" stroke="midnightblue" d="M292.92,-190.48C316.45,-180.4 355.81,-163.55 382.79,-152"/>
<polygon fill="midnightblue" stroke="midnightblue" points="384.31,-155.16 392.12,-148.01 381.55,-148.73 384.31,-155.16"/>
</g>
<!-- Node10&#45;&gt;Node2 -->
<g id="edge11" class="edge">
<title>Node10&#45;&gt;Node2</title>
<path fill="none" stroke="midnightblue" d="M424.89,-128.98C439.46,-119.34 463.4,-103.52 480.75,-92.05"/>
<polygon fill="midnightblue" stroke="midnightblue" points="482.72,-94.94 489.13,-86.51 478.86,-89.1 482.72,-94.94"/>
</g>
<!-- Node11 -->
<g id="node11" class="node">
<title>Node11</title>
<g id="a_node11"><a xlink:title=" ">
<polygon fill="white" stroke="#bfbfbf" points="372.5,-67.5 372.5,-86.5 425.5,-86.5 425.5,-67.5 372.5,-67.5"/>
<text text-anchor="middle" x="399" y="-74.5" font-family="Helvetica,sans-Serif" font-size="10.00">cstddef</text>
</a>
</g>
</g>
<!-- Node10&#45;&gt;Node11 -->
<g id="edge12" class="edge">
<title>Node10&#45;&gt;Node11</title>
<path fill="none" stroke="midnightblue" d="M410.14,-128.98C408.28,-120.49 405.38,-107.2 403,-96.32"/>
<polygon fill="midnightblue" stroke="midnightblue" points="406.41,-95.53 400.86,-86.51 399.57,-97.03 406.41,-95.53"/>
</g>
<!-- Node12&#45;&gt;Node2 -->
<g id="edge14" class="edge">
<title>Node12&#45;&gt;Node2</title>
<path fill="none" stroke="midnightblue" d="M570.34,-190.43C564.43,-181.43 554.92,-166.81 547,-154 534.83,-134.31 521.37,-111.42 512.37,-95.95"/>
<polygon fill="midnightblue" stroke="midnightblue" points="515.2,-93.85 507.16,-86.96 509.15,-97.36 515.2,-93.85"/>
</g>
<!-- Node12&#45;&gt;Node10 -->
<g id="edge15" class="edge">
<title>Node12&#45;&gt;Node10</title>
<path fill="none" stroke="midnightblue" d="M552.5,-190.48C524.37,-180.27 477.07,-163.11 445.21,-151.55"/>
<polygon fill="midnightblue" stroke="midnightblue" points="446.05,-148.13 435.45,-148.01 443.66,-154.71 446.05,-148.13"/>
</g>
<!-- Node13 -->
<g id="node13" class="node">
<title>Node13</title>
<g id="a_node13"><a xlink:title=" ">
<polygon fill="white" stroke="#bfbfbf" points="556,-129 556,-148 604,-148 604,-129 556,-129"/>
<text text-anchor="middle" x="580" y="-136" font-family="Helvetica,sans-Serif" font-size="10.00">iosfwd</text>
</a>
</g>
</g>
<!-- Node12&#45;&gt;Node13 -->
<g id="edge16" class="edge">
<title>Node12&#45;&gt;Node13</title>
<path fill="none" stroke="midnightblue" d="M576.57,-190.48C577.14,-182.08 578.02,-168.98 578.75,-158.16"/>
<polygon fill="midnightblue" stroke="midnightblue" points="582.25,-158.22 579.43,-148.01 575.26,-157.75 582.25,-158.22"/>
</g>
<!-- Node14&#45;&gt;Node2 -->
<g id="edge18" class="edge">
<title>Node14&#45;&gt;Node2</title>
<path fill="none" stroke="midnightblue" d="M714.41,-190.37C697.63,-181.89 671.91,-168.17 651,-154 632.96,-141.77 631.75,-134.11 613,-123 589.73,-109.22 561.45,-97.82 539.26,-89.95"/>
<polygon fill="midnightblue" stroke="midnightblue" points="540.12,-86.54 529.53,-86.58 537.83,-93.16 540.12,-86.54"/>
</g>
<!-- Node15 -->
<g id="node15" class="node">
<title>Node15</title>
<g id="a_node15"><a xlink:title=" ">
<polygon fill="white" stroke="#bfbfbf" points="935,-129 935,-148 983,-148 983,-129 935,-129"/>
<text text-anchor="middle" x="959" y="-136" font-family="Helvetica,sans-Serif" font-size="10.00">mutex</text>
</a>
</g>
</g>
<!-- Node14&#45;&gt;Node15 -->
<g id="edge19" class="edge">
<title>Node14&#45;&gt;Node15</title>
<path fill="none" stroke="midnightblue" d="M780.12,-190.43C819.8,-182.75 877.28,-170.2 926,-154 927.87,-153.38 929.78,-152.69 931.69,-151.96"/>
<polygon fill="midnightblue" stroke="midnightblue" points="933.17,-155.14 941.08,-148.1 930.5,-148.67 933.17,-155.14"/>
</g>
<!-- Node16 -->
<g id="node16" class="node">
<title>Node16</title>
<g id="a_node16"><a xlink:title=" ">
<polygon fill="white" stroke="#bfbfbf" points="660.5,-129 660.5,-148 767.5,-148 767.5,-129 660.5,-129"/>
<text text-anchor="middle" x="714" y="-136" font-family="Helvetica,sans-Serif" font-size="10.00">condition_variable</text>
</a>
</g>
</g>
<!-- Node14&#45;&gt;Node16 -->
<g id="edge20" class="edge">
<title>Node14&#45;&gt;Node16</title>
<path fill="none" stroke="midnightblue" d="M729.42,-190.48C726.85,-181.99 722.83,-168.7 719.54,-157.82"/>
<polygon fill="midnightblue" stroke="midnightblue" points="722.82,-156.57 716.57,-148.01 716.12,-158.59 722.82,-156.57"/>
</g>
<!-- Node17 -->
<g id="node17" class="node">
<title>Node17</title>
<g id="a_node17"><a xlink:href="threadsafetyanalysis_8h.html" target="_top" xlink:title=" ">
<polygon fill="white" stroke="black" points="785.5,-123.5 785.5,-153.5 916.5,-153.5 916.5,-123.5 785.5,-123.5"/>
<text text-anchor="start" x="793.5" y="-141.5" font-family="Helvetica,sans-Serif" font-size="10.00">log4cplus/internal</text>
<text text-anchor="middle" x="851" y="-130.5" font-family="Helvetica,sans-Serif" font-size="10.00">/threadsafetyanalysis.h</text>
</a>
</g>
</g>
<!-- Node14&#45;&gt;Node17 -->
<g id="edge21" class="edge">
<title>Node14&#45;&gt;Node17</title>
<path fill="none" stroke="midnightblue" d="M749.05,-190.48C765.92,-182.04 792.29,-168.86 813.98,-158.01"/>
<polygon fill="midnightblue" stroke="midnightblue" points="815.58,-161.13 822.95,-153.52 812.44,-154.86 815.58,-161.13"/>
</g>
</g>
</svg>
