<?xml version="1.0" encoding="UTF-8" standalone="no"?>
<!DOCTYPE svg PUBLIC "-//W3C//DTD SVG 1.1//EN"
 "http://www.w3.org/Graphics/SVG/1.1/DTD/svg11.dtd">
<!-- Generated by graphviz version 2.43.0 (0)
 -->
<!-- Title: loglevel.h Pages: 1 -->
<svg width="2093pt" height="420pt"
 viewBox="0.00 0.00 2093.03 420.00" xmlns="http://www.w3.org/2000/svg" xmlns:xlink="http://www.w3.org/1999/xlink">
<g id="graph0" class="graph" transform="scale(1 1) rotate(0) translate(4 416)">
<title>loglevel.h</title>
<polygon fill="white" stroke="transparent" points="-4,4 -4,-416 2089.03,-416 2089.03,4 -4,4"/>
<!-- Node1 -->
<g id="node1" class="node">
<title>Node1</title>
<g id="a_node1"><a xlink:title="This header defines the LogLevel type.">
<polygon fill="#bfbfbf" stroke="black" points="1711.41,-392.5 1711.41,-411.5 1776.41,-411.5 1776.41,-392.5 1711.41,-392.5"/>
<text text-anchor="middle" x="1743.91" y="-399.5" font-family="Helvetica,sans-Serif" font-size="10.00">loglevel.h</text>
</a>
</g>
</g>
<!-- Node2 -->
<g id="node2" class="node">
<title>Node2</title>
<g id="a_node2"><a xlink:href="appender_8h.html" target="_top" xlink:title=" ">
<polygon fill="white" stroke="black" points="807.41,-280.5 807.41,-299.5 878.41,-299.5 878.41,-280.5 807.41,-280.5"/>
<text text-anchor="middle" x="842.91" y="-287.5" font-family="Helvetica,sans-Serif" font-size="10.00">appender.h</text>
</a>
</g>
</g>
<!-- Node1&#45;&gt;Node2 -->
<g id="edge1" class="edge">
<title>Node1&#45;&gt;Node2</title>
<path fill="none" stroke="midnightblue" d="M1701.3,-395.8C1547.34,-377 1021.49,-312.8 878.85,-295.39"/>
<polygon fill="midnightblue" stroke="midnightblue" points="1700.96,-399.28 1711.31,-397.02 1701.81,-392.33 1700.96,-399.28"/>
</g>
<!-- Node6 -->
<g id="node6" class="node">
<title>Node6</title>
<g id="a_node6"><a xlink:href="log4cplus_8h.html" target="_top" xlink:title=" ">
<polygon fill="white" stroke="black" points="595.91,-0.5 595.91,-19.5 667.91,-19.5 667.91,-0.5 595.91,-0.5"/>
<text text-anchor="middle" x="631.91" y="-7.5" font-family="Helvetica,sans-Serif" font-size="10.00">log4cplus.h</text>
</a>
</g>
</g>
<!-- Node1&#45;&gt;Node6 -->
<g id="edge53" class="edge">
<title>Node1&#45;&gt;Node6</title>
<path fill="none" stroke="midnightblue" d="M1786.44,-395.16C1872.02,-382.2 2056.91,-347.66 2056.91,-291 2056.91,-291 2056.91,-291 2056.91,-121 2056.91,-107.2 2196.02,-113.36 1853.91,-56 1617.05,-16.29 844.38,-11.62 667.99,-11.07"/>
<polygon fill="midnightblue" stroke="midnightblue" points="1785.9,-391.7 1776.52,-396.63 1786.93,-398.62 1785.9,-391.7"/>
</g>
<!-- Node9 -->
<g id="node9" class="node">
<title>Node9</title>
<g id="a_node9"><a xlink:href="logger_8h.html" target="_top" xlink:title="This header defines the Logger class and the logging macros.">
<polygon fill="white" stroke="black" points="548.91,-168.5 548.91,-187.5 604.91,-187.5 604.91,-168.5 548.91,-168.5"/>
<text text-anchor="middle" x="576.91" y="-175.5" font-family="Helvetica,sans-Serif" font-size="10.00">logger.h</text>
</a>
</g>
</g>
<!-- Node1&#45;&gt;Node9 -->
<g id="edge54" class="edge">
<title>Node1&#45;&gt;Node9</title>
<path fill="none" stroke="midnightblue" d="M1701.3,-400.09C1460.5,-394.52 277.19,-361.27 171.91,-244 165.97,-237.39 165.98,-230.62 171.91,-224 178.23,-216.94 457.64,-190.18 548.61,-181.64"/>
<polygon fill="midnightblue" stroke="midnightblue" points="1701.33,-403.59 1711.4,-400.32 1701.49,-396.59 1701.33,-403.59"/>
</g>
<!-- Node30 -->
<g id="node30" class="node">
<title>Node30</title>
<g id="a_node30"><a xlink:href="filter_8h.html" target="_top" xlink:title="This header defines Filter and all of it&#39;s subclasses.">
<polygon fill="white" stroke="black" points="1754.41,-336.5 1754.41,-355.5 1801.41,-355.5 1801.41,-336.5 1754.41,-336.5"/>
<text text-anchor="middle" x="1777.91" y="-343.5" font-family="Helvetica,sans-Serif" font-size="10.00">filter.h</text>
</a>
</g>
</g>
<!-- Node1&#45;&gt;Node30 -->
<g id="edge45" class="edge">
<title>Node1&#45;&gt;Node30</title>
<path fill="none" stroke="midnightblue" d="M1754.89,-383.57C1760.74,-374.27 1767.68,-363.25 1772.4,-355.75"/>
<polygon fill="midnightblue" stroke="midnightblue" points="1751.89,-381.76 1749.52,-392.08 1757.81,-385.49 1751.89,-381.76"/>
</g>
<!-- Node31 -->
<g id="node31" class="node">
<title>Node31</title>
<g id="a_node31"><a xlink:href="layout_8h.html" target="_top" xlink:title=" ">
<polygon fill="white" stroke="black" points="1677.91,-336.5 1677.91,-355.5 1733.91,-355.5 1733.91,-336.5 1677.91,-336.5"/>
<text text-anchor="middle" x="1705.91" y="-343.5" font-family="Helvetica,sans-Serif" font-size="10.00">layout.h</text>
</a>
</g>
</g>
<!-- Node1&#45;&gt;Node31 -->
<g id="edge49" class="edge">
<title>Node1&#45;&gt;Node31</title>
<path fill="none" stroke="midnightblue" d="M1731.84,-383.86C1725.26,-374.5 1717.4,-363.33 1712.07,-355.75"/>
<polygon fill="midnightblue" stroke="midnightblue" points="1729.02,-385.92 1737.63,-392.08 1734.74,-381.89 1729.02,-385.92"/>
</g>
<!-- Node32 -->
<g id="node32" class="node">
<title>Node32</title>
<g id="a_node32"><a xlink:href="loggingevent_8h.html" target="_top" xlink:title=" ">
<polygon fill="white" stroke="black" points="1847.41,-224.5 1847.41,-243.5 1936.41,-243.5 1936.41,-224.5 1847.41,-224.5"/>
<text text-anchor="middle" x="1891.91" y="-231.5" font-family="Helvetica,sans-Serif" font-size="10.00">loggingevent.h</text>
</a>
</g>
</g>
<!-- Node1&#45;&gt;Node32 -->
<g id="edge55" class="edge">
<title>Node1&#45;&gt;Node32</title>
<path fill="none" stroke="midnightblue" d="M1769.09,-387.31C1782.45,-379.29 1798.6,-368.33 1810.91,-356 1847.17,-319.69 1876.86,-264.88 1887.59,-243.74"/>
<polygon fill="midnightblue" stroke="midnightblue" points="1767.26,-384.33 1760.36,-392.38 1770.77,-390.38 1767.26,-384.33"/>
</g>
<!-- Node3 -->
<g id="node3" class="node">
<title>Node3</title>
<g id="a_node3"><a xlink:href="appenderattachable_8h.html" target="_top" xlink:title=" ">
<polygon fill="white" stroke="black" points="1186.41,-224.5 1186.41,-243.5 1309.41,-243.5 1309.41,-224.5 1186.41,-224.5"/>
<text text-anchor="middle" x="1247.91" y="-231.5" font-family="Helvetica,sans-Serif" font-size="10.00">appenderattachable.h</text>
</a>
</g>
</g>
<!-- Node2&#45;&gt;Node3 -->
<g id="edge2" class="edge">
<title>Node2&#45;&gt;Node3</title>
<path fill="none" stroke="midnightblue" d="M888.74,-282.89C961.67,-273.16 1104.27,-254.15 1186.15,-243.23"/>
<polygon fill="midnightblue" stroke="midnightblue" points="887.94,-279.46 878.5,-284.26 888.87,-286.4 887.94,-279.46"/>
</g>
<!-- Node5 -->
<g id="node5" class="node">
<title>Node5</title>
<g id="a_node5"><a xlink:href="asyncappender_8h.html" target="_top" xlink:title=" ">
<polygon fill="white" stroke="black" points="1460.41,-112.5 1460.41,-131.5 1559.41,-131.5 1559.41,-112.5 1460.41,-112.5"/>
<text text-anchor="middle" x="1509.91" y="-119.5" font-family="Helvetica,sans-Serif" font-size="10.00">asyncappender.h</text>
</a>
</g>
</g>
<!-- Node2&#45;&gt;Node5 -->
<g id="edge20" class="edge">
<title>Node2&#45;&gt;Node5</title>
<path fill="none" stroke="midnightblue" d="M888.89,-288.49C1025.53,-286.58 1422.5,-278.13 1468.91,-244 1505.9,-216.8 1509.88,-154.47 1510.04,-131.61"/>
<polygon fill="midnightblue" stroke="midnightblue" points="888.7,-284.99 878.75,-288.62 888.8,-291.99 888.7,-284.99"/>
</g>
<!-- Node2&#45;&gt;Node6 -->
<g id="edge32" class="edge">
<title>Node2&#45;&gt;Node6</title>
<path fill="none" stroke="midnightblue" d="M796.94,-288.77C658.45,-287.65 246.94,-281.2 118.91,-244 61.41,-227.29 0.91,-238.87 0.91,-179 0.91,-179 0.91,-179 0.91,-121 0.91,-90.77 -2.73,-74.84 20.91,-56 65.88,-20.16 470.86,-12.76 595.54,-11.33"/>
<polygon fill="midnightblue" stroke="midnightblue" points="797.17,-292.27 807.2,-288.84 797.22,-285.27 797.17,-292.27"/>
</g>
<!-- Node10 -->
<g id="node10" class="node">
<title>Node10</title>
<g id="a_node10"><a xlink:href="configurator_8h.html" target="_top" xlink:title=" ">
<polygon fill="white" stroke="black" points="697.41,-112.5 697.41,-131.5 780.41,-131.5 780.41,-112.5 697.41,-112.5"/>
<text text-anchor="middle" x="738.91" y="-119.5" font-family="Helvetica,sans-Serif" font-size="10.00">configurator.h</text>
</a>
</g>
</g>
<!-- Node2&#45;&gt;Node10 -->
<g id="edge23" class="edge">
<title>Node2&#45;&gt;Node10</title>
<path fill="none" stroke="midnightblue" d="M797.19,-284.61C746.82,-278.72 670.56,-266.33 652.91,-244 620.78,-203.37 692.12,-151.95 724.26,-131.73"/>
<polygon fill="midnightblue" stroke="midnightblue" points="796.88,-288.1 807.21,-285.74 797.66,-281.14 796.88,-288.1"/>
</g>
<!-- Node12 -->
<g id="node12" class="node">
<title>Node12</title>
<g id="a_node12"><a xlink:href="hierarchylocker_8h.html" target="_top" xlink:title=" ">
<polygon fill="white" stroke="black" points="1021.91,-112.5 1021.91,-131.5 1121.91,-131.5 1121.91,-112.5 1021.91,-112.5"/>
<text text-anchor="middle" x="1071.91" y="-119.5" font-family="Helvetica,sans-Serif" font-size="10.00">hierarchylocker.h</text>
</a>
</g>
</g>
<!-- Node2&#45;&gt;Node12 -->
<g id="edge31" class="edge">
<title>Node2&#45;&gt;Node12</title>
<path fill="none" stroke="midnightblue" d="M888.82,-289.12C1024.2,-289.01 1414.74,-285.09 1452.91,-244 1458.96,-237.49 1458.33,-231.04 1452.91,-224 1450.18,-220.45 1197.36,-155.23 1105.11,-131.52"/>
<polygon fill="midnightblue" stroke="midnightblue" points="888.77,-285.62 878.77,-289.12 888.77,-292.62 888.77,-285.62"/>
</g>
<!-- Node15 -->
<g id="node15" class="node">
<title>Node15</title>
<g id="a_node15"><a xlink:href="callbackappender_8h.html" target="_top" xlink:title=" ">
<polygon fill="white" stroke="black" points="180.91,-224.5 180.91,-243.5 290.91,-243.5 290.91,-224.5 180.91,-224.5"/>
<text text-anchor="middle" x="235.91" y="-231.5" font-family="Helvetica,sans-Serif" font-size="10.00">callbackappender.h</text>
</a>
</g>
</g>
<!-- Node2&#45;&gt;Node15 -->
<g id="edge21" class="edge">
<title>Node2&#45;&gt;Node15</title>
<path fill="none" stroke="midnightblue" d="M797.11,-285.89C704.18,-279.41 486.85,-263.46 304.91,-244 300.46,-243.52 295.86,-243 291.24,-242.45"/>
<polygon fill="midnightblue" stroke="midnightblue" points="797.07,-289.39 807.29,-286.59 797.55,-282.41 797.07,-289.39"/>
</g>
<!-- Node16 -->
<g id="node16" class="node">
<title>Node16</title>
<g id="a_node16"><a xlink:href="clfsappender_8h.html" target="_top" xlink:title=" ">
<polygon fill="white" stroke="black" points="384.91,-224.5 384.91,-243.5 472.91,-243.5 472.91,-224.5 384.91,-224.5"/>
<text text-anchor="middle" x="428.91" y="-231.5" font-family="Helvetica,sans-Serif" font-size="10.00">clfsappender.h</text>
</a>
</g>
</g>
<!-- Node2&#45;&gt;Node16 -->
<g id="edge22" class="edge">
<title>Node2&#45;&gt;Node16</title>
<path fill="none" stroke="midnightblue" d="M797.32,-284.04C728.6,-276.4 594.42,-260.87 480.91,-244 478.37,-243.62 475.77,-243.22 473.14,-242.8"/>
<polygon fill="midnightblue" stroke="midnightblue" points="797.05,-287.53 807.38,-285.15 797.82,-280.57 797.05,-287.53"/>
</g>
<!-- Node17 -->
<g id="node17" class="node">
<title>Node17</title>
<g id="a_node17"><a xlink:href="consoleappender_8h.html" target="_top" xlink:title=" ">
<polygon fill="white" stroke="black" points="29.91,-56.5 29.91,-75.5 137.91,-75.5 137.91,-56.5 29.91,-56.5"/>
<text text-anchor="middle" x="83.91" y="-63.5" font-family="Helvetica,sans-Serif" font-size="10.00">consoleappender.h</text>
</a>
</g>
</g>
<!-- Node2&#45;&gt;Node17 -->
<g id="edge24" class="edge">
<title>Node2&#45;&gt;Node17</title>
<path fill="none" stroke="midnightblue" d="M796.89,-288.99C649.16,-288.56 193.51,-283.98 141.91,-244 86.95,-201.42 83.39,-105.52 83.67,-75.89"/>
<polygon fill="midnightblue" stroke="midnightblue" points="796.98,-292.49 806.99,-289.02 796.99,-285.49 796.98,-292.49"/>
</g>
<!-- Node18 -->
<g id="node18" class="node">
<title>Node18</title>
<g id="a_node18"><a xlink:href="deviceappender_8hxx.html" target="_top" xlink:title=" ">
<polygon fill="white" stroke="black" points="490.41,-224.5 490.41,-243.5 605.41,-243.5 605.41,-224.5 490.41,-224.5"/>
<text text-anchor="middle" x="547.91" y="-231.5" font-family="Helvetica,sans-Serif" font-size="10.00">deviceappender.hxx</text>
</a>
</g>
</g>
<!-- Node2&#45;&gt;Node18 -->
<g id="edge26" class="edge">
<title>Node2&#45;&gt;Node18</title>
<path fill="none" stroke="midnightblue" d="M797.15,-280.62C742.06,-270.54 650.03,-253.69 594.55,-243.54"/>
<polygon fill="midnightblue" stroke="midnightblue" points="796.86,-284.13 807.33,-282.49 798.12,-277.24 796.86,-284.13"/>
</g>
<!-- Node19 -->
<g id="node19" class="node">
<title>Node19</title>
<g id="a_node19"><a xlink:href="factory_8h.html" target="_top" xlink:title=" ">
<polygon fill="white" stroke="black" points="1693.41,-224.5 1693.41,-243.5 1752.41,-243.5 1752.41,-224.5 1693.41,-224.5"/>
<text text-anchor="middle" x="1722.91" y="-231.5" font-family="Helvetica,sans-Serif" font-size="10.00">factory.h</text>
</a>
</g>
</g>
<!-- Node2&#45;&gt;Node19 -->
<g id="edge27" class="edge">
<title>Node2&#45;&gt;Node19</title>
<path fill="none" stroke="midnightblue" d="M888.55,-289.42C1015.51,-289.98 1383.31,-287.42 1684.91,-244 1687.59,-243.61 1690.37,-243.13 1693.14,-242.58"/>
<polygon fill="midnightblue" stroke="midnightblue" points="888.44,-285.92 878.43,-289.37 888.41,-292.92 888.44,-285.92"/>
</g>
<!-- Node20 -->
<g id="node20" class="node">
<title>Node20</title>
<g id="a_node20"><a xlink:href="fileappender_8h.html" target="_top" xlink:title=" ">
<polygon fill="white" stroke="black" points="156.91,-56.5 156.91,-75.5 242.91,-75.5 242.91,-56.5 156.91,-56.5"/>
<text text-anchor="middle" x="199.91" y="-63.5" font-family="Helvetica,sans-Serif" font-size="10.00">fileappender.h</text>
</a>
</g>
</g>
<!-- Node2&#45;&gt;Node20 -->
<g id="edge29" class="edge">
<title>Node2&#45;&gt;Node20</title>
<path fill="none" stroke="midnightblue" d="M796.81,-288.94C651.92,-288.33 212.34,-283.25 162.91,-244 135.8,-222.48 137.5,-201.57 145.91,-168 155.24,-130.78 181.19,-92.27 193.4,-75.58"/>
<polygon fill="midnightblue" stroke="midnightblue" points="797.11,-292.44 807.13,-288.97 797.14,-285.44 797.11,-292.44"/>
</g>
<!-- Node21 -->
<g id="node21" class="node">
<title>Node21</title>
<g id="a_node21"><a xlink:href="log4judpappender_8h.html" target="_top" xlink:title=" ">
<polygon fill="white" stroke="black" points="662.41,-224.5 662.41,-243.5 775.41,-243.5 775.41,-224.5 662.41,-224.5"/>
<text text-anchor="middle" x="718.91" y="-231.5" font-family="Helvetica,sans-Serif" font-size="10.00">log4judpappender.h</text>
</a>
</g>
</g>
<!-- Node2&#45;&gt;Node21 -->
<g id="edge33" class="edge">
<title>Node2&#45;&gt;Node21</title>
<path fill="none" stroke="midnightblue" d="M813.9,-276.37C790.68,-266.26 758.75,-252.35 738.47,-243.52"/>
<polygon fill="midnightblue" stroke="midnightblue" points="812.7,-279.66 823.26,-280.44 815.49,-273.24 812.7,-279.66"/>
</g>
<!-- Node22 -->
<g id="node22" class="node">
<title>Node22</title>
<g id="a_node22"><a xlink:href="msttsappender_8h.html" target="_top" xlink:title=" ">
<polygon fill="white" stroke="black" points="793.91,-224.5 793.91,-243.5 891.91,-243.5 891.91,-224.5 793.91,-224.5"/>
<text text-anchor="middle" x="842.91" y="-231.5" font-family="Helvetica,sans-Serif" font-size="10.00">msttsappender.h</text>
</a>
</g>
</g>
<!-- Node2&#45;&gt;Node22 -->
<g id="edge34" class="edge">
<title>Node2&#45;&gt;Node22</title>
<path fill="none" stroke="midnightblue" d="M842.91,-269.8C842.91,-260.91 842.91,-250.78 842.91,-243.75"/>
<polygon fill="midnightblue" stroke="midnightblue" points="839.41,-270.08 842.91,-280.08 846.41,-270.08 839.41,-270.08"/>
</g>
<!-- Node23 -->
<g id="node23" class="node">
<title>Node23</title>
<g id="a_node23"><a xlink:href="nteventlogappender_8h.html" target="_top" xlink:title=" ">
<polygon fill="white" stroke="black" points="910.41,-224.5 910.41,-243.5 1033.41,-243.5 1033.41,-224.5 910.41,-224.5"/>
<text text-anchor="middle" x="971.91" y="-231.5" font-family="Helvetica,sans-Serif" font-size="10.00">nteventlogappender.h</text>
</a>
</g>
</g>
<!-- Node2&#45;&gt;Node23 -->
<g id="edge35" class="edge">
<title>Node2&#45;&gt;Node23</title>
<path fill="none" stroke="midnightblue" d="M872.76,-276.5C896.95,-266.38 930.37,-252.39 951.56,-243.52"/>
<polygon fill="midnightblue" stroke="midnightblue" points="871.22,-273.35 863.35,-280.44 873.93,-279.81 871.22,-273.35"/>
</g>
<!-- Node24 -->
<g id="node24" class="node">
<title>Node24</title>
<g id="a_node24"><a xlink:href="nullappender_8h.html" target="_top" xlink:title=" ">
<polygon fill="white" stroke="black" points="155.41,-168.5 155.41,-187.5 244.41,-187.5 244.41,-168.5 155.41,-168.5"/>
<text text-anchor="middle" x="199.91" y="-175.5" font-family="Helvetica,sans-Serif" font-size="10.00">nullappender.h</text>
</a>
</g>
</g>
<!-- Node2&#45;&gt;Node24 -->
<g id="edge36" class="edge">
<title>Node2&#45;&gt;Node24</title>
<path fill="none" stroke="midnightblue" d="M796.9,-289.46C652.37,-290.41 214.46,-289.5 171.91,-244 156.47,-227.49 177.69,-201.13 190.85,-187.61"/>
<polygon fill="midnightblue" stroke="midnightblue" points="797.22,-292.95 807.19,-289.38 797.17,-285.95 797.22,-292.95"/>
</g>
<!-- Node25 -->
<g id="node25" class="node">
<title>Node25</title>
<g id="a_node25"><a xlink:href="qt4debugappender_8h.html" target="_top" xlink:title=" ">
<polygon fill="white" stroke="black" points="1051.91,-224.5 1051.91,-243.5 1167.91,-243.5 1167.91,-224.5 1051.91,-224.5"/>
<text text-anchor="middle" x="1109.91" y="-231.5" font-family="Helvetica,sans-Serif" font-size="10.00">qt4debugappender.h</text>
</a>
</g>
</g>
<!-- Node2&#45;&gt;Node25 -->
<g id="edge38" class="edge">
<title>Node2&#45;&gt;Node25</title>
<path fill="none" stroke="midnightblue" d="M888.59,-279.76C938.86,-269.6 1018.99,-253.39 1067.79,-243.52"/>
<polygon fill="midnightblue" stroke="midnightblue" points="887.75,-276.36 878.64,-281.77 889.14,-283.22 887.75,-276.36"/>
</g>
<!-- Node26 -->
<g id="node26" class="node">
<title>Node26</title>
<g id="a_node26"><a xlink:href="qt5debugappender_8h.html" target="_top" xlink:title=" ">
<polygon fill="white" stroke="black" points="1327.91,-224.5 1327.91,-243.5 1443.91,-243.5 1443.91,-224.5 1327.91,-224.5"/>
<text text-anchor="middle" x="1385.91" y="-231.5" font-family="Helvetica,sans-Serif" font-size="10.00">qt5debugappender.h</text>
</a>
</g>
</g>
<!-- Node2&#45;&gt;Node26 -->
<g id="edge39" class="edge">
<title>Node2&#45;&gt;Node26</title>
<path fill="none" stroke="midnightblue" d="M888.46,-285.25C973.13,-278.16 1160.48,-261.87 1317.91,-244 1321.1,-243.64 1324.38,-243.25 1327.69,-242.85"/>
<polygon fill="midnightblue" stroke="midnightblue" points="888.08,-281.77 878.41,-286.09 888.67,-288.75 888.08,-281.77"/>
</g>
<!-- Node27 -->
<g id="node27" class="node">
<title>Node27</title>
<g id="a_node27"><a xlink:href="socketappender_8h.html" target="_top" xlink:title=" ">
<polygon fill="white" stroke="black" points="298.91,-56.5 298.91,-75.5 400.91,-75.5 400.91,-56.5 298.91,-56.5"/>
<text text-anchor="middle" x="349.91" y="-63.5" font-family="Helvetica,sans-Serif" font-size="10.00">socketappender.h</text>
</a>
</g>
</g>
<!-- Node2&#45;&gt;Node27 -->
<g id="edge40" class="edge">
<title>Node2&#45;&gt;Node27</title>
<path fill="none" stroke="midnightblue" d="M797.33,-287.68C684.5,-284 398.91,-271.98 366.91,-244 316.94,-200.31 338.91,-105.16 347.23,-75.8"/>
<polygon fill="midnightblue" stroke="midnightblue" points="797.28,-291.18 807.38,-288 797.5,-284.18 797.28,-291.18"/>
</g>
<!-- Node28 -->
<g id="node28" class="node">
<title>Node28</title>
<g id="a_node28"><a xlink:href="syslogappender_8h.html" target="_top" xlink:title=" ">
<polygon fill="white" stroke="black" points="362.91,-168.5 362.91,-187.5 464.91,-187.5 464.91,-168.5 362.91,-168.5"/>
<text text-anchor="middle" x="413.91" y="-175.5" font-family="Helvetica,sans-Serif" font-size="10.00">syslogappender.h</text>
</a>
</g>
</g>
<!-- Node2&#45;&gt;Node28 -->
<g id="edge42" class="edge">
<title>Node2&#45;&gt;Node28</title>
<path fill="none" stroke="midnightblue" d="M797.06,-288.01C684.92,-285.11 403.89,-274.81 375.91,-244 359.83,-226.29 386.15,-200.69 402.48,-187.52"/>
<polygon fill="midnightblue" stroke="midnightblue" points="797.29,-291.51 807.37,-288.27 797.46,-284.52 797.29,-291.51"/>
</g>
<!-- Node29 -->
<g id="node29" class="node">
<title>Node29</title>
<g id="a_node29"><a xlink:href="win32consoleappender_8h.html" target="_top" xlink:title=" ">
<polygon fill="white" stroke="black" points="1538.41,-224.5 1538.41,-243.5 1675.41,-243.5 1675.41,-224.5 1538.41,-224.5"/>
<text text-anchor="middle" x="1606.91" y="-231.5" font-family="Helvetica,sans-Serif" font-size="10.00">win32consoleappender.h</text>
</a>
</g>
</g>
<!-- Node2&#45;&gt;Node29 -->
<g id="edge44" class="edge">
<title>Node2&#45;&gt;Node29</title>
<path fill="none" stroke="midnightblue" d="M888.83,-286.63C998.67,-280.83 1285.2,-264.82 1523.91,-244 1528.53,-243.6 1533.29,-243.15 1538.09,-242.69"/>
<polygon fill="midnightblue" stroke="midnightblue" points="888.56,-283.14 878.76,-287.16 888.93,-290.13 888.56,-283.14"/>
</g>
<!-- Node4 -->
<g id="node4" class="node">
<title>Node4</title>
<g id="a_node4"><a xlink:href="appenderattachableimpl_8h.html" target="_top" xlink:title=" ">
<polygon fill="white" stroke="black" points="1336.41,-168.5 1336.41,-187.5 1481.41,-187.5 1481.41,-168.5 1336.41,-168.5"/>
<text text-anchor="middle" x="1408.91" y="-175.5" font-family="Helvetica,sans-Serif" font-size="10.00">appenderattachableimpl.h</text>
</a>
</g>
</g>
<!-- Node3&#45;&gt;Node4 -->
<g id="edge3" class="edge">
<title>Node3&#45;&gt;Node4</title>
<path fill="none" stroke="midnightblue" d="M1283.17,-221.17C1313.49,-211 1356.48,-196.59 1383.52,-187.52"/>
<polygon fill="midnightblue" stroke="midnightblue" points="1281.79,-217.95 1273.42,-224.44 1284.01,-224.58 1281.79,-217.95"/>
</g>
<!-- Node3&#45;&gt;Node9 -->
<g id="edge8" class="edge">
<title>Node3&#45;&gt;Node9</title>
<path fill="none" stroke="midnightblue" d="M1176.26,-223.99C949.33,-201.37 689.69,-185.51 605.07,-180.6"/>
<polygon fill="midnightblue" stroke="midnightblue" points="1176.06,-227.49 1186.36,-225 1176.76,-220.52 1176.06,-227.49"/>
</g>
<!-- Node4&#45;&gt;Node5 -->
<g id="edge4" class="edge">
<title>Node4&#45;&gt;Node5</title>
<path fill="none" stroke="midnightblue" d="M1433.99,-163.59C1452.67,-153.61 1477.61,-140.27 1493.72,-131.65"/>
<polygon fill="midnightblue" stroke="midnightblue" points="1432.31,-160.52 1425.14,-168.32 1435.61,-166.7 1432.31,-160.52"/>
</g>
<!-- Node7 -->
<g id="node7" class="node">
<title>Node7</title>
<g id="a_node7"><a xlink:href="loggerimpl_8h.html" target="_top" xlink:title=" ">
<polygon fill="white" stroke="black" points="1363.91,-112.5 1363.91,-131.5 1441.91,-131.5 1441.91,-112.5 1363.91,-112.5"/>
<text text-anchor="middle" x="1402.91" y="-119.5" font-family="Helvetica,sans-Serif" font-size="10.00">loggerimpl.h</text>
</a>
</g>
</g>
<!-- Node4&#45;&gt;Node7 -->
<g id="edge6" class="edge">
<title>Node4&#45;&gt;Node7</title>
<path fill="none" stroke="midnightblue" d="M1406.81,-158.1C1405.81,-149.14 1404.67,-138.86 1403.88,-131.75"/>
<polygon fill="midnightblue" stroke="midnightblue" points="1403.34,-158.53 1407.92,-168.08 1410.29,-157.76 1403.34,-158.53"/>
</g>
<!-- Node5&#45;&gt;Node6 -->
<g id="edge5" class="edge">
<title>Node5&#45;&gt;Node6</title>
<path fill="none" stroke="midnightblue" d="M1499.21,-103.57C1488.59,-88.02 1470.75,-66.18 1448.91,-56 1377.53,-22.74 816.8,-13.33 668.03,-11.41"/>
<polygon fill="midnightblue" stroke="midnightblue" points="1496.48,-105.8 1504.87,-112.28 1502.36,-101.99 1496.48,-105.8"/>
</g>
<!-- Node8 -->
<g id="node8" class="node">
<title>Node8</title>
<g id="a_node8"><a xlink:href="rootlogger_8h.html" target="_top" xlink:title=" ">
<polygon fill="white" stroke="black" points="1365.41,-56.5 1365.41,-75.5 1440.41,-75.5 1440.41,-56.5 1365.41,-56.5"/>
<text text-anchor="middle" x="1402.91" y="-63.5" font-family="Helvetica,sans-Serif" font-size="10.00">rootlogger.h</text>
</a>
</g>
</g>
<!-- Node7&#45;&gt;Node8 -->
<g id="edge7" class="edge">
<title>Node7&#45;&gt;Node8</title>
<path fill="none" stroke="midnightblue" d="M1402.91,-101.8C1402.91,-92.91 1402.91,-82.78 1402.91,-75.75"/>
<polygon fill="midnightblue" stroke="midnightblue" points="1399.41,-102.08 1402.91,-112.08 1406.41,-102.08 1399.41,-102.08"/>
</g>
<!-- Node9&#45;&gt;Node6 -->
<g id="edge14" class="edge">
<title>Node9&#45;&gt;Node6</title>
<path fill="none" stroke="midnightblue" d="M552.31,-162.75C516.5,-140.2 457.25,-94.82 485.91,-56 510.96,-22.07 561.21,-12.93 595.7,-10.87"/>
<polygon fill="midnightblue" stroke="midnightblue" points="550.91,-166 561.27,-168.23 554.56,-160.03 550.91,-166"/>
</g>
<!-- Node9&#45;&gt;Node10 -->
<g id="edge9" class="edge">
<title>Node9&#45;&gt;Node10</title>
<path fill="none" stroke="midnightblue" d="M612.39,-165.17C642.9,-155 686.15,-140.59 713.36,-131.52"/>
<polygon fill="midnightblue" stroke="midnightblue" points="610.96,-161.96 602.58,-168.44 613.17,-168.6 610.96,-161.96"/>
</g>
<!-- Node11 -->
<g id="node11" class="node">
<title>Node11</title>
<g id="a_node11"><a xlink:href="hierarchy_8h.html" target="_top" xlink:title=" ">
<polygon fill="white" stroke="black" points="494.91,-56.5 494.91,-75.5 564.91,-75.5 564.91,-56.5 494.91,-56.5"/>
<text text-anchor="middle" x="529.91" y="-63.5" font-family="Helvetica,sans-Serif" font-size="10.00">hierarchy.h</text>
</a>
</g>
</g>
<!-- Node9&#45;&gt;Node11 -->
<g id="edge11" class="edge">
<title>Node9&#45;&gt;Node11</title>
<path fill="none" stroke="midnightblue" d="M568.82,-159.07C565.14,-150.84 560.75,-140.95 556.91,-132 548.32,-112.02 538.62,-88.4 533.51,-75.86"/>
<polygon fill="midnightblue" stroke="midnightblue" points="565.72,-160.71 573.01,-168.4 572.11,-157.84 565.72,-160.71"/>
</g>
<!-- Node9&#45;&gt;Node12 -->
<g id="edge13" class="edge">
<title>Node9&#45;&gt;Node12</title>
<path fill="none" stroke="midnightblue" d="M615.07,-172.84C703.53,-163.19 922.64,-139.28 1021.77,-128.47"/>
<polygon fill="midnightblue" stroke="midnightblue" points="614.5,-169.38 604.94,-173.94 615.26,-176.34 614.5,-169.38"/>
</g>
<!-- Node13 -->
<g id="node13" class="node">
<title>Node13</title>
<g id="a_node13"><a xlink:href="loggingmacros_8h.html" target="_top" xlink:title="This header defines the logging macros.">
<polygon fill="white" stroke="black" points="582.91,-56.5 582.91,-75.5 680.91,-75.5 680.91,-56.5 582.91,-56.5"/>
<text text-anchor="middle" x="631.91" y="-63.5" font-family="Helvetica,sans-Serif" font-size="10.00">loggingmacros.h</text>
</a>
</g>
</g>
<!-- Node9&#45;&gt;Node13 -->
<g id="edge15" class="edge">
<title>Node9&#45;&gt;Node13</title>
<path fill="none" stroke="midnightblue" d="M577.95,-158.07C579.33,-144.59 582.52,-126.4 589.91,-112 597.42,-97.36 611.1,-84.05 620.8,-75.77"/>
<polygon fill="midnightblue" stroke="midnightblue" points="574.45,-157.85 577.17,-168.09 581.43,-158.39 574.45,-157.85"/>
</g>
<!-- Node14 -->
<g id="node14" class="node">
<title>Node14</title>
<g id="a_node14"><a xlink:href="tracelogger_8h.html" target="_top" xlink:title=" ">
<polygon fill="white" stroke="black" points="598.91,-112.5 598.91,-131.5 678.91,-131.5 678.91,-112.5 598.91,-112.5"/>
<text text-anchor="middle" x="638.91" y="-119.5" font-family="Helvetica,sans-Serif" font-size="10.00">tracelogger.h</text>
</a>
</g>
</g>
<!-- Node9&#45;&gt;Node14 -->
<g id="edge17" class="edge">
<title>Node9&#45;&gt;Node14</title>
<path fill="none" stroke="midnightblue" d="M594.66,-161.54C605.72,-151.91 619.54,-139.87 628.77,-131.83"/>
<polygon fill="midnightblue" stroke="midnightblue" points="592.11,-159.12 586.87,-168.32 596.71,-164.4 592.11,-159.12"/>
</g>
<!-- Node10&#45;&gt;Node6 -->
<g id="edge10" class="edge">
<title>Node10&#45;&gt;Node6</title>
<path fill="none" stroke="midnightblue" d="M732.71,-102.54C727.31,-88.54 718.38,-69.47 705.91,-56 690.79,-39.67 668.42,-27.18 652.23,-19.55"/>
<polygon fill="midnightblue" stroke="midnightblue" points="729.47,-103.86 736.15,-112.08 736.06,-101.49 729.47,-103.86"/>
</g>
<!-- Node11&#45;&gt;Node6 -->
<g id="edge12" class="edge">
<title>Node11&#45;&gt;Node6</title>
<path fill="none" stroke="midnightblue" d="M555.24,-51.59C574.1,-41.61 599.29,-28.27 615.56,-19.65"/>
<polygon fill="midnightblue" stroke="midnightblue" points="553.5,-48.55 546.3,-56.32 556.77,-54.74 553.5,-48.55"/>
</g>
<!-- Node13&#45;&gt;Node6 -->
<g id="edge16" class="edge">
<title>Node13&#45;&gt;Node6</title>
<path fill="none" stroke="midnightblue" d="M631.91,-45.8C631.91,-36.91 631.91,-26.78 631.91,-19.75"/>
<polygon fill="midnightblue" stroke="midnightblue" points="628.41,-46.08 631.91,-56.08 635.41,-46.08 628.41,-46.08"/>
</g>
<!-- Node14&#45;&gt;Node6 -->
<g id="edge18" class="edge">
<title>Node14&#45;&gt;Node6</title>
<path fill="none" stroke="midnightblue" d="M663.11,-106.49C680.49,-94.07 699.31,-75.2 689.91,-56 681.72,-39.29 664.01,-27 650.3,-19.53"/>
<polygon fill="midnightblue" stroke="midnightblue" points="660.68,-103.9 654.31,-112.37 664.57,-109.72 660.68,-103.9"/>
</g>
<!-- Node14&#45;&gt;Node13 -->
<g id="edge19" class="edge">
<title>Node14&#45;&gt;Node13</title>
<path fill="none" stroke="midnightblue" d="M636.46,-102.1C635.3,-93.14 633.96,-82.86 633.04,-75.75"/>
<polygon fill="midnightblue" stroke="midnightblue" points="633,-102.62 637.75,-112.08 639.94,-101.72 633,-102.62"/>
</g>
<!-- Node17&#45;&gt;Node6 -->
<g id="edge25" class="edge">
<title>Node17&#45;&gt;Node6</title>
<path fill="none" stroke="midnightblue" d="M148.14,-56.03C322.51,-35.88 516.69,-19.98 595.72,-13.78"/>
<polygon fill="midnightblue" stroke="midnightblue" points="147.54,-52.58 138.01,-57.21 148.35,-59.53 147.54,-52.58"/>
</g>
<!-- Node19&#45;&gt;Node6 -->
<g id="edge28" class="edge">
<title>Node19&#45;&gt;Node6</title>
<path fill="none" stroke="midnightblue" d="M1696.97,-219.35C1682.09,-211.06 1663.34,-199.81 1647.91,-188 1571.39,-129.44 1568.03,-84.26 1475.91,-56 1321.6,-8.67 809.19,-9.45 668.13,-10.61"/>
<polygon fill="midnightblue" stroke="midnightblue" points="1695.68,-222.63 1706.13,-224.36 1699.03,-216.49 1695.68,-222.63"/>
</g>
<!-- Node20&#45;&gt;Node6 -->
<g id="edge30" class="edge">
<title>Node20&#45;&gt;Node6</title>
<path fill="none" stroke="midnightblue" d="M253.1,-56.54C254.38,-56.35 255.65,-56.17 256.91,-56 380.96,-38.77 528.65,-22.2 595.65,-14.9"/>
<polygon fill="midnightblue" stroke="midnightblue" points="252.53,-53.08 243.14,-58 253.55,-60.01 252.53,-53.08"/>
</g>
<!-- Node24&#45;&gt;Node6 -->
<g id="edge37" class="edge">
<title>Node24&#45;&gt;Node6</title>
<path fill="none" stroke="midnightblue" d="M207.5,-159.26C220.19,-131.98 248.47,-80.34 289.91,-56 341.16,-25.9 518.55,-15.42 595.66,-12.24"/>
<polygon fill="midnightblue" stroke="midnightblue" points="204.29,-157.86 203.4,-168.41 210.68,-160.72 204.29,-157.86"/>
</g>
<!-- Node27&#45;&gt;Node6 -->
<g id="edge41" class="edge">
<title>Node27&#45;&gt;Node6</title>
<path fill="none" stroke="midnightblue" d="M404.74,-54.5C461.05,-43.72 547.08,-27.24 595.51,-17.97"/>
<polygon fill="midnightblue" stroke="midnightblue" points="403.76,-51.13 394.59,-56.44 405.07,-58 403.76,-51.13"/>
</g>
<!-- Node28&#45;&gt;Node6 -->
<g id="edge43" class="edge">
<title>Node28&#45;&gt;Node6</title>
<path fill="none" stroke="midnightblue" d="M418.19,-158.59C425.34,-131.99 442.25,-83.04 474.91,-56 509.42,-27.43 561.13,-16.99 595.67,-13.17"/>
<polygon fill="midnightblue" stroke="midnightblue" points="414.75,-157.94 415.71,-168.49 421.54,-159.64 414.75,-157.94"/>
</g>
<!-- Node30&#45;&gt;Node2 -->
<g id="edge46" class="edge">
<title>Node30&#45;&gt;Node2</title>
<path fill="none" stroke="midnightblue" d="M1744.31,-336.22C1743.84,-336.14 1743.37,-336.07 1742.91,-336 1571.81,-310 1024.21,-295.33 878.7,-291.82"/>
<polygon fill="midnightblue" stroke="midnightblue" points="1743.83,-339.69 1754.32,-338.25 1745.21,-332.83 1743.83,-339.69"/>
</g>
<!-- Node30&#45;&gt;Node6 -->
<g id="edge48" class="edge">
<title>Node30&#45;&gt;Node6</title>
<path fill="none" stroke="midnightblue" d="M1788.85,-327.53C1801,-306.44 1818.91,-269.48 1818.91,-235 1818.91,-235 1818.91,-235 1818.91,-121 1818.91,-62.29 1760.36,-72.12 1703.91,-56 1602.65,-27.08 843.88,-14.14 668.16,-11.51"/>
<polygon fill="midnightblue" stroke="midnightblue" points="1785.74,-325.91 1783.61,-336.29 1791.75,-329.51 1785.74,-325.91"/>
</g>
<!-- Node30&#45;&gt;Node19 -->
<g id="edge47" class="edge">
<title>Node30&#45;&gt;Node19</title>
<path fill="none" stroke="midnightblue" d="M1769.07,-327.32C1757.09,-303.37 1736.18,-261.55 1727.2,-243.59"/>
<polygon fill="midnightblue" stroke="midnightblue" points="1765.99,-328.99 1773.59,-336.37 1772.25,-325.86 1765.99,-328.99"/>
</g>
<!-- Node31&#45;&gt;Node2 -->
<g id="edge50" class="edge">
<title>Node31&#45;&gt;Node2</title>
<path fill="none" stroke="midnightblue" d="M1667.59,-342.6C1523.89,-333.61 1018.16,-301.97 878.74,-293.24"/>
<polygon fill="midnightblue" stroke="midnightblue" points="1667.49,-346.1 1677.69,-343.23 1667.92,-339.12 1667.49,-346.1"/>
</g>
<!-- Node31&#45;&gt;Node6 -->
<g id="edge52" class="edge">
<title>Node31&#45;&gt;Node6</title>
<path fill="none" stroke="midnightblue" d="M1719.39,-328.11C1740.98,-299.31 1780.91,-238.07 1780.91,-179 1780.91,-179 1780.91,-179 1780.91,-121 1780.91,-6.4 863.5,-8.77 668.19,-10.58"/>
<polygon fill="midnightblue" stroke="midnightblue" points="1716.43,-326.22 1713.1,-336.28 1721.98,-330.49 1716.43,-326.22"/>
</g>
<!-- Node31&#45;&gt;Node19 -->
<g id="edge51" class="edge">
<title>Node31&#45;&gt;Node19</title>
<path fill="none" stroke="midnightblue" d="M1708.79,-326.35C1712.52,-302.25 1718.84,-261.31 1721.58,-243.59"/>
<polygon fill="midnightblue" stroke="midnightblue" points="1705.31,-325.95 1707.24,-336.37 1712.23,-327.02 1705.31,-325.95"/>
</g>
<!-- Node32&#45;&gt;Node6 -->
<g id="edge58" class="edge">
<title>Node32&#45;&gt;Node6</title>
<path fill="none" stroke="midnightblue" d="M1888.47,-214.46C1880.39,-173.12 1858.91,-75.49 1832.91,-56 1785.17,-20.21 863.82,-12.45 668.21,-11.2"/>
<polygon fill="midnightblue" stroke="midnightblue" points="1885.04,-215.14 1890.35,-224.31 1891.91,-213.83 1885.04,-215.14"/>
</g>
<!-- Node33 -->
<g id="node33" class="node">
<title>Node33</title>
<g id="a_node33"><a xlink:href="internal_8h.html" target="_top" xlink:title="This header contains declaration internal to log4cplus.">
<polygon fill="white" stroke="black" points="1905.41,-168.5 1905.41,-187.5 1968.41,-187.5 1968.41,-168.5 1905.41,-168.5"/>
<text text-anchor="middle" x="1936.91" y="-175.5" font-family="Helvetica,sans-Serif" font-size="10.00">internal.h</text>
</a>
</g>
</g>
<!-- Node32&#45;&gt;Node33 -->
<g id="edge56" class="edge">
<title>Node32&#45;&gt;Node33</title>
<path fill="none" stroke="midnightblue" d="M1905.96,-216.14C1913.8,-206.74 1923.24,-195.4 1929.62,-187.75"/>
<polygon fill="midnightblue" stroke="midnightblue" points="1903.05,-214.16 1899.34,-224.08 1908.43,-218.64 1903.05,-214.16"/>
</g>
<!-- Node35 -->
<g id="node35" class="node">
<title>Node35</title>
<g id="a_node35"><a xlink:href="queue_8h.html" target="_top" xlink:title=" ">
<polygon fill="white" stroke="black" points="1656.91,-168.5 1656.91,-187.5 1712.91,-187.5 1712.91,-168.5 1656.91,-168.5"/>
<text text-anchor="middle" x="1684.91" y="-175.5" font-family="Helvetica,sans-Serif" font-size="10.00">queue.h</text>
</a>
</g>
</g>
<!-- Node32&#45;&gt;Node35 -->
<g id="edge59" class="edge">
<title>Node32&#45;&gt;Node35</title>
<path fill="none" stroke="midnightblue" d="M1849.2,-221.86C1808.49,-211.24 1748.33,-195.55 1713.23,-186.39"/>
<polygon fill="midnightblue" stroke="midnightblue" points="1848.55,-225.31 1859.11,-224.44 1850.32,-218.53 1848.55,-225.31"/>
</g>
<!-- Node34 -->
<g id="node34" class="node">
<title>Node34</title>
<g id="a_node34"><a xlink:href="customloglevelmanager_8h.html" target="_top" xlink:title="This header contains declaration internal to log4cplus.">
<polygon fill="white" stroke="black" points="1885.41,-112.5 1885.41,-131.5 2028.41,-131.5 2028.41,-112.5 1885.41,-112.5"/>
<text text-anchor="middle" x="1956.91" y="-119.5" font-family="Helvetica,sans-Serif" font-size="10.00">customloglevelmanager.h</text>
</a>
</g>
</g>
<!-- Node33&#45;&gt;Node34 -->
<g id="edge57" class="edge">
<title>Node33&#45;&gt;Node34</title>
<path fill="none" stroke="midnightblue" d="M1943.69,-158.69C1947.06,-149.59 1950.98,-139.01 1953.67,-131.75"/>
<polygon fill="midnightblue" stroke="midnightblue" points="1940.4,-157.49 1940.21,-168.08 1946.97,-159.92 1940.4,-157.49"/>
</g>
<!-- Node35&#45;&gt;Node5 -->
<g id="edge60" class="edge">
<title>Node35&#45;&gt;Node5</title>
<path fill="none" stroke="midnightblue" d="M1647.43,-165.44C1614.44,-155.26 1567.15,-140.66 1537.51,-131.52"/>
<polygon fill="midnightblue" stroke="midnightblue" points="1646.59,-168.84 1657.18,-168.44 1648.66,-162.15 1646.59,-168.84"/>
</g>
</g>
</svg>
