<?xml version="1.0" encoding="UTF-8" standalone="no"?>
<!DOCTYPE svg PUBLIC "-//W3C//DTD SVG 1.1//EN"
 "http://www.w3.org/Graphics/SVG/1.1/DTD/svg11.dtd">
<!-- Generated by graphviz version 2.43.0 (0)
 -->
<!-- Title: loglevel.h Pages: 1 -->
<svg width="1067pt" height="274pt"
 viewBox="0.00 0.00 1067.00 274.00" xmlns="http://www.w3.org/2000/svg" xmlns:xlink="http://www.w3.org/1999/xlink">
<g id="graph0" class="graph" transform="scale(1 1) rotate(0) translate(4 270)">
<title>loglevel.h</title>
<polygon fill="white" stroke="transparent" points="-4,4 -4,-270 1063,-270 1063,4 -4,4"/>
<!-- Node1 -->
<g id="node1" class="node">
<title>Node1</title>
<g id="a_node1"><a xlink:title="This header defines the LogLevel type.">
<polygon fill="#bfbfbf" stroke="black" points="618,-246.5 618,-265.5 683,-265.5 683,-246.5 618,-246.5"/>
<text text-anchor="middle" x="650.5" y="-253.5" font-family="Helvetica,sans-Serif" font-size="10.00">loglevel.h</text>
</a>
</g>
</g>
<!-- Node2 -->
<g id="node2" class="node">
<title>Node2</title>
<g id="a_node2"><a xlink:href="config_8hxx.html" target="_top" xlink:title=" ">
<polygon fill="white" stroke="black" points="432.5,-73 432.5,-92 548.5,-92 548.5,-73 432.5,-73"/>
<text text-anchor="middle" x="490.5" y="-80" font-family="Helvetica,sans-Serif" font-size="10.00">log4cplus/config.hxx</text>
</a>
</g>
</g>
<!-- Node1&#45;&gt;Node2 -->
<g id="edge1" class="edge">
<title>Node1&#45;&gt;Node2</title>
<path fill="none" stroke="midnightblue" d="M617.74,-254.02C585.18,-251.17 536.32,-241.5 509.5,-210 483.54,-179.52 484.72,-129.25 487.69,-102.17"/>
<polygon fill="midnightblue" stroke="midnightblue" points="491.18,-102.47 489,-92.11 484.24,-101.57 491.18,-102.47"/>
</g>
<!-- Node5 -->
<g id="node5" class="node">
<title>Node5</title>
<g id="a_node5"><a xlink:title=" ">
<polygon fill="white" stroke="#bfbfbf" points="685,-190.5 685,-209.5 732,-209.5 732,-190.5 685,-190.5"/>
<text text-anchor="middle" x="708.5" y="-197.5" font-family="Helvetica,sans-Serif" font-size="10.00">vector</text>
</a>
</g>
</g>
<!-- Node1&#45;&gt;Node5 -->
<g id="edge4" class="edge">
<title>Node1&#45;&gt;Node5</title>
<path fill="none" stroke="midnightblue" d="M659.82,-246.32C668.39,-238.34 681.31,-226.31 691.69,-216.65"/>
<polygon fill="midnightblue" stroke="midnightblue" points="694.08,-219.21 699.01,-209.83 689.31,-214.09 694.08,-219.21"/>
</g>
<!-- Node6 -->
<g id="node6" class="node">
<title>Node6</title>
<g id="a_node6"><a xlink:title=" ">
<polygon fill="white" stroke="#bfbfbf" points="750.5,-190.5 750.5,-209.5 808.5,-209.5 808.5,-190.5 750.5,-190.5"/>
<text text-anchor="middle" x="779.5" y="-197.5" font-family="Helvetica,sans-Serif" font-size="10.00">memory</text>
</a>
</g>
</g>
<!-- Node1&#45;&gt;Node6 -->
<g id="edge5" class="edge">
<title>Node1&#45;&gt;Node6</title>
<path fill="none" stroke="midnightblue" d="M670.94,-246.44C692.17,-237.56 725.6,-223.56 749.75,-213.45"/>
<polygon fill="midnightblue" stroke="midnightblue" points="751.28,-216.61 759.16,-209.52 748.58,-210.15 751.28,-216.61"/>
</g>
<!-- Node7 -->
<g id="node7" class="node">
<title>Node7</title>
<g id="a_node7"><a xlink:title=" ">
<polygon fill="white" stroke="#bfbfbf" points="826.5,-190.5 826.5,-209.5 912.5,-209.5 912.5,-190.5 826.5,-190.5"/>
<text text-anchor="middle" x="869.5" y="-197.5" font-family="Helvetica,sans-Serif" font-size="10.00">shared_mutex</text>
</a>
</g>
</g>
<!-- Node1&#45;&gt;Node7 -->
<g id="edge6" class="edge">
<title>Node1&#45;&gt;Node7</title>
<path fill="none" stroke="midnightblue" d="M683.29,-246.92C720.88,-237.65 782.71,-222.4 824.71,-212.04"/>
<polygon fill="midnightblue" stroke="midnightblue" points="825.81,-215.38 834.68,-209.59 824.13,-208.58 825.81,-215.38"/>
</g>
<!-- Node8 -->
<g id="node8" class="node">
<title>Node8</title>
<g id="a_node8"><a xlink:href="tstring_8h.html" target="_top" xlink:title=" ">
<polygon fill="white" stroke="black" points="222,-190.5 222,-209.5 329,-209.5 329,-190.5 222,-190.5"/>
<text text-anchor="middle" x="275.5" y="-197.5" font-family="Helvetica,sans-Serif" font-size="10.00">log4cplus/tstring.h</text>
</a>
</g>
</g>
<!-- Node1&#45;&gt;Node8 -->
<g id="edge7" class="edge">
<title>Node1&#45;&gt;Node8</title>
<path fill="none" stroke="midnightblue" d="M617.88,-250.3C555.85,-241.37 419.89,-221.79 339.22,-210.18"/>
<polygon fill="midnightblue" stroke="midnightblue" points="339.57,-206.69 329.18,-208.73 338.58,-213.62 339.57,-206.69"/>
</g>
<!-- Node15 -->
<g id="node15" class="node">
<title>Node15</title>
<g id="a_node15"><a xlink:href="pointer_8h.html" target="_top" xlink:title=" ">
<polygon fill="white" stroke="black" points="518.5,-190.5 518.5,-209.5 666.5,-209.5 666.5,-190.5 518.5,-190.5"/>
<text text-anchor="middle" x="592.5" y="-197.5" font-family="Helvetica,sans-Serif" font-size="10.00">log4cplus/helpers/pointer.h</text>
</a>
</g>
</g>
<!-- Node1&#45;&gt;Node15 -->
<g id="edge16" class="edge">
<title>Node1&#45;&gt;Node15</title>
<path fill="none" stroke="midnightblue" d="M641.18,-246.32C632.61,-238.34 619.69,-226.31 609.31,-216.65"/>
<polygon fill="midnightblue" stroke="midnightblue" points="611.69,-214.09 601.99,-209.83 606.92,-219.21 611.69,-214.09"/>
</g>
<!-- Node3 -->
<g id="node3" class="node">
<title>Node3</title>
<g id="a_node3"><a xlink:href="win32_8h.html" target="_top" xlink:title=" ">
<polygon fill="white" stroke="black" points="345,-6 345,-25 482,-25 482,-6 345,-6"/>
<text text-anchor="middle" x="413.5" y="-13" font-family="Helvetica,sans-Serif" font-size="10.00">log4cplus/config/win32.h</text>
</a>
</g>
</g>
<!-- Node2&#45;&gt;Node3 -->
<g id="edge2" class="edge">
<title>Node2&#45;&gt;Node3</title>
<path fill="none" stroke="midnightblue" d="M480.12,-72.73C467.65,-62.21 446.53,-44.38 431.41,-31.62"/>
<polygon fill="midnightblue" stroke="midnightblue" points="433.62,-28.9 423.72,-25.13 429.1,-34.25 433.62,-28.9"/>
</g>
<!-- Node4 -->
<g id="node4" class="node">
<title>Node4</title>
<g id="a_node4"><a xlink:href="thread-config_8h.html" target="_top" xlink:title=" ">
<polygon fill="white" stroke="black" points="500,-0.5 500,-30.5 637,-30.5 637,-0.5 500,-0.5"/>
<text text-anchor="start" x="508" y="-18.5" font-family="Helvetica,sans-Serif" font-size="10.00">log4cplus/helpers/thread</text>
<text text-anchor="middle" x="568.5" y="-7.5" font-family="Helvetica,sans-Serif" font-size="10.00">&#45;config.h</text>
</a>
</g>
</g>
<!-- Node2&#45;&gt;Node4 -->
<g id="edge3" class="edge">
<title>Node2&#45;&gt;Node4</title>
<path fill="none" stroke="midnightblue" d="M501.02,-72.73C511.86,-63.7 529.17,-49.27 543.54,-37.3"/>
<polygon fill="midnightblue" stroke="midnightblue" points="546.15,-39.68 551.59,-30.59 541.67,-34.3 546.15,-39.68"/>
</g>
<!-- Node8&#45;&gt;Node2 -->
<g id="edge8" class="edge">
<title>Node8&#45;&gt;Node2</title>
<path fill="none" stroke="midnightblue" d="M221.87,-190.9C175.81,-181.72 120.6,-163.98 146.5,-134 181.41,-93.59 332.38,-84.92 422.31,-83.41"/>
<polygon fill="midnightblue" stroke="midnightblue" points="422.48,-86.91 432.43,-83.27 422.38,-79.91 422.48,-86.91"/>
</g>
<!-- Node9 -->
<g id="node9" class="node">
<title>Node9</title>
<g id="a_node9"><a xlink:title=" ">
<polygon fill="white" stroke="#bfbfbf" points="156,-134.5 156,-153.5 225,-153.5 225,-134.5 156,-134.5"/>
<text text-anchor="middle" x="190.5" y="-141.5" font-family="Helvetica,sans-Serif" font-size="10.00">type_traits</text>
</a>
</g>
</g>
<!-- Node8&#45;&gt;Node9 -->
<g id="edge9" class="edge">
<title>Node8&#45;&gt;Node9</title>
<path fill="none" stroke="midnightblue" d="M261.84,-190.32C248.58,-181.9 228.23,-168.97 212.65,-159.07"/>
<polygon fill="midnightblue" stroke="midnightblue" points="214.44,-156.06 204.12,-153.65 210.69,-161.97 214.44,-156.06"/>
</g>
<!-- Node10 -->
<g id="node10" class="node">
<title>Node10</title>
<g id="a_node10"><a xlink:title=" ">
<polygon fill="white" stroke="#bfbfbf" points="243,-134.5 243,-153.5 308,-153.5 308,-134.5 243,-134.5"/>
<text text-anchor="middle" x="275.5" y="-141.5" font-family="Helvetica,sans-Serif" font-size="10.00">functional</text>
</a>
</g>
</g>
<!-- Node8&#45;&gt;Node10 -->
<g id="edge10" class="edge">
<title>Node8&#45;&gt;Node10</title>
<path fill="none" stroke="midnightblue" d="M275.5,-190.08C275.5,-183.01 275.5,-172.86 275.5,-163.99"/>
<polygon fill="midnightblue" stroke="midnightblue" points="279,-163.75 275.5,-153.75 272,-163.75 279,-163.75"/>
</g>
<!-- Node11 -->
<g id="node11" class="node">
<title>Node11</title>
<g id="a_node11"><a xlink:title=" ">
<polygon fill="white" stroke="#bfbfbf" points="326.5,-134.5 326.5,-153.5 370.5,-153.5 370.5,-134.5 326.5,-134.5"/>
<text text-anchor="middle" x="348.5" y="-141.5" font-family="Helvetica,sans-Serif" font-size="10.00">string</text>
</a>
</g>
</g>
<!-- Node8&#45;&gt;Node11 -->
<g id="edge11" class="edge">
<title>Node8&#45;&gt;Node11</title>
<path fill="none" stroke="midnightblue" d="M287.23,-190.32C298.34,-182.11 315.24,-169.6 328.48,-159.81"/>
<polygon fill="midnightblue" stroke="midnightblue" points="330.6,-162.59 336.56,-153.83 326.44,-156.97 330.6,-162.59"/>
</g>
<!-- Node12 -->
<g id="node12" class="node">
<title>Node12</title>
<g id="a_node12"><a xlink:title=" ">
<polygon fill="white" stroke="#bfbfbf" points="389,-134.5 389,-153.5 462,-153.5 462,-134.5 389,-134.5"/>
<text text-anchor="middle" x="425.5" y="-141.5" font-family="Helvetica,sans-Serif" font-size="10.00">string_view</text>
</a>
</g>
</g>
<!-- Node8&#45;&gt;Node12 -->
<g id="edge12" class="edge">
<title>Node8&#45;&gt;Node12</title>
<path fill="none" stroke="midnightblue" d="M299.27,-190.44C324.39,-181.4 364.21,-167.06 392.4,-156.92"/>
<polygon fill="midnightblue" stroke="midnightblue" points="393.62,-160.2 401.84,-153.52 391.25,-153.61 393.62,-160.2"/>
</g>
<!-- Node13 -->
<g id="node13" class="node">
<title>Node13</title>
<g id="a_node13"><a xlink:href="tchar_8h.html" target="_top" xlink:title=" ">
<polygon fill="white" stroke="black" points="0,-134.5 0,-153.5 99,-153.5 99,-134.5 0,-134.5"/>
<text text-anchor="middle" x="49.5" y="-141.5" font-family="Helvetica,sans-Serif" font-size="10.00">log4cplus/tchar.h</text>
</a>
</g>
</g>
<!-- Node8&#45;&gt;Node13 -->
<g id="edge13" class="edge">
<title>Node8&#45;&gt;Node13</title>
<path fill="none" stroke="midnightblue" d="M239.69,-190.44C200.51,-181.08 137.62,-166.06 94.98,-155.87"/>
<polygon fill="midnightblue" stroke="midnightblue" points="95.68,-152.44 85.14,-153.52 94.06,-159.24 95.68,-152.44"/>
</g>
<!-- Node13&#45;&gt;Node2 -->
<g id="edge14" class="edge">
<title>Node13&#45;&gt;Node2</title>
<path fill="none" stroke="midnightblue" d="M99.11,-135.99C103.97,-135.31 108.83,-134.64 113.5,-134 221.28,-119.2 346.48,-102.54 422.03,-92.53"/>
<polygon fill="midnightblue" stroke="midnightblue" points="422.9,-95.95 432.36,-91.17 421.99,-89.01 422.9,-95.95"/>
</g>
<!-- Node14 -->
<g id="node14" class="node">
<title>Node14</title>
<g id="a_node14"><a xlink:title=" ">
<polygon fill="white" stroke="#bfbfbf" points="23,-73 23,-92 76,-92 76,-73 23,-73"/>
<text text-anchor="middle" x="49.5" y="-80" font-family="Helvetica,sans-Serif" font-size="10.00">cstddef</text>
</a>
</g>
</g>
<!-- Node13&#45;&gt;Node14 -->
<g id="edge15" class="edge">
<title>Node13&#45;&gt;Node14</title>
<path fill="none" stroke="midnightblue" d="M49.5,-134.48C49.5,-126.08 49.5,-112.98 49.5,-102.16"/>
<polygon fill="midnightblue" stroke="midnightblue" points="53,-102.01 49.5,-92.01 46,-102.01 53,-102.01"/>
</g>
<!-- Node15&#45;&gt;Node2 -->
<g id="edge17" class="edge">
<title>Node15&#45;&gt;Node2</title>
<path fill="none" stroke="midnightblue" d="M583.25,-190.31C573.95,-181.43 559.32,-167.14 547.5,-154 531.63,-136.36 514.69,-115.06 503.44,-100.52"/>
<polygon fill="midnightblue" stroke="midnightblue" points="506.1,-98.23 497.23,-92.43 500.55,-102.49 506.1,-98.23"/>
</g>
<!-- Node16 -->
<g id="node16" class="node">
<title>Node16</title>
<g id="a_node16"><a xlink:href="syncprims_8h.html" target="_top" xlink:title=" ">
<polygon fill="white" stroke="black" points="776.5,-134.5 776.5,-153.5 936.5,-153.5 936.5,-134.5 776.5,-134.5"/>
<text text-anchor="middle" x="856.5" y="-141.5" font-family="Helvetica,sans-Serif" font-size="10.00">log4cplus/thread/syncprims.h</text>
</a>
</g>
</g>
<!-- Node15&#45;&gt;Node16 -->
<g id="edge18" class="edge">
<title>Node15&#45;&gt;Node16</title>
<path fill="none" stroke="midnightblue" d="M634.33,-190.44C680.58,-180.98 755.11,-165.74 804.94,-155.55"/>
<polygon fill="midnightblue" stroke="midnightblue" points="805.77,-158.95 814.86,-153.52 804.37,-152.09 805.77,-158.95"/>
</g>
<!-- Node20 -->
<g id="node20" class="node">
<title>Node20</title>
<g id="a_node20"><a xlink:title=" ">
<polygon fill="white" stroke="#bfbfbf" points="556.5,-134.5 556.5,-153.5 620.5,-153.5 620.5,-134.5 556.5,-134.5"/>
<text text-anchor="middle" x="588.5" y="-141.5" font-family="Helvetica,sans-Serif" font-size="10.00">algorithm</text>
</a>
</g>
</g>
<!-- Node15&#45;&gt;Node20 -->
<g id="edge23" class="edge">
<title>Node15&#45;&gt;Node20</title>
<path fill="none" stroke="midnightblue" d="M591.84,-190.08C591.32,-183.01 590.56,-172.86 589.91,-163.99"/>
<polygon fill="midnightblue" stroke="midnightblue" points="593.38,-163.47 589.15,-153.75 586.4,-163.98 593.38,-163.47"/>
</g>
<!-- Node21 -->
<g id="node21" class="node">
<title>Node21</title>
<g id="a_node21"><a xlink:title=" ">
<polygon fill="white" stroke="#bfbfbf" points="638.5,-134.5 638.5,-153.5 690.5,-153.5 690.5,-134.5 638.5,-134.5"/>
<text text-anchor="middle" x="664.5" y="-141.5" font-family="Helvetica,sans-Serif" font-size="10.00">cassert</text>
</a>
</g>
</g>
<!-- Node15&#45;&gt;Node21 -->
<g id="edge24" class="edge">
<title>Node15&#45;&gt;Node21</title>
<path fill="none" stroke="midnightblue" d="M604.07,-190.32C614.92,-182.18 631.38,-169.84 644.38,-160.09"/>
<polygon fill="midnightblue" stroke="midnightblue" points="646.82,-162.63 652.72,-153.83 642.62,-157.03 646.82,-162.63"/>
</g>
<!-- Node22 -->
<g id="node22" class="node">
<title>Node22</title>
<g id="a_node22"><a xlink:title=" ">
<polygon fill="white" stroke="#bfbfbf" points="708.5,-134.5 708.5,-153.5 758.5,-153.5 758.5,-134.5 708.5,-134.5"/>
<text text-anchor="middle" x="733.5" y="-141.5" font-family="Helvetica,sans-Serif" font-size="10.00">atomic</text>
</a>
</g>
</g>
<!-- Node15&#45;&gt;Node22 -->
<g id="edge25" class="edge">
<title>Node15&#45;&gt;Node22</title>
<path fill="none" stroke="midnightblue" d="M614.84,-190.44C638.25,-181.48 675.24,-167.31 701.69,-157.18"/>
<polygon fill="midnightblue" stroke="midnightblue" points="703.18,-160.36 711.26,-153.52 700.67,-153.82 703.18,-160.36"/>
</g>
<!-- Node16&#45;&gt;Node2 -->
<g id="edge19" class="edge">
<title>Node16&#45;&gt;Node2</title>
<path fill="none" stroke="midnightblue" d="M804.06,-134.48C737.75,-123.69 623.7,-105.15 552.95,-93.65"/>
<polygon fill="midnightblue" stroke="midnightblue" points="553.27,-90.16 542.84,-92.01 552.15,-97.07 553.27,-90.16"/>
</g>
<!-- Node17 -->
<g id="node17" class="node">
<title>Node17</title>
<g id="a_node17"><a xlink:title=" ">
<polygon fill="white" stroke="#bfbfbf" points="736.5,-73 736.5,-92 784.5,-92 784.5,-73 736.5,-73"/>
<text text-anchor="middle" x="760.5" y="-80" font-family="Helvetica,sans-Serif" font-size="10.00">mutex</text>
</a>
</g>
</g>
<!-- Node16&#45;&gt;Node17 -->
<g id="edge20" class="edge">
<title>Node16&#45;&gt;Node17</title>
<path fill="none" stroke="midnightblue" d="M842.75,-134.48C827.13,-124.8 801.44,-108.87 782.92,-97.39"/>
<polygon fill="midnightblue" stroke="midnightblue" points="784.57,-94.3 774.23,-92.01 780.88,-100.25 784.57,-94.3"/>
</g>
<!-- Node18 -->
<g id="node18" class="node">
<title>Node18</title>
<g id="a_node18"><a xlink:title=" ">
<polygon fill="white" stroke="#bfbfbf" points="803,-73 803,-92 910,-92 910,-73 803,-73"/>
<text text-anchor="middle" x="856.5" y="-80" font-family="Helvetica,sans-Serif" font-size="10.00">condition_variable</text>
</a>
</g>
</g>
<!-- Node16&#45;&gt;Node18 -->
<g id="edge21" class="edge">
<title>Node16&#45;&gt;Node18</title>
<path fill="none" stroke="midnightblue" d="M856.5,-134.48C856.5,-126.08 856.5,-112.98 856.5,-102.16"/>
<polygon fill="midnightblue" stroke="midnightblue" points="860,-102.01 856.5,-92.01 853,-102.01 860,-102.01"/>
</g>
<!-- Node19 -->
<g id="node19" class="node">
<title>Node19</title>
<g id="a_node19"><a xlink:href="threadsafetyanalysis_8h.html" target="_top" xlink:title=" ">
<polygon fill="white" stroke="black" points="928,-67.5 928,-97.5 1059,-97.5 1059,-67.5 928,-67.5"/>
<text text-anchor="start" x="936" y="-85.5" font-family="Helvetica,sans-Serif" font-size="10.00">log4cplus/internal</text>
<text text-anchor="middle" x="993.5" y="-74.5" font-family="Helvetica,sans-Serif" font-size="10.00">/threadsafetyanalysis.h</text>
</a>
</g>
</g>
<!-- Node16&#45;&gt;Node19 -->
<g id="edge22" class="edge">
<title>Node16&#45;&gt;Node19</title>
<path fill="none" stroke="midnightblue" d="M876.13,-134.48C895.81,-125.93 926.72,-112.5 951.89,-101.57"/>
<polygon fill="midnightblue" stroke="midnightblue" points="953.43,-104.72 961.21,-97.52 950.65,-98.3 953.43,-104.72"/>
</g>
</g>
</svg>
