<?xml version="1.0" encoding="UTF-8" standalone="no"?>
<!DOCTYPE svg PUBLIC "-//W3C//DTD SVG 1.1//EN"
 "http://www.w3.org/Graphics/SVG/1.1/DTD/svg11.dtd">
<!-- Generated by graphviz version 2.43.0 (0)
 -->
<!-- Title: mdc.h Pages: 1 -->
<svg width="319pt" height="252pt"
 viewBox="0.00 0.00 319.06 252.00" xmlns="http://www.w3.org/2000/svg" xmlns:xlink="http://www.w3.org/1999/xlink">
<g id="graph0" class="graph" transform="scale(1 1) rotate(0) translate(4 248)">
<title>mdc.h</title>
<polygon fill="white" stroke="transparent" points="-4,4 -4,-248 315.06,-248 315.06,4 -4,4"/>
<!-- Node1 -->
<g id="node1" class="node">
<title>Node1</title>
<g id="a_node1"><a xlink:title=" ">
<polygon fill="#bfbfbf" stroke="black" points="155,-224.5 155,-243.5 202,-243.5 202,-224.5 155,-224.5"/>
<text text-anchor="middle" x="178.5" y="-231.5" font-family="Helvetica,sans-Serif" font-size="10.00">mdc.h</text>
</a>
</g>
</g>
<!-- Node2 -->
<g id="node2" class="node">
<title>Node2</title>
<g id="a_node2"><a xlink:href="internal_8h.html" target="_top" xlink:title="This header contains declaration internal to log4cplus.">
<polygon fill="white" stroke="black" points="74,-112.5 74,-131.5 137,-131.5 137,-112.5 74,-112.5"/>
<text text-anchor="middle" x="105.5" y="-119.5" font-family="Helvetica,sans-Serif" font-size="10.00">internal.h</text>
</a>
</g>
</g>
<!-- Node1&#45;&gt;Node2 -->
<g id="edge1" class="edge">
<title>Node1&#45;&gt;Node2</title>
<path fill="none" stroke="midnightblue" d="M155.75,-218.75C144.88,-210.89 132.52,-200.24 124.5,-188 112.77,-170.1 108.12,-144.8 106.4,-131.67"/>
<polygon fill="midnightblue" stroke="midnightblue" points="153.81,-221.67 164.04,-224.44 157.77,-215.89 153.81,-221.67"/>
</g>
<!-- Node4 -->
<g id="node4" class="node">
<title>Node4</title>
<g id="a_node4"><a xlink:href="log4cplus_8h.html" target="_top" xlink:title=" ">
<polygon fill="white" stroke="black" points="213.5,-0.5 213.5,-19.5 285.5,-19.5 285.5,-0.5 213.5,-0.5"/>
<text text-anchor="middle" x="249.5" y="-7.5" font-family="Helvetica,sans-Serif" font-size="10.00">log4cplus.h</text>
</a>
</g>
</g>
<!-- Node1&#45;&gt;Node4 -->
<g id="edge3" class="edge">
<title>Node1&#45;&gt;Node4</title>
<path fill="none" stroke="midnightblue" d="M199.16,-217.9C231.29,-192.82 291.31,-139.04 308.5,-76 310.84,-67.42 312.44,-63.97 308.5,-56 300.21,-39.26 282.39,-27.05 268.48,-19.6"/>
<polygon fill="midnightblue" stroke="midnightblue" points="196.73,-215.35 190.9,-224.2 200.98,-220.92 196.73,-215.35"/>
</g>
<!-- Node5 -->
<g id="node5" class="node">
<title>Node5</title>
<g id="a_node5"><a xlink:href="loggingevent_8h.html" target="_top" xlink:title=" ">
<polygon fill="white" stroke="black" points="134,-168.5 134,-187.5 223,-187.5 223,-168.5 134,-168.5"/>
<text text-anchor="middle" x="178.5" y="-175.5" font-family="Helvetica,sans-Serif" font-size="10.00">loggingevent.h</text>
</a>
</g>
</g>
<!-- Node1&#45;&gt;Node5 -->
<g id="edge4" class="edge">
<title>Node1&#45;&gt;Node5</title>
<path fill="none" stroke="midnightblue" d="M178.5,-213.8C178.5,-204.91 178.5,-194.78 178.5,-187.75"/>
<polygon fill="midnightblue" stroke="midnightblue" points="175,-214.08 178.5,-224.08 182,-214.08 175,-214.08"/>
</g>
<!-- Node3 -->
<g id="node3" class="node">
<title>Node3</title>
<g id="a_node3"><a xlink:href="customloglevelmanager_8h.html" target="_top" xlink:title="This header contains declaration internal to log4cplus.">
<polygon fill="white" stroke="black" points="0,-56.5 0,-75.5 143,-75.5 143,-56.5 0,-56.5"/>
<text text-anchor="middle" x="71.5" y="-63.5" font-family="Helvetica,sans-Serif" font-size="10.00">customloglevelmanager.h</text>
</a>
</g>
</g>
<!-- Node2&#45;&gt;Node3 -->
<g id="edge2" class="edge">
<title>Node2&#45;&gt;Node3</title>
<path fill="none" stroke="midnightblue" d="M94.52,-103.57C88.67,-94.27 81.73,-83.25 77.01,-75.75"/>
<polygon fill="midnightblue" stroke="midnightblue" points="91.6,-105.49 99.89,-112.08 97.52,-101.76 91.6,-105.49"/>
</g>
<!-- Node5&#45;&gt;Node2 -->
<g id="edge5" class="edge">
<title>Node5&#45;&gt;Node2</title>
<path fill="none" stroke="midnightblue" d="M158.36,-162.1C145.22,-152.38 128.52,-140.03 117.44,-131.83"/>
<polygon fill="midnightblue" stroke="midnightblue" points="156.65,-165.19 166.77,-168.32 160.81,-159.56 156.65,-165.19"/>
</g>
<!-- Node5&#45;&gt;Node4 -->
<g id="edge6" class="edge">
<title>Node5&#45;&gt;Node4</title>
<path fill="none" stroke="midnightblue" d="M175.98,-158.46C173.51,-133.49 172.39,-88.45 190.5,-56 199.73,-39.46 217.81,-27.08 231.54,-19.53"/>
<polygon fill="midnightblue" stroke="midnightblue" points="172.51,-158.88 177.14,-168.4 179.46,-158.06 172.51,-158.88"/>
</g>
<!-- Node6 -->
<g id="node6" class="node">
<title>Node6</title>
<g id="a_node6"><a xlink:href="queue_8h.html" target="_top" xlink:title=" ">
<polygon fill="white" stroke="black" points="210.5,-112.5 210.5,-131.5 266.5,-131.5 266.5,-112.5 210.5,-112.5"/>
<text text-anchor="middle" x="238.5" y="-119.5" font-family="Helvetica,sans-Serif" font-size="10.00">queue.h</text>
</a>
</g>
</g>
<!-- Node5&#45;&gt;Node6 -->
<g id="edge7" class="edge">
<title>Node5&#45;&gt;Node6</title>
<path fill="none" stroke="midnightblue" d="M195.68,-161.54C206.38,-151.91 219.76,-139.87 228.68,-131.83"/>
<polygon fill="midnightblue" stroke="midnightblue" points="193.23,-159.03 188.14,-168.32 197.91,-164.24 193.23,-159.03"/>
</g>
<!-- Node7 -->
<g id="node7" class="node">
<title>Node7</title>
<g id="a_node7"><a xlink:href="asyncappender_8h.html" target="_top" xlink:title=" ">
<polygon fill="white" stroke="black" points="200,-56.5 200,-75.5 299,-75.5 299,-56.5 200,-56.5"/>
<text text-anchor="middle" x="249.5" y="-63.5" font-family="Helvetica,sans-Serif" font-size="10.00">asyncappender.h</text>
</a>
</g>
</g>
<!-- Node6&#45;&gt;Node7 -->
<g id="edge8" class="edge">
<title>Node6&#45;&gt;Node7</title>
<path fill="none" stroke="midnightblue" d="M242.35,-102.1C244.18,-93.14 246.27,-82.86 247.72,-75.75"/>
<polygon fill="midnightblue" stroke="midnightblue" points="238.88,-101.59 240.32,-112.08 245.74,-102.98 238.88,-101.59"/>
</g>
<!-- Node7&#45;&gt;Node4 -->
<g id="edge9" class="edge">
<title>Node7&#45;&gt;Node4</title>
<path fill="none" stroke="midnightblue" d="M249.5,-45.8C249.5,-36.91 249.5,-26.78 249.5,-19.75"/>
<polygon fill="midnightblue" stroke="midnightblue" points="246,-46.08 249.5,-56.08 253,-46.08 246,-46.08"/>
</g>
</g>
</svg>
