<?xml version="1.0" encoding="UTF-8" standalone="no"?>
<!DOCTYPE svg PUBLIC "-//W3C//DTD SVG 1.1//EN"
 "http://www.w3.org/Graphics/SVG/1.1/DTD/svg11.dtd">
<!-- Generated by graphviz version 2.43.0 (0)
 -->
<!-- Title: mdc.h Pages: 1 -->
<svg width="567pt" height="263pt"
 viewBox="0.00 0.00 567.00 263.00" xmlns="http://www.w3.org/2000/svg" xmlns:xlink="http://www.w3.org/1999/xlink">
<g id="graph0" class="graph" transform="scale(1 1) rotate(0) translate(4 259)">
<title>mdc.h</title>
<polygon fill="white" stroke="transparent" points="-4,4 -4,-259 563,-259 563,4 -4,4"/>
<!-- Node1 -->
<g id="node1" class="node">
<title>Node1</title>
<g id="a_node1"><a xlink:title=" ">
<polygon fill="#bfbfbf" stroke="black" points="265,-235.5 265,-254.5 312,-254.5 312,-235.5 265,-235.5"/>
<text text-anchor="middle" x="288.5" y="-242.5" font-family="Helvetica,sans-Serif" font-size="10.00">mdc.h</text>
</a>
</g>
</g>
<!-- Node2 -->
<g id="node2" class="node">
<title>Node2</title>
<g id="a_node2"><a xlink:href="config_8hxx.html" target="_top" xlink:title=" ">
<polygon fill="white" stroke="black" points="87.5,-67.5 87.5,-86.5 203.5,-86.5 203.5,-67.5 87.5,-67.5"/>
<text text-anchor="middle" x="145.5" y="-74.5" font-family="Helvetica,sans-Serif" font-size="10.00">log4cplus/config.hxx</text>
</a>
</g>
</g>
<!-- Node1&#45;&gt;Node2 -->
<g id="edge1" class="edge">
<title>Node1&#45;&gt;Node2</title>
<path fill="none" stroke="midnightblue" d="M264.76,-243.66C211.04,-241.39 81.8,-227.07 42.5,-143 29.92,-116.09 62.16,-99.14 93.82,-89.33"/>
<polygon fill="midnightblue" stroke="midnightblue" points="94.94,-92.65 103.57,-86.5 92.99,-85.92 94.94,-92.65"/>
</g>
<!-- Node5 -->
<g id="node5" class="node">
<title>Node5</title>
<g id="a_node5"><a xlink:href="tstring_8h.html" target="_top" xlink:title=" ">
<polygon fill="white" stroke="black" points="144,-179.5 144,-198.5 251,-198.5 251,-179.5 144,-179.5"/>
<text text-anchor="middle" x="197.5" y="-186.5" font-family="Helvetica,sans-Serif" font-size="10.00">log4cplus/tstring.h</text>
</a>
</g>
</g>
<!-- Node1&#45;&gt;Node5 -->
<g id="edge4" class="edge">
<title>Node1&#45;&gt;Node5</title>
<path fill="none" stroke="midnightblue" d="M273.88,-235.32C259.55,-226.82 237.49,-213.73 220.75,-203.8"/>
<polygon fill="midnightblue" stroke="midnightblue" points="222.47,-200.75 212.08,-198.65 218.9,-206.77 222.47,-200.75"/>
</g>
<!-- Node7 -->
<g id="node7" class="node">
<title>Node7</title>
<g id="a_node7"><a xlink:title=" ">
<polygon fill="white" stroke="#bfbfbf" points="52,-123.5 52,-142.5 117,-142.5 117,-123.5 52,-123.5"/>
<text text-anchor="middle" x="84.5" y="-130.5" font-family="Helvetica,sans-Serif" font-size="10.00">functional</text>
</a>
</g>
</g>
<!-- Node1&#45;&gt;Node7 -->
<g id="edge15" class="edge">
<title>Node1&#45;&gt;Node7</title>
<path fill="none" stroke="midnightblue" d="M264.91,-241.7C232.91,-237.62 175.08,-226.75 134.5,-199 116.74,-186.86 102.52,-166.4 93.86,-151.67"/>
<polygon fill="midnightblue" stroke="midnightblue" points="96.7,-149.59 88.77,-142.57 90.59,-153.01 96.7,-149.59"/>
</g>
<!-- Node12 -->
<g id="node12" class="node">
<title>Node12</title>
<g id="a_node12"><a xlink:title=" ">
<polygon fill="white" stroke="#bfbfbf" points="269.5,-179.5 269.5,-198.5 307.5,-198.5 307.5,-179.5 269.5,-179.5"/>
<text text-anchor="middle" x="288.5" y="-186.5" font-family="Helvetica,sans-Serif" font-size="10.00">map</text>
</a>
</g>
</g>
<!-- Node1&#45;&gt;Node12 -->
<g id="edge13" class="edge">
<title>Node1&#45;&gt;Node12</title>
<path fill="none" stroke="midnightblue" d="M288.5,-235.08C288.5,-228.01 288.5,-217.86 288.5,-208.99"/>
<polygon fill="midnightblue" stroke="midnightblue" points="292,-208.75 288.5,-198.75 285,-208.75 292,-208.75"/>
</g>
<!-- Node13 -->
<g id="node13" class="node">
<title>Node13</title>
<g id="a_node13"><a xlink:title=" ">
<polygon fill="white" stroke="#bfbfbf" points="326,-179.5 326,-198.5 419,-198.5 419,-179.5 326,-179.5"/>
<text text-anchor="middle" x="372.5" y="-186.5" font-family="Helvetica,sans-Serif" font-size="10.00">unordered_map</text>
</a>
</g>
</g>
<!-- Node1&#45;&gt;Node13 -->
<g id="edge14" class="edge">
<title>Node1&#45;&gt;Node13</title>
<path fill="none" stroke="midnightblue" d="M302,-235.32C315.1,-226.9 335.21,-213.97 350.61,-204.07"/>
<polygon fill="midnightblue" stroke="midnightblue" points="352.52,-207.01 359.04,-198.65 348.73,-201.12 352.52,-207.01"/>
</g>
<!-- Node14 -->
<g id="node14" class="node">
<title>Node14</title>
<g id="a_node14"><a xlink:title=" ">
<polygon fill="white" stroke="#bfbfbf" points="437.5,-179.5 437.5,-198.5 493.5,-198.5 493.5,-179.5 437.5,-179.5"/>
<text text-anchor="middle" x="465.5" y="-186.5" font-family="Helvetica,sans-Serif" font-size="10.00">optional</text>
</a>
</g>
</g>
<!-- Node1&#45;&gt;Node14 -->
<g id="edge16" class="edge">
<title>Node1&#45;&gt;Node14</title>
<path fill="none" stroke="midnightblue" d="M312,-236.83C341.53,-227.82 392.58,-212.25 427.64,-201.55"/>
<polygon fill="midnightblue" stroke="midnightblue" points="428.97,-204.8 437.52,-198.54 426.93,-198.11 428.97,-204.8"/>
</g>
<!-- Node15 -->
<g id="node15" class="node">
<title>Node15</title>
<g id="a_node15"><a xlink:title=" ">
<polygon fill="white" stroke="#bfbfbf" points="512,-179.5 512,-198.5 559,-198.5 559,-179.5 512,-179.5"/>
<text text-anchor="middle" x="535.5" y="-186.5" font-family="Helvetica,sans-Serif" font-size="10.00">deque</text>
</a>
</g>
</g>
<!-- Node1&#45;&gt;Node15 -->
<g id="edge17" class="edge">
<title>Node1&#45;&gt;Node15</title>
<path fill="none" stroke="midnightblue" d="M312.03,-239.52C349.85,-232.23 426.69,-216.99 501.67,-199.08"/>
<polygon fill="midnightblue" stroke="midnightblue" points="502.85,-202.4 511.75,-196.66 501.21,-195.59 502.85,-202.4"/>
</g>
<!-- Node3 -->
<g id="node3" class="node">
<title>Node3</title>
<g id="a_node3"><a xlink:href="win32_8h.html" target="_top" xlink:title=" ">
<polygon fill="white" stroke="black" points="0,-6 0,-25 137,-25 137,-6 0,-6"/>
<text text-anchor="middle" x="68.5" y="-13" font-family="Helvetica,sans-Serif" font-size="10.00">log4cplus/config/win32.h</text>
</a>
</g>
</g>
<!-- Node2&#45;&gt;Node3 -->
<g id="edge2" class="edge">
<title>Node2&#45;&gt;Node3</title>
<path fill="none" stroke="midnightblue" d="M134.47,-67.48C122.23,-58.02 102.27,-42.6 87.51,-31.19"/>
<polygon fill="midnightblue" stroke="midnightblue" points="89.56,-28.35 79.51,-25.01 85.28,-33.89 89.56,-28.35"/>
</g>
<!-- Node4 -->
<g id="node4" class="node">
<title>Node4</title>
<g id="a_node4"><a xlink:href="thread-config_8h.html" target="_top" xlink:title=" ">
<polygon fill="white" stroke="black" points="155,-0.5 155,-30.5 292,-30.5 292,-0.5 155,-0.5"/>
<text text-anchor="start" x="163" y="-18.5" font-family="Helvetica,sans-Serif" font-size="10.00">log4cplus/helpers/thread</text>
<text text-anchor="middle" x="223.5" y="-7.5" font-family="Helvetica,sans-Serif" font-size="10.00">&#45;config.h</text>
</a>
</g>
</g>
<!-- Node2&#45;&gt;Node4 -->
<g id="edge3" class="edge">
<title>Node2&#45;&gt;Node4</title>
<path fill="none" stroke="midnightblue" d="M156.68,-67.48C167.14,-59.49 183.18,-47.25 196.93,-36.77"/>
<polygon fill="midnightblue" stroke="midnightblue" points="199.29,-39.37 205.12,-30.52 195.04,-33.81 199.29,-39.37"/>
</g>
<!-- Node5&#45;&gt;Node2 -->
<g id="edge5" class="edge">
<title>Node5&#45;&gt;Node2</title>
<path fill="none" stroke="midnightblue" d="M189.67,-179.3C182.26,-170.65 171.28,-156.73 164.5,-143 157.18,-128.17 152.17,-110.02 149.14,-96.67"/>
<polygon fill="midnightblue" stroke="midnightblue" points="152.54,-95.83 147.05,-86.77 145.69,-97.27 152.54,-95.83"/>
</g>
<!-- Node6 -->
<g id="node6" class="node">
<title>Node6</title>
<g id="a_node6"><a xlink:title=" ">
<polygon fill="white" stroke="#bfbfbf" points="174,-123.5 174,-142.5 243,-142.5 243,-123.5 174,-123.5"/>
<text text-anchor="middle" x="208.5" y="-130.5" font-family="Helvetica,sans-Serif" font-size="10.00">type_traits</text>
</a>
</g>
</g>
<!-- Node5&#45;&gt;Node6 -->
<g id="edge6" class="edge">
<title>Node5&#45;&gt;Node6</title>
<path fill="none" stroke="midnightblue" d="M199.32,-179.08C200.77,-171.93 202.87,-161.64 204.69,-152.69"/>
<polygon fill="midnightblue" stroke="midnightblue" points="208.15,-153.25 206.72,-142.75 201.29,-151.85 208.15,-153.25"/>
</g>
<!-- Node5&#45;&gt;Node7 -->
<g id="edge7" class="edge">
<title>Node5&#45;&gt;Node7</title>
<path fill="none" stroke="midnightblue" d="M179.59,-179.44C161.25,-170.68 132.49,-156.94 111.41,-146.86"/>
<polygon fill="midnightblue" stroke="midnightblue" points="112.85,-143.67 102.32,-142.52 109.83,-149.99 112.85,-143.67"/>
</g>
<!-- Node8 -->
<g id="node8" class="node">
<title>Node8</title>
<g id="a_node8"><a xlink:title=" ">
<polygon fill="white" stroke="#bfbfbf" points="261.5,-123.5 261.5,-142.5 305.5,-142.5 305.5,-123.5 261.5,-123.5"/>
<text text-anchor="middle" x="283.5" y="-130.5" font-family="Helvetica,sans-Serif" font-size="10.00">string</text>
</a>
</g>
</g>
<!-- Node5&#45;&gt;Node8 -->
<g id="edge8" class="edge">
<title>Node5&#45;&gt;Node8</title>
<path fill="none" stroke="midnightblue" d="M211.32,-179.32C224.73,-170.9 245.32,-157.97 261.09,-148.07"/>
<polygon fill="midnightblue" stroke="midnightblue" points="263.11,-150.94 269.72,-142.65 259.39,-145.01 263.11,-150.94"/>
</g>
<!-- Node9 -->
<g id="node9" class="node">
<title>Node9</title>
<g id="a_node9"><a xlink:title=" ">
<polygon fill="white" stroke="#bfbfbf" points="324,-123.5 324,-142.5 397,-142.5 397,-123.5 324,-123.5"/>
<text text-anchor="middle" x="360.5" y="-130.5" font-family="Helvetica,sans-Serif" font-size="10.00">string_view</text>
</a>
</g>
</g>
<!-- Node5&#45;&gt;Node9 -->
<g id="edge9" class="edge">
<title>Node5&#45;&gt;Node9</title>
<path fill="none" stroke="midnightblue" d="M223.33,-179.44C250.75,-170.36 294.28,-155.94 324.93,-145.78"/>
<polygon fill="midnightblue" stroke="midnightblue" points="326.4,-148.98 334.79,-142.52 324.2,-142.34 326.4,-148.98"/>
</g>
<!-- Node10 -->
<g id="node10" class="node">
<title>Node10</title>
<g id="a_node10"><a xlink:href="tchar_8h.html" target="_top" xlink:title=" ">
<polygon fill="white" stroke="black" points="415,-123.5 415,-142.5 514,-142.5 514,-123.5 415,-123.5"/>
<text text-anchor="middle" x="464.5" y="-130.5" font-family="Helvetica,sans-Serif" font-size="10.00">log4cplus/tchar.h</text>
</a>
</g>
</g>
<!-- Node5&#45;&gt;Node10 -->
<g id="edge10" class="edge">
<title>Node5&#45;&gt;Node10</title>
<path fill="none" stroke="midnightblue" d="M239.81,-179.44C286.58,-169.98 361.96,-154.74 412.35,-144.55"/>
<polygon fill="midnightblue" stroke="midnightblue" points="413.28,-147.93 422.39,-142.52 411.9,-141.07 413.28,-147.93"/>
</g>
<!-- Node10&#45;&gt;Node2 -->
<g id="edge11" class="edge">
<title>Node10&#45;&gt;Node2</title>
<path fill="none" stroke="midnightblue" d="M414.66,-123.56C358.25,-114.01 266.39,-98.46 205.94,-88.23"/>
<polygon fill="midnightblue" stroke="midnightblue" points="206.23,-84.73 195.78,-86.51 205.06,-91.63 206.23,-84.73"/>
</g>
<!-- Node11 -->
<g id="node11" class="node">
<title>Node11</title>
<g id="a_node11"><a xlink:title=" ">
<polygon fill="white" stroke="#bfbfbf" points="438,-67.5 438,-86.5 491,-86.5 491,-67.5 438,-67.5"/>
<text text-anchor="middle" x="464.5" y="-74.5" font-family="Helvetica,sans-Serif" font-size="10.00">cstddef</text>
</a>
</g>
</g>
<!-- Node10&#45;&gt;Node11 -->
<g id="edge12" class="edge">
<title>Node10&#45;&gt;Node11</title>
<path fill="none" stroke="midnightblue" d="M464.5,-123.08C464.5,-116.01 464.5,-105.86 464.5,-96.99"/>
<polygon fill="midnightblue" stroke="midnightblue" points="468,-96.75 464.5,-86.75 461,-96.75 468,-96.75"/>
</g>
</g>
</svg>
