<?xml version="1.0" encoding="UTF-8" standalone="no"?>
<!DOCTYPE svg PUBLIC "-//W3C//DTD SVG 1.1//EN"
 "http://www.w3.org/Graphics/SVG/1.1/DTD/svg11.dtd">
<!-- Generated by graphviz version 2.43.0 (0)
 -->
<!-- Title: nteventlogappender.h Pages: 1 -->
<svg width="1718pt" height="453pt"
 viewBox="0.00 0.00 1718.00 453.00" xmlns="http://www.w3.org/2000/svg" xmlns:xlink="http://www.w3.org/1999/xlink">
<g id="graph0" class="graph" transform="scale(1 1) rotate(0) translate(4 449)">
<title>nteventlogappender.h</title>
<polygon fill="white" stroke="transparent" points="-4,4 -4,-449 1714,-449 1714,4 -4,4"/>
<!-- Node1 -->
<g id="node1" class="node">
<title>Node1</title>
<g id="a_node1"><a xlink:title=" ">
<polygon fill="#bfbfbf" stroke="black" points="1375.5,-425.5 1375.5,-444.5 1498.5,-444.5 1498.5,-425.5 1375.5,-425.5"/>
<text text-anchor="middle" x="1437" y="-432.5" font-family="Helvetica,sans-Serif" font-size="10.00">nteventlogappender.h</text>
</a>
</g>
</g>
<!-- Node2 -->
<g id="node2" class="node">
<title>Node2</title>
<g id="a_node2"><a xlink:href="config_8hxx.html" target="_top" xlink:title=" ">
<polygon fill="white" stroke="black" points="653,-73 653,-92 769,-92 769,-73 653,-73"/>
<text text-anchor="middle" x="711" y="-80" font-family="Helvetica,sans-Serif" font-size="10.00">log4cplus/config.hxx</text>
</a>
</g>
</g>
<!-- Node1&#45;&gt;Node2 -->
<g id="edge1" class="edge">
<title>Node1&#45;&gt;Node2</title>
<path fill="none" stroke="midnightblue" d="M1437,-425.49C1437,-405.74 1437,-355.22 1437,-313 1437,-313 1437,-313 1437,-199 1437,-161.72 1417.05,-151.24 1384,-134 1331.33,-106.53 939.77,-90.89 779.3,-85.58"/>
<polygon fill="midnightblue" stroke="midnightblue" points="779.17,-82.07 769.07,-85.24 778.95,-89.07 779.17,-82.07"/>
</g>
<!-- Node5 -->
<g id="node5" class="node">
<title>Node5</title>
<g id="a_node5"><a xlink:href="appender_8h.html" target="_top" xlink:title=" ">
<polygon fill="white" stroke="black" points="519,-364 519,-383 639,-383 639,-364 519,-364"/>
<text text-anchor="middle" x="579" y="-371" font-family="Helvetica,sans-Serif" font-size="10.00">log4cplus/appender.h</text>
</a>
</g>
</g>
<!-- Node1&#45;&gt;Node5 -->
<g id="edge4" class="edge">
<title>Node1&#45;&gt;Node5</title>
<path fill="none" stroke="midnightblue" d="M1375.29,-429.72C1220.01,-418.95 813.76,-390.78 649.47,-379.39"/>
<polygon fill="midnightblue" stroke="midnightblue" points="649.22,-375.86 639,-378.66 648.74,-382.84 649.22,-375.86"/>
</g>
<!-- Node33 -->
<g id="node33" class="node">
<title>Node33</title>
<g id="a_node33"><a xlink:href="windowsh-inc_8h.html" target="_top" xlink:title=" ">
<polygon fill="white" stroke="black" points="1490.5,-358.5 1490.5,-388.5 1637.5,-388.5 1637.5,-358.5 1490.5,-358.5"/>
<text text-anchor="start" x="1498.5" y="-376.5" font-family="Helvetica,sans-Serif" font-size="10.00">log4cplus/config/windowsh</text>
<text text-anchor="middle" x="1564" y="-365.5" font-family="Helvetica,sans-Serif" font-size="10.00">&#45;inc.h</text>
</a>
</g>
</g>
<!-- Node1&#45;&gt;Node33 -->
<g id="edge60" class="edge">
<title>Node1&#45;&gt;Node33</title>
<path fill="none" stroke="midnightblue" d="M1455.2,-425.48C1473.28,-417 1501.59,-403.74 1524.81,-392.86"/>
<polygon fill="midnightblue" stroke="midnightblue" points="1526.5,-395.93 1534.07,-388.52 1523.53,-389.6 1526.5,-395.93"/>
</g>
<!-- Node3 -->
<g id="node3" class="node">
<title>Node3</title>
<g id="a_node3"><a xlink:href="win32_8h.html" target="_top" xlink:title=" ">
<polygon fill="white" stroke="black" points="564.5,-6 564.5,-25 701.5,-25 701.5,-6 564.5,-6"/>
<text text-anchor="middle" x="633" y="-13" font-family="Helvetica,sans-Serif" font-size="10.00">log4cplus/config/win32.h</text>
</a>
</g>
</g>
<!-- Node2&#45;&gt;Node3 -->
<g id="edge2" class="edge">
<title>Node2&#45;&gt;Node3</title>
<path fill="none" stroke="midnightblue" d="M700.48,-72.73C687.85,-62.21 666.46,-44.38 651.14,-31.62"/>
<polygon fill="midnightblue" stroke="midnightblue" points="653.28,-28.84 643.35,-25.13 648.79,-34.22 653.28,-28.84"/>
</g>
<!-- Node4 -->
<g id="node4" class="node">
<title>Node4</title>
<g id="a_node4"><a xlink:href="thread-config_8h.html" target="_top" xlink:title=" ">
<polygon fill="white" stroke="black" points="719.5,-0.5 719.5,-30.5 856.5,-30.5 856.5,-0.5 719.5,-0.5"/>
<text text-anchor="start" x="727.5" y="-18.5" font-family="Helvetica,sans-Serif" font-size="10.00">log4cplus/helpers/thread</text>
<text text-anchor="middle" x="788" y="-7.5" font-family="Helvetica,sans-Serif" font-size="10.00">&#45;config.h</text>
</a>
</g>
</g>
<!-- Node2&#45;&gt;Node4 -->
<g id="edge3" class="edge">
<title>Node2&#45;&gt;Node4</title>
<path fill="none" stroke="midnightblue" d="M721.38,-72.73C732.09,-63.7 749.18,-49.27 763.36,-37.3"/>
<polygon fill="midnightblue" stroke="midnightblue" points="765.93,-39.71 771.31,-30.59 761.41,-34.37 765.93,-39.71"/>
</g>
<!-- Node5&#45;&gt;Node2 -->
<g id="edge5" class="edge">
<title>Node5&#45;&gt;Node2</title>
<path fill="none" stroke="midnightblue" d="M523.48,-363.98C468.75,-352.3 387.96,-325.52 350,-266 324.61,-226.19 295.33,-212.44 390,-134 427.48,-102.95 560.27,-90.81 642.86,-86.2"/>
<polygon fill="midnightblue" stroke="midnightblue" points="643.12,-89.69 652.92,-85.66 642.75,-82.7 643.12,-89.69"/>
</g>
<!-- Node6 -->
<g id="node6" class="node">
<title>Node6</title>
<g id="a_node6"><a xlink:href="layout_8h.html" target="_top" xlink:title=" ">
<polygon fill="white" stroke="black" points="931,-302.5 931,-321.5 1037,-321.5 1037,-302.5 931,-302.5"/>
<text text-anchor="middle" x="984" y="-309.5" font-family="Helvetica,sans-Serif" font-size="10.00">log4cplus/layout.h</text>
</a>
</g>
</g>
<!-- Node5&#45;&gt;Node6 -->
<g id="edge6" class="edge">
<title>Node5&#45;&gt;Node6</title>
<path fill="none" stroke="midnightblue" d="M637.03,-363.98C712.28,-352.92 843.07,-333.7 920.78,-322.29"/>
<polygon fill="midnightblue" stroke="midnightblue" points="921.53,-325.71 930.92,-320.8 920.52,-318.79 921.53,-325.71"/>
</g>
<!-- Node7 -->
<g id="node7" class="node">
<title>Node7</title>
<g id="a_node7"><a xlink:href="loglevel_8h.html" target="_top" xlink:title="This header defines the LogLevel type.">
<polygon fill="white" stroke="black" points="716,-246.5 716,-265.5 830,-265.5 830,-246.5 716,-246.5"/>
<text text-anchor="middle" x="773" y="-253.5" font-family="Helvetica,sans-Serif" font-size="10.00">log4cplus/loglevel.h</text>
</a>
</g>
</g>
<!-- Node5&#45;&gt;Node7 -->
<g id="edge44" class="edge">
<title>Node5&#45;&gt;Node7</title>
<path fill="none" stroke="midnightblue" d="M600.79,-363.9C623.1,-354.74 658.46,-339.2 687,-322 711.98,-306.95 738.42,-286.13 755.28,-272.15"/>
<polygon fill="midnightblue" stroke="midnightblue" points="757.76,-274.64 763.17,-265.53 753.26,-269.28 757.76,-274.64"/>
</g>
<!-- Node9 -->
<g id="node9" class="node">
<title>Node9</title>
<g id="a_node9"><a xlink:title=" ">
<polygon fill="white" stroke="#bfbfbf" points="1217,-190.5 1217,-209.5 1275,-209.5 1275,-190.5 1217,-190.5"/>
<text text-anchor="middle" x="1246" y="-197.5" font-family="Helvetica,sans-Serif" font-size="10.00">memory</text>
</a>
</g>
</g>
<!-- Node5&#45;&gt;Node9 -->
<g id="edge56" class="edge">
<title>Node5&#45;&gt;Node9</title>
<path fill="none" stroke="midnightblue" d="M639.27,-369.6C728.77,-364.49 901.78,-351.47 1046,-322 1129.75,-304.89 1171.21,-328.06 1230,-266 1241.6,-253.75 1245.19,-234.49 1246.12,-220.11"/>
<polygon fill="midnightblue" stroke="midnightblue" points="1249.63,-219.94 1246.4,-209.85 1242.63,-219.75 1249.63,-219.94"/>
</g>
<!-- Node11 -->
<g id="node11" class="node">
<title>Node11</title>
<g id="a_node11"><a xlink:href="tstring_8h.html" target="_top" xlink:title=" ">
<polygon fill="white" stroke="black" points="820.5,-190.5 820.5,-209.5 927.5,-209.5 927.5,-190.5 820.5,-190.5"/>
<text text-anchor="middle" x="874" y="-197.5" font-family="Helvetica,sans-Serif" font-size="10.00">log4cplus/tstring.h</text>
</a>
</g>
</g>
<!-- Node5&#45;&gt;Node11 -->
<g id="edge45" class="edge">
<title>Node5&#45;&gt;Node11</title>
<path fill="none" stroke="midnightblue" d="M625.81,-363.92C682.54,-351.36 778.08,-322.98 839,-266 852.72,-253.16 862.21,-233.71 867.81,-219.43"/>
<polygon fill="midnightblue" stroke="midnightblue" points="871.21,-220.3 871.34,-209.71 864.63,-217.91 871.21,-220.3"/>
</g>
<!-- Node18 -->
<g id="node18" class="node">
<title>Node18</title>
<g id="a_node18"><a xlink:href="pointer_8h.html" target="_top" xlink:title=" ">
<polygon fill="white" stroke="black" points="436,-190.5 436,-209.5 584,-209.5 584,-190.5 436,-190.5"/>
<text text-anchor="middle" x="510" y="-197.5" font-family="Helvetica,sans-Serif" font-size="10.00">log4cplus/helpers/pointer.h</text>
</a>
</g>
</g>
<!-- Node5&#45;&gt;Node18 -->
<g id="edge46" class="edge">
<title>Node5&#45;&gt;Node18</title>
<path fill="none" stroke="midnightblue" d="M574.51,-363.67C569.5,-353.67 561.27,-336.84 555,-322 539.79,-286.02 524.43,-242.94 516.18,-219.11"/>
<polygon fill="midnightblue" stroke="midnightblue" points="519.47,-217.93 512.91,-209.61 512.85,-220.2 519.47,-217.93"/>
</g>
<!-- Node20 -->
<g id="node20" class="node">
<title>Node20</title>
<g id="a_node20"><a xlink:title=" ">
<polygon fill="white" stroke="#bfbfbf" points="0,-73 0,-92 48,-92 48,-73 0,-73"/>
<text text-anchor="middle" x="24" y="-80" font-family="Helvetica,sans-Serif" font-size="10.00">mutex</text>
</a>
</g>
</g>
<!-- Node5&#45;&gt;Node20 -->
<g id="edge57" class="edge">
<title>Node5&#45;&gt;Node20</title>
<path fill="none" stroke="midnightblue" d="M518.81,-372.56C375.14,-371.08 24,-357.2 24,-257 24,-257 24,-257 24,-199 24,-164.86 24,-125.05 24,-102.21"/>
<polygon fill="midnightblue" stroke="midnightblue" points="27.5,-102.19 24,-92.19 20.5,-102.19 27.5,-102.19"/>
</g>
<!-- Node21 -->
<g id="node21" class="node">
<title>Node21</title>
<g id="a_node21"><a xlink:title=" ">
<polygon fill="white" stroke="#bfbfbf" points="66.5,-73 66.5,-92 173.5,-92 173.5,-73 66.5,-73"/>
<text text-anchor="middle" x="120" y="-80" font-family="Helvetica,sans-Serif" font-size="10.00">condition_variable</text>
</a>
</g>
</g>
<!-- Node5&#45;&gt;Node21 -->
<g id="edge59" class="edge">
<title>Node5&#45;&gt;Node21</title>
<path fill="none" stroke="midnightblue" d="M518.94,-371.63C382.7,-368.03 62,-349.72 62,-257 62,-257 62,-257 62,-199 62,-168.9 67.34,-160.82 81,-134 87.31,-121.61 96.81,-109.22 104.86,-99.82"/>
<polygon fill="midnightblue" stroke="midnightblue" points="107.68,-101.91 111.7,-92.11 102.45,-97.26 107.68,-101.91"/>
</g>
<!-- Node25 -->
<g id="node25" class="node">
<title>Node25</title>
<g id="a_node25"><a xlink:title=" ">
<polygon fill="white" stroke="#bfbfbf" points="90,-134.5 90,-153.5 140,-153.5 140,-134.5 90,-134.5"/>
<text text-anchor="middle" x="115" y="-141.5" font-family="Helvetica,sans-Serif" font-size="10.00">atomic</text>
</a>
</g>
</g>
<!-- Node5&#45;&gt;Node25 -->
<g id="edge58" class="edge">
<title>Node5&#45;&gt;Node25</title>
<path fill="none" stroke="midnightblue" d="M518.93,-369.75C464.14,-365.24 382.18,-353.33 318,-322 234.72,-281.35 158.71,-197.54 128.63,-161.78"/>
<polygon fill="midnightblue" stroke="midnightblue" points="131.08,-159.24 122,-153.77 125.69,-163.71 131.08,-159.24"/>
</g>
<!-- Node31 -->
<g id="node31" class="node">
<title>Node31</title>
<g id="a_node31"><a xlink:href="filter_8h.html" target="_top" xlink:title="This header defines Filter and all of it&#39;s subclasses.">
<polygon fill="white" stroke="black" points="564,-302.5 564,-321.5 678,-321.5 678,-302.5 564,-302.5"/>
<text text-anchor="middle" x="621" y="-309.5" font-family="Helvetica,sans-Serif" font-size="10.00">log4cplus/spi/filter.h</text>
</a>
</g>
</g>
<!-- Node5&#45;&gt;Node31 -->
<g id="edge47" class="edge">
<title>Node5&#45;&gt;Node31</title>
<path fill="none" stroke="midnightblue" d="M585.02,-363.98C591.26,-355.14 601.17,-341.09 609.02,-329.98"/>
<polygon fill="midnightblue" stroke="midnightblue" points="612.09,-331.7 614.99,-321.51 606.37,-327.66 612.09,-331.7"/>
</g>
<!-- Node32 -->
<g id="node32" class="node">
<title>Node32</title>
<g id="a_node32"><a xlink:href="lockfile_8h.html" target="_top" xlink:title=" ">
<polygon fill="white" stroke="black" points="359.5,-246.5 359.5,-265.5 508.5,-265.5 508.5,-246.5 359.5,-246.5"/>
<text text-anchor="middle" x="434" y="-253.5" font-family="Helvetica,sans-Serif" font-size="10.00">log4cplus/helpers/lockfile.h</text>
</a>
</g>
</g>
<!-- Node5&#45;&gt;Node32 -->
<g id="edge52" class="edge">
<title>Node5&#45;&gt;Node32</title>
<path fill="none" stroke="midnightblue" d="M568.1,-363.82C543.54,-344.25 483.61,-296.52 452.87,-272.03"/>
<polygon fill="midnightblue" stroke="midnightblue" points="455.03,-269.27 445.03,-265.78 450.67,-274.75 455.03,-269.27"/>
</g>
<!-- Node6&#45;&gt;Node2 -->
<g id="edge7" class="edge">
<title>Node6&#45;&gt;Node2</title>
<path fill="none" stroke="midnightblue" d="M988.35,-302.2C1003.89,-270.18 1054.55,-160.38 1032,-134 1000.16,-96.76 863.76,-86.81 779.34,-84.26"/>
<polygon fill="midnightblue" stroke="midnightblue" points="779.41,-80.76 769.31,-83.98 779.21,-87.75 779.41,-80.76"/>
</g>
<!-- Node6&#45;&gt;Node7 -->
<g id="edge8" class="edge">
<title>Node6&#45;&gt;Node7</title>
<path fill="none" stroke="midnightblue" d="M950.57,-302.44C914.14,-293.12 855.77,-278.18 815.97,-268"/>
<polygon fill="midnightblue" stroke="midnightblue" points="816.83,-264.61 806.28,-265.52 815.1,-271.39 816.83,-264.61"/>
</g>
<!-- Node8 -->
<g id="node8" class="node">
<title>Node8</title>
<g id="a_node8"><a xlink:title=" ">
<polygon fill="white" stroke="#bfbfbf" points="945.5,-190.5 945.5,-209.5 992.5,-209.5 992.5,-190.5 945.5,-190.5"/>
<text text-anchor="middle" x="969" y="-197.5" font-family="Helvetica,sans-Serif" font-size="10.00">vector</text>
</a>
</g>
</g>
<!-- Node6&#45;&gt;Node8 -->
<g id="edge42" class="edge">
<title>Node6&#45;&gt;Node8</title>
<path fill="none" stroke="midnightblue" d="M982.82,-302.37C980.4,-284.62 974.82,-243.67 971.54,-219.6"/>
<polygon fill="midnightblue" stroke="midnightblue" points="974.99,-219.03 970.17,-209.59 968.05,-219.97 974.99,-219.03"/>
</g>
<!-- Node6&#45;&gt;Node9 -->
<g id="edge43" class="edge">
<title>Node6&#45;&gt;Node9</title>
<path fill="none" stroke="midnightblue" d="M1037.1,-305.15C1093.84,-298.06 1179.24,-284.69 1206,-266 1222.26,-254.65 1233.18,-234.35 1239.45,-219.45"/>
<polygon fill="midnightblue" stroke="midnightblue" points="1242.85,-220.35 1243.2,-209.76 1236.32,-217.82 1242.85,-220.35"/>
</g>
<!-- Node6&#45;&gt;Node11 -->
<g id="edge36" class="edge">
<title>Node6&#45;&gt;Node11</title>
<path fill="none" stroke="midnightblue" d="M975.37,-302.37C956.89,-283.89 913.29,-240.29 889.74,-216.74"/>
<polygon fill="midnightblue" stroke="midnightblue" points="892.14,-214.19 882.59,-209.59 887.19,-219.14 892.14,-214.19"/>
</g>
<!-- Node26 -->
<g id="node26" class="node">
<title>Node26</title>
<g id="a_node26"><a xlink:href="streams_8h.html" target="_top" xlink:title=" ">
<polygon fill="white" stroke="black" points="1293.5,-190.5 1293.5,-209.5 1408.5,-209.5 1408.5,-190.5 1293.5,-190.5"/>
<text text-anchor="middle" x="1351" y="-197.5" font-family="Helvetica,sans-Serif" font-size="10.00">log4cplus/streams.h</text>
</a>
</g>
</g>
<!-- Node6&#45;&gt;Node26 -->
<g id="edge32" class="edge">
<title>Node6&#45;&gt;Node26</title>
<path fill="none" stroke="midnightblue" d="M1037.05,-306.13C1087.72,-300.35 1165.67,-288.54 1230,-266 1266.95,-253.05 1306.28,-229.97 1329.74,-215.09"/>
<polygon fill="midnightblue" stroke="midnightblue" points="1331.69,-217.99 1338.2,-209.63 1327.89,-212.11 1331.69,-217.99"/>
</g>
<!-- Node28 -->
<g id="node28" class="node">
<title>Node28</title>
<g id="a_node28"><a xlink:href="timehelper_8h.html" target="_top" xlink:title=" ">
<polygon fill="white" stroke="black" points="1030.5,-246.5 1030.5,-265.5 1197.5,-265.5 1197.5,-246.5 1030.5,-246.5"/>
<text text-anchor="middle" x="1114" y="-253.5" font-family="Helvetica,sans-Serif" font-size="10.00">log4cplus/helpers/timehelper.h</text>
</a>
</g>
</g>
<!-- Node6&#45;&gt;Node28 -->
<g id="edge37" class="edge">
<title>Node6&#45;&gt;Node28</title>
<path fill="none" stroke="midnightblue" d="M1004.6,-302.44C1025.99,-293.56 1059.68,-279.56 1084.02,-269.45"/>
<polygon fill="midnightblue" stroke="midnightblue" points="1085.61,-272.58 1093.5,-265.52 1082.92,-266.12 1085.61,-272.58"/>
</g>
<!-- Node7&#45;&gt;Node2 -->
<g id="edge9" class="edge">
<title>Node7&#45;&gt;Node2</title>
<path fill="none" stroke="midnightblue" d="M756.59,-246.27C730.9,-231.43 682.68,-198.51 669,-154 666.39,-145.5 665.98,-142.36 669,-134 673.8,-120.73 683.77,-108.49 692.8,-99.38"/>
<polygon fill="midnightblue" stroke="midnightblue" points="695.48,-101.66 700.33,-92.24 690.66,-96.58 695.48,-101.66"/>
</g>
<!-- Node7&#45;&gt;Node8 -->
<g id="edge10" class="edge">
<title>Node7&#45;&gt;Node8</title>
<path fill="none" stroke="midnightblue" d="M804.06,-246.44C839.97,-236.55 898.86,-220.32 935.7,-210.17"/>
<polygon fill="midnightblue" stroke="midnightblue" points="936.76,-213.51 945.47,-207.48 934.9,-206.76 936.76,-213.51"/>
</g>
<!-- Node7&#45;&gt;Node9 -->
<g id="edge11" class="edge">
<title>Node7&#45;&gt;Node9</title>
<path fill="none" stroke="midnightblue" d="M830.32,-251.44C911.87,-245.86 1066.18,-233.37 1206.54,-210.05"/>
<polygon fill="midnightblue" stroke="midnightblue" points="1207.34,-213.47 1216.62,-208.36 1206.18,-206.56 1207.34,-213.47"/>
</g>
<!-- Node10 -->
<g id="node10" class="node">
<title>Node10</title>
<g id="a_node10"><a xlink:title=" ">
<polygon fill="white" stroke="#bfbfbf" points="716,-190.5 716,-209.5 802,-209.5 802,-190.5 716,-190.5"/>
<text text-anchor="middle" x="759" y="-197.5" font-family="Helvetica,sans-Serif" font-size="10.00">shared_mutex</text>
</a>
</g>
</g>
<!-- Node7&#45;&gt;Node10 -->
<g id="edge12" class="edge">
<title>Node7&#45;&gt;Node10</title>
<path fill="none" stroke="midnightblue" d="M770.69,-246.08C768.83,-238.93 766.16,-228.64 763.85,-219.69"/>
<polygon fill="midnightblue" stroke="midnightblue" points="767.17,-218.55 761.27,-209.75 760.39,-220.31 767.17,-218.55"/>
</g>
<!-- Node7&#45;&gt;Node11 -->
<g id="edge13" class="edge">
<title>Node7&#45;&gt;Node11</title>
<path fill="none" stroke="midnightblue" d="M789.23,-246.32C805.35,-237.7 830.3,-224.36 848.96,-214.39"/>
<polygon fill="midnightblue" stroke="midnightblue" points="850.64,-217.46 857.81,-209.65 847.34,-211.28 850.64,-217.46"/>
</g>
<!-- Node7&#45;&gt;Node18 -->
<g id="edge22" class="edge">
<title>Node7&#45;&gt;Node18</title>
<path fill="none" stroke="midnightblue" d="M731.33,-246.44C685.25,-236.98 611,-221.74 561.37,-211.55"/>
<polygon fill="midnightblue" stroke="midnightblue" points="561.98,-208.1 551.48,-209.52 560.57,-214.96 561.98,-208.1"/>
</g>
<!-- Node11&#45;&gt;Node2 -->
<g id="edge14" class="edge">
<title>Node11&#45;&gt;Node2</title>
<path fill="none" stroke="midnightblue" d="M855.5,-190.47C838.2,-182.15 811.96,-168.64 791,-154 766.96,-137.21 742.04,-114.21 726.54,-99.11"/>
<polygon fill="midnightblue" stroke="midnightblue" points="728.92,-96.54 719.34,-92.01 724,-101.52 728.92,-96.54"/>
</g>
<!-- Node12 -->
<g id="node12" class="node">
<title>Node12</title>
<g id="a_node12"><a xlink:title=" ">
<polygon fill="white" stroke="#bfbfbf" points="891.5,-134.5 891.5,-153.5 960.5,-153.5 960.5,-134.5 891.5,-134.5"/>
<text text-anchor="middle" x="926" y="-141.5" font-family="Helvetica,sans-Serif" font-size="10.00">type_traits</text>
</a>
</g>
</g>
<!-- Node11&#45;&gt;Node12 -->
<g id="edge15" class="edge">
<title>Node11&#45;&gt;Node12</title>
<path fill="none" stroke="midnightblue" d="M882.59,-190.08C890.16,-182.22 901.38,-170.57 910.51,-161.08"/>
<polygon fill="midnightblue" stroke="midnightblue" points="913.16,-163.38 917.57,-153.75 908.12,-158.53 913.16,-163.38"/>
</g>
<!-- Node13 -->
<g id="node13" class="node">
<title>Node13</title>
<g id="a_node13"><a xlink:title=" ">
<polygon fill="white" stroke="#bfbfbf" points="678.5,-134.5 678.5,-153.5 743.5,-153.5 743.5,-134.5 678.5,-134.5"/>
<text text-anchor="middle" x="711" y="-141.5" font-family="Helvetica,sans-Serif" font-size="10.00">functional</text>
</a>
</g>
</g>
<!-- Node11&#45;&gt;Node13 -->
<g id="edge16" class="edge">
<title>Node11&#45;&gt;Node13</title>
<path fill="none" stroke="midnightblue" d="M848.17,-190.44C820.75,-181.36 777.22,-166.94 746.57,-156.78"/>
<polygon fill="midnightblue" stroke="midnightblue" points="747.3,-153.34 736.71,-153.52 745.1,-159.98 747.3,-153.34"/>
</g>
<!-- Node14 -->
<g id="node14" class="node">
<title>Node14</title>
<g id="a_node14"><a xlink:title=" ">
<polygon fill="white" stroke="#bfbfbf" points="979,-134.5 979,-153.5 1023,-153.5 1023,-134.5 979,-134.5"/>
<text text-anchor="middle" x="1001" y="-141.5" font-family="Helvetica,sans-Serif" font-size="10.00">string</text>
</a>
</g>
</g>
<!-- Node11&#45;&gt;Node14 -->
<g id="edge17" class="edge">
<title>Node11&#45;&gt;Node14</title>
<path fill="none" stroke="midnightblue" d="M894.12,-190.44C915.02,-181.56 947.93,-167.56 971.72,-157.45"/>
<polygon fill="midnightblue" stroke="midnightblue" points="973.14,-160.65 980.97,-153.52 970.4,-154.21 973.14,-160.65"/>
</g>
<!-- Node15 -->
<g id="node15" class="node">
<title>Node15</title>
<g id="a_node15"><a xlink:title=" ">
<polygon fill="white" stroke="#bfbfbf" points="800.5,-134.5 800.5,-153.5 873.5,-153.5 873.5,-134.5 800.5,-134.5"/>
<text text-anchor="middle" x="837" y="-141.5" font-family="Helvetica,sans-Serif" font-size="10.00">string_view</text>
</a>
</g>
</g>
<!-- Node11&#45;&gt;Node15 -->
<g id="edge18" class="edge">
<title>Node11&#45;&gt;Node15</title>
<path fill="none" stroke="midnightblue" d="M867.89,-190.08C862.72,-182.53 855.15,-171.49 848.81,-162.23"/>
<polygon fill="midnightblue" stroke="midnightblue" points="851.54,-160.02 843,-153.75 845.76,-163.98 851.54,-160.02"/>
</g>
<!-- Node16 -->
<g id="node16" class="node">
<title>Node16</title>
<g id="a_node16"><a xlink:href="tchar_8h.html" target="_top" xlink:title=" ">
<polygon fill="white" stroke="black" points="1117.5,-134.5 1117.5,-153.5 1216.5,-153.5 1216.5,-134.5 1117.5,-134.5"/>
<text text-anchor="middle" x="1167" y="-141.5" font-family="Helvetica,sans-Serif" font-size="10.00">log4cplus/tchar.h</text>
</a>
</g>
</g>
<!-- Node11&#45;&gt;Node16 -->
<g id="edge19" class="edge">
<title>Node11&#45;&gt;Node16</title>
<path fill="none" stroke="midnightblue" d="M920.43,-190.44C972.08,-180.92 1055.51,-165.55 1110.81,-155.36"/>
<polygon fill="midnightblue" stroke="midnightblue" points="1111.59,-158.77 1120.79,-153.52 1110.32,-151.89 1111.59,-158.77"/>
</g>
<!-- Node16&#45;&gt;Node2 -->
<g id="edge20" class="edge">
<title>Node16&#45;&gt;Node2</title>
<path fill="none" stroke="midnightblue" d="M1117.39,-135.97C1112.53,-135.29 1107.67,-134.63 1103,-134 989.6,-118.72 857.6,-101.92 779.35,-92.06"/>
<polygon fill="midnightblue" stroke="midnightblue" points="779.5,-88.55 769.14,-90.78 778.63,-95.5 779.5,-88.55"/>
</g>
<!-- Node17 -->
<g id="node17" class="node">
<title>Node17</title>
<g id="a_node17"><a xlink:title=" ">
<polygon fill="white" stroke="#bfbfbf" points="1140.5,-73 1140.5,-92 1193.5,-92 1193.5,-73 1140.5,-73"/>
<text text-anchor="middle" x="1167" y="-80" font-family="Helvetica,sans-Serif" font-size="10.00">cstddef</text>
</a>
</g>
</g>
<!-- Node16&#45;&gt;Node17 -->
<g id="edge21" class="edge">
<title>Node16&#45;&gt;Node17</title>
<path fill="none" stroke="midnightblue" d="M1167,-134.48C1167,-126.08 1167,-112.98 1167,-102.16"/>
<polygon fill="midnightblue" stroke="midnightblue" points="1170.5,-102.01 1167,-92.01 1163.5,-102.01 1170.5,-102.01"/>
</g>
<!-- Node18&#45;&gt;Node2 -->
<g id="edge23" class="edge">
<title>Node18&#45;&gt;Node2</title>
<path fill="none" stroke="midnightblue" d="M520.06,-190.43C535.91,-177.21 567.98,-151.52 598,-134 623.98,-118.84 655.34,-105.16 678.43,-95.87"/>
<polygon fill="midnightblue" stroke="midnightblue" points="679.77,-99.1 687.77,-92.17 677.19,-92.6 679.77,-99.1"/>
</g>
<!-- Node19 -->
<g id="node19" class="node">
<title>Node19</title>
<g id="a_node19"><a xlink:href="syncprims_8h.html" target="_top" xlink:title=" ">
<polygon fill="white" stroke="black" points="158,-134.5 158,-153.5 318,-153.5 318,-134.5 158,-134.5"/>
<text text-anchor="middle" x="238" y="-141.5" font-family="Helvetica,sans-Serif" font-size="10.00">log4cplus/thread/syncprims.h</text>
</a>
</g>
</g>
<!-- Node18&#45;&gt;Node19 -->
<g id="edge24" class="edge">
<title>Node18&#45;&gt;Node19</title>
<path fill="none" stroke="midnightblue" d="M466.9,-190.44C419.15,-180.96 342.14,-165.67 290.81,-155.48"/>
<polygon fill="midnightblue" stroke="midnightblue" points="291.39,-152.03 280.9,-153.52 290.02,-158.9 291.39,-152.03"/>
</g>
<!-- Node23 -->
<g id="node23" class="node">
<title>Node23</title>
<g id="a_node23"><a xlink:title=" ">
<polygon fill="white" stroke="#bfbfbf" points="482,-134.5 482,-153.5 546,-153.5 546,-134.5 482,-134.5"/>
<text text-anchor="middle" x="514" y="-141.5" font-family="Helvetica,sans-Serif" font-size="10.00">algorithm</text>
</a>
</g>
</g>
<!-- Node18&#45;&gt;Node23 -->
<g id="edge29" class="edge">
<title>Node18&#45;&gt;Node23</title>
<path fill="none" stroke="midnightblue" d="M510.66,-190.08C511.18,-183.01 511.94,-172.86 512.59,-163.99"/>
<polygon fill="midnightblue" stroke="midnightblue" points="516.1,-163.98 513.35,-153.75 509.12,-163.47 516.1,-163.98"/>
</g>
<!-- Node24 -->
<g id="node24" class="node">
<title>Node24</title>
<g id="a_node24"><a xlink:title=" ">
<polygon fill="white" stroke="#bfbfbf" points="412,-134.5 412,-153.5 464,-153.5 464,-134.5 412,-134.5"/>
<text text-anchor="middle" x="438" y="-141.5" font-family="Helvetica,sans-Serif" font-size="10.00">cassert</text>
</a>
</g>
</g>
<!-- Node18&#45;&gt;Node24 -->
<g id="edge30" class="edge">
<title>Node18&#45;&gt;Node24</title>
<path fill="none" stroke="midnightblue" d="M498.43,-190.32C487.58,-182.18 471.12,-169.84 458.12,-160.09"/>
<polygon fill="midnightblue" stroke="midnightblue" points="459.88,-157.03 449.78,-153.83 455.68,-162.63 459.88,-157.03"/>
</g>
<!-- Node18&#45;&gt;Node25 -->
<g id="edge31" class="edge">
<title>Node18&#45;&gt;Node25</title>
<path fill="none" stroke="midnightblue" d="M435.91,-192.71C364.9,-186.01 254.59,-173.86 150.24,-154.01"/>
<polygon fill="midnightblue" stroke="midnightblue" points="150.65,-150.52 140.16,-152.07 149.32,-157.4 150.65,-150.52"/>
</g>
<!-- Node19&#45;&gt;Node2 -->
<g id="edge25" class="edge">
<title>Node19&#45;&gt;Node2</title>
<path fill="none" stroke="midnightblue" d="M305.77,-134.48C395.42,-123.2 552.58,-103.43 642.57,-92.11"/>
<polygon fill="midnightblue" stroke="midnightblue" points="643.18,-95.56 652.67,-90.84 642.31,-88.61 643.18,-95.56"/>
</g>
<!-- Node19&#45;&gt;Node20 -->
<g id="edge26" class="edge">
<title>Node19&#45;&gt;Node20</title>
<path fill="none" stroke="midnightblue" d="M194.98,-134.47C157.93,-126.61 103.27,-113.79 57,-98 55.13,-97.36 53.23,-96.66 51.32,-95.93"/>
<polygon fill="midnightblue" stroke="midnightblue" points="52.51,-92.63 41.94,-92.04 49.84,-99.1 52.51,-92.63"/>
</g>
<!-- Node19&#45;&gt;Node21 -->
<g id="edge27" class="edge">
<title>Node19&#45;&gt;Node21</title>
<path fill="none" stroke="midnightblue" d="M221.09,-134.48C201.47,-124.58 168.87,-108.14 146.01,-96.62"/>
<polygon fill="midnightblue" stroke="midnightblue" points="147.38,-93.39 136.88,-92.01 144.23,-99.64 147.38,-93.39"/>
</g>
<!-- Node22 -->
<g id="node22" class="node">
<title>Node22</title>
<g id="a_node22"><a xlink:href="threadsafetyanalysis_8h.html" target="_top" xlink:title=" ">
<polygon fill="white" stroke="black" points="191.5,-67.5 191.5,-97.5 322.5,-97.5 322.5,-67.5 191.5,-67.5"/>
<text text-anchor="start" x="199.5" y="-85.5" font-family="Helvetica,sans-Serif" font-size="10.00">log4cplus/internal</text>
<text text-anchor="middle" x="257" y="-74.5" font-family="Helvetica,sans-Serif" font-size="10.00">/threadsafetyanalysis.h</text>
</a>
</g>
</g>
<!-- Node19&#45;&gt;Node22 -->
<g id="edge28" class="edge">
<title>Node19&#45;&gt;Node22</title>
<path fill="none" stroke="midnightblue" d="M240.72,-134.48C243.01,-127.32 246.38,-116.75 249.47,-107.08"/>
<polygon fill="midnightblue" stroke="midnightblue" points="252.81,-108.11 252.52,-97.52 246.15,-105.98 252.81,-108.11"/>
</g>
<!-- Node26&#45;&gt;Node2 -->
<g id="edge33" class="edge">
<title>Node26&#45;&gt;Node2</title>
<path fill="none" stroke="midnightblue" d="M1338.45,-190.45C1316.53,-176.02 1269.38,-147.1 1225,-134 1143.22,-109.85 899.21,-93.71 779.2,-87.01"/>
<polygon fill="midnightblue" stroke="midnightblue" points="779.2,-83.5 769.02,-86.45 778.82,-90.49 779.2,-83.5"/>
</g>
<!-- Node26&#45;&gt;Node16 -->
<g id="edge34" class="edge">
<title>Node26&#45;&gt;Node16</title>
<path fill="none" stroke="midnightblue" d="M1321.84,-190.44C1290.49,-181.24 1240.47,-166.56 1205.8,-156.39"/>
<polygon fill="midnightblue" stroke="midnightblue" points="1206.6,-152.97 1196.02,-153.52 1204.63,-159.69 1206.6,-152.97"/>
</g>
<!-- Node27 -->
<g id="node27" class="node">
<title>Node27</title>
<g id="a_node27"><a xlink:title=" ">
<polygon fill="white" stroke="#bfbfbf" points="1327,-134.5 1327,-153.5 1375,-153.5 1375,-134.5 1327,-134.5"/>
<text text-anchor="middle" x="1351" y="-141.5" font-family="Helvetica,sans-Serif" font-size="10.00">iosfwd</text>
</a>
</g>
</g>
<!-- Node26&#45;&gt;Node27 -->
<g id="edge35" class="edge">
<title>Node26&#45;&gt;Node27</title>
<path fill="none" stroke="midnightblue" d="M1351,-190.08C1351,-183.01 1351,-172.86 1351,-163.99"/>
<polygon fill="midnightblue" stroke="midnightblue" points="1354.5,-163.75 1351,-153.75 1347.5,-163.75 1354.5,-163.75"/>
</g>
<!-- Node28&#45;&gt;Node2 -->
<g id="edge38" class="edge">
<title>Node28&#45;&gt;Node2</title>
<path fill="none" stroke="midnightblue" d="M1104.74,-246.28C1096.36,-237.83 1084.39,-224.24 1078,-210 1063.96,-178.74 1089.56,-157.89 1065,-134 1025.52,-95.6 870.75,-86.17 779.44,-84"/>
<polygon fill="midnightblue" stroke="midnightblue" points="779.25,-80.5 769.17,-83.78 779.1,-87.49 779.25,-80.5"/>
</g>
<!-- Node28&#45;&gt;Node11 -->
<g id="edge39" class="edge">
<title>Node28&#45;&gt;Node11</title>
<path fill="none" stroke="midnightblue" d="M1075.97,-246.44C1034.19,-237.04 967.02,-221.93 921.73,-211.74"/>
<polygon fill="midnightblue" stroke="midnightblue" points="922.38,-208.3 911.85,-209.52 920.84,-215.13 922.38,-208.3"/>
</g>
<!-- Node29 -->
<g id="node29" class="node">
<title>Node29</title>
<g id="a_node29"><a xlink:title=" ">
<polygon fill="white" stroke="#bfbfbf" points="1087,-190.5 1087,-209.5 1131,-209.5 1131,-190.5 1087,-190.5"/>
<text text-anchor="middle" x="1109" y="-197.5" font-family="Helvetica,sans-Serif" font-size="10.00">ctime</text>
</a>
</g>
</g>
<!-- Node28&#45;&gt;Node29 -->
<g id="edge40" class="edge">
<title>Node28&#45;&gt;Node29</title>
<path fill="none" stroke="midnightblue" d="M1113.17,-246.08C1112.52,-239.01 1111.58,-228.86 1110.76,-219.99"/>
<polygon fill="midnightblue" stroke="midnightblue" points="1114.22,-219.39 1109.81,-209.75 1107.25,-220.03 1114.22,-219.39"/>
</g>
<!-- Node30 -->
<g id="node30" class="node">
<title>Node30</title>
<g id="a_node30"><a xlink:title=" ">
<polygon fill="white" stroke="#bfbfbf" points="1149,-190.5 1149,-209.5 1199,-209.5 1199,-190.5 1149,-190.5"/>
<text text-anchor="middle" x="1174" y="-197.5" font-family="Helvetica,sans-Serif" font-size="10.00">chrono</text>
</a>
</g>
</g>
<!-- Node28&#45;&gt;Node30 -->
<g id="edge41" class="edge">
<title>Node28&#45;&gt;Node30</title>
<path fill="none" stroke="midnightblue" d="M1123.64,-246.32C1132.51,-238.34 1145.87,-226.31 1156.61,-216.65"/>
<polygon fill="midnightblue" stroke="midnightblue" points="1159.09,-219.13 1164.18,-209.83 1154.41,-213.92 1159.09,-219.13"/>
</g>
<!-- Node31&#45;&gt;Node2 -->
<g id="edge48" class="edge">
<title>Node31&#45;&gt;Node2</title>
<path fill="none" stroke="midnightblue" d="M621.47,-302.33C623.23,-275.62 631.11,-192.87 663,-134 670.27,-120.57 682.05,-108.11 692.11,-98.92"/>
<polygon fill="midnightblue" stroke="midnightblue" points="694.47,-101.51 699.7,-92.3 689.87,-96.24 694.47,-101.51"/>
</g>
<!-- Node31&#45;&gt;Node7 -->
<g id="edge51" class="edge">
<title>Node31&#45;&gt;Node7</title>
<path fill="none" stroke="midnightblue" d="M645.08,-302.44C670.54,-293.4 710.89,-279.06 739.46,-268.92"/>
<polygon fill="midnightblue" stroke="midnightblue" points="740.78,-272.16 749.03,-265.52 738.43,-265.57 740.78,-272.16"/>
</g>
<!-- Node31&#45;&gt;Node13 -->
<g id="edge49" class="edge">
<title>Node31&#45;&gt;Node13</title>
<path fill="none" stroke="midnightblue" d="M625.84,-302.08C640.13,-275.72 682.33,-197.88 701.42,-162.66"/>
<polygon fill="midnightblue" stroke="midnightblue" points="704.67,-164.03 706.35,-153.57 698.51,-160.69 704.67,-164.03"/>
</g>
<!-- Node31&#45;&gt;Node18 -->
<g id="edge50" class="edge">
<title>Node31&#45;&gt;Node18</title>
<path fill="none" stroke="midnightblue" d="M612.29,-302.37C593.65,-283.89 549.65,-240.29 525.89,-216.74"/>
<polygon fill="midnightblue" stroke="midnightblue" points="528.24,-214.14 518.67,-209.59 523.31,-219.12 528.24,-214.14"/>
</g>
<!-- Node32&#45;&gt;Node2 -->
<g id="edge53" class="edge">
<title>Node32&#45;&gt;Node2</title>
<path fill="none" stroke="midnightblue" d="M427.14,-246.22C411.05,-224.53 374.36,-167.72 403,-134 433.11,-98.55 561.32,-87.94 642.54,-84.79"/>
<polygon fill="midnightblue" stroke="midnightblue" points="642.82,-88.28 652.69,-84.43 642.57,-81.29 642.82,-88.28"/>
</g>
<!-- Node32&#45;&gt;Node11 -->
<g id="edge54" class="edge">
<title>Node32&#45;&gt;Node11</title>
<path fill="none" stroke="midnightblue" d="M508.81,-246.59C582.7,-238.16 699.19,-224.56 810.35,-210.06"/>
<polygon fill="midnightblue" stroke="midnightblue" points="810.93,-213.51 820.4,-208.74 810.03,-206.57 810.93,-213.51"/>
</g>
<!-- Node32&#45;&gt;Node19 -->
<g id="edge55" class="edge">
<title>Node32&#45;&gt;Node19</title>
<path fill="none" stroke="midnightblue" d="M418.62,-246.37C384.63,-227.29 302.9,-181.42 262.06,-158.51"/>
<polygon fill="midnightblue" stroke="midnightblue" points="263.74,-155.43 253.31,-153.59 260.32,-161.54 263.74,-155.43"/>
</g>
<!-- Node34 -->
<g id="node34" class="node">
<title>Node34</title>
<g id="a_node34"><a xlink:title=" ">
<polygon fill="white" stroke="#bfbfbf" points="1465.5,-302.5 1465.5,-321.5 1536.5,-321.5 1536.5,-302.5 1465.5,-302.5"/>
<text text-anchor="middle" x="1501" y="-309.5" font-family="Helvetica,sans-Serif" font-size="10.00">winsock2.h</text>
</a>
</g>
</g>
<!-- Node33&#45;&gt;Node34 -->
<g id="edge61" class="edge">
<title>Node33&#45;&gt;Node34</title>
<path fill="none" stroke="midnightblue" d="M1549.07,-358.4C1539.63,-349.49 1527.42,-337.95 1517.67,-328.74"/>
<polygon fill="midnightblue" stroke="midnightblue" points="1519.84,-325.98 1510.17,-321.66 1515.03,-331.07 1519.84,-325.98"/>
</g>
<!-- Node35 -->
<g id="node35" class="node">
<title>Node35</title>
<g id="a_node35"><a xlink:title=" ">
<polygon fill="white" stroke="#bfbfbf" points="1554.5,-302.5 1554.5,-321.5 1623.5,-321.5 1623.5,-302.5 1554.5,-302.5"/>
<text text-anchor="middle" x="1589" y="-309.5" font-family="Helvetica,sans-Serif" font-size="10.00">ws2tcpip.h</text>
</a>
</g>
</g>
<!-- Node33&#45;&gt;Node35 -->
<g id="edge62" class="edge">
<title>Node33&#45;&gt;Node35</title>
<path fill="none" stroke="midnightblue" d="M1569.92,-358.4C1573.37,-350.2 1577.75,-339.78 1581.44,-330.99"/>
<polygon fill="midnightblue" stroke="midnightblue" points="1584.72,-332.23 1585.36,-321.66 1578.26,-329.52 1584.72,-332.23"/>
</g>
<!-- Node36 -->
<g id="node36" class="node">
<title>Node36</title>
<g id="a_node36"><a xlink:title=" ">
<polygon fill="white" stroke="#bfbfbf" points="1642,-302.5 1642,-321.5 1710,-321.5 1710,-302.5 1642,-302.5"/>
<text text-anchor="middle" x="1676" y="-309.5" font-family="Helvetica,sans-Serif" font-size="10.00">windows.h</text>
</a>
</g>
</g>
<!-- Node33&#45;&gt;Node36 -->
<g id="edge63" class="edge">
<title>Node33&#45;&gt;Node36</title>
<path fill="none" stroke="midnightblue" d="M1590.54,-358.4C1608.66,-348.77 1632.54,-336.09 1650.44,-326.58"/>
<polygon fill="midnightblue" stroke="midnightblue" points="1652.51,-329.44 1659.7,-321.66 1649.23,-323.26 1652.51,-329.44"/>
</g>
</g>
</svg>
