<?xml version="1.0" encoding="UTF-8" standalone="no"?>
<!DOCTYPE svg PUBLIC "-//W3C//DTD SVG 1.1//EN"
 "http://www.w3.org/Graphics/SVG/1.1/DTD/svg11.dtd">
<!-- Generated by graphviz version 2.43.0 (0)
 -->
<!-- Title: objectregistry.h Pages: 1 -->
<svg width="836pt" height="274pt"
 viewBox="0.00 0.00 836.00 274.00" xmlns="http://www.w3.org/2000/svg" xmlns:xlink="http://www.w3.org/1999/xlink">
<g id="graph0" class="graph" transform="scale(1 1) rotate(0) translate(4 270)">
<title>objectregistry.h</title>
<polygon fill="white" stroke="transparent" points="-4,4 -4,-270 832,-270 832,4 -4,4"/>
<!-- Node1 -->
<g id="node1" class="node">
<title>Node1</title>
<g id="a_node1"><a xlink:title=" ">
<polygon fill="#bfbfbf" stroke="black" points="515.5,-246.5 515.5,-265.5 607.5,-265.5 607.5,-246.5 515.5,-246.5"/>
<text text-anchor="middle" x="561.5" y="-253.5" font-family="Helvetica,sans-Serif" font-size="10.00">objectregistry.h</text>
</a>
</g>
</g>
<!-- Node2 -->
<g id="node2" class="node">
<title>Node2</title>
<g id="a_node2"><a xlink:href="config_8hxx.html" target="_top" xlink:title=" ">
<polygon fill="white" stroke="black" points="89.5,-67.5 89.5,-86.5 205.5,-86.5 205.5,-67.5 89.5,-67.5"/>
<text text-anchor="middle" x="147.5" y="-74.5" font-family="Helvetica,sans-Serif" font-size="10.00">log4cplus/config.hxx</text>
</a>
</g>
</g>
<!-- Node1&#45;&gt;Node2 -->
<g id="edge1" class="edge">
<title>Node1&#45;&gt;Node2</title>
<path fill="none" stroke="midnightblue" d="M515.23,-254.37C392.82,-251.57 65.76,-236.38 6.5,-154 -18.04,-119.89 35.5,-99.57 83.5,-88.65"/>
<polygon fill="midnightblue" stroke="midnightblue" points="84.29,-92.06 93.32,-86.52 82.8,-85.22 84.29,-92.06"/>
</g>
<!-- Node5 -->
<g id="node5" class="node">
<title>Node5</title>
<g id="a_node5"><a xlink:href="tstring_8h.html" target="_top" xlink:title=" ">
<polygon fill="white" stroke="black" points="183,-190.5 183,-209.5 290,-209.5 290,-190.5 183,-190.5"/>
<text text-anchor="middle" x="236.5" y="-197.5" font-family="Helvetica,sans-Serif" font-size="10.00">log4cplus/tstring.h</text>
</a>
</g>
</g>
<!-- Node1&#45;&gt;Node5 -->
<g id="edge4" class="edge">
<title>Node1&#45;&gt;Node5</title>
<path fill="none" stroke="midnightblue" d="M515.28,-247.32C458.34,-237.86 361.4,-221.75 298.15,-211.24"/>
<polygon fill="midnightblue" stroke="midnightblue" points="298.36,-207.73 287.92,-209.54 297.21,-214.64 298.36,-207.73"/>
</g>
<!-- Node12 -->
<g id="node12" class="node">
<title>Node12</title>
<g id="a_node12"><a xlink:href="syncprims_8h.html" target="_top" xlink:title=" ">
<polygon fill="white" stroke="black" points="423.5,-190.5 423.5,-209.5 583.5,-209.5 583.5,-190.5 423.5,-190.5"/>
<text text-anchor="middle" x="503.5" y="-197.5" font-family="Helvetica,sans-Serif" font-size="10.00">log4cplus/thread/syncprims.h</text>
</a>
</g>
</g>
<!-- Node1&#45;&gt;Node12 -->
<g id="edge13" class="edge">
<title>Node1&#45;&gt;Node12</title>
<path fill="none" stroke="midnightblue" d="M552.18,-246.32C543.6,-238.34 530.68,-226.31 520.31,-216.65"/>
<polygon fill="midnightblue" stroke="midnightblue" points="522.69,-214.09 512.98,-209.83 517.92,-219.21 522.69,-214.09"/>
</g>
<!-- Node16 -->
<g id="node16" class="node">
<title>Node16</title>
<g id="a_node16"><a xlink:title=" ">
<polygon fill="white" stroke="#bfbfbf" points="601.5,-190.5 601.5,-209.5 639.5,-209.5 639.5,-190.5 601.5,-190.5"/>
<text text-anchor="middle" x="620.5" y="-197.5" font-family="Helvetica,sans-Serif" font-size="10.00">map</text>
</a>
</g>
</g>
<!-- Node1&#45;&gt;Node16 -->
<g id="edge18" class="edge">
<title>Node1&#45;&gt;Node16</title>
<path fill="none" stroke="midnightblue" d="M570.97,-246.32C579.7,-238.34 592.84,-226.31 603.39,-216.65"/>
<polygon fill="midnightblue" stroke="midnightblue" points="605.83,-219.17 610.84,-209.83 601.1,-214 605.83,-219.17"/>
</g>
<!-- Node17 -->
<g id="node17" class="node">
<title>Node17</title>
<g id="a_node17"><a xlink:title=" ">
<polygon fill="white" stroke="#bfbfbf" points="657.5,-190.5 657.5,-209.5 715.5,-209.5 715.5,-190.5 657.5,-190.5"/>
<text text-anchor="middle" x="686.5" y="-197.5" font-family="Helvetica,sans-Serif" font-size="10.00">memory</text>
</a>
</g>
</g>
<!-- Node1&#45;&gt;Node17 -->
<g id="edge19" class="edge">
<title>Node1&#45;&gt;Node17</title>
<path fill="none" stroke="midnightblue" d="M581.3,-246.44C601.78,-237.6 633.98,-223.69 657.36,-213.59"/>
<polygon fill="midnightblue" stroke="midnightblue" points="658.99,-216.7 666.78,-209.52 656.21,-210.27 658.99,-216.7"/>
</g>
<!-- Node18 -->
<g id="node18" class="node">
<title>Node18</title>
<g id="a_node18"><a xlink:title=" ">
<polygon fill="white" stroke="#bfbfbf" points="734,-190.5 734,-209.5 781,-209.5 781,-190.5 734,-190.5"/>
<text text-anchor="middle" x="757.5" y="-197.5" font-family="Helvetica,sans-Serif" font-size="10.00">vector</text>
</a>
</g>
</g>
<!-- Node1&#45;&gt;Node18 -->
<g id="edge20" class="edge">
<title>Node1&#45;&gt;Node18</title>
<path fill="none" stroke="midnightblue" d="M592.55,-246.44C628.47,-236.55 687.36,-220.32 724.2,-210.17"/>
<polygon fill="midnightblue" stroke="midnightblue" points="725.25,-213.51 733.97,-207.48 723.4,-206.76 725.25,-213.51"/>
</g>
<!-- Node3 -->
<g id="node3" class="node">
<title>Node3</title>
<g id="a_node3"><a xlink:href="win32_8h.html" target="_top" xlink:title=" ">
<polygon fill="white" stroke="black" points="2,-6 2,-25 139,-25 139,-6 2,-6"/>
<text text-anchor="middle" x="70.5" y="-13" font-family="Helvetica,sans-Serif" font-size="10.00">log4cplus/config/win32.h</text>
</a>
</g>
</g>
<!-- Node2&#45;&gt;Node3 -->
<g id="edge2" class="edge">
<title>Node2&#45;&gt;Node3</title>
<path fill="none" stroke="midnightblue" d="M136.46,-67.48C124.23,-58.02 104.27,-42.6 89.5,-31.19"/>
<polygon fill="midnightblue" stroke="midnightblue" points="91.56,-28.35 81.51,-25.01 87.28,-33.89 91.56,-28.35"/>
</g>
<!-- Node4 -->
<g id="node4" class="node">
<title>Node4</title>
<g id="a_node4"><a xlink:href="thread-config_8h.html" target="_top" xlink:title=" ">
<polygon fill="white" stroke="black" points="157,-0.5 157,-30.5 294,-30.5 294,-0.5 157,-0.5"/>
<text text-anchor="start" x="165" y="-18.5" font-family="Helvetica,sans-Serif" font-size="10.00">log4cplus/helpers/thread</text>
<text text-anchor="middle" x="225.5" y="-7.5" font-family="Helvetica,sans-Serif" font-size="10.00">&#45;config.h</text>
</a>
</g>
</g>
<!-- Node2&#45;&gt;Node4 -->
<g id="edge3" class="edge">
<title>Node2&#45;&gt;Node4</title>
<path fill="none" stroke="midnightblue" d="M158.67,-67.48C169.14,-59.49 185.18,-47.25 198.92,-36.77"/>
<polygon fill="midnightblue" stroke="midnightblue" points="201.28,-39.37 207.11,-30.52 197.04,-33.81 201.28,-39.37"/>
</g>
<!-- Node5&#45;&gt;Node2 -->
<g id="edge5" class="edge">
<title>Node5&#45;&gt;Node2</title>
<path fill="none" stroke="midnightblue" d="M182.94,-195.63C124.69,-190.72 37.11,-179.26 16.5,-154 -9.66,-121.96 45.8,-100.6 92.44,-88.89"/>
<polygon fill="midnightblue" stroke="midnightblue" points="93.32,-92.28 102.23,-86.54 91.69,-85.47 93.32,-92.28"/>
</g>
<!-- Node6 -->
<g id="node6" class="node">
<title>Node6</title>
<g id="a_node6"><a xlink:title=" ">
<polygon fill="white" stroke="#bfbfbf" points="117,-129 117,-148 186,-148 186,-129 117,-129"/>
<text text-anchor="middle" x="151.5" y="-136" font-family="Helvetica,sans-Serif" font-size="10.00">type_traits</text>
</a>
</g>
</g>
<!-- Node5&#45;&gt;Node6 -->
<g id="edge6" class="edge">
<title>Node5&#45;&gt;Node6</title>
<path fill="none" stroke="midnightblue" d="M224.32,-190.48C210.68,-180.93 188.36,-165.31 172.02,-153.87"/>
<polygon fill="midnightblue" stroke="midnightblue" points="173.85,-150.88 163.65,-148.01 169.84,-156.61 173.85,-150.88"/>
</g>
<!-- Node7 -->
<g id="node7" class="node">
<title>Node7</title>
<g id="a_node7"><a xlink:title=" ">
<polygon fill="white" stroke="#bfbfbf" points="204,-129 204,-148 269,-148 269,-129 204,-129"/>
<text text-anchor="middle" x="236.5" y="-136" font-family="Helvetica,sans-Serif" font-size="10.00">functional</text>
</a>
</g>
</g>
<!-- Node5&#45;&gt;Node7 -->
<g id="edge7" class="edge">
<title>Node5&#45;&gt;Node7</title>
<path fill="none" stroke="midnightblue" d="M236.5,-190.48C236.5,-182.08 236.5,-168.98 236.5,-158.16"/>
<polygon fill="midnightblue" stroke="midnightblue" points="240,-158.01 236.5,-148.01 233,-158.01 240,-158.01"/>
</g>
<!-- Node8 -->
<g id="node8" class="node">
<title>Node8</title>
<g id="a_node8"><a xlink:title=" ">
<polygon fill="white" stroke="#bfbfbf" points="287.5,-129 287.5,-148 331.5,-148 331.5,-129 287.5,-129"/>
<text text-anchor="middle" x="309.5" y="-136" font-family="Helvetica,sans-Serif" font-size="10.00">string</text>
</a>
</g>
</g>
<!-- Node5&#45;&gt;Node8 -->
<g id="edge8" class="edge">
<title>Node5&#45;&gt;Node8</title>
<path fill="none" stroke="midnightblue" d="M246.95,-190.48C258.45,-181.11 277.12,-165.88 291.08,-154.51"/>
<polygon fill="midnightblue" stroke="midnightblue" points="293.52,-157.04 299.06,-148.01 289.09,-151.61 293.52,-157.04"/>
</g>
<!-- Node9 -->
<g id="node9" class="node">
<title>Node9</title>
<g id="a_node9"><a xlink:title=" ">
<polygon fill="white" stroke="#bfbfbf" points="26,-129 26,-148 99,-148 99,-129 26,-129"/>
<text text-anchor="middle" x="62.5" y="-136" font-family="Helvetica,sans-Serif" font-size="10.00">string_view</text>
</a>
</g>
</g>
<!-- Node5&#45;&gt;Node9 -->
<g id="edge9" class="edge">
<title>Node5&#45;&gt;Node9</title>
<path fill="none" stroke="midnightblue" d="M211.57,-190.48C181.46,-180.18 130.66,-162.81 96.86,-151.25"/>
<polygon fill="midnightblue" stroke="midnightblue" points="97.97,-147.93 87.38,-148.01 95.71,-154.56 97.97,-147.93"/>
</g>
<!-- Node10 -->
<g id="node10" class="node">
<title>Node10</title>
<g id="a_node10"><a xlink:href="tchar_8h.html" target="_top" xlink:title=" ">
<polygon fill="white" stroke="black" points="350,-129 350,-148 449,-148 449,-129 350,-129"/>
<text text-anchor="middle" x="399.5" y="-136" font-family="Helvetica,sans-Serif" font-size="10.00">log4cplus/tchar.h</text>
</a>
</g>
</g>
<!-- Node5&#45;&gt;Node10 -->
<g id="edge10" class="edge">
<title>Node5&#45;&gt;Node10</title>
<path fill="none" stroke="midnightblue" d="M259.85,-190.48C287.81,-180.27 334.82,-163.11 366.49,-151.55"/>
<polygon fill="midnightblue" stroke="midnightblue" points="367.99,-154.73 376.18,-148.01 365.59,-148.15 367.99,-154.73"/>
</g>
<!-- Node10&#45;&gt;Node2 -->
<g id="edge11" class="edge">
<title>Node10&#45;&gt;Node2</title>
<path fill="none" stroke="midnightblue" d="M365.19,-129C357.1,-127.01 348.5,-124.92 340.5,-123 290.89,-111.12 234.01,-97.91 194.92,-88.89"/>
<polygon fill="midnightblue" stroke="midnightblue" points="195.42,-85.41 184.89,-86.58 193.84,-92.24 195.42,-85.41"/>
</g>
<!-- Node11 -->
<g id="node11" class="node">
<title>Node11</title>
<g id="a_node11"><a xlink:title=" ">
<polygon fill="white" stroke="#bfbfbf" points="373,-67.5 373,-86.5 426,-86.5 426,-67.5 373,-67.5"/>
<text text-anchor="middle" x="399.5" y="-74.5" font-family="Helvetica,sans-Serif" font-size="10.00">cstddef</text>
</a>
</g>
</g>
<!-- Node10&#45;&gt;Node11 -->
<g id="edge12" class="edge">
<title>Node10&#45;&gt;Node11</title>
<path fill="none" stroke="midnightblue" d="M399.5,-128.98C399.5,-120.58 399.5,-107.48 399.5,-96.66"/>
<polygon fill="midnightblue" stroke="midnightblue" points="403,-96.51 399.5,-86.51 396,-96.51 403,-96.51"/>
</g>
<!-- Node12&#45;&gt;Node2 -->
<g id="edge14" class="edge">
<title>Node12&#45;&gt;Node2</title>
<path fill="none" stroke="midnightblue" d="M500.94,-190.19C495.71,-173.93 482.18,-139.36 457.5,-123 418.99,-97.48 295.09,-86.01 216.08,-81.19"/>
<polygon fill="midnightblue" stroke="midnightblue" points="215.91,-77.67 205.72,-80.58 215.49,-84.66 215.91,-77.67"/>
</g>
<!-- Node13 -->
<g id="node13" class="node">
<title>Node13</title>
<g id="a_node13"><a xlink:title=" ">
<polygon fill="white" stroke="#bfbfbf" points="505.5,-129 505.5,-148 553.5,-148 553.5,-129 505.5,-129"/>
<text text-anchor="middle" x="529.5" y="-136" font-family="Helvetica,sans-Serif" font-size="10.00">mutex</text>
</a>
</g>
</g>
<!-- Node12&#45;&gt;Node13 -->
<g id="edge15" class="edge">
<title>Node12&#45;&gt;Node13</title>
<path fill="none" stroke="midnightblue" d="M507.22,-190.48C510.97,-181.9 516.85,-168.43 521.64,-157.48"/>
<polygon fill="midnightblue" stroke="midnightblue" points="524.98,-158.57 525.78,-148.01 518.57,-155.77 524.98,-158.57"/>
</g>
<!-- Node14 -->
<g id="node14" class="node">
<title>Node14</title>
<g id="a_node14"><a xlink:title=" ">
<polygon fill="white" stroke="#bfbfbf" points="572,-129 572,-148 679,-148 679,-129 572,-129"/>
<text text-anchor="middle" x="625.5" y="-136" font-family="Helvetica,sans-Serif" font-size="10.00">condition_variable</text>
</a>
</g>
</g>
<!-- Node12&#45;&gt;Node14 -->
<g id="edge16" class="edge">
<title>Node12&#45;&gt;Node14</title>
<path fill="none" stroke="midnightblue" d="M520.97,-190.48C541.36,-180.53 575.27,-163.99 598.92,-152.46"/>
<polygon fill="midnightblue" stroke="midnightblue" points="600.59,-155.54 608.05,-148.01 597.53,-149.25 600.59,-155.54"/>
</g>
<!-- Node15 -->
<g id="node15" class="node">
<title>Node15</title>
<g id="a_node15"><a xlink:href="threadsafetyanalysis_8h.html" target="_top" xlink:title=" ">
<polygon fill="white" stroke="black" points="697,-123.5 697,-153.5 828,-153.5 828,-123.5 697,-123.5"/>
<text text-anchor="start" x="705" y="-141.5" font-family="Helvetica,sans-Serif" font-size="10.00">log4cplus/internal</text>
<text text-anchor="middle" x="762.5" y="-130.5" font-family="Helvetica,sans-Serif" font-size="10.00">/threadsafetyanalysis.h</text>
</a>
</g>
</g>
<!-- Node12&#45;&gt;Node15 -->
<g id="edge17" class="edge">
<title>Node12&#45;&gt;Node15</title>
<path fill="none" stroke="midnightblue" d="M540.6,-190.48C579.86,-181.46 642.76,-167.01 691.58,-155.79"/>
<polygon fill="midnightblue" stroke="midnightblue" points="692.49,-159.17 701.45,-153.52 690.92,-152.35 692.49,-159.17"/>
</g>
</g>
</svg>
