<?xml version="1.0" encoding="UTF-8" standalone="no"?>
<!DOCTYPE svg PUBLIC "-//W3C//DTD SVG 1.1//EN"
 "http://www.w3.org/Graphics/SVG/1.1/DTD/svg11.dtd">
<!-- Generated by graphviz version 2.43.0 (0)
 -->
<!-- Title: pointer.h Pages: 1 -->
<svg width="2356pt" height="476pt"
 viewBox="0.00 0.00 2356.40 476.00" xmlns="http://www.w3.org/2000/svg" xmlns:xlink="http://www.w3.org/1999/xlink">
<g id="graph0" class="graph" transform="scale(1 1) rotate(0) translate(4 472)">
<title>pointer.h</title>
<polygon fill="white" stroke="transparent" points="-4,4 -4,-472 2352.4,-472 2352.4,4 -4,4"/>
<!-- Node1 -->
<g id="node1" class="node">
<title>Node1</title>
<g id="a_node1"><a xlink:title=" ">
<polygon fill="#bfbfbf" stroke="black" points="372.5,-448.5 372.5,-467.5 431.5,-467.5 431.5,-448.5 372.5,-448.5"/>
<text text-anchor="middle" x="402" y="-455.5" font-family="Helvetica,sans-Serif" font-size="10.00">pointer.h</text>
</a>
</g>
</g>
<!-- Node2 -->
<g id="node2" class="node">
<title>Node2</title>
<g id="a_node2"><a xlink:href="appender_8h.html" target="_top" xlink:title=" ">
<polygon fill="white" stroke="black" points="821.5,-280.5 821.5,-299.5 892.5,-299.5 892.5,-280.5 821.5,-280.5"/>
<text text-anchor="middle" x="857" y="-287.5" font-family="Helvetica,sans-Serif" font-size="10.00">appender.h</text>
</a>
</g>
</g>
<!-- Node1&#45;&gt;Node2 -->
<g id="edge1" class="edge">
<title>Node1&#45;&gt;Node2</title>
<path fill="none" stroke="midnightblue" d="M434.92,-444.99C522.28,-413.12 758.4,-326.97 833.64,-299.52"/>
<polygon fill="midnightblue" stroke="midnightblue" points="433.7,-441.71 425.5,-448.42 436.1,-448.29 433.7,-441.71"/>
</g>
<!-- Node3 -->
<g id="node3" class="node">
<title>Node3</title>
<g id="a_node3"><a xlink:href="appenderattachable_8h.html" target="_top" xlink:title=" ">
<polygon fill="white" stroke="black" points="104.5,-224.5 104.5,-243.5 227.5,-243.5 227.5,-224.5 104.5,-224.5"/>
<text text-anchor="middle" x="166" y="-231.5" font-family="Helvetica,sans-Serif" font-size="10.00">appenderattachable.h</text>
</a>
</g>
</g>
<!-- Node1&#45;&gt;Node3 -->
<g id="edge45" class="edge">
<title>Node1&#45;&gt;Node3</title>
<path fill="none" stroke="midnightblue" d="M379.29,-443C350.77,-424.84 301.06,-391.29 264,-356 224.26,-318.16 185.92,-264.25 171.75,-243.55"/>
<polygon fill="midnightblue" stroke="midnightblue" points="377.44,-445.97 387.77,-448.34 381.17,-440.04 377.44,-445.97"/>
</g>
<!-- Node4 -->
<g id="node4" class="node">
<title>Node4</title>
<g id="a_node4"><a xlink:href="appenderattachableimpl_8h.html" target="_top" xlink:title=" ">
<polygon fill="white" stroke="black" points="80.5,-168.5 80.5,-187.5 225.5,-187.5 225.5,-168.5 80.5,-168.5"/>
<text text-anchor="middle" x="153" y="-175.5" font-family="Helvetica,sans-Serif" font-size="10.00">appenderattachableimpl.h</text>
</a>
</g>
</g>
<!-- Node1&#45;&gt;Node4 -->
<g id="edge46" class="edge">
<title>Node1&#45;&gt;Node4</title>
<path fill="none" stroke="midnightblue" d="M362.49,-452.15C275.68,-440.39 76,-406.84 76,-347 76,-347 76,-347 76,-289 76,-258.9 78.06,-248.88 95,-224 105.76,-208.2 123.82,-195.46 136.94,-187.63"/>
<polygon fill="midnightblue" stroke="midnightblue" points="362.12,-455.63 372.49,-453.48 363.04,-448.69 362.12,-455.63"/>
</g>
<!-- Node7 -->
<g id="node7" class="node">
<title>Node7</title>
<g id="a_node7"><a xlink:href="loggerimpl_8h.html" target="_top" xlink:title=" ">
<polygon fill="white" stroke="black" points="38,-112.5 38,-131.5 116,-131.5 116,-112.5 38,-112.5"/>
<text text-anchor="middle" x="77" y="-119.5" font-family="Helvetica,sans-Serif" font-size="10.00">loggerimpl.h</text>
</a>
</g>
</g>
<!-- Node1&#45;&gt;Node7 -->
<g id="edge52" class="edge">
<title>Node1&#45;&gt;Node7</title>
<path fill="none" stroke="midnightblue" d="M362.02,-454.87C284.42,-450.21 116.49,-437.45 65,-412 28.37,-393.9 0,-387.86 0,-347 0,-347 0,-347 0,-233 0,-188.01 43.76,-148.34 65.31,-131.53"/>
<polygon fill="midnightblue" stroke="midnightblue" points="362.16,-458.38 372.35,-455.47 362.57,-451.39 362.16,-458.38"/>
</g>
<!-- Node10 -->
<g id="node10" class="node">
<title>Node10</title>
<g id="a_node10"><a xlink:href="configurator_8h.html" target="_top" xlink:title=" ">
<polygon fill="white" stroke="black" points="229.5,-112.5 229.5,-131.5 312.5,-131.5 312.5,-112.5 229.5,-112.5"/>
<text text-anchor="middle" x="271" y="-119.5" font-family="Helvetica,sans-Serif" font-size="10.00">configurator.h</text>
</a>
</g>
</g>
<!-- Node1&#45;&gt;Node10 -->
<g id="edge47" class="edge">
<title>Node1&#45;&gt;Node10</title>
<path fill="none" stroke="midnightblue" d="M361.94,-456.91C305.59,-455.4 200.8,-447.53 120,-412 77.43,-393.28 38,-393.51 38,-347 38,-347 38,-347 38,-233 38,-200.6 45.43,-187.89 71,-168 116.79,-132.38 185.35,-123.88 229.12,-122.4"/>
<polygon fill="midnightblue" stroke="midnightblue" points="362.14,-460.41 372.21,-457.12 362.29,-453.41 362.14,-460.41"/>
</g>
<!-- Node30 -->
<g id="node30" class="node">
<title>Node30</title>
<g id="a_node30"><a xlink:href="filter_8h.html" target="_top" xlink:title="This header defines Filter and all of it&#39;s subclasses.">
<polygon fill="white" stroke="black" points="474.5,-336.5 474.5,-355.5 521.5,-355.5 521.5,-336.5 474.5,-336.5"/>
<text text-anchor="middle" x="498" y="-343.5" font-family="Helvetica,sans-Serif" font-size="10.00">filter.h</text>
</a>
</g>
</g>
<!-- Node1&#45;&gt;Node30 -->
<g id="edge48" class="edge">
<title>Node1&#45;&gt;Node30</title>
<path fill="none" stroke="midnightblue" d="M417.54,-440.8C425.56,-432.33 435.44,-421.72 444,-412 461.45,-392.18 481.06,-368.1 491.16,-355.55"/>
<polygon fill="midnightblue" stroke="midnightblue" points="414.88,-438.52 410.52,-448.17 419.95,-443.35 414.88,-438.52"/>
</g>
<!-- Node31 -->
<g id="node31" class="node">
<title>Node31</title>
<g id="a_node31"><a xlink:href="loglevel_8h.html" target="_top" xlink:title="This header defines the LogLevel type.">
<polygon fill="white" stroke="black" points="369.5,-392.5 369.5,-411.5 434.5,-411.5 434.5,-392.5 369.5,-392.5"/>
<text text-anchor="middle" x="402" y="-399.5" font-family="Helvetica,sans-Serif" font-size="10.00">loglevel.h</text>
</a>
</g>
</g>
<!-- Node1&#45;&gt;Node31 -->
<g id="edge53" class="edge">
<title>Node1&#45;&gt;Node31</title>
<path fill="none" stroke="midnightblue" d="M402,-437.8C402,-428.91 402,-418.78 402,-411.75"/>
<polygon fill="midnightblue" stroke="midnightblue" points="398.5,-438.08 402,-448.08 405.5,-438.08 398.5,-438.08"/>
</g>
<!-- Node37 -->
<g id="node37" class="node">
<title>Node37</title>
<g id="a_node37"><a xlink:href="threads-impl_8h.html" target="_top" xlink:title=" ">
<polygon fill="white" stroke="black" points="2050,-280.5 2050,-299.5 2138,-299.5 2138,-280.5 2050,-280.5"/>
<text text-anchor="middle" x="2094" y="-287.5" font-family="Helvetica,sans-Serif" font-size="10.00">threads&#45;impl.h</text>
</a>
</g>
</g>
<!-- Node1&#45;&gt;Node37 -->
<g id="edge68" class="edge">
<title>Node1&#45;&gt;Node37</title>
<path fill="none" stroke="midnightblue" d="M441.73,-454.32C624.88,-441.71 1405.88,-385.37 2042,-300 2044.54,-299.66 2047.15,-299.28 2049.78,-298.89"/>
<polygon fill="midnightblue" stroke="midnightblue" points="441.49,-450.82 431.75,-455 441.96,-457.81 441.49,-450.82"/>
</g>
<!-- Node38 -->
<g id="node38" class="node">
<title>Node38</title>
<g id="a_node38"><a xlink:href="threads_8h.html" target="_top" xlink:title=" ">
<polygon fill="white" stroke="black" points="2135,-336.5 2135,-355.5 2197,-355.5 2197,-336.5 2135,-336.5"/>
<text text-anchor="middle" x="2166" y="-343.5" font-family="Helvetica,sans-Serif" font-size="10.00">threads.h</text>
</a>
</g>
</g>
<!-- Node1&#45;&gt;Node38 -->
<g id="edge69" class="edge">
<title>Node1&#45;&gt;Node38</title>
<path fill="none" stroke="midnightblue" d="M441.87,-455.09C562.21,-449.27 932.35,-430.99 1239,-412 1590.84,-390.21 2017.39,-358.26 2134.8,-349.37"/>
<polygon fill="midnightblue" stroke="midnightblue" points="441.48,-451.6 431.66,-455.58 441.82,-458.59 441.48,-451.6"/>
</g>
<!-- Node2&#45;&gt;Node3 -->
<g id="edge2" class="edge">
<title>Node2&#45;&gt;Node3</title>
<path fill="none" stroke="midnightblue" d="M811.3,-285.43C690.81,-276.01 364.33,-250.5 227.57,-239.81"/>
<polygon fill="midnightblue" stroke="midnightblue" points="811.06,-288.92 821.3,-286.21 811.61,-281.94 811.06,-288.92"/>
</g>
<!-- Node5 -->
<g id="node5" class="node">
<title>Node5</title>
<g id="a_node5"><a xlink:href="asyncappender_8h.html" target="_top" xlink:title=" ">
<polygon fill="white" stroke="black" points="2157.5,-112.5 2157.5,-131.5 2256.5,-131.5 2256.5,-112.5 2157.5,-112.5"/>
<text text-anchor="middle" x="2207" y="-119.5" font-family="Helvetica,sans-Serif" font-size="10.00">asyncappender.h</text>
</a>
</g>
</g>
<!-- Node2&#45;&gt;Node5 -->
<g id="edge20" class="edge">
<title>Node2&#45;&gt;Node5</title>
<path fill="none" stroke="midnightblue" d="M902.62,-288.31C1083.87,-285.38 1747.53,-272.76 1837,-244 1896.03,-225.03 1896.33,-190.77 1954,-168 2021.43,-141.38 2105.2,-130.42 2157.39,-125.97"/>
<polygon fill="midnightblue" stroke="midnightblue" points="902.56,-284.81 892.62,-288.47 902.67,-291.81 902.56,-284.81"/>
</g>
<!-- Node6 -->
<g id="node6" class="node">
<title>Node6</title>
<g id="a_node6"><a xlink:href="log4cplus_8h.html" target="_top" xlink:title=" ">
<polygon fill="white" stroke="black" points="764,-0.5 764,-19.5 836,-19.5 836,-0.5 764,-0.5"/>
<text text-anchor="middle" x="800" y="-7.5" font-family="Helvetica,sans-Serif" font-size="10.00">log4cplus.h</text>
</a>
</g>
</g>
<!-- Node2&#45;&gt;Node6 -->
<g id="edge32" class="edge">
<title>Node2&#45;&gt;Node6</title>
<path fill="none" stroke="midnightblue" d="M842.21,-272.7C825.32,-252.34 800,-215.7 800,-179 800,-179 800,-179 800,-121 800,-83.19 800,-38.06 800,-19.56"/>
<polygon fill="midnightblue" stroke="midnightblue" points="839.65,-275.1 848.83,-280.38 844.95,-270.52 839.65,-275.1"/>
</g>
<!-- Node2&#45;&gt;Node10 -->
<g id="edge23" class="edge">
<title>Node2&#45;&gt;Node10</title>
<path fill="none" stroke="midnightblue" d="M811.32,-286.2C722.66,-280.37 530.5,-265.62 468,-244 447.8,-237.01 324.84,-157.89 284.1,-131.5"/>
<polygon fill="midnightblue" stroke="midnightblue" points="811.14,-289.7 821.35,-286.85 811.6,-282.71 811.14,-289.7"/>
</g>
<!-- Node12 -->
<g id="node12" class="node">
<title>Node12</title>
<g id="a_node12"><a xlink:href="hierarchylocker_8h.html" target="_top" xlink:title=" ">
<polygon fill="white" stroke="black" points="634,-112.5 634,-131.5 734,-131.5 734,-112.5 634,-112.5"/>
<text text-anchor="middle" x="684" y="-119.5" font-family="Helvetica,sans-Serif" font-size="10.00">hierarchylocker.h</text>
</a>
</g>
</g>
<!-- Node2&#45;&gt;Node12 -->
<g id="edge31" class="edge">
<title>Node2&#45;&gt;Node12</title>
<path fill="none" stroke="midnightblue" d="M831.77,-275.55C817.59,-267.38 799.98,-256.2 786,-244 743.98,-207.32 704.46,-152.73 689.9,-131.7"/>
<polygon fill="midnightblue" stroke="midnightblue" points="830.09,-278.62 840.52,-280.46 833.51,-272.51 830.09,-278.62"/>
</g>
<!-- Node15 -->
<g id="node15" class="node">
<title>Node15</title>
<g id="a_node15"><a xlink:href="callbackappender_8h.html" target="_top" xlink:title=" ">
<polygon fill="white" stroke="black" points="1232,-224.5 1232,-243.5 1342,-243.5 1342,-224.5 1232,-224.5"/>
<text text-anchor="middle" x="1287" y="-231.5" font-family="Helvetica,sans-Serif" font-size="10.00">callbackappender.h</text>
</a>
</g>
</g>
<!-- Node2&#45;&gt;Node15 -->
<g id="edge21" class="edge">
<title>Node2&#45;&gt;Node15</title>
<path fill="none" stroke="midnightblue" d="M902.65,-283.39C971.15,-274.96 1104.63,-258.46 1218,-244 1222.43,-243.43 1227.03,-242.84 1231.64,-242.25"/>
<polygon fill="midnightblue" stroke="midnightblue" points="902.12,-279.93 892.62,-284.63 902.97,-286.88 902.12,-279.93"/>
</g>
<!-- Node16 -->
<g id="node16" class="node">
<title>Node16</title>
<g id="a_node16"><a xlink:href="clfsappender_8h.html" target="_top" xlink:title=" ">
<polygon fill="white" stroke="black" points="1360,-224.5 1360,-243.5 1448,-243.5 1448,-224.5 1360,-224.5"/>
<text text-anchor="middle" x="1404" y="-231.5" font-family="Helvetica,sans-Serif" font-size="10.00">clfsappender.h</text>
</a>
</g>
</g>
<!-- Node2&#45;&gt;Node16 -->
<g id="edge22" class="edge">
<title>Node2&#45;&gt;Node16</title>
<path fill="none" stroke="midnightblue" d="M902.86,-286.01C990.27,-280.06 1186.67,-265.4 1351,-244 1353.87,-243.63 1356.82,-243.21 1359.79,-242.77"/>
<polygon fill="midnightblue" stroke="midnightblue" points="902.49,-282.53 892.75,-286.7 902.96,-289.51 902.49,-282.53"/>
</g>
<!-- Node17 -->
<g id="node17" class="node">
<title>Node17</title>
<g id="a_node17"><a xlink:href="consoleappender_8h.html" target="_top" xlink:title=" ">
<polygon fill="white" stroke="black" points="828,-56.5 828,-75.5 936,-75.5 936,-56.5 828,-56.5"/>
<text text-anchor="middle" x="882" y="-63.5" font-family="Helvetica,sans-Serif" font-size="10.00">consoleappender.h</text>
</a>
</g>
</g>
<!-- Node2&#45;&gt;Node17 -->
<g id="edge24" class="edge">
<title>Node2&#45;&gt;Node17</title>
<path fill="none" stroke="midnightblue" d="M859.11,-270.3C864.25,-224.64 877.29,-108.85 881,-75.88"/>
<polygon fill="midnightblue" stroke="midnightblue" points="855.62,-269.97 857.98,-280.3 862.58,-270.75 855.62,-269.97"/>
</g>
<!-- Node18 -->
<g id="node18" class="node">
<title>Node18</title>
<g id="a_node18"><a xlink:href="deviceappender_8hxx.html" target="_top" xlink:title=" ">
<polygon fill="white" stroke="black" points="1465.5,-224.5 1465.5,-243.5 1580.5,-243.5 1580.5,-224.5 1465.5,-224.5"/>
<text text-anchor="middle" x="1523" y="-231.5" font-family="Helvetica,sans-Serif" font-size="10.00">deviceappender.hxx</text>
</a>
</g>
</g>
<!-- Node2&#45;&gt;Node18 -->
<g id="edge26" class="edge">
<title>Node2&#45;&gt;Node18</title>
<path fill="none" stroke="midnightblue" d="M902.67,-286.52C1003.09,-280.87 1250.57,-265.8 1457,-244 1459.76,-243.71 1462.58,-243.39 1465.43,-243.06"/>
<polygon fill="midnightblue" stroke="midnightblue" points="902.36,-283.03 892.57,-287.09 902.75,-290.02 902.36,-283.03"/>
</g>
<!-- Node19 -->
<g id="node19" class="node">
<title>Node19</title>
<g id="a_node19"><a xlink:href="factory_8h.html" target="_top" xlink:title=" ">
<polygon fill="white" stroke="black" points="360.5,-224.5 360.5,-243.5 419.5,-243.5 419.5,-224.5 360.5,-224.5"/>
<text text-anchor="middle" x="390" y="-231.5" font-family="Helvetica,sans-Serif" font-size="10.00">factory.h</text>
</a>
</g>
</g>
<!-- Node2&#45;&gt;Node19 -->
<g id="edge27" class="edge">
<title>Node2&#45;&gt;Node19</title>
<path fill="none" stroke="midnightblue" d="M811.06,-285.56C733.2,-279.41 570.44,-265.16 434,-244 429.38,-243.28 424.5,-242.41 419.75,-241.49"/>
<polygon fill="midnightblue" stroke="midnightblue" points="811.23,-289.09 821.48,-286.38 811.78,-282.11 811.23,-289.09"/>
</g>
<!-- Node20 -->
<g id="node20" class="node">
<title>Node20</title>
<g id="a_node20"><a xlink:href="fileappender_8h.html" target="_top" xlink:title=" ">
<polygon fill="white" stroke="black" points="893,-168.5 893,-187.5 979,-187.5 979,-168.5 893,-168.5"/>
<text text-anchor="middle" x="936" y="-175.5" font-family="Helvetica,sans-Serif" font-size="10.00">fileappender.h</text>
</a>
</g>
</g>
<!-- Node2&#45;&gt;Node20 -->
<g id="edge29" class="edge">
<title>Node2&#45;&gt;Node20</title>
<path fill="none" stroke="midnightblue" d="M866.14,-271.11C873.3,-257.69 883.89,-239.11 895,-224 904.89,-210.55 918.19,-196.56 926.92,-187.82"/>
<polygon fill="midnightblue" stroke="midnightblue" points="862.9,-269.74 861.37,-280.23 869.11,-272.99 862.9,-269.74"/>
</g>
<!-- Node21 -->
<g id="node21" class="node">
<title>Node21</title>
<g id="a_node21"><a xlink:href="log4judpappender_8h.html" target="_top" xlink:title=" ">
<polygon fill="white" stroke="black" points="1598.5,-224.5 1598.5,-243.5 1711.5,-243.5 1711.5,-224.5 1598.5,-224.5"/>
<text text-anchor="middle" x="1655" y="-231.5" font-family="Helvetica,sans-Serif" font-size="10.00">log4judpappender.h</text>
</a>
</g>
</g>
<!-- Node2&#45;&gt;Node21 -->
<g id="edge33" class="edge">
<title>Node2&#45;&gt;Node21</title>
<path fill="none" stroke="midnightblue" d="M902.78,-287.4C1018.27,-283.11 1330.72,-269.87 1590,-244 1592.72,-243.73 1595.5,-243.43 1598.31,-243.11"/>
<polygon fill="midnightblue" stroke="midnightblue" points="902.41,-283.92 892.55,-287.78 902.67,-290.91 902.41,-283.92"/>
</g>
<!-- Node22 -->
<g id="node22" class="node">
<title>Node22</title>
<g id="a_node22"><a xlink:href="msttsappender_8h.html" target="_top" xlink:title=" ">
<polygon fill="white" stroke="black" points="1730,-224.5 1730,-243.5 1828,-243.5 1828,-224.5 1730,-224.5"/>
<text text-anchor="middle" x="1779" y="-231.5" font-family="Helvetica,sans-Serif" font-size="10.00">msttsappender.h</text>
</a>
</g>
</g>
<!-- Node2&#45;&gt;Node22 -->
<g id="edge34" class="edge">
<title>Node2&#45;&gt;Node22</title>
<path fill="none" stroke="midnightblue" d="M903.23,-288.25C1032.67,-285.79 1409.65,-276.18 1721,-244 1723.94,-243.7 1726.96,-243.35 1730,-242.96"/>
<polygon fill="midnightblue" stroke="midnightblue" points="902.84,-284.76 892.9,-288.44 902.97,-291.75 902.84,-284.76"/>
</g>
<!-- Node23 -->
<g id="node23" class="node">
<title>Node23</title>
<g id="a_node23"><a xlink:href="nteventlogappender_8h.html" target="_top" xlink:title=" ">
<polygon fill="white" stroke="black" points="476.5,-224.5 476.5,-243.5 599.5,-243.5 599.5,-224.5 476.5,-224.5"/>
<text text-anchor="middle" x="538" y="-231.5" font-family="Helvetica,sans-Serif" font-size="10.00">nteventlogappender.h</text>
</a>
</g>
</g>
<!-- Node2&#45;&gt;Node23 -->
<g id="edge35" class="edge">
<title>Node2&#45;&gt;Node23</title>
<path fill="none" stroke="midnightblue" d="M811.17,-281.24C752.06,-271.24 649.57,-253.89 588.33,-243.52"/>
<polygon fill="midnightblue" stroke="midnightblue" points="810.89,-284.74 821.34,-282.96 812.06,-277.84 810.89,-284.74"/>
</g>
<!-- Node24 -->
<g id="node24" class="node">
<title>Node24</title>
<g id="a_node24"><a xlink:href="nullappender_8h.html" target="_top" xlink:title=" ">
<polygon fill="white" stroke="black" points="1076.5,-56.5 1076.5,-75.5 1165.5,-75.5 1165.5,-56.5 1076.5,-56.5"/>
<text text-anchor="middle" x="1121" y="-63.5" font-family="Helvetica,sans-Serif" font-size="10.00">nullappender.h</text>
</a>
</g>
</g>
<!-- Node2&#45;&gt;Node24 -->
<g id="edge36" class="edge">
<title>Node2&#45;&gt;Node24</title>
<path fill="none" stroke="midnightblue" d="M903.12,-289.77C984.63,-290.04 1148.98,-285.3 1185,-244 1230.75,-191.55 1156.06,-103.85 1129.68,-75.86"/>
<polygon fill="midnightblue" stroke="midnightblue" points="902.68,-286.27 892.66,-289.71 902.64,-293.27 902.68,-286.27"/>
</g>
<!-- Node25 -->
<g id="node25" class="node">
<title>Node25</title>
<g id="a_node25"><a xlink:href="qt4debugappender_8h.html" target="_top" xlink:title=" ">
<polygon fill="white" stroke="black" points="618,-224.5 618,-243.5 734,-243.5 734,-224.5 618,-224.5"/>
<text text-anchor="middle" x="676" y="-231.5" font-family="Helvetica,sans-Serif" font-size="10.00">qt4debugappender.h</text>
</a>
</g>
</g>
<!-- Node2&#45;&gt;Node25 -->
<g id="edge38" class="edge">
<title>Node2&#45;&gt;Node25</title>
<path fill="none" stroke="midnightblue" d="M818.68,-277.57C784.54,-267.38 735.34,-252.7 704.55,-243.52"/>
<polygon fill="midnightblue" stroke="midnightblue" points="817.74,-280.94 828.32,-280.44 819.74,-274.23 817.74,-280.94"/>
</g>
<!-- Node26 -->
<g id="node26" class="node">
<title>Node26</title>
<g id="a_node26"><a xlink:href="qt5debugappender_8h.html" target="_top" xlink:title=" ">
<polygon fill="white" stroke="black" points="904,-224.5 904,-243.5 1020,-243.5 1020,-224.5 904,-224.5"/>
<text text-anchor="middle" x="962" y="-231.5" font-family="Helvetica,sans-Serif" font-size="10.00">qt5debugappender.h</text>
</a>
</g>
</g>
<!-- Node2&#45;&gt;Node26 -->
<g id="edge39" class="edge">
<title>Node2&#45;&gt;Node26</title>
<path fill="none" stroke="midnightblue" d="M882.81,-275.73C902.25,-265.73 928.35,-252.31 945.17,-243.65"/>
<polygon fill="midnightblue" stroke="midnightblue" points="881.16,-272.64 873.87,-280.32 884.36,-278.86 881.16,-272.64"/>
</g>
<!-- Node27 -->
<g id="node27" class="node">
<title>Node27</title>
<g id="a_node27"><a xlink:href="socketappender_8h.html" target="_top" xlink:title=" ">
<polygon fill="white" stroke="black" points="2236,-224.5 2236,-243.5 2338,-243.5 2338,-224.5 2236,-224.5"/>
<text text-anchor="middle" x="2287" y="-231.5" font-family="Helvetica,sans-Serif" font-size="10.00">socketappender.h</text>
</a>
</g>
</g>
<!-- Node2&#45;&gt;Node27 -->
<g id="edge40" class="edge">
<title>Node2&#45;&gt;Node27</title>
<path fill="none" stroke="midnightblue" d="M902.58,-289.42C1075.64,-290.6 1708.5,-291.24 2227,-244 2229.94,-243.73 2232.95,-243.42 2235.99,-243.06"/>
<polygon fill="midnightblue" stroke="midnightblue" points="902.58,-285.92 892.55,-289.35 902.52,-292.92 902.58,-285.92"/>
</g>
<!-- Node28 -->
<g id="node28" class="node">
<title>Node28</title>
<g id="a_node28"><a xlink:href="syslogappender_8h.html" target="_top" xlink:title=" ">
<polygon fill="white" stroke="black" points="1922,-224.5 1922,-243.5 2024,-243.5 2024,-224.5 1922,-224.5"/>
<text text-anchor="middle" x="1973" y="-231.5" font-family="Helvetica,sans-Serif" font-size="10.00">syslogappender.h</text>
</a>
</g>
</g>
<!-- Node2&#45;&gt;Node28 -->
<g id="edge42" class="edge">
<title>Node2&#45;&gt;Node28</title>
<path fill="none" stroke="midnightblue" d="M903.1,-287.65C1046.47,-283.32 1497.27,-268.55 1870,-244 1886.93,-242.89 1905.39,-241.37 1921.95,-239.9"/>
<polygon fill="midnightblue" stroke="midnightblue" points="902.81,-284.16 892.92,-287.96 903.02,-291.16 902.81,-284.16"/>
</g>
<!-- Node29 -->
<g id="node29" class="node">
<title>Node29</title>
<g id="a_node29"><a xlink:href="win32consoleappender_8h.html" target="_top" xlink:title=" ">
<polygon fill="white" stroke="black" points="1038.5,-224.5 1038.5,-243.5 1175.5,-243.5 1175.5,-224.5 1038.5,-224.5"/>
<text text-anchor="middle" x="1107" y="-231.5" font-family="Helvetica,sans-Serif" font-size="10.00">win32consoleappender.h</text>
</a>
</g>
</g>
<!-- Node2&#45;&gt;Node29 -->
<g id="edge44" class="edge">
<title>Node2&#45;&gt;Node29</title>
<path fill="none" stroke="midnightblue" d="M902.5,-279.17C949.65,-268.99 1022.61,-253.23 1067.44,-243.54"/>
<polygon fill="midnightblue" stroke="midnightblue" points="901.59,-275.79 892.55,-281.32 903.07,-282.63 901.59,-275.79"/>
</g>
<!-- Node3&#45;&gt;Node4 -->
<g id="edge3" class="edge">
<title>Node3&#45;&gt;Node4</title>
<path fill="none" stroke="midnightblue" d="M161.45,-214.1C159.29,-205.14 156.82,-194.86 155.11,-187.75"/>
<polygon fill="midnightblue" stroke="midnightblue" points="158.11,-215.18 163.85,-224.08 164.92,-213.54 158.11,-215.18"/>
</g>
<!-- Node9 -->
<g id="node9" class="node">
<title>Node9</title>
<g id="a_node9"><a xlink:href="logger_8h.html" target="_top" xlink:title="This header defines the Logger class and the logging macros.">
<polygon fill="white" stroke="black" points="434,-168.5 434,-187.5 490,-187.5 490,-168.5 434,-168.5"/>
<text text-anchor="middle" x="462" y="-175.5" font-family="Helvetica,sans-Serif" font-size="10.00">logger.h</text>
</a>
</g>
</g>
<!-- Node3&#45;&gt;Node9 -->
<g id="edge8" class="edge">
<title>Node3&#45;&gt;Node9</title>
<path fill="none" stroke="midnightblue" d="M223.09,-222.58C286.2,-211.07 385.31,-192.99 433.62,-184.18"/>
<polygon fill="midnightblue" stroke="midnightblue" points="222.11,-219.21 212.9,-224.44 223.37,-226.09 222.11,-219.21"/>
</g>
<!-- Node4&#45;&gt;Node5 -->
<g id="edge4" class="edge">
<title>Node4&#45;&gt;Node5</title>
<path fill="none" stroke="midnightblue" d="M235.91,-174.09C289.79,-172.24 361.55,-169.85 425,-168 1111.74,-147.97 1947.5,-128.84 2157.39,-124.11"/>
<polygon fill="midnightblue" stroke="midnightblue" points="235.6,-170.6 225.73,-174.44 235.84,-177.59 235.6,-170.6"/>
</g>
<!-- Node4&#45;&gt;Node7 -->
<g id="edge6" class="edge">
<title>Node4&#45;&gt;Node7</title>
<path fill="none" stroke="midnightblue" d="M132.42,-162.38C118.69,-152.62 101.07,-140.11 89.43,-131.83"/>
<polygon fill="midnightblue" stroke="midnightblue" points="130.61,-165.38 140.79,-168.32 134.66,-159.68 130.61,-165.38"/>
</g>
<!-- Node5&#45;&gt;Node6 -->
<g id="edge5" class="edge">
<title>Node5&#45;&gt;Node6</title>
<path fill="none" stroke="midnightblue" d="M2195.94,-103.88C2184.72,-88.22 2165.79,-66 2143,-56 2081.51,-29.03 1044.22,-14.17 836.16,-11.46"/>
<polygon fill="midnightblue" stroke="midnightblue" points="2193.09,-105.92 2201.62,-112.21 2198.87,-101.98 2193.09,-105.92"/>
</g>
<!-- Node8 -->
<g id="node8" class="node">
<title>Node8</title>
<g id="a_node8"><a xlink:href="rootlogger_8h.html" target="_top" xlink:title=" ">
<polygon fill="white" stroke="black" points="39.5,-56.5 39.5,-75.5 114.5,-75.5 114.5,-56.5 39.5,-56.5"/>
<text text-anchor="middle" x="77" y="-63.5" font-family="Helvetica,sans-Serif" font-size="10.00">rootlogger.h</text>
</a>
</g>
</g>
<!-- Node7&#45;&gt;Node8 -->
<g id="edge7" class="edge">
<title>Node7&#45;&gt;Node8</title>
<path fill="none" stroke="midnightblue" d="M77,-101.8C77,-92.91 77,-82.78 77,-75.75"/>
<polygon fill="midnightblue" stroke="midnightblue" points="73.5,-102.08 77,-112.08 80.5,-102.08 73.5,-102.08"/>
</g>
<!-- Node9&#45;&gt;Node6 -->
<g id="edge14" class="edge">
<title>Node9&#45;&gt;Node6</title>
<path fill="none" stroke="midnightblue" d="M481.34,-161.71C490.95,-153.53 502.33,-142.91 511,-132 535.14,-101.61 522.38,-78.5 554,-56 587.17,-32.4 703.71,-19.23 763.71,-13.87"/>
<polygon fill="midnightblue" stroke="midnightblue" points="478.94,-159.16 473.46,-168.22 483.4,-164.55 478.94,-159.16"/>
</g>
<!-- Node9&#45;&gt;Node10 -->
<g id="edge9" class="edge">
<title>Node9&#45;&gt;Node10</title>
<path fill="none" stroke="midnightblue" d="M424.14,-166.3C388.07,-156.1 334.47,-140.95 301.19,-131.54"/>
<polygon fill="midnightblue" stroke="midnightblue" points="423.24,-169.68 433.82,-169.03 425.15,-162.94 423.24,-169.68"/>
</g>
<!-- Node11 -->
<g id="node11" class="node">
<title>Node11</title>
<g id="a_node11"><a xlink:href="hierarchy_8h.html" target="_top" xlink:title=" ">
<polygon fill="white" stroke="black" points="278,-56.5 278,-75.5 348,-75.5 348,-56.5 278,-56.5"/>
<text text-anchor="middle" x="313" y="-63.5" font-family="Helvetica,sans-Serif" font-size="10.00">hierarchy.h</text>
</a>
</g>
</g>
<!-- Node9&#45;&gt;Node11 -->
<g id="edge11" class="edge">
<title>Node9&#45;&gt;Node11</title>
<path fill="none" stroke="midnightblue" d="M442.25,-162.42C410.73,-139.15 350.05,-94.35 324.64,-75.59"/>
<polygon fill="midnightblue" stroke="midnightblue" points="440.18,-165.24 450.31,-168.37 444.34,-159.61 440.18,-165.24"/>
</g>
<!-- Node9&#45;&gt;Node12 -->
<g id="edge13" class="edge">
<title>Node9&#45;&gt;Node12</title>
<path fill="none" stroke="midnightblue" d="M499.9,-167.78C541.64,-157.63 608.19,-141.44 648.8,-131.56"/>
<polygon fill="midnightblue" stroke="midnightblue" points="499.01,-164.4 490.12,-170.16 500.66,-171.2 499.01,-164.4"/>
</g>
<!-- Node13 -->
<g id="node13" class="node">
<title>Node13</title>
<g id="a_node13"><a xlink:href="loggingmacros_8h.html" target="_top" xlink:title="This header defines the logging macros.">
<polygon fill="white" stroke="black" points="366,-56.5 366,-75.5 464,-75.5 464,-56.5 366,-56.5"/>
<text text-anchor="middle" x="415" y="-63.5" font-family="Helvetica,sans-Serif" font-size="10.00">loggingmacros.h</text>
</a>
</g>
</g>
<!-- Node9&#45;&gt;Node13 -->
<g id="edge15" class="edge">
<title>Node9&#45;&gt;Node13</title>
<path fill="none" stroke="midnightblue" d="M438.9,-162.35C428.96,-154.66 418.39,-144.27 413,-132 404.83,-113.39 409.14,-88.82 412.41,-75.87"/>
<polygon fill="midnightblue" stroke="midnightblue" points="437.17,-165.42 447.34,-168.4 441.25,-159.73 437.17,-165.42"/>
</g>
<!-- Node14 -->
<g id="node14" class="node">
<title>Node14</title>
<g id="a_node14"><a xlink:href="tracelogger_8h.html" target="_top" xlink:title=" ">
<polygon fill="white" stroke="black" points="422,-112.5 422,-131.5 502,-131.5 502,-112.5 422,-112.5"/>
<text text-anchor="middle" x="462" y="-119.5" font-family="Helvetica,sans-Serif" font-size="10.00">tracelogger.h</text>
</a>
</g>
</g>
<!-- Node9&#45;&gt;Node14 -->
<g id="edge17" class="edge">
<title>Node9&#45;&gt;Node14</title>
<path fill="none" stroke="midnightblue" d="M462,-157.8C462,-148.91 462,-138.78 462,-131.75"/>
<polygon fill="midnightblue" stroke="midnightblue" points="458.5,-158.08 462,-168.08 465.5,-158.08 458.5,-158.08"/>
</g>
<!-- Node10&#45;&gt;Node6 -->
<g id="edge10" class="edge">
<title>Node10&#45;&gt;Node6</title>
<path fill="none" stroke="midnightblue" d="M264.08,-102.22C260.09,-87.74 257.8,-68.19 269,-56 302.41,-19.64 649.42,-12.63 763.72,-11.3"/>
<polygon fill="midnightblue" stroke="midnightblue" points="260.87,-103.66 267.28,-112.1 267.53,-101.51 260.87,-103.66"/>
</g>
<!-- Node11&#45;&gt;Node6 -->
<g id="edge12" class="edge">
<title>Node11&#45;&gt;Node6</title>
<path fill="none" stroke="midnightblue" d="M358.31,-55.95C515.08,-32.44 689.89,-18.68 763.96,-13.43"/>
<polygon fill="midnightblue" stroke="midnightblue" points="357.37,-52.55 348.01,-57.51 358.42,-59.47 357.37,-52.55"/>
</g>
<!-- Node13&#45;&gt;Node6 -->
<g id="edge16" class="edge">
<title>Node13&#45;&gt;Node6</title>
<path fill="none" stroke="midnightblue" d="M474.18,-56.54C475.46,-56.36 476.74,-56.18 478,-56 581.68,-41.35 704.17,-24.3 763.78,-16.03"/>
<polygon fill="midnightblue" stroke="midnightblue" points="473.59,-53.09 464.18,-57.96 474.57,-60.02 473.59,-53.09"/>
</g>
<!-- Node14&#45;&gt;Node6 -->
<g id="edge18" class="edge">
<title>Node14&#45;&gt;Node6</title>
<path fill="none" stroke="midnightblue" d="M471.79,-103.17C481.1,-88.03 496.54,-67.07 516,-56 557.76,-32.24 697.3,-18.77 763.96,-13.55"/>
<polygon fill="midnightblue" stroke="midnightblue" points="468.6,-101.7 466.58,-112.11 474.64,-105.23 468.6,-101.7"/>
</g>
<!-- Node14&#45;&gt;Node13 -->
<g id="edge19" class="edge">
<title>Node14&#45;&gt;Node13</title>
<path fill="none" stroke="midnightblue" d="M447.58,-104.43C439.34,-94.97 429.35,-83.48 422.62,-75.75"/>
<polygon fill="midnightblue" stroke="midnightblue" points="445.03,-106.84 454.24,-112.08 450.31,-102.24 445.03,-106.84"/>
</g>
<!-- Node17&#45;&gt;Node6 -->
<g id="edge25" class="edge">
<title>Node17&#45;&gt;Node6</title>
<path fill="none" stroke="midnightblue" d="M860.17,-50.62C845.19,-40.76 825.8,-27.99 813.14,-19.65"/>
<polygon fill="midnightblue" stroke="midnightblue" points="858.55,-53.75 868.83,-56.32 862.4,-47.9 858.55,-53.75"/>
</g>
<!-- Node19&#45;&gt;Node6 -->
<g id="edge28" class="edge">
<title>Node19&#45;&gt;Node6</title>
<path fill="none" stroke="midnightblue" d="M429.57,-226.29C511.68,-211.66 696.77,-174.74 743,-132 760.9,-115.45 787.79,-44.63 796.87,-19.71"/>
<polygon fill="midnightblue" stroke="midnightblue" points="428.86,-222.86 419.62,-228.05 430.08,-229.76 428.86,-222.86"/>
</g>
<!-- Node20&#45;&gt;Node6 -->
<g id="edge30" class="edge">
<title>Node20&#45;&gt;Node6</title>
<path fill="none" stroke="midnightblue" d="M944.11,-158.77C954.13,-133.16 967.3,-86.27 945,-56 920.22,-22.36 870.54,-13.13 836.29,-10.97"/>
<polygon fill="midnightblue" stroke="midnightblue" points="940.74,-157.76 940.12,-168.33 947.2,-160.45 940.74,-157.76"/>
</g>
<!-- Node24&#45;&gt;Node6 -->
<g id="edge37" class="edge">
<title>Node24&#45;&gt;Node6</title>
<path fill="none" stroke="midnightblue" d="M1066.21,-55.78C1000.56,-44.74 892.43,-26.55 836.32,-17.11"/>
<polygon fill="midnightblue" stroke="midnightblue" points="1065.92,-59.28 1076.37,-57.49 1067.09,-52.38 1065.92,-59.28"/>
</g>
<!-- Node27&#45;&gt;Node6 -->
<g id="edge41" class="edge">
<title>Node27&#45;&gt;Node6</title>
<path fill="none" stroke="midnightblue" d="M2288.37,-214.37C2289.28,-188.95 2287.45,-143.02 2266,-112 2238.12,-71.69 2218.07,-69.67 2171,-56 2039.64,-17.84 1039.81,-11.93 836.15,-11.12"/>
<polygon fill="midnightblue" stroke="midnightblue" points="2284.87,-214.3 2287.81,-224.48 2291.86,-214.69 2284.87,-214.3"/>
</g>
<!-- Node28&#45;&gt;Node6 -->
<g id="edge43" class="edge">
<title>Node28&#45;&gt;Node6</title>
<path fill="none" stroke="midnightblue" d="M1965.19,-214.98C1947.79,-177.39 1901.88,-91.21 1833,-56 1742.79,-9.89 1008.38,-10.11 836.08,-10.8"/>
<polygon fill="midnightblue" stroke="midnightblue" points="1962.04,-216.52 1969.33,-224.21 1968.43,-213.65 1962.04,-216.52"/>
</g>
<!-- Node30&#45;&gt;Node2 -->
<g id="edge49" class="edge">
<title>Node30&#45;&gt;Node2</title>
<path fill="none" stroke="midnightblue" d="M531.68,-339.93C599.48,-329.74 751.82,-306.82 821.28,-296.37"/>
<polygon fill="midnightblue" stroke="midnightblue" points="530.92,-336.51 521.55,-341.46 531.96,-343.43 530.92,-336.51"/>
</g>
<!-- Node30&#45;&gt;Node6 -->
<g id="edge51" class="edge">
<title>Node30&#45;&gt;Node6</title>
<path fill="none" stroke="midnightblue" d="M531.87,-343.73C735.65,-335.96 1791.18,-293.41 1837,-244 1980.83,-88.92 1035.45,-24.74 836.31,-13.02"/>
<polygon fill="midnightblue" stroke="midnightblue" points="531.63,-340.24 521.77,-344.12 531.89,-347.24 531.63,-340.24"/>
</g>
<!-- Node30&#45;&gt;Node19 -->
<g id="edge50" class="edge">
<title>Node30&#45;&gt;Node19</title>
<path fill="none" stroke="midnightblue" d="M482.49,-329.21C459.34,-305.63 416.54,-262.03 398.44,-243.59"/>
<polygon fill="midnightblue" stroke="midnightblue" points="480.02,-331.68 489.53,-336.37 485.02,-326.78 480.02,-331.68"/>
</g>
<!-- Node31&#45;&gt;Node2 -->
<g id="edge54" class="edge">
<title>Node31&#45;&gt;Node2</title>
<path fill="none" stroke="midnightblue" d="M413.57,-383.86C424.96,-368.51 443.84,-346.81 466,-336 528.26,-305.63 737.16,-295.14 821.37,-292.09"/>
<polygon fill="midnightblue" stroke="midnightblue" points="410.42,-382.26 407.48,-392.44 416.12,-386.31 410.42,-382.26"/>
</g>
<!-- Node31&#45;&gt;Node6 -->
<g id="edge60" class="edge">
<title>Node31&#45;&gt;Node6</title>
<path fill="none" stroke="midnightblue" d="M380.25,-386.19C370.4,-378.36 359.54,-367.9 353,-356 324.57,-304.25 301.08,-270.08 338,-224 383.84,-166.78 432.5,-218.89 499,-188 549.63,-164.48 554.31,-145.45 599,-112 632.59,-86.86 637.99,-75.76 675,-56 705.32,-39.82 742.69,-27.23 768.63,-19.53"/>
<polygon fill="midnightblue" stroke="midnightblue" points="378.39,-389.18 388.49,-392.37 382.59,-383.58 378.39,-389.18"/>
</g>
<!-- Node31&#45;&gt;Node9 -->
<g id="edge61" class="edge">
<title>Node31&#45;&gt;Node9</title>
<path fill="none" stroke="midnightblue" d="M359.15,-397.36C331.6,-392.55 297.74,-381.45 280,-356 246.45,-307.87 243.84,-270.19 280,-224 298.81,-199.97 387.7,-187 433.92,-181.78"/>
<polygon fill="midnightblue" stroke="midnightblue" points="358.94,-400.87 369.36,-398.92 360,-393.95 358.94,-400.87"/>
</g>
<!-- Node31&#45;&gt;Node30 -->
<g id="edge55" class="edge">
<title>Node31&#45;&gt;Node30</title>
<path fill="none" stroke="midnightblue" d="M426.57,-387.18C444.24,-377.24 467.51,-364.15 482.61,-355.65"/>
<polygon fill="midnightblue" stroke="midnightblue" points="424.42,-384.37 417.42,-392.32 427.86,-390.47 424.42,-384.37"/>
</g>
<!-- Node32 -->
<g id="node32" class="node">
<title>Node32</title>
<g id="a_node32"><a xlink:href="layout_8h.html" target="_top" xlink:title=" ">
<polygon fill="white" stroke="black" points="362,-336.5 362,-355.5 418,-355.5 418,-336.5 362,-336.5"/>
<text text-anchor="middle" x="390" y="-343.5" font-family="Helvetica,sans-Serif" font-size="10.00">layout.h</text>
</a>
</g>
</g>
<!-- Node31&#45;&gt;Node32 -->
<g id="edge56" class="edge">
<title>Node31&#45;&gt;Node32</title>
<path fill="none" stroke="midnightblue" d="M397.8,-382.1C395.81,-373.14 393.52,-362.86 391.94,-355.75"/>
<polygon fill="midnightblue" stroke="midnightblue" points="394.43,-383.08 400.02,-392.08 401.27,-381.56 394.43,-383.08"/>
</g>
<!-- Node33 -->
<g id="node33" class="node">
<title>Node33</title>
<g id="a_node33"><a xlink:href="loggingevent_8h.html" target="_top" xlink:title=" ">
<polygon fill="white" stroke="black" points="1943.5,-280.5 1943.5,-299.5 2032.5,-299.5 2032.5,-280.5 1943.5,-280.5"/>
<text text-anchor="middle" x="1988" y="-287.5" font-family="Helvetica,sans-Serif" font-size="10.00">loggingevent.h</text>
</a>
</g>
</g>
<!-- Node31&#45;&gt;Node33 -->
<g id="edge62" class="edge">
<title>Node31&#45;&gt;Node33</title>
<path fill="none" stroke="midnightblue" d="M445.02,-397.11C565.72,-386.28 917.91,-355.34 1211,-336 1520.52,-315.58 1598.85,-325.35 1908,-300 1919.42,-299.06 1931.74,-297.8 1943.2,-296.52"/>
<polygon fill="midnightblue" stroke="midnightblue" points="444.37,-393.65 434.73,-398.03 445,-400.62 444.37,-393.65"/>
</g>
<!-- Node32&#45;&gt;Node2 -->
<g id="edge57" class="edge">
<title>Node32&#45;&gt;Node2</title>
<path fill="none" stroke="midnightblue" d="M428.22,-336.63C429.5,-336.41 430.76,-336.2 432,-336 575.43,-313.11 748,-298.91 821.29,-293.5"/>
<polygon fill="midnightblue" stroke="midnightblue" points="427.57,-333.19 418.39,-338.49 428.87,-340.07 427.57,-333.19"/>
</g>
<!-- Node32&#45;&gt;Node6 -->
<g id="edge59" class="edge">
<title>Node32&#45;&gt;Node6</title>
<path fill="none" stroke="midnightblue" d="M376.05,-328.44C356.56,-303.23 326.32,-254.91 352,-224 407.76,-156.88 467.29,-227.68 545,-188 588.68,-165.7 585.71,-141.35 625,-112 678.54,-72.01 749.3,-35.61 782.01,-19.6"/>
<polygon fill="midnightblue" stroke="midnightblue" points="373.39,-330.72 382.38,-336.33 378.85,-326.34 373.39,-330.72"/>
</g>
<!-- Node32&#45;&gt;Node19 -->
<g id="edge58" class="edge">
<title>Node32&#45;&gt;Node19</title>
<path fill="none" stroke="midnightblue" d="M390,-326.35C390,-302.25 390,-261.31 390,-243.59"/>
<polygon fill="midnightblue" stroke="midnightblue" points="386.5,-326.37 390,-336.37 393.5,-326.37 386.5,-326.37"/>
</g>
<!-- Node33&#45;&gt;Node6 -->
<g id="edge65" class="edge">
<title>Node33&#45;&gt;Node6</title>
<path fill="none" stroke="midnightblue" d="M2036.87,-277.87C2068.53,-269.55 2105.56,-257.36 2115,-244 2134.49,-216.41 2133.45,-196.3 2115,-168 2047.62,-64.65 1981.16,-83.99 1861,-56 1659.89,-9.16 998.39,-9.84 836.16,-10.74"/>
<polygon fill="midnightblue" stroke="midnightblue" points="2035.65,-274.57 2026.82,-280.43 2037.38,-281.35 2035.65,-274.57"/>
</g>
<!-- Node34 -->
<g id="node34" class="node">
<title>Node34</title>
<g id="a_node34"><a xlink:href="internal_8h.html" target="_top" xlink:title="This header contains declaration internal to log4cplus.">
<polygon fill="white" stroke="black" points="2042.5,-224.5 2042.5,-243.5 2105.5,-243.5 2105.5,-224.5 2042.5,-224.5"/>
<text text-anchor="middle" x="2074" y="-231.5" font-family="Helvetica,sans-Serif" font-size="10.00">internal.h</text>
</a>
</g>
</g>
<!-- Node33&#45;&gt;Node34 -->
<g id="edge63" class="edge">
<title>Node33&#45;&gt;Node34</title>
<path fill="none" stroke="midnightblue" d="M2010.45,-274.9C2026.22,-265 2046.81,-252.07 2060.22,-243.65"/>
<polygon fill="midnightblue" stroke="midnightblue" points="2008.43,-272.04 2001.82,-280.32 2012.15,-277.97 2008.43,-272.04"/>
</g>
<!-- Node36 -->
<g id="node36" class="node">
<title>Node36</title>
<g id="a_node36"><a xlink:href="queue_8h.html" target="_top" xlink:title=" ">
<polygon fill="white" stroke="black" points="2162,-224.5 2162,-243.5 2218,-243.5 2218,-224.5 2162,-224.5"/>
<text text-anchor="middle" x="2190" y="-231.5" font-family="Helvetica,sans-Serif" font-size="10.00">queue.h</text>
</a>
</g>
</g>
<!-- Node33&#45;&gt;Node36 -->
<g id="edge66" class="edge">
<title>Node33&#45;&gt;Node36</title>
<path fill="none" stroke="midnightblue" d="M2029.87,-277.81C2069.35,-267.25 2127.44,-251.72 2161.73,-242.56"/>
<polygon fill="midnightblue" stroke="midnightblue" points="2028.76,-274.48 2020.01,-280.44 2030.57,-281.24 2028.76,-274.48"/>
</g>
<!-- Node35 -->
<g id="node35" class="node">
<title>Node35</title>
<g id="a_node35"><a xlink:href="customloglevelmanager_8h.html" target="_top" xlink:title="This header contains declaration internal to log4cplus.">
<polygon fill="white" stroke="black" points="1962.5,-168.5 1962.5,-187.5 2105.5,-187.5 2105.5,-168.5 1962.5,-168.5"/>
<text text-anchor="middle" x="2034" y="-175.5" font-family="Helvetica,sans-Serif" font-size="10.00">customloglevelmanager.h</text>
</a>
</g>
</g>
<!-- Node34&#45;&gt;Node35 -->
<g id="edge64" class="edge">
<title>Node34&#45;&gt;Node35</title>
<path fill="none" stroke="midnightblue" d="M2061.3,-215.86C2054.37,-206.5 2046.09,-195.33 2040.48,-187.75"/>
<polygon fill="midnightblue" stroke="midnightblue" points="2058.63,-218.13 2067.39,-224.08 2064.25,-213.96 2058.63,-218.13"/>
</g>
<!-- Node36&#45;&gt;Node5 -->
<g id="edge67" class="edge">
<title>Node36&#45;&gt;Node5</title>
<path fill="none" stroke="midnightblue" d="M2192.88,-214.35C2196.61,-190.25 2202.93,-149.31 2205.67,-131.59"/>
<polygon fill="midnightblue" stroke="midnightblue" points="2189.4,-213.95 2191.33,-224.37 2196.32,-215.02 2189.4,-213.95"/>
</g>
<!-- Node38&#45;&gt;Node5 -->
<g id="edge70" class="edge">
<title>Node38&#45;&gt;Node5</title>
<path fill="none" stroke="midnightblue" d="M2207.09,-343.28C2242.39,-339.71 2292.59,-329.37 2325,-300 2344.82,-282.05 2342.02,-270.27 2347,-244 2358.24,-184.66 2277.47,-147.22 2233.76,-131.52"/>
<polygon fill="midnightblue" stroke="midnightblue" points="2206.76,-339.8 2197.1,-344.15 2207.37,-346.77 2206.76,-339.8"/>
</g>
<!-- Node38&#45;&gt;Node27 -->
<g id="edge76" class="edge">
<title>Node38&#45;&gt;Node27</title>
<path fill="none" stroke="midnightblue" d="M2207.51,-344.42C2240.91,-341.49 2285.94,-331.43 2309,-300 2321.83,-282.52 2305.3,-257.04 2294.67,-243.77"/>
<polygon fill="midnightblue" stroke="midnightblue" points="2206.85,-340.96 2197.12,-345.14 2207.34,-347.94 2206.85,-340.96"/>
</g>
<!-- Node38&#45;&gt;Node33 -->
<g id="edge74" class="edge">
<title>Node38&#45;&gt;Node33</title>
<path fill="none" stroke="midnightblue" d="M2127.88,-333.44C2094.32,-323.26 2046.23,-308.66 2016.07,-299.52"/>
<polygon fill="midnightblue" stroke="midnightblue" points="2127.21,-336.89 2137.8,-336.44 2129.24,-330.19 2127.21,-336.89"/>
</g>
<!-- Node38&#45;&gt;Node36 -->
<g id="edge75" class="edge">
<title>Node38&#45;&gt;Node36</title>
<path fill="none" stroke="midnightblue" d="M2170.07,-326.35C2175.33,-302.25 2184.26,-261.31 2188.13,-243.59"/>
<polygon fill="midnightblue" stroke="midnightblue" points="2166.6,-325.85 2167.88,-336.37 2173.43,-327.34 2166.6,-325.85"/>
</g>
<!-- Node38&#45;&gt;Node37 -->
<g id="edge77" class="edge">
<title>Node38&#45;&gt;Node37</title>
<path fill="none" stroke="midnightblue" d="M2146.13,-330.1C2133.18,-320.38 2116.7,-308.03 2105.78,-299.83"/>
<polygon fill="midnightblue" stroke="midnightblue" points="2144.33,-333.12 2154.43,-336.32 2148.53,-327.52 2144.33,-333.12"/>
</g>
<!-- Node39 -->
<g id="node39" class="node">
<title>Node39</title>
<g id="a_node39"><a xlink:href="connectorthread_8h.html" target="_top" xlink:title=" ">
<polygon fill="white" stroke="black" points="2194.5,-280.5 2194.5,-299.5 2299.5,-299.5 2299.5,-280.5 2194.5,-280.5"/>
<text text-anchor="middle" x="2247" y="-287.5" font-family="Helvetica,sans-Serif" font-size="10.00">connectorthread.h</text>
</a>
</g>
</g>
<!-- Node38&#45;&gt;Node39 -->
<g id="edge71" class="edge">
<title>Node38&#45;&gt;Node39</title>
<path fill="none" stroke="midnightblue" d="M2187.57,-330.62C2202.36,-320.76 2221.51,-307.99 2234.02,-299.65"/>
<polygon fill="midnightblue" stroke="midnightblue" points="2185.39,-327.86 2179.01,-336.32 2189.28,-333.69 2185.39,-327.86"/>
</g>
<!-- Node39&#45;&gt;Node27 -->
<g id="edge72" class="edge">
<title>Node39&#45;&gt;Node27</title>
<path fill="none" stroke="midnightblue" d="M2259.7,-271.86C2266.63,-262.5 2274.91,-251.33 2280.52,-243.75"/>
<polygon fill="midnightblue" stroke="midnightblue" points="2256.75,-269.96 2253.61,-280.08 2262.37,-274.13 2256.75,-269.96"/>
</g>
<!-- Node39&#45;&gt;Node28 -->
<g id="edge73" class="edge">
<title>Node39&#45;&gt;Node28</title>
<path fill="none" stroke="midnightblue" d="M2193.59,-278.47C2141.8,-268.27 2064.23,-252.98 2016.21,-243.52"/>
<polygon fill="midnightblue" stroke="midnightblue" points="2193.1,-281.94 2203.58,-280.44 2194.45,-275.08 2193.1,-281.94"/>
</g>
</g>
</svg>
