<?xml version="1.0" encoding="UTF-8" standalone="no"?>
<!DOCTYPE svg PUBLIC "-//W3C//DTD SVG 1.1//EN"
 "http://www.w3.org/Graphics/SVG/1.1/DTD/svg11.dtd">
<!-- Generated by graphviz version 2.43.0 (0)
 -->
<!-- Title: pointer.h Pages: 1 -->
<svg width="562pt" height="218pt"
 viewBox="0.00 0.00 561.50 218.00" xmlns="http://www.w3.org/2000/svg" xmlns:xlink="http://www.w3.org/1999/xlink">
<g id="graph0" class="graph" transform="scale(1 1) rotate(0) translate(4 214)">
<title>pointer.h</title>
<polygon fill="white" stroke="transparent" points="-4,4 -4,-214 557.5,-214 557.5,4 -4,4"/>
<!-- Node1 -->
<g id="node1" class="node">
<title>Node1</title>
<g id="a_node1"><a xlink:title=" ">
<polygon fill="#bfbfbf" stroke="black" points="354,-190.5 354,-209.5 413,-209.5 413,-190.5 354,-190.5"/>
<text text-anchor="middle" x="383.5" y="-197.5" font-family="Helvetica,sans-Serif" font-size="10.00">pointer.h</text>
</a>
</g>
</g>
<!-- Node2 -->
<g id="node2" class="node">
<title>Node2</title>
<g id="a_node2"><a xlink:href="config_8hxx.html" target="_top" xlink:title=" ">
<polygon fill="white" stroke="black" points="87.5,-73 87.5,-92 203.5,-92 203.5,-73 87.5,-73"/>
<text text-anchor="middle" x="145.5" y="-80" font-family="Helvetica,sans-Serif" font-size="10.00">log4cplus/config.hxx</text>
</a>
</g>
</g>
<!-- Node1&#45;&gt;Node2 -->
<g id="edge1" class="edge">
<title>Node1&#45;&gt;Node2</title>
<path fill="none" stroke="midnightblue" d="M353.95,-196.72C300.68,-192.02 191.56,-179.47 164.5,-154 150.54,-140.86 146.44,-118.63 145.43,-102.64"/>
<polygon fill="midnightblue" stroke="midnightblue" points="148.92,-102.22 145.14,-92.32 141.92,-102.42 148.92,-102.22"/>
</g>
<!-- Node5 -->
<g id="node5" class="node">
<title>Node5</title>
<g id="a_node5"><a xlink:href="syncprims_8h.html" target="_top" xlink:title=" ">
<polygon fill="white" stroke="black" points="173.5,-134.5 173.5,-153.5 333.5,-153.5 333.5,-134.5 173.5,-134.5"/>
<text text-anchor="middle" x="253.5" y="-141.5" font-family="Helvetica,sans-Serif" font-size="10.00">log4cplus/thread/syncprims.h</text>
</a>
</g>
</g>
<!-- Node1&#45;&gt;Node5 -->
<g id="edge4" class="edge">
<title>Node1&#45;&gt;Node5</title>
<path fill="none" stroke="midnightblue" d="M362.9,-190.44C341.51,-181.56 307.82,-167.56 283.48,-157.45"/>
<polygon fill="midnightblue" stroke="midnightblue" points="284.58,-154.12 274,-153.52 281.89,-160.58 284.58,-154.12"/>
</g>
<!-- Node9 -->
<g id="node9" class="node">
<title>Node9</title>
<g id="a_node9"><a xlink:title=" ">
<polygon fill="white" stroke="#bfbfbf" points="351.5,-134.5 351.5,-153.5 415.5,-153.5 415.5,-134.5 351.5,-134.5"/>
<text text-anchor="middle" x="383.5" y="-141.5" font-family="Helvetica,sans-Serif" font-size="10.00">algorithm</text>
</a>
</g>
</g>
<!-- Node1&#45;&gt;Node9 -->
<g id="edge9" class="edge">
<title>Node1&#45;&gt;Node9</title>
<path fill="none" stroke="midnightblue" d="M383.5,-190.08C383.5,-183.01 383.5,-172.86 383.5,-163.99"/>
<polygon fill="midnightblue" stroke="midnightblue" points="387,-163.75 383.5,-153.75 380,-163.75 387,-163.75"/>
</g>
<!-- Node10 -->
<g id="node10" class="node">
<title>Node10</title>
<g id="a_node10"><a xlink:title=" ">
<polygon fill="white" stroke="#bfbfbf" points="433.5,-134.5 433.5,-153.5 485.5,-153.5 485.5,-134.5 433.5,-134.5"/>
<text text-anchor="middle" x="459.5" y="-141.5" font-family="Helvetica,sans-Serif" font-size="10.00">cassert</text>
</a>
</g>
</g>
<!-- Node1&#45;&gt;Node10 -->
<g id="edge10" class="edge">
<title>Node1&#45;&gt;Node10</title>
<path fill="none" stroke="midnightblue" d="M395.71,-190.32C407.28,-182.11 424.88,-169.6 438.66,-159.81"/>
<polygon fill="midnightblue" stroke="midnightblue" points="440.94,-162.48 447.07,-153.83 436.89,-156.77 440.94,-162.48"/>
</g>
<!-- Node11 -->
<g id="node11" class="node">
<title>Node11</title>
<g id="a_node11"><a xlink:title=" ">
<polygon fill="white" stroke="#bfbfbf" points="503.5,-134.5 503.5,-153.5 553.5,-153.5 553.5,-134.5 503.5,-134.5"/>
<text text-anchor="middle" x="528.5" y="-141.5" font-family="Helvetica,sans-Serif" font-size="10.00">atomic</text>
</a>
</g>
</g>
<!-- Node1&#45;&gt;Node11 -->
<g id="edge11" class="edge">
<title>Node1&#45;&gt;Node11</title>
<path fill="none" stroke="midnightblue" d="M406.48,-190.44C430.66,-181.44 468.92,-167.19 496.15,-157.05"/>
<polygon fill="midnightblue" stroke="midnightblue" points="497.48,-160.29 505.63,-153.52 495.04,-153.73 497.48,-160.29"/>
</g>
<!-- Node3 -->
<g id="node3" class="node">
<title>Node3</title>
<g id="a_node3"><a xlink:href="win32_8h.html" target="_top" xlink:title=" ">
<polygon fill="white" stroke="black" points="0,-6 0,-25 137,-25 137,-6 0,-6"/>
<text text-anchor="middle" x="68.5" y="-13" font-family="Helvetica,sans-Serif" font-size="10.00">log4cplus/config/win32.h</text>
</a>
</g>
</g>
<!-- Node2&#45;&gt;Node3 -->
<g id="edge2" class="edge">
<title>Node2&#45;&gt;Node3</title>
<path fill="none" stroke="midnightblue" d="M135.12,-72.73C122.65,-62.21 101.53,-44.38 86.41,-31.62"/>
<polygon fill="midnightblue" stroke="midnightblue" points="88.62,-28.9 78.72,-25.13 84.1,-34.25 88.62,-28.9"/>
</g>
<!-- Node4 -->
<g id="node4" class="node">
<title>Node4</title>
<g id="a_node4"><a xlink:href="thread-config_8h.html" target="_top" xlink:title=" ">
<polygon fill="white" stroke="black" points="155,-0.5 155,-30.5 292,-30.5 292,-0.5 155,-0.5"/>
<text text-anchor="start" x="163" y="-18.5" font-family="Helvetica,sans-Serif" font-size="10.00">log4cplus/helpers/thread</text>
<text text-anchor="middle" x="223.5" y="-7.5" font-family="Helvetica,sans-Serif" font-size="10.00">&#45;config.h</text>
</a>
</g>
</g>
<!-- Node2&#45;&gt;Node4 -->
<g id="edge3" class="edge">
<title>Node2&#45;&gt;Node4</title>
<path fill="none" stroke="midnightblue" d="M156.02,-72.73C166.86,-63.7 184.17,-49.27 198.54,-37.3"/>
<polygon fill="midnightblue" stroke="midnightblue" points="201.15,-39.68 206.59,-30.59 196.67,-34.3 201.15,-39.68"/>
</g>
<!-- Node5&#45;&gt;Node2 -->
<g id="edge5" class="edge">
<title>Node5&#45;&gt;Node2</title>
<path fill="none" stroke="midnightblue" d="M238.03,-134.48C220.22,-124.67 190.76,-108.43 169.87,-96.92"/>
<polygon fill="midnightblue" stroke="midnightblue" points="171.39,-93.77 160.95,-92.01 168.01,-99.9 171.39,-93.77"/>
</g>
<!-- Node6 -->
<g id="node6" class="node">
<title>Node6</title>
<g id="a_node6"><a xlink:title=" ">
<polygon fill="white" stroke="#bfbfbf" points="221.5,-73 221.5,-92 269.5,-92 269.5,-73 221.5,-73"/>
<text text-anchor="middle" x="245.5" y="-80" font-family="Helvetica,sans-Serif" font-size="10.00">mutex</text>
</a>
</g>
</g>
<!-- Node5&#45;&gt;Node6 -->
<g id="edge6" class="edge">
<title>Node5&#45;&gt;Node6</title>
<path fill="none" stroke="midnightblue" d="M252.35,-134.48C251.23,-126.08 249.46,-112.98 248.01,-102.16"/>
<polygon fill="midnightblue" stroke="midnightblue" points="251.45,-101.45 246.64,-92.01 244.51,-102.39 251.45,-101.45"/>
</g>
<!-- Node7 -->
<g id="node7" class="node">
<title>Node7</title>
<g id="a_node7"><a xlink:title=" ">
<polygon fill="white" stroke="#bfbfbf" points="288,-73 288,-92 395,-92 395,-73 288,-73"/>
<text text-anchor="middle" x="341.5" y="-80" font-family="Helvetica,sans-Serif" font-size="10.00">condition_variable</text>
</a>
</g>
</g>
<!-- Node5&#45;&gt;Node7 -->
<g id="edge7" class="edge">
<title>Node5&#45;&gt;Node7</title>
<path fill="none" stroke="midnightblue" d="M266.11,-134.48C280.22,-124.93 303.33,-109.31 320.25,-97.87"/>
<polygon fill="midnightblue" stroke="midnightblue" points="322.59,-100.51 328.92,-92.01 318.67,-94.71 322.59,-100.51"/>
</g>
<!-- Node8 -->
<g id="node8" class="node">
<title>Node8</title>
<g id="a_node8"><a xlink:href="threadsafetyanalysis_8h.html" target="_top" xlink:title=" ">
<polygon fill="white" stroke="black" points="413,-67.5 413,-97.5 544,-97.5 544,-67.5 413,-67.5"/>
<text text-anchor="start" x="421" y="-85.5" font-family="Helvetica,sans-Serif" font-size="10.00">log4cplus/internal</text>
<text text-anchor="middle" x="478.5" y="-74.5" font-family="Helvetica,sans-Serif" font-size="10.00">/threadsafetyanalysis.h</text>
</a>
</g>
</g>
<!-- Node5&#45;&gt;Node8 -->
<g id="edge8" class="edge">
<title>Node5&#45;&gt;Node8</title>
<path fill="none" stroke="midnightblue" d="M285.74,-134.48C319.49,-125.55 373.34,-111.31 415.56,-100.14"/>
<polygon fill="midnightblue" stroke="midnightblue" points="416.7,-103.46 425.47,-97.52 414.91,-96.7 416.7,-103.46"/>
</g>
</g>
</svg>
