<?xml version="1.0" encoding="UTF-8" standalone="no"?>
<!DOCTYPE svg PUBLIC "-//W3C//DTD SVG 1.1//EN"
 "http://www.w3.org/Graphics/SVG/1.1/DTD/svg11.dtd">
<!-- Generated by graphviz version 2.43.0 (0)
 -->
<!-- Title: property.h Pages: 1 -->
<svg width="689pt" height="263pt"
 viewBox="0.00 0.00 689.00 263.00" xmlns="http://www.w3.org/2000/svg" xmlns:xlink="http://www.w3.org/1999/xlink">
<g id="graph0" class="graph" transform="scale(1 1) rotate(0) translate(4 259)">
<title>property.h</title>
<polygon fill="white" stroke="transparent" points="-4,4 -4,-259 685,-259 685,4 -4,4"/>
<!-- Node1 -->
<g id="node1" class="node">
<title>Node1</title>
<g id="a_node1"><a xlink:title=" ">
<polygon fill="#bfbfbf" stroke="black" points="358,-235.5 358,-254.5 423,-254.5 423,-235.5 358,-235.5"/>
<text text-anchor="middle" x="390.5" y="-242.5" font-family="Helvetica,sans-Serif" font-size="10.00">property.h</text>
</a>
</g>
</g>
<!-- Node2 -->
<g id="node2" class="node">
<title>Node2</title>
<g id="a_node2"><a xlink:href="config_8hxx.html" target="_top" xlink:title=" ">
<polygon fill="white" stroke="black" points="87.5,-67.5 87.5,-86.5 203.5,-86.5 203.5,-67.5 87.5,-67.5"/>
<text text-anchor="middle" x="145.5" y="-74.5" font-family="Helvetica,sans-Serif" font-size="10.00">log4cplus/config.hxx</text>
</a>
</g>
</g>
<!-- Node1&#45;&gt;Node2 -->
<g id="edge1" class="edge">
<title>Node1&#45;&gt;Node2</title>
<path fill="none" stroke="midnightblue" d="M357.83,-240.57C303.81,-234.38 198.8,-220 168.5,-199 144.38,-182.28 141.59,-171.21 133.5,-143 129.01,-127.33 133.19,-109.04 137.81,-95.86"/>
<polygon fill="midnightblue" stroke="midnightblue" points="141.08,-97.12 141.45,-86.53 134.55,-94.58 141.08,-97.12"/>
</g>
<!-- Node5 -->
<g id="node5" class="node">
<title>Node5</title>
<g id="a_node5"><a xlink:href="streams_8h.html" target="_top" xlink:title=" ">
<polygon fill="white" stroke="black" points="178,-179.5 178,-198.5 293,-198.5 293,-179.5 178,-179.5"/>
<text text-anchor="middle" x="235.5" y="-186.5" font-family="Helvetica,sans-Serif" font-size="10.00">log4cplus/streams.h</text>
</a>
</g>
</g>
<!-- Node1&#45;&gt;Node5 -->
<g id="edge4" class="edge">
<title>Node1&#45;&gt;Node5</title>
<path fill="none" stroke="midnightblue" d="M365.94,-235.44C339.98,-226.4 298.83,-212.06 269.7,-201.92"/>
<polygon fill="midnightblue" stroke="midnightblue" points="270.54,-198.5 259.95,-198.52 268.24,-205.11 270.54,-198.5"/>
</g>
<!-- Node9 -->
<g id="node9" class="node">
<title>Node9</title>
<g id="a_node9"><a xlink:href="tstring_8h.html" target="_top" xlink:title=" ">
<polygon fill="white" stroke="black" points="337,-179.5 337,-198.5 444,-198.5 444,-179.5 337,-179.5"/>
<text text-anchor="middle" x="390.5" y="-186.5" font-family="Helvetica,sans-Serif" font-size="10.00">log4cplus/tstring.h</text>
</a>
</g>
</g>
<!-- Node1&#45;&gt;Node9 -->
<g id="edge10" class="edge">
<title>Node1&#45;&gt;Node9</title>
<path fill="none" stroke="midnightblue" d="M390.5,-235.08C390.5,-228.01 390.5,-217.86 390.5,-208.99"/>
<polygon fill="midnightblue" stroke="midnightblue" points="394,-208.75 390.5,-198.75 387,-208.75 394,-208.75"/>
</g>
<!-- Node14 -->
<g id="node14" class="node">
<title>Node14</title>
<g id="a_node14"><a xlink:title=" ">
<polygon fill="white" stroke="#bfbfbf" points="462.5,-179.5 462.5,-198.5 500.5,-198.5 500.5,-179.5 462.5,-179.5"/>
<text text-anchor="middle" x="481.5" y="-186.5" font-family="Helvetica,sans-Serif" font-size="10.00">map</text>
</a>
</g>
</g>
<!-- Node1&#45;&gt;Node14 -->
<g id="edge17" class="edge">
<title>Node1&#45;&gt;Node14</title>
<path fill="none" stroke="midnightblue" d="M405.12,-235.32C419.45,-226.82 441.51,-213.73 458.25,-203.8"/>
<polygon fill="midnightblue" stroke="midnightblue" points="460.1,-206.77 466.92,-198.65 456.53,-200.75 460.1,-206.77"/>
</g>
<!-- Node15 -->
<g id="node15" class="node">
<title>Node15</title>
<g id="a_node15"><a xlink:title=" ">
<polygon fill="white" stroke="#bfbfbf" points="519,-179.5 519,-198.5 566,-198.5 566,-179.5 519,-179.5"/>
<text text-anchor="middle" x="542.5" y="-186.5" font-family="Helvetica,sans-Serif" font-size="10.00">vector</text>
</a>
</g>
</g>
<!-- Node1&#45;&gt;Node15 -->
<g id="edge18" class="edge">
<title>Node1&#45;&gt;Node15</title>
<path fill="none" stroke="midnightblue" d="M414.58,-235.44C440.04,-226.4 480.39,-212.06 508.96,-201.92"/>
<polygon fill="midnightblue" stroke="midnightblue" points="510.28,-205.16 518.53,-198.52 507.93,-198.57 510.28,-205.16"/>
</g>
<!-- Node3 -->
<g id="node3" class="node">
<title>Node3</title>
<g id="a_node3"><a xlink:href="win32_8h.html" target="_top" xlink:title=" ">
<polygon fill="white" stroke="black" points="0,-6 0,-25 137,-25 137,-6 0,-6"/>
<text text-anchor="middle" x="68.5" y="-13" font-family="Helvetica,sans-Serif" font-size="10.00">log4cplus/config/win32.h</text>
</a>
</g>
</g>
<!-- Node2&#45;&gt;Node3 -->
<g id="edge2" class="edge">
<title>Node2&#45;&gt;Node3</title>
<path fill="none" stroke="midnightblue" d="M134.47,-67.48C122.23,-58.02 102.27,-42.6 87.51,-31.19"/>
<polygon fill="midnightblue" stroke="midnightblue" points="89.56,-28.35 79.51,-25.01 85.28,-33.89 89.56,-28.35"/>
</g>
<!-- Node4 -->
<g id="node4" class="node">
<title>Node4</title>
<g id="a_node4"><a xlink:href="thread-config_8h.html" target="_top" xlink:title=" ">
<polygon fill="white" stroke="black" points="155,-0.5 155,-30.5 292,-30.5 292,-0.5 155,-0.5"/>
<text text-anchor="start" x="163" y="-18.5" font-family="Helvetica,sans-Serif" font-size="10.00">log4cplus/helpers/thread</text>
<text text-anchor="middle" x="223.5" y="-7.5" font-family="Helvetica,sans-Serif" font-size="10.00">&#45;config.h</text>
</a>
</g>
</g>
<!-- Node2&#45;&gt;Node4 -->
<g id="edge3" class="edge">
<title>Node2&#45;&gt;Node4</title>
<path fill="none" stroke="midnightblue" d="M156.68,-67.48C167.14,-59.49 183.18,-47.25 196.93,-36.77"/>
<polygon fill="midnightblue" stroke="midnightblue" points="199.29,-39.37 205.12,-30.52 195.04,-33.81 199.29,-39.37"/>
</g>
<!-- Node5&#45;&gt;Node2 -->
<g id="edge5" class="edge">
<title>Node5&#45;&gt;Node2</title>
<path fill="none" stroke="midnightblue" d="M196.65,-179.36C177.12,-172.85 155.17,-161.7 143.5,-143 134.92,-129.25 136.59,-110.47 139.72,-96.63"/>
<polygon fill="midnightblue" stroke="midnightblue" points="143.15,-97.35 142.37,-86.78 136.39,-95.53 143.15,-97.35"/>
</g>
<!-- Node6 -->
<g id="node6" class="node">
<title>Node6</title>
<g id="a_node6"><a xlink:href="tchar_8h.html" target="_top" xlink:title=" ">
<polygon fill="white" stroke="black" points="219,-123.5 219,-142.5 318,-142.5 318,-123.5 219,-123.5"/>
<text text-anchor="middle" x="268.5" y="-130.5" font-family="Helvetica,sans-Serif" font-size="10.00">log4cplus/tchar.h</text>
</a>
</g>
</g>
<!-- Node5&#45;&gt;Node6 -->
<g id="edge6" class="edge">
<title>Node5&#45;&gt;Node6</title>
<path fill="none" stroke="midnightblue" d="M240.95,-179.08C245.51,-171.61 252.17,-160.72 257.79,-151.52"/>
<polygon fill="midnightblue" stroke="midnightblue" points="260.92,-153.11 263.15,-142.75 254.95,-149.46 260.92,-153.11"/>
</g>
<!-- Node8 -->
<g id="node8" class="node">
<title>Node8</title>
<g id="a_node8"><a xlink:title=" ">
<polygon fill="white" stroke="#bfbfbf" points="152.5,-123.5 152.5,-142.5 200.5,-142.5 200.5,-123.5 152.5,-123.5"/>
<text text-anchor="middle" x="176.5" y="-130.5" font-family="Helvetica,sans-Serif" font-size="10.00">iosfwd</text>
</a>
</g>
</g>
<!-- Node5&#45;&gt;Node8 -->
<g id="edge9" class="edge">
<title>Node5&#45;&gt;Node8</title>
<path fill="none" stroke="midnightblue" d="M226.02,-179.32C217.3,-171.34 204.16,-159.31 193.6,-149.65"/>
<polygon fill="midnightblue" stroke="midnightblue" points="195.89,-147 186.15,-142.83 191.17,-152.17 195.89,-147"/>
</g>
<!-- Node6&#45;&gt;Node2 -->
<g id="edge7" class="edge">
<title>Node6&#45;&gt;Node2</title>
<path fill="none" stroke="midnightblue" d="M249.01,-123.44C228.86,-114.6 197.18,-100.69 174.17,-90.59"/>
<polygon fill="midnightblue" stroke="midnightblue" points="175.46,-87.33 164.9,-86.52 172.65,-93.74 175.46,-87.33"/>
</g>
<!-- Node7 -->
<g id="node7" class="node">
<title>Node7</title>
<g id="a_node7"><a xlink:title=" ">
<polygon fill="white" stroke="#bfbfbf" points="242,-67.5 242,-86.5 295,-86.5 295,-67.5 242,-67.5"/>
<text text-anchor="middle" x="268.5" y="-74.5" font-family="Helvetica,sans-Serif" font-size="10.00">cstddef</text>
</a>
</g>
</g>
<!-- Node6&#45;&gt;Node7 -->
<g id="edge8" class="edge">
<title>Node6&#45;&gt;Node7</title>
<path fill="none" stroke="midnightblue" d="M268.5,-123.08C268.5,-116.01 268.5,-105.86 268.5,-96.99"/>
<polygon fill="midnightblue" stroke="midnightblue" points="272,-96.75 268.5,-86.75 265,-96.75 272,-96.75"/>
</g>
<!-- Node9&#45;&gt;Node2 -->
<g id="edge11" class="edge">
<title>Node9&#45;&gt;Node2</title>
<path fill="none" stroke="midnightblue" d="M421.47,-179.43C455.7,-168.47 503.3,-147.91 481.5,-123 477.11,-117.99 310.8,-97.55 213.84,-86.02"/>
<polygon fill="midnightblue" stroke="midnightblue" points="214.16,-82.53 203.82,-84.83 213.34,-89.48 214.16,-82.53"/>
</g>
<!-- Node9&#45;&gt;Node6 -->
<g id="edge16" class="edge">
<title>Node9&#45;&gt;Node6</title>
<path fill="none" stroke="midnightblue" d="M371.17,-179.44C351.18,-170.6 319.76,-156.69 296.94,-146.59"/>
<polygon fill="midnightblue" stroke="midnightblue" points="298.3,-143.36 287.74,-142.52 295.47,-149.76 298.3,-143.36"/>
</g>
<!-- Node10 -->
<g id="node10" class="node">
<title>Node10</title>
<g id="a_node10"><a xlink:title=" ">
<polygon fill="white" stroke="#bfbfbf" points="529,-123.5 529,-142.5 598,-142.5 598,-123.5 529,-123.5"/>
<text text-anchor="middle" x="563.5" y="-130.5" font-family="Helvetica,sans-Serif" font-size="10.00">type_traits</text>
</a>
</g>
</g>
<!-- Node9&#45;&gt;Node10 -->
<g id="edge12" class="edge">
<title>Node9&#45;&gt;Node10</title>
<path fill="none" stroke="midnightblue" d="M417.91,-179.44C447.27,-170.28 494.02,-155.69 526.6,-145.52"/>
<polygon fill="midnightblue" stroke="midnightblue" points="527.71,-148.84 536.22,-142.52 525.63,-142.16 527.71,-148.84"/>
</g>
<!-- Node11 -->
<g id="node11" class="node">
<title>Node11</title>
<g id="a_node11"><a xlink:title=" ">
<polygon fill="white" stroke="#bfbfbf" points="616,-123.5 616,-142.5 681,-142.5 681,-123.5 616,-123.5"/>
<text text-anchor="middle" x="648.5" y="-130.5" font-family="Helvetica,sans-Serif" font-size="10.00">functional</text>
</a>
</g>
</g>
<!-- Node9&#45;&gt;Node11 -->
<g id="edge13" class="edge">
<title>Node9&#45;&gt;Node11</title>
<path fill="none" stroke="midnightblue" d="M432.54,-179.43C474.14,-170.92 539.91,-157.37 605.7,-143.37"/>
<polygon fill="midnightblue" stroke="midnightblue" points="606.78,-146.72 615.83,-141.21 605.32,-139.87 606.78,-146.72"/>
</g>
<!-- Node12 -->
<g id="node12" class="node">
<title>Node12</title>
<g id="a_node12"><a xlink:title=" ">
<polygon fill="white" stroke="#bfbfbf" points="336.5,-123.5 336.5,-142.5 380.5,-142.5 380.5,-123.5 336.5,-123.5"/>
<text text-anchor="middle" x="358.5" y="-130.5" font-family="Helvetica,sans-Serif" font-size="10.00">string</text>
</a>
</g>
</g>
<!-- Node9&#45;&gt;Node12 -->
<g id="edge14" class="edge">
<title>Node9&#45;&gt;Node12</title>
<path fill="none" stroke="midnightblue" d="M385.22,-179.08C380.79,-171.61 374.34,-160.72 368.88,-151.52"/>
<polygon fill="midnightblue" stroke="midnightblue" points="371.79,-149.57 363.69,-142.75 365.77,-153.14 371.79,-149.57"/>
</g>
<!-- Node13 -->
<g id="node13" class="node">
<title>Node13</title>
<g id="a_node13"><a xlink:title=" ">
<polygon fill="white" stroke="#bfbfbf" points="399,-123.5 399,-142.5 472,-142.5 472,-123.5 399,-123.5"/>
<text text-anchor="middle" x="435.5" y="-130.5" font-family="Helvetica,sans-Serif" font-size="10.00">string_view</text>
</a>
</g>
</g>
<!-- Node9&#45;&gt;Node13 -->
<g id="edge15" class="edge">
<title>Node9&#45;&gt;Node13</title>
<path fill="none" stroke="midnightblue" d="M397.93,-179.08C404.35,-171.38 413.81,-160.03 421.62,-150.65"/>
<polygon fill="midnightblue" stroke="midnightblue" points="424.49,-152.67 428.21,-142.75 419.12,-148.19 424.49,-152.67"/>
</g>
</g>
</svg>
