<?xml version="1.0" encoding="UTF-8" standalone="no"?>
<!DOCTYPE svg PUBLIC "-//W3C//DTD SVG 1.1//EN"
 "http://www.w3.org/Graphics/SVG/1.1/DTD/svg11.dtd">
<!-- Generated by graphviz version 2.43.0 (0)
 -->
<!-- Title: qt5debugappender.h Pages: 1 -->
<svg width="1377pt" height="442pt"
 viewBox="0.00 0.00 1376.58 442.00" xmlns="http://www.w3.org/2000/svg" xmlns:xlink="http://www.w3.org/1999/xlink">
<g id="graph0" class="graph" transform="scale(1 1) rotate(0) translate(4 438)">
<title>qt5debugappender.h</title>
<polygon fill="white" stroke="transparent" points="-4,4 -4,-438 1372.58,-438 1372.58,4 -4,4"/>
<!-- Node1 -->
<g id="node1" class="node">
<title>Node1</title>
<g id="a_node1"><a xlink:title=" ">
<polygon fill="#bfbfbf" stroke="black" points="356.08,-414.5 356.08,-433.5 472.08,-433.5 472.08,-414.5 356.08,-414.5"/>
<text text-anchor="middle" x="414.08" y="-421.5" font-family="Helvetica,sans-Serif" font-size="10.00">qt5debugappender.h</text>
</a>
</g>
</g>
<!-- Node2 -->
<g id="node2" class="node">
<title>Node2</title>
<g id="a_node2"><a xlink:href="config_8hxx.html" target="_top" xlink:title=" ">
<polygon fill="white" stroke="black" points="582.08,-73 582.08,-92 698.08,-92 698.08,-73 582.08,-73"/>
<text text-anchor="middle" x="640.08" y="-80" font-family="Helvetica,sans-Serif" font-size="10.00">log4cplus/config.hxx</text>
</a>
</g>
</g>
<!-- Node1&#45;&gt;Node2 -->
<g id="edge1" class="edge">
<title>Node1&#45;&gt;Node2</title>
<path fill="none" stroke="midnightblue" d="M355.79,-419.63C241.94,-411.43 1.08,-385.53 1.08,-313 1.08,-313 1.08,-313 1.08,-199 1.08,-168.9 -3.25,-153.02 20.08,-134 62.1,-99.76 419.52,-88.16 571.81,-84.76"/>
<polygon fill="midnightblue" stroke="midnightblue" points="572.06,-88.25 581.98,-84.53 571.9,-81.25 572.06,-88.25"/>
</g>
<!-- Node5 -->
<g id="node5" class="node">
<title>Node5</title>
<g id="a_node5"><a xlink:href="appender_8h.html" target="_top" xlink:title=" ">
<polygon fill="white" stroke="black" points="812.08,-358.5 812.08,-377.5 932.08,-377.5 932.08,-358.5 812.08,-358.5"/>
<text text-anchor="middle" x="872.08" y="-365.5" font-family="Helvetica,sans-Serif" font-size="10.00">log4cplus/appender.h</text>
</a>
</g>
</g>
<!-- Node1&#45;&gt;Node5 -->
<g id="edge4" class="edge">
<title>Node1&#45;&gt;Node5</title>
<path fill="none" stroke="midnightblue" d="M472.09,-416.16C556.11,-406.25 711.47,-387.94 801.85,-377.28"/>
<polygon fill="midnightblue" stroke="midnightblue" points="802.49,-380.73 812.01,-376.08 801.67,-373.78 802.49,-380.73"/>
</g>
<!-- Node3 -->
<g id="node3" class="node">
<title>Node3</title>
<g id="a_node3"><a xlink:href="win32_8h.html" target="_top" xlink:title=" ">
<polygon fill="white" stroke="black" points="494.58,-6 494.58,-25 631.58,-25 631.58,-6 494.58,-6"/>
<text text-anchor="middle" x="563.08" y="-13" font-family="Helvetica,sans-Serif" font-size="10.00">log4cplus/config/win32.h</text>
</a>
</g>
</g>
<!-- Node2&#45;&gt;Node3 -->
<g id="edge2" class="edge">
<title>Node2&#45;&gt;Node3</title>
<path fill="none" stroke="midnightblue" d="M629.7,-72.73C617.23,-62.21 596.11,-44.38 580.99,-31.62"/>
<polygon fill="midnightblue" stroke="midnightblue" points="583.2,-28.9 573.3,-25.13 578.69,-34.25 583.2,-28.9"/>
</g>
<!-- Node4 -->
<g id="node4" class="node">
<title>Node4</title>
<g id="a_node4"><a xlink:href="thread-config_8h.html" target="_top" xlink:title=" ">
<polygon fill="white" stroke="black" points="649.58,-0.5 649.58,-30.5 786.58,-30.5 786.58,-0.5 649.58,-0.5"/>
<text text-anchor="start" x="657.58" y="-18.5" font-family="Helvetica,sans-Serif" font-size="10.00">log4cplus/helpers/thread</text>
<text text-anchor="middle" x="718.08" y="-7.5" font-family="Helvetica,sans-Serif" font-size="10.00">&#45;config.h</text>
</a>
</g>
</g>
<!-- Node2&#45;&gt;Node4 -->
<g id="edge3" class="edge">
<title>Node2&#45;&gt;Node4</title>
<path fill="none" stroke="midnightblue" d="M650.6,-72.73C661.45,-63.7 678.75,-49.27 693.12,-37.3"/>
<polygon fill="midnightblue" stroke="midnightblue" points="695.73,-39.68 701.18,-30.59 691.25,-34.3 695.73,-39.68"/>
</g>
<!-- Node5&#45;&gt;Node2 -->
<g id="edge5" class="edge">
<title>Node5&#45;&gt;Node2</title>
<path fill="none" stroke="midnightblue" d="M932.14,-362.06C1039,-351.61 1251.08,-322.6 1251.08,-257 1251.08,-257 1251.08,-257 1251.08,-199 1251.08,-168.9 1255.38,-153.06 1232.08,-134 1192.3,-101.45 855.52,-88.97 708.4,-85.04"/>
<polygon fill="midnightblue" stroke="midnightblue" points="708.23,-81.54 698.14,-84.77 708.04,-88.53 708.23,-81.54"/>
</g>
<!-- Node6 -->
<g id="node6" class="node">
<title>Node6</title>
<g id="a_node6"><a xlink:href="layout_8h.html" target="_top" xlink:title=" ">
<polygon fill="white" stroke="black" points="441.08,-302.5 441.08,-321.5 547.08,-321.5 547.08,-302.5 441.08,-302.5"/>
<text text-anchor="middle" x="494.08" y="-309.5" font-family="Helvetica,sans-Serif" font-size="10.00">log4cplus/layout.h</text>
</a>
</g>
</g>
<!-- Node5&#45;&gt;Node6 -->
<g id="edge6" class="edge">
<title>Node5&#45;&gt;Node6</title>
<path fill="none" stroke="midnightblue" d="M812.19,-358.44C742.64,-348.51 628.42,-332.19 557.44,-322.05"/>
<polygon fill="midnightblue" stroke="midnightblue" points="557.68,-318.55 547.29,-320.6 556.69,-325.48 557.68,-318.55"/>
</g>
<!-- Node7 -->
<g id="node7" class="node">
<title>Node7</title>
<g id="a_node7"><a xlink:href="loglevel_8h.html" target="_top" xlink:title="This header defines the LogLevel type.">
<polygon fill="white" stroke="black" points="621.08,-246.5 621.08,-265.5 735.08,-265.5 735.08,-246.5 621.08,-246.5"/>
<text text-anchor="middle" x="678.08" y="-253.5" font-family="Helvetica,sans-Serif" font-size="10.00">log4cplus/loglevel.h</text>
</a>
</g>
</g>
<!-- Node5&#45;&gt;Node7 -->
<g id="edge44" class="edge">
<title>Node5&#45;&gt;Node7</title>
<path fill="none" stroke="midnightblue" d="M846.35,-358.36C823.91,-350.35 790.86,-337.37 764.08,-322 738.79,-307.48 712.42,-286.55 695.66,-272.4"/>
<polygon fill="midnightblue" stroke="midnightblue" points="697.7,-269.53 687.83,-265.68 693.14,-274.85 697.7,-269.53"/>
</g>
<!-- Node9 -->
<g id="node9" class="node">
<title>Node9</title>
<g id="a_node9"><a xlink:title=" ">
<polygon fill="white" stroke="#bfbfbf" points="564.08,-190.5 564.08,-209.5 622.08,-209.5 622.08,-190.5 564.08,-190.5"/>
<text text-anchor="middle" x="593.08" y="-197.5" font-family="Helvetica,sans-Serif" font-size="10.00">memory</text>
</a>
</g>
</g>
<!-- Node5&#45;&gt;Node9 -->
<g id="edge56" class="edge">
<title>Node5&#45;&gt;Node9</title>
<path fill="none" stroke="midnightblue" d="M811.86,-360.06C752.18,-349.9 662.59,-325.23 612.08,-266 601.01,-253.01 596.38,-233.85 594.46,-219.69"/>
<polygon fill="midnightblue" stroke="midnightblue" points="597.92,-219.21 593.42,-209.63 590.96,-219.93 597.92,-219.21"/>
</g>
<!-- Node11 -->
<g id="node11" class="node">
<title>Node11</title>
<g id="a_node11"><a xlink:href="tstring_8h.html" target="_top" xlink:title=" ">
<polygon fill="white" stroke="black" points="334.58,-190.5 334.58,-209.5 441.58,-209.5 441.58,-190.5 334.58,-190.5"/>
<text text-anchor="middle" x="388.08" y="-197.5" font-family="Helvetica,sans-Serif" font-size="10.00">log4cplus/tstring.h</text>
</a>
</g>
</g>
<!-- Node5&#45;&gt;Node11 -->
<g id="edge45" class="edge">
<title>Node5&#45;&gt;Node11</title>
<path fill="none" stroke="midnightblue" d="M811.89,-364.37C698.38,-358.89 461.42,-344.86 432.08,-322 400.3,-297.23 391.46,-247.36 389.01,-220.01"/>
<polygon fill="midnightblue" stroke="midnightblue" points="392.49,-219.54 388.31,-209.81 385.51,-220.02 392.49,-219.54"/>
</g>
<!-- Node18 -->
<g id="node18" class="node">
<title>Node18</title>
<g id="a_node18"><a xlink:href="pointer_8h.html" target="_top" xlink:title=" ">
<polygon fill="white" stroke="black" points="858.08,-190.5 858.08,-209.5 1006.08,-209.5 1006.08,-190.5 858.08,-190.5"/>
<text text-anchor="middle" x="932.08" y="-197.5" font-family="Helvetica,sans-Serif" font-size="10.00">log4cplus/helpers/pointer.h</text>
</a>
</g>
</g>
<!-- Node5&#45;&gt;Node18 -->
<g id="edge46" class="edge">
<title>Node5&#45;&gt;Node18</title>
<path fill="none" stroke="midnightblue" d="M877.41,-358.29C882.67,-349.41 890.7,-335.11 896.08,-322 910.53,-286.82 921.93,-243.74 927.78,-219.63"/>
<polygon fill="midnightblue" stroke="midnightblue" points="931.23,-220.25 930.13,-209.71 924.42,-218.64 931.23,-220.25"/>
</g>
<!-- Node20 -->
<g id="node20" class="node">
<title>Node20</title>
<g id="a_node20"><a xlink:title=" ">
<polygon fill="white" stroke="#bfbfbf" points="1183.08,-73 1183.08,-92 1231.08,-92 1231.08,-73 1183.08,-73"/>
<text text-anchor="middle" x="1207.08" y="-80" font-family="Helvetica,sans-Serif" font-size="10.00">mutex</text>
</a>
</g>
</g>
<!-- Node5&#45;&gt;Node20 -->
<g id="edge57" class="edge">
<title>Node5&#45;&gt;Node20</title>
<path fill="none" stroke="midnightblue" d="M932.11,-362.57C1014.04,-355.9 1156.21,-341.89 1204.08,-322 1248,-303.75 1289.08,-304.56 1289.08,-257 1289.08,-257 1289.08,-257 1289.08,-199 1289.08,-156.32 1251.4,-118.43 1227.13,-98.45"/>
<polygon fill="midnightblue" stroke="midnightblue" points="1229.19,-95.62 1219.18,-92.15 1224.84,-101.1 1229.19,-95.62"/>
</g>
<!-- Node21 -->
<g id="node21" class="node">
<title>Node21</title>
<g id="a_node21"><a xlink:title=" ">
<polygon fill="white" stroke="#bfbfbf" points="1261.58,-73 1261.58,-92 1368.58,-92 1368.58,-73 1261.58,-73"/>
<text text-anchor="middle" x="1315.08" y="-80" font-family="Helvetica,sans-Serif" font-size="10.00">condition_variable</text>
</a>
</g>
</g>
<!-- Node5&#45;&gt;Node21 -->
<g id="edge59" class="edge">
<title>Node5&#45;&gt;Node21</title>
<path fill="none" stroke="midnightblue" d="M932.34,-363.71C1023.06,-358.1 1190,-344.98 1245.08,-322 1288,-304.1 1327.08,-303.51 1327.08,-257 1327.08,-257 1327.08,-257 1327.08,-199 1327.08,-164.68 1321.78,-124.93 1318.22,-102.15"/>
<polygon fill="midnightblue" stroke="midnightblue" points="1321.66,-101.47 1316.6,-92.16 1314.75,-102.59 1321.66,-101.47"/>
</g>
<!-- Node25 -->
<g id="node25" class="node">
<title>Node25</title>
<g id="a_node25"><a xlink:title=" ">
<polygon fill="white" stroke="#bfbfbf" points="1173.08,-134.5 1173.08,-153.5 1223.08,-153.5 1223.08,-134.5 1173.08,-134.5"/>
<text text-anchor="middle" x="1198.08" y="-141.5" font-family="Helvetica,sans-Serif" font-size="10.00">atomic</text>
</a>
</g>
</g>
<!-- Node5&#45;&gt;Node25 -->
<g id="edge58" class="edge">
<title>Node5&#45;&gt;Node25</title>
<path fill="none" stroke="midnightblue" d="M908.9,-358.46C959.26,-345.35 1050.53,-316.34 1113.08,-266 1149.28,-236.87 1176.78,-188.46 1189.79,-162.58"/>
<polygon fill="midnightblue" stroke="midnightblue" points="1192.95,-164.09 1194.19,-153.56 1186.66,-161.02 1192.95,-164.09"/>
</g>
<!-- Node31 -->
<g id="node31" class="node">
<title>Node31</title>
<g id="a_node31"><a xlink:href="filter_8h.html" target="_top" xlink:title="This header defines Filter and all of it&#39;s subclasses.">
<polygon fill="white" stroke="black" points="773.08,-302.5 773.08,-321.5 887.08,-321.5 887.08,-302.5 773.08,-302.5"/>
<text text-anchor="middle" x="830.08" y="-309.5" font-family="Helvetica,sans-Serif" font-size="10.00">log4cplus/spi/filter.h</text>
</a>
</g>
</g>
<!-- Node5&#45;&gt;Node31 -->
<g id="edge47" class="edge">
<title>Node5&#45;&gt;Node31</title>
<path fill="none" stroke="midnightblue" d="M865.15,-358.08C859.15,-350.38 850.33,-339.03 843.03,-329.65"/>
<polygon fill="midnightblue" stroke="midnightblue" points="845.79,-327.5 836.89,-321.75 840.27,-331.79 845.79,-327.5"/>
</g>
<!-- Node32 -->
<g id="node32" class="node">
<title>Node32</title>
<g id="a_node32"><a xlink:href="lockfile_8h.html" target="_top" xlink:title=" ">
<polygon fill="white" stroke="black" points="954.58,-246.5 954.58,-265.5 1103.58,-265.5 1103.58,-246.5 954.58,-246.5"/>
<text text-anchor="middle" x="1029.08" y="-253.5" font-family="Helvetica,sans-Serif" font-size="10.00">log4cplus/helpers/lockfile.h</text>
</a>
</g>
</g>
<!-- Node5&#45;&gt;Node32 -->
<g id="edge52" class="edge">
<title>Node5&#45;&gt;Node32</title>
<path fill="none" stroke="midnightblue" d="M884.4,-358.37C911.23,-339.57 975.18,-294.77 1008.34,-271.53"/>
<polygon fill="midnightblue" stroke="midnightblue" points="1010.64,-274.2 1016.82,-265.59 1006.62,-268.46 1010.64,-274.2"/>
</g>
<!-- Node6&#45;&gt;Node2 -->
<g id="edge7" class="edge">
<title>Node6&#45;&gt;Node2</title>
<path fill="none" stroke="midnightblue" d="M490.67,-302.27C483.02,-281.17 466.85,-226.43 489.08,-190 507.31,-160.14 530.12,-173.63 559.08,-154 583.53,-137.43 608.73,-114.38 624.4,-99.21"/>
<polygon fill="midnightblue" stroke="midnightblue" points="626.98,-101.57 631.66,-92.07 622.08,-96.58 626.98,-101.57"/>
</g>
<!-- Node6&#45;&gt;Node7 -->
<g id="edge8" class="edge">
<title>Node6&#45;&gt;Node7</title>
<path fill="none" stroke="midnightblue" d="M523.24,-302.44C554.6,-293.24 604.61,-278.56 639.28,-268.39"/>
<polygon fill="midnightblue" stroke="midnightblue" points="640.45,-271.69 649.06,-265.52 638.48,-264.97 640.45,-271.69"/>
</g>
<!-- Node8 -->
<g id="node8" class="node">
<title>Node8</title>
<g id="a_node8"><a xlink:title=" ">
<polygon fill="white" stroke="#bfbfbf" points="498.58,-190.5 498.58,-209.5 545.58,-209.5 545.58,-190.5 498.58,-190.5"/>
<text text-anchor="middle" x="522.08" y="-197.5" font-family="Helvetica,sans-Serif" font-size="10.00">vector</text>
</a>
</g>
</g>
<!-- Node6&#45;&gt;Node8 -->
<g id="edge42" class="edge">
<title>Node6&#45;&gt;Node8</title>
<path fill="none" stroke="midnightblue" d="M496.28,-302.37C500.8,-284.62 511.22,-243.67 517.35,-219.6"/>
<polygon fill="midnightblue" stroke="midnightblue" points="520.82,-220.15 519.9,-209.59 514.04,-218.42 520.82,-220.15"/>
</g>
<!-- Node6&#45;&gt;Node9 -->
<g id="edge43" class="edge">
<title>Node6&#45;&gt;Node9</title>
<path fill="none" stroke="midnightblue" d="M501.85,-302.37C518.41,-283.97 557.38,-240.67 578.64,-217.05"/>
<polygon fill="midnightblue" stroke="midnightblue" points="581.26,-219.37 585.35,-209.59 576.06,-214.68 581.26,-219.37"/>
</g>
<!-- Node6&#45;&gt;Node11 -->
<g id="edge36" class="edge">
<title>Node6&#45;&gt;Node11</title>
<path fill="none" stroke="midnightblue" d="M485.76,-302.37C468.04,-283.97 426.31,-240.67 403.55,-217.05"/>
<polygon fill="midnightblue" stroke="midnightblue" points="405.82,-214.36 396.36,-209.59 400.78,-219.22 405.82,-214.36"/>
</g>
<!-- Node26 -->
<g id="node26" class="node">
<title>Node26</title>
<g id="a_node26"><a xlink:href="streams_8h.html" target="_top" xlink:title=" ">
<polygon fill="white" stroke="black" points="29.58,-190.5 29.58,-209.5 144.58,-209.5 144.58,-190.5 29.58,-190.5"/>
<text text-anchor="middle" x="87.08" y="-197.5" font-family="Helvetica,sans-Serif" font-size="10.00">log4cplus/streams.h</text>
</a>
</g>
</g>
<!-- Node6&#45;&gt;Node26 -->
<g id="edge32" class="edge">
<title>Node6&#45;&gt;Node26</title>
<path fill="none" stroke="midnightblue" d="M440.81,-309.75C378.79,-306.8 274.13,-297.15 190.08,-266 157.93,-254.08 125.18,-231.18 105.49,-215.99"/>
<polygon fill="midnightblue" stroke="midnightblue" points="107.44,-213.07 97.42,-209.63 103.1,-218.57 107.44,-213.07"/>
</g>
<!-- Node28 -->
<g id="node28" class="node">
<title>Node28</title>
<g id="a_node28"><a xlink:href="timehelper_8h.html" target="_top" xlink:title=" ">
<polygon fill="white" stroke="black" points="199.58,-246.5 199.58,-265.5 366.58,-265.5 366.58,-246.5 199.58,-246.5"/>
<text text-anchor="middle" x="283.08" y="-253.5" font-family="Helvetica,sans-Serif" font-size="10.00">log4cplus/helpers/timehelper.h</text>
</a>
</g>
</g>
<!-- Node6&#45;&gt;Node28 -->
<g id="edge37" class="edge">
<title>Node6&#45;&gt;Node28</title>
<path fill="none" stroke="midnightblue" d="M460.65,-302.44C424.23,-293.12 365.85,-278.18 326.05,-268"/>
<polygon fill="midnightblue" stroke="midnightblue" points="326.92,-264.61 316.36,-265.52 325.18,-271.39 326.92,-264.61"/>
</g>
<!-- Node7&#45;&gt;Node2 -->
<g id="edge9" class="edge">
<title>Node7&#45;&gt;Node2</title>
<path fill="none" stroke="midnightblue" d="M675.85,-246.45C673.62,-237.45 670.35,-222.84 669.08,-210 668.21,-201.15 667.55,-198.76 669.08,-190 673.49,-164.83 690.77,-158.03 682.08,-134 677.29,-120.73 667.31,-108.49 658.29,-99.38"/>
<polygon fill="midnightblue" stroke="midnightblue" points="660.42,-96.58 650.75,-92.24 655.6,-101.66 660.42,-96.58"/>
</g>
<!-- Node7&#45;&gt;Node8 -->
<g id="edge10" class="edge">
<title>Node7&#45;&gt;Node8</title>
<path fill="none" stroke="midnightblue" d="M653.36,-246.44C626.93,-237.29 584.85,-222.73 555.48,-212.56"/>
<polygon fill="midnightblue" stroke="midnightblue" points="556.26,-209.13 545.66,-209.16 553.97,-215.74 556.26,-209.13"/>
</g>
<!-- Node7&#45;&gt;Node9 -->
<g id="edge11" class="edge">
<title>Node7&#45;&gt;Node9</title>
<path fill="none" stroke="midnightblue" d="M664.43,-246.32C651.17,-237.9 630.81,-224.97 615.24,-215.07"/>
<polygon fill="midnightblue" stroke="midnightblue" points="617.02,-212.06 606.71,-209.65 613.27,-217.97 617.02,-212.06"/>
</g>
<!-- Node10 -->
<g id="node10" class="node">
<title>Node10</title>
<g id="a_node10"><a xlink:title=" ">
<polygon fill="white" stroke="#bfbfbf" points="678.08,-190.5 678.08,-209.5 764.08,-209.5 764.08,-190.5 678.08,-190.5"/>
<text text-anchor="middle" x="721.08" y="-197.5" font-family="Helvetica,sans-Serif" font-size="10.00">shared_mutex</text>
</a>
</g>
</g>
<!-- Node7&#45;&gt;Node10 -->
<g id="edge12" class="edge">
<title>Node7&#45;&gt;Node10</title>
<path fill="none" stroke="midnightblue" d="M685.18,-246.08C691.32,-238.38 700.35,-227.03 707.82,-217.65"/>
<polygon fill="midnightblue" stroke="midnightblue" points="710.62,-219.75 714.11,-209.75 705.15,-215.39 710.62,-219.75"/>
</g>
<!-- Node7&#45;&gt;Node11 -->
<g id="edge13" class="edge">
<title>Node7&#45;&gt;Node11</title>
<path fill="none" stroke="midnightblue" d="M632.13,-246.44C581.01,-236.92 498.43,-221.55 443.7,-211.36"/>
<polygon fill="midnightblue" stroke="midnightblue" points="444.29,-207.91 433.82,-209.52 443.01,-214.79 444.29,-207.91"/>
</g>
<!-- Node7&#45;&gt;Node18 -->
<g id="edge22" class="edge">
<title>Node7&#45;&gt;Node18</title>
<path fill="none" stroke="midnightblue" d="M718.33,-246.44C762.73,-237 834.24,-221.8 882.17,-211.61"/>
<polygon fill="midnightblue" stroke="midnightblue" points="882.97,-215.02 892.02,-209.52 881.51,-208.17 882.97,-215.02"/>
</g>
<!-- Node11&#45;&gt;Node2 -->
<g id="edge14" class="edge">
<title>Node11&#45;&gt;Node2</title>
<path fill="none" stroke="midnightblue" d="M366.29,-190.42C339.31,-178.59 299.11,-156.18 318.08,-134 350.07,-96.6 487.23,-86.71 571.88,-84.21"/>
<polygon fill="midnightblue" stroke="midnightblue" points="572.03,-87.71 581.94,-83.94 571.85,-80.71 572.03,-87.71"/>
</g>
<!-- Node12 -->
<g id="node12" class="node">
<title>Node12</title>
<g id="a_node12"><a xlink:title=" ">
<polygon fill="white" stroke="#bfbfbf" points="327.58,-134.5 327.58,-153.5 396.58,-153.5 396.58,-134.5 327.58,-134.5"/>
<text text-anchor="middle" x="362.08" y="-141.5" font-family="Helvetica,sans-Serif" font-size="10.00">type_traits</text>
</a>
</g>
</g>
<!-- Node11&#45;&gt;Node12 -->
<g id="edge15" class="edge">
<title>Node11&#45;&gt;Node12</title>
<path fill="none" stroke="midnightblue" d="M383.79,-190.08C380.23,-182.69 375.06,-171.95 370.66,-162.81"/>
<polygon fill="midnightblue" stroke="midnightblue" points="373.79,-161.24 366.3,-153.75 367.48,-164.28 373.79,-161.24"/>
</g>
<!-- Node13 -->
<g id="node13" class="node">
<title>Node13</title>
<g id="a_node13"><a xlink:title=" ">
<polygon fill="white" stroke="#bfbfbf" points="607.58,-134.5 607.58,-153.5 672.58,-153.5 672.58,-134.5 607.58,-134.5"/>
<text text-anchor="middle" x="640.08" y="-141.5" font-family="Helvetica,sans-Serif" font-size="10.00">functional</text>
</a>
</g>
</g>
<!-- Node11&#45;&gt;Node13 -->
<g id="edge16" class="edge">
<title>Node11&#45;&gt;Node13</title>
<path fill="none" stroke="midnightblue" d="M428.01,-190.44C474.3,-180.52 550.27,-164.24 597.62,-154.1"/>
<polygon fill="midnightblue" stroke="midnightblue" points="598.51,-157.49 607.55,-151.97 597.04,-150.64 598.51,-157.49"/>
</g>
<!-- Node14 -->
<g id="node14" class="node">
<title>Node14</title>
<g id="a_node14"><a xlink:title=" ">
<polygon fill="white" stroke="#bfbfbf" points="415.08,-134.5 415.08,-153.5 459.08,-153.5 459.08,-134.5 415.08,-134.5"/>
<text text-anchor="middle" x="437.08" y="-141.5" font-family="Helvetica,sans-Serif" font-size="10.00">string</text>
</a>
</g>
</g>
<!-- Node11&#45;&gt;Node14 -->
<g id="edge17" class="edge">
<title>Node11&#45;&gt;Node14</title>
<path fill="none" stroke="midnightblue" d="M396.17,-190.08C403.24,-182.3 413.67,-170.8 422.23,-161.37"/>
<polygon fill="midnightblue" stroke="midnightblue" points="425.01,-163.51 429.14,-153.75 419.83,-158.8 425.01,-163.51"/>
</g>
<!-- Node15 -->
<g id="node15" class="node">
<title>Node15</title>
<g id="a_node15"><a xlink:title=" ">
<polygon fill="white" stroke="#bfbfbf" points="477.58,-134.5 477.58,-153.5 550.58,-153.5 550.58,-134.5 477.58,-134.5"/>
<text text-anchor="middle" x="514.08" y="-141.5" font-family="Helvetica,sans-Serif" font-size="10.00">string_view</text>
</a>
</g>
</g>
<!-- Node11&#45;&gt;Node15 -->
<g id="edge18" class="edge">
<title>Node11&#45;&gt;Node15</title>
<path fill="none" stroke="midnightblue" d="M408.05,-190.44C428.69,-181.6 461.15,-167.69 484.71,-157.59"/>
<polygon fill="midnightblue" stroke="midnightblue" points="486.4,-160.67 494.21,-153.52 483.64,-154.24 486.4,-160.67"/>
</g>
<!-- Node16 -->
<g id="node16" class="node">
<title>Node16</title>
<g id="a_node16"><a xlink:href="tchar_8h.html" target="_top" xlink:title=" ">
<polygon fill="white" stroke="black" points="133.58,-134.5 133.58,-153.5 232.58,-153.5 232.58,-134.5 133.58,-134.5"/>
<text text-anchor="middle" x="183.08" y="-141.5" font-family="Helvetica,sans-Serif" font-size="10.00">log4cplus/tchar.h</text>
</a>
</g>
</g>
<!-- Node11&#45;&gt;Node16 -->
<g id="edge19" class="edge">
<title>Node11&#45;&gt;Node16</title>
<path fill="none" stroke="midnightblue" d="M355.6,-190.44C320.36,-181.16 263.98,-166.31 225.32,-156.13"/>
<polygon fill="midnightblue" stroke="midnightblue" points="225.98,-152.68 215.41,-153.52 224.19,-159.45 225.98,-152.68"/>
</g>
<!-- Node16&#45;&gt;Node2 -->
<g id="edge20" class="edge">
<title>Node16&#45;&gt;Node2</title>
<path fill="none" stroke="midnightblue" d="M232.69,-135.96C237.55,-135.29 242.41,-134.63 247.08,-134 360.77,-118.7 493.11,-101.91 571.56,-92.05"/>
<polygon fill="midnightblue" stroke="midnightblue" points="572.31,-95.49 581.79,-90.77 571.43,-88.54 572.31,-95.49"/>
</g>
<!-- Node17 -->
<g id="node17" class="node">
<title>Node17</title>
<g id="a_node17"><a xlink:title=" ">
<polygon fill="white" stroke="#bfbfbf" points="156.58,-73 156.58,-92 209.58,-92 209.58,-73 156.58,-73"/>
<text text-anchor="middle" x="183.08" y="-80" font-family="Helvetica,sans-Serif" font-size="10.00">cstddef</text>
</a>
</g>
</g>
<!-- Node16&#45;&gt;Node17 -->
<g id="edge21" class="edge">
<title>Node16&#45;&gt;Node17</title>
<path fill="none" stroke="midnightblue" d="M183.08,-134.48C183.08,-126.08 183.08,-112.98 183.08,-102.16"/>
<polygon fill="midnightblue" stroke="midnightblue" points="186.58,-102.01 183.08,-92.01 179.58,-102.01 186.58,-102.01"/>
</g>
<!-- Node18&#45;&gt;Node2 -->
<g id="edge23" class="edge">
<title>Node18&#45;&gt;Node2</title>
<path fill="none" stroke="midnightblue" d="M903.08,-190.47C875.31,-182.06 832.38,-168.39 796.08,-154 776.49,-146.23 772.26,-142.74 753.08,-134 724.51,-120.97 691.74,-106.36 668.87,-96.22"/>
<polygon fill="midnightblue" stroke="midnightblue" points="670.28,-93.02 659.72,-92.17 667.45,-99.42 670.28,-93.02"/>
</g>
<!-- Node19 -->
<g id="node19" class="node">
<title>Node19</title>
<g id="a_node19"><a xlink:href="syncprims_8h.html" target="_top" xlink:title=" ">
<polygon fill="white" stroke="black" points="995.08,-134.5 995.08,-153.5 1155.08,-153.5 1155.08,-134.5 995.08,-134.5"/>
<text text-anchor="middle" x="1075.08" y="-141.5" font-family="Helvetica,sans-Serif" font-size="10.00">log4cplus/thread/syncprims.h</text>
</a>
</g>
</g>
<!-- Node18&#45;&gt;Node19 -->
<g id="edge24" class="edge">
<title>Node18&#45;&gt;Node19</title>
<path fill="none" stroke="midnightblue" d="M954.74,-190.44C978.48,-181.48 1015.99,-167.31 1042.82,-157.18"/>
<polygon fill="midnightblue" stroke="midnightblue" points="1044.41,-160.32 1052.53,-153.52 1041.94,-153.77 1044.41,-160.32"/>
</g>
<!-- Node23 -->
<g id="node23" class="node">
<title>Node23</title>
<g id="a_node23"><a xlink:title=" ">
<polygon fill="white" stroke="#bfbfbf" points="875.08,-134.5 875.08,-153.5 939.08,-153.5 939.08,-134.5 875.08,-134.5"/>
<text text-anchor="middle" x="907.08" y="-141.5" font-family="Helvetica,sans-Serif" font-size="10.00">algorithm</text>
</a>
</g>
</g>
<!-- Node18&#45;&gt;Node23 -->
<g id="edge29" class="edge">
<title>Node18&#45;&gt;Node23</title>
<path fill="none" stroke="midnightblue" d="M927.95,-190.08C924.57,-182.77 919.67,-172.18 915.46,-163.1"/>
<polygon fill="midnightblue" stroke="midnightblue" points="918.51,-161.36 911.13,-153.75 912.16,-164.3 918.51,-161.36"/>
</g>
<!-- Node24 -->
<g id="node24" class="node">
<title>Node24</title>
<g id="a_node24"><a xlink:title=" ">
<polygon fill="white" stroke="#bfbfbf" points="805.08,-134.5 805.08,-153.5 857.08,-153.5 857.08,-134.5 805.08,-134.5"/>
<text text-anchor="middle" x="831.08" y="-141.5" font-family="Helvetica,sans-Serif" font-size="10.00">cassert</text>
</a>
</g>
</g>
<!-- Node18&#45;&gt;Node24 -->
<g id="edge30" class="edge">
<title>Node18&#45;&gt;Node24</title>
<path fill="none" stroke="midnightblue" d="M915.86,-190.32C899.73,-181.7 874.78,-168.36 856.12,-158.39"/>
<polygon fill="midnightblue" stroke="midnightblue" points="857.74,-155.28 847.27,-153.65 854.44,-161.46 857.74,-155.28"/>
</g>
<!-- Node18&#45;&gt;Node25 -->
<g id="edge31" class="edge">
<title>Node18&#45;&gt;Node25</title>
<path fill="none" stroke="midnightblue" d="M981.16,-190.47C1026.05,-182.44 1094.5,-169.65 1162.81,-154.18"/>
<polygon fill="midnightblue" stroke="midnightblue" points="1163.91,-157.51 1172.88,-151.87 1162.35,-150.69 1163.91,-157.51"/>
</g>
<!-- Node19&#45;&gt;Node2 -->
<g id="edge25" class="edge">
<title>Node19&#45;&gt;Node2</title>
<path fill="none" stroke="midnightblue" d="M1012.76,-134.48C932.02,-123.43 791.76,-104.25 708.26,-92.83"/>
<polygon fill="midnightblue" stroke="midnightblue" points="708.5,-89.33 698.12,-91.44 707.55,-96.26 708.5,-89.33"/>
</g>
<!-- Node19&#45;&gt;Node20 -->
<g id="edge26" class="edge">
<title>Node19&#45;&gt;Node20</title>
<path fill="none" stroke="midnightblue" d="M1093.99,-134.48C1116.25,-124.45 1153.39,-107.7 1179.01,-96.15"/>
<polygon fill="midnightblue" stroke="midnightblue" points="1180.53,-99.31 1188.21,-92.01 1177.65,-92.93 1180.53,-99.31"/>
</g>
<!-- Node19&#45;&gt;Node21 -->
<g id="edge27" class="edge">
<title>Node19&#45;&gt;Node21</title>
<path fill="none" stroke="midnightblue" d="M1109.47,-134.48C1151.97,-123.94 1224.38,-105.99 1270.95,-94.44"/>
<polygon fill="midnightblue" stroke="midnightblue" points="1271.9,-97.81 1280.76,-92.01 1270.21,-91.02 1271.9,-97.81"/>
</g>
<!-- Node22 -->
<g id="node22" class="node">
<title>Node22</title>
<g id="a_node22"><a xlink:href="threadsafetyanalysis_8h.html" target="_top" xlink:title=" ">
<polygon fill="white" stroke="black" points="1009.58,-67.5 1009.58,-97.5 1140.58,-97.5 1140.58,-67.5 1009.58,-67.5"/>
<text text-anchor="start" x="1017.58" y="-85.5" font-family="Helvetica,sans-Serif" font-size="10.00">log4cplus/internal</text>
<text text-anchor="middle" x="1075.08" y="-74.5" font-family="Helvetica,sans-Serif" font-size="10.00">/threadsafetyanalysis.h</text>
</a>
</g>
</g>
<!-- Node19&#45;&gt;Node22 -->
<g id="edge28" class="edge">
<title>Node19&#45;&gt;Node22</title>
<path fill="none" stroke="midnightblue" d="M1075.08,-134.48C1075.08,-127.47 1075.08,-117.19 1075.08,-107.7"/>
<polygon fill="midnightblue" stroke="midnightblue" points="1078.58,-107.52 1075.08,-97.52 1071.58,-107.52 1078.58,-107.52"/>
</g>
<!-- Node26&#45;&gt;Node2 -->
<g id="edge33" class="edge">
<title>Node26&#45;&gt;Node2</title>
<path fill="none" stroke="midnightblue" d="M89.19,-190.49C93.25,-176.11 103.6,-147.28 124.08,-134 196.34,-87.13 448.92,-82.11 571.84,-82.57"/>
<polygon fill="midnightblue" stroke="midnightblue" points="571.88,-86.07 581.89,-82.62 571.91,-79.07 571.88,-86.07"/>
</g>
<!-- Node26&#45;&gt;Node16 -->
<g id="edge34" class="edge">
<title>Node26&#45;&gt;Node16</title>
<path fill="none" stroke="midnightblue" d="M102.51,-190.32C117.62,-181.82 140.9,-168.73 158.55,-158.8"/>
<polygon fill="midnightblue" stroke="midnightblue" points="160.7,-161.61 167.7,-153.65 157.27,-155.51 160.7,-161.61"/>
</g>
<!-- Node27 -->
<g id="node27" class="node">
<title>Node27</title>
<g id="a_node27"><a xlink:title=" ">
<polygon fill="white" stroke="#bfbfbf" points="29.08,-134.5 29.08,-153.5 77.08,-153.5 77.08,-134.5 29.08,-134.5"/>
<text text-anchor="middle" x="53.08" y="-141.5" font-family="Helvetica,sans-Serif" font-size="10.00">iosfwd</text>
</a>
</g>
</g>
<!-- Node26&#45;&gt;Node27 -->
<g id="edge35" class="edge">
<title>Node26&#45;&gt;Node27</title>
<path fill="none" stroke="midnightblue" d="M81.47,-190.08C76.72,-182.53 69.76,-171.49 63.93,-162.23"/>
<polygon fill="midnightblue" stroke="midnightblue" points="66.88,-160.35 58.59,-153.75 60.96,-164.08 66.88,-160.35"/>
</g>
<!-- Node28&#45;&gt;Node2 -->
<g id="edge38" class="edge">
<title>Node28&#45;&gt;Node2</title>
<path fill="none" stroke="midnightblue" d="M283.79,-246.18C285.98,-220.97 293.57,-149.43 310.08,-134 346.96,-99.54 486.41,-88.59 571.79,-85.12"/>
<polygon fill="midnightblue" stroke="midnightblue" points="572.06,-88.61 581.92,-84.73 571.8,-81.61 572.06,-88.61"/>
</g>
<!-- Node28&#45;&gt;Node11 -->
<g id="edge39" class="edge">
<title>Node28&#45;&gt;Node11</title>
<path fill="none" stroke="midnightblue" d="M299.95,-246.32C316.79,-237.66 342.89,-224.24 362.32,-214.25"/>
<polygon fill="midnightblue" stroke="midnightblue" points="363.96,-217.34 371.25,-209.65 360.76,-211.12 363.96,-217.34"/>
</g>
<!-- Node29 -->
<g id="node29" class="node">
<title>Node29</title>
<g id="a_node29"><a xlink:title=" ">
<polygon fill="white" stroke="#bfbfbf" points="163.08,-190.5 163.08,-209.5 207.08,-209.5 207.08,-190.5 163.08,-190.5"/>
<text text-anchor="middle" x="185.08" y="-197.5" font-family="Helvetica,sans-Serif" font-size="10.00">ctime</text>
</a>
</g>
</g>
<!-- Node28&#45;&gt;Node29 -->
<g id="edge40" class="edge">
<title>Node28&#45;&gt;Node29</title>
<path fill="none" stroke="midnightblue" d="M267.34,-246.32C251.76,-237.74 227.71,-224.49 209.62,-214.52"/>
<polygon fill="midnightblue" stroke="midnightblue" points="211.24,-211.42 200.79,-209.65 207.86,-217.55 211.24,-211.42"/>
</g>
<!-- Node30 -->
<g id="node30" class="node">
<title>Node30</title>
<g id="a_node30"><a xlink:title=" ">
<polygon fill="white" stroke="#bfbfbf" points="225.08,-190.5 225.08,-209.5 275.08,-209.5 275.08,-190.5 225.08,-190.5"/>
<text text-anchor="middle" x="250.08" y="-197.5" font-family="Helvetica,sans-Serif" font-size="10.00">chrono</text>
</a>
</g>
</g>
<!-- Node28&#45;&gt;Node30 -->
<g id="edge41" class="edge">
<title>Node28&#45;&gt;Node30</title>
<path fill="none" stroke="midnightblue" d="M277.63,-246.08C273.07,-238.61 266.41,-227.72 260.79,-218.52"/>
<polygon fill="midnightblue" stroke="midnightblue" points="263.63,-216.46 255.43,-209.75 257.66,-220.11 263.63,-216.46"/>
</g>
<!-- Node31&#45;&gt;Node2 -->
<g id="edge48" class="edge">
<title>Node31&#45;&gt;Node2</title>
<path fill="none" stroke="midnightblue" d="M829.59,-302.38C827.97,-281.04 821.13,-224.95 793.08,-190 774.13,-166.38 701.13,-120.38 663.22,-97.34"/>
<polygon fill="midnightblue" stroke="midnightblue" points="664.77,-94.19 654.4,-92.01 661.14,-100.18 664.77,-94.19"/>
</g>
<!-- Node31&#45;&gt;Node7 -->
<g id="edge51" class="edge">
<title>Node31&#45;&gt;Node7</title>
<path fill="none" stroke="midnightblue" d="M806,-302.44C780.54,-293.4 740.19,-279.06 711.62,-268.92"/>
<polygon fill="midnightblue" stroke="midnightblue" points="712.65,-265.57 702.05,-265.52 710.31,-272.16 712.65,-265.57"/>
</g>
<!-- Node31&#45;&gt;Node13 -->
<g id="edge49" class="edge">
<title>Node31&#45;&gt;Node13</title>
<path fill="none" stroke="midnightblue" d="M826.99,-302.26C817.98,-277.26 791.28,-206.23 773.08,-190 747.97,-167.6 711.27,-156.27 682.78,-150.59"/>
<polygon fill="midnightblue" stroke="midnightblue" points="683.15,-147.1 672.69,-148.74 681.89,-153.99 683.15,-147.1"/>
</g>
<!-- Node31&#45;&gt;Node18 -->
<g id="edge50" class="edge">
<title>Node31&#45;&gt;Node18</title>
<path fill="none" stroke="midnightblue" d="M838.09,-302.37C855.14,-283.97 895.3,-240.67 917.2,-217.05"/>
<polygon fill="midnightblue" stroke="midnightblue" points="919.88,-219.3 924.12,-209.59 914.75,-214.54 919.88,-219.3"/>
</g>
<!-- Node32&#45;&gt;Node2 -->
<g id="edge53" class="edge">
<title>Node32&#45;&gt;Node2</title>
<path fill="none" stroke="midnightblue" d="M1028.97,-246.35C1028.44,-233.25 1025.94,-207.98 1015.08,-190 995.02,-156.78 983.37,-150.16 948.08,-134 870.92,-98.67 772.89,-87.67 708.41,-84.45"/>
<polygon fill="midnightblue" stroke="midnightblue" points="708.5,-80.95 698.35,-84 708.19,-87.94 708.5,-80.95"/>
</g>
<!-- Node32&#45;&gt;Node11 -->
<g id="edge54" class="edge">
<title>Node32&#45;&gt;Node11</title>
<path fill="none" stroke="midnightblue" d="M954.38,-248.91C850.17,-240.39 655.21,-224.32 489.08,-210 477.09,-208.97 464.3,-207.84 452,-206.75"/>
<polygon fill="midnightblue" stroke="midnightblue" points="452.08,-203.24 441.8,-205.84 451.46,-210.22 452.08,-203.24"/>
</g>
<!-- Node32&#45;&gt;Node19 -->
<g id="edge55" class="edge">
<title>Node32&#45;&gt;Node19</title>
<path fill="none" stroke="midnightblue" d="M1032.74,-246.38C1036.58,-237.33 1042.78,-222.67 1048.08,-210 1054.71,-194.17 1062.19,-176.14 1067.6,-163.1"/>
<polygon fill="midnightblue" stroke="midnightblue" points="1070.84,-164.42 1071.43,-153.84 1064.37,-161.74 1070.84,-164.42"/>
</g>
</g>
</svg>
