<?xml version="1.0" encoding="UTF-8" standalone="no"?>
<!DOCTYPE svg PUBLIC "-//W3C//DTD SVG 1.1//EN"
 "http://www.w3.org/Graphics/SVG/1.1/DTD/svg11.dtd">
<!-- Generated by graphviz version 2.43.0 (0)
 -->
<!-- Title: queue.h Pages: 1 -->
<svg width="1527pt" height="386pt"
 viewBox="0.00 0.00 1527.04 386.00" xmlns="http://www.w3.org/2000/svg" xmlns:xlink="http://www.w3.org/1999/xlink">
<g id="graph0" class="graph" transform="scale(1 1) rotate(0) translate(4 382)">
<title>queue.h</title>
<polygon fill="white" stroke="transparent" points="-4,4 -4,-382 1523.04,-382 1523.04,4 -4,4"/>
<!-- Node1 -->
<g id="node1" class="node">
<title>Node1</title>
<g id="a_node1"><a xlink:title=" ">
<polygon fill="#bfbfbf" stroke="black" points="1078.54,-358.5 1078.54,-377.5 1134.54,-377.5 1134.54,-358.5 1078.54,-358.5"/>
<text text-anchor="middle" x="1106.54" y="-365.5" font-family="Helvetica,sans-Serif" font-size="10.00">queue.h</text>
</a>
</g>
</g>
<!-- Node2 -->
<g id="node2" class="node">
<title>Node2</title>
<g id="a_node2"><a xlink:href="config_8hxx.html" target="_top" xlink:title=" ">
<polygon fill="white" stroke="black" points="699.54,-73 699.54,-92 815.54,-92 815.54,-73 699.54,-73"/>
<text text-anchor="middle" x="757.54" y="-80" font-family="Helvetica,sans-Serif" font-size="10.00">log4cplus/config.hxx</text>
</a>
</g>
</g>
<!-- Node1&#45;&gt;Node2 -->
<g id="edge1" class="edge">
<title>Node1&#45;&gt;Node2</title>
<path fill="none" stroke="midnightblue" d="M1127.78,-358.33C1181.9,-334.91 1317.75,-266.91 1275.54,-190 1253.23,-149.36 1231.21,-149.54 1187.54,-134 1122.6,-110.9 930.02,-94.98 826.01,-87.81"/>
<polygon fill="midnightblue" stroke="midnightblue" points="826.14,-84.31 815.92,-87.12 825.66,-91.29 826.14,-84.31"/>
</g>
<!-- Node5 -->
<g id="node5" class="node">
<title>Node5</title>
<g id="a_node5"><a xlink:title=" ">
<polygon fill="white" stroke="#bfbfbf" points="15.04,-190.5 15.04,-209.5 62.04,-209.5 62.04,-190.5 15.04,-190.5"/>
<text text-anchor="middle" x="38.54" y="-197.5" font-family="Helvetica,sans-Serif" font-size="10.00">deque</text>
</a>
</g>
</g>
<!-- Node1&#45;&gt;Node5 -->
<g id="edge4" class="edge">
<title>Node1&#45;&gt;Node5</title>
<path fill="none" stroke="midnightblue" d="M1078.52,-366.16C919.86,-361.15 138.41,-333.19 57.54,-266 44.13,-254.86 39.88,-234.83 38.68,-219.94"/>
<polygon fill="midnightblue" stroke="midnightblue" points="42.17,-219.63 38.25,-209.79 35.17,-219.93 42.17,-219.63"/>
</g>
<!-- Node6 -->
<g id="node6" class="node">
<title>Node6</title>
<g id="a_node6"><a xlink:href="loggingevent_8h.html" target="_top" xlink:title=" ">
<polygon fill="white" stroke="black" points="624.54,-302.5 624.54,-321.5 780.54,-321.5 780.54,-302.5 624.54,-302.5"/>
<text text-anchor="middle" x="702.54" y="-309.5" font-family="Helvetica,sans-Serif" font-size="10.00">log4cplus/spi/loggingevent.h</text>
</a>
</g>
</g>
<!-- Node1&#45;&gt;Node6 -->
<g id="edge5" class="edge">
<title>Node1&#45;&gt;Node6</title>
<path fill="none" stroke="midnightblue" d="M1078.45,-363.25C1016.62,-354.98 867.02,-334.99 776.29,-322.86"/>
<polygon fill="midnightblue" stroke="midnightblue" points="776.72,-319.38 766.34,-321.53 775.79,-326.32 776.72,-319.38"/>
</g>
<!-- Node19 -->
<g id="node19" class="node">
<title>Node19</title>
<g id="a_node19"><a xlink:href="syncprims_8h.html" target="_top" xlink:title=" ">
<polygon fill="white" stroke="black" points="1289.54,-134.5 1289.54,-153.5 1449.54,-153.5 1449.54,-134.5 1289.54,-134.5"/>
<text text-anchor="middle" x="1369.54" y="-141.5" font-family="Helvetica,sans-Serif" font-size="10.00">log4cplus/thread/syncprims.h</text>
</a>
</g>
</g>
<!-- Node1&#45;&gt;Node19 -->
<g id="edge58" class="edge">
<title>Node1&#45;&gt;Node19</title>
<path fill="none" stroke="midnightblue" d="M1134.82,-364.1C1184.14,-358.51 1283.08,-344.74 1308.54,-322 1355.56,-279.99 1366.35,-200 1368.81,-163.72"/>
<polygon fill="midnightblue" stroke="midnightblue" points="1372.31,-163.76 1369.35,-153.58 1365.32,-163.38 1372.31,-163.76"/>
</g>
<!-- Node34 -->
<g id="node34" class="node">
<title>Node34</title>
<g id="a_node34"><a xlink:href="threads_8h.html" target="_top" xlink:title=" ">
<polygon fill="white" stroke="black" points="1033.54,-246.5 1033.54,-265.5 1179.54,-265.5 1179.54,-246.5 1033.54,-246.5"/>
<text text-anchor="middle" x="1106.54" y="-253.5" font-family="Helvetica,sans-Serif" font-size="10.00">log4cplus/thread/threads.h</text>
</a>
</g>
</g>
<!-- Node1&#45;&gt;Node34 -->
<g id="edge57" class="edge">
<title>Node1&#45;&gt;Node34</title>
<path fill="none" stroke="midnightblue" d="M1106.54,-358.37C1106.54,-340.62 1106.54,-299.67 1106.54,-275.6"/>
<polygon fill="midnightblue" stroke="midnightblue" points="1110.04,-275.59 1106.54,-265.59 1103.04,-275.59 1110.04,-275.59"/>
</g>
<!-- Node3 -->
<g id="node3" class="node">
<title>Node3</title>
<g id="a_node3"><a xlink:href="win32_8h.html" target="_top" xlink:title=" ">
<polygon fill="white" stroke="black" points="612.04,-6 612.04,-25 749.04,-25 749.04,-6 612.04,-6"/>
<text text-anchor="middle" x="680.54" y="-13" font-family="Helvetica,sans-Serif" font-size="10.00">log4cplus/config/win32.h</text>
</a>
</g>
</g>
<!-- Node2&#45;&gt;Node3 -->
<g id="edge2" class="edge">
<title>Node2&#45;&gt;Node3</title>
<path fill="none" stroke="midnightblue" d="M747.15,-72.73C734.68,-62.21 713.56,-44.38 698.44,-31.62"/>
<polygon fill="midnightblue" stroke="midnightblue" points="700.65,-28.9 690.76,-25.13 696.14,-34.25 700.65,-28.9"/>
</g>
<!-- Node4 -->
<g id="node4" class="node">
<title>Node4</title>
<g id="a_node4"><a xlink:href="thread-config_8h.html" target="_top" xlink:title=" ">
<polygon fill="white" stroke="black" points="767.04,-0.5 767.04,-30.5 904.04,-30.5 904.04,-0.5 767.04,-0.5"/>
<text text-anchor="start" x="775.04" y="-18.5" font-family="Helvetica,sans-Serif" font-size="10.00">log4cplus/helpers/thread</text>
<text text-anchor="middle" x="835.54" y="-7.5" font-family="Helvetica,sans-Serif" font-size="10.00">&#45;config.h</text>
</a>
</g>
</g>
<!-- Node2&#45;&gt;Node4 -->
<g id="edge3" class="edge">
<title>Node2&#45;&gt;Node4</title>
<path fill="none" stroke="midnightblue" d="M768.05,-72.73C778.9,-63.7 796.21,-49.27 810.58,-37.3"/>
<polygon fill="midnightblue" stroke="midnightblue" points="813.19,-39.68 818.63,-30.59 808.71,-34.3 813.19,-39.68"/>
</g>
<!-- Node6&#45;&gt;Node2 -->
<g id="edge6" class="edge">
<title>Node6&#45;&gt;Node2</title>
<path fill="none" stroke="midnightblue" d="M703.38,-302.39C705.44,-282.43 711.34,-231.51 721.54,-190 729.31,-158.36 742.25,-122.71 750.31,-101.72"/>
<polygon fill="midnightblue" stroke="midnightblue" points="753.66,-102.77 754.03,-92.19 747.14,-100.23 753.66,-102.77"/>
</g>
<!-- Node7 -->
<g id="node7" class="node">
<title>Node7</title>
<g id="a_node7"><a xlink:title=" ">
<polygon fill="white" stroke="#bfbfbf" points="1104.54,-190.5 1104.54,-209.5 1162.54,-209.5 1162.54,-190.5 1104.54,-190.5"/>
<text text-anchor="middle" x="1133.54" y="-197.5" font-family="Helvetica,sans-Serif" font-size="10.00">memory</text>
</a>
</g>
</g>
<!-- Node6&#45;&gt;Node7 -->
<g id="edge7" class="edge">
<title>Node6&#45;&gt;Node7</title>
<path fill="none" stroke="midnightblue" d="M744.31,-302.5C785.47,-293.95 850.07,-280.04 905.54,-266 973.05,-248.91 1050.92,-226.02 1095.96,-212.46"/>
<polygon fill="midnightblue" stroke="midnightblue" points="1097.04,-215.79 1105.6,-209.55 1095.02,-209.09 1097.04,-215.79"/>
</g>
<!-- Node8 -->
<g id="node8" class="node">
<title>Node8</title>
<g id="a_node8"><a xlink:href="loglevel_8h.html" target="_top" xlink:title="This header defines the LogLevel type.">
<polygon fill="white" stroke="black" points="782.54,-246.5 782.54,-265.5 896.54,-265.5 896.54,-246.5 782.54,-246.5"/>
<text text-anchor="middle" x="839.54" y="-253.5" font-family="Helvetica,sans-Serif" font-size="10.00">log4cplus/loglevel.h</text>
</a>
</g>
</g>
<!-- Node6&#45;&gt;Node8 -->
<g id="edge8" class="edge">
<title>Node6&#45;&gt;Node8</title>
<path fill="none" stroke="midnightblue" d="M724.24,-302.44C746.89,-293.52 782.61,-279.44 808.29,-269.32"/>
<polygon fill="midnightblue" stroke="midnightblue" points="809.91,-272.44 817.93,-265.52 807.34,-265.93 809.91,-272.44"/>
</g>
<!-- Node11 -->
<g id="node11" class="node">
<title>Node11</title>
<g id="a_node11"><a xlink:href="tstring_8h.html" target="_top" xlink:title=" ">
<polygon fill="white" stroke="black" points="399.04,-190.5 399.04,-209.5 506.04,-209.5 506.04,-190.5 399.04,-190.5"/>
<text text-anchor="middle" x="452.54" y="-197.5" font-family="Helvetica,sans-Serif" font-size="10.00">log4cplus/tstring.h</text>
</a>
</g>
</g>
<!-- Node6&#45;&gt;Node11 -->
<g id="edge45" class="edge">
<title>Node6&#45;&gt;Node11</title>
<path fill="none" stroke="midnightblue" d="M624.16,-307.1C583.85,-301.93 535.55,-290.57 498.54,-266 481.13,-254.45 468.24,-233.88 460.61,-218.97"/>
<polygon fill="midnightblue" stroke="midnightblue" points="463.65,-217.23 456.17,-209.73 457.34,-220.26 463.65,-217.23"/>
</g>
<!-- Node26 -->
<g id="node26" class="node">
<title>Node26</title>
<g id="a_node26"><a xlink:href="ndc_8h.html" target="_top" xlink:title="This header defined the NDC class.">
<polygon fill="white" stroke="black" points="66.54,-246.5 66.54,-265.5 158.54,-265.5 158.54,-246.5 66.54,-246.5"/>
<text text-anchor="middle" x="112.54" y="-253.5" font-family="Helvetica,sans-Serif" font-size="10.00">log4cplus/ndc.h</text>
</a>
</g>
</g>
<!-- Node6&#45;&gt;Node26 -->
<g id="edge32" class="edge">
<title>Node6&#45;&gt;Node26</title>
<path fill="none" stroke="midnightblue" d="M624.49,-303.86C503.86,-292.82 274.99,-271.87 169.01,-262.17"/>
<polygon fill="midnightblue" stroke="midnightblue" points="169.11,-258.66 158.84,-261.24 168.48,-265.63 169.11,-258.66"/>
</g>
<!-- Node28 -->
<g id="node28" class="node">
<title>Node28</title>
<g id="a_node28"><a xlink:href="mdc_8h.html" target="_top" xlink:title=" ">
<polygon fill="white" stroke="black" points="256.54,-246.5 256.54,-265.5 352.54,-265.5 352.54,-246.5 256.54,-246.5"/>
<text text-anchor="middle" x="304.54" y="-253.5" font-family="Helvetica,sans-Serif" font-size="10.00">log4cplus/mdc.h</text>
</a>
</g>
</g>
<!-- Node6&#45;&gt;Node28 -->
<g id="edge37" class="edge">
<title>Node6&#45;&gt;Node28</title>
<path fill="none" stroke="midnightblue" d="M639.47,-302.44C563.37,-292.12 436.48,-274.9 362.66,-264.89"/>
<polygon fill="midnightblue" stroke="midnightblue" points="362.99,-261.4 352.61,-263.52 362.05,-268.34 362.99,-261.4"/>
</g>
<!-- Node31 -->
<g id="node31" class="node">
<title>Node31</title>
<g id="a_node31"><a xlink:href="timehelper_8h.html" target="_top" xlink:title=" ">
<polygon fill="white" stroke="black" points="508.04,-246.5 508.04,-265.5 675.04,-265.5 675.04,-246.5 508.04,-246.5"/>
<text text-anchor="middle" x="591.54" y="-253.5" font-family="Helvetica,sans-Serif" font-size="10.00">log4cplus/helpers/timehelper.h</text>
</a>
</g>
</g>
<!-- Node6&#45;&gt;Node31 -->
<g id="edge46" class="edge">
<title>Node6&#45;&gt;Node31</title>
<path fill="none" stroke="midnightblue" d="M684.7,-302.32C666.82,-293.62 639.06,-280.12 618.49,-270.11"/>
<polygon fill="midnightblue" stroke="midnightblue" points="619.85,-266.88 609.33,-265.65 616.79,-273.18 619.85,-266.88"/>
</g>
<!-- Node6&#45;&gt;Node34 -->
<g id="edge51" class="edge">
<title>Node6&#45;&gt;Node34</title>
<path fill="none" stroke="midnightblue" d="M766.55,-302.44C838.95,-292.77 956.64,-277.04 1032.82,-266.85"/>
<polygon fill="midnightblue" stroke="midnightblue" points="1033.37,-270.31 1042.82,-265.52 1032.44,-263.37 1033.37,-270.31"/>
</g>
<!-- Node8&#45;&gt;Node2 -->
<g id="edge9" class="edge">
<title>Node8&#45;&gt;Node2</title>
<path fill="none" stroke="midnightblue" d="M855.16,-246.44C874.19,-234.79 902.53,-212.78 891.54,-190 869.79,-144.94 818.68,-113.08 786.24,-96.55"/>
<polygon fill="midnightblue" stroke="midnightblue" points="787.74,-93.39 777.23,-92.11 784.65,-99.67 787.74,-93.39"/>
</g>
<!-- Node8&#45;&gt;Node7 -->
<g id="edge11" class="edge">
<title>Node8&#45;&gt;Node7</title>
<path fill="none" stroke="midnightblue" d="M893.65,-246.43C943.35,-238.35 1019.28,-225.47 1094.41,-210.13"/>
<polygon fill="midnightblue" stroke="midnightblue" points="1095.44,-213.5 1104.53,-208.05 1094.03,-206.64 1095.44,-213.5"/>
</g>
<!-- Node9 -->
<g id="node9" class="node">
<title>Node9</title>
<g id="a_node9"><a xlink:title=" ">
<polygon fill="white" stroke="#bfbfbf" points="731.04,-190.5 731.04,-209.5 778.04,-209.5 778.04,-190.5 731.04,-190.5"/>
<text text-anchor="middle" x="754.54" y="-197.5" font-family="Helvetica,sans-Serif" font-size="10.00">vector</text>
</a>
</g>
</g>
<!-- Node8&#45;&gt;Node9 -->
<g id="edge10" class="edge">
<title>Node8&#45;&gt;Node9</title>
<path fill="none" stroke="midnightblue" d="M825.88,-246.32C812.62,-237.9 792.27,-224.97 776.69,-215.07"/>
<polygon fill="midnightblue" stroke="midnightblue" points="778.48,-212.06 768.16,-209.65 774.72,-217.97 778.48,-212.06"/>
</g>
<!-- Node10 -->
<g id="node10" class="node">
<title>Node10</title>
<g id="a_node10"><a xlink:title=" ">
<polygon fill="white" stroke="#bfbfbf" points="796.54,-190.5 796.54,-209.5 882.54,-209.5 882.54,-190.5 796.54,-190.5"/>
<text text-anchor="middle" x="839.54" y="-197.5" font-family="Helvetica,sans-Serif" font-size="10.00">shared_mutex</text>
</a>
</g>
</g>
<!-- Node8&#45;&gt;Node10 -->
<g id="edge12" class="edge">
<title>Node8&#45;&gt;Node10</title>
<path fill="none" stroke="midnightblue" d="M839.54,-246.08C839.54,-239.01 839.54,-228.86 839.54,-219.99"/>
<polygon fill="midnightblue" stroke="midnightblue" points="843.04,-219.75 839.54,-209.75 836.04,-219.75 843.04,-219.75"/>
</g>
<!-- Node8&#45;&gt;Node11 -->
<g id="edge13" class="edge">
<title>Node8&#45;&gt;Node11</title>
<path fill="none" stroke="midnightblue" d="M782.46,-247.14C719.82,-238.5 615.99,-224.13 516.11,-210.08"/>
<polygon fill="midnightblue" stroke="midnightblue" points="516.54,-206.6 506.15,-208.67 515.56,-213.53 516.54,-206.6"/>
</g>
<!-- Node18 -->
<g id="node18" class="node">
<title>Node18</title>
<g id="a_node18"><a xlink:href="pointer_8h.html" target="_top" xlink:title=" ">
<polygon fill="white" stroke="black" points="938.54,-190.5 938.54,-209.5 1086.54,-209.5 1086.54,-190.5 938.54,-190.5"/>
<text text-anchor="middle" x="1012.54" y="-197.5" font-family="Helvetica,sans-Serif" font-size="10.00">log4cplus/helpers/pointer.h</text>
</a>
</g>
</g>
<!-- Node8&#45;&gt;Node18 -->
<g id="edge22" class="edge">
<title>Node8&#45;&gt;Node18</title>
<path fill="none" stroke="midnightblue" d="M866.95,-246.44C896.3,-237.28 943.05,-222.69 975.63,-212.52"/>
<polygon fill="midnightblue" stroke="midnightblue" points="976.75,-215.84 985.25,-209.52 974.66,-209.16 976.75,-215.84"/>
</g>
<!-- Node11&#45;&gt;Node2 -->
<g id="edge14" class="edge">
<title>Node11&#45;&gt;Node2</title>
<path fill="none" stroke="midnightblue" d="M503.84,-190.5C556.29,-181.35 633.86,-166.45 661.54,-154 692.16,-140.22 722.57,-115.55 740.71,-99.35"/>
<polygon fill="midnightblue" stroke="midnightblue" points="743.55,-101.49 748.57,-92.16 738.83,-96.33 743.55,-101.49"/>
</g>
<!-- Node12 -->
<g id="node12" class="node">
<title>Node12</title>
<g id="a_node12"><a xlink:title=" ">
<polygon fill="white" stroke="#bfbfbf" points="584.04,-134.5 584.04,-153.5 653.04,-153.5 653.04,-134.5 584.04,-134.5"/>
<text text-anchor="middle" x="618.54" y="-141.5" font-family="Helvetica,sans-Serif" font-size="10.00">type_traits</text>
</a>
</g>
</g>
<!-- Node11&#45;&gt;Node12 -->
<g id="edge15" class="edge">
<title>Node11&#45;&gt;Node12</title>
<path fill="none" stroke="midnightblue" d="M478.84,-190.44C506.89,-181.32 551.48,-166.81 582.72,-156.65"/>
<polygon fill="midnightblue" stroke="midnightblue" points="583.93,-159.94 592.36,-153.52 581.76,-153.28 583.93,-159.94"/>
</g>
<!-- Node13 -->
<g id="node13" class="node">
<title>Node13</title>
<g id="a_node13"><a xlink:title=" ">
<polygon fill="white" stroke="#bfbfbf" points="230.04,-134.5 230.04,-153.5 295.04,-153.5 295.04,-134.5 230.04,-134.5"/>
<text text-anchor="middle" x="262.54" y="-141.5" font-family="Helvetica,sans-Serif" font-size="10.00">functional</text>
</a>
</g>
</g>
<!-- Node11&#45;&gt;Node13 -->
<g id="edge16" class="edge">
<title>Node11&#45;&gt;Node13</title>
<path fill="none" stroke="midnightblue" d="M422.43,-190.44C389.91,-181.2 337.96,-166.44 302.14,-156.26"/>
<polygon fill="midnightblue" stroke="midnightblue" points="303.08,-152.88 292.5,-153.52 301.16,-159.62 303.08,-152.88"/>
</g>
<!-- Node14 -->
<g id="node14" class="node">
<title>Node14</title>
<g id="a_node14"><a xlink:title=" ">
<polygon fill="white" stroke="#bfbfbf" points="430.54,-134.5 430.54,-153.5 474.54,-153.5 474.54,-134.5 430.54,-134.5"/>
<text text-anchor="middle" x="452.54" y="-141.5" font-family="Helvetica,sans-Serif" font-size="10.00">string</text>
</a>
</g>
</g>
<!-- Node11&#45;&gt;Node14 -->
<g id="edge17" class="edge">
<title>Node11&#45;&gt;Node14</title>
<path fill="none" stroke="midnightblue" d="M452.54,-190.08C452.54,-183.01 452.54,-172.86 452.54,-163.99"/>
<polygon fill="midnightblue" stroke="midnightblue" points="456.04,-163.75 452.54,-153.75 449.04,-163.75 456.04,-163.75"/>
</g>
<!-- Node15 -->
<g id="node15" class="node">
<title>Node15</title>
<g id="a_node15"><a xlink:title=" ">
<polygon fill="white" stroke="#bfbfbf" points="493.04,-134.5 493.04,-153.5 566.04,-153.5 566.04,-134.5 493.04,-134.5"/>
<text text-anchor="middle" x="529.54" y="-141.5" font-family="Helvetica,sans-Serif" font-size="10.00">string_view</text>
</a>
</g>
</g>
<!-- Node11&#45;&gt;Node15 -->
<g id="edge18" class="edge">
<title>Node11&#45;&gt;Node15</title>
<path fill="none" stroke="midnightblue" d="M464.91,-190.32C476.69,-182.06 494.67,-169.45 508.67,-159.63"/>
<polygon fill="midnightblue" stroke="midnightblue" points="511.02,-162.26 517.19,-153.65 507,-156.53 511.02,-162.26"/>
</g>
<!-- Node16 -->
<g id="node16" class="node">
<title>Node16</title>
<g id="a_node16"><a xlink:href="tchar_8h.html" target="_top" xlink:title=" ">
<polygon fill="white" stroke="black" points="313.04,-134.5 313.04,-153.5 412.04,-153.5 412.04,-134.5 313.04,-134.5"/>
<text text-anchor="middle" x="362.54" y="-141.5" font-family="Helvetica,sans-Serif" font-size="10.00">log4cplus/tchar.h</text>
</a>
</g>
</g>
<!-- Node11&#45;&gt;Node16 -->
<g id="edge19" class="edge">
<title>Node11&#45;&gt;Node16</title>
<path fill="none" stroke="midnightblue" d="M438.08,-190.32C424.04,-181.9 402.49,-168.97 385.99,-159.07"/>
<polygon fill="midnightblue" stroke="midnightblue" points="387.34,-155.8 376.96,-153.65 383.73,-161.8 387.34,-155.8"/>
</g>
<!-- Node16&#45;&gt;Node2 -->
<g id="edge20" class="edge">
<title>Node16&#45;&gt;Node2</title>
<path fill="none" stroke="midnightblue" d="M412.11,-135.43C415.3,-134.95 418.46,-134.47 421.54,-134 514.73,-119.89 622.5,-103.72 690.33,-93.56"/>
<polygon fill="midnightblue" stroke="midnightblue" points="691.09,-96.98 700.46,-92.04 690.05,-90.06 691.09,-96.98"/>
</g>
<!-- Node17 -->
<g id="node17" class="node">
<title>Node17</title>
<g id="a_node17"><a xlink:title=" ">
<polygon fill="white" stroke="#bfbfbf" points="336.04,-73 336.04,-92 389.04,-92 389.04,-73 336.04,-73"/>
<text text-anchor="middle" x="362.54" y="-80" font-family="Helvetica,sans-Serif" font-size="10.00">cstddef</text>
</a>
</g>
</g>
<!-- Node16&#45;&gt;Node17 -->
<g id="edge21" class="edge">
<title>Node16&#45;&gt;Node17</title>
<path fill="none" stroke="midnightblue" d="M362.54,-134.48C362.54,-126.08 362.54,-112.98 362.54,-102.16"/>
<polygon fill="midnightblue" stroke="midnightblue" points="366.04,-102.01 362.54,-92.01 359.04,-102.01 366.04,-102.01"/>
</g>
<!-- Node18&#45;&gt;Node2 -->
<g id="edge23" class="edge">
<title>Node18&#45;&gt;Node2</title>
<path fill="none" stroke="midnightblue" d="M1023.61,-190.35C1039.08,-177.24 1063.65,-151.96 1048.54,-134 1020.61,-100.82 902.54,-89.44 825.64,-85.54"/>
<polygon fill="midnightblue" stroke="midnightblue" points="825.7,-82.03 815.54,-85.05 825.37,-89.03 825.7,-82.03"/>
</g>
<!-- Node18&#45;&gt;Node19 -->
<g id="edge24" class="edge">
<title>Node18&#45;&gt;Node19</title>
<path fill="none" stroke="midnightblue" d="M1069.1,-190.44C1132.69,-180.83 1235.81,-165.23 1303.15,-155.04"/>
<polygon fill="midnightblue" stroke="midnightblue" points="1303.87,-158.47 1313.23,-153.52 1302.82,-151.55 1303.87,-158.47"/>
</g>
<!-- Node23 -->
<g id="node23" class="node">
<title>Node23</title>
<g id="a_node23"><a xlink:title=" ">
<polygon fill="white" stroke="#bfbfbf" points="1095.54,-134.5 1095.54,-153.5 1159.54,-153.5 1159.54,-134.5 1095.54,-134.5"/>
<text text-anchor="middle" x="1127.54" y="-141.5" font-family="Helvetica,sans-Serif" font-size="10.00">algorithm</text>
</a>
</g>
</g>
<!-- Node18&#45;&gt;Node23 -->
<g id="edge29" class="edge">
<title>Node18&#45;&gt;Node23</title>
<path fill="none" stroke="midnightblue" d="M1030.76,-190.44C1049.43,-181.68 1078.69,-167.94 1100.15,-157.86"/>
<polygon fill="midnightblue" stroke="midnightblue" points="1101.83,-160.93 1109.4,-153.52 1098.86,-154.6 1101.83,-160.93"/>
</g>
<!-- Node24 -->
<g id="node24" class="node">
<title>Node24</title>
<g id="a_node24"><a xlink:title=" ">
<polygon fill="white" stroke="#bfbfbf" points="919.54,-134.5 919.54,-153.5 971.54,-153.5 971.54,-134.5 919.54,-134.5"/>
<text text-anchor="middle" x="945.54" y="-141.5" font-family="Helvetica,sans-Serif" font-size="10.00">cassert</text>
</a>
</g>
</g>
<!-- Node18&#45;&gt;Node24 -->
<g id="edge30" class="edge">
<title>Node18&#45;&gt;Node24</title>
<path fill="none" stroke="midnightblue" d="M1001.77,-190.32C991.77,-182.26 976.65,-170.08 964.61,-160.37"/>
<polygon fill="midnightblue" stroke="midnightblue" points="966.48,-157.38 956.5,-153.83 962.09,-162.83 966.48,-157.38"/>
</g>
<!-- Node25 -->
<g id="node25" class="node">
<title>Node25</title>
<g id="a_node25"><a xlink:title=" ">
<polygon fill="white" stroke="#bfbfbf" points="989.54,-134.5 989.54,-153.5 1039.54,-153.5 1039.54,-134.5 989.54,-134.5"/>
<text text-anchor="middle" x="1014.54" y="-141.5" font-family="Helvetica,sans-Serif" font-size="10.00">atomic</text>
</a>
</g>
</g>
<!-- Node18&#45;&gt;Node25 -->
<g id="edge31" class="edge">
<title>Node18&#45;&gt;Node25</title>
<path fill="none" stroke="midnightblue" d="M1012.87,-190.08C1013.13,-183.01 1013.5,-172.86 1013.83,-163.99"/>
<polygon fill="midnightblue" stroke="midnightblue" points="1017.34,-163.87 1014.21,-153.75 1010.34,-163.61 1017.34,-163.87"/>
</g>
<!-- Node19&#45;&gt;Node2 -->
<g id="edge25" class="edge">
<title>Node19&#45;&gt;Node2</title>
<path fill="none" stroke="midnightblue" d="M1289.53,-135.22C1168.13,-123.42 939.5,-101.19 825.6,-90.12"/>
<polygon fill="midnightblue" stroke="midnightblue" points="825.9,-86.63 815.61,-89.15 825.23,-93.6 825.9,-86.63"/>
</g>
<!-- Node20 -->
<g id="node20" class="node">
<title>Node20</title>
<g id="a_node20"><a xlink:title=" ">
<polygon fill="white" stroke="#bfbfbf" points="1345.54,-73 1345.54,-92 1393.54,-92 1393.54,-73 1345.54,-73"/>
<text text-anchor="middle" x="1369.54" y="-80" font-family="Helvetica,sans-Serif" font-size="10.00">mutex</text>
</a>
</g>
</g>
<!-- Node19&#45;&gt;Node20 -->
<g id="edge26" class="edge">
<title>Node19&#45;&gt;Node20</title>
<path fill="none" stroke="midnightblue" d="M1369.54,-134.48C1369.54,-126.08 1369.54,-112.98 1369.54,-102.16"/>
<polygon fill="midnightblue" stroke="midnightblue" points="1373.04,-102.01 1369.54,-92.01 1366.04,-102.01 1373.04,-102.01"/>
</g>
<!-- Node21 -->
<g id="node21" class="node">
<title>Node21</title>
<g id="a_node21"><a xlink:title=" ">
<polygon fill="white" stroke="#bfbfbf" points="1412.04,-73 1412.04,-92 1519.04,-92 1519.04,-73 1412.04,-73"/>
<text text-anchor="middle" x="1465.54" y="-80" font-family="Helvetica,sans-Serif" font-size="10.00">condition_variable</text>
</a>
</g>
</g>
<!-- Node19&#45;&gt;Node21 -->
<g id="edge27" class="edge">
<title>Node19&#45;&gt;Node21</title>
<path fill="none" stroke="midnightblue" d="M1383.29,-134.48C1398.9,-124.8 1424.6,-108.87 1443.12,-97.39"/>
<polygon fill="midnightblue" stroke="midnightblue" points="1445.15,-100.25 1451.81,-92.01 1441.46,-94.3 1445.15,-100.25"/>
</g>
<!-- Node22 -->
<g id="node22" class="node">
<title>Node22</title>
<g id="a_node22"><a xlink:href="threadsafetyanalysis_8h.html" target="_top" xlink:title=" ">
<polygon fill="white" stroke="black" points="1196.04,-67.5 1196.04,-97.5 1327.04,-97.5 1327.04,-67.5 1196.04,-67.5"/>
<text text-anchor="start" x="1204.04" y="-85.5" font-family="Helvetica,sans-Serif" font-size="10.00">log4cplus/internal</text>
<text text-anchor="middle" x="1261.54" y="-74.5" font-family="Helvetica,sans-Serif" font-size="10.00">/threadsafetyanalysis.h</text>
</a>
</g>
</g>
<!-- Node19&#45;&gt;Node22 -->
<g id="edge28" class="edge">
<title>Node19&#45;&gt;Node22</title>
<path fill="none" stroke="midnightblue" d="M1354.06,-134.48C1338.96,-126.15 1315.46,-113.21 1295.92,-102.45"/>
<polygon fill="midnightblue" stroke="midnightblue" points="1297.44,-99.28 1286.99,-97.52 1294.06,-105.41 1297.44,-99.28"/>
</g>
<!-- Node26&#45;&gt;Node2 -->
<g id="edge33" class="edge">
<title>Node26&#45;&gt;Node2</title>
<path fill="none" stroke="midnightblue" d="M71.21,-246.46C32.69,-236.58 -15.83,-217.99 5.54,-190 62.85,-114.93 117.6,-150.85 210.54,-134 381.04,-103.09 585.07,-90.61 689.14,-85.98"/>
<polygon fill="midnightblue" stroke="midnightblue" points="689.36,-89.47 699.2,-85.54 689.05,-82.48 689.36,-89.47"/>
</g>
<!-- Node26&#45;&gt;Node5 -->
<g id="edge36" class="edge">
<title>Node26&#45;&gt;Node5</title>
<path fill="none" stroke="midnightblue" d="M100.65,-246.32C89.39,-238.11 72.25,-225.6 58.83,-215.81"/>
<polygon fill="midnightblue" stroke="midnightblue" points="60.78,-212.9 50.64,-209.83 56.66,-218.56 60.78,-212.9"/>
</g>
<!-- Node26&#45;&gt;Node11 -->
<g id="edge34" class="edge">
<title>Node26&#45;&gt;Node11</title>
<path fill="none" stroke="midnightblue" d="M158.74,-247.66C218.24,-238.21 321.92,-221.75 388.85,-211.11"/>
<polygon fill="midnightblue" stroke="midnightblue" points="389.53,-214.55 398.86,-209.52 388.44,-207.64 389.53,-214.55"/>
</g>
<!-- Node27 -->
<g id="node27" class="node">
<title>Node27</title>
<g id="a_node27"><a xlink:title=" ">
<polygon fill="white" stroke="#bfbfbf" points="80.54,-190.5 80.54,-209.5 118.54,-209.5 118.54,-190.5 80.54,-190.5"/>
<text text-anchor="middle" x="99.54" y="-197.5" font-family="Helvetica,sans-Serif" font-size="10.00">map</text>
</a>
</g>
</g>
<!-- Node26&#45;&gt;Node27 -->
<g id="edge35" class="edge">
<title>Node26&#45;&gt;Node27</title>
<path fill="none" stroke="midnightblue" d="M110.39,-246.08C108.67,-238.93 106.19,-228.64 104.04,-219.69"/>
<polygon fill="midnightblue" stroke="midnightblue" points="107.39,-218.65 101.64,-209.75 100.58,-220.29 107.39,-218.65"/>
</g>
<!-- Node28&#45;&gt;Node2 -->
<g id="edge38" class="edge">
<title>Node28&#45;&gt;Node2</title>
<path fill="none" stroke="midnightblue" d="M309.29,-246.13C315.76,-232.74 325.26,-207.1 313.54,-190 286.26,-150.2 188.06,-169.68 220.54,-134 251.52,-99.97 551.56,-88.42 689.18,-84.9"/>
<polygon fill="midnightblue" stroke="midnightblue" points="689.29,-88.4 699.2,-84.65 689.12,-81.4 689.29,-88.4"/>
</g>
<!-- Node28&#45;&gt;Node5 -->
<g id="edge44" class="edge">
<title>Node28&#45;&gt;Node5</title>
<path fill="none" stroke="midnightblue" d="M256.12,-246.75C210.96,-238.81 141.52,-225.96 72.07,-209.98"/>
<polygon fill="midnightblue" stroke="midnightblue" points="72.81,-206.56 62.27,-207.7 71.22,-213.38 72.81,-206.56"/>
</g>
<!-- Node28&#45;&gt;Node11 -->
<g id="edge39" class="edge">
<title>Node28&#45;&gt;Node11</title>
<path fill="none" stroke="midnightblue" d="M327.99,-246.44C352.67,-237.44 391.72,-223.19 419.51,-213.05"/>
<polygon fill="midnightblue" stroke="midnightblue" points="421,-216.23 429.19,-209.52 418.6,-209.66 421,-216.23"/>
</g>
<!-- Node28&#45;&gt;Node13 -->
<g id="edge42" class="edge">
<title>Node28&#45;&gt;Node13</title>
<path fill="none" stroke="midnightblue" d="M317,-246.5C333.43,-234.19 358.89,-210.63 346.54,-190 337.23,-174.46 320.51,-163.98 304.43,-157.07"/>
<polygon fill="midnightblue" stroke="midnightblue" points="305.68,-153.8 295.1,-153.41 303.13,-160.32 305.68,-153.8"/>
</g>
<!-- Node28&#45;&gt;Node27 -->
<g id="edge40" class="edge">
<title>Node28&#45;&gt;Node27</title>
<path fill="none" stroke="midnightblue" d="M268.09,-246.43C234.21,-238.32 182.15,-225.45 128.45,-210.14"/>
<polygon fill="midnightblue" stroke="midnightblue" points="129.34,-206.75 118.77,-207.35 127.41,-213.48 129.34,-206.75"/>
</g>
<!-- Node29 -->
<g id="node29" class="node">
<title>Node29</title>
<g id="a_node29"><a xlink:title=" ">
<polygon fill="white" stroke="#bfbfbf" points="137.04,-190.5 137.04,-209.5 230.04,-209.5 230.04,-190.5 137.04,-190.5"/>
<text text-anchor="middle" x="183.54" y="-197.5" font-family="Helvetica,sans-Serif" font-size="10.00">unordered_map</text>
</a>
</g>
</g>
<!-- Node28&#45;&gt;Node29 -->
<g id="edge41" class="edge">
<title>Node28&#45;&gt;Node29</title>
<path fill="none" stroke="midnightblue" d="M285.36,-246.44C265.63,-237.64 234.65,-223.81 212.04,-213.72"/>
<polygon fill="midnightblue" stroke="midnightblue" points="213.18,-210.4 202.62,-209.52 210.32,-216.79 213.18,-210.4"/>
</g>
<!-- Node30 -->
<g id="node30" class="node">
<title>Node30</title>
<g id="a_node30"><a xlink:title=" ">
<polygon fill="white" stroke="#bfbfbf" points="248.54,-190.5 248.54,-209.5 304.54,-209.5 304.54,-190.5 248.54,-190.5"/>
<text text-anchor="middle" x="276.54" y="-197.5" font-family="Helvetica,sans-Serif" font-size="10.00">optional</text>
</a>
</g>
</g>
<!-- Node28&#45;&gt;Node30 -->
<g id="edge43" class="edge">
<title>Node28&#45;&gt;Node30</title>
<path fill="none" stroke="midnightblue" d="M299.91,-246.08C296.08,-238.69 290.51,-227.95 285.77,-218.81"/>
<polygon fill="midnightblue" stroke="midnightblue" points="288.78,-217.02 281.07,-209.75 282.57,-220.24 288.78,-217.02"/>
</g>
<!-- Node31&#45;&gt;Node2 -->
<g id="edge47" class="edge">
<title>Node31&#45;&gt;Node2</title>
<path fill="none" stroke="midnightblue" d="M602.71,-246.5C613.93,-237.78 631.52,-223.6 645.54,-210 683.59,-173.07 723.76,-125.21 744.07,-100.27"/>
<polygon fill="midnightblue" stroke="midnightblue" points="747.04,-102.16 750.62,-92.19 741.6,-97.76 747.04,-102.16"/>
</g>
<!-- Node31&#45;&gt;Node11 -->
<g id="edge48" class="edge">
<title>Node31&#45;&gt;Node11</title>
<path fill="none" stroke="midnightblue" d="M569.51,-246.44C546.43,-237.48 509.97,-223.31 483.89,-213.18"/>
<polygon fill="midnightblue" stroke="midnightblue" points="485.05,-209.88 474.46,-209.52 482.51,-216.4 485.05,-209.88"/>
</g>
<!-- Node32 -->
<g id="node32" class="node">
<title>Node32</title>
<g id="a_node32"><a xlink:title=" ">
<polygon fill="white" stroke="#bfbfbf" points="592.54,-190.5 592.54,-209.5 636.54,-209.5 636.54,-190.5 592.54,-190.5"/>
<text text-anchor="middle" x="614.54" y="-197.5" font-family="Helvetica,sans-Serif" font-size="10.00">ctime</text>
</a>
</g>
</g>
<!-- Node31&#45;&gt;Node32 -->
<g id="edge49" class="edge">
<title>Node31&#45;&gt;Node32</title>
<path fill="none" stroke="midnightblue" d="M595.33,-246.08C598.45,-238.77 602.96,-228.18 606.82,-219.1"/>
<polygon fill="midnightblue" stroke="midnightblue" points="610.11,-220.32 610.81,-209.75 603.67,-217.58 610.11,-220.32"/>
</g>
<!-- Node33 -->
<g id="node33" class="node">
<title>Node33</title>
<g id="a_node33"><a xlink:title=" ">
<polygon fill="white" stroke="#bfbfbf" points="524.54,-190.5 524.54,-209.5 574.54,-209.5 574.54,-190.5 524.54,-190.5"/>
<text text-anchor="middle" x="549.54" y="-197.5" font-family="Helvetica,sans-Serif" font-size="10.00">chrono</text>
</a>
</g>
</g>
<!-- Node31&#45;&gt;Node33 -->
<g id="edge50" class="edge">
<title>Node31&#45;&gt;Node33</title>
<path fill="none" stroke="midnightblue" d="M584.6,-246.08C578.61,-238.38 569.78,-227.03 562.49,-217.65"/>
<polygon fill="midnightblue" stroke="midnightblue" points="565.24,-215.5 556.34,-209.75 559.72,-219.79 565.24,-215.5"/>
</g>
<!-- Node34&#45;&gt;Node2 -->
<g id="edge52" class="edge">
<title>Node34&#45;&gt;Node2</title>
<path fill="none" stroke="midnightblue" d="M1128.34,-246.45C1143.48,-239.22 1162.49,-227.26 1171.54,-210 1179.42,-194.94 1186.18,-152.9 1168.54,-134 1145.58,-109.41 936.52,-93.78 825.74,-87.16"/>
<polygon fill="midnightblue" stroke="midnightblue" points="825.85,-83.66 815.66,-86.56 825.43,-90.65 825.85,-83.66"/>
</g>
<!-- Node34&#45;&gt;Node7 -->
<g id="edge53" class="edge">
<title>Node34&#45;&gt;Node7</title>
<path fill="none" stroke="midnightblue" d="M1110.99,-246.08C1114.69,-238.69 1120.06,-227.95 1124.63,-218.81"/>
<polygon fill="midnightblue" stroke="midnightblue" points="1127.82,-220.26 1129.16,-209.75 1121.56,-217.13 1127.82,-220.26"/>
</g>
<!-- Node34&#45;&gt;Node11 -->
<g id="edge55" class="edge">
<title>Node34&#45;&gt;Node11</title>
<path fill="none" stroke="midnightblue" d="M1033.14,-250.97C923.18,-244.59 708.93,-230.82 516.16,-209.99"/>
<polygon fill="midnightblue" stroke="midnightblue" points="516.44,-206.5 506.12,-208.9 515.68,-213.46 516.44,-206.5"/>
</g>
<!-- Node34&#45;&gt;Node18 -->
<g id="edge56" class="edge">
<title>Node34&#45;&gt;Node18</title>
<path fill="none" stroke="midnightblue" d="M1091.43,-246.32C1076.63,-237.82 1053.84,-224.73 1036.55,-214.8"/>
<polygon fill="midnightblue" stroke="midnightblue" points="1038.02,-211.6 1027.6,-209.65 1034.53,-217.67 1038.02,-211.6"/>
</g>
<!-- Node35 -->
<g id="node35" class="node">
<title>Node35</title>
<g id="a_node35"><a xlink:title=" ">
<polygon fill="white" stroke="#bfbfbf" points="1218.54,-190.5 1218.54,-209.5 1266.54,-209.5 1266.54,-190.5 1218.54,-190.5"/>
<text text-anchor="middle" x="1242.54" y="-197.5" font-family="Helvetica,sans-Serif" font-size="10.00">thread</text>
</a>
</g>
</g>
<!-- Node34&#45;&gt;Node35 -->
<g id="edge54" class="edge">
<title>Node34&#45;&gt;Node35</title>
<path fill="none" stroke="midnightblue" d="M1128.09,-246.44C1150.57,-237.52 1186.02,-223.44 1211.52,-213.32"/>
<polygon fill="midnightblue" stroke="midnightblue" points="1213.08,-216.46 1221.09,-209.52 1210.5,-209.95 1213.08,-216.46"/>
</g>
</g>
</svg>
