<?xml version="1.0" encoding="UTF-8" standalone="no"?>
<!DOCTYPE svg PUBLIC "-//W3C//DTD SVG 1.1//EN"
 "http://www.w3.org/Graphics/SVG/1.1/DTD/svg11.dtd">
<!-- Generated by graphviz version 2.43.0 (0)
 -->
<!-- Title: rootlogger.h Pages: 1 -->
<svg width="1859pt" height="610pt"
 viewBox="0.00 0.00 1858.50 610.00" xmlns="http://www.w3.org/2000/svg" xmlns:xlink="http://www.w3.org/1999/xlink">
<g id="graph0" class="graph" transform="scale(1 1) rotate(0) translate(4 606)">
<title>rootlogger.h</title>
<polygon fill="white" stroke="transparent" points="-4,4 -4,-606 1854.5,-606 1854.5,4 -4,4"/>
<!-- Node1 -->
<g id="node1" class="node">
<title>Node1</title>
<g id="a_node1"><a xlink:title=" ">
<polygon fill="#bfbfbf" stroke="black" points="19.5,-582.5 19.5,-601.5 94.5,-601.5 94.5,-582.5 19.5,-582.5"/>
<text text-anchor="middle" x="57" y="-589.5" font-family="Helvetica,sans-Serif" font-size="10.00">rootlogger.h</text>
</a>
</g>
</g>
<!-- Node2 -->
<g id="node2" class="node">
<title>Node2</title>
<g id="a_node2"><a xlink:href="config_8hxx.html" target="_top" xlink:title=" ">
<polygon fill="white" stroke="black" points="742,-73 742,-92 858,-92 858,-73 742,-73"/>
<text text-anchor="middle" x="800" y="-80" font-family="Helvetica,sans-Serif" font-size="10.00">log4cplus/config.hxx</text>
</a>
</g>
</g>
<!-- Node1&#45;&gt;Node2 -->
<g id="edge1" class="edge">
<title>Node1&#45;&gt;Node2</title>
<path fill="none" stroke="midnightblue" d="M48.83,-582.38C33.07,-564.81 0,-522.94 0,-481 0,-481 0,-481 0,-199 0,-158.46 27.16,-150.93 64,-134 123.7,-106.56 560.5,-90.67 731.57,-85.44"/>
<polygon fill="midnightblue" stroke="midnightblue" points="731.82,-88.93 741.71,-85.13 731.61,-81.93 731.82,-88.93"/>
</g>
<!-- Node5 -->
<g id="node5" class="node">
<title>Node5</title>
<g id="a_node5"><a xlink:href="loggerimpl_8h.html" target="_top" xlink:title=" ">
<polygon fill="white" stroke="black" points="354.5,-526.5 354.5,-545.5 499.5,-545.5 499.5,-526.5 354.5,-526.5"/>
<text text-anchor="middle" x="427" y="-533.5" font-family="Helvetica,sans-Serif" font-size="10.00">log4cplus/spi/loggerimpl.h</text>
</a>
</g>
</g>
<!-- Node1&#45;&gt;Node5 -->
<g id="edge4" class="edge">
<title>Node1&#45;&gt;Node5</title>
<path fill="none" stroke="midnightblue" d="M94.51,-585.53C156.32,-576.51 280.44,-558.39 358.3,-547.03"/>
<polygon fill="midnightblue" stroke="midnightblue" points="359.11,-550.44 368.5,-545.54 358.1,-543.52 359.11,-550.44"/>
</g>
<!-- Node3 -->
<g id="node3" class="node">
<title>Node3</title>
<g id="a_node3"><a xlink:href="win32_8h.html" target="_top" xlink:title=" ">
<polygon fill="white" stroke="black" points="654.5,-6 654.5,-25 791.5,-25 791.5,-6 654.5,-6"/>
<text text-anchor="middle" x="723" y="-13" font-family="Helvetica,sans-Serif" font-size="10.00">log4cplus/config/win32.h</text>
</a>
</g>
</g>
<!-- Node2&#45;&gt;Node3 -->
<g id="edge2" class="edge">
<title>Node2&#45;&gt;Node3</title>
<path fill="none" stroke="midnightblue" d="M789.62,-72.73C777.15,-62.21 756.03,-44.38 740.91,-31.62"/>
<polygon fill="midnightblue" stroke="midnightblue" points="743.12,-28.9 733.22,-25.13 738.6,-34.25 743.12,-28.9"/>
</g>
<!-- Node4 -->
<g id="node4" class="node">
<title>Node4</title>
<g id="a_node4"><a xlink:href="thread-config_8h.html" target="_top" xlink:title=" ">
<polygon fill="white" stroke="black" points="809.5,-0.5 809.5,-30.5 946.5,-30.5 946.5,-0.5 809.5,-0.5"/>
<text text-anchor="start" x="817.5" y="-18.5" font-family="Helvetica,sans-Serif" font-size="10.00">log4cplus/helpers/thread</text>
<text text-anchor="middle" x="878" y="-7.5" font-family="Helvetica,sans-Serif" font-size="10.00">&#45;config.h</text>
</a>
</g>
</g>
<!-- Node2&#45;&gt;Node4 -->
<g id="edge3" class="edge">
<title>Node2&#45;&gt;Node4</title>
<path fill="none" stroke="midnightblue" d="M810.52,-72.73C821.36,-63.7 838.67,-49.27 853.04,-37.3"/>
<polygon fill="midnightblue" stroke="midnightblue" points="855.65,-39.68 861.09,-30.59 851.17,-34.3 855.65,-39.68"/>
</g>
<!-- Node5&#45;&gt;Node2 -->
<g id="edge5" class="edge">
<title>Node5&#45;&gt;Node2</title>
<path fill="none" stroke="midnightblue" d="M354.4,-529.09C276.2,-521.92 157.42,-508.46 116,-490 74.78,-471.63 38,-470.13 38,-425 38,-425 38,-425 38,-199 38,-139.9 97.44,-151.15 154,-134 260.47,-101.72 588.07,-89.17 731.52,-85.14"/>
<polygon fill="midnightblue" stroke="midnightblue" points="732.04,-88.63 741.94,-84.85 731.85,-81.63 732.04,-88.63"/>
</g>
<!-- Node6 -->
<g id="node6" class="node">
<title>Node6</title>
<g id="a_node6"><a xlink:href="tstring_8h.html" target="_top" xlink:title=" ">
<polygon fill="white" stroke="black" points="1171.5,-190.5 1171.5,-209.5 1278.5,-209.5 1278.5,-190.5 1171.5,-190.5"/>
<text text-anchor="middle" x="1225" y="-197.5" font-family="Helvetica,sans-Serif" font-size="10.00">log4cplus/tstring.h</text>
</a>
</g>
</g>
<!-- Node5&#45;&gt;Node6 -->
<g id="edge6" class="edge">
<title>Node5&#45;&gt;Node6</title>
<path fill="none" stroke="midnightblue" d="M499.62,-531.71C612.56,-525.98 824.83,-512.56 897,-490 1042.86,-444.41 1087.06,-428.14 1197,-322 1217.95,-301.78 1223.15,-294.04 1231,-266 1235.29,-250.65 1233.06,-232.55 1230.17,-219.36"/>
<polygon fill="midnightblue" stroke="midnightblue" points="1233.55,-218.44 1227.73,-209.59 1226.76,-220.14 1233.55,-218.44"/>
</g>
<!-- Node13 -->
<g id="node13" class="node">
<title>Node13</title>
<g id="a_node13"><a xlink:href="appenderattachableimpl_8h.html" target="_top" xlink:title=" ">
<polygon fill="white" stroke="black" points="467.5,-470.5 467.5,-489.5 700.5,-489.5 700.5,-470.5 467.5,-470.5"/>
<text text-anchor="middle" x="584" y="-477.5" font-family="Helvetica,sans-Serif" font-size="10.00">log4cplus/helpers/appenderattachableimpl.h</text>
</a>
</g>
</g>
<!-- Node5&#45;&gt;Node13 -->
<g id="edge15" class="edge">
<title>Node5&#45;&gt;Node13</title>
<path fill="none" stroke="midnightblue" d="M451.88,-526.44C478.29,-517.36 520.22,-502.94 549.74,-492.78"/>
<polygon fill="midnightblue" stroke="midnightblue" points="550.92,-496.08 559.24,-489.52 548.64,-489.46 550.92,-496.08"/>
</g>
<!-- Node14 -->
<g id="node14" class="node">
<title>Node14</title>
<g id="a_node14"><a xlink:href="pointer_8h.html" target="_top" xlink:title=" ">
<polygon fill="white" stroke="black" points="242,-190.5 242,-209.5 390,-209.5 390,-190.5 242,-190.5"/>
<text text-anchor="middle" x="316" y="-197.5" font-family="Helvetica,sans-Serif" font-size="10.00">log4cplus/helpers/pointer.h</text>
</a>
</g>
</g>
<!-- Node5&#45;&gt;Node14 -->
<g id="edge75" class="edge">
<title>Node5&#45;&gt;Node14</title>
<path fill="none" stroke="midnightblue" d="M421.8,-526.12C402.84,-493.15 337.46,-374.07 317,-266 314.08,-250.56 314.04,-232.69 314.61,-219.6"/>
<polygon fill="midnightblue" stroke="midnightblue" points="318.11,-219.7 315.21,-209.51 311.12,-219.28 318.11,-219.7"/>
</g>
<!-- Node26 -->
<g id="node26" class="node">
<title>Node26</title>
<g id="a_node26"><a xlink:title=" ">
<polygon fill="white" stroke="#bfbfbf" points="166.5,-190.5 166.5,-209.5 213.5,-209.5 213.5,-190.5 166.5,-190.5"/>
<text text-anchor="middle" x="190" y="-197.5" font-family="Helvetica,sans-Serif" font-size="10.00">vector</text>
</a>
</g>
</g>
<!-- Node5&#45;&gt;Node26 -->
<g id="edge80" class="edge">
<title>Node5&#45;&gt;Node26</title>
<path fill="none" stroke="midnightblue" d="M354.27,-527.09C251.46,-513.85 76,-482.79 76,-425 76,-425 76,-425 76,-311 76,-264.11 126.55,-230.89 160.33,-213.93"/>
<polygon fill="midnightblue" stroke="midnightblue" points="161.87,-217.07 169.36,-209.58 158.83,-210.77 161.87,-217.07"/>
</g>
<!-- Node27 -->
<g id="node27" class="node">
<title>Node27</title>
<g id="a_node27"><a xlink:title=" ">
<polygon fill="white" stroke="#bfbfbf" points="749,-190.5 749,-209.5 807,-209.5 807,-190.5 749,-190.5"/>
<text text-anchor="middle" x="778" y="-197.5" font-family="Helvetica,sans-Serif" font-size="10.00">memory</text>
</a>
</g>
</g>
<!-- Node5&#45;&gt;Node27 -->
<g id="edge79" class="edge">
<title>Node5&#45;&gt;Node27</title>
<path fill="none" stroke="midnightblue" d="M499.56,-532.63C633.08,-526.56 909.38,-505.47 967,-434 1034.46,-350.33 870.37,-250.16 804.18,-214.45"/>
<polygon fill="midnightblue" stroke="midnightblue" points="805.64,-211.26 795.17,-209.66 802.35,-217.44 805.64,-211.26"/>
</g>
<!-- Node36 -->
<g id="node36" class="node">
<title>Node36</title>
<g id="a_node36"><a xlink:href="loggerfactory_8h.html" target="_top" xlink:title=" ">
<polygon fill="white" stroke="black" points="1332,-246.5 1332,-265.5 1488,-265.5 1488,-246.5 1332,-246.5"/>
<text text-anchor="middle" x="1410" y="-253.5" font-family="Helvetica,sans-Serif" font-size="10.00">log4cplus/spi/loggerfactory.h</text>
</a>
</g>
</g>
<!-- Node5&#45;&gt;Node36 -->
<g id="edge76" class="edge">
<title>Node5&#45;&gt;Node36</title>
<path fill="none" stroke="midnightblue" d="M499.65,-533.85C720.7,-530.09 1372.43,-516.74 1409,-490 1433.86,-471.82 1433,-455.8 1433,-425 1433,-425 1433,-425 1433,-367 1433,-334.12 1423.03,-296.86 1416.22,-275.24"/>
<polygon fill="midnightblue" stroke="midnightblue" points="1419.54,-274.12 1413.1,-265.71 1412.89,-276.3 1419.54,-274.12"/>
</g>
<!-- Node6&#45;&gt;Node2 -->
<g id="edge7" class="edge">
<title>Node6&#45;&gt;Node2</title>
<path fill="none" stroke="midnightblue" d="M1188.01,-190.48C1155.02,-182.46 1105.65,-169.39 1064,-154 1044.23,-146.69 1040.94,-140.83 1021,-134 968.21,-115.92 906.11,-102.38 861.2,-93.89"/>
<polygon fill="midnightblue" stroke="midnightblue" points="861.79,-90.44 851.32,-92.05 860.51,-97.32 861.79,-90.44"/>
</g>
<!-- Node7 -->
<g id="node7" class="node">
<title>Node7</title>
<g id="a_node7"><a xlink:title=" ">
<polygon fill="white" stroke="#bfbfbf" points="1190.5,-134.5 1190.5,-153.5 1259.5,-153.5 1259.5,-134.5 1190.5,-134.5"/>
<text text-anchor="middle" x="1225" y="-141.5" font-family="Helvetica,sans-Serif" font-size="10.00">type_traits</text>
</a>
</g>
</g>
<!-- Node6&#45;&gt;Node7 -->
<g id="edge8" class="edge">
<title>Node6&#45;&gt;Node7</title>
<path fill="none" stroke="midnightblue" d="M1225,-190.08C1225,-183.01 1225,-172.86 1225,-163.99"/>
<polygon fill="midnightblue" stroke="midnightblue" points="1228.5,-163.75 1225,-153.75 1221.5,-163.75 1228.5,-163.75"/>
</g>
<!-- Node8 -->
<g id="node8" class="node">
<title>Node8</title>
<g id="a_node8"><a xlink:title=" ">
<polygon fill="white" stroke="#bfbfbf" points="847.5,-134.5 847.5,-153.5 912.5,-153.5 912.5,-134.5 847.5,-134.5"/>
<text text-anchor="middle" x="880" y="-141.5" font-family="Helvetica,sans-Serif" font-size="10.00">functional</text>
</a>
</g>
</g>
<!-- Node6&#45;&gt;Node8 -->
<g id="edge9" class="edge">
<title>Node6&#45;&gt;Node8</title>
<path fill="none" stroke="midnightblue" d="M1171.35,-191.45C1101.62,-181.57 982.64,-164.47 922.37,-153.94"/>
<polygon fill="midnightblue" stroke="midnightblue" points="922.98,-150.49 912.52,-152.18 921.75,-157.38 922.98,-150.49"/>
</g>
<!-- Node9 -->
<g id="node9" class="node">
<title>Node9</title>
<g id="a_node9"><a xlink:title=" ">
<polygon fill="white" stroke="#bfbfbf" points="1278,-134.5 1278,-153.5 1322,-153.5 1322,-134.5 1278,-134.5"/>
<text text-anchor="middle" x="1300" y="-141.5" font-family="Helvetica,sans-Serif" font-size="10.00">string</text>
</a>
</g>
</g>
<!-- Node6&#45;&gt;Node9 -->
<g id="edge10" class="edge">
<title>Node6&#45;&gt;Node9</title>
<path fill="none" stroke="midnightblue" d="M1237.05,-190.32C1248.46,-182.11 1265.83,-169.6 1279.43,-159.81"/>
<polygon fill="midnightblue" stroke="midnightblue" points="1281.66,-162.52 1287.73,-153.83 1277.57,-156.84 1281.66,-162.52"/>
</g>
<!-- Node10 -->
<g id="node10" class="node">
<title>Node10</title>
<g id="a_node10"><a xlink:title=" ">
<polygon fill="white" stroke="#bfbfbf" points="1340.5,-134.5 1340.5,-153.5 1413.5,-153.5 1413.5,-134.5 1340.5,-134.5"/>
<text text-anchor="middle" x="1377" y="-141.5" font-family="Helvetica,sans-Serif" font-size="10.00">string_view</text>
</a>
</g>
</g>
<!-- Node6&#45;&gt;Node10 -->
<g id="edge11" class="edge">
<title>Node6&#45;&gt;Node10</title>
<path fill="none" stroke="midnightblue" d="M1249.08,-190.44C1274.54,-181.4 1314.89,-167.06 1343.46,-156.92"/>
<polygon fill="midnightblue" stroke="midnightblue" points="1344.78,-160.16 1353.03,-153.52 1342.43,-153.57 1344.78,-160.16"/>
</g>
<!-- Node11 -->
<g id="node11" class="node">
<title>Node11</title>
<g id="a_node11"><a xlink:href="tchar_8h.html" target="_top" xlink:title=" ">
<polygon fill="white" stroke="black" points="1073.5,-134.5 1073.5,-153.5 1172.5,-153.5 1172.5,-134.5 1073.5,-134.5"/>
<text text-anchor="middle" x="1123" y="-141.5" font-family="Helvetica,sans-Serif" font-size="10.00">log4cplus/tchar.h</text>
</a>
</g>
</g>
<!-- Node6&#45;&gt;Node11 -->
<g id="edge12" class="edge">
<title>Node6&#45;&gt;Node11</title>
<path fill="none" stroke="midnightblue" d="M1208.61,-190.32C1192.33,-181.7 1167.13,-168.36 1148.28,-158.39"/>
<polygon fill="midnightblue" stroke="midnightblue" points="1149.82,-155.24 1139.35,-153.65 1146.55,-161.43 1149.82,-155.24"/>
</g>
<!-- Node11&#45;&gt;Node2 -->
<g id="edge13" class="edge">
<title>Node11&#45;&gt;Node2</title>
<path fill="none" stroke="midnightblue" d="M1076.72,-134.48C1018.56,-123.76 918.79,-105.38 856.27,-93.87"/>
<polygon fill="midnightblue" stroke="midnightblue" points="856.66,-90.38 846.19,-92.01 855.39,-97.26 856.66,-90.38"/>
</g>
<!-- Node12 -->
<g id="node12" class="node">
<title>Node12</title>
<g id="a_node12"><a xlink:title=" ">
<polygon fill="white" stroke="#bfbfbf" points="1096.5,-73 1096.5,-92 1149.5,-92 1149.5,-73 1096.5,-73"/>
<text text-anchor="middle" x="1123" y="-80" font-family="Helvetica,sans-Serif" font-size="10.00">cstddef</text>
</a>
</g>
</g>
<!-- Node11&#45;&gt;Node12 -->
<g id="edge14" class="edge">
<title>Node11&#45;&gt;Node12</title>
<path fill="none" stroke="midnightblue" d="M1123,-134.48C1123,-126.08 1123,-112.98 1123,-102.16"/>
<polygon fill="midnightblue" stroke="midnightblue" points="1126.5,-102.01 1123,-92.01 1119.5,-102.01 1126.5,-102.01"/>
</g>
<!-- Node13&#45;&gt;Node2 -->
<g id="edge16" class="edge">
<title>Node13&#45;&gt;Node2</title>
<path fill="none" stroke="midnightblue" d="M541.72,-470.45C509.62,-463.1 464.87,-450.98 428,-434 270.62,-361.5 39.89,-237.31 179,-134 222.58,-101.63 579.73,-88.97 731.83,-85.02"/>
<polygon fill="midnightblue" stroke="midnightblue" points="732.07,-88.51 741.98,-84.76 731.89,-81.51 732.07,-88.51"/>
</g>
<!-- Node13&#45;&gt;Node6 -->
<g id="edge17" class="edge">
<title>Node13&#45;&gt;Node6</title>
<path fill="none" stroke="midnightblue" d="M700.9,-478.37C778.31,-474.81 881.03,-463.98 967,-434 1092.01,-390.4 1147.09,-380.82 1213,-266 1221.12,-251.85 1223.92,-233.37 1224.81,-219.73"/>
<polygon fill="midnightblue" stroke="midnightblue" points="1228.31,-219.73 1225.18,-209.61 1221.32,-219.48 1228.31,-219.73"/>
</g>
<!-- Node13&#45;&gt;Node14 -->
<g id="edge18" class="edge">
<title>Node13&#45;&gt;Node14</title>
<path fill="none" stroke="midnightblue" d="M566.33,-470.42C525.22,-449.75 421.79,-393.58 357,-322 337.91,-300.91 335.19,-292.92 326,-266 320.86,-250.96 318.36,-233.05 317.14,-219.85"/>
<polygon fill="midnightblue" stroke="midnightblue" points="320.61,-219.35 316.36,-209.64 313.63,-219.88 320.61,-219.35"/>
</g>
<!-- Node15 -->
<g id="node15" class="node">
<title>Node15</title>
<g id="a_node15"><a xlink:href="syncprims_8h.html" target="_top" xlink:title=" ">
<polygon fill="white" stroke="black" points="1571,-134.5 1571,-153.5 1731,-153.5 1731,-134.5 1571,-134.5"/>
<text text-anchor="middle" x="1651" y="-141.5" font-family="Helvetica,sans-Serif" font-size="10.00">log4cplus/thread/syncprims.h</text>
</a>
</g>
</g>
<!-- Node13&#45;&gt;Node15 -->
<g id="edge72" class="edge">
<title>Node13&#45;&gt;Node15</title>
<path fill="none" stroke="midnightblue" d="M699.3,-470.49C785.29,-463.25 905.44,-451.27 1010,-434 1312.47,-384.05 1498.67,-513.92 1679,-266 1701.94,-234.46 1678.48,-187.08 1662.74,-161.99"/>
<polygon fill="midnightblue" stroke="midnightblue" points="1665.61,-159.99 1657.2,-153.55 1659.76,-163.83 1665.61,-159.99"/>
</g>
<!-- Node22 -->
<g id="node22" class="node">
<title>Node22</title>
<g id="a_node22"><a xlink:href="appenderattachable_8h.html" target="_top" xlink:title=" ">
<polygon fill="white" stroke="black" points="768,-414.5 768,-433.5 958,-433.5 958,-414.5 768,-414.5"/>
<text text-anchor="middle" x="863" y="-421.5" font-family="Helvetica,sans-Serif" font-size="10.00">log4cplus/spi/appenderattachable.h</text>
</a>
</g>
</g>
<!-- Node13&#45;&gt;Node22 -->
<g id="edge28" class="edge">
<title>Node13&#45;&gt;Node22</title>
<path fill="none" stroke="midnightblue" d="M628.21,-470.44C677.29,-460.94 756.51,-445.61 809.16,-435.42"/>
<polygon fill="midnightblue" stroke="midnightblue" points="809.85,-438.85 819,-433.52 808.52,-431.98 809.85,-438.85"/>
</g>
<!-- Node13&#45;&gt;Node26 -->
<g id="edge74" class="edge">
<title>Node13&#45;&gt;Node26</title>
<path fill="none" stroke="midnightblue" d="M554.85,-470.46C530.32,-462.68 494.75,-449.97 466,-434 358.15,-374.07 334.49,-350.93 245,-266 228.99,-250.81 212.95,-231.23 202.36,-217.55"/>
<polygon fill="midnightblue" stroke="midnightblue" points="205.08,-215.35 196.24,-209.51 199.51,-219.59 205.08,-215.35"/>
</g>
<!-- Node13&#45;&gt;Node27 -->
<g id="edge73" class="edge">
<title>Node13&#45;&gt;Node27</title>
<path fill="none" stroke="midnightblue" d="M620.58,-470.46C666.68,-457.27 740,-427.16 740,-369 740,-369 740,-369 740,-311 740,-276.81 756.6,-239.76 767.86,-218.57"/>
<polygon fill="midnightblue" stroke="midnightblue" points="770.95,-220.22 772.72,-209.77 764.82,-216.83 770.95,-220.22"/>
</g>
<!-- Node14&#45;&gt;Node2 -->
<g id="edge19" class="edge">
<title>Node14&#45;&gt;Node2</title>
<path fill="none" stroke="midnightblue" d="M320.15,-190.46C327.67,-176.05 345,-147.16 369,-134 429.81,-100.65 626.09,-89.15 731.52,-85.32"/>
<polygon fill="midnightblue" stroke="midnightblue" points="731.87,-88.81 741.75,-84.96 731.63,-81.81 731.87,-88.81"/>
</g>
<!-- Node14&#45;&gt;Node15 -->
<g id="edge20" class="edge">
<title>Node14&#45;&gt;Node15</title>
<path fill="none" stroke="midnightblue" d="M390.16,-196C618.73,-186.75 1312.02,-158.71 1560.87,-148.65"/>
<polygon fill="midnightblue" stroke="midnightblue" points="1561.11,-152.14 1570.96,-148.24 1560.83,-145.14 1561.11,-152.14"/>
</g>
<!-- Node19 -->
<g id="node19" class="node">
<title>Node19</title>
<g id="a_node19"><a xlink:title=" ">
<polygon fill="white" stroke="#bfbfbf" points="258,-134.5 258,-153.5 322,-153.5 322,-134.5 258,-134.5"/>
<text text-anchor="middle" x="290" y="-141.5" font-family="Helvetica,sans-Serif" font-size="10.00">algorithm</text>
</a>
</g>
</g>
<!-- Node14&#45;&gt;Node19 -->
<g id="edge25" class="edge">
<title>Node14&#45;&gt;Node19</title>
<path fill="none" stroke="midnightblue" d="M311.71,-190.08C308.15,-182.69 302.98,-171.95 298.58,-162.81"/>
<polygon fill="midnightblue" stroke="midnightblue" points="301.71,-161.24 294.21,-153.75 295.4,-164.28 301.71,-161.24"/>
</g>
<!-- Node20 -->
<g id="node20" class="node">
<title>Node20</title>
<g id="a_node20"><a xlink:title=" ">
<polygon fill="white" stroke="#bfbfbf" points="188,-134.5 188,-153.5 240,-153.5 240,-134.5 188,-134.5"/>
<text text-anchor="middle" x="214" y="-141.5" font-family="Helvetica,sans-Serif" font-size="10.00">cassert</text>
</a>
</g>
</g>
<!-- Node14&#45;&gt;Node20 -->
<g id="edge26" class="edge">
<title>Node14&#45;&gt;Node20</title>
<path fill="none" stroke="midnightblue" d="M299.61,-190.32C283.33,-181.7 258.13,-168.36 239.28,-158.39"/>
<polygon fill="midnightblue" stroke="midnightblue" points="240.82,-155.24 230.35,-153.65 237.55,-161.43 240.82,-155.24"/>
</g>
<!-- Node21 -->
<g id="node21" class="node">
<title>Node21</title>
<g id="a_node21"><a xlink:title=" ">
<polygon fill="white" stroke="#bfbfbf" points="378,-134.5 378,-153.5 428,-153.5 428,-134.5 378,-134.5"/>
<text text-anchor="middle" x="403" y="-141.5" font-family="Helvetica,sans-Serif" font-size="10.00">atomic</text>
</a>
</g>
</g>
<!-- Node14&#45;&gt;Node21 -->
<g id="edge27" class="edge">
<title>Node14&#45;&gt;Node21</title>
<path fill="none" stroke="midnightblue" d="M329.98,-190.32C343.55,-181.9 364.38,-168.97 380.32,-159.07"/>
<polygon fill="midnightblue" stroke="midnightblue" points="382.41,-161.9 389.06,-153.65 378.71,-155.95 382.41,-161.9"/>
</g>
<!-- Node15&#45;&gt;Node2 -->
<g id="edge21" class="edge">
<title>Node15&#45;&gt;Node2</title>
<path fill="none" stroke="midnightblue" d="M1570.76,-135.16C1566.11,-134.76 1561.49,-134.36 1557,-134 1303.34,-113.4 1001.36,-95.13 868.49,-87.41"/>
<polygon fill="midnightblue" stroke="midnightblue" points="868.64,-83.91 858.45,-86.82 868.23,-90.9 868.64,-83.91"/>
</g>
<!-- Node16 -->
<g id="node16" class="node">
<title>Node16</title>
<g id="a_node16"><a xlink:title=" ">
<polygon fill="white" stroke="#bfbfbf" points="1677,-73 1677,-92 1725,-92 1725,-73 1677,-73"/>
<text text-anchor="middle" x="1701" y="-80" font-family="Helvetica,sans-Serif" font-size="10.00">mutex</text>
</a>
</g>
</g>
<!-- Node15&#45;&gt;Node16 -->
<g id="edge22" class="edge">
<title>Node15&#45;&gt;Node16</title>
<path fill="none" stroke="midnightblue" d="M1658.16,-134.48C1665.74,-125.46 1677.87,-111.02 1687.29,-99.81"/>
<polygon fill="midnightblue" stroke="midnightblue" points="1690.1,-101.92 1693.85,-92.01 1684.74,-97.41 1690.1,-101.92"/>
</g>
<!-- Node17 -->
<g id="node17" class="node">
<title>Node17</title>
<g id="a_node17"><a xlink:title=" ">
<polygon fill="white" stroke="#bfbfbf" points="1743.5,-73 1743.5,-92 1850.5,-92 1850.5,-73 1743.5,-73"/>
<text text-anchor="middle" x="1797" y="-80" font-family="Helvetica,sans-Serif" font-size="10.00">condition_variable</text>
</a>
</g>
</g>
<!-- Node15&#45;&gt;Node17 -->
<g id="edge23" class="edge">
<title>Node15&#45;&gt;Node17</title>
<path fill="none" stroke="midnightblue" d="M1671.92,-134.48C1696.75,-124.36 1738.34,-107.4 1766.69,-95.85"/>
<polygon fill="midnightblue" stroke="midnightblue" points="1768.18,-99.02 1776.12,-92.01 1765.54,-92.54 1768.18,-99.02"/>
</g>
<!-- Node18 -->
<g id="node18" class="node">
<title>Node18</title>
<g id="a_node18"><a xlink:href="threadsafetyanalysis_8h.html" target="_top" xlink:title=" ">
<polygon fill="white" stroke="black" points="1527.5,-67.5 1527.5,-97.5 1658.5,-97.5 1658.5,-67.5 1527.5,-67.5"/>
<text text-anchor="start" x="1535.5" y="-85.5" font-family="Helvetica,sans-Serif" font-size="10.00">log4cplus/internal</text>
<text text-anchor="middle" x="1593" y="-74.5" font-family="Helvetica,sans-Serif" font-size="10.00">/threadsafetyanalysis.h</text>
</a>
</g>
</g>
<!-- Node15&#45;&gt;Node18 -->
<g id="edge24" class="edge">
<title>Node15&#45;&gt;Node18</title>
<path fill="none" stroke="midnightblue" d="M1642.69,-134.48C1635.2,-126.79 1623.87,-115.17 1613.92,-104.96"/>
<polygon fill="midnightblue" stroke="midnightblue" points="1616.16,-102.24 1606.67,-97.52 1611.14,-107.13 1616.16,-102.24"/>
</g>
<!-- Node22&#45;&gt;Node2 -->
<g id="edge29" class="edge">
<title>Node22&#45;&gt;Node2</title>
<path fill="none" stroke="midnightblue" d="M916.19,-414.47C1091.27,-386.16 1639.8,-295.41 1664,-266 1669.65,-259.14 1668.41,-253.72 1664,-246 1615.37,-160.89 1567.54,-163.32 1474,-134 1417.3,-116.23 1028.38,-94.97 868.45,-86.86"/>
<polygon fill="midnightblue" stroke="midnightblue" points="868.42,-83.35 858.26,-86.35 868.07,-90.35 868.42,-83.35"/>
</g>
<!-- Node22&#45;&gt;Node6 -->
<g id="edge69" class="edge">
<title>Node22&#45;&gt;Node6</title>
<path fill="none" stroke="midnightblue" d="M898.73,-414.44C964.47,-397.02 1105.69,-351.66 1191,-266 1204.18,-252.77 1213.41,-233.37 1218.9,-219.21"/>
<polygon fill="midnightblue" stroke="midnightblue" points="1222.27,-220.19 1222.37,-209.59 1215.68,-217.81 1222.27,-220.19"/>
</g>
<!-- Node22&#45;&gt;Node14 -->
<g id="edge70" class="edge">
<title>Node22&#45;&gt;Node14</title>
<path fill="none" stroke="midnightblue" d="M782.36,-414.49C661.93,-400.41 442.54,-369.07 380,-322 345.62,-296.13 327.86,-246.33 320.4,-219.39"/>
<polygon fill="midnightblue" stroke="midnightblue" points="323.79,-218.48 317.89,-209.68 317.01,-220.23 323.79,-218.48"/>
</g>
<!-- Node23 -->
<g id="node23" class="node">
<title>Node23</title>
<g id="a_node23"><a xlink:href="appender_8h.html" target="_top" xlink:title=" ">
<polygon fill="white" stroke="black" points="784,-358.5 784,-377.5 904,-377.5 904,-358.5 784,-358.5"/>
<text text-anchor="middle" x="844" y="-365.5" font-family="Helvetica,sans-Serif" font-size="10.00">log4cplus/appender.h</text>
</a>
</g>
</g>
<!-- Node22&#45;&gt;Node23 -->
<g id="edge30" class="edge">
<title>Node22&#45;&gt;Node23</title>
<path fill="none" stroke="midnightblue" d="M859.86,-414.08C857.32,-406.85 853.64,-396.41 850.47,-387.4"/>
<polygon fill="midnightblue" stroke="midnightblue" points="853.7,-386.02 847.08,-377.75 847.1,-388.35 853.7,-386.02"/>
</g>
<!-- Node22&#45;&gt;Node26 -->
<g id="edge71" class="edge">
<title>Node22&#45;&gt;Node26</title>
<path fill="none" stroke="midnightblue" d="M767.89,-421.66C686.46,-418.3 566.89,-408.03 467,-378 414.46,-362.21 403.8,-350.63 357,-322 300.57,-287.48 238.6,-239.76 208.49,-215.88"/>
<polygon fill="midnightblue" stroke="midnightblue" points="210.54,-213.03 200.54,-209.53 206.17,-218.51 210.54,-213.03"/>
</g>
<!-- Node23&#45;&gt;Node2 -->
<g id="edge31" class="edge">
<title>Node23&#45;&gt;Node2</title>
<path fill="none" stroke="midnightblue" d="M783.74,-364.64C699.08,-360.39 550.09,-349.2 504,-322 473.07,-303.75 456,-292.91 456,-257 456,-257 456,-257 456,-199 456,-141.44 631.26,-107.21 731.58,-92.32"/>
<polygon fill="midnightblue" stroke="midnightblue" points="732.25,-95.76 741.65,-90.86 731.25,-88.84 732.25,-95.76"/>
</g>
<!-- Node23&#45;&gt;Node6 -->
<g id="edge54" class="edge">
<title>Node23&#45;&gt;Node6</title>
<path fill="none" stroke="midnightblue" d="M899.94,-358.47C967.09,-346.27 1081.12,-319.19 1165,-266 1184.76,-253.47 1202.26,-232.83 1213.18,-218.17"/>
<polygon fill="midnightblue" stroke="midnightblue" points="1216.1,-220.1 1219.09,-209.94 1210.42,-216.02 1216.1,-220.1"/>
</g>
<!-- Node23&#45;&gt;Node14 -->
<g id="edge55" class="edge">
<title>Node23&#45;&gt;Node14</title>
<path fill="none" stroke="midnightblue" d="M783.71,-367.23C678.34,-366.6 466.01,-360.42 404,-322 370.04,-300.96 380.02,-277.93 356,-246 348.46,-235.98 339.2,-225.46 331.49,-217.12"/>
<polygon fill="midnightblue" stroke="midnightblue" points="333.82,-214.49 324.41,-209.6 328.72,-219.28 333.82,-214.49"/>
</g>
<!-- Node23&#45;&gt;Node16 -->
<g id="edge66" class="edge">
<title>Node23&#45;&gt;Node16</title>
<path fill="none" stroke="midnightblue" d="M904.04,-366.11C1107.6,-362.31 1759,-343.4 1759,-257 1759,-257 1759,-257 1759,-199 1759,-168.9 1753.66,-160.82 1740,-134 1733.69,-121.61 1724.19,-109.22 1716.14,-99.82"/>
<polygon fill="midnightblue" stroke="midnightblue" points="1718.55,-97.26 1709.3,-92.11 1713.32,-101.91 1718.55,-97.26"/>
</g>
<!-- Node23&#45;&gt;Node17 -->
<g id="edge68" class="edge">
<title>Node23&#45;&gt;Node17</title>
<path fill="none" stroke="midnightblue" d="M904.28,-366.61C1067.35,-365.07 1514.46,-357.64 1657,-322 1723.55,-305.36 1797,-325.6 1797,-257 1797,-257 1797,-257 1797,-199 1797,-164.86 1797,-125.05 1797,-102.21"/>
<polygon fill="midnightblue" stroke="midnightblue" points="1800.5,-102.19 1797,-92.19 1793.5,-102.19 1800.5,-102.19"/>
</g>
<!-- Node23&#45;&gt;Node21 -->
<g id="edge67" class="edge">
<title>Node23&#45;&gt;Node21</title>
<path fill="none" stroke="midnightblue" d="M783.82,-364.09C677.88,-358.4 466.9,-344.4 442,-322 396.62,-281.17 397.62,-200.57 400.77,-163.93"/>
<polygon fill="midnightblue" stroke="midnightblue" points="404.28,-163.99 401.81,-153.68 397.32,-163.28 404.28,-163.99"/>
</g>
<!-- Node24 -->
<g id="node24" class="node">
<title>Node24</title>
<g id="a_node24"><a xlink:href="layout_8h.html" target="_top" xlink:title=" ">
<polygon fill="white" stroke="black" points="806,-302.5 806,-321.5 912,-321.5 912,-302.5 806,-302.5"/>
<text text-anchor="middle" x="859" y="-309.5" font-family="Helvetica,sans-Serif" font-size="10.00">log4cplus/layout.h</text>
</a>
</g>
</g>
<!-- Node23&#45;&gt;Node24 -->
<g id="edge32" class="edge">
<title>Node23&#45;&gt;Node24</title>
<path fill="none" stroke="midnightblue" d="M846.48,-358.08C848.49,-350.85 851.39,-340.41 853.89,-331.4"/>
<polygon fill="midnightblue" stroke="midnightblue" points="857.26,-332.32 856.57,-321.75 850.52,-330.45 857.26,-332.32"/>
</g>
<!-- Node25 -->
<g id="node25" class="node">
<title>Node25</title>
<g id="a_node25"><a xlink:href="loglevel_8h.html" target="_top" xlink:title="This header defines the LogLevel type.">
<polygon fill="white" stroke="black" points="598,-246.5 598,-265.5 712,-265.5 712,-246.5 598,-246.5"/>
<text text-anchor="middle" x="655" y="-253.5" font-family="Helvetica,sans-Serif" font-size="10.00">log4cplus/loglevel.h</text>
</a>
</g>
</g>
<!-- Node23&#45;&gt;Node25 -->
<g id="edge53" class="edge">
<title>Node23&#45;&gt;Node25</title>
<path fill="none" stroke="midnightblue" d="M828.6,-358.49C812.44,-349.52 786.34,-334.94 764,-322 733.97,-304.61 699.64,-284.01 677.66,-270.74"/>
<polygon fill="midnightblue" stroke="midnightblue" points="679.41,-267.71 669.04,-265.53 675.79,-273.7 679.41,-267.71"/>
</g>
<!-- Node23&#45;&gt;Node27 -->
<g id="edge65" class="edge">
<title>Node23&#45;&gt;Node27</title>
<path fill="none" stroke="midnightblue" d="M830.97,-358.29C820.03,-350.23 804.95,-337.22 797,-322 779.83,-289.13 777.24,-244.9 777.33,-220.03"/>
<polygon fill="midnightblue" stroke="midnightblue" points="780.83,-219.86 777.52,-209.8 773.83,-219.73 780.83,-219.86"/>
</g>
<!-- Node34 -->
<g id="node34" class="node">
<title>Node34</title>
<g id="a_node34"><a xlink:href="filter_8h.html" target="_top" xlink:title="This header defines Filter and all of it&#39;s subclasses.">
<polygon fill="white" stroke="black" points="513,-302.5 513,-321.5 627,-321.5 627,-302.5 513,-302.5"/>
<text text-anchor="middle" x="570" y="-309.5" font-family="Helvetica,sans-Serif" font-size="10.00">log4cplus/spi/filter.h</text>
</a>
</g>
</g>
<!-- Node23&#45;&gt;Node34 -->
<g id="edge56" class="edge">
<title>Node23&#45;&gt;Node34</title>
<path fill="none" stroke="midnightblue" d="M800.58,-358.44C752.48,-348.96 674.91,-333.67 623.19,-323.48"/>
<polygon fill="midnightblue" stroke="midnightblue" points="623.7,-320.02 613.21,-321.52 622.35,-326.88 623.7,-320.02"/>
</g>
<!-- Node35 -->
<g id="node35" class="node">
<title>Node35</title>
<g id="a_node35"><a xlink:href="lockfile_8h.html" target="_top" xlink:title=" ">
<polygon fill="white" stroke="black" points="1506.5,-246.5 1506.5,-265.5 1655.5,-265.5 1655.5,-246.5 1506.5,-246.5"/>
<text text-anchor="middle" x="1581" y="-253.5" font-family="Helvetica,sans-Serif" font-size="10.00">log4cplus/helpers/lockfile.h</text>
</a>
</g>
</g>
<!-- Node23&#45;&gt;Node35 -->
<g id="edge61" class="edge">
<title>Node23&#45;&gt;Node35</title>
<path fill="none" stroke="midnightblue" d="M904.28,-358.88C969.01,-350.09 1074.85,-335.51 1166,-322 1291.04,-303.47 1437.01,-280.23 1518.25,-267.16"/>
<polygon fill="midnightblue" stroke="midnightblue" points="1518.99,-270.58 1528.31,-265.54 1517.88,-263.67 1518.99,-270.58"/>
</g>
<!-- Node24&#45;&gt;Node2 -->
<g id="edge33" class="edge">
<title>Node24&#45;&gt;Node2</title>
<path fill="none" stroke="midnightblue" d="M856.76,-302.36C848.13,-269.07 816.9,-148.65 804.82,-102.07"/>
<polygon fill="midnightblue" stroke="midnightblue" points="808.14,-100.95 802.24,-92.15 801.37,-102.71 808.14,-100.95"/>
</g>
<!-- Node24&#45;&gt;Node6 -->
<g id="edge45" class="edge">
<title>Node24&#45;&gt;Node6</title>
<path fill="none" stroke="midnightblue" d="M912.16,-309.31C968.81,-305.92 1060.18,-295.84 1133,-266 1162.08,-254.08 1190.9,-231.51 1208.33,-216.36"/>
<polygon fill="midnightblue" stroke="midnightblue" points="1210.79,-218.86 1215.93,-209.6 1206.13,-213.64 1210.79,-218.86"/>
</g>
<!-- Node24&#45;&gt;Node25 -->
<g id="edge34" class="edge">
<title>Node24&#45;&gt;Node25</title>
<path fill="none" stroke="midnightblue" d="M826.68,-302.44C791.61,-293.16 735.5,-278.31 697.04,-268.13"/>
<polygon fill="midnightblue" stroke="midnightblue" points="697.74,-264.69 687.17,-265.52 695.94,-271.46 697.74,-264.69"/>
</g>
<!-- Node24&#45;&gt;Node26 -->
<g id="edge51" class="edge">
<title>Node24&#45;&gt;Node26</title>
<path fill="none" stroke="midnightblue" d="M805.68,-303.25C697.45,-287.33 444.35,-249.15 233,-210 229.95,-209.43 226.78,-208.82 223.61,-208.19"/>
<polygon fill="midnightblue" stroke="midnightblue" points="224.12,-204.72 213.62,-206.15 222.71,-211.58 224.12,-204.72"/>
</g>
<!-- Node24&#45;&gt;Node27 -->
<g id="edge52" class="edge">
<title>Node24&#45;&gt;Node27</title>
<path fill="none" stroke="midnightblue" d="M852.64,-302.37C839.22,-284.14 807.77,-241.43 790.28,-217.68"/>
<polygon fill="midnightblue" stroke="midnightblue" points="793.07,-215.57 784.33,-209.59 787.44,-219.72 793.07,-215.57"/>
</g>
<!-- Node29 -->
<g id="node29" class="node">
<title>Node29</title>
<g id="a_node29"><a xlink:href="streams_8h.html" target="_top" xlink:title=" ">
<polygon fill="white" stroke="black" points="863.5,-190.5 863.5,-209.5 978.5,-209.5 978.5,-190.5 863.5,-190.5"/>
<text text-anchor="middle" x="921" y="-197.5" font-family="Helvetica,sans-Serif" font-size="10.00">log4cplus/streams.h</text>
</a>
</g>
</g>
<!-- Node24&#45;&gt;Node29 -->
<g id="edge41" class="edge">
<title>Node24&#45;&gt;Node29</title>
<path fill="none" stroke="midnightblue" d="M863.87,-302.37C874.05,-284.3 897.79,-242.18 911.24,-218.31"/>
<polygon fill="midnightblue" stroke="midnightblue" points="914.3,-220.02 916.16,-209.59 908.2,-216.58 914.3,-220.02"/>
</g>
<!-- Node31 -->
<g id="node31" class="node">
<title>Node31</title>
<g id="a_node31"><a xlink:href="timehelper_8h.html" target="_top" xlink:title=" ">
<polygon fill="white" stroke="black" points="957.5,-246.5 957.5,-265.5 1124.5,-265.5 1124.5,-246.5 957.5,-246.5"/>
<text text-anchor="middle" x="1041" y="-253.5" font-family="Helvetica,sans-Serif" font-size="10.00">log4cplus/helpers/timehelper.h</text>
</a>
</g>
</g>
<!-- Node24&#45;&gt;Node31 -->
<g id="edge46" class="edge">
<title>Node24&#45;&gt;Node31</title>
<path fill="none" stroke="midnightblue" d="M887.84,-302.44C918.86,-293.24 968.33,-278.56 1002.62,-268.39"/>
<polygon fill="midnightblue" stroke="midnightblue" points="1003.71,-271.72 1012.3,-265.52 1001.71,-265.01 1003.71,-271.72"/>
</g>
<!-- Node25&#45;&gt;Node2 -->
<g id="edge35" class="edge">
<title>Node25&#45;&gt;Node2</title>
<path fill="none" stroke="midnightblue" d="M648.3,-246.13C639.4,-233.18 625.9,-208.6 636,-190 662.81,-140.63 723.48,-110.59 763.04,-95.51"/>
<polygon fill="midnightblue" stroke="midnightblue" points="764.43,-98.73 772.61,-92 762.01,-92.16 764.43,-98.73"/>
</g>
<!-- Node25&#45;&gt;Node6 -->
<g id="edge39" class="edge">
<title>Node25&#45;&gt;Node6</title>
<path fill="none" stroke="midnightblue" d="M712.18,-250.62C805.28,-243.31 995.41,-227.68 1156,-210 1157.69,-209.81 1159.41,-209.62 1161.14,-209.42"/>
<polygon fill="midnightblue" stroke="midnightblue" points="1161.64,-212.89 1171.16,-208.23 1160.82,-205.94 1161.64,-212.89"/>
</g>
<!-- Node25&#45;&gt;Node14 -->
<g id="edge40" class="edge">
<title>Node25&#45;&gt;Node14</title>
<path fill="none" stroke="midnightblue" d="M601.28,-246.44C541.03,-236.85 443.39,-221.29 379.43,-211.1"/>
<polygon fill="midnightblue" stroke="midnightblue" points="379.89,-207.63 369.46,-209.52 378.79,-214.55 379.89,-207.63"/>
</g>
<!-- Node25&#45;&gt;Node26 -->
<g id="edge36" class="edge">
<title>Node25&#45;&gt;Node26</title>
<path fill="none" stroke="midnightblue" d="M597.77,-250.73C516.4,-244.23 362.73,-230.44 233,-210 229.93,-209.52 226.76,-208.96 223.58,-208.37"/>
<polygon fill="midnightblue" stroke="midnightblue" points="224.07,-204.89 213.58,-206.38 222.71,-211.76 224.07,-204.89"/>
</g>
<!-- Node25&#45;&gt;Node27 -->
<g id="edge37" class="edge">
<title>Node25&#45;&gt;Node27</title>
<path fill="none" stroke="midnightblue" d="M674.49,-246.44C694.64,-237.6 726.32,-223.69 749.33,-213.59"/>
<polygon fill="midnightblue" stroke="midnightblue" points="750.85,-216.74 758.6,-209.52 748.04,-210.33 750.85,-216.74"/>
</g>
<!-- Node28 -->
<g id="node28" class="node">
<title>Node28</title>
<g id="a_node28"><a xlink:title=" ">
<polygon fill="white" stroke="#bfbfbf" points="645,-190.5 645,-209.5 731,-209.5 731,-190.5 645,-190.5"/>
<text text-anchor="middle" x="688" y="-197.5" font-family="Helvetica,sans-Serif" font-size="10.00">shared_mutex</text>
</a>
</g>
</g>
<!-- Node25&#45;&gt;Node28 -->
<g id="edge38" class="edge">
<title>Node25&#45;&gt;Node28</title>
<path fill="none" stroke="midnightblue" d="M660.45,-246.08C665.01,-238.61 671.67,-227.72 677.29,-218.52"/>
<polygon fill="midnightblue" stroke="midnightblue" points="680.42,-220.11 682.65,-209.75 674.45,-216.46 680.42,-220.11"/>
</g>
<!-- Node29&#45;&gt;Node2 -->
<g id="edge42" class="edge">
<title>Node29&#45;&gt;Node2</title>
<path fill="none" stroke="midnightblue" d="M897.19,-190.45C879.18,-183.03 854.79,-170.83 838,-154 823.16,-139.12 812.6,-117.24 806.44,-101.81"/>
<polygon fill="midnightblue" stroke="midnightblue" points="809.66,-100.46 802.87,-92.32 803.11,-102.92 809.66,-100.46"/>
</g>
<!-- Node29&#45;&gt;Node11 -->
<g id="edge43" class="edge">
<title>Node29&#45;&gt;Node11</title>
<path fill="none" stroke="midnightblue" d="M953.01,-190.44C987.73,-181.16 1043.29,-166.31 1081.38,-156.13"/>
<polygon fill="midnightblue" stroke="midnightblue" points="1082.39,-159.48 1091.14,-153.52 1080.58,-152.72 1082.39,-159.48"/>
</g>
<!-- Node30 -->
<g id="node30" class="node">
<title>Node30</title>
<g id="a_node30"><a xlink:title=" ">
<polygon fill="white" stroke="#bfbfbf" points="931,-134.5 931,-153.5 979,-153.5 979,-134.5 931,-134.5"/>
<text text-anchor="middle" x="955" y="-141.5" font-family="Helvetica,sans-Serif" font-size="10.00">iosfwd</text>
</a>
</g>
</g>
<!-- Node29&#45;&gt;Node30 -->
<g id="edge44" class="edge">
<title>Node29&#45;&gt;Node30</title>
<path fill="none" stroke="midnightblue" d="M926.61,-190.08C931.37,-182.53 938.32,-171.49 944.15,-162.23"/>
<polygon fill="midnightblue" stroke="midnightblue" points="947.12,-164.08 949.49,-153.75 941.2,-160.35 947.12,-164.08"/>
</g>
<!-- Node31&#45;&gt;Node2 -->
<g id="edge47" class="edge">
<title>Node31&#45;&gt;Node2</title>
<path fill="none" stroke="midnightblue" d="M1038.25,-246.2C1030.23,-221.06 1006.26,-149.7 988,-134 954.95,-105.58 907.48,-92.98 868.51,-87.47"/>
<polygon fill="midnightblue" stroke="midnightblue" points="868.65,-83.96 858.29,-86.16 867.76,-90.9 868.65,-83.96"/>
</g>
<!-- Node31&#45;&gt;Node6 -->
<g id="edge48" class="edge">
<title>Node31&#45;&gt;Node6</title>
<path fill="none" stroke="midnightblue" d="M1070.16,-246.44C1101.51,-237.24 1151.53,-222.56 1186.2,-212.39"/>
<polygon fill="midnightblue" stroke="midnightblue" points="1187.37,-215.69 1195.98,-209.52 1185.4,-208.97 1187.37,-215.69"/>
</g>
<!-- Node32 -->
<g id="node32" class="node">
<title>Node32</title>
<g id="a_node32"><a xlink:title=" ">
<polygon fill="white" stroke="#bfbfbf" points="1035,-190.5 1035,-209.5 1079,-209.5 1079,-190.5 1035,-190.5"/>
<text text-anchor="middle" x="1057" y="-197.5" font-family="Helvetica,sans-Serif" font-size="10.00">ctime</text>
</a>
</g>
</g>
<!-- Node31&#45;&gt;Node32 -->
<g id="edge49" class="edge">
<title>Node31&#45;&gt;Node32</title>
<path fill="none" stroke="midnightblue" d="M1043.64,-246.08C1045.79,-238.85 1048.88,-228.41 1051.55,-219.4"/>
<polygon fill="midnightblue" stroke="midnightblue" points="1054.92,-220.33 1054.41,-209.75 1048.21,-218.34 1054.92,-220.33"/>
</g>
<!-- Node33 -->
<g id="node33" class="node">
<title>Node33</title>
<g id="a_node33"><a xlink:title=" ">
<polygon fill="white" stroke="#bfbfbf" points="1097,-190.5 1097,-209.5 1147,-209.5 1147,-190.5 1097,-190.5"/>
<text text-anchor="middle" x="1122" y="-197.5" font-family="Helvetica,sans-Serif" font-size="10.00">chrono</text>
</a>
</g>
</g>
<!-- Node31&#45;&gt;Node33 -->
<g id="edge50" class="edge">
<title>Node31&#45;&gt;Node33</title>
<path fill="none" stroke="midnightblue" d="M1054.01,-246.32C1066.53,-237.98 1085.68,-225.21 1100.47,-215.35"/>
<polygon fill="midnightblue" stroke="midnightblue" points="1102.64,-218.11 1109.02,-209.65 1098.76,-212.29 1102.64,-218.11"/>
</g>
<!-- Node34&#45;&gt;Node2 -->
<g id="edge57" class="edge">
<title>Node34&#45;&gt;Node2</title>
<path fill="none" stroke="midnightblue" d="M569.89,-302.38C569.96,-289.73 570.97,-265.52 577,-246 595.52,-186.04 610.14,-167.83 663,-134 691.24,-115.93 726.87,-103.05 754.71,-94.82"/>
<polygon fill="midnightblue" stroke="midnightblue" points="755.93,-98.11 764.59,-92 754.01,-91.38 755.93,-98.11"/>
</g>
<!-- Node34&#45;&gt;Node8 -->
<g id="edge58" class="edge">
<title>Node34&#45;&gt;Node8</title>
<path fill="none" stroke="midnightblue" d="M571.39,-302.15C573.68,-289.21 579.02,-264.66 589,-246 604.33,-217.35 607.92,-206.36 636,-190 699.2,-153.18 785.91,-145.41 837.14,-144.35"/>
<polygon fill="midnightblue" stroke="midnightblue" points="837.24,-147.85 847.2,-144.22 837.15,-140.85 837.24,-147.85"/>
</g>
<!-- Node34&#45;&gt;Node14 -->
<g id="edge59" class="edge">
<title>Node34&#45;&gt;Node14</title>
<path fill="none" stroke="midnightblue" d="M550.07,-302.37C505.46,-283.05 397.42,-236.26 345.21,-213.65"/>
<polygon fill="midnightblue" stroke="midnightblue" points="346.41,-210.35 335.84,-209.59 343.62,-216.78 346.41,-210.35"/>
</g>
<!-- Node34&#45;&gt;Node25 -->
<g id="edge60" class="edge">
<title>Node34&#45;&gt;Node25</title>
<path fill="none" stroke="midnightblue" d="M583.66,-302.32C596.92,-293.9 617.27,-280.97 632.85,-271.07"/>
<polygon fill="midnightblue" stroke="midnightblue" points="634.81,-273.97 641.38,-265.65 631.06,-268.06 634.81,-273.97"/>
</g>
<!-- Node35&#45;&gt;Node2 -->
<g id="edge62" class="edge">
<title>Node35&#45;&gt;Node2</title>
<path fill="none" stroke="midnightblue" d="M1574.38,-246.22C1556.26,-222.92 1503.07,-159.63 1442,-134 1415.87,-123.03 1028.25,-97.75 868.27,-87.72"/>
<polygon fill="midnightblue" stroke="midnightblue" points="868.27,-84.21 858.07,-87.08 867.83,-91.19 868.27,-84.21"/>
</g>
<!-- Node35&#45;&gt;Node6 -->
<g id="edge63" class="edge">
<title>Node35&#45;&gt;Node6</title>
<path fill="none" stroke="midnightblue" d="M1524.59,-246.44C1460.35,-236.7 1355.62,-220.81 1288.55,-210.64"/>
<polygon fill="midnightblue" stroke="midnightblue" points="1288.94,-207.16 1278.53,-209.12 1287.89,-214.08 1288.94,-207.16"/>
</g>
<!-- Node35&#45;&gt;Node15 -->
<g id="edge64" class="edge">
<title>Node35&#45;&gt;Node15</title>
<path fill="none" stroke="midnightblue" d="M1586.49,-246.37C1597.99,-228.3 1624.8,-186.18 1639.99,-162.31"/>
<polygon fill="midnightblue" stroke="midnightblue" points="1643.12,-163.91 1645.53,-153.59 1637.21,-160.15 1643.12,-163.91"/>
</g>
<!-- Node36&#45;&gt;Node2 -->
<g id="edge77" class="edge">
<title>Node36&#45;&gt;Node2</title>
<path fill="none" stroke="midnightblue" d="M1414.73,-246.29C1425.99,-224.27 1451.34,-165.81 1422,-134 1403.43,-113.86 1025.76,-94.01 868.15,-86.57"/>
<polygon fill="midnightblue" stroke="midnightblue" points="868.25,-83.08 858.1,-86.1 867.92,-90.07 868.25,-83.08"/>
</g>
<!-- Node36&#45;&gt;Node6 -->
<g id="edge78" class="edge">
<title>Node36&#45;&gt;Node6</title>
<path fill="none" stroke="midnightblue" d="M1380.69,-246.44C1349.16,-237.24 1298.87,-222.56 1264.01,-212.39"/>
<polygon fill="midnightblue" stroke="midnightblue" points="1264.76,-208.96 1254.18,-209.52 1262.8,-215.68 1264.76,-208.96"/>
</g>
</g>
</svg>
