<?xml version="1.0" encoding="UTF-8" standalone="no"?>
<!DOCTYPE svg PUBLIC "-//W3C//DTD SVG 1.1//EN"
 "http://www.w3.org/Graphics/SVG/1.1/DTD/svg11.dtd">
<!-- Generated by graphviz version 2.43.0 (0)
 -->
<!-- Title: socketappender.h Pages: 1 -->
<svg width="1866pt" height="442pt"
 viewBox="0.00 0.00 1865.56 442.00" xmlns="http://www.w3.org/2000/svg" xmlns:xlink="http://www.w3.org/1999/xlink">
<g id="graph0" class="graph" transform="scale(1 1) rotate(0) translate(4 438)">
<title>socketappender.h</title>
<polygon fill="white" stroke="transparent" points="-4,4 -4,-438 1861.56,-438 1861.56,4 -4,4"/>
<!-- Node1 -->
<g id="node1" class="node">
<title>Node1</title>
<g id="a_node1"><a xlink:title=" ">
<polygon fill="#bfbfbf" stroke="black" points="861.06,-414.5 861.06,-433.5 963.06,-433.5 963.06,-414.5 861.06,-414.5"/>
<text text-anchor="middle" x="912.06" y="-421.5" font-family="Helvetica,sans-Serif" font-size="10.00">socketappender.h</text>
</a>
</g>
</g>
<!-- Node2 -->
<g id="node2" class="node">
<title>Node2</title>
<g id="a_node2"><a xlink:href="config_8hxx.html" target="_top" xlink:title=" ">
<polygon fill="white" stroke="black" points="642.06,-73 642.06,-92 758.06,-92 758.06,-73 642.06,-73"/>
<text text-anchor="middle" x="700.06" y="-80" font-family="Helvetica,sans-Serif" font-size="10.00">log4cplus/config.hxx</text>
</a>
</g>
</g>
<!-- Node1&#45;&gt;Node2 -->
<g id="edge1" class="edge">
<title>Node1&#45;&gt;Node2</title>
<path fill="none" stroke="midnightblue" d="M963.12,-420.52C1126.54,-411.92 1626.06,-380.14 1626.06,-313 1626.06,-313 1626.06,-313 1626.06,-255 1626.06,-180.19 1576.99,-165.34 1509.06,-134 1442.67,-103.37 950.93,-89.19 768.18,-84.94"/>
<polygon fill="midnightblue" stroke="midnightblue" points="768.23,-81.44 758.16,-84.71 768.07,-88.44 768.23,-81.44"/>
</g>
<!-- Node5 -->
<g id="node5" class="node">
<title>Node5</title>
<g id="a_node5"><a xlink:href="appender_8h.html" target="_top" xlink:title=" ">
<polygon fill="white" stroke="black" points="1147.06,-358.5 1147.06,-377.5 1267.06,-377.5 1267.06,-358.5 1147.06,-358.5"/>
<text text-anchor="middle" x="1207.06" y="-365.5" font-family="Helvetica,sans-Serif" font-size="10.00">log4cplus/appender.h</text>
</a>
</g>
</g>
<!-- Node1&#45;&gt;Node5 -->
<g id="edge4" class="edge">
<title>Node1&#45;&gt;Node5</title>
<path fill="none" stroke="midnightblue" d="M958.81,-414.44C1010.81,-404.92 1094.81,-389.55 1150.49,-379.36"/>
<polygon fill="midnightblue" stroke="midnightblue" points="1151.33,-382.76 1160.54,-377.52 1150.07,-375.87 1151.33,-382.76"/>
</g>
<!-- Node19 -->
<g id="node19" class="node">
<title>Node19</title>
<g id="a_node19"><a xlink:href="syncprims_8h.html" target="_top" xlink:title=" ">
<polygon fill="white" stroke="black" points="1578.06,-134.5 1578.06,-153.5 1738.06,-153.5 1738.06,-134.5 1578.06,-134.5"/>
<text text-anchor="middle" x="1658.06" y="-141.5" font-family="Helvetica,sans-Serif" font-size="10.00">log4cplus/thread/syncprims.h</text>
</a>
</g>
</g>
<!-- Node1&#45;&gt;Node19 -->
<g id="edge68" class="edge">
<title>Node1&#45;&gt;Node19</title>
<path fill="none" stroke="midnightblue" d="M963.3,-423.02C1120.1,-422.65 1586.08,-418.14 1640.06,-378 1664.77,-359.62 1664.06,-343.8 1664.06,-313 1664.06,-313 1664.06,-313 1664.06,-255 1664.06,-222.9 1661.48,-185.61 1659.71,-163.73"/>
<polygon fill="midnightblue" stroke="midnightblue" points="1663.18,-163.22 1658.85,-153.55 1656.2,-163.81 1663.18,-163.22"/>
</g>
<!-- Node33 -->
<g id="node33" class="node">
<title>Node33</title>
<g id="a_node33"><a xlink:href="helpers_2socket_8h.html" target="_top" xlink:title=" ">
<polygon fill="white" stroke="black" points="252.06,-302.5 252.06,-321.5 398.06,-321.5 398.06,-302.5 252.06,-302.5"/>
<text text-anchor="middle" x="325.06" y="-309.5" font-family="Helvetica,sans-Serif" font-size="10.00">log4cplus/helpers/socket.h</text>
</a>
</g>
</g>
<!-- Node1&#45;&gt;Node33 -->
<g id="edge60" class="edge">
<title>Node1&#45;&gt;Node33</title>
<path fill="none" stroke="midnightblue" d="M861.01,-422.22C728.96,-419.74 383.68,-410.22 344.06,-378 330.54,-367.01 326.31,-346.95 325.14,-332.02"/>
<polygon fill="midnightblue" stroke="midnightblue" points="328.63,-331.68 324.74,-321.83 321.64,-331.96 328.63,-331.68"/>
</g>
<!-- Node37 -->
<g id="node37" class="node">
<title>Node37</title>
<g id="a_node37"><a xlink:href="threads_8h.html" target="_top" xlink:title=" ">
<polygon fill="white" stroke="black" points="502.06,-246.5 502.06,-265.5 648.06,-265.5 648.06,-246.5 502.06,-246.5"/>
<text text-anchor="middle" x="575.06" y="-253.5" font-family="Helvetica,sans-Serif" font-size="10.00">log4cplus/thread/threads.h</text>
</a>
</g>
</g>
<!-- Node1&#45;&gt;Node37 -->
<g id="edge69" class="edge">
<title>Node1&#45;&gt;Node37</title>
<path fill="none" stroke="midnightblue" d="M893.52,-414.43C856.54,-397.29 771.04,-357.35 700.06,-322 665.12,-304.6 625.16,-283.63 600.02,-270.3"/>
<polygon fill="midnightblue" stroke="midnightblue" points="601.62,-267.19 591.15,-265.6 598.34,-273.38 601.62,-267.19"/>
</g>
<!-- Node39 -->
<g id="node39" class="node">
<title>Node39</title>
<g id="a_node39"><a xlink:href="connectorthread_8h.html" target="_top" xlink:title=" ">
<polygon fill="white" stroke="black" points="353.06,-358.5 353.06,-377.5 547.06,-377.5 547.06,-358.5 353.06,-358.5"/>
<text text-anchor="middle" x="450.06" y="-365.5" font-family="Helvetica,sans-Serif" font-size="10.00">log4cplus/helpers/connectorthread.h</text>
</a>
</g>
</g>
<!-- Node1&#45;&gt;Node39 -->
<g id="edge75" class="edge">
<title>Node1&#45;&gt;Node39</title>
<path fill="none" stroke="midnightblue" d="M860.85,-417.01C781.63,-407.75 628.57,-389.86 533.3,-378.73"/>
<polygon fill="midnightblue" stroke="midnightblue" points="533.46,-375.22 523.12,-377.54 532.65,-382.18 533.46,-375.22"/>
</g>
<!-- Node3 -->
<g id="node3" class="node">
<title>Node3</title>
<g id="a_node3"><a xlink:href="win32_8h.html" target="_top" xlink:title=" ">
<polygon fill="white" stroke="black" points="554.56,-6 554.56,-25 691.56,-25 691.56,-6 554.56,-6"/>
<text text-anchor="middle" x="623.06" y="-13" font-family="Helvetica,sans-Serif" font-size="10.00">log4cplus/config/win32.h</text>
</a>
</g>
</g>
<!-- Node2&#45;&gt;Node3 -->
<g id="edge2" class="edge">
<title>Node2&#45;&gt;Node3</title>
<path fill="none" stroke="midnightblue" d="M689.68,-72.73C677.21,-62.21 656.09,-44.38 640.97,-31.62"/>
<polygon fill="midnightblue" stroke="midnightblue" points="643.18,-28.9 633.28,-25.13 638.67,-34.25 643.18,-28.9"/>
</g>
<!-- Node4 -->
<g id="node4" class="node">
<title>Node4</title>
<g id="a_node4"><a xlink:href="thread-config_8h.html" target="_top" xlink:title=" ">
<polygon fill="white" stroke="black" points="709.56,-0.5 709.56,-30.5 846.56,-30.5 846.56,-0.5 709.56,-0.5"/>
<text text-anchor="start" x="717.56" y="-18.5" font-family="Helvetica,sans-Serif" font-size="10.00">log4cplus/helpers/thread</text>
<text text-anchor="middle" x="778.06" y="-7.5" font-family="Helvetica,sans-Serif" font-size="10.00">&#45;config.h</text>
</a>
</g>
</g>
<!-- Node2&#45;&gt;Node4 -->
<g id="edge3" class="edge">
<title>Node2&#45;&gt;Node4</title>
<path fill="none" stroke="midnightblue" d="M710.58,-72.73C721.43,-63.7 738.73,-49.27 753.1,-37.3"/>
<polygon fill="midnightblue" stroke="midnightblue" points="755.71,-39.68 761.16,-30.59 751.23,-34.3 755.71,-39.68"/>
</g>
<!-- Node5&#45;&gt;Node2 -->
<g id="edge5" class="edge">
<title>Node5&#45;&gt;Node2</title>
<path fill="none" stroke="midnightblue" d="M1146.87,-363.67C996.18,-354.53 606.68,-325.65 493.06,-266 461.9,-249.64 450.53,-242.52 437.06,-210 402.57,-126.73 543.01,-98.1 631.92,-88.39"/>
<polygon fill="midnightblue" stroke="midnightblue" points="632.37,-91.86 641.96,-87.35 631.65,-84.9 632.37,-91.86"/>
</g>
<!-- Node6 -->
<g id="node6" class="node">
<title>Node6</title>
<g id="a_node6"><a xlink:href="layout_8h.html" target="_top" xlink:title=" ">
<polygon fill="white" stroke="black" points="882.06,-302.5 882.06,-321.5 988.06,-321.5 988.06,-302.5 882.06,-302.5"/>
<text text-anchor="middle" x="935.06" y="-309.5" font-family="Helvetica,sans-Serif" font-size="10.00">log4cplus/layout.h</text>
</a>
</g>
</g>
<!-- Node5&#45;&gt;Node6 -->
<g id="edge6" class="edge">
<title>Node5&#45;&gt;Node6</title>
<path fill="none" stroke="midnightblue" d="M1163.96,-358.44C1116.21,-348.96 1039.2,-333.67 987.87,-323.48"/>
<polygon fill="midnightblue" stroke="midnightblue" points="988.45,-320.03 977.96,-321.52 987.09,-326.9 988.45,-320.03"/>
</g>
<!-- Node7 -->
<g id="node7" class="node">
<title>Node7</title>
<g id="a_node7"><a xlink:href="loglevel_8h.html" target="_top" xlink:title="This header defines the LogLevel type.">
<polygon fill="white" stroke="black" points="1116.06,-246.5 1116.06,-265.5 1230.06,-265.5 1230.06,-246.5 1116.06,-246.5"/>
<text text-anchor="middle" x="1173.06" y="-253.5" font-family="Helvetica,sans-Serif" font-size="10.00">log4cplus/loglevel.h</text>
</a>
</g>
</g>
<!-- Node5&#45;&gt;Node7 -->
<g id="edge44" class="edge">
<title>Node5&#45;&gt;Node7</title>
<path fill="none" stroke="midnightblue" d="M1201.36,-358.43C1195.79,-349.66 1187.54,-335.44 1183.06,-322 1178.04,-306.92 1175.52,-289.02 1174.27,-275.82"/>
<polygon fill="midnightblue" stroke="midnightblue" points="1177.74,-275.32 1173.47,-265.63 1170.77,-275.87 1177.74,-275.32"/>
</g>
<!-- Node9 -->
<g id="node9" class="node">
<title>Node9</title>
<g id="a_node9"><a xlink:title=" ">
<polygon fill="white" stroke="#bfbfbf" points="976.06,-190.5 976.06,-209.5 1034.06,-209.5 1034.06,-190.5 976.06,-190.5"/>
<text text-anchor="middle" x="1005.06" y="-197.5" font-family="Helvetica,sans-Serif" font-size="10.00">memory</text>
</a>
</g>
</g>
<!-- Node5&#45;&gt;Node9 -->
<g id="edge56" class="edge">
<title>Node5&#45;&gt;Node9</title>
<path fill="none" stroke="midnightblue" d="M1196.49,-358.31C1163.9,-331.53 1064.73,-250.03 1023.42,-216.09"/>
<polygon fill="midnightblue" stroke="midnightblue" points="1025.48,-213.25 1015.53,-209.61 1021.04,-218.66 1025.48,-213.25"/>
</g>
<!-- Node11 -->
<g id="node11" class="node">
<title>Node11</title>
<g id="a_node11"><a xlink:href="tstring_8h.html" target="_top" xlink:title=" ">
<polygon fill="white" stroke="black" points="644.56,-190.5 644.56,-209.5 751.56,-209.5 751.56,-190.5 644.56,-190.5"/>
<text text-anchor="middle" x="698.06" y="-197.5" font-family="Helvetica,sans-Serif" font-size="10.00">log4cplus/tstring.h</text>
</a>
</g>
</g>
<!-- Node5&#45;&gt;Node11 -->
<g id="edge45" class="edge">
<title>Node5&#45;&gt;Node11</title>
<path fill="none" stroke="midnightblue" d="M1146.96,-363.79C1079.34,-359.07 966.7,-347.81 873.06,-322 812.02,-305.18 790.9,-306.3 742.06,-266 726.5,-253.16 714.22,-233.43 706.63,-219.07"/>
<polygon fill="midnightblue" stroke="midnightblue" points="709.57,-217.12 701.96,-209.75 703.31,-220.25 709.57,-217.12"/>
</g>
<!-- Node18 -->
<g id="node18" class="node">
<title>Node18</title>
<g id="a_node18"><a xlink:href="pointer_8h.html" target="_top" xlink:title=" ">
<polygon fill="white" stroke="black" points="1298.06,-190.5 1298.06,-209.5 1446.06,-209.5 1446.06,-190.5 1298.06,-190.5"/>
<text text-anchor="middle" x="1372.06" y="-197.5" font-family="Helvetica,sans-Serif" font-size="10.00">log4cplus/helpers/pointer.h</text>
</a>
</g>
</g>
<!-- Node5&#45;&gt;Node18 -->
<g id="edge46" class="edge">
<title>Node5&#45;&gt;Node18</title>
<path fill="none" stroke="midnightblue" d="M1267.51,-359.78C1313.54,-352.9 1371.43,-340.76 1386.06,-322 1409.38,-292.1 1393.17,-244.73 1381.36,-219.03"/>
<polygon fill="midnightblue" stroke="midnightblue" points="1384.36,-217.2 1376.84,-209.74 1378.07,-220.26 1384.36,-217.2"/>
</g>
<!-- Node20 -->
<g id="node20" class="node">
<title>Node20</title>
<g id="a_node20"><a xlink:title=" ">
<polygon fill="white" stroke="#bfbfbf" points="1684.06,-73 1684.06,-92 1732.06,-92 1732.06,-73 1684.06,-73"/>
<text text-anchor="middle" x="1708.06" y="-80" font-family="Helvetica,sans-Serif" font-size="10.00">mutex</text>
</a>
</g>
</g>
<!-- Node5&#45;&gt;Node20 -->
<g id="edge57" class="edge">
<title>Node5&#45;&gt;Node20</title>
<path fill="none" stroke="midnightblue" d="M1267.19,-360.87C1346.73,-350.71 1489.31,-325.28 1596.06,-266 1669.11,-225.43 1709.5,-228.64 1747.06,-154 1756.72,-134.81 1740.76,-113.28 1726.44,-99.11"/>
<polygon fill="midnightblue" stroke="midnightblue" points="1728.54,-96.29 1718.82,-92.07 1723.78,-101.43 1728.54,-96.29"/>
</g>
<!-- Node21 -->
<g id="node21" class="node">
<title>Node21</title>
<g id="a_node21"><a xlink:title=" ">
<polygon fill="white" stroke="#bfbfbf" points="1750.56,-73 1750.56,-92 1857.56,-92 1857.56,-73 1750.56,-73"/>
<text text-anchor="middle" x="1804.06" y="-80" font-family="Helvetica,sans-Serif" font-size="10.00">condition_variable</text>
</a>
</g>
</g>
<!-- Node5&#45;&gt;Node21 -->
<g id="edge59" class="edge">
<title>Node5&#45;&gt;Node21</title>
<path fill="none" stroke="midnightblue" d="M1267.31,-362.19C1418.9,-349.29 1804.06,-311.18 1804.06,-257 1804.06,-257 1804.06,-257 1804.06,-199 1804.06,-164.86 1804.06,-125.05 1804.06,-102.21"/>
<polygon fill="midnightblue" stroke="midnightblue" points="1807.56,-102.19 1804.06,-92.19 1800.56,-102.19 1807.56,-102.19"/>
</g>
<!-- Node25 -->
<g id="node25" class="node">
<title>Node25</title>
<g id="a_node25"><a xlink:title=" ">
<polygon fill="white" stroke="#bfbfbf" points="1206.06,-134.5 1206.06,-153.5 1256.06,-153.5 1256.06,-134.5 1206.06,-134.5"/>
<text text-anchor="middle" x="1231.06" y="-141.5" font-family="Helvetica,sans-Serif" font-size="10.00">atomic</text>
</a>
</g>
</g>
<!-- Node5&#45;&gt;Node25 -->
<g id="edge58" class="edge">
<title>Node5&#45;&gt;Node25</title>
<path fill="none" stroke="midnightblue" d="M1258.59,-358.44C1279.8,-352.1 1302.33,-341.1 1315.06,-322 1334.1,-293.44 1270.91,-199.9 1243.32,-161.59"/>
<polygon fill="midnightblue" stroke="midnightblue" points="1246.14,-159.53 1237.42,-153.5 1240.48,-163.65 1246.14,-159.53"/>
</g>
<!-- Node31 -->
<g id="node31" class="node">
<title>Node31</title>
<g id="a_node31"><a xlink:href="filter_8h.html" target="_top" xlink:title="This header defines Filter and all of it&#39;s subclasses.">
<polygon fill="white" stroke="black" points="1192.06,-302.5 1192.06,-321.5 1306.06,-321.5 1306.06,-302.5 1192.06,-302.5"/>
<text text-anchor="middle" x="1249.06" y="-309.5" font-family="Helvetica,sans-Serif" font-size="10.00">log4cplus/spi/filter.h</text>
</a>
</g>
</g>
<!-- Node5&#45;&gt;Node31 -->
<g id="edge47" class="edge">
<title>Node5&#45;&gt;Node31</title>
<path fill="none" stroke="midnightblue" d="M1214,-358.08C1219.99,-350.38 1228.81,-339.03 1236.11,-329.65"/>
<polygon fill="midnightblue" stroke="midnightblue" points="1238.88,-331.79 1242.26,-321.75 1233.35,-327.5 1238.88,-331.79"/>
</g>
<!-- Node32 -->
<g id="node32" class="node">
<title>Node32</title>
<g id="a_node32"><a xlink:href="lockfile_8h.html" target="_top" xlink:title=" ">
<polygon fill="white" stroke="black" points="1437.56,-246.5 1437.56,-265.5 1586.56,-265.5 1586.56,-246.5 1437.56,-246.5"/>
<text text-anchor="middle" x="1512.06" y="-253.5" font-family="Helvetica,sans-Serif" font-size="10.00">log4cplus/helpers/lockfile.h</text>
</a>
</g>
</g>
<!-- Node5&#45;&gt;Node32 -->
<g id="edge52" class="edge">
<title>Node5&#45;&gt;Node32</title>
<path fill="none" stroke="midnightblue" d="M1267.22,-361.56C1312.01,-355.86 1373.83,-344.45 1424.06,-322 1451.53,-309.72 1478.69,-287.76 1495.42,-272.79"/>
<polygon fill="midnightblue" stroke="midnightblue" points="1498.15,-275.03 1503.16,-265.69 1493.42,-269.87 1498.15,-275.03"/>
</g>
<!-- Node6&#45;&gt;Node2 -->
<g id="edge7" class="edge">
<title>Node6&#45;&gt;Node2</title>
<path fill="none" stroke="midnightblue" d="M881.95,-308.37C795.08,-300.68 627.4,-270.7 579.06,-154 566.08,-122.66 603.2,-104.54 639.65,-94.54"/>
<polygon fill="midnightblue" stroke="midnightblue" points="640.56,-97.92 649.38,-92.05 638.82,-91.14 640.56,-97.92"/>
</g>
<!-- Node6&#45;&gt;Node7 -->
<g id="edge8" class="edge">
<title>Node6&#45;&gt;Node7</title>
<path fill="none" stroke="midnightblue" d="M972.77,-302.44C1014.21,-293.04 1080.82,-277.93 1125.73,-267.74"/>
<polygon fill="midnightblue" stroke="midnightblue" points="1126.55,-271.14 1135.53,-265.52 1125,-264.32 1126.55,-271.14"/>
</g>
<!-- Node8 -->
<g id="node8" class="node">
<title>Node8</title>
<g id="a_node8"><a xlink:title=" ">
<polygon fill="white" stroke="#bfbfbf" points="1052.56,-190.5 1052.56,-209.5 1099.56,-209.5 1099.56,-190.5 1052.56,-190.5"/>
<text text-anchor="middle" x="1076.06" y="-197.5" font-family="Helvetica,sans-Serif" font-size="10.00">vector</text>
</a>
</g>
</g>
<!-- Node6&#45;&gt;Node8 -->
<g id="edge42" class="edge">
<title>Node6&#45;&gt;Node8</title>
<path fill="none" stroke="midnightblue" d="M952.14,-302.48C968.08,-294.17 992.16,-280.67 1011.06,-266 1030.06,-251.25 1049.22,-231.34 1061.77,-217.46"/>
<polygon fill="midnightblue" stroke="midnightblue" points="1064.64,-219.49 1068.66,-209.69 1059.4,-214.84 1064.64,-219.49"/>
</g>
<!-- Node6&#45;&gt;Node9 -->
<g id="edge43" class="edge">
<title>Node6&#45;&gt;Node9</title>
<path fill="none" stroke="midnightblue" d="M951.81,-302.49C965.16,-294.8 983.19,-282.22 993.06,-266 1001.55,-252.06 1004.31,-233.56 1005.09,-219.85"/>
<polygon fill="midnightblue" stroke="midnightblue" points="1008.59,-219.77 1005.36,-209.68 1001.59,-219.59 1008.59,-219.77"/>
</g>
<!-- Node6&#45;&gt;Node11 -->
<g id="edge36" class="edge">
<title>Node6&#45;&gt;Node11</title>
<path fill="none" stroke="midnightblue" d="M885.04,-302.45C852.66,-295.59 810.32,-284.07 776.06,-266 751.86,-253.23 728.32,-232.05 713.55,-217.35"/>
<polygon fill="midnightblue" stroke="midnightblue" points="715.79,-214.64 706.29,-209.94 710.79,-219.53 715.79,-214.64"/>
</g>
<!-- Node26 -->
<g id="node26" class="node">
<title>Node26</title>
<g id="a_node26"><a xlink:href="streams_8h.html" target="_top" xlink:title=" ">
<polygon fill="white" stroke="black" points="274.56,-190.5 274.56,-209.5 389.56,-209.5 389.56,-190.5 274.56,-190.5"/>
<text text-anchor="middle" x="332.06" y="-197.5" font-family="Helvetica,sans-Serif" font-size="10.00">log4cplus/streams.h</text>
</a>
</g>
</g>
<!-- Node6&#45;&gt;Node26 -->
<g id="edge32" class="edge">
<title>Node6&#45;&gt;Node26</title>
<path fill="none" stroke="midnightblue" d="M881.85,-310.4C797.98,-308.38 630.46,-300 493.06,-266 443.69,-253.78 389.45,-229.43 358.22,-214.25"/>
<polygon fill="midnightblue" stroke="midnightblue" points="359.44,-210.95 348.92,-209.67 356.34,-217.23 359.44,-210.95"/>
</g>
<!-- Node28 -->
<g id="node28" class="node">
<title>Node28</title>
<g id="a_node28"><a xlink:href="timehelper_8h.html" target="_top" xlink:title=" ">
<polygon fill="white" stroke="black" points="817.56,-246.5 817.56,-265.5 984.56,-265.5 984.56,-246.5 817.56,-246.5"/>
<text text-anchor="middle" x="901.06" y="-253.5" font-family="Helvetica,sans-Serif" font-size="10.00">log4cplus/helpers/timehelper.h</text>
</a>
</g>
</g>
<!-- Node6&#45;&gt;Node28 -->
<g id="edge37" class="edge">
<title>Node6&#45;&gt;Node28</title>
<path fill="none" stroke="midnightblue" d="M929.45,-302.08C924.69,-294.53 917.74,-283.49 911.91,-274.23"/>
<polygon fill="midnightblue" stroke="midnightblue" points="914.86,-272.35 906.57,-265.75 908.94,-276.08 914.86,-272.35"/>
</g>
<!-- Node7&#45;&gt;Node2 -->
<g id="edge9" class="edge">
<title>Node7&#45;&gt;Node2</title>
<path fill="none" stroke="midnightblue" d="M1185.21,-246.35C1201.86,-233.45 1228.07,-208.71 1213.06,-190 1158.2,-121.61 895.06,-95.83 768.43,-87.26"/>
<polygon fill="midnightblue" stroke="midnightblue" points="768.66,-83.77 758.45,-86.61 768.2,-90.76 768.66,-83.77"/>
</g>
<!-- Node7&#45;&gt;Node8 -->
<g id="edge10" class="edge">
<title>Node7&#45;&gt;Node8</title>
<path fill="none" stroke="midnightblue" d="M1157.48,-246.32C1142.06,-237.74 1118.25,-224.49 1100.35,-214.52"/>
<polygon fill="midnightblue" stroke="midnightblue" points="1102.05,-211.46 1091.61,-209.65 1098.64,-217.58 1102.05,-211.46"/>
</g>
<!-- Node7&#45;&gt;Node9 -->
<g id="edge11" class="edge">
<title>Node7&#45;&gt;Node9</title>
<path fill="none" stroke="midnightblue" d="M1146.44,-246.44C1118.06,-237.32 1072.93,-222.81 1041.31,-212.65"/>
<polygon fill="midnightblue" stroke="midnightblue" points="1042.15,-209.24 1031.56,-209.52 1040.01,-215.91 1042.15,-209.24"/>
</g>
<!-- Node10 -->
<g id="node10" class="node">
<title>Node10</title>
<g id="a_node10"><a xlink:title=" ">
<polygon fill="white" stroke="#bfbfbf" points="1118.06,-190.5 1118.06,-209.5 1204.06,-209.5 1204.06,-190.5 1118.06,-190.5"/>
<text text-anchor="middle" x="1161.06" y="-197.5" font-family="Helvetica,sans-Serif" font-size="10.00">shared_mutex</text>
</a>
</g>
</g>
<!-- Node7&#45;&gt;Node10 -->
<g id="edge12" class="edge">
<title>Node7&#45;&gt;Node10</title>
<path fill="none" stroke="midnightblue" d="M1171.08,-246.08C1169.49,-238.93 1167.2,-228.64 1165.22,-219.69"/>
<polygon fill="midnightblue" stroke="midnightblue" points="1168.59,-218.75 1163.01,-209.75 1161.76,-220.27 1168.59,-218.75"/>
</g>
<!-- Node7&#45;&gt;Node11 -->
<g id="edge13" class="edge">
<title>Node7&#45;&gt;Node11</title>
<path fill="none" stroke="midnightblue" d="M1115.77,-248.49C1026.58,-238.35 855.14,-218.86 762.03,-208.27"/>
<polygon fill="midnightblue" stroke="midnightblue" points="762.23,-204.77 751.9,-207.12 761.44,-211.73 762.23,-204.77"/>
</g>
<!-- Node7&#45;&gt;Node18 -->
<g id="edge22" class="edge">
<title>Node7&#45;&gt;Node18</title>
<path fill="none" stroke="midnightblue" d="M1204.59,-246.44C1238.65,-237.2 1293.07,-222.44 1330.58,-212.26"/>
<polygon fill="midnightblue" stroke="midnightblue" points="1331.94,-215.51 1340.68,-209.52 1330.11,-208.76 1331.94,-215.51"/>
</g>
<!-- Node11&#45;&gt;Node2 -->
<g id="edge14" class="edge">
<title>Node11&#45;&gt;Node2</title>
<path fill="none" stroke="midnightblue" d="M751.66,-193.21C776.8,-187.5 804.57,-176.22 820.06,-154 840.74,-124.33 796.23,-105.26 755.68,-94.53"/>
<polygon fill="midnightblue" stroke="midnightblue" points="756.32,-91.08 745.77,-92.05 754.62,-97.87 756.32,-91.08"/>
</g>
<!-- Node12 -->
<g id="node12" class="node">
<title>Node12</title>
<g id="a_node12"><a xlink:title=" ">
<polygon fill="white" stroke="#bfbfbf" points="588.56,-134.5 588.56,-153.5 657.56,-153.5 657.56,-134.5 588.56,-134.5"/>
<text text-anchor="middle" x="623.06" y="-141.5" font-family="Helvetica,sans-Serif" font-size="10.00">type_traits</text>
</a>
</g>
</g>
<!-- Node11&#45;&gt;Node12 -->
<g id="edge15" class="edge">
<title>Node11&#45;&gt;Node12</title>
<path fill="none" stroke="midnightblue" d="M686.01,-190.32C674.6,-182.11 657.23,-169.6 643.63,-159.81"/>
<polygon fill="midnightblue" stroke="midnightblue" points="645.49,-156.84 635.33,-153.83 641.4,-162.52 645.49,-156.84"/>
</g>
<!-- Node13 -->
<g id="node13" class="node">
<title>Node13</title>
<g id="a_node13"><a xlink:title=" ">
<polygon fill="white" stroke="#bfbfbf" points="868.56,-134.5 868.56,-153.5 933.56,-153.5 933.56,-134.5 868.56,-134.5"/>
<text text-anchor="middle" x="901.06" y="-141.5" font-family="Helvetica,sans-Serif" font-size="10.00">functional</text>
</a>
</g>
</g>
<!-- Node11&#45;&gt;Node13 -->
<g id="edge16" class="edge">
<title>Node11&#45;&gt;Node13</title>
<path fill="none" stroke="midnightblue" d="M730.23,-190.44C765.12,-181.16 820.96,-166.31 859.23,-156.13"/>
<polygon fill="midnightblue" stroke="midnightblue" points="860.28,-159.47 869.05,-153.52 858.48,-152.7 860.28,-159.47"/>
</g>
<!-- Node14 -->
<g id="node14" class="node">
<title>Node14</title>
<g id="a_node14"><a xlink:title=" ">
<polygon fill="white" stroke="#bfbfbf" points="676.06,-134.5 676.06,-153.5 720.06,-153.5 720.06,-134.5 676.06,-134.5"/>
<text text-anchor="middle" x="698.06" y="-141.5" font-family="Helvetica,sans-Serif" font-size="10.00">string</text>
</a>
</g>
</g>
<!-- Node11&#45;&gt;Node14 -->
<g id="edge17" class="edge">
<title>Node11&#45;&gt;Node14</title>
<path fill="none" stroke="midnightblue" d="M698.06,-190.08C698.06,-183.01 698.06,-172.86 698.06,-163.99"/>
<polygon fill="midnightblue" stroke="midnightblue" points="701.56,-163.75 698.06,-153.75 694.56,-163.75 701.56,-163.75"/>
</g>
<!-- Node15 -->
<g id="node15" class="node">
<title>Node15</title>
<g id="a_node15"><a xlink:title=" ">
<polygon fill="white" stroke="#bfbfbf" points="738.56,-134.5 738.56,-153.5 811.56,-153.5 811.56,-134.5 738.56,-134.5"/>
<text text-anchor="middle" x="775.06" y="-141.5" font-family="Helvetica,sans-Serif" font-size="10.00">string_view</text>
</a>
</g>
</g>
<!-- Node11&#45;&gt;Node15 -->
<g id="edge18" class="edge">
<title>Node11&#45;&gt;Node15</title>
<path fill="none" stroke="midnightblue" d="M710.43,-190.32C722.22,-182.06 740.19,-169.45 754.2,-159.63"/>
<polygon fill="midnightblue" stroke="midnightblue" points="756.54,-162.26 762.72,-153.65 752.52,-156.53 756.54,-162.26"/>
</g>
<!-- Node16 -->
<g id="node16" class="node">
<title>Node16</title>
<g id="a_node16"><a xlink:href="tchar_8h.html" target="_top" xlink:title=" ">
<polygon fill="white" stroke="black" points="282.56,-134.5 282.56,-153.5 381.56,-153.5 381.56,-134.5 282.56,-134.5"/>
<text text-anchor="middle" x="332.06" y="-141.5" font-family="Helvetica,sans-Serif" font-size="10.00">log4cplus/tchar.h</text>
</a>
</g>
</g>
<!-- Node11&#45;&gt;Node16 -->
<g id="edge19" class="edge">
<title>Node11&#45;&gt;Node16</title>
<path fill="none" stroke="midnightblue" d="M644.45,-191.09C577.08,-181.15 461.8,-164.14 391.71,-153.8"/>
<polygon fill="midnightblue" stroke="midnightblue" points="392.11,-150.32 381.71,-152.32 391.09,-157.25 392.11,-150.32"/>
</g>
<!-- Node16&#45;&gt;Node2 -->
<g id="edge20" class="edge">
<title>Node16&#45;&gt;Node2</title>
<path fill="none" stroke="midnightblue" d="M381.69,-134.98C447.93,-124.27 565.25,-105.3 637.48,-93.62"/>
<polygon fill="midnightblue" stroke="midnightblue" points="638.05,-97.07 647.36,-92.02 636.93,-90.16 638.05,-97.07"/>
</g>
<!-- Node17 -->
<g id="node17" class="node">
<title>Node17</title>
<g id="a_node17"><a xlink:title=" ">
<polygon fill="white" stroke="#bfbfbf" points="305.56,-73 305.56,-92 358.56,-92 358.56,-73 305.56,-73"/>
<text text-anchor="middle" x="332.06" y="-80" font-family="Helvetica,sans-Serif" font-size="10.00">cstddef</text>
</a>
</g>
</g>
<!-- Node16&#45;&gt;Node17 -->
<g id="edge21" class="edge">
<title>Node16&#45;&gt;Node17</title>
<path fill="none" stroke="midnightblue" d="M332.06,-134.48C332.06,-126.08 332.06,-112.98 332.06,-102.16"/>
<polygon fill="midnightblue" stroke="midnightblue" points="335.56,-102.01 332.06,-92.01 328.56,-102.01 335.56,-102.01"/>
</g>
<!-- Node18&#45;&gt;Node2 -->
<g id="edge23" class="edge">
<title>Node18&#45;&gt;Node2</title>
<path fill="none" stroke="midnightblue" d="M1385.44,-190.43C1404.16,-177.42 1434.09,-152.27 1417.06,-134 1373.42,-87.17 939.14,-82.97 768.44,-83.14"/>
<polygon fill="midnightblue" stroke="midnightblue" points="768.31,-79.64 758.32,-83.16 768.32,-86.64 768.31,-79.64"/>
</g>
<!-- Node18&#45;&gt;Node19 -->
<g id="edge24" class="edge">
<title>Node18&#45;&gt;Node19</title>
<path fill="none" stroke="midnightblue" d="M1417.38,-190.44C1467.69,-180.94 1548.9,-165.61 1602.88,-155.42"/>
<polygon fill="midnightblue" stroke="midnightblue" points="1603.78,-158.81 1612.96,-153.52 1602.48,-151.93 1603.78,-158.81"/>
</g>
<!-- Node23 -->
<g id="node23" class="node">
<title>Node23</title>
<g id="a_node23"><a xlink:title=" ">
<polygon fill="white" stroke="#bfbfbf" points="1274.06,-134.5 1274.06,-153.5 1338.06,-153.5 1338.06,-134.5 1274.06,-134.5"/>
<text text-anchor="middle" x="1306.06" y="-141.5" font-family="Helvetica,sans-Serif" font-size="10.00">algorithm</text>
</a>
</g>
</g>
<!-- Node18&#45;&gt;Node23 -->
<g id="edge29" class="edge">
<title>Node18&#45;&gt;Node23</title>
<path fill="none" stroke="midnightblue" d="M1361.46,-190.32C1351.61,-182.26 1336.71,-170.08 1324.85,-160.37"/>
<polygon fill="midnightblue" stroke="midnightblue" points="1326.81,-157.46 1316.86,-153.83 1322.38,-162.88 1326.81,-157.46"/>
</g>
<!-- Node24 -->
<g id="node24" class="node">
<title>Node24</title>
<g id="a_node24"><a xlink:title=" ">
<polygon fill="white" stroke="#bfbfbf" points="1356.06,-134.5 1356.06,-153.5 1408.06,-153.5 1408.06,-134.5 1356.06,-134.5"/>
<text text-anchor="middle" x="1382.06" y="-141.5" font-family="Helvetica,sans-Serif" font-size="10.00">cassert</text>
</a>
</g>
</g>
<!-- Node18&#45;&gt;Node24 -->
<g id="edge30" class="edge">
<title>Node18&#45;&gt;Node24</title>
<path fill="none" stroke="midnightblue" d="M1373.71,-190.08C1375.04,-182.93 1376.94,-172.64 1378.6,-163.69"/>
<polygon fill="midnightblue" stroke="midnightblue" points="1382.06,-164.22 1380.44,-153.75 1375.18,-162.95 1382.06,-164.22"/>
</g>
<!-- Node18&#45;&gt;Node25 -->
<g id="edge31" class="edge">
<title>Node18&#45;&gt;Node25</title>
<path fill="none" stroke="midnightblue" d="M1349.72,-190.44C1326.31,-181.48 1289.33,-167.31 1262.87,-157.18"/>
<polygon fill="midnightblue" stroke="midnightblue" points="1263.89,-153.82 1253.3,-153.52 1261.39,-160.36 1263.89,-153.82"/>
</g>
<!-- Node19&#45;&gt;Node2 -->
<g id="edge25" class="edge">
<title>Node19&#45;&gt;Node2</title>
<path fill="none" stroke="midnightblue" d="M1577.83,-135.12C1573.17,-134.72 1568.56,-134.35 1564.06,-134 1268.17,-111.2 914.56,-93.52 768.42,-86.63"/>
<polygon fill="midnightblue" stroke="midnightblue" points="768.41,-83.13 758.26,-86.16 768.09,-90.12 768.41,-83.13"/>
</g>
<!-- Node19&#45;&gt;Node20 -->
<g id="edge26" class="edge">
<title>Node19&#45;&gt;Node20</title>
<path fill="none" stroke="midnightblue" d="M1665.23,-134.48C1672.8,-125.46 1684.93,-111.02 1694.35,-99.81"/>
<polygon fill="midnightblue" stroke="midnightblue" points="1697.16,-101.92 1700.91,-92.01 1691.8,-97.41 1697.16,-101.92"/>
</g>
<!-- Node19&#45;&gt;Node21 -->
<g id="edge27" class="edge">
<title>Node19&#45;&gt;Node21</title>
<path fill="none" stroke="midnightblue" d="M1678.98,-134.48C1703.81,-124.36 1745.41,-107.4 1773.76,-95.85"/>
<polygon fill="midnightblue" stroke="midnightblue" points="1775.24,-99.02 1783.18,-92.01 1772.6,-92.54 1775.24,-99.02"/>
</g>
<!-- Node22 -->
<g id="node22" class="node">
<title>Node22</title>
<g id="a_node22"><a xlink:href="threadsafetyanalysis_8h.html" target="_top" xlink:title=" ">
<polygon fill="white" stroke="black" points="1534.56,-67.5 1534.56,-97.5 1665.56,-97.5 1665.56,-67.5 1534.56,-67.5"/>
<text text-anchor="start" x="1542.56" y="-85.5" font-family="Helvetica,sans-Serif" font-size="10.00">log4cplus/internal</text>
<text text-anchor="middle" x="1600.06" y="-74.5" font-family="Helvetica,sans-Serif" font-size="10.00">/threadsafetyanalysis.h</text>
</a>
</g>
</g>
<!-- Node19&#45;&gt;Node22 -->
<g id="edge28" class="edge">
<title>Node19&#45;&gt;Node22</title>
<path fill="none" stroke="midnightblue" d="M1649.75,-134.48C1642.26,-126.79 1630.94,-115.17 1620.99,-104.96"/>
<polygon fill="midnightblue" stroke="midnightblue" points="1623.22,-102.24 1613.73,-97.52 1618.21,-107.13 1623.22,-102.24"/>
</g>
<!-- Node26&#45;&gt;Node2 -->
<g id="edge33" class="edge">
<title>Node26&#45;&gt;Node2</title>
<path fill="none" stroke="midnightblue" d="M342.63,-190.31C360.36,-176.19 397.76,-148.4 434.06,-134 498.54,-108.43 577.07,-95.56 632.02,-89.24"/>
<polygon fill="midnightblue" stroke="midnightblue" points="632.45,-92.72 642,-88.14 631.68,-85.76 632.45,-92.72"/>
</g>
<!-- Node26&#45;&gt;Node16 -->
<g id="edge34" class="edge">
<title>Node26&#45;&gt;Node16</title>
<path fill="none" stroke="midnightblue" d="M332.06,-190.08C332.06,-183.01 332.06,-172.86 332.06,-163.99"/>
<polygon fill="midnightblue" stroke="midnightblue" points="335.56,-163.75 332.06,-153.75 328.56,-163.75 335.56,-163.75"/>
</g>
<!-- Node27 -->
<g id="node27" class="node">
<title>Node27</title>
<g id="a_node27"><a xlink:title=" ">
<polygon fill="white" stroke="#bfbfbf" points="216.06,-134.5 216.06,-153.5 264.06,-153.5 264.06,-134.5 216.06,-134.5"/>
<text text-anchor="middle" x="240.06" y="-141.5" font-family="Helvetica,sans-Serif" font-size="10.00">iosfwd</text>
</a>
</g>
</g>
<!-- Node26&#45;&gt;Node27 -->
<g id="edge35" class="edge">
<title>Node26&#45;&gt;Node27</title>
<path fill="none" stroke="midnightblue" d="M317.28,-190.32C302.8,-181.82 280.49,-168.73 263.57,-158.8"/>
<polygon fill="midnightblue" stroke="midnightblue" points="265.2,-155.7 254.81,-153.65 261.66,-161.74 265.2,-155.7"/>
</g>
<!-- Node28&#45;&gt;Node2 -->
<g id="edge38" class="edge">
<title>Node28&#45;&gt;Node2</title>
<path fill="none" stroke="midnightblue" d="M909.1,-246.41C928.02,-225.13 971.69,-169.19 943.06,-134 921.35,-107.31 832.15,-94.27 768.12,-88.23"/>
<polygon fill="midnightblue" stroke="midnightblue" points="768.35,-84.74 758.08,-87.32 767.72,-91.71 768.35,-84.74"/>
</g>
<!-- Node28&#45;&gt;Node11 -->
<g id="edge39" class="edge">
<title>Node28&#45;&gt;Node11</title>
<path fill="none" stroke="midnightblue" d="M868.9,-246.44C834,-237.16 778.17,-222.31 739.89,-212.13"/>
<polygon fill="midnightblue" stroke="midnightblue" points="740.64,-208.7 730.08,-209.52 738.84,-215.47 740.64,-208.7"/>
</g>
<!-- Node29 -->
<g id="node29" class="node">
<title>Node29</title>
<g id="a_node29"><a xlink:title=" ">
<polygon fill="white" stroke="#bfbfbf" points="808.06,-190.5 808.06,-209.5 852.06,-209.5 852.06,-190.5 808.06,-190.5"/>
<text text-anchor="middle" x="830.06" y="-197.5" font-family="Helvetica,sans-Serif" font-size="10.00">ctime</text>
</a>
</g>
</g>
<!-- Node28&#45;&gt;Node29 -->
<g id="edge40" class="edge">
<title>Node28&#45;&gt;Node29</title>
<path fill="none" stroke="midnightblue" d="M889.65,-246.32C878.95,-238.18 862.72,-225.84 849.9,-216.09"/>
<polygon fill="midnightblue" stroke="midnightblue" points="851.76,-213.1 841.68,-209.83 847.52,-218.67 851.76,-213.1"/>
</g>
<!-- Node30 -->
<g id="node30" class="node">
<title>Node30</title>
<g id="a_node30"><a xlink:title=" ">
<polygon fill="white" stroke="#bfbfbf" points="870.06,-190.5 870.06,-209.5 920.06,-209.5 920.06,-190.5 870.06,-190.5"/>
<text text-anchor="middle" x="895.06" y="-197.5" font-family="Helvetica,sans-Serif" font-size="10.00">chrono</text>
</a>
</g>
</g>
<!-- Node28&#45;&gt;Node30 -->
<g id="edge41" class="edge">
<title>Node28&#45;&gt;Node30</title>
<path fill="none" stroke="midnightblue" d="M900.07,-246.08C899.28,-238.93 898.13,-228.64 897.14,-219.69"/>
<polygon fill="midnightblue" stroke="midnightblue" points="900.62,-219.3 896.03,-209.75 893.66,-220.08 900.62,-219.3"/>
</g>
<!-- Node31&#45;&gt;Node2 -->
<g id="edge48" class="edge">
<title>Node31&#45;&gt;Node2</title>
<path fill="none" stroke="midnightblue" d="M1255.97,-302.43C1267.67,-288.48 1292.8,-260.93 1320.06,-246 1374.53,-216.18 1417.23,-259.24 1455.06,-210 1471.66,-188.39 1450.42,-146.72 1433.06,-134 1380.23,-95.27 940.19,-86.18 768.39,-84.1"/>
<polygon fill="midnightblue" stroke="midnightblue" points="768.24,-80.6 758.2,-83.98 768.16,-87.6 768.24,-80.6"/>
</g>
<!-- Node31&#45;&gt;Node7 -->
<g id="edge51" class="edge">
<title>Node31&#45;&gt;Node7</title>
<path fill="none" stroke="midnightblue" d="M1236.85,-302.32C1225.29,-294.11 1207.69,-281.6 1193.9,-271.81"/>
<polygon fill="midnightblue" stroke="midnightblue" points="1195.67,-268.77 1185.49,-265.83 1191.62,-274.48 1195.67,-268.77"/>
</g>
<!-- Node31&#45;&gt;Node13 -->
<g id="edge49" class="edge">
<title>Node31&#45;&gt;Node13</title>
<path fill="none" stroke="midnightblue" d="M1192,-308.94C1079.29,-304.34 836.61,-291.56 809.06,-266 784.09,-242.83 780.46,-218.54 799.06,-190 812.26,-169.75 836.85,-158.55 858.58,-152.39"/>
<polygon fill="midnightblue" stroke="midnightblue" points="859.49,-155.77 868.31,-149.9 857.76,-148.99 859.49,-155.77"/>
</g>
<!-- Node31&#45;&gt;Node18 -->
<g id="edge50" class="edge">
<title>Node31&#45;&gt;Node18</title>
<path fill="none" stroke="midnightblue" d="M1251.51,-302.36C1255.72,-288.81 1265.55,-262.42 1282.06,-246 1296.8,-231.35 1317.28,-220.6 1334.98,-213.28"/>
<polygon fill="midnightblue" stroke="midnightblue" points="1336.43,-216.47 1344.47,-209.57 1333.88,-209.95 1336.43,-216.47"/>
</g>
<!-- Node32&#45;&gt;Node2 -->
<g id="edge53" class="edge">
<title>Node32&#45;&gt;Node2</title>
<path fill="none" stroke="midnightblue" d="M1513.47,-246.28C1516.56,-223.71 1521.24,-163.07 1488.06,-134 1434.58,-87.14 950.22,-83.07 768.51,-83.2"/>
<polygon fill="midnightblue" stroke="midnightblue" points="768.27,-79.7 758.27,-83.22 768.28,-86.7 768.27,-79.7"/>
</g>
<!-- Node32&#45;&gt;Node11 -->
<g id="edge54" class="edge">
<title>Node32&#45;&gt;Node11</title>
<path fill="none" stroke="midnightblue" d="M1437.34,-250.92C1307.47,-243.69 1031.72,-227.71 799.06,-210 787.06,-209.09 774.27,-208.02 761.96,-206.95"/>
<polygon fill="midnightblue" stroke="midnightblue" points="762.04,-203.44 751.77,-206.05 761.42,-210.41 762.04,-203.44"/>
</g>
<!-- Node32&#45;&gt;Node19 -->
<g id="edge55" class="edge">
<title>Node32&#45;&gt;Node19</title>
<path fill="none" stroke="midnightblue" d="M1523.52,-246.37C1548.36,-227.65 1607.43,-183.15 1638.38,-159.83"/>
<polygon fill="midnightblue" stroke="midnightblue" points="1640.78,-162.4 1646.66,-153.59 1636.57,-156.81 1640.78,-162.4"/>
</g>
<!-- Node33&#45;&gt;Node2 -->
<g id="edge61" class="edge">
<title>Node33&#45;&gt;Node2</title>
<path fill="none" stroke="midnightblue" d="M251.76,-307.51C181.44,-302.67 81.84,-291.45 53.06,-266 7.76,-225.94 -21.08,-178.32 20.06,-134 40.67,-111.8 463.15,-92.81 631.6,-86.1"/>
<polygon fill="midnightblue" stroke="midnightblue" points="631.99,-89.58 641.84,-85.69 631.71,-82.59 631.99,-89.58"/>
</g>
<!-- Node33&#45;&gt;Node11 -->
<g id="edge64" class="edge">
<title>Node33&#45;&gt;Node11</title>
<path fill="none" stroke="midnightblue" d="M344.38,-302.41C375.28,-288.92 437.96,-262.6 493.06,-246 541.57,-231.39 597.86,-219.37 639.16,-211.45"/>
<polygon fill="midnightblue" stroke="midnightblue" points="639.89,-214.87 649.06,-209.57 638.59,-207.99 639.89,-214.87"/>
</g>
<!-- Node34 -->
<g id="node34" class="node">
<title>Node34</title>
<g id="a_node34"><a xlink:title=" ">
<polygon fill="white" stroke="#bfbfbf" points="254.06,-246.5 254.06,-265.5 296.06,-265.5 296.06,-246.5 254.06,-246.5"/>
<text text-anchor="middle" x="275.06" y="-253.5" font-family="Helvetica,sans-Serif" font-size="10.00">array</text>
</a>
</g>
</g>
<!-- Node33&#45;&gt;Node34 -->
<g id="edge62" class="edge">
<title>Node33&#45;&gt;Node34</title>
<path fill="none" stroke="midnightblue" d="M316.81,-302.08C309.6,-294.3 298.95,-282.8 290.22,-273.37"/>
<polygon fill="midnightblue" stroke="midnightblue" points="292.53,-270.71 283.16,-265.75 287.39,-275.47 292.53,-270.71"/>
</g>
<!-- Node35 -->
<g id="node35" class="node">
<title>Node35</title>
<g id="a_node35"><a xlink:title=" ">
<polygon fill="white" stroke="#bfbfbf" points="314.06,-246.5 314.06,-265.5 370.06,-265.5 370.06,-246.5 314.06,-246.5"/>
<text text-anchor="middle" x="342.06" y="-253.5" font-family="Helvetica,sans-Serif" font-size="10.00">optional</text>
</a>
</g>
</g>
<!-- Node33&#45;&gt;Node35 -->
<g id="edge63" class="edge">
<title>Node33&#45;&gt;Node35</title>
<path fill="none" stroke="midnightblue" d="M327.87,-302.08C330.15,-294.85 333.43,-284.41 336.27,-275.4"/>
<polygon fill="midnightblue" stroke="midnightblue" points="339.64,-276.34 339.31,-265.75 332.97,-274.24 339.64,-276.34"/>
</g>
<!-- Node36 -->
<g id="node36" class="node">
<title>Node36</title>
<g id="a_node36"><a xlink:href="socketbuffer_8h.html" target="_top" xlink:title=" ">
<polygon fill="white" stroke="black" points="62.56,-246.5 62.56,-265.5 235.56,-265.5 235.56,-246.5 62.56,-246.5"/>
<text text-anchor="middle" x="149.06" y="-253.5" font-family="Helvetica,sans-Serif" font-size="10.00">log4cplus/helpers/socketbuffer.h</text>
</a>
</g>
</g>
<!-- Node33&#45;&gt;Node36 -->
<g id="edge65" class="edge">
<title>Node33&#45;&gt;Node36</title>
<path fill="none" stroke="midnightblue" d="M297.17,-302.44C267.31,-293.28 219.75,-278.69 186.61,-268.52"/>
<polygon fill="midnightblue" stroke="midnightblue" points="187.41,-265.1 176.82,-265.52 185.35,-271.8 187.41,-265.1"/>
</g>
<!-- Node36&#45;&gt;Node2 -->
<g id="edge66" class="edge">
<title>Node36&#45;&gt;Node2</title>
<path fill="none" stroke="midnightblue" d="M150.29,-246.45C154.04,-223.73 167.62,-161.74 207.06,-134 241.07,-110.09 504.71,-93.5 631.88,-86.8"/>
<polygon fill="midnightblue" stroke="midnightblue" points="632.1,-90.3 641.91,-86.28 631.74,-83.31 632.1,-90.3"/>
</g>
<!-- Node36&#45;&gt;Node11 -->
<g id="edge67" class="edge">
<title>Node36&#45;&gt;Node11</title>
<path fill="none" stroke="midnightblue" d="M235.75,-246.47C346.5,-235.58 535.61,-216.98 634.13,-207.29"/>
<polygon fill="midnightblue" stroke="midnightblue" points="634.63,-210.76 644.24,-206.29 633.95,-203.79 634.63,-210.76"/>
</g>
<!-- Node37&#45;&gt;Node2 -->
<g id="edge70" class="edge">
<title>Node37&#45;&gt;Node2</title>
<path fill="none" stroke="midnightblue" d="M568.76,-246.47C553.97,-225.33 520.21,-169.69 546.06,-134 565.72,-106.86 600.43,-94.04 631.92,-88.1"/>
<polygon fill="midnightblue" stroke="midnightblue" points="632.73,-91.51 642.01,-86.4 631.56,-84.61 632.73,-91.51"/>
</g>
<!-- Node37&#45;&gt;Node9 -->
<g id="edge71" class="edge">
<title>Node37&#45;&gt;Node9</title>
<path fill="none" stroke="midnightblue" d="M643.2,-246.44C734.16,-235.02 892.3,-215.16 965.63,-205.95"/>
<polygon fill="midnightblue" stroke="midnightblue" points="966.33,-209.39 975.82,-204.67 965.46,-202.45 966.33,-209.39"/>
</g>
<!-- Node37&#45;&gt;Node11 -->
<g id="edge73" class="edge">
<title>Node37&#45;&gt;Node11</title>
<path fill="none" stroke="midnightblue" d="M594.55,-246.44C614.7,-237.6 646.39,-223.69 669.39,-213.59"/>
<polygon fill="midnightblue" stroke="midnightblue" points="670.91,-216.74 678.66,-209.52 668.1,-210.33 670.91,-216.74"/>
</g>
<!-- Node37&#45;&gt;Node18 -->
<g id="edge74" class="edge">
<title>Node37&#45;&gt;Node18</title>
<path fill="none" stroke="midnightblue" d="M648.26,-250.04C796.43,-240 1131.1,-217.33 1287.96,-206.7"/>
<polygon fill="midnightblue" stroke="midnightblue" points="1288.29,-210.18 1298.03,-206.02 1287.81,-203.2 1288.29,-210.18"/>
</g>
<!-- Node38 -->
<g id="node38" class="node">
<title>Node38</title>
<g id="a_node38"><a xlink:title=" ">
<polygon fill="white" stroke="#bfbfbf" points="446.06,-190.5 446.06,-209.5 494.06,-209.5 494.06,-190.5 446.06,-190.5"/>
<text text-anchor="middle" x="470.06" y="-197.5" font-family="Helvetica,sans-Serif" font-size="10.00">thread</text>
</a>
</g>
</g>
<!-- Node37&#45;&gt;Node38 -->
<g id="edge72" class="edge">
<title>Node37&#45;&gt;Node38</title>
<path fill="none" stroke="midnightblue" d="M558.19,-246.32C541.35,-237.66 515.26,-224.24 495.82,-214.25"/>
<polygon fill="midnightblue" stroke="midnightblue" points="497.38,-211.12 486.89,-209.65 494.18,-217.34 497.38,-211.12"/>
</g>
<!-- Node39&#45;&gt;Node2 -->
<g id="edge76" class="edge">
<title>Node39&#45;&gt;Node2</title>
<path fill="none" stroke="midnightblue" d="M353.05,-360.7C230.13,-350 34.06,-322.65 34.06,-257 34.06,-257 34.06,-257 34.06,-199 34.06,-126.75 113.14,-152.18 183.06,-134 340.07,-93.18 531.69,-84.79 631.77,-83.41"/>
<polygon fill="midnightblue" stroke="midnightblue" points="632.08,-86.91 642.04,-83.29 632,-79.91 632.08,-86.91"/>
</g>
<!-- Node39&#45;&gt;Node19 -->
<g id="edge77" class="edge">
<title>Node39&#45;&gt;Node19</title>
<path fill="none" stroke="midnightblue" d="M547.07,-364.85C757.71,-359.76 1243.82,-345.61 1315.06,-322 1372.86,-302.85 1375.67,-275.28 1429.06,-246 1496.71,-208.89 1580.69,-174.67 1625.8,-157.18"/>
<polygon fill="midnightblue" stroke="midnightblue" points="1627.27,-160.37 1635.34,-153.51 1624.75,-153.84 1627.27,-160.37"/>
</g>
<!-- Node39&#45;&gt;Node33 -->
<g id="edge79" class="edge">
<title>Node39&#45;&gt;Node33</title>
<path fill="none" stroke="midnightblue" d="M430.26,-358.44C409.78,-349.6 377.58,-335.69 354.2,-325.59"/>
<polygon fill="midnightblue" stroke="midnightblue" points="355.34,-322.27 344.78,-321.52 352.57,-328.7 355.34,-322.27"/>
</g>
<!-- Node39&#45;&gt;Node37 -->
<g id="edge78" class="edge">
<title>Node39&#45;&gt;Node37</title>
<path fill="none" stroke="midnightblue" d="M459.87,-358.37C480.96,-339.81 530.84,-295.91 557.52,-272.44"/>
<polygon fill="midnightblue" stroke="midnightblue" points="560.1,-274.83 565.3,-265.59 555.48,-269.57 560.1,-274.83"/>
</g>
</g>
</svg>
