<?xml version="1.0" encoding="UTF-8" standalone="no"?>
<!DOCTYPE svg PUBLIC "-//W3C//DTD SVG 1.1//EN"
 "http://www.w3.org/Graphics/SVG/1.1/DTD/svg11.dtd">
<!-- Generated by graphviz version 2.43.0 (0)
 -->
<!-- Title: streams.h Pages: 1 -->
<svg width="2046pt" height="420pt"
 viewBox="0.00 0.00 2046.00 420.00" xmlns="http://www.w3.org/2000/svg" xmlns:xlink="http://www.w3.org/1999/xlink">
<g id="graph0" class="graph" transform="scale(1 1) rotate(0) translate(4 416)">
<title>streams.h</title>
<polygon fill="white" stroke="transparent" points="-4,4 -4,-416 2042,-416 2042,4 -4,4"/>
<!-- Node1 -->
<g id="node1" class="node">
<title>Node1</title>
<g id="a_node1"><a xlink:title=" ">
<polygon fill="#bfbfbf" stroke="black" points="196,-392.5 196,-411.5 261,-411.5 261,-392.5 196,-392.5"/>
<text text-anchor="middle" x="228.5" y="-399.5" font-family="Helvetica,sans-Serif" font-size="10.00">streams.h</text>
</a>
</g>
</g>
<!-- Node2 -->
<g id="node2" class="node">
<title>Node2</title>
<g id="a_node2"><a xlink:href="internal_8h.html" target="_top" xlink:title="This header contains declaration internal to log4cplus.">
<polygon fill="white" stroke="black" points="60,-336.5 60,-355.5 123,-355.5 123,-336.5 60,-336.5"/>
<text text-anchor="middle" x="91.5" y="-343.5" font-family="Helvetica,sans-Serif" font-size="10.00">internal.h</text>
</a>
</g>
</g>
<!-- Node1&#45;&gt;Node2 -->
<g id="edge1" class="edge">
<title>Node1&#45;&gt;Node2</title>
<path fill="none" stroke="midnightblue" d="M197.48,-388.77C171.74,-378.63 135.81,-364.47 113.11,-355.52"/>
<polygon fill="midnightblue" stroke="midnightblue" points="196.21,-392.03 206.79,-392.44 198.77,-385.52 196.21,-392.03"/>
</g>
<!-- Node4 -->
<g id="node4" class="node">
<title>Node4</title>
<g id="a_node4"><a xlink:href="layout_8h.html" target="_top" xlink:title=" ">
<polygon fill="white" stroke="black" points="1647.5,-336.5 1647.5,-355.5 1703.5,-355.5 1703.5,-336.5 1647.5,-336.5"/>
<text text-anchor="middle" x="1675.5" y="-343.5" font-family="Helvetica,sans-Serif" font-size="10.00">layout.h</text>
</a>
</g>
</g>
<!-- Node1&#45;&gt;Node4 -->
<g id="edge3" class="edge">
<title>Node1&#45;&gt;Node4</title>
<path fill="none" stroke="midnightblue" d="M271.15,-399.41C488.39,-391.3 1468.6,-354.72 1647.44,-348.05"/>
<polygon fill="midnightblue" stroke="midnightblue" points="270.96,-395.91 261.1,-399.78 271.22,-402.91 270.96,-395.91"/>
</g>
<!-- Node16 -->
<g id="node16" class="node">
<title>Node16</title>
<g id="a_node16"><a xlink:href="loggingmacros_8h.html" target="_top" xlink:title="This header defines the logging macros.">
<polygon fill="white" stroke="black" points="872.5,-56.5 872.5,-75.5 970.5,-75.5 970.5,-56.5 872.5,-56.5"/>
<text text-anchor="middle" x="921.5" y="-63.5" font-family="Helvetica,sans-Serif" font-size="10.00">loggingmacros.h</text>
</a>
</g>
</g>
<!-- Node1&#45;&gt;Node16 -->
<g id="edge50" class="edge">
<title>Node1&#45;&gt;Node16</title>
<path fill="none" stroke="midnightblue" d="M217.61,-383.59C204.12,-359.68 184.52,-315.59 198.5,-280 238.74,-177.53 277.44,-150.68 380.5,-112 469.84,-78.47 756.35,-69.83 872.2,-67.68"/>
<polygon fill="midnightblue" stroke="midnightblue" points="214.63,-385.43 222.74,-392.25 220.66,-381.86 214.63,-385.43"/>
</g>
<!-- Node33 -->
<g id="node33" class="node">
<title>Node33</title>
<g id="a_node33"><a xlink:href="loglog_8h.html" target="_top" xlink:title=" ">
<polygon fill="white" stroke="black" points="256.5,-336.5 256.5,-355.5 312.5,-355.5 312.5,-336.5 256.5,-336.5"/>
<text text-anchor="middle" x="284.5" y="-343.5" font-family="Helvetica,sans-Serif" font-size="10.00">loglog.h</text>
</a>
</g>
</g>
<!-- Node1&#45;&gt;Node33 -->
<g id="edge51" class="edge">
<title>Node1&#45;&gt;Node33</title>
<path fill="none" stroke="midnightblue" d="M244.83,-385.25C254.76,-375.67 267.09,-363.79 275.34,-355.83"/>
<polygon fill="midnightblue" stroke="midnightblue" points="242.27,-382.86 237.5,-392.32 247.13,-387.9 242.27,-382.86"/>
</g>
<!-- Node34 -->
<g id="node34" class="node">
<title>Node34</title>
<g id="a_node34"><a xlink:href="property_8h.html" target="_top" xlink:title=" ">
<polygon fill="white" stroke="black" points="208,-280.5 208,-299.5 273,-299.5 273,-280.5 208,-280.5"/>
<text text-anchor="middle" x="240.5" y="-287.5" font-family="Helvetica,sans-Serif" font-size="10.00">property.h</text>
</a>
</g>
</g>
<!-- Node1&#45;&gt;Node34 -->
<g id="edge52" class="edge">
<title>Node1&#45;&gt;Node34</title>
<path fill="none" stroke="midnightblue" d="M230.53,-382.35C233.16,-358.25 237.63,-317.31 239.56,-299.59"/>
<polygon fill="midnightblue" stroke="midnightblue" points="227.05,-382.05 229.44,-392.37 234.01,-382.81 227.05,-382.05"/>
</g>
<!-- Node3 -->
<g id="node3" class="node">
<title>Node3</title>
<g id="a_node3"><a xlink:href="customloglevelmanager_8h.html" target="_top" xlink:title="This header contains declaration internal to log4cplus.">
<polygon fill="white" stroke="black" points="0,-280.5 0,-299.5 143,-299.5 143,-280.5 0,-280.5"/>
<text text-anchor="middle" x="71.5" y="-287.5" font-family="Helvetica,sans-Serif" font-size="10.00">customloglevelmanager.h</text>
</a>
</g>
</g>
<!-- Node2&#45;&gt;Node3 -->
<g id="edge2" class="edge">
<title>Node2&#45;&gt;Node3</title>
<path fill="none" stroke="midnightblue" d="M84.72,-326.69C81.35,-317.59 77.43,-307.01 74.74,-299.75"/>
<polygon fill="midnightblue" stroke="midnightblue" points="81.44,-327.92 88.2,-336.08 88.01,-325.49 81.44,-327.92"/>
</g>
<!-- Node5 -->
<g id="node5" class="node">
<title>Node5</title>
<g id="a_node5"><a xlink:href="appender_8h.html" target="_top" xlink:title=" ">
<polygon fill="white" stroke="black" points="1365,-280.5 1365,-299.5 1436,-299.5 1436,-280.5 1365,-280.5"/>
<text text-anchor="middle" x="1400.5" y="-287.5" font-family="Helvetica,sans-Serif" font-size="10.00">appender.h</text>
</a>
</g>
</g>
<!-- Node4&#45;&gt;Node5 -->
<g id="edge4" class="edge">
<title>Node4&#45;&gt;Node5</title>
<path fill="none" stroke="midnightblue" d="M1637.3,-337.5C1584,-327.03 1488.04,-308.19 1436.14,-298"/>
<polygon fill="midnightblue" stroke="midnightblue" points="1636.88,-340.98 1647.36,-339.47 1638.22,-334.11 1636.88,-340.98"/>
</g>
<!-- Node9 -->
<g id="node9" class="node">
<title>Node9</title>
<g id="a_node9"><a xlink:href="log4cplus_8h.html" target="_top" xlink:title=" ">
<polygon fill="white" stroke="black" points="1435.5,-0.5 1435.5,-19.5 1507.5,-19.5 1507.5,-0.5 1435.5,-0.5"/>
<text text-anchor="middle" x="1471.5" y="-7.5" font-family="Helvetica,sans-Serif" font-size="10.00">log4cplus.h</text>
</a>
</g>
</g>
<!-- Node4&#45;&gt;Node9 -->
<g id="edge49" class="edge">
<title>Node4&#45;&gt;Node9</title>
<path fill="none" stroke="midnightblue" d="M1713.7,-338.02C1789.25,-323.11 1950.5,-285.4 1950.5,-235 1950.5,-235 1950.5,-235 1950.5,-121 1950.5,-30.13 1618.9,-14.32 1507.5,-11.58"/>
<polygon fill="midnightblue" stroke="midnightblue" points="1712.79,-334.63 1703.64,-339.97 1714.12,-341.5 1712.79,-334.63"/>
</g>
<!-- Node22 -->
<g id="node22" class="node">
<title>Node22</title>
<g id="a_node22"><a xlink:href="factory_8h.html" target="_top" xlink:title=" ">
<polygon fill="white" stroke="black" points="1979,-224.5 1979,-243.5 2038,-243.5 2038,-224.5 1979,-224.5"/>
<text text-anchor="middle" x="2008.5" y="-231.5" font-family="Helvetica,sans-Serif" font-size="10.00">factory.h</text>
</a>
</g>
</g>
<!-- Node4&#45;&gt;Node22 -->
<g id="edge48" class="edge">
<title>Node4&#45;&gt;Node22</title>
<path fill="none" stroke="midnightblue" d="M1713.81,-342.81C1782.56,-338.26 1923.51,-325.99 1964.5,-300 1985.91,-286.43 1999.43,-258.26 2005.23,-243.88"/>
<polygon fill="midnightblue" stroke="midnightblue" points="1713.57,-339.31 1703.82,-343.45 1714.02,-346.3 1713.57,-339.31"/>
</g>
<!-- Node6 -->
<g id="node6" class="node">
<title>Node6</title>
<g id="a_node6"><a xlink:href="appenderattachable_8h.html" target="_top" xlink:title=" ">
<polygon fill="white" stroke="black" points="840,-224.5 840,-243.5 963,-243.5 963,-224.5 840,-224.5"/>
<text text-anchor="middle" x="901.5" y="-231.5" font-family="Helvetica,sans-Serif" font-size="10.00">appenderattachable.h</text>
</a>
</g>
</g>
<!-- Node5&#45;&gt;Node6 -->
<g id="edge5" class="edge">
<title>Node5&#45;&gt;Node6</title>
<path fill="none" stroke="midnightblue" d="M1354.85,-284.56C1276.41,-276.87 1111.03,-260.29 971.5,-244 968.82,-243.69 966.09,-243.36 963.33,-243.03"/>
<polygon fill="midnightblue" stroke="midnightblue" points="1354.58,-288.06 1364.87,-285.55 1355.26,-281.09 1354.58,-288.06"/>
</g>
<!-- Node8 -->
<g id="node8" class="node">
<title>Node8</title>
<g id="a_node8"><a xlink:href="asyncappender_8h.html" target="_top" xlink:title=" ">
<polygon fill="white" stroke="black" points="1344,-112.5 1344,-131.5 1443,-131.5 1443,-112.5 1344,-112.5"/>
<text text-anchor="middle" x="1393.5" y="-119.5" font-family="Helvetica,sans-Serif" font-size="10.00">asyncappender.h</text>
</a>
</g>
</g>
<!-- Node5&#45;&gt;Node8 -->
<g id="edge23" class="edge">
<title>Node5&#45;&gt;Node8</title>
<path fill="none" stroke="midnightblue" d="M1399.7,-269.93C1398.18,-233.92 1394.94,-157.23 1393.86,-131.57"/>
<polygon fill="midnightblue" stroke="midnightblue" points="1396.21,-270.23 1400.12,-280.08 1403.2,-269.94 1396.21,-270.23"/>
</g>
<!-- Node5&#45;&gt;Node9 -->
<g id="edge35" class="edge">
<title>Node5&#45;&gt;Node9</title>
<path fill="none" stroke="midnightblue" d="M1446.27,-283.57C1492.66,-277.02 1559.77,-264.28 1575.5,-244 1610.39,-199 1530.04,-241.26 1490.5,-188 1451.26,-135.14 1464.17,-47.71 1469.61,-19.83"/>
<polygon fill="midnightblue" stroke="midnightblue" points="1445.57,-280.14 1436.13,-284.95 1446.51,-287.07 1445.57,-280.14"/>
</g>
<!-- Node13 -->
<g id="node13" class="node">
<title>Node13</title>
<g id="a_node13"><a xlink:href="configurator_8h.html" target="_top" xlink:title=" ">
<polygon fill="white" stroke="black" points="390,-112.5 390,-131.5 473,-131.5 473,-112.5 390,-112.5"/>
<text text-anchor="middle" x="431.5" y="-119.5" font-family="Helvetica,sans-Serif" font-size="10.00">configurator.h</text>
</a>
</g>
</g>
<!-- Node5&#45;&gt;Node13 -->
<g id="edge26" class="edge">
<title>Node5&#45;&gt;Node13</title>
<path fill="none" stroke="midnightblue" d="M1354.75,-288.32C1171.05,-285.42 495.27,-272.8 460.5,-244 426.23,-215.62 428.33,-154.56 430.46,-131.8"/>
<polygon fill="midnightblue" stroke="midnightblue" points="1354.83,-291.83 1364.88,-288.48 1354.94,-284.83 1354.83,-291.83"/>
</g>
<!-- Node15 -->
<g id="node15" class="node">
<title>Node15</title>
<g id="a_node15"><a xlink:href="hierarchylocker_8h.html" target="_top" xlink:title=" ">
<polygon fill="white" stroke="black" points="685.5,-112.5 685.5,-131.5 785.5,-131.5 785.5,-112.5 685.5,-112.5"/>
<text text-anchor="middle" x="735.5" y="-119.5" font-family="Helvetica,sans-Serif" font-size="10.00">hierarchylocker.h</text>
</a>
</g>
</g>
<!-- Node5&#45;&gt;Node15 -->
<g id="edge34" class="edge">
<title>Node5&#45;&gt;Node15</title>
<path fill="none" stroke="midnightblue" d="M1354.72,-288.5C1172.51,-286.31 507.08,-276.1 476.5,-244 410.18,-174.37 592.6,-140.83 685.24,-128.63"/>
<polygon fill="midnightblue" stroke="midnightblue" points="1354.74,-292 1364.78,-288.62 1354.82,-285 1354.74,-292"/>
</g>
<!-- Node18 -->
<g id="node18" class="node">
<title>Node18</title>
<g id="a_node18"><a xlink:href="callbackappender_8h.html" target="_top" xlink:title=" ">
<polygon fill="white" stroke="black" points="1812.5,-224.5 1812.5,-243.5 1922.5,-243.5 1922.5,-224.5 1812.5,-224.5"/>
<text text-anchor="middle" x="1867.5" y="-231.5" font-family="Helvetica,sans-Serif" font-size="10.00">callbackappender.h</text>
</a>
</g>
</g>
<!-- Node5&#45;&gt;Node18 -->
<g id="edge24" class="edge">
<title>Node5&#45;&gt;Node18</title>
<path fill="none" stroke="midnightblue" d="M1446.58,-284.05C1520.75,-276.02 1671.19,-259.5 1798.5,-244 1802.94,-243.46 1807.53,-242.89 1812.15,-242.3"/>
<polygon fill="midnightblue" stroke="midnightblue" points="1445.77,-280.62 1436.2,-285.17 1446.52,-287.58 1445.77,-280.62"/>
</g>
<!-- Node19 -->
<g id="node19" class="node">
<title>Node19</title>
<g id="a_node19"><a xlink:href="clfsappender_8h.html" target="_top" xlink:title=" ">
<polygon fill="white" stroke="black" points="485.5,-224.5 485.5,-243.5 573.5,-243.5 573.5,-224.5 485.5,-224.5"/>
<text text-anchor="middle" x="529.5" y="-231.5" font-family="Helvetica,sans-Serif" font-size="10.00">clfsappender.h</text>
</a>
</g>
</g>
<!-- Node5&#45;&gt;Node19 -->
<g id="edge25" class="edge">
<title>Node5&#45;&gt;Node19</title>
<path fill="none" stroke="midnightblue" d="M1354.6,-288.3C1230.05,-285.99 875.38,-276.82 582.5,-244 579.62,-243.68 576.67,-243.3 573.69,-242.89"/>
<polygon fill="midnightblue" stroke="midnightblue" points="1354.84,-291.8 1364.9,-288.48 1354.97,-284.8 1354.84,-291.8"/>
</g>
<!-- Node20 -->
<g id="node20" class="node">
<title>Node20</title>
<g id="a_node20"><a xlink:href="consoleappender_8h.html" target="_top" xlink:title=" ">
<polygon fill="white" stroke="black" points="1499.5,-168.5 1499.5,-187.5 1607.5,-187.5 1607.5,-168.5 1499.5,-168.5"/>
<text text-anchor="middle" x="1553.5" y="-175.5" font-family="Helvetica,sans-Serif" font-size="10.00">consoleappender.h</text>
</a>
</g>
</g>
<!-- Node5&#45;&gt;Node20 -->
<g id="edge27" class="edge">
<title>Node5&#45;&gt;Node20</title>
<path fill="none" stroke="midnightblue" d="M1446.62,-285.62C1501.59,-280.53 1588.56,-268.72 1608.5,-244 1625.11,-223.41 1591.61,-199.83 1569.94,-187.51"/>
<polygon fill="midnightblue" stroke="midnightblue" points="1446.07,-282.16 1436.42,-286.53 1446.69,-289.13 1446.07,-282.16"/>
</g>
<!-- Node21 -->
<g id="node21" class="node">
<title>Node21</title>
<g id="a_node21"><a xlink:href="deviceappender_8hxx.html" target="_top" xlink:title=" ">
<polygon fill="white" stroke="black" points="276,-224.5 276,-243.5 391,-243.5 391,-224.5 276,-224.5"/>
<text text-anchor="middle" x="333.5" y="-231.5" font-family="Helvetica,sans-Serif" font-size="10.00">deviceappender.hxx</text>
</a>
</g>
</g>
<!-- Node5&#45;&gt;Node21 -->
<g id="edge29" class="edge">
<title>Node5&#45;&gt;Node21</title>
<path fill="none" stroke="midnightblue" d="M1354.69,-288.22C1213.2,-285.53 770.68,-275.03 405.5,-244 400.86,-243.61 396.05,-243.14 391.23,-242.62"/>
<polygon fill="midnightblue" stroke="midnightblue" points="1354.67,-291.72 1364.74,-288.41 1354.81,-284.72 1354.67,-291.72"/>
</g>
<!-- Node5&#45;&gt;Node22 -->
<g id="edge30" class="edge">
<title>Node5&#45;&gt;Node22</title>
<path fill="none" stroke="midnightblue" d="M1446.37,-285.61C1538.42,-278.69 1752.23,-262.07 1931.5,-244 1947.17,-242.42 1964.6,-240.41 1978.91,-238.68"/>
<polygon fill="midnightblue" stroke="midnightblue" points="1445.98,-282.13 1436.27,-286.36 1446.51,-289.11 1445.98,-282.13"/>
</g>
<!-- Node23 -->
<g id="node23" class="node">
<title>Node23</title>
<g id="a_node23"><a xlink:href="fileappender_8h.html" target="_top" xlink:title=" ">
<polygon fill="white" stroke="black" points="1561.5,-56.5 1561.5,-75.5 1647.5,-75.5 1647.5,-56.5 1561.5,-56.5"/>
<text text-anchor="middle" x="1604.5" y="-63.5" font-family="Helvetica,sans-Serif" font-size="10.00">fileappender.h</text>
</a>
</g>
</g>
<!-- Node5&#45;&gt;Node23 -->
<g id="edge32" class="edge">
<title>Node5&#45;&gt;Node23</title>
<path fill="none" stroke="midnightblue" d="M1446.51,-286.43C1505.39,-282.08 1602.45,-270.92 1624.5,-244 1666.43,-192.8 1624.28,-103.51 1609.32,-75.6"/>
<polygon fill="midnightblue" stroke="midnightblue" points="1446.07,-282.96 1436.34,-287.15 1446.56,-289.94 1446.07,-282.96"/>
</g>
<!-- Node24 -->
<g id="node24" class="node">
<title>Node24</title>
<g id="a_node24"><a xlink:href="log4judpappender_8h.html" target="_top" xlink:title=" ">
<polygon fill="white" stroke="black" points="592,-224.5 592,-243.5 705,-243.5 705,-224.5 592,-224.5"/>
<text text-anchor="middle" x="648.5" y="-231.5" font-family="Helvetica,sans-Serif" font-size="10.00">log4judpappender.h</text>
</a>
</g>
</g>
<!-- Node5&#45;&gt;Node24 -->
<g id="edge36" class="edge">
<title>Node5&#45;&gt;Node24</title>
<path fill="none" stroke="midnightblue" d="M1354.6,-287.1C1244.15,-282.29 954.93,-268.25 714.5,-244 711.51,-243.7 708.44,-243.37 705.35,-243.01"/>
<polygon fill="midnightblue" stroke="midnightblue" points="1354.58,-290.6 1364.72,-287.54 1354.88,-283.61 1354.58,-290.6"/>
</g>
<!-- Node25 -->
<g id="node25" class="node">
<title>Node25</title>
<g id="a_node25"><a xlink:href="msttsappender_8h.html" target="_top" xlink:title=" ">
<polygon fill="white" stroke="black" points="723.5,-224.5 723.5,-243.5 821.5,-243.5 821.5,-224.5 723.5,-224.5"/>
<text text-anchor="middle" x="772.5" y="-231.5" font-family="Helvetica,sans-Serif" font-size="10.00">msttsappender.h</text>
</a>
</g>
</g>
<!-- Node5&#45;&gt;Node25 -->
<g id="edge37" class="edge">
<title>Node5&#45;&gt;Node25</title>
<path fill="none" stroke="midnightblue" d="M1354.68,-286.55C1257.73,-281.12 1024.8,-266.71 830.5,-244 827.56,-243.66 824.55,-243.28 821.51,-242.87"/>
<polygon fill="midnightblue" stroke="midnightblue" points="1354.55,-290.05 1364.73,-287.11 1354.94,-283.06 1354.55,-290.05"/>
</g>
<!-- Node26 -->
<g id="node26" class="node">
<title>Node26</title>
<g id="a_node26"><a xlink:href="nteventlogappender_8h.html" target="_top" xlink:title=" ">
<polygon fill="white" stroke="black" points="981,-224.5 981,-243.5 1104,-243.5 1104,-224.5 981,-224.5"/>
<text text-anchor="middle" x="1042.5" y="-231.5" font-family="Helvetica,sans-Serif" font-size="10.00">nteventlogappender.h</text>
</a>
</g>
</g>
<!-- Node5&#45;&gt;Node26 -->
<g id="edge38" class="edge">
<title>Node5&#45;&gt;Node26</title>
<path fill="none" stroke="midnightblue" d="M1354.88,-282.12C1289.65,-272.28 1169.8,-254.2 1099.03,-243.53"/>
<polygon fill="midnightblue" stroke="midnightblue" points="1354.45,-285.59 1364.86,-283.62 1355.5,-278.67 1354.45,-285.59"/>
</g>
<!-- Node27 -->
<g id="node27" class="node">
<title>Node27</title>
<g id="a_node27"><a xlink:href="nullappender_8h.html" target="_top" xlink:title=" ">
<polygon fill="white" stroke="black" points="1664,-168.5 1664,-187.5 1753,-187.5 1753,-168.5 1664,-168.5"/>
<text text-anchor="middle" x="1708.5" y="-175.5" font-family="Helvetica,sans-Serif" font-size="10.00">nullappender.h</text>
</a>
</g>
</g>
<!-- Node5&#45;&gt;Node27 -->
<g id="edge39" class="edge">
<title>Node5&#45;&gt;Node27</title>
<path fill="none" stroke="midnightblue" d="M1446.5,-287.25C1517.4,-283.67 1648.94,-273.18 1684.5,-244 1701.8,-229.81 1706.63,-201.93 1707.98,-187.74"/>
<polygon fill="midnightblue" stroke="midnightblue" points="1445.9,-283.78 1436.08,-287.75 1446.24,-290.77 1445.9,-283.78"/>
</g>
<!-- Node28 -->
<g id="node28" class="node">
<title>Node28</title>
<g id="a_node28"><a xlink:href="qt4debugappender_8h.html" target="_top" xlink:title=" ">
<polygon fill="white" stroke="black" points="1122.5,-224.5 1122.5,-243.5 1238.5,-243.5 1238.5,-224.5 1122.5,-224.5"/>
<text text-anchor="middle" x="1180.5" y="-231.5" font-family="Helvetica,sans-Serif" font-size="10.00">qt4debugappender.h</text>
</a>
</g>
</g>
<!-- Node5&#45;&gt;Node28 -->
<g id="edge41" class="edge">
<title>Node5&#45;&gt;Node28</title>
<path fill="none" stroke="midnightblue" d="M1355.78,-278.02C1314.22,-267.82 1253.19,-252.84 1215.2,-243.52"/>
<polygon fill="midnightblue" stroke="midnightblue" points="1355.09,-281.46 1365.64,-280.44 1356.76,-274.66 1355.09,-281.46"/>
</g>
<!-- Node29 -->
<g id="node29" class="node">
<title>Node29</title>
<g id="a_node29"><a xlink:href="qt5debugappender_8h.html" target="_top" xlink:title=" ">
<polygon fill="white" stroke="black" points="1256.5,-224.5 1256.5,-243.5 1372.5,-243.5 1372.5,-224.5 1256.5,-224.5"/>
<text text-anchor="middle" x="1314.5" y="-231.5" font-family="Helvetica,sans-Serif" font-size="10.00">qt5debugappender.h</text>
</a>
</g>
</g>
<!-- Node5&#45;&gt;Node29 -->
<g id="edge42" class="edge">
<title>Node5&#45;&gt;Node29</title>
<path fill="none" stroke="midnightblue" d="M1378.05,-274.9C1362.28,-265 1341.69,-252.07 1328.28,-243.65"/>
<polygon fill="midnightblue" stroke="midnightblue" points="1376.35,-277.97 1386.68,-280.32 1380.07,-272.04 1376.35,-277.97"/>
</g>
<!-- Node30 -->
<g id="node30" class="node">
<title>Node30</title>
<g id="a_node30"><a xlink:href="socketappender_8h.html" target="_top" xlink:title=" ">
<polygon fill="white" stroke="black" points="1714.5,-56.5 1714.5,-75.5 1816.5,-75.5 1816.5,-56.5 1714.5,-56.5"/>
<text text-anchor="middle" x="1765.5" y="-63.5" font-family="Helvetica,sans-Serif" font-size="10.00">socketappender.h</text>
</a>
</g>
</g>
<!-- Node5&#45;&gt;Node30 -->
<g id="edge43" class="edge">
<title>Node5&#45;&gt;Node30</title>
<path fill="none" stroke="midnightblue" d="M1446.61,-285.71C1520.33,-279.86 1660.96,-266.15 1705.5,-244 1737.3,-228.19 1748.36,-220.58 1762.5,-188 1779.4,-149.06 1771.5,-96.24 1767.41,-75.68"/>
<polygon fill="midnightblue" stroke="midnightblue" points="1445.94,-282.25 1436.24,-286.51 1446.48,-289.23 1445.94,-282.25"/>
</g>
<!-- Node31 -->
<g id="node31" class="node">
<title>Node31</title>
<g id="a_node31"><a xlink:href="syslogappender_8h.html" target="_top" xlink:title=" ">
<polygon fill="white" stroke="black" points="1809.5,-168.5 1809.5,-187.5 1911.5,-187.5 1911.5,-168.5 1809.5,-168.5"/>
<text text-anchor="middle" x="1860.5" y="-175.5" font-family="Helvetica,sans-Serif" font-size="10.00">syslogappender.h</text>
</a>
</g>
</g>
<!-- Node5&#45;&gt;Node31 -->
<g id="edge45" class="edge">
<title>Node5&#45;&gt;Node31</title>
<path fill="none" stroke="midnightblue" d="M1446.46,-289.76C1516.43,-289.49 1652.88,-283.33 1760.5,-244 1796.87,-230.71 1833.46,-202.15 1850.55,-187.72"/>
<polygon fill="midnightblue" stroke="midnightblue" points="1446.23,-286.26 1436.23,-289.76 1446.23,-293.26 1446.23,-286.26"/>
</g>
<!-- Node32 -->
<g id="node32" class="node">
<title>Node32</title>
<g id="a_node32"><a xlink:href="win32consoleappender_8h.html" target="_top" xlink:title=" ">
<polygon fill="white" stroke="black" points="1429,-224.5 1429,-243.5 1566,-243.5 1566,-224.5 1429,-224.5"/>
<text text-anchor="middle" x="1497.5" y="-231.5" font-family="Helvetica,sans-Serif" font-size="10.00">win32consoleappender.h</text>
</a>
</g>
</g>
<!-- Node5&#45;&gt;Node32 -->
<g id="edge47" class="edge">
<title>Node5&#45;&gt;Node32</title>
<path fill="none" stroke="midnightblue" d="M1424.84,-275.45C1442.74,-265.48 1466.55,-252.23 1481.95,-243.65"/>
<polygon fill="midnightblue" stroke="midnightblue" points="1423.12,-272.4 1416.08,-280.32 1426.52,-278.52 1423.12,-272.4"/>
</g>
<!-- Node7 -->
<g id="node7" class="node">
<title>Node7</title>
<g id="a_node7"><a xlink:href="appenderattachableimpl_8h.html" target="_top" xlink:title=" ">
<polygon fill="white" stroke="black" points="1178,-168.5 1178,-187.5 1323,-187.5 1323,-168.5 1178,-168.5"/>
<text text-anchor="middle" x="1250.5" y="-175.5" font-family="Helvetica,sans-Serif" font-size="10.00">appenderattachableimpl.h</text>
</a>
</g>
</g>
<!-- Node6&#45;&gt;Node7 -->
<g id="edge6" class="edge">
<title>Node6&#45;&gt;Node7</title>
<path fill="none" stroke="midnightblue" d="M967.07,-222.85C1033.02,-212.65 1133.54,-197.1 1195.46,-187.52"/>
<polygon fill="midnightblue" stroke="midnightblue" points="966.15,-219.46 956.8,-224.44 967.22,-226.37 966.15,-219.46"/>
</g>
<!-- Node12 -->
<g id="node12" class="node">
<title>Node12</title>
<g id="a_node12"><a xlink:href="logger_8h.html" target="_top" xlink:title="This header defines the Logger class and the logging macros.">
<polygon fill="white" stroke="black" points="882.5,-168.5 882.5,-187.5 938.5,-187.5 938.5,-168.5 882.5,-168.5"/>
<text text-anchor="middle" x="910.5" y="-175.5" font-family="Helvetica,sans-Serif" font-size="10.00">logger.h</text>
</a>
</g>
</g>
<!-- Node6&#45;&gt;Node12 -->
<g id="edge11" class="edge">
<title>Node6&#45;&gt;Node12</title>
<path fill="none" stroke="midnightblue" d="M904.65,-214.1C906.14,-205.14 907.86,-194.86 909.04,-187.75"/>
<polygon fill="midnightblue" stroke="midnightblue" points="901.18,-213.64 902.99,-224.08 908.08,-214.79 901.18,-213.64"/>
</g>
<!-- Node7&#45;&gt;Node8 -->
<g id="edge7" class="edge">
<title>Node7&#45;&gt;Node8</title>
<path fill="none" stroke="midnightblue" d="M1282.53,-164.91C1309.41,-154.75 1347.14,-140.51 1370.95,-131.52"/>
<polygon fill="midnightblue" stroke="midnightblue" points="1281.28,-161.64 1273.16,-168.44 1283.75,-168.19 1281.28,-161.64"/>
</g>
<!-- Node10 -->
<g id="node10" class="node">
<title>Node10</title>
<g id="a_node10"><a xlink:href="loggerimpl_8h.html" target="_top" xlink:title=" ">
<polygon fill="white" stroke="black" points="1211.5,-112.5 1211.5,-131.5 1289.5,-131.5 1289.5,-112.5 1211.5,-112.5"/>
<text text-anchor="middle" x="1250.5" y="-119.5" font-family="Helvetica,sans-Serif" font-size="10.00">loggerimpl.h</text>
</a>
</g>
</g>
<!-- Node7&#45;&gt;Node10 -->
<g id="edge9" class="edge">
<title>Node7&#45;&gt;Node10</title>
<path fill="none" stroke="midnightblue" d="M1250.5,-157.8C1250.5,-148.91 1250.5,-138.78 1250.5,-131.75"/>
<polygon fill="midnightblue" stroke="midnightblue" points="1247,-158.08 1250.5,-168.08 1254,-158.08 1247,-158.08"/>
</g>
<!-- Node8&#45;&gt;Node9 -->
<g id="edge8" class="edge">
<title>Node8&#45;&gt;Node9</title>
<path fill="none" stroke="midnightblue" d="M1405.58,-103.96C1422.49,-80.12 1452.56,-37.71 1465.41,-19.59"/>
<polygon fill="midnightblue" stroke="midnightblue" points="1402.55,-102.19 1399.62,-112.37 1408.26,-106.24 1402.55,-102.19"/>
</g>
<!-- Node11 -->
<g id="node11" class="node">
<title>Node11</title>
<g id="a_node11"><a xlink:href="rootlogger_8h.html" target="_top" xlink:title=" ">
<polygon fill="white" stroke="black" points="1213,-56.5 1213,-75.5 1288,-75.5 1288,-56.5 1213,-56.5"/>
<text text-anchor="middle" x="1250.5" y="-63.5" font-family="Helvetica,sans-Serif" font-size="10.00">rootlogger.h</text>
</a>
</g>
</g>
<!-- Node10&#45;&gt;Node11 -->
<g id="edge10" class="edge">
<title>Node10&#45;&gt;Node11</title>
<path fill="none" stroke="midnightblue" d="M1250.5,-101.8C1250.5,-92.91 1250.5,-82.78 1250.5,-75.75"/>
<polygon fill="midnightblue" stroke="midnightblue" points="1247,-102.08 1250.5,-112.08 1254,-102.08 1247,-102.08"/>
</g>
<!-- Node12&#45;&gt;Node9 -->
<g id="edge17" class="edge">
<title>Node12&#45;&gt;Node9</title>
<path fill="none" stroke="midnightblue" d="M948.66,-166.58C972.45,-159.08 1003.08,-147.54 1027.5,-132 1068.61,-105.85 1062.51,-76.94 1106.5,-56 1164.22,-28.52 1354.98,-16.5 1435.32,-12.56"/>
<polygon fill="midnightblue" stroke="midnightblue" points="947.47,-163.28 938.92,-169.55 949.51,-169.98 947.47,-163.28"/>
</g>
<!-- Node12&#45;&gt;Node13 -->
<g id="edge12" class="edge">
<title>Node12&#45;&gt;Node13</title>
<path fill="none" stroke="midnightblue" d="M872.17,-172.68C783.52,-162.69 564.88,-138.04 473.11,-127.69"/>
<polygon fill="midnightblue" stroke="midnightblue" points="872,-176.18 882.32,-173.82 872.78,-169.23 872,-176.18"/>
</g>
<!-- Node14 -->
<g id="node14" class="node">
<title>Node14</title>
<g id="a_node14"><a xlink:href="hierarchy_8h.html" target="_top" xlink:title=" ">
<polygon fill="white" stroke="black" points="1115.5,-56.5 1115.5,-75.5 1185.5,-75.5 1185.5,-56.5 1115.5,-56.5"/>
<text text-anchor="middle" x="1150.5" y="-63.5" font-family="Helvetica,sans-Serif" font-size="10.00">hierarchy.h</text>
</a>
</g>
</g>
<!-- Node12&#45;&gt;Node14 -->
<g id="edge14" class="edge">
<title>Node12&#45;&gt;Node14</title>
<path fill="none" stroke="midnightblue" d="M948.73,-172.78C985.26,-167.47 1040.91,-155.96 1083.5,-132 1109.77,-117.22 1133.24,-89.61 1144.1,-75.61"/>
<polygon fill="midnightblue" stroke="midnightblue" points="947.94,-169.35 938.51,-174.18 948.89,-176.29 947.94,-169.35"/>
</g>
<!-- Node12&#45;&gt;Node15 -->
<g id="edge16" class="edge">
<title>Node12&#45;&gt;Node15</title>
<path fill="none" stroke="midnightblue" d="M873.03,-165.44C840.03,-155.26 792.74,-140.66 763.1,-131.52"/>
<polygon fill="midnightblue" stroke="midnightblue" points="872.18,-168.84 882.77,-168.44 874.25,-162.15 872.18,-168.84"/>
</g>
<!-- Node12&#45;&gt;Node16 -->
<g id="edge18" class="edge">
<title>Node12&#45;&gt;Node16</title>
<path fill="none" stroke="midnightblue" d="M912.37,-158.35C914.77,-134.25 918.87,-93.31 920.64,-75.59"/>
<polygon fill="midnightblue" stroke="midnightblue" points="908.88,-158.07 911.36,-168.37 915.84,-158.77 908.88,-158.07"/>
</g>
<!-- Node17 -->
<g id="node17" class="node">
<title>Node17</title>
<g id="a_node17"><a xlink:href="tracelogger_8h.html" target="_top" xlink:title=" ">
<polygon fill="white" stroke="black" points="938.5,-112.5 938.5,-131.5 1018.5,-131.5 1018.5,-112.5 938.5,-112.5"/>
<text text-anchor="middle" x="978.5" y="-119.5" font-family="Helvetica,sans-Serif" font-size="10.00">tracelogger.h</text>
</a>
</g>
</g>
<!-- Node12&#45;&gt;Node17 -->
<g id="edge20" class="edge">
<title>Node12&#45;&gt;Node17</title>
<path fill="none" stroke="midnightblue" d="M929.26,-162.1C941.5,-152.38 957.06,-140.03 967.38,-131.83"/>
<polygon fill="midnightblue" stroke="midnightblue" points="927.08,-159.36 921.43,-168.32 931.43,-164.85 927.08,-159.36"/>
</g>
<!-- Node13&#45;&gt;Node9 -->
<g id="edge13" class="edge">
<title>Node13&#45;&gt;Node9</title>
<path fill="none" stroke="midnightblue" d="M482.98,-111.97C563.79,-98.08 725.44,-71.47 863.5,-56 1079.92,-31.74 1341.2,-17.41 1435.43,-12.72"/>
<polygon fill="midnightblue" stroke="midnightblue" points="482.33,-108.53 473.07,-113.68 483.51,-115.43 482.33,-108.53"/>
</g>
<!-- Node14&#45;&gt;Node9 -->
<g id="edge15" class="edge">
<title>Node14&#45;&gt;Node9</title>
<path fill="none" stroke="midnightblue" d="M1195.45,-57.36C1198.17,-56.9 1200.87,-56.44 1203.5,-56 1286.31,-42.02 1383.53,-25.72 1435.08,-17.09"/>
<polygon fill="midnightblue" stroke="midnightblue" points="1194.84,-53.91 1185.56,-59.04 1196.01,-60.82 1194.84,-53.91"/>
</g>
<!-- Node16&#45;&gt;Node9 -->
<g id="edge19" class="edge">
<title>Node16&#45;&gt;Node9</title>
<path fill="none" stroke="midnightblue" d="M980.91,-58.64C989.49,-57.74 998.22,-56.84 1006.5,-56 1166.27,-39.81 1357.06,-21.75 1435.31,-14.39"/>
<polygon fill="midnightblue" stroke="midnightblue" points="980.51,-55.16 970.93,-59.69 981.24,-62.12 980.51,-55.16"/>
</g>
<!-- Node17&#45;&gt;Node9 -->
<g id="edge21" class="edge">
<title>Node17&#45;&gt;Node9</title>
<path fill="none" stroke="midnightblue" d="M992.37,-104.68C1006.53,-89.26 1029.99,-66.92 1055.5,-56 1123.62,-26.84 1347.34,-15.58 1435.41,-12.21"/>
<polygon fill="midnightblue" stroke="midnightblue" points="989.53,-102.61 985.51,-112.42 994.77,-107.26 989.53,-102.61"/>
</g>
<!-- Node17&#45;&gt;Node16 -->
<g id="edge22" class="edge">
<title>Node17&#45;&gt;Node16</title>
<path fill="none" stroke="midnightblue" d="M961.88,-105.25C951.77,-95.67 939.22,-83.79 930.82,-75.83"/>
<polygon fill="midnightblue" stroke="midnightblue" points="959.68,-107.99 969.34,-112.32 964.49,-102.91 959.68,-107.99"/>
</g>
<!-- Node20&#45;&gt;Node9 -->
<g id="edge28" class="edge">
<title>Node20&#45;&gt;Node9</title>
<path fill="none" stroke="midnightblue" d="M1544.54,-158.86C1526.95,-123.25 1488.52,-45.45 1475.73,-19.57"/>
<polygon fill="midnightblue" stroke="midnightblue" points="1541.52,-160.66 1549.09,-168.08 1547.8,-157.56 1541.52,-160.66"/>
</g>
<!-- Node22&#45;&gt;Node9 -->
<g id="edge31" class="edge">
<title>Node22&#45;&gt;Node9</title>
<path fill="none" stroke="midnightblue" d="M2010.21,-213.92C2012.35,-177.03 2011.12,-96 1964.5,-56 1929.97,-26.37 1615.26,-14.97 1507.5,-11.91"/>
<polygon fill="midnightblue" stroke="midnightblue" points="2006.7,-214.02 2009.45,-224.25 2013.68,-214.53 2006.7,-214.02"/>
</g>
<!-- Node23&#45;&gt;Node9 -->
<g id="edge33" class="edge">
<title>Node23&#45;&gt;Node9</title>
<path fill="none" stroke="midnightblue" d="M1574.05,-52.64C1549.09,-42.5 1514.42,-28.43 1492.48,-19.52"/>
<polygon fill="midnightblue" stroke="midnightblue" points="1572.84,-55.92 1583.43,-56.44 1575.48,-49.44 1572.84,-55.92"/>
</g>
<!-- Node27&#45;&gt;Node9 -->
<g id="edge40" class="edge">
<title>Node27&#45;&gt;Node9</title>
<path fill="none" stroke="midnightblue" d="M1705.8,-158.48C1700.91,-131.73 1687.98,-82.61 1656.5,-56 1614.34,-20.36 1548.46,-12.07 1507.75,-10.61"/>
<polygon fill="midnightblue" stroke="midnightblue" points="1702.36,-159.14 1707.44,-168.44 1709.27,-158 1702.36,-159.14"/>
</g>
<!-- Node30&#45;&gt;Node9 -->
<g id="edge44" class="edge">
<title>Node30&#45;&gt;Node9</title>
<path fill="none" stroke="midnightblue" d="M1708.95,-54.61C1649.57,-43.71 1557.98,-26.88 1507.67,-17.64"/>
<polygon fill="midnightblue" stroke="midnightblue" points="1708.45,-58.08 1718.91,-56.44 1709.71,-51.19 1708.45,-58.08"/>
</g>
<!-- Node31&#45;&gt;Node9 -->
<g id="edge46" class="edge">
<title>Node31&#45;&gt;Node9</title>
<path fill="none" stroke="midnightblue" d="M1860.99,-158.22C1860.57,-131.15 1855.45,-81.63 1825.5,-56 1778.31,-15.62 1587.89,-10.89 1507.55,-10.73"/>
<polygon fill="midnightblue" stroke="midnightblue" points="1857.49,-158.29 1860.93,-168.31 1864.49,-158.33 1857.49,-158.29"/>
</g>
<!-- Node34&#45;&gt;Node9 -->
<g id="edge55" class="edge">
<title>Node34&#45;&gt;Node9</title>
<path fill="none" stroke="midnightblue" d="M240.42,-270.06C241.06,-256.58 243.37,-238.39 250.5,-224 284.35,-155.66 310.25,-141.69 380.5,-112 577.4,-28.79 1269.47,-13.84 1435.5,-11.43"/>
<polygon fill="midnightblue" stroke="midnightblue" points="236.92,-270.01 240.21,-280.08 243.92,-270.16 236.92,-270.01"/>
</g>
<!-- Node34&#45;&gt;Node13 -->
<g id="edge53" class="edge">
<title>Node34&#45;&gt;Node13</title>
<path fill="none" stroke="midnightblue" d="M244.62,-270.13C248.43,-256.17 255.24,-237.34 266.5,-224 306.03,-177.16 373.06,-145.77 408.28,-131.61"/>
<polygon fill="midnightblue" stroke="midnightblue" points="241.17,-269.54 242.19,-280.08 247.96,-271.2 241.17,-269.54"/>
</g>
<!-- Node34&#45;&gt;Node21 -->
<g id="edge54" class="edge">
<title>Node34&#45;&gt;Node21</title>
<path fill="none" stroke="midnightblue" d="M264.31,-275.18C281.42,-265.24 303.97,-252.15 318.6,-243.65"/>
<polygon fill="midnightblue" stroke="midnightblue" points="262.33,-272.28 255.44,-280.32 265.85,-278.33 262.33,-272.28"/>
</g>
</g>
</svg>
