<?xml version="1.0" encoding="UTF-8" standalone="no"?>
<!DOCTYPE svg PUBLIC "-//W3C//DTD SVG 1.1//EN"
 "http://www.w3.org/Graphics/SVG/1.1/DTD/svg11.dtd">
<!-- Generated by graphviz version 2.43.0 (0)
 -->
<!-- Title: log4cplus::internal::per_thread_data Pages: 1 -->
<svg width="383pt" height="235pt"
 viewBox="0.00 0.00 383.00 235.00" xmlns="http://www.w3.org/2000/svg" xmlns:xlink="http://www.w3.org/1999/xlink">
<g id="graph0" class="graph" transform="scale(1 1) rotate(0) translate(4 231)">
<title>log4cplus::internal::per_thread_data</title>
<polygon fill="white" stroke="transparent" points="-4,4 -4,-231 379,-231 379,4 -4,4"/>
<!-- Node1 -->
<g id="node1" class="node">
<title>Node1</title>
<g id="a_node1"><a xlink:title="Per thread data.">
<polygon fill="#bfbfbf" stroke="black" points="268,-98.5 268,-128.5 375,-128.5 375,-98.5 268,-98.5"/>
<text text-anchor="start" x="276" y="-116.5" font-family="Helvetica,sans-Serif" font-size="10.00">log4cplus::internal</text>
<text text-anchor="middle" x="321.5" y="-105.5" font-family="Helvetica,sans-Serif" font-size="10.00">::per_thread_data</text>
</a>
</g>
</g>
<!-- Node2 -->
<g id="node2" class="node">
<title>Node2</title>
<g id="a_node2"><a xlink:href="structlog4cplus_1_1MappedDiagnosticContext.html" target="_top" xlink:title="Internal MDC storage.">
<polygon fill="white" stroke="black" points="0,-196.5 0,-226.5 160,-226.5 160,-196.5 0,-196.5"/>
<text text-anchor="start" x="8" y="-214.5" font-family="Helvetica,sans-Serif" font-size="10.00">log4cplus::MappedDiagnostic</text>
<text text-anchor="middle" x="80" y="-203.5" font-family="Helvetica,sans-Serif" font-size="10.00">Context</text>
</a>
</g>
</g>
<!-- Node2&#45;&gt;Node1 -->
<g id="edge1" class="edge">
<title>Node2&#45;&gt;Node1</title>
<path fill="none" stroke="#9a32cd" stroke-dasharray="5,2" d="M150.98,-193.6C182.02,-184.53 218.56,-172.29 250,-157.5 267.36,-149.33 285.71,-137.77 299.34,-128.55"/>
<polygon fill="#9a32cd" stroke="#9a32cd" points="149.75,-190.31 141.1,-196.43 151.68,-197.04 149.75,-190.31"/>
<text text-anchor="middle" x="214" y="-186.5" font-family="Helvetica,sans-Serif" font-size="10.00"> mdc</text>
</g>
<!-- Node3 -->
<g id="node3" class="node">
<title>Node3</title>
<g id="a_node3"><a xlink:href="structlog4cplus_1_1internal_1_1gft__scratch__pad.html" target="_top" xlink:title=" ">
<polygon fill="white" stroke="black" points="26.5,-147.5 26.5,-177.5 133.5,-177.5 133.5,-147.5 26.5,-147.5"/>
<text text-anchor="start" x="34.5" y="-165.5" font-family="Helvetica,sans-Serif" font-size="10.00">log4cplus::internal</text>
<text text-anchor="middle" x="80" y="-154.5" font-family="Helvetica,sans-Serif" font-size="10.00">::gft_scratch_pad</text>
</a>
</g>
</g>
<!-- Node3&#45;&gt;Node1 -->
<g id="edge2" class="edge">
<title>Node3&#45;&gt;Node1</title>
<path fill="none" stroke="#9a32cd" stroke-dasharray="5,2" d="M143.63,-150.07C175.49,-143.71 214.83,-135.78 250,-128.5 255.76,-127.31 261.78,-126.05 267.77,-124.79"/>
<polygon fill="#9a32cd" stroke="#9a32cd" points="142.68,-146.69 133.56,-152.08 144.05,-153.56 142.68,-146.69"/>
<text text-anchor="middle" x="214" y="-145.5" font-family="Helvetica,sans-Serif" font-size="10.00"> gft_sp</text>
</g>
<!-- Node4 -->
<g id="node4" class="node">
<title>Node4</title>
<g id="a_node4"><a xlink:href="structlog4cplus_1_1internal_1_1appender__sratch__pad.html" target="_top" xlink:title=" ">
<polygon fill="white" stroke="black" points="16.5,-98.5 16.5,-128.5 143.5,-128.5 143.5,-98.5 16.5,-98.5"/>
<text text-anchor="start" x="24.5" y="-116.5" font-family="Helvetica,sans-Serif" font-size="10.00">log4cplus::internal</text>
<text text-anchor="middle" x="80" y="-105.5" font-family="Helvetica,sans-Serif" font-size="10.00">::appender_sratch_pad</text>
</a>
</g>
</g>
<!-- Node4&#45;&gt;Node1 -->
<g id="edge3" class="edge">
<title>Node4&#45;&gt;Node1</title>
<path fill="none" stroke="#9a32cd" stroke-dasharray="5,2" d="M153.8,-113.5C190.62,-113.5 234.48,-113.5 267.97,-113.5"/>
<polygon fill="#9a32cd" stroke="#9a32cd" points="153.61,-110 143.61,-113.5 153.61,-117 153.61,-110"/>
<text text-anchor="middle" x="214" y="-116.5" font-family="Helvetica,sans-Serif" font-size="10.00"> appender_sp</text>
</g>
<!-- Node5 -->
<g id="node5" class="node">
<title>Node5</title>
<g id="a_node5"><a xlink:href="classlog4cplus_1_1spi_1_1InternalLoggingEvent.html" target="_top" xlink:title="The internal representation of logging events.">
<polygon fill="white" stroke="black" points="16.5,-49.5 16.5,-79.5 143.5,-79.5 143.5,-49.5 16.5,-49.5"/>
<text text-anchor="start" x="24.5" y="-67.5" font-family="Helvetica,sans-Serif" font-size="10.00">log4cplus::spi::Internal</text>
<text text-anchor="middle" x="80" y="-56.5" font-family="Helvetica,sans-Serif" font-size="10.00">LoggingEvent</text>
</a>
</g>
</g>
<!-- Node5&#45;&gt;Node1 -->
<g id="edge4" class="edge">
<title>Node5&#45;&gt;Node1</title>
<path fill="none" stroke="#9a32cd" stroke-dasharray="5,2" d="M153.56,-78.91C183.45,-84.9 218.4,-91.96 250,-98.5 255.76,-99.69 261.78,-100.95 267.77,-102.21"/>
<polygon fill="#9a32cd" stroke="#9a32cd" points="154.13,-75.46 143.64,-76.93 152.75,-82.32 154.13,-75.46"/>
<text text-anchor="middle" x="214" y="-101.5" font-family="Helvetica,sans-Serif" font-size="10.00"> forced_log_ev</text>
</g>
<!-- Node6 -->
<g id="node6" class="node">
<title>Node6</title>
<g id="a_node6"><a xlink:href="classlog4cplus_1_1helpers_1_1snprintf__buf.html" target="_top" xlink:title=" ">
<polygon fill="white" stroke="black" points="27.5,-0.5 27.5,-30.5 132.5,-30.5 132.5,-0.5 27.5,-0.5"/>
<text text-anchor="start" x="35.5" y="-18.5" font-family="Helvetica,sans-Serif" font-size="10.00">log4cplus::helpers</text>
<text text-anchor="middle" x="80" y="-7.5" font-family="Helvetica,sans-Serif" font-size="10.00">::snprintf_buf</text>
</a>
</g>
</g>
<!-- Node6&#45;&gt;Node1 -->
<g id="edge5" class="edge">
<title>Node6&#45;&gt;Node1</title>
<path fill="none" stroke="#9a32cd" stroke-dasharray="5,2" d="M142.49,-30.56C175.2,-39.62 215.65,-52.49 250,-68.5 267.77,-76.78 286.4,-88.84 300.05,-98.39"/>
<polygon fill="#9a32cd" stroke="#9a32cd" points="143.17,-27.12 132.6,-27.88 141.33,-33.88 143.17,-27.12"/>
<text text-anchor="middle" x="214" y="-71.5" font-family="Helvetica,sans-Serif" font-size="10.00"> snprintf_buf</text>
</g>
</g>
</svg>
