<?xml version="1.0" encoding="UTF-8" standalone="no"?>
<!DOCTYPE svg PUBLIC "-//W3C//DTD SVG 1.1//EN"
 "http://www.w3.org/Graphics/SVG/1.1/DTD/svg11.dtd">
<!-- Generated by graphviz version 2.43.0 (0)
 -->
<!-- Title: syncprims.h Pages: 1 -->
<svg width="552pt" height="162pt"
 viewBox="0.00 0.00 552.00 162.00" xmlns="http://www.w3.org/2000/svg" xmlns:xlink="http://www.w3.org/1999/xlink">
<g id="graph0" class="graph" transform="scale(1 1) rotate(0) translate(4 158)">
<title>syncprims.h</title>
<polygon fill="white" stroke="transparent" points="-4,4 -4,-158 548,-158 548,4 -4,4"/>
<!-- Node1 -->
<g id="node1" class="node">
<title>Node1</title>
<g id="a_node1"><a xlink:title=" ">
<polygon fill="#bfbfbf" stroke="black" points="255.5,-134.5 255.5,-153.5 331.5,-153.5 331.5,-134.5 255.5,-134.5"/>
<text text-anchor="middle" x="293.5" y="-141.5" font-family="Helvetica,sans-Serif" font-size="10.00">syncprims.h</text>
</a>
</g>
</g>
<!-- Node2 -->
<g id="node2" class="node">
<title>Node2</title>
<g id="a_node2"><a xlink:href="config_8hxx.html" target="_top" xlink:title=" ">
<polygon fill="white" stroke="black" points="87.5,-73 87.5,-92 203.5,-92 203.5,-73 87.5,-73"/>
<text text-anchor="middle" x="145.5" y="-80" font-family="Helvetica,sans-Serif" font-size="10.00">log4cplus/config.hxx</text>
</a>
</g>
</g>
<!-- Node1&#45;&gt;Node2 -->
<g id="edge1" class="edge">
<title>Node1&#45;&gt;Node2</title>
<path fill="none" stroke="midnightblue" d="M272.3,-134.48C247.13,-124.36 204.96,-107.4 176.22,-95.85"/>
<polygon fill="midnightblue" stroke="midnightblue" points="177.25,-92.49 166.67,-92.01 174.64,-98.99 177.25,-92.49"/>
</g>
<!-- Node5 -->
<g id="node5" class="node">
<title>Node5</title>
<g id="a_node5"><a xlink:title=" ">
<polygon fill="white" stroke="#bfbfbf" points="221.5,-73 221.5,-92 269.5,-92 269.5,-73 221.5,-73"/>
<text text-anchor="middle" x="245.5" y="-80" font-family="Helvetica,sans-Serif" font-size="10.00">mutex</text>
</a>
</g>
</g>
<!-- Node1&#45;&gt;Node5 -->
<g id="edge4" class="edge">
<title>Node1&#45;&gt;Node5</title>
<path fill="none" stroke="midnightblue" d="M286.62,-134.48C279.35,-125.46 267.7,-111.02 258.66,-99.81"/>
<polygon fill="midnightblue" stroke="midnightblue" points="261.37,-97.59 252.36,-92.01 255.92,-101.99 261.37,-97.59"/>
</g>
<!-- Node6 -->
<g id="node6" class="node">
<title>Node6</title>
<g id="a_node6"><a xlink:title=" ">
<polygon fill="white" stroke="#bfbfbf" points="288,-73 288,-92 395,-92 395,-73 288,-73"/>
<text text-anchor="middle" x="341.5" y="-80" font-family="Helvetica,sans-Serif" font-size="10.00">condition_variable</text>
</a>
</g>
</g>
<!-- Node1&#45;&gt;Node6 -->
<g id="edge5" class="edge">
<title>Node1&#45;&gt;Node6</title>
<path fill="none" stroke="midnightblue" d="M300.38,-134.48C307.65,-125.46 319.3,-111.02 328.34,-99.81"/>
<polygon fill="midnightblue" stroke="midnightblue" points="331.08,-101.99 334.64,-92.01 325.63,-97.59 331.08,-101.99"/>
</g>
<!-- Node7 -->
<g id="node7" class="node">
<title>Node7</title>
<g id="a_node7"><a xlink:href="threadsafetyanalysis_8h.html" target="_top" xlink:title=" ">
<polygon fill="white" stroke="black" points="413,-67.5 413,-97.5 544,-97.5 544,-67.5 413,-67.5"/>
<text text-anchor="start" x="421" y="-85.5" font-family="Helvetica,sans-Serif" font-size="10.00">log4cplus/internal</text>
<text text-anchor="middle" x="478.5" y="-74.5" font-family="Helvetica,sans-Serif" font-size="10.00">/threadsafetyanalysis.h</text>
</a>
</g>
</g>
<!-- Node1&#45;&gt;Node7 -->
<g id="edge6" class="edge">
<title>Node1&#45;&gt;Node7</title>
<path fill="none" stroke="midnightblue" d="M320.01,-134.48C347.29,-125.7 390.55,-111.79 424.98,-100.71"/>
<polygon fill="midnightblue" stroke="midnightblue" points="426.45,-103.92 434.9,-97.52 424.31,-97.25 426.45,-103.92"/>
</g>
<!-- Node3 -->
<g id="node3" class="node">
<title>Node3</title>
<g id="a_node3"><a xlink:href="win32_8h.html" target="_top" xlink:title=" ">
<polygon fill="white" stroke="black" points="0,-6 0,-25 137,-25 137,-6 0,-6"/>
<text text-anchor="middle" x="68.5" y="-13" font-family="Helvetica,sans-Serif" font-size="10.00">log4cplus/config/win32.h</text>
</a>
</g>
</g>
<!-- Node2&#45;&gt;Node3 -->
<g id="edge2" class="edge">
<title>Node2&#45;&gt;Node3</title>
<path fill="none" stroke="midnightblue" d="M135.12,-72.73C122.65,-62.21 101.53,-44.38 86.41,-31.62"/>
<polygon fill="midnightblue" stroke="midnightblue" points="88.62,-28.9 78.72,-25.13 84.1,-34.25 88.62,-28.9"/>
</g>
<!-- Node4 -->
<g id="node4" class="node">
<title>Node4</title>
<g id="a_node4"><a xlink:href="thread-config_8h.html" target="_top" xlink:title=" ">
<polygon fill="white" stroke="black" points="155,-0.5 155,-30.5 292,-30.5 292,-0.5 155,-0.5"/>
<text text-anchor="start" x="163" y="-18.5" font-family="Helvetica,sans-Serif" font-size="10.00">log4cplus/helpers/thread</text>
<text text-anchor="middle" x="223.5" y="-7.5" font-family="Helvetica,sans-Serif" font-size="10.00">&#45;config.h</text>
</a>
</g>
</g>
<!-- Node2&#45;&gt;Node4 -->
<g id="edge3" class="edge">
<title>Node2&#45;&gt;Node4</title>
<path fill="none" stroke="midnightblue" d="M156.02,-72.73C166.86,-63.7 184.17,-49.27 198.54,-37.3"/>
<polygon fill="midnightblue" stroke="midnightblue" points="201.15,-39.68 206.59,-30.59 196.67,-34.3 201.15,-39.68"/>
</g>
</g>
</svg>
