<?xml version="1.0" encoding="UTF-8" standalone="no"?>
<!DOCTYPE svg PUBLIC "-//W3C//DTD SVG 1.1//EN"
 "http://www.w3.org/Graphics/SVG/1.1/DTD/svg11.dtd">
<!-- Generated by graphviz version 2.43.0 (0)
 -->
<!-- Title: syncprims&#45;impl.h Pages: 1 -->
<svg width="776pt" height="229pt"
 viewBox="0.00 0.00 775.50 229.00" xmlns="http://www.w3.org/2000/svg" xmlns:xlink="http://www.w3.org/1999/xlink">
<g id="graph0" class="graph" transform="scale(1 1) rotate(0) translate(4 225)">
<title>syncprims&#45;impl.h</title>
<polygon fill="white" stroke="transparent" points="-4,4 -4,-225 771.5,-225 771.5,4 -4,4"/>
<!-- Node1 -->
<g id="node1" class="node">
<title>Node1</title>
<g id="a_node1"><a xlink:title=" ">
<polygon fill="#bfbfbf" stroke="black" points="398,-201.5 398,-220.5 499,-220.5 499,-201.5 398,-201.5"/>
<text text-anchor="middle" x="448.5" y="-208.5" font-family="Helvetica,sans-Serif" font-size="10.00">syncprims&#45;impl.h</text>
</a>
</g>
</g>
<!-- Node2 -->
<g id="node2" class="node">
<title>Node2</title>
<g id="a_node2"><a xlink:href="config_8hxx.html" target="_top" xlink:title=" ">
<polygon fill="white" stroke="black" points="87.5,-73 87.5,-92 203.5,-92 203.5,-73 87.5,-73"/>
<text text-anchor="middle" x="145.5" y="-80" font-family="Helvetica,sans-Serif" font-size="10.00">log4cplus/config.hxx</text>
</a>
</g>
</g>
<!-- Node1&#45;&gt;Node2 -->
<g id="edge1" class="edge">
<title>Node1&#45;&gt;Node2</title>
<path fill="none" stroke="midnightblue" d="M397.64,-208.78C349.5,-205.66 276.61,-195.68 221.5,-165 193.3,-149.3 169.58,-119.46 156.48,-100.57"/>
<polygon fill="midnightblue" stroke="midnightblue" points="159.25,-98.41 150.77,-92.05 153.43,-102.31 159.25,-98.41"/>
</g>
<!-- Node5 -->
<g id="node5" class="node">
<title>Node5</title>
<g id="a_node5"><a xlink:title=" ">
<polygon fill="white" stroke="#bfbfbf" points="496,-140 496,-159 561,-159 561,-140 496,-140"/>
<text text-anchor="middle" x="528.5" y="-147" font-family="Helvetica,sans-Serif" font-size="10.00">stdexcept</text>
</a>
</g>
</g>
<!-- Node1&#45;&gt;Node5 -->
<g id="edge4" class="edge">
<title>Node1&#45;&gt;Node5</title>
<path fill="none" stroke="midnightblue" d="M459.96,-201.48C472.67,-192.02 493.41,-176.6 508.75,-165.19"/>
<polygon fill="midnightblue" stroke="midnightblue" points="511.12,-167.79 517.06,-159.01 506.95,-162.17 511.12,-167.79"/>
</g>
<!-- Node6 -->
<g id="node6" class="node">
<title>Node6</title>
<g id="a_node6"><a xlink:href="syncprims_8h.html" target="_top" xlink:title=" ">
<polygon fill="white" stroke="black" points="241.5,-140 241.5,-159 401.5,-159 401.5,-140 241.5,-140"/>
<text text-anchor="middle" x="321.5" y="-147" font-family="Helvetica,sans-Serif" font-size="10.00">log4cplus/thread/syncprims.h</text>
</a>
</g>
</g>
<!-- Node1&#45;&gt;Node6 -->
<g id="edge5" class="edge">
<title>Node1&#45;&gt;Node6</title>
<path fill="none" stroke="midnightblue" d="M430.3,-201.48C408.99,-191.49 373.47,-174.85 348.84,-163.31"/>
<polygon fill="midnightblue" stroke="midnightblue" points="350.2,-160.08 339.66,-159.01 347.23,-166.42 350.2,-160.08"/>
</g>
<!-- Node7 -->
<g id="node7" class="node">
<title>Node7</title>
<g id="a_node7"><a xlink:title=" ">
<polygon fill="white" stroke="#bfbfbf" points="221.5,-73 221.5,-92 269.5,-92 269.5,-73 221.5,-73"/>
<text text-anchor="middle" x="245.5" y="-80" font-family="Helvetica,sans-Serif" font-size="10.00">mutex</text>
</a>
</g>
</g>
<!-- Node1&#45;&gt;Node7 -->
<g id="edge10" class="edge">
<title>Node1&#45;&gt;Node7</title>
<path fill="none" stroke="midnightblue" d="M397.94,-206.66C340.77,-201.71 252.95,-190.15 232.5,-165 217.86,-146.99 226.95,-119.14 235.61,-101.11"/>
<polygon fill="midnightblue" stroke="midnightblue" points="238.71,-102.72 240.21,-92.23 232.5,-99.5 238.71,-102.72"/>
</g>
<!-- Node8 -->
<g id="node8" class="node">
<title>Node8</title>
<g id="a_node8"><a xlink:title=" ">
<polygon fill="white" stroke="#bfbfbf" points="288,-73 288,-92 395,-92 395,-73 288,-73"/>
<text text-anchor="middle" x="341.5" y="-80" font-family="Helvetica,sans-Serif" font-size="10.00">condition_variable</text>
</a>
</g>
</g>
<!-- Node1&#45;&gt;Node8 -->
<g id="edge12" class="edge">
<title>Node1&#45;&gt;Node8</title>
<path fill="none" stroke="midnightblue" d="M445.67,-201.25C440.5,-186.24 428.39,-155.19 410.5,-134 398.09,-119.3 380.56,-106.54 366.27,-97.52"/>
<polygon fill="midnightblue" stroke="midnightblue" points="367.8,-94.36 357.44,-92.16 364.17,-100.34 367.8,-94.36"/>
</g>
<!-- Node9 -->
<g id="node9" class="node">
<title>Node9</title>
<g id="a_node9"><a xlink:href="threadsafetyanalysis_8h.html" target="_top" xlink:title=" ">
<polygon fill="white" stroke="black" points="413,-67.5 413,-97.5 544,-97.5 544,-67.5 413,-67.5"/>
<text text-anchor="start" x="421" y="-85.5" font-family="Helvetica,sans-Serif" font-size="10.00">log4cplus/internal</text>
<text text-anchor="middle" x="478.5" y="-74.5" font-family="Helvetica,sans-Serif" font-size="10.00">/threadsafetyanalysis.h</text>
</a>
</g>
</g>
<!-- Node1&#45;&gt;Node9 -->
<g id="edge13" class="edge">
<title>Node1&#45;&gt;Node9</title>
<path fill="none" stroke="midnightblue" d="M450.56,-201.31C455.07,-182.3 465.94,-136.47 472.71,-107.9"/>
<polygon fill="midnightblue" stroke="midnightblue" points="476.19,-108.43 475.09,-97.89 469.37,-106.81 476.19,-108.43"/>
</g>
<!-- Node10 -->
<g id="node10" class="node">
<title>Node10</title>
<g id="a_node10"><a xlink:title=" ">
<polygon fill="white" stroke="#bfbfbf" points="579.5,-140 579.5,-159 627.5,-159 627.5,-140 579.5,-140"/>
<text text-anchor="middle" x="603.5" y="-147" font-family="Helvetica,sans-Serif" font-size="10.00">thread</text>
</a>
</g>
</g>
<!-- Node1&#45;&gt;Node10 -->
<g id="edge11" class="edge">
<title>Node1&#45;&gt;Node10</title>
<path fill="none" stroke="midnightblue" d="M472.97,-201.47C497.72,-192.72 537.01,-178.52 570.5,-165 571.91,-164.43 573.36,-163.84 574.81,-163.23"/>
<polygon fill="midnightblue" stroke="midnightblue" points="576.57,-166.28 584.39,-159.13 573.82,-159.85 576.57,-166.28"/>
</g>
<!-- Node11 -->
<g id="node11" class="node">
<title>Node11</title>
<g id="a_node11"><a xlink:href="syncprims-cxx11_8h.html" target="_top" xlink:title="This file contains implementations of synchronization primitives using the C++11 API.">
<polygon fill="white" stroke="black" points="645.5,-134.5 645.5,-164.5 767.5,-164.5 767.5,-134.5 645.5,-134.5"/>
<text text-anchor="start" x="653.5" y="-152.5" font-family="Helvetica,sans-Serif" font-size="10.00">log4cplus/thread/impl</text>
<text text-anchor="middle" x="706.5" y="-141.5" font-family="Helvetica,sans-Serif" font-size="10.00">/syncprims&#45;cxx11.h</text>
</a>
</g>
</g>
<!-- Node1&#45;&gt;Node11 -->
<g id="edge14" class="edge">
<title>Node1&#45;&gt;Node11</title>
<path fill="none" stroke="midnightblue" d="M485.47,-201.48C524.57,-192.46 587.22,-178.01 635.86,-166.79"/>
<polygon fill="midnightblue" stroke="midnightblue" points="636.74,-170.18 645.69,-164.52 635.16,-163.36 636.74,-170.18"/>
</g>
<!-- Node3 -->
<g id="node3" class="node">
<title>Node3</title>
<g id="a_node3"><a xlink:href="win32_8h.html" target="_top" xlink:title=" ">
<polygon fill="white" stroke="black" points="0,-6 0,-25 137,-25 137,-6 0,-6"/>
<text text-anchor="middle" x="68.5" y="-13" font-family="Helvetica,sans-Serif" font-size="10.00">log4cplus/config/win32.h</text>
</a>
</g>
</g>
<!-- Node2&#45;&gt;Node3 -->
<g id="edge2" class="edge">
<title>Node2&#45;&gt;Node3</title>
<path fill="none" stroke="midnightblue" d="M135.12,-72.73C122.65,-62.21 101.53,-44.38 86.41,-31.62"/>
<polygon fill="midnightblue" stroke="midnightblue" points="88.62,-28.9 78.72,-25.13 84.1,-34.25 88.62,-28.9"/>
</g>
<!-- Node4 -->
<g id="node4" class="node">
<title>Node4</title>
<g id="a_node4"><a xlink:href="thread-config_8h.html" target="_top" xlink:title=" ">
<polygon fill="white" stroke="black" points="155,-0.5 155,-30.5 292,-30.5 292,-0.5 155,-0.5"/>
<text text-anchor="start" x="163" y="-18.5" font-family="Helvetica,sans-Serif" font-size="10.00">log4cplus/helpers/thread</text>
<text text-anchor="middle" x="223.5" y="-7.5" font-family="Helvetica,sans-Serif" font-size="10.00">&#45;config.h</text>
</a>
</g>
</g>
<!-- Node2&#45;&gt;Node4 -->
<g id="edge3" class="edge">
<title>Node2&#45;&gt;Node4</title>
<path fill="none" stroke="midnightblue" d="M156.02,-72.73C166.86,-63.7 184.17,-49.27 198.54,-37.3"/>
<polygon fill="midnightblue" stroke="midnightblue" points="201.15,-39.68 206.59,-30.59 196.67,-34.3 201.15,-39.68"/>
</g>
<!-- Node6&#45;&gt;Node2 -->
<g id="edge6" class="edge">
<title>Node6&#45;&gt;Node2</title>
<path fill="none" stroke="midnightblue" d="M298.13,-139.87C267.41,-128.52 213.26,-108.52 178.4,-95.65"/>
<polygon fill="midnightblue" stroke="midnightblue" points="179.28,-92.24 168.69,-92.06 176.86,-98.81 179.28,-92.24"/>
</g>
<!-- Node6&#45;&gt;Node7 -->
<g id="edge7" class="edge">
<title>Node6&#45;&gt;Node7</title>
<path fill="none" stroke="midnightblue" d="M311.25,-139.73C299.06,-129.31 278.48,-111.71 263.59,-98.97"/>
<polygon fill="midnightblue" stroke="midnightblue" points="265.46,-95.97 255.59,-92.13 260.91,-101.29 265.46,-95.97"/>
</g>
<!-- Node6&#45;&gt;Node8 -->
<g id="edge8" class="edge">
<title>Node6&#45;&gt;Node8</title>
<path fill="none" stroke="midnightblue" d="M324.2,-139.73C327.17,-130.09 332.02,-114.3 335.84,-101.91"/>
<polygon fill="midnightblue" stroke="midnightblue" points="339.25,-102.71 338.85,-92.13 332.56,-100.66 339.25,-102.71"/>
</g>
<!-- Node6&#45;&gt;Node9 -->
<g id="edge9" class="edge">
<title>Node6&#45;&gt;Node9</title>
<path fill="none" stroke="midnightblue" d="M342.35,-139.87C365.91,-130.12 404.9,-113.97 435.14,-101.45"/>
<polygon fill="midnightblue" stroke="midnightblue" points="436.72,-104.59 444.62,-97.53 434.04,-98.12 436.72,-104.59"/>
</g>
<!-- Node12 -->
<g id="node12" class="node">
<title>Node12</title>
<g id="a_node12"><a xlink:href="syncprims-pmsm_8h.html" target="_top" xlink:title="This file contains implementations of reader&#45;writer locking primitive using other primitives,...">
<polygon fill="white" stroke="black" points="645.5,-67.5 645.5,-97.5 767.5,-97.5 767.5,-67.5 645.5,-67.5"/>
<text text-anchor="start" x="653.5" y="-85.5" font-family="Helvetica,sans-Serif" font-size="10.00">log4cplus/thread/impl</text>
<text text-anchor="middle" x="706.5" y="-74.5" font-family="Helvetica,sans-Serif" font-size="10.00">/syncprims&#45;pmsm.h</text>
</a>
</g>
</g>
<!-- Node11&#45;&gt;Node12 -->
<g id="edge15" class="edge">
<title>Node11&#45;&gt;Node12</title>
<path fill="none" stroke="midnightblue" d="M706.5,-134.4C706.5,-126.64 706.5,-116.81 706.5,-107.86"/>
<polygon fill="midnightblue" stroke="midnightblue" points="710,-107.58 706.5,-97.58 703,-107.58 710,-107.58"/>
</g>
</g>
</svg>
