<?xml version="1.0" encoding="UTF-8" standalone="no"?>
<!DOCTYPE svg PUBLIC "-//W3C//DTD SVG 1.1//EN"
 "http://www.w3.org/Graphics/SVG/1.1/DTD/svg11.dtd">
<!-- Generated by graphviz version 2.43.0 (0)
 -->
<!-- Title: syslogappender.h Pages: 1 -->
<svg width="1791pt" height="442pt"
 viewBox="0.00 0.00 1791.00 442.00" xmlns="http://www.w3.org/2000/svg" xmlns:xlink="http://www.w3.org/1999/xlink">
<g id="graph0" class="graph" transform="scale(1 1) rotate(0) translate(4 438)">
<title>syslogappender.h</title>
<polygon fill="white" stroke="transparent" points="-4,4 -4,-438 1787,-438 1787,4 -4,4"/>
<!-- Node1 -->
<g id="node1" class="node">
<title>Node1</title>
<g id="a_node1"><a xlink:title=" ">
<polygon fill="#bfbfbf" stroke="black" points="1010,-414.5 1010,-433.5 1112,-433.5 1112,-414.5 1010,-414.5"/>
<text text-anchor="middle" x="1061" y="-421.5" font-family="Helvetica,sans-Serif" font-size="10.00">syslogappender.h</text>
</a>
</g>
</g>
<!-- Node2 -->
<g id="node2" class="node">
<title>Node2</title>
<g id="a_node2"><a xlink:href="config_8hxx.html" target="_top" xlink:title=" ">
<polygon fill="white" stroke="black" points="848,-73 848,-92 964,-92 964,-73 848,-73"/>
<text text-anchor="middle" x="906" y="-80" font-family="Helvetica,sans-Serif" font-size="10.00">log4cplus/config.hxx</text>
</a>
</g>
</g>
<!-- Node1&#45;&gt;Node2 -->
<g id="edge1" class="edge">
<title>Node1&#45;&gt;Node2</title>
<path fill="none" stroke="midnightblue" d="M1112.06,-420.61C1276.7,-412.23 1783,-380.95 1783,-313 1783,-313 1783,-313 1783,-199 1783,-118.94 1693.13,-151.48 1615,-134 1494.26,-106.98 1127.68,-91.31 974.46,-85.78"/>
<polygon fill="midnightblue" stroke="midnightblue" points="974.36,-82.28 964.24,-85.42 974.11,-89.27 974.36,-82.28"/>
</g>
<!-- Node5 -->
<g id="node5" class="node">
<title>Node5</title>
<g id="a_node5"><a xlink:href="appender_8h.html" target="_top" xlink:title=" ">
<polygon fill="white" stroke="black" points="576,-358.5 576,-377.5 696,-377.5 696,-358.5 576,-358.5"/>
<text text-anchor="middle" x="636" y="-365.5" font-family="Helvetica,sans-Serif" font-size="10.00">log4cplus/appender.h</text>
</a>
</g>
</g>
<!-- Node1&#45;&gt;Node5 -->
<g id="edge4" class="edge">
<title>Node1&#45;&gt;Node5</title>
<path fill="none" stroke="midnightblue" d="M1009.74,-416.49C934,-406.86 791.97,-388.82 706.48,-377.96"/>
<polygon fill="midnightblue" stroke="midnightblue" points="706.71,-374.46 696.35,-376.67 705.83,-381.4 706.71,-374.46"/>
</g>
<!-- Node33 -->
<g id="node33" class="node">
<title>Node33</title>
<g id="a_node33"><a xlink:href="helpers_2socket_8h.html" target="_top" xlink:title=" ">
<polygon fill="white" stroke="black" points="1371,-302.5 1371,-321.5 1517,-321.5 1517,-302.5 1371,-302.5"/>
<text text-anchor="middle" x="1444" y="-309.5" font-family="Helvetica,sans-Serif" font-size="10.00">log4cplus/helpers/socket.h</text>
</a>
</g>
</g>
<!-- Node1&#45;&gt;Node33 -->
<g id="edge60" class="edge">
<title>Node1&#45;&gt;Node33</title>
<path fill="none" stroke="midnightblue" d="M1090.73,-414.46C1159.11,-394.82 1327.53,-346.45 1404.49,-324.35"/>
<polygon fill="midnightblue" stroke="midnightblue" points="1405.64,-327.66 1414.28,-321.53 1403.71,-320.93 1405.64,-327.66"/>
</g>
<!-- Node37 -->
<g id="node37" class="node">
<title>Node37</title>
<g id="a_node37"><a xlink:href="connectorthread_8h.html" target="_top" xlink:title=" ">
<polygon fill="white" stroke="black" points="103,-358.5 103,-377.5 297,-377.5 297,-358.5 103,-358.5"/>
<text text-anchor="middle" x="200" y="-365.5" font-family="Helvetica,sans-Serif" font-size="10.00">log4cplus/helpers/connectorthread.h</text>
</a>
</g>
</g>
<!-- Node1&#45;&gt;Node37 -->
<g id="edge68" class="edge">
<title>Node1&#45;&gt;Node37</title>
<path fill="none" stroke="midnightblue" d="M1009.72,-419.78C872.41,-411.17 494.21,-387.45 307.35,-375.73"/>
<polygon fill="midnightblue" stroke="midnightblue" points="307.43,-372.23 297.23,-375.1 307,-379.22 307.43,-372.23"/>
</g>
<!-- Node3 -->
<g id="node3" class="node">
<title>Node3</title>
<g id="a_node3"><a xlink:href="win32_8h.html" target="_top" xlink:title=" ">
<polygon fill="white" stroke="black" points="759.5,-6 759.5,-25 896.5,-25 896.5,-6 759.5,-6"/>
<text text-anchor="middle" x="828" y="-13" font-family="Helvetica,sans-Serif" font-size="10.00">log4cplus/config/win32.h</text>
</a>
</g>
</g>
<!-- Node2&#45;&gt;Node3 -->
<g id="edge2" class="edge">
<title>Node2&#45;&gt;Node3</title>
<path fill="none" stroke="midnightblue" d="M895.48,-72.73C882.85,-62.21 861.46,-44.38 846.14,-31.62"/>
<polygon fill="midnightblue" stroke="midnightblue" points="848.28,-28.84 838.35,-25.13 843.79,-34.22 848.28,-28.84"/>
</g>
<!-- Node4 -->
<g id="node4" class="node">
<title>Node4</title>
<g id="a_node4"><a xlink:href="thread-config_8h.html" target="_top" xlink:title=" ">
<polygon fill="white" stroke="black" points="914.5,-0.5 914.5,-30.5 1051.5,-30.5 1051.5,-0.5 914.5,-0.5"/>
<text text-anchor="start" x="922.5" y="-18.5" font-family="Helvetica,sans-Serif" font-size="10.00">log4cplus/helpers/thread</text>
<text text-anchor="middle" x="983" y="-7.5" font-family="Helvetica,sans-Serif" font-size="10.00">&#45;config.h</text>
</a>
</g>
</g>
<!-- Node2&#45;&gt;Node4 -->
<g id="edge3" class="edge">
<title>Node2&#45;&gt;Node4</title>
<path fill="none" stroke="midnightblue" d="M916.38,-72.73C927.09,-63.7 944.18,-49.27 958.36,-37.3"/>
<polygon fill="midnightblue" stroke="midnightblue" points="960.93,-39.71 966.31,-30.59 956.41,-34.37 960.93,-39.71"/>
</g>
<!-- Node5&#45;&gt;Node2 -->
<g id="edge5" class="edge">
<title>Node5&#45;&gt;Node2</title>
<path fill="none" stroke="midnightblue" d="M679.79,-358.43C702.14,-351.94 728.1,-340.81 745,-322 765.11,-299.61 764,-287.1 764,-257 764,-257 764,-257 764,-199 764,-144.9 826.8,-111.68 868.87,-95.49"/>
<polygon fill="midnightblue" stroke="midnightblue" points="870.11,-98.76 878.28,-92.01 867.69,-92.19 870.11,-98.76"/>
</g>
<!-- Node6 -->
<g id="node6" class="node">
<title>Node6</title>
<g id="a_node6"><a xlink:href="layout_8h.html" target="_top" xlink:title=" ">
<polygon fill="white" stroke="black" points="954,-302.5 954,-321.5 1060,-321.5 1060,-302.5 954,-302.5"/>
<text text-anchor="middle" x="1007" y="-309.5" font-family="Helvetica,sans-Serif" font-size="10.00">log4cplus/layout.h</text>
</a>
</g>
</g>
<!-- Node5&#45;&gt;Node6 -->
<g id="edge6" class="edge">
<title>Node5&#45;&gt;Node6</title>
<path fill="none" stroke="midnightblue" d="M694.79,-358.44C762.75,-348.55 874.19,-332.33 943.92,-322.18"/>
<polygon fill="midnightblue" stroke="midnightblue" points="944.51,-325.63 953.9,-320.73 943.5,-318.71 944.51,-325.63"/>
</g>
<!-- Node7 -->
<g id="node7" class="node">
<title>Node7</title>
<g id="a_node7"><a xlink:href="loglevel_8h.html" target="_top" xlink:title="This header defines the LogLevel type.">
<polygon fill="white" stroke="black" points="584,-246.5 584,-265.5 698,-265.5 698,-246.5 584,-246.5"/>
<text text-anchor="middle" x="641" y="-253.5" font-family="Helvetica,sans-Serif" font-size="10.00">log4cplus/loglevel.h</text>
</a>
</g>
</g>
<!-- Node5&#45;&gt;Node7 -->
<g id="edge44" class="edge">
<title>Node5&#45;&gt;Node7</title>
<path fill="none" stroke="midnightblue" d="M629.27,-358.28C620.55,-345.91 607.15,-322.49 613,-302 615.9,-291.84 621.83,-281.75 627.49,-273.7"/>
<polygon fill="midnightblue" stroke="midnightblue" points="630.38,-275.69 633.59,-265.59 624.78,-271.48 630.38,-275.69"/>
</g>
<!-- Node9 -->
<g id="node9" class="node">
<title>Node9</title>
<g id="a_node9"><a xlink:title=" ">
<polygon fill="white" stroke="#bfbfbf" points="498,-190.5 498,-209.5 556,-209.5 556,-190.5 498,-190.5"/>
<text text-anchor="middle" x="527" y="-197.5" font-family="Helvetica,sans-Serif" font-size="10.00">memory</text>
</a>
</g>
</g>
<!-- Node5&#45;&gt;Node9 -->
<g id="edge56" class="edge">
<title>Node5&#45;&gt;Node9</title>
<path fill="none" stroke="midnightblue" d="M626.7,-358.4C609.41,-341.97 572.08,-304.31 550,-266 541.6,-251.41 535.48,-233.24 531.68,-219.82"/>
<polygon fill="midnightblue" stroke="midnightblue" points="534.98,-218.61 529.03,-209.85 528.22,-220.41 534.98,-218.61"/>
</g>
<!-- Node11 -->
<g id="node11" class="node">
<title>Node11</title>
<g id="a_node11"><a xlink:href="tstring_8h.html" target="_top" xlink:title=" ">
<polygon fill="white" stroke="black" points="1175.5,-190.5 1175.5,-209.5 1282.5,-209.5 1282.5,-190.5 1175.5,-190.5"/>
<text text-anchor="middle" x="1229" y="-197.5" font-family="Helvetica,sans-Serif" font-size="10.00">log4cplus/tstring.h</text>
</a>
</g>
</g>
<!-- Node5&#45;&gt;Node11 -->
<g id="edge45" class="edge">
<title>Node5&#45;&gt;Node11</title>
<path fill="none" stroke="midnightblue" d="M696.28,-365.31C780.62,-361.92 938.2,-351.81 1069,-322 1140.82,-305.63 1180.78,-324.92 1225,-266 1234.85,-252.87 1234.82,-233.73 1232.94,-219.61"/>
<polygon fill="midnightblue" stroke="midnightblue" points="1236.36,-218.84 1231.19,-209.58 1229.46,-220.04 1236.36,-218.84"/>
</g>
<!-- Node18 -->
<g id="node18" class="node">
<title>Node18</title>
<g id="a_node18"><a xlink:href="pointer_8h.html" target="_top" xlink:title=" ">
<polygon fill="white" stroke="black" points="294,-190.5 294,-209.5 442,-209.5 442,-190.5 294,-190.5"/>
<text text-anchor="middle" x="368" y="-197.5" font-family="Helvetica,sans-Serif" font-size="10.00">log4cplus/helpers/pointer.h</text>
</a>
</g>
</g>
<!-- Node5&#45;&gt;Node18 -->
<g id="edge46" class="edge">
<title>Node5&#45;&gt;Node18</title>
<path fill="none" stroke="midnightblue" d="M575.99,-359.87C523,-352.55 450.74,-339.71 428,-322 394.66,-296.03 378.52,-246.64 371.89,-219.69"/>
<polygon fill="midnightblue" stroke="midnightblue" points="375.24,-218.62 369.61,-209.65 368.41,-220.17 375.24,-218.62"/>
</g>
<!-- Node20 -->
<g id="node20" class="node">
<title>Node20</title>
<g id="a_node20"><a xlink:title=" ">
<polygon fill="white" stroke="#bfbfbf" points="0,-73 0,-92 48,-92 48,-73 0,-73"/>
<text text-anchor="middle" x="24" y="-80" font-family="Helvetica,sans-Serif" font-size="10.00">mutex</text>
</a>
</g>
</g>
<!-- Node5&#45;&gt;Node20 -->
<g id="edge57" class="edge">
<title>Node5&#45;&gt;Node20</title>
<path fill="none" stroke="midnightblue" d="M575.98,-365.64C502.63,-362.61 375.38,-352.91 271,-322 216.49,-305.86 202.85,-298.2 156,-266 125.94,-245.34 118.61,-238.62 96,-210 67.91,-174.45 43.85,-126.64 31.95,-101.19"/>
<polygon fill="midnightblue" stroke="midnightblue" points="35.1,-99.66 27.75,-92.03 28.74,-102.58 35.1,-99.66"/>
</g>
<!-- Node21 -->
<g id="node21" class="node">
<title>Node21</title>
<g id="a_node21"><a xlink:title=" ">
<polygon fill="white" stroke="#bfbfbf" points="66.5,-73 66.5,-92 173.5,-92 173.5,-73 66.5,-73"/>
<text text-anchor="middle" x="120" y="-80" font-family="Helvetica,sans-Serif" font-size="10.00">condition_variable</text>
</a>
</g>
</g>
<!-- Node5&#45;&gt;Node21 -->
<g id="edge59" class="edge">
<title>Node5&#45;&gt;Node21</title>
<path fill="none" stroke="midnightblue" d="M575.72,-364.35C486.53,-358.09 316.65,-337 193,-266 131.95,-230.95 107.94,-219.04 81,-154 72.87,-134.37 88.11,-113.22 101.86,-99.26"/>
<polygon fill="midnightblue" stroke="midnightblue" points="104.34,-101.73 109.18,-92.3 99.52,-96.65 104.34,-101.73"/>
</g>
<!-- Node25 -->
<g id="node25" class="node">
<title>Node25</title>
<g id="a_node25"><a xlink:title=" ">
<polygon fill="white" stroke="#bfbfbf" points="534,-134.5 534,-153.5 584,-153.5 584,-134.5 534,-134.5"/>
<text text-anchor="middle" x="559" y="-141.5" font-family="Helvetica,sans-Serif" font-size="10.00">atomic</text>
</a>
</g>
</g>
<!-- Node5&#45;&gt;Node25 -->
<g id="edge58" class="edge">
<title>Node5&#45;&gt;Node25</title>
<path fill="none" stroke="midnightblue" d="M621.01,-358.38C607.35,-350.1 587.07,-336.7 572,-322 527.65,-278.74 508.42,-268.83 489,-210 486.21,-201.56 484.74,-197.8 489,-190 496.82,-175.68 511.36,-165.24 525.18,-158.04"/>
<polygon fill="midnightblue" stroke="midnightblue" points="527.02,-161.03 534.53,-153.56 524,-154.72 527.02,-161.03"/>
</g>
<!-- Node31 -->
<g id="node31" class="node">
<title>Node31</title>
<g id="a_node31"><a xlink:href="filter_8h.html" target="_top" xlink:title="This header defines Filter and all of it&#39;s subclasses.">
<polygon fill="white" stroke="black" points="622,-302.5 622,-321.5 736,-321.5 736,-302.5 622,-302.5"/>
<text text-anchor="middle" x="679" y="-309.5" font-family="Helvetica,sans-Serif" font-size="10.00">log4cplus/spi/filter.h</text>
</a>
</g>
</g>
<!-- Node5&#45;&gt;Node31 -->
<g id="edge47" class="edge">
<title>Node5&#45;&gt;Node31</title>
<path fill="none" stroke="midnightblue" d="M643.1,-358.08C649.24,-350.38 658.27,-339.03 665.74,-329.65"/>
<polygon fill="midnightblue" stroke="midnightblue" points="668.54,-331.75 672.03,-321.75 663.06,-327.39 668.54,-331.75"/>
</g>
<!-- Node32 -->
<g id="node32" class="node">
<title>Node32</title>
<g id="a_node32"><a xlink:href="lockfile_8h.html" target="_top" xlink:title=" ">
<polygon fill="white" stroke="black" points="829.5,-246.5 829.5,-265.5 978.5,-265.5 978.5,-246.5 829.5,-246.5"/>
<text text-anchor="middle" x="904" y="-253.5" font-family="Helvetica,sans-Serif" font-size="10.00">log4cplus/helpers/lockfile.h</text>
</a>
</g>
</g>
<!-- Node5&#45;&gt;Node32 -->
<g id="edge52" class="edge">
<title>Node5&#45;&gt;Node32</title>
<path fill="none" stroke="midnightblue" d="M668.42,-358.42C697.56,-350.31 741.31,-337.15 778,-322 814.92,-306.76 855.66,-284.72 880.54,-270.63"/>
<polygon fill="midnightblue" stroke="midnightblue" points="882.32,-273.65 889.26,-265.65 878.84,-267.57 882.32,-273.65"/>
</g>
<!-- Node6&#45;&gt;Node2 -->
<g id="edge7" class="edge">
<title>Node6&#45;&gt;Node2</title>
<path fill="none" stroke="midnightblue" d="M1060.42,-307.31C1106.05,-302.47 1172.45,-291.38 1225,-266 1259.95,-249.12 1275.56,-245.16 1292,-210 1300.23,-192.4 1297.78,-146.88 1285,-134 1242.79,-91.44 1071.5,-83.8 974.27,-82.99"/>
<polygon fill="midnightblue" stroke="midnightblue" points="974.25,-79.49 964.23,-82.92 974.21,-86.49 974.25,-79.49"/>
</g>
<!-- Node6&#45;&gt;Node7 -->
<g id="edge8" class="edge">
<title>Node6&#45;&gt;Node7</title>
<path fill="none" stroke="midnightblue" d="M953.78,-303.15C888.87,-293.57 779.08,-277.37 708.35,-266.94"/>
<polygon fill="midnightblue" stroke="midnightblue" points="708.61,-263.44 698.2,-265.44 707.59,-270.36 708.61,-263.44"/>
</g>
<!-- Node8 -->
<g id="node8" class="node">
<title>Node8</title>
<g id="a_node8"><a xlink:title=" ">
<polygon fill="white" stroke="#bfbfbf" points="792.5,-190.5 792.5,-209.5 839.5,-209.5 839.5,-190.5 792.5,-190.5"/>
<text text-anchor="middle" x="816" y="-197.5" font-family="Helvetica,sans-Serif" font-size="10.00">vector</text>
</a>
</g>
</g>
<!-- Node6&#45;&gt;Node8 -->
<g id="edge42" class="edge">
<title>Node6&#45;&gt;Node8</title>
<path fill="none" stroke="midnightblue" d="M953.58,-305.05C904.87,-298.44 838.01,-285.99 821,-266 810.35,-253.49 810.17,-234.26 812.01,-219.96"/>
<polygon fill="midnightblue" stroke="midnightblue" points="815.52,-220.22 813.76,-209.77 808.62,-219.03 815.52,-220.22"/>
</g>
<!-- Node6&#45;&gt;Node9 -->
<g id="edge43" class="edge">
<title>Node6&#45;&gt;Node9</title>
<path fill="none" stroke="midnightblue" d="M953.65,-310.74C852.74,-309.39 638.34,-302.2 575,-266 556.4,-255.37 542.9,-234.28 535.05,-219"/>
<polygon fill="midnightblue" stroke="midnightblue" points="538,-217.05 530.51,-209.55 531.68,-220.08 538,-217.05"/>
</g>
<!-- Node6&#45;&gt;Node11 -->
<g id="edge36" class="edge">
<title>Node6&#45;&gt;Node11</title>
<path fill="none" stroke="midnightblue" d="M1060.23,-304.68C1111.31,-297.61 1183.74,-284.66 1205,-266 1218.4,-254.24 1224.33,-234.31 1226.95,-219.61"/>
<polygon fill="midnightblue" stroke="midnightblue" points="1230.42,-220.01 1228.37,-209.61 1223.49,-219.02 1230.42,-220.01"/>
</g>
<!-- Node26 -->
<g id="node26" class="node">
<title>Node26</title>
<g id="a_node26"><a xlink:href="streams_8h.html" target="_top" xlink:title=" ">
<polygon fill="white" stroke="black" points="1367.5,-190.5 1367.5,-209.5 1482.5,-209.5 1482.5,-190.5 1367.5,-190.5"/>
<text text-anchor="middle" x="1425" y="-197.5" font-family="Helvetica,sans-Serif" font-size="10.00">log4cplus/streams.h</text>
</a>
</g>
</g>
<!-- Node6&#45;&gt;Node26 -->
<g id="edge32" class="edge">
<title>Node6&#45;&gt;Node26</title>
<path fill="none" stroke="midnightblue" d="M1060.2,-306.42C1116.1,-300.64 1206.13,-288.62 1281,-266 1324.69,-252.8 1372.41,-229.3 1400.48,-214.47"/>
<polygon fill="midnightblue" stroke="midnightblue" points="1402.38,-217.42 1409.54,-209.61 1399.07,-211.25 1402.38,-217.42"/>
</g>
<!-- Node28 -->
<g id="node28" class="node">
<title>Node28</title>
<g id="a_node28"><a xlink:href="timehelper_8h.html" target="_top" xlink:title=" ">
<polygon fill="white" stroke="black" points="996.5,-246.5 996.5,-265.5 1163.5,-265.5 1163.5,-246.5 996.5,-246.5"/>
<text text-anchor="middle" x="1080" y="-253.5" font-family="Helvetica,sans-Serif" font-size="10.00">log4cplus/helpers/timehelper.h</text>
</a>
</g>
</g>
<!-- Node6&#45;&gt;Node28 -->
<g id="edge37" class="edge">
<title>Node6&#45;&gt;Node28</title>
<path fill="none" stroke="midnightblue" d="M1018.73,-302.32C1029.84,-294.11 1046.74,-281.6 1059.98,-271.81"/>
<polygon fill="midnightblue" stroke="midnightblue" points="1062.1,-274.59 1068.06,-265.83 1057.94,-268.97 1062.1,-274.59"/>
</g>
<!-- Node7&#45;&gt;Node2 -->
<g id="edge9" class="edge">
<title>Node7&#45;&gt;Node2</title>
<path fill="none" stroke="midnightblue" d="M646.48,-246.44C652.2,-237.43 661.39,-222.82 669,-210 688.81,-176.63 681.23,-157.65 712,-134 748,-106.33 797.68,-93.75 837.75,-88.06"/>
<polygon fill="midnightblue" stroke="midnightblue" points="838.26,-91.53 847.72,-86.76 837.35,-84.59 838.26,-91.53"/>
</g>
<!-- Node7&#45;&gt;Node8 -->
<g id="edge10" class="edge">
<title>Node7&#45;&gt;Node8</title>
<path fill="none" stroke="midnightblue" d="M668.73,-246.44C699.65,-236.9 749.64,-221.48 782.66,-211.29"/>
<polygon fill="midnightblue" stroke="midnightblue" points="783.81,-214.6 792.33,-208.3 781.74,-207.91 783.81,-214.6"/>
</g>
<!-- Node7&#45;&gt;Node9 -->
<g id="edge11" class="edge">
<title>Node7&#45;&gt;Node9</title>
<path fill="none" stroke="midnightblue" d="M622.94,-246.44C604.43,-237.68 575.42,-223.94 554.14,-213.86"/>
<polygon fill="midnightblue" stroke="midnightblue" points="555.51,-210.63 544.98,-209.52 552.52,-216.96 555.51,-210.63"/>
</g>
<!-- Node10 -->
<g id="node10" class="node">
<title>Node10</title>
<g id="a_node10"><a xlink:title=" ">
<polygon fill="white" stroke="#bfbfbf" points="574,-190.5 574,-209.5 660,-209.5 660,-190.5 574,-190.5"/>
<text text-anchor="middle" x="617" y="-197.5" font-family="Helvetica,sans-Serif" font-size="10.00">shared_mutex</text>
</a>
</g>
</g>
<!-- Node7&#45;&gt;Node10 -->
<g id="edge12" class="edge">
<title>Node7&#45;&gt;Node10</title>
<path fill="none" stroke="midnightblue" d="M637.04,-246.08C633.79,-238.77 629.08,-228.18 625.05,-219.1"/>
<polygon fill="midnightblue" stroke="midnightblue" points="628.15,-217.47 620.89,-209.75 621.75,-220.31 628.15,-217.47"/>
</g>
<!-- Node7&#45;&gt;Node11 -->
<g id="edge13" class="edge">
<title>Node7&#45;&gt;Node11</title>
<path fill="none" stroke="midnightblue" d="M698.18,-249.75C808.42,-239.62 1049.61,-217.47 1165.01,-206.88"/>
<polygon fill="midnightblue" stroke="midnightblue" points="1165.47,-210.35 1175.11,-205.95 1164.83,-203.38 1165.47,-210.35"/>
</g>
<!-- Node7&#45;&gt;Node18 -->
<g id="edge22" class="edge">
<title>Node7&#45;&gt;Node18</title>
<path fill="none" stroke="midnightblue" d="M597.74,-246.44C549.82,-236.96 472.52,-221.67 421,-211.48"/>
<polygon fill="midnightblue" stroke="midnightblue" points="421.54,-208.02 411.06,-209.52 420.19,-214.89 421.54,-208.02"/>
</g>
<!-- Node11&#45;&gt;Node2 -->
<g id="edge14" class="edge">
<title>Node11&#45;&gt;Node2</title>
<path fill="none" stroke="midnightblue" d="M1241.06,-190.41C1257.94,-177.37 1284.83,-152.19 1269,-134 1231.56,-91 1068.63,-83.45 974.27,-82.8"/>
<polygon fill="midnightblue" stroke="midnightblue" points="974.25,-79.3 964.24,-82.75 974.22,-86.3 974.25,-79.3"/>
</g>
<!-- Node12 -->
<g id="node12" class="node">
<title>Node12</title>
<g id="a_node12"><a xlink:title=" ">
<polygon fill="white" stroke="#bfbfbf" points="1036.5,-134.5 1036.5,-153.5 1105.5,-153.5 1105.5,-134.5 1036.5,-134.5"/>
<text text-anchor="middle" x="1071" y="-141.5" font-family="Helvetica,sans-Serif" font-size="10.00">type_traits</text>
</a>
</g>
</g>
<!-- Node11&#45;&gt;Node12 -->
<g id="edge15" class="edge">
<title>Node11&#45;&gt;Node12</title>
<path fill="none" stroke="midnightblue" d="M1203.96,-190.44C1177.38,-181.36 1135.19,-166.94 1105.48,-156.78"/>
<polygon fill="midnightblue" stroke="midnightblue" points="1106.51,-153.44 1095.92,-153.52 1104.25,-160.06 1106.51,-153.44"/>
</g>
<!-- Node13 -->
<g id="node13" class="node">
<title>Node13</title>
<g id="a_node13"><a xlink:title=" ">
<polygon fill="white" stroke="#bfbfbf" points="953.5,-134.5 953.5,-153.5 1018.5,-153.5 1018.5,-134.5 953.5,-134.5"/>
<text text-anchor="middle" x="986" y="-141.5" font-family="Helvetica,sans-Serif" font-size="10.00">functional</text>
</a>
</g>
</g>
<!-- Node11&#45;&gt;Node13 -->
<g id="edge16" class="edge">
<title>Node11&#45;&gt;Node13</title>
<path fill="none" stroke="midnightblue" d="M1190.5,-190.44C1146.45,-180.66 1074.54,-164.67 1028.78,-154.51"/>
<polygon fill="midnightblue" stroke="midnightblue" points="1029.39,-151.06 1018.87,-152.3 1027.87,-157.89 1029.39,-151.06"/>
</g>
<!-- Node14 -->
<g id="node14" class="node">
<title>Node14</title>
<g id="a_node14"><a xlink:title=" ">
<polygon fill="white" stroke="#bfbfbf" points="1124,-134.5 1124,-153.5 1168,-153.5 1168,-134.5 1124,-134.5"/>
<text text-anchor="middle" x="1146" y="-141.5" font-family="Helvetica,sans-Serif" font-size="10.00">string</text>
</a>
</g>
</g>
<!-- Node11&#45;&gt;Node14 -->
<g id="edge17" class="edge">
<title>Node11&#45;&gt;Node14</title>
<path fill="none" stroke="midnightblue" d="M1215.66,-190.32C1202.84,-181.98 1183.22,-169.21 1168.06,-159.35"/>
<polygon fill="midnightblue" stroke="midnightblue" points="1169.59,-156.17 1159.3,-153.65 1165.78,-162.04 1169.59,-156.17"/>
</g>
<!-- Node15 -->
<g id="node15" class="node">
<title>Node15</title>
<g id="a_node15"><a xlink:title=" ">
<polygon fill="white" stroke="#bfbfbf" points="1186.5,-134.5 1186.5,-153.5 1259.5,-153.5 1259.5,-134.5 1186.5,-134.5"/>
<text text-anchor="middle" x="1223" y="-141.5" font-family="Helvetica,sans-Serif" font-size="10.00">string_view</text>
</a>
</g>
</g>
<!-- Node11&#45;&gt;Node15 -->
<g id="edge18" class="edge">
<title>Node11&#45;&gt;Node15</title>
<path fill="none" stroke="midnightblue" d="M1228.01,-190.08C1227.21,-182.93 1226.07,-172.64 1225.08,-163.69"/>
<polygon fill="midnightblue" stroke="midnightblue" points="1228.56,-163.3 1223.97,-153.75 1221.6,-164.08 1228.56,-163.3"/>
</g>
<!-- Node16 -->
<g id="node16" class="node">
<title>Node16</title>
<g id="a_node16"><a xlink:href="tchar_8h.html" target="_top" xlink:title=" ">
<polygon fill="white" stroke="black" points="1392.5,-134.5 1392.5,-153.5 1491.5,-153.5 1491.5,-134.5 1392.5,-134.5"/>
<text text-anchor="middle" x="1442" y="-141.5" font-family="Helvetica,sans-Serif" font-size="10.00">log4cplus/tchar.h</text>
</a>
</g>
</g>
<!-- Node11&#45;&gt;Node16 -->
<g id="edge19" class="edge">
<title>Node11&#45;&gt;Node16</title>
<path fill="none" stroke="midnightblue" d="M1262.75,-190.44C1299.52,-181.12 1358.45,-166.18 1398.62,-156"/>
<polygon fill="midnightblue" stroke="midnightblue" points="1399.57,-159.37 1408.41,-153.52 1397.85,-152.58 1399.57,-159.37"/>
</g>
<!-- Node16&#45;&gt;Node2 -->
<g id="edge20" class="edge">
<title>Node16&#45;&gt;Node2</title>
<path fill="none" stroke="midnightblue" d="M1392.41,-135.86C1387.54,-135.21 1382.68,-134.58 1378,-134 1234.52,-116.24 1066.05,-99.11 974.2,-90.08"/>
<polygon fill="midnightblue" stroke="midnightblue" points="974.5,-86.59 964.2,-89.1 973.81,-93.56 974.5,-86.59"/>
</g>
<!-- Node17 -->
<g id="node17" class="node">
<title>Node17</title>
<g id="a_node17"><a xlink:title=" ">
<polygon fill="white" stroke="#bfbfbf" points="1415.5,-73 1415.5,-92 1468.5,-92 1468.5,-73 1415.5,-73"/>
<text text-anchor="middle" x="1442" y="-80" font-family="Helvetica,sans-Serif" font-size="10.00">cstddef</text>
</a>
</g>
</g>
<!-- Node16&#45;&gt;Node17 -->
<g id="edge21" class="edge">
<title>Node16&#45;&gt;Node17</title>
<path fill="none" stroke="midnightblue" d="M1442,-134.48C1442,-126.08 1442,-112.98 1442,-102.16"/>
<polygon fill="midnightblue" stroke="midnightblue" points="1445.5,-102.01 1442,-92.01 1438.5,-102.01 1445.5,-102.01"/>
</g>
<!-- Node18&#45;&gt;Node2 -->
<g id="edge23" class="edge">
<title>Node18&#45;&gt;Node2</title>
<path fill="none" stroke="midnightblue" d="M393.44,-190.4C417.79,-181.94 455.38,-168.24 487,-154 504.4,-146.17 506.81,-139.79 525,-134 630.88,-100.3 760.22,-89.08 837.71,-85.35"/>
<polygon fill="midnightblue" stroke="midnightblue" points="837.99,-88.84 847.82,-84.89 837.67,-81.84 837.99,-88.84"/>
</g>
<!-- Node19 -->
<g id="node19" class="node">
<title>Node19</title>
<g id="a_node19"><a xlink:href="syncprims_8h.html" target="_top" xlink:title=" ">
<polygon fill="white" stroke="black" points="90,-134.5 90,-153.5 250,-153.5 250,-134.5 90,-134.5"/>
<text text-anchor="middle" x="170" y="-141.5" font-family="Helvetica,sans-Serif" font-size="10.00">log4cplus/thread/syncprims.h</text>
</a>
</g>
</g>
<!-- Node18&#45;&gt;Node19 -->
<g id="edge24" class="edge">
<title>Node18&#45;&gt;Node19</title>
<path fill="none" stroke="midnightblue" d="M336.63,-190.44C302.74,-181.2 248.6,-166.44 211.28,-156.26"/>
<polygon fill="midnightblue" stroke="midnightblue" points="211.8,-152.77 201.23,-153.52 209.95,-159.52 211.8,-152.77"/>
</g>
<!-- Node23 -->
<g id="node23" class="node">
<title>Node23</title>
<g id="a_node23"><a xlink:title=" ">
<polygon fill="white" stroke="#bfbfbf" points="344,-134.5 344,-153.5 408,-153.5 408,-134.5 344,-134.5"/>
<text text-anchor="middle" x="376" y="-141.5" font-family="Helvetica,sans-Serif" font-size="10.00">algorithm</text>
</a>
</g>
</g>
<!-- Node18&#45;&gt;Node23 -->
<g id="edge29" class="edge">
<title>Node18&#45;&gt;Node23</title>
<path fill="none" stroke="midnightblue" d="M369.32,-190.08C370.38,-182.93 371.91,-172.64 373.23,-163.69"/>
<polygon fill="midnightblue" stroke="midnightblue" points="376.7,-164.16 374.7,-153.75 369.78,-163.13 376.7,-164.16"/>
</g>
<!-- Node24 -->
<g id="node24" class="node">
<title>Node24</title>
<g id="a_node24"><a xlink:title=" ">
<polygon fill="white" stroke="#bfbfbf" points="426,-134.5 426,-153.5 478,-153.5 478,-134.5 426,-134.5"/>
<text text-anchor="middle" x="452" y="-141.5" font-family="Helvetica,sans-Serif" font-size="10.00">cassert</text>
</a>
</g>
</g>
<!-- Node18&#45;&gt;Node24 -->
<g id="edge30" class="edge">
<title>Node18&#45;&gt;Node24</title>
<path fill="none" stroke="midnightblue" d="M381.5,-190.32C394.6,-181.9 414.71,-168.97 430.11,-159.07"/>
<polygon fill="midnightblue" stroke="midnightblue" points="432.02,-162.01 438.54,-153.65 428.23,-156.12 432.02,-162.01"/>
</g>
<!-- Node18&#45;&gt;Node25 -->
<g id="edge31" class="edge">
<title>Node18&#45;&gt;Node25</title>
<path fill="none" stroke="midnightblue" d="M398.26,-190.44C432.35,-180.81 487.67,-165.17 523.69,-154.98"/>
<polygon fill="midnightblue" stroke="midnightblue" points="525.09,-158.23 533.76,-152.14 523.18,-151.49 525.09,-158.23"/>
</g>
<!-- Node19&#45;&gt;Node2 -->
<g id="edge25" class="edge">
<title>Node19&#45;&gt;Node2</title>
<path fill="none" stroke="midnightblue" d="M250.24,-135.23C254.9,-134.8 259.51,-134.39 264,-134 472.94,-115.78 720.39,-97.15 837.72,-88.49"/>
<polygon fill="midnightblue" stroke="midnightblue" points="838.27,-91.96 847.99,-87.73 837.76,-84.98 838.27,-91.96"/>
</g>
<!-- Node19&#45;&gt;Node20 -->
<g id="edge26" class="edge">
<title>Node19&#45;&gt;Node20</title>
<path fill="none" stroke="midnightblue" d="M147.82,-134.43C124.97,-125.54 88.36,-111.13 57,-98 55.59,-97.41 54.15,-96.8 52.7,-96.18"/>
<polygon fill="midnightblue" stroke="midnightblue" points="53.71,-92.81 43.15,-92.05 50.93,-99.23 53.71,-92.81"/>
</g>
<!-- Node19&#45;&gt;Node21 -->
<g id="edge27" class="edge">
<title>Node19&#45;&gt;Node21</title>
<path fill="none" stroke="midnightblue" d="M162.84,-134.48C155.26,-125.46 143.13,-111.02 133.71,-99.81"/>
<polygon fill="midnightblue" stroke="midnightblue" points="136.26,-97.41 127.15,-92.01 130.9,-101.92 136.26,-97.41"/>
</g>
<!-- Node22 -->
<g id="node22" class="node">
<title>Node22</title>
<g id="a_node22"><a xlink:href="threadsafetyanalysis_8h.html" target="_top" xlink:title=" ">
<polygon fill="white" stroke="black" points="191.5,-67.5 191.5,-97.5 322.5,-97.5 322.5,-67.5 191.5,-67.5"/>
<text text-anchor="start" x="199.5" y="-85.5" font-family="Helvetica,sans-Serif" font-size="10.00">log4cplus/internal</text>
<text text-anchor="middle" x="257" y="-74.5" font-family="Helvetica,sans-Serif" font-size="10.00">/threadsafetyanalysis.h</text>
</a>
</g>
</g>
<!-- Node19&#45;&gt;Node22 -->
<g id="edge28" class="edge">
<title>Node19&#45;&gt;Node22</title>
<path fill="none" stroke="midnightblue" d="M182.46,-134.48C194.36,-126.34 212.71,-113.79 228.23,-103.18"/>
<polygon fill="midnightblue" stroke="midnightblue" points="230.22,-106.06 236.5,-97.52 226.27,-100.28 230.22,-106.06"/>
</g>
<!-- Node26&#45;&gt;Node2 -->
<g id="edge33" class="edge">
<title>Node26&#45;&gt;Node2</title>
<path fill="none" stroke="midnightblue" d="M1417.05,-190.45C1403.04,-176.01 1372.38,-147.1 1340,-134 1275.35,-107.85 1079.67,-93.21 974.54,-87.04"/>
<polygon fill="midnightblue" stroke="midnightblue" points="974.53,-83.53 964.35,-86.45 974.13,-90.52 974.53,-83.53"/>
</g>
<!-- Node26&#45;&gt;Node16 -->
<g id="edge34" class="edge">
<title>Node26&#45;&gt;Node16</title>
<path fill="none" stroke="midnightblue" d="M1427.81,-190.08C1430.08,-182.85 1433.37,-172.41 1436.21,-163.4"/>
<polygon fill="midnightblue" stroke="midnightblue" points="1439.58,-164.34 1439.25,-153.75 1432.9,-162.24 1439.58,-164.34"/>
</g>
<!-- Node27 -->
<g id="node27" class="node">
<title>Node27</title>
<g id="a_node27"><a xlink:title=" ">
<polygon fill="white" stroke="#bfbfbf" points="1510,-134.5 1510,-153.5 1558,-153.5 1558,-134.5 1510,-134.5"/>
<text text-anchor="middle" x="1534" y="-141.5" font-family="Helvetica,sans-Serif" font-size="10.00">iosfwd</text>
</a>
</g>
</g>
<!-- Node26&#45;&gt;Node27 -->
<g id="edge35" class="edge">
<title>Node26&#45;&gt;Node27</title>
<path fill="none" stroke="midnightblue" d="M1442.51,-190.32C1460.07,-181.62 1487.33,-168.12 1507.53,-158.11"/>
<polygon fill="midnightblue" stroke="midnightblue" points="1509.12,-161.23 1516.53,-153.65 1506.02,-154.96 1509.12,-161.23"/>
</g>
<!-- Node28&#45;&gt;Node2 -->
<g id="edge38" class="edge">
<title>Node28&#45;&gt;Node2</title>
<path fill="none" stroke="midnightblue" d="M1056.9,-246.44C1037.98,-238.73 1011.13,-226.13 991,-210 953.45,-179.91 926.36,-128.73 913.81,-101.61"/>
<polygon fill="midnightblue" stroke="midnightblue" points="916.87,-99.89 909.59,-92.19 910.48,-102.75 916.87,-99.89"/>
</g>
<!-- Node28&#45;&gt;Node11 -->
<g id="edge39" class="edge">
<title>Node28&#45;&gt;Node11</title>
<path fill="none" stroke="midnightblue" d="M1103.61,-246.44C1128.46,-237.44 1167.77,-223.19 1195.75,-213.05"/>
<polygon fill="midnightblue" stroke="midnightblue" points="1197.29,-216.21 1205.5,-209.52 1194.91,-209.63 1197.29,-216.21"/>
</g>
<!-- Node29 -->
<g id="node29" class="node">
<title>Node29</title>
<g id="a_node29"><a xlink:title=" ">
<polygon fill="white" stroke="#bfbfbf" points="1000,-190.5 1000,-209.5 1044,-209.5 1044,-190.5 1000,-190.5"/>
<text text-anchor="middle" x="1022" y="-197.5" font-family="Helvetica,sans-Serif" font-size="10.00">ctime</text>
</a>
</g>
</g>
<!-- Node28&#45;&gt;Node29 -->
<g id="edge40" class="edge">
<title>Node28&#45;&gt;Node29</title>
<path fill="none" stroke="midnightblue" d="M1070.68,-246.32C1062.11,-238.34 1049.19,-226.31 1038.81,-216.65"/>
<polygon fill="midnightblue" stroke="midnightblue" points="1041.19,-214.09 1031.49,-209.83 1036.42,-219.21 1041.19,-214.09"/>
</g>
<!-- Node30 -->
<g id="node30" class="node">
<title>Node30</title>
<g id="a_node30"><a xlink:title=" ">
<polygon fill="white" stroke="#bfbfbf" points="1062,-190.5 1062,-209.5 1112,-209.5 1112,-190.5 1062,-190.5"/>
<text text-anchor="middle" x="1087" y="-197.5" font-family="Helvetica,sans-Serif" font-size="10.00">chrono</text>
</a>
</g>
</g>
<!-- Node28&#45;&gt;Node30 -->
<g id="edge41" class="edge">
<title>Node28&#45;&gt;Node30</title>
<path fill="none" stroke="midnightblue" d="M1081.16,-246.08C1082.08,-238.93 1083.42,-228.64 1084.58,-219.69"/>
<polygon fill="midnightblue" stroke="midnightblue" points="1088.05,-220.12 1085.87,-209.75 1081.11,-219.22 1088.05,-220.12"/>
</g>
<!-- Node31&#45;&gt;Node2 -->
<g id="edge48" class="edge">
<title>Node31&#45;&gt;Node2</title>
<path fill="none" stroke="midnightblue" d="M685.24,-302.39C691.4,-293.59 700.79,-279.35 707,-266 733.04,-210.06 706.33,-177.59 750,-134 773.26,-110.78 807.27,-98.24 837.6,-91.46"/>
<polygon fill="midnightblue" stroke="midnightblue" points="838.63,-94.82 847.72,-89.37 837.22,-87.96 838.63,-94.82"/>
</g>
<!-- Node31&#45;&gt;Node7 -->
<g id="edge51" class="edge">
<title>Node31&#45;&gt;Node7</title>
<path fill="none" stroke="midnightblue" d="M672.73,-302.08C667.36,-294.46 659.48,-283.26 652.92,-273.94"/>
<polygon fill="midnightblue" stroke="midnightblue" points="655.78,-271.91 647.16,-265.75 650.05,-275.94 655.78,-271.91"/>
</g>
<!-- Node31&#45;&gt;Node13 -->
<g id="edge49" class="edge">
<title>Node31&#45;&gt;Node13</title>
<path fill="none" stroke="midnightblue" d="M736.33,-310.03C860.21,-307.33 1144.04,-297.72 1173,-266 1222.14,-212.18 1097.56,-172.02 1028.42,-154.58"/>
<polygon fill="midnightblue" stroke="midnightblue" points="1029.19,-151.17 1018.65,-152.17 1027.52,-157.96 1029.19,-151.17"/>
</g>
<!-- Node31&#45;&gt;Node18 -->
<g id="edge50" class="edge">
<title>Node31&#45;&gt;Node18</title>
<path fill="none" stroke="midnightblue" d="M651.86,-302.44C624.14,-293.61 579.92,-279.3 542,-266 492.01,-248.46 434.52,-226.66 399.75,-213.3"/>
<polygon fill="midnightblue" stroke="midnightblue" points="400.73,-209.93 390.14,-209.6 398.22,-216.46 400.73,-209.93"/>
</g>
<!-- Node32&#45;&gt;Node2 -->
<g id="edge53" class="edge">
<title>Node32&#45;&gt;Node2</title>
<path fill="none" stroke="midnightblue" d="M904.1,-246.26C904.41,-219.65 905.35,-139.21 905.78,-102.34"/>
<polygon fill="midnightblue" stroke="midnightblue" points="909.28,-102.06 905.9,-92.02 902.28,-101.98 909.28,-102.06"/>
</g>
<!-- Node32&#45;&gt;Node11 -->
<g id="edge54" class="edge">
<title>Node32&#45;&gt;Node11</title>
<path fill="none" stroke="midnightblue" d="M955.5,-246.44C1013.14,-236.87 1106.49,-221.36 1167.81,-211.17"/>
<polygon fill="midnightblue" stroke="midnightblue" points="1168.45,-214.61 1177.74,-209.52 1167.31,-207.7 1168.45,-214.61"/>
</g>
<!-- Node32&#45;&gt;Node19 -->
<g id="edge55" class="edge">
<title>Node32&#45;&gt;Node19</title>
<path fill="none" stroke="midnightblue" d="M899.67,-246.33C891.84,-231.71 873.81,-202.52 849,-190 836.03,-183.45 441.81,-160.38 260.11,-150.06"/>
<polygon fill="midnightblue" stroke="midnightblue" points="260.22,-146.56 250.04,-149.49 259.83,-153.55 260.22,-146.56"/>
</g>
<!-- Node33&#45;&gt;Node2 -->
<g id="edge61" class="edge">
<title>Node33&#45;&gt;Node2</title>
<path fill="none" stroke="midnightblue" d="M1517.06,-305.99C1574.32,-300.36 1647.33,-288.83 1666,-266 1707.57,-215.15 1760.27,-232.01 1586,-134 1533.62,-104.54 1136.57,-90.04 974.54,-85.31"/>
<polygon fill="midnightblue" stroke="midnightblue" points="974.31,-81.8 964.21,-85.01 974.1,-88.8 974.31,-81.8"/>
</g>
<!-- Node33&#45;&gt;Node11 -->
<g id="edge64" class="edge">
<title>Node33&#45;&gt;Node11</title>
<path fill="none" stroke="midnightblue" d="M1434.49,-302.34C1419.16,-288.76 1387.61,-262.32 1357,-246 1329.84,-231.52 1297.06,-220.1 1271.48,-212.39"/>
<polygon fill="midnightblue" stroke="midnightblue" points="1272.28,-208.97 1261.7,-209.51 1270.3,-215.69 1272.28,-208.97"/>
</g>
<!-- Node34 -->
<g id="node34" class="node">
<title>Node34</title>
<g id="a_node34"><a xlink:title=" ">
<polygon fill="white" stroke="#bfbfbf" points="1713,-246.5 1713,-265.5 1755,-265.5 1755,-246.5 1713,-246.5"/>
<text text-anchor="middle" x="1734" y="-253.5" font-family="Helvetica,sans-Serif" font-size="10.00">array</text>
</a>
</g>
</g>
<!-- Node33&#45;&gt;Node34 -->
<g id="edge62" class="edge">
<title>Node33&#45;&gt;Node34</title>
<path fill="none" stroke="midnightblue" d="M1499.45,-302.48C1551.27,-294.22 1630.68,-280.79 1699,-266 1700.28,-265.72 1701.58,-265.43 1702.89,-265.13"/>
<polygon fill="midnightblue" stroke="midnightblue" points="1704.07,-268.45 1712.96,-262.69 1702.42,-261.64 1704.07,-268.45"/>
</g>
<!-- Node35 -->
<g id="node35" class="node">
<title>Node35</title>
<g id="a_node35"><a xlink:title=" ">
<polygon fill="white" stroke="#bfbfbf" points="1409,-246.5 1409,-265.5 1465,-265.5 1465,-246.5 1409,-246.5"/>
<text text-anchor="middle" x="1437" y="-253.5" font-family="Helvetica,sans-Serif" font-size="10.00">optional</text>
</a>
</g>
</g>
<!-- Node33&#45;&gt;Node35 -->
<g id="edge63" class="edge">
<title>Node33&#45;&gt;Node35</title>
<path fill="none" stroke="midnightblue" d="M1442.84,-302.08C1441.92,-294.93 1440.58,-284.64 1439.42,-275.69"/>
<polygon fill="midnightblue" stroke="midnightblue" points="1442.89,-275.22 1438.13,-265.75 1435.95,-276.12 1442.89,-275.22"/>
</g>
<!-- Node36 -->
<g id="node36" class="node">
<title>Node36</title>
<g id="a_node36"><a xlink:href="socketbuffer_8h.html" target="_top" xlink:title=" ">
<polygon fill="white" stroke="black" points="1483.5,-246.5 1483.5,-265.5 1656.5,-265.5 1656.5,-246.5 1483.5,-246.5"/>
<text text-anchor="middle" x="1570" y="-253.5" font-family="Helvetica,sans-Serif" font-size="10.00">log4cplus/helpers/socketbuffer.h</text>
</a>
</g>
</g>
<!-- Node33&#45;&gt;Node36 -->
<g id="edge65" class="edge">
<title>Node33&#45;&gt;Node36</title>
<path fill="none" stroke="midnightblue" d="M1463.97,-302.44C1484.61,-293.6 1517.06,-279.69 1540.63,-269.59"/>
<polygon fill="midnightblue" stroke="midnightblue" points="1542.32,-272.67 1550.13,-265.52 1539.56,-266.24 1542.32,-272.67"/>
</g>
<!-- Node36&#45;&gt;Node2 -->
<g id="edge66" class="edge">
<title>Node36&#45;&gt;Node2</title>
<path fill="none" stroke="midnightblue" d="M1573.22,-246.23C1580.74,-224.04 1596.67,-165.23 1567,-134 1526.79,-91.67 1135.02,-84.72 974.28,-83.65"/>
<polygon fill="midnightblue" stroke="midnightblue" points="974.06,-80.15 964.04,-83.59 974.01,-87.15 974.06,-80.15"/>
</g>
<!-- Node36&#45;&gt;Node11 -->
<g id="edge67" class="edge">
<title>Node36&#45;&gt;Node11</title>
<path fill="none" stroke="midnightblue" d="M1515.97,-246.44C1455.36,-236.85 1357.14,-221.29 1292.8,-211.1"/>
<polygon fill="midnightblue" stroke="midnightblue" points="1293.2,-207.62 1282.78,-209.52 1292.11,-214.54 1293.2,-207.62"/>
</g>
<!-- Node37&#45;&gt;Node2 -->
<g id="edge69" class="edge">
<title>Node37&#45;&gt;Node2</title>
<path fill="none" stroke="midnightblue" d="M195.56,-358.39C182.22,-331.15 145.46,-245.41 181,-190 181.25,-189.61 302.55,-134.12 303,-134 402.27,-107.92 701.33,-92.23 837.34,-86.26"/>
<polygon fill="midnightblue" stroke="midnightblue" points="837.79,-89.75 847.63,-85.82 837.48,-82.75 837.79,-89.75"/>
</g>
<!-- Node37&#45;&gt;Node19 -->
<g id="edge70" class="edge">
<title>Node37&#45;&gt;Node19</title>
<path fill="none" stroke="midnightblue" d="M162.9,-358.46C143.56,-351.92 121.57,-340.72 110,-322 79.16,-272.1 83.76,-242.47 110,-190 116.73,-176.54 129.61,-166.07 141.71,-158.62"/>
<polygon fill="midnightblue" stroke="midnightblue" points="143.73,-161.5 150.7,-153.52 140.28,-155.41 143.73,-161.5"/>
</g>
<!-- Node37&#45;&gt;Node33 -->
<g id="edge77" class="edge">
<title>Node37&#45;&gt;Node33</title>
<path fill="none" stroke="midnightblue" d="M297.1,-362.79C533.93,-352.5 1138.11,-326.28 1360.33,-316.63"/>
<polygon fill="midnightblue" stroke="midnightblue" points="1360.78,-320.12 1370.62,-316.19 1360.48,-313.12 1360.78,-320.12"/>
</g>
<!-- Node38 -->
<g id="node38" class="node">
<title>Node38</title>
<g id="a_node38"><a xlink:href="threads_8h.html" target="_top" xlink:title=" ">
<polygon fill="white" stroke="black" points="202,-246.5 202,-265.5 348,-265.5 348,-246.5 202,-246.5"/>
<text text-anchor="middle" x="275" y="-253.5" font-family="Helvetica,sans-Serif" font-size="10.00">log4cplus/thread/threads.h</text>
</a>
</g>
</g>
<!-- Node37&#45;&gt;Node38 -->
<g id="edge71" class="edge">
<title>Node37&#45;&gt;Node38</title>
<path fill="none" stroke="midnightblue" d="M205.89,-358.37C218.26,-340.22 247.18,-297.8 263.42,-273.99"/>
<polygon fill="midnightblue" stroke="midnightblue" points="266.4,-275.83 269.14,-265.59 260.62,-271.88 266.4,-275.83"/>
</g>
<!-- Node38&#45;&gt;Node2 -->
<g id="edge72" class="edge">
<title>Node38&#45;&gt;Node2</title>
<path fill="none" stroke="midnightblue" d="M274.8,-246.13C274.85,-233.17 276.23,-208.59 285,-190 299.23,-159.82 305.18,-148.96 335,-134 421.39,-90.65 705.41,-84.01 837.42,-83.33"/>
<polygon fill="midnightblue" stroke="midnightblue" points="837.82,-86.83 847.8,-83.29 837.79,-79.83 837.82,-86.83"/>
</g>
<!-- Node38&#45;&gt;Node9 -->
<g id="edge73" class="edge">
<title>Node38&#45;&gt;Node9</title>
<path fill="none" stroke="midnightblue" d="M314.93,-246.44C362.38,-236.28 441.03,-219.42 488.05,-209.35"/>
<polygon fill="midnightblue" stroke="midnightblue" points="488.82,-212.76 497.86,-207.24 487.35,-205.92 488.82,-212.76"/>
</g>
<!-- Node38&#45;&gt;Node11 -->
<g id="edge75" class="edge">
<title>Node38&#45;&gt;Node11</title>
<path fill="none" stroke="midnightblue" d="M348.03,-251.85C494.65,-245.38 835.22,-229.5 1121,-210 1135.27,-209.03 1150.6,-207.84 1165.09,-206.65"/>
<polygon fill="midnightblue" stroke="midnightblue" points="1165.79,-210.1 1175.46,-205.78 1165.21,-203.12 1165.79,-210.1"/>
</g>
<!-- Node38&#45;&gt;Node18 -->
<g id="edge76" class="edge">
<title>Node38&#45;&gt;Node18</title>
<path fill="none" stroke="midnightblue" d="M289.94,-246.32C304.59,-237.82 327.13,-224.73 344.24,-214.8"/>
<polygon fill="midnightblue" stroke="midnightblue" points="346.2,-217.7 353.1,-209.65 342.69,-211.65 346.2,-217.7"/>
</g>
<!-- Node39 -->
<g id="node39" class="node">
<title>Node39</title>
<g id="a_node39"><a xlink:title=" ">
<polygon fill="white" stroke="#bfbfbf" points="190,-190.5 190,-209.5 238,-209.5 238,-190.5 190,-190.5"/>
<text text-anchor="middle" x="214" y="-197.5" font-family="Helvetica,sans-Serif" font-size="10.00">thread</text>
</a>
</g>
</g>
<!-- Node38&#45;&gt;Node39 -->
<g id="edge74" class="edge">
<title>Node38&#45;&gt;Node39</title>
<path fill="none" stroke="midnightblue" d="M265.2,-246.32C256.18,-238.34 242.59,-226.31 231.68,-216.65"/>
<polygon fill="midnightblue" stroke="midnightblue" points="233.79,-213.84 223.98,-209.83 229.15,-219.08 233.79,-213.84"/>
</g>
</g>
</svg>
