<?xml version="1.0" encoding="UTF-8" standalone="no"?>
<!DOCTYPE svg PUBLIC "-//W3C//DTD SVG 1.1//EN"
 "http://www.w3.org/Graphics/SVG/1.1/DTD/svg11.dtd">
<!-- Generated by graphviz version 2.43.0 (0)
 -->
<!-- Title: threads&#45;impl.h Pages: 1 -->
<svg width="1178pt" height="341pt"
 viewBox="0.00 0.00 1178.00 341.00" xmlns="http://www.w3.org/2000/svg" xmlns:xlink="http://www.w3.org/1999/xlink">
<g id="graph0" class="graph" transform="scale(1 1) rotate(0) translate(4 337)">
<title>threads&#45;impl.h</title>
<polygon fill="white" stroke="transparent" points="-4,4 -4,-337 1174,-337 1174,4 -4,4"/>
<!-- Node1 -->
<g id="node1" class="node">
<title>Node1</title>
<g id="a_node1"><a xlink:title=" ">
<polygon fill="#bfbfbf" stroke="black" points="635.5,-313.5 635.5,-332.5 723.5,-332.5 723.5,-313.5 635.5,-313.5"/>
<text text-anchor="middle" x="679.5" y="-320.5" font-family="Helvetica,sans-Serif" font-size="10.00">threads&#45;impl.h</text>
</a>
</g>
</g>
<!-- Node2 -->
<g id="node2" class="node">
<title>Node2</title>
<g id="a_node2"><a xlink:href="config_8hxx.html" target="_top" xlink:title=" ">
<polygon fill="white" stroke="black" points="555.5,-73 555.5,-92 671.5,-92 671.5,-73 555.5,-73"/>
<text text-anchor="middle" x="613.5" y="-80" font-family="Helvetica,sans-Serif" font-size="10.00">log4cplus/config.hxx</text>
</a>
</g>
</g>
<!-- Node1&#45;&gt;Node2 -->
<g id="edge1" class="edge">
<title>Node1&#45;&gt;Node2</title>
<path fill="none" stroke="midnightblue" d="M708.95,-313.37C764.32,-295.52 875.38,-251.04 840.5,-190 808.12,-133.33 735.82,-106.51 681.45,-94.02"/>
<polygon fill="midnightblue" stroke="midnightblue" points="682.04,-90.56 671.52,-91.84 680.55,-97.4 682.04,-90.56"/>
</g>
<!-- Node5 -->
<g id="node5" class="node">
<title>Node5</title>
<g id="a_node5"><a xlink:href="windowsh-inc_8h.html" target="_top" xlink:title=" ">
<polygon fill="white" stroke="black" points="913,-246.5 913,-276.5 1060,-276.5 1060,-246.5 913,-246.5"/>
<text text-anchor="start" x="921" y="-264.5" font-family="Helvetica,sans-Serif" font-size="10.00">log4cplus/config/windowsh</text>
<text text-anchor="middle" x="986.5" y="-253.5" font-family="Helvetica,sans-Serif" font-size="10.00">&#45;inc.h</text>
</a>
</g>
</g>
<!-- Node1&#45;&gt;Node5 -->
<g id="edge4" class="edge">
<title>Node1&#45;&gt;Node5</title>
<path fill="none" stroke="midnightblue" d="M723.49,-313.48C770.5,-304.36 846.13,-289.71 904.24,-278.44"/>
<polygon fill="midnightblue" stroke="midnightblue" points="904.99,-281.86 914.15,-276.52 903.66,-274.99 904.99,-281.86"/>
</g>
<!-- Node9 -->
<g id="node9" class="node">
<title>Node9</title>
<g id="a_node9"><a xlink:href="tstring_8h.html" target="_top" xlink:title=" ">
<polygon fill="white" stroke="black" points="268,-190.5 268,-209.5 375,-209.5 375,-190.5 268,-190.5"/>
<text text-anchor="middle" x="321.5" y="-197.5" font-family="Helvetica,sans-Serif" font-size="10.00">log4cplus/tstring.h</text>
</a>
</g>
</g>
<!-- Node1&#45;&gt;Node9 -->
<g id="edge8" class="edge">
<title>Node1&#45;&gt;Node9</title>
<path fill="none" stroke="midnightblue" d="M654.33,-313.49C591.7,-292.32 428.75,-237.25 356.67,-212.89"/>
<polygon fill="midnightblue" stroke="midnightblue" points="357.72,-209.55 347.13,-209.66 355.48,-216.18 357.72,-209.55"/>
</g>
<!-- Node16 -->
<g id="node16" class="node">
<title>Node16</title>
<g id="a_node16"><a xlink:href="pointer_8h.html" target="_top" xlink:title=" ">
<polygon fill="white" stroke="black" points="503.5,-190.5 503.5,-209.5 651.5,-209.5 651.5,-190.5 503.5,-190.5"/>
<text text-anchor="middle" x="577.5" y="-197.5" font-family="Helvetica,sans-Serif" font-size="10.00">log4cplus/helpers/pointer.h</text>
</a>
</g>
</g>
<!-- Node1&#45;&gt;Node16 -->
<g id="edge17" class="edge">
<title>Node1&#45;&gt;Node16</title>
<path fill="none" stroke="midnightblue" d="M652.09,-313.39C634.05,-306.36 611.29,-294.66 597.5,-277 584.67,-260.58 580.03,-236.69 578.38,-220.1"/>
<polygon fill="midnightblue" stroke="midnightblue" points="581.85,-219.68 577.64,-209.96 574.87,-220.19 581.85,-219.68"/>
</g>
<!-- Node24 -->
<g id="node24" class="node">
<title>Node24</title>
<g id="a_node24"><a xlink:href="threads_8h.html" target="_top" xlink:title=" ">
<polygon fill="white" stroke="black" points="606.5,-252 606.5,-271 752.5,-271 752.5,-252 606.5,-252"/>
<text text-anchor="middle" x="679.5" y="-259" font-family="Helvetica,sans-Serif" font-size="10.00">log4cplus/thread/threads.h</text>
</a>
</g>
</g>
<!-- Node1&#45;&gt;Node24 -->
<g id="edge27" class="edge">
<title>Node1&#45;&gt;Node24</title>
<path fill="none" stroke="midnightblue" d="M679.5,-313.48C679.5,-305.08 679.5,-291.98 679.5,-281.16"/>
<polygon fill="midnightblue" stroke="midnightblue" points="683,-281.01 679.5,-271.01 676,-281.01 683,-281.01"/>
</g>
<!-- Node3 -->
<g id="node3" class="node">
<title>Node3</title>
<g id="a_node3"><a xlink:href="win32_8h.html" target="_top" xlink:title=" ">
<polygon fill="white" stroke="black" points="468,-6 468,-25 605,-25 605,-6 468,-6"/>
<text text-anchor="middle" x="536.5" y="-13" font-family="Helvetica,sans-Serif" font-size="10.00">log4cplus/config/win32.h</text>
</a>
</g>
</g>
<!-- Node2&#45;&gt;Node3 -->
<g id="edge2" class="edge">
<title>Node2&#45;&gt;Node3</title>
<path fill="none" stroke="midnightblue" d="M603.12,-72.73C590.65,-62.21 569.53,-44.38 554.41,-31.62"/>
<polygon fill="midnightblue" stroke="midnightblue" points="556.62,-28.9 546.72,-25.13 552.1,-34.25 556.62,-28.9"/>
</g>
<!-- Node4 -->
<g id="node4" class="node">
<title>Node4</title>
<g id="a_node4"><a xlink:href="thread-config_8h.html" target="_top" xlink:title=" ">
<polygon fill="white" stroke="black" points="623,-0.5 623,-30.5 760,-30.5 760,-0.5 623,-0.5"/>
<text text-anchor="start" x="631" y="-18.5" font-family="Helvetica,sans-Serif" font-size="10.00">log4cplus/helpers/thread</text>
<text text-anchor="middle" x="691.5" y="-7.5" font-family="Helvetica,sans-Serif" font-size="10.00">&#45;config.h</text>
</a>
</g>
</g>
<!-- Node2&#45;&gt;Node4 -->
<g id="edge3" class="edge">
<title>Node2&#45;&gt;Node4</title>
<path fill="none" stroke="midnightblue" d="M624.02,-72.73C634.86,-63.7 652.17,-49.27 666.54,-37.3"/>
<polygon fill="midnightblue" stroke="midnightblue" points="669.15,-39.68 674.59,-30.59 664.67,-34.3 669.15,-39.68"/>
</g>
<!-- Node6 -->
<g id="node6" class="node">
<title>Node6</title>
<g id="a_node6"><a xlink:title=" ">
<polygon fill="white" stroke="#bfbfbf" points="888,-190.5 888,-209.5 959,-209.5 959,-190.5 888,-190.5"/>
<text text-anchor="middle" x="923.5" y="-197.5" font-family="Helvetica,sans-Serif" font-size="10.00">winsock2.h</text>
</a>
</g>
</g>
<!-- Node5&#45;&gt;Node6 -->
<g id="edge5" class="edge">
<title>Node5&#45;&gt;Node6</title>
<path fill="none" stroke="midnightblue" d="M971.57,-246.4C962.13,-237.49 949.92,-225.95 940.17,-216.74"/>
<polygon fill="midnightblue" stroke="midnightblue" points="942.34,-213.98 932.67,-209.66 937.53,-219.07 942.34,-213.98"/>
</g>
<!-- Node7 -->
<g id="node7" class="node">
<title>Node7</title>
<g id="a_node7"><a xlink:title=" ">
<polygon fill="white" stroke="#bfbfbf" points="977,-190.5 977,-209.5 1046,-209.5 1046,-190.5 977,-190.5"/>
<text text-anchor="middle" x="1011.5" y="-197.5" font-family="Helvetica,sans-Serif" font-size="10.00">ws2tcpip.h</text>
</a>
</g>
</g>
<!-- Node5&#45;&gt;Node7 -->
<g id="edge6" class="edge">
<title>Node5&#45;&gt;Node7</title>
<path fill="none" stroke="midnightblue" d="M992.42,-246.4C995.87,-238.2 1000.25,-227.78 1003.94,-218.99"/>
<polygon fill="midnightblue" stroke="midnightblue" points="1007.22,-220.23 1007.86,-209.66 1000.76,-217.52 1007.22,-220.23"/>
</g>
<!-- Node8 -->
<g id="node8" class="node">
<title>Node8</title>
<g id="a_node8"><a xlink:title=" ">
<polygon fill="white" stroke="#bfbfbf" points="1064.5,-190.5 1064.5,-209.5 1132.5,-209.5 1132.5,-190.5 1064.5,-190.5"/>
<text text-anchor="middle" x="1098.5" y="-197.5" font-family="Helvetica,sans-Serif" font-size="10.00">windows.h</text>
</a>
</g>
</g>
<!-- Node5&#45;&gt;Node8 -->
<g id="edge7" class="edge">
<title>Node5&#45;&gt;Node8</title>
<path fill="none" stroke="midnightblue" d="M1013.04,-246.4C1031.16,-236.77 1055.04,-224.09 1072.94,-214.58"/>
<polygon fill="midnightblue" stroke="midnightblue" points="1075.01,-217.44 1082.2,-209.66 1071.73,-211.26 1075.01,-217.44"/>
</g>
<!-- Node9&#45;&gt;Node2 -->
<g id="edge9" class="edge">
<title>Node9&#45;&gt;Node2</title>
<path fill="none" stroke="midnightblue" d="M343.45,-190.32C394.73,-170.03 522.55,-119.47 582.08,-95.93"/>
<polygon fill="midnightblue" stroke="midnightblue" points="583.68,-99.06 591.7,-92.12 581.11,-92.55 583.68,-99.06"/>
</g>
<!-- Node10 -->
<g id="node10" class="node">
<title>Node10</title>
<g id="a_node10"><a xlink:title=" ">
<polygon fill="white" stroke="#bfbfbf" points="0,-134.5 0,-153.5 69,-153.5 69,-134.5 0,-134.5"/>
<text text-anchor="middle" x="34.5" y="-141.5" font-family="Helvetica,sans-Serif" font-size="10.00">type_traits</text>
</a>
</g>
</g>
<!-- Node9&#45;&gt;Node10 -->
<g id="edge10" class="edge">
<title>Node9&#45;&gt;Node10</title>
<path fill="none" stroke="midnightblue" d="M273.29,-190.46C226.14,-182.03 152.04,-168.57 79.04,-154.27"/>
<polygon fill="midnightblue" stroke="midnightblue" points="79.71,-150.84 69.22,-152.34 78.36,-157.7 79.71,-150.84"/>
</g>
<!-- Node11 -->
<g id="node11" class="node">
<title>Node11</title>
<g id="a_node11"><a xlink:title=" ">
<polygon fill="white" stroke="#bfbfbf" points="87,-134.5 87,-153.5 152,-153.5 152,-134.5 87,-134.5"/>
<text text-anchor="middle" x="119.5" y="-141.5" font-family="Helvetica,sans-Serif" font-size="10.00">functional</text>
</a>
</g>
</g>
<!-- Node9&#45;&gt;Node11 -->
<g id="edge11" class="edge">
<title>Node9&#45;&gt;Node11</title>
<path fill="none" stroke="midnightblue" d="M289.49,-190.44C254.77,-181.16 199.21,-166.31 161.12,-156.13"/>
<polygon fill="midnightblue" stroke="midnightblue" points="161.92,-152.72 151.36,-153.52 160.11,-159.48 161.92,-152.72"/>
</g>
<!-- Node12 -->
<g id="node12" class="node">
<title>Node12</title>
<g id="a_node12"><a xlink:title=" ">
<polygon fill="white" stroke="#bfbfbf" points="170.5,-134.5 170.5,-153.5 214.5,-153.5 214.5,-134.5 170.5,-134.5"/>
<text text-anchor="middle" x="192.5" y="-141.5" font-family="Helvetica,sans-Serif" font-size="10.00">string</text>
</a>
</g>
</g>
<!-- Node9&#45;&gt;Node12 -->
<g id="edge12" class="edge">
<title>Node9&#45;&gt;Node12</title>
<path fill="none" stroke="midnightblue" d="M301.06,-190.44C279.83,-181.56 246.4,-167.56 222.25,-157.45"/>
<polygon fill="midnightblue" stroke="midnightblue" points="223.42,-154.15 212.84,-153.52 220.72,-160.61 223.42,-154.15"/>
</g>
<!-- Node13 -->
<g id="node13" class="node">
<title>Node13</title>
<g id="a_node13"><a xlink:title=" ">
<polygon fill="white" stroke="#bfbfbf" points="233,-134.5 233,-153.5 306,-153.5 306,-134.5 233,-134.5"/>
<text text-anchor="middle" x="269.5" y="-141.5" font-family="Helvetica,sans-Serif" font-size="10.00">string_view</text>
</a>
</g>
</g>
<!-- Node9&#45;&gt;Node13 -->
<g id="edge13" class="edge">
<title>Node9&#45;&gt;Node13</title>
<path fill="none" stroke="midnightblue" d="M312.91,-190.08C305.34,-182.22 294.12,-170.57 284.99,-161.08"/>
<polygon fill="midnightblue" stroke="midnightblue" points="287.38,-158.53 277.93,-153.75 282.34,-163.38 287.38,-158.53"/>
</g>
<!-- Node14 -->
<g id="node14" class="node">
<title>Node14</title>
<g id="a_node14"><a xlink:href="tchar_8h.html" target="_top" xlink:title=" ">
<polygon fill="white" stroke="black" points="324,-134.5 324,-153.5 423,-153.5 423,-134.5 324,-134.5"/>
<text text-anchor="middle" x="373.5" y="-141.5" font-family="Helvetica,sans-Serif" font-size="10.00">log4cplus/tchar.h</text>
</a>
</g>
</g>
<!-- Node9&#45;&gt;Node14 -->
<g id="edge14" class="edge">
<title>Node9&#45;&gt;Node14</title>
<path fill="none" stroke="midnightblue" d="M330.09,-190.08C337.66,-182.22 348.88,-170.57 358.01,-161.08"/>
<polygon fill="midnightblue" stroke="midnightblue" points="360.66,-163.38 365.07,-153.75 355.62,-158.53 360.66,-163.38"/>
</g>
<!-- Node14&#45;&gt;Node2 -->
<g id="edge15" class="edge">
<title>Node14&#45;&gt;Node2</title>
<path fill="none" stroke="midnightblue" d="M407.89,-134.48C450.39,-123.94 522.8,-105.99 569.37,-94.44"/>
<polygon fill="midnightblue" stroke="midnightblue" points="570.31,-97.81 579.18,-92.01 568.63,-91.02 570.31,-97.81"/>
</g>
<!-- Node15 -->
<g id="node15" class="node">
<title>Node15</title>
<g id="a_node15"><a xlink:title=" ">
<polygon fill="white" stroke="#bfbfbf" points="347,-73 347,-92 400,-92 400,-73 347,-73"/>
<text text-anchor="middle" x="373.5" y="-80" font-family="Helvetica,sans-Serif" font-size="10.00">cstddef</text>
</a>
</g>
</g>
<!-- Node14&#45;&gt;Node15 -->
<g id="edge16" class="edge">
<title>Node14&#45;&gt;Node15</title>
<path fill="none" stroke="midnightblue" d="M373.5,-134.48C373.5,-126.08 373.5,-112.98 373.5,-102.16"/>
<polygon fill="midnightblue" stroke="midnightblue" points="377,-102.01 373.5,-92.01 370,-102.01 377,-102.01"/>
</g>
<!-- Node16&#45;&gt;Node2 -->
<g id="edge18" class="edge">
<title>Node16&#45;&gt;Node2</title>
<path fill="none" stroke="midnightblue" d="M555.22,-190.34C529.76,-179.07 493.43,-157.96 508.5,-134 520.54,-114.86 542.08,-102.8 562.54,-95.3"/>
<polygon fill="midnightblue" stroke="midnightblue" points="563.78,-98.57 572.14,-92.06 561.54,-91.94 563.78,-98.57"/>
</g>
<!-- Node17 -->
<g id="node17" class="node">
<title>Node17</title>
<g id="a_node17"><a xlink:href="syncprims_8h.html" target="_top" xlink:title=" ">
<polygon fill="white" stroke="black" points="887.5,-134.5 887.5,-153.5 1047.5,-153.5 1047.5,-134.5 887.5,-134.5"/>
<text text-anchor="middle" x="967.5" y="-141.5" font-family="Helvetica,sans-Serif" font-size="10.00">log4cplus/thread/syncprims.h</text>
</a>
</g>
</g>
<!-- Node16&#45;&gt;Node17 -->
<g id="edge19" class="edge">
<title>Node16&#45;&gt;Node17</title>
<path fill="none" stroke="midnightblue" d="M639.3,-190.44C709.04,-180.79 822.34,-165.1 895.89,-154.92"/>
<polygon fill="midnightblue" stroke="midnightblue" points="896.57,-158.35 905.99,-153.52 895.61,-151.42 896.57,-158.35"/>
</g>
<!-- Node21 -->
<g id="node21" class="node">
<title>Node21</title>
<g id="a_node21"><a xlink:title=" ">
<polygon fill="white" stroke="#bfbfbf" points="655.5,-134.5 655.5,-153.5 719.5,-153.5 719.5,-134.5 655.5,-134.5"/>
<text text-anchor="middle" x="687.5" y="-141.5" font-family="Helvetica,sans-Serif" font-size="10.00">algorithm</text>
</a>
</g>
</g>
<!-- Node16&#45;&gt;Node21 -->
<g id="edge24" class="edge">
<title>Node16&#45;&gt;Node21</title>
<path fill="none" stroke="midnightblue" d="M595.17,-190.32C612.89,-181.62 640.4,-168.12 660.79,-158.11"/>
<polygon fill="midnightblue" stroke="midnightblue" points="662.44,-161.2 669.87,-153.65 659.35,-154.92 662.44,-161.2"/>
</g>
<!-- Node22 -->
<g id="node22" class="node">
<title>Node22</title>
<g id="a_node22"><a xlink:title=" ">
<polygon fill="white" stroke="#bfbfbf" points="517.5,-134.5 517.5,-153.5 569.5,-153.5 569.5,-134.5 517.5,-134.5"/>
<text text-anchor="middle" x="543.5" y="-141.5" font-family="Helvetica,sans-Serif" font-size="10.00">cassert</text>
</a>
</g>
</g>
<!-- Node16&#45;&gt;Node22 -->
<g id="edge25" class="edge">
<title>Node16&#45;&gt;Node22</title>
<path fill="none" stroke="midnightblue" d="M571.89,-190.08C567.13,-182.53 560.18,-171.49 554.35,-162.23"/>
<polygon fill="midnightblue" stroke="midnightblue" points="557.3,-160.35 549.01,-153.75 551.38,-164.08 557.3,-160.35"/>
</g>
<!-- Node23 -->
<g id="node23" class="node">
<title>Node23</title>
<g id="a_node23"><a xlink:title=" ">
<polygon fill="white" stroke="#bfbfbf" points="587.5,-134.5 587.5,-153.5 637.5,-153.5 637.5,-134.5 587.5,-134.5"/>
<text text-anchor="middle" x="612.5" y="-141.5" font-family="Helvetica,sans-Serif" font-size="10.00">atomic</text>
</a>
</g>
</g>
<!-- Node16&#45;&gt;Node23 -->
<g id="edge26" class="edge">
<title>Node16&#45;&gt;Node23</title>
<path fill="none" stroke="midnightblue" d="M583.28,-190.08C588.17,-182.53 595.33,-171.49 601.33,-162.23"/>
<polygon fill="midnightblue" stroke="midnightblue" points="604.33,-164.05 606.83,-153.75 598.45,-160.24 604.33,-164.05"/>
</g>
<!-- Node17&#45;&gt;Node2 -->
<g id="edge20" class="edge">
<title>Node17&#45;&gt;Node2</title>
<path fill="none" stroke="midnightblue" d="M916.78,-134.48C852.77,-123.72 742.79,-105.23 674.33,-93.72"/>
<polygon fill="midnightblue" stroke="midnightblue" points="674.57,-90.22 664.13,-92.01 673.41,-97.12 674.57,-90.22"/>
</g>
<!-- Node18 -->
<g id="node18" class="node">
<title>Node18</title>
<g id="a_node18"><a xlink:title=" ">
<polygon fill="white" stroke="#bfbfbf" points="847.5,-73 847.5,-92 895.5,-92 895.5,-73 847.5,-73"/>
<text text-anchor="middle" x="871.5" y="-80" font-family="Helvetica,sans-Serif" font-size="10.00">mutex</text>
</a>
</g>
</g>
<!-- Node17&#45;&gt;Node18 -->
<g id="edge21" class="edge">
<title>Node17&#45;&gt;Node18</title>
<path fill="none" stroke="midnightblue" d="M953.75,-134.48C938.13,-124.8 912.44,-108.87 893.92,-97.39"/>
<polygon fill="midnightblue" stroke="midnightblue" points="895.57,-94.3 885.23,-92.01 891.88,-100.25 895.57,-94.3"/>
</g>
<!-- Node19 -->
<g id="node19" class="node">
<title>Node19</title>
<g id="a_node19"><a xlink:title=" ">
<polygon fill="white" stroke="#bfbfbf" points="914,-73 914,-92 1021,-92 1021,-73 914,-73"/>
<text text-anchor="middle" x="967.5" y="-80" font-family="Helvetica,sans-Serif" font-size="10.00">condition_variable</text>
</a>
</g>
</g>
<!-- Node17&#45;&gt;Node19 -->
<g id="edge22" class="edge">
<title>Node17&#45;&gt;Node19</title>
<path fill="none" stroke="midnightblue" d="M967.5,-134.48C967.5,-126.08 967.5,-112.98 967.5,-102.16"/>
<polygon fill="midnightblue" stroke="midnightblue" points="971,-102.01 967.5,-92.01 964,-102.01 971,-102.01"/>
</g>
<!-- Node20 -->
<g id="node20" class="node">
<title>Node20</title>
<g id="a_node20"><a xlink:href="threadsafetyanalysis_8h.html" target="_top" xlink:title=" ">
<polygon fill="white" stroke="black" points="1039,-67.5 1039,-97.5 1170,-97.5 1170,-67.5 1039,-67.5"/>
<text text-anchor="start" x="1047" y="-85.5" font-family="Helvetica,sans-Serif" font-size="10.00">log4cplus/internal</text>
<text text-anchor="middle" x="1104.5" y="-74.5" font-family="Helvetica,sans-Serif" font-size="10.00">/threadsafetyanalysis.h</text>
</a>
</g>
</g>
<!-- Node17&#45;&gt;Node20 -->
<g id="edge23" class="edge">
<title>Node17&#45;&gt;Node20</title>
<path fill="none" stroke="midnightblue" d="M987.13,-134.48C1006.81,-125.93 1037.72,-112.5 1062.89,-101.57"/>
<polygon fill="midnightblue" stroke="midnightblue" points="1064.43,-104.72 1072.21,-97.52 1061.65,-98.3 1064.43,-104.72"/>
</g>
<!-- Node24&#45;&gt;Node2 -->
<g id="edge28" class="edge">
<title>Node24&#45;&gt;Node2</title>
<path fill="none" stroke="midnightblue" d="M680.61,-251.82C682.64,-238.06 687.75,-210.7 698.5,-190 711.51,-164.94 743.94,-157.64 728.5,-134 715.78,-114.53 693.7,-102.51 672.26,-95.12"/>
<polygon fill="midnightblue" stroke="midnightblue" points="673.08,-91.71 662.49,-92.04 670.98,-98.39 673.08,-91.71"/>
</g>
<!-- Node24&#45;&gt;Node9 -->
<g id="edge31" class="edge">
<title>Node24&#45;&gt;Node9</title>
<path fill="none" stroke="midnightblue" d="M628.21,-251.98C563.34,-241.19 451.79,-222.65 382.59,-211.15"/>
<polygon fill="midnightblue" stroke="midnightblue" points="383.14,-207.7 372.7,-209.51 381.99,-214.6 383.14,-207.7"/>
</g>
<!-- Node24&#45;&gt;Node16 -->
<g id="edge32" class="edge">
<title>Node24&#45;&gt;Node16</title>
<path fill="none" stroke="midnightblue" d="M664.89,-251.98C648.15,-242.21 620.5,-226.08 600.78,-214.58"/>
<polygon fill="midnightblue" stroke="midnightblue" points="602.49,-211.52 592.09,-209.51 598.96,-217.57 602.49,-211.52"/>
</g>
<!-- Node25 -->
<g id="node25" class="node">
<title>Node25</title>
<g id="a_node25"><a xlink:title=" ">
<polygon fill="white" stroke="#bfbfbf" points="707.5,-190.5 707.5,-209.5 765.5,-209.5 765.5,-190.5 707.5,-190.5"/>
<text text-anchor="middle" x="736.5" y="-197.5" font-family="Helvetica,sans-Serif" font-size="10.00">memory</text>
</a>
</g>
</g>
<!-- Node24&#45;&gt;Node25 -->
<g id="edge29" class="edge">
<title>Node24&#45;&gt;Node25</title>
<path fill="none" stroke="midnightblue" d="M687.67,-251.98C696.39,-242.87 710.4,-228.24 721.19,-216.98"/>
<polygon fill="midnightblue" stroke="midnightblue" points="723.96,-219.15 728.35,-209.51 718.9,-214.31 723.96,-219.15"/>
</g>
<!-- Node26 -->
<g id="node26" class="node">
<title>Node26</title>
<g id="a_node26"><a xlink:title=" ">
<polygon fill="white" stroke="#bfbfbf" points="783.5,-190.5 783.5,-209.5 831.5,-209.5 831.5,-190.5 783.5,-190.5"/>
<text text-anchor="middle" x="807.5" y="-197.5" font-family="Helvetica,sans-Serif" font-size="10.00">thread</text>
</a>
</g>
</g>
<!-- Node24&#45;&gt;Node26 -->
<g id="edge30" class="edge">
<title>Node24&#45;&gt;Node26</title>
<path fill="none" stroke="midnightblue" d="M697.84,-251.98C719.32,-241.99 755.12,-225.35 779.95,-213.81"/>
<polygon fill="midnightblue" stroke="midnightblue" points="781.6,-216.9 789.19,-209.51 778.65,-210.55 781.6,-216.9"/>
</g>
</g>
</svg>
