<?xml version="1.0" encoding="UTF-8" standalone="no"?>
<!DOCTYPE svg PUBLIC "-//W3C//DTD SVG 1.1//EN"
 "http://www.w3.org/Graphics/SVG/1.1/DTD/svg11.dtd">
<!-- Generated by graphviz version 2.43.0 (0)
 -->
<!-- Title: threads.h Pages: 1 -->
<svg width="500pt" height="252pt"
 viewBox="0.00 0.00 499.50 252.00" xmlns="http://www.w3.org/2000/svg" xmlns:xlink="http://www.w3.org/1999/xlink">
<g id="graph0" class="graph" transform="scale(1 1) rotate(0) translate(4 248)">
<title>threads.h</title>
<polygon fill="white" stroke="transparent" points="-4,4 -4,-248 495.5,-248 495.5,4 -4,4"/>
<!-- Node1 -->
<g id="node1" class="node">
<title>Node1</title>
<g id="a_node1"><a xlink:title=" ">
<polygon fill="#bfbfbf" stroke="black" points="196,-224.5 196,-243.5 258,-243.5 258,-224.5 196,-224.5"/>
<text text-anchor="middle" x="227" y="-231.5" font-family="Helvetica,sans-Serif" font-size="10.00">threads.h</text>
</a>
</g>
</g>
<!-- Node2 -->
<g id="node2" class="node">
<title>Node2</title>
<g id="a_node2"><a xlink:href="asyncappender_8h.html" target="_top" xlink:title=" ">
<polygon fill="white" stroke="black" points="158.5,-56.5 158.5,-75.5 257.5,-75.5 257.5,-56.5 158.5,-56.5"/>
<text text-anchor="middle" x="208" y="-63.5" font-family="Helvetica,sans-Serif" font-size="10.00">asyncappender.h</text>
</a>
</g>
</g>
<!-- Node1&#45;&gt;Node2 -->
<g id="edge1" class="edge">
<title>Node1&#45;&gt;Node2</title>
<path fill="none" stroke="midnightblue" d="M224.82,-213.93C220.7,-177.92 211.92,-101.23 208.98,-75.57"/>
<polygon fill="midnightblue" stroke="midnightblue" points="221.36,-214.54 225.98,-224.08 228.32,-213.74 221.36,-214.54"/>
</g>
<!-- Node4 -->
<g id="node4" class="node">
<title>Node4</title>
<g id="a_node4"><a xlink:href="connectorthread_8h.html" target="_top" xlink:title=" ">
<polygon fill="white" stroke="black" points="36.5,-168.5 36.5,-187.5 141.5,-187.5 141.5,-168.5 36.5,-168.5"/>
<text text-anchor="middle" x="89" y="-175.5" font-family="Helvetica,sans-Serif" font-size="10.00">connectorthread.h</text>
</a>
</g>
</g>
<!-- Node1&#45;&gt;Node4 -->
<g id="edge3" class="edge">
<title>Node1&#45;&gt;Node4</title>
<path fill="none" stroke="midnightblue" d="M195.75,-220.77C169.83,-210.63 133.64,-196.47 110.76,-187.52"/>
<polygon fill="midnightblue" stroke="midnightblue" points="194.55,-224.06 205.13,-224.44 197.1,-217.54 194.55,-224.06"/>
</g>
<!-- Node5 -->
<g id="node5" class="node">
<title>Node5</title>
<g id="a_node5"><a xlink:href="socketappender_8h.html" target="_top" xlink:title=" ">
<polygon fill="white" stroke="black" points="78,-112.5 78,-131.5 180,-131.5 180,-112.5 78,-112.5"/>
<text text-anchor="middle" x="129" y="-119.5" font-family="Helvetica,sans-Serif" font-size="10.00">socketappender.h</text>
</a>
</g>
</g>
<!-- Node1&#45;&gt;Node5 -->
<g id="edge15" class="edge">
<title>Node1&#45;&gt;Node5</title>
<path fill="none" stroke="midnightblue" d="M212.65,-216.9C191.59,-193.25 153.01,-149.95 136.65,-131.59"/>
<polygon fill="midnightblue" stroke="midnightblue" points="210.04,-219.23 219.31,-224.37 215.27,-214.57 210.04,-219.23"/>
</g>
<!-- Node7 -->
<g id="node7" class="node">
<title>Node7</title>
<g id="a_node7"><a xlink:href="loggingevent_8h.html" target="_top" xlink:title=" ">
<polygon fill="white" stroke="black" points="274.5,-168.5 274.5,-187.5 363.5,-187.5 363.5,-168.5 274.5,-168.5"/>
<text text-anchor="middle" x="319" y="-175.5" font-family="Helvetica,sans-Serif" font-size="10.00">loggingevent.h</text>
</a>
</g>
</g>
<!-- Node1&#45;&gt;Node7 -->
<g id="edge8" class="edge">
<title>Node1&#45;&gt;Node7</title>
<path fill="none" stroke="midnightblue" d="M250.55,-219.18C267.48,-209.24 289.78,-196.15 304.26,-187.65"/>
<polygon fill="midnightblue" stroke="midnightblue" points="248.63,-216.24 241.78,-224.32 252.18,-222.28 248.63,-216.24"/>
</g>
<!-- Node10 -->
<g id="node10" class="node">
<title>Node10</title>
<g id="a_node10"><a xlink:href="queue_8h.html" target="_top" xlink:title=" ">
<polygon fill="white" stroke="black" points="236,-112.5 236,-131.5 292,-131.5 292,-112.5 236,-112.5"/>
<text text-anchor="middle" x="264" y="-119.5" font-family="Helvetica,sans-Serif" font-size="10.00">queue.h</text>
</a>
</g>
</g>
<!-- Node1&#45;&gt;Node10 -->
<g id="edge14" class="edge">
<title>Node1&#45;&gt;Node10</title>
<path fill="none" stroke="midnightblue" d="M233.16,-214.67C241.25,-190.62 255.12,-149.39 261.11,-131.59"/>
<polygon fill="midnightblue" stroke="midnightblue" points="229.77,-213.77 229.9,-224.37 236.41,-216.01 229.77,-213.77"/>
</g>
<!-- Node11 -->
<g id="node11" class="node">
<title>Node11</title>
<g id="a_node11"><a xlink:href="threads-impl_8h.html" target="_top" xlink:title=" ">
<polygon fill="white" stroke="black" points="381,-168.5 381,-187.5 469,-187.5 469,-168.5 381,-168.5"/>
<text text-anchor="middle" x="425" y="-175.5" font-family="Helvetica,sans-Serif" font-size="10.00">threads&#45;impl.h</text>
</a>
</g>
</g>
<!-- Node1&#45;&gt;Node11 -->
<g id="edge16" class="edge">
<title>Node1&#45;&gt;Node11</title>
<path fill="none" stroke="midnightblue" d="M268.44,-221.7C305.81,-211.51 359.94,-196.74 393.77,-187.52"/>
<polygon fill="midnightblue" stroke="midnightblue" points="267.1,-218.44 258.37,-224.44 268.94,-225.19 267.1,-218.44"/>
</g>
<!-- Node3 -->
<g id="node3" class="node">
<title>Node3</title>
<g id="a_node3"><a xlink:href="log4cplus_8h.html" target="_top" xlink:title=" ">
<polygon fill="white" stroke="black" points="133,-0.5 133,-19.5 205,-19.5 205,-0.5 133,-0.5"/>
<text text-anchor="middle" x="169" y="-7.5" font-family="Helvetica,sans-Serif" font-size="10.00">log4cplus.h</text>
</a>
</g>
</g>
<!-- Node2&#45;&gt;Node3 -->
<g id="edge2" class="edge">
<title>Node2&#45;&gt;Node3</title>
<path fill="none" stroke="midnightblue" d="M195.62,-47.86C188.86,-38.5 180.79,-27.33 175.32,-19.75"/>
<polygon fill="midnightblue" stroke="midnightblue" points="192.87,-50.03 201.56,-56.08 198.54,-45.93 192.87,-50.03"/>
</g>
<!-- Node4&#45;&gt;Node5 -->
<g id="edge4" class="edge">
<title>Node4&#45;&gt;Node5</title>
<path fill="none" stroke="midnightblue" d="M101.7,-159.86C108.63,-150.5 116.91,-139.33 122.52,-131.75"/>
<polygon fill="midnightblue" stroke="midnightblue" points="98.75,-157.96 95.61,-168.08 104.37,-162.13 98.75,-157.96"/>
</g>
<!-- Node6 -->
<g id="node6" class="node">
<title>Node6</title>
<g id="a_node6"><a xlink:href="syslogappender_8h.html" target="_top" xlink:title=" ">
<polygon fill="white" stroke="black" points="0,-56.5 0,-75.5 102,-75.5 102,-56.5 0,-56.5"/>
<text text-anchor="middle" x="51" y="-63.5" font-family="Helvetica,sans-Serif" font-size="10.00">syslogappender.h</text>
</a>
</g>
</g>
<!-- Node4&#45;&gt;Node6 -->
<g id="edge6" class="edge">
<title>Node4&#45;&gt;Node6</title>
<path fill="none" stroke="midnightblue" d="M80.25,-158.97C76.5,-150.84 72.25,-141.05 69,-132 61.89,-112.16 55.88,-88.08 52.94,-75.54"/>
<polygon fill="midnightblue" stroke="midnightblue" points="77.18,-160.65 84.62,-168.19 83.5,-157.66 77.18,-160.65"/>
</g>
<!-- Node5&#45;&gt;Node3 -->
<g id="edge5" class="edge">
<title>Node5&#45;&gt;Node3</title>
<path fill="none" stroke="midnightblue" d="M133.98,-102.77C137.72,-89.63 143.18,-71.55 149,-56 153.8,-43.19 160.41,-28.81 164.7,-19.83"/>
<polygon fill="midnightblue" stroke="midnightblue" points="130.58,-101.9 131.27,-112.48 137.33,-103.78 130.58,-101.9"/>
</g>
<!-- Node6&#45;&gt;Node3 -->
<g id="edge7" class="edge">
<title>Node6&#45;&gt;Node3</title>
<path fill="none" stroke="midnightblue" d="M78.9,-52.23C100.97,-42.13 131.18,-28.31 150.39,-19.52"/>
<polygon fill="midnightblue" stroke="midnightblue" points="77.33,-49.1 69.7,-56.44 80.25,-55.46 77.33,-49.1"/>
</g>
<!-- Node7&#45;&gt;Node3 -->
<g id="edge11" class="edge">
<title>Node7&#45;&gt;Node3</title>
<path fill="none" stroke="midnightblue" d="M316.04,-158.3C310.86,-131.74 297.62,-83.28 267,-56 247.43,-38.56 219.96,-26.74 199.08,-19.61"/>
<polygon fill="midnightblue" stroke="midnightblue" points="312.61,-158.98 317.8,-168.22 319.5,-157.76 312.61,-158.98"/>
</g>
<!-- Node8 -->
<g id="node8" class="node">
<title>Node8</title>
<g id="a_node8"><a xlink:href="internal_8h.html" target="_top" xlink:title="This header contains declaration internal to log4cplus.">
<polygon fill="white" stroke="black" points="368.5,-112.5 368.5,-131.5 431.5,-131.5 431.5,-112.5 368.5,-112.5"/>
<text text-anchor="middle" x="400" y="-119.5" font-family="Helvetica,sans-Serif" font-size="10.00">internal.h</text>
</a>
</g>
</g>
<!-- Node7&#45;&gt;Node8 -->
<g id="edge9" class="edge">
<title>Node7&#45;&gt;Node8</title>
<path fill="none" stroke="midnightblue" d="M340.57,-162.62C355.36,-152.76 374.51,-139.99 387.02,-131.65"/>
<polygon fill="midnightblue" stroke="midnightblue" points="338.39,-159.86 332.01,-168.32 342.28,-165.69 338.39,-159.86"/>
</g>
<!-- Node7&#45;&gt;Node10 -->
<g id="edge12" class="edge">
<title>Node7&#45;&gt;Node10</title>
<path fill="none" stroke="midnightblue" d="M302.71,-161C292.96,-151.43 280.95,-139.64 272.91,-131.75"/>
<polygon fill="midnightblue" stroke="midnightblue" points="300.33,-163.57 309.92,-168.08 305.23,-158.58 300.33,-163.57"/>
</g>
<!-- Node9 -->
<g id="node9" class="node">
<title>Node9</title>
<g id="a_node9"><a xlink:href="customloglevelmanager_8h.html" target="_top" xlink:title="This header contains declaration internal to log4cplus.">
<polygon fill="white" stroke="black" points="348.5,-56.5 348.5,-75.5 491.5,-75.5 491.5,-56.5 348.5,-56.5"/>
<text text-anchor="middle" x="420" y="-63.5" font-family="Helvetica,sans-Serif" font-size="10.00">customloglevelmanager.h</text>
</a>
</g>
</g>
<!-- Node8&#45;&gt;Node9 -->
<g id="edge10" class="edge">
<title>Node8&#45;&gt;Node9</title>
<path fill="none" stroke="midnightblue" d="M406.78,-102.69C410.15,-93.59 414.07,-83.01 416.76,-75.75"/>
<polygon fill="midnightblue" stroke="midnightblue" points="403.49,-101.49 403.3,-112.08 410.06,-103.92 403.49,-101.49"/>
</g>
<!-- Node10&#45;&gt;Node2 -->
<g id="edge13" class="edge">
<title>Node10&#45;&gt;Node2</title>
<path fill="none" stroke="midnightblue" d="M247.67,-105.25C237.74,-95.67 225.41,-83.79 217.16,-75.83"/>
<polygon fill="midnightblue" stroke="midnightblue" points="245.37,-107.9 255,-112.32 250.23,-102.86 245.37,-107.9"/>
</g>
</g>
</svg>
