<?xml version="1.0" encoding="UTF-8" standalone="no"?>
<!DOCTYPE svg PUBLIC "-//W3C//DTD SVG 1.1//EN"
 "http://www.w3.org/Graphics/SVG/1.1/DTD/svg11.dtd">
<!-- Generated by graphviz version 2.43.0 (0)
 -->
<!-- Title: timehelper.h Pages: 1 -->
<svg width="2014pt" height="420pt"
 viewBox="0.00 0.00 2013.62 420.00" xmlns="http://www.w3.org/2000/svg" xmlns:xlink="http://www.w3.org/1999/xlink">
<g id="graph0" class="graph" transform="scale(1 1) rotate(0) translate(4 416)">
<title>timehelper.h</title>
<polygon fill="white" stroke="transparent" points="-4,4 -4,-416 2009.62,-416 2009.62,4 -4,4"/>
<!-- Node1 -->
<g id="node1" class="node">
<title>Node1</title>
<g id="a_node1"><a xlink:title=" ">
<polygon fill="#bfbfbf" stroke="black" points="1728,-392.5 1728,-411.5 1806,-411.5 1806,-392.5 1728,-392.5"/>
<text text-anchor="middle" x="1767" y="-399.5" font-family="Helvetica,sans-Serif" font-size="10.00">timehelper.h</text>
</a>
</g>
</g>
<!-- Node2 -->
<g id="node2" class="node">
<title>Node2</title>
<g id="a_node2"><a xlink:href="fileappender_8h.html" target="_top" xlink:title=" ">
<polygon fill="white" stroke="black" points="1859,-224.5 1859,-243.5 1945,-243.5 1945,-224.5 1859,-224.5"/>
<text text-anchor="middle" x="1902" y="-231.5" font-family="Helvetica,sans-Serif" font-size="10.00">fileappender.h</text>
</a>
</g>
</g>
<!-- Node1&#45;&gt;Node2 -->
<g id="edge1" class="edge">
<title>Node1&#45;&gt;Node2</title>
<path fill="none" stroke="midnightblue" d="M1780.65,-384.21C1809.07,-349.26 1873.71,-269.79 1895.03,-243.57"/>
<polygon fill="midnightblue" stroke="midnightblue" points="1777.85,-382.11 1774.26,-392.08 1783.28,-386.53 1777.85,-382.11"/>
</g>
<!-- Node4 -->
<g id="node4" class="node">
<title>Node4</title>
<g id="a_node4"><a xlink:href="fileinfo_8h.html" target="_top" xlink:title=" ">
<polygon fill="white" stroke="black" points="1708.5,-336.5 1708.5,-355.5 1767.5,-355.5 1767.5,-336.5 1708.5,-336.5"/>
<text text-anchor="middle" x="1738" y="-343.5" font-family="Helvetica,sans-Serif" font-size="10.00">fileinfo.h</text>
</a>
</g>
</g>
<!-- Node1&#45;&gt;Node4 -->
<g id="edge3" class="edge">
<title>Node1&#45;&gt;Node4</title>
<path fill="none" stroke="midnightblue" d="M1757.32,-382.98C1752.4,-373.82 1746.64,-363.09 1742.7,-355.75"/>
<polygon fill="midnightblue" stroke="midnightblue" points="1754.4,-384.93 1762.21,-392.08 1760.56,-381.62 1754.4,-384.93"/>
</g>
<!-- Node5 -->
<g id="node5" class="node">
<title>Node5</title>
<g id="a_node5"><a xlink:href="layout_8h.html" target="_top" xlink:title=" ">
<polygon fill="white" stroke="black" points="643,-336.5 643,-355.5 699,-355.5 699,-336.5 643,-336.5"/>
<text text-anchor="middle" x="671" y="-343.5" font-family="Helvetica,sans-Serif" font-size="10.00">layout.h</text>
</a>
</g>
</g>
<!-- Node1&#45;&gt;Node5 -->
<g id="edge4" class="edge">
<title>Node1&#45;&gt;Node5</title>
<path fill="none" stroke="midnightblue" d="M1717.76,-398.57C1527.98,-389.22 847.2,-355.68 699.43,-348.4"/>
<polygon fill="midnightblue" stroke="midnightblue" points="1717.83,-402.08 1727.99,-399.08 1718.18,-395.09 1717.83,-402.08"/>
</g>
<!-- Node32 -->
<g id="node32" class="node">
<title>Node32</title>
<g id="a_node32"><a xlink:href="loggingevent_8h.html" target="_top" xlink:title=" ">
<polygon fill="white" stroke="black" points="1751.5,-224.5 1751.5,-243.5 1840.5,-243.5 1840.5,-224.5 1751.5,-224.5"/>
<text text-anchor="middle" x="1796" y="-231.5" font-family="Helvetica,sans-Serif" font-size="10.00">loggingevent.h</text>
</a>
</g>
</g>
<!-- Node1&#45;&gt;Node32 -->
<g id="edge50" class="edge">
<title>Node1&#45;&gt;Node32</title>
<path fill="none" stroke="midnightblue" d="M1771.38,-382.53C1773.23,-374.41 1775.34,-364.76 1777,-356 1784.95,-314.01 1792.13,-263.36 1794.85,-243.54"/>
<polygon fill="midnightblue" stroke="midnightblue" points="1767.94,-381.87 1769.08,-392.41 1774.76,-383.46 1767.94,-381.87"/>
</g>
<!-- Node3 -->
<g id="node3" class="node">
<title>Node3</title>
<g id="a_node3"><a xlink:href="log4cplus_8h.html" target="_top" xlink:title=" ">
<polygon fill="white" stroke="black" points="1202,-0.5 1202,-19.5 1274,-19.5 1274,-0.5 1202,-0.5"/>
<text text-anchor="middle" x="1238" y="-7.5" font-family="Helvetica,sans-Serif" font-size="10.00">log4cplus.h</text>
</a>
</g>
</g>
<!-- Node2&#45;&gt;Node3 -->
<g id="edge2" class="edge">
<title>Node2&#45;&gt;Node3</title>
<path fill="none" stroke="midnightblue" d="M1926.85,-219.22C1964.41,-196.65 2028.11,-150.49 1997,-112 1950.83,-54.88 1418.73,-21.11 1274.09,-12.94"/>
<polygon fill="midnightblue" stroke="midnightblue" points="1924.81,-216.36 1917.94,-224.43 1928.34,-222.4 1924.81,-216.36"/>
</g>
<!-- Node5&#45;&gt;Node3 -->
<g id="edge49" class="edge">
<title>Node5&#45;&gt;Node3</title>
<path fill="none" stroke="midnightblue" d="M632.56,-342.79C490.05,-334.11 0,-299.56 0,-235 0,-235 0,-235 0,-121 0,-52.4 73.33,-72.16 140,-56 244.99,-30.55 1023.72,-14.91 1201.8,-11.64"/>
<polygon fill="midnightblue" stroke="midnightblue" points="632.4,-346.29 642.6,-343.4 632.82,-339.3 632.4,-346.29"/>
</g>
<!-- Node6 -->
<g id="node6" class="node">
<title>Node6</title>
<g id="a_node6"><a xlink:href="appender_8h.html" target="_top" xlink:title=" ">
<polygon fill="white" stroke="black" points="861.5,-280.5 861.5,-299.5 932.5,-299.5 932.5,-280.5 861.5,-280.5"/>
<text text-anchor="middle" x="897" y="-287.5" font-family="Helvetica,sans-Serif" font-size="10.00">appender.h</text>
</a>
</g>
</g>
<!-- Node5&#45;&gt;Node6 -->
<g id="edge5" class="edge">
<title>Node5&#45;&gt;Node6</title>
<path fill="none" stroke="midnightblue" d="M709.13,-335.89C751.66,-325.73 819.92,-309.42 861.4,-299.51"/>
<polygon fill="midnightblue" stroke="midnightblue" points="708.08,-332.54 699.17,-338.27 709.71,-339.35 708.08,-332.54"/>
</g>
<!-- Node22 -->
<g id="node22" class="node">
<title>Node22</title>
<g id="a_node22"><a xlink:href="factory_8h.html" target="_top" xlink:title=" ">
<polygon fill="white" stroke="black" points="28.5,-224.5 28.5,-243.5 87.5,-243.5 87.5,-224.5 28.5,-224.5"/>
<text text-anchor="middle" x="58" y="-231.5" font-family="Helvetica,sans-Serif" font-size="10.00">factory.h</text>
</a>
</g>
</g>
<!-- Node5&#45;&gt;Node22 -->
<g id="edge48" class="edge">
<title>Node5&#45;&gt;Node22</title>
<path fill="none" stroke="midnightblue" d="M632.91,-338.59C541.31,-323.11 301.51,-282.1 102,-244 97.4,-243.12 92.55,-242.16 87.8,-241.21"/>
<polygon fill="midnightblue" stroke="midnightblue" points="632.39,-342.05 642.83,-340.27 633.55,-335.15 632.39,-342.05"/>
</g>
<!-- Node6&#45;&gt;Node2 -->
<g id="edge33" class="edge">
<title>Node6&#45;&gt;Node2</title>
<path fill="none" stroke="midnightblue" d="M942.78,-288.85C1080.45,-287.97 1502.59,-282.12 1850,-244 1852.91,-243.68 1855.91,-243.3 1858.93,-242.88"/>
<polygon fill="midnightblue" stroke="midnightblue" points="942.58,-285.35 932.6,-288.91 942.62,-292.35 942.58,-285.35"/>
</g>
<!-- Node6&#45;&gt;Node3 -->
<g id="edge35" class="edge">
<title>Node6&#45;&gt;Node3</title>
<path fill="none" stroke="midnightblue" d="M942.84,-286.88C1038.5,-281.99 1252.33,-268.41 1274,-244 1279.9,-237.35 1277.96,-231.96 1274,-224 1243.71,-163.22 1182.29,-192.78 1152,-132 1129.24,-86.33 1193.13,-38.92 1223.25,-19.79"/>
<polygon fill="midnightblue" stroke="midnightblue" points="942.41,-283.4 932.6,-287.39 942.76,-290.39 942.41,-283.4"/>
</g>
<!-- Node7 -->
<g id="node7" class="node">
<title>Node7</title>
<g id="a_node7"><a xlink:href="appenderattachable_8h.html" target="_top" xlink:title=" ">
<polygon fill="white" stroke="black" points="1514.5,-224.5 1514.5,-243.5 1637.5,-243.5 1637.5,-224.5 1514.5,-224.5"/>
<text text-anchor="middle" x="1576" y="-231.5" font-family="Helvetica,sans-Serif" font-size="10.00">appenderattachable.h</text>
</a>
</g>
</g>
<!-- Node6&#45;&gt;Node7 -->
<g id="edge6" class="edge">
<title>Node6&#45;&gt;Node7</title>
<path fill="none" stroke="midnightblue" d="M942.97,-286.46C1044.63,-280.64 1296.14,-265.23 1506,-244 1508.68,-243.73 1511.42,-243.44 1514.18,-243.13"/>
<polygon fill="midnightblue" stroke="midnightblue" points="942.54,-282.97 932.75,-287.04 942.94,-289.96 942.54,-282.97"/>
</g>
<!-- Node9 -->
<g id="node9" class="node">
<title>Node9</title>
<g id="a_node9"><a xlink:href="asyncappender_8h.html" target="_top" xlink:title=" ">
<polygon fill="white" stroke="black" points="1688.5,-112.5 1688.5,-131.5 1787.5,-131.5 1787.5,-112.5 1688.5,-112.5"/>
<text text-anchor="middle" x="1738" y="-119.5" font-family="Helvetica,sans-Serif" font-size="10.00">asyncappender.h</text>
</a>
</g>
</g>
<!-- Node6&#45;&gt;Node9 -->
<g id="edge24" class="edge">
<title>Node6&#45;&gt;Node9</title>
<path fill="none" stroke="midnightblue" d="M942.86,-288.8C1099.09,-287.76 1604.28,-281.52 1666,-244 1688.04,-230.6 1722.66,-157.09 1734.15,-131.66"/>
<polygon fill="midnightblue" stroke="midnightblue" points="942.63,-285.3 932.65,-288.86 942.67,-292.3 942.63,-285.3"/>
</g>
<!-- Node13 -->
<g id="node13" class="node">
<title>Node13</title>
<g id="a_node13"><a xlink:href="configurator_8h.html" target="_top" xlink:title=" ">
<polygon fill="white" stroke="black" points="1587.5,-112.5 1587.5,-131.5 1670.5,-131.5 1670.5,-112.5 1587.5,-112.5"/>
<text text-anchor="middle" x="1629" y="-119.5" font-family="Helvetica,sans-Serif" font-size="10.00">configurator.h</text>
</a>
</g>
</g>
<!-- Node6&#45;&gt;Node13 -->
<g id="edge27" class="edge">
<title>Node6&#45;&gt;Node13</title>
<path fill="none" stroke="midnightblue" d="M943.27,-287.95C1103,-284.12 1622.79,-269.7 1647,-244 1676.85,-212.31 1647.35,-153.78 1634.41,-131.72"/>
<polygon fill="midnightblue" stroke="midnightblue" points="942.76,-284.46 932.84,-288.2 942.92,-291.46 942.76,-284.46"/>
</g>
<!-- Node15 -->
<g id="node15" class="node">
<title>Node15</title>
<g id="a_node15"><a xlink:href="hierarchylocker_8h.html" target="_top" xlink:title=" ">
<polygon fill="white" stroke="black" points="1161,-112.5 1161,-131.5 1261,-131.5 1261,-112.5 1161,-112.5"/>
<text text-anchor="middle" x="1211" y="-119.5" font-family="Helvetica,sans-Serif" font-size="10.00">hierarchylocker.h</text>
</a>
</g>
</g>
<!-- Node6&#45;&gt;Node15 -->
<g id="edge34" class="edge">
<title>Node6&#45;&gt;Node15</title>
<path fill="none" stroke="midnightblue" d="M942.85,-287.35C1044.76,-283.21 1283.03,-270.75 1307,-244 1343.06,-203.76 1262.88,-151.9 1227.1,-131.65"/>
<polygon fill="midnightblue" stroke="midnightblue" points="942.41,-283.86 932.56,-287.76 942.69,-290.86 942.41,-283.86"/>
</g>
<!-- Node18 -->
<g id="node18" class="node">
<title>Node18</title>
<g id="a_node18"><a xlink:href="callbackappender_8h.html" target="_top" xlink:title=" ">
<polygon fill="white" stroke="black" points="182,-224.5 182,-243.5 292,-243.5 292,-224.5 182,-224.5"/>
<text text-anchor="middle" x="237" y="-231.5" font-family="Helvetica,sans-Serif" font-size="10.00">callbackappender.h</text>
</a>
</g>
</g>
<!-- Node6&#45;&gt;Node18 -->
<g id="edge25" class="edge">
<title>Node6&#45;&gt;Node18</title>
<path fill="none" stroke="midnightblue" d="M851.26,-286.55C751.27,-280.98 505.76,-266.1 301,-244 298.1,-243.69 295.13,-243.34 292.13,-242.98"/>
<polygon fill="midnightblue" stroke="midnightblue" points="851.14,-290.05 861.32,-287.11 851.53,-283.06 851.14,-290.05"/>
</g>
<!-- Node19 -->
<g id="node19" class="node">
<title>Node19</title>
<g id="a_node19"><a xlink:href="clfsappender_8h.html" target="_top" xlink:title=" ">
<polygon fill="white" stroke="black" points="310,-224.5 310,-243.5 398,-243.5 398,-224.5 310,-224.5"/>
<text text-anchor="middle" x="354" y="-231.5" font-family="Helvetica,sans-Serif" font-size="10.00">clfsappender.h</text>
</a>
</g>
</g>
<!-- Node6&#45;&gt;Node19 -->
<g id="edge26" class="edge">
<title>Node6&#45;&gt;Node19</title>
<path fill="none" stroke="midnightblue" d="M851.1,-285.69C764.88,-279.25 572.92,-263.93 412,-244 407.55,-243.45 402.92,-242.82 398.29,-242.16"/>
<polygon fill="midnightblue" stroke="midnightblue" points="851.09,-289.19 861.32,-286.44 851.61,-282.21 851.09,-289.19"/>
</g>
<!-- Node20 -->
<g id="node20" class="node">
<title>Node20</title>
<g id="a_node20"><a xlink:href="consoleappender_8h.html" target="_top" xlink:title=" ">
<polygon fill="white" stroke="black" points="177,-56.5 177,-75.5 285,-75.5 285,-56.5 177,-56.5"/>
<text text-anchor="middle" x="231" y="-63.5" font-family="Helvetica,sans-Serif" font-size="10.00">consoleappender.h</text>
</a>
</g>
</g>
<!-- Node6&#45;&gt;Node20 -->
<g id="edge28" class="edge">
<title>Node6&#45;&gt;Node20</title>
<path fill="none" stroke="midnightblue" d="M850.75,-287.92C692.31,-283.99 179.88,-269.37 156,-244 107.05,-191.99 192.35,-103.25 221.65,-75.53"/>
<polygon fill="midnightblue" stroke="midnightblue" points="851.01,-291.43 861.1,-288.17 851.19,-284.43 851.01,-291.43"/>
</g>
<!-- Node21 -->
<g id="node21" class="node">
<title>Node21</title>
<g id="a_node21"><a xlink:href="deviceappender_8hxx.html" target="_top" xlink:title=" ">
<polygon fill="white" stroke="black" points="454.5,-224.5 454.5,-243.5 569.5,-243.5 569.5,-224.5 454.5,-224.5"/>
<text text-anchor="middle" x="512" y="-231.5" font-family="Helvetica,sans-Serif" font-size="10.00">deviceappender.hxx</text>
</a>
</g>
</g>
<!-- Node6&#45;&gt;Node21 -->
<g id="edge30" class="edge">
<title>Node6&#45;&gt;Node21</title>
<path fill="none" stroke="midnightblue" d="M851.17,-282.57C780.89,-272.71 646.58,-253.88 569.74,-243.1"/>
<polygon fill="midnightblue" stroke="midnightblue" points="851.08,-286.09 861.47,-284.02 852.05,-279.16 851.08,-286.09"/>
</g>
<!-- Node6&#45;&gt;Node22 -->
<g id="edge31" class="edge">
<title>Node6&#45;&gt;Node22</title>
<path fill="none" stroke="midnightblue" d="M851.05,-288.73C728.7,-287.5 385.07,-280.76 102,-244 97.36,-243.4 92.48,-242.58 87.72,-241.69"/>
<polygon fill="midnightblue" stroke="midnightblue" points="851.14,-292.23 861.17,-288.82 851.2,-285.23 851.14,-292.23"/>
</g>
<!-- Node23 -->
<g id="node23" class="node">
<title>Node23</title>
<g id="a_node23"><a xlink:href="log4judpappender_8h.html" target="_top" xlink:title=" ">
<polygon fill="white" stroke="black" points="587.5,-224.5 587.5,-243.5 700.5,-243.5 700.5,-224.5 587.5,-224.5"/>
<text text-anchor="middle" x="644" y="-231.5" font-family="Helvetica,sans-Serif" font-size="10.00">log4judpappender.h</text>
</a>
</g>
</g>
<!-- Node6&#45;&gt;Node23 -->
<g id="edge36" class="edge">
<title>Node6&#45;&gt;Node23</title>
<path fill="none" stroke="midnightblue" d="M851.24,-279.23C803.56,-269.06 729.59,-253.27 684.12,-243.56"/>
<polygon fill="midnightblue" stroke="midnightblue" points="850.78,-282.71 861.29,-281.38 852.24,-275.87 850.78,-282.71"/>
</g>
<!-- Node24 -->
<g id="node24" class="node">
<title>Node24</title>
<g id="a_node24"><a xlink:href="msttsappender_8h.html" target="_top" xlink:title=" ">
<polygon fill="white" stroke="black" points="719,-224.5 719,-243.5 817,-243.5 817,-224.5 719,-224.5"/>
<text text-anchor="middle" x="768" y="-231.5" font-family="Helvetica,sans-Serif" font-size="10.00">msttsappender.h</text>
</a>
</g>
</g>
<!-- Node6&#45;&gt;Node24 -->
<g id="edge37" class="edge">
<title>Node6&#45;&gt;Node24</title>
<path fill="none" stroke="midnightblue" d="M867.15,-276.5C842.96,-266.38 809.54,-252.39 788.34,-243.52"/>
<polygon fill="midnightblue" stroke="midnightblue" points="865.98,-279.81 876.56,-280.44 868.69,-273.35 865.98,-279.81"/>
</g>
<!-- Node25 -->
<g id="node25" class="node">
<title>Node25</title>
<g id="a_node25"><a xlink:href="nteventlogappender_8h.html" target="_top" xlink:title=" ">
<polygon fill="white" stroke="black" points="835.5,-224.5 835.5,-243.5 958.5,-243.5 958.5,-224.5 835.5,-224.5"/>
<text text-anchor="middle" x="897" y="-231.5" font-family="Helvetica,sans-Serif" font-size="10.00">nteventlogappender.h</text>
</a>
</g>
</g>
<!-- Node6&#45;&gt;Node25 -->
<g id="edge38" class="edge">
<title>Node6&#45;&gt;Node25</title>
<path fill="none" stroke="midnightblue" d="M897,-269.8C897,-260.91 897,-250.78 897,-243.75"/>
<polygon fill="midnightblue" stroke="midnightblue" points="893.5,-270.08 897,-280.08 900.5,-270.08 893.5,-270.08"/>
</g>
<!-- Node26 -->
<g id="node26" class="node">
<title>Node26</title>
<g id="a_node26"><a xlink:href="nullappender_8h.html" target="_top" xlink:title=" ">
<polygon fill="white" stroke="black" points="445.5,-56.5 445.5,-75.5 534.5,-75.5 534.5,-56.5 445.5,-56.5"/>
<text text-anchor="middle" x="490" y="-63.5" font-family="Helvetica,sans-Serif" font-size="10.00">nullappender.h</text>
</a>
</g>
</g>
<!-- Node6&#45;&gt;Node26 -->
<g id="edge39" class="edge">
<title>Node6&#45;&gt;Node26</title>
<path fill="none" stroke="midnightblue" d="M851.28,-287.86C695.87,-283.78 196.29,-268.78 173,-244 84.94,-150.3 338.52,-93.54 445.18,-74.34"/>
<polygon fill="midnightblue" stroke="midnightblue" points="851.35,-291.37 861.44,-288.13 851.53,-284.37 851.35,-291.37"/>
</g>
<!-- Node27 -->
<g id="node27" class="node">
<title>Node27</title>
<g id="a_node27"><a xlink:href="qt4debugappender_8h.html" target="_top" xlink:title=" ">
<polygon fill="white" stroke="black" points="1015,-224.5 1015,-243.5 1131,-243.5 1131,-224.5 1015,-224.5"/>
<text text-anchor="middle" x="1073" y="-231.5" font-family="Helvetica,sans-Serif" font-size="10.00">qt4debugappender.h</text>
</a>
</g>
</g>
<!-- Node6&#45;&gt;Node27 -->
<g id="edge41" class="edge">
<title>Node6&#45;&gt;Node27</title>
<path fill="none" stroke="midnightblue" d="M934.69,-277.44C967.87,-267.26 1015.43,-252.66 1045.24,-243.52"/>
<polygon fill="midnightblue" stroke="midnightblue" points="933.42,-274.16 924.89,-280.44 935.47,-280.86 933.42,-274.16"/>
</g>
<!-- Node28 -->
<g id="node28" class="node">
<title>Node28</title>
<g id="a_node28"><a xlink:href="qt5debugappender_8h.html" target="_top" xlink:title=" ">
<polygon fill="white" stroke="black" points="1149,-224.5 1149,-243.5 1265,-243.5 1265,-224.5 1149,-224.5"/>
<text text-anchor="middle" x="1207" y="-231.5" font-family="Helvetica,sans-Serif" font-size="10.00">qt5debugappender.h</text>
</a>
</g>
</g>
<!-- Node6&#45;&gt;Node28 -->
<g id="edge42" class="edge">
<title>Node6&#45;&gt;Node28</title>
<path fill="none" stroke="midnightblue" d="M942.47,-281.08C1000.08,-271.04 1098.97,-253.82 1158.14,-243.51"/>
<polygon fill="midnightblue" stroke="midnightblue" points="941.81,-277.64 932.56,-282.81 943.01,-284.54 941.81,-277.64"/>
</g>
<!-- Node29 -->
<g id="node29" class="node">
<title>Node29</title>
<g id="a_node29"><a xlink:href="socketappender_8h.html" target="_top" xlink:title=" ">
<polygon fill="white" stroke="black" points="585,-168.5 585,-187.5 687,-187.5 687,-168.5 585,-168.5"/>
<text text-anchor="middle" x="636" y="-175.5" font-family="Helvetica,sans-Serif" font-size="10.00">socketappender.h</text>
</a>
</g>
</g>
<!-- Node6&#45;&gt;Node29 -->
<g id="edge43" class="edge">
<title>Node6&#45;&gt;Node29</title>
<path fill="none" stroke="midnightblue" d="M851.06,-287.85C741.5,-284.63 471.92,-273.73 445,-244 402.57,-197.13 514.92,-184.04 584.89,-180.4"/>
<polygon fill="midnightblue" stroke="midnightblue" points="851.06,-291.35 861.15,-288.14 851.26,-284.35 851.06,-291.35"/>
</g>
<!-- Node30 -->
<g id="node30" class="node">
<title>Node30</title>
<g id="a_node30"><a xlink:href="syslogappender_8h.html" target="_top" xlink:title=" ">
<polygon fill="white" stroke="black" points="956,-56.5 956,-75.5 1058,-75.5 1058,-56.5 956,-56.5"/>
<text text-anchor="middle" x="1007" y="-63.5" font-family="Helvetica,sans-Serif" font-size="10.00">syslogappender.h</text>
</a>
</g>
</g>
<!-- Node6&#45;&gt;Node30 -->
<g id="edge45" class="edge">
<title>Node6&#45;&gt;Node30</title>
<path fill="none" stroke="midnightblue" d="M927.93,-275.85C941.85,-268.44 957.3,-257.85 967,-244 1005.49,-189.03 1007.62,-103 1007.25,-75.65"/>
<polygon fill="midnightblue" stroke="midnightblue" points="926.01,-272.89 918.62,-280.48 929.13,-279.16 926.01,-272.89"/>
</g>
<!-- Node31 -->
<g id="node31" class="node">
<title>Node31</title>
<g id="a_node31"><a xlink:href="win32consoleappender_8h.html" target="_top" xlink:title=" ">
<polygon fill="white" stroke="black" points="1359.5,-224.5 1359.5,-243.5 1496.5,-243.5 1496.5,-224.5 1359.5,-224.5"/>
<text text-anchor="middle" x="1428" y="-231.5" font-family="Helvetica,sans-Serif" font-size="10.00">win32consoleappender.h</text>
</a>
</g>
</g>
<!-- Node6&#45;&gt;Node31 -->
<g id="edge47" class="edge">
<title>Node6&#45;&gt;Node31</title>
<path fill="none" stroke="midnightblue" d="M943.09,-284.49C1024.32,-276.52 1198.23,-259.33 1345,-244 1349.61,-243.52 1354.37,-243.02 1359.16,-242.51"/>
<polygon fill="midnightblue" stroke="midnightblue" points="942.33,-281.05 932.72,-285.51 943.02,-288.02 942.33,-281.05"/>
</g>
<!-- Node8 -->
<g id="node8" class="node">
<title>Node8</title>
<g id="a_node8"><a xlink:href="appenderattachableimpl_8h.html" target="_top" xlink:title=" ">
<polygon fill="white" stroke="black" points="1492.5,-168.5 1492.5,-187.5 1637.5,-187.5 1637.5,-168.5 1492.5,-168.5"/>
<text text-anchor="middle" x="1565" y="-175.5" font-family="Helvetica,sans-Serif" font-size="10.00">appenderattachableimpl.h</text>
</a>
</g>
</g>
<!-- Node7&#45;&gt;Node8 -->
<g id="edge7" class="edge">
<title>Node7&#45;&gt;Node8</title>
<path fill="none" stroke="midnightblue" d="M1572.15,-214.1C1570.32,-205.14 1568.23,-194.86 1566.78,-187.75"/>
<polygon fill="midnightblue" stroke="midnightblue" points="1568.76,-214.98 1574.18,-224.08 1575.62,-213.59 1568.76,-214.98"/>
</g>
<!-- Node12 -->
<g id="node12" class="node">
<title>Node12</title>
<g id="a_node12"><a xlink:href="logger_8h.html" target="_top" xlink:title="This header defines the Logger class and the logging macros.">
<polygon fill="white" stroke="black" points="1359,-168.5 1359,-187.5 1415,-187.5 1415,-168.5 1359,-168.5"/>
<text text-anchor="middle" x="1387" y="-175.5" font-family="Helvetica,sans-Serif" font-size="10.00">logger.h</text>
</a>
</g>
</g>
<!-- Node7&#45;&gt;Node12 -->
<g id="edge12" class="edge">
<title>Node7&#45;&gt;Node12</title>
<path fill="none" stroke="midnightblue" d="M1536.3,-221.66C1500.06,-211.3 1447.39,-196.25 1415.26,-187.08"/>
<polygon fill="midnightblue" stroke="midnightblue" points="1535.48,-225.06 1546.05,-224.44 1537.4,-218.33 1535.48,-225.06"/>
</g>
<!-- Node8&#45;&gt;Node9 -->
<g id="edge8" class="edge">
<title>Node8&#45;&gt;Node9</title>
<path fill="none" stroke="midnightblue" d="M1602.05,-165.44C1634.66,-155.26 1681.41,-140.66 1710.72,-131.52"/>
<polygon fill="midnightblue" stroke="midnightblue" points="1600.92,-162.12 1592.41,-168.44 1603,-168.8 1600.92,-162.12"/>
</g>
<!-- Node10 -->
<g id="node10" class="node">
<title>Node10</title>
<g id="a_node10"><a xlink:href="loggerimpl_8h.html" target="_top" xlink:title=" ">
<polygon fill="white" stroke="black" points="1491,-112.5 1491,-131.5 1569,-131.5 1569,-112.5 1491,-112.5"/>
<text text-anchor="middle" x="1530" y="-119.5" font-family="Helvetica,sans-Serif" font-size="10.00">loggerimpl.h</text>
</a>
</g>
</g>
<!-- Node8&#45;&gt;Node10 -->
<g id="edge10" class="edge">
<title>Node8&#45;&gt;Node10</title>
<path fill="none" stroke="midnightblue" d="M1553.7,-159.57C1547.68,-150.27 1540.53,-139.25 1535.67,-131.75"/>
<polygon fill="midnightblue" stroke="midnightblue" points="1550.84,-161.6 1559.22,-168.08 1556.72,-157.79 1550.84,-161.6"/>
</g>
<!-- Node9&#45;&gt;Node3 -->
<g id="edge9" class="edge">
<title>Node9&#45;&gt;Node3</title>
<path fill="none" stroke="midnightblue" d="M1716.88,-106.72C1693.18,-91.47 1653.06,-67.88 1615,-56 1494.19,-18.3 1342.53,-11.84 1274.25,-10.96"/>
<polygon fill="midnightblue" stroke="midnightblue" points="1715.12,-109.76 1725.41,-112.31 1718.96,-103.9 1715.12,-109.76"/>
</g>
<!-- Node11 -->
<g id="node11" class="node">
<title>Node11</title>
<g id="a_node11"><a xlink:href="rootlogger_8h.html" target="_top" xlink:title=" ">
<polygon fill="white" stroke="black" points="1508.5,-56.5 1508.5,-75.5 1583.5,-75.5 1583.5,-56.5 1508.5,-56.5"/>
<text text-anchor="middle" x="1546" y="-63.5" font-family="Helvetica,sans-Serif" font-size="10.00">rootlogger.h</text>
</a>
</g>
</g>
<!-- Node10&#45;&gt;Node11 -->
<g id="edge11" class="edge">
<title>Node10&#45;&gt;Node11</title>
<path fill="none" stroke="midnightblue" d="M1535.51,-102.4C1538.19,-93.36 1541.28,-82.94 1543.41,-75.75"/>
<polygon fill="midnightblue" stroke="midnightblue" points="1532.13,-101.5 1532.64,-112.08 1538.84,-103.49 1532.13,-101.5"/>
</g>
<!-- Node12&#45;&gt;Node3 -->
<g id="edge18" class="edge">
<title>Node12&#45;&gt;Node3</title>
<path fill="none" stroke="midnightblue" d="M1360.96,-163.43C1331.46,-146.73 1283.98,-115.66 1257,-76 1244.97,-58.31 1240.44,-32.92 1238.83,-19.72"/>
<polygon fill="midnightblue" stroke="midnightblue" points="1359.42,-166.57 1369.86,-168.33 1362.8,-160.44 1359.42,-166.57"/>
</g>
<!-- Node12&#45;&gt;Node13 -->
<g id="edge13" class="edge">
<title>Node12&#45;&gt;Node13</title>
<path fill="none" stroke="midnightblue" d="M1425.24,-168.47C1470.46,-158.38 1545.31,-141.67 1590.61,-131.57"/>
<polygon fill="midnightblue" stroke="midnightblue" points="1424.23,-165.11 1415.23,-170.7 1425.76,-171.94 1424.23,-165.11"/>
</g>
<!-- Node14 -->
<g id="node14" class="node">
<title>Node14</title>
<g id="a_node14"><a xlink:href="hierarchy_8h.html" target="_top" xlink:title=" ">
<polygon fill="white" stroke="black" points="1266,-56.5 1266,-75.5 1336,-75.5 1336,-56.5 1266,-56.5"/>
<text text-anchor="middle" x="1301" y="-63.5" font-family="Helvetica,sans-Serif" font-size="10.00">hierarchy.h</text>
</a>
</g>
</g>
<!-- Node12&#45;&gt;Node14 -->
<g id="edge15" class="edge">
<title>Node12&#45;&gt;Node14</title>
<path fill="none" stroke="midnightblue" d="M1373.92,-160.27C1355.33,-136.49 1321.94,-93.79 1307.72,-75.59"/>
<polygon fill="midnightblue" stroke="midnightblue" points="1371.34,-162.65 1380.25,-168.37 1376.85,-158.33 1371.34,-162.65"/>
</g>
<!-- Node12&#45;&gt;Node15 -->
<g id="edge17" class="edge">
<title>Node12&#45;&gt;Node15</title>
<path fill="none" stroke="midnightblue" d="M1349.31,-165.44C1316.13,-155.26 1268.57,-140.66 1238.76,-131.52"/>
<polygon fill="midnightblue" stroke="midnightblue" points="1348.53,-168.86 1359.11,-168.44 1350.58,-162.16 1348.53,-168.86"/>
</g>
<!-- Node16 -->
<g id="node16" class="node">
<title>Node16</title>
<g id="a_node16"><a xlink:href="loggingmacros_8h.html" target="_top" xlink:title="This header defines the logging macros.">
<polygon fill="white" stroke="black" points="1354,-56.5 1354,-75.5 1452,-75.5 1452,-56.5 1354,-56.5"/>
<text text-anchor="middle" x="1403" y="-63.5" font-family="Helvetica,sans-Serif" font-size="10.00">loggingmacros.h</text>
</a>
</g>
</g>
<!-- Node12&#45;&gt;Node16 -->
<g id="edge19" class="edge">
<title>Node12&#45;&gt;Node16</title>
<path fill="none" stroke="midnightblue" d="M1383.75,-158.38C1382.04,-145.29 1380.88,-127.41 1384,-112 1386.69,-98.7 1393.44,-84.45 1398.12,-75.63"/>
<polygon fill="midnightblue" stroke="midnightblue" points="1380.32,-159.13 1385.3,-168.48 1387.24,-158.07 1380.32,-159.13"/>
</g>
<!-- Node17 -->
<g id="node17" class="node">
<title>Node17</title>
<g id="a_node17"><a xlink:href="tracelogger_8h.html" target="_top" xlink:title=" ">
<polygon fill="white" stroke="black" points="1393,-112.5 1393,-131.5 1473,-131.5 1473,-112.5 1393,-112.5"/>
<text text-anchor="middle" x="1433" y="-119.5" font-family="Helvetica,sans-Serif" font-size="10.00">tracelogger.h</text>
</a>
</g>
</g>
<!-- Node12&#45;&gt;Node17 -->
<g id="edge21" class="edge">
<title>Node12&#45;&gt;Node17</title>
<path fill="none" stroke="midnightblue" d="M1401.11,-160.43C1409.18,-150.97 1418.96,-139.48 1425.55,-131.75"/>
<polygon fill="midnightblue" stroke="midnightblue" points="1398.42,-158.2 1394.6,-168.08 1403.75,-162.74 1398.42,-158.2"/>
</g>
<!-- Node13&#45;&gt;Node3 -->
<g id="edge14" class="edge">
<title>Node13&#45;&gt;Node3</title>
<path fill="none" stroke="midnightblue" d="M1623.8,-102.28C1618.58,-87.22 1608.98,-66.83 1593,-56 1541.57,-21.15 1353.82,-13.29 1274.15,-11.52"/>
<polygon fill="midnightblue" stroke="midnightblue" points="1620.54,-103.59 1626.85,-112.1 1627.23,-101.51 1620.54,-103.59"/>
</g>
<!-- Node14&#45;&gt;Node3 -->
<g id="edge16" class="edge">
<title>Node14&#45;&gt;Node3</title>
<path fill="none" stroke="midnightblue" d="M1282.96,-49.54C1271.73,-39.91 1257.68,-27.87 1248.31,-19.83"/>
<polygon fill="midnightblue" stroke="midnightblue" points="1281.01,-52.47 1290.88,-56.32 1285.56,-47.16 1281.01,-52.47"/>
</g>
<!-- Node16&#45;&gt;Node3 -->
<g id="edge20" class="edge">
<title>Node16&#45;&gt;Node3</title>
<path fill="none" stroke="midnightblue" d="M1367.26,-53.3C1336.17,-43.13 1291.85,-28.62 1264.02,-19.52"/>
<polygon fill="midnightblue" stroke="midnightblue" points="1366.26,-56.66 1376.86,-56.44 1368.44,-50.01 1366.26,-56.66"/>
</g>
<!-- Node17&#45;&gt;Node3 -->
<g id="edge22" class="edge">
<title>Node17&#45;&gt;Node3</title>
<path fill="none" stroke="midnightblue" d="M1448.93,-104.73C1460.72,-90.7 1472.84,-70.47 1461,-56 1437.8,-27.65 1331.13,-16.76 1274.14,-12.91"/>
<polygon fill="midnightblue" stroke="midnightblue" points="1446.31,-102.41 1442.22,-112.18 1451.51,-107.1 1446.31,-102.41"/>
</g>
<!-- Node17&#45;&gt;Node16 -->
<g id="edge23" class="edge">
<title>Node17&#45;&gt;Node16</title>
<path fill="none" stroke="midnightblue" d="M1423.15,-103.27C1418.03,-94.05 1411.98,-83.17 1407.86,-75.75"/>
<polygon fill="midnightblue" stroke="midnightblue" points="1420.13,-105.04 1428.05,-112.08 1426.25,-101.64 1420.13,-105.04"/>
</g>
<!-- Node20&#45;&gt;Node3 -->
<g id="edge29" class="edge">
<title>Node20&#45;&gt;Node3</title>
<path fill="none" stroke="midnightblue" d="M295.37,-61.55C487.58,-51.24 1053.28,-20.91 1201.9,-12.94"/>
<polygon fill="midnightblue" stroke="midnightblue" points="294.94,-58.07 285.14,-62.1 295.31,-65.06 294.94,-58.07"/>
</g>
<!-- Node22&#45;&gt;Node3 -->
<g id="edge32" class="edge">
<title>Node22&#45;&gt;Node3</title>
<path fill="none" stroke="midnightblue" d="M63.1,-214.62C74.62,-177.03 106.57,-91.86 168,-56 213.59,-29.39 1020.52,-14.58 1201.97,-11.57"/>
<polygon fill="midnightblue" stroke="midnightblue" points="59.72,-213.69 60.27,-224.27 66.44,-215.66 59.72,-213.69"/>
</g>
<!-- Node26&#45;&gt;Node3 -->
<g id="edge40" class="edge">
<title>Node26&#45;&gt;Node3</title>
<path fill="none" stroke="midnightblue" d="M544.54,-61.06C689.36,-50.61 1080.71,-22.36 1201.8,-13.61"/>
<polygon fill="midnightblue" stroke="midnightblue" points="544.27,-57.57 534.55,-61.78 544.78,-64.55 544.27,-57.57"/>
</g>
<!-- Node29&#45;&gt;Node3 -->
<g id="edge44" class="edge">
<title>Node29&#45;&gt;Node3</title>
<path fill="none" stroke="midnightblue" d="M662.85,-164.25C715.91,-139.56 838.49,-85.13 947,-56 1036.86,-31.88 1146.03,-19.31 1201.64,-14.06"/>
<polygon fill="midnightblue" stroke="midnightblue" points="661.34,-161.09 653.77,-168.5 664.31,-167.43 661.34,-161.09"/>
</g>
<!-- Node30&#45;&gt;Node3 -->
<g id="edge46" class="edge">
<title>Node30&#45;&gt;Node3</title>
<path fill="none" stroke="midnightblue" d="M1053.43,-54.15C1097.22,-43.91 1161.93,-28.78 1201.95,-19.43"/>
<polygon fill="midnightblue" stroke="midnightblue" points="1052.54,-50.76 1043.6,-56.44 1054.14,-57.58 1052.54,-50.76"/>
</g>
<!-- Node32&#45;&gt;Node3 -->
<g id="edge53" class="edge">
<title>Node32&#45;&gt;Node3</title>
<path fill="none" stroke="midnightblue" d="M1802.16,-214.6C1809.45,-189.12 1818.15,-142.76 1797,-112 1737.36,-25.25 1388.4,-12.95 1274.17,-11.25"/>
<polygon fill="midnightblue" stroke="midnightblue" points="1798.73,-213.83 1799.11,-224.42 1805.42,-215.91 1798.73,-213.83"/>
</g>
<!-- Node33 -->
<g id="node33" class="node">
<title>Node33</title>
<g id="a_node33"><a xlink:href="internal_8h.html" target="_top" xlink:title="This header contains declaration internal to log4cplus.">
<polygon fill="white" stroke="black" points="1864.5,-168.5 1864.5,-187.5 1927.5,-187.5 1927.5,-168.5 1864.5,-168.5"/>
<text text-anchor="middle" x="1896" y="-175.5" font-family="Helvetica,sans-Serif" font-size="10.00">internal.h</text>
</a>
</g>
</g>
<!-- Node32&#45;&gt;Node33 -->
<g id="edge51" class="edge">
<title>Node32&#45;&gt;Node33</title>
<path fill="none" stroke="midnightblue" d="M1821.09,-219.45C1839.55,-209.48 1864.1,-196.23 1879.97,-187.65"/>
<polygon fill="midnightblue" stroke="midnightblue" points="1819.2,-216.49 1812.07,-224.32 1822.53,-222.65 1819.2,-216.49"/>
</g>
<!-- Node35 -->
<g id="node35" class="node">
<title>Node35</title>
<g id="a_node35"><a xlink:href="queue_8h.html" target="_top" xlink:title=" ">
<polygon fill="white" stroke="black" points="1732,-168.5 1732,-187.5 1788,-187.5 1788,-168.5 1732,-168.5"/>
<text text-anchor="middle" x="1760" y="-175.5" font-family="Helvetica,sans-Serif" font-size="10.00">queue.h</text>
</a>
</g>
</g>
<!-- Node32&#45;&gt;Node35 -->
<g id="edge54" class="edge">
<title>Node32&#45;&gt;Node35</title>
<path fill="none" stroke="midnightblue" d="M1784.38,-215.57C1778.18,-206.27 1770.83,-195.25 1765.83,-187.75"/>
<polygon fill="midnightblue" stroke="midnightblue" points="1781.6,-217.7 1790.06,-224.08 1787.42,-213.82 1781.6,-217.7"/>
</g>
<!-- Node34 -->
<g id="node34" class="node">
<title>Node34</title>
<g id="a_node34"><a xlink:href="customloglevelmanager_8h.html" target="_top" xlink:title="This header contains declaration internal to log4cplus.">
<polygon fill="white" stroke="black" points="1844.5,-112.5 1844.5,-131.5 1987.5,-131.5 1987.5,-112.5 1844.5,-112.5"/>
<text text-anchor="middle" x="1916" y="-119.5" font-family="Helvetica,sans-Serif" font-size="10.00">customloglevelmanager.h</text>
</a>
</g>
</g>
<!-- Node33&#45;&gt;Node34 -->
<g id="edge52" class="edge">
<title>Node33&#45;&gt;Node34</title>
<path fill="none" stroke="midnightblue" d="M1902.78,-158.69C1906.15,-149.59 1910.07,-139.01 1912.76,-131.75"/>
<polygon fill="midnightblue" stroke="midnightblue" points="1899.49,-157.49 1899.3,-168.08 1906.06,-159.92 1899.49,-157.49"/>
</g>
<!-- Node35&#45;&gt;Node9 -->
<g id="edge55" class="edge">
<title>Node35&#45;&gt;Node9</title>
<path fill="none" stroke="midnightblue" d="M1752.54,-158.69C1748.83,-149.59 1744.52,-139.01 1741.57,-131.75"/>
<polygon fill="midnightblue" stroke="midnightblue" points="1749.35,-160.14 1756.37,-168.08 1755.84,-157.5 1749.35,-160.14"/>
</g>
</g>
</svg>
