<?xml version="1.0" encoding="UTF-8" standalone="no"?>
<!DOCTYPE svg PUBLIC "-//W3C//DTD SVG 1.1//EN"
 "http://www.w3.org/Graphics/SVG/1.1/DTD/svg11.dtd">
<!-- Generated by graphviz version 2.43.0 (0)
 -->
<!-- Title: tls.h Pages: 1 -->
<svg width="437pt" height="151pt"
 viewBox="0.00 0.00 437.00 151.00" xmlns="http://www.w3.org/2000/svg" xmlns:xlink="http://www.w3.org/1999/xlink">
<g id="graph0" class="graph" transform="scale(1 1) rotate(0) translate(4 147)">
<title>tls.h</title>
<polygon fill="white" stroke="transparent" points="-4,4 -4,-147 433,-147 433,4 -4,4"/>
<!-- Node1 -->
<g id="node1" class="node">
<title>Node1</title>
<g id="a_node1"><a xlink:title=" ">
<polygon fill="#bfbfbf" stroke="black" points="252.5,-123.5 252.5,-142.5 290.5,-142.5 290.5,-123.5 252.5,-123.5"/>
<text text-anchor="middle" x="271.5" y="-130.5" font-family="Helvetica,sans-Serif" font-size="10.00">tls.h</text>
</a>
</g>
</g>
<!-- Node2 -->
<g id="node2" class="node">
<title>Node2</title>
<g id="a_node2"><a xlink:href="config_8hxx.html" target="_top" xlink:title=" ">
<polygon fill="white" stroke="black" points="87.5,-67.5 87.5,-86.5 203.5,-86.5 203.5,-67.5 87.5,-67.5"/>
<text text-anchor="middle" x="145.5" y="-74.5" font-family="Helvetica,sans-Serif" font-size="10.00">log4cplus/config.hxx</text>
</a>
</g>
</g>
<!-- Node1&#45;&gt;Node2 -->
<g id="edge1" class="edge">
<title>Node1&#45;&gt;Node2</title>
<path fill="none" stroke="midnightblue" d="M252.36,-123.8C231.79,-114.98 198.83,-100.86 174.95,-90.62"/>
<polygon fill="midnightblue" stroke="midnightblue" points="176.22,-87.36 165.65,-86.64 173.47,-93.79 176.22,-87.36"/>
</g>
<!-- Node5 -->
<g id="node5" class="node">
<title>Node5</title>
<g id="a_node5"><a xlink:title=" ">
<polygon fill="white" stroke="#bfbfbf" points="222,-67.5 222,-86.5 259,-86.5 259,-67.5 222,-67.5"/>
<text text-anchor="middle" x="240.5" y="-74.5" font-family="Helvetica,sans-Serif" font-size="10.00">new</text>
</a>
</g>
</g>
<!-- Node1&#45;&gt;Node5 -->
<g id="edge4" class="edge">
<title>Node1&#45;&gt;Node5</title>
<path fill="none" stroke="midnightblue" d="M266.38,-123.08C262.09,-115.61 255.84,-104.72 250.56,-95.52"/>
<polygon fill="midnightblue" stroke="midnightblue" points="253.54,-93.68 245.52,-86.75 247.47,-97.17 253.54,-93.68"/>
</g>
<!-- Node6 -->
<g id="node6" class="node">
<title>Node6</title>
<g id="a_node6"><a xlink:title=" ">
<polygon fill="white" stroke="#bfbfbf" points="277.5,-67.5 277.5,-86.5 329.5,-86.5 329.5,-67.5 277.5,-67.5"/>
<text text-anchor="middle" x="303.5" y="-74.5" font-family="Helvetica,sans-Serif" font-size="10.00">cassert</text>
</a>
</g>
</g>
<!-- Node1&#45;&gt;Node6 -->
<g id="edge5" class="edge">
<title>Node1&#45;&gt;Node6</title>
<path fill="none" stroke="midnightblue" d="M276.78,-123.08C281.21,-115.61 287.66,-104.72 293.12,-95.52"/>
<polygon fill="midnightblue" stroke="midnightblue" points="296.23,-97.14 298.31,-86.75 290.21,-93.57 296.23,-97.14"/>
</g>
<!-- Node7 -->
<g id="node7" class="node">
<title>Node7</title>
<g id="a_node7"><a xlink:title=" ">
<polygon fill="white" stroke="#bfbfbf" points="348,-67.5 348,-86.5 429,-86.5 429,-67.5 348,-67.5"/>
<text text-anchor="middle" x="388.5" y="-74.5" font-family="Helvetica,sans-Serif" font-size="10.00">system_error</text>
</a>
</g>
</g>
<!-- Node1&#45;&gt;Node7 -->
<g id="edge6" class="edge">
<title>Node1&#45;&gt;Node7</title>
<path fill="none" stroke="midnightblue" d="M290.04,-123.44C309.12,-114.64 339.07,-100.81 360.94,-90.72"/>
<polygon fill="midnightblue" stroke="midnightblue" points="362.43,-93.88 370.05,-86.52 359.5,-87.53 362.43,-93.88"/>
</g>
<!-- Node3 -->
<g id="node3" class="node">
<title>Node3</title>
<g id="a_node3"><a xlink:href="win32_8h.html" target="_top" xlink:title=" ">
<polygon fill="white" stroke="black" points="0,-6 0,-25 137,-25 137,-6 0,-6"/>
<text text-anchor="middle" x="68.5" y="-13" font-family="Helvetica,sans-Serif" font-size="10.00">log4cplus/config/win32.h</text>
</a>
</g>
</g>
<!-- Node2&#45;&gt;Node3 -->
<g id="edge2" class="edge">
<title>Node2&#45;&gt;Node3</title>
<path fill="none" stroke="midnightblue" d="M134.47,-67.48C122.23,-58.02 102.27,-42.6 87.51,-31.19"/>
<polygon fill="midnightblue" stroke="midnightblue" points="89.56,-28.35 79.51,-25.01 85.28,-33.89 89.56,-28.35"/>
</g>
<!-- Node4 -->
<g id="node4" class="node">
<title>Node4</title>
<g id="a_node4"><a xlink:href="thread-config_8h.html" target="_top" xlink:title=" ">
<polygon fill="white" stroke="black" points="155,-0.5 155,-30.5 292,-30.5 292,-0.5 155,-0.5"/>
<text text-anchor="start" x="163" y="-18.5" font-family="Helvetica,sans-Serif" font-size="10.00">log4cplus/helpers/thread</text>
<text text-anchor="middle" x="223.5" y="-7.5" font-family="Helvetica,sans-Serif" font-size="10.00">&#45;config.h</text>
</a>
</g>
</g>
<!-- Node2&#45;&gt;Node4 -->
<g id="edge3" class="edge">
<title>Node2&#45;&gt;Node4</title>
<path fill="none" stroke="midnightblue" d="M156.68,-67.48C167.14,-59.49 183.18,-47.25 196.93,-36.77"/>
<polygon fill="midnightblue" stroke="midnightblue" points="199.29,-39.37 205.12,-30.52 195.04,-33.81 199.29,-39.37"/>
</g>
</g>
</svg>
