<?xml version="1.0" encoding="UTF-8" standalone="no"?>
<!DOCTYPE svg PUBLIC "-//W3C//DTD SVG 1.1//EN"
 "http://www.w3.org/Graphics/SVG/1.1/DTD/svg11.dtd">
<!-- Generated by graphviz version 2.43.0 (0)
 -->
<!-- Title: tracelogger.h Pages: 1 -->
<svg width="1795pt" height="565pt"
 viewBox="0.00 0.00 1795.00 565.00" xmlns="http://www.w3.org/2000/svg" xmlns:xlink="http://www.w3.org/1999/xlink">
<g id="graph0" class="graph" transform="scale(1 1) rotate(0) translate(4 561)">
<title>tracelogger.h</title>
<polygon fill="white" stroke="transparent" points="-4,4 -4,-561 1791,-561 1791,4 -4,4"/>
<!-- Node1 -->
<g id="node1" class="node">
<title>Node1</title>
<g id="a_node1"><a xlink:title=" ">
<polygon fill="#bfbfbf" stroke="black" points="125.5,-537.5 125.5,-556.5 205.5,-556.5 205.5,-537.5 125.5,-537.5"/>
<text text-anchor="middle" x="165.5" y="-544.5" font-family="Helvetica,sans-Serif" font-size="10.00">tracelogger.h</text>
</a>
</g>
</g>
<!-- Node2 -->
<g id="node2" class="node">
<title>Node2</title>
<g id="a_node2"><a xlink:href="config_8hxx.html" target="_top" xlink:title=" ">
<polygon fill="white" stroke="black" points="747.5,-73 747.5,-92 863.5,-92 863.5,-73 747.5,-73"/>
<text text-anchor="middle" x="805.5" y="-80" font-family="Helvetica,sans-Serif" font-size="10.00">log4cplus/config.hxx</text>
</a>
</g>
</g>
<!-- Node1&#45;&gt;Node2 -->
<g id="edge1" class="edge">
<title>Node1&#45;&gt;Node2</title>
<path fill="none" stroke="midnightblue" d="M165.5,-537.31C165.5,-518.06 165.5,-470.4 165.5,-430.5 165.5,-430.5 165.5,-430.5 165.5,-199 165.5,-158.46 192.82,-151.28 229.5,-134 317.89,-92.35 604.95,-84.84 737.4,-83.64"/>
<polygon fill="midnightblue" stroke="midnightblue" points="737.46,-87.14 747.43,-83.55 737.4,-80.14 737.46,-87.14"/>
</g>
<!-- Node5 -->
<g id="node5" class="node">
<title>Node5</title>
<g id="a_node5"><a xlink:href="logger_8h.html" target="_top" xlink:title="This header defines the Logger class and the logging macros.">
<polygon fill="white" stroke="black" points="383,-481.5 383,-500.5 488,-500.5 488,-481.5 383,-481.5"/>
<text text-anchor="middle" x="435.5" y="-488.5" font-family="Helvetica,sans-Serif" font-size="10.00">log4cplus/logger.h</text>
</a>
</g>
</g>
<!-- Node1&#45;&gt;Node5 -->
<g id="edge4" class="edge">
<title>Node1&#45;&gt;Node5</title>
<path fill="none" stroke="midnightblue" d="M205.63,-537.97C252.73,-528.55 330.98,-512.9 382.9,-502.52"/>
<polygon fill="midnightblue" stroke="midnightblue" points="383.8,-505.91 392.92,-500.52 382.43,-499.05 383.8,-505.91"/>
</g>
<!-- Node36 -->
<g id="node36" class="node">
<title>Node36</title>
<g id="a_node36"><a xlink:href="source__location_8h.html" target="_top" xlink:title=" ">
<polygon fill="white" stroke="black" points="0,-414.5 0,-444.5 137,-444.5 137,-414.5 0,-414.5"/>
<text text-anchor="start" x="8" y="-432.5" font-family="Helvetica,sans-Serif" font-size="10.00">log4cplus/helpers/source</text>
<text text-anchor="middle" x="68.5" y="-421.5" font-family="Helvetica,sans-Serif" font-size="10.00">_location.h</text>
</a>
</g>
</g>
<!-- Node1&#45;&gt;Node36 -->
<g id="edge73" class="edge">
<title>Node1&#45;&gt;Node36</title>
<path fill="none" stroke="midnightblue" d="M158.21,-537.32C143.18,-519.42 108.36,-477.97 86.79,-452.28"/>
<polygon fill="midnightblue" stroke="midnightblue" points="89.41,-449.95 80.3,-444.55 84.05,-454.45 89.41,-449.95"/>
</g>
<!-- Node3 -->
<g id="node3" class="node">
<title>Node3</title>
<g id="a_node3"><a xlink:href="win32_8h.html" target="_top" xlink:title=" ">
<polygon fill="white" stroke="black" points="660,-6 660,-25 797,-25 797,-6 660,-6"/>
<text text-anchor="middle" x="728.5" y="-13" font-family="Helvetica,sans-Serif" font-size="10.00">log4cplus/config/win32.h</text>
</a>
</g>
</g>
<!-- Node2&#45;&gt;Node3 -->
<g id="edge2" class="edge">
<title>Node2&#45;&gt;Node3</title>
<path fill="none" stroke="midnightblue" d="M795.12,-72.73C782.65,-62.21 761.53,-44.38 746.41,-31.62"/>
<polygon fill="midnightblue" stroke="midnightblue" points="748.62,-28.9 738.72,-25.13 744.1,-34.25 748.62,-28.9"/>
</g>
<!-- Node4 -->
<g id="node4" class="node">
<title>Node4</title>
<g id="a_node4"><a xlink:href="thread-config_8h.html" target="_top" xlink:title=" ">
<polygon fill="white" stroke="black" points="815,-0.5 815,-30.5 952,-30.5 952,-0.5 815,-0.5"/>
<text text-anchor="start" x="823" y="-18.5" font-family="Helvetica,sans-Serif" font-size="10.00">log4cplus/helpers/thread</text>
<text text-anchor="middle" x="883.5" y="-7.5" font-family="Helvetica,sans-Serif" font-size="10.00">&#45;config.h</text>
</a>
</g>
</g>
<!-- Node2&#45;&gt;Node4 -->
<g id="edge3" class="edge">
<title>Node2&#45;&gt;Node4</title>
<path fill="none" stroke="midnightblue" d="M816.02,-72.73C826.86,-63.7 844.17,-49.27 858.54,-37.3"/>
<polygon fill="midnightblue" stroke="midnightblue" points="861.15,-39.68 866.59,-30.59 856.67,-34.3 861.15,-39.68"/>
</g>
<!-- Node5&#45;&gt;Node2 -->
<g id="edge5" class="edge">
<title>Node5&#45;&gt;Node2</title>
<path fill="none" stroke="midnightblue" d="M382.86,-485.51C314.41,-476.47 203.5,-449.41 203.5,-369 203.5,-369 203.5,-369 203.5,-199 203.5,-141.83 260.16,-151.77 314.5,-134 391.29,-108.88 621.33,-93.37 737.21,-86.94"/>
<polygon fill="midnightblue" stroke="midnightblue" points="737.59,-90.42 747.39,-86.38 737.21,-83.43 737.59,-90.42"/>
</g>
<!-- Node6 -->
<g id="node6" class="node">
<title>Node6</title>
<g id="a_node6"><a xlink:href="loglevel_8h.html" target="_top" xlink:title="This header defines the LogLevel type.">
<polygon fill="white" stroke="black" points="1259.5,-246.5 1259.5,-265.5 1373.5,-265.5 1373.5,-246.5 1259.5,-246.5"/>
<text text-anchor="middle" x="1316.5" y="-253.5" font-family="Helvetica,sans-Serif" font-size="10.00">log4cplus/loglevel.h</text>
</a>
</g>
</g>
<!-- Node5&#45;&gt;Node6 -->
<g id="edge6" class="edge">
<title>Node5&#45;&gt;Node6</title>
<path fill="none" stroke="midnightblue" d="M488.33,-488.81C589.14,-485.89 815.64,-476.14 1003.5,-445 1122.5,-425.28 1161.15,-436.74 1266.5,-378 1297.8,-360.55 1310.5,-354.98 1324.5,-322 1330.81,-307.14 1327.66,-288.76 1323.6,-275.34"/>
<polygon fill="midnightblue" stroke="midnightblue" points="1326.88,-274.12 1320.31,-265.8 1320.26,-276.4 1326.88,-274.12"/>
</g>
<!-- Node7 -->
<g id="node7" class="node">
<title>Node7</title>
<g id="a_node7"><a xlink:title=" ">
<polygon fill="white" stroke="#bfbfbf" points="1644,-190.5 1644,-209.5 1691,-209.5 1691,-190.5 1644,-190.5"/>
<text text-anchor="middle" x="1667.5" y="-197.5" font-family="Helvetica,sans-Serif" font-size="10.00">vector</text>
</a>
</g>
</g>
<!-- Node5&#45;&gt;Node7 -->
<g id="edge72" class="edge">
<title>Node5&#45;&gt;Node7</title>
<path fill="none" stroke="midnightblue" d="M488.26,-488.07C737.12,-478.64 1781.5,-435.13 1781.5,-369 1781.5,-369 1781.5,-369 1781.5,-311 1781.5,-264.11 1730.95,-230.89 1697.17,-213.93"/>
<polygon fill="midnightblue" stroke="midnightblue" points="1698.67,-210.77 1688.14,-209.58 1695.63,-217.07 1698.67,-210.77"/>
</g>
<!-- Node10 -->
<g id="node10" class="node">
<title>Node10</title>
<g id="a_node10"><a xlink:href="tstring_8h.html" target="_top" xlink:title=" ">
<polygon fill="white" stroke="black" points="526,-190.5 526,-209.5 633,-209.5 633,-190.5 526,-190.5"/>
<text text-anchor="middle" x="579.5" y="-197.5" font-family="Helvetica,sans-Serif" font-size="10.00">log4cplus/tstring.h</text>
</a>
</g>
</g>
<!-- Node5&#45;&gt;Node10 -->
<g id="edge30" class="edge">
<title>Node5&#45;&gt;Node10</title>
<path fill="none" stroke="midnightblue" d="M439.81,-481.35C459.72,-441.38 543.04,-274.17 570.6,-218.85"/>
<polygon fill="midnightblue" stroke="midnightblue" points="573.88,-220.13 575.21,-209.62 567.61,-217.01 573.88,-220.13"/>
</g>
<!-- Node25 -->
<g id="node25" class="node">
<title>Node25</title>
<g id="a_node25"><a xlink:href="appenderattachable_8h.html" target="_top" xlink:title=" ">
<polygon fill="white" stroke="black" points="804.5,-420 804.5,-439 994.5,-439 994.5,-420 804.5,-420"/>
<text text-anchor="middle" x="899.5" y="-427" font-family="Helvetica,sans-Serif" font-size="10.00">log4cplus/spi/appenderattachable.h</text>
</a>
</g>
</g>
<!-- Node5&#45;&gt;Node25 -->
<g id="edge31" class="edge">
<title>Node5&#45;&gt;Node25</title>
<path fill="none" stroke="midnightblue" d="M488.27,-483.23C570.21,-472.73 728.38,-452.44 822.89,-440.32"/>
<polygon fill="midnightblue" stroke="midnightblue" points="823.49,-443.78 832.96,-439.03 822.6,-436.83 823.49,-443.78"/>
</g>
<!-- Node35 -->
<g id="node35" class="node">
<title>Node35</title>
<g id="a_node35"><a xlink:href="loggerfactory_8h.html" target="_top" xlink:title=" ">
<polygon fill="white" stroke="black" points="231.5,-246.5 231.5,-265.5 387.5,-265.5 387.5,-246.5 231.5,-246.5"/>
<text text-anchor="middle" x="309.5" y="-253.5" font-family="Helvetica,sans-Serif" font-size="10.00">log4cplus/spi/loggerfactory.h</text>
</a>
</g>
</g>
<!-- Node5&#45;&gt;Node35 -->
<g id="edge69" class="edge">
<title>Node5&#45;&gt;Node35</title>
<path fill="none" stroke="midnightblue" d="M430.87,-481.43C412.5,-447.47 344.59,-321.89 319.18,-274.9"/>
<polygon fill="midnightblue" stroke="midnightblue" points="322.15,-273.03 314.31,-265.9 315.99,-276.36 322.15,-273.03"/>
</g>
<!-- Node6&#45;&gt;Node2 -->
<g id="edge7" class="edge">
<title>Node6&#45;&gt;Node2</title>
<path fill="none" stroke="midnightblue" d="M1311.01,-246.37C1294.69,-221.03 1246.1,-147.74 1221.5,-134 1159.79,-99.54 975.59,-107.07 905.5,-98 894.71,-96.6 883.28,-95.03 872.15,-93.45"/>
<polygon fill="midnightblue" stroke="midnightblue" points="872.44,-89.96 862.05,-92.01 871.45,-96.89 872.44,-89.96"/>
</g>
<!-- Node6&#45;&gt;Node7 -->
<g id="edge8" class="edge">
<title>Node6&#45;&gt;Node7</title>
<path fill="none" stroke="midnightblue" d="M1373.58,-247.32C1451.56,-236.77 1586.3,-218.33 1633.71,-209.79"/>
<polygon fill="midnightblue" stroke="midnightblue" points="1634.64,-213.18 1643.79,-207.85 1633.31,-206.31 1634.64,-213.18"/>
</g>
<!-- Node8 -->
<g id="node8" class="node">
<title>Node8</title>
<g id="a_node8"><a xlink:title=" ">
<polygon fill="white" stroke="#bfbfbf" points="1297.5,-190.5 1297.5,-209.5 1355.5,-209.5 1355.5,-190.5 1297.5,-190.5"/>
<text text-anchor="middle" x="1326.5" y="-197.5" font-family="Helvetica,sans-Serif" font-size="10.00">memory</text>
</a>
</g>
</g>
<!-- Node6&#45;&gt;Node8 -->
<g id="edge9" class="edge">
<title>Node6&#45;&gt;Node8</title>
<path fill="none" stroke="midnightblue" d="M1318.15,-246.08C1319.48,-238.93 1321.38,-228.64 1323.04,-219.69"/>
<polygon fill="midnightblue" stroke="midnightblue" points="1326.5,-220.22 1324.88,-209.75 1319.62,-218.95 1326.5,-220.22"/>
</g>
<!-- Node9 -->
<g id="node9" class="node">
<title>Node9</title>
<g id="a_node9"><a xlink:title=" ">
<polygon fill="white" stroke="#bfbfbf" points="1373.5,-190.5 1373.5,-209.5 1459.5,-209.5 1459.5,-190.5 1373.5,-190.5"/>
<text text-anchor="middle" x="1416.5" y="-197.5" font-family="Helvetica,sans-Serif" font-size="10.00">shared_mutex</text>
</a>
</g>
</g>
<!-- Node6&#45;&gt;Node9 -->
<g id="edge10" class="edge">
<title>Node6&#45;&gt;Node9</title>
<path fill="none" stroke="midnightblue" d="M1332.57,-246.32C1348.46,-237.74 1373.01,-224.49 1391.46,-214.52"/>
<polygon fill="midnightblue" stroke="midnightblue" points="1393.34,-217.49 1400.47,-209.65 1390.01,-211.33 1393.34,-217.49"/>
</g>
<!-- Node6&#45;&gt;Node10 -->
<g id="edge11" class="edge">
<title>Node6&#45;&gt;Node10</title>
<path fill="none" stroke="midnightblue" d="M1259.28,-250.81C1124,-240.9 785.21,-216.07 643.44,-205.69"/>
<polygon fill="midnightblue" stroke="midnightblue" points="643.41,-202.17 633.18,-204.93 642.9,-209.15 643.41,-202.17"/>
</g>
<!-- Node17 -->
<g id="node17" class="node">
<title>Node17</title>
<g id="a_node17"><a xlink:href="pointer_8h.html" target="_top" xlink:title=" ">
<polygon fill="white" stroke="black" points="1477.5,-190.5 1477.5,-209.5 1625.5,-209.5 1625.5,-190.5 1477.5,-190.5"/>
<text text-anchor="middle" x="1551.5" y="-197.5" font-family="Helvetica,sans-Serif" font-size="10.00">log4cplus/helpers/pointer.h</text>
</a>
</g>
</g>
<!-- Node6&#45;&gt;Node17 -->
<g id="edge20" class="edge">
<title>Node6&#45;&gt;Node17</title>
<path fill="none" stroke="midnightblue" d="M1353.74,-246.44C1394.56,-237.06 1460.14,-221.99 1504.48,-211.8"/>
<polygon fill="midnightblue" stroke="midnightblue" points="1505.48,-215.17 1514.44,-209.52 1503.91,-208.34 1505.48,-215.17"/>
</g>
<!-- Node10&#45;&gt;Node2 -->
<g id="edge12" class="edge">
<title>Node10&#45;&gt;Node2</title>
<path fill="none" stroke="midnightblue" d="M525.79,-191.92C476.76,-183.3 415.84,-165.78 443.5,-134 480.83,-91.1 643.31,-83.52 737.42,-82.83"/>
<polygon fill="midnightblue" stroke="midnightblue" points="737.44,-86.33 747.42,-82.78 737.4,-79.33 737.44,-86.33"/>
</g>
<!-- Node11 -->
<g id="node11" class="node">
<title>Node11</title>
<g id="a_node11"><a xlink:title=" ">
<polygon fill="white" stroke="#bfbfbf" points="452,-134.5 452,-153.5 521,-153.5 521,-134.5 452,-134.5"/>
<text text-anchor="middle" x="486.5" y="-141.5" font-family="Helvetica,sans-Serif" font-size="10.00">type_traits</text>
</a>
</g>
</g>
<!-- Node10&#45;&gt;Node11 -->
<g id="edge13" class="edge">
<title>Node10&#45;&gt;Node11</title>
<path fill="none" stroke="midnightblue" d="M564.56,-190.32C549.91,-181.82 527.37,-168.73 510.26,-158.8"/>
<polygon fill="midnightblue" stroke="midnightblue" points="511.81,-155.65 501.4,-153.65 508.3,-161.7 511.81,-155.65"/>
</g>
<!-- Node12 -->
<g id="node12" class="node">
<title>Node12</title>
<g id="a_node12"><a xlink:title=" ">
<polygon fill="white" stroke="#bfbfbf" points="693,-134.5 693,-153.5 758,-153.5 758,-134.5 693,-134.5"/>
<text text-anchor="middle" x="725.5" y="-141.5" font-family="Helvetica,sans-Serif" font-size="10.00">functional</text>
</a>
</g>
</g>
<!-- Node10&#45;&gt;Node12 -->
<g id="edge14" class="edge">
<title>Node10&#45;&gt;Node12</title>
<path fill="none" stroke="midnightblue" d="M602.63,-190.44C626.98,-181.44 665.51,-167.19 692.92,-157.05"/>
<polygon fill="midnightblue" stroke="midnightblue" points="694.31,-160.27 702.47,-153.52 691.88,-153.7 694.31,-160.27"/>
</g>
<!-- Node13 -->
<g id="node13" class="node">
<title>Node13</title>
<g id="a_node13"><a xlink:title=" ">
<polygon fill="white" stroke="#bfbfbf" points="539.5,-134.5 539.5,-153.5 583.5,-153.5 583.5,-134.5 539.5,-134.5"/>
<text text-anchor="middle" x="561.5" y="-141.5" font-family="Helvetica,sans-Serif" font-size="10.00">string</text>
</a>
</g>
</g>
<!-- Node10&#45;&gt;Node13 -->
<g id="edge15" class="edge">
<title>Node10&#45;&gt;Node13</title>
<path fill="none" stroke="midnightblue" d="M576.53,-190.08C574.12,-182.85 570.64,-172.41 567.63,-163.4"/>
<polygon fill="midnightblue" stroke="midnightblue" points="570.9,-162.13 564.42,-153.75 564.26,-164.34 570.9,-162.13"/>
</g>
<!-- Node14 -->
<g id="node14" class="node">
<title>Node14</title>
<g id="a_node14"><a xlink:title=" ">
<polygon fill="white" stroke="#bfbfbf" points="602,-134.5 602,-153.5 675,-153.5 675,-134.5 602,-134.5"/>
<text text-anchor="middle" x="638.5" y="-141.5" font-family="Helvetica,sans-Serif" font-size="10.00">string_view</text>
</a>
</g>
</g>
<!-- Node10&#45;&gt;Node14 -->
<g id="edge16" class="edge">
<title>Node10&#45;&gt;Node14</title>
<path fill="none" stroke="midnightblue" d="M588.98,-190.32C597.7,-182.34 610.84,-170.31 621.4,-160.65"/>
<polygon fill="midnightblue" stroke="midnightblue" points="623.83,-163.17 628.85,-153.83 619.11,-158 623.83,-163.17"/>
</g>
<!-- Node15 -->
<g id="node15" class="node">
<title>Node15</title>
<g id="a_node15"><a xlink:href="tchar_8h.html" target="_top" xlink:title=" ">
<polygon fill="white" stroke="black" points="891,-134.5 891,-153.5 990,-153.5 990,-134.5 891,-134.5"/>
<text text-anchor="middle" x="940.5" y="-141.5" font-family="Helvetica,sans-Serif" font-size="10.00">log4cplus/tchar.h</text>
</a>
</g>
</g>
<!-- Node10&#45;&gt;Node15 -->
<g id="edge17" class="edge">
<title>Node10&#45;&gt;Node15</title>
<path fill="none" stroke="midnightblue" d="M633.16,-190.97C699.38,-181.07 811.68,-164.27 880.64,-153.95"/>
<polygon fill="midnightblue" stroke="midnightblue" points="881.54,-157.36 890.91,-152.42 880.5,-150.44 881.54,-157.36"/>
</g>
<!-- Node15&#45;&gt;Node2 -->
<g id="edge18" class="edge">
<title>Node15&#45;&gt;Node2</title>
<path fill="none" stroke="midnightblue" d="M921.16,-134.48C898.4,-124.45 860.41,-107.7 834.21,-96.15"/>
<polygon fill="midnightblue" stroke="midnightblue" points="835.37,-92.84 824.81,-92.01 832.55,-99.24 835.37,-92.84"/>
</g>
<!-- Node16 -->
<g id="node16" class="node">
<title>Node16</title>
<g id="a_node16"><a xlink:title=" ">
<polygon fill="white" stroke="#bfbfbf" points="914,-73 914,-92 967,-92 967,-73 914,-73"/>
<text text-anchor="middle" x="940.5" y="-80" font-family="Helvetica,sans-Serif" font-size="10.00">cstddef</text>
</a>
</g>
</g>
<!-- Node15&#45;&gt;Node16 -->
<g id="edge19" class="edge">
<title>Node15&#45;&gt;Node16</title>
<path fill="none" stroke="midnightblue" d="M940.5,-134.48C940.5,-126.08 940.5,-112.98 940.5,-102.16"/>
<polygon fill="midnightblue" stroke="midnightblue" points="944,-102.01 940.5,-92.01 937,-102.01 944,-102.01"/>
</g>
<!-- Node17&#45;&gt;Node2 -->
<g id="edge21" class="edge">
<title>Node17&#45;&gt;Node2</title>
<path fill="none" stroke="midnightblue" d="M1504.05,-190.46C1466.97,-183.02 1414.53,-170.78 1370.5,-154 1352.67,-147.2 1350.82,-139.35 1332.5,-134 1149.69,-80.58 1094.71,-119.67 905.5,-98 894.11,-96.7 882.02,-95.11 870.32,-93.48"/>
<polygon fill="midnightblue" stroke="midnightblue" points="870.57,-89.98 860.18,-92.03 869.59,-96.91 870.57,-89.98"/>
</g>
<!-- Node18 -->
<g id="node18" class="node">
<title>Node18</title>
<g id="a_node18"><a xlink:href="syncprims_8h.html" target="_top" xlink:title=" ">
<polygon fill="white" stroke="black" points="1379.5,-134.5 1379.5,-153.5 1539.5,-153.5 1539.5,-134.5 1379.5,-134.5"/>
<text text-anchor="middle" x="1459.5" y="-141.5" font-family="Helvetica,sans-Serif" font-size="10.00">log4cplus/thread/syncprims.h</text>
</a>
</g>
</g>
<!-- Node17&#45;&gt;Node18 -->
<g id="edge22" class="edge">
<title>Node17&#45;&gt;Node18</title>
<path fill="none" stroke="midnightblue" d="M1536.72,-190.32C1522.23,-181.82 1499.93,-168.73 1483.01,-158.8"/>
<polygon fill="midnightblue" stroke="midnightblue" points="1484.64,-155.7 1474.24,-153.65 1481.1,-161.74 1484.64,-155.7"/>
</g>
<!-- Node22 -->
<g id="node22" class="node">
<title>Node22</title>
<g id="a_node22"><a xlink:title=" ">
<polygon fill="white" stroke="#bfbfbf" points="1557.5,-134.5 1557.5,-153.5 1621.5,-153.5 1621.5,-134.5 1557.5,-134.5"/>
<text text-anchor="middle" x="1589.5" y="-141.5" font-family="Helvetica,sans-Serif" font-size="10.00">algorithm</text>
</a>
</g>
</g>
<!-- Node17&#45;&gt;Node22 -->
<g id="edge27" class="edge">
<title>Node17&#45;&gt;Node22</title>
<path fill="none" stroke="midnightblue" d="M1557.77,-190.08C1563.14,-182.46 1571.02,-171.26 1577.58,-161.94"/>
<polygon fill="midnightblue" stroke="midnightblue" points="1580.45,-163.94 1583.34,-153.75 1574.72,-159.91 1580.45,-163.94"/>
</g>
<!-- Node23 -->
<g id="node23" class="node">
<title>Node23</title>
<g id="a_node23"><a xlink:title=" ">
<polygon fill="white" stroke="#bfbfbf" points="1639.5,-134.5 1639.5,-153.5 1691.5,-153.5 1691.5,-134.5 1639.5,-134.5"/>
<text text-anchor="middle" x="1665.5" y="-141.5" font-family="Helvetica,sans-Serif" font-size="10.00">cassert</text>
</a>
</g>
</g>
<!-- Node17&#45;&gt;Node23 -->
<g id="edge28" class="edge">
<title>Node17&#45;&gt;Node23</title>
<path fill="none" stroke="midnightblue" d="M1569.56,-190.44C1588.07,-181.68 1617.08,-167.94 1638.36,-157.86"/>
<polygon fill="midnightblue" stroke="midnightblue" points="1639.98,-160.96 1647.52,-153.52 1636.99,-154.63 1639.98,-160.96"/>
</g>
<!-- Node24 -->
<g id="node24" class="node">
<title>Node24</title>
<g id="a_node24"><a xlink:title=" ">
<polygon fill="white" stroke="#bfbfbf" points="1273.5,-134.5 1273.5,-153.5 1323.5,-153.5 1323.5,-134.5 1273.5,-134.5"/>
<text text-anchor="middle" x="1298.5" y="-141.5" font-family="Helvetica,sans-Serif" font-size="10.00">atomic</text>
</a>
</g>
</g>
<!-- Node17&#45;&gt;Node24 -->
<g id="edge29" class="edge">
<title>Node17&#45;&gt;Node24</title>
<path fill="none" stroke="midnightblue" d="M1509.62,-190.45C1466.44,-181.57 1397.19,-167.16 1337.5,-154 1336.24,-153.72 1334.96,-153.44 1333.66,-153.15"/>
<polygon fill="midnightblue" stroke="midnightblue" points="1334.19,-149.68 1323.66,-150.88 1332.64,-156.5 1334.19,-149.68"/>
</g>
<!-- Node18&#45;&gt;Node2 -->
<g id="edge23" class="edge">
<title>Node18&#45;&gt;Node2</title>
<path fill="none" stroke="midnightblue" d="M1379.26,-135.22C1374.6,-134.8 1369.99,-134.39 1365.5,-134 1161.2,-116.23 1109.31,-120.73 905.5,-98 893.97,-96.71 881.73,-95.13 869.9,-93.48"/>
<polygon fill="midnightblue" stroke="midnightblue" points="870.04,-89.96 859.65,-92.02 869.06,-96.89 870.04,-89.96"/>
</g>
<!-- Node19 -->
<g id="node19" class="node">
<title>Node19</title>
<g id="a_node19"><a xlink:title=" ">
<polygon fill="white" stroke="#bfbfbf" points="1590.5,-73 1590.5,-92 1638.5,-92 1638.5,-73 1590.5,-73"/>
<text text-anchor="middle" x="1614.5" y="-80" font-family="Helvetica,sans-Serif" font-size="10.00">mutex</text>
</a>
</g>
</g>
<!-- Node18&#45;&gt;Node19 -->
<g id="edge24" class="edge">
<title>Node18&#45;&gt;Node19</title>
<path fill="none" stroke="midnightblue" d="M1481.71,-134.48C1508.18,-124.31 1552.61,-107.26 1582.72,-95.7"/>
<polygon fill="midnightblue" stroke="midnightblue" points="1584.25,-98.86 1592.33,-92.01 1581.74,-92.33 1584.25,-98.86"/>
</g>
<!-- Node20 -->
<g id="node20" class="node">
<title>Node20</title>
<g id="a_node20"><a xlink:title=" ">
<polygon fill="white" stroke="#bfbfbf" points="1680,-73 1680,-92 1787,-92 1787,-73 1680,-73"/>
<text text-anchor="middle" x="1733.5" y="-80" font-family="Helvetica,sans-Serif" font-size="10.00">condition_variable</text>
</a>
</g>
</g>
<!-- Node18&#45;&gt;Node20 -->
<g id="edge25" class="edge">
<title>Node18&#45;&gt;Node20</title>
<path fill="none" stroke="midnightblue" d="M1498.76,-134.48C1547.69,-123.85 1631.34,-105.68 1684.45,-94.15"/>
<polygon fill="midnightblue" stroke="midnightblue" points="1685.29,-97.55 1694.32,-92.01 1683.8,-90.71 1685.29,-97.55"/>
</g>
<!-- Node21 -->
<g id="node21" class="node">
<title>Node21</title>
<g id="a_node21"><a xlink:href="threadsafetyanalysis_8h.html" target="_top" xlink:title=" ">
<polygon fill="white" stroke="black" points="1394,-67.5 1394,-97.5 1525,-97.5 1525,-67.5 1394,-67.5"/>
<text text-anchor="start" x="1402" y="-85.5" font-family="Helvetica,sans-Serif" font-size="10.00">log4cplus/internal</text>
<text text-anchor="middle" x="1459.5" y="-74.5" font-family="Helvetica,sans-Serif" font-size="10.00">/threadsafetyanalysis.h</text>
</a>
</g>
</g>
<!-- Node18&#45;&gt;Node21 -->
<g id="edge26" class="edge">
<title>Node18&#45;&gt;Node21</title>
<path fill="none" stroke="midnightblue" d="M1459.5,-134.48C1459.5,-127.47 1459.5,-117.19 1459.5,-107.7"/>
<polygon fill="midnightblue" stroke="midnightblue" points="1463,-107.52 1459.5,-97.52 1456,-107.52 1463,-107.52"/>
</g>
<!-- Node25&#45;&gt;Node2 -->
<g id="edge32" class="edge">
<title>Node25&#45;&gt;Node2</title>
<path fill="none" stroke="midnightblue" d="M824.23,-419.98C779.88,-412.89 723.61,-400.23 677.5,-378 542.22,-312.78 475.87,-295.12 424.5,-154 421.46,-145.65 418.64,-140.69 424.5,-134 444.74,-110.9 632.95,-94.91 737.04,-87.74"/>
<polygon fill="midnightblue" stroke="midnightblue" points="737.41,-91.23 747.15,-87.06 736.94,-84.24 737.41,-91.23"/>
</g>
<!-- Node25&#45;&gt;Node7 -->
<g id="edge68" class="edge">
<title>Node25&#45;&gt;Node7</title>
<path fill="none" stroke="midnightblue" d="M994.81,-425.3C1078.62,-420.47 1203.16,-408.36 1307.5,-378 1363.24,-361.78 1373.31,-347.43 1425.5,-322 1504.41,-283.55 1597.06,-236.76 1641.35,-214.3"/>
<polygon fill="midnightblue" stroke="midnightblue" points="1643.21,-217.28 1650.54,-209.63 1640.04,-211.03 1643.21,-217.28"/>
</g>
<!-- Node25&#45;&gt;Node10 -->
<g id="edge66" class="edge">
<title>Node25&#45;&gt;Node10</title>
<path fill="none" stroke="midnightblue" d="M850.09,-419.96C776.41,-404.24 640.35,-363 583.5,-266 575.37,-252.13 575.04,-233.62 576.35,-219.9"/>
<polygon fill="midnightblue" stroke="midnightblue" points="579.86,-220.08 577.7,-209.7 572.92,-219.16 579.86,-220.08"/>
</g>
<!-- Node25&#45;&gt;Node17 -->
<g id="edge67" class="edge">
<title>Node25&#45;&gt;Node17</title>
<path fill="none" stroke="midnightblue" d="M994.55,-422.86C1069.55,-416.65 1176.23,-403.86 1266.5,-378 1325.02,-361.24 1337.23,-349.58 1391.5,-322 1436.22,-299.27 1450,-296.92 1489.5,-266 1508.01,-251.51 1526.21,-231.55 1538.06,-217.59"/>
<polygon fill="midnightblue" stroke="midnightblue" points="1540.86,-219.7 1544.56,-209.77 1535.47,-215.22 1540.86,-219.7"/>
</g>
<!-- Node26 -->
<g id="node26" class="node">
<title>Node26</title>
<g id="a_node26"><a xlink:href="appender_8h.html" target="_top" xlink:title=" ">
<polygon fill="white" stroke="black" points="1137.5,-358.5 1137.5,-377.5 1257.5,-377.5 1257.5,-358.5 1137.5,-358.5"/>
<text text-anchor="middle" x="1197.5" y="-365.5" font-family="Helvetica,sans-Serif" font-size="10.00">log4cplus/appender.h</text>
</a>
</g>
</g>
<!-- Node25&#45;&gt;Node26 -->
<g id="edge33" class="edge">
<title>Node25&#45;&gt;Node26</title>
<path fill="none" stroke="midnightblue" d="M942.2,-419.98C995.64,-409.3 1087.15,-391.03 1144.87,-379.51"/>
<polygon fill="midnightblue" stroke="midnightblue" points="1145.76,-382.9 1154.88,-377.51 1144.39,-376.03 1145.76,-382.9"/>
</g>
<!-- Node26&#45;&gt;Node2 -->
<g id="edge34" class="edge">
<title>Node26&#45;&gt;Node2</title>
<path fill="none" stroke="midnightblue" d="M1137.35,-365.5C1018,-361.93 755.46,-350.96 670.5,-322 617.7,-304 436.74,-162.41 432.5,-154 428.5,-146.06 426.65,-140.69 432.5,-134 452.19,-111.46 634.74,-95.32 736.95,-87.96"/>
<polygon fill="midnightblue" stroke="midnightblue" points="737.46,-91.43 747.19,-87.23 736.97,-84.45 737.46,-91.43"/>
</g>
<!-- Node26&#45;&gt;Node6 -->
<g id="edge50" class="edge">
<title>Node26&#45;&gt;Node6</title>
<path fill="none" stroke="midnightblue" d="M1245.36,-358.43C1267.25,-352.04 1291.57,-341 1306.5,-322 1316.74,-308.97 1318.58,-289.81 1318.26,-275.67"/>
<polygon fill="midnightblue" stroke="midnightblue" points="1321.75,-275.38 1317.65,-265.61 1314.76,-275.81 1321.75,-275.38"/>
</g>
<!-- Node26&#45;&gt;Node8 -->
<g id="edge62" class="edge">
<title>Node26&#45;&gt;Node8</title>
<path fill="none" stroke="midnightblue" d="M1243.78,-358.43C1290.56,-346.84 1359.19,-320.9 1382.5,-266 1391.19,-245.52 1370.68,-226.82 1352.09,-214.78"/>
<polygon fill="midnightblue" stroke="midnightblue" points="1353.88,-211.78 1343.52,-209.59 1350.25,-217.77 1353.88,-211.78"/>
</g>
<!-- Node26&#45;&gt;Node10 -->
<g id="edge51" class="edge">
<title>Node26&#45;&gt;Node10</title>
<path fill="none" stroke="midnightblue" d="M1137.33,-364.55C1002.39,-357.86 681.16,-334.93 601.5,-266 588.15,-254.45 582.88,-234.48 580.81,-219.72"/>
<polygon fill="midnightblue" stroke="midnightblue" points="584.29,-219.26 579.78,-209.67 577.32,-219.98 584.29,-219.26"/>
</g>
<!-- Node26&#45;&gt;Node17 -->
<g id="edge52" class="edge">
<title>Node26&#45;&gt;Node17</title>
<path fill="none" stroke="midnightblue" d="M1240.07,-358.49C1272.98,-351.1 1319.23,-338.9 1357.5,-322 1425.83,-291.82 1498.53,-240.63 1532.26,-215.62"/>
<polygon fill="midnightblue" stroke="midnightblue" points="1534.42,-218.37 1540.33,-209.58 1530.23,-212.77 1534.42,-218.37"/>
</g>
<!-- Node26&#45;&gt;Node19 -->
<g id="edge63" class="edge">
<title>Node26&#45;&gt;Node19</title>
<path fill="none" stroke="midnightblue" d="M1252.08,-358.43C1371.21,-338.46 1648.04,-284.81 1700.5,-210 1719.89,-182.34 1717.28,-163.31 1700.5,-134 1689.29,-114.42 1667.22,-101.69 1648.24,-93.91"/>
<polygon fill="midnightblue" stroke="midnightblue" points="1649.26,-90.55 1638.67,-90.28 1646.78,-97.1 1649.26,-90.55"/>
</g>
<!-- Node26&#45;&gt;Node20 -->
<g id="edge65" class="edge">
<title>Node26&#45;&gt;Node20</title>
<path fill="none" stroke="midnightblue" d="M1257.67,-360.69C1316.36,-353.81 1407.87,-341.16 1485.5,-322 1560.28,-303.54 1581.98,-303.05 1649.5,-266 1684.43,-246.83 1700.29,-244.9 1719.5,-210 1738.43,-175.6 1737.83,-128 1735.69,-102.11"/>
<polygon fill="midnightblue" stroke="midnightblue" points="1739.17,-101.75 1734.69,-92.15 1732.2,-102.45 1739.17,-101.75"/>
</g>
<!-- Node26&#45;&gt;Node24 -->
<g id="edge64" class="edge">
<title>Node26&#45;&gt;Node24</title>
<path fill="none" stroke="midnightblue" d="M1190.45,-358.18C1181.36,-345.69 1167.51,-322.13 1174.5,-302 1195.66,-241.08 1251.35,-185.94 1280.36,-160.24"/>
<polygon fill="midnightblue" stroke="midnightblue" points="1282.85,-162.71 1288.11,-153.52 1278.26,-157.43 1282.85,-162.71"/>
</g>
<!-- Node27 -->
<g id="node27" class="node">
<title>Node27</title>
<g id="a_node27"><a xlink:href="layout_8h.html" target="_top" xlink:title=" ">
<polygon fill="white" stroke="black" points="1020.5,-302.5 1020.5,-321.5 1126.5,-321.5 1126.5,-302.5 1020.5,-302.5"/>
<text text-anchor="middle" x="1073.5" y="-309.5" font-family="Helvetica,sans-Serif" font-size="10.00">log4cplus/layout.h</text>
</a>
</g>
</g>
<!-- Node26&#45;&gt;Node27 -->
<g id="edge35" class="edge">
<title>Node26&#45;&gt;Node27</title>
<path fill="none" stroke="midnightblue" d="M1177.85,-358.44C1157.54,-349.6 1125.6,-335.69 1102.4,-325.59"/>
<polygon fill="midnightblue" stroke="midnightblue" points="1103.62,-322.3 1093.06,-321.52 1100.83,-328.72 1103.62,-322.3"/>
</g>
<!-- Node33 -->
<g id="node33" class="node">
<title>Node33</title>
<g id="a_node33"><a xlink:href="filter_8h.html" target="_top" xlink:title="This header defines Filter and all of it&#39;s subclasses.">
<polygon fill="white" stroke="black" points="1183.5,-302.5 1183.5,-321.5 1297.5,-321.5 1297.5,-302.5 1183.5,-302.5"/>
<text text-anchor="middle" x="1240.5" y="-309.5" font-family="Helvetica,sans-Serif" font-size="10.00">log4cplus/spi/filter.h</text>
</a>
</g>
</g>
<!-- Node26&#45;&gt;Node33 -->
<g id="edge53" class="edge">
<title>Node26&#45;&gt;Node33</title>
<path fill="none" stroke="midnightblue" d="M1204.6,-358.08C1210.74,-350.38 1219.77,-339.03 1227.24,-329.65"/>
<polygon fill="midnightblue" stroke="midnightblue" points="1230.04,-331.75 1233.53,-321.75 1224.56,-327.39 1230.04,-331.75"/>
</g>
<!-- Node34 -->
<g id="node34" class="node">
<title>Node34</title>
<g id="a_node34"><a xlink:href="lockfile_8h.html" target="_top" xlink:title=" ">
<polygon fill="white" stroke="black" points="636,-246.5 636,-265.5 785,-265.5 785,-246.5 636,-246.5"/>
<text text-anchor="middle" x="710.5" y="-253.5" font-family="Helvetica,sans-Serif" font-size="10.00">log4cplus/helpers/lockfile.h</text>
</a>
</g>
</g>
<!-- Node26&#45;&gt;Node34 -->
<g id="edge58" class="edge">
<title>Node26&#45;&gt;Node34</title>
<path fill="none" stroke="midnightblue" d="M1159.69,-358.46C1071.95,-338.64 854.65,-289.56 758.07,-267.75"/>
<polygon fill="midnightblue" stroke="midnightblue" points="758.81,-264.32 748.28,-265.53 757.27,-271.15 758.81,-264.32"/>
</g>
<!-- Node27&#45;&gt;Node2 -->
<g id="edge36" class="edge">
<title>Node27&#45;&gt;Node2</title>
<path fill="none" stroke="midnightblue" d="M1020.32,-304.43C953.08,-295.62 844.46,-279.52 831.5,-266 788.54,-221.18 795.76,-139.48 801.78,-102.54"/>
<polygon fill="midnightblue" stroke="midnightblue" points="805.31,-102.68 803.62,-92.22 798.42,-101.45 805.31,-102.68"/>
</g>
<!-- Node27&#45;&gt;Node6 -->
<g id="edge37" class="edge">
<title>Node27&#45;&gt;Node6</title>
<path fill="none" stroke="midnightblue" d="M1112,-302.44C1154.31,-293.04 1222.32,-277.93 1268.17,-267.74"/>
<polygon fill="midnightblue" stroke="midnightblue" points="1269.17,-271.1 1278.18,-265.52 1267.65,-264.27 1269.17,-271.1"/>
</g>
<!-- Node27&#45;&gt;Node7 -->
<g id="edge48" class="edge">
<title>Node27&#45;&gt;Node7</title>
<path fill="none" stroke="midnightblue" d="M1126.73,-304.47C1188.47,-296.61 1293.19,-282.4 1382.5,-266 1492.15,-245.86 1521.48,-237.99 1633.71,-210.11"/>
<polygon fill="midnightblue" stroke="midnightblue" points="1634.88,-213.43 1643.74,-207.62 1633.19,-206.64 1634.88,-213.43"/>
</g>
<!-- Node27&#45;&gt;Node8 -->
<g id="edge49" class="edge">
<title>Node27&#45;&gt;Node8</title>
<path fill="none" stroke="midnightblue" d="M1093.35,-302.37C1137.78,-283.05 1245.4,-236.26 1297.41,-213.65"/>
<polygon fill="midnightblue" stroke="midnightblue" points="1298.96,-216.79 1306.74,-209.59 1296.17,-210.37 1298.96,-216.79"/>
</g>
<!-- Node27&#45;&gt;Node10 -->
<g id="edge42" class="edge">
<title>Node27&#45;&gt;Node10</title>
<path fill="none" stroke="midnightblue" d="M1020.43,-310.94C917.12,-309.99 693.35,-303.5 627.5,-266 608.88,-255.4 595.39,-234.31 587.54,-219.02"/>
<polygon fill="midnightblue" stroke="midnightblue" points="590.49,-217.07 583.01,-209.56 584.17,-220.09 590.49,-217.07"/>
</g>
<!-- Node28 -->
<g id="node28" class="node">
<title>Node28</title>
<g id="a_node28"><a xlink:href="streams_8h.html" target="_top" xlink:title=" ">
<polygon fill="white" stroke="black" points="1012,-190.5 1012,-209.5 1127,-209.5 1127,-190.5 1012,-190.5"/>
<text text-anchor="middle" x="1069.5" y="-197.5" font-family="Helvetica,sans-Serif" font-size="10.00">log4cplus/streams.h</text>
</a>
</g>
</g>
<!-- Node27&#45;&gt;Node28 -->
<g id="edge38" class="edge">
<title>Node27&#45;&gt;Node28</title>
<path fill="none" stroke="midnightblue" d="M1073.19,-302.37C1072.54,-284.62 1071.05,-243.67 1070.18,-219.6"/>
<polygon fill="midnightblue" stroke="midnightblue" points="1073.67,-219.46 1069.81,-209.59 1066.68,-219.71 1073.67,-219.46"/>
</g>
<!-- Node30 -->
<g id="node30" class="node">
<title>Node30</title>
<g id="a_node30"><a xlink:href="timehelper_8h.html" target="_top" xlink:title=" ">
<polygon fill="white" stroke="black" points="840,-246.5 840,-265.5 1007,-265.5 1007,-246.5 840,-246.5"/>
<text text-anchor="middle" x="923.5" y="-253.5" font-family="Helvetica,sans-Serif" font-size="10.00">log4cplus/helpers/timehelper.h</text>
</a>
</g>
</g>
<!-- Node27&#45;&gt;Node30 -->
<g id="edge43" class="edge">
<title>Node27&#45;&gt;Node30</title>
<path fill="none" stroke="midnightblue" d="M1049.73,-302.44C1024.61,-293.4 984.79,-279.06 956.6,-268.92"/>
<polygon fill="midnightblue" stroke="midnightblue" points="957.75,-265.61 947.16,-265.52 955.38,-272.2 957.75,-265.61"/>
</g>
<!-- Node28&#45;&gt;Node2 -->
<g id="edge39" class="edge">
<title>Node28&#45;&gt;Node2</title>
<path fill="none" stroke="midnightblue" d="M1062.73,-190.4C1051.24,-176.42 1026.55,-148.83 999.5,-134 960.7,-112.73 912.59,-100.13 873.99,-92.84"/>
<polygon fill="midnightblue" stroke="midnightblue" points="874.34,-89.34 863.88,-91 873.1,-96.23 874.34,-89.34"/>
</g>
<!-- Node28&#45;&gt;Node15 -->
<g id="edge40" class="edge">
<title>Node28&#45;&gt;Node15</title>
<path fill="none" stroke="midnightblue" d="M1049.06,-190.44C1027.83,-181.56 994.4,-167.56 970.25,-157.45"/>
<polygon fill="midnightblue" stroke="midnightblue" points="971.42,-154.15 960.84,-153.52 968.72,-160.61 971.42,-154.15"/>
</g>
<!-- Node29 -->
<g id="node29" class="node">
<title>Node29</title>
<g id="a_node29"><a xlink:title=" ">
<polygon fill="white" stroke="#bfbfbf" points="1046.5,-134.5 1046.5,-153.5 1094.5,-153.5 1094.5,-134.5 1046.5,-134.5"/>
<text text-anchor="middle" x="1070.5" y="-141.5" font-family="Helvetica,sans-Serif" font-size="10.00">iosfwd</text>
</a>
</g>
</g>
<!-- Node28&#45;&gt;Node29 -->
<g id="edge41" class="edge">
<title>Node28&#45;&gt;Node29</title>
<path fill="none" stroke="midnightblue" d="M1069.67,-190.08C1069.8,-183.01 1069.98,-172.86 1070.15,-163.99"/>
<polygon fill="midnightblue" stroke="midnightblue" points="1073.65,-163.81 1070.34,-153.75 1066.65,-163.68 1073.65,-163.81"/>
</g>
<!-- Node30&#45;&gt;Node2 -->
<g id="edge44" class="edge">
<title>Node30&#45;&gt;Node2</title>
<path fill="none" stroke="midnightblue" d="M886.8,-246.35C867.67,-239.77 845.93,-228.58 834.5,-210 816.78,-181.19 848.15,-166.42 838.5,-134 834.79,-121.52 826.9,-109.26 819.77,-99.94"/>
<polygon fill="midnightblue" stroke="midnightblue" points="822.34,-97.56 813.32,-92 816.91,-101.97 822.34,-97.56"/>
</g>
<!-- Node30&#45;&gt;Node10 -->
<g id="edge45" class="edge">
<title>Node30&#45;&gt;Node10</title>
<path fill="none" stroke="midnightblue" d="M868.99,-246.44C807.67,-236.82 708.18,-221.2 643.29,-211.01"/>
<polygon fill="midnightblue" stroke="midnightblue" points="643.61,-207.52 633.19,-209.43 642.52,-214.44 643.61,-207.52"/>
</g>
<!-- Node31 -->
<g id="node31" class="node">
<title>Node31</title>
<g id="a_node31"><a xlink:title=" ">
<polygon fill="white" stroke="#bfbfbf" points="843.5,-190.5 843.5,-209.5 887.5,-209.5 887.5,-190.5 843.5,-190.5"/>
<text text-anchor="middle" x="865.5" y="-197.5" font-family="Helvetica,sans-Serif" font-size="10.00">ctime</text>
</a>
</g>
</g>
<!-- Node30&#45;&gt;Node31 -->
<g id="edge46" class="edge">
<title>Node30&#45;&gt;Node31</title>
<path fill="none" stroke="midnightblue" d="M914.18,-246.32C905.61,-238.34 892.69,-226.31 882.31,-216.65"/>
<polygon fill="midnightblue" stroke="midnightblue" points="884.69,-214.09 874.99,-209.83 879.92,-219.21 884.69,-214.09"/>
</g>
<!-- Node32 -->
<g id="node32" class="node">
<title>Node32</title>
<g id="a_node32"><a xlink:title=" ">
<polygon fill="white" stroke="#bfbfbf" points="905.5,-190.5 905.5,-209.5 955.5,-209.5 955.5,-190.5 905.5,-190.5"/>
<text text-anchor="middle" x="930.5" y="-197.5" font-family="Helvetica,sans-Serif" font-size="10.00">chrono</text>
</a>
</g>
</g>
<!-- Node30&#45;&gt;Node32 -->
<g id="edge47" class="edge">
<title>Node30&#45;&gt;Node32</title>
<path fill="none" stroke="midnightblue" d="M924.66,-246.08C925.58,-238.93 926.92,-228.64 928.08,-219.69"/>
<polygon fill="midnightblue" stroke="midnightblue" points="931.55,-220.12 929.37,-209.75 924.61,-219.22 931.55,-220.12"/>
</g>
<!-- Node33&#45;&gt;Node2 -->
<g id="edge54" class="edge">
<title>Node33&#45;&gt;Node2</title>
<path fill="none" stroke="midnightblue" d="M1236.6,-302.14C1223.08,-272.6 1175.16,-176.95 1103.5,-134 1093.62,-128.08 957.06,-106.52 872.28,-93.56"/>
<polygon fill="midnightblue" stroke="midnightblue" points="872.62,-90.07 862.21,-92.02 871.56,-96.99 872.62,-90.07"/>
</g>
<!-- Node33&#45;&gt;Node6 -->
<g id="edge57" class="edge">
<title>Node33&#45;&gt;Node6</title>
<path fill="none" stroke="midnightblue" d="M1252.71,-302.32C1264.28,-294.11 1281.88,-281.6 1295.66,-271.81"/>
<polygon fill="midnightblue" stroke="midnightblue" points="1297.94,-274.48 1304.07,-265.83 1293.89,-268.77 1297.94,-274.48"/>
</g>
<!-- Node33&#45;&gt;Node12 -->
<g id="edge55" class="edge">
<title>Node33&#45;&gt;Node12</title>
<path fill="none" stroke="midnightblue" d="M1219.03,-302.45C1177.17,-285.64 1081.86,-246.73 1003.5,-210 985.86,-201.73 982.93,-196.31 964.5,-190 898.07,-167.25 817.09,-155.07 768.5,-149.32"/>
<polygon fill="midnightblue" stroke="midnightblue" points="768.68,-145.82 758.35,-148.16 767.88,-152.78 768.68,-145.82"/>
</g>
<!-- Node33&#45;&gt;Node17 -->
<g id="edge56" class="edge">
<title>Node33&#45;&gt;Node17</title>
<path fill="none" stroke="midnightblue" d="M1269.23,-302.45C1298.03,-293.75 1343.57,-279.64 1382.5,-266 1431.51,-248.83 1487.64,-226.75 1521.29,-213.25"/>
<polygon fill="midnightblue" stroke="midnightblue" points="1522.6,-216.5 1530.57,-209.52 1519.99,-210 1522.6,-216.5"/>
</g>
<!-- Node34&#45;&gt;Node2 -->
<g id="edge59" class="edge">
<title>Node34&#45;&gt;Node2</title>
<path fill="none" stroke="midnightblue" d="M715.44,-246.39C725.39,-228.99 748.54,-188.38 767.5,-154 777.34,-136.17 788.35,-115.67 795.98,-101.39"/>
<polygon fill="midnightblue" stroke="midnightblue" points="799.26,-102.68 800.87,-92.21 793.08,-99.39 799.26,-102.68"/>
</g>
<!-- Node34&#45;&gt;Node10 -->
<g id="edge60" class="edge">
<title>Node34&#45;&gt;Node10</title>
<path fill="none" stroke="midnightblue" d="M689.74,-246.44C668.18,-237.56 634.24,-223.56 609.71,-213.45"/>
<polygon fill="midnightblue" stroke="midnightblue" points="610.74,-210.09 600.16,-209.52 608.07,-216.56 610.74,-210.09"/>
</g>
<!-- Node34&#45;&gt;Node18 -->
<g id="edge61" class="edge">
<title>Node34&#45;&gt;Node18</title>
<path fill="none" stroke="midnightblue" d="M785.03,-249.25C870.28,-242.18 1013.92,-228.77 1136.5,-210 1235.59,-194.83 1350.37,-169.97 1412.93,-155.8"/>
<polygon fill="midnightblue" stroke="midnightblue" points="1413.91,-159.16 1422.88,-153.53 1412.36,-152.34 1413.91,-159.16"/>
</g>
<!-- Node35&#45;&gt;Node2 -->
<g id="edge70" class="edge">
<title>Node35&#45;&gt;Node2</title>
<path fill="none" stroke="midnightblue" d="M308.16,-246.36C305.24,-223.98 300.94,-163.77 333.5,-134 362.67,-107.32 613.22,-92.27 736.95,-86.4"/>
<polygon fill="midnightblue" stroke="midnightblue" points="737.25,-89.89 747.07,-85.92 736.92,-82.9 737.25,-89.89"/>
</g>
<!-- Node35&#45;&gt;Node10 -->
<g id="edge71" class="edge">
<title>Node35&#45;&gt;Node10</title>
<path fill="none" stroke="midnightblue" d="M352.28,-246.44C399.68,-236.96 476.13,-221.67 527.08,-211.48"/>
<polygon fill="midnightblue" stroke="midnightblue" points="527.8,-214.91 536.92,-209.52 526.43,-208.05 527.8,-214.91"/>
</g>
<!-- Node36&#45;&gt;Node2 -->
<g id="edge74" class="edge">
<title>Node36&#45;&gt;Node2</title>
<path fill="none" stroke="midnightblue" d="M74.72,-414.22C83.5,-392.71 98.5,-350.5 98.5,-313 98.5,-313 98.5,-313 98.5,-199 98.5,-161.72 118.47,-151.28 151.5,-134 202.48,-107.34 580.43,-91.3 737.43,-85.73"/>
<polygon fill="midnightblue" stroke="midnightblue" points="737.57,-89.23 747.44,-85.38 737.33,-82.23 737.57,-89.23"/>
</g>
</g>
</svg>
