<?xml version="1.0" encoding="UTF-8" standalone="no"?>
<!DOCTYPE svg PUBLIC "-//W3C//DTD SVG 1.1//EN"
 "http://www.w3.org/Graphics/SVG/1.1/DTD/svg11.dtd">
<!-- Generated by graphviz version 2.43.0 (0)
 -->
<!-- Title: tstring.h Pages: 1 -->
<svg width="455pt" height="207pt"
 viewBox="0.00 0.00 455.00 207.00" xmlns="http://www.w3.org/2000/svg" xmlns:xlink="http://www.w3.org/1999/xlink">
<g id="graph0" class="graph" transform="scale(1 1) rotate(0) translate(4 203)">
<title>tstring.h</title>
<polygon fill="white" stroke="transparent" points="-4,4 -4,-203 451,-203 451,4 -4,4"/>
<!-- Node1 -->
<g id="node1" class="node">
<title>Node1</title>
<g id="a_node1"><a xlink:title=" ">
<polygon fill="#bfbfbf" stroke="black" points="151,-179.5 151,-198.5 208,-198.5 208,-179.5 151,-179.5"/>
<text text-anchor="middle" x="179.5" y="-186.5" font-family="Helvetica,sans-Serif" font-size="10.00">tstring.h</text>
</a>
</g>
</g>
<!-- Node2 -->
<g id="node2" class="node">
<title>Node2</title>
<g id="a_node2"><a xlink:href="config_8hxx.html" target="_top" xlink:title=" ">
<polygon fill="white" stroke="black" points="87.5,-67.5 87.5,-86.5 203.5,-86.5 203.5,-67.5 87.5,-67.5"/>
<text text-anchor="middle" x="145.5" y="-74.5" font-family="Helvetica,sans-Serif" font-size="10.00">log4cplus/config.hxx</text>
</a>
</g>
</g>
<!-- Node1&#45;&gt;Node2 -->
<g id="edge1" class="edge">
<title>Node1&#45;&gt;Node2</title>
<path fill="none" stroke="midnightblue" d="M150.92,-184.38C108.22,-178.31 30.99,-164.59 14.5,-143 -7.37,-114.36 35.28,-97.5 77.63,-88.16"/>
<polygon fill="midnightblue" stroke="midnightblue" points="78.42,-91.57 87.49,-86.11 76.99,-84.71 78.42,-91.57"/>
</g>
<!-- Node5 -->
<g id="node5" class="node">
<title>Node5</title>
<g id="a_node5"><a xlink:title=" ">
<polygon fill="white" stroke="#bfbfbf" points="24,-123.5 24,-142.5 93,-142.5 93,-123.5 24,-123.5"/>
<text text-anchor="middle" x="58.5" y="-130.5" font-family="Helvetica,sans-Serif" font-size="10.00">type_traits</text>
</a>
</g>
</g>
<!-- Node1&#45;&gt;Node5 -->
<g id="edge4" class="edge">
<title>Node1&#45;&gt;Node5</title>
<path fill="none" stroke="midnightblue" d="M160.33,-179.44C140.59,-170.64 109.61,-156.81 87.01,-146.72"/>
<polygon fill="midnightblue" stroke="midnightblue" points="88.14,-143.4 77.58,-142.52 85.29,-149.79 88.14,-143.4"/>
</g>
<!-- Node6 -->
<g id="node6" class="node">
<title>Node6</title>
<g id="a_node6"><a xlink:title=" ">
<polygon fill="white" stroke="#bfbfbf" points="111,-123.5 111,-142.5 176,-142.5 176,-123.5 111,-123.5"/>
<text text-anchor="middle" x="143.5" y="-130.5" font-family="Helvetica,sans-Serif" font-size="10.00">functional</text>
</a>
</g>
</g>
<!-- Node1&#45;&gt;Node6 -->
<g id="edge5" class="edge">
<title>Node1&#45;&gt;Node6</title>
<path fill="none" stroke="midnightblue" d="M173.56,-179.08C168.52,-171.53 161.16,-160.49 154.99,-151.23"/>
<polygon fill="midnightblue" stroke="midnightblue" points="157.79,-149.13 149.33,-142.75 151.97,-153.01 157.79,-149.13"/>
</g>
<!-- Node7 -->
<g id="node7" class="node">
<title>Node7</title>
<g id="a_node7"><a xlink:title=" ">
<polygon fill="white" stroke="#bfbfbf" points="194.5,-123.5 194.5,-142.5 238.5,-142.5 238.5,-123.5 194.5,-123.5"/>
<text text-anchor="middle" x="216.5" y="-130.5" font-family="Helvetica,sans-Serif" font-size="10.00">string</text>
</a>
</g>
</g>
<!-- Node1&#45;&gt;Node7 -->
<g id="edge6" class="edge">
<title>Node1&#45;&gt;Node7</title>
<path fill="none" stroke="midnightblue" d="M185.61,-179.08C190.78,-171.53 198.35,-160.49 204.69,-151.23"/>
<polygon fill="midnightblue" stroke="midnightblue" points="207.74,-152.98 210.5,-142.75 201.96,-149.02 207.74,-152.98"/>
</g>
<!-- Node8 -->
<g id="node8" class="node">
<title>Node8</title>
<g id="a_node8"><a xlink:title=" ">
<polygon fill="white" stroke="#bfbfbf" points="257,-123.5 257,-142.5 330,-142.5 330,-123.5 257,-123.5"/>
<text text-anchor="middle" x="293.5" y="-130.5" font-family="Helvetica,sans-Serif" font-size="10.00">string_view</text>
</a>
</g>
</g>
<!-- Node1&#45;&gt;Node8 -->
<g id="edge7" class="edge">
<title>Node1&#45;&gt;Node8</title>
<path fill="none" stroke="midnightblue" d="M197.56,-179.44C216.07,-170.68 245.08,-156.94 266.36,-146.86"/>
<polygon fill="midnightblue" stroke="midnightblue" points="267.98,-149.96 275.52,-142.52 264.99,-143.63 267.98,-149.96"/>
</g>
<!-- Node9 -->
<g id="node9" class="node">
<title>Node9</title>
<g id="a_node9"><a xlink:href="tchar_8h.html" target="_top" xlink:title=" ">
<polygon fill="white" stroke="black" points="348,-123.5 348,-142.5 447,-142.5 447,-123.5 348,-123.5"/>
<text text-anchor="middle" x="397.5" y="-130.5" font-family="Helvetica,sans-Serif" font-size="10.00">log4cplus/tchar.h</text>
</a>
</g>
</g>
<!-- Node1&#45;&gt;Node9 -->
<g id="edge8" class="edge">
<title>Node1&#45;&gt;Node9</title>
<path fill="none" stroke="midnightblue" d="M208.45,-180.83C245.44,-171.67 309.85,-155.71 353.07,-145"/>
<polygon fill="midnightblue" stroke="midnightblue" points="354.17,-148.34 363.04,-142.54 352.49,-141.54 354.17,-148.34"/>
</g>
<!-- Node3 -->
<g id="node3" class="node">
<title>Node3</title>
<g id="a_node3"><a xlink:href="win32_8h.html" target="_top" xlink:title=" ">
<polygon fill="white" stroke="black" points="0,-6 0,-25 137,-25 137,-6 0,-6"/>
<text text-anchor="middle" x="68.5" y="-13" font-family="Helvetica,sans-Serif" font-size="10.00">log4cplus/config/win32.h</text>
</a>
</g>
</g>
<!-- Node2&#45;&gt;Node3 -->
<g id="edge2" class="edge">
<title>Node2&#45;&gt;Node3</title>
<path fill="none" stroke="midnightblue" d="M134.47,-67.48C122.23,-58.02 102.27,-42.6 87.51,-31.19"/>
<polygon fill="midnightblue" stroke="midnightblue" points="89.56,-28.35 79.51,-25.01 85.28,-33.89 89.56,-28.35"/>
</g>
<!-- Node4 -->
<g id="node4" class="node">
<title>Node4</title>
<g id="a_node4"><a xlink:href="thread-config_8h.html" target="_top" xlink:title=" ">
<polygon fill="white" stroke="black" points="155,-0.5 155,-30.5 292,-30.5 292,-0.5 155,-0.5"/>
<text text-anchor="start" x="163" y="-18.5" font-family="Helvetica,sans-Serif" font-size="10.00">log4cplus/helpers/thread</text>
<text text-anchor="middle" x="223.5" y="-7.5" font-family="Helvetica,sans-Serif" font-size="10.00">&#45;config.h</text>
</a>
</g>
</g>
<!-- Node2&#45;&gt;Node4 -->
<g id="edge3" class="edge">
<title>Node2&#45;&gt;Node4</title>
<path fill="none" stroke="midnightblue" d="M156.68,-67.48C167.14,-59.49 183.18,-47.25 196.93,-36.77"/>
<polygon fill="midnightblue" stroke="midnightblue" points="199.29,-39.37 205.12,-30.52 195.04,-33.81 199.29,-39.37"/>
</g>
<!-- Node9&#45;&gt;Node2 -->
<g id="edge9" class="edge">
<title>Node9&#45;&gt;Node2</title>
<path fill="none" stroke="midnightblue" d="M357.57,-123.44C313.61,-114.02 242.87,-98.87 195.32,-88.68"/>
<polygon fill="midnightblue" stroke="midnightblue" points="195.75,-85.19 185.24,-86.52 194.29,-92.03 195.75,-85.19"/>
</g>
<!-- Node10 -->
<g id="node10" class="node">
<title>Node10</title>
<g id="a_node10"><a xlink:title=" ">
<polygon fill="white" stroke="#bfbfbf" points="371,-67.5 371,-86.5 424,-86.5 424,-67.5 371,-67.5"/>
<text text-anchor="middle" x="397.5" y="-74.5" font-family="Helvetica,sans-Serif" font-size="10.00">cstddef</text>
</a>
</g>
</g>
<!-- Node9&#45;&gt;Node10 -->
<g id="edge10" class="edge">
<title>Node9&#45;&gt;Node10</title>
<path fill="none" stroke="midnightblue" d="M397.5,-123.08C397.5,-116.01 397.5,-105.86 397.5,-96.99"/>
<polygon fill="midnightblue" stroke="midnightblue" points="401,-96.75 397.5,-86.75 394,-96.75 401,-96.75"/>
</g>
</g>
</svg>
