<?xml version="1.0" encoding="UTF-8" standalone="no"?>
<!DOCTYPE svg PUBLIC "-//W3C//DTD SVG 1.1//EN"
 "http://www.w3.org/Graphics/SVG/1.1/DTD/svg11.dtd">
<!-- Generated by graphviz version 2.43.0 (0)
 -->
<!-- Title: appender.h Pages: 1 -->
<svg width="2058pt" height="308pt"
 viewBox="0.00 0.00 2057.50 308.00" xmlns="http://www.w3.org/2000/svg" xmlns:xlink="http://www.w3.org/1999/xlink">
<g id="graph0" class="graph" transform="scale(1 1) rotate(0) translate(4 304)">
<title>appender.h</title>
<polygon fill="white" stroke="transparent" points="-4,4 -4,-304 2053.5,-304 2053.5,4 -4,4"/>
<!-- Node1 -->
<g id="node1" class="node">
<title>Node1</title>
<g id="a_node1"><a xlink:title=" ">
<polygon fill="#bfbfbf" stroke="black" points="892,-280.5 892,-299.5 957,-299.5 957,-280.5 892,-280.5"/>
<text text-anchor="middle" x="924.5" y="-287.5" font-family="'Souce Sans Pro', Roboto, FreeSans, sans-serif" font-size="10.00">appender.h</text>
</a>
</g>
</g>
<!-- Node2 -->
<g id="node2" class="node">
<title>Node2</title>
<g id="a_node2"><a xlink:href="appenderattachable_8h.html" target="_top" xlink:title=" ">
<polygon fill="white" stroke="black" points="280.5,-224.5 280.5,-243.5 390.5,-243.5 390.5,-224.5 280.5,-224.5"/>
<text text-anchor="middle" x="335.5" y="-231.5" font-family="'Souce Sans Pro', Roboto, FreeSans, sans-serif" font-size="10.00">appenderattachable.h</text>
</a>
</g>
</g>
<!-- Node1&#45;&gt;Node2 -->
<g id="edge1" class="edge">
<title>Node1&#45;&gt;Node2</title>
<path fill="none" stroke="midnightblue" d="M881.8,-285.09C777.08,-275.48 507.55,-250.77 390.79,-240.07"/>
<polygon fill="midnightblue" stroke="midnightblue" points="881.72,-288.59 891.99,-286.02 882.36,-281.62 881.72,-288.59"/>
</g>
<!-- Node4 -->
<g id="node4" class="node">
<title>Node4</title>
<g id="a_node4"><a xlink:href="asyncappender_8h.html" target="_top" xlink:title=" ">
<polygon fill="white" stroke="black" points="0,-112.5 0,-131.5 91,-131.5 91,-112.5 0,-112.5"/>
<text text-anchor="middle" x="45.5" y="-119.5" font-family="'Souce Sans Pro', Roboto, FreeSans, sans-serif" font-size="10.00">asyncappender.h</text>
</a>
</g>
</g>
<!-- Node1&#45;&gt;Node4 -->
<g id="edge19" class="edge">
<title>Node1&#45;&gt;Node4</title>
<path fill="none" stroke="midnightblue" d="M881.77,-289.06C776.97,-288.56 499.12,-283.29 271.5,-244 180.54,-228.3 140.18,-249.67 71.5,-188 54.68,-172.9 48.58,-145.43 46.5,-131.53"/>
<polygon fill="midnightblue" stroke="midnightblue" points="881.93,-292.56 891.95,-289.1 881.96,-285.56 881.93,-292.56"/>
</g>
<!-- Node5 -->
<g id="node5" class="node">
<title>Node5</title>
<g id="a_node5"><a xlink:href="log4cplus_8h.html" target="_top" xlink:title=" ">
<polygon fill="white" stroke="black" points="550,-0.5 550,-19.5 617,-19.5 617,-0.5 550,-0.5"/>
<text text-anchor="middle" x="583.5" y="-7.5" font-family="'Souce Sans Pro', Roboto, FreeSans, sans-serif" font-size="10.00">log4cplus.h</text>
</a>
</g>
</g>
<!-- Node1&#45;&gt;Node5 -->
<g id="edge31" class="edge">
<title>Node1&#45;&gt;Node5</title>
<path fill="none" stroke="midnightblue" d="M935.4,-271.87C960.87,-229.46 1018.05,-118.54 962.5,-56 939.7,-30.33 705.42,-16.73 617.02,-12.48"/>
<polygon fill="midnightblue" stroke="midnightblue" points="932.36,-270.12 930.1,-280.47 938.32,-273.8 932.36,-270.12"/>
</g>
<!-- Node9 -->
<g id="node9" class="node">
<title>Node9</title>
<g id="a_node9"><a xlink:href="configurator_8h.html" target="_top" xlink:title=" ">
<polygon fill="white" stroke="black" points="405,-112.5 405,-131.5 482,-131.5 482,-112.5 405,-112.5"/>
<text text-anchor="middle" x="443.5" y="-119.5" font-family="'Souce Sans Pro', Roboto, FreeSans, sans-serif" font-size="10.00">configurator.h</text>
</a>
</g>
</g>
<!-- Node1&#45;&gt;Node9 -->
<g id="edge22" class="edge">
<title>Node1&#45;&gt;Node9</title>
<path fill="none" stroke="midnightblue" d="M881.63,-287.64C796.01,-284.32 607.2,-273.75 550.5,-244 499.1,-217.03 460.86,-154.56 448.11,-131.64"/>
<polygon fill="midnightblue" stroke="midnightblue" points="881.66,-291.15 891.79,-288.02 881.92,-284.15 881.66,-291.15"/>
</g>
<!-- Node11 -->
<g id="node11" class="node">
<title>Node11</title>
<g id="a_node11"><a xlink:href="hierarchylocker_8h.html" target="_top" xlink:title=" ">
<polygon fill="white" stroke="black" points="500,-112.5 500,-131.5 591,-131.5 591,-112.5 500,-112.5"/>
<text text-anchor="middle" x="545.5" y="-119.5" font-family="'Souce Sans Pro', Roboto, FreeSans, sans-serif" font-size="10.00">hierarchylocker.h</text>
</a>
</g>
</g>
<!-- Node1&#45;&gt;Node11 -->
<g id="edge30" class="edge">
<title>Node1&#45;&gt;Node11</title>
<path fill="none" stroke="midnightblue" d="M881.5,-288.15C820.11,-285.77 704.59,-276.85 612.5,-244 567.06,-227.79 543.24,-230 519.5,-188 508.74,-168.95 525.96,-144.56 537.14,-131.75"/>
<polygon fill="midnightblue" stroke="midnightblue" points="881.48,-291.66 891.59,-288.51 881.72,-284.66 881.48,-291.66"/>
</g>
<!-- Node14 -->
<g id="node14" class="node">
<title>Node14</title>
<g id="a_node14"><a xlink:href="callbackappender_8h.html" target="_top" xlink:title=" ">
<polygon fill="white" stroke="black" points="972,-224.5 972,-243.5 1073,-243.5 1073,-224.5 972,-224.5"/>
<text text-anchor="middle" x="1022.5" y="-231.5" font-family="'Souce Sans Pro', Roboto, FreeSans, sans-serif" font-size="10.00">callbackappender.h</text>
</a>
</g>
</g>
<!-- Node1&#45;&gt;Node14 -->
<g id="edge20" class="edge">
<title>Node1&#45;&gt;Node14</title>
<path fill="none" stroke="midnightblue" d="M949.09,-275.45C967.18,-265.48 991.23,-252.23 1006.79,-243.65"/>
<polygon fill="midnightblue" stroke="midnightblue" points="947.31,-272.43 940.25,-280.32 950.69,-278.56 947.31,-272.43"/>
</g>
<!-- Node15 -->
<g id="node15" class="node">
<title>Node15</title>
<g id="a_node15"><a xlink:href="clfsappender_8h.html" target="_top" xlink:title=" ">
<polygon fill="white" stroke="black" points="1091.5,-224.5 1091.5,-243.5 1173.5,-243.5 1173.5,-224.5 1091.5,-224.5"/>
<text text-anchor="middle" x="1132.5" y="-231.5" font-family="'Souce Sans Pro', Roboto, FreeSans, sans-serif" font-size="10.00">clfsappender.h</text>
</a>
</g>
</g>
<!-- Node1&#45;&gt;Node15 -->
<g id="edge21" class="edge">
<title>Node1&#45;&gt;Node15</title>
<path fill="none" stroke="midnightblue" d="M967.28,-277.89C1006.56,-267.7 1063.93,-252.8 1099.7,-243.52"/>
<polygon fill="midnightblue" stroke="midnightblue" points="966.26,-274.54 957.46,-280.44 968.02,-281.32 966.26,-274.54"/>
</g>
<!-- Node16 -->
<g id="node16" class="node">
<title>Node16</title>
<g id="a_node16"><a xlink:href="consoleappender_8h.html" target="_top" xlink:title=" ">
<polygon fill="white" stroke="black" points="528,-168.5 528,-187.5 629,-187.5 629,-168.5 528,-168.5"/>
<text text-anchor="middle" x="578.5" y="-175.5" font-family="'Souce Sans Pro', Roboto, FreeSans, sans-serif" font-size="10.00">consoleappender.h</text>
</a>
</g>
</g>
<!-- Node1&#45;&gt;Node16 -->
<g id="edge23" class="edge">
<title>Node1&#45;&gt;Node16</title>
<path fill="none" stroke="midnightblue" d="M881.57,-285.38C813.49,-279.1 684.31,-264.84 643.5,-244 617.06,-230.5 594.73,-202.3 584.49,-187.89"/>
<polygon fill="midnightblue" stroke="midnightblue" points="881.27,-288.87 891.55,-286.28 881.9,-281.9 881.27,-288.87"/>
</g>
<!-- Node17 -->
<g id="node17" class="node">
<title>Node17</title>
<g id="a_node17"><a xlink:href="deviceappender_8hxx.html" target="_top" xlink:title=" ">
<polygon fill="white" stroke="black" points="1191.5,-224.5 1191.5,-243.5 1295.5,-243.5 1295.5,-224.5 1191.5,-224.5"/>
<text text-anchor="middle" x="1243.5" y="-231.5" font-family="'Souce Sans Pro', Roboto, FreeSans, sans-serif" font-size="10.00">deviceappender.hxx</text>
</a>
</g>
</g>
<!-- Node1&#45;&gt;Node17 -->
<g id="edge25" class="edge">
<title>Node1&#45;&gt;Node17</title>
<path fill="none" stroke="midnightblue" d="M967.17,-281.78C1025.73,-271.86 1130.84,-254.07 1193.18,-243.52"/>
<polygon fill="midnightblue" stroke="midnightblue" points="966.42,-278.35 957.14,-283.47 967.58,-285.26 966.42,-278.35"/>
</g>
<!-- Node18 -->
<g id="node18" class="node">
<title>Node18</title>
<g id="a_node18"><a xlink:href="factory_8h.html" target="_top" xlink:title=" ">
<polygon fill="white" stroke="black" points="611.5,-56.5 611.5,-75.5 667.5,-75.5 667.5,-56.5 611.5,-56.5"/>
<text text-anchor="middle" x="639.5" y="-63.5" font-family="'Souce Sans Pro', Roboto, FreeSans, sans-serif" font-size="10.00">factory.h</text>
</a>
</g>
</g>
<!-- Node1&#45;&gt;Node18 -->
<g id="edge26" class="edge">
<title>Node1&#45;&gt;Node18</title>
<path fill="none" stroke="midnightblue" d="M881.67,-285.35C824.12,-277.91 723.63,-255.45 676.5,-188 650.96,-151.45 642.66,-96.78 640.32,-75.71"/>
<polygon fill="midnightblue" stroke="midnightblue" points="881.55,-288.86 891.9,-286.57 882.38,-281.91 881.55,-288.86"/>
</g>
<!-- Node19 -->
<g id="node19" class="node">
<title>Node19</title>
<g id="a_node19"><a xlink:href="fileappender_8h.html" target="_top" xlink:title=" ">
<polygon fill="white" stroke="black" points="685.5,-168.5 685.5,-187.5 763.5,-187.5 763.5,-168.5 685.5,-168.5"/>
<text text-anchor="middle" x="724.5" y="-175.5" font-family="'Souce Sans Pro', Roboto, FreeSans, sans-serif" font-size="10.00">fileappender.h</text>
</a>
</g>
</g>
<!-- Node1&#45;&gt;Node19 -->
<g id="edge28" class="edge">
<title>Node1&#45;&gt;Node19</title>
<path fill="none" stroke="midnightblue" d="M881.69,-282.75C850.71,-276.67 808.94,-265.14 777.5,-244 755.02,-228.89 737.23,-201.42 729.18,-187.53"/>
<polygon fill="midnightblue" stroke="midnightblue" points="881.28,-286.23 891.75,-284.61 882.55,-279.35 881.28,-286.23"/>
</g>
<!-- Node20 -->
<g id="node20" class="node">
<title>Node20</title>
<g id="a_node20"><a xlink:href="log4judpappender_8h.html" target="_top" xlink:title=" ">
<polygon fill="white" stroke="black" points="1314,-224.5 1314,-243.5 1417,-243.5 1417,-224.5 1314,-224.5"/>
<text text-anchor="middle" x="1365.5" y="-231.5" font-family="'Souce Sans Pro', Roboto, FreeSans, sans-serif" font-size="10.00">log4judpappender.h</text>
</a>
</g>
</g>
<!-- Node1&#45;&gt;Node20 -->
<g id="edge32" class="edge">
<title>Node1&#45;&gt;Node20</title>
<path fill="none" stroke="midnightblue" d="M967.32,-284.33C1037.73,-276.57 1182.36,-260.24 1304.5,-244 1307.58,-243.59 1310.74,-243.16 1313.93,-242.71"/>
<polygon fill="midnightblue" stroke="midnightblue" points="966.63,-280.89 957.07,-285.46 967.39,-287.85 966.63,-280.89"/>
</g>
<!-- Node21 -->
<g id="node21" class="node">
<title>Node21</title>
<g id="a_node21"><a xlink:href="msttsappender_8h.html" target="_top" xlink:title=" ">
<polygon fill="white" stroke="black" points="1435,-224.5 1435,-243.5 1526,-243.5 1526,-224.5 1435,-224.5"/>
<text text-anchor="middle" x="1480.5" y="-231.5" font-family="'Souce Sans Pro', Roboto, FreeSans, sans-serif" font-size="10.00">msttsappender.h</text>
</a>
</g>
</g>
<!-- Node1&#45;&gt;Node21 -->
<g id="edge33" class="edge">
<title>Node1&#45;&gt;Node21</title>
<path fill="none" stroke="midnightblue" d="M967.18,-286.27C1053.93,-280.48 1256.98,-265.69 1426.5,-244 1429.23,-243.65 1432.04,-243.26 1434.87,-242.85"/>
<polygon fill="midnightblue" stroke="midnightblue" points="966.94,-282.78 957.19,-286.93 967.4,-289.76 966.94,-282.78"/>
</g>
<!-- Node22 -->
<g id="node22" class="node">
<title>Node22</title>
<g id="a_node22"><a xlink:href="nteventlogappender_8h.html" target="_top" xlink:title=" ">
<polygon fill="white" stroke="black" points="1544.5,-224.5 1544.5,-243.5 1654.5,-243.5 1654.5,-224.5 1544.5,-224.5"/>
<text text-anchor="middle" x="1599.5" y="-231.5" font-family="'Souce Sans Pro', Roboto, FreeSans, sans-serif" font-size="10.00">nteventlogappender.h</text>
</a>
</g>
</g>
<!-- Node1&#45;&gt;Node22 -->
<g id="edge34" class="edge">
<title>Node1&#45;&gt;Node22</title>
<path fill="none" stroke="midnightblue" d="M967.3,-286.82C1067.06,-281.54 1322.74,-266.77 1535.5,-244 1538.4,-243.69 1541.37,-243.35 1544.37,-242.99"/>
<polygon fill="midnightblue" stroke="midnightblue" points="966.83,-283.34 957.02,-287.36 967.19,-290.34 966.83,-283.34"/>
</g>
<!-- Node23 -->
<g id="node23" class="node">
<title>Node23</title>
<g id="a_node23"><a xlink:href="nullappender_8h.html" target="_top" xlink:title=" ">
<polygon fill="white" stroke="black" points="723.5,-56.5 723.5,-75.5 803.5,-75.5 803.5,-56.5 723.5,-56.5"/>
<text text-anchor="middle" x="763.5" y="-63.5" font-family="'Souce Sans Pro', Roboto, FreeSans, sans-serif" font-size="10.00">nullappender.h</text>
</a>
</g>
</g>
<!-- Node1&#45;&gt;Node23 -->
<g id="edge35" class="edge">
<title>Node1&#45;&gt;Node23</title>
<path fill="none" stroke="midnightblue" d="M903.14,-274.64C878.16,-256.88 836.99,-224.51 811.5,-188 785.24,-150.38 770.44,-96.34 765.44,-75.57"/>
<polygon fill="midnightblue" stroke="midnightblue" points="901.34,-277.65 911.55,-280.5 905.34,-271.91 901.34,-277.65"/>
</g>
<!-- Node24 -->
<g id="node24" class="node">
<title>Node24</title>
<g id="a_node24"><a xlink:href="qt4debugappender_8h.html" target="_top" xlink:title=" ">
<polygon fill="white" stroke="black" points="1673,-224.5 1673,-243.5 1780,-243.5 1780,-224.5 1673,-224.5"/>
<text text-anchor="middle" x="1726.5" y="-231.5" font-family="'Souce Sans Pro', Roboto, FreeSans, sans-serif" font-size="10.00">qt4debugappender.h</text>
</a>
</g>
</g>
<!-- Node1&#45;&gt;Node24 -->
<g id="edge37" class="edge">
<title>Node1&#45;&gt;Node24</title>
<path fill="none" stroke="midnightblue" d="M967.4,-287.6C1081.13,-283.64 1399.68,-270.83 1663.5,-244 1666.58,-243.69 1669.74,-243.33 1672.92,-242.96"/>
<polygon fill="midnightblue" stroke="midnightblue" points="967.23,-284.11 957.36,-287.95 967.47,-291.1 967.23,-284.11"/>
</g>
<!-- Node25 -->
<g id="node25" class="node">
<title>Node25</title>
<g id="a_node25"><a xlink:href="qt5debugappender_8h.html" target="_top" xlink:title=" ">
<polygon fill="white" stroke="black" points="1798,-224.5 1798,-243.5 1905,-243.5 1905,-224.5 1798,-224.5"/>
<text text-anchor="middle" x="1851.5" y="-231.5" font-family="'Souce Sans Pro', Roboto, FreeSans, sans-serif" font-size="10.00">qt5debugappender.h</text>
</a>
</g>
</g>
<!-- Node1&#45;&gt;Node25 -->
<g id="edge38" class="edge">
<title>Node1&#45;&gt;Node25</title>
<path fill="none" stroke="midnightblue" d="M967.2,-288.17C1093.27,-285.43 1474.72,-274.97 1789.5,-244 1792.21,-243.73 1794.97,-243.43 1797.77,-243.11"/>
<polygon fill="midnightblue" stroke="midnightblue" points="967.1,-284.67 957.18,-288.38 967.25,-291.67 967.1,-284.67"/>
</g>
<!-- Node26 -->
<g id="node26" class="node">
<title>Node26</title>
<g id="a_node26"><a xlink:href="socketappender_8h.html" target="_top" xlink:title=" ">
<polygon fill="white" stroke="black" points="820,-168.5 820,-187.5 915,-187.5 915,-168.5 820,-168.5"/>
<text text-anchor="middle" x="867.5" y="-175.5" font-family="'Souce Sans Pro', Roboto, FreeSans, sans-serif" font-size="10.00">socketappender.h</text>
</a>
</g>
</g>
<!-- Node1&#45;&gt;Node26 -->
<g id="edge39" class="edge">
<title>Node1&#45;&gt;Node26</title>
<path fill="none" stroke="midnightblue" d="M910.47,-272.23C904.1,-264.07 896.82,-253.9 891.5,-244 881.25,-224.93 873.55,-200.54 869.88,-187.74"/>
<polygon fill="midnightblue" stroke="midnightblue" points="907.88,-274.6 916.88,-280.19 913.33,-270.21 907.88,-274.6"/>
</g>
<!-- Node27 -->
<g id="node27" class="node">
<title>Node27</title>
<g id="a_node27"><a xlink:href="syslogappender_8h.html" target="_top" xlink:title=" ">
<polygon fill="white" stroke="black" points="859.5,-56.5 859.5,-75.5 953.5,-75.5 953.5,-56.5 859.5,-56.5"/>
<text text-anchor="middle" x="906.5" y="-63.5" font-family="'Souce Sans Pro', Roboto, FreeSans, sans-serif" font-size="10.00">syslogappender.h</text>
</a>
</g>
</g>
<!-- Node1&#45;&gt;Node27 -->
<g id="edge41" class="edge">
<title>Node1&#45;&gt;Node27</title>
<path fill="none" stroke="midnightblue" d="M925.51,-270.4C926.58,-246.6 927.7,-204.15 924.5,-168 921.44,-133.4 912.6,-92.91 908.56,-75.58"/>
<polygon fill="midnightblue" stroke="midnightblue" points="922.01,-270.31 925.01,-280.47 929.01,-270.65 922.01,-270.31"/>
</g>
<!-- Node28 -->
<g id="node28" class="node">
<title>Node28</title>
<g id="a_node28"><a xlink:href="win32consoleappender_8h.html" target="_top" xlink:title=" ">
<polygon fill="white" stroke="black" points="1923.5,-224.5 1923.5,-243.5 2049.5,-243.5 2049.5,-224.5 1923.5,-224.5"/>
<text text-anchor="middle" x="1986.5" y="-231.5" font-family="'Souce Sans Pro', Roboto, FreeSans, sans-serif" font-size="10.00">win32consoleappender.h</text>
</a>
</g>
</g>
<!-- Node1&#45;&gt;Node28 -->
<g id="edge43" class="edge">
<title>Node1&#45;&gt;Node28</title>
<path fill="none" stroke="midnightblue" d="M967.15,-288.26C1104.65,-285.63 1548.59,-275.14 1914.5,-244 1917.39,-243.75 1920.34,-243.48 1923.31,-243.18"/>
<polygon fill="midnightblue" stroke="midnightblue" points="966.97,-284.77 957.04,-288.45 967.1,-291.77 966.97,-284.77"/>
</g>
<!-- Node3 -->
<g id="node3" class="node">
<title>Node3</title>
<g id="a_node3"><a xlink:href="appenderattachableimpl_8h.html" target="_top" xlink:title=" ">
<polygon fill="white" stroke="black" points="80,-168.5 80,-187.5 209,-187.5 209,-168.5 80,-168.5"/>
<text text-anchor="middle" x="144.5" y="-175.5" font-family="'Souce Sans Pro', Roboto, FreeSans, sans-serif" font-size="10.00">appenderattachableimpl.h</text>
</a>
</g>
</g>
<!-- Node2&#45;&gt;Node3 -->
<g id="edge2" class="edge">
<title>Node2&#45;&gt;Node3</title>
<path fill="none" stroke="midnightblue" d="M295.53,-221.7C259.48,-211.51 207.26,-196.74 174.62,-187.52"/>
<polygon fill="midnightblue" stroke="midnightblue" points="294.66,-225.09 305.24,-224.44 296.56,-218.35 294.66,-225.09"/>
</g>
<!-- Node8 -->
<g id="node8" class="node">
<title>Node8</title>
<g id="a_node8"><a xlink:href="logger_8h.html" target="_top" xlink:title="This header defines the Logger class and the logging macros.">
<polygon fill="white" stroke="black" points="309.5,-168.5 309.5,-187.5 361.5,-187.5 361.5,-168.5 309.5,-168.5"/>
<text text-anchor="middle" x="335.5" y="-175.5" font-family="'Souce Sans Pro', Roboto, FreeSans, sans-serif" font-size="10.00">logger.h</text>
</a>
</g>
</g>
<!-- Node2&#45;&gt;Node8 -->
<g id="edge7" class="edge">
<title>Node2&#45;&gt;Node8</title>
<path fill="none" stroke="midnightblue" d="M335.5,-213.8C335.5,-204.91 335.5,-194.78 335.5,-187.75"/>
<polygon fill="midnightblue" stroke="midnightblue" points="332,-214.08 335.5,-224.08 339,-214.08 332,-214.08"/>
</g>
<!-- Node3&#45;&gt;Node4 -->
<g id="edge3" class="edge">
<title>Node3&#45;&gt;Node4</title>
<path fill="none" stroke="midnightblue" d="M119.66,-163.45C101.39,-153.48 77.08,-140.23 61.37,-131.65"/>
<polygon fill="midnightblue" stroke="midnightblue" points="118.14,-166.61 128.59,-168.32 121.49,-160.46 118.14,-166.61"/>
</g>
<!-- Node6 -->
<g id="node6" class="node">
<title>Node6</title>
<g id="a_node6"><a xlink:href="loggerimpl_8h.html" target="_top" xlink:title=" ">
<polygon fill="white" stroke="black" points="109,-112.5 109,-131.5 180,-131.5 180,-112.5 109,-112.5"/>
<text text-anchor="middle" x="144.5" y="-119.5" font-family="'Souce Sans Pro', Roboto, FreeSans, sans-serif" font-size="10.00">loggerimpl.h</text>
</a>
</g>
</g>
<!-- Node3&#45;&gt;Node6 -->
<g id="edge5" class="edge">
<title>Node3&#45;&gt;Node6</title>
<path fill="none" stroke="midnightblue" d="M144.5,-157.8C144.5,-148.91 144.5,-138.78 144.5,-131.75"/>
<polygon fill="midnightblue" stroke="midnightblue" points="141,-158.08 144.5,-168.08 148,-158.08 141,-158.08"/>
</g>
<!-- Node4&#45;&gt;Node5 -->
<g id="edge4" class="edge">
<title>Node4&#45;&gt;Node5</title>
<path fill="none" stroke="midnightblue" d="M48.85,-102.22C52.61,-87.11 60.29,-66.71 75.5,-56 114.19,-28.77 442.43,-15.64 549.72,-12.05"/>
<polygon fill="midnightblue" stroke="midnightblue" points="45.42,-101.55 46.76,-112.06 52.26,-103.01 45.42,-101.55"/>
</g>
<!-- Node7 -->
<g id="node7" class="node">
<title>Node7</title>
<g id="a_node7"><a xlink:href="rootlogger_8h.html" target="_top" xlink:title=" ">
<polygon fill="white" stroke="black" points="84.5,-56.5 84.5,-75.5 154.5,-75.5 154.5,-56.5 84.5,-56.5"/>
<text text-anchor="middle" x="119.5" y="-63.5" font-family="'Souce Sans Pro', Roboto, FreeSans, sans-serif" font-size="10.00">rootlogger.h</text>
</a>
</g>
</g>
<!-- Node6&#45;&gt;Node7 -->
<g id="edge6" class="edge">
<title>Node6&#45;&gt;Node7</title>
<path fill="none" stroke="midnightblue" d="M136.16,-102.98C131.92,-93.82 126.95,-83.09 123.55,-75.75"/>
<polygon fill="midnightblue" stroke="midnightblue" points="132.99,-104.48 140.37,-112.08 139.35,-101.54 132.99,-104.48"/>
</g>
<!-- Node8&#45;&gt;Node5 -->
<g id="edge13" class="edge">
<title>Node8&#45;&gt;Node5</title>
<path fill="none" stroke="midnightblue" d="M301.68,-163.96C287.86,-156.76 273.32,-146.32 265.5,-132 245.45,-95.27 309.33,-58.35 313.5,-56 353.44,-33.47 486.62,-19.33 549.75,-13.74"/>
<polygon fill="midnightblue" stroke="midnightblue" points="300.5,-167.28 311.03,-168.44 303.52,-160.97 300.5,-167.28"/>
</g>
<!-- Node8&#45;&gt;Node9 -->
<g id="edge8" class="edge">
<title>Node8&#45;&gt;Node9</title>
<path fill="none" stroke="midnightblue" d="M362.05,-163.73C382.05,-153.73 408.89,-140.31 426.19,-131.65"/>
<polygon fill="midnightblue" stroke="midnightblue" points="360.23,-160.72 352.85,-168.32 363.36,-166.98 360.23,-160.72"/>
</g>
<!-- Node10 -->
<g id="node10" class="node">
<title>Node10</title>
<g id="a_node10"><a xlink:href="hierarchy_8h.html" target="_top" xlink:title=" ">
<polygon fill="white" stroke="black" points="172.5,-56.5 172.5,-75.5 236.5,-75.5 236.5,-56.5 172.5,-56.5"/>
<text text-anchor="middle" x="204.5" y="-63.5" font-family="'Souce Sans Pro', Roboto, FreeSans, sans-serif" font-size="10.00">hierarchy.h</text>
</a>
</g>
</g>
<!-- Node8&#45;&gt;Node10 -->
<g id="edge10" class="edge">
<title>Node8&#45;&gt;Node10</title>
<path fill="none" stroke="midnightblue" d="M299.24,-168.42C277.52,-161.67 250.68,-150.27 232.5,-132 216.55,-115.97 209.07,-89.41 206.11,-75.73"/>
<polygon fill="midnightblue" stroke="midnightblue" points="298.54,-171.86 309.12,-171.29 300.49,-165.14 298.54,-171.86"/>
</g>
<!-- Node8&#45;&gt;Node11 -->
<g id="edge12" class="edge">
<title>Node8&#45;&gt;Node11</title>
<path fill="none" stroke="midnightblue" d="M371.44,-167.76C410.99,-157.59 474.04,-141.38 512.42,-131.51"/>
<polygon fill="midnightblue" stroke="midnightblue" points="370.49,-164.39 361.67,-170.27 372.23,-171.17 370.49,-164.39"/>
</g>
<!-- Node12 -->
<g id="node12" class="node">
<title>Node12</title>
<g id="a_node12"><a xlink:href="loggingmacros_8h.html" target="_top" xlink:title="This header defines the logging macros.">
<polygon fill="white" stroke="black" points="339.5,-56.5 339.5,-75.5 429.5,-75.5 429.5,-56.5 339.5,-56.5"/>
<text text-anchor="middle" x="384.5" y="-63.5" font-family="'Souce Sans Pro', Roboto, FreeSans, sans-serif" font-size="10.00">loggingmacros.h</text>
</a>
</g>
</g>
<!-- Node8&#45;&gt;Node12 -->
<g id="edge14" class="edge">
<title>Node8&#45;&gt;Node12</title>
<path fill="none" stroke="midnightblue" d="M344.41,-159.42C348.51,-151.15 353.38,-141.13 357.5,-132 366.45,-112.18 376.01,-88.5 381,-75.9"/>
<polygon fill="midnightblue" stroke="midnightblue" points="341.23,-157.94 339.87,-168.45 347.49,-161.08 341.23,-157.94"/>
</g>
<!-- Node13 -->
<g id="node13" class="node">
<title>Node13</title>
<g id="a_node13"><a xlink:href="tracelogger_8h.html" target="_top" xlink:title=" ">
<polygon fill="white" stroke="black" points="274.5,-112.5 274.5,-131.5 348.5,-131.5 348.5,-112.5 274.5,-112.5"/>
<text text-anchor="middle" x="311.5" y="-119.5" font-family="'Souce Sans Pro', Roboto, FreeSans, sans-serif" font-size="10.00">tracelogger.h</text>
</a>
</g>
</g>
<!-- Node8&#45;&gt;Node13 -->
<g id="edge16" class="edge">
<title>Node8&#45;&gt;Node13</title>
<path fill="none" stroke="midnightblue" d="M327.36,-158.69C323.32,-149.59 318.62,-139.01 315.39,-131.75"/>
<polygon fill="midnightblue" stroke="midnightblue" points="324.28,-160.37 331.54,-168.08 330.67,-157.52 324.28,-160.37"/>
</g>
<!-- Node9&#45;&gt;Node5 -->
<g id="edge9" class="edge">
<title>Node9&#45;&gt;Node5</title>
<path fill="none" stroke="midnightblue" d="M462.44,-106.12C492.16,-82.77 548.79,-38.27 572.57,-19.59"/>
<polygon fill="midnightblue" stroke="midnightblue" points="460.19,-103.44 454.49,-112.37 464.51,-108.94 460.19,-103.44"/>
</g>
<!-- Node10&#45;&gt;Node5 -->
<g id="edge11" class="edge">
<title>Node10&#45;&gt;Node5</title>
<path fill="none" stroke="midnightblue" d="M246.66,-56.65C247.95,-56.43 249.24,-56.21 250.5,-56 359.57,-37.98 489.63,-21.98 549.84,-14.88"/>
<polygon fill="midnightblue" stroke="midnightblue" points="245.84,-53.24 236.63,-58.46 247.09,-60.13 245.84,-53.24"/>
</g>
<!-- Node12&#45;&gt;Node5 -->
<g id="edge15" class="edge">
<title>Node12&#45;&gt;Node5</title>
<path fill="none" stroke="midnightblue" d="M426.15,-53.7C463.71,-43.51 518.11,-28.74 552.12,-19.52"/>
<polygon fill="midnightblue" stroke="midnightblue" points="424.77,-50.45 416.03,-56.44 426.6,-57.2 424.77,-50.45"/>
</g>
<!-- Node13&#45;&gt;Node5 -->
<g id="edge17" class="edge">
<title>Node13&#45;&gt;Node5</title>
<path fill="none" stroke="midnightblue" d="M311.87,-102.32C313.21,-87.59 317.53,-67.64 330.5,-56 362.38,-27.4 488.75,-16.39 549.95,-12.67"/>
<polygon fill="midnightblue" stroke="midnightblue" points="308.37,-102.18 311.33,-112.35 315.36,-102.55 308.37,-102.18"/>
</g>
<!-- Node13&#45;&gt;Node12 -->
<g id="edge18" class="edge">
<title>Node13&#45;&gt;Node12</title>
<path fill="none" stroke="midnightblue" d="M331.64,-106.1C344.78,-96.38 361.48,-84.03 372.56,-75.83"/>
<polygon fill="midnightblue" stroke="midnightblue" points="329.19,-103.56 323.23,-112.32 333.35,-109.19 329.19,-103.56"/>
</g>
<!-- Node16&#45;&gt;Node5 -->
<g id="edge24" class="edge">
<title>Node16&#45;&gt;Node5</title>
<path fill="none" stroke="midnightblue" d="M589.26,-159.69C593.68,-151.59 598.27,-141.64 600.5,-132 610.11,-90.46 594.15,-39.56 586.85,-19.6"/>
<polygon fill="midnightblue" stroke="midnightblue" points="586.15,-158.08 584.14,-168.48 592.2,-161.6 586.15,-158.08"/>
</g>
<!-- Node18&#45;&gt;Node5 -->
<g id="edge27" class="edge">
<title>Node18&#45;&gt;Node5</title>
<path fill="none" stroke="midnightblue" d="M623.17,-49.25C613.24,-39.67 600.91,-27.79 592.66,-19.83"/>
<polygon fill="midnightblue" stroke="midnightblue" points="620.87,-51.9 630.5,-56.32 625.73,-46.86 620.87,-51.9"/>
</g>
<!-- Node19&#45;&gt;Node5 -->
<g id="edge29" class="edge">
<title>Node19&#45;&gt;Node5</title>
<path fill="none" stroke="midnightblue" d="M721.45,-158.22C716.35,-132.3 703.84,-85.41 676.5,-56 659.89,-38.13 634.68,-26.55 614.7,-19.62"/>
<polygon fill="midnightblue" stroke="midnightblue" points="718.03,-159.01 723.25,-168.23 724.92,-157.77 718.03,-159.01"/>
</g>
<!-- Node23&#45;&gt;Node5 -->
<g id="edge36" class="edge">
<title>Node23&#45;&gt;Node5</title>
<path fill="none" stroke="midnightblue" d="M725.39,-53.57C691.44,-43.38 642.51,-28.7 611.89,-19.52"/>
<polygon fill="midnightblue" stroke="midnightblue" points="724.39,-56.92 734.98,-56.44 726.41,-50.22 724.39,-56.92"/>
</g>
<!-- Node26&#45;&gt;Node5 -->
<g id="edge40" class="edge">
<title>Node26&#45;&gt;Node5</title>
<path fill="none" stroke="midnightblue" d="M864.47,-158.26C859.07,-131.25 845.12,-81.8 812.5,-56 782.63,-32.38 673.13,-19.18 617.07,-13.84"/>
<polygon fill="midnightblue" stroke="midnightblue" points="861.07,-159.11 866.29,-168.33 867.96,-157.87 861.07,-159.11"/>
</g>
<!-- Node27&#45;&gt;Node5 -->
<g id="edge42" class="edge">
<title>Node27&#45;&gt;Node5</title>
<path fill="none" stroke="midnightblue" d="M849.15,-55.41C781.72,-44.14 672.06,-25.81 617.11,-16.62"/>
<polygon fill="midnightblue" stroke="midnightblue" points="848.75,-58.89 859.19,-57.09 849.9,-51.99 848.75,-58.89"/>
</g>
</g>
</svg>
