<?xml version="1.0" encoding="UTF-8" standalone="no"?>
<!DOCTYPE svg PUBLIC "-//W3C//DTD SVG 1.1//EN"
 "http://www.w3.org/Graphics/SVG/1.1/DTD/svg11.dtd">
<!-- Generated by graphviz version 2.43.0 (0)
 -->
<!-- Title: log4cplus::helpers::SharedObjectPtr&lt; T &gt; Pages: 1 -->
<svg width="406pt" height="259pt"
 viewBox="0.00 0.00 406.00 259.00" xmlns="http://www.w3.org/2000/svg" xmlns:xlink="http://www.w3.org/1999/xlink">
<g id="graph0" class="graph" transform="scale(1 1) rotate(0) translate(4 255)">
<title>log4cplus::helpers::SharedObjectPtr&lt; T &gt;</title>
<polygon fill="white" stroke="transparent" points="-4,4 -4,-255 402,-255 402,4 -4,4"/>
<!-- Node1 -->
<g id="node1" class="node">
<title>Node1</title>
<g id="a_node1"><a xlink:title=" ">
<polygon fill="#bfbfbf" stroke="black" points="0,-110.5 0,-140.5 114,-140.5 114,-110.5 0,-110.5"/>
<text text-anchor="start" x="8" y="-128.5" font-family="'Souce Sans Pro', Roboto, FreeSans, sans-serif" font-size="10.00">log4cplus::helpers</text>
<text text-anchor="middle" x="57" y="-117.5" font-family="'Souce Sans Pro', Roboto, FreeSans, sans-serif" font-size="10.00">::SharedObjectPtr&lt; T &gt;</text>
</a>
</g>
</g>
<!-- Node2 -->
<g id="node2" class="node">
<title>Node2</title>
<g id="a_node2"><a xlink:href="classlog4cplus_1_1helpers_1_1SharedObjectPtr.html" target="_top" xlink:title=" ">
<polygon fill="white" stroke="black" points="254,-220.5 254,-250.5 384,-250.5 384,-220.5 254,-220.5"/>
<text text-anchor="start" x="262" y="-238.5" font-family="'Souce Sans Pro', Roboto, FreeSans, sans-serif" font-size="10.00">log4cplus::helpers</text>
<text text-anchor="middle" x="319" y="-227.5" font-family="'Souce Sans Pro', Roboto, FreeSans, sans-serif" font-size="10.00">::SharedObjectPtr&lt; Filter &gt;</text>
</a>
</g>
</g>
<!-- Node1&#45;&gt;Node2 -->
<g id="edge1" class="edge">
<title>Node1&#45;&gt;Node2</title>
<path fill="none" stroke="orange" stroke-dasharray="5,2" d="M85.89,-146.49C99.33,-155.94 115.98,-166.69 132,-174.5 172.63,-194.29 221.25,-209.99 258.59,-220.49"/>
<polygon fill="orange" stroke="orange" points="87.72,-143.5 77.56,-140.52 83.64,-149.19 87.72,-143.5"/>
<text text-anchor="middle" x="177" y="-211.5" font-family="'Souce Sans Pro', Roboto, FreeSans, sans-serif" font-size="10.00"> &lt; Filter &gt;</text>
</g>
<!-- Node3 -->
<g id="node3" class="node">
<title>Node3</title>
<g id="a_node3"><a xlink:href="classlog4cplus_1_1helpers_1_1SharedObjectPtr.html" target="_top" xlink:title=" ">
<polygon fill="white" stroke="black" points="250.5,-160 250.5,-201 387.5,-201 387.5,-160 250.5,-160"/>
<text text-anchor="start" x="258.5" y="-189" font-family="'Souce Sans Pro', Roboto, FreeSans, sans-serif" font-size="10.00">log4cplus::helpers</text>
<text text-anchor="start" x="258.5" y="-178" font-family="'Souce Sans Pro', Roboto, FreeSans, sans-serif" font-size="10.00">::SharedObjectPtr&lt; Abstract</text>
<text text-anchor="middle" x="319" y="-167" font-family="'Souce Sans Pro', Roboto, FreeSans, sans-serif" font-size="10.00">Thread &gt;</text>
</a>
</g>
</g>
<!-- Node1&#45;&gt;Node3 -->
<g id="edge2" class="edge">
<title>Node1&#45;&gt;Node3</title>
<path fill="none" stroke="orange" stroke-dasharray="5,2" d="M124.21,-139.51C162.88,-147.69 211.57,-157.99 250.47,-166.21"/>
<polygon fill="orange" stroke="orange" points="124.6,-136.01 114.1,-137.37 123.16,-142.86 124.6,-136.01"/>
<text text-anchor="middle" x="177" y="-162.5" font-family="'Souce Sans Pro', Roboto, FreeSans, sans-serif" font-size="10.00"> &lt; AbstractThread &gt;</text>
</g>
<!-- Node4 -->
<g id="node4" class="node">
<title>Node4</title>
<g id="a_node4"><a xlink:href="classlog4cplus_1_1helpers_1_1SharedObjectPtr.html" target="_top" xlink:title=" ">
<polygon fill="white" stroke="black" points="251,-110.5 251,-140.5 387,-140.5 387,-110.5 251,-110.5"/>
<text text-anchor="start" x="259" y="-128.5" font-family="'Souce Sans Pro', Roboto, FreeSans, sans-serif" font-size="10.00">log4cplus::helpers</text>
<text text-anchor="middle" x="319" y="-117.5" font-family="'Souce Sans Pro', Roboto, FreeSans, sans-serif" font-size="10.00">::SharedObjectPtr&lt; Queue &gt;</text>
</a>
</g>
</g>
<!-- Node1&#45;&gt;Node4 -->
<g id="edge3" class="edge">
<title>Node1&#45;&gt;Node4</title>
<path fill="none" stroke="orange" stroke-dasharray="5,2" d="M124.25,-125.5C163.07,-125.5 211.98,-125.5 250.94,-125.5"/>
<polygon fill="orange" stroke="orange" points="124.1,-122 114.1,-125.5 124.1,-129 124.1,-122"/>
<text text-anchor="middle" x="177" y="-128.5" font-family="'Souce Sans Pro', Roboto, FreeSans, sans-serif" font-size="10.00"> &lt; Queue &gt;</text>
</g>
<!-- Node5 -->
<g id="node5" class="node">
<title>Node5</title>
<g id="a_node5"><a xlink:href="classlog4cplus_1_1helpers_1_1SharedObjectPtr.html" target="_top" xlink:title=" ">
<polygon fill="white" stroke="black" points="247.5,-50 247.5,-91 390.5,-91 390.5,-50 247.5,-50"/>
<text text-anchor="start" x="255.5" y="-79" font-family="'Souce Sans Pro', Roboto, FreeSans, sans-serif" font-size="10.00">log4cplus::helpers</text>
<text text-anchor="start" x="255.5" y="-68" font-family="'Souce Sans Pro', Roboto, FreeSans, sans-serif" font-size="10.00">::SharedObjectPtr&lt; log4cplus</text>
<text text-anchor="middle" x="319" y="-57" font-family="'Souce Sans Pro', Roboto, FreeSans, sans-serif" font-size="10.00">::helpers::ConnectorThread &gt;</text>
</a>
</g>
</g>
<!-- Node1&#45;&gt;Node5 -->
<g id="edge4" class="edge">
<title>Node1&#45;&gt;Node5</title>
<path fill="none" stroke="orange" stroke-dasharray="5,2" d="M106.47,-107.05C114.9,-104.25 123.65,-101.6 132,-99.5 169.56,-90.06 212.2,-83.14 247.17,-78.44"/>
<polygon fill="orange" stroke="orange" points="105.09,-103.82 96.76,-110.38 107.36,-110.44 105.09,-103.82"/>
<text text-anchor="start" x="132" y="-113.5" font-family="'Souce Sans Pro', Roboto, FreeSans, sans-serif" font-size="10.00"> &lt; log4cplus::helpers</text>
<text text-anchor="middle" x="177" y="-102.5" font-family="'Souce Sans Pro', Roboto, FreeSans, sans-serif" font-size="10.00">::ConnectorThread &gt;</text>
</g>
<!-- Node6 -->
<g id="node6" class="node">
<title>Node6</title>
<g id="a_node6"><a xlink:href="classlog4cplus_1_1helpers_1_1SharedObjectPtr.html" target="_top" xlink:title=" ">
<polygon fill="white" stroke="black" points="240,-0.5 240,-30.5 398,-30.5 398,-0.5 240,-0.5"/>
<text text-anchor="start" x="248" y="-18.5" font-family="'Souce Sans Pro', Roboto, FreeSans, sans-serif" font-size="10.00">log4cplus::helpers</text>
<text text-anchor="middle" x="319" y="-7.5" font-family="'Souce Sans Pro', Roboto, FreeSans, sans-serif" font-size="10.00">::SharedObjectPtr&lt; LoggerImpl &gt;</text>
</a>
</g>
</g>
<!-- Node1&#45;&gt;Node6 -->
<g id="edge5" class="edge">
<title>Node1&#45;&gt;Node6</title>
<path fill="none" stroke="orange" stroke-dasharray="5,2" d="M81.05,-103.55C94.89,-91.42 113.37,-76.93 132,-67.5 165.65,-50.46 205.65,-38.36 239.91,-30.14"/>
<polygon fill="orange" stroke="orange" points="78.57,-101.08 73.48,-110.37 83.25,-106.28 78.57,-101.08"/>
<text text-anchor="middle" x="177" y="-70.5" font-family="'Souce Sans Pro', Roboto, FreeSans, sans-serif" font-size="10.00"> &lt; LoggerImpl &gt;</text>
</g>
</g>
</svg>
