<?xml version="1.0" encoding="UTF-8" standalone="no"?>
<!DOCTYPE svg PUBLIC "-//W3C//DTD SVG 1.1//EN"
 "http://www.w3.org/Graphics/SVG/1.1/DTD/svg11.dtd">
<!-- Generated by graphviz version 2.43.0 (0)
 -->
<!-- Title: log4cplus::BasicConfigurator Pages: 1 -->
<svg width="226pt" height="163pt"
 viewBox="0.00 0.00 225.50 163.00" xmlns="http://www.w3.org/2000/svg" xmlns:xlink="http://www.w3.org/1999/xlink">
<g id="graph0" class="graph" transform="scale(1 1) rotate(0) translate(4 159)">
<title>log4cplus::BasicConfigurator</title>
<polygon fill="white" stroke="transparent" points="-4,4 -4,-159 221.5,-159 221.5,4 -4,4"/>
<!-- Node1 -->
<g id="node1" class="node">
<title>Node1</title>
<g id="a_node1"><a xlink:title="Use this class to quickly configure the package.">
<polygon fill="#bfbfbf" stroke="black" points="40,-0.5 40,-19.5 182,-19.5 182,-0.5 40,-0.5"/>
<text text-anchor="middle" x="111" y="-7.5" font-family="'Souce Sans Pro', Roboto, FreeSans, sans-serif" font-size="10.00">log4cplus::BasicConfigurator</text>
</a>
</g>
</g>
<!-- Node2 -->
<g id="node2" class="node">
<title>Node2</title>
<g id="a_node2"><a xlink:href="classlog4cplus_1_1PropertyConfigurator.html" target="_top" xlink:title="Provides configuration from an external file.">
<polygon fill="white" stroke="black" points="33.5,-57.5 33.5,-76.5 188.5,-76.5 188.5,-57.5 33.5,-57.5"/>
<text text-anchor="middle" x="111" y="-64.5" font-family="'Souce Sans Pro', Roboto, FreeSans, sans-serif" font-size="10.00">log4cplus::PropertyConfigurator</text>
</a>
</g>
</g>
<!-- Node2&#45;&gt;Node1 -->
<g id="edge1" class="edge">
<title>Node2&#45;&gt;Node1</title>
<path fill="none" stroke="midnightblue" d="M111,-47.12C111,-37.82 111,-27.06 111,-19.71"/>
<polygon fill="midnightblue" stroke="midnightblue" points="107.5,-47.41 111,-57.41 114.5,-47.41 107.5,-47.41"/>
</g>
<!-- Node3 -->
<g id="node3" class="node">
<title>Node3</title>
<g id="a_node3"><a xlink:href="classlog4cplus_1_1Hierarchy.html" target="_top" xlink:title="This class is specialized in retrieving loggers by name and also maintaining the logger hierarchy.">
<polygon fill="white" stroke="black" points="0,-130 0,-149 104,-149 104,-130 0,-130"/>
<text text-anchor="middle" x="52" y="-137" font-family="'Souce Sans Pro', Roboto, FreeSans, sans-serif" font-size="10.00">log4cplus::Hierarchy</text>
</a>
</g>
</g>
<!-- Node3&#45;&gt;Node2 -->
<g id="edge2" class="edge">
<title>Node3&#45;&gt;Node2</title>
<path fill="none" stroke="#9a32cd" stroke-dasharray="5,2" d="M65.89,-121.9C77.74,-107.74 94.3,-87.96 103.71,-76.72"/>
<polygon fill="#9a32cd" stroke="#9a32cd" points="62.97,-119.94 59.23,-129.86 68.34,-124.43 62.97,-119.94"/>
<text text-anchor="middle" x="91" y="-98" font-family="'Souce Sans Pro', Roboto, FreeSans, sans-serif" font-size="10.00"> h</text>
</g>
<!-- Node4 -->
<g id="node4" class="node">
<title>Node4</title>
<g id="a_node4"><a xlink:href="classlog4cplus_1_1helpers_1_1Properties.html" target="_top" xlink:title=" ">
<polygon fill="white" stroke="black" points="122.5,-124.5 122.5,-154.5 217.5,-154.5 217.5,-124.5 122.5,-124.5"/>
<text text-anchor="start" x="130.5" y="-142.5" font-family="'Souce Sans Pro', Roboto, FreeSans, sans-serif" font-size="10.00">log4cplus::helpers</text>
<text text-anchor="middle" x="170" y="-131.5" font-family="'Souce Sans Pro', Roboto, FreeSans, sans-serif" font-size="10.00">::Properties</text>
</a>
</g>
</g>
<!-- Node4&#45;&gt;Node2 -->
<g id="edge3" class="edge">
<title>Node4&#45;&gt;Node2</title>
<path fill="none" stroke="#9a32cd" stroke-dasharray="5,2" d="M151.49,-116.38C140.32,-103.04 126.7,-86.76 118.44,-76.89"/>
<polygon fill="#9a32cd" stroke="#9a32cd" points="148.96,-118.81 158.06,-124.23 154.33,-114.32 148.96,-118.81"/>
<text text-anchor="middle" x="165.5" y="-98" font-family="'Souce Sans Pro', Roboto, FreeSans, sans-serif" font-size="10.00"> properties</text>
</g>
</g>
</svg>
