<?xml version="1.0" encoding="UTF-8" standalone="no"?>
<!DOCTYPE svg PUBLIC "-//W3C//DTD SVG 1.1//EN"
 "http://www.w3.org/Graphics/SVG/1.1/DTD/svg11.dtd">
<!-- Generated by graphviz version 2.43.0 (0)
 -->
<!-- Title: log4cplus::PropertyConfigurator Pages: 1 -->
<svg width="226pt" height="106pt"
 viewBox="0.00 0.00 225.50 106.00" xmlns="http://www.w3.org/2000/svg" xmlns:xlink="http://www.w3.org/1999/xlink">
<g id="graph0" class="graph" transform="scale(1 1) rotate(0) translate(4 102)">
<title>log4cplus::PropertyConfigurator</title>
<polygon fill="white" stroke="transparent" points="-4,4 -4,-102 221.5,-102 221.5,4 -4,4"/>
<!-- Node1 -->
<g id="node1" class="node">
<title>Node1</title>
<g id="a_node1"><a xlink:title="Provides configuration from an external file.">
<polygon fill="#bfbfbf" stroke="black" points="33.5,-0.5 33.5,-19.5 188.5,-19.5 188.5,-0.5 33.5,-0.5"/>
<text text-anchor="middle" x="111" y="-7.5" font-family="'Souce Sans Pro', Roboto, FreeSans, sans-serif" font-size="10.00">log4cplus::PropertyConfigurator</text>
</a>
</g>
</g>
<!-- Node2 -->
<g id="node2" class="node">
<title>Node2</title>
<g id="a_node2"><a xlink:href="classlog4cplus_1_1Hierarchy.html" target="_top" xlink:title="This class is specialized in retrieving loggers by name and also maintaining the logger hierarchy.">
<polygon fill="white" stroke="black" points="0,-73 0,-92 104,-92 104,-73 0,-73"/>
<text text-anchor="middle" x="52" y="-80" font-family="'Souce Sans Pro', Roboto, FreeSans, sans-serif" font-size="10.00">log4cplus::Hierarchy</text>
</a>
</g>
</g>
<!-- Node2&#45;&gt;Node1 -->
<g id="edge1" class="edge">
<title>Node2&#45;&gt;Node1</title>
<path fill="none" stroke="#9a32cd" stroke-dasharray="5,2" d="M65.89,-64.9C77.74,-50.74 94.3,-30.96 103.71,-19.72"/>
<polygon fill="#9a32cd" stroke="#9a32cd" points="62.97,-62.94 59.23,-72.86 68.34,-67.43 62.97,-62.94"/>
<text text-anchor="middle" x="91" y="-41" font-family="'Souce Sans Pro', Roboto, FreeSans, sans-serif" font-size="10.00"> h</text>
</g>
<!-- Node3 -->
<g id="node3" class="node">
<title>Node3</title>
<g id="a_node3"><a xlink:href="classlog4cplus_1_1helpers_1_1Properties.html" target="_top" xlink:title=" ">
<polygon fill="white" stroke="black" points="122.5,-67.5 122.5,-97.5 217.5,-97.5 217.5,-67.5 122.5,-67.5"/>
<text text-anchor="start" x="130.5" y="-85.5" font-family="'Souce Sans Pro', Roboto, FreeSans, sans-serif" font-size="10.00">log4cplus::helpers</text>
<text text-anchor="middle" x="170" y="-74.5" font-family="'Souce Sans Pro', Roboto, FreeSans, sans-serif" font-size="10.00">::Properties</text>
</a>
</g>
</g>
<!-- Node3&#45;&gt;Node1 -->
<g id="edge2" class="edge">
<title>Node3&#45;&gt;Node1</title>
<path fill="none" stroke="#9a32cd" stroke-dasharray="5,2" d="M151.49,-59.38C140.32,-46.04 126.7,-29.76 118.44,-19.89"/>
<polygon fill="#9a32cd" stroke="#9a32cd" points="148.96,-61.81 158.06,-67.23 154.33,-57.32 148.96,-61.81"/>
<text text-anchor="middle" x="165.5" y="-41" font-family="'Souce Sans Pro', Roboto, FreeSans, sans-serif" font-size="10.00"> properties</text>
</g>
</g>
</svg>
