<?xml version="1.0" encoding="UTF-8" standalone="no"?>
<!DOCTYPE svg PUBLIC "-//W3C//DTD SVG 1.1//EN"
 "http://www.w3.org/Graphics/SVG/1.1/DTD/svg11.dtd">
<!-- Generated by graphviz version 2.43.0 (0)
 -->
<!-- Title: thread Pages: 1 -->
<svg width="182pt" height="175pt"
 viewBox="0.00 0.00 182.00 175.00" xmlns="http://www.w3.org/2000/svg" xmlns:xlink="http://www.w3.org/1999/xlink">
<g id="graph0" class="graph" transform="scale(1 1) rotate(0) translate(4 171)">
<title>thread</title>
<polygon fill="white" stroke="transparent" points="-4,4 -4,-171 178,-171 178,4 -4,4"/>
<g id="clust1" class="cluster">
<title>clusterdir_c1127a47df8dad6101631a17711b0d4b</title>
<g id="a_clust1"><a xlink:href="dir_c1127a47df8dad6101631a17711b0d4b.html" target="_top" xlink:title="log4cplus">
<polygon fill="#edf0f7" stroke="#7f7f7f" stroke-dasharray="5,2" points="8,-8 8,-159 166,-159 166,-8 8,-8"/>
<text text-anchor="middle" x="87" y="-147" font-family="'Souce Sans Pro', Roboto, FreeSans, sans-serif" font-size="10.00">log4cplus</text>
</a>
</g>
</g>
<g id="clust2" class="cluster">
<title>clusterdir_853879e30bdf8afe9a7079a6b1a108d0</title>
<g id="a_clust2"><a xlink:href="dir_853879e30bdf8afe9a7079a6b1a108d0.html" target="_top">
<polygon fill="#edf0f7" stroke="#404040" stroke-width="2" points="16,-80 16,-132 158,-132 158,-80 16,-80"/>
</a>
</g>
</g>
<!-- dir_15e0ad6291f54c01f72f2b7a09f5a39a -->
<g id="node1" class="node">
<title>dir_15e0ad6291f54c01f72f2b7a09f5a39a</title>
<g id="a_node1"><a xlink:href="dir_15e0ad6291f54c01f72f2b7a09f5a39a.html" target="_top" xlink:title="helpers">
<polygon fill="#a2b4d6" stroke="#404040" points="78,-52 24,-52 24,-16 78,-16 78,-52"/>
<text text-anchor="middle" x="51" y="-31.5" font-family="'Souce Sans Pro', Roboto, FreeSans, sans-serif" font-size="10.00">helpers</text>
</a>
</g>
</g>
<!-- dir_beaf3939c5b2e4f56ef965799f9263aa -->
<g id="node2" class="node">
<title>dir_beaf3939c5b2e4f56ef965799f9263aa</title>
<g id="a_node2"><a xlink:href="dir_beaf3939c5b2e4f56ef965799f9263aa.html" target="_top" xlink:title="config">
<polygon fill="#a2b4d6" stroke="#404040" points="150,-52 96,-52 96,-16 150,-16 150,-52"/>
<text text-anchor="middle" x="123" y="-31.5" font-family="'Souce Sans Pro', Roboto, FreeSans, sans-serif" font-size="10.00">config</text>
</a>
</g>
</g>
<!-- dir_853879e30bdf8afe9a7079a6b1a108d0 -->
<g id="node3" class="node">
<title>dir_853879e30bdf8afe9a7079a6b1a108d0</title>
<text text-anchor="middle" x="51" y="-103.5" font-family="'Souce Sans Pro', Roboto, FreeSans, sans-serif" font-size="10.00">thread</text>
</g>
<!-- dir_853879e30bdf8afe9a7079a6b1a108d0&#45;&gt;dir_15e0ad6291f54c01f72f2b7a09f5a39a -->
<g id="edge1" class="edge">
<title>dir_853879e30bdf8afe9a7079a6b1a108d0&#45;&gt;dir_15e0ad6291f54c01f72f2b7a09f5a39a</title>
<path fill="none" stroke="black" d="M51,-87.7C51,-79.98 51,-70.71 51,-62.11"/>
<polygon fill="black" stroke="black" points="54.5,-62.1 51,-52.1 47.5,-62.1 54.5,-62.1"/>
<g id="a_edge1&#45;headlabel"><a xlink:href="dir_000008_000002.html" target="_top" xlink:title="2">
<text text-anchor="middle" x="57.34" y="-63.2" font-family="'Souce Sans Pro', Roboto, FreeSans, sans-serif" font-size="10.00">2</text>
</a>
</g>
</g>
<!-- dir_8365f885db0e24c0a4a28d7556850d67 -->
<g id="node4" class="node">
<title>dir_8365f885db0e24c0a4a28d7556850d67</title>
<g id="a_node4"><a xlink:href="dir_8365f885db0e24c0a4a28d7556850d67.html" target="_top" xlink:title="impl">
<polygon fill="#a2b4d6" stroke="#404040" points="150,-124 96,-124 96,-88 150,-88 150,-124"/>
<text text-anchor="middle" x="123" y="-103.5" font-family="'Souce Sans Pro', Roboto, FreeSans, sans-serif" font-size="10.00">impl</text>
</a>
</g>
</g>
<!-- dir_8365f885db0e24c0a4a28d7556850d67&#45;&gt;dir_15e0ad6291f54c01f72f2b7a09f5a39a -->
<g id="edge2" class="edge">
<title>dir_8365f885db0e24c0a4a28d7556850d67&#45;&gt;dir_15e0ad6291f54c01f72f2b7a09f5a39a</title>
<path fill="none" stroke="black" d="M105.2,-87.7C96.4,-79.14 85.62,-68.66 76,-59.3"/>
<polygon fill="black" stroke="black" points="78.2,-56.57 68.59,-52.1 73.32,-61.58 78.2,-56.57"/>
<g id="a_edge2&#45;headlabel"><a xlink:href="dir_000003_000002.html" target="_top" xlink:title="1">
<text text-anchor="middle" x="82.76" y="-54.54" font-family="'Souce Sans Pro', Roboto, FreeSans, sans-serif" font-size="10.00">1</text>
</a>
</g>
</g>
<!-- dir_8365f885db0e24c0a4a28d7556850d67&#45;&gt;dir_beaf3939c5b2e4f56ef965799f9263aa -->
<g id="edge3" class="edge">
<title>dir_8365f885db0e24c0a4a28d7556850d67&#45;&gt;dir_beaf3939c5b2e4f56ef965799f9263aa</title>
<path fill="none" stroke="black" d="M123,-87.7C123,-79.98 123,-70.71 123,-62.11"/>
<polygon fill="black" stroke="black" points="126.5,-62.1 123,-52.1 119.5,-62.1 126.5,-62.1"/>
<g id="a_edge3&#45;headlabel"><a xlink:href="dir_000003_000001.html" target="_top" xlink:title="1">
<text text-anchor="middle" x="129.34" y="-63.2" font-family="'Souce Sans Pro', Roboto, FreeSans, sans-serif" font-size="10.00">1</text>
</a>
</g>
</g>
</g>
</svg>
