<?xml version="1.0" encoding="UTF-8" standalone="no"?>
<!DOCTYPE svg PUBLIC "-//W3C//DTD SVG 1.1//EN"
 "http://www.w3.org/Graphics/SVG/1.1/DTD/svg11.dtd">
<!-- Generated by graphviz version 2.43.0 (0)
 -->
<!-- Title: log4cplus Pages: 1 -->
<svg width="260pt" height="399pt"
 viewBox="0.00 0.00 260.00 399.00" xmlns="http://www.w3.org/2000/svg" xmlns:xlink="http://www.w3.org/1999/xlink">
<g id="graph0" class="graph" transform="scale(1 1) rotate(0) translate(4 395)">
<title>log4cplus</title>
<polygon fill="white" stroke="transparent" points="-4,4 -4,-395 256,-395 256,4 -4,4"/>
<g id="clust1" class="cluster">
<title>clusterdir_d44c64559bbebec7f509842c48db8b23</title>
<g id="a_clust1"><a xlink:href="dir_d44c64559bbebec7f509842c48db8b23.html" target="_top" xlink:title="include">
<polygon fill="#edf0f7" stroke="#404040" stroke-dasharray="5,2" points="8,-8 8,-383 244,-383 244,-8 8,-8"/>
<text text-anchor="middle" x="126" y="-371" font-family="'Souce Sans Pro', Roboto, FreeSans, sans-serif" font-size="10.00">include</text>
</a>
</g>
</g>
<g id="clust2" class="cluster">
<title>clusterdir_c1127a47df8dad6101631a17711b0d4b</title>
<g id="a_clust2"><a xlink:href="dir_c1127a47df8dad6101631a17711b0d4b.html" target="_top">
<polygon fill="#edf0f7" stroke="#404040" stroke-width="2" points="16,-16 16,-356 236,-356 236,-16 16,-16"/>
</a>
</g>
</g>
<!-- dir_c1127a47df8dad6101631a17711b0d4b -->
<g id="node1" class="node">
<title>dir_c1127a47df8dad6101631a17711b0d4b</title>
<text text-anchor="middle" x="198" y="-327.5" font-family="'Souce Sans Pro', Roboto, FreeSans, sans-serif" font-size="10.00">log4cplus</text>
</g>
<!-- dir_beaf3939c5b2e4f56ef965799f9263aa -->
<g id="node3" class="node">
<title>dir_beaf3939c5b2e4f56ef965799f9263aa</title>
<g id="a_node3"><a xlink:href="dir_beaf3939c5b2e4f56ef965799f9263aa.html" target="_top" xlink:title="config">
<polygon fill="#a2b4d6" stroke="#404040" points="175,-60 121,-60 121,-24 175,-24 175,-60"/>
<text text-anchor="middle" x="148" y="-39.5" font-family="'Souce Sans Pro', Roboto, FreeSans, sans-serif" font-size="10.00">config</text>
</a>
</g>
</g>
<!-- dir_c1127a47df8dad6101631a17711b0d4b&#45;&gt;dir_beaf3939c5b2e4f56ef965799f9263aa -->
<g id="edge4" class="edge">
<title>dir_c1127a47df8dad6101631a17711b0d4b&#45;&gt;dir_beaf3939c5b2e4f56ef965799f9263aa</title>
<path fill="none" stroke="black" d="M200.01,-311.74C203.95,-272.27 210.2,-172.91 184,-96 180.7,-86.31 175.12,-76.74 169.32,-68.45"/>
<polygon fill="black" stroke="black" points="172.07,-66.27 163.3,-60.33 166.45,-70.44 172.07,-66.27"/>
<g id="a_edge4&#45;headlabel"><a xlink:href="dir_000006_000001.html" target="_top" xlink:title="5">
<text text-anchor="middle" x="176.49" y="-64.97" font-family="'Souce Sans Pro', Roboto, FreeSans, sans-serif" font-size="10.00">5</text>
</a>
</g>
</g>
<!-- dir_15e0ad6291f54c01f72f2b7a09f5a39a -->
<g id="node4" class="node">
<title>dir_15e0ad6291f54c01f72f2b7a09f5a39a</title>
<g id="a_node4"><a xlink:href="dir_15e0ad6291f54c01f72f2b7a09f5a39a.html" target="_top" xlink:title="helpers">
<polygon fill="#a2b4d6" stroke="#404040" points="173,-276 119,-276 119,-240 173,-240 173,-276"/>
<text text-anchor="middle" x="146" y="-255.5" font-family="'Souce Sans Pro', Roboto, FreeSans, sans-serif" font-size="10.00">helpers</text>
</a>
</g>
</g>
<!-- dir_c1127a47df8dad6101631a17711b0d4b&#45;&gt;dir_15e0ad6291f54c01f72f2b7a09f5a39a -->
<g id="edge1" class="edge">
<title>dir_c1127a47df8dad6101631a17711b0d4b&#45;&gt;dir_15e0ad6291f54c01f72f2b7a09f5a39a</title>
<path fill="none" stroke="black" d="M185.15,-311.7C178.97,-303.39 171.46,-293.28 164.68,-284.14"/>
<polygon fill="black" stroke="black" points="167.48,-282.04 158.71,-276.1 161.86,-286.22 167.48,-282.04"/>
<g id="a_edge1&#45;headlabel"><a xlink:href="dir_000006_000002.html" target="_top" xlink:title="26">
<text text-anchor="middle" x="171.9" y="-280.74" font-family="'Souce Sans Pro', Roboto, FreeSans, sans-serif" font-size="10.00">26</text>
</a>
</g>
</g>
<!-- dir_978d533c27f1e6af39004a1d79354223 -->
<g id="node6" class="node">
<title>dir_978d533c27f1e6af39004a1d79354223</title>
<g id="a_node6"><a xlink:href="dir_978d533c27f1e6af39004a1d79354223.html" target="_top" xlink:title="spi">
<polygon fill="#a2b4d6" stroke="#404040" points="129,-204 75,-204 75,-168 129,-168 129,-204"/>
<text text-anchor="middle" x="102" y="-183.5" font-family="'Souce Sans Pro', Roboto, FreeSans, sans-serif" font-size="10.00">spi</text>
</a>
</g>
</g>
<!-- dir_c1127a47df8dad6101631a17711b0d4b&#45;&gt;dir_978d533c27f1e6af39004a1d79354223 -->
<g id="edge3" class="edge">
<title>dir_c1127a47df8dad6101631a17711b0d4b&#45;&gt;dir_978d533c27f1e6af39004a1d79354223</title>
<path fill="none" stroke="black" d="M168.43,-314.87C145.7,-303.37 117.05,-287.26 110,-276 98.53,-257.67 97.18,-232.91 98.33,-214.16"/>
<polygon fill="black" stroke="black" points="101.82,-214.44 99.21,-204.17 94.84,-213.83 101.82,-214.44"/>
<g id="a_edge3&#45;headlabel"><a xlink:href="dir_000006_000007.html" target="_top" xlink:title="9">
<text text-anchor="middle" x="104.33" y="-215.77" font-family="'Souce Sans Pro', Roboto, FreeSans, sans-serif" font-size="10.00">9</text>
</a>
</g>
</g>
<!-- dir_853879e30bdf8afe9a7079a6b1a108d0 -->
<g id="node7" class="node">
<title>dir_853879e30bdf8afe9a7079a6b1a108d0</title>
<g id="a_node7"><a xlink:href="dir_853879e30bdf8afe9a7079a6b1a108d0.html" target="_top" xlink:title="thread">
<polygon fill="#a2b4d6" stroke="#404040" points="175,-132 121,-132 121,-96 175,-96 175,-132"/>
<text text-anchor="middle" x="148" y="-111.5" font-family="'Souce Sans Pro', Roboto, FreeSans, sans-serif" font-size="10.00">thread</text>
</a>
</g>
</g>
<!-- dir_c1127a47df8dad6101631a17711b0d4b&#45;&gt;dir_853879e30bdf8afe9a7079a6b1a108d0 -->
<g id="edge2" class="edge">
<title>dir_c1127a47df8dad6101631a17711b0d4b&#45;&gt;dir_853879e30bdf8afe9a7079a6b1a108d0</title>
<path fill="none" stroke="black" d="M195.37,-311.85C192.51,-293.86 187.59,-264.81 182,-240 174.34,-206.02 163.5,-167.41 156.14,-142.2"/>
<polygon fill="black" stroke="black" points="159.4,-140.87 153.21,-132.27 152.68,-142.85 159.4,-140.87"/>
<g id="a_edge2&#45;headlabel"><a xlink:href="dir_000006_000008.html" target="_top" xlink:title="16">
<text text-anchor="middle" x="163.14" y="-141.02" font-family="'Souce Sans Pro', Roboto, FreeSans, sans-serif" font-size="10.00">16</text>
</a>
</g>
</g>
<!-- dir_3211d121ecc3b8c63a5aff086e15ca89 -->
<g id="node2" class="node">
<title>dir_3211d121ecc3b8c63a5aff086e15ca89</title>
<g id="a_node2"><a xlink:href="dir_3211d121ecc3b8c63a5aff086e15ca89.html" target="_top" xlink:title="boost">
<polygon fill="#a2b4d6" stroke="#404040" points="150,-348 96,-348 96,-312 150,-312 150,-348"/>
<text text-anchor="middle" x="123" y="-327.5" font-family="'Souce Sans Pro', Roboto, FreeSans, sans-serif" font-size="10.00">boost</text>
</a>
</g>
</g>
<!-- dir_15e0ad6291f54c01f72f2b7a09f5a39a&#45;&gt;dir_978d533c27f1e6af39004a1d79354223 -->
<g id="edge6" class="edge">
<title>dir_15e0ad6291f54c01f72f2b7a09f5a39a&#45;&gt;dir_978d533c27f1e6af39004a1d79354223</title>
<path fill="none" stroke="black" d="M129.21,-239.7C123.32,-231.64 116.98,-221.89 111.79,-212.98"/>
<polygon fill="black" stroke="black" points="114.77,-211.15 106.86,-204.1 108.65,-214.55 114.77,-211.15"/>
<g id="a_edge6&#45;headlabel"><a xlink:href="dir_000002_000007.html" target="_top" xlink:title="2">
<text text-anchor="middle" x="119" y="-210.41" font-family="'Souce Sans Pro', Roboto, FreeSans, sans-serif" font-size="10.00">2</text>
</a>
</g>
</g>
<!-- dir_15e0ad6291f54c01f72f2b7a09f5a39a&#45;&gt;dir_853879e30bdf8afe9a7079a6b1a108d0 -->
<g id="edge5" class="edge">
<title>dir_15e0ad6291f54c01f72f2b7a09f5a39a&#45;&gt;dir_853879e30bdf8afe9a7079a6b1a108d0</title>
<path fill="none" stroke="black" d="M141.66,-239.87C139.44,-215.67 139.77,-171.21 142.16,-142.39"/>
<polygon fill="black" stroke="black" points="145.66,-142.49 143.17,-132.19 138.7,-141.8 145.66,-142.49"/>
<g id="a_edge5&#45;headlabel"><a xlink:href="dir_000002_000008.html" target="_top" xlink:title="8">
<text text-anchor="middle" x="148.13" y="-143.84" font-family="'Souce Sans Pro', Roboto, FreeSans, sans-serif" font-size="10.00">8</text>
</a>
</g>
</g>
<!-- dir_fa6d830662653e00a3f098549d35e05d -->
<g id="node5" class="node">
<title>dir_fa6d830662653e00a3f098549d35e05d</title>
<g id="a_node5"><a xlink:href="dir_fa6d830662653e00a3f098549d35e05d.html" target="_top" xlink:title="internal">
<polygon fill="#a2b4d6" stroke="#404040" points="78,-348 24,-348 24,-312 78,-312 78,-348"/>
<text text-anchor="middle" x="51" y="-327.5" font-family="'Souce Sans Pro', Roboto, FreeSans, sans-serif" font-size="10.00">internal</text>
</a>
</g>
</g>
<!-- dir_fa6d830662653e00a3f098549d35e05d&#45;&gt;dir_beaf3939c5b2e4f56ef965799f9263aa -->
<g id="edge10" class="edge">
<title>dir_fa6d830662653e00a3f098549d35e05d&#45;&gt;dir_beaf3939c5b2e4f56ef965799f9263aa</title>
<path fill="none" stroke="black" d="M46.28,-311.77C38.89,-281.43 27.33,-217.05 47,-168 63.12,-127.81 96.81,-90.41 120.85,-67.18"/>
<polygon fill="black" stroke="black" points="123.42,-69.57 128.28,-60.16 118.61,-64.48 123.42,-69.57"/>
<g id="a_edge10&#45;headlabel"><a xlink:href="dir_000005_000001.html" target="_top" xlink:title="2">
<text text-anchor="middle" x="122.76" y="-71.6" font-family="'Souce Sans Pro', Roboto, FreeSans, sans-serif" font-size="10.00">2</text>
</a>
</g>
</g>
<!-- dir_fa6d830662653e00a3f098549d35e05d&#45;&gt;dir_15e0ad6291f54c01f72f2b7a09f5a39a -->
<g id="edge7" class="edge">
<title>dir_fa6d830662653e00a3f098549d35e05d&#45;&gt;dir_15e0ad6291f54c01f72f2b7a09f5a39a</title>
<path fill="none" stroke="black" d="M74.48,-311.7C86.56,-302.8 101.45,-291.82 114.52,-282.2"/>
<polygon fill="black" stroke="black" points="116.81,-284.85 122.79,-276.1 112.66,-279.22 116.81,-284.85"/>
<g id="a_edge7&#45;headlabel"><a xlink:href="dir_000005_000002.html" target="_top" xlink:title="2">
<text text-anchor="middle" x="115.6" y="-286.77" font-family="'Souce Sans Pro', Roboto, FreeSans, sans-serif" font-size="10.00">2</text>
</a>
</g>
</g>
<!-- dir_fa6d830662653e00a3f098549d35e05d&#45;&gt;dir_978d533c27f1e6af39004a1d79354223 -->
<g id="edge9" class="edge">
<title>dir_fa6d830662653e00a3f098549d35e05d&#45;&gt;dir_978d533c27f1e6af39004a1d79354223</title>
<path fill="none" stroke="black" d="M57.15,-311.87C65.92,-287.46 82.09,-242.43 92.43,-213.64"/>
<polygon fill="black" stroke="black" points="95.74,-214.78 95.83,-204.19 89.15,-212.42 95.74,-214.78"/>
<g id="a_edge9&#45;headlabel"><a xlink:href="dir_000005_000007.html" target="_top" xlink:title="1">
<text text-anchor="middle" x="97.2" y="-216.63" font-family="'Souce Sans Pro', Roboto, FreeSans, sans-serif" font-size="10.00">1</text>
</a>
</g>
</g>
<!-- dir_fa6d830662653e00a3f098549d35e05d&#45;&gt;dir_853879e30bdf8afe9a7079a6b1a108d0 -->
<g id="edge8" class="edge">
<title>dir_fa6d830662653e00a3f098549d35e05d&#45;&gt;dir_853879e30bdf8afe9a7079a6b1a108d0</title>
<path fill="none" stroke="black" d="M47.96,-311.51C43.48,-280.2 38.35,-213.61 66,-168 76.45,-150.75 94.9,-138.09 111.65,-129.48"/>
<polygon fill="black" stroke="black" points="113.24,-132.6 120.73,-125.1 110.2,-126.29 113.24,-132.6"/>
<g id="a_edge8&#45;headlabel"><a xlink:href="dir_000005_000008.html" target="_top" xlink:title="2">
<text text-anchor="middle" x="111.23" y="-134.22" font-family="'Souce Sans Pro', Roboto, FreeSans, sans-serif" font-size="10.00">2</text>
</a>
</g>
</g>
<!-- dir_978d533c27f1e6af39004a1d79354223&#45;&gt;dir_15e0ad6291f54c01f72f2b7a09f5a39a -->
<g id="edge11" class="edge">
<title>dir_978d533c27f1e6af39004a1d79354223&#45;&gt;dir_15e0ad6291f54c01f72f2b7a09f5a39a</title>
<path fill="none" stroke="black" d="M118.65,-204.1C124.53,-212.13 130.88,-221.87 136.09,-230.8"/>
<polygon fill="black" stroke="black" points="133.12,-232.66 141.04,-239.7 139.23,-229.26 133.12,-232.66"/>
<g id="a_edge11&#45;headlabel"><a xlink:href="dir_000007_000002.html" target="_top" xlink:title="5">
<text text-anchor="middle" x="128.89" y="-228.4" font-family="'Souce Sans Pro', Roboto, FreeSans, sans-serif" font-size="10.00">5</text>
</a>
</g>
</g>
<!-- dir_978d533c27f1e6af39004a1d79354223&#45;&gt;dir_853879e30bdf8afe9a7079a6b1a108d0 -->
<g id="edge12" class="edge">
<title>dir_978d533c27f1e6af39004a1d79354223&#45;&gt;dir_853879e30bdf8afe9a7079a6b1a108d0</title>
<path fill="none" stroke="black" d="M113.37,-167.7C118.72,-159.56 125.2,-149.69 131.11,-140.7"/>
<polygon fill="black" stroke="black" points="134.19,-142.38 136.76,-132.1 128.34,-138.54 134.19,-142.38"/>
<g id="a_edge12&#45;headlabel"><a xlink:href="dir_000007_000008.html" target="_top" xlink:title="2">
<text text-anchor="middle" x="134.59" y="-144.45" font-family="'Souce Sans Pro', Roboto, FreeSans, sans-serif" font-size="10.00">2</text>
</a>
</g>
</g>
<!-- dir_853879e30bdf8afe9a7079a6b1a108d0&#45;&gt;dir_beaf3939c5b2e4f56ef965799f9263aa -->
<g id="edge14" class="edge">
<title>dir_853879e30bdf8afe9a7079a6b1a108d0&#45;&gt;dir_beaf3939c5b2e4f56ef965799f9263aa</title>
<path fill="none" stroke="black" d="M148,-95.7C148,-87.98 148,-78.71 148,-70.11"/>
<polygon fill="black" stroke="black" points="151.5,-70.1 148,-60.1 144.5,-70.1 151.5,-70.1"/>
<g id="a_edge14&#45;headlabel"><a xlink:href="dir_000008_000001.html" target="_top" xlink:title="1">
<text text-anchor="middle" x="154.34" y="-71.2" font-family="'Souce Sans Pro', Roboto, FreeSans, sans-serif" font-size="10.00">1</text>
</a>
</g>
</g>
<!-- dir_853879e30bdf8afe9a7079a6b1a108d0&#45;&gt;dir_15e0ad6291f54c01f72f2b7a09f5a39a -->
<g id="edge13" class="edge">
<title>dir_853879e30bdf8afe9a7079a6b1a108d0&#45;&gt;dir_15e0ad6291f54c01f72f2b7a09f5a39a</title>
<path fill="none" stroke="black" d="M152.35,-132.19C154.56,-156.42 154.22,-200.89 151.84,-229.68"/>
<polygon fill="black" stroke="black" points="148.33,-229.57 150.83,-239.87 155.3,-230.27 148.33,-229.57"/>
<g id="a_edge13&#45;headlabel"><a xlink:href="dir_000008_000002.html" target="_top" xlink:title="2">
<text text-anchor="middle" x="145.86" y="-223.22" font-family="'Souce Sans Pro', Roboto, FreeSans, sans-serif" font-size="10.00">2</text>
</a>
</g>
</g>
</g>
</svg>
