<?xml version="1.0" encoding="UTF-8" standalone="no"?>
<!DOCTYPE svg PUBLIC "-//W3C//DTD SVG 1.1//EN"
 "http://www.w3.org/Graphics/SVG/1.1/DTD/svg11.dtd">
<!-- Generated by graphviz version 2.43.0 (0)
 -->
<!-- Title: filter.h Pages: 1 -->
<svg width="1695pt" height="364pt"
 viewBox="0.00 0.00 1694.50 364.00" xmlns="http://www.w3.org/2000/svg" xmlns:xlink="http://www.w3.org/1999/xlink">
<g id="graph0" class="graph" transform="scale(1 1) rotate(0) translate(4 360)">
<title>filter.h</title>
<polygon fill="white" stroke="transparent" points="-4,4 -4,-360 1690.5,-360 1690.5,4 -4,4"/>
<!-- Node1 -->
<g id="node1" class="node">
<title>Node1</title>
<g id="a_node1"><a xlink:title="This header defines Filter and all of it&#39;s subclasses.">
<polygon fill="#bfbfbf" stroke="black" points="1598.5,-336.5 1598.5,-355.5 1642.5,-355.5 1642.5,-336.5 1598.5,-336.5"/>
<text text-anchor="middle" x="1620.5" y="-343.5" font-family="'Souce Sans Pro', Roboto, FreeSans, sans-serif" font-size="10.00">filter.h</text>
</a>
</g>
</g>
<!-- Node2 -->
<g id="node2" class="node">
<title>Node2</title>
<g id="a_node2"><a xlink:href="appender_8h.html" target="_top" xlink:title=" ">
<polygon fill="white" stroke="black" points="1051,-280.5 1051,-299.5 1116,-299.5 1116,-280.5 1051,-280.5"/>
<text text-anchor="middle" x="1083.5" y="-287.5" font-family="'Souce Sans Pro', Roboto, FreeSans, sans-serif" font-size="10.00">appender.h</text>
</a>
</g>
</g>
<!-- Node1&#45;&gt;Node2 -->
<g id="edge1" class="edge">
<title>Node1&#45;&gt;Node2</title>
<path fill="none" stroke="midnightblue" d="M1588.25,-341.76C1492.76,-332.15 1212.13,-303.94 1116.14,-294.28"/>
<polygon fill="midnightblue" stroke="midnightblue" points="1588.15,-345.26 1598.45,-342.78 1588.85,-338.3 1588.15,-345.26"/>
</g>
<!-- Node6 -->
<g id="node6" class="node">
<title>Node6</title>
<g id="a_node6"><a xlink:href="log4cplus_8h.html" target="_top" xlink:title=" ">
<polygon fill="white" stroke="black" points="1227,-0.5 1227,-19.5 1294,-19.5 1294,-0.5 1227,-0.5"/>
<text text-anchor="middle" x="1260.5" y="-7.5" font-family="'Souce Sans Pro', Roboto, FreeSans, sans-serif" font-size="10.00">log4cplus.h</text>
</a>
</g>
</g>
<!-- Node1&#45;&gt;Node6 -->
<g id="edge46" class="edge">
<title>Node1&#45;&gt;Node6</title>
<path fill="none" stroke="midnightblue" d="M1637.41,-329.36C1656.96,-309.48 1686.5,-273.14 1686.5,-235 1686.5,-235 1686.5,-235 1686.5,-121 1686.5,-40.13 1395.04,-17.78 1294.28,-12.47"/>
<polygon fill="midnightblue" stroke="midnightblue" points="1634.94,-326.88 1630.24,-336.37 1639.83,-331.88 1634.94,-326.88"/>
</g>
<!-- Node19 -->
<g id="node19" class="node">
<title>Node19</title>
<g id="a_node19"><a xlink:href="factory_8h.html" target="_top" xlink:title=" ">
<polygon fill="white" stroke="black" points="1592.5,-224.5 1592.5,-243.5 1648.5,-243.5 1648.5,-224.5 1592.5,-224.5"/>
<text text-anchor="middle" x="1620.5" y="-231.5" font-family="'Souce Sans Pro', Roboto, FreeSans, sans-serif" font-size="10.00">factory.h</text>
</a>
</g>
</g>
<!-- Node1&#45;&gt;Node19 -->
<g id="edge45" class="edge">
<title>Node1&#45;&gt;Node19</title>
<path fill="none" stroke="midnightblue" d="M1620.5,-326.35C1620.5,-302.25 1620.5,-261.31 1620.5,-243.59"/>
<polygon fill="midnightblue" stroke="midnightblue" points="1617,-326.37 1620.5,-336.37 1624,-326.37 1617,-326.37"/>
</g>
<!-- Node3 -->
<g id="node3" class="node">
<title>Node3</title>
<g id="a_node3"><a xlink:href="appenderattachable_8h.html" target="_top" xlink:title=" ">
<polygon fill="white" stroke="black" points="776.5,-224.5 776.5,-243.5 886.5,-243.5 886.5,-224.5 776.5,-224.5"/>
<text text-anchor="middle" x="831.5" y="-231.5" font-family="'Souce Sans Pro', Roboto, FreeSans, sans-serif" font-size="10.00">appenderattachable.h</text>
</a>
</g>
</g>
<!-- Node2&#45;&gt;Node3 -->
<g id="edge2" class="edge">
<title>Node2&#45;&gt;Node3</title>
<path fill="none" stroke="midnightblue" d="M1040.86,-279.86C993.42,-269.7 917.39,-253.4 871.18,-243.5"/>
<polygon fill="midnightblue" stroke="midnightblue" points="1040.3,-283.32 1050.81,-282 1041.77,-276.48 1040.3,-283.32"/>
</g>
<!-- Node5 -->
<g id="node5" class="node">
<title>Node5</title>
<g id="a_node5"><a xlink:href="asyncappender_8h.html" target="_top" xlink:title=" ">
<polygon fill="white" stroke="black" points="704,-112.5 704,-131.5 795,-131.5 795,-112.5 704,-112.5"/>
<text text-anchor="middle" x="749.5" y="-119.5" font-family="'Souce Sans Pro', Roboto, FreeSans, sans-serif" font-size="10.00">asyncappender.h</text>
</a>
</g>
</g>
<!-- Node2&#45;&gt;Node5 -->
<g id="edge20" class="edge">
<title>Node2&#45;&gt;Node5</title>
<path fill="none" stroke="midnightblue" d="M1040.65,-289.45C898.9,-290.51 451.65,-290.12 408.5,-244 365.26,-197.78 601.35,-149.36 703.84,-130.83"/>
<polygon fill="midnightblue" stroke="midnightblue" points="1040.74,-292.95 1050.71,-289.37 1040.68,-285.95 1040.74,-292.95"/>
</g>
<!-- Node2&#45;&gt;Node6 -->
<g id="edge32" class="edge">
<title>Node2&#45;&gt;Node6</title>
<path fill="none" stroke="midnightblue" d="M1116.46,-276.21C1132.49,-268.72 1151.14,-257.95 1164.5,-244 1230.76,-174.79 1253.91,-53.48 1259.22,-19.86"/>
<polygon fill="midnightblue" stroke="midnightblue" points="1114.6,-273.21 1106.88,-280.46 1117.44,-279.61 1114.6,-273.21"/>
</g>
<!-- Node10 -->
<g id="node10" class="node">
<title>Node10</title>
<g id="a_node10"><a xlink:href="configurator_8h.html" target="_top" xlink:title=" ">
<polygon fill="white" stroke="black" points="609,-112.5 609,-131.5 686,-131.5 686,-112.5 609,-112.5"/>
<text text-anchor="middle" x="647.5" y="-119.5" font-family="'Souce Sans Pro', Roboto, FreeSans, sans-serif" font-size="10.00">configurator.h</text>
</a>
</g>
</g>
<!-- Node2&#45;&gt;Node10 -->
<g id="edge23" class="edge">
<title>Node2&#45;&gt;Node10</title>
<path fill="none" stroke="midnightblue" d="M1040.61,-288.31C873.79,-285.4 275.98,-273 248.5,-244 142.33,-131.95 489.91,-122.61 608.95,-122.62"/>
<polygon fill="midnightblue" stroke="midnightblue" points="1040.91,-291.81 1050.97,-288.48 1041.03,-284.81 1040.91,-291.81"/>
</g>
<!-- Node12 -->
<g id="node12" class="node">
<title>Node12</title>
<g id="a_node12"><a xlink:href="hierarchylocker_8h.html" target="_top" xlink:title=" ">
<polygon fill="white" stroke="black" points="1120,-112.5 1120,-131.5 1211,-131.5 1211,-112.5 1120,-112.5"/>
<text text-anchor="middle" x="1165.5" y="-119.5" font-family="'Souce Sans Pro', Roboto, FreeSans, sans-serif" font-size="10.00">hierarchylocker.h</text>
</a>
</g>
</g>
<!-- Node2&#45;&gt;Node12 -->
<g id="edge31" class="edge">
<title>Node2&#45;&gt;Node12</title>
<path fill="none" stroke="midnightblue" d="M1111.59,-275.53C1124.25,-268.02 1138.2,-257.44 1146.5,-244 1169.18,-207.27 1167.84,-152.71 1166.31,-131.69"/>
<polygon fill="midnightblue" stroke="midnightblue" points="1109.74,-272.56 1102.69,-280.46 1113.13,-278.68 1109.74,-272.56"/>
</g>
<!-- Node15 -->
<g id="node15" class="node">
<title>Node15</title>
<g id="a_node15"><a xlink:href="callbackappender_8h.html" target="_top" xlink:title=" ">
<polygon fill="white" stroke="black" points="0,-224.5 0,-243.5 101,-243.5 101,-224.5 0,-224.5"/>
<text text-anchor="middle" x="50.5" y="-231.5" font-family="'Souce Sans Pro', Roboto, FreeSans, sans-serif" font-size="10.00">callbackappender.h</text>
</a>
</g>
</g>
<!-- Node2&#45;&gt;Node15 -->
<g id="edge21" class="edge">
<title>Node2&#45;&gt;Node15</title>
<path fill="none" stroke="midnightblue" d="M1040.62,-288.59C904.32,-286.93 468.9,-279.07 110.5,-244 107.46,-243.7 104.34,-243.36 101.19,-242.98"/>
<polygon fill="midnightblue" stroke="midnightblue" points="1040.61,-292.09 1050.65,-288.7 1040.7,-285.09 1040.61,-292.09"/>
</g>
<!-- Node16 -->
<g id="node16" class="node">
<title>Node16</title>
<g id="a_node16"><a xlink:href="clfsappender_8h.html" target="_top" xlink:title=" ">
<polygon fill="white" stroke="black" points="119.5,-224.5 119.5,-243.5 201.5,-243.5 201.5,-224.5 119.5,-224.5"/>
<text text-anchor="middle" x="160.5" y="-231.5" font-family="'Souce Sans Pro', Roboto, FreeSans, sans-serif" font-size="10.00">clfsappender.h</text>
</a>
</g>
</g>
<!-- Node2&#45;&gt;Node16 -->
<g id="edge22" class="edge">
<title>Node2&#45;&gt;Node16</title>
<path fill="none" stroke="midnightblue" d="M1040.62,-288.45C914.04,-286.47 531.08,-277.9 215.5,-244 210.98,-243.51 206.26,-242.9 201.58,-242.23"/>
<polygon fill="midnightblue" stroke="midnightblue" points="1040.63,-291.95 1050.68,-288.6 1040.74,-284.95 1040.63,-291.95"/>
</g>
<!-- Node17 -->
<g id="node17" class="node">
<title>Node17</title>
<g id="a_node17"><a xlink:href="consoleappender_8h.html" target="_top" xlink:title=" ">
<polygon fill="white" stroke="black" points="1233,-168.5 1233,-187.5 1334,-187.5 1334,-168.5 1233,-168.5"/>
<text text-anchor="middle" x="1283.5" y="-175.5" font-family="'Souce Sans Pro', Roboto, FreeSans, sans-serif" font-size="10.00">consoleappender.h</text>
</a>
</g>
</g>
<!-- Node2&#45;&gt;Node17 -->
<g id="edge24" class="edge">
<title>Node2&#45;&gt;Node17</title>
<path fill="none" stroke="midnightblue" d="M1126.09,-288.7C1197.39,-287.18 1336.1,-279.61 1366.5,-244 1387,-219.99 1342.19,-198.82 1310.77,-187.57"/>
<polygon fill="midnightblue" stroke="midnightblue" points="1126.02,-285.2 1116.08,-288.88 1126.15,-292.2 1126.02,-285.2"/>
</g>
<!-- Node18 -->
<g id="node18" class="node">
<title>Node18</title>
<g id="a_node18"><a xlink:href="deviceappender_8hxx.html" target="_top" xlink:title=" ">
<polygon fill="white" stroke="black" points="257.5,-224.5 257.5,-243.5 361.5,-243.5 361.5,-224.5 257.5,-224.5"/>
<text text-anchor="middle" x="309.5" y="-231.5" font-family="'Souce Sans Pro', Roboto, FreeSans, sans-serif" font-size="10.00">deviceappender.hxx</text>
</a>
</g>
</g>
<!-- Node2&#45;&gt;Node18 -->
<g id="edge26" class="edge">
<title>Node2&#45;&gt;Node18</title>
<path fill="none" stroke="midnightblue" d="M1040.92,-287.36C930.72,-282.9 627.2,-269.13 375.5,-244 371.01,-243.55 366.36,-243.03 361.7,-242.47"/>
<polygon fill="midnightblue" stroke="midnightblue" points="1040.84,-290.86 1050.97,-287.77 1041.12,-283.87 1040.84,-290.86"/>
</g>
<!-- Node2&#45;&gt;Node19 -->
<g id="edge27" class="edge">
<title>Node2&#45;&gt;Node19</title>
<path fill="none" stroke="midnightblue" d="M1126.03,-286.25C1210.69,-280.5 1406.25,-265.92 1569.5,-244 1576.9,-243.01 1584.86,-241.71 1592.24,-240.41"/>
<polygon fill="midnightblue" stroke="midnightblue" points="1125.77,-282.75 1116.02,-286.92 1126.24,-289.74 1125.77,-282.75"/>
</g>
<!-- Node20 -->
<g id="node20" class="node">
<title>Node20</title>
<g id="a_node20"><a xlink:href="fileappender_8h.html" target="_top" xlink:title=" ">
<polygon fill="white" stroke="black" points="1309.5,-56.5 1309.5,-75.5 1387.5,-75.5 1387.5,-56.5 1309.5,-56.5"/>
<text text-anchor="middle" x="1348.5" y="-63.5" font-family="'Souce Sans Pro', Roboto, FreeSans, sans-serif" font-size="10.00">fileappender.h</text>
</a>
</g>
</g>
<!-- Node2&#45;&gt;Node20 -->
<g id="edge29" class="edge">
<title>Node2&#45;&gt;Node20</title>
<path fill="none" stroke="midnightblue" d="M1126.49,-289.1C1201.16,-288.27 1349.98,-281.78 1382.5,-244 1393.73,-230.96 1360.55,-109.61 1350.99,-75.74"/>
<polygon fill="midnightblue" stroke="midnightblue" points="1126.01,-285.61 1116.04,-289.19 1126.06,-292.61 1126.01,-285.61"/>
</g>
<!-- Node21 -->
<g id="node21" class="node">
<title>Node21</title>
<g id="a_node21"><a xlink:href="log4judpappender_8h.html" target="_top" xlink:title=" ">
<polygon fill="white" stroke="black" points="418,-224.5 418,-243.5 521,-243.5 521,-224.5 418,-224.5"/>
<text text-anchor="middle" x="469.5" y="-231.5" font-family="'Souce Sans Pro', Roboto, FreeSans, sans-serif" font-size="10.00">log4judpappender.h</text>
</a>
</g>
</g>
<!-- Node2&#45;&gt;Node21 -->
<g id="edge33" class="edge">
<title>Node2&#45;&gt;Node21</title>
<path fill="none" stroke="midnightblue" d="M1040.8,-286.52C947.73,-280.9 719.64,-265.96 529.5,-244 526.78,-243.69 523.99,-243.34 521.18,-242.98"/>
<polygon fill="midnightblue" stroke="midnightblue" points="1040.76,-290.03 1050.95,-287.13 1041.18,-283.04 1040.76,-290.03"/>
</g>
<!-- Node22 -->
<g id="node22" class="node">
<title>Node22</title>
<g id="a_node22"><a xlink:href="msttsappender_8h.html" target="_top" xlink:title=" ">
<polygon fill="white" stroke="black" points="539,-224.5 539,-243.5 630,-243.5 630,-224.5 539,-224.5"/>
<text text-anchor="middle" x="584.5" y="-231.5" font-family="'Souce Sans Pro', Roboto, FreeSans, sans-serif" font-size="10.00">msttsappender.h</text>
</a>
</g>
</g>
<!-- Node2&#45;&gt;Node22 -->
<g id="edge34" class="edge">
<title>Node2&#45;&gt;Node22</title>
<path fill="none" stroke="midnightblue" d="M1040.74,-285.54C961.46,-278.94 786.33,-263.44 639.5,-244 636.43,-243.59 633.27,-243.15 630.09,-242.68"/>
<polygon fill="midnightblue" stroke="midnightblue" points="1040.58,-289.04 1050.83,-286.38 1041.16,-282.07 1040.58,-289.04"/>
</g>
<!-- Node23 -->
<g id="node23" class="node">
<title>Node23</title>
<g id="a_node23"><a xlink:href="nteventlogappender_8h.html" target="_top" xlink:title=" ">
<polygon fill="white" stroke="black" points="648.5,-224.5 648.5,-243.5 758.5,-243.5 758.5,-224.5 648.5,-224.5"/>
<text text-anchor="middle" x="703.5" y="-231.5" font-family="'Souce Sans Pro', Roboto, FreeSans, sans-serif" font-size="10.00">nteventlogappender.h</text>
</a>
</g>
</g>
<!-- Node2&#45;&gt;Node23 -->
<g id="edge35" class="edge">
<title>Node2&#45;&gt;Node23</title>
<path fill="none" stroke="midnightblue" d="M1040.66,-282.91C971.44,-273.08 835.07,-253.7 758.67,-242.84"/>
<polygon fill="midnightblue" stroke="midnightblue" points="1040.38,-286.41 1050.77,-284.35 1041.36,-279.48 1040.38,-286.41"/>
</g>
<!-- Node24 -->
<g id="node24" class="node">
<title>Node24</title>
<g id="a_node24"><a xlink:href="nullappender_8h.html" target="_top" xlink:title=" ">
<polygon fill="white" stroke="black" points="1390.5,-168.5 1390.5,-187.5 1470.5,-187.5 1470.5,-168.5 1390.5,-168.5"/>
<text text-anchor="middle" x="1430.5" y="-175.5" font-family="'Souce Sans Pro', Roboto, FreeSans, sans-serif" font-size="10.00">nullappender.h</text>
</a>
</g>
</g>
<!-- Node2&#45;&gt;Node24 -->
<g id="edge36" class="edge">
<title>Node2&#45;&gt;Node24</title>
<path fill="none" stroke="midnightblue" d="M1126.12,-286.69C1215.75,-281.4 1417.19,-267.06 1437.5,-244 1451.3,-228.33 1441.65,-201.61 1435.13,-187.81"/>
<polygon fill="midnightblue" stroke="midnightblue" points="1125.8,-283.2 1116.02,-287.28 1126.21,-290.19 1125.8,-283.2"/>
</g>
<!-- Node25 -->
<g id="node25" class="node">
<title>Node25</title>
<g id="a_node25"><a xlink:href="qt4debugappender_8h.html" target="_top" xlink:title=" ">
<polygon fill="white" stroke="black" points="905,-224.5 905,-243.5 1012,-243.5 1012,-224.5 905,-224.5"/>
<text text-anchor="middle" x="958.5" y="-231.5" font-family="'Souce Sans Pro', Roboto, FreeSans, sans-serif" font-size="10.00">qt4debugappender.h</text>
</a>
</g>
</g>
<!-- Node2&#45;&gt;Node25 -->
<g id="edge38" class="edge">
<title>Node2&#45;&gt;Node25</title>
<path fill="none" stroke="midnightblue" d="M1054.26,-276.37C1030.85,-266.26 998.66,-252.35 978.21,-243.52"/>
<polygon fill="midnightblue" stroke="midnightblue" points="1053.13,-279.69 1063.69,-280.44 1055.9,-273.26 1053.13,-279.69"/>
</g>
<!-- Node26 -->
<g id="node26" class="node">
<title>Node26</title>
<g id="a_node26"><a xlink:href="qt5debugappender_8h.html" target="_top" xlink:title=" ">
<polygon fill="white" stroke="black" points="1030,-224.5 1030,-243.5 1137,-243.5 1137,-224.5 1030,-224.5"/>
<text text-anchor="middle" x="1083.5" y="-231.5" font-family="'Souce Sans Pro', Roboto, FreeSans, sans-serif" font-size="10.00">qt5debugappender.h</text>
</a>
</g>
</g>
<!-- Node2&#45;&gt;Node26 -->
<g id="edge39" class="edge">
<title>Node2&#45;&gt;Node26</title>
<path fill="none" stroke="midnightblue" d="M1083.5,-269.8C1083.5,-260.91 1083.5,-250.78 1083.5,-243.75"/>
<polygon fill="midnightblue" stroke="midnightblue" points="1080,-270.08 1083.5,-280.08 1087,-270.08 1080,-270.08"/>
</g>
<!-- Node27 -->
<g id="node27" class="node">
<title>Node27</title>
<g id="a_node27"><a xlink:href="socketappender_8h.html" target="_top" xlink:title=" ">
<polygon fill="white" stroke="black" points="1447,-56.5 1447,-75.5 1542,-75.5 1542,-56.5 1447,-56.5"/>
<text text-anchor="middle" x="1494.5" y="-63.5" font-family="'Souce Sans Pro', Roboto, FreeSans, sans-serif" font-size="10.00">socketappender.h</text>
</a>
</g>
</g>
<!-- Node2&#45;&gt;Node27 -->
<g id="edge40" class="edge">
<title>Node2&#45;&gt;Node27</title>
<path fill="none" stroke="midnightblue" d="M1126.24,-288.97C1212.44,-288.1 1403.26,-281.82 1454.5,-244 1509.25,-203.59 1500.09,-105.36 1495.89,-75.65"/>
<polygon fill="midnightblue" stroke="midnightblue" points="1125.99,-285.47 1116.02,-289.05 1126.05,-292.47 1125.99,-285.47"/>
</g>
<!-- Node28 -->
<g id="node28" class="node">
<title>Node28</title>
<g id="a_node28"><a xlink:href="syslogappender_8h.html" target="_top" xlink:title=" ">
<polygon fill="white" stroke="black" points="1526.5,-168.5 1526.5,-187.5 1620.5,-187.5 1620.5,-168.5 1526.5,-168.5"/>
<text text-anchor="middle" x="1573.5" y="-175.5" font-family="'Souce Sans Pro', Roboto, FreeSans, sans-serif" font-size="10.00">syslogappender.h</text>
</a>
</g>
</g>
<!-- Node2&#45;&gt;Node28 -->
<g id="edge42" class="edge">
<title>Node2&#45;&gt;Node28</title>
<path fill="none" stroke="midnightblue" d="M1126.25,-288.32C1221.15,-286.21 1446.32,-277.69 1513.5,-244 1539.31,-231.06 1559.57,-202.07 1568.51,-187.58"/>
<polygon fill="midnightblue" stroke="midnightblue" points="1126.06,-284.82 1116.14,-288.53 1126.21,-291.82 1126.06,-284.82"/>
</g>
<!-- Node29 -->
<g id="node29" class="node">
<title>Node29</title>
<g id="a_node29"><a xlink:href="win32consoleappender_8h.html" target="_top" xlink:title=" ">
<polygon fill="white" stroke="black" points="1231.5,-224.5 1231.5,-243.5 1357.5,-243.5 1357.5,-224.5 1231.5,-224.5"/>
<text text-anchor="middle" x="1294.5" y="-231.5" font-family="'Souce Sans Pro', Roboto, FreeSans, sans-serif" font-size="10.00">win32consoleappender.h</text>
</a>
</g>
</g>
<!-- Node2&#45;&gt;Node29 -->
<g id="edge44" class="edge">
<title>Node2&#45;&gt;Node29</title>
<path fill="none" stroke="midnightblue" d="M1125.71,-278.2C1165.59,-267.99 1224.62,-252.88 1261.26,-243.51"/>
<polygon fill="midnightblue" stroke="midnightblue" points="1124.83,-274.81 1116.01,-280.68 1126.56,-281.59 1124.83,-274.81"/>
</g>
<!-- Node4 -->
<g id="node4" class="node">
<title>Node4</title>
<g id="a_node4"><a xlink:href="appenderattachableimpl_8h.html" target="_top" xlink:title=" ">
<polygon fill="white" stroke="black" points="767,-168.5 767,-187.5 896,-187.5 896,-168.5 767,-168.5"/>
<text text-anchor="middle" x="831.5" y="-175.5" font-family="'Souce Sans Pro', Roboto, FreeSans, sans-serif" font-size="10.00">appenderattachableimpl.h</text>
</a>
</g>
</g>
<!-- Node3&#45;&gt;Node4 -->
<g id="edge3" class="edge">
<title>Node3&#45;&gt;Node4</title>
<path fill="none" stroke="midnightblue" d="M831.5,-213.8C831.5,-204.91 831.5,-194.78 831.5,-187.75"/>
<polygon fill="midnightblue" stroke="midnightblue" points="828,-214.08 831.5,-224.08 835,-214.08 828,-214.08"/>
</g>
<!-- Node9 -->
<g id="node9" class="node">
<title>Node9</title>
<g id="a_node9"><a xlink:href="logger_8h.html" target="_top" xlink:title="This header defines the Logger class and the logging macros.">
<polygon fill="white" stroke="black" points="935.5,-168.5 935.5,-187.5 987.5,-187.5 987.5,-168.5 935.5,-168.5"/>
<text text-anchor="middle" x="961.5" y="-175.5" font-family="'Souce Sans Pro', Roboto, FreeSans, sans-serif" font-size="10.00">logger.h</text>
</a>
</g>
</g>
<!-- Node3&#45;&gt;Node9 -->
<g id="edge8" class="edge">
<title>Node3&#45;&gt;Node9</title>
<path fill="none" stroke="midnightblue" d="M861.59,-220.5C885.96,-210.38 919.64,-196.39 941,-187.52"/>
<polygon fill="midnightblue" stroke="midnightblue" points="859.99,-217.38 852.1,-224.44 862.68,-223.84 859.99,-217.38"/>
</g>
<!-- Node4&#45;&gt;Node5 -->
<g id="edge4" class="edge">
<title>Node4&#45;&gt;Node5</title>
<path fill="none" stroke="midnightblue" d="M809.67,-162.62C794.69,-152.76 775.3,-139.99 762.64,-131.65"/>
<polygon fill="midnightblue" stroke="midnightblue" points="808.05,-165.75 818.33,-168.32 811.9,-159.9 808.05,-165.75"/>
</g>
<!-- Node7 -->
<g id="node7" class="node">
<title>Node7</title>
<g id="a_node7"><a xlink:href="loggerimpl_8h.html" target="_top" xlink:title=" ">
<polygon fill="white" stroke="black" points="813,-112.5 813,-131.5 884,-131.5 884,-112.5 813,-112.5"/>
<text text-anchor="middle" x="848.5" y="-119.5" font-family="'Souce Sans Pro', Roboto, FreeSans, sans-serif" font-size="10.00">loggerimpl.h</text>
</a>
</g>
</g>
<!-- Node4&#45;&gt;Node7 -->
<g id="edge6" class="edge">
<title>Node4&#45;&gt;Node7</title>
<path fill="none" stroke="midnightblue" d="M837.36,-158.4C840.2,-149.36 843.48,-138.94 845.75,-131.75"/>
<polygon fill="midnightblue" stroke="midnightblue" points="833.97,-157.49 834.31,-168.08 840.65,-159.6 833.97,-157.49"/>
</g>
<!-- Node5&#45;&gt;Node6 -->
<g id="edge5" class="edge">
<title>Node5&#45;&gt;Node6</title>
<path fill="none" stroke="midnightblue" d="M756.73,-102.99C763.89,-87.7 776.42,-66.61 794.5,-56 867.84,-12.95 1132.63,-10.21 1226.89,-10.65"/>
<polygon fill="midnightblue" stroke="midnightblue" points="753.4,-101.88 752.63,-112.44 759.82,-104.66 753.4,-101.88"/>
</g>
<!-- Node8 -->
<g id="node8" class="node">
<title>Node8</title>
<g id="a_node8"><a xlink:href="rootlogger_8h.html" target="_top" xlink:title=" ">
<polygon fill="white" stroke="black" points="803.5,-56.5 803.5,-75.5 873.5,-75.5 873.5,-56.5 803.5,-56.5"/>
<text text-anchor="middle" x="838.5" y="-63.5" font-family="'Souce Sans Pro', Roboto, FreeSans, sans-serif" font-size="10.00">rootlogger.h</text>
</a>
</g>
</g>
<!-- Node7&#45;&gt;Node8 -->
<g id="edge7" class="edge">
<title>Node7&#45;&gt;Node8</title>
<path fill="none" stroke="midnightblue" d="M845,-102.1C843.34,-93.14 841.44,-82.86 840.12,-75.75"/>
<polygon fill="midnightblue" stroke="midnightblue" points="841.59,-102.89 846.85,-112.08 848.47,-101.61 841.59,-102.89"/>
</g>
<!-- Node9&#45;&gt;Node6 -->
<g id="edge14" class="edge">
<title>Node9&#45;&gt;Node6</title>
<path fill="none" stroke="midnightblue" d="M995.74,-165.01C1018.07,-156.74 1047.58,-144.93 1072.5,-132 1142.44,-95.72 1219.68,-40.89 1248.66,-19.75"/>
<polygon fill="midnightblue" stroke="midnightblue" points="994.53,-161.73 986.34,-168.44 996.93,-168.3 994.53,-161.73"/>
</g>
<!-- Node9&#45;&gt;Node10 -->
<g id="edge9" class="edge">
<title>Node9&#45;&gt;Node10</title>
<path fill="none" stroke="midnightblue" d="M925.37,-171.17C874.01,-162.83 776.95,-146.84 694.5,-132 691.8,-131.51 689.02,-131 686.22,-130.48"/>
<polygon fill="midnightblue" stroke="midnightblue" points="924.89,-174.64 935.32,-172.79 926.01,-167.73 924.89,-174.64"/>
</g>
<!-- Node11 -->
<g id="node11" class="node">
<title>Node11</title>
<g id="a_node11"><a xlink:href="hierarchy_8h.html" target="_top" xlink:title=" ">
<polygon fill="white" stroke="black" points="891.5,-56.5 891.5,-75.5 955.5,-75.5 955.5,-56.5 891.5,-56.5"/>
<text text-anchor="middle" x="923.5" y="-63.5" font-family="'Souce Sans Pro', Roboto, FreeSans, sans-serif" font-size="10.00">hierarchy.h</text>
</a>
</g>
</g>
<!-- Node9&#45;&gt;Node11 -->
<g id="edge11" class="edge">
<title>Node9&#45;&gt;Node11</title>
<path fill="none" stroke="midnightblue" d="M955.17,-158.67C946.86,-134.62 932.62,-93.39 926.47,-75.59"/>
<polygon fill="midnightblue" stroke="midnightblue" points="951.94,-160.06 958.52,-168.37 958.56,-157.77 951.94,-160.06"/>
</g>
<!-- Node9&#45;&gt;Node12 -->
<g id="edge13" class="edge">
<title>Node9&#45;&gt;Node12</title>
<path fill="none" stroke="midnightblue" d="M997.51,-167.47C1035.97,-157.29 1096.37,-141.3 1133.3,-131.52"/>
<polygon fill="midnightblue" stroke="midnightblue" points="996.52,-164.11 987.75,-170.05 998.31,-170.88 996.52,-164.11"/>
</g>
<!-- Node13 -->
<g id="node13" class="node">
<title>Node13</title>
<g id="a_node13"><a xlink:href="loggingmacros_8h.html" target="_top" xlink:title="This header defines the logging macros.">
<polygon fill="white" stroke="black" points="973.5,-56.5 973.5,-75.5 1063.5,-75.5 1063.5,-56.5 973.5,-56.5"/>
<text text-anchor="middle" x="1018.5" y="-63.5" font-family="'Souce Sans Pro', Roboto, FreeSans, sans-serif" font-size="10.00">loggingmacros.h</text>
</a>
</g>
</g>
<!-- Node9&#45;&gt;Node13 -->
<g id="edge15" class="edge">
<title>Node9&#45;&gt;Node13</title>
<path fill="none" stroke="midnightblue" d="M964.83,-158.17C967.72,-144.74 972.68,-126.57 980.5,-112 988.05,-97.95 1000.51,-84.31 1009.09,-75.8"/>
<polygon fill="midnightblue" stroke="midnightblue" points="961.37,-157.66 962.88,-168.14 968.24,-159 961.37,-157.66"/>
</g>
<!-- Node14 -->
<g id="node14" class="node">
<title>Node14</title>
<g id="a_node14"><a xlink:href="tracelogger_8h.html" target="_top" xlink:title=" ">
<polygon fill="white" stroke="black" points="989.5,-112.5 989.5,-131.5 1063.5,-131.5 1063.5,-112.5 989.5,-112.5"/>
<text text-anchor="middle" x="1026.5" y="-119.5" font-family="'Souce Sans Pro', Roboto, FreeSans, sans-serif" font-size="10.00">tracelogger.h</text>
</a>
</g>
</g>
<!-- Node9&#45;&gt;Node14 -->
<g id="edge17" class="edge">
<title>Node9&#45;&gt;Node14</title>
<path fill="none" stroke="midnightblue" d="M979.77,-161.82C991.42,-152.15 1006.1,-139.95 1015.87,-131.83"/>
<polygon fill="midnightblue" stroke="midnightblue" points="977.4,-159.24 971.94,-168.32 981.87,-164.63 977.4,-159.24"/>
</g>
<!-- Node10&#45;&gt;Node6 -->
<g id="edge10" class="edge">
<title>Node10&#45;&gt;Node6</title>
<path fill="none" stroke="midnightblue" d="M668.18,-106.77C691.77,-91.35 732.08,-67.42 770.5,-56 856.38,-30.48 1130.47,-16.57 1226.71,-12.38"/>
<polygon fill="midnightblue" stroke="midnightblue" points="666.09,-103.96 659.71,-112.42 669.97,-109.78 666.09,-103.96"/>
</g>
<!-- Node11&#45;&gt;Node6 -->
<g id="edge12" class="edge">
<title>Node11&#45;&gt;Node6</title>
<path fill="none" stroke="midnightblue" d="M965.71,-55.87C1066.24,-37.45 1173.3,-22.53 1226.64,-15.42"/>
<polygon fill="midnightblue" stroke="midnightblue" points="964.89,-52.47 955.69,-57.73 966.16,-59.35 964.89,-52.47"/>
</g>
<!-- Node13&#45;&gt;Node6 -->
<g id="edge16" class="edge">
<title>Node13&#45;&gt;Node6</title>
<path fill="none" stroke="midnightblue" d="M1066.86,-54.21C1114.18,-43.65 1185.03,-27.84 1226.63,-18.56"/>
<polygon fill="midnightblue" stroke="midnightblue" points="1065.84,-50.85 1056.85,-56.44 1067.37,-57.68 1065.84,-50.85"/>
</g>
<!-- Node14&#45;&gt;Node6 -->
<g id="edge18" class="edge">
<title>Node14&#45;&gt;Node6</title>
<path fill="none" stroke="midnightblue" d="M1044.2,-105.32C1061.38,-90.8 1088.71,-69.47 1115.5,-56 1151.65,-37.83 1196.58,-25.27 1226.76,-18.12"/>
<polygon fill="midnightblue" stroke="midnightblue" points="1041.49,-103.04 1036.2,-112.22 1046.06,-108.34 1041.49,-103.04"/>
</g>
<!-- Node14&#45;&gt;Node13 -->
<g id="edge19" class="edge">
<title>Node14&#45;&gt;Node13</title>
<path fill="none" stroke="midnightblue" d="M1023.7,-102.1C1022.37,-93.14 1020.85,-82.86 1019.8,-75.75"/>
<polygon fill="midnightblue" stroke="midnightblue" points="1020.25,-102.7 1025.18,-112.08 1027.18,-101.68 1020.25,-102.7"/>
</g>
<!-- Node17&#45;&gt;Node6 -->
<g id="edge25" class="edge">
<title>Node17&#45;&gt;Node6</title>
<path fill="none" stroke="midnightblue" d="M1280.86,-157.93C1275.87,-121.92 1265.24,-45.23 1261.69,-19.57"/>
<polygon fill="midnightblue" stroke="midnightblue" points="1277.42,-158.65 1282.26,-168.08 1284.36,-157.69 1277.42,-158.65"/>
</g>
<!-- Node19&#45;&gt;Node6 -->
<g id="edge28" class="edge">
<title>Node19&#45;&gt;Node6</title>
<path fill="none" stroke="midnightblue" d="M1626.65,-214.78C1630.2,-201.64 1633.29,-183.57 1629.5,-168 1616.23,-113.54 1617.18,-88.49 1571.5,-56 1527.43,-24.65 1365.11,-14.87 1294.11,-12.05"/>
<polygon fill="midnightblue" stroke="midnightblue" points="1623.26,-213.9 1623.69,-224.48 1629.95,-215.94 1623.26,-213.9"/>
</g>
<!-- Node20&#45;&gt;Node6 -->
<g id="edge30" class="edge">
<title>Node20&#45;&gt;Node6</title>
<path fill="none" stroke="midnightblue" d="M1325.52,-50.9C1309.39,-41 1288.32,-28.07 1274.6,-19.65"/>
<polygon fill="midnightblue" stroke="midnightblue" points="1324.01,-54.08 1334.36,-56.32 1327.67,-48.11 1324.01,-54.08"/>
</g>
<!-- Node24&#45;&gt;Node6 -->
<g id="edge37" class="edge">
<title>Node24&#45;&gt;Node6</title>
<path fill="none" stroke="midnightblue" d="M1430.44,-158.22C1429.33,-131.92 1423.42,-84.17 1396.5,-56 1369.7,-27.95 1325.06,-17.37 1294.27,-13.39"/>
<polygon fill="midnightblue" stroke="midnightblue" points="1426.94,-158.44 1430.67,-168.36 1433.94,-158.28 1426.94,-158.44"/>
</g>
<!-- Node27&#45;&gt;Node6 -->
<g id="edge41" class="edge">
<title>Node27&#45;&gt;Node6</title>
<path fill="none" stroke="midnightblue" d="M1447.54,-54.16C1402.2,-43.7 1334.67,-28.12 1294.37,-18.82"/>
<polygon fill="midnightblue" stroke="midnightblue" points="1446.89,-57.61 1457.42,-56.44 1448.47,-50.78 1446.89,-57.61"/>
</g>
<!-- Node28&#45;&gt;Node6 -->
<g id="edge43" class="edge">
<title>Node28&#45;&gt;Node6</title>
<path fill="none" stroke="midnightblue" d="M1576.14,-158.18C1578.73,-131.44 1578.95,-82.73 1551.5,-56 1515.47,-20.91 1362.94,-13.18 1294.26,-11.48"/>
<polygon fill="midnightblue" stroke="midnightblue" points="1572.62,-158.12 1574.92,-168.47 1579.57,-158.95 1572.62,-158.12"/>
</g>
</g>
</svg>
