<?xml version="1.0" encoding="UTF-8" standalone="no"?>
<!DOCTYPE svg PUBLIC "-//W3C//DTD SVG 1.1//EN"
 "http://www.w3.org/Graphics/SVG/1.1/DTD/svg11.dtd">
<!-- Generated by graphviz version 2.43.0 (0)
 -->
<!-- Title: lockfile.h Pages: 1 -->
<svg width="2078pt" height="364pt"
 viewBox="0.00 0.00 2077.50 364.00" xmlns="http://www.w3.org/2000/svg" xmlns:xlink="http://www.w3.org/1999/xlink">
<g id="graph0" class="graph" transform="scale(1 1) rotate(0) translate(4 360)">
<title>lockfile.h</title>
<polygon fill="white" stroke="transparent" points="-4,4 -4,-360 2073.5,-360 2073.5,4 -4,4"/>
<!-- Node1 -->
<g id="node1" class="node">
<title>Node1</title>
<g id="a_node1"><a xlink:title=" ">
<polygon fill="#bfbfbf" stroke="black" points="948.5,-336.5 948.5,-355.5 1004.5,-355.5 1004.5,-336.5 948.5,-336.5"/>
<text text-anchor="middle" x="976.5" y="-343.5" font-family="'Souce Sans Pro', Roboto, FreeSans, sans-serif" font-size="10.00">lockfile.h</text>
</a>
</g>
</g>
<!-- Node2 -->
<g id="node2" class="node">
<title>Node2</title>
<g id="a_node2"><a xlink:href="appender_8h.html" target="_top" xlink:title=" ">
<polygon fill="white" stroke="black" points="914,-280.5 914,-299.5 979,-299.5 979,-280.5 914,-280.5"/>
<text text-anchor="middle" x="946.5" y="-287.5" font-family="'Souce Sans Pro', Roboto, FreeSans, sans-serif" font-size="10.00">appender.h</text>
</a>
</g>
</g>
<!-- Node1&#45;&gt;Node2 -->
<g id="edge1" class="edge">
<title>Node1&#45;&gt;Node2</title>
<path fill="none" stroke="midnightblue" d="M966.65,-327.27C961.53,-318.05 955.48,-307.17 951.36,-299.75"/>
<polygon fill="midnightblue" stroke="midnightblue" points="963.63,-329.04 971.55,-336.08 969.75,-325.64 963.63,-329.04"/>
</g>
<!-- Node20 -->
<g id="node20" class="node">
<title>Node20</title>
<g id="a_node20"><a xlink:href="fileappender_8h.html" target="_top" xlink:title=" ">
<polygon fill="white" stroke="black" points="1991.5,-224.5 1991.5,-243.5 2069.5,-243.5 2069.5,-224.5 1991.5,-224.5"/>
<text text-anchor="middle" x="2030.5" y="-231.5" font-family="'Souce Sans Pro', Roboto, FreeSans, sans-serif" font-size="10.00">fileappender.h</text>
</a>
</g>
</g>
<!-- Node1&#45;&gt;Node20 -->
<g id="edge45" class="edge">
<title>Node1&#45;&gt;Node20</title>
<path fill="none" stroke="midnightblue" d="M1014.75,-342.34C1148.41,-332.8 1606.95,-297.96 1982.5,-244 1985.35,-243.59 1988.3,-243.13 1991.25,-242.64"/>
<polygon fill="midnightblue" stroke="midnightblue" points="1014.34,-338.86 1004.61,-343.06 1014.83,-345.84 1014.34,-338.86"/>
</g>
<!-- Node3 -->
<g id="node3" class="node">
<title>Node3</title>
<g id="a_node3"><a xlink:href="appenderattachable_8h.html" target="_top" xlink:title=" ">
<polygon fill="white" stroke="black" points="280.5,-224.5 280.5,-243.5 390.5,-243.5 390.5,-224.5 280.5,-224.5"/>
<text text-anchor="middle" x="335.5" y="-231.5" font-family="'Souce Sans Pro', Roboto, FreeSans, sans-serif" font-size="10.00">appenderattachable.h</text>
</a>
</g>
</g>
<!-- Node2&#45;&gt;Node3 -->
<g id="edge2" class="edge">
<title>Node2&#45;&gt;Node3</title>
<path fill="none" stroke="midnightblue" d="M903.9,-285.25C816.36,-277.55 609.85,-259.37 436.5,-244 421.59,-242.68 405.45,-241.24 390.54,-239.91"/>
<polygon fill="midnightblue" stroke="midnightblue" points="903.71,-288.75 913.98,-286.14 904.33,-281.78 903.71,-288.75"/>
</g>
<!-- Node5 -->
<g id="node5" class="node">
<title>Node5</title>
<g id="a_node5"><a xlink:href="asyncappender_8h.html" target="_top" xlink:title=" ">
<polygon fill="white" stroke="black" points="0,-112.5 0,-131.5 91,-131.5 91,-112.5 0,-112.5"/>
<text text-anchor="middle" x="45.5" y="-119.5" font-family="'Souce Sans Pro', Roboto, FreeSans, sans-serif" font-size="10.00">asyncappender.h</text>
</a>
</g>
</g>
<!-- Node2&#45;&gt;Node5 -->
<g id="edge20" class="edge">
<title>Node2&#45;&gt;Node5</title>
<path fill="none" stroke="midnightblue" d="M903.81,-289.2C796.63,-289.03 507.88,-284.52 271.5,-244 180.52,-228.4 140.18,-249.67 71.5,-188 54.68,-172.9 48.58,-145.43 46.5,-131.53"/>
<polygon fill="midnightblue" stroke="midnightblue" points="903.9,-292.7 913.9,-289.2 903.9,-285.7 903.9,-292.7"/>
</g>
<!-- Node6 -->
<g id="node6" class="node">
<title>Node6</title>
<g id="a_node6"><a xlink:href="log4cplus_8h.html" target="_top" xlink:title=" ">
<polygon fill="white" stroke="black" points="570,-0.5 570,-19.5 637,-19.5 637,-0.5 570,-0.5"/>
<text text-anchor="middle" x="603.5" y="-7.5" font-family="'Souce Sans Pro', Roboto, FreeSans, sans-serif" font-size="10.00">log4cplus.h</text>
</a>
</g>
</g>
<!-- Node2&#45;&gt;Node6 -->
<g id="edge32" class="edge">
<title>Node2&#45;&gt;Node6</title>
<path fill="none" stroke="midnightblue" d="M918.67,-275.27C906.76,-267.81 894.1,-257.34 887.5,-244 883.56,-236.03 884.16,-232.24 887.5,-224 895.89,-203.32 914.11,-208.68 922.5,-188 925.84,-179.76 924.48,-176.67 922.5,-168 910.19,-114.13 912.66,-89.22 868.5,-56 832.51,-28.93 700.17,-17.1 637.21,-12.92"/>
<polygon fill="midnightblue" stroke="midnightblue" points="917.11,-278.41 927.52,-280.4 920.62,-272.36 917.11,-278.41"/>
</g>
<!-- Node10 -->
<g id="node10" class="node">
<title>Node10</title>
<g id="a_node10"><a xlink:href="configurator_8h.html" target="_top" xlink:title=" ">
<polygon fill="white" stroke="black" points="405,-112.5 405,-131.5 482,-131.5 482,-112.5 405,-112.5"/>
<text text-anchor="middle" x="443.5" y="-119.5" font-family="'Souce Sans Pro', Roboto, FreeSans, sans-serif" font-size="10.00">configurator.h</text>
</a>
</g>
</g>
<!-- Node2&#45;&gt;Node10 -->
<g id="edge23" class="edge">
<title>Node2&#45;&gt;Node10</title>
<path fill="none" stroke="midnightblue" d="M903.73,-288.05C814.01,-285.44 609.4,-276.04 548.5,-244 497.55,-217.19 460.34,-154.63 447.97,-131.66"/>
<polygon fill="midnightblue" stroke="midnightblue" points="903.74,-291.55 913.83,-288.33 903.93,-284.55 903.74,-291.55"/>
</g>
<!-- Node12 -->
<g id="node12" class="node">
<title>Node12</title>
<g id="a_node12"><a xlink:href="hierarchylocker_8h.html" target="_top" xlink:title=" ">
<polygon fill="white" stroke="black" points="500,-112.5 500,-131.5 591,-131.5 591,-112.5 500,-112.5"/>
<text text-anchor="middle" x="545.5" y="-119.5" font-family="'Souce Sans Pro', Roboto, FreeSans, sans-serif" font-size="10.00">hierarchylocker.h</text>
</a>
</g>
</g>
<!-- Node2&#45;&gt;Node12 -->
<g id="edge31" class="edge">
<title>Node2&#45;&gt;Node12</title>
<path fill="none" stroke="midnightblue" d="M903.71,-288.78C838.58,-287.24 711.5,-279.45 610.5,-244 564.97,-228.02 541.24,-230 517.5,-188 506.62,-168.75 524.88,-144.43 536.68,-131.69"/>
<polygon fill="midnightblue" stroke="midnightblue" points="903.92,-292.29 913.99,-288.99 904.06,-285.29 903.92,-292.29"/>
</g>
<!-- Node15 -->
<g id="node15" class="node">
<title>Node15</title>
<g id="a_node15"><a xlink:href="callbackappender_8h.html" target="_top" xlink:title=" ">
<polygon fill="white" stroke="black" points="896,-224.5 896,-243.5 997,-243.5 997,-224.5 896,-224.5"/>
<text text-anchor="middle" x="946.5" y="-231.5" font-family="'Souce Sans Pro', Roboto, FreeSans, sans-serif" font-size="10.00">callbackappender.h</text>
</a>
</g>
</g>
<!-- Node2&#45;&gt;Node15 -->
<g id="edge21" class="edge">
<title>Node2&#45;&gt;Node15</title>
<path fill="none" stroke="midnightblue" d="M946.5,-269.8C946.5,-260.91 946.5,-250.78 946.5,-243.75"/>
<polygon fill="midnightblue" stroke="midnightblue" points="943,-270.08 946.5,-280.08 950,-270.08 943,-270.08"/>
</g>
<!-- Node16 -->
<g id="node16" class="node">
<title>Node16</title>
<g id="a_node16"><a xlink:href="clfsappender_8h.html" target="_top" xlink:title=" ">
<polygon fill="white" stroke="black" points="1015.5,-224.5 1015.5,-243.5 1097.5,-243.5 1097.5,-224.5 1015.5,-224.5"/>
<text text-anchor="middle" x="1056.5" y="-231.5" font-family="'Souce Sans Pro', Roboto, FreeSans, sans-serif" font-size="10.00">clfsappender.h</text>
</a>
</g>
</g>
<!-- Node2&#45;&gt;Node16 -->
<g id="edge22" class="edge">
<title>Node2&#45;&gt;Node16</title>
<path fill="none" stroke="midnightblue" d="M973.26,-275.86C993.66,-265.85 1021.17,-252.35 1038.87,-243.65"/>
<polygon fill="midnightblue" stroke="midnightblue" points="971.61,-272.78 964.17,-280.32 974.69,-279.06 971.61,-272.78"/>
</g>
<!-- Node17 -->
<g id="node17" class="node">
<title>Node17</title>
<g id="a_node17"><a xlink:href="consoleappender_8h.html" target="_top" xlink:title=" ">
<polygon fill="white" stroke="black" points="526,-168.5 526,-187.5 627,-187.5 627,-168.5 526,-168.5"/>
<text text-anchor="middle" x="576.5" y="-175.5" font-family="'Souce Sans Pro', Roboto, FreeSans, sans-serif" font-size="10.00">consoleappender.h</text>
</a>
</g>
</g>
<!-- Node2&#45;&gt;Node17 -->
<g id="edge24" class="edge">
<title>Node2&#45;&gt;Node17</title>
<path fill="none" stroke="midnightblue" d="M903.72,-286.01C830.97,-280.38 686.62,-266.69 641.5,-244 614.98,-230.66 592.68,-202.39 582.47,-187.93"/>
<polygon fill="midnightblue" stroke="midnightblue" points="903.68,-289.52 913.92,-286.78 904.21,-282.54 903.68,-289.52"/>
</g>
<!-- Node18 -->
<g id="node18" class="node">
<title>Node18</title>
<g id="a_node18"><a xlink:href="deviceappender_8hxx.html" target="_top" xlink:title=" ">
<polygon fill="white" stroke="black" points="1115.5,-224.5 1115.5,-243.5 1219.5,-243.5 1219.5,-224.5 1115.5,-224.5"/>
<text text-anchor="middle" x="1167.5" y="-231.5" font-family="'Souce Sans Pro', Roboto, FreeSans, sans-serif" font-size="10.00">deviceappender.hxx</text>
</a>
</g>
</g>
<!-- Node2&#45;&gt;Node18 -->
<g id="edge26" class="edge">
<title>Node2&#45;&gt;Node18</title>
<path fill="none" stroke="midnightblue" d="M988.98,-278.62C1030.71,-268.42 1093.64,-253.05 1132.57,-243.54"/>
<polygon fill="midnightblue" stroke="midnightblue" points="987.99,-275.26 979.11,-281.03 989.65,-282.06 987.99,-275.26"/>
</g>
<!-- Node19 -->
<g id="node19" class="node">
<title>Node19</title>
<g id="a_node19"><a xlink:href="factory_8h.html" target="_top" xlink:title=" ">
<polygon fill="white" stroke="black" points="631.5,-56.5 631.5,-75.5 687.5,-75.5 687.5,-56.5 631.5,-56.5"/>
<text text-anchor="middle" x="659.5" y="-63.5" font-family="'Souce Sans Pro', Roboto, FreeSans, sans-serif" font-size="10.00">factory.h</text>
</a>
</g>
</g>
<!-- Node2&#45;&gt;Node19 -->
<g id="edge27" class="edge">
<title>Node2&#45;&gt;Node19</title>
<path fill="none" stroke="midnightblue" d="M903.43,-288.42C839.2,-284.86 720.9,-267.27 674.5,-188 652.79,-150.92 656.08,-96.56 658.37,-75.64"/>
<polygon fill="midnightblue" stroke="midnightblue" points="903.49,-291.92 913.64,-288.89 903.81,-284.93 903.49,-291.92"/>
</g>
<!-- Node2&#45;&gt;Node20 -->
<g id="edge29" class="edge">
<title>Node2&#45;&gt;Node20</title>
<path fill="none" stroke="midnightblue" d="M989.33,-289.31C1131.28,-289.88 1599.06,-288.05 1982.5,-244 1985.36,-243.67 1988.31,-243.27 1991.28,-242.82"/>
<polygon fill="midnightblue" stroke="midnightblue" points="989.31,-285.81 979.29,-289.26 989.28,-292.81 989.31,-285.81"/>
</g>
<!-- Node21 -->
<g id="node21" class="node">
<title>Node21</title>
<g id="a_node21"><a xlink:href="log4judpappender_8h.html" target="_top" xlink:title=" ">
<polygon fill="white" stroke="black" points="1238,-224.5 1238,-243.5 1341,-243.5 1341,-224.5 1238,-224.5"/>
<text text-anchor="middle" x="1289.5" y="-231.5" font-family="'Souce Sans Pro', Roboto, FreeSans, sans-serif" font-size="10.00">log4judpappender.h</text>
</a>
</g>
</g>
<!-- Node2&#45;&gt;Node21 -->
<g id="edge33" class="edge">
<title>Node2&#45;&gt;Node21</title>
<path fill="none" stroke="midnightblue" d="M989.07,-282.3C1052.06,-272.38 1169.92,-253.83 1237.79,-243.14"/>
<polygon fill="midnightblue" stroke="midnightblue" points="988.41,-278.86 979.08,-283.87 989.5,-285.77 988.41,-278.86"/>
</g>
<!-- Node22 -->
<g id="node22" class="node">
<title>Node22</title>
<g id="a_node22"><a xlink:href="msttsappender_8h.html" target="_top" xlink:title=" ">
<polygon fill="white" stroke="black" points="1359,-224.5 1359,-243.5 1450,-243.5 1450,-224.5 1359,-224.5"/>
<text text-anchor="middle" x="1404.5" y="-231.5" font-family="'Souce Sans Pro', Roboto, FreeSans, sans-serif" font-size="10.00">msttsappender.h</text>
</a>
</g>
</g>
<!-- Node2&#45;&gt;Node22 -->
<g id="edge34" class="edge">
<title>Node2&#45;&gt;Node22</title>
<path fill="none" stroke="midnightblue" d="M989.33,-285C1063.2,-277.93 1219.25,-262.23 1350.5,-244 1353.23,-243.62 1356.03,-243.21 1358.86,-242.79"/>
<polygon fill="midnightblue" stroke="midnightblue" points="988.67,-281.55 979.04,-285.98 989.33,-288.52 988.67,-281.55"/>
</g>
<!-- Node23 -->
<g id="node23" class="node">
<title>Node23</title>
<g id="a_node23"><a xlink:href="nteventlogappender_8h.html" target="_top" xlink:title=" ">
<polygon fill="white" stroke="black" points="1468.5,-224.5 1468.5,-243.5 1578.5,-243.5 1578.5,-224.5 1468.5,-224.5"/>
<text text-anchor="middle" x="1523.5" y="-231.5" font-family="'Souce Sans Pro', Roboto, FreeSans, sans-serif" font-size="10.00">nteventlogappender.h</text>
</a>
</g>
</g>
<!-- Node2&#45;&gt;Node23 -->
<g id="edge35" class="edge">
<title>Node2&#45;&gt;Node23</title>
<path fill="none" stroke="midnightblue" d="M989.42,-286C1077.62,-279.66 1285.58,-263.84 1459.5,-244 1462.4,-243.67 1465.37,-243.31 1468.37,-242.94"/>
<polygon fill="midnightblue" stroke="midnightblue" points="988.99,-282.52 979.27,-286.72 989.49,-289.5 988.99,-282.52"/>
</g>
<!-- Node24 -->
<g id="node24" class="node">
<title>Node24</title>
<g id="a_node24"><a xlink:href="nullappender_8h.html" target="_top" xlink:title=" ">
<polygon fill="white" stroke="black" points="683.5,-168.5 683.5,-187.5 763.5,-187.5 763.5,-168.5 683.5,-168.5"/>
<text text-anchor="middle" x="723.5" y="-175.5" font-family="'Souce Sans Pro', Roboto, FreeSans, sans-serif" font-size="10.00">nullappender.h</text>
</a>
</g>
</g>
<!-- Node2&#45;&gt;Node24 -->
<g id="edge36" class="edge">
<title>Node2&#45;&gt;Node24</title>
<path fill="none" stroke="midnightblue" d="M903.76,-284.93C867.73,-279.86 816.03,-268.64 777.5,-244 754.51,-229.3 736.42,-201.65 728.25,-187.62"/>
<polygon fill="midnightblue" stroke="midnightblue" points="903.58,-288.43 913.94,-286.25 904.48,-281.49 903.58,-288.43"/>
</g>
<!-- Node25 -->
<g id="node25" class="node">
<title>Node25</title>
<g id="a_node25"><a xlink:href="qt4debugappender_8h.html" target="_top" xlink:title=" ">
<polygon fill="white" stroke="black" points="1597,-224.5 1597,-243.5 1704,-243.5 1704,-224.5 1597,-224.5"/>
<text text-anchor="middle" x="1650.5" y="-231.5" font-family="'Souce Sans Pro', Roboto, FreeSans, sans-serif" font-size="10.00">qt4debugappender.h</text>
</a>
</g>
</g>
<!-- Node2&#45;&gt;Node25 -->
<g id="edge38" class="edge">
<title>Node2&#45;&gt;Node25</title>
<path fill="none" stroke="midnightblue" d="M989.28,-287.06C1092.41,-282.15 1362.81,-267.9 1587.5,-244 1590.58,-243.67 1593.73,-243.31 1596.92,-242.92"/>
<polygon fill="midnightblue" stroke="midnightblue" points="989.08,-283.57 979.26,-287.53 989.41,-290.56 989.08,-283.57"/>
</g>
<!-- Node26 -->
<g id="node26" class="node">
<title>Node26</title>
<g id="a_node26"><a xlink:href="qt5debugappender_8h.html" target="_top" xlink:title=" ">
<polygon fill="white" stroke="black" points="1722,-224.5 1722,-243.5 1829,-243.5 1829,-224.5 1722,-224.5"/>
<text text-anchor="middle" x="1775.5" y="-231.5" font-family="'Souce Sans Pro', Roboto, FreeSans, sans-serif" font-size="10.00">qt5debugappender.h</text>
</a>
</g>
</g>
<!-- Node2&#45;&gt;Node26 -->
<g id="edge39" class="edge">
<title>Node2&#45;&gt;Node26</title>
<path fill="none" stroke="midnightblue" d="M989.38,-287.77C1105.96,-284.15 1438.43,-271.98 1713.5,-244 1716.21,-243.72 1718.97,-243.42 1721.77,-243.09"/>
<polygon fill="midnightblue" stroke="midnightblue" points="988.99,-284.28 979.1,-288.09 989.2,-291.28 988.99,-284.28"/>
</g>
<!-- Node27 -->
<g id="node27" class="node">
<title>Node27</title>
<g id="a_node27"><a xlink:href="socketappender_8h.html" target="_top" xlink:title=" ">
<polygon fill="white" stroke="black" points="744,-56.5 744,-75.5 839,-75.5 839,-56.5 744,-56.5"/>
<text text-anchor="middle" x="791.5" y="-63.5" font-family="'Souce Sans Pro', Roboto, FreeSans, sans-serif" font-size="10.00">socketappender.h</text>
</a>
</g>
</g>
<!-- Node2&#45;&gt;Node27 -->
<g id="edge40" class="edge">
<title>Node2&#45;&gt;Node27</title>
<path fill="none" stroke="midnightblue" d="M904.8,-277.11C884.91,-269.91 861.75,-259.14 844.5,-244 792.67,-198.51 790.51,-104.58 791.15,-75.67"/>
<polygon fill="midnightblue" stroke="midnightblue" points="903.67,-280.42 914.26,-280.36 905.94,-273.8 903.67,-280.42"/>
</g>
<!-- Node28 -->
<g id="node28" class="node">
<title>Node28</title>
<g id="a_node28"><a xlink:href="syslogappender_8h.html" target="_top" xlink:title=" ">
<polygon fill="white" stroke="black" points="819.5,-168.5 819.5,-187.5 913.5,-187.5 913.5,-168.5 819.5,-168.5"/>
<text text-anchor="middle" x="866.5" y="-175.5" font-family="'Souce Sans Pro', Roboto, FreeSans, sans-serif" font-size="10.00">syslogappender.h</text>
</a>
</g>
</g>
<!-- Node2&#45;&gt;Node28 -->
<g id="edge42" class="edge">
<title>Node2&#45;&gt;Node28</title>
<path fill="none" stroke="midnightblue" d="M904.13,-279.42C885.21,-272.8 864.7,-261.86 853.5,-244 842.37,-226.26 853.64,-200.89 861.08,-187.71"/>
<polygon fill="midnightblue" stroke="midnightblue" points="903.23,-282.81 913.82,-282.5 905.35,-276.13 903.23,-282.81"/>
</g>
<!-- Node29 -->
<g id="node29" class="node">
<title>Node29</title>
<g id="a_node29"><a xlink:href="win32consoleappender_8h.html" target="_top" xlink:title=" ">
<polygon fill="white" stroke="black" points="1847.5,-224.5 1847.5,-243.5 1973.5,-243.5 1973.5,-224.5 1847.5,-224.5"/>
<text text-anchor="middle" x="1910.5" y="-231.5" font-family="'Souce Sans Pro', Roboto, FreeSans, sans-serif" font-size="10.00">win32consoleappender.h</text>
</a>
</g>
</g>
<!-- Node2&#45;&gt;Node29 -->
<g id="edge44" class="edge">
<title>Node2&#45;&gt;Node29</title>
<path fill="none" stroke="midnightblue" d="M989.61,-287.96C1118.61,-284.59 1512.85,-272.53 1838.5,-244 1841.39,-243.75 1844.34,-243.47 1847.31,-243.17"/>
<polygon fill="midnightblue" stroke="midnightblue" points="989.27,-284.46 979.36,-288.22 989.45,-291.46 989.27,-284.46"/>
</g>
<!-- Node4 -->
<g id="node4" class="node">
<title>Node4</title>
<g id="a_node4"><a xlink:href="appenderattachableimpl_8h.html" target="_top" xlink:title=" ">
<polygon fill="white" stroke="black" points="80,-168.5 80,-187.5 209,-187.5 209,-168.5 80,-168.5"/>
<text text-anchor="middle" x="144.5" y="-175.5" font-family="'Souce Sans Pro', Roboto, FreeSans, sans-serif" font-size="10.00">appenderattachableimpl.h</text>
</a>
</g>
</g>
<!-- Node3&#45;&gt;Node4 -->
<g id="edge3" class="edge">
<title>Node3&#45;&gt;Node4</title>
<path fill="none" stroke="midnightblue" d="M295.53,-221.7C259.48,-211.51 207.26,-196.74 174.62,-187.52"/>
<polygon fill="midnightblue" stroke="midnightblue" points="294.66,-225.09 305.24,-224.44 296.56,-218.35 294.66,-225.09"/>
</g>
<!-- Node9 -->
<g id="node9" class="node">
<title>Node9</title>
<g id="a_node9"><a xlink:href="logger_8h.html" target="_top" xlink:title="This header defines the Logger class and the logging macros.">
<polygon fill="white" stroke="black" points="309.5,-168.5 309.5,-187.5 361.5,-187.5 361.5,-168.5 309.5,-168.5"/>
<text text-anchor="middle" x="335.5" y="-175.5" font-family="'Souce Sans Pro', Roboto, FreeSans, sans-serif" font-size="10.00">logger.h</text>
</a>
</g>
</g>
<!-- Node3&#45;&gt;Node9 -->
<g id="edge8" class="edge">
<title>Node3&#45;&gt;Node9</title>
<path fill="none" stroke="midnightblue" d="M335.5,-213.8C335.5,-204.91 335.5,-194.78 335.5,-187.75"/>
<polygon fill="midnightblue" stroke="midnightblue" points="332,-214.08 335.5,-224.08 339,-214.08 332,-214.08"/>
</g>
<!-- Node4&#45;&gt;Node5 -->
<g id="edge4" class="edge">
<title>Node4&#45;&gt;Node5</title>
<path fill="none" stroke="midnightblue" d="M119.66,-163.45C101.39,-153.48 77.08,-140.23 61.37,-131.65"/>
<polygon fill="midnightblue" stroke="midnightblue" points="118.14,-166.61 128.59,-168.32 121.49,-160.46 118.14,-166.61"/>
</g>
<!-- Node7 -->
<g id="node7" class="node">
<title>Node7</title>
<g id="a_node7"><a xlink:href="loggerimpl_8h.html" target="_top" xlink:title=" ">
<polygon fill="white" stroke="black" points="109,-112.5 109,-131.5 180,-131.5 180,-112.5 109,-112.5"/>
<text text-anchor="middle" x="144.5" y="-119.5" font-family="'Souce Sans Pro', Roboto, FreeSans, sans-serif" font-size="10.00">loggerimpl.h</text>
</a>
</g>
</g>
<!-- Node4&#45;&gt;Node7 -->
<g id="edge6" class="edge">
<title>Node4&#45;&gt;Node7</title>
<path fill="none" stroke="midnightblue" d="M144.5,-157.8C144.5,-148.91 144.5,-138.78 144.5,-131.75"/>
<polygon fill="midnightblue" stroke="midnightblue" points="141,-158.08 144.5,-168.08 148,-158.08 141,-158.08"/>
</g>
<!-- Node5&#45;&gt;Node6 -->
<g id="edge5" class="edge">
<title>Node5&#45;&gt;Node6</title>
<path fill="none" stroke="midnightblue" d="M49.86,-102.63C54.51,-87.43 63.46,-66.68 79.5,-56 120.26,-28.87 460.59,-15.61 569.87,-12.03"/>
<polygon fill="midnightblue" stroke="midnightblue" points="46.43,-101.92 47.2,-112.49 53.19,-103.74 46.43,-101.92"/>
</g>
<!-- Node8 -->
<g id="node8" class="node">
<title>Node8</title>
<g id="a_node8"><a xlink:href="rootlogger_8h.html" target="_top" xlink:title=" ">
<polygon fill="white" stroke="black" points="88.5,-56.5 88.5,-75.5 158.5,-75.5 158.5,-56.5 88.5,-56.5"/>
<text text-anchor="middle" x="123.5" y="-63.5" font-family="'Souce Sans Pro', Roboto, FreeSans, sans-serif" font-size="10.00">rootlogger.h</text>
</a>
</g>
</g>
<!-- Node7&#45;&gt;Node8 -->
<g id="edge7" class="edge">
<title>Node7&#45;&gt;Node8</title>
<path fill="none" stroke="midnightblue" d="M137.38,-102.69C133.84,-93.59 129.73,-83.01 126.9,-75.75"/>
<polygon fill="midnightblue" stroke="midnightblue" points="134.15,-104.03 141.03,-112.08 140.67,-101.49 134.15,-104.03"/>
</g>
<!-- Node9&#45;&gt;Node6 -->
<g id="edge14" class="edge">
<title>Node9&#45;&gt;Node6</title>
<path fill="none" stroke="midnightblue" d="M348.53,-160.2C360.06,-146.11 377.9,-126.07 396.5,-112 455.65,-67.24 537.77,-34.32 578.51,-19.58"/>
<polygon fill="midnightblue" stroke="midnightblue" points="345.72,-158.11 342.21,-168.11 351.19,-162.48 345.72,-158.11"/>
</g>
<!-- Node9&#45;&gt;Node10 -->
<g id="edge9" class="edge">
<title>Node9&#45;&gt;Node10</title>
<path fill="none" stroke="midnightblue" d="M362.05,-163.73C382.05,-153.73 408.89,-140.31 426.19,-131.65"/>
<polygon fill="midnightblue" stroke="midnightblue" points="360.23,-160.72 352.85,-168.32 363.36,-166.98 360.23,-160.72"/>
</g>
<!-- Node11 -->
<g id="node11" class="node">
<title>Node11</title>
<g id="a_node11"><a xlink:href="hierarchy_8h.html" target="_top" xlink:title=" ">
<polygon fill="white" stroke="black" points="176.5,-56.5 176.5,-75.5 240.5,-75.5 240.5,-56.5 176.5,-56.5"/>
<text text-anchor="middle" x="208.5" y="-63.5" font-family="'Souce Sans Pro', Roboto, FreeSans, sans-serif" font-size="10.00">hierarchy.h</text>
</a>
</g>
</g>
<!-- Node9&#45;&gt;Node11 -->
<g id="edge11" class="edge">
<title>Node9&#45;&gt;Node11</title>
<path fill="none" stroke="midnightblue" d="M307.38,-163.92C291.99,-155.97 273.13,-144.88 258.5,-132 239.05,-114.88 221.99,-89.25 213.74,-75.86"/>
<polygon fill="midnightblue" stroke="midnightblue" points="305.94,-167.12 316.45,-168.45 309.07,-160.85 305.94,-167.12"/>
</g>
<!-- Node9&#45;&gt;Node12 -->
<g id="edge13" class="edge">
<title>Node9&#45;&gt;Node12</title>
<path fill="none" stroke="midnightblue" d="M371.44,-167.76C410.99,-157.59 474.04,-141.38 512.42,-131.51"/>
<polygon fill="midnightblue" stroke="midnightblue" points="370.49,-164.39 361.67,-170.27 372.23,-171.17 370.49,-164.39"/>
</g>
<!-- Node13 -->
<g id="node13" class="node">
<title>Node13</title>
<g id="a_node13"><a xlink:href="loggingmacros_8h.html" target="_top" xlink:title="This header defines the logging macros.">
<polygon fill="white" stroke="black" points="258.5,-56.5 258.5,-75.5 348.5,-75.5 348.5,-56.5 258.5,-56.5"/>
<text text-anchor="middle" x="303.5" y="-63.5" font-family="'Souce Sans Pro', Roboto, FreeSans, sans-serif" font-size="10.00">loggingmacros.h</text>
</a>
</g>
</g>
<!-- Node9&#45;&gt;Node13 -->
<g id="edge15" class="edge">
<title>Node9&#45;&gt;Node13</title>
<path fill="none" stroke="midnightblue" d="M301.68,-163.96C287.86,-156.76 273.32,-146.32 265.5,-132 254.35,-111.58 277.08,-88.13 291.96,-75.74"/>
<polygon fill="midnightblue" stroke="midnightblue" points="300.5,-167.28 311.03,-168.44 303.52,-160.97 300.5,-167.28"/>
</g>
<!-- Node14 -->
<g id="node14" class="node">
<title>Node14</title>
<g id="a_node14"><a xlink:href="tracelogger_8h.html" target="_top" xlink:title=" ">
<polygon fill="white" stroke="black" points="274.5,-112.5 274.5,-131.5 348.5,-131.5 348.5,-112.5 274.5,-112.5"/>
<text text-anchor="middle" x="311.5" y="-119.5" font-family="'Souce Sans Pro', Roboto, FreeSans, sans-serif" font-size="10.00">tracelogger.h</text>
</a>
</g>
</g>
<!-- Node9&#45;&gt;Node14 -->
<g id="edge17" class="edge">
<title>Node9&#45;&gt;Node14</title>
<path fill="none" stroke="midnightblue" d="M327.36,-158.69C323.32,-149.59 318.62,-139.01 315.39,-131.75"/>
<polygon fill="midnightblue" stroke="midnightblue" points="324.28,-160.37 331.54,-168.08 330.67,-157.52 324.28,-160.37"/>
</g>
<!-- Node10&#45;&gt;Node6 -->
<g id="edge10" class="edge">
<title>Node10&#45;&gt;Node6</title>
<path fill="none" stroke="midnightblue" d="M464.71,-106.42C498.55,-83.15 563.72,-38.35 591,-19.59"/>
<polygon fill="midnightblue" stroke="midnightblue" points="462.31,-103.82 456.05,-112.37 466.28,-109.59 462.31,-103.82"/>
</g>
<!-- Node11&#45;&gt;Node6 -->
<g id="edge12" class="edge">
<title>Node11&#45;&gt;Node6</title>
<path fill="none" stroke="midnightblue" d="M250.65,-55.94C373.74,-34.99 508.16,-20.46 569.67,-14.28"/>
<polygon fill="midnightblue" stroke="midnightblue" points="249.94,-52.51 240.68,-57.65 251.12,-59.41 249.94,-52.51"/>
</g>
<!-- Node13&#45;&gt;Node6 -->
<g id="edge16" class="edge">
<title>Node13&#45;&gt;Node6</title>
<path fill="none" stroke="midnightblue" d="M358.71,-55.06C420.55,-43.93 518.8,-26.25 570,-17.03"/>
<polygon fill="midnightblue" stroke="midnightblue" points="357.96,-51.64 348.74,-56.86 359.2,-58.53 357.96,-51.64"/>
</g>
<!-- Node14&#45;&gt;Node6 -->
<g id="edge18" class="edge">
<title>Node14&#45;&gt;Node6</title>
<path fill="none" stroke="midnightblue" d="M328.41,-105.3C345.37,-90.4 372.88,-68.48 400.5,-56 456.75,-30.58 528.43,-19.04 569.83,-14.18"/>
<polygon fill="midnightblue" stroke="midnightblue" points="325.64,-103.08 320.55,-112.37 330.33,-108.28 325.64,-103.08"/>
</g>
<!-- Node14&#45;&gt;Node13 -->
<g id="edge19" class="edge">
<title>Node14&#45;&gt;Node13</title>
<path fill="none" stroke="midnightblue" d="M308.7,-102.1C307.37,-93.14 305.85,-82.86 304.8,-75.75"/>
<polygon fill="midnightblue" stroke="midnightblue" points="305.25,-102.7 310.18,-112.08 312.18,-101.68 305.25,-102.7"/>
</g>
<!-- Node17&#45;&gt;Node6 -->
<g id="edge25" class="edge">
<title>Node17&#45;&gt;Node6</title>
<path fill="none" stroke="midnightblue" d="M588.14,-159.74C592.93,-151.68 597.94,-141.72 600.5,-132 611.25,-91.15 606.97,-39.86 604.63,-19.7"/>
<polygon fill="midnightblue" stroke="midnightblue" points="585.17,-157.89 582.79,-168.21 591.09,-161.63 585.17,-157.89"/>
</g>
<!-- Node19&#45;&gt;Node6 -->
<g id="edge28" class="edge">
<title>Node19&#45;&gt;Node6</title>
<path fill="none" stroke="midnightblue" d="M643.17,-49.25C633.24,-39.67 620.91,-27.79 612.66,-19.83"/>
<polygon fill="midnightblue" stroke="midnightblue" points="640.87,-51.9 650.5,-56.32 645.73,-46.86 640.87,-51.9"/>
</g>
<!-- Node20&#45;&gt;Node6 -->
<g id="edge30" class="edge">
<title>Node20&#45;&gt;Node6</title>
<path fill="none" stroke="midnightblue" d="M1981.33,-223.82C1525.27,-143.73 1409.83,-122.18 955.5,-56 838.75,-38.99 699.7,-22.25 637.04,-14.89"/>
<polygon fill="midnightblue" stroke="midnightblue" points="1981.03,-227.32 1991.48,-225.61 1982.24,-220.43 1981.03,-227.32"/>
</g>
<!-- Node24&#45;&gt;Node6 -->
<g id="edge37" class="edge">
<title>Node24&#45;&gt;Node6</title>
<path fill="none" stroke="midnightblue" d="M724.13,-158.03C724,-132.23 720.14,-85.85 696.5,-56 681.69,-37.3 657.17,-25.88 637.02,-19.23"/>
<polygon fill="midnightblue" stroke="midnightblue" points="720.63,-158.26 723.98,-168.31 727.63,-158.36 720.63,-158.26"/>
</g>
<!-- Node27&#45;&gt;Node6 -->
<g id="edge41" class="edge">
<title>Node27&#45;&gt;Node6</title>
<path fill="none" stroke="midnightblue" d="M751.7,-53.57C716.23,-43.38 665.13,-28.7 633.15,-19.52"/>
<polygon fill="midnightblue" stroke="midnightblue" points="751.13,-57.05 761.71,-56.44 753.07,-50.32 751.13,-57.05"/>
</g>
<!-- Node28&#45;&gt;Node6 -->
<g id="edge43" class="edge">
<title>Node28&#45;&gt;Node6</title>
<path fill="none" stroke="midnightblue" d="M869.74,-158.33C873.19,-131.8 874.98,-83.39 848.5,-56 819.8,-26.3 697.54,-15.87 637.31,-12.49"/>
<polygon fill="midnightblue" stroke="midnightblue" points="866.28,-157.82 868.24,-168.23 873.2,-158.87 866.28,-157.82"/>
</g>
</g>
</svg>
