<?xml version="1.0" encoding="UTF-8" standalone="no"?>
<!DOCTYPE svg PUBLIC "-//W3C//DTD SVG 1.1//EN"
 "http://www.w3.org/Graphics/SVG/1.1/DTD/svg11.dtd">
<!-- Generated by graphviz version 2.43.0 (0)
 -->
<!-- Title: loggingevent.h Pages: 1 -->
<svg width="286pt" height="196pt"
 viewBox="0.00 0.00 285.50 196.00" xmlns="http://www.w3.org/2000/svg" xmlns:xlink="http://www.w3.org/1999/xlink">
<g id="graph0" class="graph" transform="scale(1 1) rotate(0) translate(4 192)">
<title>loggingevent.h</title>
<polygon fill="white" stroke="transparent" points="-4,4 -4,-192 281.5,-192 281.5,4 -4,4"/>
<!-- Node1 -->
<g id="node1" class="node">
<title>Node1</title>
<g id="a_node1"><a xlink:title=" ">
<polygon fill="#bfbfbf" stroke="black" points="118,-168.5 118,-187.5 198,-187.5 198,-168.5 118,-168.5"/>
<text text-anchor="middle" x="158" y="-175.5" font-family="'Souce Sans Pro', Roboto, FreeSans, sans-serif" font-size="10.00">loggingevent.h</text>
</a>
</g>
</g>
<!-- Node2 -->
<g id="node2" class="node">
<title>Node2</title>
<g id="a_node2"><a xlink:href="internal_8h.html" target="_top" xlink:title="This header contains declaration internal to log4cplus.">
<polygon fill="white" stroke="black" points="54.5,-112.5 54.5,-131.5 111.5,-131.5 111.5,-112.5 54.5,-112.5"/>
<text text-anchor="middle" x="83" y="-119.5" font-family="'Souce Sans Pro', Roboto, FreeSans, sans-serif" font-size="10.00">internal.h</text>
</a>
</g>
</g>
<!-- Node1&#45;&gt;Node2 -->
<g id="edge1" class="edge">
<title>Node1&#45;&gt;Node2</title>
<path fill="none" stroke="midnightblue" d="M137.69,-162.38C124.14,-152.62 106.76,-140.11 95.27,-131.83"/>
<polygon fill="midnightblue" stroke="midnightblue" points="135.79,-165.32 145.95,-168.32 139.88,-159.64 135.79,-165.32"/>
</g>
<!-- Node4 -->
<g id="node4" class="node">
<title>Node4</title>
<g id="a_node4"><a xlink:href="log4cplus_8h.html" target="_top" xlink:title=" ">
<polygon fill="white" stroke="black" points="161.5,-0.5 161.5,-19.5 228.5,-19.5 228.5,-0.5 161.5,-0.5"/>
<text text-anchor="middle" x="195" y="-7.5" font-family="'Souce Sans Pro', Roboto, FreeSans, sans-serif" font-size="10.00">log4cplus.h</text>
</a>
</g>
</g>
<!-- Node1&#45;&gt;Node4 -->
<g id="edge3" class="edge">
<title>Node1&#45;&gt;Node4</title>
<path fill="none" stroke="midnightblue" d="M159.63,-158.17C162.02,-134.13 167.27,-91.42 177,-56 180.57,-43.02 186.71,-28.69 190.81,-19.76"/>
<polygon fill="midnightblue" stroke="midnightblue" points="156.13,-158.07 158.69,-168.35 163.1,-158.72 156.13,-158.07"/>
</g>
<!-- Node5 -->
<g id="node5" class="node">
<title>Node5</title>
<g id="a_node5"><a xlink:href="queue_8h.html" target="_top" xlink:title=" ">
<polygon fill="white" stroke="black" points="196,-112.5 196,-131.5 248,-131.5 248,-112.5 196,-112.5"/>
<text text-anchor="middle" x="222" y="-119.5" font-family="'Souce Sans Pro', Roboto, FreeSans, sans-serif" font-size="10.00">queue.h</text>
</a>
</g>
</g>
<!-- Node1&#45;&gt;Node5 -->
<g id="edge4" class="edge">
<title>Node1&#45;&gt;Node5</title>
<path fill="none" stroke="midnightblue" d="M175.99,-161.82C187.46,-152.15 201.91,-139.95 211.53,-131.83"/>
<polygon fill="midnightblue" stroke="midnightblue" points="173.67,-159.2 168.28,-168.32 178.18,-164.55 173.67,-159.2"/>
</g>
<!-- Node3 -->
<g id="node3" class="node">
<title>Node3</title>
<g id="a_node3"><a xlink:href="customloglevelmanager_8h.html" target="_top" xlink:title="This header contains declaration internal to log4cplus.">
<polygon fill="white" stroke="black" points="0,-56.5 0,-75.5 130,-75.5 130,-56.5 0,-56.5"/>
<text text-anchor="middle" x="65" y="-63.5" font-family="'Souce Sans Pro', Roboto, FreeSans, sans-serif" font-size="10.00">customloglevelmanager.h</text>
</a>
</g>
</g>
<!-- Node2&#45;&gt;Node3 -->
<g id="edge2" class="edge">
<title>Node2&#45;&gt;Node3</title>
<path fill="none" stroke="midnightblue" d="M76.8,-102.4C73.79,-93.36 70.31,-82.94 67.92,-75.75"/>
<polygon fill="midnightblue" stroke="midnightblue" points="73.54,-103.7 80.03,-112.08 80.19,-101.49 73.54,-103.7"/>
</g>
<!-- Node6 -->
<g id="node6" class="node">
<title>Node6</title>
<g id="a_node6"><a xlink:href="asyncappender_8h.html" target="_top" xlink:title=" ">
<polygon fill="white" stroke="black" points="186.5,-56.5 186.5,-75.5 277.5,-75.5 277.5,-56.5 186.5,-56.5"/>
<text text-anchor="middle" x="232" y="-63.5" font-family="'Souce Sans Pro', Roboto, FreeSans, sans-serif" font-size="10.00">asyncappender.h</text>
</a>
</g>
</g>
<!-- Node5&#45;&gt;Node6 -->
<g id="edge5" class="edge">
<title>Node5&#45;&gt;Node6</title>
<path fill="none" stroke="midnightblue" d="M225.5,-102.1C227.16,-93.14 229.06,-82.86 230.38,-75.75"/>
<polygon fill="midnightblue" stroke="midnightblue" points="222.03,-101.61 223.65,-112.08 228.91,-102.89 222.03,-101.61"/>
</g>
<!-- Node6&#45;&gt;Node4 -->
<g id="edge6" class="edge">
<title>Node6&#45;&gt;Node4</title>
<path fill="none" stroke="midnightblue" d="M220.05,-47.57C213.69,-38.27 206.13,-27.25 201,-19.75"/>
<polygon fill="midnightblue" stroke="midnightblue" points="217.35,-49.81 225.89,-56.08 223.13,-45.86 217.35,-49.81"/>
</g>
</g>
</svg>
