<?xml version="1.0" encoding="UTF-8" standalone="no"?>
<!DOCTYPE svg PUBLIC "-//W3C//DTD SVG 1.1//EN"
 "http://www.w3.org/Graphics/SVG/1.1/DTD/svg11.dtd">
<!-- Generated by graphviz version 2.43.0 (0)
 -->
<!-- Title: loglevel.h Pages: 1 -->
<svg width="1969pt" height="420pt"
 viewBox="0.00 0.00 1969.24 420.00" xmlns="http://www.w3.org/2000/svg" xmlns:xlink="http://www.w3.org/1999/xlink">
<g id="graph0" class="graph" transform="scale(1 1) rotate(0) translate(4 416)">
<title>loglevel.h</title>
<polygon fill="white" stroke="transparent" points="-4,4 -4,-416 1965.24,-416 1965.24,4 -4,4"/>
<!-- Node1 -->
<g id="node1" class="node">
<title>Node1</title>
<g id="a_node1"><a xlink:title="This header defines the LogLevel type.">
<polygon fill="#bfbfbf" stroke="black" points="1614.9,-392.5 1614.9,-411.5 1672.9,-411.5 1672.9,-392.5 1614.9,-392.5"/>
<text text-anchor="middle" x="1643.9" y="-399.5" font-family="'Souce Sans Pro', Roboto, FreeSans, sans-serif" font-size="10.00">loglevel.h</text>
</a>
</g>
</g>
<!-- Node2 -->
<g id="node2" class="node">
<title>Node2</title>
<g id="a_node2"><a xlink:href="appender_8h.html" target="_top" xlink:title=" ">
<polygon fill="white" stroke="black" points="771.4,-280.5 771.4,-299.5 836.4,-299.5 836.4,-280.5 771.4,-280.5"/>
<text text-anchor="middle" x="803.9" y="-287.5" font-family="'Souce Sans Pro', Roboto, FreeSans, sans-serif" font-size="10.00">appender.h</text>
</a>
</g>
</g>
<!-- Node1&#45;&gt;Node2 -->
<g id="edge1" class="edge">
<title>Node1&#45;&gt;Node2</title>
<path fill="none" stroke="midnightblue" d="M1604.39,-395.83C1460.85,-377.03 968.53,-312.56 836.63,-295.29"/>
<polygon fill="midnightblue" stroke="midnightblue" points="1604.13,-399.32 1614.5,-397.15 1605.04,-392.38 1604.13,-399.32"/>
</g>
<!-- Node6 -->
<g id="node6" class="node">
<title>Node6</title>
<g id="a_node6"><a xlink:href="log4cplus_8h.html" target="_top" xlink:title=" ">
<polygon fill="white" stroke="black" points="568.4,-0.5 568.4,-19.5 635.4,-19.5 635.4,-0.5 568.4,-0.5"/>
<text text-anchor="middle" x="601.9" y="-7.5" font-family="'Souce Sans Pro', Roboto, FreeSans, sans-serif" font-size="10.00">log4cplus.h</text>
</a>
</g>
</g>
<!-- Node1&#45;&gt;Node6 -->
<g id="edge53" class="edge">
<title>Node1&#45;&gt;Node6</title>
<path fill="none" stroke="midnightblue" d="M1683.32,-394.95C1764.31,-381.41 1941.9,-345.49 1941.9,-291 1941.9,-291 1941.9,-291 1941.9,-121 1941.9,-108.81 2048.99,-109.47 1752.9,-56 1530.15,-15.78 801.33,-11.5 635.63,-11.05"/>
<polygon fill="midnightblue" stroke="midnightblue" points="1682.32,-391.57 1673.02,-396.64 1683.45,-398.47 1682.32,-391.57"/>
</g>
<!-- Node9 -->
<g id="node9" class="node">
<title>Node9</title>
<g id="a_node9"><a xlink:href="logger_8h.html" target="_top" xlink:title="This header defines the Logger class and the logging macros.">
<polygon fill="white" stroke="black" points="527.9,-168.5 527.9,-187.5 579.9,-187.5 579.9,-168.5 527.9,-168.5"/>
<text text-anchor="middle" x="553.9" y="-175.5" font-family="'Souce Sans Pro', Roboto, FreeSans, sans-serif" font-size="10.00">logger.h</text>
</a>
</g>
</g>
<!-- Node1&#45;&gt;Node9 -->
<g id="edge54" class="edge">
<title>Node1&#45;&gt;Node9</title>
<path fill="none" stroke="midnightblue" d="M1604.43,-399.88C1379.9,-393.13 270.23,-354.3 171.9,-244 165.99,-237.36 165.99,-230.64 171.9,-224 177.86,-217.3 442.63,-190.17 527.81,-181.61"/>
<polygon fill="midnightblue" stroke="midnightblue" points="1604.64,-403.39 1614.74,-400.19 1604.85,-396.39 1604.64,-403.39"/>
</g>
<!-- Node30 -->
<g id="node30" class="node">
<title>Node30</title>
<g id="a_node30"><a xlink:href="filter_8h.html" target="_top" xlink:title="This header defines Filter and all of it&#39;s subclasses.">
<polygon fill="white" stroke="black" points="1652.9,-336.5 1652.9,-355.5 1696.9,-355.5 1696.9,-336.5 1652.9,-336.5"/>
<text text-anchor="middle" x="1674.9" y="-343.5" font-family="'Souce Sans Pro', Roboto, FreeSans, sans-serif" font-size="10.00">filter.h</text>
</a>
</g>
</g>
<!-- Node1&#45;&gt;Node30 -->
<g id="edge45" class="edge">
<title>Node1&#45;&gt;Node30</title>
<path fill="none" stroke="midnightblue" d="M1654.08,-383.27C1659.37,-374.05 1665.62,-363.17 1669.88,-355.75"/>
<polygon fill="midnightblue" stroke="midnightblue" points="1650.96,-381.67 1649.02,-392.08 1657.03,-385.15 1650.96,-381.67"/>
</g>
<!-- Node31 -->
<g id="node31" class="node">
<title>Node31</title>
<g id="a_node31"><a xlink:href="layout_8h.html" target="_top" xlink:title=" ">
<polygon fill="white" stroke="black" points="1580.4,-336.5 1580.4,-355.5 1631.4,-355.5 1631.4,-336.5 1580.4,-336.5"/>
<text text-anchor="middle" x="1605.9" y="-343.5" font-family="'Souce Sans Pro', Roboto, FreeSans, sans-serif" font-size="10.00">layout.h</text>
</a>
</g>
</g>
<!-- Node1&#45;&gt;Node31 -->
<g id="edge49" class="edge">
<title>Node1&#45;&gt;Node31</title>
<path fill="none" stroke="midnightblue" d="M1631.84,-383.86C1625.26,-374.5 1617.39,-363.33 1612.06,-355.75"/>
<polygon fill="midnightblue" stroke="midnightblue" points="1629.01,-385.92 1637.63,-392.08 1634.73,-381.89 1629.01,-385.92"/>
</g>
<!-- Node32 -->
<g id="node32" class="node">
<title>Node32</title>
<g id="a_node32"><a xlink:href="loggingevent_8h.html" target="_top" xlink:title=" ">
<polygon fill="white" stroke="black" points="1745.9,-224.5 1745.9,-243.5 1825.9,-243.5 1825.9,-224.5 1745.9,-224.5"/>
<text text-anchor="middle" x="1785.9" y="-231.5" font-family="'Souce Sans Pro', Roboto, FreeSans, sans-serif" font-size="10.00">loggingevent.h</text>
</a>
</g>
</g>
<!-- Node1&#45;&gt;Node32 -->
<g id="edge55" class="edge">
<title>Node1&#45;&gt;Node32</title>
<path fill="none" stroke="midnightblue" d="M1667.04,-387.09C1679.42,-378.97 1694.43,-367.98 1705.9,-356 1741.25,-319.07 1770.84,-264.62 1781.58,-243.66"/>
<polygon fill="midnightblue" stroke="midnightblue" points="1665.14,-384.15 1658.58,-392.47 1668.9,-390.06 1665.14,-384.15"/>
</g>
<!-- Node3 -->
<g id="node3" class="node">
<title>Node3</title>
<g id="a_node3"><a xlink:href="appenderattachable_8h.html" target="_top" xlink:title=" ">
<polygon fill="white" stroke="black" points="1121.9,-224.5 1121.9,-243.5 1231.9,-243.5 1231.9,-224.5 1121.9,-224.5"/>
<text text-anchor="middle" x="1176.9" y="-231.5" font-family="'Souce Sans Pro', Roboto, FreeSans, sans-serif" font-size="10.00">appenderattachable.h</text>
</a>
</g>
</g>
<!-- Node2&#45;&gt;Node3 -->
<g id="edge2" class="edge">
<title>Node2&#45;&gt;Node3</title>
<path fill="none" stroke="midnightblue" d="M846.59,-282.82C914.41,-273 1046.72,-253.85 1121.67,-243"/>
<polygon fill="midnightblue" stroke="midnightblue" points="846.07,-279.36 836.67,-284.26 847.07,-286.29 846.07,-279.36"/>
</g>
<!-- Node5 -->
<g id="node5" class="node">
<title>Node5</title>
<g id="a_node5"><a xlink:href="asyncappender_8h.html" target="_top" xlink:title=" ">
<polygon fill="white" stroke="black" points="1378.4,-112.5 1378.4,-131.5 1469.4,-131.5 1469.4,-112.5 1378.4,-112.5"/>
<text text-anchor="middle" x="1423.9" y="-119.5" font-family="'Souce Sans Pro', Roboto, FreeSans, sans-serif" font-size="10.00">asyncappender.h</text>
</a>
</g>
</g>
<!-- Node2&#45;&gt;Node5 -->
<g id="edge20" class="edge">
<title>Node2&#45;&gt;Node5</title>
<path fill="none" stroke="midnightblue" d="M846.66,-288.23C973.08,-285.59 1338.92,-275.3 1381.9,-244 1419.11,-216.9 1423.61,-154.51 1423.96,-131.62"/>
<polygon fill="midnightblue" stroke="midnightblue" points="846.51,-284.73 836.58,-288.43 846.65,-291.73 846.51,-284.73"/>
</g>
<!-- Node2&#45;&gt;Node6 -->
<g id="edge32" class="edge">
<title>Node2&#45;&gt;Node6</title>
<path fill="none" stroke="midnightblue" d="M760.65,-288.56C630.15,-286.86 241.8,-278.91 120.9,-244 62.63,-227.17 0.9,-239.65 0.9,-179 0.9,-179 0.9,-179 0.9,-121 0.9,-90.77 -2.7,-74.88 20.9,-56 63.71,-21.75 450.53,-13.24 568.13,-11.43"/>
<polygon fill="midnightblue" stroke="midnightblue" points="761,-292.07 771.04,-288.69 761.08,-285.07 761,-292.07"/>
</g>
<!-- Node10 -->
<g id="node10" class="node">
<title>Node10</title>
<g id="a_node10"><a xlink:href="configurator_8h.html" target="_top" xlink:title=" ">
<polygon fill="white" stroke="black" points="668.4,-112.5 668.4,-131.5 745.4,-131.5 745.4,-112.5 668.4,-112.5"/>
<text text-anchor="middle" x="706.9" y="-119.5" font-family="'Souce Sans Pro', Roboto, FreeSans, sans-serif" font-size="10.00">configurator.h</text>
</a>
</g>
</g>
<!-- Node2&#45;&gt;Node10 -->
<g id="edge23" class="edge">
<title>Node2&#45;&gt;Node10</title>
<path fill="none" stroke="midnightblue" d="M761.02,-284.05C714.32,-277.67 644.08,-264.84 627.9,-244 596.82,-203.97 663.98,-151.78 693.69,-131.54"/>
<polygon fill="midnightblue" stroke="midnightblue" points="760.81,-287.55 771.18,-285.38 761.72,-280.61 760.81,-287.55"/>
</g>
<!-- Node12 -->
<g id="node12" class="node">
<title>Node12</title>
<g id="a_node12"><a xlink:href="hierarchylocker_8h.html" target="_top" xlink:title=" ">
<polygon fill="white" stroke="black" points="971.4,-112.5 971.4,-131.5 1062.4,-131.5 1062.4,-112.5 971.4,-112.5"/>
<text text-anchor="middle" x="1016.9" y="-119.5" font-family="'Souce Sans Pro', Roboto, FreeSans, sans-serif" font-size="10.00">hierarchylocker.h</text>
</a>
</g>
</g>
<!-- Node2&#45;&gt;Node12 -->
<g id="edge31" class="edge">
<title>Node2&#45;&gt;Node12</title>
<path fill="none" stroke="midnightblue" d="M846.9,-288.83C972.3,-287.9 1330.9,-281.91 1365.9,-244 1371.93,-237.47 1371.24,-231.11 1365.9,-224 1360.97,-217.44 1133.11,-154.72 1048.28,-131.55"/>
<polygon fill="midnightblue" stroke="midnightblue" points="846.52,-285.33 836.55,-288.9 846.57,-292.33 846.52,-285.33"/>
</g>
<!-- Node15 -->
<g id="node15" class="node">
<title>Node15</title>
<g id="a_node15"><a xlink:href="callbackappender_8h.html" target="_top" xlink:title=" ">
<polygon fill="white" stroke="black" points="181.4,-224.5 181.4,-243.5 282.4,-243.5 282.4,-224.5 181.4,-224.5"/>
<text text-anchor="middle" x="231.9" y="-231.5" font-family="'Souce Sans Pro', Roboto, FreeSans, sans-serif" font-size="10.00">callbackappender.h</text>
</a>
</g>
</g>
<!-- Node2&#45;&gt;Node15 -->
<g id="edge21" class="edge">
<title>Node2&#45;&gt;Node15</title>
<path fill="none" stroke="midnightblue" d="M761.16,-285.92C673.82,-279.46 468.6,-263.49 296.9,-244 292.26,-243.47 287.44,-242.88 282.61,-242.27"/>
<polygon fill="midnightblue" stroke="midnightblue" points="760.99,-289.42 771.22,-286.66 761.5,-282.43 760.99,-289.42"/>
</g>
<!-- Node16 -->
<g id="node16" class="node">
<title>Node16</title>
<g id="a_node16"><a xlink:href="clfsappender_8h.html" target="_top" xlink:title=" ">
<polygon fill="white" stroke="black" points="376.9,-224.5 376.9,-243.5 458.9,-243.5 458.9,-224.5 376.9,-224.5"/>
<text text-anchor="middle" x="417.9" y="-231.5" font-family="'Souce Sans Pro', Roboto, FreeSans, sans-serif" font-size="10.00">clfsappender.h</text>
</a>
</g>
</g>
<!-- Node2&#45;&gt;Node16 -->
<g id="edge22" class="edge">
<title>Node2&#45;&gt;Node16</title>
<path fill="none" stroke="midnightblue" d="M761.3,-283.92C697.43,-276.16 573.1,-260.5 467.9,-244 465.02,-243.55 462.06,-243.06 459.08,-242.56"/>
<polygon fill="midnightblue" stroke="midnightblue" points="761.05,-287.41 771.39,-285.14 761.89,-280.46 761.05,-287.41"/>
</g>
<!-- Node17 -->
<g id="node17" class="node">
<title>Node17</title>
<g id="a_node17"><a xlink:href="consoleappender_8h.html" target="_top" xlink:title=" ">
<polygon fill="white" stroke="black" points="30.4,-56.5 30.4,-75.5 131.4,-75.5 131.4,-56.5 30.4,-56.5"/>
<text text-anchor="middle" x="80.9" y="-63.5" font-family="'Souce Sans Pro', Roboto, FreeSans, sans-serif" font-size="10.00">consoleappender.h</text>
</a>
</g>
</g>
<!-- Node2&#45;&gt;Node17 -->
<g id="edge24" class="edge">
<title>Node2&#45;&gt;Node17</title>
<path fill="none" stroke="midnightblue" d="M760.72,-288.76C621.85,-287.63 192.91,-281.14 143.9,-244 88.01,-201.65 81.56,-105.59 80.93,-75.91"/>
<polygon fill="midnightblue" stroke="midnightblue" points="760.95,-292.26 770.97,-288.84 761,-285.26 760.95,-292.26"/>
</g>
<!-- Node18 -->
<g id="node18" class="node">
<title>Node18</title>
<g id="a_node18"><a xlink:href="deviceappender_8hxx.html" target="_top" xlink:title=" ">
<polygon fill="white" stroke="black" points="476.9,-224.5 476.9,-243.5 580.9,-243.5 580.9,-224.5 476.9,-224.5"/>
<text text-anchor="middle" x="528.9" y="-231.5" font-family="'Souce Sans Pro', Roboto, FreeSans, sans-serif" font-size="10.00">deviceappender.hxx</text>
</a>
</g>
</g>
<!-- Node2&#45;&gt;Node18 -->
<g id="edge26" class="edge">
<title>Node2&#45;&gt;Node18</title>
<path fill="none" stroke="midnightblue" d="M761.17,-280.61C709.78,-270.52 624.02,-253.68 572.33,-243.53"/>
<polygon fill="midnightblue" stroke="midnightblue" points="760.79,-284.1 771.27,-282.59 762.14,-277.23 760.79,-284.1"/>
</g>
<!-- Node19 -->
<g id="node19" class="node">
<title>Node19</title>
<g id="a_node19"><a xlink:href="factory_8h.html" target="_top" xlink:title=" ">
<polygon fill="white" stroke="black" points="1595.9,-224.5 1595.9,-243.5 1651.9,-243.5 1651.9,-224.5 1595.9,-224.5"/>
<text text-anchor="middle" x="1623.9" y="-231.5" font-family="'Souce Sans Pro', Roboto, FreeSans, sans-serif" font-size="10.00">factory.h</text>
</a>
</g>
</g>
<!-- Node2&#45;&gt;Node19 -->
<g id="edge27" class="edge">
<title>Node2&#45;&gt;Node19</title>
<path fill="none" stroke="midnightblue" d="M846.66,-289.25C965.04,-289.37 1306.82,-285.76 1586.9,-244 1589.78,-243.57 1592.76,-243.02 1595.72,-242.41"/>
<polygon fill="midnightblue" stroke="midnightblue" points="846.57,-285.75 836.56,-289.23 846.55,-292.75 846.57,-285.75"/>
</g>
<!-- Node20 -->
<g id="node20" class="node">
<title>Node20</title>
<g id="a_node20"><a xlink:href="fileappender_8h.html" target="_top" xlink:title=" ">
<polygon fill="white" stroke="black" points="150.9,-56.5 150.9,-75.5 228.9,-75.5 228.9,-56.5 150.9,-56.5"/>
<text text-anchor="middle" x="189.9" y="-63.5" font-family="'Souce Sans Pro', Roboto, FreeSans, sans-serif" font-size="10.00">fileappender.h</text>
</a>
</g>
</g>
<!-- Node2&#45;&gt;Node20 -->
<g id="edge29" class="edge">
<title>Node2&#45;&gt;Node20</title>
<path fill="none" stroke="midnightblue" d="M761.35,-288.86C625.54,-288.03 208.61,-282.34 162.9,-244 111.7,-201.05 165.54,-105.4 184.1,-75.86"/>
<polygon fill="midnightblue" stroke="midnightblue" points="761.37,-292.36 771.38,-288.92 761.4,-285.36 761.37,-292.36"/>
</g>
<!-- Node21 -->
<g id="node21" class="node">
<title>Node21</title>
<g id="a_node21"><a xlink:href="log4judpappender_8h.html" target="_top" xlink:title=" ">
<polygon fill="white" stroke="black" points="637.4,-224.5 637.4,-243.5 740.4,-243.5 740.4,-224.5 637.4,-224.5"/>
<text text-anchor="middle" x="688.9" y="-231.5" font-family="'Souce Sans Pro', Roboto, FreeSans, sans-serif" font-size="10.00">log4judpappender.h</text>
</a>
</g>
</g>
<!-- Node2&#45;&gt;Node21 -->
<g id="edge33" class="edge">
<title>Node2&#45;&gt;Node21</title>
<path fill="none" stroke="midnightblue" d="M776.42,-276.1C754.93,-266.01 725.68,-252.27 707.04,-243.52"/>
<polygon fill="midnightblue" stroke="midnightblue" points="775.14,-279.36 785.68,-280.44 778.11,-273.02 775.14,-279.36"/>
</g>
<!-- Node22 -->
<g id="node22" class="node">
<title>Node22</title>
<g id="a_node22"><a xlink:href="msttsappender_8h.html" target="_top" xlink:title=" ">
<polygon fill="white" stroke="black" points="758.4,-224.5 758.4,-243.5 849.4,-243.5 849.4,-224.5 758.4,-224.5"/>
<text text-anchor="middle" x="803.9" y="-231.5" font-family="'Souce Sans Pro', Roboto, FreeSans, sans-serif" font-size="10.00">msttsappender.h</text>
</a>
</g>
</g>
<!-- Node2&#45;&gt;Node22 -->
<g id="edge34" class="edge">
<title>Node2&#45;&gt;Node22</title>
<path fill="none" stroke="midnightblue" d="M803.9,-269.8C803.9,-260.91 803.9,-250.78 803.9,-243.75"/>
<polygon fill="midnightblue" stroke="midnightblue" points="800.4,-270.08 803.9,-280.08 807.4,-270.08 800.4,-270.08"/>
</g>
<!-- Node23 -->
<g id="node23" class="node">
<title>Node23</title>
<g id="a_node23"><a xlink:href="nteventlogappender_8h.html" target="_top" xlink:title=" ">
<polygon fill="white" stroke="black" points="867.9,-224.5 867.9,-243.5 977.9,-243.5 977.9,-224.5 867.9,-224.5"/>
<text text-anchor="middle" x="922.9" y="-231.5" font-family="'Souce Sans Pro', Roboto, FreeSans, sans-serif" font-size="10.00">nteventlogappender.h</text>
</a>
</g>
</g>
<!-- Node2&#45;&gt;Node23 -->
<g id="edge35" class="edge">
<title>Node2&#45;&gt;Node23</title>
<path fill="none" stroke="midnightblue" d="M832.04,-276.23C854.3,-266.13 884.76,-252.31 904.13,-243.52"/>
<polygon fill="midnightblue" stroke="midnightblue" points="830.42,-273.12 822.76,-280.44 833.31,-279.5 830.42,-273.12"/>
</g>
<!-- Node24 -->
<g id="node24" class="node">
<title>Node24</title>
<g id="a_node24"><a xlink:href="nullappender_8h.html" target="_top" xlink:title=" ">
<polygon fill="white" stroke="black" points="157.9,-168.5 157.9,-187.5 237.9,-187.5 237.9,-168.5 157.9,-168.5"/>
<text text-anchor="middle" x="197.9" y="-175.5" font-family="'Souce Sans Pro', Roboto, FreeSans, sans-serif" font-size="10.00">nullappender.h</text>
</a>
</g>
</g>
<!-- Node2&#45;&gt;Node24 -->
<g id="edge36" class="edge">
<title>Node2&#45;&gt;Node24</title>
<path fill="none" stroke="midnightblue" d="M761.09,-289.24C625.47,-289.57 211.95,-287 171.9,-244 156.66,-227.63 176.76,-201.22 189.27,-187.65"/>
<polygon fill="midnightblue" stroke="midnightblue" points="761.12,-292.74 771.11,-289.21 761.1,-285.74 761.12,-292.74"/>
</g>
<!-- Node25 -->
<g id="node25" class="node">
<title>Node25</title>
<g id="a_node25"><a xlink:href="qt4debugappender_8h.html" target="_top" xlink:title=" ">
<polygon fill="white" stroke="black" points="996.4,-224.5 996.4,-243.5 1103.4,-243.5 1103.4,-224.5 996.4,-224.5"/>
<text text-anchor="middle" x="1049.9" y="-231.5" font-family="'Souce Sans Pro', Roboto, FreeSans, sans-serif" font-size="10.00">qt4debugappender.h</text>
</a>
</g>
</g>
<!-- Node2&#45;&gt;Node25 -->
<g id="edge38" class="edge">
<title>Node2&#45;&gt;Node25</title>
<path fill="none" stroke="midnightblue" d="M846.59,-279.63C892.91,-269.46 966.23,-253.37 1011.01,-243.54"/>
<polygon fill="midnightblue" stroke="midnightblue" points="845.58,-276.27 836.57,-281.83 847.09,-283.1 845.58,-276.27"/>
</g>
<!-- Node26 -->
<g id="node26" class="node">
<title>Node26</title>
<g id="a_node26"><a xlink:href="qt5debugappender_8h.html" target="_top" xlink:title=" ">
<polygon fill="white" stroke="black" points="1250.4,-224.5 1250.4,-243.5 1357.4,-243.5 1357.4,-224.5 1250.4,-224.5"/>
<text text-anchor="middle" x="1303.9" y="-231.5" font-family="'Souce Sans Pro', Roboto, FreeSans, sans-serif" font-size="10.00">qt5debugappender.h</text>
</a>
</g>
</g>
<!-- Node2&#45;&gt;Node26 -->
<g id="edge39" class="edge">
<title>Node2&#45;&gt;Node26</title>
<path fill="none" stroke="midnightblue" d="M846.53,-285.17C924.78,-278.02 1096.55,-261.74 1240.9,-244 1243.97,-243.62 1247.12,-243.22 1250.3,-242.8"/>
<polygon fill="midnightblue" stroke="midnightblue" points="846.21,-281.69 836.57,-286.08 846.84,-288.66 846.21,-281.69"/>
</g>
<!-- Node27 -->
<g id="node27" class="node">
<title>Node27</title>
<g id="a_node27"><a xlink:href="socketappender_8h.html" target="_top" xlink:title=" ">
<polygon fill="white" stroke="black" points="285.4,-56.5 285.4,-75.5 380.4,-75.5 380.4,-56.5 285.4,-56.5"/>
<text text-anchor="middle" x="332.9" y="-63.5" font-family="'Souce Sans Pro', Roboto, FreeSans, sans-serif" font-size="10.00">socketappender.h</text>
</a>
</g>
</g>
<!-- Node2&#45;&gt;Node27 -->
<g id="edge40" class="edge">
<title>Node2&#45;&gt;Node27</title>
<path fill="none" stroke="midnightblue" d="M760.81,-287.33C655.14,-282.86 389.55,-269.22 358.9,-244 307.33,-201.58 324.04,-105.57 330.72,-75.9"/>
<polygon fill="midnightblue" stroke="midnightblue" points="760.97,-290.84 771.11,-287.76 761.26,-283.85 760.97,-290.84"/>
</g>
<!-- Node28 -->
<g id="node28" class="node">
<title>Node28</title>
<g id="a_node28"><a xlink:href="syslogappender_8h.html" target="_top" xlink:title=" ">
<polygon fill="white" stroke="black" points="350.9,-168.5 350.9,-187.5 444.9,-187.5 444.9,-168.5 350.9,-168.5"/>
<text text-anchor="middle" x="397.9" y="-175.5" font-family="'Souce Sans Pro', Roboto, FreeSans, sans-serif" font-size="10.00">syslogappender.h</text>
</a>
</g>
</g>
<!-- Node2&#45;&gt;Node28 -->
<g id="edge42" class="edge">
<title>Node2&#45;&gt;Node28</title>
<path fill="none" stroke="midnightblue" d="M760.82,-287.76C655.93,-284.31 393.93,-272.85 367.9,-244 352.58,-227.02 374.78,-200.87 388.48,-187.5"/>
<polygon fill="midnightblue" stroke="midnightblue" points="760.95,-291.27 771.06,-288.09 761.17,-284.27 760.95,-291.27"/>
</g>
<!-- Node29 -->
<g id="node29" class="node">
<title>Node29</title>
<g id="a_node29"><a xlink:href="win32consoleappender_8h.html" target="_top" xlink:title=" ">
<polygon fill="white" stroke="black" points="1451.9,-224.5 1451.9,-243.5 1577.9,-243.5 1577.9,-224.5 1451.9,-224.5"/>
<text text-anchor="middle" x="1514.9" y="-231.5" font-family="'Souce Sans Pro', Roboto, FreeSans, sans-serif" font-size="10.00">win32consoleappender.h</text>
</a>
</g>
</g>
<!-- Node2&#45;&gt;Node29 -->
<g id="edge44" class="edge">
<title>Node2&#45;&gt;Node29</title>
<path fill="none" stroke="midnightblue" d="M846.86,-286.63C949.28,-280.82 1215.87,-264.84 1437.9,-244 1442.46,-243.57 1447.16,-243.1 1451.89,-242.6"/>
<polygon fill="midnightblue" stroke="midnightblue" points="846.4,-283.15 836.61,-287.21 846.79,-290.14 846.4,-283.15"/>
</g>
<!-- Node4 -->
<g id="node4" class="node">
<title>Node4</title>
<g id="a_node4"><a xlink:href="appenderattachableimpl_8h.html" target="_top" xlink:title=" ">
<polygon fill="white" stroke="black" points="1266.4,-168.5 1266.4,-187.5 1395.4,-187.5 1395.4,-168.5 1266.4,-168.5"/>
<text text-anchor="middle" x="1330.9" y="-175.5" font-family="'Souce Sans Pro', Roboto, FreeSans, sans-serif" font-size="10.00">appenderattachableimpl.h</text>
</a>
</g>
</g>
<!-- Node3&#45;&gt;Node4 -->
<g id="edge3" class="edge">
<title>Node3&#45;&gt;Node4</title>
<path fill="none" stroke="midnightblue" d="M1211.01,-221.04C1239.99,-210.88 1280.86,-196.55 1306.61,-187.52"/>
<polygon fill="midnightblue" stroke="midnightblue" points="1209.58,-217.83 1201.3,-224.44 1211.9,-224.44 1209.58,-217.83"/>
</g>
<!-- Node3&#45;&gt;Node9 -->
<g id="edge8" class="edge">
<title>Node3&#45;&gt;Node9</title>
<path fill="none" stroke="midnightblue" d="M1111.55,-224.03C899.87,-201.13 658.75,-185.43 580.1,-180.58"/>
<polygon fill="midnightblue" stroke="midnightblue" points="1111.29,-227.52 1121.61,-225.13 1112.05,-220.56 1111.29,-227.52"/>
</g>
<!-- Node4&#45;&gt;Node5 -->
<g id="edge4" class="edge">
<title>Node4&#45;&gt;Node5</title>
<path fill="none" stroke="midnightblue" d="M1354.71,-163.18C1371.82,-153.24 1394.37,-140.15 1409,-131.65"/>
<polygon fill="midnightblue" stroke="midnightblue" points="1352.73,-160.28 1345.84,-168.32 1356.25,-166.33 1352.73,-160.28"/>
</g>
<!-- Node7 -->
<g id="node7" class="node">
<title>Node7</title>
<g id="a_node7"><a xlink:href="loggerimpl_8h.html" target="_top" xlink:title=" ">
<polygon fill="white" stroke="black" points="1289.4,-112.5 1289.4,-131.5 1360.4,-131.5 1360.4,-112.5 1289.4,-112.5"/>
<text text-anchor="middle" x="1324.9" y="-119.5" font-family="'Souce Sans Pro', Roboto, FreeSans, sans-serif" font-size="10.00">loggerimpl.h</text>
</a>
</g>
</g>
<!-- Node4&#45;&gt;Node7 -->
<g id="edge6" class="edge">
<title>Node4&#45;&gt;Node7</title>
<path fill="none" stroke="midnightblue" d="M1328.8,-158.1C1327.8,-149.14 1326.66,-138.86 1325.87,-131.75"/>
<polygon fill="midnightblue" stroke="midnightblue" points="1325.33,-158.53 1329.91,-168.08 1332.28,-157.76 1325.33,-158.53"/>
</g>
<!-- Node5&#45;&gt;Node6 -->
<g id="edge5" class="edge">
<title>Node5&#45;&gt;Node6</title>
<path fill="none" stroke="midnightblue" d="M1414.4,-103.18C1405.07,-87.69 1389.29,-66.19 1368.9,-56 1302.76,-22.93 775.71,-13.39 635.86,-11.43"/>
<polygon fill="midnightblue" stroke="midnightblue" points="1411.6,-105.34 1419.58,-112.31 1417.69,-101.88 1411.6,-105.34"/>
</g>
<!-- Node8 -->
<g id="node8" class="node">
<title>Node8</title>
<g id="a_node8"><a xlink:href="rootlogger_8h.html" target="_top" xlink:title=" ">
<polygon fill="white" stroke="black" points="1289.9,-56.5 1289.9,-75.5 1359.9,-75.5 1359.9,-56.5 1289.9,-56.5"/>
<text text-anchor="middle" x="1324.9" y="-63.5" font-family="'Souce Sans Pro', Roboto, FreeSans, sans-serif" font-size="10.00">rootlogger.h</text>
</a>
</g>
</g>
<!-- Node7&#45;&gt;Node8 -->
<g id="edge7" class="edge">
<title>Node7&#45;&gt;Node8</title>
<path fill="none" stroke="midnightblue" d="M1324.9,-101.8C1324.9,-92.91 1324.9,-82.78 1324.9,-75.75"/>
<polygon fill="midnightblue" stroke="midnightblue" points="1321.4,-102.08 1324.9,-112.08 1328.4,-102.08 1321.4,-102.08"/>
</g>
<!-- Node9&#45;&gt;Node6 -->
<g id="edge14" class="edge">
<title>Node9&#45;&gt;Node6</title>
<path fill="none" stroke="midnightblue" d="M530.06,-162.71C495.36,-140.1 437.97,-94.66 465.9,-56 489.13,-23.85 536.21,-14.29 568.4,-11.66"/>
<polygon fill="midnightblue" stroke="midnightblue" points="528.42,-165.82 538.74,-168.21 532.16,-159.9 528.42,-165.82"/>
</g>
<!-- Node9&#45;&gt;Node10 -->
<g id="edge9" class="edge">
<title>Node9&#45;&gt;Node10</title>
<path fill="none" stroke="midnightblue" d="M587.79,-165.04C616.58,-154.88 657.19,-140.55 682.77,-131.52"/>
<polygon fill="midnightblue" stroke="midnightblue" points="586.41,-161.81 578.14,-168.44 588.74,-168.42 586.41,-161.81"/>
</g>
<!-- Node11 -->
<g id="node11" class="node">
<title>Node11</title>
<g id="a_node11"><a xlink:href="hierarchy_8h.html" target="_top" xlink:title=" ">
<polygon fill="white" stroke="black" points="474.9,-56.5 474.9,-75.5 538.9,-75.5 538.9,-56.5 474.9,-56.5"/>
<text text-anchor="middle" x="506.9" y="-63.5" font-family="'Souce Sans Pro', Roboto, FreeSans, sans-serif" font-size="10.00">hierarchy.h</text>
</a>
</g>
</g>
<!-- Node9&#45;&gt;Node11 -->
<g id="edge11" class="edge">
<title>Node9&#45;&gt;Node11</title>
<path fill="none" stroke="midnightblue" d="M545.81,-159.07C542.13,-150.84 537.75,-140.95 533.9,-132 525.31,-112.02 515.61,-88.4 510.5,-75.86"/>
<polygon fill="midnightblue" stroke="midnightblue" points="542.71,-160.71 550,-168.4 549.1,-157.84 542.71,-160.71"/>
</g>
<!-- Node9&#45;&gt;Node12 -->
<g id="edge13" class="edge">
<title>Node9&#45;&gt;Node12</title>
<path fill="none" stroke="midnightblue" d="M590.14,-172.77C673.57,-163.04 879.11,-139.07 971.1,-128.34"/>
<polygon fill="midnightblue" stroke="midnightblue" points="589.65,-169.31 580.12,-173.94 590.46,-176.26 589.65,-169.31"/>
</g>
<!-- Node13 -->
<g id="node13" class="node">
<title>Node13</title>
<g id="a_node13"><a xlink:href="loggingmacros_8h.html" target="_top" xlink:title="This header defines the logging macros.">
<polygon fill="white" stroke="black" points="556.9,-56.5 556.9,-75.5 646.9,-75.5 646.9,-56.5 556.9,-56.5"/>
<text text-anchor="middle" x="601.9" y="-63.5" font-family="'Souce Sans Pro', Roboto, FreeSans, sans-serif" font-size="10.00">loggingmacros.h</text>
</a>
</g>
</g>
<!-- Node9&#45;&gt;Node13 -->
<g id="edge15" class="edge">
<title>Node9&#45;&gt;Node13</title>
<path fill="none" stroke="midnightblue" d="M555.39,-157.86C556.97,-144.51 560.23,-126.57 566.9,-112 573.33,-97.96 584.92,-84.32 592.99,-75.81"/>
<polygon fill="midnightblue" stroke="midnightblue" points="551.86,-157.9 554.38,-168.2 558.83,-158.58 551.86,-157.9"/>
</g>
<!-- Node14 -->
<g id="node14" class="node">
<title>Node14</title>
<g id="a_node14"><a xlink:href="tracelogger_8h.html" target="_top" xlink:title=" ">
<polygon fill="white" stroke="black" points="575.9,-112.5 575.9,-131.5 649.9,-131.5 649.9,-112.5 575.9,-112.5"/>
<text text-anchor="middle" x="612.9" y="-119.5" font-family="'Souce Sans Pro', Roboto, FreeSans, sans-serif" font-size="10.00">tracelogger.h</text>
</a>
</g>
</g>
<!-- Node9&#45;&gt;Node14 -->
<g id="edge17" class="edge">
<title>Node9&#45;&gt;Node14</title>
<path fill="none" stroke="midnightblue" d="M570.79,-161.54C581.31,-151.91 594.47,-139.87 603.25,-131.83"/>
<polygon fill="midnightblue" stroke="midnightblue" points="568.39,-158.99 563.38,-168.32 573.12,-164.15 568.39,-158.99"/>
</g>
<!-- Node10&#45;&gt;Node6 -->
<g id="edge10" class="edge">
<title>Node10&#45;&gt;Node6</title>
<path fill="none" stroke="midnightblue" d="M699.99,-102.64C694.08,-88.69 684.53,-69.64 671.9,-56 657.18,-40.09 635.68,-27.38 620.39,-19.58"/>
<polygon fill="midnightblue" stroke="midnightblue" points="696.83,-104.15 703.79,-112.14 703.32,-101.55 696.83,-104.15"/>
</g>
<!-- Node11&#45;&gt;Node6 -->
<g id="edge12" class="edge">
<title>Node11&#45;&gt;Node6</title>
<path fill="none" stroke="midnightblue" d="M531.22,-51.18C548.7,-41.24 571.73,-28.15 586.67,-19.65"/>
<polygon fill="midnightblue" stroke="midnightblue" points="529.13,-48.34 522.16,-56.32 532.59,-54.43 529.13,-48.34"/>
</g>
<!-- Node13&#45;&gt;Node6 -->
<g id="edge16" class="edge">
<title>Node13&#45;&gt;Node6</title>
<path fill="none" stroke="midnightblue" d="M601.9,-45.8C601.9,-36.91 601.9,-26.78 601.9,-19.75"/>
<polygon fill="midnightblue" stroke="midnightblue" points="598.4,-46.08 601.9,-56.08 605.4,-46.08 598.4,-46.08"/>
</g>
<!-- Node14&#45;&gt;Node6 -->
<g id="edge18" class="edge">
<title>Node14&#45;&gt;Node6</title>
<path fill="none" stroke="midnightblue" d="M633.54,-106.08C648.41,-93.37 664.47,-74.3 655.9,-56 648.24,-39.64 631.39,-27.16 618.53,-19.54"/>
<polygon fill="midnightblue" stroke="midnightblue" points="631.19,-103.47 625.56,-112.45 635.56,-108.95 631.19,-103.47"/>
</g>
<!-- Node14&#45;&gt;Node13 -->
<g id="edge19" class="edge">
<title>Node14&#45;&gt;Node13</title>
<path fill="none" stroke="midnightblue" d="M609.05,-102.1C607.22,-93.14 605.13,-82.86 603.68,-75.75"/>
<polygon fill="midnightblue" stroke="midnightblue" points="605.66,-102.98 611.08,-112.08 612.52,-101.59 605.66,-102.98"/>
</g>
<!-- Node17&#45;&gt;Node6 -->
<g id="edge25" class="edge">
<title>Node17&#45;&gt;Node6</title>
<path fill="none" stroke="midnightblue" d="M141.58,-56.04C141.69,-56.03 141.79,-56.01 141.9,-56 301.19,-36.47 492.35,-19.99 568.36,-13.71"/>
<polygon fill="midnightblue" stroke="midnightblue" points="140.94,-52.59 131.47,-57.34 141.84,-59.54 140.94,-52.59"/>
</g>
<!-- Node19&#45;&gt;Node6 -->
<g id="edge28" class="edge">
<title>Node19&#45;&gt;Node6</title>
<path fill="none" stroke="midnightblue" d="M1599.53,-219.15C1585.64,-210.83 1568.21,-199.61 1553.9,-188 1482.58,-130.13 1482.02,-85.1 1394.9,-56 1250.86,-7.89 767.69,-9.25 635.55,-10.57"/>
<polygon fill="midnightblue" stroke="midnightblue" points="1598.1,-222.37 1608.49,-224.43 1601.65,-216.34 1598.1,-222.37"/>
</g>
<!-- Node20&#45;&gt;Node6 -->
<g id="edge30" class="edge">
<title>Node20&#45;&gt;Node6</title>
<path fill="none" stroke="midnightblue" d="M239.04,-56.58C240.34,-56.38 241.63,-56.19 242.9,-56 362.21,-38.4 504.49,-21.89 568.18,-14.73"/>
<polygon fill="midnightblue" stroke="midnightblue" points="238.28,-53.16 228.94,-58.17 239.37,-60.07 238.28,-53.16"/>
</g>
<!-- Node24&#45;&gt;Node6 -->
<g id="edge37" class="edge">
<title>Node24&#45;&gt;Node6</title>
<path fill="none" stroke="midnightblue" d="M203.95,-158.98C214.11,-131.71 237.39,-80.56 275.9,-56 323.95,-25.36 495.09,-15.15 568.29,-12.13"/>
<polygon fill="midnightblue" stroke="midnightblue" points="200.63,-157.86 200.58,-168.46 207.23,-160.2 200.63,-157.86"/>
</g>
<!-- Node27&#45;&gt;Node6 -->
<g id="edge41" class="edge">
<title>Node27&#45;&gt;Node6</title>
<path fill="none" stroke="midnightblue" d="M385.63,-54.42C439.82,-43.54 522.56,-26.93 568.4,-17.73"/>
<polygon fill="midnightblue" stroke="midnightblue" points="384.64,-51.04 375.52,-56.44 386.02,-57.91 384.64,-51.04"/>
</g>
<!-- Node28&#45;&gt;Node6 -->
<g id="edge43" class="edge">
<title>Node28&#45;&gt;Node6</title>
<path fill="none" stroke="midnightblue" d="M401.7,-158.3C408.07,-131.73 423.42,-83.27 454.9,-56 486.98,-28.22 535.91,-17.59 568.4,-13.52"/>
<polygon fill="midnightblue" stroke="midnightblue" points="398.25,-157.7 399.5,-168.22 405.08,-159.21 398.25,-157.7"/>
</g>
<!-- Node30&#45;&gt;Node2 -->
<g id="edge46" class="edge">
<title>Node30&#45;&gt;Node2</title>
<path fill="none" stroke="midnightblue" d="M1642.72,-336.3C1642.11,-336.2 1641.5,-336.1 1640.9,-336 1481.7,-310.92 971.39,-295.55 836.73,-291.87"/>
<polygon fill="midnightblue" stroke="midnightblue" points="1642.22,-339.77 1652.73,-338.43 1643.67,-332.93 1642.22,-339.77"/>
</g>
<!-- Node30&#45;&gt;Node6 -->
<g id="edge48" class="edge">
<title>Node30&#45;&gt;Node6</title>
<path fill="none" stroke="midnightblue" d="M1686.38,-327.6C1699.12,-306.58 1717.9,-269.69 1717.9,-235 1717.9,-235 1717.9,-235 1717.9,-121 1717.9,-57.2 1651.6,-72.26 1589.9,-56 1403.94,-6.99 786.97,-9.29 635.64,-10.64"/>
<polygon fill="midnightblue" stroke="midnightblue" points="1683.25,-326 1680.88,-336.33 1689.17,-329.73 1683.25,-326"/>
</g>
<!-- Node30&#45;&gt;Node19 -->
<g id="edge47" class="edge">
<title>Node30&#45;&gt;Node19</title>
<path fill="none" stroke="midnightblue" d="M1666.55,-327C1655.43,-303 1636.17,-261.47 1627.88,-243.59"/>
<polygon fill="midnightblue" stroke="midnightblue" points="1663.52,-328.77 1670.9,-336.37 1669.87,-325.82 1663.52,-328.77"/>
</g>
<!-- Node31&#45;&gt;Node2 -->
<g id="edge50" class="edge">
<title>Node31&#45;&gt;Node2</title>
<path fill="none" stroke="midnightblue" d="M1569.98,-342.58C1435.9,-333.55 965.74,-301.9 836.82,-293.22"/>
<polygon fill="midnightblue" stroke="midnightblue" points="1569.91,-346.08 1580.12,-343.26 1570.38,-339.1 1569.91,-346.08"/>
</g>
<!-- Node31&#45;&gt;Node6 -->
<g id="edge52" class="edge">
<title>Node31&#45;&gt;Node6</title>
<path fill="none" stroke="midnightblue" d="M1619.2,-328.08C1640.51,-299.24 1679.9,-237.94 1679.9,-179 1679.9,-179 1679.9,-179 1679.9,-121 1679.9,-13.36 818.24,-10.26 635.64,-10.82"/>
<polygon fill="midnightblue" stroke="midnightblue" points="1616.25,-326.18 1613,-336.26 1621.83,-330.41 1616.25,-326.18"/>
</g>
<!-- Node31&#45;&gt;Node19 -->
<g id="edge51" class="edge">
<title>Node31&#45;&gt;Node19</title>
<path fill="none" stroke="midnightblue" d="M1608.95,-326.35C1612.9,-302.25 1619.6,-261.31 1622.49,-243.59"/>
<polygon fill="midnightblue" stroke="midnightblue" points="1605.47,-325.93 1607.31,-336.37 1612.38,-327.06 1605.47,-325.93"/>
</g>
<!-- Node32&#45;&gt;Node6 -->
<g id="edge58" class="edge">
<title>Node32&#45;&gt;Node6</title>
<path fill="none" stroke="midnightblue" d="M1782.95,-214.23C1776.02,-172.79 1757.36,-75.65 1731.9,-56 1687.41,-21.66 818.3,-12.75 635.47,-11.25"/>
<polygon fill="midnightblue" stroke="midnightblue" points="1779.53,-215.01 1784.59,-224.32 1786.44,-213.89 1779.53,-215.01"/>
</g>
<!-- Node33 -->
<g id="node33" class="node">
<title>Node33</title>
<g id="a_node33"><a xlink:href="internal_8h.html" target="_top" xlink:title="This header contains declaration internal to log4cplus.">
<polygon fill="white" stroke="black" points="1802.4,-168.5 1802.4,-187.5 1859.4,-187.5 1859.4,-168.5 1802.4,-168.5"/>
<text text-anchor="middle" x="1830.9" y="-175.5" font-family="'Souce Sans Pro', Roboto, FreeSans, sans-serif" font-size="10.00">internal.h</text>
</a>
</g>
</g>
<!-- Node32&#45;&gt;Node33 -->
<g id="edge56" class="edge">
<title>Node32&#45;&gt;Node33</title>
<path fill="none" stroke="midnightblue" d="M1799.95,-216.14C1807.79,-206.74 1817.23,-195.4 1823.61,-187.75"/>
<polygon fill="midnightblue" stroke="midnightblue" points="1797.04,-214.16 1793.33,-224.08 1802.42,-218.64 1797.04,-214.16"/>
</g>
<!-- Node35 -->
<g id="node35" class="node">
<title>Node35</title>
<g id="a_node35"><a xlink:href="queue_8h.html" target="_top" xlink:title=" ">
<polygon fill="white" stroke="black" points="1562.9,-168.5 1562.9,-187.5 1614.9,-187.5 1614.9,-168.5 1562.9,-168.5"/>
<text text-anchor="middle" x="1588.9" y="-175.5" font-family="'Souce Sans Pro', Roboto, FreeSans, sans-serif" font-size="10.00">queue.h</text>
</a>
</g>
</g>
<!-- Node32&#45;&gt;Node35 -->
<g id="edge59" class="edge">
<title>Node32&#45;&gt;Node35</title>
<path fill="none" stroke="midnightblue" d="M1744.93,-221.77C1705.83,-211.05 1648.11,-195.23 1614.94,-186.14"/>
<polygon fill="midnightblue" stroke="midnightblue" points="1744.12,-225.18 1754.69,-224.44 1745.97,-218.42 1744.12,-225.18"/>
</g>
<!-- Node34 -->
<g id="node34" class="node">
<title>Node34</title>
<g id="a_node34"><a xlink:href="customloglevelmanager_8h.html" target="_top" xlink:title="This header contains declaration internal to log4cplus.">
<polygon fill="white" stroke="black" points="1783.9,-112.5 1783.9,-131.5 1913.9,-131.5 1913.9,-112.5 1783.9,-112.5"/>
<text text-anchor="middle" x="1848.9" y="-119.5" font-family="'Souce Sans Pro', Roboto, FreeSans, sans-serif" font-size="10.00">customloglevelmanager.h</text>
</a>
</g>
</g>
<!-- Node33&#45;&gt;Node34 -->
<g id="edge57" class="edge">
<title>Node33&#45;&gt;Node34</title>
<path fill="none" stroke="midnightblue" d="M1837.1,-158.4C1840.11,-149.36 1843.59,-138.94 1845.98,-131.75"/>
<polygon fill="midnightblue" stroke="midnightblue" points="1833.71,-157.49 1833.87,-168.08 1840.36,-159.7 1833.71,-157.49"/>
</g>
<!-- Node35&#45;&gt;Node5 -->
<g id="edge60" class="edge">
<title>Node35&#45;&gt;Node5</title>
<path fill="none" stroke="midnightblue" d="M1553.16,-165.3C1522.07,-155.13 1477.75,-140.62 1449.92,-131.52"/>
<polygon fill="midnightblue" stroke="midnightblue" points="1552.16,-168.66 1562.76,-168.44 1554.34,-162.01 1552.16,-168.66"/>
</g>
</g>
</svg>
