<?xml version="1.0" encoding="UTF-8" standalone="no"?>
<!DOCTYPE svg PUBLIC "-//W3C//DTD SVG 1.1//EN"
 "http://www.w3.org/Graphics/SVG/1.1/DTD/svg11.dtd">
<!-- Generated by graphviz version 2.43.0 (0)
 -->
<!-- Title: pointer.h Pages: 1 -->
<svg width="2292pt" height="420pt"
 viewBox="0.00 0.00 2291.85 420.00" xmlns="http://www.w3.org/2000/svg" xmlns:xlink="http://www.w3.org/1999/xlink">
<g id="graph0" class="graph" transform="scale(1 1) rotate(0) translate(4 416)">
<title>pointer.h</title>
<polygon fill="white" stroke="transparent" points="-4,4 -4,-416 2287.85,-416 2287.85,4 -4,4"/>
<!-- Node1 -->
<g id="node1" class="node">
<title>Node1</title>
<g id="a_node1"><a xlink:title=" ">
<polygon fill="#bfbfbf" stroke="black" points="653,-392.5 653,-411.5 708,-411.5 708,-392.5 653,-392.5"/>
<text text-anchor="middle" x="680.5" y="-399.5" font-family="'Souce Sans Pro', Roboto, FreeSans, sans-serif" font-size="10.00">pointer.h</text>
</a>
</g>
</g>
<!-- Node2 -->
<g id="node2" class="node">
<title>Node2</title>
<g id="a_node2"><a xlink:href="appender_8h.html" target="_top" xlink:title=" ">
<polygon fill="white" stroke="black" points="959,-280.5 959,-299.5 1024,-299.5 1024,-280.5 959,-280.5"/>
<text text-anchor="middle" x="991.5" y="-287.5" font-family="'Souce Sans Pro', Roboto, FreeSans, sans-serif" font-size="10.00">appender.h</text>
</a>
</g>
</g>
<!-- Node1&#45;&gt;Node2 -->
<g id="edge1" class="edge">
<title>Node1&#45;&gt;Node2</title>
<path fill="none" stroke="midnightblue" d="M714.13,-389.1C777.23,-366.79 911.96,-319.13 967.16,-299.61"/>
<polygon fill="midnightblue" stroke="midnightblue" points="712.91,-385.83 704.64,-392.46 715.24,-392.43 712.91,-385.83"/>
</g>
<!-- Node3 -->
<g id="node3" class="node">
<title>Node3</title>
<g id="a_node3"><a xlink:href="appenderattachable_8h.html" target="_top" xlink:title=" ">
<polygon fill="white" stroke="black" points="165.5,-224.5 165.5,-243.5 275.5,-243.5 275.5,-224.5 165.5,-224.5"/>
<text text-anchor="middle" x="220.5" y="-231.5" font-family="'Souce Sans Pro', Roboto, FreeSans, sans-serif" font-size="10.00">appenderattachable.h</text>
</a>
</g>
</g>
<!-- Node1&#45;&gt;Node3 -->
<g id="edge45" class="edge">
<title>Node1&#45;&gt;Node3</title>
<path fill="none" stroke="midnightblue" d="M642.81,-400.91C556.39,-400.04 346.98,-393.95 289.5,-356 247.73,-328.42 228.39,-266.33 222.52,-243.57"/>
<polygon fill="midnightblue" stroke="midnightblue" points="642.93,-404.41 652.96,-400.99 642.99,-397.41 642.93,-404.41"/>
</g>
<!-- Node4 -->
<g id="node4" class="node">
<title>Node4</title>
<g id="a_node4"><a xlink:href="appenderattachableimpl_8h.html" target="_top" xlink:title=" ">
<polygon fill="white" stroke="black" points="239,-168.5 239,-187.5 368,-187.5 368,-168.5 239,-168.5"/>
<text text-anchor="middle" x="303.5" y="-175.5" font-family="'Souce Sans Pro', Roboto, FreeSans, sans-serif" font-size="10.00">appenderattachableimpl.h</text>
</a>
</g>
</g>
<!-- Node1&#45;&gt;Node4 -->
<g id="edge46" class="edge">
<title>Node1&#45;&gt;Node4</title>
<path fill="none" stroke="midnightblue" d="M644.18,-389.11C581.28,-367.32 449.95,-316.49 357.5,-244 336.26,-227.34 317.65,-201.05 308.87,-187.58"/>
<polygon fill="midnightblue" stroke="midnightblue" points="643.08,-392.43 653.67,-392.35 645.35,-385.81 643.08,-392.43"/>
</g>
<!-- Node7 -->
<g id="node7" class="node">
<title>Node7</title>
<g id="a_node7"><a xlink:href="loggerimpl_8h.html" target="_top" xlink:title=" ">
<polygon fill="white" stroke="black" points="0,-112.5 0,-131.5 71,-131.5 71,-112.5 0,-112.5"/>
<text text-anchor="middle" x="35.5" y="-119.5" font-family="'Souce Sans Pro', Roboto, FreeSans, sans-serif" font-size="10.00">loggerimpl.h</text>
</a>
</g>
</g>
<!-- Node1&#45;&gt;Node7 -->
<g id="edge52" class="edge">
<title>Node1&#45;&gt;Node7</title>
<path fill="none" stroke="midnightblue" d="M642.73,-401.21C532.31,-401.31 211.92,-397.9 117.5,-356 78.99,-338.91 48.5,-333.13 48.5,-291 48.5,-291 48.5,-291 48.5,-233 48.5,-194.92 40.72,-149.94 37.2,-131.52"/>
<polygon fill="midnightblue" stroke="midnightblue" points="642.75,-404.71 652.74,-401.19 642.74,-397.71 642.75,-404.71"/>
</g>
<!-- Node10 -->
<g id="node10" class="node">
<title>Node10</title>
<g id="a_node10"><a xlink:href="configurator_8h.html" target="_top" xlink:title=" ">
<polygon fill="white" stroke="black" points="89,-112.5 89,-131.5 166,-131.5 166,-112.5 89,-112.5"/>
<text text-anchor="middle" x="127.5" y="-119.5" font-family="'Souce Sans Pro', Roboto, FreeSans, sans-serif" font-size="10.00">configurator.h</text>
</a>
</g>
</g>
<!-- Node1&#45;&gt;Node10 -->
<g id="edge47" class="edge">
<title>Node1&#45;&gt;Node10</title>
<path fill="none" stroke="midnightblue" d="M642.51,-400.31C568.5,-398.22 400.27,-389.82 263.5,-356 187.39,-337.18 99.5,-369.41 99.5,-291 99.5,-291 99.5,-291 99.5,-233 99.5,-194.18 116.08,-149.97 123.72,-131.65"/>
<polygon fill="midnightblue" stroke="midnightblue" points="642.64,-403.82 652.73,-400.58 642.83,-396.82 642.64,-403.82"/>
</g>
<!-- Node30 -->
<g id="node30" class="node">
<title>Node30</title>
<g id="a_node30"><a xlink:href="filter_8h.html" target="_top" xlink:title="This header defines Filter and all of it&#39;s subclasses.">
<polygon fill="white" stroke="black" points="1181.5,-336.5 1181.5,-355.5 1225.5,-355.5 1225.5,-336.5 1181.5,-336.5"/>
<text text-anchor="middle" x="1203.5" y="-343.5" font-family="'Souce Sans Pro', Roboto, FreeSans, sans-serif" font-size="10.00">filter.h</text>
</a>
</g>
</g>
<!-- Node1&#45;&gt;Node30 -->
<g id="edge48" class="edge">
<title>Node1&#45;&gt;Node30</title>
<path fill="none" stroke="midnightblue" d="M718.43,-397.08C820.78,-386.52 1100.29,-357.66 1181.25,-349.3"/>
<polygon fill="midnightblue" stroke="midnightblue" points="717.84,-393.63 708.25,-398.13 718.56,-400.59 717.84,-393.63"/>
</g>
<!-- Node31 -->
<g id="node31" class="node">
<title>Node31</title>
<g id="a_node31"><a xlink:href="threads-impl_8h.html" target="_top" xlink:title=" ">
<polygon fill="white" stroke="black" points="1805.5,-224.5 1805.5,-243.5 1885.5,-243.5 1885.5,-224.5 1805.5,-224.5"/>
<text text-anchor="middle" x="1845.5" y="-231.5" font-family="'Souce Sans Pro', Roboto, FreeSans, sans-serif" font-size="10.00">threads&#45;impl.h</text>
</a>
</g>
</g>
<!-- Node1&#45;&gt;Node31 -->
<g id="edge53" class="edge">
<title>Node1&#45;&gt;Node31</title>
<path fill="none" stroke="midnightblue" d="M718.56,-401.43C891.1,-402.8 1599.73,-402.01 1791.5,-300 1815.85,-287.05 1833.56,-258.06 1841.25,-243.58"/>
<polygon fill="midnightblue" stroke="midnightblue" points="718.46,-397.93 708.43,-401.34 718.4,-404.93 718.46,-397.93"/>
</g>
<!-- Node32 -->
<g id="node32" class="node">
<title>Node32</title>
<g id="a_node32"><a xlink:href="threads_8h.html" target="_top" xlink:title=" ">
<polygon fill="white" stroke="black" points="2000.5,-280.5 2000.5,-299.5 2058.5,-299.5 2058.5,-280.5 2000.5,-280.5"/>
<text text-anchor="middle" x="2029.5" y="-287.5" font-family="'Souce Sans Pro', Roboto, FreeSans, sans-serif" font-size="10.00">threads.h</text>
</a>
</g>
</g>
<!-- Node1&#45;&gt;Node32 -->
<g id="edge54" class="edge">
<title>Node1&#45;&gt;Node32</title>
<path fill="none" stroke="midnightblue" d="M718.22,-401.05C892.55,-401.07 1621.21,-398.54 1844.5,-356 1907.7,-343.96 1978.42,-314.27 2011.11,-299.55"/>
<polygon fill="midnightblue" stroke="midnightblue" points="718.01,-397.55 708.01,-401.05 718.01,-404.55 718.01,-397.55"/>
</g>
<!-- Node2&#45;&gt;Node3 -->
<g id="edge2" class="edge">
<title>Node2&#45;&gt;Node3</title>
<path fill="none" stroke="midnightblue" d="M948.4,-286.32C842.61,-279.7 561.69,-261.78 327.5,-244 310.68,-242.72 292.38,-241.22 275.75,-239.82"/>
<polygon fill="midnightblue" stroke="midnightblue" points="948.47,-289.83 958.67,-286.96 948.91,-282.85 948.47,-289.83"/>
</g>
<!-- Node5 -->
<g id="node5" class="node">
<title>Node5</title>
<g id="a_node5"><a xlink:href="asyncappender_8h.html" target="_top" xlink:title=" ">
<polygon fill="white" stroke="black" points="2022,-112.5 2022,-131.5 2113,-131.5 2113,-112.5 2022,-112.5"/>
<text text-anchor="middle" x="2067.5" y="-119.5" font-family="'Souce Sans Pro', Roboto, FreeSans, sans-serif" font-size="10.00">asyncappender.h</text>
</a>
</g>
</g>
<!-- Node2&#45;&gt;Node5 -->
<g id="edge20" class="edge">
<title>Node2&#45;&gt;Node5</title>
<path fill="none" stroke="midnightblue" d="M1034.24,-288.34C1222.37,-285.28 1969.29,-271.43 2010.5,-244 2050.51,-217.36 2063.09,-154.69 2066.43,-131.67"/>
<polygon fill="midnightblue" stroke="midnightblue" points="1034.12,-284.84 1024.17,-288.5 1034.23,-291.84 1034.12,-284.84"/>
</g>
<!-- Node6 -->
<g id="node6" class="node">
<title>Node6</title>
<g id="a_node6"><a xlink:href="log4cplus_8h.html" target="_top" xlink:title=" ">
<polygon fill="white" stroke="black" points="842,-0.5 842,-19.5 909,-19.5 909,-0.5 842,-0.5"/>
<text text-anchor="middle" x="875.5" y="-7.5" font-family="'Souce Sans Pro', Roboto, FreeSans, sans-serif" font-size="10.00">log4cplus.h</text>
</a>
</g>
</g>
<!-- Node2&#45;&gt;Node6 -->
<g id="edge32" class="edge">
<title>Node2&#45;&gt;Node6</title>
<path fill="none" stroke="midnightblue" d="M948.96,-283.98C891.59,-274.57 796.5,-248.49 796.5,-179 796.5,-179 796.5,-179 796.5,-121 796.5,-90.77 799.21,-80.79 816.5,-56 827.55,-40.15 845.91,-27.42 859.21,-19.6"/>
<polygon fill="midnightblue" stroke="midnightblue" points="948.45,-287.44 958.86,-285.5 949.51,-280.52 948.45,-287.44"/>
</g>
<!-- Node2&#45;&gt;Node10 -->
<g id="edge23" class="edge">
<title>Node2&#45;&gt;Node10</title>
<path fill="none" stroke="midnightblue" d="M948.53,-288.1C782.03,-284.43 187.18,-269.56 156.5,-244 122.31,-215.51 124.37,-154.52 126.47,-131.78"/>
<polygon fill="midnightblue" stroke="midnightblue" points="948.79,-291.61 958.86,-288.32 948.94,-284.61 948.79,-291.61"/>
</g>
<!-- Node12 -->
<g id="node12" class="node">
<title>Node12</title>
<g id="a_node12"><a xlink:href="hierarchylocker_8h.html" target="_top" xlink:title=" ">
<polygon fill="white" stroke="black" points="391,-112.5 391,-131.5 482,-131.5 482,-112.5 391,-112.5"/>
<text text-anchor="middle" x="436.5" y="-119.5" font-family="'Souce Sans Pro', Roboto, FreeSans, sans-serif" font-size="10.00">hierarchylocker.h</text>
</a>
</g>
</g>
<!-- Node2&#45;&gt;Node12 -->
<g id="edge31" class="edge">
<title>Node2&#45;&gt;Node12</title>
<path fill="none" stroke="midnightblue" d="M948.22,-289.21C813.01,-289.43 405.07,-286.52 365.5,-244 348.08,-225.28 407.02,-155.85 428.76,-131.5"/>
<polygon fill="midnightblue" stroke="midnightblue" points="948.6,-292.71 958.6,-289.19 948.59,-285.71 948.6,-292.71"/>
</g>
<!-- Node15 -->
<g id="node15" class="node">
<title>Node15</title>
<g id="a_node15"><a xlink:href="callbackappender_8h.html" target="_top" xlink:title=" ">
<polygon fill="white" stroke="black" points="1007,-224.5 1007,-243.5 1108,-243.5 1108,-224.5 1007,-224.5"/>
<text text-anchor="middle" x="1057.5" y="-231.5" font-family="'Souce Sans Pro', Roboto, FreeSans, sans-serif" font-size="10.00">callbackappender.h</text>
</a>
</g>
</g>
<!-- Node2&#45;&gt;Node15 -->
<g id="edge21" class="edge">
<title>Node2&#45;&gt;Node15</title>
<path fill="none" stroke="midnightblue" d="M1010.05,-273.82C1021.88,-264.15 1036.79,-251.95 1046.7,-243.83"/>
<polygon fill="midnightblue" stroke="midnightblue" points="1007.63,-271.28 1002.1,-280.32 1012.06,-276.7 1007.63,-271.28"/>
</g>
<!-- Node16 -->
<g id="node16" class="node">
<title>Node16</title>
<g id="a_node16"><a xlink:href="clfsappender_8h.html" target="_top" xlink:title=" ">
<polygon fill="white" stroke="black" points="1164.5,-224.5 1164.5,-243.5 1246.5,-243.5 1246.5,-224.5 1164.5,-224.5"/>
<text text-anchor="middle" x="1205.5" y="-231.5" font-family="'Souce Sans Pro', Roboto, FreeSans, sans-serif" font-size="10.00">clfsappender.h</text>
</a>
</g>
</g>
<!-- Node2&#45;&gt;Node16 -->
<g id="edge22" class="edge">
<title>Node2&#45;&gt;Node16</title>
<path fill="none" stroke="midnightblue" d="M1033.82,-278.32C1074.22,-268.13 1134.31,-252.96 1171.63,-243.55"/>
<polygon fill="midnightblue" stroke="midnightblue" points="1032.84,-274.96 1024,-280.8 1034.55,-281.75 1032.84,-274.96"/>
</g>
<!-- Node17 -->
<g id="node17" class="node">
<title>Node17</title>
<g id="a_node17"><a xlink:href="consoleappender_8h.html" target="_top" xlink:title=" ">
<polygon fill="white" stroke="black" points="825,-56.5 825,-75.5 926,-75.5 926,-56.5 825,-56.5"/>
<text text-anchor="middle" x="875.5" y="-63.5" font-family="'Souce Sans Pro', Roboto, FreeSans, sans-serif" font-size="10.00">consoleappender.h</text>
</a>
</g>
</g>
<!-- Node2&#45;&gt;Node17 -->
<g id="edge24" class="edge">
<title>Node2&#45;&gt;Node17</title>
<path fill="none" stroke="midnightblue" d="M948.75,-287.69C916.8,-284.19 875.07,-273.72 853.5,-244 814.76,-190.62 855.72,-103.53 870.57,-75.79"/>
<polygon fill="midnightblue" stroke="midnightblue" points="948.47,-291.18 958.74,-288.6 949.1,-284.21 948.47,-291.18"/>
</g>
<!-- Node18 -->
<g id="node18" class="node">
<title>Node18</title>
<g id="a_node18"><a xlink:href="deviceappender_8hxx.html" target="_top" xlink:title=" ">
<polygon fill="white" stroke="black" points="1302.5,-224.5 1302.5,-243.5 1406.5,-243.5 1406.5,-224.5 1302.5,-224.5"/>
<text text-anchor="middle" x="1354.5" y="-231.5" font-family="'Souce Sans Pro', Roboto, FreeSans, sans-serif" font-size="10.00">deviceappender.hxx</text>
</a>
</g>
</g>
<!-- Node2&#45;&gt;Node18 -->
<g id="edge26" class="edge">
<title>Node2&#45;&gt;Node18</title>
<path fill="none" stroke="midnightblue" d="M1034.2,-282.65C1101,-272.71 1230.01,-253.52 1302.25,-242.77"/>
<polygon fill="midnightblue" stroke="midnightblue" points="1033.41,-279.23 1024.03,-284.16 1034.44,-286.15 1033.41,-279.23"/>
</g>
<!-- Node19 -->
<g id="node19" class="node">
<title>Node19</title>
<g id="a_node19"><a xlink:href="factory_8h.html" target="_top" xlink:title=" ">
<polygon fill="white" stroke="black" points="1693.5,-224.5 1693.5,-243.5 1749.5,-243.5 1749.5,-224.5 1693.5,-224.5"/>
<text text-anchor="middle" x="1721.5" y="-231.5" font-family="'Souce Sans Pro', Roboto, FreeSans, sans-serif" font-size="10.00">factory.h</text>
</a>
</g>
</g>
<!-- Node2&#45;&gt;Node19 -->
<g id="edge27" class="edge">
<title>Node2&#45;&gt;Node19</title>
<path fill="none" stroke="midnightblue" d="M1034.48,-288.36C1143.09,-286.28 1437.12,-277.71 1679.5,-244 1683.93,-243.38 1688.59,-242.56 1693.13,-241.66"/>
<polygon fill="midnightblue" stroke="midnightblue" points="1034.19,-284.87 1024.26,-288.55 1034.32,-291.87 1034.19,-284.87"/>
</g>
<!-- Node20 -->
<g id="node20" class="node">
<title>Node20</title>
<g id="a_node20"><a xlink:href="fileappender_8h.html" target="_top" xlink:title=" ">
<polygon fill="white" stroke="black" points="1051.5,-56.5 1051.5,-75.5 1129.5,-75.5 1129.5,-56.5 1051.5,-56.5"/>
<text text-anchor="middle" x="1090.5" y="-63.5" font-family="'Souce Sans Pro', Roboto, FreeSans, sans-serif" font-size="10.00">fileappender.h</text>
</a>
</g>
</g>
<!-- Node2&#45;&gt;Node20 -->
<g id="edge29" class="edge">
<title>Node2&#45;&gt;Node20</title>
<path fill="none" stroke="midnightblue" d="M1034.23,-286.01C1062.93,-281.52 1098.79,-270.55 1117.5,-244 1155.64,-189.88 1111.62,-103.29 1095.76,-75.72"/>
<polygon fill="midnightblue" stroke="midnightblue" points="1033.47,-282.58 1024.03,-287.39 1034.41,-289.52 1033.47,-282.58"/>
</g>
<!-- Node21 -->
<g id="node21" class="node">
<title>Node21</title>
<g id="a_node21"><a xlink:href="log4judpappender_8h.html" target="_top" xlink:title=" ">
<polygon fill="white" stroke="black" points="1425,-224.5 1425,-243.5 1528,-243.5 1528,-224.5 1425,-224.5"/>
<text text-anchor="middle" x="1476.5" y="-231.5" font-family="'Souce Sans Pro', Roboto, FreeSans, sans-serif" font-size="10.00">log4judpappender.h</text>
</a>
</g>
</g>
<!-- Node2&#45;&gt;Node21 -->
<g id="edge33" class="edge">
<title>Node2&#45;&gt;Node21</title>
<path fill="none" stroke="midnightblue" d="M1034.2,-285.05C1110.73,-277.84 1276.28,-261.65 1415.5,-244 1418.58,-243.61 1421.74,-243.19 1424.94,-242.76"/>
<polygon fill="midnightblue" stroke="midnightblue" points="1033.63,-281.59 1024,-286.01 1034.28,-288.56 1033.63,-281.59"/>
</g>
<!-- Node22 -->
<g id="node22" class="node">
<title>Node22</title>
<g id="a_node22"><a xlink:href="msttsappender_8h.html" target="_top" xlink:title=" ">
<polygon fill="white" stroke="black" points="1546,-224.5 1546,-243.5 1637,-243.5 1637,-224.5 1546,-224.5"/>
<text text-anchor="middle" x="1591.5" y="-231.5" font-family="'Souce Sans Pro', Roboto, FreeSans, sans-serif" font-size="10.00">msttsappender.h</text>
</a>
</g>
</g>
<!-- Node2&#45;&gt;Node22 -->
<g id="edge34" class="edge">
<title>Node2&#45;&gt;Node22</title>
<path fill="none" stroke="midnightblue" d="M1034.28,-286.68C1126.48,-281.43 1350.73,-267.22 1537.5,-244 1540.24,-243.66 1543.04,-243.28 1545.87,-242.88"/>
<polygon fill="midnightblue" stroke="midnightblue" points="1034,-283.19 1024.21,-287.25 1034.4,-290.18 1034,-283.19"/>
</g>
<!-- Node23 -->
<g id="node23" class="node">
<title>Node23</title>
<g id="a_node23"><a xlink:href="nteventlogappender_8h.html" target="_top" xlink:title=" ">
<polygon fill="white" stroke="black" points="407.5,-224.5 407.5,-243.5 517.5,-243.5 517.5,-224.5 407.5,-224.5"/>
<text text-anchor="middle" x="462.5" y="-231.5" font-family="'Souce Sans Pro', Roboto, FreeSans, sans-serif" font-size="10.00">nteventlogappender.h</text>
</a>
</g>
</g>
<!-- Node2&#45;&gt;Node23 -->
<g id="edge35" class="edge">
<title>Node2&#45;&gt;Node23</title>
<path fill="none" stroke="midnightblue" d="M948.65,-285.43C866.74,-278.49 682.28,-262.21 527.5,-244 524.33,-243.63 521.08,-243.23 517.8,-242.81"/>
<polygon fill="midnightblue" stroke="midnightblue" points="948.56,-288.94 958.82,-286.29 949.15,-281.96 948.56,-288.94"/>
</g>
<!-- Node24 -->
<g id="node24" class="node">
<title>Node24</title>
<g id="a_node24"><a xlink:href="nullappender_8h.html" target="_top" xlink:title=" ">
<polygon fill="white" stroke="black" points="662.5,-56.5 662.5,-75.5 742.5,-75.5 742.5,-56.5 662.5,-56.5"/>
<text text-anchor="middle" x="702.5" y="-63.5" font-family="'Souce Sans Pro', Roboto, FreeSans, sans-serif" font-size="10.00">nullappender.h</text>
</a>
</g>
</g>
<!-- Node2&#45;&gt;Node24 -->
<g id="edge36" class="edge">
<title>Node2&#45;&gt;Node24</title>
<path fill="none" stroke="midnightblue" d="M948.34,-289.03C818.1,-288.66 435.71,-284.14 398.5,-244 353.92,-195.91 598.06,-103.95 677.89,-75.56"/>
<polygon fill="midnightblue" stroke="midnightblue" points="948.7,-292.53 958.71,-289.05 948.72,-285.53 948.7,-292.53"/>
</g>
<!-- Node25 -->
<g id="node25" class="node">
<title>Node25</title>
<g id="a_node25"><a xlink:href="qt4debugappender_8h.html" target="_top" xlink:title=" ">
<polygon fill="white" stroke="black" points="536,-224.5 536,-243.5 643,-243.5 643,-224.5 536,-224.5"/>
<text text-anchor="middle" x="589.5" y="-231.5" font-family="'Souce Sans Pro', Roboto, FreeSans, sans-serif" font-size="10.00">qt4debugappender.h</text>
</a>
</g>
</g>
<!-- Node2&#45;&gt;Node25 -->
<g id="edge38" class="edge">
<title>Node2&#45;&gt;Node25</title>
<path fill="none" stroke="midnightblue" d="M948.59,-283.44C884.24,-275.08 758.91,-258.66 652.5,-244 649.44,-243.58 646.29,-243.14 643.11,-242.7"/>
<polygon fill="midnightblue" stroke="midnightblue" points="948.39,-286.95 958.76,-284.76 949.29,-280 948.39,-286.95"/>
</g>
<!-- Node26 -->
<g id="node26" class="node">
<title>Node26</title>
<g id="a_node26"><a xlink:href="qt5debugappender_8h.html" target="_top" xlink:title=" ">
<polygon fill="white" stroke="black" points="661,-224.5 661,-243.5 768,-243.5 768,-224.5 661,-224.5"/>
<text text-anchor="middle" x="714.5" y="-231.5" font-family="'Souce Sans Pro', Roboto, FreeSans, sans-serif" font-size="10.00">qt5debugappender.h</text>
</a>
</g>
</g>
<!-- Node2&#45;&gt;Node26 -->
<g id="edge39" class="edge">
<title>Node2&#45;&gt;Node26</title>
<path fill="none" stroke="midnightblue" d="M949.07,-280.73C897.42,-270.66 810.63,-253.74 758.35,-243.55"/>
<polygon fill="midnightblue" stroke="midnightblue" points="948.43,-284.17 958.91,-282.65 949.76,-277.3 948.43,-284.17"/>
</g>
<!-- Node27 -->
<g id="node27" class="node">
<title>Node27</title>
<g id="a_node27"><a xlink:href="socketappender_8h.html" target="_top" xlink:title=" ">
<polygon fill="white" stroke="black" points="1871,-168.5 1871,-187.5 1966,-187.5 1966,-168.5 1871,-168.5"/>
<text text-anchor="middle" x="1918.5" y="-175.5" font-family="'Souce Sans Pro', Roboto, FreeSans, sans-serif" font-size="10.00">socketappender.h</text>
</a>
</g>
</g>
<!-- Node2&#45;&gt;Node27 -->
<g id="edge40" class="edge">
<title>Node2&#45;&gt;Node27</title>
<path fill="none" stroke="midnightblue" d="M1034.26,-288.36C1160.63,-286.12 1530.78,-276.84 1646.5,-244 1664.86,-238.79 1666.49,-230.31 1684.5,-224 1746.96,-202.1 1822.75,-190 1870.81,-184"/>
<polygon fill="midnightblue" stroke="midnightblue" points="1034.13,-284.86 1024.19,-288.54 1034.25,-291.86 1034.13,-284.86"/>
</g>
<!-- Node28 -->
<g id="node28" class="node">
<title>Node28</title>
<g id="a_node28"><a xlink:href="syslogappender_8h.html" target="_top" xlink:title=" ">
<polygon fill="white" stroke="black" points="1227.5,-168.5 1227.5,-187.5 1321.5,-187.5 1321.5,-168.5 1227.5,-168.5"/>
<text text-anchor="middle" x="1274.5" y="-175.5" font-family="'Souce Sans Pro', Roboto, FreeSans, sans-serif" font-size="10.00">syslogappender.h</text>
</a>
</g>
</g>
<!-- Node2&#45;&gt;Node28 -->
<g id="edge42" class="edge">
<title>Node2&#45;&gt;Node28</title>
<path fill="none" stroke="midnightblue" d="M1034.15,-287.11C1100.32,-283.32 1223.45,-272.55 1255.5,-244 1271.83,-229.46 1274.46,-201.73 1274.68,-187.66"/>
<polygon fill="midnightblue" stroke="midnightblue" points="1033.84,-283.63 1024.04,-287.66 1034.22,-290.61 1033.84,-283.63"/>
</g>
<!-- Node29 -->
<g id="node29" class="node">
<title>Node29</title>
<g id="a_node29"><a xlink:href="win32consoleappender_8h.html" target="_top" xlink:title=" ">
<polygon fill="white" stroke="black" points="862.5,-224.5 862.5,-243.5 988.5,-243.5 988.5,-224.5 862.5,-224.5"/>
<text text-anchor="middle" x="925.5" y="-231.5" font-family="'Souce Sans Pro', Roboto, FreeSans, sans-serif" font-size="10.00">win32consoleappender.h</text>
</a>
</g>
</g>
<!-- Node2&#45;&gt;Node29 -->
<g id="edge44" class="edge">
<title>Node2&#45;&gt;Node29</title>
<path fill="none" stroke="midnightblue" d="M972.95,-273.82C961.12,-264.15 946.21,-251.95 936.3,-243.83"/>
<polygon fill="midnightblue" stroke="midnightblue" points="970.94,-276.7 980.9,-280.32 975.37,-271.28 970.94,-276.7"/>
</g>
<!-- Node3&#45;&gt;Node4 -->
<g id="edge3" class="edge">
<title>Node3&#45;&gt;Node4</title>
<path fill="none" stroke="midnightblue" d="M242.6,-218.62C257.76,-208.76 277.38,-195.99 290.2,-187.65"/>
<polygon fill="midnightblue" stroke="midnightblue" points="240.31,-215.94 233.84,-224.32 244.13,-221.8 240.31,-215.94"/>
</g>
<!-- Node9 -->
<g id="node9" class="node">
<title>Node9</title>
<g id="a_node9"><a xlink:href="logger_8h.html" target="_top" xlink:title="This header defines the Logger class and the logging macros.">
<polygon fill="white" stroke="black" points="168.5,-168.5 168.5,-187.5 220.5,-187.5 220.5,-168.5 168.5,-168.5"/>
<text text-anchor="middle" x="194.5" y="-175.5" font-family="'Souce Sans Pro', Roboto, FreeSans, sans-serif" font-size="10.00">logger.h</text>
</a>
</g>
</g>
<!-- Node3&#45;&gt;Node9 -->
<g id="edge8" class="edge">
<title>Node3&#45;&gt;Node9</title>
<path fill="none" stroke="midnightblue" d="M211.83,-214.98C207.41,-205.82 202.25,-195.09 198.71,-187.75"/>
<polygon fill="midnightblue" stroke="midnightblue" points="208.71,-216.59 216.21,-224.08 215.02,-213.55 208.71,-216.59"/>
</g>
<!-- Node4&#45;&gt;Node5 -->
<g id="edge4" class="edge">
<title>Node4&#45;&gt;Node5</title>
<path fill="none" stroke="midnightblue" d="M378.42,-174.71C677.76,-165.54 1783.3,-131.7 2021.91,-124.4"/>
<polygon fill="midnightblue" stroke="midnightblue" points="378,-171.22 368.11,-175.02 378.21,-178.21 378,-171.22"/>
</g>
<!-- Node4&#45;&gt;Node7 -->
<g id="edge6" class="edge">
<title>Node4&#45;&gt;Node7</title>
<path fill="none" stroke="midnightblue" d="M250.64,-166.43C205.24,-157.35 138.05,-143.87 79.5,-132 76.75,-131.44 73.9,-130.86 71.04,-130.28"/>
<polygon fill="midnightblue" stroke="midnightblue" points="250.06,-169.89 260.55,-168.42 251.43,-163.02 250.06,-169.89"/>
</g>
<!-- Node5&#45;&gt;Node6 -->
<g id="edge5" class="edge">
<title>Node5&#45;&gt;Node6</title>
<path fill="none" stroke="midnightblue" d="M2037.47,-108.61C1998.4,-93.14 1927.66,-67.34 1864.5,-56 1675.03,-21.98 1059.93,-13.04 909.11,-11.34"/>
<polygon fill="midnightblue" stroke="midnightblue" points="2036.34,-111.93 2046.92,-112.4 2038.94,-105.43 2036.34,-111.93"/>
</g>
<!-- Node8 -->
<g id="node8" class="node">
<title>Node8</title>
<g id="a_node8"><a xlink:href="rootlogger_8h.html" target="_top" xlink:title=" ">
<polygon fill="white" stroke="black" points="0.5,-56.5 0.5,-75.5 70.5,-75.5 70.5,-56.5 0.5,-56.5"/>
<text text-anchor="middle" x="35.5" y="-63.5" font-family="'Souce Sans Pro', Roboto, FreeSans, sans-serif" font-size="10.00">rootlogger.h</text>
</a>
</g>
</g>
<!-- Node7&#45;&gt;Node8 -->
<g id="edge7" class="edge">
<title>Node7&#45;&gt;Node8</title>
<path fill="none" stroke="midnightblue" d="M35.5,-101.8C35.5,-92.91 35.5,-82.78 35.5,-75.75"/>
<polygon fill="midnightblue" stroke="midnightblue" points="32,-102.08 35.5,-112.08 39,-102.08 32,-102.08"/>
</g>
<!-- Node9&#45;&gt;Node6 -->
<g id="edge14" class="edge">
<title>Node9&#45;&gt;Node6</title>
<path fill="none" stroke="midnightblue" d="M196.1,-158.2C199.55,-130.69 210.3,-80.14 243.5,-56 292.1,-20.67 718.14,-12.87 841.92,-11.34"/>
<polygon fill="midnightblue" stroke="midnightblue" points="192.59,-158.12 195.03,-168.43 199.55,-158.85 192.59,-158.12"/>
</g>
<!-- Node9&#45;&gt;Node10 -->
<g id="edge9" class="edge">
<title>Node9&#45;&gt;Node10</title>
<path fill="none" stroke="midnightblue" d="M175.67,-161.82C163.66,-152.15 148.53,-139.95 138.46,-131.83"/>
<polygon fill="midnightblue" stroke="midnightblue" points="173.75,-164.77 183.74,-168.32 178.15,-159.32 173.75,-164.77"/>
</g>
<!-- Node11 -->
<g id="node11" class="node">
<title>Node11</title>
<g id="a_node11"><a xlink:href="hierarchy_8h.html" target="_top" xlink:title=" ">
<polygon fill="white" stroke="black" points="554.5,-56.5 554.5,-75.5 618.5,-75.5 618.5,-56.5 554.5,-56.5"/>
<text text-anchor="middle" x="586.5" y="-63.5" font-family="'Souce Sans Pro', Roboto, FreeSans, sans-serif" font-size="10.00">hierarchy.h</text>
</a>
</g>
</g>
<!-- Node9&#45;&gt;Node11 -->
<g id="edge11" class="edge">
<title>Node9&#45;&gt;Node11</title>
<path fill="none" stroke="midnightblue" d="M230.7,-166.88C267.84,-156.35 323,-140.27 343.5,-132 361.56,-124.71 364.17,-118.6 382.5,-112 441.37,-90.81 513.53,-77.75 554.34,-71.48"/>
<polygon fill="midnightblue" stroke="midnightblue" points="229.42,-163.61 220.74,-169.69 231.32,-170.34 229.42,-163.61"/>
</g>
<!-- Node9&#45;&gt;Node12 -->
<g id="edge13" class="edge">
<title>Node9&#45;&gt;Node12</title>
<path fill="none" stroke="midnightblue" d="M230.89,-167.73C293.45,-152.99 355.43,-139.79 395.16,-131.51"/>
<polygon fill="midnightblue" stroke="midnightblue" points="229.77,-164.4 220.85,-170.11 231.38,-171.21 229.77,-164.4"/>
</g>
<!-- Node13 -->
<g id="node13" class="node">
<title>Node13</title>
<g id="a_node13"><a xlink:href="loggingmacros_8h.html" target="_top" xlink:title="This header defines the logging macros.">
<polygon fill="white" stroke="black" points="252.5,-56.5 252.5,-75.5 342.5,-75.5 342.5,-56.5 252.5,-56.5"/>
<text text-anchor="middle" x="297.5" y="-63.5" font-family="'Souce Sans Pro', Roboto, FreeSans, sans-serif" font-size="10.00">loggingmacros.h</text>
</a>
</g>
</g>
<!-- Node9&#45;&gt;Node13 -->
<g id="edge15" class="edge">
<title>Node9&#45;&gt;Node13</title>
<path fill="none" stroke="midnightblue" d="M208.3,-160.57C219.64,-147.24 236.26,-128.09 251.5,-112 263.79,-99.02 278.69,-84.69 288.13,-75.76"/>
<polygon fill="midnightblue" stroke="midnightblue" points="205.46,-158.51 201.68,-168.4 210.81,-163.03 205.46,-158.51"/>
</g>
<!-- Node14 -->
<g id="node14" class="node">
<title>Node14</title>
<g id="a_node14"><a xlink:href="tracelogger_8h.html" target="_top" xlink:title=" ">
<polygon fill="white" stroke="black" points="260.5,-112.5 260.5,-131.5 334.5,-131.5 334.5,-112.5 260.5,-112.5"/>
<text text-anchor="middle" x="297.5" y="-119.5" font-family="'Souce Sans Pro', Roboto, FreeSans, sans-serif" font-size="10.00">tracelogger.h</text>
</a>
</g>
</g>
<!-- Node9&#45;&gt;Node14 -->
<g id="edge17" class="edge">
<title>Node9&#45;&gt;Node14</title>
<path fill="none" stroke="midnightblue" d="M220.08,-163.59C239.12,-153.61 264.56,-140.27 280.99,-131.65"/>
<polygon fill="midnightblue" stroke="midnightblue" points="218.28,-160.58 211.05,-168.32 221.53,-166.78 218.28,-160.58"/>
</g>
<!-- Node10&#45;&gt;Node6 -->
<g id="edge10" class="edge">
<title>Node10&#45;&gt;Node6</title>
<path fill="none" stroke="midnightblue" d="M136.51,-103.22C145.39,-87.77 160.54,-66.28 180.5,-56 239.62,-25.54 710.4,-14.2 841.64,-11.61"/>
<polygon fill="midnightblue" stroke="midnightblue" points="133.26,-101.87 131.58,-112.33 139.42,-105.2 133.26,-101.87"/>
</g>
<!-- Node11&#45;&gt;Node6 -->
<g id="edge12" class="edge">
<title>Node11&#45;&gt;Node6</title>
<path fill="none" stroke="midnightblue" d="M628.43,-57.17C686.18,-46.38 789.05,-27.15 841.99,-17.26"/>
<polygon fill="midnightblue" stroke="midnightblue" points="627.72,-53.74 618.53,-59.01 629.01,-60.62 627.72,-53.74"/>
</g>
<!-- Node13&#45;&gt;Node6 -->
<g id="edge16" class="edge">
<title>Node13&#45;&gt;Node6</title>
<path fill="none" stroke="midnightblue" d="M353.16,-59.8C471.77,-48.72 746.38,-23.06 841.97,-14.13"/>
<polygon fill="midnightblue" stroke="midnightblue" points="352.49,-56.35 342.85,-60.76 353.14,-63.32 352.49,-56.35"/>
</g>
<!-- Node14&#45;&gt;Node6 -->
<g id="edge18" class="edge">
<title>Node14&#45;&gt;Node6</title>
<path fill="none" stroke="midnightblue" d="M335.22,-109.59C383.55,-95.32 470.1,-70.97 545.5,-56 652.69,-34.72 781.48,-20.34 841.55,-14.26"/>
<polygon fill="midnightblue" stroke="midnightblue" points="334.1,-106.27 325.51,-112.47 336.09,-112.98 334.1,-106.27"/>
</g>
<!-- Node14&#45;&gt;Node13 -->
<g id="edge19" class="edge">
<title>Node14&#45;&gt;Node13</title>
<path fill="none" stroke="midnightblue" d="M297.5,-101.8C297.5,-92.91 297.5,-82.78 297.5,-75.75"/>
<polygon fill="midnightblue" stroke="midnightblue" points="294,-102.08 297.5,-112.08 301,-102.08 294,-102.08"/>
</g>
<!-- Node17&#45;&gt;Node6 -->
<g id="edge25" class="edge">
<title>Node17&#45;&gt;Node6</title>
<path fill="none" stroke="midnightblue" d="M875.5,-45.8C875.5,-36.91 875.5,-26.78 875.5,-19.75"/>
<polygon fill="midnightblue" stroke="midnightblue" points="872,-46.08 875.5,-56.08 879,-46.08 872,-46.08"/>
</g>
<!-- Node19&#45;&gt;Node6 -->
<g id="edge28" class="edge">
<title>Node19&#45;&gt;Node6</title>
<path fill="none" stroke="midnightblue" d="M1689.74,-220.88C1605.82,-189.29 1370.76,-103.59 1168.5,-56 1075.82,-34.19 964.08,-20.4 909.22,-14.43"/>
<polygon fill="midnightblue" stroke="midnightblue" points="1688.62,-224.2 1699.21,-224.46 1691.09,-217.65 1688.62,-224.2"/>
</g>
<!-- Node20&#45;&gt;Node6 -->
<g id="edge30" class="edge">
<title>Node20&#45;&gt;Node6</title>
<path fill="none" stroke="midnightblue" d="M1046.51,-53.95C1005.77,-43.72 946.07,-28.72 909.05,-19.43"/>
<polygon fill="midnightblue" stroke="midnightblue" points="1045.88,-57.4 1056.43,-56.44 1047.59,-50.61 1045.88,-57.4"/>
</g>
<!-- Node24&#45;&gt;Node6 -->
<g id="edge37" class="edge">
<title>Node24&#45;&gt;Node6</title>
<path fill="none" stroke="midnightblue" d="M739.55,-53.44C772.16,-43.26 818.91,-28.66 848.22,-19.52"/>
<polygon fill="midnightblue" stroke="midnightblue" points="738.42,-50.12 729.91,-56.44 740.5,-56.8 738.42,-50.12"/>
</g>
<!-- Node27&#45;&gt;Node6 -->
<g id="edge41" class="edge">
<title>Node27&#45;&gt;Node6</title>
<path fill="none" stroke="midnightblue" d="M1907.16,-160.2C1887.42,-132.59 1843.8,-78.43 1791.5,-56 1709.24,-20.72 1064.69,-12.7 909.18,-11.27"/>
<polygon fill="midnightblue" stroke="midnightblue" points="1904.33,-162.26 1912.92,-168.47 1910.07,-158.26 1904.33,-162.26"/>
</g>
<!-- Node28&#45;&gt;Node6 -->
<g id="edge43" class="edge">
<title>Node28&#45;&gt;Node6</title>
<path fill="none" stroke="midnightblue" d="M1261.11,-160.12C1238.79,-133.29 1191.21,-81.35 1138.5,-56 1062.31,-19.36 961.09,-12.09 909.25,-10.94"/>
<polygon fill="midnightblue" stroke="midnightblue" points="1258.65,-162.64 1267.68,-168.18 1264.07,-158.22 1258.65,-162.64"/>
</g>
<!-- Node30&#45;&gt;Node2 -->
<g id="edge49" class="edge">
<title>Node30&#45;&gt;Node2</title>
<path fill="none" stroke="midnightblue" d="M1171.49,-336.85C1131.73,-326.72 1064.24,-309.53 1024.17,-299.32"/>
<polygon fill="midnightblue" stroke="midnightblue" points="1170.66,-340.25 1181.21,-339.32 1172.39,-333.46 1170.66,-340.25"/>
</g>
<!-- Node30&#45;&gt;Node6 -->
<g id="edge51" class="edge">
<title>Node30&#45;&gt;Node6</title>
<path fill="none" stroke="midnightblue" d="M1235.78,-342.27C1356.91,-331.61 1777.5,-290.59 1777.5,-235 1777.5,-235 1777.5,-235 1777.5,-121 1777.5,-31.77 1072.96,-14.34 909.21,-11.5"/>
<polygon fill="midnightblue" stroke="midnightblue" points="1235.31,-338.8 1225.65,-343.15 1235.92,-345.77 1235.31,-338.8"/>
</g>
<!-- Node30&#45;&gt;Node19 -->
<g id="edge50" class="edge">
<title>Node30&#45;&gt;Node19</title>
<path fill="none" stroke="midnightblue" d="M1235.83,-338.16C1312.73,-321.9 1512.61,-279.59 1679.5,-244 1684.02,-243.04 1688.82,-242.01 1693.49,-241.01"/>
<polygon fill="midnightblue" stroke="midnightblue" points="1234.87,-334.79 1225.81,-340.28 1236.32,-341.64 1234.87,-334.79"/>
</g>
<!-- Node32&#45;&gt;Node5 -->
<g id="edge55" class="edge">
<title>Node32&#45;&gt;Node5</title>
<path fill="none" stroke="midnightblue" d="M2053.87,-274.73C2064.45,-267.09 2075.72,-256.64 2081.5,-244 2099.26,-205.15 2080.27,-152.27 2071.48,-131.69"/>
<polygon fill="midnightblue" stroke="midnightblue" points="2051.65,-272 2045.28,-280.47 2055.54,-277.82 2051.65,-272"/>
</g>
<!-- Node32&#45;&gt;Node27 -->
<g id="edge66" class="edge">
<title>Node32&#45;&gt;Node27</title>
<path fill="none" stroke="midnightblue" d="M2028.08,-270.34C2026.13,-256.21 2021.5,-237.05 2010.5,-224 1995.15,-205.78 1970.66,-194.3 1950.81,-187.5"/>
<polygon fill="midnightblue" stroke="midnightblue" points="2024.61,-270.82 2029.14,-280.39 2031.58,-270.08 2024.61,-270.82"/>
</g>
<!-- Node32&#45;&gt;Node31 -->
<g id="edge67" class="edge">
<title>Node32&#45;&gt;Node31</title>
<path fill="none" stroke="midnightblue" d="M1990.55,-277.57C1955.84,-267.38 1905.82,-252.7 1874.52,-243.52"/>
<polygon fill="midnightblue" stroke="midnightblue" points="1989.76,-280.99 2000.34,-280.44 1991.73,-274.27 1989.76,-280.99"/>
</g>
<!-- Node33 -->
<g id="node33" class="node">
<title>Node33</title>
<g id="a_node33"><a xlink:href="connectorthread_8h.html" target="_top" xlink:title=" ">
<polygon fill="white" stroke="black" points="1903.5,-224.5 1903.5,-243.5 2001.5,-243.5 2001.5,-224.5 1903.5,-224.5"/>
<text text-anchor="middle" x="1952.5" y="-231.5" font-family="'Souce Sans Pro', Roboto, FreeSans, sans-serif" font-size="10.00">connectorthread.h</text>
</a>
</g>
</g>
<!-- Node32&#45;&gt;Node33 -->
<g id="edge56" class="edge">
<title>Node32&#45;&gt;Node33</title>
<path fill="none" stroke="midnightblue" d="M2008.6,-274.34C1994.59,-264.52 1976.62,-251.91 1964.84,-243.65"/>
<polygon fill="midnightblue" stroke="midnightblue" points="2006.93,-277.45 2017.13,-280.32 2010.95,-271.72 2006.93,-277.45"/>
</g>
<!-- Node34 -->
<g id="node34" class="node">
<title>Node34</title>
<g id="a_node34"><a xlink:href="loggingevent_8h.html" target="_top" xlink:title=" ">
<polygon fill="white" stroke="black" points="2190.5,-224.5 2190.5,-243.5 2270.5,-243.5 2270.5,-224.5 2190.5,-224.5"/>
<text text-anchor="middle" x="2230.5" y="-231.5" font-family="'Souce Sans Pro', Roboto, FreeSans, sans-serif" font-size="10.00">loggingevent.h</text>
</a>
</g>
</g>
<!-- Node32&#45;&gt;Node34 -->
<g id="edge59" class="edge">
<title>Node32&#45;&gt;Node34</title>
<path fill="none" stroke="midnightblue" d="M2068.4,-278.55C2106.31,-268.36 2163.25,-253.07 2198.58,-243.58"/>
<polygon fill="midnightblue" stroke="midnightblue" points="2067.48,-275.17 2058.73,-281.15 2069.29,-281.93 2067.48,-275.17"/>
</g>
<!-- Node37 -->
<g id="node37" class="node">
<title>Node37</title>
<g id="a_node37"><a xlink:href="queue_8h.html" target="_top" xlink:title=" ">
<polygon fill="white" stroke="black" points="2133.5,-168.5 2133.5,-187.5 2185.5,-187.5 2185.5,-168.5 2133.5,-168.5"/>
<text text-anchor="middle" x="2159.5" y="-175.5" font-family="'Souce Sans Pro', Roboto, FreeSans, sans-serif" font-size="10.00">queue.h</text>
</a>
</g>
</g>
<!-- Node32&#45;&gt;Node37 -->
<g id="edge65" class="edge">
<title>Node32&#45;&gt;Node37</title>
<path fill="none" stroke="midnightblue" d="M2064.96,-276.66C2082.78,-269.2 2103.85,-258.33 2119.5,-244 2137.48,-227.54 2150.28,-201.16 2156.05,-187.63"/>
<polygon fill="midnightblue" stroke="midnightblue" points="2063.44,-273.49 2055.45,-280.45 2066.04,-280 2063.44,-273.49"/>
</g>
<!-- Node33&#45;&gt;Node27 -->
<g id="edge57" class="edge">
<title>Node33&#45;&gt;Node27</title>
<path fill="none" stroke="midnightblue" d="M1941.52,-215.57C1935.67,-206.27 1928.73,-195.25 1924.01,-187.75"/>
<polygon fill="midnightblue" stroke="midnightblue" points="1938.6,-217.49 1946.89,-224.08 1944.52,-213.76 1938.6,-217.49"/>
</g>
<!-- Node33&#45;&gt;Node28 -->
<g id="edge58" class="edge">
<title>Node33&#45;&gt;Node28</title>
<path fill="none" stroke="midnightblue" d="M1893.38,-223.97C1673.67,-199.36 1423.9,-185.97 1321.68,-181.11"/>
<polygon fill="midnightblue" stroke="midnightblue" points="1893.16,-227.46 1903.49,-225.11 1893.95,-220.51 1893.16,-227.46"/>
</g>
<!-- Node34&#45;&gt;Node6 -->
<g id="edge62" class="edge">
<title>Node34&#45;&gt;Node6</title>
<path fill="none" stroke="midnightblue" d="M2249.29,-217.66C2257.47,-209.76 2266.16,-199.4 2270.5,-188 2282.5,-156.43 2292.43,-137.69 2270.5,-112 2179.29,-5.18 1113.42,-8.95 909.21,-10.66"/>
<polygon fill="midnightblue" stroke="midnightblue" points="2246.86,-215.14 2241.77,-224.43 2251.54,-220.34 2246.86,-215.14"/>
</g>
<!-- Node35 -->
<g id="node35" class="node">
<title>Node35</title>
<g id="a_node35"><a xlink:href="internal_8h.html" target="_top" xlink:title="This header contains declaration internal to log4cplus.">
<polygon fill="white" stroke="black" points="2204,-168.5 2204,-187.5 2261,-187.5 2261,-168.5 2204,-168.5"/>
<text text-anchor="middle" x="2232.5" y="-175.5" font-family="'Souce Sans Pro', Roboto, FreeSans, sans-serif" font-size="10.00">internal.h</text>
</a>
</g>
</g>
<!-- Node34&#45;&gt;Node35 -->
<g id="edge60" class="edge">
<title>Node34&#45;&gt;Node35</title>
<path fill="none" stroke="midnightblue" d="M2231.21,-213.8C2231.54,-204.91 2231.92,-194.78 2232.18,-187.75"/>
<polygon fill="midnightblue" stroke="midnightblue" points="2227.7,-213.96 2230.83,-224.08 2234.7,-214.22 2227.7,-213.96"/>
</g>
<!-- Node34&#45;&gt;Node37 -->
<g id="edge63" class="edge">
<title>Node34&#45;&gt;Node37</title>
<path fill="none" stroke="midnightblue" d="M2210.91,-218.1C2198.13,-208.38 2181.89,-196.03 2171.11,-187.83"/>
<polygon fill="midnightblue" stroke="midnightblue" points="2209.01,-221.06 2219.09,-224.32 2213.25,-215.48 2209.01,-221.06"/>
</g>
<!-- Node36 -->
<g id="node36" class="node">
<title>Node36</title>
<g id="a_node36"><a xlink:href="customloglevelmanager_8h.html" target="_top" xlink:title="This header contains declaration internal to log4cplus.">
<polygon fill="white" stroke="black" points="2131.5,-112.5 2131.5,-131.5 2261.5,-131.5 2261.5,-112.5 2131.5,-112.5"/>
<text text-anchor="middle" x="2196.5" y="-119.5" font-family="'Souce Sans Pro', Roboto, FreeSans, sans-serif" font-size="10.00">customloglevelmanager.h</text>
</a>
</g>
</g>
<!-- Node35&#45;&gt;Node36 -->
<g id="edge61" class="edge">
<title>Node35&#45;&gt;Node36</title>
<path fill="none" stroke="midnightblue" d="M2220.88,-159.57C2214.68,-150.27 2207.33,-139.25 2202.33,-131.75"/>
<polygon fill="midnightblue" stroke="midnightblue" points="2218.1,-161.7 2226.56,-168.08 2223.92,-157.82 2218.1,-161.7"/>
</g>
<!-- Node37&#45;&gt;Node5 -->
<g id="edge64" class="edge">
<title>Node37&#45;&gt;Node5</title>
<path fill="none" stroke="midnightblue" d="M2135.95,-163.18C2119.02,-153.24 2096.72,-140.15 2082.24,-131.65"/>
<polygon fill="midnightblue" stroke="midnightblue" points="2134.32,-166.28 2144.72,-168.32 2137.87,-160.24 2134.32,-166.28"/>
</g>
</g>
</svg>
