<?xml version="1.0" encoding="UTF-8" standalone="no"?>
<!DOCTYPE svg PUBLIC "-//W3C//DTD SVG 1.1//EN"
 "http://www.w3.org/Graphics/SVG/1.1/DTD/svg11.dtd">
<!-- Generated by graphviz version 2.43.0 (0)
 -->
<!-- Title: streams.h Pages: 1 -->
<svg width="2022pt" height="420pt"
 viewBox="0.00 0.00 2022.00 420.00" xmlns="http://www.w3.org/2000/svg" xmlns:xlink="http://www.w3.org/1999/xlink">
<g id="graph0" class="graph" transform="scale(1 1) rotate(0) translate(4 416)">
<title>streams.h</title>
<polygon fill="white" stroke="transparent" points="-4,4 -4,-416 2018,-416 2018,4 -4,4"/>
<!-- Node1 -->
<g id="node1" class="node">
<title>Node1</title>
<g id="a_node1"><a xlink:title=" ">
<polygon fill="#bfbfbf" stroke="black" points="1865.5,-392.5 1865.5,-411.5 1926.5,-411.5 1926.5,-392.5 1865.5,-392.5"/>
<text text-anchor="middle" x="1896" y="-399.5" font-family="'Souce Sans Pro', Roboto, FreeSans, sans-serif" font-size="10.00">streams.h</text>
</a>
</g>
</g>
<!-- Node2 -->
<g id="node2" class="node">
<title>Node2</title>
<g id="a_node2"><a xlink:href="internal_8h.html" target="_top" xlink:title="This header contains declaration internal to log4cplus.">
<polygon fill="white" stroke="black" points="193.5,-336.5 193.5,-355.5 250.5,-355.5 250.5,-336.5 193.5,-336.5"/>
<text text-anchor="middle" x="222" y="-343.5" font-family="'Souce Sans Pro', Roboto, FreeSans, sans-serif" font-size="10.00">internal.h</text>
</a>
</g>
</g>
<!-- Node1&#45;&gt;Node2 -->
<g id="edge1" class="edge">
<title>Node1&#45;&gt;Node2</title>
<path fill="none" stroke="midnightblue" d="M1855,-399.68C1620.18,-392.1 449.55,-354.34 250.72,-347.93"/>
<polygon fill="midnightblue" stroke="midnightblue" points="1855.05,-403.18 1865.15,-400 1855.27,-396.18 1855.05,-403.18"/>
</g>
<!-- Node4 -->
<g id="node4" class="node">
<title>Node4</title>
<g id="a_node4"><a xlink:href="layout_8h.html" target="_top" xlink:title=" ">
<polygon fill="white" stroke="black" points="573.5,-336.5 573.5,-355.5 624.5,-355.5 624.5,-336.5 573.5,-336.5"/>
<text text-anchor="middle" x="599" y="-343.5" font-family="'Souce Sans Pro', Roboto, FreeSans, sans-serif" font-size="10.00">layout.h</text>
</a>
</g>
</g>
<!-- Node1&#45;&gt;Node4 -->
<g id="edge3" class="edge">
<title>Node1&#45;&gt;Node4</title>
<path fill="none" stroke="midnightblue" d="M1855.15,-399.3C1655.47,-390.99 785.18,-354.75 624.54,-348.06"/>
<polygon fill="midnightblue" stroke="midnightblue" points="1855.08,-402.8 1865.22,-399.72 1855.37,-395.81 1855.08,-402.8"/>
</g>
<!-- Node16 -->
<g id="node16" class="node">
<title>Node16</title>
<g id="a_node16"><a xlink:href="loggingmacros_8h.html" target="_top" xlink:title="This header defines the logging macros.">
<polygon fill="white" stroke="black" points="1578,-56.5 1578,-75.5 1668,-75.5 1668,-56.5 1578,-56.5"/>
<text text-anchor="middle" x="1623" y="-63.5" font-family="'Souce Sans Pro', Roboto, FreeSans, sans-serif" font-size="10.00">loggingmacros.h</text>
</a>
</g>
</g>
<!-- Node1&#45;&gt;Node16 -->
<g id="edge50" class="edge">
<title>Node1&#45;&gt;Node16</title>
<path fill="none" stroke="midnightblue" d="M1896,-382.25C1896,-360.36 1896,-323.05 1896,-291 1896,-291 1896,-291 1896,-177 1896,-146.9 1899.41,-132.09 1877,-112 1861.64,-98.23 1736.82,-80.97 1668.05,-72.38"/>
<polygon fill="midnightblue" stroke="midnightblue" points="1892.5,-382.44 1896,-392.44 1899.5,-382.44 1892.5,-382.44"/>
</g>
<!-- Node33 -->
<g id="node33" class="node">
<title>Node33</title>
<g id="a_node33"><a xlink:href="loglog_8h.html" target="_top" xlink:title=" ">
<polygon fill="white" stroke="black" points="1962,-336.5 1962,-355.5 2014,-355.5 2014,-336.5 1962,-336.5"/>
<text text-anchor="middle" x="1988" y="-343.5" font-family="'Souce Sans Pro', Roboto, FreeSans, sans-serif" font-size="10.00">loglog.h</text>
</a>
</g>
</g>
<!-- Node1&#45;&gt;Node33 -->
<g id="edge51" class="edge">
<title>Node1&#45;&gt;Node33</title>
<path fill="none" stroke="midnightblue" d="M1919.55,-387.18C1936.48,-377.24 1958.78,-364.15 1973.26,-355.65"/>
<polygon fill="midnightblue" stroke="midnightblue" points="1917.63,-384.24 1910.78,-392.32 1921.18,-390.28 1917.63,-384.24"/>
</g>
<!-- Node34 -->
<g id="node34" class="node">
<title>Node34</title>
<g id="a_node34"><a xlink:href="property_8h.html" target="_top" xlink:title=" ">
<polygon fill="white" stroke="black" points="1924.5,-168.5 1924.5,-187.5 1985.5,-187.5 1985.5,-168.5 1924.5,-168.5"/>
<text text-anchor="middle" x="1955" y="-175.5" font-family="'Souce Sans Pro', Roboto, FreeSans, sans-serif" font-size="10.00">property.h</text>
</a>
</g>
</g>
<!-- Node1&#45;&gt;Node34 -->
<g id="edge52" class="edge">
<title>Node1&#45;&gt;Node34</title>
<path fill="none" stroke="midnightblue" d="M1901.9,-382.81C1904.48,-374.65 1907.49,-364.87 1910,-356 1928.19,-291.62 1946.96,-213.12 1953,-187.52"/>
<polygon fill="midnightblue" stroke="midnightblue" points="1898.54,-381.82 1898.82,-392.41 1905.21,-383.96 1898.54,-381.82"/>
</g>
<!-- Node3 -->
<g id="node3" class="node">
<title>Node3</title>
<g id="a_node3"><a xlink:href="customloglevelmanager_8h.html" target="_top" xlink:title="This header contains declaration internal to log4cplus.">
<polygon fill="white" stroke="black" points="0,-280.5 0,-299.5 130,-299.5 130,-280.5 0,-280.5"/>
<text text-anchor="middle" x="65" y="-287.5" font-family="'Souce Sans Pro', Roboto, FreeSans, sans-serif" font-size="10.00">customloglevelmanager.h</text>
</a>
</g>
</g>
<!-- Node2&#45;&gt;Node3 -->
<g id="edge2" class="edge">
<title>Node2&#45;&gt;Node3</title>
<path fill="none" stroke="midnightblue" d="M187.61,-333.17C158.05,-323 116.13,-308.59 89.76,-299.52"/>
<polygon fill="midnightblue" stroke="midnightblue" points="186.53,-336.5 197.12,-336.44 188.8,-329.88 186.53,-336.5"/>
</g>
<!-- Node5 -->
<g id="node5" class="node">
<title>Node5</title>
<g id="a_node5"><a xlink:href="appender_8h.html" target="_top" xlink:title=" ">
<polygon fill="white" stroke="black" points="714.5,-280.5 714.5,-299.5 779.5,-299.5 779.5,-280.5 714.5,-280.5"/>
<text text-anchor="middle" x="747" y="-287.5" font-family="'Souce Sans Pro', Roboto, FreeSans, sans-serif" font-size="10.00">appender.h</text>
</a>
</g>
</g>
<!-- Node4&#45;&gt;Node5 -->
<g id="edge4" class="edge">
<title>Node4&#45;&gt;Node5</title>
<path fill="none" stroke="midnightblue" d="M632.15,-332.91C659.97,-322.75 699.02,-308.51 723.66,-299.52"/>
<polygon fill="midnightblue" stroke="midnightblue" points="630.65,-329.73 622.45,-336.44 633.04,-336.3 630.65,-329.73"/>
</g>
<!-- Node9 -->
<g id="node9" class="node">
<title>Node9</title>
<g id="a_node9"><a xlink:href="log4cplus_8h.html" target="_top" xlink:title=" ">
<polygon fill="white" stroke="black" points="606.5,-0.5 606.5,-19.5 673.5,-19.5 673.5,-0.5 606.5,-0.5"/>
<text text-anchor="middle" x="640" y="-7.5" font-family="'Souce Sans Pro', Roboto, FreeSans, sans-serif" font-size="10.00">log4cplus.h</text>
</a>
</g>
</g>
<!-- Node4&#45;&gt;Node9 -->
<g id="edge49" class="edge">
<title>Node4&#45;&gt;Node9</title>
<path fill="none" stroke="midnightblue" d="M563.28,-343.73C458.28,-339.04 158,-318.34 158,-235 158,-235 158,-235 158,-121 158,-86.84 169.97,-73.99 199,-56 267.03,-13.83 515.64,-10.48 606.48,-10.71"/>
<polygon fill="midnightblue" stroke="midnightblue" points="563.24,-347.23 573.38,-344.16 563.54,-340.24 563.24,-347.23"/>
</g>
<!-- Node22 -->
<g id="node22" class="node">
<title>Node22</title>
<g id="a_node22"><a xlink:href="factory_8h.html" target="_top" xlink:title=" ">
<polygon fill="white" stroke="black" points="188,-224.5 188,-243.5 244,-243.5 244,-224.5 188,-224.5"/>
<text text-anchor="middle" x="216" y="-231.5" font-family="'Souce Sans Pro', Roboto, FreeSans, sans-serif" font-size="10.00">factory.h</text>
</a>
</g>
</g>
<!-- Node4&#45;&gt;Node22 -->
<g id="edge48" class="edge">
<title>Node4&#45;&gt;Node22</title>
<path fill="none" stroke="midnightblue" d="M563.28,-334.74C487.64,-313.02 312.64,-262.75 244.18,-243.09"/>
<polygon fill="midnightblue" stroke="midnightblue" points="562.7,-338.22 573.28,-337.61 564.63,-331.49 562.7,-338.22"/>
</g>
<!-- Node6 -->
<g id="node6" class="node">
<title>Node6</title>
<g id="a_node6"><a xlink:href="appenderattachable_8h.html" target="_top" xlink:title=" ">
<polygon fill="white" stroke="black" points="1682,-224.5 1682,-243.5 1792,-243.5 1792,-224.5 1682,-224.5"/>
<text text-anchor="middle" x="1737" y="-231.5" font-family="'Souce Sans Pro', Roboto, FreeSans, sans-serif" font-size="10.00">appenderattachable.h</text>
</a>
</g>
</g>
<!-- Node5&#45;&gt;Node6 -->
<g id="edge5" class="edge">
<title>Node5&#45;&gt;Node6</title>
<path fill="none" stroke="midnightblue" d="M789.99,-288.3C922.09,-285.86 1333.67,-276.04 1673,-244 1675.9,-243.73 1678.88,-243.41 1681.88,-243.08"/>
<polygon fill="midnightblue" stroke="midnightblue" points="789.82,-284.81 779.88,-288.49 789.94,-291.8 789.82,-284.81"/>
</g>
<!-- Node8 -->
<g id="node8" class="node">
<title>Node8</title>
<g id="a_node8"><a xlink:href="asyncappender_8h.html" target="_top" xlink:title=" ">
<polygon fill="white" stroke="black" points="632.5,-112.5 632.5,-131.5 723.5,-131.5 723.5,-112.5 632.5,-112.5"/>
<text text-anchor="middle" x="678" y="-119.5" font-family="'Souce Sans Pro', Roboto, FreeSans, sans-serif" font-size="10.00">asyncappender.h</text>
</a>
</g>
</g>
<!-- Node5&#45;&gt;Node8 -->
<g id="edge23" class="edge">
<title>Node5&#45;&gt;Node8</title>
<path fill="none" stroke="midnightblue" d="M704.14,-283.62C659.03,-276.98 592.42,-264.03 577,-244 571.58,-236.96 573.6,-232.21 577,-224 579.47,-218.04 644.6,-155.09 668.94,-131.69"/>
<polygon fill="midnightblue" stroke="midnightblue" points="703.87,-287.12 714.26,-285.06 704.85,-280.19 703.87,-287.12"/>
</g>
<!-- Node5&#45;&gt;Node9 -->
<g id="edge35" class="edge">
<title>Node5&#45;&gt;Node9</title>
<path fill="none" stroke="midnightblue" d="M704.27,-284.14C657.31,-277.81 586.33,-265 570,-244 558.89,-229.71 569.47,-237.91 621,-76 627.35,-56.06 634.05,-32.42 637.55,-19.87"/>
<polygon fill="midnightblue" stroke="midnightblue" points="704.11,-287.64 714.48,-285.46 705.01,-280.7 704.11,-287.64"/>
</g>
<!-- Node13 -->
<g id="node13" class="node">
<title>Node13</title>
<g id="a_node13"><a xlink:href="configurator_8h.html" target="_top" xlink:title=" ">
<polygon fill="white" stroke="black" points="1790.5,-112.5 1790.5,-131.5 1867.5,-131.5 1867.5,-112.5 1790.5,-112.5"/>
<text text-anchor="middle" x="1829" y="-119.5" font-family="'Souce Sans Pro', Roboto, FreeSans, sans-serif" font-size="10.00">configurator.h</text>
</a>
</g>
</g>
<!-- Node5&#45;&gt;Node13 -->
<g id="edge26" class="edge">
<title>Node5&#45;&gt;Node13</title>
<path fill="none" stroke="midnightblue" d="M789.91,-288.75C984.82,-287.42 1779.07,-279.83 1817,-244 1848.61,-214.14 1837.12,-153.98 1831.42,-131.63"/>
<polygon fill="midnightblue" stroke="midnightblue" points="789.74,-285.25 779.76,-288.82 789.79,-292.25 789.74,-285.25"/>
</g>
<!-- Node15 -->
<g id="node15" class="node">
<title>Node15</title>
<g id="a_node15"><a xlink:href="hierarchylocker_8h.html" target="_top" xlink:title=" ">
<polygon fill="white" stroke="black" points="1463.5,-112.5 1463.5,-131.5 1554.5,-131.5 1554.5,-112.5 1463.5,-112.5"/>
<text text-anchor="middle" x="1509" y="-119.5" font-family="'Souce Sans Pro', Roboto, FreeSans, sans-serif" font-size="10.00">hierarchylocker.h</text>
</a>
</g>
</g>
<!-- Node5&#45;&gt;Node15 -->
<g id="edge34" class="edge">
<title>Node5&#45;&gt;Node15</title>
<path fill="none" stroke="midnightblue" d="M789.66,-288.81C982.57,-287.73 1765.46,-281.09 1801,-244 1807.15,-237.58 1806.16,-231.24 1801,-224 1792.96,-212.71 1607.45,-153.78 1536.37,-131.52"/>
<polygon fill="midnightblue" stroke="midnightblue" points="789.6,-285.31 779.62,-288.86 789.64,-292.31 789.6,-285.31"/>
</g>
<!-- Node18 -->
<g id="node18" class="node">
<title>Node18</title>
<g id="a_node18"><a xlink:href="callbackappender_8h.html" target="_top" xlink:title=" ">
<polygon fill="white" stroke="black" points="586.5,-224.5 586.5,-243.5 687.5,-243.5 687.5,-224.5 586.5,-224.5"/>
<text text-anchor="middle" x="637" y="-231.5" font-family="'Souce Sans Pro', Roboto, FreeSans, sans-serif" font-size="10.00">callbackappender.h</text>
</a>
</g>
</g>
<!-- Node5&#45;&gt;Node18 -->
<g id="edge24" class="edge">
<title>Node5&#45;&gt;Node18</title>
<path fill="none" stroke="midnightblue" d="M720.24,-275.86C699.84,-265.85 672.33,-252.35 654.63,-243.65"/>
<polygon fill="midnightblue" stroke="midnightblue" points="718.81,-279.06 729.33,-280.32 721.89,-272.78 718.81,-279.06"/>
</g>
<!-- Node19 -->
<g id="node19" class="node">
<title>Node19</title>
<g id="a_node19"><a xlink:href="clfsappender_8h.html" target="_top" xlink:title=" ">
<polygon fill="white" stroke="black" points="706,-224.5 706,-243.5 788,-243.5 788,-224.5 706,-224.5"/>
<text text-anchor="middle" x="747" y="-231.5" font-family="'Souce Sans Pro', Roboto, FreeSans, sans-serif" font-size="10.00">clfsappender.h</text>
</a>
</g>
</g>
<!-- Node5&#45;&gt;Node19 -->
<g id="edge25" class="edge">
<title>Node5&#45;&gt;Node19</title>
<path fill="none" stroke="midnightblue" d="M747,-269.8C747,-260.91 747,-250.78 747,-243.75"/>
<polygon fill="midnightblue" stroke="midnightblue" points="743.5,-270.08 747,-280.08 750.5,-270.08 743.5,-270.08"/>
</g>
<!-- Node20 -->
<g id="node20" class="node">
<title>Node20</title>
<g id="a_node20"><a xlink:href="consoleappender_8h.html" target="_top" xlink:title=" ">
<polygon fill="white" stroke="black" points="224.5,-56.5 224.5,-75.5 325.5,-75.5 325.5,-56.5 224.5,-56.5"/>
<text text-anchor="middle" x="275" y="-63.5" font-family="'Souce Sans Pro', Roboto, FreeSans, sans-serif" font-size="10.00">consoleappender.h</text>
</a>
</g>
</g>
<!-- Node5&#45;&gt;Node20 -->
<g id="edge27" class="edge">
<title>Node5&#45;&gt;Node20</title>
<path fill="none" stroke="midnightblue" d="M704.11,-286.73C617.9,-281.72 426.65,-268.19 366,-244 327.36,-228.59 312.05,-223.88 291,-188 269.24,-150.9 271.93,-96.55 273.98,-75.64"/>
<polygon fill="midnightblue" stroke="midnightblue" points="704.15,-290.24 714.33,-287.32 704.55,-283.25 704.15,-290.24"/>
</g>
<!-- Node21 -->
<g id="node21" class="node">
<title>Node21</title>
<g id="a_node21"><a xlink:href="deviceappender_8hxx.html" target="_top" xlink:title=" ">
<polygon fill="white" stroke="black" points="806,-224.5 806,-243.5 910,-243.5 910,-224.5 806,-224.5"/>
<text text-anchor="middle" x="858" y="-231.5" font-family="'Souce Sans Pro', Roboto, FreeSans, sans-serif" font-size="10.00">deviceappender.hxx</text>
</a>
</g>
</g>
<!-- Node5&#45;&gt;Node21 -->
<g id="edge29" class="edge">
<title>Node5&#45;&gt;Node21</title>
<path fill="none" stroke="midnightblue" d="M774.01,-275.86C794.59,-265.85 822.34,-252.35 840.21,-243.65"/>
<polygon fill="midnightblue" stroke="midnightblue" points="772.3,-272.8 764.83,-280.32 775.36,-279.1 772.3,-272.8"/>
</g>
<!-- Node5&#45;&gt;Node22 -->
<g id="edge30" class="edge">
<title>Node5&#45;&gt;Node22</title>
<path fill="none" stroke="midnightblue" d="M704.13,-286.78C618.81,-281.98 421.83,-269 258,-244 253.58,-243.33 248.92,-242.47 244.38,-241.56"/>
<polygon fill="midnightblue" stroke="midnightblue" points="704.04,-290.28 714.22,-287.34 704.43,-283.29 704.04,-290.28"/>
</g>
<!-- Node23 -->
<g id="node23" class="node">
<title>Node23</title>
<g id="a_node23"><a xlink:href="fileappender_8h.html" target="_top" xlink:title=" ">
<polygon fill="white" stroke="black" points="300,-168.5 300,-187.5 378,-187.5 378,-168.5 300,-168.5"/>
<text text-anchor="middle" x="339" y="-175.5" font-family="'Souce Sans Pro', Roboto, FreeSans, sans-serif" font-size="10.00">fileappender.h</text>
</a>
</g>
</g>
<!-- Node5&#45;&gt;Node23 -->
<g id="edge32" class="edge">
<title>Node5&#45;&gt;Node23</title>
<path fill="none" stroke="midnightblue" d="M704.44,-287.53C622.19,-284.05 444.82,-273.29 392,-244 368.06,-230.72 350.7,-201.89 343.16,-187.51"/>
<polygon fill="midnightblue" stroke="midnightblue" points="704.33,-291.02 714.46,-287.93 704.61,-284.03 704.33,-291.02"/>
</g>
<!-- Node24 -->
<g id="node24" class="node">
<title>Node24</title>
<g id="a_node24"><a xlink:href="log4judpappender_8h.html" target="_top" xlink:title=" ">
<polygon fill="white" stroke="black" points="928.5,-224.5 928.5,-243.5 1031.5,-243.5 1031.5,-224.5 928.5,-224.5"/>
<text text-anchor="middle" x="980" y="-231.5" font-family="'Souce Sans Pro', Roboto, FreeSans, sans-serif" font-size="10.00">log4judpappender.h</text>
</a>
</g>
</g>
<!-- Node5&#45;&gt;Node24 -->
<g id="edge36" class="edge">
<title>Node5&#45;&gt;Node24</title>
<path fill="none" stroke="midnightblue" d="M789.7,-279.1C833.62,-268.92 901.35,-253.23 943.05,-243.56"/>
<polygon fill="midnightblue" stroke="midnightblue" points="788.84,-275.71 779.89,-281.38 790.42,-282.53 788.84,-275.71"/>
</g>
<!-- Node25 -->
<g id="node25" class="node">
<title>Node25</title>
<g id="a_node25"><a xlink:href="msttsappender_8h.html" target="_top" xlink:title=" ">
<polygon fill="white" stroke="black" points="1049.5,-224.5 1049.5,-243.5 1140.5,-243.5 1140.5,-224.5 1049.5,-224.5"/>
<text text-anchor="middle" x="1095" y="-231.5" font-family="'Souce Sans Pro', Roboto, FreeSans, sans-serif" font-size="10.00">msttsappender.h</text>
</a>
</g>
</g>
<!-- Node5&#45;&gt;Node25 -->
<g id="edge37" class="edge">
<title>Node5&#45;&gt;Node25</title>
<path fill="none" stroke="midnightblue" d="M789.77,-282.63C847.03,-274.07 951.72,-258.27 1041,-244 1043.72,-243.56 1046.52,-243.11 1049.34,-242.65"/>
<polygon fill="midnightblue" stroke="midnightblue" points="789.02,-279.21 779.65,-284.15 790.06,-286.13 789.02,-279.21"/>
</g>
<!-- Node26 -->
<g id="node26" class="node">
<title>Node26</title>
<g id="a_node26"><a xlink:href="nteventlogappender_8h.html" target="_top" xlink:title=" ">
<polygon fill="white" stroke="black" points="1159,-224.5 1159,-243.5 1269,-243.5 1269,-224.5 1159,-224.5"/>
<text text-anchor="middle" x="1214" y="-231.5" font-family="'Souce Sans Pro', Roboto, FreeSans, sans-serif" font-size="10.00">nteventlogappender.h</text>
</a>
</g>
</g>
<!-- Node5&#45;&gt;Node26 -->
<g id="edge38" class="edge">
<title>Node5&#45;&gt;Node26</title>
<path fill="none" stroke="midnightblue" d="M789.96,-284.61C863.68,-276.98 1019.02,-260.52 1150,-244 1152.89,-243.63 1155.86,-243.25 1158.86,-242.86"/>
<polygon fill="midnightblue" stroke="midnightblue" points="789.27,-281.16 779.69,-285.67 789.99,-288.12 789.27,-281.16"/>
</g>
<!-- Node27 -->
<g id="node27" class="node">
<title>Node27</title>
<g id="a_node27"><a xlink:href="nullappender_8h.html" target="_top" xlink:title=" ">
<polygon fill="white" stroke="black" points="382,-56.5 382,-75.5 462,-75.5 462,-56.5 382,-56.5"/>
<text text-anchor="middle" x="422" y="-63.5" font-family="'Souce Sans Pro', Roboto, FreeSans, sans-serif" font-size="10.00">nullappender.h</text>
</a>
</g>
</g>
<!-- Node5&#45;&gt;Node27 -->
<g id="edge39" class="edge">
<title>Node5&#45;&gt;Node27</title>
<path fill="none" stroke="midnightblue" d="M703.97,-286.69C633.73,-282.19 498.3,-270.31 459,-244 402.66,-206.27 415.05,-106.2 420.3,-75.85"/>
<polygon fill="midnightblue" stroke="midnightblue" points="704.06,-290.2 714.25,-287.32 704.49,-283.21 704.06,-290.2"/>
</g>
<!-- Node28 -->
<g id="node28" class="node">
<title>Node28</title>
<g id="a_node28"><a xlink:href="qt4debugappender_8h.html" target="_top" xlink:title=" ">
<polygon fill="white" stroke="black" points="1287.5,-224.5 1287.5,-243.5 1394.5,-243.5 1394.5,-224.5 1287.5,-224.5"/>
<text text-anchor="middle" x="1341" y="-231.5" font-family="'Souce Sans Pro', Roboto, FreeSans, sans-serif" font-size="10.00">qt4debugappender.h</text>
</a>
</g>
</g>
<!-- Node5&#45;&gt;Node28 -->
<g id="edge41" class="edge">
<title>Node5&#45;&gt;Node28</title>
<path fill="none" stroke="midnightblue" d="M789.82,-286.21C880.19,-280.13 1096.95,-264.59 1278,-244 1281.07,-243.65 1284.23,-243.27 1287.41,-242.87"/>
<polygon fill="midnightblue" stroke="midnightblue" points="789.44,-282.73 779.69,-286.88 789.9,-289.71 789.44,-282.73"/>
</g>
<!-- Node29 -->
<g id="node29" class="node">
<title>Node29</title>
<g id="a_node29"><a xlink:href="qt5debugappender_8h.html" target="_top" xlink:title=" ">
<polygon fill="white" stroke="black" points="1412.5,-224.5 1412.5,-243.5 1519.5,-243.5 1519.5,-224.5 1412.5,-224.5"/>
<text text-anchor="middle" x="1466" y="-231.5" font-family="'Souce Sans Pro', Roboto, FreeSans, sans-serif" font-size="10.00">qt5debugappender.h</text>
</a>
</g>
</g>
<!-- Node5&#45;&gt;Node29 -->
<g id="edge42" class="edge">
<title>Node5&#45;&gt;Node29</title>
<path fill="none" stroke="midnightblue" d="M789.73,-287.2C894.58,-282.53 1172.91,-268.65 1404,-244 1406.7,-243.71 1409.47,-243.39 1412.26,-243.05"/>
<polygon fill="midnightblue" stroke="midnightblue" points="789.38,-283.71 779.55,-287.65 789.69,-290.7 789.38,-283.71"/>
</g>
<!-- Node30 -->
<g id="node30" class="node">
<title>Node30</title>
<g id="a_node30"><a xlink:href="socketappender_8h.html" target="_top" xlink:title=" ">
<polygon fill="white" stroke="black" points="434.5,-168.5 434.5,-187.5 529.5,-187.5 529.5,-168.5 434.5,-168.5"/>
<text text-anchor="middle" x="482" y="-175.5" font-family="'Souce Sans Pro', Roboto, FreeSans, sans-serif" font-size="10.00">socketappender.h</text>
</a>
</g>
</g>
<!-- Node5&#45;&gt;Node30 -->
<g id="edge43" class="edge">
<title>Node5&#45;&gt;Node30</title>
<path fill="none" stroke="midnightblue" d="M704.03,-288.58C633.45,-286.87 497.8,-279 468,-244 454.23,-227.83 467.49,-201.32 476.03,-187.7"/>
<polygon fill="midnightblue" stroke="midnightblue" points="704.29,-292.08 714.37,-288.79 704.44,-285.08 704.29,-292.08"/>
</g>
<!-- Node31 -->
<g id="node31" class="node">
<title>Node31</title>
<g id="a_node31"><a xlink:href="syslogappender_8h.html" target="_top" xlink:title=" ">
<polygon fill="white" stroke="black" points="518,-56.5 518,-75.5 612,-75.5 612,-56.5 518,-56.5"/>
<text text-anchor="middle" x="565" y="-63.5" font-family="'Souce Sans Pro', Roboto, FreeSans, sans-serif" font-size="10.00">syslogappender.h</text>
</a>
</g>
</g>
<!-- Node5&#45;&gt;Node31 -->
<g id="edge45" class="edge">
<title>Node5&#45;&gt;Node31</title>
<path fill="none" stroke="midnightblue" d="M703.92,-287.33C641.5,-283.91 530.68,-273.71 506,-244 485.48,-219.3 537.16,-189.64 538,-188 557.81,-149.3 563.17,-96.34 564.55,-75.71"/>
<polygon fill="midnightblue" stroke="midnightblue" points="704.07,-290.85 714.24,-287.86 704.43,-283.86 704.07,-290.85"/>
</g>
<!-- Node32 -->
<g id="node32" class="node">
<title>Node32</title>
<g id="a_node32"><a xlink:href="win32consoleappender_8h.html" target="_top" xlink:title=" ">
<polygon fill="white" stroke="black" points="1538,-224.5 1538,-243.5 1664,-243.5 1664,-224.5 1538,-224.5"/>
<text text-anchor="middle" x="1601" y="-231.5" font-family="'Souce Sans Pro', Roboto, FreeSans, sans-serif" font-size="10.00">win32consoleappender.h</text>
</a>
</g>
</g>
<!-- Node5&#45;&gt;Node32 -->
<g id="edge47" class="edge">
<title>Node5&#45;&gt;Node32</title>
<path fill="none" stroke="midnightblue" d="M789.92,-287.54C908.01,-283.3 1247.68,-269.65 1529,-244 1531.89,-243.74 1534.83,-243.45 1537.81,-243.14"/>
<polygon fill="midnightblue" stroke="midnightblue" points="789.71,-284.04 779.84,-287.9 789.96,-291.04 789.71,-284.04"/>
</g>
<!-- Node7 -->
<g id="node7" class="node">
<title>Node7</title>
<g id="a_node7"><a xlink:href="appenderattachableimpl_8h.html" target="_top" xlink:title=" ">
<polygon fill="white" stroke="black" points="1023.5,-168.5 1023.5,-187.5 1152.5,-187.5 1152.5,-168.5 1023.5,-168.5"/>
<text text-anchor="middle" x="1088" y="-175.5" font-family="'Souce Sans Pro', Roboto, FreeSans, sans-serif" font-size="10.00">appenderattachableimpl.h</text>
</a>
</g>
</g>
<!-- Node6&#45;&gt;Node7 -->
<g id="edge6" class="edge">
<title>Node6&#45;&gt;Node7</title>
<path fill="none" stroke="midnightblue" d="M1671.72,-223.93C1476.78,-203.01 1258.73,-188.9 1152.61,-182.64"/>
<polygon fill="midnightblue" stroke="midnightblue" points="1671.55,-227.43 1681.87,-225.02 1672.3,-220.47 1671.55,-227.43"/>
</g>
<!-- Node12 -->
<g id="node12" class="node">
<title>Node12</title>
<g id="a_node12"><a xlink:href="logger_8h.html" target="_top" xlink:title="This header defines the Logger class and the logging macros.">
<polygon fill="white" stroke="black" points="1722,-168.5 1722,-187.5 1774,-187.5 1774,-168.5 1722,-168.5"/>
<text text-anchor="middle" x="1748" y="-175.5" font-family="'Souce Sans Pro', Roboto, FreeSans, sans-serif" font-size="10.00">logger.h</text>
</a>
</g>
</g>
<!-- Node6&#45;&gt;Node12 -->
<g id="edge11" class="edge">
<title>Node6&#45;&gt;Node12</title>
<path fill="none" stroke="midnightblue" d="M1740.85,-214.1C1742.68,-205.14 1744.77,-194.86 1746.22,-187.75"/>
<polygon fill="midnightblue" stroke="midnightblue" points="1737.38,-213.59 1738.82,-224.08 1744.24,-214.98 1737.38,-213.59"/>
</g>
<!-- Node7&#45;&gt;Node8 -->
<g id="edge7" class="edge">
<title>Node7&#45;&gt;Node8</title>
<path fill="none" stroke="midnightblue" d="M1013.44,-167.18C928.96,-156.05 793.93,-138.27 723.73,-129.02"/>
<polygon fill="midnightblue" stroke="midnightblue" points="1013.12,-170.67 1023.49,-168.5 1014.03,-163.73 1013.12,-170.67"/>
</g>
<!-- Node10 -->
<g id="node10" class="node">
<title>Node10</title>
<g id="a_node10"><a xlink:href="loggerimpl_8h.html" target="_top" xlink:title=" ">
<polygon fill="white" stroke="black" points="1052.5,-112.5 1052.5,-131.5 1123.5,-131.5 1123.5,-112.5 1052.5,-112.5"/>
<text text-anchor="middle" x="1088" y="-119.5" font-family="'Souce Sans Pro', Roboto, FreeSans, sans-serif" font-size="10.00">loggerimpl.h</text>
</a>
</g>
</g>
<!-- Node7&#45;&gt;Node10 -->
<g id="edge9" class="edge">
<title>Node7&#45;&gt;Node10</title>
<path fill="none" stroke="midnightblue" d="M1088,-157.8C1088,-148.91 1088,-138.78 1088,-131.75"/>
<polygon fill="midnightblue" stroke="midnightblue" points="1084.5,-158.08 1088,-168.08 1091.5,-158.08 1084.5,-158.08"/>
</g>
<!-- Node8&#45;&gt;Node9 -->
<g id="edge8" class="edge">
<title>Node8&#45;&gt;Node9</title>
<path fill="none" stroke="midnightblue" d="M671.67,-102.67C663.36,-78.62 649.12,-37.39 642.97,-19.59"/>
<polygon fill="midnightblue" stroke="midnightblue" points="668.44,-104.06 675.02,-112.37 675.06,-101.77 668.44,-104.06"/>
</g>
<!-- Node11 -->
<g id="node11" class="node">
<title>Node11</title>
<g id="a_node11"><a xlink:href="rootlogger_8h.html" target="_top" xlink:title=" ">
<polygon fill="white" stroke="black" points="1053,-56.5 1053,-75.5 1123,-75.5 1123,-56.5 1053,-56.5"/>
<text text-anchor="middle" x="1088" y="-63.5" font-family="'Souce Sans Pro', Roboto, FreeSans, sans-serif" font-size="10.00">rootlogger.h</text>
</a>
</g>
</g>
<!-- Node10&#45;&gt;Node11 -->
<g id="edge10" class="edge">
<title>Node10&#45;&gt;Node11</title>
<path fill="none" stroke="midnightblue" d="M1088,-101.8C1088,-92.91 1088,-82.78 1088,-75.75"/>
<polygon fill="midnightblue" stroke="midnightblue" points="1084.5,-102.08 1088,-112.08 1091.5,-102.08 1084.5,-102.08"/>
</g>
<!-- Node12&#45;&gt;Node9 -->
<g id="edge17" class="edge">
<title>Node12&#45;&gt;Node9</title>
<path fill="none" stroke="midnightblue" d="M1743.25,-158.58C1735.01,-130.79 1715.14,-78.95 1677,-56 1633.07,-29.56 847.4,-14.56 673.78,-11.56"/>
<polygon fill="midnightblue" stroke="midnightblue" points="1739.89,-159.56 1745.94,-168.26 1746.64,-157.68 1739.89,-159.56"/>
</g>
<!-- Node12&#45;&gt;Node13 -->
<g id="edge12" class="edge">
<title>Node12&#45;&gt;Node13</title>
<path fill="none" stroke="midnightblue" d="M1769.57,-162.62C1784.36,-152.76 1803.51,-139.99 1816.02,-131.65"/>
<polygon fill="midnightblue" stroke="midnightblue" points="1767.39,-159.86 1761.01,-168.32 1771.28,-165.69 1767.39,-159.86"/>
</g>
<!-- Node14 -->
<g id="node14" class="node">
<title>Node14</title>
<g id="a_node14"><a xlink:href="hierarchy_8h.html" target="_top" xlink:title=" ">
<polygon fill="white" stroke="black" points="1737,-56.5 1737,-75.5 1801,-75.5 1801,-56.5 1737,-56.5"/>
<text text-anchor="middle" x="1769" y="-63.5" font-family="'Souce Sans Pro', Roboto, FreeSans, sans-serif" font-size="10.00">hierarchy.h</text>
</a>
</g>
</g>
<!-- Node12&#45;&gt;Node14 -->
<g id="edge14" class="edge">
<title>Node12&#45;&gt;Node14</title>
<path fill="none" stroke="midnightblue" d="M1751.56,-158.35C1756.16,-134.25 1763.98,-93.31 1767.36,-75.59"/>
<polygon fill="midnightblue" stroke="midnightblue" points="1748.09,-157.89 1749.65,-168.37 1754.96,-159.2 1748.09,-157.89"/>
</g>
<!-- Node12&#45;&gt;Node15 -->
<g id="edge16" class="edge">
<title>Node12&#45;&gt;Node15</title>
<path fill="none" stroke="midnightblue" d="M1712.16,-168.9C1667.67,-158.85 1592.12,-141.78 1546.75,-131.53"/>
<polygon fill="midnightblue" stroke="midnightblue" points="1711.44,-172.33 1721.97,-171.12 1712.99,-165.5 1711.44,-172.33"/>
</g>
<!-- Node12&#45;&gt;Node16 -->
<g id="edge18" class="edge">
<title>Node12&#45;&gt;Node16</title>
<path fill="none" stroke="midnightblue" d="M1730.4,-161.51C1703.69,-138.01 1653.81,-94.11 1632.76,-75.59"/>
<polygon fill="midnightblue" stroke="midnightblue" points="1728.37,-164.39 1738.19,-168.37 1733,-159.13 1728.37,-164.39"/>
</g>
<!-- Node17 -->
<g id="node17" class="node">
<title>Node17</title>
<g id="a_node17"><a xlink:href="tracelogger_8h.html" target="_top" xlink:title=" ">
<polygon fill="white" stroke="black" points="1573,-112.5 1573,-131.5 1647,-131.5 1647,-112.5 1573,-112.5"/>
<text text-anchor="middle" x="1610" y="-119.5" font-family="'Souce Sans Pro', Roboto, FreeSans, sans-serif" font-size="10.00">tracelogger.h</text>
</a>
</g>
</g>
<!-- Node12&#45;&gt;Node17 -->
<g id="edge20" class="edge">
<title>Node12&#45;&gt;Node17</title>
<path fill="none" stroke="midnightblue" d="M1716.75,-164.77C1690.83,-154.63 1654.64,-140.47 1631.76,-131.52"/>
<polygon fill="midnightblue" stroke="midnightblue" points="1715.55,-168.06 1726.13,-168.44 1718.1,-161.54 1715.55,-168.06"/>
</g>
<!-- Node13&#45;&gt;Node9 -->
<g id="edge13" class="edge">
<title>Node13&#45;&gt;Node9</title>
<path fill="none" stroke="midnightblue" d="M1829.04,-101.84C1827.94,-86.81 1823.74,-66.72 1810,-56 1764.02,-20.13 860.17,-12.41 673.54,-11.19"/>
<polygon fill="midnightblue" stroke="midnightblue" points="1825.55,-102.22 1829.38,-112.09 1832.55,-101.98 1825.55,-102.22"/>
</g>
<!-- Node14&#45;&gt;Node9 -->
<g id="edge15" class="edge">
<title>Node14&#45;&gt;Node9</title>
<path fill="none" stroke="midnightblue" d="M1726.86,-56.49C1725.56,-56.32 1724.27,-56.15 1723,-56 1311.85,-7.52 807.54,-9.13 673.83,-10.54"/>
<polygon fill="midnightblue" stroke="midnightblue" points="1726.5,-59.98 1736.93,-58.08 1727.59,-53.07 1726.5,-59.98"/>
</g>
<!-- Node16&#45;&gt;Node9 -->
<g id="edge19" class="edge">
<title>Node16&#45;&gt;Node9</title>
<path fill="none" stroke="midnightblue" d="M1567.83,-61.97C1387.5,-52.06 818.78,-20.82 673.87,-12.86"/>
<polygon fill="midnightblue" stroke="midnightblue" points="1567.71,-65.47 1577.88,-62.52 1568.09,-58.48 1567.71,-65.47"/>
</g>
<!-- Node17&#45;&gt;Node9 -->
<g id="edge21" class="edge">
<title>Node17&#45;&gt;Node9</title>
<path fill="none" stroke="midnightblue" d="M1563,-111.93C1210.52,-55.22 793.65,-22.24 673.73,-13.41"/>
<polygon fill="midnightblue" stroke="midnightblue" points="1562.45,-115.38 1572.88,-113.52 1563.57,-108.47 1562.45,-115.38"/>
</g>
<!-- Node17&#45;&gt;Node16 -->
<g id="edge22" class="edge">
<title>Node17&#45;&gt;Node16</title>
<path fill="none" stroke="midnightblue" d="M1614.55,-102.1C1616.71,-93.14 1619.18,-82.86 1620.89,-75.75"/>
<polygon fill="midnightblue" stroke="midnightblue" points="1611.08,-101.54 1612.15,-112.08 1617.89,-103.18 1611.08,-101.54"/>
</g>
<!-- Node20&#45;&gt;Node9 -->
<g id="edge28" class="edge">
<title>Node20&#45;&gt;Node9</title>
<path fill="none" stroke="midnightblue" d="M335.85,-56C413.27,-44.54 544.35,-25.15 606.01,-16.03"/>
<polygon fill="midnightblue" stroke="midnightblue" points="335.13,-52.57 325.75,-57.49 336.16,-59.49 335.13,-52.57"/>
</g>
<!-- Node22&#45;&gt;Node9 -->
<g id="edge31" class="edge">
<title>Node22&#45;&gt;Node9</title>
<path fill="none" stroke="midnightblue" d="M208.82,-214.65C196.25,-179.06 175.14,-100.3 215,-56 241.05,-27.04 510.35,-15.31 606.29,-12.03"/>
<polygon fill="midnightblue" stroke="midnightblue" points="205.62,-216.06 212.38,-224.22 212.18,-213.63 205.62,-216.06"/>
</g>
<!-- Node23&#45;&gt;Node9 -->
<g id="edge33" class="edge">
<title>Node23&#45;&gt;Node9</title>
<path fill="none" stroke="midnightblue" d="M338.48,-158.39C338.83,-131.54 343.74,-82.29 373,-56 406.83,-25.61 542.06,-15.45 606.08,-12.3"/>
<polygon fill="midnightblue" stroke="midnightblue" points="334.98,-158.42 338.56,-168.39 341.98,-158.37 334.98,-158.42"/>
</g>
<!-- Node27&#45;&gt;Node9 -->
<g id="edge40" class="edge">
<title>Node27&#45;&gt;Node9</title>
<path fill="none" stroke="midnightblue" d="M466.37,-54.01C507.81,-43.74 568.76,-28.65 606.34,-19.34"/>
<polygon fill="midnightblue" stroke="midnightblue" points="465.41,-50.64 456.54,-56.44 467.09,-57.44 465.41,-50.64"/>
</g>
<!-- Node30&#45;&gt;Node9 -->
<g id="edge44" class="edge">
<title>Node30&#45;&gt;Node9</title>
<path fill="none" stroke="midnightblue" d="M480.88,-158.35C480.36,-132.21 483.38,-84.65 509,-56 533.77,-28.31 576.36,-17.65 606.23,-13.55"/>
<polygon fill="midnightblue" stroke="midnightblue" points="477.39,-158.57 481.29,-168.42 484.38,-158.29 477.39,-158.57"/>
</g>
<!-- Node31&#45;&gt;Node9 -->
<g id="edge46" class="edge">
<title>Node31&#45;&gt;Node9</title>
<path fill="none" stroke="midnightblue" d="M585.31,-50.38C598.86,-40.62 616.24,-28.11 627.73,-19.83"/>
<polygon fill="midnightblue" stroke="midnightblue" points="583.12,-47.64 577.05,-56.32 587.21,-53.32 583.12,-47.64"/>
</g>
<!-- Node34&#45;&gt;Node9 -->
<g id="edge54" class="edge">
<title>Node34&#45;&gt;Node9</title>
<path fill="none" stroke="midnightblue" d="M1945.12,-159.31C1936.86,-145.47 1924.18,-126.25 1910,-112 1879.39,-81.23 1871.14,-69.83 1830,-56 1717.93,-18.33 856,-12.05 673.77,-11.14"/>
<polygon fill="midnightblue" stroke="midnightblue" points="1942.27,-161.38 1950.31,-168.29 1948.33,-157.88 1942.27,-161.38"/>
</g>
<!-- Node34&#45;&gt;Node13 -->
<g id="edge53" class="edge">
<title>Node34&#45;&gt;Node13</title>
<path fill="none" stroke="midnightblue" d="M1925.84,-164.5C1902.22,-154.38 1869.57,-140.39 1848.87,-131.52"/>
<polygon fill="midnightblue" stroke="midnightblue" points="1924.46,-167.72 1935.03,-168.44 1927.22,-161.29 1924.46,-167.72"/>
</g>
</g>
</svg>
