<?xml version="1.0" encoding="UTF-8" standalone="no"?>
<!DOCTYPE svg PUBLIC "-//W3C//DTD SVG 1.1//EN"
 "http://www.w3.org/Graphics/SVG/1.1/DTD/svg11.dtd">
<!-- Generated by graphviz version 2.43.0 (0)
 -->
<!-- Title: syncprims.h Pages: 1 -->
<svg width="2612pt" height="476pt"
 viewBox="0.00 0.00 2612.00 476.00" xmlns="http://www.w3.org/2000/svg" xmlns:xlink="http://www.w3.org/1999/xlink">
<g id="graph0" class="graph" transform="scale(1 1) rotate(0) translate(4 472)">
<title>syncprims.h</title>
<polygon fill="white" stroke="transparent" points="-4,4 -4,-472 2608,-472 2608,4 -4,4"/>
<!-- Node1 -->
<g id="node1" class="node">
<title>Node1</title>
<g id="a_node1"><a xlink:title=" ">
<polygon fill="#bfbfbf" stroke="black" points="885.5,-448.5 885.5,-467.5 956.5,-467.5 956.5,-448.5 885.5,-448.5"/>
<text text-anchor="middle" x="921" y="-455.5" font-family="'Souce Sans Pro', Roboto, FreeSans, sans-serif" font-size="10.00">syncprims.h</text>
</a>
</g>
</g>
<!-- Node2 -->
<g id="node2" class="node">
<title>Node2</title>
<g id="a_node2"><a xlink:href="appenderattachableimpl_8h.html" target="_top" xlink:title=" ">
<polygon fill="white" stroke="black" points="2324.5,-168.5 2324.5,-187.5 2453.5,-187.5 2453.5,-168.5 2324.5,-168.5"/>
<text text-anchor="middle" x="2389" y="-175.5" font-family="'Souce Sans Pro', Roboto, FreeSans, sans-serif" font-size="10.00">appenderattachableimpl.h</text>
</a>
</g>
</g>
<!-- Node1&#45;&gt;Node2 -->
<g id="edge1" class="edge">
<title>Node1&#45;&gt;Node2</title>
<path fill="none" stroke="midnightblue" d="M966.87,-457.19C1162.79,-457.73 1930.24,-456.89 2167,-412 2240.61,-398.04 2265.85,-400.67 2326,-356 2373.13,-321 2382.11,-301.03 2396,-244 2400.83,-224.15 2395.41,-200.08 2391.76,-187.54"/>
<polygon fill="midnightblue" stroke="midnightblue" points="966.65,-453.69 956.64,-457.16 966.63,-460.69 966.65,-453.69"/>
</g>
<!-- Node7 -->
<g id="node7" class="node">
<title>Node7</title>
<g id="a_node7"><a xlink:href="connectorthread_8h.html" target="_top" xlink:title=" ">
<polygon fill="white" stroke="black" points="364,-280.5 364,-299.5 462,-299.5 462,-280.5 364,-280.5"/>
<text text-anchor="middle" x="413" y="-287.5" font-family="'Souce Sans Pro', Roboto, FreeSans, sans-serif" font-size="10.00">connectorthread.h</text>
</a>
</g>
</g>
<!-- Node1&#45;&gt;Node7 -->
<g id="edge6" class="edge">
<title>Node1&#45;&gt;Node7</title>
<path fill="none" stroke="midnightblue" d="M875.19,-457.74C774.98,-458.52 540.17,-455.5 476,-412 435.42,-384.49 419.27,-322.36 414.58,-299.58"/>
<polygon fill="midnightblue" stroke="midnightblue" points="875.34,-461.24 885.3,-457.65 875.27,-454.24 875.34,-461.24"/>
</g>
<!-- Node8 -->
<g id="node8" class="node">
<title>Node8</title>
<g id="a_node8"><a xlink:href="socketappender_8h.html" target="_top" xlink:title=" ">
<polygon fill="white" stroke="black" points="252.5,-224.5 252.5,-243.5 347.5,-243.5 347.5,-224.5 252.5,-224.5"/>
<text text-anchor="middle" x="300" y="-231.5" font-family="'Souce Sans Pro', Roboto, FreeSans, sans-serif" font-size="10.00">socketappender.h</text>
</a>
</g>
</g>
<!-- Node1&#45;&gt;Node8 -->
<g id="edge80" class="edge">
<title>Node1&#45;&gt;Node8</title>
<path fill="none" stroke="midnightblue" d="M875.01,-454.82C772.98,-449.62 530.52,-435.17 452,-412 400.14,-396.69 379.68,-396.63 344,-356 313.91,-321.74 303.84,-265.24 300.98,-243.71"/>
<polygon fill="midnightblue" stroke="midnightblue" points="875.14,-458.33 885.3,-455.34 875.49,-451.34 875.14,-458.33"/>
</g>
<!-- Node10 -->
<g id="node10" class="node">
<title>Node10</title>
<g id="a_node10"><a xlink:href="customloglevelmanager_8h.html" target="_top" xlink:title="This header contains declaration internal to log4cplus.">
<polygon fill="white" stroke="black" points="1692,-168.5 1692,-187.5 1822,-187.5 1822,-168.5 1692,-168.5"/>
<text text-anchor="middle" x="1757" y="-175.5" font-family="'Souce Sans Pro', Roboto, FreeSans, sans-serif" font-size="10.00">customloglevelmanager.h</text>
</a>
</g>
</g>
<!-- Node1&#45;&gt;Node10 -->
<g id="edge11" class="edge">
<title>Node1&#45;&gt;Node10</title>
<path fill="none" stroke="midnightblue" d="M875.28,-455.64C704.26,-449.94 112,-424.62 112,-347 112,-347 112,-347 112,-289 112,-258.9 107.13,-242.34 131,-224 164.29,-198.42 1600.07,-190.14 1642,-188 1658.2,-187.17 1675.66,-185.97 1691.96,-184.71"/>
<polygon fill="midnightblue" stroke="midnightblue" points="875.35,-459.14 885.46,-455.97 875.58,-452.14 875.35,-459.14"/>
</g>
<!-- Node11 -->
<g id="node11" class="node">
<title>Node11</title>
<g id="a_node11"><a xlink:href="hierarchy_8h.html" target="_top" xlink:title=" ">
<polygon fill="white" stroke="black" points="1498,-112.5 1498,-131.5 1562,-131.5 1562,-112.5 1498,-112.5"/>
<text text-anchor="middle" x="1530" y="-119.5" font-family="'Souce Sans Pro', Roboto, FreeSans, sans-serif" font-size="10.00">hierarchy.h</text>
</a>
</g>
</g>
<!-- Node1&#45;&gt;Node11 -->
<g id="edge12" class="edge">
<title>Node1&#45;&gt;Node11</title>
<path fill="none" stroke="midnightblue" d="M875.5,-446.09C762.73,-417.07 486.26,-332.73 584,-224 646.56,-154.41 1339.71,-128.88 1497.96,-123.94"/>
<polygon fill="midnightblue" stroke="midnightblue" points="874.7,-449.49 885.25,-448.56 876.42,-442.71 874.7,-449.49"/>
</g>
<!-- Node12 -->
<g id="node12" class="node">
<title>Node12</title>
<g id="a_node12"><a xlink:href="lockfile_8h.html" target="_top" xlink:title=" ">
<polygon fill="white" stroke="black" points="1232,-336.5 1232,-355.5 1288,-355.5 1288,-336.5 1232,-336.5"/>
<text text-anchor="middle" x="1260" y="-343.5" font-family="'Souce Sans Pro', Roboto, FreeSans, sans-serif" font-size="10.00">lockfile.h</text>
</a>
</g>
</g>
<!-- Node1&#45;&gt;Node12 -->
<g id="edge14" class="edge">
<title>Node1&#45;&gt;Node12</title>
<path fill="none" stroke="midnightblue" d="M921.26,-438.2C922.53,-423.39 926.82,-403.4 940,-392 983.44,-354.43 1162.09,-348.17 1231.88,-347.17"/>
<polygon fill="midnightblue" stroke="midnightblue" points="917.76,-438.13 920.77,-448.29 924.75,-438.47 917.76,-438.13"/>
</g>
<!-- Node33 -->
<g id="node33" class="node">
<title>Node33</title>
<g id="a_node33"><a xlink:href="loglog_8h.html" target="_top" xlink:title=" ">
<polygon fill="white" stroke="black" points="949,-392.5 949,-411.5 1001,-411.5 1001,-392.5 949,-392.5"/>
<text text-anchor="middle" x="975" y="-399.5" font-family="'Souce Sans Pro', Roboto, FreeSans, sans-serif" font-size="10.00">loglog.h</text>
</a>
</g>
</g>
<!-- Node1&#45;&gt;Node33 -->
<g id="edge53" class="edge">
<title>Node1&#45;&gt;Node33</title>
<path fill="none" stroke="midnightblue" d="M937,-441C946.57,-431.43 958.36,-419.64 966.25,-411.75"/>
<polygon fill="midnightblue" stroke="midnightblue" points="934.51,-438.54 929.92,-448.08 939.46,-443.49 934.51,-438.54"/>
</g>
<!-- Node34 -->
<g id="node34" class="node">
<title>Node34</title>
<g id="a_node34"><a xlink:href="objectregistry_8h.html" target="_top" xlink:title=" ">
<polygon fill="white" stroke="black" points="0,-336.5 0,-355.5 84,-355.5 84,-336.5 0,-336.5"/>
<text text-anchor="middle" x="42" y="-343.5" font-family="'Souce Sans Pro', Roboto, FreeSans, sans-serif" font-size="10.00">objectregistry.h</text>
</a>
</g>
</g>
<!-- Node1&#45;&gt;Node34 -->
<g id="edge54" class="edge">
<title>Node1&#45;&gt;Node34</title>
<path fill="none" stroke="midnightblue" d="M874.89,-456.58C711.72,-454.79 167.73,-446.3 98,-412 72.87,-399.64 54.45,-370.38 46.44,-355.71"/>
<polygon fill="midnightblue" stroke="midnightblue" points="875.04,-460.08 885.08,-456.68 875.11,-453.08 875.04,-460.08"/>
</g>
<!-- Node35 -->
<g id="node35" class="node">
<title>Node35</title>
<g id="a_node35"><a xlink:href="pointer_8h.html" target="_top" xlink:title=" ">
<polygon fill="white" stroke="black" points="2032.5,-392.5 2032.5,-411.5 2087.5,-411.5 2087.5,-392.5 2032.5,-392.5"/>
<text text-anchor="middle" x="2060" y="-399.5" font-family="'Souce Sans Pro', Roboto, FreeSans, sans-serif" font-size="10.00">pointer.h</text>
</a>
</g>
</g>
<!-- Node1&#45;&gt;Node35 -->
<g id="edge56" class="edge">
<title>Node1&#45;&gt;Node35</title>
<path fill="none" stroke="midnightblue" d="M966.86,-454.83C1157.1,-445.81 1881.24,-411.47 2032.29,-404.31"/>
<polygon fill="midnightblue" stroke="midnightblue" points="966.48,-451.34 956.65,-455.31 966.81,-458.33 966.48,-451.34"/>
</g>
<!-- Node41 -->
<g id="node41" class="node">
<title>Node41</title>
<g id="a_node41"><a xlink:href="queue_8h.html" target="_top" xlink:title=" ">
<polygon fill="white" stroke="black" points="2216,-224.5 2216,-243.5 2268,-243.5 2268,-224.5 2216,-224.5"/>
<text text-anchor="middle" x="2242" y="-231.5" font-family="'Souce Sans Pro', Roboto, FreeSans, sans-serif" font-size="10.00">queue.h</text>
</a>
</g>
</g>
<!-- Node1&#45;&gt;Node41 -->
<g id="edge79" class="edge">
<title>Node1&#45;&gt;Node41</title>
<path fill="none" stroke="midnightblue" d="M966.69,-456.27C1169.79,-452.87 1985.58,-437.71 2097,-412 2217.22,-384.26 2283.62,-403.35 2351,-300 2373.14,-266.04 2307.14,-247.32 2268.27,-239.47"/>
<polygon fill="midnightblue" stroke="midnightblue" points="966.6,-452.77 956.66,-456.43 966.72,-459.77 966.6,-452.77"/>
</g>
<!-- Node42 -->
<g id="node42" class="node">
<title>Node42</title>
<g id="a_node42"><a xlink:href="syncprims-impl_8h.html" target="_top" xlink:title=" ">
<polygon fill="white" stroke="black" points="2512,-392.5 2512,-411.5 2604,-411.5 2604,-392.5 2512,-392.5"/>
<text text-anchor="middle" x="2558" y="-399.5" font-family="'Souce Sans Pro', Roboto, FreeSans, sans-serif" font-size="10.00">syncprims&#45;impl.h</text>
</a>
</g>
</g>
<!-- Node1&#45;&gt;Node42 -->
<g id="edge81" class="edge">
<title>Node1&#45;&gt;Node42</title>
<path fill="none" stroke="midnightblue" d="M966.97,-456.44C1193.13,-453.55 2189.16,-439.47 2498,-412 2502.51,-411.6 2507.2,-411.08 2511.88,-410.49"/>
<polygon fill="midnightblue" stroke="midnightblue" points="966.74,-452.94 956.79,-456.57 966.83,-459.94 966.74,-452.94"/>
</g>
<!-- Node3 -->
<g id="node3" class="node">
<title>Node3</title>
<g id="a_node3"><a xlink:href="asyncappender_8h.html" target="_top" xlink:title=" ">
<polygon fill="white" stroke="black" points="2216.5,-112.5 2216.5,-131.5 2307.5,-131.5 2307.5,-112.5 2216.5,-112.5"/>
<text text-anchor="middle" x="2262" y="-119.5" font-family="'Souce Sans Pro', Roboto, FreeSans, sans-serif" font-size="10.00">asyncappender.h</text>
</a>
</g>
</g>
<!-- Node2&#45;&gt;Node3 -->
<g id="edge2" class="edge">
<title>Node2&#45;&gt;Node3</title>
<path fill="none" stroke="midnightblue" d="M2359.61,-164.5C2335.8,-154.38 2302.89,-140.39 2282.03,-131.52"/>
<polygon fill="midnightblue" stroke="midnightblue" points="2358.3,-167.75 2368.88,-168.44 2361.04,-161.31 2358.3,-167.75"/>
</g>
<!-- Node5 -->
<g id="node5" class="node">
<title>Node5</title>
<g id="a_node5"><a xlink:href="loggerimpl_8h.html" target="_top" xlink:title=" ">
<polygon fill="white" stroke="black" points="2400.5,-112.5 2400.5,-131.5 2471.5,-131.5 2471.5,-112.5 2400.5,-112.5"/>
<text text-anchor="middle" x="2436" y="-119.5" font-family="'Souce Sans Pro', Roboto, FreeSans, sans-serif" font-size="10.00">loggerimpl.h</text>
</a>
</g>
</g>
<!-- Node2&#45;&gt;Node5 -->
<g id="edge4" class="edge">
<title>Node2&#45;&gt;Node5</title>
<path fill="none" stroke="midnightblue" d="M2403.42,-160.43C2411.66,-150.97 2421.65,-139.48 2428.38,-131.75"/>
<polygon fill="midnightblue" stroke="midnightblue" points="2400.69,-158.24 2396.76,-168.08 2405.97,-162.84 2400.69,-158.24"/>
</g>
<!-- Node4 -->
<g id="node4" class="node">
<title>Node4</title>
<g id="a_node4"><a xlink:href="log4cplus_8h.html" target="_top" xlink:title=" ">
<polygon fill="white" stroke="black" points="1556.5,-0.5 1556.5,-19.5 1623.5,-19.5 1623.5,-0.5 1556.5,-0.5"/>
<text text-anchor="middle" x="1590" y="-7.5" font-family="'Souce Sans Pro', Roboto, FreeSans, sans-serif" font-size="10.00">log4cplus.h</text>
</a>
</g>
</g>
<!-- Node3&#45;&gt;Node4 -->
<g id="edge3" class="edge">
<title>Node3&#45;&gt;Node4</title>
<path fill="none" stroke="midnightblue" d="M2251.5,-103.66C2241.07,-88.18 2223.54,-66.39 2202,-56 2149.82,-30.83 1744.54,-15.95 1623.82,-12.04"/>
<polygon fill="midnightblue" stroke="midnightblue" points="2248.71,-105.8 2257.05,-112.33 2254.61,-102.02 2248.71,-105.8"/>
</g>
<!-- Node6 -->
<g id="node6" class="node">
<title>Node6</title>
<g id="a_node6"><a xlink:href="rootlogger_8h.html" target="_top" xlink:title=" ">
<polygon fill="white" stroke="black" points="2401,-56.5 2401,-75.5 2471,-75.5 2471,-56.5 2401,-56.5"/>
<text text-anchor="middle" x="2436" y="-63.5" font-family="'Souce Sans Pro', Roboto, FreeSans, sans-serif" font-size="10.00">rootlogger.h</text>
</a>
</g>
</g>
<!-- Node5&#45;&gt;Node6 -->
<g id="edge5" class="edge">
<title>Node5&#45;&gt;Node6</title>
<path fill="none" stroke="midnightblue" d="M2436,-101.8C2436,-92.91 2436,-82.78 2436,-75.75"/>
<polygon fill="midnightblue" stroke="midnightblue" points="2432.5,-102.08 2436,-112.08 2439.5,-102.08 2432.5,-102.08"/>
</g>
<!-- Node7&#45;&gt;Node8 -->
<g id="edge7" class="edge">
<title>Node7&#45;&gt;Node8</title>
<path fill="none" stroke="midnightblue" d="M386,-276.1C364.89,-266.01 336.14,-252.27 317.82,-243.52"/>
<polygon fill="midnightblue" stroke="midnightblue" points="384.56,-279.29 395.09,-280.44 387.58,-272.97 384.56,-279.29"/>
</g>
<!-- Node9 -->
<g id="node9" class="node">
<title>Node9</title>
<g id="a_node9"><a xlink:href="syslogappender_8h.html" target="_top" xlink:title=" ">
<polygon fill="white" stroke="black" points="366,-224.5 366,-243.5 460,-243.5 460,-224.5 366,-224.5"/>
<text text-anchor="middle" x="413" y="-231.5" font-family="'Souce Sans Pro', Roboto, FreeSans, sans-serif" font-size="10.00">syslogappender.h</text>
</a>
</g>
</g>
<!-- Node7&#45;&gt;Node9 -->
<g id="edge9" class="edge">
<title>Node7&#45;&gt;Node9</title>
<path fill="none" stroke="midnightblue" d="M413,-269.8C413,-260.91 413,-250.78 413,-243.75"/>
<polygon fill="midnightblue" stroke="midnightblue" points="409.5,-270.08 413,-280.08 416.5,-270.08 409.5,-270.08"/>
</g>
<!-- Node8&#45;&gt;Node4 -->
<g id="edge8" class="edge">
<title>Node8&#45;&gt;Node4</title>
<path fill="none" stroke="midnightblue" d="M308.83,-214.92C328.36,-177.22 379.26,-90.83 451,-56 552.58,-6.68 1378.48,-9.53 1556.33,-10.73"/>
<polygon fill="midnightblue" stroke="midnightblue" points="305.54,-213.67 304.16,-224.18 311.79,-216.82 305.54,-213.67"/>
</g>
<!-- Node9&#45;&gt;Node4 -->
<g id="edge10" class="edge">
<title>Node9&#45;&gt;Node4</title>
<path fill="none" stroke="midnightblue" d="M413.08,-214.03C414.38,-176.65 423.17,-93.81 474,-56 518.49,-22.91 1374.53,-13.02 1556.27,-11.3"/>
<polygon fill="midnightblue" stroke="midnightblue" points="409.57,-214.39 412.88,-224.46 416.57,-214.53 409.57,-214.39"/>
</g>
<!-- Node11&#45;&gt;Node4 -->
<g id="edge13" class="edge">
<title>Node11&#45;&gt;Node4</title>
<path fill="none" stroke="midnightblue" d="M1539.64,-103.32C1552.71,-79.37 1575.52,-37.55 1585.31,-19.59"/>
<polygon fill="midnightblue" stroke="midnightblue" points="1536.42,-101.91 1534.71,-112.37 1542.57,-105.27 1536.42,-101.91"/>
</g>
<!-- Node13 -->
<g id="node13" class="node">
<title>Node13</title>
<g id="a_node13"><a xlink:href="appender_8h.html" target="_top" xlink:title=" ">
<polygon fill="white" stroke="black" points="1171.5,-280.5 1171.5,-299.5 1236.5,-299.5 1236.5,-280.5 1171.5,-280.5"/>
<text text-anchor="middle" x="1204" y="-287.5" font-family="'Souce Sans Pro', Roboto, FreeSans, sans-serif" font-size="10.00">appender.h</text>
</a>
</g>
</g>
<!-- Node12&#45;&gt;Node13 -->
<g id="edge15" class="edge">
<title>Node12&#45;&gt;Node13</title>
<path fill="none" stroke="midnightblue" d="M1243.67,-329.25C1233.74,-319.67 1221.41,-307.79 1213.16,-299.83"/>
<polygon fill="midnightblue" stroke="midnightblue" points="1241.37,-331.9 1251,-336.32 1246.23,-326.86 1241.37,-331.9"/>
</g>
<!-- Node25 -->
<g id="node25" class="node">
<title>Node25</title>
<g id="a_node25"><a xlink:href="fileappender_8h.html" target="_top" xlink:title=" ">
<polygon fill="white" stroke="black" points="1916,-224.5 1916,-243.5 1994,-243.5 1994,-224.5 1916,-224.5"/>
<text text-anchor="middle" x="1955" y="-231.5" font-family="'Souce Sans Pro', Roboto, FreeSans, sans-serif" font-size="10.00">fileappender.h</text>
</a>
</g>
</g>
<!-- Node12&#45;&gt;Node25 -->
<g id="edge52" class="edge">
<title>Node12&#45;&gt;Node25</title>
<path fill="none" stroke="midnightblue" d="M1298.36,-339.13C1398,-323.85 1673.16,-281.43 1902,-244 1906.51,-243.26 1911.24,-242.48 1915.93,-241.69"/>
<polygon fill="midnightblue" stroke="midnightblue" points="1297.53,-335.72 1288.18,-340.69 1298.59,-342.64 1297.53,-335.72"/>
</g>
<!-- Node13&#45;&gt;Node3 -->
<g id="edge29" class="edge">
<title>Node13&#45;&gt;Node3</title>
<path fill="none" stroke="midnightblue" d="M1246.86,-287.55C1371.93,-283.07 1734.94,-268.28 1851,-244 1876.87,-238.59 1881.83,-232.06 1907,-224 2024.47,-186.36 2166,-148.22 2228.99,-131.61"/>
<polygon fill="midnightblue" stroke="midnightblue" points="1246.41,-284.06 1236.54,-287.91 1246.66,-291.06 1246.41,-284.06"/>
</g>
<!-- Node13&#45;&gt;Node4 -->
<g id="edge41" class="edge">
<title>Node13&#45;&gt;Node4</title>
<path fill="none" stroke="midnightblue" d="M1161.36,-289.1C1025.3,-288.99 607.82,-285.28 565,-244 540.61,-220.48 544.43,-198.59 559,-168 575.98,-132.34 592.05,-128.36 628,-112 799.1,-34.15 1406.65,-15.22 1556.44,-11.69"/>
<polygon fill="midnightblue" stroke="midnightblue" points="1161.41,-292.6 1171.41,-289.1 1161.41,-285.6 1161.41,-292.6"/>
</g>
<!-- Node13&#45;&gt;Node8 -->
<g id="edge49" class="edge">
<title>Node13&#45;&gt;Node8</title>
<path fill="none" stroke="midnightblue" d="M1160.93,-288.29C1036.2,-285.88 664.01,-276.31 357,-244 353.91,-243.67 350.73,-243.3 347.54,-242.88"/>
<polygon fill="midnightblue" stroke="midnightblue" points="1161.14,-291.79 1171.2,-288.48 1161.27,-284.79 1161.14,-291.79"/>
</g>
<!-- Node13&#45;&gt;Node9 -->
<g id="edge50" class="edge">
<title>Node13&#45;&gt;Node9</title>
<path fill="none" stroke="midnightblue" d="M1160.96,-286.59C1052.18,-280.4 757.39,-263.13 512,-244 495.05,-242.68 476.49,-241.04 460.06,-239.53"/>
<polygon fill="midnightblue" stroke="midnightblue" points="1161.02,-290.1 1171.2,-287.17 1161.41,-283.11 1161.02,-290.1"/>
</g>
<!-- Node14 -->
<g id="node14" class="node">
<title>Node14</title>
<g id="a_node14"><a xlink:href="appenderattachable_8h.html" target="_top" xlink:title=" ">
<polygon fill="white" stroke="black" points="2050,-224.5 2050,-243.5 2160,-243.5 2160,-224.5 2050,-224.5"/>
<text text-anchor="middle" x="2105" y="-231.5" font-family="'Souce Sans Pro', Roboto, FreeSans, sans-serif" font-size="10.00">appenderattachable.h</text>
</a>
</g>
</g>
<!-- Node13&#45;&gt;Node14 -->
<g id="edge16" class="edge">
<title>Node13&#45;&gt;Node14</title>
<path fill="none" stroke="midnightblue" d="M1246.96,-287.06C1366.73,-281.55 1714.47,-264.85 2003,-244 2018.25,-242.9 2034.76,-241.52 2049.97,-240.18"/>
<polygon fill="midnightblue" stroke="midnightblue" points="1246.58,-283.57 1236.75,-287.53 1246.9,-290.57 1246.58,-283.57"/>
</g>
<!-- Node16 -->
<g id="node16" class="node">
<title>Node16</title>
<g id="a_node16"><a xlink:href="configurator_8h.html" target="_top" xlink:title=" ">
<polygon fill="white" stroke="black" points="1727.5,-112.5 1727.5,-131.5 1804.5,-131.5 1804.5,-112.5 1727.5,-112.5"/>
<text text-anchor="middle" x="1766" y="-119.5" font-family="'Souce Sans Pro', Roboto, FreeSans, sans-serif" font-size="10.00">configurator.h</text>
</a>
</g>
</g>
<!-- Node13&#45;&gt;Node16 -->
<g id="edge32" class="edge">
<title>Node13&#45;&gt;Node16</title>
<path fill="none" stroke="midnightblue" d="M1247.16,-287.5C1385.65,-282.48 1811.09,-265.39 1831,-244 1854.01,-219.28 1846.68,-197.92 1831,-168 1821.95,-150.74 1802.94,-138.78 1787.81,-131.55"/>
<polygon fill="midnightblue" stroke="midnightblue" points="1246.79,-284.01 1236.93,-287.87 1247.05,-291.01 1246.79,-284.01"/>
</g>
<!-- Node17 -->
<g id="node17" class="node">
<title>Node17</title>
<g id="a_node17"><a xlink:href="hierarchylocker_8h.html" target="_top" xlink:title=" ">
<polygon fill="white" stroke="black" points="1618.5,-112.5 1618.5,-131.5 1709.5,-131.5 1709.5,-112.5 1618.5,-112.5"/>
<text text-anchor="middle" x="1664" y="-119.5" font-family="'Souce Sans Pro', Roboto, FreeSans, sans-serif" font-size="10.00">hierarchylocker.h</text>
</a>
</g>
</g>
<!-- Node13&#45;&gt;Node17 -->
<g id="edge40" class="edge">
<title>Node13&#45;&gt;Node17</title>
<path fill="none" stroke="midnightblue" d="M1246.93,-288.3C1361.02,-285.99 1665.06,-276.8 1695,-244 1700.99,-237.43 1696.42,-232.77 1695,-224 1692.3,-207.35 1688.03,-204.1 1683,-188 1676.75,-168.03 1670.01,-144.4 1666.48,-131.86"/>
<polygon fill="midnightblue" stroke="midnightblue" points="1246.75,-284.8 1236.82,-288.5 1246.88,-291.8 1246.75,-284.8"/>
</g>
<!-- Node20 -->
<g id="node20" class="node">
<title>Node20</title>
<g id="a_node20"><a xlink:href="callbackappender_8h.html" target="_top" xlink:title=" ">
<polygon fill="white" stroke="black" points="987.5,-224.5 987.5,-243.5 1088.5,-243.5 1088.5,-224.5 987.5,-224.5"/>
<text text-anchor="middle" x="1038" y="-231.5" font-family="'Souce Sans Pro', Roboto, FreeSans, sans-serif" font-size="10.00">callbackappender.h</text>
</a>
</g>
</g>
<!-- Node13&#45;&gt;Node20 -->
<g id="edge30" class="edge">
<title>Node13&#45;&gt;Node20</title>
<path fill="none" stroke="midnightblue" d="M1168.05,-277.3C1136.77,-267.13 1092.18,-252.62 1064.18,-243.52"/>
<polygon fill="midnightblue" stroke="midnightblue" points="1167.1,-280.68 1177.7,-280.44 1169.27,-274.02 1167.1,-280.68"/>
</g>
<!-- Node21 -->
<g id="node21" class="node">
<title>Node21</title>
<g id="a_node21"><a xlink:href="clfsappender_8h.html" target="_top" xlink:title=" ">
<polygon fill="white" stroke="black" points="1107,-224.5 1107,-243.5 1189,-243.5 1189,-224.5 1107,-224.5"/>
<text text-anchor="middle" x="1148" y="-231.5" font-family="'Souce Sans Pro', Roboto, FreeSans, sans-serif" font-size="10.00">clfsappender.h</text>
</a>
</g>
</g>
<!-- Node13&#45;&gt;Node21 -->
<g id="edge31" class="edge">
<title>Node13&#45;&gt;Node21</title>
<path fill="none" stroke="midnightblue" d="M1187.67,-273.25C1177.74,-263.67 1165.41,-251.79 1157.16,-243.83"/>
<polygon fill="midnightblue" stroke="midnightblue" points="1185.37,-275.9 1195,-280.32 1190.23,-270.86 1185.37,-275.9"/>
</g>
<!-- Node22 -->
<g id="node22" class="node">
<title>Node22</title>
<g id="a_node22"><a xlink:href="consoleappender_8h.html" target="_top" xlink:title=" ">
<polygon fill="white" stroke="black" points="958.5,-56.5 958.5,-75.5 1059.5,-75.5 1059.5,-56.5 958.5,-56.5"/>
<text text-anchor="middle" x="1009" y="-63.5" font-family="'Souce Sans Pro', Roboto, FreeSans, sans-serif" font-size="10.00">consoleappender.h</text>
</a>
</g>
</g>
<!-- Node13&#45;&gt;Node22 -->
<g id="edge33" class="edge">
<title>Node13&#45;&gt;Node22</title>
<path fill="none" stroke="midnightblue" d="M1161.14,-289.18C1027.21,-289.3 623.18,-286.13 584,-244 470.64,-122.12 822.95,-81.4 958.33,-70.46"/>
<polygon fill="midnightblue" stroke="midnightblue" points="1161.42,-292.68 1171.41,-289.16 1161.41,-285.68 1161.42,-292.68"/>
</g>
<!-- Node23 -->
<g id="node23" class="node">
<title>Node23</title>
<g id="a_node23"><a xlink:href="deviceappender_8hxx.html" target="_top" xlink:title=" ">
<polygon fill="white" stroke="black" points="1207,-224.5 1207,-243.5 1311,-243.5 1311,-224.5 1207,-224.5"/>
<text text-anchor="middle" x="1259" y="-231.5" font-family="'Souce Sans Pro', Roboto, FreeSans, sans-serif" font-size="10.00">deviceappender.hxx</text>
</a>
</g>
</g>
<!-- Node13&#45;&gt;Node23 -->
<g id="edge35" class="edge">
<title>Node13&#45;&gt;Node23</title>
<path fill="none" stroke="midnightblue" d="M1220.29,-273C1230.04,-263.43 1242.05,-251.64 1250.09,-243.75"/>
<polygon fill="midnightblue" stroke="midnightblue" points="1217.77,-270.58 1213.08,-280.08 1222.67,-275.57 1217.77,-270.58"/>
</g>
<!-- Node24 -->
<g id="node24" class="node">
<title>Node24</title>
<g id="a_node24"><a xlink:href="factory_8h.html" target="_top" xlink:title=" ">
<polygon fill="white" stroke="black" points="140,-224.5 140,-243.5 196,-243.5 196,-224.5 140,-224.5"/>
<text text-anchor="middle" x="168" y="-231.5" font-family="'Souce Sans Pro', Roboto, FreeSans, sans-serif" font-size="10.00">factory.h</text>
</a>
</g>
</g>
<!-- Node13&#45;&gt;Node24 -->
<g id="edge36" class="edge">
<title>Node13&#45;&gt;Node24</title>
<path fill="none" stroke="midnightblue" d="M1160.82,-288.1C1025.34,-285.02 596.69,-273.46 243,-244 227.45,-242.7 210.15,-240.67 196.09,-238.86"/>
<polygon fill="midnightblue" stroke="midnightblue" points="1161.09,-291.6 1171.17,-288.33 1161.25,-284.6 1161.09,-291.6"/>
</g>
<!-- Node13&#45;&gt;Node25 -->
<g id="edge38" class="edge">
<title>Node13&#45;&gt;Node25</title>
<path fill="none" stroke="midnightblue" d="M1247.14,-287.78C1356.81,-284.33 1655.13,-272.84 1902,-244 1906.54,-243.47 1911.29,-242.81 1915.99,-242.1"/>
<polygon fill="midnightblue" stroke="midnightblue" points="1246.7,-284.29 1236.82,-288.09 1246.92,-291.29 1246.7,-284.29"/>
</g>
<!-- Node26 -->
<g id="node26" class="node">
<title>Node26</title>
<g id="a_node26"><a xlink:href="log4judpappender_8h.html" target="_top" xlink:title=" ">
<polygon fill="white" stroke="black" points="1329.5,-224.5 1329.5,-243.5 1432.5,-243.5 1432.5,-224.5 1329.5,-224.5"/>
<text text-anchor="middle" x="1381" y="-231.5" font-family="'Souce Sans Pro', Roboto, FreeSans, sans-serif" font-size="10.00">log4judpappender.h</text>
</a>
</g>
</g>
<!-- Node13&#45;&gt;Node26 -->
<g id="edge42" class="edge">
<title>Node13&#45;&gt;Node26</title>
<path fill="none" stroke="midnightblue" d="M1241.9,-277.44C1275.28,-267.26 1323.1,-252.66 1353.09,-243.52"/>
<polygon fill="midnightblue" stroke="midnightblue" points="1240.59,-274.18 1232.05,-280.44 1242.63,-280.87 1240.59,-274.18"/>
</g>
<!-- Node27 -->
<g id="node27" class="node">
<title>Node27</title>
<g id="a_node27"><a xlink:href="msttsappender_8h.html" target="_top" xlink:title=" ">
<polygon fill="white" stroke="black" points="1450.5,-224.5 1450.5,-243.5 1541.5,-243.5 1541.5,-224.5 1450.5,-224.5"/>
<text text-anchor="middle" x="1496" y="-231.5" font-family="'Souce Sans Pro', Roboto, FreeSans, sans-serif" font-size="10.00">msttsappender.h</text>
</a>
</g>
</g>
<!-- Node13&#45;&gt;Node27 -->
<g id="edge43" class="edge">
<title>Node13&#45;&gt;Node27</title>
<path fill="none" stroke="midnightblue" d="M1246.65,-281.11C1301.04,-271.05 1394.69,-253.74 1450.43,-243.43"/>
<polygon fill="midnightblue" stroke="midnightblue" points="1245.84,-277.7 1236.65,-282.96 1247.12,-284.59 1245.84,-277.7"/>
</g>
<!-- Node28 -->
<g id="node28" class="node">
<title>Node28</title>
<g id="a_node28"><a xlink:href="nteventlogappender_8h.html" target="_top" xlink:title=" ">
<polygon fill="white" stroke="black" points="1560,-224.5 1560,-243.5 1670,-243.5 1670,-224.5 1560,-224.5"/>
<text text-anchor="middle" x="1615" y="-231.5" font-family="'Souce Sans Pro', Roboto, FreeSans, sans-serif" font-size="10.00">nteventlogappender.h</text>
</a>
</g>
</g>
<!-- Node13&#45;&gt;Node28 -->
<g id="edge44" class="edge">
<title>Node13&#45;&gt;Node28</title>
<path fill="none" stroke="midnightblue" d="M1246.49,-283.64C1311.92,-275.35 1441.29,-258.83 1551,-244 1553.89,-243.61 1556.85,-243.21 1559.85,-242.79"/>
<polygon fill="midnightblue" stroke="midnightblue" points="1246.03,-280.17 1236.55,-284.9 1246.91,-287.11 1246.03,-280.17"/>
</g>
<!-- Node29 -->
<g id="node29" class="node">
<title>Node29</title>
<g id="a_node29"><a xlink:href="nullappender_8h.html" target="_top" xlink:title=" ">
<polygon fill="white" stroke="black" points="1553,-168.5 1553,-187.5 1633,-187.5 1633,-168.5 1553,-168.5"/>
<text text-anchor="middle" x="1593" y="-175.5" font-family="'Souce Sans Pro', Roboto, FreeSans, sans-serif" font-size="10.00">nullappender.h</text>
</a>
</g>
</g>
<!-- Node13&#45;&gt;Node29 -->
<g id="edge45" class="edge">
<title>Node13&#45;&gt;Node29</title>
<path fill="none" stroke="midnightblue" d="M1247.04,-288.15C1358.56,-285.52 1650.21,-275.65 1679,-244 1700.79,-220.05 1653.85,-198.79 1621.13,-187.51"/>
<polygon fill="midnightblue" stroke="midnightblue" points="1246.75,-284.66 1236.83,-288.39 1246.91,-291.66 1246.75,-284.66"/>
</g>
<!-- Node30 -->
<g id="node30" class="node">
<title>Node30</title>
<g id="a_node30"><a xlink:href="qt4debugappender_8h.html" target="_top" xlink:title=" ">
<polygon fill="white" stroke="black" points="592.5,-224.5 592.5,-243.5 699.5,-243.5 699.5,-224.5 592.5,-224.5"/>
<text text-anchor="middle" x="646" y="-231.5" font-family="'Souce Sans Pro', Roboto, FreeSans, sans-serif" font-size="10.00">qt4debugappender.h</text>
</a>
</g>
</g>
<!-- Node13&#45;&gt;Node30 -->
<g id="edge47" class="edge">
<title>Node13&#45;&gt;Node30</title>
<path fill="none" stroke="midnightblue" d="M1161.06,-285.84C1075.1,-279.35 875.82,-263.49 709,-244 705.93,-243.64 702.77,-243.25 699.59,-242.85"/>
<polygon fill="midnightblue" stroke="midnightblue" points="1160.98,-289.34 1171.21,-286.6 1161.5,-282.36 1160.98,-289.34"/>
</g>
<!-- Node31 -->
<g id="node31" class="node">
<title>Node31</title>
<g id="a_node31"><a xlink:href="qt5debugappender_8h.html" target="_top" xlink:title=" ">
<polygon fill="white" stroke="black" points="717.5,-224.5 717.5,-243.5 824.5,-243.5 824.5,-224.5 717.5,-224.5"/>
<text text-anchor="middle" x="771" y="-231.5" font-family="'Souce Sans Pro', Roboto, FreeSans, sans-serif" font-size="10.00">qt5debugappender.h</text>
</a>
</g>
</g>
<!-- Node13&#45;&gt;Node31 -->
<g id="edge48" class="edge">
<title>Node13&#45;&gt;Node31</title>
<path fill="none" stroke="midnightblue" d="M1161.26,-284.1C1092.34,-276.12 952.38,-259.65 834,-244 830.93,-243.59 827.78,-243.17 824.61,-242.74"/>
<polygon fill="midnightblue" stroke="midnightblue" points="1160.97,-287.58 1171.3,-285.26 1161.77,-280.63 1160.97,-287.58"/>
</g>
<!-- Node32 -->
<g id="node32" class="node">
<title>Node32</title>
<g id="a_node32"><a xlink:href="win32consoleappender_8h.html" target="_top" xlink:title=" ">
<polygon fill="white" stroke="black" points="843,-224.5 843,-243.5 969,-243.5 969,-224.5 843,-224.5"/>
<text text-anchor="middle" x="906" y="-231.5" font-family="'Souce Sans Pro', Roboto, FreeSans, sans-serif" font-size="10.00">win32consoleappender.h</text>
</a>
</g>
</g>
<!-- Node13&#45;&gt;Node32 -->
<g id="edge51" class="edge">
<title>Node13&#45;&gt;Node32</title>
<path fill="none" stroke="midnightblue" d="M1161.1,-281.23C1105.84,-271.21 1010.13,-253.87 952.97,-243.51"/>
<polygon fill="midnightblue" stroke="midnightblue" points="1160.79,-284.73 1171.26,-283.07 1162.04,-277.84 1160.79,-284.73"/>
</g>
<!-- Node14&#45;&gt;Node2 -->
<g id="edge17" class="edge">
<title>Node14&#45;&gt;Node2</title>
<path fill="none" stroke="midnightblue" d="M2160.03,-222.54C2213.7,-212.33 2294.34,-197 2344.21,-187.52"/>
<polygon fill="midnightblue" stroke="midnightblue" points="2159.17,-219.14 2150,-224.44 2160.48,-226.01 2159.17,-219.14"/>
</g>
<!-- Node15 -->
<g id="node15" class="node">
<title>Node15</title>
<g id="a_node15"><a xlink:href="logger_8h.html" target="_top" xlink:title="This header defines the Logger class and the logging macros.">
<polygon fill="white" stroke="black" points="1916,-168.5 1916,-187.5 1968,-187.5 1968,-168.5 1916,-168.5"/>
<text text-anchor="middle" x="1942" y="-175.5" font-family="'Souce Sans Pro', Roboto, FreeSans, sans-serif" font-size="10.00">logger.h</text>
</a>
</g>
</g>
<!-- Node14&#45;&gt;Node15 -->
<g id="edge18" class="edge">
<title>Node14&#45;&gt;Node15</title>
<path fill="none" stroke="midnightblue" d="M2069.3,-221.17C2038.6,-211 1995.08,-196.59 1967.71,-187.52"/>
<polygon fill="midnightblue" stroke="midnightblue" points="2068.58,-224.62 2079.17,-224.44 2070.78,-217.98 2068.58,-224.62"/>
</g>
<!-- Node15&#45;&gt;Node4 -->
<g id="edge23" class="edge">
<title>Node15&#45;&gt;Node4</title>
<path fill="none" stroke="midnightblue" d="M1916.46,-163.65C1890.73,-150.3 1849.82,-129.31 1814,-112 1760.28,-86.04 1746.41,-80.49 1692,-56 1663.41,-43.13 1630.16,-28.53 1609.59,-19.54"/>
<polygon fill="midnightblue" stroke="midnightblue" points="1915.05,-166.87 1925.53,-168.38 1918.28,-160.66 1915.05,-166.87"/>
</g>
<!-- Node15&#45;&gt;Node11 -->
<g id="edge21" class="edge">
<title>Node15&#45;&gt;Node11</title>
<path fill="none" stroke="midnightblue" d="M1905.9,-172.27C1826.47,-161.86 1637.65,-137.11 1562.08,-127.2"/>
<polygon fill="midnightblue" stroke="midnightblue" points="1905.54,-175.75 1915.91,-173.58 1906.45,-168.81 1905.54,-175.75"/>
</g>
<!-- Node15&#45;&gt;Node16 -->
<g id="edge19" class="edge">
<title>Node15&#45;&gt;Node16</title>
<path fill="none" stroke="midnightblue" d="M1905.89,-165.92C1872.73,-155.75 1824.29,-140.88 1793.99,-131.59"/>
<polygon fill="midnightblue" stroke="midnightblue" points="1905.06,-169.33 1915.65,-168.92 1907.12,-162.64 1905.06,-169.33"/>
</g>
<!-- Node15&#45;&gt;Node17 -->
<g id="edge22" class="edge">
<title>Node15&#45;&gt;Node17</title>
<path fill="none" stroke="midnightblue" d="M1905.97,-170C1855.21,-160.14 1762.73,-142.18 1707.97,-131.54"/>
<polygon fill="midnightblue" stroke="midnightblue" points="1905.36,-173.45 1915.85,-171.92 1906.7,-166.58 1905.36,-173.45"/>
</g>
<!-- Node18 -->
<g id="node18" class="node">
<title>Node18</title>
<g id="a_node18"><a xlink:href="loggingmacros_8h.html" target="_top" xlink:title="This header defines the logging macros.">
<polygon fill="white" stroke="black" points="1836,-56.5 1836,-75.5 1926,-75.5 1926,-56.5 1836,-56.5"/>
<text text-anchor="middle" x="1881" y="-63.5" font-family="'Souce Sans Pro', Roboto, FreeSans, sans-serif" font-size="10.00">loggingmacros.h</text>
</a>
</g>
</g>
<!-- Node15&#45;&gt;Node18 -->
<g id="edge24" class="edge">
<title>Node15&#45;&gt;Node18</title>
<path fill="none" stroke="midnightblue" d="M1918.6,-162.5C1908.14,-154.76 1896.68,-144.29 1890,-132 1880.1,-113.78 1879.73,-88.61 1880.34,-75.59"/>
<polygon fill="midnightblue" stroke="midnightblue" points="1916.82,-165.52 1927.03,-168.34 1920.8,-159.77 1916.82,-165.52"/>
</g>
<!-- Node19 -->
<g id="node19" class="node">
<title>Node19</title>
<g id="a_node19"><a xlink:href="tracelogger_8h.html" target="_top" xlink:title=" ">
<polygon fill="white" stroke="black" points="1899,-112.5 1899,-131.5 1973,-131.5 1973,-112.5 1899,-112.5"/>
<text text-anchor="middle" x="1936" y="-119.5" font-family="'Souce Sans Pro', Roboto, FreeSans, sans-serif" font-size="10.00">tracelogger.h</text>
</a>
</g>
</g>
<!-- Node15&#45;&gt;Node19 -->
<g id="edge26" class="edge">
<title>Node15&#45;&gt;Node19</title>
<path fill="none" stroke="midnightblue" d="M1939.9,-158.1C1938.9,-149.14 1937.76,-138.86 1936.97,-131.75"/>
<polygon fill="midnightblue" stroke="midnightblue" points="1936.43,-158.53 1941.01,-168.08 1943.38,-157.76 1936.43,-158.53"/>
</g>
<!-- Node16&#45;&gt;Node4 -->
<g id="edge20" class="edge">
<title>Node16&#45;&gt;Node4</title>
<path fill="none" stroke="midnightblue" d="M1743.61,-107.01C1706.67,-83.92 1634.02,-38.51 1603.75,-19.59"/>
<polygon fill="midnightblue" stroke="midnightblue" points="1741.85,-110.04 1752.19,-112.37 1745.56,-104.1 1741.85,-110.04"/>
</g>
<!-- Node18&#45;&gt;Node4 -->
<g id="edge25" class="edge">
<title>Node18&#45;&gt;Node4</title>
<path fill="none" stroke="midnightblue" d="M1825.87,-54.77C1766.37,-43.73 1673.48,-26.49 1623.89,-17.29"/>
<polygon fill="midnightblue" stroke="midnightblue" points="1825.38,-58.24 1835.85,-56.62 1826.66,-51.36 1825.38,-58.24"/>
</g>
<!-- Node19&#45;&gt;Node4 -->
<g id="edge27" class="edge">
<title>Node19&#45;&gt;Node4</title>
<path fill="none" stroke="midnightblue" d="M1941.64,-102.31C1944.74,-87.88 1946.01,-68.35 1935,-56 1914.45,-32.95 1706.58,-18.01 1623.77,-12.93"/>
<polygon fill="midnightblue" stroke="midnightblue" points="1938.21,-101.59 1939.09,-112.15 1944.99,-103.34 1938.21,-101.59"/>
</g>
<!-- Node19&#45;&gt;Node18 -->
<g id="edge28" class="edge">
<title>Node19&#45;&gt;Node18</title>
<path fill="none" stroke="midnightblue" d="M1919.71,-105C1909.96,-95.43 1897.95,-83.64 1889.91,-75.75"/>
<polygon fill="midnightblue" stroke="midnightblue" points="1917.33,-107.57 1926.92,-112.08 1922.23,-102.58 1917.33,-107.57"/>
</g>
<!-- Node22&#45;&gt;Node4 -->
<g id="edge34" class="edge">
<title>Node22&#45;&gt;Node4</title>
<path fill="none" stroke="midnightblue" d="M1069.8,-59.35C1191.53,-48.04 1461.6,-22.93 1556.35,-14.13"/>
<polygon fill="midnightblue" stroke="midnightblue" points="1069.18,-55.89 1059.54,-60.3 1069.82,-62.86 1069.18,-55.89"/>
</g>
<!-- Node24&#45;&gt;Node4 -->
<g id="edge37" class="edge">
<title>Node24&#45;&gt;Node4</title>
<path fill="none" stroke="midnightblue" d="M165.85,-213.71C162.9,-176.43 162.56,-94.77 210,-56 263.74,-12.08 1349.95,-10.8 1556.31,-10.95"/>
<polygon fill="midnightblue" stroke="midnightblue" points="162.41,-214.52 166.84,-224.14 169.38,-213.85 162.41,-214.52"/>
</g>
<!-- Node25&#45;&gt;Node4 -->
<g id="edge39" class="edge">
<title>Node25&#45;&gt;Node4</title>
<path fill="none" stroke="midnightblue" d="M1965.37,-215.58C1969.7,-207.47 1974.34,-197.53 1977,-188 1993.01,-130.56 2001.94,-90.07 1953,-56 1900.17,-19.22 1703.33,-12.47 1623.73,-11.26"/>
<polygon fill="midnightblue" stroke="midnightblue" points="1962.25,-213.99 1960.38,-224.42 1968.35,-217.43 1962.25,-213.99"/>
</g>
<!-- Node29&#45;&gt;Node4 -->
<g id="edge46" class="edge">
<title>Node29&#45;&gt;Node4</title>
<path fill="none" stroke="midnightblue" d="M1592.66,-157.93C1592,-121.92 1590.62,-45.23 1590.15,-19.57"/>
<polygon fill="midnightblue" stroke="midnightblue" points="1589.16,-158.14 1592.84,-168.08 1596.16,-158.01 1589.16,-158.14"/>
</g>
<!-- Node34&#45;&gt;Node24 -->
<g id="edge55" class="edge">
<title>Node34&#45;&gt;Node24</title>
<path fill="none" stroke="midnightblue" d="M59.74,-329.51C86.66,-306.01 136.95,-262.11 158.16,-243.59"/>
<polygon fill="midnightblue" stroke="midnightblue" points="57.12,-327.16 51.89,-336.37 61.72,-332.43 57.12,-327.16"/>
</g>
<!-- Node35&#45;&gt;Node2 -->
<g id="edge59" class="edge">
<title>Node35&#45;&gt;Node2</title>
<path fill="none" stroke="midnightblue" d="M2097.78,-398.67C2159.61,-392.8 2282.39,-372.19 2351,-300 2382.1,-267.28 2387.76,-209.37 2388.78,-187.6"/>
<polygon fill="midnightblue" stroke="midnightblue" points="2097.34,-395.19 2087.68,-399.55 2097.95,-402.17 2097.34,-395.19"/>
</g>
<!-- Node35&#45;&gt;Node5 -->
<g id="edge65" class="edge">
<title>Node35&#45;&gt;Node5</title>
<path fill="none" stroke="midnightblue" d="M2097.98,-399.62C2147.14,-396.59 2234.49,-386.91 2302,-356 2396.03,-312.95 2428.4,-285.46 2463,-188 2470.28,-167.5 2454.38,-144.08 2444.02,-131.72"/>
<polygon fill="midnightblue" stroke="midnightblue" points="2097.59,-396.14 2087.8,-400.19 2097.98,-403.13 2097.59,-396.14"/>
</g>
<!-- Node35&#45;&gt;Node13 -->
<g id="edge57" class="edge">
<title>Node35&#45;&gt;Node13</title>
<path fill="none" stroke="midnightblue" d="M2022.15,-400.18C1862.98,-396.56 1254.71,-381.12 1223,-356 1205.86,-342.42 1203.6,-314.26 1203.64,-299.88"/>
<polygon fill="midnightblue" stroke="midnightblue" points="2022.32,-403.68 2032.39,-400.41 2022.48,-396.68 2022.32,-403.68"/>
</g>
<!-- Node35&#45;&gt;Node14 -->
<g id="edge58" class="edge">
<title>Node35&#45;&gt;Node14</title>
<path fill="none" stroke="midnightblue" d="M2060.84,-381.92C2062.39,-357.62 2066.76,-314.63 2079,-280 2083.75,-266.56 2092.54,-252.57 2098.58,-243.83"/>
<polygon fill="midnightblue" stroke="midnightblue" points="2057.32,-382.05 2060.28,-392.22 2064.31,-382.43 2057.32,-382.05"/>
</g>
<!-- Node35&#45;&gt;Node16 -->
<g id="edge60" class="edge">
<title>Node35&#45;&gt;Node16</title>
<path fill="none" stroke="midnightblue" d="M2059.13,-381.9C2056.48,-346.2 2045.84,-268.91 2003,-224 1971.55,-191.03 1949.05,-205.55 1907,-188 1861.98,-169.21 1810.13,-144.5 1783.62,-131.63"/>
<polygon fill="midnightblue" stroke="midnightblue" points="2055.66,-382.54 2059.75,-392.31 2062.65,-382.12 2055.66,-382.54"/>
</g>
<!-- Node36 -->
<g id="node36" class="node">
<title>Node36</title>
<g id="a_node36"><a xlink:href="filter_8h.html" target="_top" xlink:title="This header defines Filter and all of it&#39;s subclasses.">
<polygon fill="white" stroke="black" points="353,-336.5 353,-355.5 397,-355.5 397,-336.5 353,-336.5"/>
<text text-anchor="middle" x="375" y="-343.5" font-family="'Souce Sans Pro', Roboto, FreeSans, sans-serif" font-size="10.00">filter.h</text>
</a>
</g>
</g>
<!-- Node35&#45;&gt;Node36 -->
<g id="edge61" class="edge">
<title>Node35&#45;&gt;Node36</title>
<path fill="none" stroke="midnightblue" d="M2021.88,-399.78C1790.32,-392.36 576.27,-353.45 397.1,-347.71"/>
<polygon fill="midnightblue" stroke="midnightblue" points="2022.05,-403.29 2032.16,-400.11 2022.28,-396.29 2022.05,-403.29"/>
</g>
<!-- Node37 -->
<g id="node37" class="node">
<title>Node37</title>
<g id="a_node37"><a xlink:href="threads-impl_8h.html" target="_top" xlink:title=" ">
<polygon fill="white" stroke="black" points="2262,-280.5 2262,-299.5 2342,-299.5 2342,-280.5 2262,-280.5"/>
<text text-anchor="middle" x="2302" y="-287.5" font-family="'Souce Sans Pro', Roboto, FreeSans, sans-serif" font-size="10.00">threads&#45;impl.h</text>
</a>
</g>
</g>
<!-- Node35&#45;&gt;Node37 -->
<g id="edge66" class="edge">
<title>Node35&#45;&gt;Node37</title>
<path fill="none" stroke="midnightblue" d="M2090.32,-388.55C2111.6,-379.71 2140.67,-367.42 2166,-356 2208.94,-336.64 2258.73,-312.37 2284.51,-299.66"/>
<polygon fill="midnightblue" stroke="midnightblue" points="2088.74,-385.42 2080.84,-392.48 2091.41,-391.88 2088.74,-385.42"/>
</g>
<!-- Node38 -->
<g id="node38" class="node">
<title>Node38</title>
<g id="a_node38"><a xlink:href="threads_8h.html" target="_top" xlink:title=" ">
<polygon fill="white" stroke="black" points="2099,-336.5 2099,-355.5 2157,-355.5 2157,-336.5 2099,-336.5"/>
<text text-anchor="middle" x="2128" y="-343.5" font-family="'Souce Sans Pro', Roboto, FreeSans, sans-serif" font-size="10.00">threads.h</text>
</a>
</g>
</g>
<!-- Node35&#45;&gt;Node38 -->
<g id="edge67" class="edge">
<title>Node35&#45;&gt;Node38</title>
<path fill="none" stroke="midnightblue" d="M2078.76,-386.1C2091,-376.38 2106.56,-364.03 2116.88,-355.83"/>
<polygon fill="midnightblue" stroke="midnightblue" points="2076.58,-383.36 2070.93,-392.32 2080.93,-388.85 2076.58,-383.36"/>
</g>
<!-- Node36&#45;&gt;Node4 -->
<g id="edge64" class="edge">
<title>Node36&#45;&gt;Node4</title>
<path fill="none" stroke="midnightblue" d="M348.56,-331.53C318.6,-314.92 270.39,-283.94 243,-244 225.98,-219.18 224,-209.1 224,-179 224,-179 224,-179 224,-121 224,-30.07 328.55,-72.35 418,-56 645.09,-14.48 1389.37,-11.21 1556.49,-11"/>
<polygon fill="midnightblue" stroke="midnightblue" points="347.13,-334.73 357.6,-336.4 350.46,-328.57 347.13,-334.73"/>
</g>
<!-- Node36&#45;&gt;Node13 -->
<g id="edge62" class="edge">
<title>Node36&#45;&gt;Node13</title>
<path fill="none" stroke="midnightblue" d="M407.45,-342.89C539.8,-334.27 1038.03,-301.81 1171.13,-293.14"/>
<polygon fill="midnightblue" stroke="midnightblue" points="406.93,-339.41 397.17,-343.56 407.38,-346.4 406.93,-339.41"/>
</g>
<!-- Node36&#45;&gt;Node24 -->
<g id="edge63" class="edge">
<title>Node36&#45;&gt;Node24</title>
<path fill="none" stroke="midnightblue" d="M342.73,-342.69C307.65,-338.77 251.34,-328.23 212,-300 191.41,-285.22 177.51,-257.6 171.45,-243.61"/>
<polygon fill="midnightblue" stroke="midnightblue" points="342.6,-346.19 352.9,-343.7 343.29,-339.23 342.6,-346.19"/>
</g>
<!-- Node38&#45;&gt;Node3 -->
<g id="edge68" class="edge">
<title>Node38&#45;&gt;Node3</title>
<path fill="none" stroke="midnightblue" d="M2163.75,-332.59C2200,-317.82 2253.93,-289.31 2277,-244 2296.4,-205.9 2275.85,-152.59 2266.31,-131.79"/>
<polygon fill="midnightblue" stroke="midnightblue" points="2162.07,-329.49 2154.04,-336.39 2164.63,-336 2162.07,-329.49"/>
</g>
<!-- Node38&#45;&gt;Node7 -->
<g id="edge69" class="edge">
<title>Node38&#45;&gt;Node7</title>
<path fill="none" stroke="midnightblue" d="M2088.84,-343.77C1861.72,-336.62 715.01,-300.51 462.31,-292.55"/>
<polygon fill="midnightblue" stroke="midnightblue" points="2088.85,-347.27 2098.95,-344.09 2089.07,-340.27 2088.85,-347.27"/>
</g>
<!-- Node38&#45;&gt;Node8 -->
<g id="edge77" class="edge">
<title>Node38&#45;&gt;Node8</title>
<path fill="none" stroke="midnightblue" d="M2088.68,-344.45C1831.24,-340.76 395.44,-319.38 355,-300 329.94,-287.99 312.02,-258.56 304.28,-243.78"/>
<polygon fill="midnightblue" stroke="midnightblue" points="2088.65,-347.95 2098.7,-344.59 2088.75,-340.95 2088.65,-347.95"/>
</g>
<!-- Node38&#45;&gt;Node37 -->
<g id="edge78" class="edge">
<title>Node38&#45;&gt;Node37</title>
<path fill="none" stroke="midnightblue" d="M2165.26,-333.44C2198.07,-323.26 2245.08,-308.66 2274.56,-299.52"/>
<polygon fill="midnightblue" stroke="midnightblue" points="2164.08,-330.14 2155.57,-336.44 2166.16,-336.82 2164.08,-330.14"/>
</g>
<!-- Node39 -->
<g id="node39" class="node">
<title>Node39</title>
<g id="a_node39"><a xlink:href="loggingevent_8h.html" target="_top" xlink:title=" ">
<polygon fill="white" stroke="black" points="2088,-280.5 2088,-299.5 2168,-299.5 2168,-280.5 2088,-280.5"/>
<text text-anchor="middle" x="2128" y="-287.5" font-family="'Souce Sans Pro', Roboto, FreeSans, sans-serif" font-size="10.00">loggingevent.h</text>
</a>
</g>
</g>
<!-- Node38&#45;&gt;Node39 -->
<g id="edge70" class="edge">
<title>Node38&#45;&gt;Node39</title>
<path fill="none" stroke="midnightblue" d="M2128,-325.8C2128,-316.91 2128,-306.78 2128,-299.75"/>
<polygon fill="midnightblue" stroke="midnightblue" points="2124.5,-326.08 2128,-336.08 2131.5,-326.08 2124.5,-326.08"/>
</g>
<!-- Node38&#45;&gt;Node41 -->
<g id="edge76" class="edge">
<title>Node38&#45;&gt;Node41</title>
<path fill="none" stroke="midnightblue" d="M2145.11,-329.62C2154.59,-321 2166.55,-310.01 2177,-300 2197.74,-280.12 2221.45,-256.06 2233.7,-243.53"/>
<polygon fill="midnightblue" stroke="midnightblue" points="2142.57,-327.19 2137.5,-336.49 2147.27,-332.38 2142.57,-327.19"/>
</g>
<!-- Node39&#45;&gt;Node4 -->
<g id="edge73" class="edge">
<title>Node39&#45;&gt;Node4</title>
<path fill="none" stroke="midnightblue" d="M2145.53,-273.39C2153.67,-265.32 2162.88,-254.89 2169,-244 2183.74,-217.76 2188,-209.1 2188,-179 2188,-179 2188,-179 2188,-121 2188,-63.21 1750.37,-23.79 1623.86,-13.61"/>
<polygon fill="midnightblue" stroke="midnightblue" points="2143.04,-270.93 2138.19,-280.35 2147.85,-276.01 2143.04,-270.93"/>
</g>
<!-- Node40 -->
<g id="node40" class="node">
<title>Node40</title>
<g id="a_node40"><a xlink:href="internal_8h.html" target="_top" xlink:title="This header contains declaration internal to log4cplus.">
<polygon fill="white" stroke="black" points="1764.5,-224.5 1764.5,-243.5 1821.5,-243.5 1821.5,-224.5 1764.5,-224.5"/>
<text text-anchor="middle" x="1793" y="-231.5" font-family="'Souce Sans Pro', Roboto, FreeSans, sans-serif" font-size="10.00">internal.h</text>
</a>
</g>
</g>
<!-- Node39&#45;&gt;Node40 -->
<g id="edge71" class="edge">
<title>Node39&#45;&gt;Node40</title>
<path fill="none" stroke="midnightblue" d="M2077.86,-280.92C2006.75,-269.46 1878.93,-248.85 1821.87,-239.65"/>
<polygon fill="midnightblue" stroke="midnightblue" points="2077.49,-284.4 2087.92,-282.54 2078.61,-277.49 2077.49,-284.4"/>
</g>
<!-- Node39&#45;&gt;Node41 -->
<g id="edge74" class="edge">
<title>Node39&#45;&gt;Node41</title>
<path fill="none" stroke="midnightblue" d="M2155.24,-276.1C2176.54,-266.01 2205.54,-252.27 2224.02,-243.52"/>
<polygon fill="midnightblue" stroke="midnightblue" points="2153.6,-273 2146.06,-280.44 2156.6,-279.33 2153.6,-273"/>
</g>
<!-- Node40&#45;&gt;Node10 -->
<g id="edge72" class="edge">
<title>Node40&#45;&gt;Node10</title>
<path fill="none" stroke="midnightblue" d="M1781.38,-215.57C1775.18,-206.27 1767.83,-195.25 1762.83,-187.75"/>
<polygon fill="midnightblue" stroke="midnightblue" points="1778.6,-217.7 1787.06,-224.08 1784.42,-213.82 1778.6,-217.7"/>
</g>
<!-- Node41&#45;&gt;Node3 -->
<g id="edge75" class="edge">
<title>Node41&#45;&gt;Node3</title>
<path fill="none" stroke="midnightblue" d="M2245.39,-214.35C2249.77,-190.25 2257.22,-149.31 2260.44,-131.59"/>
<polygon fill="midnightblue" stroke="midnightblue" points="2241.91,-213.9 2243.57,-224.37 2248.8,-215.16 2241.91,-213.9"/>
</g>
</g>
</svg>
