<?xml version="1.0" encoding="UTF-8" standalone="no"?>
<!DOCTYPE svg PUBLIC "-//W3C//DTD SVG 1.1//EN"
 "http://www.w3.org/Graphics/SVG/1.1/DTD/svg11.dtd">
<!-- Generated by graphviz version 2.43.0 (0)
 -->
<!-- Title: threads.h Pages: 1 -->
<svg width="471pt" height="252pt"
 viewBox="0.00 0.00 471.00 252.00" xmlns="http://www.w3.org/2000/svg" xmlns:xlink="http://www.w3.org/1999/xlink">
<g id="graph0" class="graph" transform="scale(1 1) rotate(0) translate(4 248)">
<title>threads.h</title>
<polygon fill="white" stroke="transparent" points="-4,4 -4,-248 467,-248 467,4 -4,4"/>
<!-- Node1 -->
<g id="node1" class="node">
<title>Node1</title>
<g id="a_node1"><a xlink:title=" ">
<polygon fill="#bfbfbf" stroke="black" points="187,-224.5 187,-243.5 245,-243.5 245,-224.5 187,-224.5"/>
<text text-anchor="middle" x="216" y="-231.5" font-family="'Souce Sans Pro', Roboto, FreeSans, sans-serif" font-size="10.00">threads.h</text>
</a>
</g>
</g>
<!-- Node2 -->
<g id="node2" class="node">
<title>Node2</title>
<g id="a_node2"><a xlink:href="asyncappender_8h.html" target="_top" xlink:title=" ">
<polygon fill="white" stroke="black" points="151.5,-56.5 151.5,-75.5 242.5,-75.5 242.5,-56.5 151.5,-56.5"/>
<text text-anchor="middle" x="197" y="-63.5" font-family="'Souce Sans Pro', Roboto, FreeSans, sans-serif" font-size="10.00">asyncappender.h</text>
</a>
</g>
</g>
<!-- Node1&#45;&gt;Node2 -->
<g id="edge1" class="edge">
<title>Node1&#45;&gt;Node2</title>
<path fill="none" stroke="midnightblue" d="M213.82,-213.93C209.7,-177.92 200.92,-101.23 197.98,-75.57"/>
<polygon fill="midnightblue" stroke="midnightblue" points="210.36,-214.54 214.98,-224.08 217.32,-213.74 210.36,-214.54"/>
</g>
<!-- Node4 -->
<g id="node4" class="node">
<title>Node4</title>
<g id="a_node4"><a xlink:href="connectorthread_8h.html" target="_top" xlink:title=" ">
<polygon fill="white" stroke="black" points="33,-168.5 33,-187.5 131,-187.5 131,-168.5 33,-168.5"/>
<text text-anchor="middle" x="82" y="-175.5" font-family="'Souce Sans Pro', Roboto, FreeSans, sans-serif" font-size="10.00">connectorthread.h</text>
</a>
</g>
</g>
<!-- Node1&#45;&gt;Node4 -->
<g id="edge3" class="edge">
<title>Node1&#45;&gt;Node4</title>
<path fill="none" stroke="midnightblue" d="M185.32,-220.64C160.18,-210.5 125.25,-196.43 103.13,-187.52"/>
<polygon fill="midnightblue" stroke="midnightblue" points="184.18,-223.95 194.77,-224.44 186.8,-217.46 184.18,-223.95"/>
</g>
<!-- Node5 -->
<g id="node5" class="node">
<title>Node5</title>
<g id="a_node5"><a xlink:href="socketappender_8h.html" target="_top" xlink:title=" ">
<polygon fill="white" stroke="black" points="73.5,-112.5 73.5,-131.5 168.5,-131.5 168.5,-112.5 73.5,-112.5"/>
<text text-anchor="middle" x="121" y="-119.5" font-family="'Souce Sans Pro', Roboto, FreeSans, sans-serif" font-size="10.00">socketappender.h</text>
</a>
</g>
</g>
<!-- Node1&#45;&gt;Node5 -->
<g id="edge15" class="edge">
<title>Node1&#45;&gt;Node5</title>
<path fill="none" stroke="midnightblue" d="M201.82,-216.59C181.34,-192.87 144.21,-149.87 128.42,-131.59"/>
<polygon fill="midnightblue" stroke="midnightblue" points="199.36,-219.09 208.55,-224.37 204.66,-214.51 199.36,-219.09"/>
</g>
<!-- Node7 -->
<g id="node7" class="node">
<title>Node7</title>
<g id="a_node7"><a xlink:href="loggingevent_8h.html" target="_top" xlink:title=" ">
<polygon fill="white" stroke="black" points="263,-168.5 263,-187.5 343,-187.5 343,-168.5 263,-168.5"/>
<text text-anchor="middle" x="303" y="-175.5" font-family="'Souce Sans Pro', Roboto, FreeSans, sans-serif" font-size="10.00">loggingevent.h</text>
</a>
</g>
</g>
<!-- Node1&#45;&gt;Node7 -->
<g id="edge8" class="edge">
<title>Node1&#45;&gt;Node7</title>
<path fill="none" stroke="midnightblue" d="M238.72,-218.9C254.67,-209 275.5,-196.07 289.06,-187.65"/>
<polygon fill="midnightblue" stroke="midnightblue" points="236.63,-216.08 229.98,-224.32 240.32,-222.02 236.63,-216.08"/>
</g>
<!-- Node10 -->
<g id="node10" class="node">
<title>Node10</title>
<g id="a_node10"><a xlink:href="queue_8h.html" target="_top" xlink:title=" ">
<polygon fill="white" stroke="black" points="225,-112.5 225,-131.5 277,-131.5 277,-112.5 225,-112.5"/>
<text text-anchor="middle" x="251" y="-119.5" font-family="'Souce Sans Pro', Roboto, FreeSans, sans-serif" font-size="10.00">queue.h</text>
</a>
</g>
</g>
<!-- Node1&#45;&gt;Node10 -->
<g id="edge14" class="edge">
<title>Node1&#45;&gt;Node10</title>
<path fill="none" stroke="midnightblue" d="M221.83,-214.67C229.48,-190.62 242.6,-149.39 248.27,-131.59"/>
<polygon fill="midnightblue" stroke="midnightblue" points="218.44,-213.78 218.75,-224.37 225.11,-215.9 218.44,-213.78"/>
</g>
<!-- Node11 -->
<g id="node11" class="node">
<title>Node11</title>
<g id="a_node11"><a xlink:href="threads-impl_8h.html" target="_top" xlink:title=" ">
<polygon fill="white" stroke="black" points="361,-168.5 361,-187.5 441,-187.5 441,-168.5 361,-168.5"/>
<text text-anchor="middle" x="401" y="-175.5" font-family="'Souce Sans Pro', Roboto, FreeSans, sans-serif" font-size="10.00">threads&#45;impl.h</text>
</a>
</g>
</g>
<!-- Node1&#45;&gt;Node11 -->
<g id="edge16" class="edge">
<title>Node1&#45;&gt;Node11</title>
<path fill="none" stroke="midnightblue" d="M255.17,-221.57C290.07,-211.38 340.35,-196.7 371.82,-187.52"/>
<polygon fill="midnightblue" stroke="midnightblue" points="253.93,-218.28 245.31,-224.44 255.89,-225 253.93,-218.28"/>
</g>
<!-- Node3 -->
<g id="node3" class="node">
<title>Node3</title>
<g id="a_node3"><a xlink:href="log4cplus_8h.html" target="_top" xlink:title=" ">
<polygon fill="white" stroke="black" points="126.5,-0.5 126.5,-19.5 193.5,-19.5 193.5,-0.5 126.5,-0.5"/>
<text text-anchor="middle" x="160" y="-7.5" font-family="'Souce Sans Pro', Roboto, FreeSans, sans-serif" font-size="10.00">log4cplus.h</text>
</a>
</g>
</g>
<!-- Node2&#45;&gt;Node3 -->
<g id="edge2" class="edge">
<title>Node2&#45;&gt;Node3</title>
<path fill="none" stroke="midnightblue" d="M185.05,-47.57C178.69,-38.27 171.13,-27.25 166,-19.75"/>
<polygon fill="midnightblue" stroke="midnightblue" points="182.35,-49.81 190.89,-56.08 188.13,-45.86 182.35,-49.81"/>
</g>
<!-- Node4&#45;&gt;Node5 -->
<g id="edge4" class="edge">
<title>Node4&#45;&gt;Node5</title>
<path fill="none" stroke="midnightblue" d="M94.38,-159.86C101.14,-150.5 109.21,-139.33 114.68,-131.75"/>
<polygon fill="midnightblue" stroke="midnightblue" points="91.46,-157.93 88.44,-168.08 97.13,-162.03 91.46,-157.93"/>
</g>
<!-- Node6 -->
<g id="node6" class="node">
<title>Node6</title>
<g id="a_node6"><a xlink:href="syslogappender_8h.html" target="_top" xlink:title=" ">
<polygon fill="white" stroke="black" points="0,-56.5 0,-75.5 94,-75.5 94,-56.5 0,-56.5"/>
<text text-anchor="middle" x="47" y="-63.5" font-family="'Souce Sans Pro', Roboto, FreeSans, sans-serif" font-size="10.00">syslogappender.h</text>
</a>
</g>
</g>
<!-- Node4&#45;&gt;Node6 -->
<g id="edge6" class="edge">
<title>Node4&#45;&gt;Node6</title>
<path fill="none" stroke="midnightblue" d="M74.29,-159.21C70.89,-151.01 67,-141.1 64,-132 57.43,-112.06 51.7,-88.02 48.87,-75.51"/>
<polygon fill="midnightblue" stroke="midnightblue" points="71.1,-160.65 78.23,-168.49 77.54,-157.92 71.1,-160.65"/>
</g>
<!-- Node5&#45;&gt;Node3 -->
<g id="edge5" class="edge">
<title>Node5&#45;&gt;Node3</title>
<path fill="none" stroke="midnightblue" d="M126.64,-102.41C130.69,-89.35 136.4,-71.51 142,-56 146.63,-43.18 152.61,-28.56 156.37,-19.56"/>
<polygon fill="midnightblue" stroke="midnightblue" points="123.25,-101.52 123.66,-112.1 129.94,-103.57 123.25,-101.52"/>
</g>
<!-- Node6&#45;&gt;Node3 -->
<g id="edge7" class="edge">
<title>Node6&#45;&gt;Node3</title>
<path fill="none" stroke="midnightblue" d="M74,-52.1C95.11,-42.01 123.86,-28.27 142.18,-19.52"/>
<polygon fill="midnightblue" stroke="midnightblue" points="72.42,-48.97 64.91,-56.44 75.44,-55.29 72.42,-48.97"/>
</g>
<!-- Node7&#45;&gt;Node3 -->
<g id="edge11" class="edge">
<title>Node7&#45;&gt;Node3</title>
<path fill="none" stroke="midnightblue" d="M300.14,-158.38C295.12,-131.91 282.2,-83.57 252,-56 233.22,-38.85 206.72,-26.82 186.98,-19.54"/>
<polygon fill="midnightblue" stroke="midnightblue" points="296.7,-159 301.84,-168.26 303.6,-157.81 296.7,-159"/>
</g>
<!-- Node8 -->
<g id="node8" class="node">
<title>Node8</title>
<g id="a_node8"><a xlink:href="internal_8h.html" target="_top" xlink:title="This header contains declaration internal to log4cplus.">
<polygon fill="white" stroke="black" points="351.5,-112.5 351.5,-131.5 408.5,-131.5 408.5,-112.5 351.5,-112.5"/>
<text text-anchor="middle" x="380" y="-119.5" font-family="'Souce Sans Pro', Roboto, FreeSans, sans-serif" font-size="10.00">internal.h</text>
</a>
</g>
</g>
<!-- Node7&#45;&gt;Node8 -->
<g id="edge9" class="edge">
<title>Node7&#45;&gt;Node8</title>
<path fill="none" stroke="midnightblue" d="M323.9,-162.34C337.91,-152.52 355.88,-139.91 367.66,-131.65"/>
<polygon fill="midnightblue" stroke="midnightblue" points="321.55,-159.72 315.37,-168.32 325.57,-165.45 321.55,-159.72"/>
</g>
<!-- Node7&#45;&gt;Node10 -->
<g id="edge12" class="edge">
<title>Node7&#45;&gt;Node10</title>
<path fill="none" stroke="midnightblue" d="M287.32,-160.72C278.16,-151.2 266.95,-139.56 259.43,-131.75"/>
<polygon fill="midnightblue" stroke="midnightblue" points="284.96,-163.31 294.41,-168.08 290,-158.45 284.96,-163.31"/>
</g>
<!-- Node9 -->
<g id="node9" class="node">
<title>Node9</title>
<g id="a_node9"><a xlink:href="customloglevelmanager_8h.html" target="_top" xlink:title="This header contains declaration internal to log4cplus.">
<polygon fill="white" stroke="black" points="333,-56.5 333,-75.5 463,-75.5 463,-56.5 333,-56.5"/>
<text text-anchor="middle" x="398" y="-63.5" font-family="'Souce Sans Pro', Roboto, FreeSans, sans-serif" font-size="10.00">customloglevelmanager.h</text>
</a>
</g>
</g>
<!-- Node8&#45;&gt;Node9 -->
<g id="edge10" class="edge">
<title>Node8&#45;&gt;Node9</title>
<path fill="none" stroke="midnightblue" d="M386.2,-102.4C389.21,-93.36 392.69,-82.94 395.08,-75.75"/>
<polygon fill="midnightblue" stroke="midnightblue" points="382.81,-101.49 382.97,-112.08 389.46,-103.7 382.81,-101.49"/>
</g>
<!-- Node10&#45;&gt;Node2 -->
<g id="edge13" class="edge">
<title>Node10&#45;&gt;Node2</title>
<path fill="none" stroke="midnightblue" d="M235,-105C225.43,-95.43 213.64,-83.64 205.75,-75.75"/>
<polygon fill="midnightblue" stroke="midnightblue" points="232.54,-107.49 242.08,-112.08 237.49,-102.54 232.54,-107.49"/>
</g>
</g>
</svg>
