<?xml version="1.0" encoding="UTF-8" standalone="no"?>
<!DOCTYPE svg PUBLIC "-//W3C//DTD SVG 1.1//EN"
 "http://www.w3.org/Graphics/SVG/1.1/DTD/svg11.dtd">
<!-- Generated by graphviz version 2.43.0 (0)
 -->
<!-- Title: timehelper.h Pages: 1 -->
<svg width="1893pt" height="420pt"
 viewBox="0.00 0.00 1893.48 420.00" xmlns="http://www.w3.org/2000/svg" xmlns:xlink="http://www.w3.org/1999/xlink">
<g id="graph0" class="graph" transform="scale(1 1) rotate(0) translate(4 416)">
<title>timehelper.h</title>
<polygon fill="white" stroke="transparent" points="-4,4 -4,-416 1889.48,-416 1889.48,4 -4,4"/>
<!-- Node1 -->
<g id="node1" class="node">
<title>Node1</title>
<g id="a_node1"><a xlink:title=" ">
<polygon fill="#bfbfbf" stroke="black" points="1626.5,-392.5 1626.5,-411.5 1697.5,-411.5 1697.5,-392.5 1626.5,-392.5"/>
<text text-anchor="middle" x="1662" y="-399.5" font-family="'Souce Sans Pro', Roboto, FreeSans, sans-serif" font-size="10.00">timehelper.h</text>
</a>
</g>
</g>
<!-- Node2 -->
<g id="node2" class="node">
<title>Node2</title>
<g id="a_node2"><a xlink:href="fileappender_8h.html" target="_top" xlink:title=" ">
<polygon fill="white" stroke="black" points="1748,-224.5 1748,-243.5 1826,-243.5 1826,-224.5 1748,-224.5"/>
<text text-anchor="middle" x="1787" y="-231.5" font-family="'Souce Sans Pro', Roboto, FreeSans, sans-serif" font-size="10.00">fileappender.h</text>
</a>
</g>
</g>
<!-- Node1&#45;&gt;Node2 -->
<g id="edge1" class="edge">
<title>Node1&#45;&gt;Node2</title>
<path fill="none" stroke="midnightblue" d="M1674.98,-383.76C1701.46,-348.59 1760.89,-269.68 1780.55,-243.57"/>
<polygon fill="midnightblue" stroke="midnightblue" points="1671.94,-381.98 1668.72,-392.08 1677.53,-386.19 1671.94,-381.98"/>
</g>
<!-- Node4 -->
<g id="node4" class="node">
<title>Node4</title>
<g id="a_node4"><a xlink:href="fileinfo_8h.html" target="_top" xlink:title=" ">
<polygon fill="white" stroke="black" points="1606.5,-336.5 1606.5,-355.5 1661.5,-355.5 1661.5,-336.5 1606.5,-336.5"/>
<text text-anchor="middle" x="1634" y="-343.5" font-family="'Souce Sans Pro', Roboto, FreeSans, sans-serif" font-size="10.00">fileinfo.h</text>
</a>
</g>
</g>
<!-- Node1&#45;&gt;Node4 -->
<g id="edge3" class="edge">
<title>Node1&#45;&gt;Node4</title>
<path fill="none" stroke="midnightblue" d="M1652.66,-382.98C1647.91,-373.82 1642.34,-363.09 1638.54,-355.75"/>
<polygon fill="midnightblue" stroke="midnightblue" points="1649.67,-384.82 1657.38,-392.08 1655.88,-381.59 1649.67,-384.82"/>
</g>
<!-- Node5 -->
<g id="node5" class="node">
<title>Node5</title>
<g id="a_node5"><a xlink:href="layout_8h.html" target="_top" xlink:title=" ">
<polygon fill="white" stroke="black" points="606.5,-336.5 606.5,-355.5 657.5,-355.5 657.5,-336.5 606.5,-336.5"/>
<text text-anchor="middle" x="632" y="-343.5" font-family="'Souce Sans Pro', Roboto, FreeSans, sans-serif" font-size="10.00">layout.h</text>
</a>
</g>
</g>
<!-- Node1&#45;&gt;Node5 -->
<g id="edge4" class="edge">
<title>Node1&#45;&gt;Node5</title>
<path fill="none" stroke="midnightblue" d="M1616.16,-398.6C1438.06,-389.26 795.1,-355.55 657.88,-348.36"/>
<polygon fill="midnightblue" stroke="midnightblue" points="1616.08,-402.1 1626.25,-399.13 1616.44,-395.11 1616.08,-402.1"/>
</g>
<!-- Node32 -->
<g id="node32" class="node">
<title>Node32</title>
<g id="a_node32"><a xlink:href="loggingevent_8h.html" target="_top" xlink:title=" ">
<polygon fill="white" stroke="black" points="1650,-224.5 1650,-243.5 1730,-243.5 1730,-224.5 1650,-224.5"/>
<text text-anchor="middle" x="1690" y="-231.5" font-family="'Souce Sans Pro', Roboto, FreeSans, sans-serif" font-size="10.00">loggingevent.h</text>
</a>
</g>
</g>
<!-- Node1&#45;&gt;Node32 -->
<g id="edge50" class="edge">
<title>Node1&#45;&gt;Node32</title>
<path fill="none" stroke="midnightblue" d="M1665.88,-382.51C1667.54,-374.39 1669.44,-364.74 1671,-356 1678.51,-313.92 1685.94,-263.33 1688.79,-243.53"/>
<polygon fill="midnightblue" stroke="midnightblue" points="1662.43,-381.89 1663.83,-392.39 1669.29,-383.31 1662.43,-381.89"/>
</g>
<!-- Node3 -->
<g id="node3" class="node">
<title>Node3</title>
<g id="a_node3"><a xlink:href="log4cplus_8h.html" target="_top" xlink:title=" ">
<polygon fill="white" stroke="black" points="1131.5,-0.5 1131.5,-19.5 1198.5,-19.5 1198.5,-0.5 1131.5,-0.5"/>
<text text-anchor="middle" x="1165" y="-7.5" font-family="'Souce Sans Pro', Roboto, FreeSans, sans-serif" font-size="10.00">log4cplus.h</text>
</a>
</g>
</g>
<!-- Node2&#45;&gt;Node3 -->
<g id="edge2" class="edge">
<title>Node2&#45;&gt;Node3</title>
<path fill="none" stroke="midnightblue" d="M1811.19,-218.79C1847.09,-195.93 1907.16,-149.73 1877,-112 1833.93,-58.12 1334.6,-22 1198.87,-13.13"/>
<polygon fill="midnightblue" stroke="midnightblue" points="1808.89,-216.1 1802.23,-224.34 1812.57,-222.05 1808.89,-216.1"/>
</g>
<!-- Node5&#45;&gt;Node3 -->
<g id="edge49" class="edge">
<title>Node5&#45;&gt;Node3</title>
<path fill="none" stroke="midnightblue" d="M596.33,-342.6C462.8,-333.15 0,-295.99 0,-235 0,-235 0,-235 0,-121 0,-55.61 68.65,-72.21 132,-56 230.58,-30.77 964.96,-14.93 1131.49,-11.64"/>
<polygon fill="midnightblue" stroke="midnightblue" points="596.22,-346.1 606.44,-343.31 596.71,-339.12 596.22,-346.1"/>
</g>
<!-- Node6 -->
<g id="node6" class="node">
<title>Node6</title>
<g id="a_node6"><a xlink:href="appender_8h.html" target="_top" xlink:title=" ">
<polygon fill="white" stroke="black" points="811.5,-280.5 811.5,-299.5 876.5,-299.5 876.5,-280.5 811.5,-280.5"/>
<text text-anchor="middle" x="844" y="-287.5" font-family="'Souce Sans Pro', Roboto, FreeSans, sans-serif" font-size="10.00">appender.h</text>
</a>
</g>
</g>
<!-- Node5&#45;&gt;Node6 -->
<g id="edge5" class="edge">
<title>Node5&#45;&gt;Node6</title>
<path fill="none" stroke="midnightblue" d="M667.46,-335.97C707.61,-325.74 772.47,-309.22 811.4,-299.3"/>
<polygon fill="midnightblue" stroke="midnightblue" points="666.4,-332.63 657.57,-338.49 668.13,-339.41 666.4,-332.63"/>
</g>
<!-- Node22 -->
<g id="node22" class="node">
<title>Node22</title>
<g id="a_node22"><a xlink:href="factory_8h.html" target="_top" xlink:title=" ">
<polygon fill="white" stroke="black" points="28,-224.5 28,-243.5 84,-243.5 84,-224.5 28,-224.5"/>
<text text-anchor="middle" x="56" y="-231.5" font-family="'Souce Sans Pro', Roboto, FreeSans, sans-serif" font-size="10.00">factory.h</text>
</a>
</g>
</g>
<!-- Node5&#45;&gt;Node22 -->
<g id="edge48" class="edge">
<title>Node5&#45;&gt;Node22</title>
<path fill="none" stroke="midnightblue" d="M596.39,-338.57C510.52,-323.01 285.34,-281.78 98,-244 93.61,-243.12 88.98,-242.15 84.45,-241.19"/>
<polygon fill="midnightblue" stroke="midnightblue" points="595.93,-342.05 606.39,-340.38 597.17,-335.16 595.93,-342.05"/>
</g>
<!-- Node6&#45;&gt;Node2 -->
<g id="edge33" class="edge">
<title>Node6&#45;&gt;Node2</title>
<path fill="none" stroke="midnightblue" d="M886.9,-288.89C1016.14,-288.14 1412.9,-282.59 1739,-244 1741.86,-243.66 1744.81,-243.25 1747.77,-242.8"/>
<polygon fill="midnightblue" stroke="midnightblue" points="886.62,-285.4 876.64,-288.95 886.66,-292.4 886.62,-285.4"/>
</g>
<!-- Node6&#45;&gt;Node3 -->
<g id="edge35" class="edge">
<title>Node6&#45;&gt;Node3</title>
<path fill="none" stroke="midnightblue" d="M886.71,-286.65C975.99,-281.31 1175.83,-266.91 1196,-244 1201.87,-237.33 1199.85,-232.01 1196,-224 1167.65,-165.01 1109.35,-190.99 1081,-132 1058.96,-86.13 1121.94,-38.46 1151.08,-19.5"/>
<polygon fill="midnightblue" stroke="midnightblue" points="886.42,-283.17 876.64,-287.25 886.83,-290.15 886.42,-283.17"/>
</g>
<!-- Node7 -->
<g id="node7" class="node">
<title>Node7</title>
<g id="a_node7"><a xlink:href="appenderattachable_8h.html" target="_top" xlink:title=" ">
<polygon fill="white" stroke="black" points="1426,-224.5 1426,-243.5 1536,-243.5 1536,-224.5 1426,-224.5"/>
<text text-anchor="middle" x="1481" y="-231.5" font-family="'Souce Sans Pro', Roboto, FreeSans, sans-serif" font-size="10.00">appenderattachable.h</text>
</a>
</g>
</g>
<!-- Node6&#45;&gt;Node7 -->
<g id="edge6" class="edge">
<title>Node6&#45;&gt;Node7</title>
<path fill="none" stroke="midnightblue" d="M886.81,-286.54C982.19,-280.86 1219.33,-265.64 1417,-244 1419.9,-243.68 1422.87,-243.34 1425.87,-242.97"/>
<polygon fill="midnightblue" stroke="midnightblue" points="886.47,-283.05 876.69,-287.14 886.88,-290.04 886.47,-283.05"/>
</g>
<!-- Node9 -->
<g id="node9" class="node">
<title>Node9</title>
<g id="a_node9"><a xlink:href="asyncappender_8h.html" target="_top" xlink:title=" ">
<polygon fill="white" stroke="black" points="1590.5,-112.5 1590.5,-131.5 1681.5,-131.5 1681.5,-112.5 1590.5,-112.5"/>
<text text-anchor="middle" x="1636" y="-119.5" font-family="'Souce Sans Pro', Roboto, FreeSans, sans-serif" font-size="10.00">asyncappender.h</text>
</a>
</g>
</g>
<!-- Node6&#45;&gt;Node9 -->
<g id="edge24" class="edge">
<title>Node6&#45;&gt;Node9</title>
<path fill="none" stroke="midnightblue" d="M887.32,-288.63C1034.05,-287.04 1506.32,-279.22 1564,-244 1586.01,-230.56 1620.65,-157.08 1632.15,-131.66"/>
<polygon fill="midnightblue" stroke="midnightblue" points="886.89,-285.13 876.93,-288.73 886.97,-292.13 886.89,-285.13"/>
</g>
<!-- Node13 -->
<g id="node13" class="node">
<title>Node13</title>
<g id="a_node13"><a xlink:href="configurator_8h.html" target="_top" xlink:title=" ">
<polygon fill="white" stroke="black" points="1495.5,-112.5 1495.5,-131.5 1572.5,-131.5 1572.5,-112.5 1495.5,-112.5"/>
<text text-anchor="middle" x="1534" y="-119.5" font-family="'Souce Sans Pro', Roboto, FreeSans, sans-serif" font-size="10.00">configurator.h</text>
</a>
</g>
</g>
<!-- Node6&#45;&gt;Node13 -->
<g id="edge27" class="edge">
<title>Node6&#45;&gt;Node13</title>
<path fill="none" stroke="midnightblue" d="M886.69,-287.85C1035.33,-283.66 1522.39,-268.11 1545,-244 1574.58,-212.46 1549.73,-153.84 1538.66,-131.74"/>
<polygon fill="midnightblue" stroke="midnightblue" points="886.48,-284.36 876.59,-288.14 886.68,-291.35 886.48,-284.36"/>
</g>
<!-- Node15 -->
<g id="node15" class="node">
<title>Node15</title>
<g id="a_node15"><a xlink:href="hierarchylocker_8h.html" target="_top" xlink:title=" ">
<polygon fill="white" stroke="black" points="1090.5,-112.5 1090.5,-131.5 1181.5,-131.5 1181.5,-112.5 1090.5,-112.5"/>
<text text-anchor="middle" x="1136" y="-119.5" font-family="'Souce Sans Pro', Roboto, FreeSans, sans-serif" font-size="10.00">hierarchylocker.h</text>
</a>
</g>
</g>
<!-- Node6&#45;&gt;Node15 -->
<g id="edge34" class="edge">
<title>Node6&#45;&gt;Node15</title>
<path fill="none" stroke="midnightblue" d="M886.72,-287.17C982.43,-282.62 1207.46,-269.32 1230,-244 1265.73,-203.86 1186.55,-151.73 1151.55,-131.52"/>
<polygon fill="midnightblue" stroke="midnightblue" points="886.35,-283.68 876.52,-287.64 886.67,-290.67 886.35,-283.68"/>
</g>
<!-- Node18 -->
<g id="node18" class="node">
<title>Node18</title>
<g id="a_node18"><a xlink:href="callbackappender_8h.html" target="_top" xlink:title=" ">
<polygon fill="white" stroke="black" points="178.5,-224.5 178.5,-243.5 279.5,-243.5 279.5,-224.5 178.5,-224.5"/>
<text text-anchor="middle" x="229" y="-231.5" font-family="'Souce Sans Pro', Roboto, FreeSans, sans-serif" font-size="10.00">callbackappender.h</text>
</a>
</g>
</g>
<!-- Node6&#45;&gt;Node18 -->
<g id="edge25" class="edge">
<title>Node6&#45;&gt;Node18</title>
<path fill="none" stroke="midnightblue" d="M801.23,-286.53C707.98,-280.92 479.49,-265.98 289,-244 285.97,-243.65 282.85,-243.26 279.71,-242.85"/>
<polygon fill="midnightblue" stroke="midnightblue" points="801.2,-290.03 811.4,-287.13 801.62,-283.04 801.2,-290.03"/>
</g>
<!-- Node19 -->
<g id="node19" class="node">
<title>Node19</title>
<g id="a_node19"><a xlink:href="clfsappender_8h.html" target="_top" xlink:title=" ">
<polygon fill="white" stroke="black" points="298,-224.5 298,-243.5 380,-243.5 380,-224.5 298,-224.5"/>
<text text-anchor="middle" x="339" y="-231.5" font-family="'Souce Sans Pro', Roboto, FreeSans, sans-serif" font-size="10.00">clfsappender.h</text>
</a>
</g>
</g>
<!-- Node6&#45;&gt;Node19 -->
<g id="edge26" class="edge">
<title>Node6&#45;&gt;Node19</title>
<path fill="none" stroke="midnightblue" d="M801.27,-285.62C721.2,-279.1 543.18,-263.65 394,-244 389.49,-243.41 384.78,-242.73 380.1,-242.01"/>
<polygon fill="midnightblue" stroke="midnightblue" points="801.2,-289.13 811.45,-286.45 801.76,-282.15 801.2,-289.13"/>
</g>
<!-- Node20 -->
<g id="node20" class="node">
<title>Node20</title>
<g id="a_node20"><a xlink:href="consoleappender_8h.html" target="_top" xlink:title=" ">
<polygon fill="white" stroke="black" points="169.5,-56.5 169.5,-75.5 270.5,-75.5 270.5,-56.5 169.5,-56.5"/>
<text text-anchor="middle" x="220" y="-63.5" font-family="'Souce Sans Pro', Roboto, FreeSans, sans-serif" font-size="10.00">consoleappender.h</text>
</a>
</g>
</g>
<!-- Node6&#45;&gt;Node20 -->
<g id="edge28" class="edge">
<title>Node6&#45;&gt;Node20</title>
<path fill="none" stroke="midnightblue" d="M801.18,-289.35C657.35,-290.11 197.9,-288.98 151,-244 100.06,-195.15 182.5,-104.28 210.92,-75.78"/>
<polygon fill="midnightblue" stroke="midnightblue" points="801.4,-292.85 811.38,-289.29 801.36,-285.85 801.4,-292.85"/>
</g>
<!-- Node21 -->
<g id="node21" class="node">
<title>Node21</title>
<g id="a_node21"><a xlink:href="deviceappender_8hxx.html" target="_top" xlink:title=" ">
<polygon fill="white" stroke="black" points="436,-224.5 436,-243.5 540,-243.5 540,-224.5 436,-224.5"/>
<text text-anchor="middle" x="488" y="-231.5" font-family="'Souce Sans Pro', Roboto, FreeSans, sans-serif" font-size="10.00">deviceappender.hxx</text>
</a>
</g>
</g>
<!-- Node6&#45;&gt;Node21 -->
<g id="edge30" class="edge">
<title>Node6&#45;&gt;Node21</title>
<path fill="none" stroke="midnightblue" d="M801.5,-282.55C736.13,-272.64 611.07,-253.67 540.26,-242.93"/>
<polygon fill="midnightblue" stroke="midnightblue" points="801.05,-286.03 811.46,-284.06 802.1,-279.1 801.05,-286.03"/>
</g>
<!-- Node6&#45;&gt;Node22 -->
<g id="edge31" class="edge">
<title>Node6&#45;&gt;Node22</title>
<path fill="none" stroke="midnightblue" d="M801.38,-288.67C686.98,-287.31 363.85,-280.29 98,-244 93.57,-243.39 88.9,-242.58 84.36,-241.68"/>
<polygon fill="midnightblue" stroke="midnightblue" points="801.44,-292.17 811.47,-288.79 801.51,-285.18 801.44,-292.17"/>
</g>
<!-- Node23 -->
<g id="node23" class="node">
<title>Node23</title>
<g id="a_node23"><a xlink:href="log4judpappender_8h.html" target="_top" xlink:title=" ">
<polygon fill="white" stroke="black" points="558.5,-224.5 558.5,-243.5 661.5,-243.5 661.5,-224.5 558.5,-224.5"/>
<text text-anchor="middle" x="610" y="-231.5" font-family="'Souce Sans Pro', Roboto, FreeSans, sans-serif" font-size="10.00">log4judpappender.h</text>
</a>
</g>
</g>
<!-- Node6&#45;&gt;Node23 -->
<g id="edge36" class="edge">
<title>Node6&#45;&gt;Node23</title>
<path fill="none" stroke="midnightblue" d="M801.61,-279.22C757.43,-269.02 688.9,-253.21 646.88,-243.51"/>
<polygon fill="midnightblue" stroke="midnightblue" points="800.93,-282.65 811.46,-281.49 802.51,-275.83 800.93,-282.65"/>
</g>
<!-- Node24 -->
<g id="node24" class="node">
<title>Node24</title>
<g id="a_node24"><a xlink:href="msttsappender_8h.html" target="_top" xlink:title=" ">
<polygon fill="white" stroke="black" points="679.5,-224.5 679.5,-243.5 770.5,-243.5 770.5,-224.5 679.5,-224.5"/>
<text text-anchor="middle" x="725" y="-231.5" font-family="'Souce Sans Pro', Roboto, FreeSans, sans-serif" font-size="10.00">msttsappender.h</text>
</a>
</g>
</g>
<!-- Node6&#45;&gt;Node24 -->
<g id="edge37" class="edge">
<title>Node6&#45;&gt;Node24</title>
<path fill="none" stroke="midnightblue" d="M815.86,-276.23C793.6,-266.13 763.14,-252.31 743.77,-243.52"/>
<polygon fill="midnightblue" stroke="midnightblue" points="814.59,-279.5 825.14,-280.44 817.48,-273.12 814.59,-279.5"/>
</g>
<!-- Node25 -->
<g id="node25" class="node">
<title>Node25</title>
<g id="a_node25"><a xlink:href="nteventlogappender_8h.html" target="_top" xlink:title=" ">
<polygon fill="white" stroke="black" points="789,-224.5 789,-243.5 899,-243.5 899,-224.5 789,-224.5"/>
<text text-anchor="middle" x="844" y="-231.5" font-family="'Souce Sans Pro', Roboto, FreeSans, sans-serif" font-size="10.00">nteventlogappender.h</text>
</a>
</g>
</g>
<!-- Node6&#45;&gt;Node25 -->
<g id="edge38" class="edge">
<title>Node6&#45;&gt;Node25</title>
<path fill="none" stroke="midnightblue" d="M844,-269.8C844,-260.91 844,-250.78 844,-243.75"/>
<polygon fill="midnightblue" stroke="midnightblue" points="840.5,-270.08 844,-280.08 847.5,-270.08 840.5,-270.08"/>
</g>
<!-- Node26 -->
<g id="node26" class="node">
<title>Node26</title>
<g id="a_node26"><a xlink:href="nullappender_8h.html" target="_top" xlink:title=" ">
<polygon fill="white" stroke="black" points="554,-56.5 554,-75.5 634,-75.5 634,-56.5 554,-56.5"/>
<text text-anchor="middle" x="594" y="-63.5" font-family="'Souce Sans Pro', Roboto, FreeSans, sans-serif" font-size="10.00">nullappender.h</text>
</a>
</g>
</g>
<!-- Node6&#45;&gt;Node26 -->
<g id="edge39" class="edge">
<title>Node6&#45;&gt;Node26</title>
<path fill="none" stroke="midnightblue" d="M801.15,-289.45C659.4,-290.51 212.15,-290.12 169,-244 52.14,-119.09 427.64,-79.33 554,-69.64"/>
<polygon fill="midnightblue" stroke="midnightblue" points="801.24,-292.95 811.21,-289.37 801.18,-285.95 801.24,-292.95"/>
</g>
<!-- Node27 -->
<g id="node27" class="node">
<title>Node27</title>
<g id="a_node27"><a xlink:href="qt4debugappender_8h.html" target="_top" xlink:title=" ">
<polygon fill="white" stroke="black" points="955.5,-224.5 955.5,-243.5 1062.5,-243.5 1062.5,-224.5 955.5,-224.5"/>
<text text-anchor="middle" x="1009" y="-231.5" font-family="'Souce Sans Pro', Roboto, FreeSans, sans-serif" font-size="10.00">qt4debugappender.h</text>
</a>
</g>
</g>
<!-- Node6&#45;&gt;Node27 -->
<g id="edge41" class="edge">
<title>Node6&#45;&gt;Node27</title>
<path fill="none" stroke="midnightblue" d="M879.74,-277.3C910.83,-267.13 955.15,-252.62 982.98,-243.52"/>
<polygon fill="midnightblue" stroke="midnightblue" points="878.56,-274.01 870.14,-280.44 880.74,-280.66 878.56,-274.01"/>
</g>
<!-- Node28 -->
<g id="node28" class="node">
<title>Node28</title>
<g id="a_node28"><a xlink:href="qt5debugappender_8h.html" target="_top" xlink:title=" ">
<polygon fill="white" stroke="black" points="1080.5,-224.5 1080.5,-243.5 1187.5,-243.5 1187.5,-224.5 1080.5,-224.5"/>
<text text-anchor="middle" x="1134" y="-231.5" font-family="'Souce Sans Pro', Roboto, FreeSans, sans-serif" font-size="10.00">qt5debugappender.h</text>
</a>
</g>
</g>
<!-- Node6&#45;&gt;Node28 -->
<g id="edge42" class="edge">
<title>Node6&#45;&gt;Node28</title>
<path fill="none" stroke="midnightblue" d="M886.63,-281.06C940.55,-271.02 1033.02,-253.8 1088.34,-243.5"/>
<polygon fill="midnightblue" stroke="midnightblue" points="885.89,-277.64 876.7,-282.91 887.17,-284.52 885.89,-277.64"/>
</g>
<!-- Node29 -->
<g id="node29" class="node">
<title>Node29</title>
<g id="a_node29"><a xlink:href="socketappender_8h.html" target="_top" xlink:title=" ">
<polygon fill="white" stroke="black" points="553.5,-168.5 553.5,-187.5 648.5,-187.5 648.5,-168.5 553.5,-168.5"/>
<text text-anchor="middle" x="601" y="-175.5" font-family="'Souce Sans Pro', Roboto, FreeSans, sans-serif" font-size="10.00">socketappender.h</text>
</a>
</g>
</g>
<!-- Node6&#45;&gt;Node29 -->
<g id="edge43" class="edge">
<title>Node6&#45;&gt;Node29</title>
<path fill="none" stroke="midnightblue" d="M801.05,-287.55C699.59,-283.69 451.7,-271.51 427,-244 388.33,-200.93 489.43,-186.3 553.31,-181.41"/>
<polygon fill="midnightblue" stroke="midnightblue" points="801.13,-291.06 811.26,-287.93 801.39,-284.06 801.13,-291.06"/>
</g>
<!-- Node30 -->
<g id="node30" class="node">
<title>Node30</title>
<g id="a_node30"><a xlink:href="syslogappender_8h.html" target="_top" xlink:title=" ">
<polygon fill="white" stroke="black" points="898,-56.5 898,-75.5 992,-75.5 992,-56.5 898,-56.5"/>
<text text-anchor="middle" x="945" y="-63.5" font-family="'Souce Sans Pro', Roboto, FreeSans, sans-serif" font-size="10.00">syslogappender.h</text>
</a>
</g>
</g>
<!-- Node6&#45;&gt;Node30 -->
<g id="edge45" class="edge">
<title>Node6&#45;&gt;Node30</title>
<path fill="none" stroke="midnightblue" d="M872.23,-275.44C885.03,-267.9 899.23,-257.33 908,-244 944.76,-188.14 945.96,-102.7 945.33,-75.58"/>
<polygon fill="midnightblue" stroke="midnightblue" points="870.32,-272.5 863.26,-280.39 873.7,-278.63 870.32,-272.5"/>
</g>
<!-- Node31 -->
<g id="node31" class="node">
<title>Node31</title>
<g id="a_node31"><a xlink:href="win32consoleappender_8h.html" target="_top" xlink:title=" ">
<polygon fill="white" stroke="black" points="1282,-224.5 1282,-243.5 1408,-243.5 1408,-224.5 1282,-224.5"/>
<text text-anchor="middle" x="1345" y="-231.5" font-family="'Souce Sans Pro', Roboto, FreeSans, sans-serif" font-size="10.00">win32consoleappender.h</text>
</a>
</g>
</g>
<!-- Node6&#45;&gt;Node31 -->
<g id="edge47" class="edge">
<title>Node6&#45;&gt;Node31</title>
<path fill="none" stroke="midnightblue" d="M886.93,-284.6C963.51,-276.71 1128.7,-259.53 1268,-244 1272.55,-243.49 1277.25,-242.96 1281.97,-242.42"/>
<polygon fill="midnightblue" stroke="midnightblue" points="886.32,-281.14 876.73,-285.65 887.04,-288.1 886.32,-281.14"/>
</g>
<!-- Node8 -->
<g id="node8" class="node">
<title>Node8</title>
<g id="a_node8"><a xlink:href="appenderattachableimpl_8h.html" target="_top" xlink:title=" ">
<polygon fill="white" stroke="black" points="1406.5,-168.5 1406.5,-187.5 1535.5,-187.5 1535.5,-168.5 1406.5,-168.5"/>
<text text-anchor="middle" x="1471" y="-175.5" font-family="'Souce Sans Pro', Roboto, FreeSans, sans-serif" font-size="10.00">appenderattachableimpl.h</text>
</a>
</g>
</g>
<!-- Node7&#45;&gt;Node8 -->
<g id="edge7" class="edge">
<title>Node7&#45;&gt;Node8</title>
<path fill="none" stroke="midnightblue" d="M1477.5,-214.1C1475.84,-205.14 1473.94,-194.86 1472.62,-187.75"/>
<polygon fill="midnightblue" stroke="midnightblue" points="1474.09,-214.89 1479.35,-224.08 1480.97,-213.61 1474.09,-214.89"/>
</g>
<!-- Node12 -->
<g id="node12" class="node">
<title>Node12</title>
<g id="a_node12"><a xlink:href="logger_8h.html" target="_top" xlink:title="This header defines the Logger class and the logging macros.">
<polygon fill="white" stroke="black" points="1282,-168.5 1282,-187.5 1334,-187.5 1334,-168.5 1282,-168.5"/>
<text text-anchor="middle" x="1308" y="-175.5" font-family="'Souce Sans Pro', Roboto, FreeSans, sans-serif" font-size="10.00">logger.h</text>
</a>
</g>
</g>
<!-- Node7&#45;&gt;Node12 -->
<g id="edge12" class="edge">
<title>Node7&#45;&gt;Node12</title>
<path fill="none" stroke="midnightblue" d="M1443.83,-221.4C1410.8,-211.09 1363.34,-196.27 1334.15,-187.16"/>
<polygon fill="midnightblue" stroke="midnightblue" points="1443,-224.8 1453.59,-224.44 1445.08,-218.12 1443,-224.8"/>
</g>
<!-- Node8&#45;&gt;Node9 -->
<g id="edge8" class="edge">
<title>Node8&#45;&gt;Node9</title>
<path fill="none" stroke="midnightblue" d="M1506.74,-165.3C1537.83,-155.13 1582.15,-140.62 1609.98,-131.52"/>
<polygon fill="midnightblue" stroke="midnightblue" points="1505.56,-162.01 1497.14,-168.44 1507.74,-168.66 1505.56,-162.01"/>
</g>
<!-- Node10 -->
<g id="node10" class="node">
<title>Node10</title>
<g id="a_node10"><a xlink:href="loggerimpl_8h.html" target="_top" xlink:title=" ">
<polygon fill="white" stroke="black" points="1406.5,-112.5 1406.5,-131.5 1477.5,-131.5 1477.5,-112.5 1406.5,-112.5"/>
<text text-anchor="middle" x="1442" y="-119.5" font-family="'Souce Sans Pro', Roboto, FreeSans, sans-serif" font-size="10.00">loggerimpl.h</text>
</a>
</g>
</g>
<!-- Node8&#45;&gt;Node10 -->
<g id="edge10" class="edge">
<title>Node8&#45;&gt;Node10</title>
<path fill="none" stroke="midnightblue" d="M1461.32,-158.98C1456.4,-149.82 1450.64,-139.09 1446.7,-131.75"/>
<polygon fill="midnightblue" stroke="midnightblue" points="1458.4,-160.93 1466.21,-168.08 1464.56,-157.62 1458.4,-160.93"/>
</g>
<!-- Node9&#45;&gt;Node3 -->
<g id="edge9" class="edge">
<title>Node9&#45;&gt;Node3</title>
<path fill="none" stroke="midnightblue" d="M1616,-106.32C1594.09,-91.06 1557.36,-67.79 1522,-56 1407.77,-17.92 1263.17,-11.67 1198.69,-10.91"/>
<polygon fill="midnightblue" stroke="midnightblue" points="1614.25,-109.38 1624.43,-112.32 1618.3,-103.67 1614.25,-109.38"/>
</g>
<!-- Node11 -->
<g id="node11" class="node">
<title>Node11</title>
<g id="a_node11"><a xlink:href="rootlogger_8h.html" target="_top" xlink:title=" ">
<polygon fill="white" stroke="black" points="1421,-56.5 1421,-75.5 1491,-75.5 1491,-56.5 1421,-56.5"/>
<text text-anchor="middle" x="1456" y="-63.5" font-family="'Souce Sans Pro', Roboto, FreeSans, sans-serif" font-size="10.00">rootlogger.h</text>
</a>
</g>
</g>
<!-- Node10&#45;&gt;Node11 -->
<g id="edge11" class="edge">
<title>Node10&#45;&gt;Node11</title>
<path fill="none" stroke="midnightblue" d="M1446.82,-102.4C1449.17,-93.36 1451.87,-82.94 1453.73,-75.75"/>
<polygon fill="midnightblue" stroke="midnightblue" points="1443.43,-101.52 1444.31,-112.08 1450.21,-103.28 1443.43,-101.52"/>
</g>
<!-- Node12&#45;&gt;Node3 -->
<g id="edge18" class="edge">
<title>Node12&#45;&gt;Node3</title>
<path fill="none" stroke="midnightblue" d="M1283.26,-163.18C1255.14,-146.22 1209.79,-114.87 1184,-76 1172.17,-58.17 1167.56,-32.84 1165.88,-19.68"/>
<polygon fill="midnightblue" stroke="midnightblue" points="1281.69,-166.32 1292.09,-168.37 1285.24,-160.29 1281.69,-166.32"/>
</g>
<!-- Node12&#45;&gt;Node13 -->
<g id="edge13" class="edge">
<title>Node12&#45;&gt;Node13</title>
<path fill="none" stroke="midnightblue" d="M1344.24,-168.34C1386.53,-158.24 1456.02,-141.63 1498.15,-131.57"/>
<polygon fill="midnightblue" stroke="midnightblue" points="1343.28,-164.97 1334.37,-170.7 1344.91,-171.78 1343.28,-164.97"/>
</g>
<!-- Node14 -->
<g id="node14" class="node">
<title>Node14</title>
<g id="a_node14"><a xlink:href="hierarchy_8h.html" target="_top" xlink:title=" ">
<polygon fill="white" stroke="black" points="1193,-56.5 1193,-75.5 1257,-75.5 1257,-56.5 1193,-56.5"/>
<text text-anchor="middle" x="1225" y="-63.5" font-family="'Souce Sans Pro', Roboto, FreeSans, sans-serif" font-size="10.00">hierarchy.h</text>
</a>
</g>
</g>
<!-- Node12&#45;&gt;Node14 -->
<g id="edge15" class="edge">
<title>Node12&#45;&gt;Node14</title>
<path fill="none" stroke="midnightblue" d="M1295.38,-160.27C1277.44,-136.49 1245.21,-93.79 1231.48,-75.59"/>
<polygon fill="midnightblue" stroke="midnightblue" points="1292.67,-162.49 1301.49,-168.37 1298.26,-158.28 1292.67,-162.49"/>
</g>
<!-- Node12&#45;&gt;Node15 -->
<g id="edge17" class="edge">
<title>Node12&#45;&gt;Node15</title>
<path fill="none" stroke="midnightblue" d="M1272.32,-165.8C1239.88,-155.61 1192.71,-140.81 1163.22,-131.55"/>
<polygon fill="midnightblue" stroke="midnightblue" points="1271.29,-169.14 1281.88,-168.8 1273.38,-162.46 1271.29,-169.14"/>
</g>
<!-- Node16 -->
<g id="node16" class="node">
<title>Node16</title>
<g id="a_node16"><a xlink:href="loggingmacros_8h.html" target="_top" xlink:title="This header defines the logging macros.">
<polygon fill="white" stroke="black" points="1275,-56.5 1275,-75.5 1365,-75.5 1365,-56.5 1275,-56.5"/>
<text text-anchor="middle" x="1320" y="-63.5" font-family="'Souce Sans Pro', Roboto, FreeSans, sans-serif" font-size="10.00">loggingmacros.h</text>
</a>
</g>
</g>
<!-- Node12&#45;&gt;Node16 -->
<g id="edge19" class="edge">
<title>Node12&#45;&gt;Node16</title>
<path fill="none" stroke="midnightblue" d="M1305.07,-158.02C1303.56,-144.99 1302.51,-127.35 1305,-112 1307.11,-98.99 1312.44,-84.67 1316.14,-75.75"/>
<polygon fill="midnightblue" stroke="midnightblue" points="1301.63,-158.66 1306.44,-168.1 1308.57,-157.72 1301.63,-158.66"/>
</g>
<!-- Node17 -->
<g id="node17" class="node">
<title>Node17</title>
<g id="a_node17"><a xlink:href="tracelogger_8h.html" target="_top" xlink:title=" ">
<polygon fill="white" stroke="black" points="1314,-112.5 1314,-131.5 1388,-131.5 1388,-112.5 1314,-112.5"/>
<text text-anchor="middle" x="1351" y="-119.5" font-family="'Souce Sans Pro', Roboto, FreeSans, sans-serif" font-size="10.00">tracelogger.h</text>
</a>
</g>
</g>
<!-- Node12&#45;&gt;Node17 -->
<g id="edge21" class="edge">
<title>Node12&#45;&gt;Node17</title>
<path fill="none" stroke="midnightblue" d="M1321.42,-160.14C1328.91,-150.74 1337.94,-139.4 1344.03,-131.75"/>
<polygon fill="midnightblue" stroke="midnightblue" points="1318.59,-158.08 1315.1,-168.08 1324.07,-162.44 1318.59,-158.08"/>
</g>
<!-- Node13&#45;&gt;Node3 -->
<g id="edge14" class="edge">
<title>Node13&#45;&gt;Node3</title>
<path fill="none" stroke="midnightblue" d="M1529.36,-102.34C1524.59,-87.3 1515.61,-66.94 1500,-56 1451.82,-22.24 1273.62,-13.76 1198.62,-11.67"/>
<polygon fill="midnightblue" stroke="midnightblue" points="1526.03,-103.45 1532.12,-112.13 1532.77,-101.55 1526.03,-103.45"/>
</g>
<!-- Node14&#45;&gt;Node3 -->
<g id="edge16" class="edge">
<title>Node14&#45;&gt;Node3</title>
<path fill="none" stroke="midnightblue" d="M1207.82,-49.54C1197.12,-39.91 1183.74,-27.87 1174.82,-19.83"/>
<polygon fill="midnightblue" stroke="midnightblue" points="1205.59,-52.24 1215.36,-56.32 1210.27,-47.03 1205.59,-52.24"/>
</g>
<!-- Node16&#45;&gt;Node3 -->
<g id="edge20" class="edge">
<title>Node16&#45;&gt;Node3</title>
<path fill="none" stroke="midnightblue" d="M1285.67,-53.04C1256.5,-42.88 1215.36,-28.55 1189.45,-19.52"/>
<polygon fill="midnightblue" stroke="midnightblue" points="1284.84,-56.46 1295.44,-56.44 1287.15,-49.85 1284.84,-56.46"/>
</g>
<!-- Node17&#45;&gt;Node3 -->
<g id="edge22" class="edge">
<title>Node17&#45;&gt;Node3</title>
<path fill="none" stroke="midnightblue" d="M1365.22,-104.18C1375.35,-90.07 1385.34,-70.04 1374,-56 1352.37,-29.22 1252.35,-17.62 1198.9,-13.27"/>
<polygon fill="midnightblue" stroke="midnightblue" points="1362.45,-102.05 1359.09,-112.09 1367.98,-106.34 1362.45,-102.05"/>
</g>
<!-- Node17&#45;&gt;Node16 -->
<g id="edge23" class="edge">
<title>Node17&#45;&gt;Node16</title>
<path fill="none" stroke="midnightblue" d="M1340.82,-103.27C1335.53,-94.05 1329.28,-83.17 1325.02,-75.75"/>
<polygon fill="midnightblue" stroke="midnightblue" points="1337.87,-105.15 1345.88,-112.08 1343.94,-101.67 1337.87,-105.15"/>
</g>
<!-- Node20&#45;&gt;Node3 -->
<g id="edge29" class="edge">
<title>Node20&#45;&gt;Node3</title>
<path fill="none" stroke="midnightblue" d="M280.95,-61.52C461.96,-51.17 992.4,-20.86 1131.36,-12.92"/>
<polygon fill="midnightblue" stroke="midnightblue" points="280.59,-58.03 270.81,-62.1 280.99,-65.02 280.59,-58.03"/>
</g>
<!-- Node22&#45;&gt;Node3 -->
<g id="edge32" class="edge">
<title>Node22&#45;&gt;Node3</title>
<path fill="none" stroke="midnightblue" d="M60.64,-214.18C71.06,-176.43 100.24,-92 160,-56 202.5,-30.4 961.49,-14.79 1131.43,-11.61"/>
<polygon fill="midnightblue" stroke="midnightblue" points="57.14,-213.74 57.99,-224.3 63.91,-215.51 57.14,-213.74"/>
</g>
<!-- Node26&#45;&gt;Node3 -->
<g id="edge40" class="edge">
<title>Node26&#45;&gt;Node3</title>
<path fill="none" stroke="midnightblue" d="M644.38,-60.24C758.73,-49.42 1035.44,-23.25 1131.49,-14.17"/>
<polygon fill="midnightblue" stroke="midnightblue" points="643.78,-56.78 634.15,-61.2 644.44,-63.75 643.78,-56.78"/>
</g>
<!-- Node29&#45;&gt;Node3 -->
<g id="edge44" class="edge">
<title>Node29&#45;&gt;Node3</title>
<path fill="none" stroke="midnightblue" d="M626.37,-163.92C675.65,-139.06 788.33,-84.91 889,-56 974.39,-31.47 1078.74,-19.02 1131.3,-13.91"/>
<polygon fill="midnightblue" stroke="midnightblue" points="624.71,-160.84 617.38,-168.49 627.88,-167.08 624.71,-160.84"/>
</g>
<!-- Node30&#45;&gt;Node3 -->
<g id="edge46" class="edge">
<title>Node30&#45;&gt;Node3</title>
<path fill="none" stroke="midnightblue" d="M989.81,-54C1031.76,-43.7 1093.51,-28.55 1131.39,-19.25"/>
<polygon fill="midnightblue" stroke="midnightblue" points="988.74,-50.66 979.86,-56.44 990.41,-57.46 988.74,-50.66"/>
</g>
<!-- Node32&#45;&gt;Node3 -->
<g id="edge53" class="edge">
<title>Node32&#45;&gt;Node3</title>
<path fill="none" stroke="midnightblue" d="M1696.03,-214.69C1703.17,-189.31 1711.69,-143.07 1691,-112 1635.92,-29.28 1306.11,-14.28 1198.75,-11.59"/>
<polygon fill="midnightblue" stroke="midnightblue" points="1692.62,-213.88 1693.05,-224.47 1699.31,-215.92 1692.62,-213.88"/>
</g>
<!-- Node33 -->
<g id="node33" class="node">
<title>Node33</title>
<g id="a_node33"><a xlink:href="internal_8h.html" target="_top" xlink:title="This header contains declaration internal to log4cplus.">
<polygon fill="white" stroke="black" points="1756.5,-168.5 1756.5,-187.5 1813.5,-187.5 1813.5,-168.5 1756.5,-168.5"/>
<text text-anchor="middle" x="1785" y="-175.5" font-family="'Souce Sans Pro', Roboto, FreeSans, sans-serif" font-size="10.00">internal.h</text>
</a>
</g>
</g>
<!-- Node32&#45;&gt;Node33 -->
<g id="edge51" class="edge">
<title>Node32&#45;&gt;Node33</title>
<path fill="none" stroke="midnightblue" d="M1714.32,-219.18C1731.8,-209.24 1754.83,-196.15 1769.77,-187.65"/>
<polygon fill="midnightblue" stroke="midnightblue" points="1712.23,-216.34 1705.26,-224.32 1715.69,-222.43 1712.23,-216.34"/>
</g>
<!-- Node35 -->
<g id="node35" class="node">
<title>Node35</title>
<g id="a_node35"><a xlink:href="queue_8h.html" target="_top" xlink:title=" ">
<polygon fill="white" stroke="black" points="1630,-168.5 1630,-187.5 1682,-187.5 1682,-168.5 1630,-168.5"/>
<text text-anchor="middle" x="1656" y="-175.5" font-family="'Souce Sans Pro', Roboto, FreeSans, sans-serif" font-size="10.00">queue.h</text>
</a>
</g>
</g>
<!-- Node32&#45;&gt;Node35 -->
<g id="edge54" class="edge">
<title>Node32&#45;&gt;Node35</title>
<path fill="none" stroke="midnightblue" d="M1679.02,-215.57C1673.17,-206.27 1666.23,-195.25 1661.51,-187.75"/>
<polygon fill="midnightblue" stroke="midnightblue" points="1676.1,-217.49 1684.39,-224.08 1682.02,-213.76 1676.1,-217.49"/>
</g>
<!-- Node34 -->
<g id="node34" class="node">
<title>Node34</title>
<g id="a_node34"><a xlink:href="customloglevelmanager_8h.html" target="_top" xlink:title="This header contains declaration internal to log4cplus.">
<polygon fill="white" stroke="black" points="1738,-112.5 1738,-131.5 1868,-131.5 1868,-112.5 1738,-112.5"/>
<text text-anchor="middle" x="1803" y="-119.5" font-family="'Souce Sans Pro', Roboto, FreeSans, sans-serif" font-size="10.00">customloglevelmanager.h</text>
</a>
</g>
</g>
<!-- Node33&#45;&gt;Node34 -->
<g id="edge52" class="edge">
<title>Node33&#45;&gt;Node34</title>
<path fill="none" stroke="midnightblue" d="M1791.2,-158.4C1794.21,-149.36 1797.69,-138.94 1800.08,-131.75"/>
<polygon fill="midnightblue" stroke="midnightblue" points="1787.81,-157.49 1787.97,-168.08 1794.46,-159.7 1787.81,-157.49"/>
</g>
<!-- Node35&#45;&gt;Node9 -->
<g id="edge55" class="edge">
<title>Node35&#45;&gt;Node9</title>
<path fill="none" stroke="midnightblue" d="M1649.22,-158.69C1645.85,-149.59 1641.93,-139.01 1639.24,-131.75"/>
<polygon fill="midnightblue" stroke="midnightblue" points="1645.94,-159.92 1652.7,-168.08 1652.51,-157.49 1645.94,-159.92"/>
</g>
</g>
</svg>
